<svg width="252" height="357" viewBox="0 0 252 357" fill="none" xmlns="http://www.w3.org/2000/svg">
<g clip-path="url(#clip0_1831_18055)">
<path d="M192.008 231.413C192.008 231.413 210.302 242.3 215.409 309.98C218.813 354.418 235.708 369.725 236.339 381.628C236.339 381.628 216.264 371.424 211.013 381.628C205.763 391.832 204.237 392.965 189.112 389.564C173.987 386.164 167.507 379.191 149.465 386.73C131.423 394.269 137.176 369.913 112.959 375.014C88.7416 380.115 86.4317 381.628 76.2181 386.73C66.0044 391.832 66.3001 377.66 55.5292 377.66C44.7583 377.66 45.0107 387.486 36.3098 385.974C27.609 384.462 22.3918 364.054 15.5435 360.086C8.69516 356.118 -1.81226 358.953 -1.81226 358.953C-1.81226 358.953 25.2057 329.53 34.7083 309.98C44.2109 290.43 51.2031 233.12 66.0688 231.413C80.9345 229.706 189.978 229.383 192.008 231.413Z" fill="#99EBC2" stroke="#212121" stroke-width="1.74155" stroke-linejoin="round"/>
<path d="M302.983 286.512C282.858 309.271 258.07 313.938 236.339 311.86C251.786 301.174 246.431 275.366 246.431 275.366C261.978 279.803 283.283 278.156 297.463 276.207C298.725 276.035 300.009 276.252 301.144 276.83C302.278 277.408 303.209 278.32 303.81 279.442C304.411 280.564 304.654 281.842 304.506 283.106C304.358 284.37 303.827 285.559 302.983 286.512Z" fill="#99EBC2" stroke="#212121" stroke-width="1.74155" stroke-linejoin="round"/>
<path d="M236.336 311.86C207.538 309.113 184.124 294.515 184.124 294.515L174.695 242.295C204.097 243.608 221.019 263.084 238.61 272.317C241.107 273.595 243.727 274.616 246.431 275.366C246.431 275.366 251.786 301.174 236.336 311.86Z" fill="#00CC66" stroke="#212121" stroke-width="1.74155" stroke-linejoin="round"/>
<path d="M12.0788 205.207C12.0788 205.207 -4.88655 211.679 -6.80087 239.968C-21.2033 217.238 -28.6187 189.152 -16.676 156.855C-14.5961 151.239 -5.64223 152.109 -4.26021 157.733C-1.20112 170.18 3.79459 191.056 12.0788 205.207Z" fill="#99EBC2" stroke="#212121" stroke-width="1.74155" stroke-linejoin="round"/>
<path d="M76.2178 257.356L66.7546 304.018C66.7546 304.018 18.8757 280.496 -6.79907 239.968C-4.88475 211.679 12.0806 205.207 12.0806 205.207C14.7368 209.752 17.7322 213.599 21.1139 216.252C37.0258 228.743 63.7587 230.706 76.2178 257.356Z" fill="#00CC66" stroke="#212121" stroke-width="1.74155" stroke-linejoin="round"/>
<path d="M203.704 361.867L176.872 439.264C176.147 441.152 174.867 442.777 173.199 443.924C171.531 445.07 169.555 445.685 167.531 445.687H147.684C145.287 445.685 142.969 444.823 141.154 443.258C139.339 441.692 138.147 439.528 137.795 437.158L130.331 386.915C130.284 386.606 130.128 386.324 129.891 386.12C129.654 385.916 129.352 385.804 129.039 385.804C128.726 385.804 128.423 385.916 128.186 386.12C127.949 386.324 127.793 386.606 127.747 386.915L120.281 437.166C119.927 439.534 118.734 441.697 116.919 443.26C115.104 444.824 112.788 445.685 110.391 445.687H90.5447C88.5201 445.686 86.5435 445.071 84.8756 443.925C83.2076 442.778 81.9268 441.154 81.2018 439.265L54.3691 361.876C48.6813 347.015 47.1437 330.888 49.9208 315.221L64.4218 239.968L66.07 231.411H192.009L208.153 315.221C210.93 330.886 209.393 347.009 203.704 361.867Z" fill="#00CC66" stroke="#212121" stroke-width="1.74155" stroke-linejoin="round"/>
<path d="M192.015 231.412H66.0693L64.4211 239.969C64.4211 239.969 69.4596 243.371 78.1559 243.622C86.8521 243.874 129.045 243.622 129.045 243.622C129.045 243.622 171.231 243.874 179.933 243.622C188.635 243.37 193.667 239.969 193.667 239.969L192.015 231.412Z" fill="#007A3D" stroke="#212121" stroke-width="1.74155" stroke-linejoin="round"/>
<path d="M135.063 255.087L134.786 249.166L129.043 248.221L123.298 249.166L123.022 255.087L116.021 322.93C115.936 323.441 115.958 323.964 116.087 324.466C116.216 324.968 116.449 325.437 116.77 325.843L126.126 337.68C126.474 338.12 126.917 338.475 127.422 338.72C127.927 338.964 128.481 339.091 129.042 339.091C129.604 339.091 130.157 338.964 130.663 338.72C131.168 338.475 131.611 338.12 131.959 337.68L141.315 325.843C141.636 325.437 141.869 324.968 141.998 324.466C142.127 323.964 142.149 323.441 142.064 322.93L135.063 255.087Z" fill="#007A3D" stroke="#212121" stroke-width="1.74155" stroke-linejoin="round"/>
<path d="M139.351 235.862H118.735L115.75 243.733L123.022 255.087C123.743 254.183 124.659 253.453 125.701 252.951C126.744 252.45 127.886 252.189 129.043 252.189C130.2 252.189 131.342 252.45 132.384 252.951C133.426 253.453 134.342 254.183 135.063 255.087L142.335 243.733L139.351 235.862Z" fill="#007A3D" stroke="#212121" stroke-width="1.74155" stroke-linejoin="round"/>
<path d="M192.008 231.412C192.008 231.412 189.117 242.742 182.057 248.22C174.998 253.697 179.903 269.068 187.033 270.832C191.154 271.906 195.481 271.906 199.602 270.832L192.008 231.412Z" fill="#99EBC2" stroke="#212121" stroke-width="1.74155" stroke-linejoin="round"/>
<path d="M66.1358 231.412C66.1358 231.412 69.0273 242.742 76.0872 248.22C83.1471 253.698 78.2408 269.068 71.1119 270.832C66.9909 271.906 62.6632 271.906 58.5422 270.832L66.1358 231.412Z" fill="#99EBC2" stroke="#212121" stroke-width="1.74155" stroke-linejoin="round"/>
<path d="M202.32 62.9282C198.208 53.0702 202.32 28.3212 202.32 28.3212C188.651 31.2993 164.493 53.0728 164.493 53.0728C177.599 32.8074 167.577 1.31567 167.577 1.31567C167.577 1.31567 151.383 35.857 101.586 53.0728C47.3849 71.8073 35.4547 107.523 32.6657 124.39C31.7895 127.961 31.3967 131.635 31.498 135.311C31.498 135.723 31.4822 138.08 31.4822 138.08V182.77C31.4821 189.742 32.8566 196.646 35.5272 203.087C38.1978 209.529 42.1121 215.382 47.0467 220.312C51.9814 225.242 57.8397 229.152 64.2872 231.821C70.7346 234.489 77.645 235.862 84.6237 235.862H169.939C184.033 235.862 197.55 230.268 207.516 220.311C217.482 210.355 223.081 196.851 223.081 182.77V135.942C223.083 105.854 206.431 72.7868 202.32 62.9282Z" fill="#00CC66" stroke="#212121" stroke-width="1.74155" stroke-linejoin="round"/>
<path d="M170.779 216.491H84.1367C79.5716 216.491 75.0517 215.588 70.8378 213.833C66.624 212.079 62.7998 209.508 59.5859 206.268C56.3721 203.029 53.8323 199.186 52.1132 194.961C50.3941 190.736 49.5297 186.213 49.5699 181.652L49.9741 136.005C50.0548 126.899 53.7323 118.194 60.2061 111.783C66.6799 105.373 75.426 101.777 84.5409 101.777H170.892C175.439 101.777 179.94 102.673 184.14 104.414C188.339 106.155 192.153 108.706 195.364 111.921C198.575 115.137 201.12 118.954 202.852 123.153C204.584 127.353 205.47 131.852 205.459 136.395L205.348 182.041C205.326 191.186 201.674 199.948 195.193 206.407C188.712 212.865 179.932 216.491 170.779 216.491Z" fill="#212121"/>
<path d="M93.2358 170.092C100.019 170.092 105.518 161.593 105.518 151.108C105.518 140.623 100.019 132.123 93.2358 132.123C86.4524 132.123 80.9534 140.623 80.9534 151.108C80.9534 161.593 86.4524 170.092 93.2358 170.092Z" fill="#99EBC2"/>
<path d="M161.747 170.092C168.53 170.092 174.029 161.593 174.029 151.108C174.029 140.623 168.53 132.123 161.747 132.123C154.964 132.123 149.465 140.623 149.465 151.108C149.465 161.593 154.964 170.092 161.747 170.092Z" fill="#99EBC2"/>
<path d="M108.638 185.539H146.345C146.345 185.539 148.33 200.202 127.491 200.202C106.652 200.202 108.638 185.539 108.638 185.539Z" fill="#99EBC2"/>
<path d="M232.184 124.914V184.725H243.903C243.903 184.725 252.78 174.37 252.78 153.802C252.78 133.234 244.701 124.918 244.701 124.918L232.184 124.914Z" fill="#00A352" stroke="#212121" stroke-width="1.74155" stroke-linejoin="round"/>
<path d="M232.183 124.914H223.083V184.725H232.183V124.914Z" fill="#007A3D" stroke="#212121" stroke-width="1.74155" stroke-linejoin="round"/>
<path d="M174.032 189.131V197.581H163.4C162.279 197.581 161.203 197.136 160.41 196.344C159.617 195.551 159.171 194.477 159.171 193.356C159.171 192.236 159.617 191.161 160.41 190.369C161.203 189.576 162.279 189.131 163.4 189.131H174.032Z" fill="#99EBC2" stroke="#212121" stroke-width="1.74155" stroke-linejoin="round"/>
<path d="M246.433 158.602V168.245C246.433 170.57 245.593 172.817 244.068 174.573L237.978 181.57L227.633 193.465C226.512 194.759 225.125 195.797 223.566 196.507C222.007 197.216 220.313 197.582 218.6 197.578H174.032V189.131H214.742C216.455 189.133 218.148 188.766 219.707 188.056C221.265 187.347 222.653 186.311 223.775 185.018L235.609 171.413C237.134 169.657 237.974 167.41 237.974 165.085V158.602H246.433Z" fill="#007A3D" stroke="#212121" stroke-width="1.30616" stroke-miterlimit="10"/>
</g>
<defs>
<clipPath id="clip0_1831_18055">
<rect width="330" height="447" fill="white" transform="translate(-24)"/>
</clipPath>
</defs>
</svg>
