<svg width="252" height="329" viewBox="0 0 252 329" fill="none" xmlns="http://www.w3.org/2000/svg">
<g clip-path="url(#clip0_1831_18018)">
<path d="M181.956 292.683C181.956 292.683 267.915 251.036 275.381 236.526C282.846 222.015 256.389 197.393 247.967 198.92C239.544 200.448 200.218 230.53 200.218 230.53L181.956 292.683Z" fill="#F5D106" stroke="#212121" stroke-width="1.74155" stroke-linejoin="round"/>
<path d="M70.0422 230.907C70.0422 230.907 -15.9172 272.557 -23.3826 287.067C-30.8479 301.578 -4.39095 326.2 4.03131 324.673C12.4536 323.145 51.78 293.063 51.78 293.063L70.0422 230.907Z" fill="#F5D106" stroke="#212121" stroke-width="1.74155" stroke-linejoin="round"/>
<path d="M124.443 329.16H48.7852V334.937L56.4308 399.145C57.4258 407.505 63.3366 413.709 70.305 413.709H99.718C105.378 413.709 110.483 409.583 112.659 403.249L122.226 375.403C123.047 373.015 125.838 373.015 126.659 375.403L136.225 403.247C138.402 409.581 143.507 413.707 149.167 413.707H178.58C185.548 413.707 191.459 407.503 192.455 399.143L200.1 334.937V329.16H124.443Z" fill="#F5D106" stroke="#212121" stroke-width="1.74155" stroke-linejoin="round"/>
<path d="M203.435 314.407C191.181 317.31 166.715 321.28 124.439 321.28C82.1323 321.28 57.6784 317.304 45.4485 314.4C45.4666 268.489 52.4111 216.554 52.4111 216.554H196.473C196.473 216.554 203.417 268.496 203.435 314.407Z" fill="#F5D106" stroke="#212121" stroke-width="1.74155" stroke-linejoin="round"/>
<path d="M124.44 298.016C100.591 298.016 84.083 296.092 73.4116 294.111C74.008 268.541 76.0194 242.766 77.424 227.213H171.459C172.864 242.775 174.875 268.562 175.472 294.114C164.796 296.093 148.283 298.016 124.44 298.016Z" fill="#CCA41E" stroke="#212121" stroke-width="1.74155" stroke-linejoin="round"/>
<path d="M203.436 314.406C203.442 318.735 203.381 323.016 203.246 327.195C203.104 331.612 200.08 335.248 196.11 335.805C172.362 339.105 148.421 340.818 124.445 340.934C100.468 340.819 76.5245 339.105 52.7744 335.805C48.804 335.248 45.7801 331.612 45.6392 327.195C45.5035 323.016 45.4454 318.735 45.4486 314.4C57.6785 317.304 82.1325 321.28 124.439 321.28C166.716 321.28 191.179 317.31 203.436 314.406Z" fill="#CCA41E" stroke="#212121" stroke-width="1.74155" stroke-linejoin="round"/>
<path d="M201.388 219.153H47.4948C47.4948 219.153 41.511 222.545 46.1664 229.513C50.8217 236.48 59.0889 238.603 78.7615 244.621C98.4341 250.639 124.442 272.383 124.442 272.383C124.442 272.383 150.457 250.639 170.123 244.621C189.789 238.603 198.063 236.48 202.718 229.512C207.374 222.545 201.388 219.153 201.388 219.153Z" fill="#FFEBA8" stroke="#212121" stroke-width="1.74155" stroke-linejoin="round"/>
<path d="M25.6597 98.6051L41.9182 1.29382L114.525 70.6067L25.6597 98.6051Z" fill="#F5D106" stroke="#212121" stroke-width="1.74155" stroke-linejoin="round"/>
<path d="M51.3453 29.6079L87.7674 64.3772L43.1892 78.4217L51.3453 29.6079Z" fill="#FFE17C" stroke="#212121" stroke-width="1.74155" stroke-linejoin="round"/>
<path d="M223.227 98.6051L206.966 1.29382L134.358 70.6067L223.227 98.6051Z" fill="#F5D106" stroke="#212121" stroke-width="1.74155" stroke-linejoin="round"/>
<path d="M161.117 64.3804L197.539 29.6111L205.694 78.4249L161.117 64.3804Z" fill="#FFE17C" stroke="#212121" stroke-width="1.74155" stroke-linejoin="round"/>
<path d="M55.6119 219.154H193.272C202.007 219.154 210.385 215.679 216.562 209.495C222.739 203.311 226.209 194.923 226.209 186.177V80.2271C226.206 76.5173 224.923 72.9225 222.577 70.051C220.231 67.1794 216.966 65.2073 213.335 64.4684C154.68 52.4629 94.2041 52.4629 35.5484 64.4684C31.9172 65.2073 28.6525 67.1794 26.3066 70.051C23.9606 72.9225 22.6775 76.5173 22.6743 80.2271V186.177C22.6743 190.508 23.5263 194.796 25.1815 198.797C26.8368 202.798 29.263 206.433 32.3215 209.495C35.3801 212.557 39.0111 214.986 43.0072 216.643C47.0034 218.301 51.2865 219.154 55.6119 219.154Z" fill="#F5D106" stroke="#212121" stroke-width="1.74155" stroke-linejoin="round"/>
<path d="M55.6118 200.514C51.8144 200.514 48.1725 199.004 45.4874 196.316C42.8022 193.627 41.2937 189.981 41.2937 186.179V98.4077C41.2964 96.757 41.8766 95.1594 42.9337 93.8925C43.9907 92.6256 45.4578 91.7696 47.0798 91.4732C98.2204 81.9993 150.663 81.9993 201.804 91.4732C203.426 91.7696 204.893 92.6256 205.95 93.8925C207.007 95.1594 207.587 96.757 207.59 98.4077V186.177C207.59 189.979 206.081 193.625 203.396 196.314C200.711 199.002 197.069 200.512 193.272 200.512L55.6118 200.514Z" fill="#212121"/>
<path d="M140.07 170.288C139.79 170.213 139.493 170.238 139.229 170.358C138.966 170.479 138.753 170.688 138.627 170.95C138.167 172.08 137.319 173.008 136.237 173.569H136.232C134.993 174.216 133.61 174.534 132.213 174.492C127.012 174.492 125.641 171.08 125.581 170.922C125.57 170.884 125.534 170.857 125.511 170.819C125.48 170.761 125.444 170.705 125.404 170.652C125.355 170.606 125.304 170.562 125.251 170.522C125.191 170.485 125.144 170.448 125.085 170.41C125.012 170.38 124.937 170.355 124.86 170.336C124.819 170.313 124.776 170.295 124.731 170.28H124.66C124.581 170.272 124.502 170.269 124.423 170.271H124.418C124.339 170.268 124.26 170.274 124.182 170.289H124.111C124.066 170.304 124.023 170.323 123.982 170.345C123.909 170.369 123.838 170.397 123.769 170.429C123.71 170.463 123.654 170.504 123.604 170.55C123.551 170.588 123.504 170.631 123.461 170.679C123.422 170.736 123.386 170.795 123.355 170.857C123.343 170.894 123.308 170.921 123.296 170.959C123.249 171.099 122.114 174.49 116.877 174.492C115.416 174.532 113.97 174.192 112.681 173.504C111.606 172.936 110.749 172.028 110.244 170.922C110.114 170.663 109.897 170.458 109.631 170.342C109.366 170.226 109.068 170.207 108.79 170.288C108.163 170.437 107.796 170.95 107.974 171.444C108.828 173.321 110.392 174.782 112.321 175.505C112.392 179.867 117.796 183.39 124.443 183.39C131.053 183.39 136.434 179.905 136.565 175.581H136.571C137.548 175.232 138.441 174.681 139.191 173.963C139.94 173.245 140.531 172.377 140.923 171.415C140.95 171.284 140.95 171.148 140.92 171.017C140.891 170.887 140.834 170.764 140.753 170.657C140.672 170.55 140.569 170.462 140.452 170.398C140.334 170.335 140.204 170.297 140.07 170.288Z" fill="#FFEBA8"/>
<path d="M62.6133 136.186C62.6133 136.186 69.7853 124.957 83.3436 124.957C96.902 124.957 104.074 136.186 104.074 136.186" stroke="#FFEBA8" stroke-width="1.74155" stroke-linecap="round" stroke-linejoin="round"/>
<path d="M144.81 136.186C144.81 136.186 151.979 124.958 165.54 124.958C179.101 124.958 186.268 136.186 186.268 136.186" stroke="#FFEBA8" stroke-width="1.74155" stroke-linecap="round" stroke-linejoin="round"/>
<path d="M235.697 101.772V164.274H247.918C247.918 164.274 257.175 153.453 257.175 131.957C257.175 110.461 248.75 101.772 248.75 101.772H235.697Z" fill="#F5D106" stroke="#212121" stroke-width="1.74155" stroke-linejoin="round"/>
<path d="M235.7 101.773H226.209V164.273H235.7V101.773Z" fill="#CCA41E" stroke="#212121" stroke-width="1.74155" stroke-linejoin="round"/>
<path d="M13.184 101.773V164.274H0.96382C0.96382 164.274 -8.29321 153.453 -8.29321 131.957C-8.29321 110.461 0.130962 101.773 0.130962 101.773H13.184Z" fill="#F5D106" stroke="#212121" stroke-width="1.74155" stroke-linejoin="round"/>
<path d="M13.184 164.274H22.6743L22.6743 101.773H13.184L13.184 164.274Z" fill="#CCA41E" stroke="#212121" stroke-width="1.74155" stroke-linejoin="round"/>
<path opacity="0.5" d="M213.096 107.022L198.617 101.947C198.617 101.947 179.62 94.5614 124.441 94.5614C69.262 94.5614 50.2659 101.947 50.2659 101.947L35.7862 107.022H22.6743V158.99H47.3712C54.772 158.99 67.7494 171.447 87.767 164.447C112.803 155.694 124.438 156.413 124.442 156.413C124.446 156.413 136.08 155.694 161.116 164.447C181.134 171.447 194.112 158.99 201.512 158.99H226.209V107.022H213.096Z" fill="white" stroke="#212121" stroke-width="1.74155" stroke-linecap="round" stroke-linejoin="round"/>
<path d="M213.096 107.022L198.617 101.947C198.617 101.947 179.62 94.5614 124.441 94.5614C69.262 94.5614 50.2659 101.947 50.2659 101.947L35.7862 107.022H22.6743V158.99H47.3712C54.772 158.99 67.7494 171.447 87.767 164.447C112.803 155.694 124.438 156.413 124.442 156.413C124.446 156.413 136.08 155.694 161.116 164.447C181.134 171.447 194.112 158.99 201.512 158.99H226.209V107.022H213.096Z" stroke="#212121" stroke-width="1.74155" stroke-linejoin="round"/>
</g>
<defs>
<clipPath id="clip0_1831_18018">
<rect width="304" height="415" fill="white" transform="translate(-26)"/>
</clipPath>
</defs>
</svg>
