<svg width="220" height="337" viewBox="0 0 220 337" fill="none" xmlns="http://www.w3.org/2000/svg">
<g clip-path="url(#clip0_1831_17982)">
<path d="M205.04 297.431L182.514 307.069C182.514 307.069 182.303 306.417 181.908 305.242C180.146 299.998 174.683 284.37 167.512 270.12C166.036 267.186 164.491 264.319 162.886 261.609C158.953 254.94 154.681 249.241 150.34 246.028C133.712 233.714 150.279 216.041 150.279 216.041C150.279 216.041 164.716 221.006 183.337 251.876C184.788 254.288 186.267 256.859 187.773 259.592C193.973 271.066 199.436 282.922 204.129 295.088C204.435 295.862 204.734 296.643 205.04 297.431Z" fill="#E50C54" stroke="#212121" stroke-width="1.74155" stroke-linejoin="round"/>
<path d="M216.689 322.08L208.388 318.12C209.252 316.316 209.56 314.297 209.274 312.318C208.987 310.338 208.12 308.489 206.781 307.002C205.441 305.515 203.69 304.458 201.749 303.965C199.808 303.471 197.764 303.564 195.876 304.23C193.987 304.896 192.339 306.107 191.14 307.708C189.941 309.31 189.244 311.23 189.138 313.227C189.032 315.224 189.521 317.207 190.544 318.926C191.567 320.645 193.078 322.023 194.886 322.885L190.919 331.171C187.47 329.526 184.586 326.897 182.634 323.616C180.681 320.335 179.747 316.549 179.949 312.738C180.151 308.927 181.481 305.262 183.77 302.205C186.059 299.148 189.205 296.838 192.809 295.566C196.414 294.294 200.315 294.118 204.02 295.06C207.724 296.001 211.066 298.019 213.622 300.856C216.179 303.694 217.835 307.225 218.381 311.002C218.927 314.779 218.339 318.634 216.691 322.077L216.689 322.08Z" fill="#E50C54" stroke="#212121" stroke-width="1.74155" stroke-linejoin="round"/>
<path d="M187.773 259.592C182.766 260.278 173.833 262.553 167.512 270.12C166.036 267.186 164.491 264.319 162.886 261.609C169.601 254.267 178.792 252.365 183.337 251.876C184.786 254.288 186.265 256.859 187.773 259.592Z" fill="#890732" stroke="#212121" stroke-width="1.74155" stroke-linejoin="round"/>
<path d="M14.9609 297.431L37.4873 307.069C37.4873 307.069 37.6982 306.417 38.0928 305.242C39.8549 299.998 45.3181 284.37 52.489 270.12C53.9654 267.186 55.5098 264.319 57.1154 261.609C61.0478 254.94 65.3204 249.241 69.6611 246.028C86.2888 233.714 69.7223 216.041 69.7223 216.041C69.7223 216.041 55.2853 221.006 36.6641 251.876C35.2127 254.288 33.7341 256.859 32.2282 259.592C26.0285 271.066 20.5656 282.922 15.8726 295.088C15.5664 295.862 15.2671 296.643 14.9609 297.431Z" fill="#E50C54" stroke="#212121" stroke-width="1.74155" stroke-linejoin="round"/>
<path d="M3.31204 322.08L11.6123 318.12C10.7489 316.316 10.4409 314.297 10.7271 312.318C11.0133 310.338 11.8809 308.489 13.2203 307.002C14.5596 305.515 16.3105 304.458 18.2515 303.965C20.1925 303.471 22.2365 303.564 24.125 304.23C26.0134 304.896 27.6615 306.107 28.8609 307.708C30.0602 309.31 30.757 311.23 30.863 313.227C30.969 315.224 30.4795 317.207 29.4564 318.926C28.4333 320.645 26.9225 322.023 25.1152 322.885L29.0816 331.171C32.5311 329.526 35.4145 326.897 37.3672 323.616C39.3199 320.335 40.2541 316.549 40.0518 312.738C39.8495 308.927 38.5196 305.262 36.2305 302.205C33.9414 299.148 30.7957 296.838 27.1914 295.566C23.587 294.294 19.6858 294.118 15.9811 295.06C12.2764 296.001 8.93465 298.019 6.37835 300.856C3.82205 303.694 2.16605 307.225 1.61977 311.002C1.07348 314.779 1.66144 318.634 3.30931 322.077L3.31204 322.08Z" fill="#E50C54" stroke="#212121" stroke-width="1.74155" stroke-linejoin="round"/>
<path d="M32.228 259.592C37.2354 260.278 46.1684 262.553 52.4888 270.12C53.9652 267.186 55.5096 264.319 57.1152 261.609C50.4002 254.267 41.2086 252.365 36.6639 251.876C35.2148 254.288 33.7361 256.859 32.228 259.592Z" fill="#890732" stroke="#212121" stroke-width="1.74155" stroke-linejoin="round"/>
<path d="M110 343.855L109.946 344.317L107.803 362.411L104.796 387.8C104.605 389.408 103.831 390.892 102.618 391.968C101.405 393.045 99.8393 393.64 98.2165 393.641H67.0837C65.5699 393.64 64.1019 393.122 62.9236 392.173C61.7454 391.224 60.9278 389.901 60.6068 388.424L55.0483 362.723L48.7959 333.816L109.803 343.821L110 343.855Z" fill="#E50C54" stroke="#212121" stroke-width="1.74155" stroke-linejoin="round"/>
<path d="M171.212 333.816L159.394 388.424C159.074 389.902 158.257 391.225 157.078 392.174C155.9 393.124 154.431 393.641 152.917 393.641H121.784C120.162 393.639 118.596 393.044 117.384 391.967C116.171 390.891 115.396 389.408 115.205 387.8L112.028 360.971L110.13 344.962V344.955L110 343.855L171.212 333.816Z" fill="#E50C54" stroke="#212121" stroke-width="1.74155" stroke-linejoin="round"/>
<path d="M109.803 343.821L109.946 344.317L107.803 362.411L106.891 362.723C106.891 362.723 99.2575 357.514 79.398 357.514C59.5386 357.514 55.0483 362.723 55.0483 362.723L48.7959 333.816L109.803 343.821Z" fill="#B70A43" stroke="#212121" stroke-width="1.74155" stroke-linejoin="round"/>
<path d="M110.174 343.821L110.031 344.317L112.174 362.411L113.086 362.723C113.086 362.723 120.719 357.514 140.578 357.514C160.438 357.514 164.928 362.723 164.928 362.723L171.181 333.816L110.174 343.821Z" fill="#B70A43" stroke="#212121" stroke-width="1.74155" stroke-linejoin="round"/>
<path d="M171.212 333.814C171.212 333.814 140.589 343.852 110 343.852C79.411 343.852 48.7919 333.814 48.7919 333.814C47.8849 327.069 47.857 319.317 48.4333 311.107C48.4333 311.107 65.8775 320.647 109.997 320.647C153.771 320.647 171.293 311.257 171.562 311.107C172.147 319.322 172.119 327.069 171.212 333.814Z" fill="#890732" stroke="#212121" stroke-width="1.74155" stroke-linejoin="round"/>
<path d="M153.794 226.985H66.2085C67.4467 223.005 68.2087 220.722 68.2087 220.722H151.797C151.797 220.722 152.563 223.003 153.794 226.985Z" fill="#890732" stroke="#212121" stroke-width="1.74155" stroke-linejoin="round"/>
<path d="M171.565 311.11C171.293 311.259 153.774 320.646 110 320.646C65.8792 320.646 48.4351 311.11 48.4351 311.11C50.6394 279.785 61.6406 241.729 66.2058 226.983H153.794C158.366 241.736 169.36 279.785 171.565 311.11Z" fill="#E50C54" stroke="#212121" stroke-width="1.74155" stroke-linejoin="round"/>
<path d="M171.569 311.107H171.564" stroke="#212121" stroke-width="1.74155" stroke-linejoin="round"/>
<path d="M202.951 70.804H17.0521C9.85762 70.804 4.02539 76.6264 4.02539 83.8088V207.954C4.02539 215.136 9.85762 220.959 17.0521 220.959H202.951C210.145 220.959 215.978 215.136 215.978 207.954V83.8088C215.978 76.6264 210.145 70.804 202.951 70.804Z" fill="#E50C54" stroke="#212121" stroke-width="1.74155" stroke-linejoin="round"/>
<path d="M195.567 196.293V95.4688C195.567 93.0999 193.643 91.1796 191.27 91.1796L28.7322 91.1796C26.3593 91.1796 24.4358 93.0999 24.4358 95.4688V196.293C24.4358 198.661 26.3593 200.582 28.7322 200.582H191.27C193.643 200.582 195.567 198.661 195.567 196.293Z" fill="#212121"/>
<path d="M63.3404 150.897C73.4115 150.897 81.5758 142.746 81.5758 132.692C81.5758 122.638 73.4115 114.487 63.3404 114.487C53.2693 114.487 45.105 122.638 45.105 132.692C45.105 142.746 53.2693 150.897 63.3404 150.897Z" fill="#F59EBB"/>
<path d="M156.663 150.897C166.734 150.897 174.898 142.746 174.898 132.692C174.898 122.638 166.734 114.487 156.663 114.487C146.592 114.487 138.427 122.638 138.427 132.692C138.427 142.746 146.592 150.897 156.663 150.897Z" fill="#F59EBB"/>
<path d="M90.4828 168.656H129.521C129.521 168.656 131.575 183.826 110.001 183.826C88.4275 183.826 90.4828 168.656 90.4828 168.656Z" fill="#F59EBB"/>
<path d="M59.3083 28.6965C60.1425 23.6848 62.3173 18.9911 65.6029 15.1114C68.8885 11.2318 73.1629 8.31021 77.9744 6.65551C88.5341 3.07065 104.597 0.0902758 127.269 1.93297C160.829 4.66135 177.955 19.6311 185.025 28.001C187.786 31.2906 189.789 35.1447 190.895 39.2915C192.449 45.0403 194.569 55.3324 195.434 70.7674C195.434 70.7674 175.296 71.361 144.952 70.4488C114.609 69.5366 53.2349 64.5132 53.2349 64.5132L59.3083 28.6965Z" fill="#890732" stroke="#212121" stroke-width="1.74155" stroke-linejoin="round"/>
<path d="M39.9564 67.4454C39.9564 67.4454 39.2189 47.7144 58.266 19.7894C60.9218 15.8824 64.5201 12.7057 68.7291 10.5522C77.8812 5.88939 96.3956 -0.397372 127.269 1.93503C127.269 1.93503 144.444 14.8156 144.95 70.4509L39.9564 67.4454Z" fill="#F59EBB" stroke="#212121" stroke-width="1.74155" stroke-linejoin="round"/>
<path d="M84.6854 55.9958C132.841 55.9958 144.8 70.7639 144.8 70.7639C117.103 76.4197 84.6854 75.1631 84.6854 75.1631C84.6854 75.1631 52.2674 76.4197 24.5703 70.7639C24.5717 70.7666 36.5302 55.9958 84.6854 55.9958Z" fill="#EF6D98" stroke="#212121" stroke-width="1.74155" stroke-linejoin="round"/>
<path d="M66.2976 24.895L66.6847 22.5855L76.5854 18.5176L76.1523 21.1748L69.4075 23.714L69.5125 23.5762L69.4535 23.9043L69.3813 23.7665L75.306 26.3056L74.8598 28.9629L66.2976 24.895ZM85.7972 15.0468L78.8162 31.1346H76.4082L83.3892 15.0468H85.7972ZM95.4239 24.895L85.5101 28.9629L85.9563 26.3056L92.6814 23.7665L92.583 23.9043L92.642 23.5762L92.7076 23.714L86.8027 21.1748L87.2357 18.5176L95.811 22.5855L95.4239 24.895Z" fill="#212121"/>
</g>
<defs>
<clipPath id="clip0_1831_17982">
<rect width="220" height="395" fill="white"/>
</clipPath>
</defs>
</svg>
