<?xml version="1.0" encoding="UTF-8"?>
<!DOCTYPE svg PUBLIC "-//W3C//DTD SVG 1.1//EN" "http://www.w3.org/Graphics/SVG/1.1/DTD/svg11.dtd">
<svg xmlns="http://www.w3.org/2000/svg" version="1.1" width="4500px" height="4500px" style="shape-rendering:geometricPrecision; text-rendering:geometricPrecision; image-rendering:optimizeQuality; fill-rule:evenodd; clip-rule:evenodd" xmlns:xlink="http://www.w3.org/1999/xlink">
<g><path style="opacity:0.958" fill="#6e5946" d="M 1828.5,168.5 C 1944.46,166.77 2049.79,198.937 2144.5,265C 2206.81,310.304 2261.64,363.471 2309,424.5C 2378.02,516.157 2434.52,615.491 2478.5,722.5C 2563.14,687.95 2644.81,693.783 2723.5,740C 2789.04,787.863 2842.21,846.697 2883,916.5C 2906.55,958.148 2920.22,1002.81 2924,1050.5C 2926.73,1109.8 2912.23,1164.46 2880.5,1214.5C 2943.24,1265.73 2997.74,1324.4 3044,1390.5C 3081.55,1443.95 3109.22,1502.28 3127,1565.5C 3153.82,1669.64 3140.48,1768.31 3087,1861.5C 3057.94,1910.26 3022.44,1954.09 2980.5,1993C 2922.04,2046.13 2858.54,2092.3 2790,2131.5C 2799.23,2189.12 2802.23,2247.12 2799,2305.5C 2796.58,2354.92 2786.25,2402.59 2768,2448.5C 2728.98,2537.31 2660.81,2585.14 2563.5,2592C 2529.26,2593.98 2495.26,2591.98 2461.5,2586C 2440.32,2582.16 2419.32,2577.83 2398.5,2573C 2444.99,2619.87 2479.83,2674.37 2503,2736.5C 2512.5,2764.81 2515.83,2793.81 2513,2823.5C 2510.81,2842.4 2504.48,2859.73 2494,2875.5C 2476.8,2897.35 2454.3,2906.52 2426.5,2903C 2399.3,2897.73 2375.3,2886.06 2354.5,2868C 2353.55,2867.52 2352.55,2867.35 2351.5,2867.5C 2342.35,2903.32 2324.35,2933.82 2297.5,2959C 2271.5,2978.67 2242.83,2983.67 2211.5,2974C 2188.75,2966.04 2168.08,2954.54 2149.5,2939.5C 2138.22,2966.75 2123.39,2991.75 2105,3014.5C 2064.75,3060.24 2018.91,3066.74 1967.5,3034C 1948.35,3020 1931.19,3003.83 1916,2985.5C 1873.38,2930.93 1833.71,2874.27 1797,2815.5C 1788.14,2799.78 1779.81,2783.78 1772,2767.5C 1768.06,2758.09 1764.9,2748.42 1762.5,2738.5C 1696.25,2771.65 1626.25,2784.82 1552.5,2778C 1514.3,2774.65 1482.8,2758.49 1458,2729.5C 1404.57,2667.65 1350.9,2605.98 1297,2544.5C 1245.2,2478.96 1225.03,2404.63 1236.5,2321.5C 1183.05,2317.18 1132.38,2303.01 1084.5,2279C 1061.69,2265.54 1041.19,2249.04 1023,2229.5C 981.04,2180.54 938.706,2131.87 896,2083.5C 882.081,2060.67 868.415,2037.67 855,2014.5C 816.931,1904.14 805.598,1791.14 821,1675.5C 835.328,1583.34 875.161,1504.51 940.5,1439C 953.831,1426.5 968.165,1415.33 983.5,1405.5C 939.815,1363.14 912.648,1311.81 902,1251.5C 896.41,1207.7 902.744,1165.7 921,1125.5C 936.844,1093.69 955.844,1064.02 978,1036.5C 1039.37,958.599 1115.54,900.266 1206.5,861.5C 1192.43,750.854 1206.26,643.854 1248,540.5C 1295.66,431.505 1369.83,345.338 1470.5,282C 1580.33,214.111 1699.67,176.277 1828.5,168.5 Z"/></g>
<g><path style="opacity:1" fill="#efe0c0" d="M 1815.5,176.5 C 1934.83,171.908 2043.16,203.742 2140.5,272C 2201.81,316.303 2255.64,368.47 2302,428.5C 2358.32,502.754 2406.32,582.42 2446,667.5C 2455.83,689.333 2465.67,711.167 2475.5,733C 2503.34,720.219 2532.67,712.219 2563.5,709C 2622.47,704.517 2676.47,718.517 2725.5,751C 2780.74,793.232 2827.24,843.399 2865,901.5C 2893.08,945.07 2910.08,992.737 2916,1044.5C 2920.29,1106.49 2905.29,1163.16 2871,1214.5C 2870.33,1215.5 2870.33,1216.5 2871,1217.5C 2949.04,1279.85 3013.71,1353.51 3065,1438.5C 3170.46,1621.73 3153.13,1791.73 3013,1948.5C 2961.2,2003.26 2903.7,2050.76 2840.5,2091C 2820.5,2103.33 2800.5,2115.67 2780.5,2128C 2794.1,2203.16 2795.93,2278.66 2786,2354.5C 2758.1,2525.06 2658.27,2600.9 2486.5,2582C 2467.38,2579.29 2448.38,2575.96 2429.5,2572C 2410.05,2566.91 2390.72,2561.91 2371.5,2557C 2412.88,2596.36 2447.38,2640.86 2475,2690.5C 2488.83,2716.33 2498.5,2743.66 2504,2772.5C 2509.11,2802.11 2506.11,2830.78 2495,2858.5C 2474.67,2893.95 2445.17,2904.45 2406.5,2890C 2384.94,2880.64 2365.44,2868.14 2348,2852.5C 2339.69,2890.64 2321.85,2923.47 2294.5,2951C 2265.92,2973.61 2234.92,2977.28 2201.5,2962C 2181.31,2952.42 2162.65,2940.58 2145.5,2926.5C 2134.46,2957.92 2118.3,2986.26 2097,3011.5C 2056.15,3055.37 2011.98,3058.87 1964.5,3022C 1950.03,3009.87 1936.53,2996.7 1924,2982.5C 1879.5,2926.32 1838.5,2867.65 1801,2806.5C 1788.59,2786.35 1778.92,2765.02 1772,2742.5C 1771.33,2738.5 1771.33,2734.5 1772,2730.5C 1773.62,2727.98 1774.62,2725.31 1775,2722.5C 1711.41,2758.52 1642.91,2775.02 1569.5,2772C 1528.28,2771.72 1493.78,2756.55 1466,2726.5C 1412.57,2664.65 1358.9,2602.98 1305,2541.5C 1254.63,2479.77 1233.97,2409.1 1243,2329.5C 1243.94,2324.65 1245.44,2319.98 1247.5,2315.5C 1190.72,2311.32 1137.05,2296.49 1086.5,2271C 1065.98,2258.83 1047.48,2243.99 1031,2226.5C 987.333,2176.17 943.667,2125.83 900,2075.5C 887,2053.17 874,2030.83 861,2008.5C 824.736,1901.78 813.736,1792.45 828,1680.5C 839.762,1599.66 872.095,1528.32 925,1466.5C 936.196,1454.97 947.696,1443.8 959.5,1433C 971.519,1423.66 983.852,1414.83 996.5,1406.5C 951.013,1365.12 922.18,1314.12 910,1253.5C 904.525,1215.76 908.525,1179.09 922,1143.5C 932.976,1116.84 946.976,1091.84 964,1068.5C 1010.22,1003.27 1067.06,949.437 1134.5,907C 1158.86,892.484 1184.2,880.15 1210.5,870C 1212.13,869.506 1213.8,869.34 1215.5,869.5C 1199.54,758.181 1212.37,650.514 1254,546.5C 1303.81,430.683 1383.31,341.183 1492.5,278C 1592.32,219.561 1699.99,185.728 1815.5,176.5 Z"/></g>
<g><path style="opacity:1" fill="#6d5846" d="M 1999.5,853.5 C 2011.88,852.465 2022.05,856.798 2030,866.5C 2039.97,879.772 2047.3,894.439 2052,910.5C 2061.21,943.421 2062.87,976.755 2057,1010.5C 2054.1,1025.47 2047.6,1038.64 2037.5,1050C 2028.79,1056.13 2019.45,1057.13 2009.5,1053C 2000.95,1047.45 1994.12,1040.29 1989,1031.5C 1970.38,995.441 1963.04,957.108 1967,916.5C 1967.9,895.101 1975.07,876.268 1988.5,860C 1992.1,857.539 1995.76,855.373 1999.5,853.5 Z"/></g>
<g><path style="opacity:1" fill="#3b3b52" d="M 2001.5,867.5 C 2006.66,866.89 2011.32,868.056 2015.5,871C 2027.12,883.728 2034.95,898.561 2039,915.5C 2047.31,946.544 2048.64,977.878 2043,1009.5C 2041.12,1021.42 2035.96,1031.59 2027.5,1040C 2022.37,1043.15 2017.37,1042.82 2012.5,1039C 2004.37,1031.2 1998.21,1022.03 1994,1011.5C 1980.46,976.489 1976.79,940.489 1983,903.5C 1985.1,893.199 1988.77,883.532 1994,874.5C 1996.4,871.933 1998.9,869.6 2001.5,867.5 Z"/></g>
<g><path style="opacity:1" fill="#6d5846" d="M 1380.5,932.5 C 1387.91,931.621 1394.91,932.788 1401.5,936C 1413.39,945.901 1422.23,958.068 1428,972.5C 1442.93,1014.03 1445.6,1056.36 1436,1099.5C 1432.54,1112.28 1425.7,1122.78 1415.5,1131C 1407.67,1135.26 1399.67,1135.59 1391.5,1132C 1377.7,1122.26 1367.87,1109.43 1362,1093.5C 1348.59,1056.5 1344.93,1018.5 1351,979.5C 1353.89,962.549 1361.39,948.049 1373.5,936C 1375.93,934.787 1378.26,933.621 1380.5,932.5 Z"/></g>
<g><path style="opacity:1" fill="#3b3b52" d="M 1383.5,945.5 C 1388.29,944.97 1392.62,946.137 1396.5,949C 1407.67,960.86 1415.5,974.693 1420,990.5C 1429.9,1024.95 1430.9,1059.61 1423,1094.5C 1420.39,1102.39 1416.72,1109.72 1412,1116.5C 1406.89,1121.13 1401.39,1121.63 1395.5,1118C 1386.73,1110.55 1380.23,1101.38 1376,1090.5C 1359.68,1049.6 1357.34,1007.93 1369,965.5C 1372.15,957.488 1376.99,950.821 1383.5,945.5 Z"/></g>
<g><path style="opacity:1" fill="#6e5846" d="M 1726.5,1021.5 C 1756.47,1019.11 1785.14,1023.95 1812.5,1036C 1844.61,1051.11 1873.11,1071.28 1898,1096.5C 1937.37,1138.87 1969.04,1186.54 1993,1239.5C 2005.53,1268.44 2016.87,1297.77 2027,1327.5C 2043.68,1377.46 2030.18,1416.63 1986.5,1445C 1958.92,1460.86 1929.25,1471.2 1897.5,1476C 1770.69,1493.23 1646.69,1481.56 1525.5,1441C 1497.02,1430.93 1470.69,1416.93 1446.5,1399C 1431.26,1386.02 1423.43,1369.52 1423,1349.5C 1418.03,1255.06 1449.19,1174.89 1516.5,1109C 1564.59,1066.79 1620.25,1039.79 1683.5,1028C 1698.01,1025.94 1712.34,1023.77 1726.5,1021.5 Z"/></g>
<g><path style="opacity:1" fill="#f2e5cb" d="M 1733.5,1034.5 C 1765.43,1033.61 1795.26,1040.94 1823,1056.5C 1834.29,1087.16 1839.29,1118.82 1838,1151.5C 1833.13,1183.81 1815.97,1192.64 1786.5,1178C 1769.43,1165.02 1756.26,1148.85 1747,1129.5C 1732.88,1099.98 1722.05,1069.32 1714.5,1037.5C 1720.94,1036.32 1727.27,1035.32 1733.5,1034.5 Z"/></g>
<g><path style="opacity:1" fill="#f3f3ec" d="M 1687.5,1040.5 C 1690.12,1040.23 1692.62,1040.56 1695,1041.5C 1703.87,1081.55 1718.54,1119.22 1739,1154.5C 1744.01,1162.52 1749.51,1170.19 1755.5,1177.5C 1747.08,1193.09 1734.75,1204.26 1718.5,1211C 1710.82,1212.26 1703.49,1211.26 1696.5,1208C 1686.29,1200.79 1677.79,1191.96 1671,1181.5C 1659.74,1163.02 1650.4,1143.68 1643,1123.5C 1635.79,1102.42 1628.95,1081.25 1622.5,1060C 1630.19,1056.43 1638.19,1053.43 1646.5,1051C 1660.33,1047.63 1674,1044.13 1687.5,1040.5 Z"/></g>
<g><path style="opacity:1" fill="#f2e5cb" d="M 1602.5,1067.5 C 1604.41,1067.57 1605.58,1068.57 1606,1070.5C 1615.84,1110.35 1630.5,1148.35 1650,1184.5C 1654.67,1191.99 1659.51,1199.33 1664.5,1206.5C 1656.05,1220.78 1644.72,1232.28 1630.5,1241C 1618.27,1245.7 1608.1,1242.87 1600,1232.5C 1573.41,1192.91 1557.58,1149.24 1552.5,1101.5C 1552.46,1098.75 1553.46,1096.59 1555.5,1095C 1570.61,1084.78 1586.27,1075.62 1602.5,1067.5 Z"/></g>
<g><path style="opacity:1" fill="#f471a0" d="M 1848.5,1072.5 C 1880.25,1096.08 1907.41,1124.08 1930,1156.5C 1966.96,1211.76 1995.3,1271.09 2015,1334.5C 2020.94,1351.21 2021.94,1368.21 2018,1385.5C 1980.65,1350.42 1940.15,1319.59 1896.5,1293C 1876.76,1281.46 1856.1,1272.13 1834.5,1265C 1810.1,1257.59 1785.44,1256.59 1760.5,1262C 1714.66,1280.85 1696.49,1314.68 1706,1363.5C 1712.89,1385.61 1723.22,1405.94 1737,1424.5C 1749.34,1440.32 1762.51,1455.49 1776.5,1470C 1688.9,1469.12 1603.9,1454.12 1521.5,1425C 1499.46,1416.64 1478.79,1405.64 1459.5,1392C 1450.83,1384.99 1444,1376.49 1439,1366.5C 1427.88,1281.23 1449.88,1205.9 1505,1140.5C 1513.5,1130.67 1522.67,1121.5 1532.5,1113C 1540.46,1156.16 1555.62,1197 1578,1235.5C 1599.46,1266.87 1625.29,1271.04 1655.5,1248C 1664.5,1239.46 1672.66,1230.29 1680,1220.5C 1704.17,1236.37 1727.34,1234.87 1749.5,1216C 1757.42,1208.09 1764.58,1199.59 1771,1190.5C 1785.76,1202.43 1802.59,1206.6 1821.5,1203C 1836.77,1198.73 1847.27,1189.23 1853,1174.5C 1858.98,1152.41 1859.98,1130.07 1856,1107.5C 1853.56,1095.8 1851.06,1084.14 1848.5,1072.5 Z"/></g>
<g><path style="opacity:1" fill="#c74973" d="M 1777.5,1277.5 C 1803.35,1276.42 1828.01,1281.25 1851.5,1292C 1889.33,1309.74 1924.33,1331.74 1956.5,1358C 1974.64,1372.97 1992.3,1388.47 2009.5,1404.5C 2001.27,1416.57 1990.93,1426.4 1978.5,1434C 1954.85,1446.55 1929.85,1455.55 1903.5,1461C 1871.15,1467.53 1838.49,1470.53 1805.5,1470C 1775.72,1444.55 1751.55,1414.72 1733,1380.5C 1723.59,1362.52 1720.59,1343.52 1724,1323.5C 1733.41,1298.24 1751.25,1282.91 1777.5,1277.5 Z"/></g>
<g><path style="opacity:0.954" fill="#6e5947" d="M 952.5,2476.5 C 1029.68,2529.46 1101.18,2589.79 1167,2657.5C 1197.37,2688.95 1224.37,2722.95 1248,2759.5C 1320.15,2880.4 1289.32,2962.23 1155.5,3005C 1070.73,3030.84 1009.56,3004.01 972,2924.5C 954.727,2882.14 944.061,2838.14 940,2792.5C 931.391,2686.67 935.558,2581.33 952.5,2476.5 Z"/></g>
<g><path style="opacity:1" fill="#f1ede6" d="M 958.5,2489.5 C 1048.41,2552.21 1129.57,2625.21 1202,2708.5C 1226.07,2737.62 1246.41,2769.29 1263,2803.5C 1271.25,2820.93 1276.25,2839.26 1278,2858.5C 1281.81,2896.03 1269.64,2927.2 1241.5,2952C 1194,2990.14 1139.67,3008.14 1078.5,3006C 1039.97,2998.8 1010.8,2978.3 991,2944.5C 973.81,2913.09 961.81,2879.76 955,2844.5C 943.761,2779.97 939.761,2714.97 943,2649.5C 945.104,2595.81 950.27,2542.47 958.5,2489.5 Z"/></g>
<g><path style="opacity:0.956" fill="#6e5946" d="M 1627.5,2999.5 C 1706.02,3053.8 1778.85,3115.47 1846,3184.5C 1875.39,3215.87 1901.72,3249.54 1925,3285.5C 1942.57,3313.55 1954.24,3343.89 1960,3376.5C 1965.33,3418.99 1951.83,3454.15 1919.5,3482C 1883.75,3509.7 1843.41,3527.37 1798.5,3535C 1736.63,3544.14 1689.8,3521.98 1658,3468.5C 1639.49,3433.98 1627.16,3397.31 1621,3358.5C 1611.3,3296.19 1607.97,3233.52 1611,3170.5C 1613.11,3113.16 1618.61,3056.16 1627.5,2999.5 Z"/></g>
<g><path style="opacity:0.954" fill="#6e5946" d="M 2418.5,2999.5 C 2495.26,3052.24 2566.42,3112.24 2632,3179.5C 2664.48,3213.3 2693.15,3249.97 2718,3289.5C 2729.18,3308.52 2738.18,3328.52 2745,3349.5C 2763.14,3411.76 2745.31,3460.59 2691.5,3496C 2652.07,3520.76 2609.07,3534.59 2562.5,3537.5C 2510.21,3535.33 2471.71,3511.33 2447,3465.5C 2430.48,3433.95 2419.15,3400.62 2413,3365.5C 2404.53,3316.2 2400.36,3266.54 2400.5,3216.5C 2401.04,3143.66 2407.04,3071.32 2418.5,2999.5 Z"/></g>
<g><path style="opacity:1" fill="#f1ede6" d="M 1632.5,3012.5 C 1713.4,3068.47 1787.56,3132.81 1855,3205.5C 1876.53,3230.36 1896.53,3256.36 1915,3283.5C 1987.51,3400.29 1958.35,3479.45 1827.5,3521C 1746.15,3545.57 1687.98,3519.41 1653,3442.5C 1642.83,3418.33 1635.16,3393.33 1630,3367.5C 1619.26,3302.63 1615.26,3237.29 1618,3171.5C 1620.21,3118.24 1625.05,3065.24 1632.5,3012.5 Z"/></g>
<g><path style="opacity:1" fill="#f1ede6" d="M 2423.5,3011.5 C 2508.75,3071.55 2586.58,3140.55 2657,3218.5C 2684.79,3250.06 2708.13,3284.73 2727,3322.5C 2764.17,3407.67 2740.34,3469.17 2655.5,3507C 2543.29,3557.96 2468.46,3525.13 2431,3408.5C 2419.36,3367.66 2412.36,3325.99 2410,3283.5C 2406.65,3222.76 2407.65,3162.1 2413,3101.5C 2416.17,3071.44 2419.67,3041.44 2423.5,3011.5 Z"/></g>
<g><path style="opacity:0.957" fill="#6e5946" d="M 2225.5,3730.5 C 2304.02,3784.8 2376.85,3846.47 2444,3915.5C 2473.39,3946.87 2499.72,3980.54 2523,4016.5C 2540.57,4044.55 2552.24,4074.89 2558,4107.5C 2563.24,4150.51 2549.41,4186.01 2516.5,4214C 2473.18,4246.56 2424.35,4264.72 2370,4268.5C 2327.76,4267.71 2293.76,4250.71 2268,4217.5C 2251.15,4194.12 2238.81,4168.45 2231,4140.5C 2217.61,4091.74 2210.27,4042.08 2209,3991.5C 2206.34,3903.97 2211.84,3816.97 2225.5,3730.5 Z"/></g>
<g><path style="opacity:1" fill="#f1ede6" d="M 2230.5,3743.5 C 2314.37,3801.5 2390.87,3868.5 2460,3944.5C 2487.95,3976.38 2511.95,4011.05 2532,4048.5C 2573.39,4136.55 2549.56,4200.05 2460.5,4239C 2348.51,4288.25 2274.34,4254.75 2238,4138.5C 2225.27,4090.04 2217.93,4040.71 2216,3990.5C 2214.17,3907.76 2219,3825.43 2230.5,3743.5 Z"/></g>
</svg>
