<?xml version="1.0" encoding="UTF-8"?>
<!DOCTYPE svg PUBLIC "-//W3C//DTD SVG 1.1//EN" "http://www.w3.org/Graphics/SVG/1.1/DTD/svg11.dtd">
<svg xmlns="http://www.w3.org/2000/svg" version="1.1" width="4500px" height="4500px" style="shape-rendering:geometricPrecision; text-rendering:geometricPrecision; image-rendering:optimizeQuality; fill-rule:evenodd; clip-rule:evenodd" xmlns:xlink="http://www.w3.org/1999/xlink">
<g><path style="opacity:0.989" fill="#6d5745" d="M 2828.5,1082.5 C 2829.81,1084.57 2830.48,1087.07 2830.5,1090C 2822.18,1404.83 2814.34,1719.66 2807,2034.5C 3063.96,2221.06 3320.79,2407.72 3577.5,2594.5C 3273.57,2685.37 2969.57,2776.03 2665.5,2866.5C 2567.17,3168.5 2468.83,3470.5 2370.5,3772.5C 2189.81,3511.63 2009.48,3250.47 1829.5,2989C 1511.83,2988.97 1194.17,2988.8 876.5,2988.5C 1069.88,2736.45 1262.88,2484.12 1455.5,2231.5C 1356.6,1929.63 1258.43,1627.63 1161,1325.5C 1460.41,1430.97 1759.74,1536.64 2059,1642.5C 2315.68,1455.97 2572.18,1269.3 2828.5,1082.5 Z"/></g>
<g><path style="opacity:1" fill="#985146" d="M 2797.5,1142.5 C 2797.56,1141.96 2797.89,1141.62 2798.5,1141.5C 2799.81,1146.32 2799.81,1150.98 2798.5,1155.5C 2798.82,1150.97 2798.48,1146.63 2797.5,1142.5 Z"/></g>
<g><path style="opacity:1" fill="#c34a48" d="M 2797.5,1142.5 C 2798.48,1146.63 2798.82,1150.97 2798.5,1155.5C 2791.72,1451.68 2784.39,1747.85 2776.5,2044C 2776.83,2046.17 2777.17,2048.33 2777.5,2050.5C 3022.03,2228.19 3266.69,2405.69 3511.5,2583C 3221.5,2669.67 2931.5,2756.33 2641.5,2843C 2548.01,3130.82 2454.51,3418.65 2361,3706.5C 2189.25,3458.01 2017.75,3209.34 1846.5,2960.5C 1543.17,2959.67 1239.83,2959.17 936.5,2959C 1118,2722.17 1299.5,2485.33 1481,2248.5C 1483.77,2244.63 1486.27,2240.63 1488.5,2236.5C 1397.57,1958.21 1306.74,1679.88 1216,1401.5C 1213.3,1392.07 1210.63,1382.74 1208,1373.5C 1493.21,1474.44 1778.54,1575.1 2064,1675.5C 2308.78,1498.2 2553.28,1320.53 2797.5,1142.5 Z"/></g>
</svg>
