<?xml version="1.0" encoding="UTF-8"?>
<!DOCTYPE svg PUBLIC "-//W3C//DTD SVG 1.1//EN" "http://www.w3.org/Graphics/SVG/1.1/DTD/svg11.dtd">
<svg xmlns="http://www.w3.org/2000/svg" version="1.1" width="4500px" height="4500px" style="shape-rendering:geometricPrecision; text-rendering:geometricPrecision; image-rendering:optimizeQuality; fill-rule:evenodd; clip-rule:evenodd" xmlns:xlink="http://www.w3.org/1999/xlink">
<g><path style="opacity:0.975" fill="#6e5844" d="M 1427.5,920.5 C 1710.24,920.909 1963.57,1006.08 2187.5,1176C 2338.91,1295.04 2457.41,1440.54 2543,1612.5C 2662.73,1868.2 2680.4,2130.87 2596,2400.5C 2551.71,2533.44 2487.38,2655.11 2403,2765.5C 2308.52,2889.67 2196.02,2993.83 2065.5,3078C 1904.39,3182.2 1730.39,3257.53 1543.5,3304C 1450.17,3326.67 1355.5,3337.33 1259.5,3336C 1167.09,3334.72 1078.42,3316.05 993.5,3280C 935.883,3254.02 884.549,3219.02 839.5,3175C 943.392,3139.7 1044.39,3097.37 1142.5,3048C 1249.37,2994.09 1347.04,2927.09 1435.5,2847C 1510.02,2778.18 1569.52,2698.34 1614,2607.5C 1681.85,2459.51 1693.51,2307.17 1649,2150.5C 1645.86,2140.76 1642.53,2131.09 1639,2121.5C 1603.97,2153.19 1562.63,2169.19 1515,2169.5C 1471.12,2167.74 1429.28,2157.57 1389.5,2139C 1342.96,2117.41 1300.46,2089.91 1262,2056.5C 1261.31,2055.67 1261.48,2055 1262.5,2054.5C 1272.13,2057.7 1281.97,2060.03 1292,2061.5C 1310.43,2059.47 1327.6,2053.63 1343.5,2044C 1374.38,2023.47 1401.88,1998.97 1426,1970.5C 1466.47,1920.93 1501.47,1867.6 1531,1810.5C 1550.18,1763.4 1553.85,1715.07 1542,1665.5C 1533.1,1630.37 1519.77,1597.04 1502,1565.5C 1475.17,1519.5 1444.17,1476.5 1409,1436.5C 1355.63,1377.79 1298.46,1323.29 1237.5,1273C 1135.92,1190.37 1028.92,1115.37 916.5,1048C 914.316,1045.98 912.316,1043.82 910.5,1041.5C 1009.59,993.192 1113.59,959.359 1222.5,940C 1290.48,928.169 1358.82,921.669 1427.5,920.5 Z"/></g>
<g><path style="opacity:1" fill="#f5a93a" d="M 1402.5,932.5 C 1709.01,927.378 1980.01,1021.21 2215.5,1214C 2337.06,1317.16 2435.9,1438.33 2512,1577.5C 2639.59,1821.78 2668.93,2077.78 2600,2345.5C 2562.57,2479.36 2503.9,2603.03 2424,2716.5C 2316.03,2869.49 2182.19,2994.32 2022.5,3091C 1872.95,3182.18 1713.29,3249.18 1543.5,3292C 1470.15,3309.17 1395.82,3319.84 1320.5,3324C 1234.46,3328.36 1150.13,3318.69 1067.5,3295C 998.921,3274.38 936.921,3241.72 881.5,3197C 874.991,3191.32 868.657,3185.49 862.5,3179.5C 978.761,3139.66 1091.09,3090.16 1199.5,3031C 1288.05,2981.89 1369.71,2923.23 1444.5,2855C 1509.01,2794.54 1562.84,2726.04 1606,2649.5C 1655.17,2559.19 1682.34,2462.52 1687.5,2359.5C 1818.34,2345.86 1931.34,2294.03 2026.5,2204C 2098.18,2130.17 2147.18,2043.33 2173.5,1943.5C 2217.77,1961.8 2259.77,1957.64 2299.5,1931C 2304.01,1927.32 2308.34,1923.49 2312.5,1919.5C 2310.17,1916.5 2307.5,1913.83 2304.5,1911.5C 2280.38,1934.05 2251.71,1944.55 2218.5,1943C 2165.67,1936.33 2131.51,1907.5 2116,1856.5C 2107.8,1814.78 2118.3,1778.61 2147.5,1748C 2145.55,1744.02 2142.55,1741.69 2138.5,1741C 2102.83,1779.25 2093,1823.41 2109,1873.5C 2120.1,1901.1 2138.26,1922.76 2163.5,1938.5C 2140.04,2025.1 2099.54,2102.43 2042,2170.5C 1946.64,2273.76 1828.81,2332.76 1688.5,2347.5C 1688.8,2279.74 1679.63,2213.41 1661,2148.5C 1656.8,2136.89 1652.8,2125.22 1649,2113.5C 1647.1,2109.37 1644.94,2105.37 1642.5,2101.5C 1603.58,2142.76 1555.58,2161.26 1498.5,2157C 1466.25,2153.35 1435.25,2145.35 1405.5,2133C 1368.32,2117.08 1333.65,2097.08 1301.5,2073C 1321,2068.49 1339.33,2060.82 1356.5,2050C 1393.21,2024.29 1425.05,1993.46 1452,1957.5C 1486.01,1912.84 1516.01,1865.5 1542,1815.5C 1563.2,1762.26 1566.2,1707.93 1551,1652.5C 1541.12,1617.9 1527.12,1584.9 1509,1553.5C 1480.39,1505.63 1447.39,1460.96 1410,1419.5C 1362,1367.83 1311.17,1319.33 1257.5,1274C 1154.9,1189.56 1046.9,1112.73 933.5,1043.5C 1005.84,1009.55 1081.17,983.383 1159.5,965C 1239.6,946.914 1320.6,936.081 1402.5,932.5 Z"/></g>
<g><path style="opacity:0.959" fill="#6e5844" d="M 2957.5,1188.5 C 2993.88,1218.13 3030.05,1248.13 3066,1278.5C 3066.67,1279.17 3066.67,1279.83 3066,1280.5C 2936.26,1376.96 2806.42,1473.29 2676.5,1569.5C 2664.41,1547.66 2652.58,1525.66 2641,1503.5C 2640.22,1502.06 2640.39,1500.72 2641.5,1499.5C 2746.88,1395.78 2852.21,1292.12 2957.5,1188.5 Z"/></g>
<g><path style="opacity:1" fill="#ed583b" d="M 2958.5,1200.5 C 2989.99,1226.42 3021.32,1252.59 3052.5,1279C 2929.17,1370.67 2805.83,1462.33 2682.5,1554C 2681.24,1554.98 2679.91,1555.32 2678.5,1555C 2669.42,1537.51 2660.09,1520.17 2650.5,1503C 2753.37,1402.3 2856.03,1301.47 2958.5,1200.5 Z"/></g>
<g><path style="opacity:1" fill="#6f5944" d="M 1711.5,1211.5 C 1717.09,1213.3 1722.09,1216.13 1726.5,1220C 1761.22,1253.04 1789.38,1290.87 1811,1333.5C 1848,1422.27 1826.16,1492.43 1745.5,1544C 1713.12,1562.73 1678.46,1568.73 1641.5,1562C 1609.49,1554.16 1580.49,1540.16 1554.5,1520C 1528.63,1499.8 1505.8,1476.63 1486,1450.5C 1483.63,1445.82 1481.8,1440.99 1480.5,1436C 1480.85,1434.74 1481.52,1434.41 1482.5,1435C 1486.78,1437.62 1490.78,1440.62 1494.5,1444C 1516.27,1469.44 1540.27,1492.44 1566.5,1513C 1592.99,1532.27 1622.33,1544.94 1654.5,1551C 1685.68,1554.1 1714.68,1547.77 1741.5,1532C 1813.77,1485.53 1834.6,1422.03 1804,1341.5C 1782.38,1296.21 1753.38,1256.21 1717,1221.5C 1714.36,1218.55 1712.53,1215.22 1711.5,1211.5 Z"/></g>
<g><path style="opacity:0.961" fill="#6e5844" d="M 3311.5,1473.5 C 3350.47,1529.99 3389.3,1586.66 3428,1643.5C 3428.48,1644.45 3428.65,1645.45 3428.5,1646.5C 3194.76,1725.97 2961.09,1805.64 2727.5,1885.5C 2721.66,1857.78 2715.49,1830.11 2709,1802.5C 2708.26,1800.56 2708.42,1798.73 2709.5,1797C 2910.39,1689.39 3111.05,1581.56 3311.5,1473.5 Z"/></g>
<g><path style="opacity:1" fill="#ed583b" d="M 3307.5,1485.5 C 3308.5,1485.41 3309.33,1485.75 3310,1486.5C 3345.08,1537.66 3379.91,1588.99 3414.5,1640.5C 3225.32,1706.17 3035.99,1771.34 2846.5,1836C 2808.99,1848.96 2771.33,1861.46 2733.5,1873.5C 2728.93,1850.1 2723.93,1826.76 2718.5,1803.5C 2718.83,1802.83 2719.17,1802.17 2719.5,1801.5C 2915.88,1696.65 3111.88,1591.31 3307.5,1485.5 Z"/></g>
<g><path style="opacity:0.967" fill="#6d5844" d="M 3488.5,1995.5 C 3491.5,1995.5 3494.5,1995.5 3497.5,1995.5C 3493.9,2073.84 3490.07,2152.17 3486,2230.5C 3250.89,2203.54 3015.72,2175.88 2780.5,2147.5C 2784.35,2119.53 2788.02,2091.53 2791.5,2063.5C 3024.02,2041.28 3256.35,2018.61 3488.5,1995.5 Z"/></g>
<g><path style="opacity:1" fill="#ed583b" d="M 3484.5,2004.5 C 3485.83,2004.5 3487.17,2004.5 3488.5,2004.5C 3485.23,2076.17 3481.73,2147.84 3478,2219.5C 3477.16,2220.62 3475.99,2221.29 3474.5,2221.5C 3246.53,2194.17 3018.53,2167.17 2790.5,2140.5C 2793.25,2117.46 2796.25,2094.46 2799.5,2071.5C 3028.01,2049.48 3256.34,2027.15 3484.5,2004.5 Z"/></g>
<g><path style="opacity:0.964" fill="#6d5844" d="M 2750.5,2371.5 C 3036.46,2420.77 3322.46,2469.94 3608.5,2519C 3609.43,2519.39 3610.09,2520.05 3610.5,2521C 3583.55,2620.64 3556.22,2720.14 3528.5,2819.5C 3263.96,2708.77 2999.29,2598.43 2734.5,2488.5C 2740.21,2449.55 2745.54,2410.55 2750.5,2371.5 Z"/></g>
<g><path style="opacity:1" fill="#ed583b" d="M 2758.5,2381.5 C 3038.46,2429.77 3318.46,2477.94 3598.5,2526C 3598.96,2526.41 3599.29,2526.91 3599.5,2527.5C 3574.34,2620.99 3548.67,2714.33 3522.5,2807.5C 3263.54,2699.24 3004.54,2591.07 2745.5,2483C 2744.9,2481.94 2744.57,2480.77 2744.5,2479.5C 2749.08,2446.8 2753.74,2414.13 2758.5,2381.5 Z"/></g>
<g><path style="opacity:0.961" fill="#6e5844" d="M 2623.5,2771.5 C 2900.41,2851.97 3177.08,2933.14 3453.5,3015C 3405.71,3107.42 3358.04,3199.92 3310.5,3292.5C 3059.83,3151.83 2809.17,3011.17 2558.5,2870.5C 2557.48,2870 2557.31,2869.33 2558,2868.5C 2580.35,2836.45 2602.18,2804.12 2623.5,2771.5 Z"/></g>
<g><path style="opacity:1" fill="#ed583b" d="M 2628.5,2781.5 C 2896.44,2860.09 3164.44,2938.59 3432.5,3017C 3435.29,3017.9 3437.96,3019.06 3440.5,3020.5C 3395.74,3107.01 3351.24,3193.68 3307,3280.5C 3061.91,3142.71 2816.75,3005.04 2571.5,2867.5C 2570.48,2867 2570.31,2866.33 2571,2865.5C 2589.93,2837.3 2609.1,2809.3 2628.5,2781.5 Z"/></g>
<g><path style="opacity:0.959" fill="#6e5844" d="M 2426.5,3058.5 C 2623.69,3183.02 2820.86,3307.69 3018,3432.5C 3018.67,3433.5 3018.67,3434.5 3018,3435.5C 2968.19,3496.94 2918.03,3558.11 2867.5,3619C 2866.83,3619.67 2866.17,3619.67 2865.5,3619C 2702.97,3456.14 2540.81,3292.97 2379,3129.5C 2378.68,3128.09 2379.02,3126.76 2380,3125.5C 2395.51,3103.14 2411.01,3080.8 2426.5,3058.5 Z"/></g>
<g><path style="opacity:1" fill="#ed583b" d="M 2428.5,3070.5 C 2621.07,3191.72 2813.4,3313.39 3005.5,3435.5C 2959.57,3492.94 2913.07,3549.94 2866,3606.5C 2707.33,3447.17 2548.67,3287.83 2390,3128.5C 2389.33,3127.83 2389.33,3127.17 2390,3126.5C 2403.47,3108.21 2416.3,3089.54 2428.5,3070.5 Z"/></g>
<g><path style="opacity:0.961" fill="#6e5844" d="M 2206.5,3224.5 C 2207.5,3224.41 2208.33,3224.75 2209,3225.5C 2330.75,3430.67 2452.75,3635.67 2575,3840.5C 2575.62,3841.45 2575.45,3842.28 2574.5,3843C 2506.64,3861.76 2438.81,3880.59 2371,3899.5C 2370.5,3899.17 2370,3898.83 2369.5,3898.5C 2290.42,3692.17 2211.75,3485.67 2133.5,3279C 2135.01,3276.57 2137.01,3274.57 2139.5,3273C 2162.25,3257.3 2184.59,3241.13 2206.5,3224.5 Z"/></g>
<g><path style="opacity:1" fill="#ed583b" d="M 2203.5,3237.5 C 2205.02,3237.51 2206.18,3238.18 2207,3239.5C 2324.75,3438 2442.75,3636.33 2561,3834.5C 2561.75,3835.64 2561.58,3836.64 2560.5,3837.5C 2498.57,3855.11 2436.73,3872.11 2375,3888.5C 2297.96,3686.26 2220.8,3484.1 2143.5,3282C 2163.68,3267.3 2183.68,3252.47 2203.5,3237.5 Z"/></g>
<g><path style="opacity:0.966" fill="#6d5844" d="M 1951.5,3431.5 C 1952.12,3431.61 1952.62,3431.94 1953,3432.5C 1985.82,3586.45 2018.32,3740.45 2050.5,3894.5C 2002.51,3895.21 1954.51,3895.87 1906.5,3896.5C 1897.54,3751.45 1888.21,3606.45 1878.5,3461.5C 1902.78,3451.19 1927.11,3441.19 1951.5,3431.5 Z"/></g>
<g><path style="opacity:1" fill="#ed583b" d="M 1944.5,3443.5 C 1945.5,3443.47 1946.16,3443.97 1946.5,3445C 1977.9,3591.83 2009.23,3738.66 2040.5,3885.5C 1998.51,3886.91 1956.51,3887.58 1914.5,3887.5C 1905.85,3747.45 1896.85,3607.45 1887.5,3467.5C 1906.57,3459.48 1925.57,3451.48 1944.5,3443.5 Z"/></g>
</svg>
