<?xml version="1.0" encoding="UTF-8"?>
<!DOCTYPE svg PUBLIC "-//W3C//DTD SVG 1.1//EN" "http://www.w3.org/Graphics/SVG/1.1/DTD/svg11.dtd">
<svg xmlns="http://www.w3.org/2000/svg" version="1.1" width="4500px" height="4500px" style="shape-rendering:geometricPrecision; text-rendering:geometricPrecision; image-rendering:optimizeQuality; fill-rule:evenodd; clip-rule:evenodd" xmlns:xlink="http://www.w3.org/1999/xlink">
<g><path style="opacity:0.99" fill="#6c5845" d="M 2924.5,853.5 C 2925.73,854.152 2926.39,855.319 2926.5,857C 2917.75,1194.99 2909.08,1532.99 2900.5,1871C 2900.83,1873.83 2901.17,1876.67 2901.5,1879.5C 3178.05,2079.93 3454.38,2280.6 3730.5,2481.5C 3403.02,2579.77 3075.35,2677.44 2747.5,2774.5C 2642.49,3100.02 2536.99,3425.36 2431,3750.5C 2236.67,3469.85 2042.84,3188.85 1849.5,2907.5C 1507.17,2906.67 1164.83,2906.17 822.5,2906C 1025.97,2639.56 1229.8,2373.4 1434,2107.5C 1438.34,2102.14 1442.18,2096.47 1445.5,2090.5C 1339.9,1766.86 1234.4,1443.2 1129,1119.5C 1128.33,1118.17 1128.33,1116.83 1129,1115.5C 1451.32,1229.16 1773.65,1342.83 2096,1456.5C 2372.34,1255.65 2648.5,1054.65 2924.5,853.5 Z"/></g>
<g><path style="opacity:1" fill="#47e9d9" d="M 1235.5,2874.5 C 1119.33,2874.83 1003.33,2874.5 887.5,2873.5C 1086.03,2615.13 1284.03,2356.29 1481.5,2097C 1380.09,1787.44 1279.09,1477.77 1178.5,1168C 1181.57,1168.02 1184.57,1168.68 1187.5,1170C 1491.96,1277.38 1796.46,1384.54 2101,1491.5C 2103.03,1491.14 2104.87,1490.31 2106.5,1489C 2368.64,1298.36 2630.64,1107.53 2892.5,916.5C 2892.83,917 2893.17,917.5 2893.5,918C 2884.79,1243.81 2876.63,1569.64 2869,1895.5C 3132.97,2086.64 3396.81,2277.97 3660.5,2469.5C 3348.19,2562.73 3035.86,2655.9 2723.5,2749C 2720.42,2755.25 2717.92,2761.75 2716,2768.5C 2621.67,3060.17 2527.33,3351.83 2433,3643.5C 2428.93,3655.21 2424.76,3666.88 2420.5,3678.5C 2235.14,3410.97 2050.14,3143.13 1865.5,2875C 1655.5,2874.5 1445.5,2874.33 1235.5,2874.5 Z"/></g>
<g><path style="opacity:1" fill="#5aa08f" d="M 887.5,2873.5 C 1003.33,2874.5 1119.33,2874.83 1235.5,2874.5C 1119.33,2875.83 1003,2875.83 886.5,2874.5C 886.624,2873.89 886.957,2873.56 887.5,2873.5 Z"/></g>
</svg>
