<?xml version="1.0" encoding="UTF-8" standalone="no"?>
<!DOCTYPE svg PUBLIC "-//W3C//DTD SVG 1.1//EN" "http://www.w3.org/Graphics/SVG/1.1/DTD/svg11.dtd">
<svg xmlns="http://www.w3.org/2000/svg" version="1.1" viewBox="0.00 0.00 1448.00 1448.00">
<path fill="#5b606d" d="
  M 625.28 0.00
  L 694.07 0.00
  Q 717.77 106.33 721.40 220.76
  Q 723.94 300.83 719.02 375.26
  Q 709.91 513.07 683.02 653.00
  Q 650.64 821.41 600.79 985.50
  Q 542.58 1177.10 471.21 1351.77
  Q 451.40 1400.25 429.89 1448.00
  L 5.67 1448.00
  Q 5.62 1447.88 5.52 1447.80
  Q 5.33 1447.64 5.55 1447.53
  C 120.93 1388.75 219.16 1304.05 298.44 1201.93
  C 394.69 1077.98 464.32 931.88 512.60 782.25
  Q 555.90 648.02 581.41 509.27
  Q 624.48 274.93 625.80 36.66
  C 625.86 25.22 625.38 12.22 625.28 0.00
  Z"
/>
</svg>
