<?xml version="1.0" encoding="UTF-8"?>
<!DOCTYPE svg PUBLIC "-//W3C//DTD SVG 1.1//EN" "http://www.w3.org/Graphics/SVG/1.1/DTD/svg11.dtd">
<svg xmlns="http://www.w3.org/2000/svg" version="1.1" width="4500px" height="4500px" style="shape-rendering:geometricPrecision; text-rendering:geometricPrecision; image-rendering:optimizeQuality; fill-rule:evenodd; clip-rule:evenodd" xmlns:xlink="http://www.w3.org/1999/xlink">
<g><path style="opacity:0.993" fill="#6e5946" d="M 4487.5,4499.5 C 2991.5,4499.5 1495.5,4499.5 -0.5,4499.5C -0.5,4497.5 -0.5,4495.5 -0.5,4493.5C 651.167,4493.67 1302.83,4493.5 1954.5,4493C 1953.65,4431.72 1943.48,4371.89 1924,4313.5C 1879.99,4196.24 1796.49,4150.74 1673.5,4177C 1620.78,4189.68 1571.62,4210.51 1526,4239.5C 1515.69,4175.58 1496.36,4114.58 1468,4056.5C 1445.94,4012.76 1415.44,3975.93 1376.5,3946C 1320.48,3908.16 1258.48,3892.16 1190.5,3898C 1139.58,3902.4 1090.24,3913.73 1042.5,3932C 974.892,3957.96 911.558,3991.46 852.5,4032.5C 789.224,3988.89 723.891,3986.06 656.5,4024C 609.465,4052.12 570.631,4088.95 540,4134.5C 540.791,4104.01 541.625,4073.51 542.5,4043C 542.685,3967.05 535.185,3891.89 520,3817.5C 503.461,3735.17 472.127,3659.17 426,3589.5C 351.223,3483.82 250.39,3416.65 123.5,3388C 82.6649,3378.9 41.3315,3374.06 -0.5,3373.5C -0.5,3370.5 -0.5,3367.5 -0.5,3364.5C 104.719,3364.36 202.052,3391.53 291.5,3446C 361.753,3491.59 417.587,3550.75 459,3623.5C 498.809,3697.07 525.142,3775.4 538,3858.5C 545.877,3906.15 550.211,3954.15 551,4002.5C 551.51,4035.84 551.51,4069.17 551,4102.5C 584.729,4060.23 625.896,4027.4 674.5,4004C 723.8,3982.6 773.134,3982.27 822.5,4003C 832.698,4008.26 842.698,4013.76 852.5,4019.5C 920.961,3973.44 994.294,3937.27 1072.5,3911C 1302.41,3844.05 1450.58,3925.22 1517,4154.5C 1523.13,4176.94 1528.3,4199.61 1532.5,4222.5C 1559.21,4208.31 1586.54,4195.48 1614.5,4184C 1643.7,4173.53 1673.7,4166.2 1704.5,4162C 1799.19,4150.26 1869.36,4185.76 1915,4268.5C 1940.09,4319.9 1955.09,4374.23 1960,4431.5C 1961.94,4452.05 1963.77,4472.55 1965.5,4493C 2532.5,4493.5 3099.5,4493.67 3666.5,4493.5C 3660.61,4447.32 3644.78,4404.99 3619,4366.5C 3582.96,4320.22 3535.46,4295.06 3476.5,4291C 3429.58,4288.14 3383.58,4293.47 3338.5,4307C 3308.19,4315.66 3278.86,4326.82 3250.5,4340.5C 3207.46,4216.62 3125.79,4128.46 3005.5,4076C 2927.41,4044.05 2846.08,4025.71 2761.5,4021C 2617.43,4013.51 2475.43,4027.34 2335.5,4062.5C 2307.78,3966.74 2266.28,3877.4 2211,3794.5C 2099.7,3635.06 1947.2,3542.9 1753.5,3518C 1601.51,3501.47 1453.84,3519.3 1310.5,3571.5C 1309.21,3487.32 1304.71,3403.32 1297,3319.5C 1286.9,3224.65 1268.23,3131.65 1241,3040.5C 1129.5,2695.42 892.669,2541.25 530.5,2578C 444.731,2588.57 360.731,2606.9 278.5,2633C 182.547,2664.11 89.5466,2702.94 -0.5,2749.5C -0.5,2745.83 -0.5,2742.17 -0.5,2738.5C 142.849,2663.43 294.183,2610.27 453.5,2579C 539.92,2563.41 626.92,2559.08 714.5,2566C 917.324,2586.62 1070.16,2684.45 1173,2859.5C 1212.07,2929.14 1242.07,3002.47 1263,3079.5C 1287.36,3171.68 1303.36,3265.34 1311,3360.5C 1315.16,3415.75 1317.66,3471.09 1318.5,3526.5C 1318.5,3536.83 1318.5,3547.17 1318.5,3557.5C 1319.79,3557.74 1320.79,3557.4 1321.5,3556.5C 1464.8,3507.79 1611.8,3491.96 1762.5,3509C 1968.03,3538.65 2126.2,3640.82 2237,3815.5C 2282.36,3889.47 2317.53,3967.8 2342.5,4050.5C 2454.83,4023.88 2568.83,4009.88 2684.5,4008.5C 2752.52,4008.55 2819.85,4015.05 2886.5,4028C 2945.47,4040.65 3001.47,4060.99 3054.5,4089C 3150.62,4142.45 3217.12,4220.95 3254,4324.5C 3254.69,4325.36 3255.52,4326.02 3256.5,4326.5C 3311.44,4300.76 3369.44,4285.59 3430.5,4281C 3470.45,4277.83 3509.11,4283.16 3546.5,4297C 3595.39,4318.89 3630.56,4354.39 3652,4403.5C 3664.51,4432.2 3672.68,4462.2 3676.5,4493.5C 3943.5,4493.5 4210.5,4493.5 4477.5,4493.5C 4476.45,4374 4421.45,4290.17 4312.5,4242C 4266.3,4223.12 4218.3,4211.45 4168.5,4207C 4131.87,4203.2 4095.2,4202.7 4058.5,4205.5C 3948.16,3953.03 3756.16,3809.19 3482.5,3774C 3297.69,3755.94 3117.69,3777.1 2942.5,3837.5C 2837.35,3558.52 2645.02,3367.35 2365.5,3264C 2228.16,3215.61 2086.49,3188.94 1940.5,3184C 1835.52,3179.31 1731.18,3185.14 1627.5,3201.5C 1627.45,3068.38 1617.62,2936.04 1598,2804.5C 1581.62,2698.32 1554.96,2594.99 1518,2494.5C 1485.91,2409.64 1442.91,2330.98 1389,2258.5C 1283.94,2122.87 1147.44,2036.7 979.5,2000C 914.36,1986.91 848.527,1980.07 782,1979.5C 690.491,1981.08 599.991,1991.24 510.5,2010C 331.621,2049.77 161.287,2111.93 -0.5,2196.5C -0.5,2192.5 -0.5,2188.5 -0.5,2184.5C 156.705,2103.15 321.705,2042.65 494.5,2003C 589.337,1981.81 685.337,1970.65 782.5,1969.5C 878.114,1968.9 971.448,1983.06 1062.5,2012C 1210.67,2062.54 1329.17,2152.04 1418,2280.5C 1469.21,2356.26 1509.88,2437.59 1540,2524.5C 1575.83,2630.65 1600.83,2739.32 1615,2850.5C 1629.02,2963.08 1636.85,3076.08 1638.5,3189.5C 1715.87,3177.84 1793.7,3172.18 1872,3172.5C 2026.3,3171.45 2177.13,3193.61 2324.5,3239C 2461.58,3282.34 2583.91,3350.67 2691.5,3444C 2784.18,3527.67 2857.35,3625.84 2911,3738.5C 2924.19,3766.91 2936.69,3795.58 2948.5,3824.5C 3125.48,3764.59 3306.82,3744.76 3492.5,3765C 3763.06,3802.68 3954.06,3945.68 4065.5,4194C 4131.1,4190.9 4195.77,4197.24 4259.5,4213C 4309.77,4225.8 4355.11,4248.14 4395.5,4280C 4452.04,4330.26 4482.54,4393.42 4487,4469.5C 4487.5,4479.49 4487.67,4489.49 4487.5,4499.5 Z"/></g>
<g><path style="opacity:1" fill="#efe0c0" d="M 1321.5,3556.5 C 1319.84,3546.71 1318.84,3536.71 1318.5,3526.5C 1317.66,3471.09 1315.16,3415.75 1311,3360.5C 1303.36,3265.34 1287.36,3171.68 1263,3079.5C 1242.07,3002.47 1212.07,2929.14 1173,2859.5C 1070.16,2684.45 917.324,2586.62 714.5,2566C 626.92,2559.08 539.92,2563.41 453.5,2579C 294.183,2610.27 142.849,2663.43 -0.5,2738.5C -0.5,2557.83 -0.5,2377.17 -0.5,2196.5C 161.287,2111.93 331.621,2049.77 510.5,2010C 599.991,1991.24 690.491,1981.08 782,1979.5C 848.527,1980.07 914.36,1986.91 979.5,2000C 1147.44,2036.7 1283.94,2122.87 1389,2258.5C 1442.91,2330.98 1485.91,2409.64 1518,2494.5C 1554.96,2594.99 1581.62,2698.32 1598,2804.5C 1617.62,2936.04 1627.45,3068.38 1627.5,3201.5C 1731.18,3185.14 1835.52,3179.31 1940.5,3184C 2086.49,3188.94 2228.16,3215.61 2365.5,3264C 2645.02,3367.35 2837.35,3558.52 2942.5,3837.5C 3117.69,3777.1 3297.69,3755.94 3482.5,3774C 3756.16,3809.19 3948.16,3953.03 4058.5,4205.5C 4095.2,4202.7 4131.87,4203.2 4168.5,4207C 4218.3,4211.45 4266.3,4223.12 4312.5,4242C 4421.45,4290.17 4476.45,4374 4477.5,4493.5C 4210.5,4493.5 3943.5,4493.5 3676.5,4493.5C 3672.68,4462.2 3664.51,4432.2 3652,4403.5C 3630.56,4354.39 3595.39,4318.89 3546.5,4297C 3509.11,4283.16 3470.45,4277.83 3430.5,4281C 3369.44,4285.59 3311.44,4300.76 3256.5,4326.5C 3255.52,4326.02 3254.69,4325.36 3254,4324.5C 3217.12,4220.95 3150.62,4142.45 3054.5,4089C 3001.47,4060.99 2945.47,4040.65 2886.5,4028C 2819.85,4015.05 2752.52,4008.55 2684.5,4008.5C 2568.83,4009.88 2454.83,4023.88 2342.5,4050.5C 2317.53,3967.8 2282.36,3889.47 2237,3815.5C 2126.2,3640.82 1968.03,3538.65 1762.5,3509C 1611.8,3491.96 1464.8,3507.79 1321.5,3556.5 Z"/></g>
<g><path style="opacity:1" fill="#e1c899" d="M -0.5,3364.5 C -0.5,3159.5 -0.5,2954.5 -0.5,2749.5C 89.5466,2702.94 182.547,2664.11 278.5,2633C 360.731,2606.9 444.731,2588.57 530.5,2578C 892.669,2541.25 1129.5,2695.42 1241,3040.5C 1268.23,3131.65 1286.9,3224.65 1297,3319.5C 1304.71,3403.32 1309.21,3487.32 1310.5,3571.5C 1453.84,3519.3 1601.51,3501.47 1753.5,3518C 1947.2,3542.9 2099.7,3635.06 2211,3794.5C 2266.28,3877.4 2307.78,3966.74 2335.5,4062.5C 2475.43,4027.34 2617.43,4013.51 2761.5,4021C 2846.08,4025.71 2927.41,4044.05 3005.5,4076C 3125.79,4128.46 3207.46,4216.62 3250.5,4340.5C 3278.86,4326.82 3308.19,4315.66 3338.5,4307C 3383.58,4293.47 3429.58,4288.14 3476.5,4291C 3535.46,4295.06 3582.96,4320.22 3619,4366.5C 3644.78,4404.99 3660.61,4447.32 3666.5,4493.5C 3099.5,4493.67 2532.5,4493.5 1965.5,4493C 1963.77,4472.55 1961.94,4452.05 1960,4431.5C 1955.09,4374.23 1940.09,4319.9 1915,4268.5C 1869.36,4185.76 1799.19,4150.26 1704.5,4162C 1673.7,4166.2 1643.7,4173.53 1614.5,4184C 1586.54,4195.48 1559.21,4208.31 1532.5,4222.5C 1528.3,4199.61 1523.13,4176.94 1517,4154.5C 1450.58,3925.22 1302.41,3844.05 1072.5,3911C 994.294,3937.27 920.961,3973.44 852.5,4019.5C 842.698,4013.76 832.698,4008.26 822.5,4003C 773.134,3982.27 723.8,3982.6 674.5,4004C 625.896,4027.4 584.729,4060.23 551,4102.5C 551.51,4069.17 551.51,4035.84 551,4002.5C 550.211,3954.15 545.877,3906.15 538,3858.5C 525.142,3775.4 498.809,3697.07 459,3623.5C 417.587,3550.75 361.753,3491.59 291.5,3446C 202.052,3391.53 104.719,3364.36 -0.5,3364.5 Z"/></g>
<g><path style="opacity:1" fill="#d5a062" d="M -0.5,3373.5 C 41.3315,3374.06 82.6649,3378.9 123.5,3388C 250.39,3416.65 351.223,3483.82 426,3589.5C 472.127,3659.17 503.461,3735.17 520,3817.5C 535.185,3891.89 542.685,3967.05 542.5,4043C 541.625,4073.51 540.791,4104.01 540,4134.5C 570.631,4088.95 609.465,4052.12 656.5,4024C 723.891,3986.06 789.224,3988.89 852.5,4032.5C 911.558,3991.46 974.892,3957.96 1042.5,3932C 1090.24,3913.73 1139.58,3902.4 1190.5,3898C 1258.48,3892.16 1320.48,3908.16 1376.5,3946C 1415.44,3975.93 1445.94,4012.76 1468,4056.5C 1496.36,4114.58 1515.69,4175.58 1526,4239.5C 1571.62,4210.51 1620.78,4189.68 1673.5,4177C 1796.49,4150.74 1879.99,4196.24 1924,4313.5C 1943.48,4371.89 1953.65,4431.72 1954.5,4493C 1302.83,4493.5 651.167,4493.67 -0.5,4493.5C -0.5,4120.17 -0.5,3746.83 -0.5,3373.5 Z"/></g>
<g><path style="opacity:1" fill="#ae9b82" d="M 1318.5,3526.5 C 1318.84,3536.71 1319.84,3546.71 1321.5,3556.5C 1320.79,3557.4 1319.79,3557.74 1318.5,3557.5C 1318.5,3547.17 1318.5,3536.83 1318.5,3526.5 Z"/></g>
</svg>
