<?xml version="1.0" encoding="UTF-8"?>
<!DOCTYPE svg PUBLIC "-//W3C//DTD SVG 1.1//EN" "http://www.w3.org/Graphics/SVG/1.1/DTD/svg11.dtd">
<svg xmlns="http://www.w3.org/2000/svg" version="1.1" width="360px" height="338px" style="shape-rendering:geometricPrecision; text-rendering:geometricPrecision; image-rendering:optimizeQuality; fill-rule:evenodd; clip-rule:evenodd" xmlns:xlink="http://www.w3.org/1999/xlink">
<g><path style="opacity:1" fill="#ec5936" d="M 204.5,134.5 C 206.741,135.621 209.075,136.787 211.5,138C 212.899,139.062 213.899,140.395 214.5,142C 212.318,145.347 209.651,148.181 206.5,150.5C 205.244,150.904 204.077,151.571 203,152.5C 187.033,144.548 170.199,142.381 152.5,146C 142.568,147.32 132.735,149.153 123,151.5C 119.51,149.349 116.01,147.182 112.5,145C 100.061,142.08 93.0611,147.08 91.5,160C 83.5176,162.216 75.8509,165.216 68.5,169C 63.3787,171.955 59.0454,175.789 55.5,180.5C 51.1171,179.644 47.7837,177.31 45.5,173.5C 45.372,171.345 45.872,169.345 47,167.5C 56.0271,158.735 66.1938,151.568 77.5,146C 80,143.5 82.5,141 85,138.5C 88.0238,132.286 91.1904,126.12 94.5,120C 107.084,122.558 114.084,117.558 115.5,105C 115.009,101.359 114.009,97.8587 112.5,94.5C 115.392,92.2242 118.726,90.7242 122.5,90C 136.051,88.6277 147.718,92.6277 157.5,102C 152.982,106.864 151.816,112.364 154,118.5C 156.677,122.338 160.344,124.005 165,123.5C 168.494,123.548 171.827,122.881 175,121.5C 183.743,128.117 193.576,132.451 204.5,134.5 Z"/></g>
<g><path style="opacity:0.602" fill="#7c5d48" d="M 206.5,133.5 C 206.158,134.338 205.492,134.672 204.5,134.5C 193.576,132.451 183.743,128.117 175,121.5C 171.827,122.881 168.494,123.548 165,123.5C 160.344,124.005 156.677,122.338 154,118.5C 151.816,112.364 152.982,106.864 157.5,102C 147.718,92.6277 136.051,88.6277 122.5,90C 118.726,90.7242 115.392,92.2242 112.5,94.5C 114.009,97.8587 115.009,101.359 115.5,105C 114.084,117.558 107.084,122.558 94.5,120C 91.1904,126.12 88.0238,132.286 85,138.5C 82.5,141 80,143.5 77.5,146C 66.1938,151.568 56.0271,158.735 47,167.5C 45.872,169.345 45.372,171.345 45.5,173.5C 45.1667,174.167 44.8333,174.833 44.5,175.5C 42.8677,171.148 43.7011,167.148 47,163.5C 56.6211,155.883 66.7878,149.05 77.5,143C 79.3333,141.167 81.1667,139.333 83,137.5C 89.0156,125.469 95.0156,113.469 101,101.5C 112.303,87.7959 126.47,83.9626 143.5,90C 158.979,97.8154 171.645,108.815 181.5,123C 189.626,127.202 197.96,130.702 206.5,133.5 Z"/></g>
<g><path style="opacity:1" fill="#eddebd" d="M 158.5,103.5 C 165.226,107.387 170.892,112.554 175.5,119C 169.9,121.579 164.234,121.912 158.5,120C 156.129,118.257 154.795,115.923 154.5,113C 155.428,109.647 156.761,106.48 158.5,103.5 Z"/></g>
<g><path style="opacity:1" fill="#ecdcbc" d="M 109.5,95.5 C 114.25,100.892 114.75,106.892 111,113.5C 109.786,115.049 108.286,116.215 106.5,117C 103.183,117.498 99.8499,117.665 96.5,117.5C 98.788,108.919 103.121,101.586 109.5,95.5 Z"/></g>
<g><path style="opacity:0.999" fill="#865842" d="M 206.5,133.5 C 214.917,134.388 217.75,138.722 215,146.5C 213.226,147.965 211.392,149.298 209.5,150.5C 208.5,150.5 207.5,150.5 206.5,150.5C 209.651,148.181 212.318,145.347 214.5,142C 213.899,140.395 212.899,139.062 211.5,138C 209.075,136.787 206.741,135.621 204.5,134.5C 205.492,134.672 206.158,134.338 206.5,133.5 Z"/></g>
<g><path style="opacity:1" fill="#ec5936" d="M 251.5,179.5 C 245.193,184.499 244.86,189.999 250.5,196C 253.014,197.252 255.68,197.752 258.5,197.5C 258.5,198.833 258.5,200.167 258.5,201.5C 257.772,216.919 261.272,231.253 269,244.5C 269.494,246.134 269.66,247.801 269.5,249.5C 265.082,255.253 261.748,254.587 259.5,247.5C 254.641,239.465 248.808,232.132 242,225.5C 242.05,221.988 242.55,218.488 243.5,215C 242.291,209.464 238.791,206.297 233,205.5C 229.518,206.318 226.518,207.985 224,210.5C 220.906,208.371 217.739,206.371 214.5,204.5C 202.73,197.179 190.064,191.679 176.5,188C 175.167,185.667 175.167,183.333 176.5,181C 180.859,180.466 185.192,180.632 189.5,181.5C 194.651,182.327 199.984,182.827 205.5,183C 211.151,189.711 217.317,190.211 224,184.5C 225.324,181.164 225.824,177.831 225.5,174.5C 235.083,171.396 243.749,173.062 251.5,179.5 Z"/></g>
<g><path style="opacity:1" fill="#8d5841" d="M 45.5,173.5 C 47.7837,177.31 51.1171,179.644 55.5,180.5C 54.5,181.167 53.5,181.833 52.5,182.5C 48.9611,181.079 46.2944,178.745 44.5,175.5C 44.8333,174.833 45.1667,174.167 45.5,173.5 Z"/></g>
<g><path style="opacity:0.557" fill="#775e48" d="M 206.5,150.5 C 207.5,150.5 208.5,150.5 209.5,150.5C 191.822,164.012 171.822,172.179 149.5,175C 153.545,183.038 158.378,190.538 164,197.5C 171.9,212.138 173.566,227.472 169,243.5C 164.351,249.409 158.184,252.576 150.5,253C 142.522,254.217 134.856,253.217 127.5,250C 119.684,245.244 116.017,238.244 116.5,229C 118.563,212.789 120.896,196.622 123.5,180.5C 104.46,185.396 85.1272,187.563 65.5,187C 61.5,186 57.5,185 53.5,184C 52.944,183.617 52.6107,183.117 52.5,182.5C 53.5,181.833 54.5,181.167 55.5,180.5C 59.0454,175.789 63.3787,171.955 68.5,169C 75.8509,165.216 83.5176,162.216 91.5,160C 93.0611,147.08 100.061,142.08 112.5,145C 116.01,147.182 119.51,149.349 123,151.5C 132.735,149.153 142.568,147.32 152.5,146C 170.199,142.381 187.033,144.548 203,152.5C 204.077,151.571 205.244,150.904 206.5,150.5 Z"/></g>
<g><path style="opacity:1" fill="#d1b98d" d="M 95.5,160.5 C 98.5983,160.413 98.9316,160.913 96.5,162C 87.5025,165.276 78.5025,168.443 69.5,171.5C 77.6621,166.667 86.3287,163.001 95.5,160.5 Z"/></g>
<g><path style="opacity:1" fill="#dbc395" d="M 119.5,178.5 C 118.508,178.328 117.842,178.662 117.5,179.5C 116.414,179.38 115.747,178.713 115.5,177.5C 118.884,161.488 120.217,161.821 119.5,178.5 Z"/></g>
<g><path style="opacity:1" fill="#867057" d="M 119.5,152.5 C 121.099,152.232 122.432,152.566 123.5,153.5C 123.062,153.435 122.728,153.601 122.5,154C 125.885,161.799 127.218,169.965 126.5,178.5C 125.833,178.167 125.167,177.833 124.5,177.5C 124.717,171.768 124.217,166.101 123,160.5C 122.31,159.262 121.81,159.262 121.5,160.5C 120.833,166.5 120.167,172.5 119.5,178.5C 120.217,161.821 118.884,161.488 115.5,177.5C 115.747,178.713 116.414,179.38 117.5,179.5C 116.791,180.404 115.791,180.737 114.5,180.5C 114.737,179.209 114.404,178.209 113.5,177.5C 114.826,173.209 115.659,168.876 116,164.5C 113.5,169.5 111,174.5 108.5,179.5C 109.325,180.386 110.325,180.719 111.5,180.5C 108.877,182.265 105.877,182.932 102.5,182.5C 103.398,181.842 104.398,181.176 105.5,180.5C 109.176,173.92 112.342,167.253 115,160.5C 109.708,167.46 104.042,174.127 98,180.5C 97.4719,181.816 97.9719,182.483 99.5,182.5C 97.7354,183.461 95.7354,183.795 93.5,183.5C 98.1232,177.706 102.956,172.039 108,166.5C 108.667,165.833 108.667,165.167 108,164.5C 99.9245,171.12 91.7578,177.62 83.5,184C 86.1572,184.175 88.8239,184.008 91.5,183.5C 88.1552,185.217 84.4885,185.884 80.5,185.5C 87.3185,178.196 94.9852,171.696 103.5,166C 104.96,165.189 105.293,164.355 104.5,163.5C 92.9962,170.42 81.3295,177.086 69.5,183.5C 68.7025,183.957 68.3691,184.624 68.5,185.5C 67.8333,184.833 67.1667,184.167 66.5,183.5C 78.1036,176.693 89.7703,169.86 101.5,163C 89.3358,166.445 77.3358,170.611 65.5,175.5C 64.871,172.783 66.2043,171.45 69.5,171.5C 78.5025,168.443 87.5025,165.276 96.5,162C 98.9316,160.913 98.5983,160.413 95.5,160.5C 94.9094,159.849 94.2427,159.182 93.5,158.5C 93.6236,157.893 93.9569,157.56 94.5,157.5C 94.7352,158.097 95.2352,158.43 96,158.5C 103.746,156.105 111.579,154.105 119.5,152.5 Z"/></g>
<g><path style="opacity:1" fill="#dac294" d="M 93.5,183.5 C 92.8333,183.5 92.1667,183.5 91.5,183.5C 88.8239,184.008 86.1572,184.175 83.5,184C 91.7578,177.62 99.9245,171.12 108,164.5C 108.667,165.167 108.667,165.833 108,166.5C 102.956,172.039 98.1232,177.706 93.5,183.5 Z"/></g>
<g><path style="opacity:1" fill="#d9c193" d="M 113.5,177.5 C 113.573,179.027 112.906,180.027 111.5,180.5C 110.325,180.719 109.325,180.386 108.5,179.5C 111,174.5 113.5,169.5 116,164.5C 115.659,168.876 114.826,173.209 113.5,177.5 Z"/></g>
<g><path style="opacity:1" fill="#d8c092" d="M 80.5,185.5 C 76.5,185.5 72.5,185.5 68.5,185.5C 68.3691,184.624 68.7025,183.957 69.5,183.5C 81.3295,177.086 92.9962,170.42 104.5,163.5C 105.293,164.355 104.96,165.189 103.5,166C 94.9852,171.696 87.3185,178.196 80.5,185.5 Z"/></g>
<g><path style="opacity:1" fill="#dac294" d="M 102.5,182.5 C 101.5,182.5 100.5,182.5 99.5,182.5C 97.9719,182.483 97.4719,181.816 98,180.5C 104.042,174.127 109.708,167.46 115,160.5C 112.342,167.253 109.176,173.92 105.5,180.5C 104.398,181.176 103.398,181.842 102.5,182.5 Z"/></g>
<g><path style="opacity:1" fill="#dac293" d="M 147.5,171.5 C 147.037,168.779 146.371,166.112 145.5,163.5C 145.369,162.761 145.536,162.094 146,161.5C 147.5,164.5 149,167.5 150.5,170.5C 149.675,171.386 148.675,171.719 147.5,171.5 Z"/></g>
<g><path style="opacity:1" fill="#cfb88c" d="M 124.5,177.5 C 123.791,178.404 122.791,178.737 121.5,178.5C 121.5,172.5 121.5,166.5 121.5,160.5C 121.81,159.262 122.31,159.262 123,160.5C 124.217,166.101 124.717,171.768 124.5,177.5 Z"/></g>
<g><path style="opacity:1" fill="#dbc394" d="M 66.5,183.5 C 63.0962,184.328 59.7628,183.828 56.5,182C 58.8391,178.814 61.8391,176.648 65.5,175.5C 77.3358,170.611 89.3358,166.445 101.5,163C 89.7703,169.86 78.1036,176.693 66.5,183.5 Z"/></g>
<g><path style="opacity:1" fill="#8b755b" d="M 146.5,154.5 C 152.463,158.795 157.796,163.795 162.5,169.5C 161.833,169.833 161.167,170.167 160.5,170.5C 156.203,165.702 151.703,161.035 147,156.5C 148.757,161.382 150.59,166.382 152.5,171.5C 150.716,172.72 149.05,172.72 147.5,171.5C 148.675,171.719 149.675,171.386 150.5,170.5C 149,167.5 147.5,164.5 146,161.5C 145.536,162.094 145.369,162.761 145.5,163.5C 144.067,161.086 143.567,158.419 144,155.5C 144.671,154.748 145.504,154.414 146.5,154.5 Z"/></g>
<g><path style="opacity:1" fill="#d7c092" d="M 160.5,170.5 C 157.763,170.401 155.096,170.735 152.5,171.5C 150.59,166.382 148.757,161.382 147,156.5C 151.703,161.035 156.203,165.702 160.5,170.5 Z"/></g>
<g><path style="opacity:1" fill="#dac293" d="M 178.5,165.5 C 176.565,166.15 174.565,166.483 172.5,166.5C 167.674,163.196 162.674,160.03 157.5,157C 156.304,156.346 156.304,155.846 157.5,155.5C 164.716,158.628 172.049,161.461 179.5,164C 178.944,164.383 178.611,164.883 178.5,165.5 Z"/></g>
<g><path style="opacity:1" fill="#d6be91" d="M 187.5,161.5 C 185.716,161.893 184.05,162.559 182.5,163.5C 175.384,160.4 168.05,157.567 160.5,155C 162.167,154.333 163.833,154.333 165.5,155C 173.102,156.642 180.436,158.809 187.5,161.5 Z"/></g>
<g><path style="opacity:1" fill="#d9c193" d="M 153.5,156.5 C 158.326,159.804 163.326,162.97 168.5,166C 169.598,166.77 169.598,167.603 168.5,168.5C 166.5,168.833 164.5,169.167 162.5,169.5C 157.796,163.795 152.463,158.795 146.5,154.5C 146.047,153.542 145.381,152.708 144.5,152C 147.659,152.913 150.659,154.413 153.5,156.5 Z"/></g>
<g><path style="opacity:1" fill="#d7bf92" d="M 194.5,155.5 C 195.239,155.369 195.906,155.536 196.5,156C 194.636,157.431 192.636,158.597 190.5,159.5C 181.957,157.364 173.291,155.198 164.5,153C 174.461,153.86 184.461,154.693 194.5,155.5 Z"/></g>
<g><path style="opacity:1" fill="#877158" d="M 159.5,150.5 C 171.156,151.551 182.822,152.551 194.5,153.5C 196.369,153.493 198.036,153.16 199.5,152.5C 200.289,152.783 200.956,153.283 201.5,154C 198.964,154.186 196.631,154.686 194.5,155.5C 184.461,154.693 174.461,153.86 164.5,153C 173.291,155.198 181.957,157.364 190.5,159.5C 189.222,159.782 188.222,160.449 187.5,161.5C 180.436,158.809 173.102,156.642 165.5,155C 163.833,154.333 162.167,154.333 160.5,155C 168.05,157.567 175.384,160.4 182.5,163.5C 181.486,164.674 180.153,165.34 178.5,165.5C 178.611,164.883 178.944,164.383 179.5,164C 172.049,161.461 164.716,158.628 157.5,155.5C 156.304,155.846 156.304,156.346 157.5,157C 162.674,160.03 167.674,163.196 172.5,166.5C 171.533,167.806 170.199,168.473 168.5,168.5C 169.598,167.603 169.598,166.77 168.5,166C 163.326,162.97 158.326,159.804 153.5,156.5C 154.738,156.19 154.738,155.69 153.5,155C 156.544,154.641 156.878,153.974 154.5,153C 156.491,152.626 158.158,151.793 159.5,150.5 Z"/></g>
<g><path style="opacity:1" fill="#d59e65" d="M 126.5,178.5 C 127.218,169.965 125.885,161.799 122.5,154C 122.728,153.601 123.062,153.435 123.5,153.5C 128.305,152.439 133.139,151.439 138,150.5C 139.107,150.585 140.107,150.919 141,151.5C 142.453,161.98 145.453,171.98 150,181.5C 155.728,189.565 161.061,197.899 166,206.5C 177.712,242.778 165.212,256.611 128.5,248C 121.121,242.703 118.121,235.536 119.5,226.5C 121.088,210.385 123.421,194.385 126.5,178.5 Z"/></g>
<g><path style="opacity:1" fill="#dbc394" d="M 157.5,150.5 C 168.321,149.505 179.321,149.172 190.5,149.5C 193.574,150.302 196.574,151.302 199.5,152.5C 198.036,153.16 196.369,153.493 194.5,153.5C 182.822,152.551 171.156,151.551 159.5,150.5C 158.833,150.5 158.167,150.5 157.5,150.5 Z"/></g>
<g><path style="opacity:1" fill="#947e61" d="M 190.5,149.5 C 179.321,149.172 168.321,149.505 157.5,150.5C 154.059,150.699 150.726,150.199 147.5,149C 162.006,148.173 176.339,148.339 190.5,149.5 Z"/></g>
<g><path style="opacity:1" fill="#eddebd" d="M 119.5,152.5 C 111.579,154.105 103.746,156.105 96,158.5C 95.2352,158.43 94.7352,158.097 94.5,157.5C 96.3374,147.46 102.004,143.96 111.5,147C 114.621,148.306 117.287,150.14 119.5,152.5 Z"/></g>
<g><path style="opacity:1" fill="#d5bd90" d="M 204.5,214.5 C 202.589,213.925 200.922,212.925 199.5,211.5C 202.856,209.621 206.523,209.121 210.5,210C 208.316,211.363 206.316,212.863 204.5,214.5 Z"/></g>
<g><path style="opacity:1" fill="#d49e65" d="M 220.5,227.5 C 214.52,240.267 209.02,253.267 204,266.5C 196.777,272.94 189.277,273.107 181.5,267C 170.935,257.631 170.935,248.298 181.5,239C 190.568,232.146 199.568,225.313 208.5,218.5C 212.219,215.946 215.052,212.613 217,208.5C 221.115,210.948 224.948,213.781 228.5,217C 225.617,220.376 222.951,223.876 220.5,227.5 Z"/></g>
<g><path style="opacity:0.976" fill="#826850" d="M 193.5,199.5 C 197.953,200.928 202.453,202.261 207,203.5C 207.765,203.43 208.265,203.097 208.5,202.5C 210.297,203.73 212.297,204.396 214.5,204.5C 217.739,206.371 220.906,208.371 224,210.5C 226.518,207.985 229.518,206.318 233,205.5C 238.791,206.297 242.291,209.464 243.5,215C 242.55,218.488 242.05,221.988 242,225.5C 248.808,232.132 254.641,239.465 259.5,247.5C 258.833,247.5 258.167,247.5 257.5,247.5C 252.285,240.106 246.451,233.106 240,226.5C 243.767,233.475 248.267,240.142 253.5,246.5C 251.737,247.954 250.403,247.62 249.5,245.5C 246.182,239.545 242.349,233.878 238,228.5C 239.593,233.019 241.76,237.353 244.5,241.5C 242.612,242.275 240.612,242.275 238.5,241.5C 238.5,240.833 238.5,240.167 238.5,239.5C 239.575,240.562 240.575,240.562 241.5,239.5C 239.747,236.995 238.247,234.329 237,231.5C 236.616,233.197 236.782,234.863 237.5,236.5C 236.348,237.625 235.348,237.625 234.5,236.5C 235.097,236.265 235.43,235.765 235.5,235C 234.333,231.5 233.167,228 232,224.5C 231.502,227.817 231.335,231.15 231.5,234.5C 230.833,231.5 230.167,228.5 229.5,225.5C 229.631,224.761 229.464,224.094 229,223.5C 227.856,226.08 227.022,228.747 226.5,231.5C 225.29,231.068 224.29,230.401 223.5,229.5C 224.497,229.53 225.164,229.03 225.5,228C 226.791,225.95 227.291,223.783 227,221.5C 225.277,223.717 223.777,226.05 222.5,228.5C 221.833,228.167 221.167,227.833 220.5,227.5C 222.951,223.876 225.617,220.376 228.5,217C 224.948,213.781 221.115,210.948 217,208.5C 215.052,212.613 212.219,215.946 208.5,218.5C 208.5,218.167 208.5,217.833 208.5,217.5C 212.535,211.668 211.535,211.001 205.5,215.5C 205.5,214.833 205.167,214.5 204.5,214.5C 206.316,212.863 208.316,211.363 210.5,210C 206.523,209.121 202.856,209.621 199.5,211.5C 198.599,210.71 197.932,209.71 197.5,208.5C 199.75,208.819 201.75,208.319 203.5,207C 200.633,206.199 197.966,206.366 195.5,207.5C 194.957,207.44 194.624,207.107 194.5,206.5C 196.291,205.83 197.958,205.163 199.5,204.5C 200.239,204.631 200.906,204.464 201.5,204C 197.948,203.122 194.614,201.956 191.5,200.5C 192.492,200.672 193.158,200.338 193.5,199.5 Z"/></g>
<g><path style="opacity:1" fill="#e9daba" d="M 230.5,207.5 C 240.751,207.835 243.751,212.668 239.5,222C 238.833,222.667 238.167,222.667 237.5,222C 233.5,218.667 229.5,215.333 225.5,212C 227.24,210.483 228.906,208.983 230.5,207.5 Z"/></g>
<g><path style="opacity:1" fill="#ccb58a" d="M 208.5,217.5 C 206.973,217.573 205.973,216.906 205.5,215.5C 211.535,211.001 212.535,211.668 208.5,217.5 Z"/></g>
<g><path style="opacity:1" fill="#ceb78b" d="M 223.5,229.5 C 222.833,229.5 222.5,229.167 222.5,228.5C 223.777,226.05 225.277,223.717 227,221.5C 227.291,223.783 226.791,225.95 225.5,228C 225.164,229.03 224.497,229.53 223.5,229.5 Z"/></g>
<g><path style="opacity:1" fill="#d9c193" d="M 234.5,236.5 C 233.29,236.068 232.29,235.401 231.5,234.5C 231.335,231.15 231.502,227.817 232,224.5C 233.167,228 234.333,231.5 235.5,235C 235.43,235.765 235.097,236.265 234.5,236.5 Z"/></g>
<g><path style="opacity:0.988" fill="#7c5843" d="M 258.5,201.5 C 260.003,205.024 261.003,208.69 261.5,212.5C 262.413,224.238 265.746,235.238 271.5,245.5C 271.011,246.995 270.345,248.329 269.5,249.5C 269.66,247.801 269.494,246.134 269,244.5C 261.272,231.253 257.772,216.919 258.5,201.5 Z"/></g>
<g><path style="opacity:1" fill="#c4ac84" d="M 229.5,225.5 C 229.808,227.924 229.474,230.257 228.5,232.5C 227.817,232.137 227.15,231.804 226.5,231.5C 227.022,228.747 227.856,226.08 229,223.5C 229.464,224.094 229.631,224.761 229.5,225.5 Z"/></g>
<g><path style="opacity:1" fill="#d3bc8f" d="M 257.5,247.5 C 255.872,248.853 254.538,248.519 253.5,246.5C 248.267,240.142 243.767,233.475 240,226.5C 246.451,233.106 252.285,240.106 257.5,247.5 Z"/></g>
<g><path style="opacity:0.564" fill="#745c47" d="M 261.5,212.5 C 261.003,208.69 260.003,205.024 258.5,201.5C 258.5,200.167 258.5,198.833 258.5,197.5C 258.5,196.833 258.5,196.167 258.5,195.5C 258.675,190.015 257.341,185.015 254.5,180.5C 253.791,179.596 252.791,179.263 251.5,179.5C 243.749,173.062 235.083,171.396 225.5,174.5C 223.952,174.821 223.285,175.821 223.5,177.5C 222.85,177.196 222.183,176.863 221.5,176.5C 217.55,178.039 213.55,179.372 209.5,180.5C 202.877,181.38 196.211,181.713 189.5,181.5C 185.192,180.632 180.859,180.466 176.5,181C 175.167,183.333 175.167,185.667 176.5,188C 190.064,191.679 202.73,197.179 214.5,204.5C 212.297,204.396 210.297,203.73 208.5,202.5C 199.231,197.69 189.564,194.19 179.5,192C 182.988,196.665 187.655,199.165 193.5,199.5C 193.158,200.338 192.492,200.672 191.5,200.5C 186.556,198.991 186.222,199.824 190.5,203C 193.478,203.696 196.478,204.196 199.5,204.5C 197.958,205.163 196.291,205.83 194.5,206.5C 194.624,207.107 194.957,207.44 195.5,207.5C 196.167,207.833 196.833,208.167 197.5,208.5C 197.932,209.71 198.599,210.71 199.5,211.5C 200.922,212.925 202.589,213.925 204.5,214.5C 205.167,214.5 205.5,214.833 205.5,215.5C 205.973,216.906 206.973,217.573 208.5,217.5C 208.5,217.833 208.5,218.167 208.5,218.5C 199.568,225.313 190.568,232.146 181.5,239C 170.935,248.298 170.935,257.631 181.5,267C 189.277,273.107 196.777,272.94 204,266.5C 209.02,253.267 214.52,240.267 220.5,227.5C 221.167,227.833 221.833,228.167 222.5,228.5C 222.5,229.167 222.833,229.5 223.5,229.5C 224.29,230.401 225.29,231.068 226.5,231.5C 227.15,231.804 227.817,232.137 228.5,232.5C 229.474,230.257 229.808,227.924 229.5,225.5C 230.167,228.5 230.833,231.5 231.5,234.5C 232.29,235.401 233.29,236.068 234.5,236.5C 235.348,237.625 236.348,237.625 237.5,236.5C 238.11,237.391 238.443,238.391 238.5,239.5C 238.5,240.167 238.5,240.833 238.5,241.5C 232.79,238.559 227.29,235.226 222,231.5C 219.97,234.213 218.304,237.213 217,240.5C 214.174,251.832 209.34,262.166 202.5,271.5C 195.303,275.599 188.303,275.099 181.5,270C 175.708,265.905 172.375,260.405 171.5,253.5C 173.151,245.655 177.151,239.155 183.5,234C 190.894,229.31 197.894,224.143 204.5,218.5C 194.183,209.351 184.017,200.018 174,190.5C 172.006,178.551 176.839,174.717 188.5,179C 202.719,180.779 216.052,178.112 228.5,171C 240.194,169.342 250.027,172.842 258,181.5C 260.36,191.674 261.527,202.008 261.5,212.5 Z"/></g>
<g><path style="opacity:1" fill="#dcc495" d="M 195.5,207.5 C 197.966,206.366 200.633,206.199 203.5,207C 201.75,208.319 199.75,208.819 197.5,208.5C 196.833,208.167 196.167,207.833 195.5,207.5 Z"/></g>
<g><path style="opacity:1" fill="#cfb78c" d="M 191.5,200.5 C 194.614,201.956 197.948,203.122 201.5,204C 200.906,204.464 200.239,204.631 199.5,204.5C 196.478,204.196 193.478,203.696 190.5,203C 186.222,199.824 186.556,198.991 191.5,200.5 Z"/></g>
<g><path style="opacity:1" fill="#d9c193" d="M 208.5,202.5 C 208.265,203.097 207.765,203.43 207,203.5C 202.453,202.261 197.953,200.928 193.5,199.5C 187.655,199.165 182.988,196.665 179.5,192C 189.564,194.19 199.231,197.69 208.5,202.5 Z"/></g>
<g><path style="opacity:1" fill="#8a624b" d="M 225.5,174.5 C 225.824,177.831 225.324,181.164 224,184.5C 217.317,190.211 211.151,189.711 205.5,183C 199.984,182.827 194.651,182.327 189.5,181.5C 196.211,181.713 202.877,181.38 209.5,180.5C 208.909,181.151 208.243,181.818 207.5,182.5C 212.583,187.806 217.75,187.806 223,182.5C 223.494,180.866 223.66,179.199 223.5,177.5C 223.285,175.821 223.952,174.821 225.5,174.5 Z"/></g>
<g><path style="opacity:1" fill="#8a6a53" d="M 251.5,179.5 C 252.791,179.263 253.791,179.596 254.5,180.5C 247.295,184.243 246.628,189.077 252.5,195C 254.473,195.495 256.473,195.662 258.5,195.5C 258.5,196.167 258.5,196.833 258.5,197.5C 255.68,197.752 253.014,197.252 250.5,196C 244.86,189.999 245.193,184.499 251.5,179.5 Z"/></g>
<g><path style="opacity:1" fill="#eadaba" d="M 254.5,180.5 C 257.341,185.015 258.675,190.015 258.5,195.5C 256.473,195.662 254.473,195.495 252.5,195C 246.628,189.077 247.295,184.243 254.5,180.5 Z"/></g>
<g><path style="opacity:1" fill="#e8d8b8" d="M 223.5,177.5 C 223.66,179.199 223.494,180.866 223,182.5C 217.75,187.806 212.583,187.806 207.5,182.5C 208.243,181.818 208.909,181.151 209.5,180.5C 213.55,179.372 217.55,178.039 221.5,176.5C 222.183,176.863 222.85,177.196 223.5,177.5 Z"/></g>
<g><path style="opacity:1" fill="#d7bf91" d="M 238.5,239.5 C 238.443,238.391 238.11,237.391 237.5,236.5C 236.782,234.863 236.616,233.197 237,231.5C 238.247,234.329 239.747,236.995 241.5,239.5C 240.575,240.562 239.575,240.562 238.5,239.5 Z"/></g>
<g><path style="opacity:1" fill="#ccb58a" d="M 249.5,245.5 C 247.205,244.864 245.539,243.531 244.5,241.5C 241.76,237.353 239.593,233.019 238,228.5C 242.349,233.878 246.182,239.545 249.5,245.5 Z"/></g>
<g><path style="opacity:0.634" fill="#715a46" d="M 238.5,241.5 C 240.612,242.275 242.612,242.275 244.5,241.5C 245.539,243.531 247.205,244.864 249.5,245.5C 250.403,247.62 251.737,247.954 253.5,246.5C 254.538,248.519 255.872,248.853 257.5,247.5C 258.167,247.5 258.833,247.5 259.5,247.5C 261.748,254.587 265.082,255.253 269.5,249.5C 270.345,248.329 271.011,246.995 271.5,245.5C 272.559,251 270.059,254.334 264,255.5C 255.217,251.299 246.717,246.632 238.5,241.5 Z"/></g>
</svg>
