<?xml version="1.0" encoding="UTF-8" standalone="no"?>
<!DOCTYPE svg PUBLIC "-//W3C//DTD SVG 1.1//EN" "http://www.w3.org/Graphics/SVG/1.1/DTD/svg11.dtd">
<svg xmlns="http://www.w3.org/2000/svg" version="1.1" viewBox="0.00 0.00 582.00 429.00">
<g stroke-width="2.00" fill="none" stroke-linecap="butt">
<path stroke="#733300" vector-effect="non-scaling-stroke" d="
  M 226.76 288.76
  A 0.34 0.34 0.0 0 0 226.50 288.21
  L 220.21 288.19
  A 0.34 0.34 0.0 0 0 219.91 288.36
  L 212.91 300.28
  A 0.34 0.34 0.0 0 0 213.21 300.79
  L 217.03 300.64
  A 0.34 0.34 0.0 0 0 217.28 300.51
  L 226.76 288.76"
/>
<path stroke="#733300" vector-effect="non-scaling-stroke" d="
  M 272.01 300.88
  A 1.54 1.54 0.0 0 1 271.13 298.12
  Q 273.78 296.05 272.86 292.52
  Q 272.72 291.98 272.18 292.12
  C 264.22 294.14 265.56 303.13 265.78 309.38
  Q 265.79 309.86 266.28 309.87
  L 272.24 309.96
  A 0.70 0.70 0.0 0 0 272.95 309.26
  L 273.00 301.47
  Q 273.01 300.92 272.47 300.90
  L 272.01 300.88"
/>
<path stroke="#733300" vector-effect="non-scaling-stroke" d="
  M 180.61 312.54
  L 180.64 344.95
  Q 180.64 345.51 181.20 345.51
  L 187.35 345.49
  Q 187.95 345.49 187.95 344.90
  L 187.98 312.67
  Q 187.98 312.07 188.58 312.07
  L 193.46 312.05
  Q 194.21 312.04 194.21 311.29
  L 194.23 306.57
  A 0.67 0.67 0.0 0 0 193.57 305.90
  L 188.14 305.81
  Q 187.42 305.80 187.55 305.10
  L 188.32 300.78
  Q 188.45 300.05 189.17 299.89
  L 193.85 298.86
  Q 194.25 298.78 194.25 298.37
  L 194.17 293.02
  Q 194.16 292.37 193.52 292.38
  Q 180.70 292.49 180.34 305.32
  Q 180.32 305.90 179.74 305.89
  L 176.62 305.87
  A 0.63 0.63 0.0 0 0 175.99 306.50
  L 176.02 311.41
  A 0.64 0.64 0.0 0 0 176.67 312.05
  L 180.04 311.98
  A 0.56 0.56 0.0 0 1 180.61 312.54"
/>
<path stroke="#733300" vector-effect="non-scaling-stroke" d="
  M 450.02 305.88
  A 0.41 0.41 0.0 0 1 449.62 305.48
  L 449.56 293.33
  A 0.41 0.41 0.0 0 0 449.16 292.93
  L 442.81 292.85
  A 0.41 0.41 0.0 0 0 442.40 293.26
  L 442.37 305.53
  A 0.41 0.41 0.0 0 1 441.95 305.94
  L 437.35 305.87
  A 0.41 0.41 0.0 0 0 436.93 306.28
  L 436.92 312.00
  A 0.41 0.41 0.0 0 0 437.34 312.41
  L 441.96 312.36
  A 0.41 0.41 0.0 0 1 442.38 312.77
  L 442.37 345.10
  A 0.41 0.41 0.0 0 0 442.78 345.51
  L 449.18 345.49
  A 0.41 0.41 0.0 0 0 449.59 345.08
  L 449.63 312.80
  A 0.41 0.41 0.0 0 1 450.04 312.39
  L 454.64 312.39
  A 0.41 0.41 0.0 0 0 455.05 311.98
  L 455.06 306.34
  A 0.41 0.41 0.0 0 0 454.65 305.93
  L 450.02 305.88"
/>
<path stroke="#733300" vector-effect="non-scaling-stroke" d="
  M 92.12 326.63
  C 91.16 312.43 108.38 305.82 116.32 318.49
  Q 116.63 318.99 117.21 318.99
  L 123.72 319.00
  Q 124.28 319.00 124.11 318.47
  C 117.53 297.41 88.25 301.67 84.98 322.24
  C 83.61 330.89 87.94 340.15 95.69 344.32
  C 106.83 350.31 120.37 344.44 124.23 332.46
  A 0.52 0.52 0.0 0 0 123.73 331.78
  L 117.25 331.80
  Q 116.63 331.80 116.34 332.34
  C 109.82 344.50 93.03 339.88 92.12 326.63"
/>
<path stroke="#733300" vector-effect="non-scaling-stroke" d="
  M 205.06 328.23
  L 237.28 328.23
  Q 237.85 328.23 237.88 327.66
  C 238.27 319.12 234.63 311.42 227.24 307.11
  C 220.01 302.91 210.16 304.00 204.08 309.63
  C 193.82 319.14 194.88 335.65 206.72 343.48
  Q 210.98 346.30 216.01 346.50
  Q 230.38 347.09 236.16 333.57
  Q 236.42 332.95 235.75 332.95
  L 229.02 332.99
  Q 228.50 332.99 228.19 333.42
  C 221.25 343.08 207.11 340.45 204.73 328.64
  Q 204.65 328.23 205.06 328.23"
/>
<path stroke="#733300" vector-effect="non-scaling-stroke" d="
  M 372.51 328.24
  L 404.50 328.25
  A 0.86 0.86 0.0 0 0 405.36 327.40
  C 405.46 316.79 399.29 306.79 388.50 304.83
  C 372.69 301.94 360.33 318.06 365.71 332.85
  C 372.23 350.78 395.81 350.94 403.60 333.84
  A 0.63 0.63 0.0 0 0 403.02 332.95
  L 396.24 333.01
  A 0.85 0.83 15.9 0 0 395.56 333.38
  C 388.98 343.27 374.50 340.34 372.16 328.67
  Q 372.08 328.24 372.51 328.24"
/>
<path stroke="#733300" vector-effect="non-scaling-stroke" d="
  M 417.59 317.43
  C 415.82 310.48 425.22 308.70 426.31 315.41
  Q 426.38 315.83 426.80 315.83
  L 432.77 315.89
  A 0.52 0.52 0.0 0 0 433.30 315.33
  C 432.24 300.58 411.83 301.10 410.51 315.26
  C 409.16 329.77 426.52 324.91 426.93 334.01
  C 427.28 342.02 416.12 341.52 415.27 333.08
  A 0.55 0.54 87.1 0 0 414.73 332.59
  L 409.27 332.60
  Q 408.79 332.60 408.80 333.08
  C 408.92 343.45 418.98 350.37 428.27 344.58
  C 434.78 340.52 436.27 330.19 430.20 324.88
  Q 429.11 323.92 424.63 321.97
  C 422.99 321.26 418.08 319.31 417.59 317.43"
/>
<path stroke="#733300" vector-effect="non-scaling-stroke" d="
  M 477.5005 346.5359
  A 21.00 20.36 92.1 0 0 498.6163 326.2961
  A 21.00 20.36 92.1 0 0 479.0395 304.5641
  A 21.00 20.36 92.1 0 0 457.9237 324.8039
  A 21.00 20.36 92.1 0 0 477.5005 346.5359"
/>
<path stroke="#733300" vector-effect="non-scaling-stroke" d="
  M 162.80 310.01
  C 146.86 295.68 124.52 312.18 130.26 331.68
  C 133.39 342.36 143.44 347.92 154.45 345.82
  C 157.62 345.21 160.13 343.28 162.77 341.40
  A 0.40 0.40 0.0 0 1 163.40 341.73
  L 163.37 344.91
  Q 163.36 345.46 163.91 345.46
  L 170.23 345.48
  Q 170.68 345.48 170.69 345.02
  L 170.73 306.46
  Q 170.73 305.94 170.21 305.94
  L 163.96 305.91
  A 0.62 0.62 0.0 0 0 163.34 306.54
  L 163.40 309.74
  A 0.36 0.36 0.0 0 1 162.80 310.01"
/>
<path stroke="#733300" vector-effect="non-scaling-stroke" d="
  M 288.90 309.50
  L 288.84 306.51
  A 0.60 0.59 90.0 0 0 288.26 305.92
  L 282.74 305.85
  A 0.66 0.65 0.0 0 0 282.07 306.51
  L 282.13 344.95
  Q 282.13 345.51 282.69 345.50
  L 288.48 345.49
  Q 289.12 345.49 289.12 344.84
  Q 289.07 334.42 289.23 324.00
  C 289.28 320.71 290.65 315.90 293.67 313.86
  C 297.93 311.00 304.80 311.40 307.31 316.58
  Q 308.93 319.93 308.93 323.51
  Q 308.94 334.23 309.00 344.99
  Q 309.00 345.50 309.51 345.50
  L 315.46 345.48
  Q 315.91 345.48 315.92 345.03
  Q 316.07 336.30 315.94 327.61
  Q 315.81 318.62 315.48 316.97
  C 313.07 304.90 297.82 301.10 289.49 309.72
  A 0.34 0.34 0.0 0 1 288.90 309.50"
/>
<path stroke="#733300" vector-effect="non-scaling-stroke" d="
  M 352.05 309.22
  L 352.07 306.64
  A 0.69 0.68 0.4 0 0 351.39 305.96
  L 345.96 305.85
  Q 345.51 305.85 345.51 306.29
  L 345.52 345.01
  Q 345.52 345.50 346.01 345.50
  L 352.20 345.49
  Q 352.68 345.49 352.68 345.01
  Q 352.60 333.76 352.77 322.49
  Q 352.90 313.63 360.82 312.84
  Q 361.59 312.76 361.59 311.99
  L 361.62 305.54
  A 0.49 0.48 -2.1 0 0 361.09 305.05
  C 358.61 305.30 355.50 306.30 353.97 308.34
  Q 353.45 309.04 352.74 309.57
  Q 352.04 310.10 352.05 309.22"
/>
<path stroke="#733300" vector-effect="non-scaling-stroke" d="
  M 215.12 311.95
  C 210.08 312.75 206.60 316.53 205.01 321.20
  A 0.51 0.51 0.0 0 0 205.49 321.87
  L 229.26 321.87
  A 0.53 0.52 -9.7 0 0 229.76 321.17
  Q 225.88 310.25 215.12 311.95"
/>
<path stroke="#733300" vector-effect="non-scaling-stroke" d="
  M 372.77 321.88
  L 396.93 321.92
  A 0.03 0.03 0.0 0 0 396.96 321.89
  L 396.96 321.82
  A 12.01 9.98 0.1 0 0 384.97 311.82
  L 384.77 311.82
  A 12.01 9.98 0.1 0 0 372.74 321.78
  L 372.74 321.85
  A 0.03 0.03 0.0 0 0 372.77 321.88"
/>
<path stroke="#733300" vector-effect="non-scaling-stroke" d="
  M 478.0246 339.4864
  A 13.90 13.04 91.3 0 0 491.3766 325.8858
  A 13.90 13.04 91.3 0 0 478.6554 311.6936
  A 13.90 13.04 91.3 0 0 465.3034 325.2942
  A 13.90 13.04 91.3 0 0 478.0246 339.4864"
/>
<path stroke="#733300" vector-effect="non-scaling-stroke" d="
  M 151.2052 339.4096
  A 13.81 13.42 86.2 0 0 163.6805 324.7406
  A 13.81 13.42 86.2 0 0 149.3748 311.8504
  A 13.81 13.42 86.2 0 0 136.8995 326.5194
  A 13.81 13.42 86.2 0 0 151.2052 339.4096"
/>
</g>
<path fill="#e66500" d="
  M 190.10 154.07
  A 0.37 0.37 0.0 0 0 189.46 153.74
  Q 160.78 187.83 129.62 219.44
  C 116.95 232.29 103.77 244.03 89.74 254.45
  Q 77.85 263.29 63.73 268.99
  Q 58.62 271.06 54.02 271.25
  C 38.88 271.88 26.08 265.73 23.40 249.64
  C 20.64 233.12 27.97 217.84 36.23 203.88
  Q 48.72 182.78 65.38 161.88
  Q 108.18 108.15 161.44 62.69
  Q 179.25 47.49 198.34 35.94
  C 206.58 30.95 213.88 28.49 222.98 28.18
  C 226.15 28.07 236.93 29.44 234.80 35.28
  C 232.44 41.78 218.39 45.17 212.40 47.48
  Q 197.83 53.11 184.28 62.74
  C 160.75 79.46 140.54 98.34 121.38 119.13
  Q 73.99 170.59 37.08 230.04
  C 33.18 236.33 31.32 247.34 33.99 254.62
  C 41.12 274.00 61.89 256.74 70.28 249.51
  Q 98.43 225.24 125.00 199.24
  Q 166.48 158.66 206.93 117.04
  Q 207.31 116.65 207.79 116.91
  Q 213.26 119.92 217.96 123.72
  C 220.20 125.53 219.48 127.45 217.17 128.71
  Q 206.42 134.57 203.74 147.01
  Q 199.21 168.07 196.71 189.50
  C 194.30 210.25 192.97 240.79 209.97 255.95
  Q 210.26 256.22 209.87 256.30
  C 195.23 259.36 186.02 252.04 183.03 238.52
  C 180.58 227.48 180.81 217.74 181.53 205.15
  Q 183.03 179.08 190.10 154.07
  Z"
/>
<path fill="#e66500" d="
  M 281.80 229.37
  Q 273.44 241.20 263.07 251.57
  C 254.26 260.37 238.16 264.33 227.98 255.50
  C 215.41 244.58 221.63 225.53 228.15 213.40
  C 239.01 193.17 255.19 172.68 275.59 162.10
  Q 287.28 156.03 301.96 154.92
  A 0.80 0.79 6.4 0 0 302.66 154.37
  C 313.79 118.16 326.51 82.50 342.24 48.04
  Q 342.48 47.52 343.05 47.52
  L 354.74 47.52
  Q 355.51 47.52 355.20 48.23
  Q 346.60 67.41 343.65 74.57
  Q 324.23 121.59 310.41 170.53
  C 302.99 196.83 295.50 227.05 304.80 253.92
  Q 304.97 254.41 304.66 254.82
  Q 302.42 257.69 298.81 258.36
  Q 298.23 258.46 297.84 258.03
  Q 286.76 245.62 282.51 229.50
  A 0.40 0.40 0.0 0 0 281.80 229.37
  Z
  M 251.87 244.87
  C 271.58 225.14 286.63 200.49 293.24 173.42
  Q 293.59 171.99 293.20 168.22
  Q 293.14 167.68 292.61 167.78
  C 285.31 169.20 278.21 173.86 272.17 178.67
  Q 258.86 189.26 248.43 202.67
  Q 233.83 221.42 232.24 245.24
  Q 231.88 250.59 235.37 252.01
  C 240.45 254.09 248.42 248.34 251.87 244.87
  Z"
/>
<path fill="#e66500" d="
  M 396.22 248.69
  C 398.17 251.32 401.39 252.25 404.38 253.38
  A 0.95 0.92 -87.3 0 1 404.96 254.04
  C 406.12 258.73 396.92 258.25 394.30 257.79
  Q 377.51 254.88 379.49 237.99
  C 381.71 219.13 386.27 201.76 393.02 178.69
  Q 395.32 170.83 398.86 159.57
  Q 413.87 111.73 428.66 63.82
  Q 428.85 63.20 429.50 63.22
  L 440.19 63.64
  Q 440.86 63.66 440.65 64.30
  C 426.94 106.82 414.31 147.38 403.78 188.51
  Q 399.65 204.64 395.83 226.50
  C 394.88 231.93 393.17 244.61 396.22 248.69
  Z"
/>
<path fill="#e66500" d="
  M 513.52 229.06
  Q 512.13 228.79 511.08 230.30
  Q 503.26 241.51 494.71 250.26
  C 487.54 257.60 473.24 268.05 464.55 256.94
  C 458.22 248.85 458.86 234.23 460.77 224.25
  Q 463.49 209.96 468.39 199.06
  C 475.67 182.85 490.07 165.25 507.70 159.86
  C 514.01 157.93 525.20 158.14 530.10 163.63
  A 1.31 1.27 23.1 0 1 530.42 164.39
  Q 530.83 170.05 524.95 169.79
  C 518.10 169.50 513.84 169.19 507.70 172.27
  Q 497.95 177.15 491.17 185.94
  Q 470.84 212.29 469.07 245.75
  C 468.38 258.91 479.99 250.73 483.61 246.66
  Q 495.54 233.27 507.25 219.67
  C 510.03 216.45 511.03 211.76 512.77 207.89
  Q 512.99 207.40 513.51 207.52
  L 523.91 209.87
  Q 524.36 209.98 524.47 210.43
  C 525.91 216.54 527.24 223.32 529.07 228.60
  C 531.43 235.40 535.00 244.78 541.07 249.12
  C 544.66 251.69 549.64 252.14 553.99 251.95
  A 1.37 1.37 0.0 0 1 555.24 254.01
  C 549.77 263.35 533.51 258.16 527.16 253.14
  Q 524.07 250.69 521.64 246.27
  Q 517.26 238.30 514.26 229.70
  Q 514.07 229.17 513.52 229.06
  Z"
/>
<path fill="#e66500" d="
  M 437.66 251.36
  Q 440.09 254.47 443.90 255.88
  A 1.33 1.33 0.0 0 1 443.89 258.38
  Q 435.32 261.52 427.35 256.69
  C 420.87 252.76 421.93 248.06 422.70 240.49
  Q 423.20 235.53 423.72 232.00
  Q 428.49 199.76 435.13 167.85
  Q 435.85 164.42 437.49 162.69
  C 438.99 161.10 443.32 158.15 445.67 159.26
  Q 447.04 159.91 447.02 161.51
  Q 446.93 168.55 445.04 180.97
  Q 440.76 209.13 436.26 237.25
  C 435.40 242.59 434.19 246.95 437.66 251.36
  Z"
/>
<path fill="#e66500" d="
  M 331.34 222.54
  Q 327.95 233.90 332.43 244.27
  C 334.86 249.90 338.98 252.64 344.89 249.59
  Q 351.77 246.05 358.72 241.87
  Q 360.05 241.07 359.97 242.62
  Q 359.76 246.84 359.38 251.72
  C 359.29 252.90 358.60 253.58 357.75 254.26
  C 351.06 259.52 342.72 260.56 334.56 258.98
  C 325.56 257.24 319.78 251.04 318.12 241.99
  C 315.68 228.69 316.86 214.68 320.08 201.81
  C 324.54 184.02 334.33 170.16 351.49 162.74
  C 358.98 159.50 367.69 159.75 373.14 166.36
  C 378.26 172.56 377.50 180.89 374.90 188.19
  C 368.39 206.41 350.12 218.06 331.93 221.99
  Q 331.47 222.09 331.34 222.54
  Z
  M 340.13 183.13
  Q 332.74 193.76 332.31 209.15
  Q 332.29 209.59 332.73 209.62
  Q 339.07 210.06 344.47 207.55
  Q 362.75 199.05 369.48 179.74
  Q 370.30 177.41 369.64 174.11
  Q 369.05 171.17 366.92 169.84
  Q 364.15 168.11 360.69 168.89
  Q 348.02 171.76 340.13 183.13
  Z"
/>
<path fill="#000000" d="
  M 524.91 356.03
  L 59.04 356.03
  A 0.41 0.41 0.0 0 1 58.63 355.62
  L 58.63 281.22
  A 0.41 0.41 0.0 0 1 59.04 280.81
  L 524.91 280.82
  A 0.41 0.41 0.0 0 1 525.32 281.23
  L 525.32 355.62
  A 0.41 0.41 0.0 0 1 524.91 356.03
  Z
  M 226.76 288.76
  A 0.34 0.34 0.0 0 0 226.50 288.21
  L 220.21 288.19
  A 0.34 0.34 0.0 0 0 219.91 288.36
  L 212.91 300.28
  A 0.34 0.34 0.0 0 0 213.21 300.79
  L 217.03 300.64
  A 0.34 0.34 0.0 0 0 217.28 300.51
  L 226.76 288.76
  Z
  M 272.01 300.88
  A 1.54 1.54 0.0 0 1 271.13 298.12
  Q 273.78 296.05 272.86 292.52
  Q 272.72 291.98 272.18 292.12
  C 264.22 294.14 265.56 303.13 265.78 309.38
  Q 265.79 309.86 266.28 309.87
  L 272.24 309.96
  A 0.70 0.70 0.0 0 0 272.95 309.26
  L 273.00 301.47
  Q 273.01 300.92 272.47 300.90
  L 272.01 300.88
  Z
  M 180.61 312.54
  L 180.64 344.95
  Q 180.64 345.51 181.20 345.51
  L 187.35 345.49
  Q 187.95 345.49 187.95 344.90
  L 187.98 312.67
  Q 187.98 312.07 188.58 312.07
  L 193.46 312.05
  Q 194.21 312.04 194.21 311.29
  L 194.23 306.57
  A 0.67 0.67 0.0 0 0 193.57 305.90
  L 188.14 305.81
  Q 187.42 305.80 187.55 305.10
  L 188.32 300.78
  Q 188.45 300.05 189.17 299.89
  L 193.85 298.86
  Q 194.25 298.78 194.25 298.37
  L 194.17 293.02
  Q 194.16 292.37 193.52 292.38
  Q 180.70 292.49 180.34 305.32
  Q 180.32 305.90 179.74 305.89
  L 176.62 305.87
  A 0.63 0.63 0.0 0 0 175.99 306.50
  L 176.02 311.41
  A 0.64 0.64 0.0 0 0 176.67 312.05
  L 180.04 311.98
  A 0.56 0.56 0.0 0 1 180.61 312.54
  Z
  M 450.02 305.88
  A 0.41 0.41 0.0 0 1 449.62 305.48
  L 449.56 293.33
  A 0.41 0.41 0.0 0 0 449.16 292.93
  L 442.81 292.85
  A 0.41 0.41 0.0 0 0 442.40 293.26
  L 442.37 305.53
  A 0.41 0.41 0.0 0 1 441.95 305.94
  L 437.35 305.87
  A 0.41 0.41 0.0 0 0 436.93 306.28
  L 436.92 312.00
  A 0.41 0.41 0.0 0 0 437.34 312.41
  L 441.96 312.36
  A 0.41 0.41 0.0 0 1 442.38 312.77
  L 442.37 345.10
  A 0.41 0.41 0.0 0 0 442.78 345.51
  L 449.18 345.49
  A 0.41 0.41 0.0 0 0 449.59 345.08
  L 449.63 312.80
  A 0.41 0.41 0.0 0 1 450.04 312.39
  L 454.64 312.39
  A 0.41 0.41 0.0 0 0 455.05 311.98
  L 455.06 306.34
  A 0.41 0.41 0.0 0 0 454.65 305.93
  L 450.02 305.88
  Z
  M 92.12 326.63
  C 91.16 312.43 108.38 305.82 116.32 318.49
  Q 116.63 318.99 117.21 318.99
  L 123.72 319.00
  Q 124.28 319.00 124.11 318.47
  C 117.53 297.41 88.25 301.67 84.98 322.24
  C 83.61 330.89 87.94 340.15 95.69 344.32
  C 106.83 350.31 120.37 344.44 124.23 332.46
  A 0.52 0.52 0.0 0 0 123.73 331.78
  L 117.25 331.80
  Q 116.63 331.80 116.34 332.34
  C 109.82 344.50 93.03 339.88 92.12 326.63
  Z
  M 205.06 328.23
  L 237.28 328.23
  Q 237.85 328.23 237.88 327.66
  C 238.27 319.12 234.63 311.42 227.24 307.11
  C 220.01 302.91 210.16 304.00 204.08 309.63
  C 193.82 319.14 194.88 335.65 206.72 343.48
  Q 210.98 346.30 216.01 346.50
  Q 230.38 347.09 236.16 333.57
  Q 236.42 332.95 235.75 332.95
  L 229.02 332.99
  Q 228.50 332.99 228.19 333.42
  C 221.25 343.08 207.11 340.45 204.73 328.64
  Q 204.65 328.23 205.06 328.23
  Z
  M 372.51 328.24
  L 404.50 328.25
  A 0.86 0.86 0.0 0 0 405.36 327.40
  C 405.46 316.79 399.29 306.79 388.50 304.83
  C 372.69 301.94 360.33 318.06 365.71 332.85
  C 372.23 350.78 395.81 350.94 403.60 333.84
  A 0.63 0.63 0.0 0 0 403.02 332.95
  L 396.24 333.01
  A 0.85 0.83 15.9 0 0 395.56 333.38
  C 388.98 343.27 374.50 340.34 372.16 328.67
  Q 372.08 328.24 372.51 328.24
  Z
  M 417.59 317.43
  C 415.82 310.48 425.22 308.70 426.31 315.41
  Q 426.38 315.83 426.80 315.83
  L 432.77 315.89
  A 0.52 0.52 0.0 0 0 433.30 315.33
  C 432.24 300.58 411.83 301.10 410.51 315.26
  C 409.16 329.77 426.52 324.91 426.93 334.01
  C 427.28 342.02 416.12 341.52 415.27 333.08
  A 0.55 0.54 87.1 0 0 414.73 332.59
  L 409.27 332.60
  Q 408.79 332.60 408.80 333.08
  C 408.92 343.45 418.98 350.37 428.27 344.58
  C 434.78 340.52 436.27 330.19 430.20 324.88
  Q 429.11 323.92 424.63 321.97
  C 422.99 321.26 418.08 319.31 417.59 317.43
  Z
  M 477.5005 346.5359
  A 21.00 20.36 92.1 0 0 498.6163 326.2961
  A 21.00 20.36 92.1 0 0 479.0395 304.5641
  A 21.00 20.36 92.1 0 0 457.9237 324.8039
  A 21.00 20.36 92.1 0 0 477.5005 346.5359
  Z
  M 162.80 310.01
  C 146.86 295.68 124.52 312.18 130.26 331.68
  C 133.39 342.36 143.44 347.92 154.45 345.82
  C 157.62 345.21 160.13 343.28 162.77 341.40
  A 0.40 0.40 0.0 0 1 163.40 341.73
  L 163.37 344.91
  Q 163.36 345.46 163.91 345.46
  L 170.23 345.48
  Q 170.68 345.48 170.69 345.02
  L 170.73 306.46
  Q 170.73 305.94 170.21 305.94
  L 163.96 305.91
  A 0.62 0.62 0.0 0 0 163.34 306.54
  L 163.40 309.74
  A 0.36 0.36 0.0 0 1 162.80 310.01
  Z
  M 288.90 309.50
  L 288.84 306.51
  A 0.60 0.59 90.0 0 0 288.26 305.92
  L 282.74 305.85
  A 0.66 0.65 0.0 0 0 282.07 306.51
  L 282.13 344.95
  Q 282.13 345.51 282.69 345.50
  L 288.48 345.49
  Q 289.12 345.49 289.12 344.84
  Q 289.07 334.42 289.23 324.00
  C 289.28 320.71 290.65 315.90 293.67 313.86
  C 297.93 311.00 304.80 311.40 307.31 316.58
  Q 308.93 319.93 308.93 323.51
  Q 308.94 334.23 309.00 344.99
  Q 309.00 345.50 309.51 345.50
  L 315.46 345.48
  Q 315.91 345.48 315.92 345.03
  Q 316.07 336.30 315.94 327.61
  Q 315.81 318.62 315.48 316.97
  C 313.07 304.90 297.82 301.10 289.49 309.72
  A 0.34 0.34 0.0 0 1 288.90 309.50
  Z
  M 352.05 309.22
  L 352.07 306.64
  A 0.69 0.68 0.4 0 0 351.39 305.96
  L 345.96 305.85
  Q 345.51 305.85 345.51 306.29
  L 345.52 345.01
  Q 345.52 345.50 346.01 345.50
  L 352.20 345.49
  Q 352.68 345.49 352.68 345.01
  Q 352.60 333.76 352.77 322.49
  Q 352.90 313.63 360.82 312.84
  Q 361.59 312.76 361.59 311.99
  L 361.62 305.54
  A 0.49 0.48 -2.1 0 0 361.09 305.05
  C 358.61 305.30 355.50 306.30 353.97 308.34
  Q 353.45 309.04 352.74 309.57
  Q 352.04 310.10 352.05 309.22
  Z"
/>
<path fill="#e66500" d="
  M 226.76 288.76
  L 217.28 300.51
  A 0.34 0.34 0.0 0 1 217.03 300.64
  L 213.21 300.79
  A 0.34 0.34 0.0 0 1 212.91 300.28
  L 219.91 288.36
  A 0.34 0.34 0.0 0 1 220.21 288.19
  L 226.50 288.21
  A 0.34 0.34 0.0 0 1 226.76 288.76
  Z"
/>
<path fill="#e66500" d="
  M 272.01 300.88
  L 272.47 300.90
  Q 273.01 300.92 273.00 301.47
  L 272.95 309.26
  A 0.70 0.70 0.0 0 1 272.24 309.96
  L 266.28 309.87
  Q 265.79 309.86 265.78 309.38
  C 265.56 303.13 264.22 294.14 272.18 292.12
  Q 272.72 291.98 272.86 292.52
  Q 273.78 296.05 271.13 298.12
  A 1.54 1.54 0.0 0 0 272.01 300.88
  Z"
/>
<path fill="#e66500" d="
  M 180.04 311.98
  L 176.67 312.05
  A 0.64 0.64 0.0 0 1 176.02 311.41
  L 175.99 306.50
  A 0.63 0.63 0.0 0 1 176.62 305.87
  L 179.74 305.89
  Q 180.32 305.90 180.34 305.32
  Q 180.70 292.49 193.52 292.38
  Q 194.16 292.37 194.17 293.02
  L 194.25 298.37
  Q 194.25 298.78 193.85 298.86
  L 189.17 299.89
  Q 188.45 300.05 188.32 300.78
  L 187.55 305.10
  Q 187.42 305.80 188.14 305.81
  L 193.57 305.90
  A 0.67 0.67 0.0 0 1 194.23 306.57
  L 194.21 311.29
  Q 194.21 312.04 193.46 312.05
  L 188.58 312.07
  Q 187.98 312.07 187.98 312.67
  L 187.95 344.90
  Q 187.95 345.49 187.35 345.49
  L 181.20 345.51
  Q 180.64 345.51 180.64 344.95
  L 180.61 312.54
  A 0.56 0.56 0.0 0 0 180.04 311.98
  Z"
/>
<path fill="#e66500" d="
  M 450.02 305.88
  L 454.65 305.93
  A 0.41 0.41 0.0 0 1 455.06 306.34
  L 455.05 311.98
  A 0.41 0.41 0.0 0 1 454.64 312.39
  L 450.04 312.39
  A 0.41 0.41 0.0 0 0 449.63 312.80
  L 449.59 345.08
  A 0.41 0.41 0.0 0 1 449.18 345.49
  L 442.78 345.51
  A 0.41 0.41 0.0 0 1 442.37 345.10
  L 442.38 312.77
  A 0.41 0.41 0.0 0 0 441.96 312.36
  L 437.34 312.41
  A 0.41 0.41 0.0 0 1 436.92 312.00
  L 436.93 306.28
  A 0.41 0.41 0.0 0 1 437.35 305.87
  L 441.95 305.94
  A 0.41 0.41 0.0 0 0 442.37 305.53
  L 442.40 293.26
  A 0.41 0.41 0.0 0 1 442.81 292.85
  L 449.16 292.93
  A 0.41 0.41 0.0 0 1 449.56 293.33
  L 449.62 305.48
  A 0.41 0.41 0.0 0 0 450.02 305.88
  Z"
/>
<path fill="#e66500" d="
  M 92.12 326.63
  C 93.03 339.88 109.82 344.50 116.34 332.34
  Q 116.63 331.80 117.25 331.80
  L 123.73 331.78
  A 0.52 0.52 0.0 0 1 124.23 332.46
  C 120.37 344.44 106.83 350.31 95.69 344.32
  C 87.94 340.15 83.61 330.89 84.98 322.24
  C 88.25 301.67 117.53 297.41 124.11 318.47
  Q 124.28 319.00 123.72 319.00
  L 117.21 318.99
  Q 116.63 318.99 116.32 318.49
  C 108.38 305.82 91.16 312.43 92.12 326.63
  Z"
/>
<path fill="#e66500" d="
  M 204.73 328.64
  C 207.11 340.45 221.25 343.08 228.19 333.42
  Q 228.50 332.99 229.02 332.99
  L 235.75 332.95
  Q 236.42 332.95 236.16 333.57
  Q 230.38 347.09 216.01 346.50
  Q 210.98 346.30 206.72 343.48
  C 194.88 335.65 193.82 319.14 204.08 309.63
  C 210.16 304.00 220.01 302.91 227.24 307.11
  C 234.63 311.42 238.27 319.12 237.88 327.66
  Q 237.85 328.23 237.28 328.23
  L 205.06 328.23
  Q 204.65 328.23 204.73 328.64
  Z
  M 215.12 311.95
  C 210.08 312.75 206.60 316.53 205.01 321.20
  A 0.51 0.51 0.0 0 0 205.49 321.87
  L 229.26 321.87
  A 0.53 0.52 -9.7 0 0 229.76 321.17
  Q 225.88 310.25 215.12 311.95
  Z"
/>
<path fill="#e66500" d="
  M 372.16 328.67
  C 374.50 340.34 388.98 343.27 395.56 333.38
  A 0.85 0.83 15.9 0 1 396.24 333.01
  L 403.02 332.95
  A 0.63 0.63 0.0 0 1 403.60 333.84
  C 395.81 350.94 372.23 350.78 365.71 332.85
  C 360.33 318.06 372.69 301.94 388.50 304.83
  C 399.29 306.79 405.46 316.79 405.36 327.40
  A 0.86 0.86 0.0 0 1 404.50 328.25
  L 372.51 328.24
  Q 372.08 328.24 372.16 328.67
  Z
  M 372.77 321.88
  L 396.93 321.92
  A 0.03 0.03 0.0 0 0 396.96 321.89
  L 396.96 321.82
  A 12.01 9.98 0.1 0 0 384.97 311.82
  L 384.77 311.82
  A 12.01 9.98 0.1 0 0 372.74 321.78
  L 372.74 321.85
  A 0.03 0.03 0.0 0 0 372.77 321.88
  Z"
/>
<path fill="#e66500" d="
  M 417.59 317.43
  C 418.08 319.31 422.99 321.26 424.63 321.97
  Q 429.11 323.92 430.20 324.88
  C 436.27 330.19 434.78 340.52 428.27 344.58
  C 418.98 350.37 408.92 343.45 408.80 333.08
  Q 408.79 332.60 409.27 332.60
  L 414.73 332.59
  A 0.55 0.54 87.1 0 1 415.27 333.08
  C 416.12 341.52 427.28 342.02 426.93 334.01
  C 426.52 324.91 409.16 329.77 410.51 315.26
  C 411.83 301.10 432.24 300.58 433.30 315.33
  A 0.52 0.52 0.0 0 1 432.77 315.89
  L 426.80 315.83
  Q 426.38 315.83 426.31 315.41
  C 425.22 308.70 415.82 310.48 417.59 317.43
  Z"
/>
<path fill="#e66500" d="
  M 477.5005 346.5359
  A 21.00 20.36 92.1 0 1 457.9237 324.8039
  A 21.00 20.36 92.1 0 1 479.0395 304.5641
  A 21.00 20.36 92.1 0 1 498.6163 326.2961
  A 21.00 20.36 92.1 0 1 477.5005 346.5359
  Z
  M 478.0246 339.4864
  A 13.90 13.04 91.3 0 0 491.3766 325.8858
  A 13.90 13.04 91.3 0 0 478.6554 311.6936
  A 13.90 13.04 91.3 0 0 465.3034 325.2942
  A 13.90 13.04 91.3 0 0 478.0246 339.4864
  Z"
/>
<path fill="#e66500" d="
  M 163.40 309.74
  L 163.34 306.54
  A 0.62 0.62 0.0 0 1 163.96 305.91
  L 170.21 305.94
  Q 170.73 305.94 170.73 306.46
  L 170.69 345.02
  Q 170.68 345.48 170.23 345.48
  L 163.91 345.46
  Q 163.36 345.46 163.37 344.91
  L 163.40 341.73
  A 0.40 0.40 0.0 0 0 162.77 341.40
  C 160.13 343.28 157.62 345.21 154.45 345.82
  C 143.44 347.92 133.39 342.36 130.26 331.68
  C 124.52 312.18 146.86 295.68 162.80 310.01
  A 0.36 0.36 0.0 0 0 163.40 309.74
  Z
  M 151.2052 339.4096
  A 13.81 13.42 86.2 0 0 163.6805 324.7406
  A 13.81 13.42 86.2 0 0 149.3748 311.8504
  A 13.81 13.42 86.2 0 0 136.8995 326.5194
  A 13.81 13.42 86.2 0 0 151.2052 339.4096
  Z"
/>
<path fill="#e66500" d="
  M 288.90 309.50
  A 0.34 0.34 0.0 0 0 289.49 309.72
  C 297.82 301.10 313.07 304.90 315.48 316.97
  Q 315.81 318.62 315.94 327.61
  Q 316.07 336.30 315.92 345.03
  Q 315.91 345.48 315.46 345.48
  L 309.51 345.50
  Q 309.00 345.50 309.00 344.99
  Q 308.94 334.23 308.93 323.51
  Q 308.93 319.93 307.31 316.58
  C 304.80 311.40 297.93 311.00 293.67 313.86
  C 290.65 315.90 289.28 320.71 289.23 324.00
  Q 289.07 334.42 289.12 344.84
  Q 289.12 345.49 288.48 345.49
  L 282.69 345.50
  Q 282.13 345.51 282.13 344.95
  L 282.07 306.51
  A 0.66 0.65 0.0 0 1 282.74 305.85
  L 288.26 305.92
  A 0.60 0.59 90.0 0 1 288.84 306.51
  L 288.90 309.50
  Z"
/>
<path fill="#e66500" d="
  M 352.74 309.57
  Q 353.45 309.04 353.97 308.34
  C 355.50 306.30 358.61 305.30 361.09 305.05
  A 0.49 0.48 -2.1 0 1 361.62 305.54
  L 361.59 311.99
  Q 361.59 312.76 360.82 312.84
  Q 352.90 313.63 352.77 322.49
  Q 352.60 333.76 352.68 345.01
  Q 352.68 345.49 352.20 345.49
  L 346.01 345.50
  Q 345.52 345.50 345.52 345.01
  L 345.51 306.29
  Q 345.51 305.85 345.96 305.85
  L 351.39 305.96
  A 0.69 0.68 0.4 0 1 352.07 306.64
  L 352.05 309.22
  Q 352.04 310.10 352.74 309.57
  Z"
/>
<path fill="#000000" d="
  M 372.77 321.88
  A 0.03 0.03 0.0 0 1 372.74 321.85
  L 372.74 321.78
  A 12.01 9.98 0.1 0 1 384.77 311.82
  L 384.97 311.82
  A 12.01 9.98 0.1 0 1 396.96 321.82
  L 396.96 321.89
  A 0.03 0.03 0.0 0 1 396.93 321.92
  L 372.77 321.88
  Z"
/>
<ellipse fill="#000000" cx="0.00" cy="0.00" transform="translate(150.29,325.63) rotate(86.2)" rx="13.81" ry="13.42"/>
<path fill="#000000" d="
  M 205.01 321.20
  C 206.60 316.53 210.08 312.75 215.12 311.95
  Q 225.88 310.25 229.76 321.17
  A 0.53 0.52 -9.7 0 1 229.26 321.87
  L 205.49 321.87
  A 0.51 0.51 0.0 0 1 205.01 321.20
  Z"
/>
<ellipse fill="#000000" cx="0.00" cy="0.00" transform="translate(478.34,325.59) rotate(91.3)" rx="13.90" ry="13.04"/>
<path fill="#000000" d="
  M 489.85 385.41
  Q 489.61 383.77 488.89 385.26
  Q 485.03 393.28 481.56 400.75
  Q 480.87 402.22 479.89 403.33
  A 0.53 0.52 -37.3 0 1 479.03 403.22
  L 470.07 385.25
  Q 469.76 384.62 469.66 385.31
  L 467.28 401.61
  Q 467.18 402.29 467.86 402.43
  L 470.52 402.96
  A 0.27 0.26 -78.5 0 1 470.73 403.28
  Q 470.70 403.41 470.67 403.53
  A 0.21 0.19 -84.6 0 1 470.48 403.70
  L 461.92 403.64
  Q 461.66 403.64 461.55 403.41
  Q 461.50 403.29 461.45 403.18
  Q 461.34 402.96 461.58 402.95
  Q 464.39 402.87 464.84 399.75
  Q 466.63 387.31 468.51 374.28
  A 0.73 0.72 36.1 0 1 469.88 374.07
  L 480.64 396.13
  Q 480.85 396.57 481.06 396.13
  L 491.61 374.05
  A 0.72 0.72 0.0 0 1 492.97 374.26
  Q 494.46 385.06 495.94 396.00
  Q 496.35 399.04 497.36 401.92
  A 0.87 0.86 85.1 0 0 498.01 402.47
  L 501.14 403.08
  A 0.30 0.30 0.0 0 1 501.36 403.47
  Q 501.31 403.63 501.15 403.74
  Q 501.04 403.83 500.84 403.83
  Q 496.41 403.88 491.98 403.51
  Q 491.45 403.47 491.57 402.95
  Q 491.90 401.55 491.86 401.14
  Q 490.95 392.82 489.85 385.41
  Z"
/>
<path fill="#000000" d="
  M 142.14 402.63
  L 144.19 402.97
  A 0.18 0.18 0.0 0 1 144.28 403.28
  L 143.86 403.68
  Q 143.76 403.77 143.63 403.76
  Q 139.42 403.44 135.21 403.79
  Q 134.74 403.83 134.48 403.43
  L 134.32 403.19
  A 0.21 0.20 73.6 0 1 134.49 402.87
  C 136.58 402.93 137.96 402.35 138.81 400.30
  Q 144.14 387.31 149.38 374.31
  Q 149.54 373.90 149.90 373.72
  A 0.52 0.51 64.6 0 1 150.62 373.98
  Q 155.71 386.49 160.74 398.98
  Q 162.26 402.76 165.86 402.95
  Q 166.30 402.98 166.12 403.38
  Q 166.06 403.51 165.96 403.60
  Q 165.87 403.67 165.70 403.68
  Q 160.99 403.85 156.29 403.57
  A 0.28 0.28 0.0 0 1 156.10 403.09
  L 156.46 402.72
  Q 156.78 402.39 156.63 401.95
  L 153.88 394.18
  A 0.67 0.67 0.0 0 0 153.25 393.74
  L 144.88 393.73
  Q 144.29 393.73 144.10 394.29
  L 141.57 401.68
  A 0.73 0.73 0.0 0 0 142.14 402.63
  Z
  M 145.48 391.41
  A 0.31 0.31 0.0 0 0 145.77 391.82
  L 152.33 391.82
  A 0.31 0.31 0.0 0 0 152.62 391.41
  L 149.34 381.87
  A 0.31 0.31 0.0 0 0 148.76 381.87
  L 145.48 391.41
  Z"
/>
<path fill="#000000" d="
  M 372.7348 384.0631
  A 16.03 15.47 -17.3 0 1 362.0304 403.6001
  A 16.03 15.47 -17.3 0 1 342.1252 393.5969
  A 16.03 15.47 -17.3 0 1 352.8296 374.0599
  A 16.03 15.47 -17.3 0 1 372.7348 384.0631
  Z
  M 359.7519 402.2647
  A 13.62 10.53 79.8 0 0 367.7036 386.9953
  A 13.62 10.53 79.8 0 0 354.9281 375.4553
  A 13.62 10.53 79.8 0 0 346.9764 390.7247
  A 13.62 10.53 79.8 0 0 359.7519 402.2647
  Z"
/>
<path fill="#000000" d="
  M 433.6105 384.3791
  A 16.05 15.46 -16.1 0 1 422.4773 403.6836
  A 16.05 15.46 -16.1 0 1 402.7695 393.2809
  A 16.05 15.46 -16.1 0 1 413.9027 373.9764
  A 16.05 15.46 -16.1 0 1 433.6105 384.3791
  Z
  M 420.5535 402.2507
  A 13.61 10.54 79.7 0 0 428.4901 386.9754
  A 13.61 10.54 79.7 0 0 415.6865 375.4693
  A 13.61 10.54 79.7 0 0 407.7499 390.7446
  A 13.61 10.54 79.7 0 0 420.5535 402.2507
  Z"
/>
<path fill="#000000" d="
  M 103.08 387.32
  C 104.76 388.37 106.73 389.36 107.69 391.19
  C 111.31 398.08 105.98 403.98 98.34 403.73
  Q 93.19 403.56 88.06 403.68
  Q 87.72 403.69 87.56 403.52
  Q 87.44 403.41 87.39 403.25
  A 0.28 0.27 76.8 0 1 87.60 402.90
  L 89.77 402.55
  A 0.90 0.88 86.9 0 0 90.52 401.70
  Q 90.95 386.78 90.66 377.48
  Q 90.57 374.51 87.34 374.85
  A 0.34 0.34 0.0 0 1 87.00 374.37
  Q 87.14 374.09 87.39 374.14
  C 92.10 375.18 100.71 372.17 104.24 376.42
  Q 107.76 380.65 102.92 386.21
  Q 102.35 386.86 103.08 387.32
  Z
  M 95.30 376.74
  L 95.26 386.00
  A 0.73 0.73 0.0 0 0 95.99 386.73
  L 97.32 386.74
  A 5.19 4.46 -89.8 0 0 101.80 381.56
  L 101.80 381.22
  A 5.19 4.46 -89.8 0 0 97.36 376.02
  L 96.03 376.01
  A 0.73 0.73 0.0 0 0 95.30 376.74
  Z
  M 103.82 398.01
  C 104.59 392.77 101.63 387.74 95.77 388.52
  Q 95.29 388.58 95.28 389.07
  Q 95.25 394.29 95.39 399.50
  Q 95.45 401.48 97.99 401.78
  Q 103.18 402.38 103.82 398.01
  Z"
/>
<path fill="#000000" d="
  M 193.72 402.71
  A 1.44 1.43 -2.4 0 0 195.04 401.28
  L 195.08 376.14
  A 0.90 0.90 0.0 0 0 194.36 375.26
  L 191.74 374.74
  Q 191.48 374.69 191.62 374.46
  Q 191.78 374.19 192.25 374.21
  Q 195.34 374.31 203.04 374.15
  Q 203.31 374.15 203.41 374.27
  Q 203.50 374.37 203.51 374.51
  A 0.14 0.14 0.0 0 1 203.39 374.65
  L 200.64 375.18
  A 0.79 0.79 0.0 0 0 200.00 375.94
  Q 199.86 382.09 199.96 395.99
  Q 199.98 398.61 200.25 400.25
  A 0.97 0.96 2.8 0 0 200.96 401.03
  Q 205.28 402.20 209.59 401.01
  A 0.99 0.97 -86.8 0 0 210.24 400.42
  L 211.20 397.98
  A 0.29 0.28 -33.5 0 1 211.75 398.09
  C 211.69 400.02 211.88 404.29 208.74 404.07
  Q 200.63 403.50 192.50 403.69
  Q 192.12 403.70 191.91 403.46
  Q 191.46 402.91 192.17 402.85
  L 193.72 402.71
  Z"
/>
<path fill="#000000" d="
  M 249.76 401.20
  Q 253.89 402.08 257.96 401.05
  A 0.61 0.60 5.0 0 0 258.37 400.71
  L 259.41 398.52
  A 0.33 0.33 0.0 0 1 260.03 398.67
  Q 259.95 401.09 259.20 403.37
  A 0.65 0.65 0.0 0 1 258.57 403.82
  L 240.30 403.58
  A 0.28 0.28 0.0 0 1 240.13 403.09
  Q 240.64 402.68 241.36 402.77
  Q 243.37 403.04 243.37 401.01
  L 243.42 376.13
  A 0.88 0.88 0.0 0 0 242.76 375.28
  L 240.16 374.58
  Q 239.86 374.50 240.03 374.23
  C 240.07 374.18 250.08 374.12 251.23 374.03
  Q 251.58 374.00 251.69 374.35
  Q 251.72 374.47 251.76 374.60
  Q 251.81 374.80 251.60 374.77
  Q 248.28 374.28 248.24 377.74
  Q 248.15 388.39 248.29 399.41
  A 1.86 1.86 0.0 0 0 249.76 401.20
  Z"
/>
<path fill="#000000" d="
  M 304.63 390.39
  C 307.54 394.38 312.85 402.66 318.24 402.90
  A 0.29 0.29 0.0 0 1 318.30 403.47
  C 312.77 404.89 309.10 403.26 305.66 398.65
  Q 303.22 395.37 301.03 391.96
  A 0.87 0.86 74.2 0 0 300.32 391.56
  L 297.02 391.47
  Q 296.33 391.45 296.32 392.14
  Q 296.32 395.80 296.48 399.39
  C 296.60 401.84 297.32 403.27 300.03 402.93
  Q 300.53 402.87 300.41 403.35
  Q 300.37 403.54 300.28 403.64
  C 300.25 403.66 289.99 403.69 288.93 403.74
  Q 288.62 403.75 288.50 403.47
  L 288.37 403.18
  A 0.31 0.31 0.0 0 1 288.72 402.75
  C 290.85 403.27 291.60 402.12 291.64 400.13
  Q 292.01 382.27 291.68 376.80
  Q 291.52 374.13 288.20 374.88
  A 0.24 0.23 -83.9 0 1 287.94 374.55
  Q 288.16 374.05 288.75 374.08
  C 292.90 374.27 302.12 373.14 306.11 375.55
  C 312.17 379.19 308.94 385.63 304.71 389.59
  Q 304.32 389.96 304.63 390.39
  Z
  M 296.31 377.49
  L 296.33 388.47
  A 1.27 1.27 0.0 0 0 297.60 389.74
  L 299.49 389.73
  A 6.08 5.26 89.9 0 0 304.74 383.64
  L 304.74 382.28
  A 6.08 5.26 89.9 0 0 299.47 376.21
  L 297.58 376.22
  A 1.27 1.27 0.0 0 0 296.31 377.49
  Z"
/>
</svg>
