<?xml version="1.0" encoding="UTF-8"?>
<!DOCTYPE svg PUBLIC "-//W3C//DTD SVG 1.1//EN" "http://www.w3.org/Graphics/SVG/1.1/DTD/svg11.dtd">
<svg xmlns="http://www.w3.org/2000/svg" version="1.1" width="250px" height="289px" style="shape-rendering:geometricPrecision; text-rendering:geometricPrecision; image-rendering:optimizeQuality; fill-rule:evenodd; clip-rule:evenodd" xmlns:xlink="http://www.w3.org/1999/xlink">
<g><path style="opacity:0.971" fill="#fdda9c" d="M 69.5,-0.5 C 82.1667,-0.5 94.8333,-0.5 107.5,-0.5C 127.54,6.36745 141.707,19.7008 150,39.5C 156.29,62.6762 151.957,83.6762 137,102.5C 126.699,113.728 113.866,119.062 98.5,118.5C 96.7951,115.739 95.4617,112.739 94.5,109.5C 95.8333,108.5 97.1667,107.5 98.5,106.5C 103.09,104.872 107.423,102.705 111.5,100C 116,95.5 120.5,91 125,86.5C 130.15,76.082 131.816,65.082 130,53.5C 125.458,40.6256 116.624,32.1256 103.5,28C 87.3467,23.0984 72.3467,25.4317 58.5,35C 40.0594,58.1622 41.3928,80.1622 62.5,101C 68.7792,105.482 75.7792,107.649 83.5,107.5C 86.0409,108.103 88.3743,108.103 90.5,107.5C 91.1667,107.833 91.8333,108.167 92.5,108.5C 92.1006,112.011 91.4339,115.344 90.5,118.5C 54.9458,124.481 32.4458,110.147 23,75.5C 20.7799,56.5773 23.7799,38.5773 32,21.5C 35.5,16.6667 39.6667,12.5 44.5,9C 52.604,4.9146 60.9373,1.74794 69.5,-0.5 Z"/></g>
<g><path style="opacity:1" fill="#ffcb6e" d="M 98.5,106.5 C 98.5,106.167 98.5,105.833 98.5,105.5C 117.381,94.389 119.381,80.889 104.5,65C 100.716,62.6927 96.8824,60.526 93,58.5C 92.2873,55.5254 93.1207,53.0254 95.5,51C 87.0076,51.1633 80.1743,54.6633 75,61.5C 74.0653,63.9088 73.5653,66.4088 73.5,69C 74.5713,73.8524 75.4047,78.6858 76,83.5C 70.3683,81.528 67.3683,77.528 67,71.5C 60.0244,79.4651 59.691,87.7985 66,96.5C 70.8693,101.843 76.7026,105.51 83.5,107.5C 75.7792,107.649 68.7792,105.482 62.5,101C 41.3928,80.1622 40.0594,58.1622 58.5,35C 72.3467,25.4317 87.3467,23.0984 103.5,28C 116.624,32.1256 125.458,40.6256 130,53.5C 131.816,65.082 130.15,76.082 125,86.5C 120.5,91 116,95.5 111.5,100C 107.423,102.705 103.09,104.872 98.5,106.5 Z"/></g>
<g><path style="opacity:1" fill="#fea523" d="M 98.5,105.5 C 98.5569,104.391 98.8902,103.391 99.5,102.5C 101.68,100.969 102.68,98.8021 102.5,96C 101.128,89.9122 100.295,83.7455 100,77.5C 98.4798,73.6479 95.6465,71.8145 91.5,72C 89.0314,69.5589 87.198,66.7256 86,63.5C 83.8199,65.8633 82.1532,68.53 81,71.5C 80.3333,77.1667 80.3333,82.8333 81,88.5C 81.4497,90.519 82.283,92.3523 83.5,94C 78.1957,94.2683 73.6957,92.435 70,88.5C 72.3842,98.0434 78.5509,103.71 88.5,105.5C 89.5,105.833 90.1667,106.5 90.5,107.5C 88.3743,108.103 86.0409,108.103 83.5,107.5C 76.7026,105.51 70.8693,101.843 66,96.5C 59.691,87.7985 60.0244,79.4651 67,71.5C 67.3683,77.528 70.3683,81.528 76,83.5C 75.4047,78.6858 74.5713,73.8524 73.5,69C 73.5653,66.4088 74.0653,63.9088 75,61.5C 80.1743,54.6633 87.0076,51.1633 95.5,51C 93.1207,53.0254 92.2873,55.5254 93,58.5C 96.8824,60.526 100.716,62.6927 104.5,65C 119.381,80.889 117.381,94.389 98.5,105.5 Z"/></g>
<g><path style="opacity:1" fill="#f3782a" d="M 99.5,102.5 C 100.169,95.3093 97.6687,89.6426 92,85.5C 89.5751,86.2614 88.2418,87.928 88,90.5C 87.2742,95.5523 87.4409,100.552 88.5,105.5C 78.5509,103.71 72.3842,98.0434 70,88.5C 73.6957,92.435 78.1957,94.2683 83.5,94C 82.283,92.3523 81.4497,90.519 81,88.5C 80.3333,82.8333 80.3333,77.1667 81,71.5C 82.1532,68.53 83.8199,65.8633 86,63.5C 87.198,66.7256 89.0314,69.5589 91.5,72C 95.6465,71.8145 98.4798,73.6479 100,77.5C 100.295,83.7455 101.128,89.9122 102.5,96C 102.68,98.8021 101.68,100.969 99.5,102.5 Z"/></g>
<g><path style="opacity:1" fill="#896b53" d="M 99.5,102.5 C 98.8902,103.391 98.5569,104.391 98.5,105.5C 98.5,105.833 98.5,106.167 98.5,106.5C 97.1667,107.5 95.8333,108.5 94.5,109.5C 94.1583,108.662 93.4916,108.328 92.5,108.5C 91.8333,108.167 91.1667,107.833 90.5,107.5C 90.1667,106.5 89.5,105.833 88.5,105.5C 87.4409,100.552 87.2742,95.5523 88,90.5C 88.2418,87.928 89.5751,86.2614 92,85.5C 97.6687,89.6426 100.169,95.3093 99.5,102.5 Z"/></g>
<g><path style="opacity:1" fill="#efeeed" d="M 91.5,87.5 C 96.4283,91.7051 98.2616,97.0385 97,103.5C 94.6667,108.833 92.3333,108.833 90,103.5C 87.8623,97.9319 88.3623,92.5985 91.5,87.5 Z"/></g>
<g><path style="opacity:0.94" fill="#fdda9c" d="M 191.5,168.5 C 190.833,168.5 190.5,168.167 190.5,167.5C 189.343,164.693 189.343,162.026 190.5,159.5C 196.173,160.078 200.673,157.745 204,152.5C 208.192,143.958 208.526,135.292 205,126.5C 196.551,117.519 186.385,115.019 174.5,119C 163.706,125.103 159.873,134.27 163,146.5C 166.92,156.876 174.42,161.876 185.5,161.5C 186.103,163.626 186.103,165.959 185.5,168.5C 185.5,169.167 185.167,169.5 184.5,169.5C 167.98,169.33 157.48,161.33 153,145.5C 149.775,115.498 163.275,101.998 193.5,105C 210.623,109.143 219.29,120.143 219.5,138C 217.694,154.976 208.361,165.143 191.5,168.5 Z"/></g>
<g><path style="opacity:1" fill="#fecb6e" d="M 190.5,159.5 C 190.833,158.833 191.167,158.167 191.5,157.5C 196.676,153.8 198.509,148.8 197,142.5C 194.688,139.021 191.854,136.021 188.5,133.5C 187.959,131.465 187.292,129.465 186.5,127.5C 179.144,131.207 175.644,137.207 176,145.5C 174.837,143.715 174.17,141.715 174,139.5C 169.543,149.273 172.376,156.273 182.5,160.5C 183.107,160.376 183.44,160.043 183.5,159.5C 184.5,159.833 185.167,160.5 185.5,161.5C 174.42,161.876 166.92,156.876 163,146.5C 159.873,134.27 163.706,125.103 174.5,119C 186.385,115.019 196.551,117.519 205,126.5C 208.526,135.292 208.192,143.958 204,152.5C 200.673,157.745 196.173,160.078 190.5,159.5 Z"/></g>
<g><path style="opacity:1" fill="#e85a3a" d="M 144.5,135.5 C 143.703,140.579 142.37,145.579 140.5,150.5C 137.539,148.588 135.539,145.921 134.5,142.5C 133.675,141.614 132.675,141.281 131.5,141.5C 131.815,154.582 130.981,167.582 129,180.5C 126.406,185.711 122.239,187.544 116.5,186C 112.639,182.746 110.472,178.579 110,173.5C 107.75,160.256 106.25,146.922 105.5,133.5C 102.963,136.769 99.6295,138.435 95.5,138.5C 91.2683,137.71 87.2683,136.377 83.5,134.5C 84.2832,144.116 83.1165,153.449 80,162.5C 78.2672,164.602 76.2672,164.935 74,163.5C 73.0812,159.759 72.0812,156.092 71,152.5C 69.8982,154.381 68.5648,156.048 67,157.5C 65.3745,156.711 63.8745,155.711 62.5,154.5C 61.0815,155.005 60.4148,156.005 60.5,157.5C 59.6695,168.326 59.1695,179.326 59,190.5C 58.1013,194.57 55.6013,196.57 51.5,196.5C 49.39,195.547 48.2233,193.881 48,191.5C 47.1294,171.496 48.2961,151.663 51.5,132C 82.5053,122.269 113.505,122.103 144.5,131.5C 144.5,132.833 144.5,134.167 144.5,135.5 Z"/></g>
<g><path style="opacity:1" fill="#fea625" d="M 191.5,157.5 C 191.5,156.833 191.5,156.167 191.5,155.5C 194.097,149.202 192.263,144.536 186,141.5C 185.365,137.898 184.032,137.232 182,139.5C 181.501,143.486 181.334,147.486 181.5,151.5C 179.278,151.822 177.444,151.155 176,149.5C 176.699,153.393 178.865,156.393 182.5,158.5C 183.167,158.5 183.5,158.833 183.5,159.5C 183.44,160.043 183.107,160.376 182.5,160.5C 172.376,156.273 169.543,149.273 174,139.5C 174.17,141.715 174.837,143.715 176,145.5C 175.644,137.207 179.144,131.207 186.5,127.5C 187.292,129.465 187.959,131.465 188.5,133.5C 191.854,136.021 194.688,139.021 197,142.5C 198.509,148.8 196.676,153.8 191.5,157.5 Z"/></g>
<g><path style="opacity:1" fill="#865a45" d="M 144.5,135.5 C 144.5,139.167 144.5,142.833 144.5,146.5C 144.634,148.292 144.301,149.958 143.5,151.5C 141.901,151.232 140.568,151.566 139.5,152.5C 137.164,150.996 135.331,148.996 134,146.5C 134.027,158.997 132.694,171.331 130,183.5C 124.184,189.567 118.184,189.9 112,184.5C 110.073,181.052 108.739,177.385 108,173.5C 106.006,161.579 104.673,149.579 104,137.5C 98.0675,141.432 92.0675,141.432 86,137.5C 85.7114,144.208 85.0448,150.875 84,157.5C 82.5576,165.976 78.3909,167.976 71.5,163.5C 70.8108,161.556 70.3108,159.556 70,157.5C 69.6322,158.91 68.7989,159.91 67.5,160.5C 65.8513,159.352 64.3513,158.019 63,156.5C 61.5738,166.754 61.0738,177.088 61.5,187.5C 60.506,177.681 60.1726,167.681 60.5,157.5C 60.4148,156.005 61.0815,155.005 62.5,154.5C 63.8745,155.711 65.3745,156.711 67,157.5C 68.5648,156.048 69.8982,154.381 71,152.5C 72.0812,156.092 73.0812,159.759 74,163.5C 76.2672,164.935 78.2672,164.602 80,162.5C 83.1165,153.449 84.2832,144.116 83.5,134.5C 87.2683,136.377 91.2683,137.71 95.5,138.5C 99.6295,138.435 102.963,136.769 105.5,133.5C 106.25,146.922 107.75,160.256 110,173.5C 110.472,178.579 112.639,182.746 116.5,186C 122.239,187.544 126.406,185.711 129,180.5C 130.981,167.582 131.815,154.582 131.5,141.5C 132.675,141.281 133.675,141.614 134.5,142.5C 135.539,145.921 137.539,148.588 140.5,150.5C 142.37,145.579 143.703,140.579 144.5,135.5 Z"/></g>
<g><path style="opacity:1" fill="#d66e51" d="M 139.5,152.5 C 139.819,184.525 139.486,216.525 138.5,248.5C 141.934,254.598 146.934,258.931 153.5,261.5C 162.962,262.231 172.128,264.565 181,268.5C 181.617,269.449 181.451,270.282 180.5,271C 175.035,273.119 169.369,273.952 163.5,273.5C 160.446,272.679 157.446,272.679 154.5,273.5C 159.771,276.44 159.771,279.274 154.5,282C 145.011,285.633 135.344,286.299 125.5,284C 123.072,281.032 123.405,278.198 126.5,275.5C 125.833,275.167 125.167,274.833 124.5,274.5C 114.993,278.471 105.493,278.471 96,274.5C 93.6183,275.744 91.785,277.577 90.5,280C 82.9059,283.908 75.9059,283.074 69.5,277.5C 65.7706,280.679 61.4373,282.179 56.5,282C 44.8333,282.667 33.1667,282.667 21.5,282C 12.8577,281.71 11.5244,278.71 17.5,273C 29.0287,267.38 40.862,262.547 53,258.5C 53.1682,238.329 53.6682,218.329 54.5,198.5C 59.5694,196.678 61.9027,193.011 61.5,187.5C 61.0738,177.088 61.5738,166.754 63,156.5C 64.3513,158.019 65.8513,159.352 67.5,160.5C 68.7989,159.91 69.6322,158.91 70,157.5C 70.3108,159.556 70.8108,161.556 71.5,163.5C 78.3909,167.976 82.5576,165.976 84,157.5C 85.0448,150.875 85.7114,144.208 86,137.5C 92.0675,141.432 98.0675,141.432 104,137.5C 104.673,149.579 106.006,161.579 108,173.5C 108.739,177.385 110.073,181.052 112,184.5C 118.184,189.9 124.184,189.567 130,183.5C 132.694,171.331 134.027,158.997 134,146.5C 135.331,148.996 137.164,150.996 139.5,152.5 Z"/></g>
<g><path style="opacity:1" fill="#f1792a" d="M 191.5,155.5 C 191.089,151.767 189.422,148.767 186.5,146.5C 183.075,149.72 181.742,153.72 182.5,158.5C 178.865,156.393 176.699,153.393 176,149.5C 177.444,151.155 179.278,151.822 181.5,151.5C 181.334,147.486 181.501,143.486 182,139.5C 184.032,137.232 185.365,137.898 186,141.5C 192.263,144.536 194.097,149.202 191.5,155.5 Z"/></g>
<g><path style="opacity:1" fill="#846a52" d="M 191.5,155.5 C 191.5,156.167 191.5,156.833 191.5,157.5C 191.167,158.167 190.833,158.833 190.5,159.5C 189.343,162.026 189.343,164.693 190.5,167.5C 189.504,167.586 188.671,167.252 188,166.5C 187.292,167.381 186.458,168.047 185.5,168.5C 186.103,165.959 186.103,163.626 185.5,161.5C 185.167,160.5 184.5,159.833 183.5,159.5C 183.5,158.833 183.167,158.5 182.5,158.5C 181.742,153.72 183.075,149.72 186.5,146.5C 189.422,148.767 191.089,151.767 191.5,155.5 Z"/></g>
<g><path style="opacity:1" fill="#edebea" d="M 185.5,149.5 C 189.753,152.436 190.42,156.103 187.5,160.5C 185.6,159.203 184.6,157.37 184.5,155C 184.943,153.175 185.277,151.342 185.5,149.5 Z"/></g>
<g><path style="opacity:0.532" fill="#765945" d="M 92.5,108.5 C 93.4916,108.328 94.1583,108.662 94.5,109.5C 95.4617,112.739 96.7951,115.739 98.5,118.5C 98.5394,119.583 98.8728,120.583 99.5,121.5C 115.687,121.647 131.354,124.48 146.5,130C 146.957,130.414 147.291,130.914 147.5,131.5C 146.738,136.667 145.738,141.667 144.5,146.5C 144.5,142.833 144.5,139.167 144.5,135.5C 144.5,134.167 144.5,132.833 144.5,131.5C 113.505,122.103 82.5053,122.269 51.5,132C 48.2961,151.663 47.1294,171.496 48,191.5C 48.2233,193.881 49.39,195.547 51.5,196.5C 52.5,197.167 53.5,197.833 54.5,198.5C 53.6682,218.329 53.1682,238.329 53,258.5C 40.862,262.547 29.0287,267.38 17.5,273C 11.5244,278.71 12.8577,281.71 21.5,282C 33.1667,282.667 44.8333,282.667 56.5,282C 61.4373,282.179 65.7706,280.679 69.5,277.5C 75.9059,283.074 82.9059,283.908 90.5,280C 91.785,277.577 93.6183,275.744 96,274.5C 105.493,278.471 114.993,278.471 124.5,274.5C 125.167,274.833 125.833,275.167 126.5,275.5C 123.405,278.198 123.072,281.032 125.5,284C 135.344,286.299 145.011,285.633 154.5,282C 159.771,279.274 159.771,276.44 154.5,273.5C 157.446,272.679 160.446,272.679 163.5,273.5C 166.963,274.011 170.296,275.011 173.5,276.5C 177.801,279.158 182.135,279.158 186.5,276.5C 187.429,275.311 187.762,273.978 187.5,272.5C 190.203,272.955 192.87,273.622 195.5,274.5C 200.794,273.209 206.128,272.209 211.5,271.5C 212.308,271.808 212.975,272.308 213.5,273C 212.377,274.044 211.044,274.71 209.5,275C 208.273,276.587 208.606,277.921 210.5,279C 217.582,279.884 224.582,279.551 231.5,278C 232.772,275.956 232.439,274.122 230.5,272.5C 235.383,271.809 240.216,271.143 245,270.5C 245.658,268.892 245.158,267.725 243.5,267C 238.917,265.855 234.251,265.189 229.5,265C 224.319,264.169 220.819,261.336 219,256.5C 218.5,234.836 218.333,213.169 218.5,191.5C 218.5,190.833 218.5,190.167 218.5,189.5C 222.909,181.234 220.576,176.401 211.5,175C 193.605,172.393 175.938,173.393 158.5,178C 157.675,188.597 157.008,199.264 156.5,210C 156.382,213.69 157.049,217.19 158.5,220.5C 159.167,221.167 159.833,221.833 160.5,222.5C 160.667,234.171 160.5,245.838 160,257.5C 156.53,259.97 157.03,260.97 161.5,260.5C 159.052,261.473 156.385,261.806 153.5,261.5C 146.934,258.931 141.934,254.598 138.5,248.5C 139.486,216.525 139.819,184.525 139.5,152.5C 140.568,151.566 141.901,151.232 143.5,151.5C 142.369,184.43 141.869,217.43 142,250.5C 145.552,255.02 150.052,257.52 155.5,258C 156.667,257.5 157.5,256.667 158,255.5C 159.7,240.374 158.2,225.707 153.5,211.5C 154.899,199.879 155.899,188.212 156.5,176.5C 164.433,173.747 172.6,172.08 181,171.5C 182.681,171.392 183.848,170.725 184.5,169.5C 185.167,169.5 185.5,169.167 185.5,168.5C 186.458,168.047 187.292,167.381 188,166.5C 188.671,167.252 189.504,167.586 190.5,167.5C 190.5,168.167 190.833,168.5 191.5,168.5C 202.005,170.397 212.672,172.731 223.5,175.5C 223.315,180.607 222.482,185.607 221,190.5C 220.381,212.512 220.715,234.512 222,256.5C 222.785,258.286 223.951,259.786 225.5,261C 232.093,262.726 238.76,264.059 245.5,265C 249.5,267.667 249.5,270.333 245.5,273C 243.863,273.601 242.197,274.101 240.5,274.5C 238.527,273.669 236.527,273.502 234.5,274C 235.519,277.383 234.185,279.717 230.5,281C 224.498,281.759 218.498,282.092 212.5,282C 208.901,281.236 206.901,279.07 206.5,275.5C 201.267,276.441 196.1,276.441 191,275.5C 187.943,278.945 184.11,280.612 179.5,280.5C 173.927,277.909 167.927,276.242 161.5,275.5C 161.683,277.936 161.016,280.103 159.5,282C 153.41,285.262 147.076,287.429 140.5,288.5C 136.833,288.5 133.167,288.5 129.5,288.5C 125.381,287.428 122.381,284.928 120.5,281C 121.902,279.658 121.569,278.824 119.5,278.5C 112.108,280.831 104.775,280.497 97.5,277.5C 94.7624,278.728 92.4291,280.562 90.5,283C 83.1297,286.032 76.1297,285.199 69.5,280.5C 64.2204,283.403 58.5537,284.903 52.5,285C 40.0627,286.009 27.7294,285.343 15.5,283C 9.43485,280.034 9.10151,276.368 14.5,272C 26.5084,266.411 38.6751,261.244 51,256.5C 51.6667,237.5 51.6667,218.5 51,199.5C 45.8148,195.128 43.6481,189.461 44.5,182.5C 45.4152,165.1 46.9152,147.766 49,130.5C 62.1562,126.056 75.6562,123.056 89.5,121.5C 90.1272,120.583 90.4606,119.583 90.5,118.5C 91.4339,115.344 92.1006,112.011 92.5,108.5 Z"/></g>
<g><path style="opacity:1" fill="#865b45" d="M 218.5,189.5 C 218.5,190.167 218.5,190.833 218.5,191.5C 217.206,190.71 216.039,189.71 215,188.5C 214.713,197.154 213.046,205.487 210,213.5C 202.898,216.409 198.565,214.076 197,206.5C 195.918,198.176 194.918,189.843 194,181.5C 190.69,183.663 187.19,183.996 183.5,182.5C 182.671,187.467 182.171,192.467 182,197.5C 180.41,203.42 176.91,204.92 171.5,202C 170.587,199.667 169.087,197.834 167,196.5C 166.667,202.833 166.333,209.167 166,215.5C 165.568,219.072 163.735,221.405 160.5,222.5C 159.833,221.833 159.167,221.167 158.5,220.5C 160.39,220.703 161.89,220.037 163,218.5C 164.33,210.227 164.83,201.893 164.5,193.5C 166.46,194.138 168.293,194.138 170,193.5C 170.923,196.122 172.089,198.622 173.5,201C 175.167,201.667 176.833,201.667 178.5,201C 179.987,193.961 180.987,186.794 181.5,179.5C 183.311,180.739 185.311,181.406 187.5,181.5C 190.512,180.828 193.512,180.161 196.5,179.5C 196.786,189.605 197.953,199.605 200,209.5C 203.907,213.832 207.24,213.499 210,208.5C 211.786,200.263 212.953,191.929 213.5,183.5C 215.19,185.519 216.856,187.519 218.5,189.5 Z"/></g>
<g><path style="opacity:1" fill="#865b45" d="M 118.5,195.5 C 121.05,195.561 122.55,196.894 123,199.5C 124.897,205.005 126.064,210.672 126.5,216.5C 125.743,220.919 123.076,223.253 118.5,223.5C 113.876,222.869 111.876,220.203 112.5,215.5C 113.511,208.472 115.511,201.805 118.5,195.5 Z"/></g>
<g><path style="opacity:1" fill="#e45a3a" d="M 119.5,197.5 C 123.223,204.55 124.557,212.05 123.5,220C 117.984,223.06 114.984,221.56 114.5,215.5C 115.362,209.251 117.029,203.251 119.5,197.5 Z"/></g>
<g><path style="opacity:1" fill="#975a42" d="M 60.5,157.5 C 60.1726,167.681 60.506,177.681 61.5,187.5C 61.9027,193.011 59.5694,196.678 54.5,198.5C 53.5,197.833 52.5,197.167 51.5,196.5C 55.6013,196.57 58.1013,194.57 59,190.5C 59.1695,179.326 59.6695,168.326 60.5,157.5 Z"/></g>
<g><path style="opacity:1" fill="#d56e51" d="M 218.5,191.5 C 218.333,213.169 218.5,234.836 219,256.5C 220.819,261.336 224.319,264.169 229.5,265C 234.251,265.189 238.917,265.855 243.5,267C 245.158,267.725 245.658,268.892 245,270.5C 240.216,271.143 235.383,271.809 230.5,272.5C 232.439,274.122 232.772,275.956 231.5,278C 224.582,279.551 217.582,279.884 210.5,279C 208.606,277.921 208.273,276.587 209.5,275C 211.044,274.71 212.377,274.044 213.5,273C 212.975,272.308 212.308,271.808 211.5,271.5C 206.128,272.209 200.794,273.209 195.5,274.5C 192.87,273.622 190.203,272.955 187.5,272.5C 187.762,273.978 187.429,275.311 186.5,276.5C 182.135,279.158 177.801,279.158 173.5,276.5C 176.352,274.924 179.352,273.424 182.5,272C 183.554,270.612 183.72,269.112 183,267.5C 176.317,263.867 169.15,261.533 161.5,260.5C 157.03,260.97 156.53,259.97 160,257.5C 160.5,245.838 160.667,234.171 160.5,222.5C 163.735,221.405 165.568,219.072 166,215.5C 166.333,209.167 166.667,202.833 167,196.5C 169.087,197.834 170.587,199.667 171.5,202C 176.91,204.92 180.41,203.42 182,197.5C 182.171,192.467 182.671,187.467 183.5,182.5C 187.19,183.996 190.69,183.663 194,181.5C 194.918,189.843 195.918,198.176 197,206.5C 198.565,214.076 202.898,216.409 210,213.5C 213.046,205.487 214.713,197.154 215,188.5C 216.039,189.71 217.206,190.71 218.5,191.5 Z"/></g>
<g><path style="opacity:1" fill="#855c46" d="M 203.5,218.5 C 205.124,218.36 206.29,219.027 207,220.5C 207.852,225.826 208.186,231.16 208,236.5C 202.195,240.014 199.029,238.347 198.5,231.5C 199.191,226.755 200.858,222.422 203.5,218.5 Z"/></g>
<g><path style="opacity:1" fill="#e25a3a" d="M 203.5,221.5 C 204.725,222.152 205.392,223.319 205.5,225C 206.205,228.804 206.538,232.637 206.5,236.5C 200.796,236.854 198.963,234.187 201,228.5C 201.847,226.146 202.68,223.812 203.5,221.5 Z"/></g>
<g><path style="opacity:1" fill="#e75a3a" d="M 218.5,189.5 C 216.856,187.519 215.19,185.519 213.5,183.5C 212.953,191.929 211.786,200.263 210,208.5C 207.24,213.499 203.907,213.832 200,209.5C 197.953,199.605 196.786,189.605 196.5,179.5C 193.512,180.161 190.512,180.828 187.5,181.5C 185.311,181.406 183.311,180.739 181.5,179.5C 180.987,186.794 179.987,193.961 178.5,201C 176.833,201.667 175.167,201.667 173.5,201C 172.089,198.622 170.923,196.122 170,193.5C 168.293,194.138 166.46,194.138 164.5,193.5C 164.83,201.893 164.33,210.227 163,218.5C 161.89,220.037 160.39,220.703 158.5,220.5C 157.049,217.19 156.382,213.69 156.5,210C 157.008,199.264 157.675,188.597 158.5,178C 175.938,173.393 193.605,172.393 211.5,175C 220.576,176.401 222.909,181.234 218.5,189.5 Z"/></g>
<g><path style="opacity:1" fill="#865d48" d="M 161.5,260.5 C 169.15,261.533 176.317,263.867 183,267.5C 183.72,269.112 183.554,270.612 182.5,272C 179.352,273.424 176.352,274.924 173.5,276.5C 170.296,275.011 166.963,274.011 163.5,273.5C 169.369,273.952 175.035,273.119 180.5,271C 181.451,270.282 181.617,269.449 181,268.5C 172.128,264.565 162.962,262.231 153.5,261.5C 156.385,261.806 159.052,261.473 161.5,260.5 Z"/></g>
</svg>
