<?xml version="1.0" encoding="UTF-8" standalone="no"?>
<!DOCTYPE svg PUBLIC "-//W3C//DTD SVG 1.1//EN" "http://www.w3.org/Graphics/SVG/1.1/DTD/svg11.dtd">
<svg xmlns="http://www.w3.org/2000/svg" version="1.1" viewBox="0.00 0.00 282.00 321.00">
<g stroke-width="2.00" fill="none" stroke-linecap="butt">
<path stroke="#516f6f" vector-effect="non-scaling-stroke" d="
  M 94.34 0.72
  Q 93.74 1.15 94.10 1.69
  Q 118.34 37.81 142.54 73.96
  C 142.98 74.62 143.50 74.86 144.19 75.31"
/>
<path stroke="#94aba5" vector-effect="non-scaling-stroke" d="
  M 269.96 148.06
  Q 275.13 152.38 281.54 155.28"
/>
<path stroke="#588a86" vector-effect="non-scaling-stroke" d="
  M 182.47 295.55
  Q 182.82 296.46 183.33 296.69
  Q 183.86 296.93 184.04 296.38
  Q 184.47 295.06 183.18 295.08"
/>
<path stroke="#476363" vector-effect="non-scaling-stroke" d="
  M 183.18 295.08
  L 238.37 219.33
  A 4.12 4.11 58.3 0 0 239.10 216.22
  L 231.66 172.97
  A 0.71 0.71 0.0 0 0 230.38 172.67
  Q 216.01 192.72 201.40 212.79
  Q 200.75 213.68 198.16 217.05
  Q 195.69 220.25 195.28 221.58
  Q 190.83 235.82 186.32 250.18
  Q 186.16 250.66 185.66 250.74
  L 168.33 253.42
  A 1.56 1.55 -6.9 0 0 167.01 255.09
  L 169.24 280.96"
/>
<path stroke="#588a86" vector-effect="non-scaling-stroke" d="
  M 169.24 280.96
  Q 169.73 280.99 169.06 281.35
  A 0.25 0.25 0.0 0 0 168.97 281.72
  L 169.38 282.30"
/>
<path stroke="#476363" vector-effect="non-scaling-stroke" d="
  M 44.47 103.46
  Q 46.70 103.99 48.30 103.33"
/>
<path stroke="#64837e" vector-effect="non-scaling-stroke" d="
  M 48.30 103.33
  Q 53.32 101.72 58.72 102.40
  Q 59.26 102.47 59.42 102.99
  L 69.26 133.71
  A 0.49 0.49 0.0 0 0 70.22 133.51
  L 66.79 98.04
  A 3.29 3.29 0.0 0 1 68.05 95.13
  L 99.46 70.92
  Q 99.92 70.56 99.86 69.98
  L 92.38 2.73
  Q 92.30 2.08 91.83 2.54
  L 71.88 21.92
  A 2.68 2.65 79.8 0 0 71.29 22.78
  L 36.60 103.39
  Q 36.40 103.84 36.87 104.03
  Q 38.10 104.52 39.26 103.86
  A 1.81 1.76 28.2 0 1 40.06 103.63
  L 44.47 103.46"
/>
<path stroke="#458b96" vector-effect="non-scaling-stroke" d="
  M 48.30 103.33
  Q 46.38 102.97 44.47 103.46"
/>
<path stroke="#588a86" vector-effect="non-scaling-stroke" d="
  M 130.33 73.50
  L 141.16 74.86
  A 0.22 0.22 0.0 0 0 141.37 74.52
  L 94.36 4.33
  A 0.23 0.23 0.0 0 0 93.94 4.49
  L 101.30 70.07
  A 0.86 0.86 0.0 0 0 102.06 70.84
  L 123.10 73.50
  Q 123.31 73.53 123.34 73.75
  L 126.23 95.88
  A 0.18 0.18 0.0 0 0 126.58 95.88
  L 129.89 73.84
  Q 129.94 73.45 130.33 73.50"
/>
<path stroke="#64837e" vector-effect="non-scaling-stroke" d="
  M 211.78 52.54
  A 0.31 0.31 0.0 0 0 211.35 52.13
  L 177.89 71.12
  A 0.31 0.31 0.0 0 0 177.78 71.23
  L 153.86 113.03
  A 0.31 0.31 0.0 0 0 154.19 113.49
  L 183.32 108.61
  A 0.31 0.31 0.0 0 0 183.54 108.44
  L 211.78 52.54"
/>
<path stroke="#588a86" vector-effect="non-scaling-stroke" d="
  M 205.30 132.79
  L 223.27 125.11
  Q 223.82 124.87 223.73 124.28
  L 213.85 53.34
  Q 213.67 52.05 213.08 53.21
  L 185.05 108.61
  A 1.05 1.03 -50.3 0 0 185.14 109.70
  L 197.68 126.47
  Q 198.07 126.99 197.95 127.63
  L 190.86 166.75
  A 1.56 1.54 -20.7 0 1 190.54 167.45
  Q 189.92 168.22 190.17 169.15
  Q 190.39 170.02 190.72 169.18
  L 204.58 133.53
  Q 204.79 133.01 205.30 132.79"
/>
<path stroke="#516f6f" vector-effect="non-scaling-stroke" d="
  M 125.79 102.70
  L 122.28 76.20
  Q 122.12 75.02 120.95 74.86
  L 102.03 72.28
  Q 101.51 72.21 101.54 72.73
  L 104.28 118.95
  A 1.81 1.81 0.0 0 0 105.43 120.53
  L 140.62 134.16
  A 0.41 0.41 0.0 0 0 141.16 133.65
  Q 140.84 132.66 140.88 131.38
  Q 141.81 104.22 142.91 77.21
  A 0.74 0.73 4.6 0 0 142.26 76.45
  L 131.78 75.17
  Q 130.89 75.06 130.79 75.95
  Q 129.23 89.39 126.92 102.72
  Q 126.28 106.40 125.79 102.70"
/>
<path stroke="#476363" vector-effect="non-scaling-stroke" d="
  M 110.95 298.70
  L 111.13 298.26
  Q 111.34 297.77 111.15 297.27
  L 68.17 184.18
  A 1.14 1.14 0.0 0 0 67.58 183.56
  Q 66.72 183.18 67.23 182.28
  Q 84.56 151.91 101.88 121.63
  A 7.59 7.54 -32.2 0 0 102.85 117.43
  L 100.05 73.48
  A 0.34 0.34 0.0 0 0 99.50 73.24
  L 68.84 97.63
  A 1.57 1.55 68.1 0 0 68.26 99.02
  L 72.02 136.22
  Q 72.05 136.49 71.95 136.74
  Q 71.57 137.72 72.90 145.20
  Q 72.98 145.68 72.89 146.17
  Q 72.76 146.83 72.64 147.23
  A 0.33 0.33 0.0 0 1 72.01 147.23
  L 58.56 105.08
  Q 58.27 104.18 57.34 104.29
  L 36.95 106.56
  Q 35.32 106.74 35.71 108.33
  L 60.97 211.76
  A 0.67 0.66 9.9 0 0 61.28 212.19
  Q 62.82 213.08 61.91 214.71
  A 0.85 0.85 0.0 0 0 61.83 215.30
  L 76.10 273.68
  Q 76.21 274.16 76.60 274.48
  Q 77.58 275.29 77.01 276.32
  Q 76.76 276.78 76.87 277.30
  L 80.18 291.51"
/>
<path stroke="#476363" vector-effect="non-scaling-stroke" d="
  M 159.85 165.64
  Q 159.85 166.18 160.33 166.58
  A 0.25 0.25 0.0 0 0 160.73 166.48
  L 182.27 111.22
  A 0.54 0.54 0.0 0 0 181.68 110.49
  L 154.53 115.02
  A 2.67 2.67 0.0 0 0 152.34 117.19
  L 149.02 135.86
  Q 148.73 137.50 150.31 138.06
  L 157.75 140.66
  Q 158.41 140.89 158.17 141.54
  L 157.95 142.16
  Q 157.79 142.60 157.81 143.07
  Q 158.27 154.14 159.84 165.09
  Q 159.85 165.16 159.85 165.64"
/>
<path stroke="#476363" vector-effect="non-scaling-stroke" d="
  M 171.41 250.46
  Q 175.49 251.20 179.24 249.35"
/>
<path stroke="#516f6f" vector-effect="non-scaling-stroke" d="
  M 179.24 249.35
  Q 182.57 249.66 185.26 248.06
  Q 185.66 247.82 185.79 247.37
  L 223.17 127.47
  Q 223.47 126.51 222.55 126.91
  L 206.48 133.96
  A 1.43 1.40 -1.8 0 0 205.71 134.76
  L 189.55 176.28
  Q 186.27 184.70 187.88 175.80
  L 196.37 128.83
  A 3.20 3.19 31.6 0 0 195.77 126.33
  L 184.49 111.52
  A 0.39 0.39 0.0 0 0 183.81 111.61
  Q 172.21 140.74 160.98 170.07
  Q 160.15 172.23 160.34 174.56
  Q 163.41 212.79 166.68 250.87
  A 0.61 0.60 68.7 0 0 167.65 251.30
  Q 169.23 250.09 171.41 250.46"
/>
<path stroke="#327787" vector-effect="non-scaling-stroke" d="
  M 179.24 249.35
  L 171.41 250.46"
/>
<path stroke="#588a86" vector-effect="non-scaling-stroke" d="
  M 103.71 163.24
  A 0.31 0.31 0.0 0 0 103.81 163.47
  L 122.11 180.68
  A 0.31 0.31 0.0 0 0 122.56 180.65
  L 155.80 141.91
  A 0.31 0.31 0.0 0 0 155.68 141.42
  L 104.36 121.62
  A 0.31 0.31 0.0 0 0 103.94 121.91
  L 103.71 163.24"
/>
<path stroke="#64837e" vector-effect="non-scaling-stroke" d="
  M 70.73 180.38
  L 101.83 163.95
  Q 102.20 163.76 102.20 163.34
  L 102.53 123.60
  A 0.14 0.14 0.0 0 0 102.26 123.53
  L 70.32 179.95
  A 0.31 0.31 0.0 0 0 70.73 180.38"
/>
<path stroke="#57797a" vector-effect="non-scaling-stroke" d="
  M 169.39 300.53
  L 156.40 144.28
  A 0.32 0.32 0.0 0 0 155.84 144.10
  L 123.27 182.25
  Q 122.99 182.58 123.07 183.01
  L 148.93 318.65"
/>
<path stroke="#64837e" vector-effect="non-scaling-stroke" d="
  M 233.17 169.58
  A 0.46 0.46 0.0 0 0 232.94 170.06
  L 240.45 213.74
  A 0.46 0.46 0.0 0 0 241.31 213.86
  L 266.52 161.74
  A 0.46 0.46 0.0 0 0 266.56 161.59
  L 267.73 150.46
  A 0.46 0.46 0.0 0 0 267.04 150.01
  L 233.17 169.58"
/>
<path stroke="#94aba5" vector-effect="non-scaling-stroke" d="
  M 268.81 160.48
  L 278.46 156.25
  A 0.42 0.42 0.0 0 0 278.52 155.52
  L 270.21 150.12
  Q 269.72 149.80 269.64 150.37
  L 268.74 156.62"
/>
<path stroke="#588a86" vector-effect="non-scaling-stroke" d="
  M 241.68 216.17
  A 0.34 0.34 0.0 0 0 242.06 216.65
  L 269.40 210.38
  A 0.34 0.34 0.0 0 0 269.66 210.11
  L 279.68 157.94
  A 0.34 0.34 0.0 0 0 279.22 157.56
  L 267.88 162.30
  A 0.34 0.34 0.0 0 0 267.70 162.47
  L 241.68 216.17"
/>
<path stroke="#94aba5" vector-effect="non-scaling-stroke" d="
  M 40.98 195.48
  L 25.26 180.81
  A 0.78 0.75 -63.1 0 1 25.04 180.09
  L 26.40 173.83
  A 0.89 0.89 0.0 0 0 25.96 172.86
  L 12.87 165.40
  Q 12.41 165.14 11.95 165.42
  L 2.94 170.96
  Q 2.26 171.38 2.89 171.86
  L 15.52 181.52
  Q 15.98 181.87 16.56 181.79
  L 20.95 181.11
  A 1.13 1.12 59.3 0 1 21.80 181.33
  L 40.77 195.73
  A 0.16 0.16 0.0 0 0 40.98 195.48"
/>
<path stroke="#516f6f" vector-effect="non-scaling-stroke" d="
  M 147.28 319.26
  Q 147.44 319.07 147.53 318.93
  Q 147.62 318.78 147.57 318.55
  Q 134.76 251.32 121.92 184.11
  A 3.97 3.94 16.9 0 0 120.78 181.99
  L 103.91 165.60
  Q 103.50 165.20 102.98 165.46
  L 69.88 182.03
  A 1.33 1.32 -23.9 0 0 69.24 183.68
  L 118.90 314.01"
/>
<path stroke="#64837e" vector-effect="non-scaling-stroke" d="
  M 19.51 238.42
  A 1.11 1.11 0.0 0 0 20.89 239.20
  L 48.55 231.11
  A 0.44 0.43 64.2 0 0 48.78 230.44
  Q 33.90 209.58 19.09 188.57
  Q 15.76 183.84 12.32 180.94
  Q 7.90 177.19 3.02 173.86
  Q 2.24 173.33 2.48 174.23
  L 19.51 238.42"
/>
<path stroke="#588a86" vector-effect="non-scaling-stroke" d="
  M 51.66 204.83
  C 50.70 204.32 49.78 204.01 48.89 203.34
  Q 35.08 193.02 21.20 182.83
  Q 19.84 181.84 17.67 183.22
  Q 17.21 183.51 17.52 183.94
  L 50.22 230.08
  A 0.38 0.37 42.6 0 0 50.85 230.06
  L 59.99 214.99
  A 1.30 1.26 54.1 0 0 60.13 214.02
  L 55.88 196.43
  A 2.25 2.25 0.0 0 0 55.06 195.18
  L 28.28 174.44
  A 0.44 0.44 0.0 0 0 27.58 174.71
  L 26.70 179.47
  A 0.87 0.86 27.8 0 0 26.95 180.26
  Q 38.46 191.57 50.18 202.57
  Q 51.12 203.46 51.95 204.48
  Q 52.68 205.38 51.66 204.83"
/>
<path stroke="#516f6f" vector-effect="non-scaling-stroke" d="
  M 195.31 298.73
  L 268.06 212.79
  Q 268.57 212.18 267.80 212.36
  L 241.38 218.56
  Q 240.29 218.81 239.63 219.71
  Q 212.23 257.22 185.11 294.36
  Q 184.33 295.43 185.89 296.30"
/>
<path stroke="#516f6f" vector-effect="non-scaling-stroke" d="
  M 68.81 252.55
  Q 68.97 252.75 69.13 252.99
  Q 69.22 253.13 69.25 253.13
  Q 69.39 253.13 69.53 253.13
  A 0.12 0.11 83.8 0 0 69.64 252.99
  L 60.87 216.98
  A 0.29 0.29 0.0 0 0 60.34 216.90
  L 52.15 230.93
  A 1.55 1.54 40.0 0 0 52.31 232.72
  Q 60.61 242.50 68.81 252.55"
/>
<path stroke="#476363" vector-effect="non-scaling-stroke" d="
  M 73.09 272.54
  A 0.73 0.73 0.0 0 0 74.18 271.74
  L 70.31 256.26
  A 0.73 0.73 0.0 0 0 70.16 255.97
  L 50.30 232.45
  A 0.73 0.73 0.0 0 0 49.53 232.22
  L 22.13 240.30
  A 0.73 0.73 0.0 0 0 21.96 241.63
  L 73.09 272.54"
/>
<path stroke="#39929e" vector-effect="non-scaling-stroke" d="
  M 183.18 295.08
  L 169.24 280.96"
/>
</g>
<path fill="#665b4b" fill-opacity="0.996" d="
  M 91.42 0.00
  L 93.86 0.00
  Q 93.99 0.42 94.34 0.72
  Q 93.74 1.15 94.10 1.69
  Q 118.34 37.81 142.54 73.96
  C 142.98 74.62 143.50 74.86 144.19 75.31
  L 142.09 134.22
  Q 142.07 134.73 142.54 134.91
  L 146.37 136.39
  A 0.54 0.53 -72.9 0 0 147.08 136.01
  Q 149.21 126.54 150.92 116.98
  Q 151.04 116.34 150.95 115.73
  Q 150.89 115.26 151.13 114.85
  L 176.74 70.30
  Q 177.00 69.85 177.45 69.59
  L 215.33 48.05
  Q 215.80 47.78 215.55 48.27
  Q 214.72 49.90 214.94 51.50
  Q 220.05 87.80 225.17 124.69
  Q 225.27 125.40 225.05 126.09
  L 197.05 215.69
  Q 196.73 216.73 197.37 215.85
  L 231.07 169.47
  Q 231.43 168.97 231.96 168.66
  L 267.14 148.37
  A 1.74 1.62 -83.9 0 0 267.67 147.91
  L 268.09 147.36
  Q 268.41 146.95 268.89 147.16
  Q 269.65 147.51 269.96 148.06
  Q 275.13 152.38 281.54 155.28
  Q 281.73 156.65 281.31 158.58
  Q 280.80 160.87 280.78 160.95
  Q 276.32 185.25 271.73 209.53
  Q 271.52 210.60 269.73 212.74
  Q 233.33 256.08 196.90 299.40
  Q 196.58 299.78 196.37 300.21
  Q 196.14 300.68 195.64 300.53
  L 182.21 296.69
  Q 181.74 296.55 182.03 296.15
  L 182.47 295.55
  Q 182.82 296.46 183.33 296.69
  Q 183.86 296.93 184.04 296.38
  Q 184.47 295.06 183.18 295.08
  L 238.37 219.33
  A 4.12 4.11 58.3 0 0 239.10 216.22
  L 231.66 172.97
  A 0.71 0.71 0.0 0 0 230.38 172.67
  Q 216.01 192.72 201.40 212.79
  Q 200.75 213.68 198.16 217.05
  Q 195.69 220.25 195.28 221.58
  Q 190.83 235.82 186.32 250.18
  Q 186.16 250.66 185.66 250.74
  L 168.33 253.42
  A 1.56 1.55 -6.9 0 0 167.01 255.09
  L 169.24 280.96
  Q 169.73 280.99 169.06 281.35
  A 0.25 0.25 0.0 0 0 168.97 281.72
  L 169.38 282.30
  L 170.95 301.48
  Q 170.98 301.96 170.63 302.28
  L 149.67 321.00
  L 146.72 321.00
  L 118.79 316.26
  Q 118.31 316.18 118.14 315.73
  L 112.87 301.79
  Q 112.63 301.16 111.98 301.01
  L 79.83 293.28
  Q 79.39 293.17 79.29 292.74
  L 75.20 275.81
  A 1.16 1.13 9.4 0 0 74.68 275.10
  L 19.03 241.36
  Q 18.74 241.18 18.65 240.85
  L 0.00 171.46
  L 0.00 170.64
  L 11.85 163.63
  Q 12.23 163.40 12.62 163.63
  Q 17.70 166.58 22.80 169.48
  Q 28.02 172.45 32.54 176.01
  Q 43.55 184.66 54.69 193.15
  Q 55.22 193.56 55.06 192.90
  L 34.38 107.74
  Q 34.28 107.35 33.94 107.14
  Q 33.80 107.05 33.67 106.98
  Q 33.46 106.86 33.56 106.65
  C 34.24 105.19 34.57 103.55 35.15 102.20
  Q 52.22 62.59 69.27 22.97
  Q 70.30 20.57 72.18 18.74
  Q 81.80 9.39 91.42 0.00
  Z
  M 44.47 103.46
  Q 46.70 103.99 48.30 103.33
  Q 53.32 101.72 58.72 102.40
  Q 59.26 102.47 59.42 102.99
  L 69.26 133.71
  A 0.49 0.49 0.0 0 0 70.22 133.51
  L 66.79 98.04
  A 3.29 3.29 0.0 0 1 68.05 95.13
  L 99.46 70.92
  Q 99.92 70.56 99.86 69.98
  L 92.38 2.73
  Q 92.30 2.08 91.83 2.54
  L 71.88 21.92
  A 2.68 2.65 79.8 0 0 71.29 22.78
  L 36.60 103.39
  Q 36.40 103.84 36.87 104.03
  Q 38.10 104.52 39.26 103.86
  A 1.81 1.76 28.2 0 1 40.06 103.63
  L 44.47 103.46
  Z
  M 130.33 73.50
  L 141.16 74.86
  A 0.22 0.22 0.0 0 0 141.37 74.52
  L 94.36 4.33
  A 0.23 0.23 0.0 0 0 93.94 4.49
  L 101.30 70.07
  A 0.86 0.86 0.0 0 0 102.06 70.84
  L 123.10 73.50
  Q 123.31 73.53 123.34 73.75
  L 126.23 95.88
  A 0.18 0.18 0.0 0 0 126.58 95.88
  L 129.89 73.84
  Q 129.94 73.45 130.33 73.50
  Z
  M 211.78 52.54
  A 0.31 0.31 0.0 0 0 211.35 52.13
  L 177.89 71.12
  A 0.31 0.31 0.0 0 0 177.78 71.23
  L 153.86 113.03
  A 0.31 0.31 0.0 0 0 154.19 113.49
  L 183.32 108.61
  A 0.31 0.31 0.0 0 0 183.54 108.44
  L 211.78 52.54
  Z
  M 205.30 132.79
  L 223.27 125.11
  Q 223.82 124.87 223.73 124.28
  L 213.85 53.34
  Q 213.67 52.05 213.08 53.21
  L 185.05 108.61
  A 1.05 1.03 -50.3 0 0 185.14 109.70
  L 197.68 126.47
  Q 198.07 126.99 197.95 127.63
  L 190.86 166.75
  A 1.56 1.54 -20.7 0 1 190.54 167.45
  Q 189.92 168.22 190.17 169.15
  Q 190.39 170.02 190.72 169.18
  L 204.58 133.53
  Q 204.79 133.01 205.30 132.79
  Z
  M 125.79 102.70
  L 122.28 76.20
  Q 122.12 75.02 120.95 74.86
  L 102.03 72.28
  Q 101.51 72.21 101.54 72.73
  L 104.28 118.95
  A 1.81 1.81 0.0 0 0 105.43 120.53
  L 140.62 134.16
  A 0.41 0.41 0.0 0 0 141.16 133.65
  Q 140.84 132.66 140.88 131.38
  Q 141.81 104.22 142.91 77.21
  A 0.74 0.73 4.6 0 0 142.26 76.45
  L 131.78 75.17
  Q 130.89 75.06 130.79 75.95
  Q 129.23 89.39 126.92 102.72
  Q 126.28 106.40 125.79 102.70
  Z
  M 80.18 291.51
  L 111.47 299.53
  Q 111.98 299.66 111.75 299.19
  Q 111.58 298.86 110.95 298.70
  L 111.13 298.26
  Q 111.34 297.77 111.15 297.27
  L 68.17 184.18
  A 1.14 1.14 0.0 0 0 67.58 183.56
  Q 66.72 183.18 67.23 182.28
  Q 84.56 151.91 101.88 121.63
  A 7.59 7.54 -32.2 0 0 102.85 117.43
  L 100.05 73.48
  A 0.34 0.34 0.0 0 0 99.50 73.24
  L 68.84 97.63
  A 1.57 1.55 68.1 0 0 68.26 99.02
  L 72.02 136.22
  Q 72.05 136.49 71.95 136.74
  Q 71.57 137.72 72.90 145.20
  Q 72.98 145.68 72.89 146.17
  Q 72.76 146.83 72.64 147.23
  A 0.33 0.33 0.0 0 1 72.01 147.23
  L 58.56 105.08
  Q 58.27 104.18 57.34 104.29
  L 36.95 106.56
  Q 35.32 106.74 35.71 108.33
  L 60.97 211.76
  A 0.67 0.66 9.9 0 0 61.28 212.19
  Q 62.82 213.08 61.91 214.71
  A 0.85 0.85 0.0 0 0 61.83 215.30
  L 76.10 273.68
  Q 76.21 274.16 76.60 274.48
  Q 77.58 275.29 77.01 276.32
  Q 76.76 276.78 76.87 277.30
  L 80.18 291.51
  Z
  M 159.85 165.64
  Q 159.85 166.18 160.33 166.58
  A 0.25 0.25 0.0 0 0 160.73 166.48
  L 182.27 111.22
  A 0.54 0.54 0.0 0 0 181.68 110.49
  L 154.53 115.02
  A 2.67 2.67 0.0 0 0 152.34 117.19
  L 149.02 135.86
  Q 148.73 137.50 150.31 138.06
  L 157.75 140.66
  Q 158.41 140.89 158.17 141.54
  L 157.95 142.16
  Q 157.79 142.60 157.81 143.07
  Q 158.27 154.14 159.84 165.09
  Q 159.85 165.16 159.85 165.64
  Z
  M 171.41 250.46
  Q 175.49 251.20 179.24 249.35
  Q 182.57 249.66 185.26 248.06
  Q 185.66 247.82 185.79 247.37
  L 223.17 127.47
  Q 223.47 126.51 222.55 126.91
  L 206.48 133.96
  A 1.43 1.40 -1.8 0 0 205.71 134.76
  L 189.55 176.28
  Q 186.27 184.70 187.88 175.80
  L 196.37 128.83
  A 3.20 3.19 31.6 0 0 195.77 126.33
  L 184.49 111.52
  A 0.39 0.39 0.0 0 0 183.81 111.61
  Q 172.21 140.74 160.98 170.07
  Q 160.15 172.23 160.34 174.56
  Q 163.41 212.79 166.68 250.87
  A 0.61 0.60 68.7 0 0 167.65 251.30
  Q 169.23 250.09 171.41 250.46
  Z
  M 103.71 163.24
  A 0.31 0.31 0.0 0 0 103.81 163.47
  L 122.11 180.68
  A 0.31 0.31 0.0 0 0 122.56 180.65
  L 155.80 141.91
  A 0.31 0.31 0.0 0 0 155.68 141.42
  L 104.36 121.62
  A 0.31 0.31 0.0 0 0 103.94 121.91
  L 103.71 163.24
  Z
  M 70.73 180.38
  L 101.83 163.95
  Q 102.20 163.76 102.20 163.34
  L 102.53 123.60
  A 0.14 0.14 0.0 0 0 102.26 123.53
  L 70.32 179.95
  A 0.31 0.31 0.0 0 0 70.73 180.38
  Z
  M 148.93 318.65
  Q 148.88 318.88 148.97 319.19
  A 0.32 0.32 0.0 0 0 149.49 319.33
  Q 158.75 311.06 168.01 302.76
  Q 169.12 301.77 169.39 300.53
  L 156.40 144.28
  A 0.32 0.32 0.0 0 0 155.84 144.10
  L 123.27 182.25
  Q 122.99 182.58 123.07 183.01
  L 148.93 318.65
  Z
  M 233.17 169.58
  A 0.46 0.46 0.0 0 0 232.94 170.06
  L 240.45 213.74
  A 0.46 0.46 0.0 0 0 241.31 213.86
  L 266.52 161.74
  A 0.46 0.46 0.0 0 0 266.56 161.59
  L 267.73 150.46
  A 0.46 0.46 0.0 0 0 267.04 150.01
  L 233.17 169.58
  Z
  M 268.74 156.62
  Q 267.48 159.83 268.81 160.48
  L 278.46 156.25
  A 0.42 0.42 0.0 0 0 278.52 155.52
  L 270.21 150.12
  Q 269.72 149.80 269.64 150.37
  L 268.74 156.62
  Z
  M 241.68 216.17
  A 0.34 0.34 0.0 0 0 242.06 216.65
  L 269.40 210.38
  A 0.34 0.34 0.0 0 0 269.66 210.11
  L 279.68 157.94
  A 0.34 0.34 0.0 0 0 279.22 157.56
  L 267.88 162.30
  A 0.34 0.34 0.0 0 0 267.70 162.47
  L 241.68 216.17
  Z
  M 40.98 195.48
  L 25.26 180.81
  A 0.78 0.75 -63.1 0 1 25.04 180.09
  L 26.40 173.83
  A 0.89 0.89 0.0 0 0 25.96 172.86
  L 12.87 165.40
  Q 12.41 165.14 11.95 165.42
  L 2.94 170.96
  Q 2.26 171.38 2.89 171.86
  L 15.52 181.52
  Q 15.98 181.87 16.56 181.79
  L 20.95 181.11
  A 1.13 1.12 59.3 0 1 21.80 181.33
  L 40.77 195.73
  A 0.16 0.16 0.0 0 0 40.98 195.48
  Z
  M 118.90 314.01
  Q 118.80 314.36 119.35 314.83
  Q 119.66 315.10 120.16 315.19
  Q 132.71 317.63 147.08 320.01
  A 0.56 0.55 -85.2 0 0 147.72 319.46
  Q 147.72 319.17 147.28 319.26
  Q 147.44 319.07 147.53 318.93
  Q 147.62 318.78 147.57 318.55
  Q 134.76 251.32 121.92 184.11
  A 3.97 3.94 16.9 0 0 120.78 181.99
  L 103.91 165.60
  Q 103.50 165.20 102.98 165.46
  L 69.88 182.03
  A 1.33 1.32 -23.9 0 0 69.24 183.68
  L 118.90 314.01
  Z
  M 19.51 238.42
  A 1.11 1.11 0.0 0 0 20.89 239.20
  L 48.55 231.11
  A 0.44 0.43 64.2 0 0 48.78 230.44
  Q 33.90 209.58 19.09 188.57
  Q 15.76 183.84 12.32 180.94
  Q 7.90 177.19 3.02 173.86
  Q 2.24 173.33 2.48 174.23
  L 19.51 238.42
  Z
  M 51.66 204.83
  C 50.70 204.32 49.78 204.01 48.89 203.34
  Q 35.08 193.02 21.20 182.83
  Q 19.84 181.84 17.67 183.22
  Q 17.21 183.51 17.52 183.94
  L 50.22 230.08
  A 0.38 0.37 42.6 0 0 50.85 230.06
  L 59.99 214.99
  A 1.30 1.26 54.1 0 0 60.13 214.02
  L 55.88 196.43
  A 2.25 2.25 0.0 0 0 55.06 195.18
  L 28.28 174.44
  A 0.44 0.44 0.0 0 0 27.58 174.71
  L 26.70 179.47
  A 0.87 0.86 27.8 0 0 26.95 180.26
  Q 38.46 191.57 50.18 202.57
  Q 51.12 203.46 51.95 204.48
  Q 52.68 205.38 51.66 204.83
  Z
  M 185.89 296.30
  Q 190.42 298.35 195.31 298.73
  L 268.06 212.79
  Q 268.57 212.18 267.80 212.36
  L 241.38 218.56
  Q 240.29 218.81 239.63 219.71
  Q 212.23 257.22 185.11 294.36
  Q 184.33 295.43 185.89 296.30
  Z
  M 68.81 252.55
  Q 68.97 252.75 69.13 252.99
  Q 69.22 253.13 69.25 253.13
  Q 69.39 253.13 69.53 253.13
  A 0.12 0.11 83.8 0 0 69.64 252.99
  L 60.87 216.98
  A 0.29 0.29 0.0 0 0 60.34 216.90
  L 52.15 230.93
  A 1.55 1.54 40.0 0 0 52.31 232.72
  Q 60.61 242.50 68.81 252.55
  Z
  M 73.09 272.54
  A 0.73 0.73 0.0 0 0 74.18 271.74
  L 70.31 256.26
  A 0.73 0.73 0.0 0 0 70.16 255.97
  L 50.30 232.45
  A 0.73 0.73 0.0 0 0 49.53 232.22
  L 22.13 240.30
  A 0.73 0.73 0.0 0 0 21.96 241.63
  L 73.09 272.54
  Z"
/>
<path fill="#3c8393" d="
  M 94.34 0.72
  L 144.19 75.31
  C 143.50 74.86 142.98 74.62 142.54 73.96
  Q 118.34 37.81 94.10 1.69
  Q 93.74 1.15 94.34 0.72
  Z"
/>
<path fill="#62abb1" d="
  M 48.30 103.33
  Q 46.38 102.97 44.47 103.46
  L 40.06 103.63
  A 1.81 1.76 28.2 0 0 39.26 103.86
  Q 38.10 104.52 36.87 104.03
  Q 36.40 103.84 36.60 103.39
  L 71.29 22.78
  A 2.68 2.65 79.8 0 1 71.88 21.92
  L 91.83 2.54
  Q 92.30 2.08 92.38 2.73
  L 99.86 69.98
  Q 99.92 70.56 99.46 70.92
  L 68.05 95.13
  A 3.29 3.29 0.0 0 0 66.79 98.04
  L 70.22 133.51
  A 0.49 0.49 0.0 0 1 69.26 133.71
  L 59.42 102.99
  Q 59.26 102.47 58.72 102.40
  Q 53.32 101.72 48.30 103.33
  Z"
/>
<path fill="#4ab8c1" d="
  M 129.89 73.84
  L 126.58 95.88
  A 0.18 0.18 0.0 0 1 126.23 95.88
  L 123.34 73.75
  Q 123.31 73.53 123.10 73.50
  L 102.06 70.84
  A 0.86 0.86 0.0 0 1 101.30 70.07
  L 93.94 4.49
  A 0.23 0.23 0.0 0 1 94.36 4.33
  L 141.37 74.52
  A 0.22 0.22 0.0 0 1 141.16 74.86
  L 130.33 73.50
  Q 129.94 73.45 129.89 73.84
  Z"
/>
<path fill="#62abb1" d="
  M 211.78 52.54
  L 183.54 108.44
  A 0.31 0.31 0.0 0 1 183.32 108.61
  L 154.19 113.49
  A 0.31 0.31 0.0 0 1 153.86 113.03
  L 177.78 71.23
  A 0.31 0.31 0.0 0 1 177.89 71.12
  L 211.35 52.13
  A 0.31 0.31 0.0 0 1 211.78 52.54
  Z"
/>
<path fill="#4ab8c1" d="
  M 204.58 133.53
  L 190.72 169.18
  Q 190.39 170.02 190.17 169.15
  Q 189.92 168.22 190.54 167.45
  A 1.56 1.54 -20.7 0 0 190.86 166.75
  L 197.95 127.63
  Q 198.07 126.99 197.68 126.47
  L 185.14 109.70
  A 1.05 1.03 -50.3 0 1 185.05 108.61
  L 213.08 53.21
  Q 213.67 52.05 213.85 53.34
  L 223.73 124.28
  Q 223.82 124.87 223.27 125.11
  L 205.30 132.79
  Q 204.79 133.01 204.58 133.53
  Z"
/>
<path fill="#3c8393" d="
  M 125.79 102.70
  Q 126.28 106.40 126.92 102.72
  Q 129.23 89.39 130.79 75.95
  Q 130.89 75.06 131.78 75.17
  L 142.26 76.45
  A 0.74 0.73 4.6 0 1 142.91 77.21
  Q 141.81 104.22 140.88 131.38
  Q 140.84 132.66 141.16 133.65
  A 0.41 0.41 0.0 0 1 140.62 134.16
  L 105.43 120.53
  A 1.81 1.81 0.0 0 1 104.28 118.95
  L 101.54 72.73
  Q 101.51 72.21 102.03 72.28
  L 120.95 74.86
  Q 122.12 75.02 122.28 76.20
  L 125.79 102.70
  Z"
/>
<path fill="#286b7a" d="
  M 110.95 298.70
  L 80.18 291.51
  L 76.87 277.30
  Q 76.76 276.78 77.01 276.32
  Q 77.58 275.29 76.60 274.48
  Q 76.21 274.16 76.10 273.68
  L 61.83 215.30
  A 0.85 0.85 0.0 0 1 61.91 214.71
  Q 62.82 213.08 61.28 212.19
  A 0.67 0.66 9.9 0 1 60.97 211.76
  L 35.71 108.33
  Q 35.32 106.74 36.95 106.56
  L 57.34 104.29
  Q 58.27 104.18 58.56 105.08
  L 72.01 147.23
  A 0.33 0.33 0.0 0 0 72.64 147.23
  Q 72.76 146.83 72.89 146.17
  Q 72.98 145.68 72.90 145.20
  Q 71.57 137.72 71.95 136.74
  Q 72.05 136.49 72.02 136.22
  L 68.26 99.02
  A 1.57 1.55 68.1 0 1 68.84 97.63
  L 99.50 73.24
  A 0.34 0.34 0.0 0 1 100.05 73.48
  L 102.85 117.43
  A 7.59 7.54 -32.2 0 1 101.88 121.63
  Q 84.56 151.91 67.23 182.28
  Q 66.72 183.18 67.58 183.56
  A 1.14 1.14 0.0 0 1 68.17 184.18
  L 111.15 297.27
  Q 111.34 297.77 111.13 298.26
  L 110.95 298.70
  Z"
/>
<path fill="#286b7a" d="
  M 48.30 103.33
  Q 46.70 103.99 44.47 103.46
  Q 46.38 102.97 48.30 103.33
  Z"
/>
<path fill="#286b7a" d="
  M 159.84 165.09
  Q 158.27 154.14 157.81 143.07
  Q 157.79 142.60 157.95 142.16
  L 158.17 141.54
  Q 158.41 140.89 157.75 140.66
  L 150.31 138.06
  Q 148.73 137.50 149.02 135.86
  L 152.34 117.19
  A 2.67 2.67 0.0 0 1 154.53 115.02
  L 181.68 110.49
  A 0.54 0.54 0.0 0 1 182.27 111.22
  L 160.73 166.48
  A 0.25 0.25 0.0 0 1 160.33 166.58
  Q 159.85 166.18 159.85 165.64
  Q 159.85 165.16 159.84 165.09
  Z"
/>
<path fill="#3c8393" d="
  M 179.24 249.35
  L 171.41 250.46
  Q 169.23 250.09 167.65 251.30
  A 0.61 0.60 68.7 0 1 166.68 250.87
  Q 163.41 212.79 160.34 174.56
  Q 160.15 172.23 160.98 170.07
  Q 172.21 140.74 183.81 111.61
  A 0.39 0.39 0.0 0 1 184.49 111.52
  L 195.77 126.33
  A 3.20 3.19 31.6 0 1 196.37 128.83
  L 187.88 175.80
  Q 186.27 184.70 189.55 176.28
  L 205.71 134.76
  A 1.43 1.40 -1.8 0 1 206.48 133.96
  L 222.55 126.91
  Q 223.47 126.51 223.17 127.47
  L 185.79 247.37
  Q 185.66 247.82 185.26 248.06
  Q 182.57 249.66 179.24 249.35
  Z"
/>
<path fill="#4ab8c1" d="
  M 103.71 163.24
  L 103.94 121.91
  A 0.31 0.31 0.0 0 1 104.36 121.62
  L 155.68 141.42
  A 0.31 0.31 0.0 0 1 155.80 141.91
  L 122.56 180.65
  A 0.31 0.31 0.0 0 1 122.11 180.68
  L 103.81 163.47
  A 0.31 0.31 0.0 0 1 103.71 163.24
  Z"
/>
<path fill="#62abb1" d="
  M 101.83 163.95
  L 70.73 180.38
  A 0.31 0.31 0.0 0 1 70.32 179.95
  L 102.26 123.53
  A 0.14 0.14 0.0 0 1 102.53 123.60
  L 102.20 163.34
  Q 102.20 163.76 101.83 163.95
  Z"
/>
<path fill="#4997a8" d="
  M 169.39 300.53
  L 148.93 318.65
  L 123.07 183.01
  Q 122.99 182.58 123.27 182.25
  L 155.84 144.10
  A 0.32 0.32 0.0 0 1 156.40 144.28
  L 169.39 300.53
  Z"
/>
<path fill="#c1fbff" d="
  M 269.96 148.06
  Q 276.02 150.99 281.54 155.28
  Q 275.13 152.38 269.96 148.06
  Z"
/>
<path fill="#62abb1" d="
  M 233.17 169.58
  L 267.04 150.01
  A 0.46 0.46 0.0 0 1 267.73 150.46
  L 266.56 161.59
  A 0.46 0.46 0.0 0 1 266.52 161.74
  L 241.31 213.86
  A 0.46 0.46 0.0 0 1 240.45 213.74
  L 232.94 170.06
  A 0.46 0.46 0.0 0 1 233.17 169.58
  Z"
/>
<path fill="#c1fbff" d="
  M 268.81 160.48
  L 268.74 156.62
  L 269.64 150.37
  Q 269.72 149.80 270.21 150.12
  L 278.52 155.52
  A 0.42 0.42 0.0 0 1 278.46 156.25
  L 268.81 160.48
  Z"
/>
<path fill="#4ab8c1" d="
  M 241.68 216.17
  L 267.70 162.47
  A 0.34 0.34 0.0 0 1 267.88 162.30
  L 279.22 157.56
  A 0.34 0.34 0.0 0 1 279.68 157.94
  L 269.66 210.11
  A 0.34 0.34 0.0 0 1 269.40 210.38
  L 242.06 216.65
  A 0.34 0.34 0.0 0 1 241.68 216.17
  Z"
/>
<path fill="#c1fbff" d="
  M 25.26 180.81
  L 40.98 195.48
  A 0.16 0.16 0.0 0 1 40.77 195.73
  L 21.80 181.33
  A 1.13 1.12 59.3 0 0 20.95 181.11
  L 16.56 181.79
  Q 15.98 181.87 15.52 181.52
  L 2.89 171.86
  Q 2.26 171.38 2.94 170.96
  L 11.95 165.42
  Q 12.41 165.14 12.87 165.40
  L 25.96 172.86
  A 0.89 0.89 0.0 0 1 26.40 173.83
  L 25.04 180.09
  A 0.78 0.75 -63.1 0 0 25.26 180.81
  Z"
/>
<path fill="#3c8393" d="
  M 147.28 319.26
  L 118.90 314.01
  L 69.24 183.68
  A 1.33 1.32 -23.9 0 1 69.88 182.03
  L 102.98 165.46
  Q 103.50 165.20 103.91 165.60
  L 120.78 181.99
  A 3.97 3.94 16.9 0 1 121.92 184.11
  Q 134.76 251.32 147.57 318.55
  Q 147.62 318.78 147.53 318.93
  Q 147.44 319.07 147.28 319.26
  Z"
/>
<path fill="#286b7a" d="
  M 183.18 295.08
  L 169.24 280.96
  L 167.01 255.09
  A 1.56 1.55 -6.9 0 1 168.33 253.42
  L 185.66 250.74
  Q 186.16 250.66 186.32 250.18
  Q 190.83 235.82 195.28 221.58
  Q 195.69 220.25 198.16 217.05
  Q 200.75 213.68 201.40 212.79
  Q 216.01 192.72 230.38 172.67
  A 0.71 0.71 0.0 0 1 231.66 172.97
  L 239.10 216.22
  A 4.12 4.11 58.3 0 1 238.37 219.33
  L 183.18 295.08
  Z"
/>
<path fill="#62abb1" d="
  M 19.51 238.42
  L 2.48 174.23
  Q 2.24 173.33 3.02 173.86
  Q 7.90 177.19 12.32 180.94
  Q 15.76 183.84 19.09 188.57
  Q 33.90 209.58 48.78 230.44
  A 0.44 0.43 64.2 0 1 48.55 231.11
  L 20.89 239.20
  A 1.11 1.11 0.0 0 1 19.51 238.42
  Z"
/>
<path fill="#4ab8c1" d="
  M 51.95 204.48
  Q 51.12 203.46 50.18 202.57
  Q 38.46 191.57 26.95 180.26
  A 0.87 0.86 27.8 0 1 26.70 179.47
  L 27.58 174.71
  A 0.44 0.44 0.0 0 1 28.28 174.44
  L 55.06 195.18
  A 2.25 2.25 0.0 0 1 55.88 196.43
  L 60.13 214.02
  A 1.30 1.26 54.1 0 1 59.99 214.99
  L 50.85 230.06
  A 0.38 0.37 42.6 0 1 50.22 230.08
  L 17.52 183.94
  Q 17.21 183.51 17.67 183.22
  Q 19.84 181.84 21.20 182.83
  Q 35.08 193.02 48.89 203.34
  C 49.78 204.01 50.70 204.32 51.66 204.83
  Q 52.68 205.38 51.95 204.48
  Z"
/>
<path fill="#3c8393" d="
  M 195.31 298.73
  L 185.89 296.30
  Q 184.33 295.43 185.11 294.36
  Q 212.23 257.22 239.63 219.71
  Q 240.29 218.81 241.38 218.56
  L 267.80 212.36
  Q 268.57 212.18 268.06 212.79
  L 195.31 298.73
  Z"
/>
<path fill="#3c8393" d="
  M 68.81 252.55
  Q 60.61 242.50 52.31 232.72
  A 1.55 1.54 40.0 0 1 52.15 230.93
  L 60.34 216.90
  A 0.29 0.29 0.0 0 1 60.87 216.98
  L 69.64 252.99
  A 0.12 0.11 83.8 0 1 69.53 253.13
  Q 69.39 253.13 69.25 253.13
  Q 69.22 253.13 69.13 252.99
  Q 68.97 252.75 68.81 252.55
  Z"
/>
<path fill="#286b7a" d="
  M 73.09 272.54
  L 21.96 241.63
  A 0.73 0.73 0.0 0 1 22.13 240.30
  L 49.53 232.22
  A 0.73 0.73 0.0 0 1 50.30 232.45
  L 70.16 255.97
  A 0.73 0.73 0.0 0 1 70.31 256.26
  L 74.18 271.74
  A 0.73 0.73 0.0 0 1 73.09 272.54
  Z"
/>
<path fill="#286b7a" d="
  M 179.24 249.35
  Q 175.49 251.20 171.41 250.46
  L 179.24 249.35
  Z"
/>
<path fill="#4ab8c1" d="
  M 169.24 280.96
  L 183.18 295.08
  Q 184.47 295.06 184.04 296.38
  Q 183.86 296.93 183.33 296.69
  Q 182.82 296.46 182.47 295.55
  L 169.38 282.30
  L 168.97 281.72
  A 0.25 0.25 0.0 0 1 169.06 281.35
  Q 169.73 280.99 169.24 280.96
  Z"
/>
</svg>
