<?xml version="1.0" encoding="UTF-8" standalone="no"?>
<!DOCTYPE svg PUBLIC "-//W3C//DTD SVG 1.1//EN" "http://www.w3.org/Graphics/SVG/1.1/DTD/svg11.dtd">
<svg xmlns="http://www.w3.org/2000/svg" version="1.1" viewBox="0.00 0.00 1086.00 1931.00">
<path fill="#f0e1c1" d="
  M 1086.00 549.84
  L 1086.00 1931.00
  L 0.70 1931.00
  Q 0.70 1549.88 0.70 1168.75
  Q 0.70 1167.88 0.00 1166.66
  L 0.00 538.99
  C 10.75 547.39 21.62 555.88 34.01 561.77
  C 38.04 563.69 41.42 563.55 46.37 563.20
  C 74.85 561.16 93.93 539.85 114.14 522.68
  Q 150.10 492.14 194.16 504.66
  C 221.17 512.34 245.39 532.40 266.05 548.42
  C 272.21 553.20 286.57 563.63 294.06 563.39
  C 324.77 562.42 344.63 539.69 366.71 521.44
  C 395.12 497.96 427.99 495.40 460.86 510.75
  C 481.95 520.60 500.24 535.81 518.67 549.84
  C 524.75 554.47 537.08 563.22 544.75 563.35
  C 564.83 563.71 580.73 555.07 595.55 542.27
  Q 608.30 531.27 621.38 520.65
  C 633.27 510.98 647.21 504.04 662.39 501.82
  C 695.50 496.98 725.71 514.09 750.82 533.71
  Q 767.97 547.11 780.77 555.74
  C 784.34 558.15 792.98 563.49 797.90 563.09
  C 813.55 561.81 827.67 554.22 839.81 543.79
  Q 853.45 532.06 867.37 520.65
  Q 896.85 496.48 933.46 502.17
  C 964.16 506.93 990.59 528.18 1014.18 546.84
  C 1020.66 551.96 1035.90 563.17 1044.08 563.34
  Q 1062.80 563.74 1078.84 554.06
  Q 1082.42 551.90 1086.00 549.84
  Z"
/>
</svg>
