<?xml version="1.0" encoding="UTF-8" standalone="no"?>
<!DOCTYPE svg PUBLIC "-//W3C//DTD SVG 1.1//EN" "http://www.w3.org/Graphics/SVG/1.1/DTD/svg11.dtd">
<svg xmlns="http://www.w3.org/2000/svg" version="1.1" viewBox="0.00 0.00 729.00 958.00">
<g stroke-width="2.00" fill="none" stroke-linecap="butt">
<path stroke="#a6a9b0" vector-effect="non-scaling-stroke" d="
  M 501.31 657.97
  C 496.15 678.87 484.59 694.78 463.41 701.08
  Q 453.42 704.05 443.42 707.22
  Q 442.65 707.46 443.41 707.73
  C 452.85 711.15 464.17 714.52 471.87 718.90
  C 493.73 731.35 498.67 751.05 505.49 773.59
  A 0.32 0.32 0.0 0 0 506.10 773.60
  C 511.87 755.59 516.57 738.53 531.14 724.70"
/>
<path stroke="#545a67" vector-effect="non-scaling-stroke" d="
  M 377.07 830.92
  L 370.05 833.25
  A 0.56 0.56 0.0 0 1 369.32 832.78
  L 367.42 815.81
  Q 367.33 815.05 366.57 815.06
  L 347.81 815.29
  A 2.54 2.53 0.6 0 0 345.30 817.74
  L 345.13 822.34"
/>
<path stroke="#545a67" vector-effect="non-scaling-stroke" d="
  M 327.79 815.62
  Q 325.34 814.70 323.74 814.77
  Q 315.11 815.17 307.20 815.36
  A 1.46 1.44 -86.8 0 0 305.79 816.63
  L 303.73 832.86
  A 0.45 0.45 0.0 0 1 303.06 833.19
  Q 299.70 831.25 295.19 831.49"
/>
<path stroke="#a3895c" vector-effect="non-scaling-stroke" d="
  M 230.55 804.95
  L 226.10 769.74
  Q 226.04 769.27 226.51 769.33
  L 290.31 778.60
  Q 290.97 778.70 290.59 778.15
  L 279.85 762.80
  Q 279.51 762.32 278.92 762.31
  L 276.32 762.29
  Q 275.71 762.28 275.62 762.88
  Q 274.91 767.44 272.77 771.52
  Q 272.54 771.96 272.06 772.05
  Q 265.59 773.34 259.61 770.81
  C 255.25 768.97 256.55 763.83 256.94 760.20
  Q 256.99 759.78 256.57 759.71
  L 244.88 757.69
  A 2.84 2.83 4.3 0 1 242.53 754.96
  C 242.40 749.61 241.82 743.29 245.73 738.96
  Q 252.38 731.60 262.12 725.18
  C 267.88 721.39 271.61 724.03 277.19 722.19
  Q 297.22 715.60 317.26 708.84
  Q 318.18 708.53 317.28 708.18
  L 311.06 705.74
  A 1.04 1.04 0.0 0 0 310.11 705.83
  Q 304.06 709.68 300.73 710.08
  Q 278.53 712.74 270.66 692.79
  A 2.21 2.20 38.0 0 1 270.53 691.76
  Q 270.68 690.59 270.20 689.51
  A 0.30 0.30 0.0 0 0 269.64 689.57
  C 265.60 707.34 239.83 706.46 231.82 692.45
  Q 231.34 691.60 231.36 692.58
  C 231.43 695.40 231.53 698.16 227.75 698.28
  Q 220.98 698.49 215.35 697.37
  C 211.70 696.65 211.73 691.15 211.25 688.38
  A 2.15 2.14 88.2 0 0 209.38 686.62
  L 204.10 686.00
  A 0.88 0.88 0.0 0 0 203.28 686.37
  C 201.72 688.60 198.84 694.03 196.00 694.08
  Q 193.49 694.12 186.84 692.23
  C 184.79 691.65 183.17 690.19 183.74 688.02
  Q 188.72 669.12 199.98 650.14
  C 203.03 645.00 215.18 646.61 219.61 648.41
  C 224.28 650.30 224.61 653.95 225.70 658.47
  Q 228.51 670.19 229.83 682.43
  Q 229.99 683.88 231.00 682.82
  Q 233.88 679.79 238.57 680.91
  Q 239.21 681.06 238.73 680.62
  Q 233.58 675.82 233.22 670.23
  C 232.33 656.39 245.78 649.58 257.78 653.01
  Q 267.65 655.83 269.89 665.44
  C 271.30 671.47 261.95 672.08 258.22 670.99
  Q 258.12 670.96 258.12 671.06
  L 258.12 671.36
  Q 258.12 671.52 258.27 671.57
  Q 265.30 674.08 268.52 680.82
  Q 268.85 681.49 269.18 680.82
  C 271.82 675.49 274.25 669.35 280.10 665.11
  Q 282.80 663.16 284.34 661.25
  Q 294.74 648.34 304.87 635.39
  A 0.23 0.23 0.0 0 0 304.66 635.02
  L 249.72 642.51
  Q 249.09 642.60 249.17 641.97
  L 257.71 577.74
  Q 257.81 577.00 257.22 577.46
  L 213.00 611.81
  Q 212.48 612.22 212.24 611.61
  L 191.56 558.75"
/>
<path stroke="#a6a9b0" vector-effect="non-scaling-stroke" d="
  M 171.17 271.32
  C 181.37 283.71 184.58 298.48 189.57 313.40
  Q 189.82 314.14 190.08 313.40
  Q 193.52 303.60 196.79 293.77
  Q 206.14 265.68 232.79 253.08
  Q 240.69 249.35 248.34 245.65
  A 0.38 0.37 41.8 0 0 248.30 244.96
  L 223.87 236.39"
/>
<path stroke="#ac8849" vector-effect="non-scaling-stroke" d="
  M 54.81 736.96
  Q 71.27 741.82 88.52 743.20
  C 94.05 743.64 93.98 734.89 93.29 731.02
  C 92.71 727.71 92.01 726.84 88.51 726.42
  Q 84.97 725.99 81.48 725.63
  A 0.13 0.13 0.0 0 1 81.46 725.37
  C 84.59 724.44 88.07 724.53 90.70 723.10
  C 97.85 719.22 99.27 709.94 96.23 703.06
  C 91.69 692.75 78.41 688.64 68.53 694.43
  Q 66.95 695.35 65.44 696.10"
/>
<path stroke="#ac8849" vector-effect="non-scaling-stroke" d="
  M 62.35 666.48
  C 63.33 668.10 63.44 671.71 65.50 672.21
  C 68.89 673.03 77.70 674.58 81.14 672.57
  Q 81.61 672.30 81.71 672.84
  Q 82.04 674.75 84.01 675.21
  Q 88.92 676.35 93.92 676.96
  C 97.28 677.37 100.58 676.99 100.35 672.80
  A 0.70 0.69 -71.5 0 1 101.49 672.23
  C 103.97 674.32 109.21 679.41 112.32 679.72
  C 115.88 680.08 121.31 673.59 123.09 670.84
  Q 123.59 670.06 123.49 670.98
  C 123.05 674.78 120.90 680.96 126.64 682.26
  Q 130.85 683.22 135.15 683.73
  C 137.69 684.03 139.17 684.72 140.44 681.77
  Q 142.61 676.76 143.65 671.20
  Q 143.80 670.39 144.26 671.08
  C 146.24 674.08 150.47 681.84 154.56 680.42
  Q 157.17 679.51 164.10 674.06
  Q 164.81 673.50 164.68 674.39
  Q 163.82 680.30 163.98 684.74
  C 164.14 688.89 166.81 688.87 170.59 689.63
  Q 175.40 690.60 179.97 690.23
  A 2.05 2.04 5.4 0 0 181.79 688.73
  Q 187.54 668.08 188.92 646.24
  C 189.26 640.95 175.28 640.47 171.72 640.72
  C 168.05 640.98 160.09 650.18 157.57 653.03
  Q 157.25 653.39 157.07 652.94
  Q 154.02 645.06 149.59 637.84
  A 1.85 1.83 -1.7 0 0 148.85 637.15
  Q 141.26 633.30 132.70 633.94
  C 130.69 634.09 129.57 635.46 129.13 637.24
  Q 125.67 651.30 123.67 667.89
  Q 123.64 668.13 123.51 667.93
  L 118.47 660.27
  Q 118.18 659.83 118.50 659.41
  Q 123.89 652.26 122.55 643.92
  C 120.05 628.34 100.41 624.45 87.98 627.84
  Q 87.47 627.97 87.20 628.43
  C 84.76 632.50 84.24 640.27 83.49 645.12"
/>
<path stroke="#ac8849" vector-effect="non-scaling-stroke" d="
  M 77.71 637.63
  Q 77.35 635.35 76.67 632.85
  Q 75.55 628.67 75.34 628.15
  Q 73.21 622.79 65.84 622.13"
/>
<path stroke="#9f9a91" vector-effect="non-scaling-stroke" d="
  M 295.42 419.74
  Q 310.86 427.85 326.47 435.69
  Q 328.80 436.86 331.32 436.97
  Q 336.53 437.18 341.75 436.99
  Q 344.20 436.90 346.49 435.73
  Q 377.35 419.94 408.26 404.20
  A 1.72 1.72 0.0 0 0 408.95 403.54
  Q 421.53 380.83 434.10 358.07
  Q 435.09 356.28 435.09 354.23
  Q 435.08 333.29 435.40 312.52
  A 0.63 0.63 0.0 0 0 434.53 311.92
  L 331.23 353.93
  A 1.39 1.38 43.7 0 1 330.24 353.95
  L 238.77 321.44
  Q 237.65 321.04 237.63 322.22
  Q 237.43 338.01 237.99 354.28
  Q 238.06 356.48 239.14 358.42
  Q 251.55 380.82 263.82 403.27
  Q 264.06 403.71 264.50 403.95
  Q 272.08 407.92 279.73 411.74
  Q 288.77 416.25 295.42 419.74"
/>
<path stroke="#9f9a91" vector-effect="non-scaling-stroke" d="
  M 472.80 518.26
  Q 473.17 526.30 474.09 534.36
  A 2.01 2.00 86.9 0 0 476.07 536.14
  Q 485.86 536.20 492.23 529.95
  C 502.40 520.00 508.13 505.01 511.18 491.47
  A 0.25 0.25 0.0 0 1 511.67 491.46
  C 514.69 502.70 519.66 511.87 531.75 515.25
  Q 539.92 517.54 550.70 514.47
  Q 553.81 513.59 557.02 512.55
  Q 557.53 512.39 557.78 512.86
  C 567.28 530.63 583.31 525.32 593.81 512.84
  A 0.71 0.70 -43.4 0 1 594.91 512.87
  Q 615.33 539.27 648.77 530.49
  Q 650.68 529.99 657.02 527.53
  A 1.80 1.78 -49.4 0 1 658.00 527.45
  C 669.92 529.95 708.51 536.61 708.19 514.50
  C 707.76 484.78 677.79 483.92 657.22 490.92
  Q 656.73 491.08 656.50 490.61
  C 644.93 466.52 624.73 456.28 598.34 463.52
  Q 597.81 463.66 597.51 463.20
  Q 587.02 446.86 568.66 454.78
  Q 568.18 454.99 567.85 454.59
  Q 549.72 432.67 521.66 441.60
  Q 521.16 441.76 520.75 441.44
  C 504.13 428.57 483.85 418.22 462.27 419.13
  C 438.40 420.14 417.37 435.17 404.08 454.32
  A 0.66 0.66 0.0 0 0 404.42 455.32
  Q 420.66 460.39 437.04 465.64
  Q 440.23 466.66 443.59 466.67
  Q 455.73 466.70 467.91 466.71
  A 0.59 0.58 87.8 0 1 468.48 467.24
  Q 470.87 492.72 472.67 518.25
  Q 472.68 518.34 472.71 518.29
  Q 472.73 518.26 472.77 518.22
  A 0.03 0.02 79.9 0 1 472.80 518.26"
/>
<path stroke="#9f9a91" vector-effect="non-scaling-stroke" d="
  M 340.98 442.50
  L 371.69 435.42
  Q 372.34 435.27 372.34 434.59
  L 372.27 424.61
  A 0.51 0.50 -13.9 0 0 371.53 424.17
  Q 358.93 430.69 346.24 437.19
  Q 344.25 438.21 342.03 438.22
  Q 336.48 438.23 330.91 438.19
  Q 328.61 438.17 326.57 437.12
  Q 314.13 430.68 301.34 424.13
  A 0.43 0.43 0.0 0 0 300.71 424.51
  L 300.74 434.19
  A 1.51 1.51 0.0 0 0 301.91 435.65
  L 331.96 442.55
  Q 332.45 442.66 332.73 443.07
  L 336.15 448.10
  A 0.41 0.40 44.7 0 0 336.82 448.10
  L 340.08 443.12
  A 1.47 1.44 9.8 0 1 340.98 442.50"
/>
<path stroke="#545a67" vector-effect="non-scaling-stroke" d="
  M 324.07 467.55
  Q 324.91 468.19 326.25 467.45
  C 328.85 466.02 329.96 464.95 329.86 461.72
  Q 329.66 455.31 329.63 448.55
  A 0.96 0.95 -82.6 0 1 330.83 447.62
  L 333.25 448.25
  Q 333.99 448.44 333.84 447.69
  C 333.45 445.65 332.28 444.21 330.12 443.69
  Q 313.17 439.62 295.19 434.98
  A 1.33 1.33 0.0 0 0 293.58 435.90
  Q 292.01 441.33 291.92 446.97
  A 1.89 1.89 0.0 0 0 292.82 448.60
  Q 308.12 457.94 323.66 467.25
  Q 323.72 467.28 324.07 467.55"
/>
<path stroke="#545a67" vector-effect="non-scaling-stroke" d="
  M 348.23 442.40
  C 344.21 443.43 341.52 442.47 338.87 446.84
  A 0.87 0.87 0.0 0 0 339.75 448.15
  L 342.27 447.76
  A 0.66 0.65 84.2 0 1 343.03 448.38
  Q 343.25 455.78 343.42 463.14
  Q 343.46 465.08 344.24 466.11
  C 346.22 468.73 348.52 467.87 351.07 466.27
  Q 365.78 457.09 380.77 448.21
  A 0.80 0.79 69.8 0 0 381.15 447.38
  L 379.16 435.53
  A 0.71 0.70 -8.4 0 0 378.37 434.95
  C 374.84 435.40 370.59 436.96 368.23 437.50
  Q 358.19 439.82 348.23 442.40"
/>
<path stroke="#545a67" vector-effect="non-scaling-stroke" d="
  M 335.43 464.25
  Q 333.78 476.17 334.09 479.75
  Q 334.42 483.54 333.65 489.00
  Q 332.75 495.47 331.72 512.01
  Q 331.20 520.52 330.01 531.94
  Q 329.04 541.28 328.42 550.64
  Q 327.74 560.93 326.88 569.32
  Q 325.53 582.41 324.61 595.52
  Q 323.87 605.99 322.93 615.44
  Q 321.06 634.30 319.88 653.12
  A 0.64 0.64 0.0 0 0 320.52 653.80
  L 352.49 653.74
  A 0.77 0.76 -2.1 0 0 353.26 652.92
  Q 352.68 644.67 352.13 636.41
  Q 351.67 629.69 350.56 619.91
  Q 349.33 608.99 348.64 598.01
  Q 348.13 589.85 347.58 584.51
  Q 346.89 577.77 346.18 571.02
  Q 345.78 567.22 345.91 561.50
  C 345.97 558.97 345.12 555.99 344.95 553.50
  Q 344.07 540.12 342.33 526.82
  C 341.85 523.16 342.04 519.28 341.66 515.48
  Q 340.95 508.29 340.87 507.00
  Q 340.34 498.18 339.39 489.40
  Q 338.97 485.42 338.99 479.08
  C 339.01 471.90 337.47 465.01 336.86 457.88
  A 0.29 0.28 50.0 0 0 336.30 457.83
  C 335.77 459.90 335.66 462.60 335.43 464.25"
/>
<path stroke="#988e7d" vector-effect="non-scaling-stroke" d="
  M 511.23 534.01
  C 519.66 542.68 531.51 545.30 542.95 540.62
  Q 544.69 539.91 546.53 539.18
  Q 547.05 538.98 547.49 539.32
  Q 557.49 547.09 568.26 548.65
  C 582.78 550.75 592.02 540.45 596.29 527.70
  Q 596.56 526.92 596.74 527.73
  Q 599.62 540.60 612.27 542.62
  C 616.87 543.36 620.52 541.69 625.20 543.42
  C 650.12 552.65 681.51 555.28 698.77 530.16
  A 0.55 0.55 0.0 0 0 698.15 529.33
  C 686.73 533.10 672.44 531.68 660.88 529.29
  Q 659.56 529.01 658.62 528.96
  Q 656.89 528.85 656.35 529.07
  C 633.81 538.15 610.33 534.85 594.86 514.81
  A 0.53 0.52 -41.7 0 0 594.06 514.77
  C 583.08 526.10 566.99 532.23 557.34 514.83
  A 1.00 0.99 65.1 0 0 556.13 514.38
  Q 548.85 517.10 541.24 517.34
  C 526.52 517.81 516.86 510.92 512.02 496.79
  Q 511.47 495.18 511.04 496.83
  Q 507.79 509.29 500.86 521.35
  C 495.25 531.11 487.02 538.58 474.86 537.23
  Q 474.29 537.16 474.34 537.73
  Q 474.85 543.46 475.31 549.22
  Q 475.53 551.86 476.72 553.47
  Q 478.03 555.23 479.81 556.60
  Q 480.18 556.89 480.65 556.89
  C 497.08 557.05 504.06 546.17 510.66 534.09
  Q 510.89 533.66 511.23 534.01"
/>
<path stroke="#56524d" vector-effect="non-scaling-stroke" d="
  M 642.73 559.06
  L 645.72 558.80"
/>
<path stroke="#989594" vector-effect="non-scaling-stroke" d="
  M 645.72 558.80
  C 657.12 563.53 671.57 562.91 676.94 549.77
  Q 677.12 549.32 676.93 548.92
  Q 676.78 548.61 676.44 548.70
  C 659.39 553.42 640.83 550.64 624.58 544.50
  C 620.79 543.07 616.43 544.37 613.03 543.97
  Q 601.38 542.62 596.73 532.17
  A 0.43 0.43 0.0 0 0 595.94 532.18
  C 586.79 554.62 564.56 553.61 547.71 541.16
  Q 546.70 540.42 545.56 540.93
  Q 526.94 549.26 511.52 536.39
  Q 511.09 536.03 510.84 536.54
  C 504.83 548.96 496.22 557.57 481.82 558.45
  Q 481.34 558.48 481.67 558.83
  L 489.67 567.35
  Q 490.02 567.72 490.53 567.73
  Q 514.41 568.49 532.03 552.82
  Q 532.44 552.45 532.92 552.73
  C 544.86 559.64 558.99 562.92 571.01 555.72
  A 1.03 1.03 0.0 0 1 572.14 555.76
  Q 582.36 562.98 594.50 566.52
  Q 620.71 574.16 642.73 559.06"
/>
<path stroke="#a29481" vector-effect="non-scaling-stroke" d="
  M 645.72 558.80
  Q 643.54 557.60 642.73 559.06"
/>
<path stroke="#587f89" vector-effect="non-scaling-stroke" d="
  M 200.86 650.37
  C 194.19 661.47 188.14 674.72 184.88 687.50
  Q 184.11 690.52 186.89 691.28
  Q 190.78 692.35 195.07 693.06
  A 3.43 3.41 -68.1 0 0 198.44 691.61
  L 202.31 685.91
  A 2.28 2.28 0.0 0 1 204.60 684.94
  L 210.38 685.95
  A 2.10 2.10 0.0 0 1 212.07 687.59
  L 213.37 693.92
  A 3.32 3.31 88.1 0 0 216.16 696.54
  Q 221.21 697.24 226.35 697.42
  C 228.99 697.52 230.44 696.94 230.17 694.00
  Q 228.20 672.86 223.63 654.62
  Q 222.62 650.56 219.78 649.50
  C 216.48 648.26 203.51 645.95 200.86 650.37"
/>
<path stroke="#587f89" vector-effect="non-scaling-stroke" d="
  M 249.37 668.11
  Q 251.16 666.33 253.52 667.05
  A 1.21 1.19 -2.0 0 1 254.29 667.76
  L 255.08 669.74
  Q 255.25 670.16 255.69 670.24
  C 258.42 670.73 269.89 670.94 268.52 665.47
  C 265.15 651.99 245.85 649.31 237.53 659.60
  C 233.43 664.66 232.87 673.55 237.97 678.32
  C 241.00 681.16 246.94 682.78 251.31 684.71
  A 1.48 1.48 0.0 0 1 251.61 687.23
  C 249.77 688.64 247.46 687.19 247.03 685.01
  Q 246.93 684.50 246.50 684.23
  Q 240.34 680.33 233.50 682.55
  C 231.72 683.13 230.42 684.46 230.81 686.38
  C 233.76 700.89 253.09 706.96 263.95 696.98
  C 269.15 692.20 269.62 684.43 265.65 678.61
  C 261.90 673.13 254.63 671.42 249.55 669.11
  A 0.62 0.62 0.0 0 1 249.37 668.11"
/>
<path stroke="#587f89" vector-effect="non-scaling-stroke" d="
  M 319.34 685.43
  A 24.08 23.73 0.0 0 0 295.26 661.70
  A 24.08 23.73 0.0 0 0 271.18 685.43
  A 24.08 23.73 0.0 0 0 295.26 709.16
  A 24.08 23.73 0.0 0 0 319.34 685.43"
/>
<path stroke="#a3895c" vector-effect="non-scaling-stroke" d="
  M 250.96 668.54
  L 253.35 669.63
  Q 253.90 669.88 253.76 669.30
  C 253.45 667.93 252.11 667.48 250.93 668.23
  A 0.18 0.17 39.8 0 0 250.96 668.54"
/>
<path stroke="#a3895c" vector-effect="non-scaling-stroke" d="
  M 250.8510 686.7374
  A 1.73 0.72 33.6 0 0 249.8084 685.1803
  A 1.73 0.72 33.6 0 0 247.9690 684.8226
  A 1.73 0.72 33.6 0 0 249.0116 686.3797
  A 1.73 0.72 33.6 0 0 250.8510 686.7374"
/>
<path stroke="#587f89" vector-effect="non-scaling-stroke" d="
  M 278.09 745.37
  Q 279.13 737.56 280.22 729.75
  C 281.00 724.23 270.82 723.75 267.60 724.25
  Q 264.83 724.69 261.90 726.94
  Q 258.11 729.83 251.30 735.34
  Q 241.98 742.87 244.00 754.38
  C 244.30 756.06 244.92 756.40 246.51 756.68
  Q 251.24 757.51 257.30 758.28
  Q 258.58 758.45 258.41 759.73
  Q 257.99 762.97 258.17 767.01
  Q 258.27 769.03 260.56 769.63
  C 263.58 770.41 271.20 772.49 272.50 769.26
  Q 273.11 767.74 274.76 761.61
  A 0.65 0.65 0.0 0 1 275.40 761.13
  L 280.88 761.28
  A 0.88 0.88 0.0 0 0 281.68 760.80
  C 283.53 757.23 284.43 752.69 284.53 748.73
  A 1.42 1.41 -81.7 0 0 283.49 747.32
  L 278.48 745.96
  Q 278.03 745.84 278.09 745.37"
/>
<path stroke="#a8997e" vector-effect="non-scaling-stroke" d="
  M 315.02 403.07
  L 314.84 398.18
  A 0.50 0.50 0.0 0 0 313.84 398.20
  L 313.79 403.93
  A 0.84 0.83 88.1 0 0 314.68 404.77
  L 363.56 401.72
  A 0.63 0.63 0.0 0 0 364.16 401.08
  L 364.08 396.06
  Q 364.07 395.84 363.85 395.84
  Q 363.65 395.83 363.46 395.82
  A 0.33 0.33 0.0 0 0 363.11 396.15
  L 363.10 399.99
  Q 363.09 400.58 362.50 400.62
  L 315.56 403.56
  A 0.51 0.51 0.0 0 1 315.02 403.07"
/>
<path stroke="#ac8849" vector-effect="non-scaling-stroke" d="
  M 193.85 417.59
  A 0.60 0.60 0.0 0 0 194.73 417.63
  L 198.96 413.38
  A 0.60 0.60 0.0 0 0 199.06 412.68
  L 168.40 354.55
  A 0.60 0.60 0.0 0 0 167.51 354.35
  L 151.60 366.35
  A 0.60 0.60 0.0 0 0 151.50 367.21
  L 193.85 417.59"
/>
<path stroke="#ac8849" vector-effect="non-scaling-stroke" d="
  M 179.88 452.24
  A 0.79 0.79 0.0 0 0 180.90 452.14
  L 185.49 447.42
  A 0.79 0.79 0.0 0 0 185.50 446.33
  L 127.72 383.75
  A 0.79 0.79 0.0 0 0 126.53 383.78
  L 110.93 402.47
  A 0.79 0.79 0.0 0 0 111.08 403.62
  L 179.88 452.24"
/>
<path stroke="#ac8849" vector-effect="non-scaling-stroke" d="
  M 170.35 482.85
  A 0.57 0.57 0.0 0 0 171.00 482.52
  L 174.15 475.37
  A 0.57 0.57 0.0 0 0 173.84 474.61
  L 94.15 442.48
  A 0.57 0.57 0.0 0 0 93.37 442.98
  L 91.90 465.11
  A 0.57 0.57 0.0 0 0 92.35 465.71
  L 170.35 482.85"
/>
<path stroke="#ac8849" vector-effect="non-scaling-stroke" d="
  M 169.50 510.58
  A 0.43 0.43 0.0 0 0 169.89 510.23
  L 171.14 503.53
  A 0.43 0.43 0.0 0 0 170.75 503.02
  L 116.50 499.61
  A 0.43 0.43 0.0 0 0 116.05 500.12
  L 118.87 514.13
  A 0.43 0.43 0.0 0 0 119.33 514.47
  L 169.50 510.58"
/>
<path stroke="#ac8849" vector-effect="non-scaling-stroke" d="
  M 154.71 745.24
  C 164.15 732.41 165.37 706.28 144.81 702.75
  C 137.45 701.48 129.42 702.39 124.85 708.64
  C 118.65 717.13 116.40 730.62 120.61 740.12
  Q 125.73 751.65 141.02 751.68
  Q 149.97 751.69 154.71 745.24"
/>
<path stroke="#ac8849" vector-effect="non-scaling-stroke" d="
  M 195.03 732.46
  Q 180.37 737.13 179.76 753.06
  C 179.66 755.67 179.33 757.45 182.26 758.09
  Q 196.59 761.25 211.19 763.01
  C 215.20 763.49 216.83 762.51 217.29 758.46
  C 217.70 754.96 218.73 747.38 214.25 746.69
  Q 209.81 746.00 205.48 745.82
  A 0.21 0.21 0.0 0 1 205.44 745.41
  C 208.58 744.52 212.02 744.58 214.67 743.11
  Q 223.06 738.43 221.88 728.39
  C 220.81 719.23 214.09 713.26 205.05 712.09
  Q 192.80 710.51 185.72 721.72
  C 181.64 728.17 190.10 731.13 194.96 731.69
  Q 196.78 731.90 195.03 732.46"
/>
<path stroke="#617e76" vector-effect="non-scaling-stroke" d="
  M 56.36 659.94
  C 58.05 660.27 61.08 660.35 62.28 661.54
  C 63.80 663.03 63.98 667.97 64.78 670.02
  A 2.29 2.28 83.1 0 0 66.60 671.46
  C 70.19 671.93 77.48 673.42 80.58 671.64
  Q 81.03 671.38 81.06 670.87
  Q 81.24 668.20 80.81 664.76
  Q 79.01 650.15 76.99 639.53
  C 75.92 633.95 74.93 625.81 69.98 624.38
  Q 64.12 622.69 57.99 622.81
  C 55.35 622.86 53.15 623.59 51.69 626.05
  Q 41.52 643.20 35.89 662.36
  C 35.36 664.16 35.86 665.54 37.67 666.06
  Q 42.30 667.39 47.26 667.68
  A 1.10 1.07 -65.6 0 0 48.10 667.35
  Q 50.94 664.38 53.23 661.18
  Q 54.39 659.54 56.36 659.94"
/>
<path stroke="#617e76" vector-effect="non-scaling-stroke" d="
  M 116.71 659.25
  C 122.13 655.09 122.77 646.85 120.81 640.93
  C 117.35 630.47 102.82 626.79 93.13 628.09
  C 87.32 628.86 87.45 629.18 86.34 635.18
  Q 82.92 653.74 82.42 672.01
  A 2.48 2.48 0.0 0 0 84.55 674.53
  L 96.41 676.18
  A 1.31 1.29 32.5 0 0 97.26 676.00
  Q 99.35 674.72 99.49 672.21
  A 1.42 1.42 0.0 0 1 101.78 671.16
  C 104.93 673.62 109.23 678.19 112.87 678.86
  A 1.28 1.24 -55.9 0 0 113.82 678.66
  C 116.54 676.78 121.46 672.67 122.75 669.01
  A 0.81 0.80 37.6 0 0 122.65 668.26
  L 116.63 659.78
  A 0.39 0.38 -36.9 0 1 116.71 659.25"
/>
<path stroke="#617e76" vector-effect="non-scaling-stroke" d="
  M 143.82 669.17
  C 146.45 672.46 148.83 677.43 152.34 679.58
  A 2.29 2.29 0.0 0 0 154.84 679.51
  L 165.16 672.36
  A 0.37 0.37 0.0 0 1 165.73 672.71
  Q 164.92 678.49 164.77 684.49
  Q 164.69 687.54 167.76 688.20
  Q 173.37 689.42 178.75 689.65
  A 2.48 2.48 0.0 0 0 181.26 687.81
  Q 186.58 667.89 188.14 647.10
  C 188.27 645.28 187.70 644.13 186.01 643.55
  C 181.71 642.07 172.20 639.95 168.81 643.04
  Q 162.78 648.52 157.48 654.63
  A 0.41 0.41 0.0 0 1 156.79 654.52
  Q 153.90 647.34 150.23 640.55
  C 147.46 635.42 137.31 634.63 132.52 635.07
  A 2.60 2.59 4.0 0 0 130.23 637.05
  Q 125.42 657.00 123.69 677.49
  Q 123.47 680.19 125.48 680.76
  Q 131.47 682.49 137.42 683.20
  A 2.21 2.21 0.0 0 0 139.81 681.63
  L 143.47 669.23
  Q 143.58 668.87 143.82 669.17"
/>
<path stroke="#617e76" vector-effect="non-scaling-stroke" d="
  M 63.48 649.42
  A 1.64 1.64 0.0 0 0 64.23 647.35
  L 62.39 642.87
  A 1.64 1.64 0.0 0 0 59.49 642.61
  L 56.78 646.82
  A 1.64 1.64 0.0 0 0 57.90 649.33
  L 61.76 649.95
  A 1.64 1.64 0.0 0 0 62.78 649.79
  L 63.48 649.42"
/>
<path stroke="#617e76" vector-effect="non-scaling-stroke" d="
  M 99.47 644.75
  L 99.49 649.15
  A 1.78 1.78 0.0 0 0 101.27 650.93
  L 102.37 650.92
  A 4.66 3.91 -0.2 0 0 107.02 647.00
  L 107.02 646.86
  A 4.66 3.91 -0.2 0 0 102.35 642.96
  L 101.25 642.97
  A 1.78 1.78 0.0 0 0 99.47 644.75"
/>
<path stroke="#ac8849" vector-effect="non-scaling-stroke" d="
  M 100.49 645.11
  L 100.47 648.71
  A 1.11 1.11 0.0 0 0 101.57 649.82
  L 101.87 649.82
  A 4.03 2.82 0.3 0 0 105.92 647.02
  L 105.92 646.84
  A 4.03 2.82 0.3 0 0 101.91 644.00
  L 101.61 644.00
  A 1.11 1.11 0.0 0 0 100.49 645.11"
/>
<path stroke="#617e76" vector-effect="non-scaling-stroke" d="
  M 212.95 673.95
  A 1.69 1.69 0.0 0 0 213.23 672.25
  L 211.51 667.81
  A 1.69 1.69 0.0 0 0 208.50 667.53
  L 205.90 671.68
  A 1.69 1.69 0.0 0 0 206.96 674.23
  L 210.79 675.09
  A 1.69 1.69 0.0 0 0 212.45 674.53
  L 212.95 673.95"
/>
<path stroke="#ac8849" vector-effect="non-scaling-stroke" d="
  M 644.08 672.86
  A 0.52 0.52 0.0 0 0 644.32 672.14
  L 634.68 654.51
  A 0.52 0.52 0.0 0 0 633.91 654.35
  L 581.91 694.77
  A 0.52 0.52 0.0 0 0 581.75 695.37
  L 583.99 700.97
  A 0.52 0.52 0.0 0 0 584.70 701.24
  L 644.08 672.86"
/>
<path stroke="#587f89" vector-effect="non-scaling-stroke" d="
  M 301.31 685.47
  A 6.12 6.12 0.0 0 0 295.19 679.35
  A 6.12 6.12 0.0 0 0 289.07 685.47
  A 6.12 6.12 0.0 0 0 295.19 691.59
  A 6.12 6.12 0.0 0 0 301.31 685.47"
/>
<path stroke="#ac8849" vector-effect="non-scaling-stroke" d="
  M 211.11 673.87
  A 0.94 0.94 0.0 0 0 212.12 672.63
  L 210.79 668.76
  A 0.94 0.94 0.0 0 0 209.11 668.55
  L 206.90 671.96
  A 0.94 0.94 0.0 0 0 207.57 673.40
  L 211.11 673.87"
/>
<path stroke="#617e76" vector-effect="non-scaling-stroke" d="
  M 79.27 726.51
  Q 75.67 726.28 79.07 725.10
  C 82.81 723.79 87.55 723.65 90.61 721.55
  C 101.52 714.04 96.29 697.68 84.75 694.06
  Q 71.03 689.76 62.91 701.45
  Q 61.39 703.63 61.49 705.85
  A 1.39 1.39 0.0 0 0 61.99 706.85
  Q 67.24 711.21 74.09 710.85
  A 1.32 1.32 0.0 0 0 75.29 709.18
  Q 74.93 707.86 76.75 707.56
  Q 79.13 707.18 80.25 708.64
  A 1.59 1.58 -23.7 0 1 79.26 711.16
  C 65.84 713.49 56.06 720.33 56.51 735.22
  A 1.77 1.76 5.2 0 0 57.91 736.89
  Q 72.72 740.07 88.21 741.77
  C 93.84 742.39 92.36 731.32 91.52 728.83
  A 1.11 1.11 0.0 0 0 90.69 728.09
  Q 85.05 726.87 79.27 726.51"
/>
<path stroke="#ac8849" vector-effect="non-scaling-stroke" d="
  M 75.66 710.72
  Q 78.25 710.91 79.22 709.65
  Q 79.58 709.18 79.08 708.87
  Q 78.48 708.49 77.71 708.71"
/>
<path stroke="#ac8849" vector-effect="non-scaling-stroke" d="
  M 580.37 730.99
  A 0.65 0.65 0.0 0 0 580.01 731.81
  L 582.38 738.27
  A 0.65 0.65 0.0 0 0 583.11 738.69
  L 666.03 722.68
  A 0.65 0.65 0.0 0 0 666.53 721.87
  L 659.95 698.20
  A 0.65 0.65 0.0 0 0 659.07 697.78
  L 580.37 730.99"
/>
<path stroke="#617e76" vector-effect="non-scaling-stroke" d="
  M 133.90 703.92
  C 117.99 707.85 113.86 740.35 129.11 747.90
  C 135.41 751.02 147.11 752.27 152.44 746.18
  C 159.93 737.59 162.77 722.63 157.16 712.21
  C 152.73 703.99 142.17 701.87 133.90 703.92"
/>
<path stroke="#617e76" vector-effect="non-scaling-stroke" d="
  M 138.9095 733.6481
  A 6.87 5.79 97.7 0 0 145.5678 727.6158
  A 6.87 5.79 97.7 0 0 140.7505 720.0319
  A 6.87 5.79 97.7 0 0 134.0922 726.0642
  A 6.87 5.79 97.7 0 0 138.9095 733.6481"
/>
<path stroke="#617e76" vector-effect="non-scaling-stroke" d="
  M 197.77 730.84
  L 198.87 729.90
  A 1.26 1.20 -16.9 0 0 199.29 729.16
  C 199.79 726.24 203.18 727.29 204.54 728.65
  A 1.35 1.35 0.0 0 1 203.92 730.91
  Q 200.57 731.79 196.82 732.92
  Q 180.25 737.93 180.81 755.62
  Q 180.82 756.17 181.29 756.46
  Q 182.34 757.11 184.00 757.45
  Q 198.67 760.40 213.13 762.11
  A 2.36 2.34 -77.1 0 0 215.62 760.54
  Q 217.50 755.12 216.14 749.52
  A 2.43 2.42 86.5 0 0 214.08 747.69
  L 202.73 746.32
  A 0.47 0.46 -51.5 0 1 202.63 745.42
  C 206.81 743.90 212.29 743.57 215.54 741.26
  C 221.26 737.20 222.09 729.09 219.23 723.07
  C 213.13 710.22 194.14 709.48 187.01 721.65
  C 182.82 728.79 192.22 730.25 196.66 731.13
  Q 197.28 731.26 197.77 730.84"
/>
<path stroke="#ac8849" vector-effect="non-scaling-stroke" d="
  M 200.44 730.87
  L 203.64 730.02
  A 0.23 0.23 0.0 0 0 203.81 729.74
  L 203.78 729.64
  A 1.85 1.79 75.1 0 0 201.58 728.31
  L 201.38 728.36
  A 1.85 1.79 75.1 0 0 200.13 730.61
  L 200.15 730.71
  A 0.23 0.23 0.0 0 0 200.44 730.87"
/>
<path stroke="#ac8849" vector-effect="non-scaling-stroke" d="
  M 138.9374 732.5090
  A 5.77 4.68 99.0 0 0 144.4624 727.5421
  A 5.77 4.68 99.0 0 0 140.7426 721.1110
  A 5.77 4.68 99.0 0 0 135.2176 726.0779
  A 5.77 4.68 99.0 0 0 138.9374 732.5090"
/>
<path stroke="#617e76" vector-effect="non-scaling-stroke" d="
  M 265.80 743.33
  A 0.84 0.84 0.0 0 0 264.48 742.53
  L 260.80 745.13
  A 0.84 0.84 0.0 0 0 261.11 746.64
  L 264.36 747.33
  A 0.84 0.84 0.0 0 0 265.37 746.61
  L 265.80 743.33"
/>
<path stroke="#ac8849" vector-effect="non-scaling-stroke" d="
  M 264.47 744.08
  L 263.24 744.85
  A 0.60 0.60 0.0 0 0 263.66 745.95
  Q 265.04 745.69 264.89 744.29
  A 0.28 0.28 0.0 0 0 264.47 744.08"
/>
<path stroke="#ac8849" vector-effect="non-scaling-stroke" d="
  M 657.32 787.00
  A 0.54 0.54 0.0 0 0 657.94 786.67
  L 665.99 765.75
  A 0.54 0.54 0.0 0 0 665.51 765.02
  L 579.49 761.57
  A 0.54 0.54 0.0 0 0 578.93 762.10
  L 578.83 769.95
  A 0.54 0.54 0.0 0 0 579.25 770.48
  L 657.32 787.00"
/>
<path stroke="#ac8849" vector-effect="non-scaling-stroke" d="
  M 570.81 788.84
  A 0.67 0.67 0.0 0 0 569.93 789.30
  L 568.43 795.31
  A 0.67 0.67 0.0 0 0 568.76 796.06
  L 612.41 820.35
  A 0.67 0.67 0.0 0 0 613.28 820.16
  L 621.47 808.85
  A 0.67 0.67 0.0 0 0 621.16 807.83
  L 570.81 788.84"
/>
</g>
<path fill="#4d5360" d="
  M 501.31 657.97
  C 496.15 678.87 484.59 694.78 463.41 701.08
  Q 453.42 704.05 443.42 707.22
  Q 442.65 707.46 443.41 707.73
  C 452.85 711.15 464.17 714.52 471.87 718.90
  C 493.73 731.35 498.67 751.05 505.49 773.59
  A 0.32 0.32 0.0 0 0 506.10 773.60
  C 511.87 755.59 516.57 738.53 531.14 724.70
  L 547.62 761.78
  A 1.19 1.18 -23.0 0 1 546.97 763.37
  L 377.07 830.92
  L 370.05 833.25
  A 0.56 0.56 0.0 0 1 369.32 832.78
  L 367.42 815.81
  Q 367.33 815.05 366.57 815.06
  L 347.81 815.29
  A 2.54 2.53 0.6 0 0 345.30 817.74
  L 345.13 822.34
  L 344.70 816.07
  Q 344.67 815.61 344.21 815.59
  L 341.12 815.46
  Q 340.56 815.44 340.54 814.87
  L 339.67 787.89
  Q 339.66 787.41 339.17 787.41
  L 333.72 787.40
  Q 333.34 787.40 333.32 787.79
  L 332.47 815.26
  Q 332.45 815.76 331.96 815.66
  Q 329.55 815.17 327.79 815.62
  Q 325.34 814.70 323.74 814.77
  Q 315.11 815.17 307.20 815.36
  A 1.46 1.44 -86.8 0 0 305.79 816.63
  L 303.73 832.86
  A 0.45 0.45 0.0 0 1 303.06 833.19
  Q 299.70 831.25 295.19 831.49
  Q 295.79 831.34 296.02 831.20
  Q 296.32 831.01 295.77 830.79
  Q 263.45 817.87 230.55 804.95
  L 226.10 769.74
  Q 226.04 769.27 226.51 769.33
  L 290.31 778.60
  Q 290.97 778.70 290.59 778.15
  L 279.85 762.80
  Q 279.51 762.32 278.92 762.31
  L 276.32 762.29
  Q 275.71 762.28 275.62 762.88
  Q 274.91 767.44 272.77 771.52
  Q 272.54 771.96 272.06 772.05
  Q 265.59 773.34 259.61 770.81
  C 255.25 768.97 256.55 763.83 256.94 760.20
  Q 256.99 759.78 256.57 759.71
  L 244.88 757.69
  A 2.84 2.83 4.3 0 1 242.53 754.96
  C 242.40 749.61 241.82 743.29 245.73 738.96
  Q 252.38 731.60 262.12 725.18
  C 267.88 721.39 271.61 724.03 277.19 722.19
  Q 297.22 715.60 317.26 708.84
  Q 318.18 708.53 317.28 708.18
  L 311.06 705.74
  A 1.04 1.04 0.0 0 0 310.11 705.83
  Q 304.06 709.68 300.73 710.08
  Q 278.53 712.74 270.66 692.79
  A 2.21 2.20 38.0 0 1 270.53 691.76
  Q 270.68 690.59 270.20 689.51
  A 0.30 0.30 0.0 0 0 269.64 689.57
  C 265.60 707.34 239.83 706.46 231.82 692.45
  Q 231.34 691.60 231.36 692.58
  C 231.43 695.40 231.53 698.16 227.75 698.28
  Q 220.98 698.49 215.35 697.37
  C 211.70 696.65 211.73 691.15 211.25 688.38
  A 2.15 2.14 88.2 0 0 209.38 686.62
  L 204.10 686.00
  A 0.88 0.88 0.0 0 0 203.28 686.37
  C 201.72 688.60 198.84 694.03 196.00 694.08
  Q 193.49 694.12 186.84 692.23
  C 184.79 691.65 183.17 690.19 183.74 688.02
  Q 188.72 669.12 199.98 650.14
  C 203.03 645.00 215.18 646.61 219.61 648.41
  C 224.28 650.30 224.61 653.95 225.70 658.47
  Q 228.51 670.19 229.83 682.43
  Q 229.99 683.88 231.00 682.82
  Q 233.88 679.79 238.57 680.91
  Q 239.21 681.06 238.73 680.62
  Q 233.58 675.82 233.22 670.23
  C 232.33 656.39 245.78 649.58 257.78 653.01
  Q 267.65 655.83 269.89 665.44
  C 271.30 671.47 261.95 672.08 258.22 670.99
  Q 258.12 670.96 258.12 671.06
  L 258.12 671.36
  Q 258.12 671.52 258.27 671.57
  Q 265.30 674.08 268.52 680.82
  Q 268.85 681.49 269.18 680.82
  C 271.82 675.49 274.25 669.35 280.10 665.11
  Q 282.80 663.16 284.34 661.25
  Q 294.74 648.34 304.87 635.39
  A 0.23 0.23 0.0 0 0 304.66 635.02
  L 249.72 642.51
  Q 249.09 642.60 249.17 641.97
  L 257.71 577.74
  Q 257.81 577.00 257.22 577.46
  L 213.00 611.81
  Q 212.48 612.22 212.24 611.61
  L 191.56 558.75
  L 197.22 552.59
  Q 197.58 552.19 197.62 551.66
  L 204.41 467.25
  Q 204.45 466.71 204.99 466.71
  Q 217.30 466.68 229.42 466.63
  Q 232.75 466.61 235.91 465.61
  Q 262.99 457.01 290.06 448.51
  Q 290.59 448.34 290.67 447.79
  L 292.86 434.15
  A 0.61 0.61 0.0 0 1 293.60 433.65
  L 299.05 434.95
  Q 299.64 435.09 299.64 434.48
  L 299.62 423.65
  Q 299.62 423.16 299.18 422.93
  L 263.97 404.89
  Q 263.49 404.64 263.23 404.17
  L 236.99 356.70
  Q 236.73 356.25 236.73 355.73
  L 236.73 344.39
  Q 236.73 343.80 236.14 343.69
  L 97.88 319.42
  A 0.29 0.29 0.0 0 1 97.90 318.84
  C 98.78 318.76 99.38 318.85 100.17 318.33
  Q 135.61 294.98 171.17 271.32
  C 181.37 283.71 184.58 298.48 189.57 313.40
  Q 189.82 314.14 190.08 313.40
  Q 193.52 303.60 196.79 293.77
  Q 206.14 265.68 232.79 253.08
  Q 240.69 249.35 248.34 245.65
  A 0.38 0.37 41.8 0 0 248.30 244.96
  L 223.87 236.39
  Q 238.11 227.04 251.98 217.76
  Q 254.54 216.04 256.39 213.56
  Q 286.49 173.36 316.67 133.18
  Q 316.98 132.76 316.73 132.31
  L 312.21 123.86
  A 2.05 2.04 42.9 0 1 312.14 122.09
  L 330.11 80.12
  A 1.64 1.64 0.0 0 1 331.00 79.23
  L 399.70 50.40
  A 0.45 0.45 0.0 0 1 400.29 50.99
  L 389.50 75.23
  Q 389.29 75.70 389.41 76.20
  C 391.75 85.89 394.44 95.71 396.27 105.48
  Q 396.76 108.11 396.16 111.27
  Q 392.75 129.43 389.27 147.56
  Q 389.19 148.01 389.36 148.43
  L 417.15 215.76
  A 1.38 1.36 5.0 0 0 417.72 216.43
  Q 494.99 262.34 572.25 308.20
  C 573.45 308.91 574.67 308.84 576.02 309.08
  Q 576.81 309.22 576.05 309.48
  C 574.30 310.11 572.03 310.02 570.71 310.20
  Q 506.86 318.66 443.01 327.04
  Q 438.81 327.59 436.80 327.94
  Q 436.28 328.03 436.27 328.56
  Q 436.25 341.40 436.27 354.21
  Q 436.27 356.26 435.28 358.05
  Q 422.49 381.09 409.80 404.17
  Q 409.56 404.61 409.11 404.84
  L 373.73 422.97
  Q 373.34 423.17 373.34 423.60
  L 373.36 434.48
  Q 373.36 434.99 373.86 434.88
  L 379.16 433.67
  Q 379.81 433.53 379.92 434.18
  L 382.17 447.73
  Q 382.26 448.27 382.78 448.43
  L 401.76 454.43
  A 0.89 0.89 0.0 0 0 402.75 454.09
  C 415.77 435.29 436.73 419.71 460.26 418.10
  C 482.63 416.58 503.64 426.73 520.98 440.08
  A 1.12 1.11 -33.7 0 0 521.96 440.27
  C 538.80 435.76 556.91 437.97 567.40 452.74
  A 1.73 1.72 61.2 0 0 569.44 453.34
  Q 587.64 446.15 598.01 461.88
  Q 598.28 462.30 598.77 462.26
  C 600.41 462.14 602.17 461.25 603.47 461.03
  Q 636.84 455.54 653.91 483.39
  C 654.78 484.80 655.91 487.29 657.00 489.21
  A 0.70 0.70 0.0 0 0 657.81 489.54
  C 668.42 486.40 679.98 484.72 690.95 487.87
  C 703.41 491.45 710.12 503.33 709.43 516.03
  Q 709.00 523.84 701.79 527.65
  Q 701.35 527.88 701.08 528.29
  Q 699.21 531.10 697.25 533.80
  Q 690.34 543.32 679.38 547.54
  Q 678.92 547.72 678.77 548.20
  C 675.45 559.02 667.45 563.00 656.76 562.55
  C 651.81 562.34 648.58 560.79 644.46 559.73
  Q 643.94 559.60 643.51 559.90
  C 620.96 575.44 593.97 572.28 572.08 557.24
  A 0.98 0.96 50.4 0 0 571.16 557.14
  C 569.49 557.82 567.84 558.88 566.36 559.37
  C 555.11 563.08 543.17 560.05 533.21 554.34
  A 0.84 0.84 0.0 0 0 532.25 554.43
  Q 514.93 569.26 491.88 569.09
  Q 491.12 569.08 491.64 569.64
  L 493.91 572.07
  A 0.90 0.90 0.0 0 1 494.13 572.89
  L 483.84 617.71
  Q 483.73 618.21 483.93 618.68
  L 501.31 657.97
  Z
  M 295.42 419.74
  Q 310.86 427.85 326.47 435.69
  Q 328.80 436.86 331.32 436.97
  Q 336.53 437.18 341.75 436.99
  Q 344.20 436.90 346.49 435.73
  Q 377.35 419.94 408.26 404.20
  A 1.72 1.72 0.0 0 0 408.95 403.54
  Q 421.53 380.83 434.10 358.07
  Q 435.09 356.28 435.09 354.23
  Q 435.08 333.29 435.40 312.52
  A 0.63 0.63 0.0 0 0 434.53 311.92
  L 331.23 353.93
  A 1.39 1.38 43.7 0 1 330.24 353.95
  L 238.77 321.44
  Q 237.65 321.04 237.63 322.22
  Q 237.43 338.01 237.99 354.28
  Q 238.06 356.48 239.14 358.42
  Q 251.55 380.82 263.82 403.27
  Q 264.06 403.71 264.50 403.95
  Q 272.08 407.92 279.73 411.74
  Q 288.77 416.25 295.42 419.74
  Z
  M 472.80 518.26
  Q 473.17 526.30 474.09 534.36
  A 2.01 2.00 86.9 0 0 476.07 536.14
  Q 485.86 536.20 492.23 529.95
  C 502.40 520.00 508.13 505.01 511.18 491.47
  A 0.25 0.25 0.0 0 1 511.67 491.46
  C 514.69 502.70 519.66 511.87 531.75 515.25
  Q 539.92 517.54 550.70 514.47
  Q 553.81 513.59 557.02 512.55
  Q 557.53 512.39 557.78 512.86
  C 567.28 530.63 583.31 525.32 593.81 512.84
  A 0.71 0.70 -43.4 0 1 594.91 512.87
  Q 615.33 539.27 648.77 530.49
  Q 650.68 529.99 657.02 527.53
  A 1.80 1.78 -49.4 0 1 658.00 527.45
  C 669.92 529.95 708.51 536.61 708.19 514.50
  C 707.76 484.78 677.79 483.92 657.22 490.92
  Q 656.73 491.08 656.50 490.61
  C 644.93 466.52 624.73 456.28 598.34 463.52
  Q 597.81 463.66 597.51 463.20
  Q 587.02 446.86 568.66 454.78
  Q 568.18 454.99 567.85 454.59
  Q 549.72 432.67 521.66 441.60
  Q 521.16 441.76 520.75 441.44
  C 504.13 428.57 483.85 418.22 462.27 419.13
  C 438.40 420.14 417.37 435.17 404.08 454.32
  A 0.66 0.66 0.0 0 0 404.42 455.32
  Q 420.66 460.39 437.04 465.64
  Q 440.23 466.66 443.59 466.67
  Q 455.73 466.70 467.91 466.71
  A 0.59 0.58 87.8 0 1 468.48 467.24
  Q 470.87 492.72 472.67 518.25
  Q 472.68 518.34 472.71 518.29
  Q 472.73 518.26 472.77 518.22
  A 0.03 0.02 79.9 0 1 472.80 518.26
  Z
  M 340.98 442.50
  L 371.69 435.42
  Q 372.34 435.27 372.34 434.59
  L 372.27 424.61
  A 0.51 0.50 -13.9 0 0 371.53 424.17
  Q 358.93 430.69 346.24 437.19
  Q 344.25 438.21 342.03 438.22
  Q 336.48 438.23 330.91 438.19
  Q 328.61 438.17 326.57 437.12
  Q 314.13 430.68 301.34 424.13
  A 0.43 0.43 0.0 0 0 300.71 424.51
  L 300.74 434.19
  A 1.51 1.51 0.0 0 0 301.91 435.65
  L 331.96 442.55
  Q 332.45 442.66 332.73 443.07
  L 336.15 448.10
  A 0.41 0.40 44.7 0 0 336.82 448.10
  L 340.08 443.12
  A 1.47 1.44 9.8 0 1 340.98 442.50
  Z
  M 324.07 467.55
  Q 324.91 468.19 326.25 467.45
  C 328.85 466.02 329.96 464.95 329.86 461.72
  Q 329.66 455.31 329.63 448.55
  A 0.96 0.95 -82.6 0 1 330.83 447.62
  L 333.25 448.25
  Q 333.99 448.44 333.84 447.69
  C 333.45 445.65 332.28 444.21 330.12 443.69
  Q 313.17 439.62 295.19 434.98
  A 1.33 1.33 0.0 0 0 293.58 435.90
  Q 292.01 441.33 291.92 446.97
  A 1.89 1.89 0.0 0 0 292.82 448.60
  Q 308.12 457.94 323.66 467.25
  Q 323.72 467.28 324.07 467.55
  Z
  M 348.23 442.40
  C 344.21 443.43 341.52 442.47 338.87 446.84
  A 0.87 0.87 0.0 0 0 339.75 448.15
  L 342.27 447.76
  A 0.66 0.65 84.2 0 1 343.03 448.38
  Q 343.25 455.78 343.42 463.14
  Q 343.46 465.08 344.24 466.11
  C 346.22 468.73 348.52 467.87 351.07 466.27
  Q 365.78 457.09 380.77 448.21
  A 0.80 0.79 69.8 0 0 381.15 447.38
  L 379.16 435.53
  A 0.71 0.70 -8.4 0 0 378.37 434.95
  C 374.84 435.40 370.59 436.96 368.23 437.50
  Q 358.19 439.82 348.23 442.40
  Z
  M 335.43 464.25
  Q 333.78 476.17 334.09 479.75
  Q 334.42 483.54 333.65 489.00
  Q 332.75 495.47 331.72 512.01
  Q 331.20 520.52 330.01 531.94
  Q 329.04 541.28 328.42 550.64
  Q 327.74 560.93 326.88 569.32
  Q 325.53 582.41 324.61 595.52
  Q 323.87 605.99 322.93 615.44
  Q 321.06 634.30 319.88 653.12
  A 0.64 0.64 0.0 0 0 320.52 653.80
  L 352.49 653.74
  A 0.77 0.76 -2.1 0 0 353.26 652.92
  Q 352.68 644.67 352.13 636.41
  Q 351.67 629.69 350.56 619.91
  Q 349.33 608.99 348.64 598.01
  Q 348.13 589.85 347.58 584.51
  Q 346.89 577.77 346.18 571.02
  Q 345.78 567.22 345.91 561.50
  C 345.97 558.97 345.12 555.99 344.95 553.50
  Q 344.07 540.12 342.33 526.82
  C 341.85 523.16 342.04 519.28 341.66 515.48
  Q 340.95 508.29 340.87 507.00
  Q 340.34 498.18 339.39 489.40
  Q 338.97 485.42 338.99 479.08
  C 339.01 471.90 337.47 465.01 336.86 457.88
  A 0.29 0.28 50.0 0 0 336.30 457.83
  C 335.77 459.90 335.66 462.60 335.43 464.25
  Z
  M 511.23 534.01
  C 519.66 542.68 531.51 545.30 542.95 540.62
  Q 544.69 539.91 546.53 539.18
  Q 547.05 538.98 547.49 539.32
  Q 557.49 547.09 568.26 548.65
  C 582.78 550.75 592.02 540.45 596.29 527.70
  Q 596.56 526.92 596.74 527.73
  Q 599.62 540.60 612.27 542.62
  C 616.87 543.36 620.52 541.69 625.20 543.42
  C 650.12 552.65 681.51 555.28 698.77 530.16
  A 0.55 0.55 0.0 0 0 698.15 529.33
  C 686.73 533.10 672.44 531.68 660.88 529.29
  Q 659.56 529.01 658.62 528.96
  Q 656.89 528.85 656.35 529.07
  C 633.81 538.15 610.33 534.85 594.86 514.81
  A 0.53 0.52 -41.7 0 0 594.06 514.77
  C 583.08 526.10 566.99 532.23 557.34 514.83
  A 1.00 0.99 65.1 0 0 556.13 514.38
  Q 548.85 517.10 541.24 517.34
  C 526.52 517.81 516.86 510.92 512.02 496.79
  Q 511.47 495.18 511.04 496.83
  Q 507.79 509.29 500.86 521.35
  C 495.25 531.11 487.02 538.58 474.86 537.23
  Q 474.29 537.16 474.34 537.73
  Q 474.85 543.46 475.31 549.22
  Q 475.53 551.86 476.72 553.47
  Q 478.03 555.23 479.81 556.60
  Q 480.18 556.89 480.65 556.89
  C 497.08 557.05 504.06 546.17 510.66 534.09
  Q 510.89 533.66 511.23 534.01
  Z
  M 642.73 559.06
  L 645.72 558.80
  C 657.12 563.53 671.57 562.91 676.94 549.77
  Q 677.12 549.32 676.93 548.92
  Q 676.78 548.61 676.44 548.70
  C 659.39 553.42 640.83 550.64 624.58 544.50
  C 620.79 543.07 616.43 544.37 613.03 543.97
  Q 601.38 542.62 596.73 532.17
  A 0.43 0.43 0.0 0 0 595.94 532.18
  C 586.79 554.62 564.56 553.61 547.71 541.16
  Q 546.70 540.42 545.56 540.93
  Q 526.94 549.26 511.52 536.39
  Q 511.09 536.03 510.84 536.54
  C 504.83 548.96 496.22 557.57 481.82 558.45
  Q 481.34 558.48 481.67 558.83
  L 489.67 567.35
  Q 490.02 567.72 490.53 567.73
  Q 514.41 568.49 532.03 552.82
  Q 532.44 552.45 532.92 552.73
  C 544.86 559.64 558.99 562.92 571.01 555.72
  A 1.03 1.03 0.0 0 1 572.14 555.76
  Q 582.36 562.98 594.50 566.52
  Q 620.71 574.16 642.73 559.06
  Z
  M 200.86 650.37
  C 194.19 661.47 188.14 674.72 184.88 687.50
  Q 184.11 690.52 186.89 691.28
  Q 190.78 692.35 195.07 693.06
  A 3.43 3.41 -68.1 0 0 198.44 691.61
  L 202.31 685.91
  A 2.28 2.28 0.0 0 1 204.60 684.94
  L 210.38 685.95
  A 2.10 2.10 0.0 0 1 212.07 687.59
  L 213.37 693.92
  A 3.32 3.31 88.1 0 0 216.16 696.54
  Q 221.21 697.24 226.35 697.42
  C 228.99 697.52 230.44 696.94 230.17 694.00
  Q 228.20 672.86 223.63 654.62
  Q 222.62 650.56 219.78 649.50
  C 216.48 648.26 203.51 645.95 200.86 650.37
  Z
  M 249.37 668.11
  Q 251.16 666.33 253.52 667.05
  A 1.21 1.19 -2.0 0 1 254.29 667.76
  L 255.08 669.74
  Q 255.25 670.16 255.69 670.24
  C 258.42 670.73 269.89 670.94 268.52 665.47
  C 265.15 651.99 245.85 649.31 237.53 659.60
  C 233.43 664.66 232.87 673.55 237.97 678.32
  C 241.00 681.16 246.94 682.78 251.31 684.71
  A 1.48 1.48 0.0 0 1 251.61 687.23
  C 249.77 688.64 247.46 687.19 247.03 685.01
  Q 246.93 684.50 246.50 684.23
  Q 240.34 680.33 233.50 682.55
  C 231.72 683.13 230.42 684.46 230.81 686.38
  C 233.76 700.89 253.09 706.96 263.95 696.98
  C 269.15 692.20 269.62 684.43 265.65 678.61
  C 261.90 673.13 254.63 671.42 249.55 669.11
  A 0.62 0.62 0.0 0 1 249.37 668.11
  Z
  M 319.34 685.43
  A 24.08 23.73 0.0 0 0 295.26 661.70
  A 24.08 23.73 0.0 0 0 271.18 685.43
  A 24.08 23.73 0.0 0 0 295.26 709.16
  A 24.08 23.73 0.0 0 0 319.34 685.43
  Z
  M 250.96 668.54
  L 253.35 669.63
  Q 253.90 669.88 253.76 669.30
  C 253.45 667.93 252.11 667.48 250.93 668.23
  A 0.18 0.17 39.8 0 0 250.96 668.54
  Z
  M 250.8510 686.7374
  A 1.73 0.72 33.6 0 0 249.8084 685.1803
  A 1.73 0.72 33.6 0 0 247.9690 684.8226
  A 1.73 0.72 33.6 0 0 249.0116 686.3797
  A 1.73 0.72 33.6 0 0 250.8510 686.7374
  Z
  M 278.09 745.37
  Q 279.13 737.56 280.22 729.75
  C 281.00 724.23 270.82 723.75 267.60 724.25
  Q 264.83 724.69 261.90 726.94
  Q 258.11 729.83 251.30 735.34
  Q 241.98 742.87 244.00 754.38
  C 244.30 756.06 244.92 756.40 246.51 756.68
  Q 251.24 757.51 257.30 758.28
  Q 258.58 758.45 258.41 759.73
  Q 257.99 762.97 258.17 767.01
  Q 258.27 769.03 260.56 769.63
  C 263.58 770.41 271.20 772.49 272.50 769.26
  Q 273.11 767.74 274.76 761.61
  A 0.65 0.65 0.0 0 1 275.40 761.13
  L 280.88 761.28
  A 0.88 0.88 0.0 0 0 281.68 760.80
  C 283.53 757.23 284.43 752.69 284.53 748.73
  A 1.42 1.41 -81.7 0 0 283.49 747.32
  L 278.48 745.96
  Q 278.03 745.84 278.09 745.37
  Z"
/>
<path fill="#ffffff" d="
  M 223.87 236.39
  L 248.30 244.96
  A 0.38 0.37 41.8 0 1 248.34 245.65
  Q 240.69 249.35 232.79 253.08
  Q 206.14 265.68 196.79 293.77
  Q 193.52 303.60 190.08 313.40
  Q 189.82 314.14 189.57 313.40
  C 184.58 298.48 181.37 283.71 171.17 271.32
  C 158.94 257.38 143.81 253.63 127.44 247.69
  Q 126.77 247.45 127.45 247.24
  Q 136.37 244.36 145.32 241.81
  Q 169.87 234.82 180.10 213.03
  C 184.03 204.66 187.04 191.93 189.95 181.46
  Q 190.21 180.52 190.46 181.46
  Q 195.64 201.22 197.41 206.29
  Q 204.57 226.87 223.87 236.39
  Z"
/>
<path fill="#f0e1c1" d="
  M 279.73 411.74
  Q 272.08 407.92 264.50 403.95
  Q 264.06 403.71 263.82 403.27
  Q 251.55 380.82 239.14 358.42
  Q 238.06 356.48 237.99 354.28
  Q 237.43 338.01 237.63 322.22
  Q 237.65 321.04 238.77 321.44
  L 330.24 353.95
  A 1.39 1.38 43.7 0 0 331.23 353.93
  L 434.53 311.92
  A 0.63 0.63 0.0 0 1 435.40 312.52
  Q 435.08 333.29 435.09 354.23
  Q 435.09 356.28 434.10 358.07
  Q 421.53 380.83 408.95 403.54
  A 1.72 1.72 0.0 0 1 408.26 404.20
  Q 377.35 419.94 346.49 435.73
  Q 344.20 436.90 341.75 436.99
  Q 336.53 437.18 331.32 436.97
  Q 328.80 436.86 326.47 435.69
  Q 310.86 427.85 295.42 419.74
  Q 288.77 416.25 279.73 411.74
  Z
  M 315.02 403.07
  L 314.84 398.18
  A 0.50 0.50 0.0 0 0 313.84 398.20
  L 313.79 403.93
  A 0.84 0.83 88.1 0 0 314.68 404.77
  L 363.56 401.72
  A 0.63 0.63 0.0 0 0 364.16 401.08
  L 364.08 396.06
  Q 364.07 395.84 363.85 395.84
  Q 363.65 395.83 363.46 395.82
  A 0.33 0.33 0.0 0 0 363.11 396.15
  L 363.10 399.99
  Q 363.09 400.58 362.50 400.62
  L 315.56 403.56
  A 0.51 0.51 0.0 0 1 315.02 403.07
  Z"
/>
<path fill="#60513a" fill-opacity="0.996" d="
  M 193.88 419.49
  L 149.68 366.80
  A 0.34 0.34 0.0 0 1 149.73 366.31
  L 168.12 352.36
  A 0.34 0.34 0.0 0 1 168.63 352.47
  L 200.62 413.02
  A 0.34 0.34 0.0 0 1 200.56 413.42
  L 194.38 419.51
  A 0.34 0.34 0.0 0 1 193.88 419.49
  Z
  M 193.85 417.59
  A 0.60 0.60 0.0 0 0 194.73 417.63
  L 198.96 413.38
  A 0.60 0.60 0.0 0 0 199.06 412.68
  L 168.40 354.55
  A 0.60 0.60 0.0 0 0 167.51 354.35
  L 151.60 366.35
  A 0.60 0.60 0.0 0 0 151.50 367.21
  L 193.85 417.59
  Z"
/>
<path fill="#f8bf58" d="
  M 193.85 417.59
  L 151.50 367.21
  A 0.60 0.60 0.0 0 1 151.60 366.35
  L 167.51 354.35
  A 0.60 0.60 0.0 0 1 168.40 354.55
  L 199.06 412.68
  A 0.60 0.60 0.0 0 1 198.96 413.38
  L 194.73 417.63
  A 0.60 0.60 0.0 0 1 193.85 417.59
  Z"
/>
<path fill="#60513a" fill-opacity="0.996" d="
  M 180.23 453.97
  L 108.97 403.54
  A 0.35 0.35 0.0 0 1 108.90 403.03
  L 126.77 381.66
  A 0.35 0.35 0.0 0 1 127.30 381.64
  L 187.50 446.63
  A 0.35 0.35 0.0 0 1 187.49 447.12
  L 180.68 453.93
  A 0.35 0.35 0.0 0 1 180.23 453.97
  Z
  M 179.88 452.24
  A 0.79 0.79 0.0 0 0 180.90 452.14
  L 185.49 447.42
  A 0.79 0.79 0.0 0 0 185.50 446.33
  L 127.72 383.75
  A 0.79 0.79 0.0 0 0 126.53 383.78
  L 110.93 402.47
  A 0.79 0.79 0.0 0 0 111.08 403.62
  L 179.88 452.24
  Z"
/>
<path fill="#f8bf58" d="
  M 179.88 452.24
  L 111.08 403.62
  A 0.79 0.79 0.0 0 1 110.93 402.47
  L 126.53 383.78
  A 0.79 0.79 0.0 0 1 127.72 383.75
  L 185.50 446.33
  A 0.79 0.79 0.0 0 1 185.49 447.42
  L 180.90 452.14
  A 0.79 0.79 0.0 0 1 179.88 452.24
  Z"
/>
<path fill="#60513a" fill-opacity="0.996" d="
  M 315.56 403.56
  L 362.50 400.62
  Q 363.09 400.58 363.10 399.99
  L 363.11 396.15
  A 0.33 0.33 0.0 0 1 363.46 395.82
  Q 363.65 395.83 363.85 395.84
  Q 364.07 395.84 364.08 396.06
  L 364.16 401.08
  A 0.63 0.63 0.0 0 1 363.56 401.72
  L 314.68 404.77
  A 0.84 0.83 88.1 0 1 313.79 403.93
  L 313.84 398.20
  A 0.50 0.50 0.0 0 1 314.84 398.18
  L 315.02 403.07
  A 0.51 0.51 0.0 0 0 315.56 403.56
  Z"
/>
<path fill="#f0e1c1" d="
  M 472.77 518.22
  Q 472.73 518.26 472.71 518.29
  Q 472.68 518.34 472.67 518.25
  Q 470.87 492.72 468.48 467.24
  A 0.59 0.58 87.8 0 0 467.91 466.71
  Q 455.73 466.70 443.59 466.67
  Q 440.23 466.66 437.04 465.64
  Q 420.66 460.39 404.42 455.32
  A 0.66 0.66 0.0 0 1 404.08 454.32
  C 417.37 435.17 438.40 420.14 462.27 419.13
  C 483.85 418.22 504.13 428.57 520.75 441.44
  Q 521.16 441.76 521.66 441.60
  Q 549.72 432.67 567.85 454.59
  Q 568.18 454.99 568.66 454.78
  Q 587.02 446.86 597.51 463.20
  Q 597.81 463.66 598.34 463.52
  C 624.73 456.28 644.93 466.52 656.50 490.61
  Q 656.73 491.08 657.22 490.92
  C 677.79 483.92 707.76 484.78 708.19 514.50
  C 708.51 536.61 669.92 529.95 658.00 527.45
  A 1.80 1.78 -49.4 0 0 657.02 527.53
  Q 650.68 529.99 648.77 530.49
  Q 615.33 539.27 594.91 512.87
  A 0.71 0.70 -43.4 0 0 593.81 512.84
  C 583.31 525.32 567.28 530.63 557.78 512.86
  Q 557.53 512.39 557.02 512.55
  Q 553.81 513.59 550.70 514.47
  Q 539.92 517.54 531.75 515.25
  C 519.66 511.87 514.69 502.70 511.67 491.46
  A 0.25 0.25 0.0 0 0 511.18 491.47
  C 508.13 505.01 502.40 520.00 492.23 529.95
  Q 485.86 536.20 476.07 536.14
  A 2.01 2.00 86.9 0 1 474.09 534.36
  Q 473.17 526.30 472.80 518.26
  A 0.03 0.02 79.9 0 0 472.77 518.22
  Z"
/>
<path fill="#f0e1c1" d="
  M 371.69 435.42
  L 340.98 442.50
  A 1.47 1.44 9.8 0 0 340.08 443.12
  L 336.82 448.10
  A 0.41 0.40 44.7 0 1 336.15 448.10
  L 332.73 443.07
  Q 332.45 442.66 331.96 442.55
  L 301.91 435.65
  A 1.51 1.51 0.0 0 1 300.74 434.19
  L 300.71 424.51
  A 0.43 0.43 0.0 0 1 301.34 424.13
  Q 314.13 430.68 326.57 437.12
  Q 328.61 438.17 330.91 438.19
  Q 336.48 438.23 342.03 438.22
  Q 344.25 438.21 346.24 437.19
  Q 358.93 430.69 371.53 424.17
  A 0.51 0.50 -13.9 0 1 372.27 424.61
  L 372.34 434.59
  Q 372.34 435.27 371.69 435.42
  Z"
/>
<path fill="#5b606d" d="
  M 323.66 467.25
  Q 308.12 457.94 292.82 448.60
  A 1.89 1.89 0.0 0 1 291.92 446.97
  Q 292.01 441.33 293.58 435.90
  A 1.33 1.33 0.0 0 1 295.19 434.98
  Q 313.17 439.62 330.12 443.69
  C 332.28 444.21 333.45 445.65 333.84 447.69
  Q 333.99 448.44 333.25 448.25
  L 330.83 447.62
  A 0.96 0.95 -82.6 0 0 329.63 448.55
  Q 329.66 455.31 329.86 461.72
  C 329.96 464.95 328.85 466.02 326.25 467.45
  Q 324.91 468.19 324.07 467.55
  Q 323.72 467.28 323.66 467.25
  Z"
/>
<path fill="#5b606d" d="
  M 348.23 442.40
  Q 358.19 439.82 368.23 437.50
  C 370.59 436.96 374.84 435.40 378.37 434.95
  A 0.71 0.70 -8.4 0 1 379.16 435.53
  L 381.15 447.38
  A 0.80 0.79 69.8 0 1 380.77 448.21
  Q 365.78 457.09 351.07 466.27
  C 348.52 467.87 346.22 468.73 344.24 466.11
  Q 343.46 465.08 343.42 463.14
  Q 343.25 455.78 343.03 448.38
  A 0.66 0.65 84.2 0 0 342.27 447.76
  L 339.75 448.15
  A 0.87 0.87 0.0 0 1 338.87 446.84
  C 341.52 442.47 344.21 443.43 348.23 442.40
  Z"
/>
<path fill="#60513a" fill-opacity="0.996" d="
  M 171.18 484.27
  L 91.19 466.68
  A 0.42 0.42 0.0 0 1 90.86 466.25
  L 92.04 440.91
  A 0.42 0.42 0.0 0 1 92.62 440.54
  L 175.59 474.00
  A 0.42 0.42 0.0 0 1 175.82 474.56
  L 171.66 484.02
  A 0.42 0.42 0.0 0 1 171.18 484.27
  Z
  M 170.35 482.85
  A 0.57 0.57 0.0 0 0 171.00 482.52
  L 174.15 475.37
  A 0.57 0.57 0.0 0 0 173.84 474.61
  L 94.15 442.48
  A 0.57 0.57 0.0 0 0 93.37 442.98
  L 91.90 465.11
  A 0.57 0.57 0.0 0 0 92.35 465.71
  L 170.35 482.85
  Z"
/>
<path fill="#f8bf58" d="
  M 170.35 482.85
  L 92.35 465.71
  A 0.57 0.57 0.0 0 1 91.90 465.11
  L 93.37 442.98
  A 0.57 0.57 0.0 0 1 94.15 442.48
  L 173.84 474.61
  A 0.57 0.57 0.0 0 1 174.15 475.37
  L 171.00 482.52
  A 0.57 0.57 0.0 0 1 170.35 482.85
  Z"
/>
<path fill="#5b606d" d="
  M 335.43 464.25
  C 335.66 462.60 335.77 459.90 336.30 457.83
  A 0.29 0.28 50.0 0 1 336.86 457.88
  C 337.47 465.01 339.01 471.90 338.99 479.08
  Q 338.97 485.42 339.39 489.40
  Q 340.34 498.18 340.87 507.00
  Q 340.95 508.29 341.66 515.48
  C 342.04 519.28 341.85 523.16 342.33 526.82
  Q 344.07 540.12 344.95 553.50
  C 345.12 555.99 345.97 558.97 345.91 561.50
  Q 345.78 567.22 346.18 571.02
  Q 346.89 577.77 347.58 584.51
  Q 348.13 589.85 348.64 598.01
  Q 349.33 608.99 350.56 619.91
  Q 351.67 629.69 352.13 636.41
  Q 352.68 644.67 353.26 652.92
  A 0.77 0.76 -2.1 0 1 352.49 653.74
  L 320.52 653.80
  A 0.64 0.64 0.0 0 1 319.88 653.12
  Q 321.06 634.30 322.93 615.44
  Q 323.87 605.99 324.61 595.52
  Q 325.53 582.41 326.88 569.32
  Q 327.74 560.93 328.42 550.64
  Q 329.04 541.28 330.01 531.94
  Q 331.20 520.52 331.72 512.01
  Q 332.75 495.47 333.65 489.00
  Q 334.42 483.54 334.09 479.75
  Q 333.78 476.17 335.43 464.25
  Z"
/>
<path fill="#e2c99a" d="
  M 510.66 534.09
  C 504.06 546.17 497.08 557.05 480.65 556.89
  Q 480.18 556.89 479.81 556.60
  Q 478.03 555.23 476.72 553.47
  Q 475.53 551.86 475.31 549.22
  Q 474.85 543.46 474.34 537.73
  Q 474.29 537.16 474.86 537.23
  C 487.02 538.58 495.25 531.11 500.86 521.35
  Q 507.79 509.29 511.04 496.83
  Q 511.47 495.18 512.02 496.79
  C 516.86 510.92 526.52 517.81 541.24 517.34
  Q 548.85 517.10 556.13 514.38
  A 1.00 0.99 65.1 0 1 557.34 514.83
  C 566.99 532.23 583.08 526.10 594.06 514.77
  A 0.53 0.52 -41.7 0 1 594.86 514.81
  C 610.33 534.85 633.81 538.15 656.35 529.07
  Q 656.89 528.85 658.62 528.96
  Q 659.56 529.01 660.88 529.29
  C 672.44 531.68 686.73 533.10 698.15 529.33
  A 0.55 0.55 0.0 0 1 698.77 530.16
  C 681.51 555.28 650.12 552.65 625.20 543.42
  C 620.52 541.69 616.87 543.36 612.27 542.62
  Q 599.62 540.60 596.74 527.73
  Q 596.56 526.92 596.29 527.70
  C 592.02 540.45 582.78 550.75 568.26 548.65
  Q 557.49 547.09 547.49 539.32
  Q 547.05 538.98 546.53 539.18
  Q 544.69 539.91 542.95 540.62
  C 531.51 545.30 519.66 542.68 511.23 534.01
  Q 510.89 533.66 510.66 534.09
  Z"
/>
<path fill="#60513a" fill-opacity="0.996" d="
  M 170.75 511.43
  L 118.50 516.03
  A 0.45 0.45 0.0 0 1 118.02 515.68
  L 114.48 498.80
  A 0.45 0.45 0.0 0 1 114.95 498.26
  L 172.08 501.90
  A 0.45 0.45 0.0 0 1 172.49 502.42
  L 171.15 511.05
  A 0.45 0.45 0.0 0 1 170.75 511.43
  Z
  M 169.50 510.58
  A 0.43 0.43 0.0 0 0 169.89 510.23
  L 171.14 503.53
  A 0.43 0.43 0.0 0 0 170.75 503.02
  L 116.50 499.61
  A 0.43 0.43 0.0 0 0 116.05 500.12
  L 118.87 514.13
  A 0.43 0.43 0.0 0 0 119.33 514.47
  L 169.50 510.58
  Z"
/>
<path fill="#f8bf58" d="
  M 169.50 510.58
  L 119.33 514.47
  A 0.43 0.43 0.0 0 1 118.87 514.13
  L 116.05 500.12
  A 0.43 0.43 0.0 0 1 116.50 499.61
  L 170.75 503.02
  A 0.43 0.43 0.0 0 1 171.14 503.53
  L 169.89 510.23
  A 0.43 0.43 0.0 0 1 169.50 510.58
  Z"
/>
<path fill="#e3d6c7" d="
  M 645.72 558.80
  Q 643.54 557.60 642.73 559.06
  Q 620.71 574.16 594.50 566.52
  Q 582.36 562.98 572.14 555.76
  A 1.03 1.03 0.0 0 0 571.01 555.72
  C 558.99 562.92 544.86 559.64 532.92 552.73
  Q 532.44 552.45 532.03 552.82
  Q 514.41 568.49 490.53 567.73
  Q 490.02 567.72 489.67 567.35
  L 481.67 558.83
  Q 481.34 558.48 481.82 558.45
  C 496.22 557.57 504.83 548.96 510.84 536.54
  Q 511.09 536.03 511.52 536.39
  Q 526.94 549.26 545.56 540.93
  Q 546.70 540.42 547.71 541.16
  C 564.56 553.61 586.79 554.62 595.94 532.18
  A 0.43 0.43 0.0 0 1 596.73 532.17
  Q 601.38 542.62 613.03 543.97
  C 616.43 544.37 620.79 543.07 624.58 544.50
  C 640.83 550.64 659.39 553.42 676.44 548.70
  Q 676.78 548.61 676.93 548.92
  Q 677.12 549.32 676.94 549.77
  C 671.57 562.91 657.12 563.53 645.72 558.80
  Z"
/>
<path fill="#f8bf58" d="
  M 191.56 558.75
  L 212.24 611.61
  Q 212.48 612.22 213.00 611.81
  L 257.22 577.46
  Q 257.81 577.00 257.71 577.74
  L 249.17 641.97
  Q 249.09 642.60 249.72 642.51
  L 304.66 635.02
  A 0.23 0.23 0.0 0 1 304.87 635.39
  Q 294.74 648.34 284.34 661.25
  Q 282.80 663.16 280.10 665.11
  C 274.25 669.35 271.82 675.49 269.18 680.82
  Q 268.85 681.49 268.52 680.82
  Q 265.30 674.08 258.27 671.57
  Q 258.12 671.52 258.12 671.36
  L 258.12 671.06
  Q 258.12 670.96 258.22 670.99
  C 261.95 672.08 271.30 671.47 269.89 665.44
  Q 267.65 655.83 257.78 653.01
  C 245.78 649.58 232.33 656.39 233.22 670.23
  Q 233.58 675.82 238.73 680.62
  Q 239.21 681.06 238.57 680.91
  Q 233.88 679.79 231.00 682.82
  Q 229.99 683.88 229.83 682.43
  Q 228.51 670.19 225.70 658.47
  C 224.61 653.95 224.28 650.30 219.61 648.41
  C 215.18 646.61 203.03 645.00 199.98 650.14
  Q 188.72 669.12 183.74 688.02
  C 183.17 690.19 184.79 691.65 186.84 692.23
  Q 193.49 694.12 196.00 694.08
  C 198.84 694.03 201.72 688.60 203.28 686.37
  A 0.88 0.88 0.0 0 1 204.10 686.00
  L 209.38 686.62
  A 2.15 2.14 88.2 0 1 211.25 688.38
  C 211.73 691.15 211.70 696.65 215.35 697.37
  Q 220.98 698.49 227.75 698.28
  C 231.53 698.16 231.43 695.40 231.36 692.58
  Q 231.34 691.60 231.82 692.45
  C 239.83 706.46 265.60 707.34 269.64 689.57
  A 0.30 0.30 0.0 0 1 270.20 689.51
  Q 270.68 690.59 270.53 691.76
  A 2.21 2.20 38.0 0 0 270.66 692.79
  Q 278.53 712.74 300.73 710.08
  Q 304.06 709.68 310.11 705.83
  A 1.04 1.04 0.0 0 1 311.06 705.74
  L 317.28 708.18
  Q 318.18 708.53 317.26 708.84
  Q 297.22 715.60 277.19 722.19
  C 271.61 724.03 267.88 721.39 262.12 725.18
  Q 252.38 731.60 245.73 738.96
  C 241.82 743.29 242.40 749.61 242.53 754.96
  A 2.84 2.83 4.3 0 0 244.88 757.69
  L 256.57 759.71
  Q 256.99 759.78 256.94 760.20
  C 256.55 763.83 255.25 768.97 259.61 770.81
  Q 265.59 773.34 272.06 772.05
  Q 272.54 771.96 272.77 771.52
  Q 274.91 767.44 275.62 762.88
  Q 275.71 762.28 276.32 762.29
  L 278.92 762.31
  Q 279.51 762.32 279.85 762.80
  L 290.59 778.15
  Q 290.97 778.70 290.31 778.60
  L 226.51 769.33
  Q 226.04 769.27 226.10 769.74
  L 230.55 804.95
  L 233.20 826.47
  Q 233.28 827.08 232.80 826.69
  L 182.88 785.90
  Q 181.72 784.95 181.13 786.33
  L 158.68 838.59
  Q 158.36 839.35 158.08 838.58
  L 135.56 777.52
  Q 135.34 776.91 134.82 777.29
  L 88.95 811.28
  Q 88.25 811.79 88.39 810.93
  L 98.99 746.03
  A 0.40 0.39 0.5 0 0 98.54 745.58
  L 42.06 753.12
  Q 41.57 753.19 41.88 752.80
  L 54.81 736.96
  Q 71.27 741.82 88.52 743.20
  C 94.05 743.64 93.98 734.89 93.29 731.02
  C 92.71 727.71 92.01 726.84 88.51 726.42
  Q 84.97 725.99 81.48 725.63
  A 0.13 0.13 0.0 0 1 81.46 725.37
  C 84.59 724.44 88.07 724.53 90.70 723.10
  C 97.85 719.22 99.27 709.94 96.23 703.06
  C 91.69 692.75 78.41 688.64 68.53 694.43
  Q 66.95 695.35 65.44 696.10
  L 30.47 679.80
  A 0.22 0.22 0.0 0 1 30.48 679.39
  L 62.35 666.48
  C 63.33 668.10 63.44 671.71 65.50 672.21
  C 68.89 673.03 77.70 674.58 81.14 672.57
  Q 81.61 672.30 81.71 672.84
  Q 82.04 674.75 84.01 675.21
  Q 88.92 676.35 93.92 676.96
  C 97.28 677.37 100.58 676.99 100.35 672.80
  A 0.70 0.69 -71.5 0 1 101.49 672.23
  C 103.97 674.32 109.21 679.41 112.32 679.72
  C 115.88 680.08 121.31 673.59 123.09 670.84
  Q 123.59 670.06 123.49 670.98
  C 123.05 674.78 120.90 680.96 126.64 682.26
  Q 130.85 683.22 135.15 683.73
  C 137.69 684.03 139.17 684.72 140.44 681.77
  Q 142.61 676.76 143.65 671.20
  Q 143.80 670.39 144.26 671.08
  C 146.24 674.08 150.47 681.84 154.56 680.42
  Q 157.17 679.51 164.10 674.06
  Q 164.81 673.50 164.68 674.39
  Q 163.82 680.30 163.98 684.74
  C 164.14 688.89 166.81 688.87 170.59 689.63
  Q 175.40 690.60 179.97 690.23
  A 2.05 2.04 5.4 0 0 181.79 688.73
  Q 187.54 668.08 188.92 646.24
  C 189.26 640.95 175.28 640.47 171.72 640.72
  C 168.05 640.98 160.09 650.18 157.57 653.03
  Q 157.25 653.39 157.07 652.94
  Q 154.02 645.06 149.59 637.84
  A 1.85 1.83 -1.7 0 0 148.85 637.15
  Q 141.26 633.30 132.70 633.94
  C 130.69 634.09 129.57 635.46 129.13 637.24
  Q 125.67 651.30 123.67 667.89
  Q 123.64 668.13 123.51 667.93
  L 118.47 660.27
  Q 118.18 659.83 118.50 659.41
  Q 123.89 652.26 122.55 643.92
  C 120.05 628.34 100.41 624.45 87.98 627.84
  Q 87.47 627.97 87.20 628.43
  C 84.76 632.50 84.24 640.27 83.49 645.12
  L 77.71 637.63
  Q 77.35 635.35 76.67 632.85
  Q 75.55 628.67 75.34 628.15
  Q 73.21 622.79 65.84 622.13
  L 57.00 610.40
  Q 56.58 609.85 57.27 609.95
  L 121.55 619.18
  Q 122.10 619.25 122.02 618.71
  L 114.51 562.03
  Q 114.42 561.36 114.95 561.78
  L 166.27 603.18
  A 0.44 0.44 0.0 0 0 166.96 603.00
  L 187.74 550.51
  Q 187.98 549.90 188.23 550.51
  L 191.56 558.75
  Z
  M 154.71 745.24
  C 164.15 732.41 165.37 706.28 144.81 702.75
  C 137.45 701.48 129.42 702.39 124.85 708.64
  C 118.65 717.13 116.40 730.62 120.61 740.12
  Q 125.73 751.65 141.02 751.68
  Q 149.97 751.69 154.71 745.24
  Z
  M 195.03 732.46
  Q 180.37 737.13 179.76 753.06
  C 179.66 755.67 179.33 757.45 182.26 758.09
  Q 196.59 761.25 211.19 763.01
  C 215.20 763.49 216.83 762.51 217.29 758.46
  C 217.70 754.96 218.73 747.38 214.25 746.69
  Q 209.81 746.00 205.48 745.82
  A 0.21 0.21 0.0 0 1 205.44 745.41
  C 208.58 744.52 212.02 744.58 214.67 743.11
  Q 223.06 738.43 221.88 728.39
  C 220.81 719.23 214.09 713.26 205.05 712.09
  Q 192.80 710.51 185.72 721.72
  C 181.64 728.17 190.10 731.13 194.96 731.69
  Q 196.78 731.90 195.03 732.46
  Z"
/>
<path fill="#60513a" fill-opacity="0.996" d="
  M 645.72 558.80
  L 642.73 559.06
  Q 643.54 557.60 645.72 558.80
  Z"
/>
<path fill="#60513a" fill-opacity="0.996" d="
  M 65.84 622.13
  Q 73.21 622.79 75.34 628.15
  Q 75.55 628.67 76.67 632.85
  Q 77.35 635.35 77.71 637.63
  L 81.43 657.85
  A 0.45 0.45 0.0 0 0 82.33 657.81
  L 83.49 645.12
  C 84.24 640.27 84.76 632.50 87.20 628.43
  Q 87.47 627.97 87.98 627.84
  C 100.41 624.45 120.05 628.34 122.55 643.92
  Q 123.89 652.26 118.50 659.41
  Q 118.18 659.83 118.47 660.27
  L 123.51 667.93
  Q 123.64 668.13 123.67 667.89
  Q 125.67 651.30 129.13 637.24
  C 129.57 635.46 130.69 634.09 132.70 633.94
  Q 141.26 633.30 148.85 637.15
  A 1.85 1.83 -1.7 0 1 149.59 637.84
  Q 154.02 645.06 157.07 652.94
  Q 157.25 653.39 157.57 653.03
  C 160.09 650.18 168.05 640.98 171.72 640.72
  C 175.28 640.47 189.26 640.95 188.92 646.24
  Q 187.54 668.08 181.79 688.73
  A 2.05 2.04 5.4 0 1 179.97 690.23
  Q 175.40 690.60 170.59 689.63
  C 166.81 688.87 164.14 688.89 163.98 684.74
  Q 163.82 680.30 164.68 674.39
  Q 164.81 673.50 164.10 674.06
  Q 157.17 679.51 154.56 680.42
  C 150.47 681.84 146.24 674.08 144.26 671.08
  Q 143.80 670.39 143.65 671.20
  Q 142.61 676.76 140.44 681.77
  C 139.17 684.72 137.69 684.03 135.15 683.73
  Q 130.85 683.22 126.64 682.26
  C 120.90 680.96 123.05 674.78 123.49 670.98
  Q 123.59 670.06 123.09 670.84
  C 121.31 673.59 115.88 680.08 112.32 679.72
  C 109.21 679.41 103.97 674.32 101.49 672.23
  A 0.70 0.69 -71.5 0 0 100.35 672.80
  C 100.58 676.99 97.28 677.37 93.92 676.96
  Q 88.92 676.35 84.01 675.21
  Q 82.04 674.75 81.71 672.84
  Q 81.61 672.30 81.14 672.57
  C 77.70 674.58 68.89 673.03 65.50 672.21
  C 63.44 671.71 63.33 668.10 62.35 666.48
  Q 62.61 664.43 61.43 662.56
  Q 61.14 662.10 60.60 662.02
  L 55.30 661.23
  Q 54.75 661.14 54.42 661.60
  L 50.12 667.57
  A 3.95 3.94 -68.2 0 1 46.37 669.18
  Q 42.09 668.60 37.22 667.41
  C 32.67 666.31 34.99 660.44 35.98 657.51
  Q 41.79 640.21 50.51 625.27
  C 51.69 623.24 53.45 621.95 55.91 621.66
  Q 60.71 621.09 65.84 622.13
  Z
  M 56.36 659.94
  C 58.05 660.27 61.08 660.35 62.28 661.54
  C 63.80 663.03 63.98 667.97 64.78 670.02
  A 2.29 2.28 83.1 0 0 66.60 671.46
  C 70.19 671.93 77.48 673.42 80.58 671.64
  Q 81.03 671.38 81.06 670.87
  Q 81.24 668.20 80.81 664.76
  Q 79.01 650.15 76.99 639.53
  C 75.92 633.95 74.93 625.81 69.98 624.38
  Q 64.12 622.69 57.99 622.81
  C 55.35 622.86 53.15 623.59 51.69 626.05
  Q 41.52 643.20 35.89 662.36
  C 35.36 664.16 35.86 665.54 37.67 666.06
  Q 42.30 667.39 47.26 667.68
  A 1.10 1.07 -65.6 0 0 48.10 667.35
  Q 50.94 664.38 53.23 661.18
  Q 54.39 659.54 56.36 659.94
  Z
  M 116.71 659.25
  C 122.13 655.09 122.77 646.85 120.81 640.93
  C 117.35 630.47 102.82 626.79 93.13 628.09
  C 87.32 628.86 87.45 629.18 86.34 635.18
  Q 82.92 653.74 82.42 672.01
  A 2.48 2.48 0.0 0 0 84.55 674.53
  L 96.41 676.18
  A 1.31 1.29 32.5 0 0 97.26 676.00
  Q 99.35 674.72 99.49 672.21
  A 1.42 1.42 0.0 0 1 101.78 671.16
  C 104.93 673.62 109.23 678.19 112.87 678.86
  A 1.28 1.24 -55.9 0 0 113.82 678.66
  C 116.54 676.78 121.46 672.67 122.75 669.01
  A 0.81 0.80 37.6 0 0 122.65 668.26
  L 116.63 659.78
  A 0.39 0.38 -36.9 0 1 116.71 659.25
  Z
  M 143.82 669.17
  C 146.45 672.46 148.83 677.43 152.34 679.58
  A 2.29 2.29 0.0 0 0 154.84 679.51
  L 165.16 672.36
  A 0.37 0.37 0.0 0 1 165.73 672.71
  Q 164.92 678.49 164.77 684.49
  Q 164.69 687.54 167.76 688.20
  Q 173.37 689.42 178.75 689.65
  A 2.48 2.48 0.0 0 0 181.26 687.81
  Q 186.58 667.89 188.14 647.10
  C 188.27 645.28 187.70 644.13 186.01 643.55
  C 181.71 642.07 172.20 639.95 168.81 643.04
  Q 162.78 648.52 157.48 654.63
  A 0.41 0.41 0.0 0 1 156.79 654.52
  Q 153.90 647.34 150.23 640.55
  C 147.46 635.42 137.31 634.63 132.52 635.07
  A 2.60 2.59 4.0 0 0 130.23 637.05
  Q 125.42 657.00 123.69 677.49
  Q 123.47 680.19 125.48 680.76
  Q 131.47 682.49 137.42 683.20
  A 2.21 2.21 0.0 0 0 139.81 681.63
  L 143.47 669.23
  Q 143.58 668.87 143.82 669.17
  Z"
/>
<path fill="#62abb1" d="
  M 56.36 659.94
  Q 54.39 659.54 53.23 661.18
  Q 50.94 664.38 48.10 667.35
  A 1.10 1.07 -65.6 0 1 47.26 667.68
  Q 42.30 667.39 37.67 666.06
  C 35.86 665.54 35.36 664.16 35.89 662.36
  Q 41.52 643.20 51.69 626.05
  C 53.15 623.59 55.35 622.86 57.99 622.81
  Q 64.12 622.69 69.98 624.38
  C 74.93 625.81 75.92 633.95 76.99 639.53
  Q 79.01 650.15 80.81 664.76
  Q 81.24 668.20 81.06 670.87
  Q 81.03 671.38 80.58 671.64
  C 77.48 673.42 70.19 671.93 66.60 671.46
  A 2.29 2.28 83.1 0 1 64.78 670.02
  C 63.98 667.97 63.80 663.03 62.28 661.54
  C 61.08 660.35 58.05 660.27 56.36 659.94
  Z
  M 63.48 649.42
  A 1.64 1.64 0.0 0 0 64.23 647.35
  L 62.39 642.87
  A 1.64 1.64 0.0 0 0 59.49 642.61
  L 56.78 646.82
  A 1.64 1.64 0.0 0 0 57.90 649.33
  L 61.76 649.95
  A 1.64 1.64 0.0 0 0 62.78 649.79
  L 63.48 649.42
  Z"
/>
<path fill="#62abb1" d="
  M 116.71 659.25
  A 0.39 0.38 -36.9 0 0 116.63 659.78
  L 122.65 668.26
  A 0.81 0.80 37.6 0 1 122.75 669.01
  C 121.46 672.67 116.54 676.78 113.82 678.66
  A 1.28 1.24 -55.9 0 1 112.87 678.86
  C 109.23 678.19 104.93 673.62 101.78 671.16
  A 1.42 1.42 0.0 0 0 99.49 672.21
  Q 99.35 674.72 97.26 676.00
  A 1.31 1.29 32.5 0 1 96.41 676.18
  L 84.55 674.53
  A 2.48 2.48 0.0 0 1 82.42 672.01
  Q 82.92 653.74 86.34 635.18
  C 87.45 629.18 87.32 628.86 93.13 628.09
  C 102.82 626.79 117.35 630.47 120.81 640.93
  C 122.77 646.85 122.13 655.09 116.71 659.25
  Z
  M 99.47 644.75
  L 99.49 649.15
  A 1.78 1.78 0.0 0 0 101.27 650.93
  L 102.37 650.92
  A 4.66 3.91 -0.2 0 0 107.02 647.00
  L 107.02 646.86
  A 4.66 3.91 -0.2 0 0 102.35 642.96
  L 101.25 642.97
  A 1.78 1.78 0.0 0 0 99.47 644.75
  Z"
/>
<path fill="#62abb1" d="
  M 143.47 669.23
  L 139.81 681.63
  A 2.21 2.21 0.0 0 1 137.42 683.20
  Q 131.47 682.49 125.48 680.76
  Q 123.47 680.19 123.69 677.49
  Q 125.42 657.00 130.23 637.05
  A 2.60 2.59 4.0 0 1 132.52 635.07
  C 137.31 634.63 147.46 635.42 150.23 640.55
  Q 153.90 647.34 156.79 654.52
  A 0.41 0.41 0.0 0 0 157.48 654.63
  Q 162.78 648.52 168.81 643.04
  C 172.20 639.95 181.71 642.07 186.01 643.55
  C 187.70 644.13 188.27 645.28 188.14 647.10
  Q 186.58 667.89 181.26 687.81
  A 2.48 2.48 0.0 0 1 178.75 689.65
  Q 173.37 689.42 167.76 688.20
  Q 164.69 687.54 164.77 684.49
  Q 164.92 678.49 165.73 672.71
  A 0.37 0.37 0.0 0 0 165.16 672.36
  L 154.84 679.51
  A 2.29 2.29 0.0 0 1 152.34 679.58
  C 148.83 677.43 146.45 672.46 143.82 669.17
  Q 143.58 668.87 143.47 669.23
  Z"
/>
<path fill="#ffffff" d="
  M 531.14 724.70
  C 516.57 738.53 511.87 755.59 506.10 773.60
  A 0.32 0.32 0.0 0 1 505.49 773.59
  C 498.67 751.05 493.73 731.35 471.87 718.90
  C 464.17 714.52 452.85 711.15 443.41 707.73
  Q 442.65 707.46 443.42 707.22
  Q 453.42 704.05 463.41 701.08
  C 484.59 694.78 496.15 678.87 501.31 657.97
  L 506.01 641.49
  Q 506.24 640.70 506.45 641.49
  C 512.57 664.48 516.00 683.16 536.90 694.80
  C 544.24 698.89 555.17 701.95 564.21 705.08
  Q 564.87 705.30 564.24 705.61
  C 552.67 711.32 540.80 715.88 531.14 724.70
  Z"
/>
<path fill="#60513a" fill-opacity="0.996" d="
  M 63.48 649.42
  L 62.78 649.79
  A 1.64 1.64 0.0 0 1 61.76 649.95
  L 57.90 649.33
  A 1.64 1.64 0.0 0 1 56.78 646.82
  L 59.49 642.61
  A 1.64 1.64 0.0 0 1 62.39 642.87
  L 64.23 647.35
  A 1.64 1.64 0.0 0 1 63.48 649.42
  Z
  M 61.65 643.85
  A 0.73 0.72 53.2 0 0 60.36 643.66
  L 58.24 646.82
  Q 57.75 647.54 58.50 647.97
  Q 60.30 649.02 62.42 648.45
  Q 63.08 648.27 62.87 647.62
  L 61.65 643.85
  Z"
/>
<path fill="#60513a" fill-opacity="0.996" d="
  M 99.47 644.75
  A 1.78 1.78 0.0 0 1 101.25 642.97
  L 102.35 642.96
  A 4.66 3.91 -0.2 0 1 107.02 646.86
  L 107.02 647.00
  A 4.66 3.91 -0.2 0 1 102.37 650.92
  L 101.27 650.93
  A 1.78 1.78 0.0 0 1 99.49 649.15
  L 99.47 644.75
  Z
  M 100.49 645.11
  L 100.47 648.71
  A 1.11 1.11 0.0 0 0 101.57 649.82
  L 101.87 649.82
  A 4.03 2.82 0.3 0 0 105.92 647.02
  L 105.92 646.84
  A 4.03 2.82 0.3 0 0 101.91 644.00
  L 101.61 644.00
  A 1.11 1.11 0.0 0 0 100.49 645.11
  Z"
/>
<path fill="#f8bf58" d="
  M 100.49 645.11
  A 1.11 1.11 0.0 0 1 101.61 644.00
  L 101.91 644.00
  A 4.03 2.82 0.3 0 1 105.92 646.84
  L 105.92 647.02
  A 4.03 2.82 0.3 0 1 101.87 649.82
  L 101.57 649.82
  A 1.11 1.11 0.0 0 1 100.47 648.71
  L 100.49 645.11
  Z"
/>
<path fill="#62abb1" d="
  M 184.88 687.50
  C 188.14 674.72 194.19 661.47 200.86 650.37
  C 203.51 645.95 216.48 648.26 219.78 649.50
  Q 222.62 650.56 223.63 654.62
  Q 228.20 672.86 230.17 694.00
  C 230.44 696.94 228.99 697.52 226.35 697.42
  Q 221.21 697.24 216.16 696.54
  A 3.32 3.31 88.1 0 1 213.37 693.92
  L 212.07 687.59
  A 2.10 2.10 0.0 0 0 210.38 685.95
  L 204.60 684.94
  A 2.28 2.28 0.0 0 0 202.31 685.91
  L 198.44 691.61
  A 3.43 3.41 -68.1 0 1 195.07 693.06
  Q 190.78 692.35 186.89 691.28
  Q 184.11 690.52 184.88 687.50
  Z
  M 212.95 673.95
  A 1.69 1.69 0.0 0 0 213.23 672.25
  L 211.51 667.81
  A 1.69 1.69 0.0 0 0 208.50 667.53
  L 205.90 671.68
  A 1.69 1.69 0.0 0 0 206.96 674.23
  L 210.79 675.09
  A 1.69 1.69 0.0 0 0 212.45 674.53
  L 212.95 673.95
  Z"
/>
<path fill="#60513a" fill-opacity="0.996" d="
  M 645.78 673.33
  L 583.93 702.98
  A 0.43 0.43 0.0 0 1 583.34 702.74
  L 580.34 694.84
  A 0.43 0.43 0.0 0 1 580.48 694.35
  L 634.42 652.46
  A 0.43 0.43 0.0 0 1 635.06 652.60
  L 645.97 672.73
  A 0.43 0.43 0.0 0 1 645.78 673.33
  Z
  M 644.08 672.86
  A 0.52 0.52 0.0 0 0 644.32 672.14
  L 634.68 654.51
  A 0.52 0.52 0.0 0 0 633.91 654.35
  L 581.91 694.77
  A 0.52 0.52 0.0 0 0 581.75 695.37
  L 583.99 700.97
  A 0.52 0.52 0.0 0 0 584.70 701.24
  L 644.08 672.86
  Z"
/>
<path fill="#62abb1" d="
  M 249.55 669.11
  C 254.63 671.42 261.90 673.13 265.65 678.61
  C 269.62 684.43 269.15 692.20 263.95 696.98
  C 253.09 706.96 233.76 700.89 230.81 686.38
  C 230.42 684.46 231.72 683.13 233.50 682.55
  Q 240.34 680.33 246.50 684.23
  Q 246.93 684.50 247.03 685.01
  C 247.46 687.19 249.77 688.64 251.61 687.23
  A 1.48 1.48 0.0 0 0 251.31 684.71
  C 246.94 682.78 241.00 681.16 237.97 678.32
  C 232.87 673.55 233.43 664.66 237.53 659.60
  C 245.85 649.31 265.15 651.99 268.52 665.47
  C 269.89 670.94 258.42 670.73 255.69 670.24
  Q 255.25 670.16 255.08 669.74
  L 254.29 667.76
  A 1.21 1.19 -2.0 0 0 253.52 667.05
  Q 251.16 666.33 249.37 668.11
  A 0.62 0.62 0.0 0 0 249.55 669.11
  Z"
/>
<path fill="#f8bf58" d="
  M 644.08 672.86
  L 584.70 701.24
  A 0.52 0.52 0.0 0 1 583.99 700.97
  L 581.75 695.37
  A 0.52 0.52 0.0 0 1 581.91 694.77
  L 633.91 654.35
  A 0.52 0.52 0.0 0 1 634.68 654.51
  L 644.32 672.14
  A 0.52 0.52 0.0 0 1 644.08 672.86
  Z"
/>
<path fill="#62abb1" d="
  M 319.34 685.43
  A 24.08 23.73 0.0 0 1 295.26 709.16
  A 24.08 23.73 0.0 0 1 271.18 685.43
  A 24.08 23.73 0.0 0 1 295.26 661.70
  A 24.08 23.73 0.0 0 1 319.34 685.43
  Z
  M 301.31 685.47
  A 6.12 6.12 0.0 0 0 295.19 679.35
  A 6.12 6.12 0.0 0 0 289.07 685.47
  A 6.12 6.12 0.0 0 0 295.19 691.59
  A 6.12 6.12 0.0 0 0 301.31 685.47
  Z"
/>
<path fill="#60513a" fill-opacity="0.996" d="
  M 212.95 673.95
  L 212.45 674.53
  A 1.69 1.69 0.0 0 1 210.79 675.09
  L 206.96 674.23
  A 1.69 1.69 0.0 0 1 205.90 671.68
  L 208.50 667.53
  A 1.69 1.69 0.0 0 1 211.51 667.81
  L 213.23 672.25
  A 1.69 1.69 0.0 0 1 212.95 673.95
  Z
  M 211.11 673.87
  A 0.94 0.94 0.0 0 0 212.12 672.63
  L 210.79 668.76
  A 0.94 0.94 0.0 0 0 209.11 668.55
  L 206.90 671.96
  A 0.94 0.94 0.0 0 0 207.57 673.40
  L 211.11 673.87
  Z"
/>
<path fill="#f8bf58" d="
  M 250.96 668.54
  A 0.18 0.17 39.8 0 1 250.93 668.23
  C 252.11 667.48 253.45 667.93 253.76 669.30
  Q 253.90 669.88 253.35 669.63
  L 250.96 668.54
  Z"
/>
<path fill="#f8bf58" d="
  M 211.11 673.87
  L 207.57 673.40
  A 0.94 0.94 0.0 0 1 206.90 671.96
  L 209.11 668.55
  A 0.94 0.94 0.0 0 1 210.79 668.76
  L 212.12 672.63
  A 0.94 0.94 0.0 0 1 211.11 673.87
  Z"
/>
<circle fill="#4d5360" cx="295.19" cy="685.47" r="6.12"/>
<ellipse fill="#f8bf58" cx="0.00" cy="0.00" transform="translate(249.41,685.78) rotate(33.6)" rx="1.73" ry="0.72"/>
<path fill="#60513a" fill-opacity="0.996" d="
  M 54.81 736.96
  Q 55.53 731.52 56.31 727.90
  Q 58.91 715.79 70.56 712.41
  A 0.37 0.36 38.9 0 0 70.48 711.70
  C 64.90 711.28 56.48 707.67 62.06 700.49
  Q 63.72 698.35 65.44 696.10
  Q 66.95 695.35 68.53 694.43
  C 78.41 688.64 91.69 692.75 96.23 703.06
  C 99.27 709.94 97.85 719.22 90.70 723.10
  C 88.07 724.53 84.59 724.44 81.46 725.37
  A 0.13 0.13 0.0 0 0 81.48 725.63
  Q 84.97 725.99 88.51 726.42
  C 92.01 726.84 92.71 727.71 93.29 731.02
  C 93.98 734.89 94.05 743.64 88.52 743.20
  Q 71.27 741.82 54.81 736.96
  Z
  M 79.27 726.51
  Q 75.67 726.28 79.07 725.10
  C 82.81 723.79 87.55 723.65 90.61 721.55
  C 101.52 714.04 96.29 697.68 84.75 694.06
  Q 71.03 689.76 62.91 701.45
  Q 61.39 703.63 61.49 705.85
  A 1.39 1.39 0.0 0 0 61.99 706.85
  Q 67.24 711.21 74.09 710.85
  A 1.32 1.32 0.0 0 0 75.29 709.18
  Q 74.93 707.86 76.75 707.56
  Q 79.13 707.18 80.25 708.64
  A 1.59 1.58 -23.7 0 1 79.26 711.16
  C 65.84 713.49 56.06 720.33 56.51 735.22
  A 1.77 1.76 5.2 0 0 57.91 736.89
  Q 72.72 740.07 88.21 741.77
  C 93.84 742.39 92.36 731.32 91.52 728.83
  A 1.11 1.11 0.0 0 0 90.69 728.09
  Q 85.05 726.87 79.27 726.51
  Z
  M 75.66 710.72
  Q 78.25 710.91 79.22 709.65
  Q 79.58 709.18 79.08 708.87
  Q 78.48 708.49 77.71 708.71
  Q 77.71 708.48 77.63 708.38
  Q 77.55 708.29 77.35 708.36
  Q 76.12 708.83 75.66 710.72
  Z"
/>
<path fill="#62abb1" d="
  M 79.27 726.51
  Q 85.05 726.87 90.69 728.09
  A 1.11 1.11 0.0 0 1 91.52 728.83
  C 92.36 731.32 93.84 742.39 88.21 741.77
  Q 72.72 740.07 57.91 736.89
  A 1.77 1.76 5.2 0 1 56.51 735.22
  C 56.06 720.33 65.84 713.49 79.26 711.16
  A 1.59 1.58 -23.7 0 0 80.25 708.64
  Q 79.13 707.18 76.75 707.56
  Q 74.93 707.86 75.29 709.18
  A 1.32 1.32 0.0 0 1 74.09 710.85
  Q 67.24 711.21 61.99 706.85
  A 1.39 1.39 0.0 0 1 61.49 705.85
  Q 61.39 703.63 62.91 701.45
  Q 71.03 689.76 84.75 694.06
  C 96.29 697.68 101.52 714.04 90.61 721.55
  C 87.55 723.65 82.81 723.79 79.07 725.10
  Q 75.67 726.28 79.27 726.51
  Z"
/>
<path fill="#60513a" fill-opacity="0.996" d="
  M 578.63 730.37
  L 660.08 696.05
  A 0.46 0.46 0.0 0 1 660.70 696.35
  L 668.10 722.97
  A 0.46 0.46 0.0 0 1 667.74 723.54
  L 582.25 740.08
  A 0.46 0.46 0.0 0 1 581.73 739.79
  L 578.38 730.95
  A 0.46 0.46 0.0 0 1 578.63 730.37
  Z
  M 580.37 730.99
  A 0.65 0.65 0.0 0 0 580.01 731.81
  L 582.38 738.27
  A 0.65 0.65 0.0 0 0 583.11 738.69
  L 666.03 722.68
  A 0.65 0.65 0.0 0 0 666.53 721.87
  L 659.95 698.20
  A 0.65 0.65 0.0 0 0 659.07 697.78
  L 580.37 730.99
  Z"
/>
<path fill="#f8bf58" d="
  M 580.37 730.99
  L 659.07 697.78
  A 0.65 0.65 0.0 0 1 659.95 698.20
  L 666.53 721.87
  A 0.65 0.65 0.0 0 1 666.03 722.68
  L 583.11 738.69
  A 0.65 0.65 0.0 0 1 582.38 738.27
  L 580.01 731.81
  A 0.65 0.65 0.0 0 1 580.37 730.99
  Z"
/>
<path fill="#60513a" fill-opacity="0.996" d="
  M 144.81 702.75
  C 165.37 706.28 164.15 732.41 154.71 745.24
  Q 149.97 751.69 141.02 751.68
  Q 125.73 751.65 120.61 740.12
  C 116.40 730.62 118.65 717.13 124.85 708.64
  C 129.42 702.39 137.45 701.48 144.81 702.75
  Z
  M 133.90 703.92
  C 117.99 707.85 113.86 740.35 129.11 747.90
  C 135.41 751.02 147.11 752.27 152.44 746.18
  C 159.93 737.59 162.77 722.63 157.16 712.21
  C 152.73 703.99 142.17 701.87 133.90 703.92
  Z"
/>
<path fill="#62abb1" d="
  M 129.11 747.90
  C 113.86 740.35 117.99 707.85 133.90 703.92
  C 142.17 701.87 152.73 703.99 157.16 712.21
  C 162.77 722.63 159.93 737.59 152.44 746.18
  C 147.11 752.27 135.41 751.02 129.11 747.90
  Z
  M 138.9095 733.6481
  A 6.87 5.79 97.7 0 0 145.5678 727.6158
  A 6.87 5.79 97.7 0 0 140.7505 720.0319
  A 6.87 5.79 97.7 0 0 134.0922 726.0642
  A 6.87 5.79 97.7 0 0 138.9095 733.6481
  Z"
/>
<path fill="#f8bf58" d="
  M 75.66 710.72
  L 77.71 708.71
  Q 78.48 708.49 79.08 708.87
  Q 79.58 709.18 79.22 709.65
  Q 78.25 710.91 75.66 710.72
  Z"
/>
<path fill="#60513a" fill-opacity="0.996" d="
  M 195.03 732.46
  Q 196.78 731.90 194.96 731.69
  C 190.10 731.13 181.64 728.17 185.72 721.72
  Q 192.80 710.51 205.05 712.09
  C 214.09 713.26 220.81 719.23 221.88 728.39
  Q 223.06 738.43 214.67 743.11
  C 212.02 744.58 208.58 744.52 205.44 745.41
  A 0.21 0.21 0.0 0 0 205.48 745.82
  Q 209.81 746.00 214.25 746.69
  C 218.73 747.38 217.70 754.96 217.29 758.46
  C 216.83 762.51 215.20 763.49 211.19 763.01
  Q 196.59 761.25 182.26 758.09
  C 179.33 757.45 179.66 755.67 179.76 753.06
  Q 180.37 737.13 195.03 732.46
  Z
  M 197.77 730.84
  L 198.87 729.90
  A 1.26 1.20 -16.9 0 0 199.29 729.16
  C 199.79 726.24 203.18 727.29 204.54 728.65
  A 1.35 1.35 0.0 0 1 203.92 730.91
  Q 200.57 731.79 196.82 732.92
  Q 180.25 737.93 180.81 755.62
  Q 180.82 756.17 181.29 756.46
  Q 182.34 757.11 184.00 757.45
  Q 198.67 760.40 213.13 762.11
  A 2.36 2.34 -77.1 0 0 215.62 760.54
  Q 217.50 755.12 216.14 749.52
  A 2.43 2.42 86.5 0 0 214.08 747.69
  L 202.73 746.32
  A 0.47 0.46 -51.5 0 1 202.63 745.42
  C 206.81 743.90 212.29 743.57 215.54 741.26
  C 221.26 737.20 222.09 729.09 219.23 723.07
  C 213.13 710.22 194.14 709.48 187.01 721.65
  C 182.82 728.79 192.22 730.25 196.66 731.13
  Q 197.28 731.26 197.77 730.84
  Z
  M 200.44 730.87
  L 203.64 730.02
  A 0.23 0.23 0.0 0 0 203.81 729.74
  L 203.78 729.64
  A 1.85 1.79 75.1 0 0 201.58 728.31
  L 201.38 728.36
  A 1.85 1.79 75.1 0 0 200.13 730.61
  L 200.15 730.71
  A 0.23 0.23 0.0 0 0 200.44 730.87
  Z"
/>
<path fill="#62abb1" d="
  M 197.77 730.84
  Q 197.28 731.26 196.66 731.13
  C 192.22 730.25 182.82 728.79 187.01 721.65
  C 194.14 709.48 213.13 710.22 219.23 723.07
  C 222.09 729.09 221.26 737.20 215.54 741.26
  C 212.29 743.57 206.81 743.90 202.63 745.42
  A 0.47 0.46 -51.5 0 0 202.73 746.32
  L 214.08 747.69
  A 2.43 2.42 86.5 0 1 216.14 749.52
  Q 217.50 755.12 215.62 760.54
  A 2.36 2.34 -77.1 0 1 213.13 762.11
  Q 198.67 760.40 184.00 757.45
  Q 182.34 757.11 181.29 756.46
  Q 180.82 756.17 180.81 755.62
  Q 180.25 737.93 196.82 732.92
  Q 200.57 731.79 203.92 730.91
  A 1.35 1.35 0.0 0 0 204.54 728.65
  C 203.18 727.29 199.79 726.24 199.29 729.16
  A 1.26 1.20 -16.9 0 1 198.87 729.90
  L 197.77 730.84
  Z"
/>
<path fill="#60513a" fill-opacity="0.996" d="
  M 138.9095 733.6481
  A 6.87 5.79 97.7 0 1 134.0922 726.0642
  A 6.87 5.79 97.7 0 1 140.7505 720.0319
  A 6.87 5.79 97.7 0 1 145.5678 727.6158
  A 6.87 5.79 97.7 0 1 138.9095 733.6481
  Z
  M 138.9374 732.5090
  A 5.77 4.68 99.0 0 0 144.4624 727.5421
  A 5.77 4.68 99.0 0 0 140.7426 721.1110
  A 5.77 4.68 99.0 0 0 135.2176 726.0779
  A 5.77 4.68 99.0 0 0 138.9374 732.5090
  Z"
/>
<ellipse fill="#f8bf58" cx="0.00" cy="0.00" transform="translate(139.84,726.81) rotate(99.0)" rx="5.77" ry="4.68"/>
<path fill="#62abb1" d="
  M 278.48 745.96
  L 283.49 747.32
  A 1.42 1.41 -81.7 0 1 284.53 748.73
  C 284.43 752.69 283.53 757.23 281.68 760.80
  A 0.88 0.88 0.0 0 1 280.88 761.28
  L 275.40 761.13
  A 0.65 0.65 0.0 0 0 274.76 761.61
  Q 273.11 767.74 272.50 769.26
  C 271.20 772.49 263.58 770.41 260.56 769.63
  Q 258.27 769.03 258.17 767.01
  Q 257.99 762.97 258.41 759.73
  Q 258.58 758.45 257.30 758.28
  Q 251.24 757.51 246.51 756.68
  C 244.92 756.40 244.30 756.06 244.00 754.38
  Q 241.98 742.87 251.30 735.34
  Q 258.11 729.83 261.90 726.94
  Q 264.83 724.69 267.60 724.25
  C 270.82 723.75 281.00 724.23 280.22 729.75
  Q 279.13 737.56 278.09 745.37
  Q 278.03 745.84 278.48 745.96
  Z
  M 265.80 743.33
  A 0.84 0.84 0.0 0 0 264.48 742.53
  L 260.80 745.13
  A 0.84 0.84 0.0 0 0 261.11 746.64
  L 264.36 747.33
  A 0.84 0.84 0.0 0 0 265.37 746.61
  L 265.80 743.33
  Z"
/>
<path fill="#f8bf58" d="
  M 200.44 730.87
  A 0.23 0.23 0.0 0 1 200.15 730.71
  L 200.13 730.61
  A 1.85 1.79 75.1 0 1 201.38 728.36
  L 201.58 728.31
  A 1.85 1.79 75.1 0 1 203.78 729.64
  L 203.81 729.74
  A 0.23 0.23 0.0 0 1 203.64 730.02
  L 200.44 730.87
  Z"
/>
<path fill="#60513a" fill-opacity="0.996" d="
  M 265.80 743.33
  L 265.37 746.61
  A 0.84 0.84 0.0 0 1 264.36 747.33
  L 261.11 746.64
  A 0.84 0.84 0.0 0 1 260.80 745.13
  L 264.48 742.53
  A 0.84 0.84 0.0 0 1 265.80 743.33
  Z
  M 264.47 744.08
  L 263.24 744.85
  A 0.60 0.60 0.0 0 0 263.66 745.95
  Q 265.04 745.69 264.89 744.29
  A 0.28 0.28 0.0 0 0 264.47 744.08
  Z"
/>
<path fill="#f8bf58" d="
  M 264.47 744.08
  A 0.28 0.28 0.0 0 1 264.89 744.29
  Q 265.04 745.69 263.66 745.95
  A 0.60 0.60 0.0 0 1 263.24 744.85
  L 264.47 744.08
  Z"
/>
<path fill="#60513a" fill-opacity="0.996" d="
  M 578.20 760.25
  L 667.34 763.94
  A 0.48 0.48 0.0 0 1 667.77 764.60
  L 658.64 788.08
  A 0.48 0.48 0.0 0 1 658.09 788.38
  L 577.98 771.44
  A 0.48 0.48 0.0 0 1 577.60 770.97
  L 577.71 760.73
  A 0.48 0.48 0.0 0 1 578.20 760.25
  Z
  M 657.32 787.00
  A 0.54 0.54 0.0 0 0 657.94 786.67
  L 665.99 765.75
  A 0.54 0.54 0.0 0 0 665.51 765.02
  L 579.49 761.57
  A 0.54 0.54 0.0 0 0 578.93 762.10
  L 578.83 769.95
  A 0.54 0.54 0.0 0 0 579.25 770.48
  L 657.32 787.00
  Z"
/>
<path fill="#f8bf58" d="
  M 657.32 787.00
  L 579.25 770.48
  A 0.54 0.54 0.0 0 1 578.83 769.95
  L 578.93 762.10
  A 0.54 0.54 0.0 0 1 579.49 761.57
  L 665.51 765.02
  A 0.54 0.54 0.0 0 1 665.99 765.75
  L 657.94 786.67
  A 0.54 0.54 0.0 0 1 657.32 787.00
  Z"
/>
<path fill="#60513a" fill-opacity="0.996" d="
  M 569.84 787.17
  L 623.40 807.40
  A 0.43 0.43 0.0 0 1 623.59 808.06
  L 613.43 821.87
  A 0.43 0.43 0.0 0 1 612.88 822.00
  L 567.13 796.49
  A 0.43 0.43 0.0 0 1 566.93 796.00
  L 569.28 787.46
  A 0.43 0.43 0.0 0 1 569.84 787.17
  Z
  M 570.81 788.84
  A 0.67 0.67 0.0 0 0 569.93 789.30
  L 568.43 795.31
  A 0.67 0.67 0.0 0 0 568.76 796.06
  L 612.41 820.35
  A 0.67 0.67 0.0 0 0 613.28 820.16
  L 621.47 808.85
  A 0.67 0.67 0.0 0 0 621.16 807.83
  L 570.81 788.84
  Z"
/>
<path fill="#f8bf58" d="
  M 570.81 788.84
  L 621.16 807.83
  A 0.67 0.67 0.0 0 1 621.47 808.85
  L 613.28 820.16
  A 0.67 0.67 0.0 0 1 612.41 820.35
  L 568.76 796.06
  A 0.67 0.67 0.0 0 1 568.43 795.31
  L 569.93 789.30
  A 0.67 0.67 0.0 0 1 570.81 788.84
  Z"
/>
<path fill="#5b606d" d="
  M 327.79 815.62
  L 327.70 821.68
  A 1.50 1.49 89.6 0 0 329.23 823.20
  L 332.68 823.10
  Q 333.26 823.09 333.27 823.68
  L 333.58 849.83
  Q 333.59 850.50 332.92 850.50
  L 248.80 850.50
  Q 248.36 850.50 248.17 850.10
  C 242.69 838.26 240.81 818.93 261.37 822.19
  Q 264.20 822.64 268.23 824.81
  Q 275.23 828.58 282.14 832.56
  A 1.50 1.50 0.0 0 0 283.04 832.75
  L 295.19 831.49
  Q 299.70 831.25 303.06 833.19
  A 0.45 0.45 0.0 0 0 303.73 832.86
  L 305.79 816.63
  A 1.46 1.44 -86.8 0 1 307.20 815.36
  Q 315.11 815.17 323.74 814.77
  Q 325.34 814.70 327.79 815.62
  Z"
/>
<path fill="#5b606d" d="
  M 377.07 830.92
  L 390.10 832.67
  Q 390.59 832.74 391.01 832.49
  Q 397.70 828.67 404.40 825.00
  Q 408.48 822.77 411.37 822.29
  C 420.80 820.76 428.53 823.94 428.49 834.61
  Q 428.46 842.76 424.81 849.99
  Q 424.56 850.50 423.99 850.50
  L 340.21 850.51
  Q 339.40 850.51 339.41 849.71
  L 339.72 824.26
  Q 339.74 822.86 341.13 823.03
  Q 343.19 823.29 345.13 822.34
  L 345.30 817.74
  A 2.54 2.53 0.6 0 1 347.81 815.29
  L 366.57 815.06
  Q 367.33 815.05 367.42 815.81
  L 369.32 832.78
  A 0.56 0.56 0.0 0 0 370.05 833.25
  L 377.07 830.92
  Z"
/>
</svg>
