<?xml version="1.0" encoding="UTF-8" standalone="no"?>
<!DOCTYPE svg PUBLIC "-//W3C//DTD SVG 1.1//EN" "http://www.w3.org/Graphics/SVG/1.1/DTD/svg11.dtd">
<svg xmlns="http://www.w3.org/2000/svg" version="1.1" viewBox="0.00 0.00 1835.00 1052.00">
<g stroke-width="2.00" fill="none" stroke-linecap="butt">
<path stroke="#ae5840" vector-effect="non-scaling-stroke" d="
  M 0.00 96.68
  Q 116.49 136.52 230.34 183.16
  C 408.74 256.24 583.13 338.80 754.26 427.51
  Q 1055.96 583.90 1345.20 762.27
  Q 1371.97 778.77 1398.49 795.64
  A 0.55 0.54 34.5 0 0 1399.22 795.51
  L 1434.07 750.01
  Q 1434.44 749.53 1434.25 748.95
  L 1417.51 697.54
  A 2.52 2.49 -82.5 0 0 1416.52 696.23
  Q 1152.70 521.79 880.45 360.35
  C 743.85 279.35 605.12 201.48 462.74 131.04
  Q 399.45 99.73 334.67 71.64
  C 286.69 50.83 237.77 32.02 187.50 17.47
  Q 156.06 8.36 124.87 3.62
  Q 117.85 2.55 109.96 2.54
  Q 54.98 2.48 0.00 2.50"
/>
<path stroke="#b28140" vector-effect="non-scaling-stroke" d="
  M 1380.48 583.96
  A 0.60 0.60 0.0 0 1 1381.25 583.21
  L 1467.49 613.59
  Q 1468.67 614.01 1467.72 613.19
  Q 1266.20 439.76 1048.81 285.60
  C 992.09 245.38 933.95 207.07 874.96 170.27
  C 803.37 125.61 729.55 84.08 652.77 48.96
  C 614.40 31.41 574.55 15.39 534.03 3.52
  Q 530.54 2.49 526.82 2.50
  Q 336.72 2.52 146.67 2.49
  A 0.10 0.10 0.0 0 0 146.65 2.68
  C 158.03 5.21 169.69 7.73 180.71 10.81
  Q 231.68 25.07 280.93 44.55
  Q 352.68 72.92 422.29 106.20
  C 547.95 166.27 670.27 233.20 791.01 302.55
  Q 799.36 307.35 808.33 312.58
  Q 1116.66 492.36 1414.09 689.13
  A 0.36 0.36 0.0 0 0 1414.63 688.72
  L 1380.48 583.96"
/>
<path stroke="#647b6f" vector-effect="non-scaling-stroke" d="
  M 814.81 4.67
  C 812.35 3.49 810.64 2.51 807.86 2.51
  Q 677.75 2.52 548.57 2.50
  Q 546.94 2.49 548.48 3.01
  Q 603.22 21.22 653.74 44.27
  Q 695.78 63.46 730.30 81.66
  C 845.02 142.17 956.28 214.14 1062.87 289.85
  C 1206.61 391.95 1347.69 503.43 1478.64 616.42
  Q 1480.76 618.25 1483.40 619.19
  Q 1512.64 629.60 1541.94 639.83
  C 1544.48 640.72 1545.01 641.40 1547.14 639.86
  Q 1573.96 620.34 1600.21 601.24
  Q 1601.43 600.35 1600.32 599.33
  Q 1431.12 443.94 1252.55 300.46
  C 1165.80 230.76 1077.99 164.63 984.05 102.20
  Q 922.06 61.01 860.01 27.32
  C 845.15 19.25 831.05 12.49 814.81 4.67"
/>
<path stroke="#b38c4f" vector-effect="non-scaling-stroke" d="
  M 1653.34 864.29
  A 2.45 2.42 -89.0 0 1 1654.96 862.71
  L 1815.45 814.93
  Q 1816.18 814.71 1815.56 814.27
  L 1679.44 715.54
  A 0.96 0.94 -71.7 0 1 1679.05 714.75
  L 1683.24 546.00
  Q 1683.25 545.56 1682.90 545.82
  Q 1647.25 571.99 1611.40 597.89
  C 1609.41 599.33 1607.54 601.65 1605.42 603.20
  Q 1576.56 624.29 1547.15 645.64
  A 2.04 2.04 0.0 0 1 1545.27 645.91
  L 1388.13 590.53
  A 0.39 0.39 0.0 0 0 1387.64 591.02
  L 1439.40 749.87
  Q 1439.56 750.35 1439.25 750.75
  Q 1415.63 782.07 1401.70 799.96
  C 1400.65 801.30 1398.96 802.38 1397.86 803.80
  Q 1366.91 844.05 1336.70 883.67
  Q 1335.67 885.02 1337.37 885.02
  L 1504.02 884.95
  A 2.62 2.62 0.0 0 1 1506.18 886.09
  L 1601.08 1023.75
  A 0.35 0.34 36.4 0 0 1601.69 1023.66
  L 1653.34 864.29"
/>
</g>
<path fill="#6d5845" d="
  M 0.00 0.00
  L 814.50 0.00
  C 816.05 0.41 817.69 0.80 819.15 1.50
  C 886.80 33.94 950.66 73.48 1012.55 115.75
  Q 1113.81 184.93 1210.23 260.74
  C 1342.64 364.84 1473.12 476.59 1597.11 590.08
  C 1599.29 592.08 1602.48 595.38 1605.60 597.68
  Q 1606.02 597.98 1606.43 597.68
  L 1684.97 540.48
  Q 1686.44 539.41 1686.39 541.23
  L 1682.08 712.94
  Q 1682.06 713.52 1682.54 713.87
  L 1822.13 815.12
  Q 1823.16 815.87 1821.94 816.23
  L 1656.64 865.45
  Q 1656.18 865.59 1656.03 866.04
  L 1602.67 1030.68
  A 0.35 0.34 36.4 0 1 1602.06 1030.77
  L 1503.95 888.42
  Q 1503.65 888.00 1503.13 888.00
  L 1330.50 888.00
  A 0.56 0.56 0.0 0 1 1330.06 887.10
  L 1395.99 800.99
  A 1.12 1.12 0.0 0 0 1395.70 799.36
  Q 1313.42 747.37 1229.87 697.58
  Q 1013.73 568.76 790.94 451.83
  C 621.78 363.06 447.16 279.03 270.84 204.89
  Q 137.11 148.66 0.00 101.48
  L 0.00 96.68
  Q 116.49 136.52 230.34 183.16
  C 408.74 256.24 583.13 338.80 754.26 427.51
  Q 1055.96 583.90 1345.20 762.27
  Q 1371.97 778.77 1398.49 795.64
  A 0.55 0.54 34.5 0 0 1399.22 795.51
  L 1434.07 750.01
  Q 1434.44 749.53 1434.25 748.95
  L 1417.51 697.54
  A 2.52 2.49 -82.5 0 0 1416.52 696.23
  Q 1152.70 521.79 880.45 360.35
  C 743.85 279.35 605.12 201.48 462.74 131.04
  Q 399.45 99.73 334.67 71.64
  C 286.69 50.83 237.77 32.02 187.50 17.47
  Q 156.06 8.36 124.87 3.62
  Q 117.85 2.55 109.96 2.54
  Q 54.98 2.48 0.00 2.50
  L 0.00 0.00
  Z
  M 1380.48 583.96
  A 0.60 0.60 0.0 0 1 1381.25 583.21
  L 1467.49 613.59
  Q 1468.67 614.01 1467.72 613.19
  Q 1266.20 439.76 1048.81 285.60
  C 992.09 245.38 933.95 207.07 874.96 170.27
  C 803.37 125.61 729.55 84.08 652.77 48.96
  C 614.40 31.41 574.55 15.39 534.03 3.52
  Q 530.54 2.49 526.82 2.50
  Q 336.72 2.52 146.67 2.49
  A 0.10 0.10 0.0 0 0 146.65 2.68
  C 158.03 5.21 169.69 7.73 180.71 10.81
  Q 231.68 25.07 280.93 44.55
  Q 352.68 72.92 422.29 106.20
  C 547.95 166.27 670.27 233.20 791.01 302.55
  Q 799.36 307.35 808.33 312.58
  Q 1116.66 492.36 1414.09 689.13
  A 0.36 0.36 0.0 0 0 1414.63 688.72
  L 1380.48 583.96
  Z
  M 814.81 4.67
  C 812.35 3.49 810.64 2.51 807.86 2.51
  Q 677.75 2.52 548.57 2.50
  Q 546.94 2.49 548.48 3.01
  Q 603.22 21.22 653.74 44.27
  Q 695.78 63.46 730.30 81.66
  C 845.02 142.17 956.28 214.14 1062.87 289.85
  C 1206.61 391.95 1347.69 503.43 1478.64 616.42
  Q 1480.76 618.25 1483.40 619.19
  Q 1512.64 629.60 1541.94 639.83
  C 1544.48 640.72 1545.01 641.40 1547.14 639.86
  Q 1573.96 620.34 1600.21 601.24
  Q 1601.43 600.35 1600.32 599.33
  Q 1431.12 443.94 1252.55 300.46
  C 1165.80 230.76 1077.99 164.63 984.05 102.20
  Q 922.06 61.01 860.01 27.32
  C 845.15 19.25 831.05 12.49 814.81 4.67
  Z
  M 1653.34 864.29
  A 2.45 2.42 -89.0 0 1 1654.96 862.71
  L 1815.45 814.93
  Q 1816.18 814.71 1815.56 814.27
  L 1679.44 715.54
  A 0.96 0.94 -71.7 0 1 1679.05 714.75
  L 1683.24 546.00
  Q 1683.25 545.56 1682.90 545.82
  Q 1647.25 571.99 1611.40 597.89
  C 1609.41 599.33 1607.54 601.65 1605.42 603.20
  Q 1576.56 624.29 1547.15 645.64
  A 2.04 2.04 0.0 0 1 1545.27 645.91
  L 1388.13 590.53
  A 0.39 0.39 0.0 0 0 1387.64 591.02
  L 1439.40 749.87
  Q 1439.56 750.35 1439.25 750.75
  Q 1415.63 782.07 1401.70 799.96
  C 1400.65 801.30 1398.96 802.38 1397.86 803.80
  Q 1366.91 844.05 1336.70 883.67
  Q 1335.67 885.02 1337.37 885.02
  L 1504.02 884.95
  A 2.62 2.62 0.0 0 1 1506.18 886.09
  L 1601.08 1023.75
  A 0.35 0.34 36.4 0 0 1601.69 1023.66
  L 1653.34 864.29
  Z"
/>
<path fill="#ee583b" d="
  M 0.00 2.50
  Q 54.98 2.48 109.96 2.54
  Q 117.85 2.55 124.87 3.62
  Q 156.06 8.36 187.50 17.47
  C 237.77 32.02 286.69 50.83 334.67 71.64
  Q 399.45 99.73 462.74 131.04
  C 605.12 201.48 743.85 279.35 880.45 360.35
  Q 1152.70 521.79 1416.52 696.23
  A 2.52 2.49 -82.5 0 1 1417.51 697.54
  L 1434.25 748.95
  Q 1434.44 749.53 1434.07 750.01
  L 1399.22 795.51
  A 0.55 0.54 34.5 0 1 1398.49 795.64
  Q 1371.97 778.77 1345.20 762.27
  Q 1055.96 583.90 754.26 427.51
  C 583.13 338.80 408.74 256.24 230.34 183.16
  Q 116.49 136.52 0.00 96.68
  L 0.00 2.50
  Z"
/>
<path fill="#f6aa3a" d="
  M 1380.48 583.96
  L 1414.63 688.72
  A 0.36 0.36 0.0 0 1 1414.09 689.13
  Q 1116.66 492.36 808.33 312.58
  Q 799.36 307.35 791.01 302.55
  C 670.27 233.20 547.95 166.27 422.29 106.20
  Q 352.68 72.92 280.93 44.55
  Q 231.68 25.07 180.71 10.81
  C 169.69 7.73 158.03 5.21 146.65 2.68
  A 0.10 0.10 0.0 0 1 146.67 2.49
  Q 336.72 2.52 526.82 2.50
  Q 530.54 2.49 534.03 3.52
  C 574.55 15.39 614.40 31.41 652.77 48.96
  C 729.55 84.08 803.37 125.61 874.96 170.27
  C 933.95 207.07 992.09 245.38 1048.81 285.60
  Q 1266.20 439.76 1467.72 613.19
  Q 1468.67 614.01 1467.49 613.59
  L 1381.25 583.21
  A 0.60 0.60 0.0 0 0 1380.48 583.96
  Z"
/>
<path fill="#5a9e99" d="
  M 814.81 4.67
  C 831.05 12.49 845.15 19.25 860.01 27.32
  Q 922.06 61.01 984.05 102.20
  C 1077.99 164.63 1165.80 230.76 1252.55 300.46
  Q 1431.12 443.94 1600.32 599.33
  Q 1601.43 600.35 1600.21 601.24
  Q 1573.96 620.34 1547.14 639.86
  C 1545.01 641.40 1544.48 640.72 1541.94 639.83
  Q 1512.64 629.60 1483.40 619.19
  Q 1480.76 618.25 1478.64 616.42
  C 1347.69 503.43 1206.61 391.95 1062.87 289.85
  C 956.28 214.14 845.02 142.17 730.30 81.66
  Q 695.78 63.46 653.74 44.27
  Q 603.22 21.22 548.48 3.01
  Q 546.94 2.49 548.57 2.50
  Q 677.75 2.52 807.86 2.51
  C 810.64 2.51 812.35 3.49 814.81 4.67
  Z"
/>
<path fill="#f8c059" d="
  M 1653.34 864.29
  L 1601.69 1023.66
  A 0.35 0.34 36.4 0 1 1601.08 1023.75
  L 1506.18 886.09
  A 2.62 2.62 0.0 0 0 1504.02 884.95
  L 1337.37 885.02
  Q 1335.67 885.02 1336.70 883.67
  Q 1366.91 844.05 1397.86 803.80
  C 1398.96 802.38 1400.65 801.30 1401.70 799.96
  Q 1415.63 782.07 1439.25 750.75
  Q 1439.56 750.35 1439.40 749.87
  L 1387.64 591.02
  A 0.39 0.39 0.0 0 1 1388.13 590.53
  L 1545.27 645.91
  A 2.04 2.04 0.0 0 0 1547.15 645.64
  Q 1576.56 624.29 1605.42 603.20
  C 1607.54 601.65 1609.41 599.33 1611.40 597.89
  Q 1647.25 571.99 1682.90 545.82
  Q 1683.25 545.56 1683.24 546.00
  L 1679.05 714.75
  A 0.96 0.94 -71.7 0 0 1679.44 715.54
  L 1815.56 814.27
  Q 1816.18 814.71 1815.45 814.93
  L 1654.96 862.71
  A 2.45 2.42 -89.0 0 0 1653.34 864.29
  Z"
/>
</svg>
