<?xml version="1.0" encoding="UTF-8" standalone="no"?>
<!DOCTYPE svg PUBLIC "-//W3C//DTD SVG 1.1//EN" "http://www.w3.org/Graphics/SVG/1.1/DTD/svg11.dtd">
<svg xmlns="http://www.w3.org/2000/svg" version="1.1" viewBox="0.00 0.00 2041.00 1027.00">
<g stroke-width="2.00" fill="none" stroke-linecap="butt">
<path stroke="#b28140" vector-effect="non-scaling-stroke" d="
  M 999.10 66.65
  L 954.08 40.39
  A 0.22 0.22 0.0 0 0 953.78 40.68
  L 988.06 103.77
  A 0.74 0.73 -17.8 0 0 988.81 104.15
  Q 995.41 103.14 1001.42 106.10
  Q 1001.88 106.33 1002.11 105.87
  C 1012.73 85.01 1025.86 63.15 1042.34 46.40
  A 0.28 0.28 0.0 0 0 1042.06 45.93
  C 1026.84 50.47 1012.43 56.34 1000.06 66.57
  Q 999.60 66.95 999.10 66.65"
/>
<path stroke="#b28140" vector-effect="non-scaling-stroke" d="
  M 944.53 50.46
  Q 942.79 74.85 946.40 99.15
  Q 946.48 99.70 946.06 100.05
  L 894.90 143.43
  A 0.39 0.39 0.0 0 0 895.19 144.12
  C 920.89 141.59 947.71 134.30 970.29 127.56
  Q 970.82 127.40 970.80 126.85
  Q 970.36 115.08 979.44 107.99
  Q 979.70 107.79 979.54 107.51
  L 945.55 44.96
  A 0.45 0.45 0.0 0 0 944.71 45.13
  C 944.54 46.88 944.64 48.90 944.53 50.46"
/>
<path stroke="#b28140" vector-effect="non-scaling-stroke" d="
  M 1041.15 61.65
  Q 1022.73 85.12 1009.50 111.93
  Q 1009.27 112.38 1009.54 112.81
  Q 1012.79 118.02 1013.18 124.15
  Q 1013.23 125.03 1014.04 125.39
  Q 1045.55 139.22 1078.79 148.17
  A 0.17 0.17 0.0 0 0 1078.96 147.90
  Q 1066.14 131.69 1051.36 117.15
  Q 1047.84 113.68 1043.81 111.20
  A 0.81 0.81 0.0 0 1 1043.44 110.34
  Q 1047.78 90.07 1051.34 69.76
  Q 1053.15 59.45 1053.93 49.03
  A 0.38 0.37 -18.4 0 0 1053.31 48.72
  Q 1046.70 54.58 1041.15 61.65"
/>
<path stroke="#ae5840" vector-effect="non-scaling-stroke" d="
  M 1082.62 155.16
  C 1081.30 156.20 1079.65 157.45 1077.65 157.71
  Q 1073.80 158.22 1070.08 159.42
  Q 1069.28 159.68 1070.09 159.89
  Q 1312.31 225.54 1554.54 291.18
  Q 1559.73 292.59 1564.14 292.64
  C 1571.92 292.72 1591.52 292.31 1593.40 281.95
  C 1594.12 277.98 1591.52 272.57 1589.26 269.04
  Q 1588.29 267.54 1586.86 267.17
  Q 1328.42 200.54 1070.06 133.94
  A 0.20 0.20 0.0 0 0 1069.86 134.26
  L 1083.15 150.00
  A 3.60 3.59 -39.2 0 1 1082.62 155.16"
/>
<path stroke="#b28140" vector-effect="non-scaling-stroke" d="
  M 1032.69 165.52
  L 1073.45 156.87
  A 0.32 0.32 0.0 0 0 1073.46 156.25
  Q 1041.81 147.60 1011.71 134.54
  Q 1011.20 134.31 1010.93 134.81
  Q 1006.57 143.02 997.63 145.59
  A 0.95 0.94 82.8 0 0 996.95 146.47
  Q 995.54 186.48 997.67 226.24
  Q 997.70 226.77 997.77 227.05
  A 0.40 0.40 0.0 0 0 998.48 227.18
  C 1011.57 208.15 1023.82 188.07 1031.89 166.21
  Q 1032.10 165.64 1032.69 165.52"
/>
<path stroke="#b28140" vector-effect="non-scaling-stroke" d="
  M 1000.21 125.12
  A 8.17 8.17 0.0 0 0 992.04 116.95
  A 8.17 8.17 0.0 0 0 983.87 125.12
  A 8.17 8.17 0.0 0 0 992.04 133.29
  A 8.17 8.17 0.0 0 0 1000.21 125.12"
/>
<path stroke="#b38c4f" vector-effect="non-scaling-stroke" d="
  M 1709.29 272.22
  A 0.33 0.33 0.0 0 0 1709.35 272.61
  L 1721.50 284.34
  A 0.33 0.33 0.0 0 0 1721.99 284.31
  L 1825.17 156.41
  A 0.33 0.33 0.0 0 0 1825.11 155.94
  L 1783.59 125.70
  A 0.33 0.33 0.0 0 0 1783.11 125.82
  L 1709.29 272.22"
/>
<path stroke="#b28140" vector-effect="non-scaling-stroke" d="
  M 965.21 160.28
  L 986.82 215.73
  Q 988.15 219.13 987.99 215.48
  Q 986.47 181.01 987.96 147.00
  Q 988.02 145.65 986.79 145.51
  C 981.69 144.93 976.77 140.53 973.98 136.37
  Q 973.70 135.97 973.24 136.12
  Q 939.00 147.22 903.43 152.61
  A 0.18 0.18 0.0 0 0 903.41 152.97
  Q 918.91 157.23 934.91 159.05
  C 944.33 160.13 954.58 159.95 964.46 159.78
  Q 965.01 159.77 965.21 160.28"
/>
<path stroke="#af9d83" vector-effect="non-scaling-stroke" d="
  M 292.40 261.74
  Q 300.31 255.33 302.00 245.75
  C 304.65 230.79 300.83 212.16 288.29 202.19
  C 266.84 185.12 235.24 185.54 211.15 196.00
  A 1.31 1.30 -89.2 0 0 210.47 196.67
  Q 209.54 198.76 209.35 201.05
  C 208.33 213.15 208.62 222.74 209.05 237.32
  Q 209.91 266.98 213.08 296.49
  Q 213.76 302.80 215.18 308.99
  C 215.76 311.54 217.01 312.33 219.49 312.41
  Q 233.72 312.91 245.47 311.95
  C 249.85 311.60 253.08 311.74 254.67 308.15
  C 256.00 305.16 254.40 300.52 256.38 298.10
  C 260.72 292.82 279.01 305.19 283.73 308.15
  C 286.82 310.10 293.55 313.62 296.68 310.43
  C 301.86 305.15 312.83 292.56 313.68 285.22
  A 1.56 1.56 0.0 0 0 313.49 284.30
  C 308.74 275.89 301.32 270.46 292.38 262.53
  Q 291.92 262.12 292.40 261.74"
/>
<path stroke="#af9d83" vector-effect="non-scaling-stroke" d="
  M 657.48 267.46
  C 663.29 269.09 665.66 276.23 659.11 278.56
  Q 650.02 281.78 646.31 274.46
  Q 645.25 272.35 644.05 271.64
  C 635.58 266.58 620.92 268.72 612.72 272.42
  C 609.65 273.81 606.93 276.66 607.56 280.01
  Q 608.84 286.85 613.27 293.10
  C 629.86 316.49 666.69 318.65 687.84 301.61
  Q 704.09 288.53 701.94 269.26
  C 699.78 249.86 682.86 239.22 665.29 235.41
  Q 657.92 233.81 650.54 232.29
  C 632.49 228.56 658.41 211.80 661.68 226.57
  Q 661.79 227.08 662.22 227.37
  Q 663.69 228.40 666.12 228.09
  C 675.69 226.90 684.35 225.35 691.54 219.84
  C 697.37 215.38 688.59 203.54 684.37 199.62
  C 668.47 184.82 642.05 185.71 625.34 197.52
  C 611.97 206.97 606.48 221.36 609.20 237.51
  C 611.07 248.60 618.50 256.04 628.42 260.36
  Q 631.84 261.85 639.31 263.21
  Q 647.86 264.77 657.48 267.46"
/>
<path stroke="#af9d83" vector-effect="non-scaling-stroke" d="
  M 731.66 205.66
  C 708.69 226.14 703.64 259.07 719.86 284.19
  C 731.54 302.28 749.99 311.97 771.77 312.67
  C 806.65 313.80 832.76 285.83 834.07 251.59
  C 835.16 223.26 816.46 199.96 789.58 193.26
  C 768.47 188.00 748.44 190.69 731.66 205.66"
/>
<path stroke="#af9d83" vector-effect="non-scaling-stroke" d="
  M 369.06 269.66
  C 377.89 278.86 386.36 288.22 396.68 295.85
  C 399.78 298.14 402.16 295.66 404.89 293.33
  Q 418.70 281.57 430.33 268.53
  Q 431.20 267.55 431.26 268.87
  Q 431.98 286.37 434.99 303.75
  Q 435.63 307.46 436.98 311.03
  A 0.93 0.93 0.0 0 0 437.69 311.61
  Q 440.75 312.14 444.75 312.24
  Q 457.64 312.57 469.00 311.49
  Q 471.02 311.30 472.96 310.41
  A 1.09 1.06 85.3 0 0 473.53 309.72
  Q 475.24 303.35 475.51 299.00
  Q 478.11 256.36 475.87 211.75
  Q 475.46 203.49 474.28 196.67
  C 473.96 194.80 472.72 193.80 471.01 193.42
  Q 455.47 189.99 438.97 192.32
  Q 433.00 193.16 430.44 194.91
  C 427.68 196.79 423.33 202.35 420.75 205.93
  Q 409.96 220.95 399.93 236.22
  A 0.41 0.41 0.0 0 1 399.24 236.22
  Q 389.48 221.38 378.96 207.02
  C 374.84 201.38 370.24 194.65 365.01 193.46
  Q 348.79 189.77 331.50 192.70
  Q 327.62 193.36 325.33 194.77
  A 1.15 1.15 0.0 0 0 324.79 195.58
  C 324.17 199.45 323.48 203.42 323.31 207.31
  Q 321.91 238.27 322.52 269.25
  Q 322.87 287.18 324.73 303.25
  Q 325.09 306.34 326.34 309.98
  A 1.00 0.98 -0.4 0 0 326.99 310.61
  C 335.31 313.12 346.60 312.88 355.25 312.48
  Q 359.04 312.31 361.55 311.80
  Q 362.07 311.70 362.30 311.22
  Q 363.84 307.96 364.28 305.26
  Q 366.84 289.55 368.46 269.87
  Q 368.52 269.10 369.06 269.66"
/>
<path stroke="#af9d83" vector-effect="non-scaling-stroke" d="
  M 259.53 246.75
  C 272.78 240.53 270.06 222.45 254.51 222.70
  C 247.01 222.82 243.80 224.49 243.55 232.71
  C 243.25 242.74 247.46 252.40 259.53 246.75"
/>
<path stroke="#af9d83" vector-effect="non-scaling-stroke" d="
  M 91.38 287.38
  Q 89.44 298.28 89.21 306.75
  C 89.14 309.12 89.94 311.06 92.37 311.45
  Q 102.43 313.08 114.13 312.52
  C 118.27 312.32 119.76 312.55 121.67 308.93
  Q 125.55 301.59 129.11 294.08
  C 130.75 290.61 133.28 287.84 137.02 287.80
  Q 144.17 287.72 151.44 287.74
  C 163.53 287.78 161.53 306.13 168.68 312.20
  A 1.43 1.42 -23.7 0 0 169.59 312.55
  Q 185.89 312.92 202.00 310.08
  Q 207.27 309.15 205.98 303.99
  Q 197.83 271.34 184.41 233.95
  Q 178.93 218.69 171.90 204.10
  C 168.58 197.18 165.54 193.65 157.50 192.78
  Q 139.56 190.84 122.24 195.76
  C 119.50 196.53 117.48 197.55 116.06 200.25
  Q 113.32 205.48 111.79 209.77
  Q 98.56 246.89 91.38 287.38"
/>
<path stroke="#af9d83" vector-effect="non-scaling-stroke" d="
  M 512.45 205.76
  Q 509.75 212.22 507.13 220.33
  Q 495.26 257.19 489.20 293.74
  Q 488.69 296.84 488.30 302.52
  C 487.95 307.59 487.13 311.16 493.23 311.73
  Q 506.26 312.94 515.26 312.40
  C 517.37 312.28 518.85 312.02 519.97 310.00
  Q 524.28 302.22 528.05 294.15
  C 529.96 290.05 532.58 287.75 537.00 287.75
  Q 543.53 287.75 550.12 287.74
  C 554.90 287.73 557.65 290.03 559.37 294.23
  Q 562.06 300.84 564.33 307.60
  Q 565.13 309.96 567.64 312.17
  Q 568.02 312.50 568.52 312.51
  Q 584.34 312.95 599.98 310.33
  C 604.41 309.58 605.89 307.66 604.71 303.25
  Q 591.80 254.71 575.62 214.53
  C 572.61 207.03 567.68 194.66 560.26 193.33
  Q 540.72 189.82 519.97 196.17
  C 515.54 197.52 514.50 200.87 512.45 205.76"
/>
<path stroke="#af9d83" vector-effect="non-scaling-stroke" d="
  M 789.4745 246.8516
  A 17.88 17.61 -15.8 0 0 767.4751 234.7753
  A 17.88 17.61 -15.8 0 0 755.0655 256.5884
  A 17.88 17.61 -15.8 0 0 777.0649 268.6647
  A 17.88 17.61 -15.8 0 0 789.4745 246.8516"
/>
<path stroke="#b38c4f" vector-effect="non-scaling-stroke" d="
  M 1743.51 355.01
  A 0.35 0.35 0.0 0 0 1743.53 355.49
  L 1757.28 368.95
  A 0.35 0.35 0.0 0 0 1757.73 368.98
  L 1927.25 244.14
  A 0.35 0.35 0.0 0 0 1927.31 243.63
  L 1885.88 195.92
  A 0.35 0.35 0.0 0 0 1885.36 195.92
  L 1743.51 355.01"
/>
<path stroke="#af9d83" vector-effect="non-scaling-stroke" d="
  M 155.24 260.25
  C 159.81 255.61 151.98 244.69 149.13 240.86
  Q 146.32 237.08 142.23 237.45
  A 1.56 1.55 17.1 0 0 141.18 238.00
  Q 135.91 244.39 133.29 254.28
  Q 132.22 258.31 134.18 260.60
  C 137.59 264.55 151.73 263.81 155.24 260.25"
/>
<path stroke="#af9d83" vector-effect="non-scaling-stroke" d="
  M 552.10 247.06
  C 550.01 243.34 544.03 232.31 538.56 240.05
  C 535.26 244.75 527.16 259.46 535.72 262.34
  Q 542.57 264.65 550.89 262.05
  C 559.23 259.44 554.80 251.88 552.10 247.06"
/>
<path stroke="#b38c4f" vector-effect="non-scaling-stroke" d="
  M 1773.58 423.54
  A 0.33 0.33 0.0 0 0 1773.41 423.98
  L 1782.43 443.28
  A 0.33 0.33 0.0 0 0 1782.80 443.46
  L 1975.69 397.24
  A 0.33 0.33 0.0 0 0 1975.94 396.89
  L 1971.78 339.69
  A 0.33 0.33 0.0 0 0 1971.33 339.41
  L 1773.58 423.54"
/>
<path stroke="#af9d83" vector-effect="non-scaling-stroke" d="
  M 90.34 420.10
  C 79.27 438.88 76.28 460.53 78.43 481.99
  C 82.22 519.84 112.60 543.60 148.63 549.55
  Q 171.99 553.42 194.71 560.14
  Q 199.75 561.62 202.42 563.59
  C 207.15 567.09 209.13 576.02 203.67 579.94
  C 193.41 587.31 176.07 586.68 171.36 572.82
  Q 170.41 570.03 169.20 568.74
  C 163.56 562.68 149.66 560.26 141.25 559.53
  C 122.40 557.88 102.18 560.11 85.52 569.74
  C 76.05 575.21 73.73 583.20 76.75 593.43
  C 90.21 639.10 136.52 666.45 182.25 667.89
  C 216.15 668.95 250.21 659.75 275.32 636.23
  C 292.24 620.37 303.57 600.78 304.80 577.28
  C 306.72 540.59 285.78 509.49 253.39 493.35
  Q 232.39 482.88 207.46 478.20
  Q 194.96 475.85 182.52 473.22
  C 177.38 472.14 164.41 468.88 166.90 461.33
  C 168.80 455.59 179.49 450.61 184.74 449.46
  C 192.11 447.84 202.29 451.29 203.60 459.97
  C 204.46 465.72 209.81 467.57 214.99 467.13
  C 234.35 465.47 256.18 461.06 273.56 450.04
  C 281.44 445.04 286.67 439.74 283.18 429.58
  Q 273.31 400.83 248.94 385.61
  C 198.28 353.98 121.56 367.15 90.34 420.10"
/>
<path stroke="#af9d83" vector-effect="non-scaling-stroke" d="
  M 596.05 617.88
  C 597.20 625.74 602.04 660.17 609.74 663.05
  C 614.51 664.83 620.35 666.08 625.85 666.62
  Q 654.43 669.42 682.87 665.33
  C 688.50 664.52 697.56 662.83 699.68 656.91
  Q 701.79 651.01 702.95 643.74
  Q 705.58 627.26 706.99 610.61
  Q 713.50 533.95 712.61 457.00
  Q 712.21 422.05 709.58 392.86
  Q 709.21 388.77 707.70 386.57
  C 703.89 381.02 695.24 378.57 689.24 377.30
  Q 643.80 367.67 599.22 380.45
  C 592.35 382.42 581.95 387.82 580.52 395.74
  Q 580.13 397.91 579.95 406.50
  Q 579.48 428.60 580.61 450.66
  C 583.48 506.76 587.95 562.26 596.05 617.88"
/>
<path stroke="#af9d83" vector-effect="non-scaling-stroke" d="
  M 358.68 622.94
  C 404.58 671.72 480.47 677.33 540.52 656.48
  C 553.82 651.86 557.38 633.80 557.24 621.51
  C 557.01 601.34 551.63 572.56 534.89 559.60
  Q 530.95 556.56 525.59 556.08
  Q 522.61 555.81 516.01 557.20
  Q 494.78 561.70 473.88 560.60
  C 458.46 559.80 442.55 551.31 439.07 535.26
  Q 434.12 512.42 450.51 496.52
  Q 470.65 476.99 498.75 474.59
  Q 510.45 473.59 522.18 473.00
  C 538.90 472.16 542.86 450.45 541.31 437.75
  Q 538.85 417.64 531.08 398.94
  C 527.20 389.59 517.83 377.96 507.26 376.19
  Q 491.02 373.45 470.00 374.66
  Q 407.81 378.24 366.48 422.12
  C 341.64 448.49 328.57 482.77 324.77 518.51
  Q 318.25 579.96 358.68 622.94"
/>
<path stroke="#af9d83" vector-effect="non-scaling-stroke" d="
  M 1406.24 375.89
  C 1346.54 383.53 1298.52 425.15 1281.33 483.02
  Q 1273.66 508.84 1273.21 532.02
  C 1271.76 606.76 1329.83 659.56 1401.26 666.77
  Q 1444.36 671.11 1484.89 658.19
  Q 1492.80 655.67 1496.04 652.97
  C 1504.54 645.90 1506.63 630.94 1506.65 620.73
  C 1506.67 602.47 1498.97 559.18 1475.15 556.17
  Q 1472.05 555.77 1465.96 557.10
  Q 1453.37 559.83 1440.50 560.48
  C 1427.28 561.16 1414.30 561.42 1402.53 554.32
  C 1393.97 549.15 1389.50 542.26 1387.99 532.49
  C 1385.46 516.09 1390.86 504.25 1403.26 493.40
  Q 1422.04 476.96 1448.00 474.55
  Q 1455.45 473.86 1471.65 472.97
  C 1488.43 472.06 1492.18 450.48 1490.76 437.75
  C 1488.64 418.81 1479.81 379.52 1455.50 376.01
  Q 1431.95 372.60 1406.24 375.89"
/>
<path stroke="#af9d83" vector-effect="non-scaling-stroke" d="
  M 851.54 481.16
  L 850.69 468.24
  Q 850.65 467.64 851.26 467.62
  Q 884.42 466.70 917.49 464.10
  Q 924.79 463.53 931.72 461.27
  Q 936.03 459.86 937.01 455.53
  C 939.04 446.60 939.56 438.52 939.95 428.46
  Q 940.73 408.52 937.88 388.74
  Q 937.31 384.78 934.87 382.01
  C 931.54 378.23 919.37 377.29 914.50 376.90
  Q 895.90 375.40 877.25 374.99
  Q 821.41 373.76 765.76 378.42
  Q 756.54 379.19 747.48 381.05
  C 741.83 382.21 739.93 386.89 738.65 392.03
  Q 736.61 400.27 735.88 408.75
  Q 735.31 415.38 734.87 441.25
  Q 733.57 517.22 739.14 592.99
  Q 740.61 612.92 743.05 632.75
  Q 744.46 644.25 747.57 655.41
  C 748.51 658.79 749.96 661.72 753.58 662.93
  C 762.76 666.00 774.32 666.56 784.76 666.97
  Q 836.05 669.00 887.25 665.34
  Q 910.37 663.68 933.23 659.91
  Q 940.02 658.79 947.75 656.22
  C 951.06 655.11 953.41 653.55 954.09 649.82
  C 957.70 629.96 955.90 606.78 953.43 587.75
  C 952.56 580.99 950.76 569.46 945.36 568.01
  Q 935.62 565.39 922.98 566.14
  Q 889.12 568.14 855.14 568.51
  Q 854.57 568.52 854.57 567.95
  L 854.60 554.39
  Q 854.60 553.81 855.18 553.80
  Q 868.37 553.58 881.51 552.40
  C 884.59 552.13 892.38 551.51 894.65 549.43
  C 897.58 546.73 898.26 538.53 898.41 534.25
  Q 898.99 517.01 895.01 500.25
  C 894.05 496.23 891.16 485.26 886.90 484.55
  Q 869.63 481.65 852.12 481.71
  Q 851.57 481.71 851.54 481.16"
/>
<path stroke="#af9d83" vector-effect="non-scaling-stroke" d="
  M 1143.04 457.52
  Q 1127.82 435.61 1111.49 414.52
  Q 1103.87 404.69 1095.17 395.82
  Q 1087.76 388.27 1082.98 385.52
  Q 1076.83 381.99 1073.28 381.19
  Q 1032.34 371.92 990.98 379.38
  C 988.11 379.90 978.93 382.78 978.32 387.03
  Q 974.79 411.52 973.79 433.00
  Q 970.13 511.23 974.58 592.66
  Q 975.99 618.43 979.66 643.97
  C 980.61 650.54 981.84 659.87 987.30 662.21
  Q 993.15 664.72 1001.51 665.82
  Q 1022.30 668.57 1043.25 667.64
  C 1052.05 667.25 1061.86 666.16 1069.64 662.43
  A 1.58 1.54 -88.3 0 0 1070.33 661.76
  C 1073.97 655.00 1075.31 645.50 1076.19 638.25
  Q 1080.04 606.34 1082.58 574.37
  A 0.15 0.15 0.0 0 1 1082.85 574.29
  Q 1115.42 616.05 1153.02 653.23
  Q 1156.89 657.06 1162.95 661.22
  C 1167.32 664.21 1171.67 665.37 1176.75 666.01
  Q 1204.39 669.54 1232.01 665.81
  C 1237.00 665.13 1247.73 663.40 1248.98 657.58
  Q 1250.06 652.56 1250.43 648.66
  Q 1252.21 629.69 1253.20 605.49
  Q 1256.42 527.27 1254.83 449.00
  Q 1254.17 416.30 1251.71 388.19
  Q 1251.51 385.94 1250.49 384.60
  C 1247.73 380.98 1241.34 379.09 1236.80 378.18
  Q 1197.51 370.29 1158.94 380.23
  C 1153.95 381.51 1143.43 385.42 1142.43 391.24
  Q 1141.39 397.27 1141.92 408.74
  Q 1143.02 433.05 1143.44 457.39
  Q 1143.46 458.11 1143.04 457.52"
/>
<path stroke="#af9d83" vector-effect="non-scaling-stroke" d="
  M 1640.71 481.18
  L 1640.13 468.14
  Q 1640.11 467.61 1640.63 467.60
  Q 1672.60 466.70 1704.49 464.42
  C 1710.77 463.97 1720.14 462.92 1725.06 458.59
  Q 1725.44 458.26 1725.58 457.77
  Q 1727.55 450.57 1727.97 446.47
  Q 1730.34 423.39 1728.63 400.24
  Q 1728.11 393.22 1726.46 386.34
  Q 1725.06 380.45 1718.75 379.24
  Q 1706.44 376.88 1697.74 376.39
  Q 1626.35 372.30 1555.09 378.40
  C 1549.16 378.91 1539.21 379.66 1534.78 381.60
  C 1523.96 386.35 1524.59 419.01 1524.31 430.99
  Q 1522.52 505.75 1527.32 580.40
  Q 1529.06 607.41 1532.49 634.25
  Q 1533.74 643.97 1536.86 655.37
  C 1537.93 659.26 1539.31 661.97 1543.49 663.15
  C 1553.19 665.90 1563.96 666.60 1573.99 667.02
  Q 1637.00 669.65 1699.68 663.19
  C 1710.79 662.04 1722.11 660.48 1731.74 657.95
  Q 1738.66 656.13 1740.95 654.21
  Q 1742.87 652.61 1743.43 649.25
  Q 1745.19 638.73 1745.32 632.00
  Q 1745.80 605.55 1741.28 579.49
  Q 1740.77 576.53 1739.07 572.56
  C 1737.73 569.43 1735.67 568.10 1732.50 567.51
  Q 1723.83 565.89 1715.00 566.33
  Q 1679.66 568.13 1644.24 568.46
  Q 1643.75 568.47 1643.75 567.97
  L 1643.75 554.30
  Q 1643.76 553.86 1644.20 553.85
  C 1655.66 553.61 1669.49 553.38 1681.33 550.70
  C 1691.64 548.36 1686.86 513.20 1685.34 505.80
  C 1684.49 501.65 1681.01 485.46 1677.02 484.68
  Q 1661.61 481.67 1641.32 481.76
  Q 1640.74 481.76 1640.71 481.18"
/>
<path stroke="#b38c4f" vector-effect="non-scaling-stroke" d="
  M 1783.06 493.11
  A 0.45 0.45 0.0 0 0 1782.66 493.64
  L 1785.75 510.90
  A 0.45 0.45 0.0 0 0 1786.16 511.27
  L 1911.18 519.29
  A 0.45 0.45 0.0 0 0 1911.65 518.93
  L 1918.57 482.46
  A 0.45 0.45 0.0 0 0 1918.09 481.93
  L 1783.06 493.11"
/>
</g>
<path fill="#6d5845" d="
  M 999.89 64.57
  C 1013.37 53.29 1031.03 46.84 1048.05 42.66
  A 0.25 0.24 -72.9 0 1 1048.27 43.08
  Q 1037.29 53.06 1028.60 65.35
  Q 1014.24 85.64 1002.84 108.07
  A 0.67 0.66 28.9 0 1 1001.91 108.33
  Q 995.41 104.43 988.00 106.04
  Q 987.39 106.18 987.09 105.63
  L 949.54 36.45
  A 0.31 0.31 0.0 0 1 949.97 36.03
  L 999.05 64.64
  A 0.74 0.73 -49.3 0 0 999.89 64.57
  Z
  M 999.10 66.65
  L 954.08 40.39
  A 0.22 0.22 0.0 0 0 953.78 40.68
  L 988.06 103.77
  A 0.74 0.73 -17.8 0 0 988.81 104.15
  Q 995.41 103.14 1001.42 106.10
  Q 1001.88 106.33 1002.11 105.87
  C 1012.73 85.01 1025.86 63.15 1042.34 46.40
  A 0.28 0.28 0.0 0 0 1042.06 45.93
  C 1026.84 50.47 1012.43 56.34 1000.06 66.57
  Q 999.60 66.95 999.10 66.65
  Z"
/>
<path fill="#6d5845" d="
  M 944.52 98.51
  Q 940.77 68.79 943.71 38.95
  Q 943.78 38.17 944.16 38.86
  L 981.64 107.85
  Q 981.92 108.35 981.44 108.68
  Q 971.51 115.61 972.61 127.93
  Q 972.64 128.37 972.22 128.51
  Q 940.21 138.93 908.27 144.28
  Q 899.82 145.69 890.31 145.65
  Q 889.61 145.65 890.15 145.19
  L 944.17 99.39
  Q 944.59 99.04 944.52 98.51
  Z
  M 944.53 50.46
  Q 942.79 74.85 946.40 99.15
  Q 946.48 99.70 946.06 100.05
  L 894.90 143.43
  A 0.39 0.39 0.0 0 0 895.19 144.12
  C 920.89 141.59 947.71 134.30 970.29 127.56
  Q 970.82 127.40 970.80 126.85
  Q 970.36 115.08 979.44 107.99
  Q 979.70 107.79 979.54 107.51
  L 945.55 44.96
  A 0.45 0.45 0.0 0 0 944.71 45.13
  C 944.54 46.88 944.64 48.90 944.53 50.46
  Z"
/>
<path fill="#f6aa3a" d="
  M 1000.06 66.57
  C 1012.43 56.34 1026.84 50.47 1042.06 45.93
  A 0.28 0.28 0.0 0 1 1042.34 46.40
  C 1025.86 63.15 1012.73 85.01 1002.11 105.87
  Q 1001.88 106.33 1001.42 106.10
  Q 995.41 103.14 988.81 104.15
  A 0.74 0.73 -17.8 0 1 988.06 103.77
  L 953.78 40.68
  A 0.22 0.22 0.0 0 1 954.08 40.39
  L 999.10 66.65
  Q 999.60 66.95 1000.06 66.57
  Z"
/>
<path fill="#f6aa3a" d="
  M 944.53 50.46
  C 944.64 48.90 944.54 46.88 944.71 45.13
  A 0.45 0.45 0.0 0 1 945.55 44.96
  L 979.54 107.51
  Q 979.70 107.79 979.44 107.99
  Q 970.36 115.08 970.80 126.85
  Q 970.82 127.40 970.29 127.56
  C 947.71 134.30 920.89 141.59 895.19 144.12
  A 0.39 0.39 0.0 0 1 894.90 143.43
  L 946.06 100.05
  Q 946.48 99.70 946.40 99.15
  Q 942.79 74.85 944.53 50.46
  Z"
/>
<path fill="#6d5845" d="
  M 1045.68 110.33
  C 1053.48 115.24 1061.00 124.16 1067.06 131.14
  Q 1067.43 131.57 1067.97 131.71
  L 1588.19 265.83
  Q 1588.68 265.96 1589.01 266.34
  C 1592.52 270.45 1596.04 277.10 1595.02 282.42
  C 1592.86 293.83 1572.78 294.39 1564.22 294.37
  Q 1559.93 294.36 1554.92 293.00
  Q 1311.16 226.96 1067.41 160.89
  Q 1065.26 160.31 1063.08 160.77
  Q 1048.44 163.82 1033.88 166.97
  Q 1033.38 167.08 1033.20 167.56
  C 1024.75 190.36 1011.21 212.46 997.18 231.89
  Q 996.36 233.02 996.29 231.63
  Q 994.12 193.77 995.09 156.50
  Q 995.24 150.67 995.68 144.84
  Q 995.72 144.33 996.22 144.20
  Q 1006.04 141.79 1010.08 132.55
  Q 1010.30 132.05 1010.80 132.27
  Q 1043.22 146.49 1077.42 155.68
  Q 1077.89 155.81 1078.32 155.58
  L 1081.43 153.87
  Q 1081.90 153.62 1081.91 153.10
  Q 1081.97 150.81 1079.32 150.10
  C 1056.68 143.96 1033.39 136.39 1012.20 126.27
  Q 1011.74 126.05 1011.72 125.53
  C 1011.58 121.45 1010.40 116.64 1007.63 113.54
  Q 1006.91 112.74 1007.54 111.54
  C 1017.12 93.22 1027.80 75.26 1040.86 59.20
  C 1045.22 53.84 1049.91 49.34 1055.10 45.08
  A 0.46 0.46 0.0 0 1 1055.85 45.46
  C 1054.48 66.92 1049.67 88.49 1045.35 109.56
  Q 1045.25 110.06 1045.68 110.33
  Z
  M 1041.15 61.65
  Q 1022.73 85.12 1009.50 111.93
  Q 1009.27 112.38 1009.54 112.81
  Q 1012.79 118.02 1013.18 124.15
  Q 1013.23 125.03 1014.04 125.39
  Q 1045.55 139.22 1078.79 148.17
  A 0.17 0.17 0.0 0 0 1078.96 147.90
  Q 1066.14 131.69 1051.36 117.15
  Q 1047.84 113.68 1043.81 111.20
  A 0.81 0.81 0.0 0 1 1043.44 110.34
  Q 1047.78 90.07 1051.34 69.76
  Q 1053.15 59.45 1053.93 49.03
  A 0.38 0.37 -18.4 0 0 1053.31 48.72
  Q 1046.70 54.58 1041.15 61.65
  Z
  M 1082.62 155.16
  C 1081.30 156.20 1079.65 157.45 1077.65 157.71
  Q 1073.80 158.22 1070.08 159.42
  Q 1069.28 159.68 1070.09 159.89
  Q 1312.31 225.54 1554.54 291.18
  Q 1559.73 292.59 1564.14 292.64
  C 1571.92 292.72 1591.52 292.31 1593.40 281.95
  C 1594.12 277.98 1591.52 272.57 1589.26 269.04
  Q 1588.29 267.54 1586.86 267.17
  Q 1328.42 200.54 1070.06 133.94
  A 0.20 0.20 0.0 0 0 1069.86 134.26
  L 1083.15 150.00
  A 3.60 3.59 -39.2 0 1 1082.62 155.16
  Z
  M 1032.69 165.52
  L 1073.45 156.87
  A 0.32 0.32 0.0 0 0 1073.46 156.25
  Q 1041.81 147.60 1011.71 134.54
  Q 1011.20 134.31 1010.93 134.81
  Q 1006.57 143.02 997.63 145.59
  A 0.95 0.94 82.8 0 0 996.95 146.47
  Q 995.54 186.48 997.67 226.24
  Q 997.70 226.77 997.77 227.05
  A 0.40 0.40 0.0 0 0 998.48 227.18
  C 1011.57 208.15 1023.82 188.07 1031.89 166.21
  Q 1032.10 165.64 1032.69 165.52
  Z"
/>
<path fill="#f6aa3a" d="
  M 1041.15 61.65
  Q 1046.70 54.58 1053.31 48.72
  A 0.38 0.37 -18.4 0 1 1053.93 49.03
  Q 1053.15 59.45 1051.34 69.76
  Q 1047.78 90.07 1043.44 110.34
  A 0.81 0.81 0.0 0 0 1043.81 111.20
  Q 1047.84 113.68 1051.36 117.15
  Q 1066.14 131.69 1078.96 147.90
  A 0.17 0.17 0.0 0 1 1078.79 148.17
  Q 1045.55 139.22 1014.04 125.39
  Q 1013.23 125.03 1013.18 124.15
  Q 1012.79 118.02 1009.54 112.81
  Q 1009.27 112.38 1009.50 111.93
  Q 1022.73 85.12 1041.15 61.65
  Z"
/>
<path fill="#6d5845" d="
  M 1001.88 125.15
  A 9.85 9.85 0.0 0 1 992.03 135.00
  A 9.85 9.85 0.0 0 1 982.18 125.15
  A 9.85 9.85 0.0 0 1 992.03 115.30
  A 9.85 9.85 0.0 0 1 1001.88 125.15
  Z
  M 1000.21 125.12
  A 8.17 8.17 0.0 0 0 992.04 116.95
  A 8.17 8.17 0.0 0 0 983.87 125.12
  A 8.17 8.17 0.0 0 0 992.04 133.29
  A 8.17 8.17 0.0 0 0 1000.21 125.12
  Z"
/>
<circle fill="#f6aa3a" cx="992.04" cy="125.12" r="8.17"/>
<path fill="#6d5845" d="
  M 1705.57 272.91
  L 1781.96 121.34
  A 0.41 0.41 0.0 0 1 1782.57 121.19
  L 1829.41 155.32
  A 0.41 0.41 0.0 0 1 1829.49 155.91
  L 1722.35 288.71
  A 0.41 0.41 0.0 0 1 1721.75 288.75
  L 1705.65 273.39
  A 0.41 0.41 0.0 0 1 1705.57 272.91
  Z
  M 1709.29 272.22
  A 0.33 0.33 0.0 0 0 1709.35 272.61
  L 1721.50 284.34
  A 0.33 0.33 0.0 0 0 1721.99 284.31
  L 1825.17 156.41
  A 0.33 0.33 0.0 0 0 1825.11 155.94
  L 1783.59 125.70
  A 0.33 0.33 0.0 0 0 1783.11 125.82
  L 1709.29 272.22
  Z"
/>
<path fill="#f8c059" d="
  M 1709.29 272.22
  L 1783.11 125.82
  A 0.33 0.33 0.0 0 1 1783.59 125.70
  L 1825.11 155.94
  A 0.33 0.33 0.0 0 1 1825.17 156.41
  L 1721.99 284.31
  A 0.33 0.33 0.0 0 1 1721.50 284.34
  L 1709.35 272.61
  A 0.33 0.33 0.0 0 1 1709.29 272.22
  Z"
/>
<path fill="#ee583b" d="
  M 1082.62 155.16
  A 3.60 3.59 -39.2 0 0 1083.15 150.00
  L 1069.86 134.26
  A 0.20 0.20 0.0 0 1 1070.06 133.94
  Q 1328.42 200.54 1586.86 267.17
  Q 1588.29 267.54 1589.26 269.04
  C 1591.52 272.57 1594.12 277.98 1593.40 281.95
  C 1591.52 292.31 1571.92 292.72 1564.14 292.64
  Q 1559.73 292.59 1554.54 291.18
  Q 1312.31 225.54 1070.09 159.89
  Q 1069.28 159.68 1070.08 159.42
  Q 1073.80 158.22 1077.65 157.71
  C 1079.65 157.45 1081.30 156.20 1082.62 155.16
  Z"
/>
<path fill="#6d5845" d="
  M 962.99 161.41
  Q 927.91 163.21 894.52 151.94
  A 0.13 0.13 0.0 0 1 894.55 151.68
  C 921.67 149.29 948.57 142.27 974.39 134.05
  Q 974.78 133.93 974.97 134.30
  Q 979.34 142.92 989.10 144.21
  Q 989.61 144.28 989.59 144.80
  Q 987.93 185.25 990.07 225.75
  Q 990.13 226.85 989.93 227.75
  Q 989.84 228.11 989.71 227.76
  L 964.12 162.14
  Q 963.82 161.36 962.99 161.41
  Z
  M 965.21 160.28
  L 986.82 215.73
  Q 988.15 219.13 987.99 215.48
  Q 986.47 181.01 987.96 147.00
  Q 988.02 145.65 986.79 145.51
  C 981.69 144.93 976.77 140.53 973.98 136.37
  Q 973.70 135.97 973.24 136.12
  Q 939.00 147.22 903.43 152.61
  A 0.18 0.18 0.0 0 0 903.41 152.97
  Q 918.91 157.23 934.91 159.05
  C 944.33 160.13 954.58 159.95 964.46 159.78
  Q 965.01 159.77 965.21 160.28
  Z"
/>
<path fill="#f6aa3a" d="
  M 1031.89 166.21
  C 1023.82 188.07 1011.57 208.15 998.48 227.18
  A 0.40 0.40 0.0 0 1 997.77 227.05
  Q 997.70 226.77 997.67 226.24
  Q 995.54 186.48 996.95 146.47
  A 0.95 0.94 82.8 0 1 997.63 145.59
  Q 1006.57 143.02 1010.93 134.81
  Q 1011.20 134.31 1011.71 134.54
  Q 1041.81 147.60 1073.46 156.25
  A 0.32 0.32 0.0 0 1 1073.45 156.87
  L 1032.69 165.52
  Q 1032.10 165.64 1031.89 166.21
  Z"
/>
<path fill="#f6aa3a" d="
  M 964.46 159.78
  C 954.58 159.95 944.33 160.13 934.91 159.05
  Q 918.91 157.23 903.41 152.97
  A 0.18 0.18 0.0 0 1 903.43 152.61
  Q 939.00 147.22 973.24 136.12
  Q 973.70 135.97 973.98 136.37
  C 976.77 140.53 981.69 144.93 986.79 145.51
  Q 988.02 145.65 987.96 147.00
  Q 986.47 181.01 987.99 215.48
  Q 988.15 219.13 986.82 215.73
  L 965.21 160.28
  Q 965.01 159.77 964.46 159.78
  Z"
/>
<path fill="#6d5845" d="
  M 258.68 300.78
  C 257.92 310.15 258.20 314.38 247.14 315.22
  Q 228.47 316.64 216.73 315.44
  Q 214.32 315.19 212.69 312.02
  Q 211.53 309.78 210.65 302.50
  Q 206.77 270.61 205.86 238.51
  C 205.38 221.52 204.80 210.37 206.58 197.24
  C 206.85 195.30 208.54 193.76 210.41 192.90
  C 235.12 181.56 269.22 182.35 290.92 200.08
  C 303.35 210.23 306.40 225.89 305.69 241.74
  Q 305.17 253.46 297.35 261.73
  A 0.65 0.65 0.0 0 0 297.41 262.67
  Q 304.94 268.91 311.62 275.89
  Q 315.71 280.15 316.73 283.79
  C 318.66 290.68 304.02 307.62 299.31 312.35
  C 296.55 315.12 293.83 315.62 290.24 314.55
  Q 285.11 313.01 280.65 310.04
  C 275.93 306.89 264.05 299.47 259.26 300.17
  A 0.69 0.68 -1.6 0 0 258.68 300.78
  Z
  M 292.40 261.74
  Q 300.31 255.33 302.00 245.75
  C 304.65 230.79 300.83 212.16 288.29 202.19
  C 266.84 185.12 235.24 185.54 211.15 196.00
  A 1.31 1.30 -89.2 0 0 210.47 196.67
  Q 209.54 198.76 209.35 201.05
  C 208.33 213.15 208.62 222.74 209.05 237.32
  Q 209.91 266.98 213.08 296.49
  Q 213.76 302.80 215.18 308.99
  C 215.76 311.54 217.01 312.33 219.49 312.41
  Q 233.72 312.91 245.47 311.95
  C 249.85 311.60 253.08 311.74 254.67 308.15
  C 256.00 305.16 254.40 300.52 256.38 298.10
  C 260.72 292.82 279.01 305.19 283.73 308.15
  C 286.82 310.10 293.55 313.62 296.68 310.43
  C 301.86 305.15 312.83 292.56 313.68 285.22
  A 1.56 1.56 0.0 0 0 313.49 284.30
  C 308.74 275.89 301.32 270.46 292.38 262.53
  Q 291.92 262.12 292.40 261.74
  Z"
/>
<path fill="#6d5845" d="
  M 632.58 265.37
  C 617.98 260.34 608.16 252.45 605.76 236.52
  Q 603.46 221.27 610.66 208.57
  C 623.03 186.76 653.56 179.81 675.63 189.90
  C 685.66 194.49 693.61 202.59 696.52 213.50
  C 699.94 226.32 673.60 230.88 665.81 231.38
  C 665.22 231.42 664.64 231.26 663.96 231.26
  Q 662.94 231.26 663.89 231.62
  Q 665.87 232.36 667.96 232.82
  C 690.50 237.82 709.42 255.13 704.93 280.36
  C 702.12 296.19 688.02 308.71 673.03 313.21
  C 651.68 319.62 629.14 315.35 613.51 298.76
  C 609.24 294.22 602.42 282.25 605.01 275.56
  C 608.34 266.91 624.63 265.13 632.51 265.71
  Q 633.86 265.81 632.58 265.37
  Z
  M 657.48 267.46
  C 663.29 269.09 665.66 276.23 659.11 278.56
  Q 650.02 281.78 646.31 274.46
  Q 645.25 272.35 644.05 271.64
  C 635.58 266.58 620.92 268.72 612.72 272.42
  C 609.65 273.81 606.93 276.66 607.56 280.01
  Q 608.84 286.85 613.27 293.10
  C 629.86 316.49 666.69 318.65 687.84 301.61
  Q 704.09 288.53 701.94 269.26
  C 699.78 249.86 682.86 239.22 665.29 235.41
  Q 657.92 233.81 650.54 232.29
  C 632.49 228.56 658.41 211.80 661.68 226.57
  Q 661.79 227.08 662.22 227.37
  Q 663.69 228.40 666.12 228.09
  C 675.69 226.90 684.35 225.35 691.54 219.84
  C 697.37 215.38 688.59 203.54 684.37 199.62
  C 668.47 184.82 642.05 185.71 625.34 197.52
  C 611.97 206.97 606.48 221.36 609.20 237.51
  C 611.07 248.60 618.50 256.04 628.42 260.36
  Q 631.84 261.85 639.31 263.21
  Q 647.86 264.77 657.48 267.46
  Z
  M 658.48 226.84
  C 656.87 222.10 650.65 223.80 648.31 226.59
  Q 646.84 228.33 649.08 228.78
  L 662.87 231.54
  Q 662.96 231.55 662.97 231.46
  Q 662.99 231.27 662.99 231.19
  Q 662.99 231.14 662.91 231.13
  C 660.17 230.75 659.40 229.55 658.48 226.84
  Z
  M 642.19 267.14
  C 645.79 268.13 648.60 270.00 649.54 273.80
  A 1.61 1.59 11.4 0 0 650.14 274.69
  Q 654.21 277.67 658.63 275.10
  A 1.98 1.97 59.9 0 0 659.34 272.40
  Q 658.55 271.05 656.53 270.46
  Q 649.43 268.37 642.20 267.11
  A 0.02 0.02 0.0 0 0 642.19 267.14
  Z"
/>
<path fill="#6d5845" d="
  M 749.20 191.18
  C 762.04 186.19 776.84 186.72 789.99 190.08
  C 816.44 196.82 835.94 217.92 837.35 245.77
  C 838.45 267.46 829.94 288.37 812.73 302.21
  C 796.39 315.34 777.07 318.76 757.01 313.99
  Q 727.34 306.93 713.66 279.95
  C 696.36 245.86 714.72 204.58 749.20 191.18
  Z
  M 731.66 205.66
  C 708.69 226.14 703.64 259.07 719.86 284.19
  C 731.54 302.28 749.99 311.97 771.77 312.67
  C 806.65 313.80 832.76 285.83 834.07 251.59
  C 835.16 223.26 816.46 199.96 789.58 193.26
  C 768.47 188.00 748.44 190.69 731.66 205.66
  Z"
/>
<path fill="#6d5845" d="
  M 370.95 277.25
  Q 370.11 289.18 368.40 301.02
  Q 367.36 308.25 365.30 312.79
  C 364.57 314.38 362.35 315.14 360.50 315.30
  C 354.49 315.82 327.68 317.02 323.99 312.30
  C 321.45 309.06 320.78 298.42 320.50 293.57
  Q 318.49 259.23 319.45 224.84
  C 319.79 212.59 319.85 204.89 321.45 195.49
  C 323.19 185.32 356.77 188.57 363.75 189.81
  Q 369.78 190.88 372.16 193.57
  C 382.32 205.05 390.92 217.55 399.20 230.40
  A 0.40 0.40 0.0 0 0 399.87 230.40
  Q 408.79 216.90 418.46 203.67
  C 423.59 196.65 427.28 191.28 435.25 189.84
  Q 451.44 186.91 469.98 189.88
  C 474.90 190.67 476.91 192.26 477.70 197.38
  C 478.07 199.74 478.50 202.19 478.65 204.55
  Q 480.92 239.95 479.83 275.38
  C 479.43 288.66 479.25 298.13 477.30 308.76
  Q 476.94 310.76 475.18 312.97
  A 1.58 1.57 11.0 0 1 474.39 313.50
  Q 470.23 314.67 464.75 315.07
  Q 450.23 316.15 437.74 315.05
  Q 435.15 314.82 433.94 312.28
  Q 431.94 308.08 430.73 298.75
  Q 429.27 287.46 428.40 276.10
  Q 428.35 275.48 427.93 275.93
  Q 417.86 286.82 406.60 296.33
  C 403.11 299.28 399.86 301.30 395.63 299.14
  Q 392.21 297.39 384.83 290.16
  Q 378.13 283.61 371.40 277.08
  Q 370.99 276.68 370.95 277.25
  Z
  M 369.06 269.66
  C 377.89 278.86 386.36 288.22 396.68 295.85
  C 399.78 298.14 402.16 295.66 404.89 293.33
  Q 418.70 281.57 430.33 268.53
  Q 431.20 267.55 431.26 268.87
  Q 431.98 286.37 434.99 303.75
  Q 435.63 307.46 436.98 311.03
  A 0.93 0.93 0.0 0 0 437.69 311.61
  Q 440.75 312.14 444.75 312.24
  Q 457.64 312.57 469.00 311.49
  Q 471.02 311.30 472.96 310.41
  A 1.09 1.06 85.3 0 0 473.53 309.72
  Q 475.24 303.35 475.51 299.00
  Q 478.11 256.36 475.87 211.75
  Q 475.46 203.49 474.28 196.67
  C 473.96 194.80 472.72 193.80 471.01 193.42
  Q 455.47 189.99 438.97 192.32
  Q 433.00 193.16 430.44 194.91
  C 427.68 196.79 423.33 202.35 420.75 205.93
  Q 409.96 220.95 399.93 236.22
  A 0.41 0.41 0.0 0 1 399.24 236.22
  Q 389.48 221.38 378.96 207.02
  C 374.84 201.38 370.24 194.65 365.01 193.46
  Q 348.79 189.77 331.50 192.70
  Q 327.62 193.36 325.33 194.77
  A 1.15 1.15 0.0 0 0 324.79 195.58
  C 324.17 199.45 323.48 203.42 323.31 207.31
  Q 321.91 238.27 322.52 269.25
  Q 322.87 287.18 324.73 303.25
  Q 325.09 306.34 326.34 309.98
  A 1.00 0.98 -0.4 0 0 326.99 310.61
  C 335.31 313.12 346.60 312.88 355.25 312.48
  Q 359.04 312.31 361.55 311.80
  Q 362.07 311.70 362.30 311.22
  Q 363.84 307.96 364.28 305.26
  Q 366.84 289.55 368.46 269.87
  Q 368.52 269.10 369.06 269.66
  Z"
/>
<path fill="#f0e1c0" d="
  M 292.38 262.53
  C 301.32 270.46 308.74 275.89 313.49 284.30
  A 1.56 1.56 0.0 0 1 313.68 285.22
  C 312.83 292.56 301.86 305.15 296.68 310.43
  C 293.55 313.62 286.82 310.10 283.73 308.15
  C 279.01 305.19 260.72 292.82 256.38 298.10
  C 254.40 300.52 256.00 305.16 254.67 308.15
  C 253.08 311.74 249.85 311.60 245.47 311.95
  Q 233.72 312.91 219.49 312.41
  C 217.01 312.33 215.76 311.54 215.18 308.99
  Q 213.76 302.80 213.08 296.49
  Q 209.91 266.98 209.05 237.32
  C 208.62 222.74 208.33 213.15 209.35 201.05
  Q 209.54 198.76 210.47 196.67
  A 1.31 1.30 -89.2 0 1 211.15 196.00
  C 235.24 185.54 266.84 185.12 288.29 202.19
  C 300.83 212.16 304.65 230.79 302.00 245.75
  Q 300.31 255.33 292.40 261.74
  Q 291.92 262.12 292.38 262.53
  Z
  M 259.53 246.75
  C 272.78 240.53 270.06 222.45 254.51 222.70
  C 247.01 222.82 243.80 224.49 243.55 232.71
  C 243.25 242.74 247.46 252.40 259.53 246.75
  Z"
/>
<path fill="#f0e1c0" d="
  M 659.11 278.56
  C 665.66 276.23 663.29 269.09 657.48 267.46
  Q 647.86 264.77 639.31 263.21
  Q 631.84 261.85 628.42 260.36
  C 618.50 256.04 611.07 248.60 609.20 237.51
  C 606.48 221.36 611.97 206.97 625.34 197.52
  C 642.05 185.71 668.47 184.82 684.37 199.62
  C 688.59 203.54 697.37 215.38 691.54 219.84
  C 684.35 225.35 675.69 226.90 666.12 228.09
  Q 663.69 228.40 662.22 227.37
  Q 661.79 227.08 661.68 226.57
  C 658.41 211.80 632.49 228.56 650.54 232.29
  Q 657.92 233.81 665.29 235.41
  C 682.86 239.22 699.78 249.86 701.94 269.26
  Q 704.09 288.53 687.84 301.61
  C 666.69 318.65 629.86 316.49 613.27 293.10
  Q 608.84 286.85 607.56 280.01
  C 606.93 276.66 609.65 273.81 612.72 272.42
  C 620.92 268.72 635.58 266.58 644.05 271.64
  Q 645.25 272.35 646.31 274.46
  Q 650.02 281.78 659.11 278.56
  Z"
/>
<path fill="#6d5845" d="
  M 153.21 291.05
  Q 147.57 290.86 138.49 291.06
  C 135.50 291.13 133.83 291.91 132.47 294.76
  Q 128.60 302.83 124.44 310.74
  C 121.82 315.73 119.09 315.57 113.42 315.74
  Q 103.79 316.02 93.13 314.89
  C 83.08 313.83 85.81 302.42 87.14 294.03
  Q 94.18 249.60 109.23 207.23
  Q 110.73 203.00 113.63 197.88
  C 115.18 195.14 117.67 193.75 120.48 192.92
  Q 139.91 187.15 160.00 189.83
  C 166.45 190.69 169.85 193.84 173.11 199.68
  Q 178.21 208.84 182.60 220.22
  Q 199.04 262.84 209.10 303.18
  Q 210.43 308.54 207.08 311.35
  Q 205.15 312.97 200.08 313.76
  Q 185.50 316.05 170.76 315.78
  Q 168.15 315.73 166.57 314.49
  C 159.38 308.79 160.62 296.83 154.16 291.41
  A 1.51 1.50 -24.2 0 0 153.21 291.05
  Z
  M 91.38 287.38
  Q 89.44 298.28 89.21 306.75
  C 89.14 309.12 89.94 311.06 92.37 311.45
  Q 102.43 313.08 114.13 312.52
  C 118.27 312.32 119.76 312.55 121.67 308.93
  Q 125.55 301.59 129.11 294.08
  C 130.75 290.61 133.28 287.84 137.02 287.80
  Q 144.17 287.72 151.44 287.74
  C 163.53 287.78 161.53 306.13 168.68 312.20
  A 1.43 1.42 -23.7 0 0 169.59 312.55
  Q 185.89 312.92 202.00 310.08
  Q 207.27 309.15 205.98 303.99
  Q 197.83 271.34 184.41 233.95
  Q 178.93 218.69 171.90 204.10
  C 168.58 197.18 165.54 193.65 157.50 192.78
  Q 139.56 190.84 122.24 195.76
  C 119.50 196.53 117.48 197.55 116.06 200.25
  Q 113.32 205.48 111.79 209.77
  Q 98.56 246.89 91.38 287.38
  Z"
/>
<path fill="#6d5845" d="
  M 512.50 197.82
  C 515.36 193.73 519.15 192.87 524.55 191.56
  Q 541.77 187.39 558.78 189.77
  C 568.07 191.07 570.88 196.94 575.21 205.64
  Q 578.48 212.23 581.14 219.12
  Q 594.91 254.81 605.93 295.02
  C 607.91 302.28 611.94 311.71 600.32 313.59
  Q 584.65 316.12 568.73 315.69
  C 558.37 315.41 559.81 291.25 551.25 291.11
  Q 544.62 291.00 538.00 290.99
  C 534.10 290.99 532.62 292.05 530.93 295.65
  Q 528.14 301.60 525.09 307.40
  C 522.17 312.97 521.56 315.33 515.27 315.64
  Q 509.32 315.92 493.78 315.08
  C 487.33 314.73 484.54 311.87 484.87 305.40
  Q 485.27 297.36 486.64 289.50
  Q 492.51 255.65 503.47 221.01
  Q 505.98 213.11 508.54 206.67
  Q 511.50 199.24 512.50 197.82
  Z
  M 512.45 205.76
  Q 509.75 212.22 507.13 220.33
  Q 495.26 257.19 489.20 293.74
  Q 488.69 296.84 488.30 302.52
  C 487.95 307.59 487.13 311.16 493.23 311.73
  Q 506.26 312.94 515.26 312.40
  C 517.37 312.28 518.85 312.02 519.97 310.00
  Q 524.28 302.22 528.05 294.15
  C 529.96 290.05 532.58 287.75 537.00 287.75
  Q 543.53 287.75 550.12 287.74
  C 554.90 287.73 557.65 290.03 559.37 294.23
  Q 562.06 300.84 564.33 307.60
  Q 565.13 309.96 567.64 312.17
  Q 568.02 312.50 568.52 312.51
  Q 584.34 312.95 599.98 310.33
  C 604.41 309.58 605.89 307.66 604.71 303.25
  Q 591.80 254.71 575.62 214.53
  C 572.61 207.03 567.68 194.66 560.26 193.33
  Q 540.72 189.82 519.97 196.17
  C 515.54 197.52 514.50 200.87 512.45 205.76
  Z"
/>
<path fill="#f0e1c0" d="
  M 719.86 284.19
  C 703.64 259.07 708.69 226.14 731.66 205.66
  C 748.44 190.69 768.47 188.00 789.58 193.26
  C 816.46 199.96 835.16 223.26 834.07 251.59
  C 832.76 285.83 806.65 313.80 771.77 312.67
  C 749.99 311.97 731.54 302.28 719.86 284.19
  Z
  M 789.4745 246.8516
  A 17.88 17.61 -15.8 0 0 767.4751 234.7753
  A 17.88 17.61 -15.8 0 0 755.0655 256.5884
  A 17.88 17.61 -15.8 0 0 777.0649 268.6647
  A 17.88 17.61 -15.8 0 0 789.4745 246.8516
  Z"
/>
<path fill="#6d5845" d="
  M 1739.33 355.11
  L 1885.32 191.38
  A 0.43 0.43 0.0 0 1 1885.97 191.39
  L 1931.70 244.08
  A 0.43 0.43 0.0 0 1 1931.63 244.71
  L 1757.49 372.92
  A 0.43 0.43 0.0 0 1 1756.94 372.88
  L 1739.35 355.71
  A 0.43 0.43 0.0 0 1 1739.33 355.11
  Z
  M 1743.51 355.01
  A 0.35 0.35 0.0 0 0 1743.53 355.49
  L 1757.28 368.95
  A 0.35 0.35 0.0 0 0 1757.73 368.98
  L 1927.25 244.14
  A 0.35 0.35 0.0 0 0 1927.31 243.63
  L 1885.88 195.92
  A 0.35 0.35 0.0 0 0 1885.36 195.92
  L 1743.51 355.01
  Z"
/>
<path fill="#f0e1c0" d="
  M 368.46 269.87
  Q 366.84 289.55 364.28 305.26
  Q 363.84 307.96 362.30 311.22
  Q 362.07 311.70 361.55 311.80
  Q 359.04 312.31 355.25 312.48
  C 346.60 312.88 335.31 313.12 326.99 310.61
  A 1.00 0.98 -0.4 0 1 326.34 309.98
  Q 325.09 306.34 324.73 303.25
  Q 322.87 287.18 322.52 269.25
  Q 321.91 238.27 323.31 207.31
  C 323.48 203.42 324.17 199.45 324.79 195.58
  A 1.15 1.15 0.0 0 1 325.33 194.77
  Q 327.62 193.36 331.50 192.70
  Q 348.79 189.77 365.01 193.46
  C 370.24 194.65 374.84 201.38 378.96 207.02
  Q 389.48 221.38 399.24 236.22
  A 0.41 0.41 0.0 0 0 399.93 236.22
  Q 409.96 220.95 420.75 205.93
  C 423.33 202.35 427.68 196.79 430.44 194.91
  Q 433.00 193.16 438.97 192.32
  Q 455.47 189.99 471.01 193.42
  C 472.72 193.80 473.96 194.80 474.28 196.67
  Q 475.46 203.49 475.87 211.75
  Q 478.11 256.36 475.51 299.00
  Q 475.24 303.35 473.53 309.72
  A 1.09 1.06 85.3 0 1 472.96 310.41
  Q 471.02 311.30 469.00 311.49
  Q 457.64 312.57 444.75 312.24
  Q 440.75 312.14 437.69 311.61
  A 0.93 0.93 0.0 0 1 436.98 311.03
  Q 435.63 307.46 434.99 303.75
  Q 431.98 286.37 431.26 268.87
  Q 431.20 267.55 430.33 268.53
  Q 418.70 281.57 404.89 293.33
  C 402.16 295.66 399.78 298.14 396.68 295.85
  C 386.36 288.22 377.89 278.86 369.06 269.66
  Q 368.52 269.10 368.46 269.87
  Z"
/>
<path fill="#f0e1c0" d="
  M 91.38 287.38
  Q 98.56 246.89 111.79 209.77
  Q 113.32 205.48 116.06 200.25
  C 117.48 197.55 119.50 196.53 122.24 195.76
  Q 139.56 190.84 157.50 192.78
  C 165.54 193.65 168.58 197.18 171.90 204.10
  Q 178.93 218.69 184.41 233.95
  Q 197.83 271.34 205.98 303.99
  Q 207.27 309.15 202.00 310.08
  Q 185.89 312.92 169.59 312.55
  A 1.43 1.42 -23.7 0 1 168.68 312.20
  C 161.53 306.13 163.53 287.78 151.44 287.74
  Q 144.17 287.72 137.02 287.80
  C 133.28 287.84 130.75 290.61 129.11 294.08
  Q 125.55 301.59 121.67 308.93
  C 119.76 312.55 118.27 312.32 114.13 312.52
  Q 102.43 313.08 92.37 311.45
  C 89.94 311.06 89.14 309.12 89.21 306.75
  Q 89.44 298.28 91.38 287.38
  Z
  M 155.24 260.25
  C 159.81 255.61 151.98 244.69 149.13 240.86
  Q 146.32 237.08 142.23 237.45
  A 1.56 1.55 17.1 0 0 141.18 238.00
  Q 135.91 244.39 133.29 254.28
  Q 132.22 258.31 134.18 260.60
  C 137.59 264.55 151.73 263.81 155.24 260.25
  Z"
/>
<path fill="#f0e1c0" d="
  M 512.45 205.76
  C 514.50 200.87 515.54 197.52 519.97 196.17
  Q 540.72 189.82 560.26 193.33
  C 567.68 194.66 572.61 207.03 575.62 214.53
  Q 591.80 254.71 604.71 303.25
  C 605.89 307.66 604.41 309.58 599.98 310.33
  Q 584.34 312.95 568.52 312.51
  Q 568.02 312.50 567.64 312.17
  Q 565.13 309.96 564.33 307.60
  Q 562.06 300.84 559.37 294.23
  C 557.65 290.03 554.90 287.73 550.12 287.74
  Q 543.53 287.75 537.00 287.75
  C 532.58 287.75 529.96 290.05 528.05 294.15
  Q 524.28 302.22 519.97 310.00
  C 518.85 312.02 517.37 312.28 515.26 312.40
  Q 506.26 312.94 493.23 311.73
  C 487.13 311.16 487.95 307.59 488.30 302.52
  Q 488.69 296.84 489.20 293.74
  Q 495.26 257.19 507.13 220.33
  Q 509.75 212.22 512.45 205.76
  Z
  M 552.10 247.06
  C 550.01 243.34 544.03 232.31 538.56 240.05
  C 535.26 244.75 527.16 259.46 535.72 262.34
  Q 542.57 264.65 550.89 262.05
  C 559.23 259.44 554.80 251.88 552.10 247.06
  Z"
/>
<path fill="#f8c059" d="
  M 1743.51 355.01
  L 1885.36 195.92
  A 0.35 0.35 0.0 0 1 1885.88 195.92
  L 1927.31 243.63
  A 0.35 0.35 0.0 0 1 1927.25 244.14
  L 1757.73 368.98
  A 0.35 0.35 0.0 0 1 1757.28 368.95
  L 1743.53 355.49
  A 0.35 0.35 0.0 0 1 1743.51 355.01
  Z"
/>
<path fill="#6d5845" d="
  M 259.53 246.75
  C 247.46 252.40 243.25 242.74 243.55 232.71
  C 243.80 224.49 247.01 222.82 254.51 222.70
  C 270.06 222.45 272.78 240.53 259.53 246.75
  Z
  M 251.44 245.03
  A 0.91 0.87 -27.9 0 0 251.83 245.14
  C 258.07 245.34 263.88 241.32 264.85 235.16
  C 266.32 225.69 248.81 223.00 247.26 228.97
  C 246.19 233.10 246.56 242.46 251.44 245.03
  Z"
/>
<path fill="#6d5845" d="
  M 789.4745 246.8516
  A 17.88 17.61 -15.8 0 1 777.0649 268.6647
  A 17.88 17.61 -15.8 0 1 755.0655 256.5884
  A 17.88 17.61 -15.8 0 1 767.4751 234.7753
  A 17.88 17.61 -15.8 0 1 789.4745 246.8516
  Z
  M 786.6016 249.0061
  A 14.59 14.34 -10.8 0 0 769.5830 237.6540
  A 14.59 14.34 -10.8 0 0 757.9384 254.4739
  A 14.59 14.34 -10.8 0 0 774.9570 265.8260
  A 14.59 14.34 -10.8 0 0 786.6016 249.0061
  Z"
/>
<path fill="#6d5845" d="
  M 149.13 240.86
  C 151.98 244.69 159.81 255.61 155.24 260.25
  C 151.73 263.81 137.59 264.55 134.18 260.60
  Q 132.22 258.31 133.29 254.28
  Q 135.91 244.39 141.18 238.00
  A 1.56 1.55 17.1 0 1 142.23 237.45
  Q 146.32 237.08 149.13 240.86
  Z
  M 137.25 258.97
  Q 144.94 261.29 152.39 258.37
  A 2.05 2.05 0.0 0 0 153.58 255.78
  Q 150.73 247.68 145.12 241.25
  A 1.61 1.60 41.5 0 0 142.59 241.40
  Q 137.79 248.45 135.96 256.77
  A 1.87 1.87 0.0 0 0 137.25 258.97
  Z"
/>
<path fill="#6d5845" d="
  M 552.10 247.06
  C 554.80 251.88 559.23 259.44 550.89 262.05
  Q 542.57 264.65 535.72 262.34
  C 527.16 259.46 535.26 244.75 538.56 240.05
  C 544.03 232.31 550.01 243.34 552.10 247.06
  Z
  M 534.99 257.08
  A 1.75 1.75 0.0 0 0 536.22 259.05
  Q 543.63 261.23 550.94 258.35
  Q 553.19 257.46 552.45 255.50
  Q 549.51 247.67 544.09 241.13
  A 1.48 1.47 43.5 0 0 541.77 241.19
  Q 536.50 248.32 534.99 257.08
  Z"
/>
<path fill="#6d5845" d="
  M 1769.61 421.95
  L 1973.85 335.05
  A 0.44 0.44 0.0 0 1 1974.46 335.42
  L 1979.07 399.12
  A 0.44 0.44 0.0 0 1 1978.74 399.58
  L 1781.20 446.94
  A 0.44 0.44 0.0 0 1 1780.70 446.70
  L 1769.38 422.54
  A 0.44 0.44 0.0 0 1 1769.61 421.95
  Z
  M 1773.58 423.54
  A 0.33 0.33 0.0 0 0 1773.41 423.98
  L 1782.43 443.28
  A 0.33 0.33 0.0 0 0 1782.80 443.46
  L 1975.69 397.24
  A 0.33 0.33 0.0 0 0 1975.94 396.89
  L 1971.78 339.69
  A 0.33 0.33 0.0 0 0 1971.33 339.41
  L 1773.58 423.54
  Z"
/>
<path fill="#f8c059" d="
  M 1773.58 423.54
  L 1971.33 339.41
  A 0.33 0.33 0.0 0 1 1971.78 339.69
  L 1975.94 396.89
  A 0.33 0.33 0.0 0 1 1975.69 397.24
  L 1782.80 443.46
  A 0.33 0.33 0.0 0 1 1782.43 443.28
  L 1773.41 423.98
  A 0.33 0.33 0.0 0 1 1773.58 423.54
  Z"
/>
<path fill="#6d5845" d="
  M 170.85 460.85
  C 165.54 466.10 181.68 469.72 184.27 470.23
  C 204.95 474.34 224.29 477.46 244.75 485.78
  C 279.99 500.11 305.55 528.24 307.91 567.38
  C 311.00 618.42 269.21 656.88 222.23 667.24
  C 175.81 677.48 128.70 667.88 95.41 632.70
  C 85.59 622.33 79.12 611.02 74.63 597.66
  C 72.72 591.98 71.26 586.12 72.80 580.41
  C 77.26 563.85 102.11 558.51 116.60 556.66
  Q 139.49 553.72 161.92 560.53
  Q 168.43 562.51 172.42 567.57
  Q 173.39 568.81 174.71 572.34
  Q 178.02 581.16 188.29 581.35
  C 192.91 581.44 201.62 579.52 203.46 574.45
  Q 204.71 571.00 202.11 567.85
  Q 199.71 564.94 194.24 563.31
  Q 172.69 556.91 150.55 553.18
  Q 138.56 551.17 133.17 549.40
  C 100.49 538.70 76.72 514.02 74.90 478.35
  C 73.57 452.39 78.05 428.57 94.74 407.76
  C 124.05 371.21 173.68 358.53 218.00 368.86
  Q 227.92 371.17 237.70 375.80
  C 261.74 387.17 278.96 404.06 286.75 430.23
  C 295.11 458.35 233.39 468.73 217.12 470.17
  Q 210.43 470.76 207.06 469.29
  Q 201.66 466.93 200.28 460.62
  Q 199.73 458.10 198.74 456.90
  C 191.01 447.53 177.60 454.16 170.85 460.85
  Z
  M 90.34 420.10
  C 79.27 438.88 76.28 460.53 78.43 481.99
  C 82.22 519.84 112.60 543.60 148.63 549.55
  Q 171.99 553.42 194.71 560.14
  Q 199.75 561.62 202.42 563.59
  C 207.15 567.09 209.13 576.02 203.67 579.94
  C 193.41 587.31 176.07 586.68 171.36 572.82
  Q 170.41 570.03 169.20 568.74
  C 163.56 562.68 149.66 560.26 141.25 559.53
  C 122.40 557.88 102.18 560.11 85.52 569.74
  C 76.05 575.21 73.73 583.20 76.75 593.43
  C 90.21 639.10 136.52 666.45 182.25 667.89
  C 216.15 668.95 250.21 659.75 275.32 636.23
  C 292.24 620.37 303.57 600.78 304.80 577.28
  C 306.72 540.59 285.78 509.49 253.39 493.35
  Q 232.39 482.88 207.46 478.20
  Q 194.96 475.85 182.52 473.22
  C 177.38 472.14 164.41 468.88 166.90 461.33
  C 168.80 455.59 179.49 450.61 184.74 449.46
  C 192.11 447.84 202.29 451.29 203.60 459.97
  C 204.46 465.72 209.81 467.57 214.99 467.13
  C 234.35 465.47 256.18 461.06 273.56 450.04
  C 281.44 445.04 286.67 439.74 283.18 429.58
  Q 273.31 400.83 248.94 385.61
  C 198.28 353.98 121.56 367.15 90.34 420.10
  Z"
/>
<path fill="#f0e1c0" d="
  M 90.34 420.10
  C 121.56 367.15 198.28 353.98 248.94 385.61
  Q 273.31 400.83 283.18 429.58
  C 286.67 439.74 281.44 445.04 273.56 450.04
  C 256.18 461.06 234.35 465.47 214.99 467.13
  C 209.81 467.57 204.46 465.72 203.60 459.97
  C 202.29 451.29 192.11 447.84 184.74 449.46
  C 179.49 450.61 168.80 455.59 166.90 461.33
  C 164.41 468.88 177.38 472.14 182.52 473.22
  Q 194.96 475.85 207.46 478.20
  Q 232.39 482.88 253.39 493.35
  C 285.78 509.49 306.72 540.59 304.80 577.28
  C 303.57 600.78 292.24 620.37 275.32 636.23
  C 250.21 659.75 216.15 668.95 182.25 667.89
  C 136.52 666.45 90.21 639.10 76.75 593.43
  C 73.73 583.20 76.05 575.21 85.52 569.74
  C 102.18 560.11 122.40 557.88 141.25 559.53
  C 149.66 560.26 163.56 562.68 169.20 568.74
  Q 170.41 570.03 171.36 572.82
  C 176.07 586.68 193.41 587.31 203.67 579.94
  C 209.13 576.02 207.15 567.09 202.42 563.59
  Q 199.75 561.62 194.71 560.14
  Q 171.99 553.42 148.63 549.55
  C 112.60 543.60 82.22 519.84 78.43 481.99
  C 76.28 460.53 79.27 438.88 90.34 420.10
  Z"
/>
<path fill="#6d5845" d="
  M 601.66 657.57
  C 594.38 635.66 591.80 612.92 589.03 590.49
  Q 579.17 510.50 576.61 429.93
  Q 575.92 408.17 577.21 395.49
  C 578.11 386.73 589.56 379.90 596.97 377.72
  Q 641.39 364.65 687.27 373.44
  C 693.28 374.60 700.76 376.81 705.25 379.62
  C 710.47 382.90 712.29 386.76 712.86 393.20
  Q 714.69 413.71 714.93 420.61
  Q 717.66 498.89 713.00 577.06
  Q 711.15 607.95 707.10 638.63
  Q 706.02 646.82 703.77 654.77
  Q 701.17 663.93 693.06 666.35
  C 685.37 668.64 678.79 669.28 669.58 670.05
  Q 647.38 671.90 626.50 670.01
  C 621.22 669.53 611.80 667.91 607.97 665.75
  Q 603.55 663.28 601.66 657.57
  Z
  M 596.05 617.88
  C 597.20 625.74 602.04 660.17 609.74 663.05
  C 614.51 664.83 620.35 666.08 625.85 666.62
  Q 654.43 669.42 682.87 665.33
  C 688.50 664.52 697.56 662.83 699.68 656.91
  Q 701.79 651.01 702.95 643.74
  Q 705.58 627.26 706.99 610.61
  Q 713.50 533.95 712.61 457.00
  Q 712.21 422.05 709.58 392.86
  Q 709.21 388.77 707.70 386.57
  C 703.89 381.02 695.24 378.57 689.24 377.30
  Q 643.80 367.67 599.22 380.45
  C 592.35 382.42 581.95 387.82 580.52 395.74
  Q 580.13 397.91 579.95 406.50
  Q 579.48 428.60 580.61 450.66
  C 583.48 506.76 587.95 562.26 596.05 617.88
  Z"
/>
<path fill="#6d5845" d="
  M 492.42 557.27
  Q 504.30 556.45 515.91 553.90
  Q 522.45 552.46 525.71 552.77
  C 538.83 554.01 547.61 567.09 552.13 578.37
  Q 561.60 601.95 560.08 627.75
  C 559.49 637.84 555.53 651.42 547.10 656.95
  Q 544.78 658.46 540.81 659.82
  Q 495.79 675.23 448.24 669.73
  C 385.74 662.49 330.81 618.63 321.86 554.51
  Q 319.38 536.74 321.54 517.90
  C 326.01 478.87 340.47 442.37 369.08 414.70
  Q 410.28 374.83 469.26 371.47
  Q 488.52 370.38 505.76 372.69
  C 518.98 374.46 529.21 385.81 534.08 397.65
  Q 541.50 415.68 544.23 435.01
  C 546.15 448.65 543.86 468.25 529.23 474.72
  Q 526.18 476.06 520.59 476.27
  Q 500.35 477.02 491.49 478.71
  Q 469.28 482.96 453.01 498.56
  Q 437.09 513.82 442.48 535.52
  C 446.07 549.92 461.33 556.75 475.01 557.43
  Q 483.71 557.86 492.42 557.27
  Z
  M 358.68 622.94
  C 404.58 671.72 480.47 677.33 540.52 656.48
  C 553.82 651.86 557.38 633.80 557.24 621.51
  C 557.01 601.34 551.63 572.56 534.89 559.60
  Q 530.95 556.56 525.59 556.08
  Q 522.61 555.81 516.01 557.20
  Q 494.78 561.70 473.88 560.60
  C 458.46 559.80 442.55 551.31 439.07 535.26
  Q 434.12 512.42 450.51 496.52
  Q 470.65 476.99 498.75 474.59
  Q 510.45 473.59 522.18 473.00
  C 538.90 472.16 542.86 450.45 541.31 437.75
  Q 538.85 417.64 531.08 398.94
  C 527.20 389.59 517.83 377.96 507.26 376.19
  Q 491.02 373.45 470.00 374.66
  Q 407.81 378.24 366.48 422.12
  C 341.64 448.49 328.57 482.77 324.77 518.51
  Q 318.25 579.96 358.68 622.94
  Z"
/>
<path fill="#6d5845" d="
  M 1393.62 510.84
  Q 1388.32 522.65 1392.26 536.50
  C 1396.21 550.37 1411.28 556.84 1424.51 557.36
  Q 1445.21 558.19 1465.39 553.88
  Q 1471.95 552.48 1475.23 552.82
  C 1501.88 555.60 1509.74 601.08 1509.89 621.51
  C 1509.97 632.32 1507.23 647.59 1498.45 655.28
  Q 1495.02 658.28 1487.69 660.68
  C 1423.57 681.66 1342.05 673.12 1297.47 615.68
  Q 1265.06 573.94 1270.98 518.75
  Q 1273.55 494.87 1280.96 473.89
  C 1300.65 418.18 1348.81 379.35 1407.25 372.50
  Q 1432.34 369.56 1455.50 372.74
  C 1469.16 374.62 1479.82 387.35 1484.53 399.58
  Q 1492.11 419.28 1494.12 438.51
  C 1495.70 453.59 1489.97 475.71 1470.97 476.26
  C 1456.63 476.67 1440.12 477.50 1427.25 482.60
  C 1414.13 487.79 1399.34 498.09 1393.62 510.84
  Z
  M 1406.24 375.89
  C 1346.54 383.53 1298.52 425.15 1281.33 483.02
  Q 1273.66 508.84 1273.21 532.02
  C 1271.76 606.76 1329.83 659.56 1401.26 666.77
  Q 1444.36 671.11 1484.89 658.19
  Q 1492.80 655.67 1496.04 652.97
  C 1504.54 645.90 1506.63 630.94 1506.65 620.73
  C 1506.67 602.47 1498.97 559.18 1475.15 556.17
  Q 1472.05 555.77 1465.96 557.10
  Q 1453.37 559.83 1440.50 560.48
  C 1427.28 561.16 1414.30 561.42 1402.53 554.32
  C 1393.97 549.15 1389.50 542.26 1387.99 532.49
  C 1385.46 516.09 1390.86 504.25 1403.26 493.40
  Q 1422.04 476.96 1448.00 474.55
  Q 1455.45 473.86 1471.65 472.97
  C 1488.43 472.06 1492.18 450.48 1490.76 437.75
  C 1488.64 418.81 1479.81 379.52 1455.50 376.01
  Q 1431.95 372.60 1406.24 375.89
  Z"
/>
<path fill="#6d5845" d="
  M 854.14 471.41
  L 854.50 477.96
  Q 854.54 478.56 855.15 478.56
  Q 874.16 478.58 889.00 481.70
  C 892.95 482.53 895.95 491.58 896.93 494.95
  Q 904.16 520.05 900.50 544.63
  Q 899.21 553.30 890.28 554.52
  Q 874.37 556.69 858.37 556.93
  Q 857.77 556.94 857.77 557.54
  L 857.77 564.73
  Q 857.77 565.20 858.25 565.20
  C 885.66 564.84 904.12 563.85 927.07 562.93
  Q 930.80 562.78 934.40 563.13
  C 946.07 564.29 952.64 564.74 955.13 578.24
  Q 957.83 592.93 958.71 609.26
  C 959.54 624.63 960.06 639.13 956.89 652.54
  C 954.51 662.58 918.35 665.51 909.73 666.39
  Q 844.39 673.03 778.81 669.81
  Q 768.65 669.31 758.63 667.60
  C 752.78 666.59 747.79 665.47 745.53 659.26
  C 742.83 651.80 741.36 644.27 740.26 635.63
  Q 735.65 599.27 733.49 555.50
  Q 730.01 484.68 732.40 413.82
  C 732.72 404.33 733.93 380.79 745.70 378.17
  Q 756.37 375.80 769.50 374.82
  Q 803.56 372.28 830.50 371.63
  Q 873.55 370.59 916.48 373.95
  Q 924.05 374.54 931.40 376.29
  C 940.29 378.40 941.53 388.50 942.21 395.99
  Q 944.25 418.74 942.38 441.49
  Q 941.46 452.78 939.57 458.54
  C 937.15 465.93 919.38 467.52 912.70 467.91
  Q 883.70 469.63 854.67 470.83
  Q 854.11 470.86 854.14 471.41
  Z
  M 851.54 481.16
  L 850.69 468.24
  Q 850.65 467.64 851.26 467.62
  Q 884.42 466.70 917.49 464.10
  Q 924.79 463.53 931.72 461.27
  Q 936.03 459.86 937.01 455.53
  C 939.04 446.60 939.56 438.52 939.95 428.46
  Q 940.73 408.52 937.88 388.74
  Q 937.31 384.78 934.87 382.01
  C 931.54 378.23 919.37 377.29 914.50 376.90
  Q 895.90 375.40 877.25 374.99
  Q 821.41 373.76 765.76 378.42
  Q 756.54 379.19 747.48 381.05
  C 741.83 382.21 739.93 386.89 738.65 392.03
  Q 736.61 400.27 735.88 408.75
  Q 735.31 415.38 734.87 441.25
  Q 733.57 517.22 739.14 592.99
  Q 740.61 612.92 743.05 632.75
  Q 744.46 644.25 747.57 655.41
  C 748.51 658.79 749.96 661.72 753.58 662.93
  C 762.76 666.00 774.32 666.56 784.76 666.97
  Q 836.05 669.00 887.25 665.34
  Q 910.37 663.68 933.23 659.91
  Q 940.02 658.79 947.75 656.22
  C 951.06 655.11 953.41 653.55 954.09 649.82
  C 957.70 629.96 955.90 606.78 953.43 587.75
  C 952.56 580.99 950.76 569.46 945.36 568.01
  Q 935.62 565.39 922.98 566.14
  Q 889.12 568.14 855.14 568.51
  Q 854.57 568.52 854.57 567.95
  L 854.60 554.39
  Q 854.60 553.81 855.18 553.80
  Q 868.37 553.58 881.51 552.40
  C 884.59 552.13 892.38 551.51 894.65 549.43
  C 897.58 546.73 898.26 538.53 898.41 534.25
  Q 898.99 517.01 895.01 500.25
  C 894.05 496.23 891.16 485.26 886.90 484.55
  Q 869.63 481.65 852.12 481.71
  Q 851.57 481.71 851.54 481.16
  Z"
/>
<path fill="#6d5845" d="
  M 1139.97 446.13
  Q 1139.37 425.23 1138.47 403.75
  Q 1138.27 399.02 1139.09 392.43
  C 1140.57 380.41 1157.76 376.60 1167.31 374.80
  Q 1197.40 369.13 1227.77 373.12
  C 1235.44 374.13 1253.64 376.89 1254.59 386.76
  Q 1257.61 418.19 1258.13 449.75
  C 1259.11 509.83 1258.84 569.12 1255.16 630.00
  Q 1254.34 643.54 1252.79 655.03
  C 1252.03 660.70 1250.13 664.32 1244.76 666.05
  C 1235.13 669.15 1225.78 669.98 1214.64 670.59
  Q 1192.63 671.79 1170.74 668.29
  C 1161.71 666.84 1151.53 656.55 1144.69 649.62
  Q 1113.38 617.91 1086.00 583.64
  Q 1085.08 582.50 1084.96 583.96
  Q 1082.75 611.18 1079.42 637.99
  C 1078.47 645.57 1077.25 656.69 1073.46 662.96
  C 1070.43 667.99 1056.68 669.71 1051.24 670.19
  Q 1033.11 671.80 1015.01 670.40
  C 1004.81 669.62 996.30 669.08 988.22 666.22
  C 979.96 663.29 978.78 656.72 976.94 647.82
  Q 975.43 640.49 974.81 634.25
  Q 969.25 578.27 969.20 522.00
  C 969.20 521.03 968.87 520.22 968.86 519.32
  Q 968.76 485.65 969.66 452.00
  Q 970.60 416.44 975.13 386.23
  C 976.77 375.29 1006.73 373.64 1015.73 373.19
  Q 1039.88 372.00 1063.73 375.86
  Q 1074.77 377.65 1081.27 380.75
  C 1091.33 385.55 1101.78 397.33 1109.04 406.44
  Q 1124.53 425.85 1139.33 446.34
  Q 1140.01 447.28 1139.97 446.13
  Z
  M 1143.04 457.52
  Q 1127.82 435.61 1111.49 414.52
  Q 1103.87 404.69 1095.17 395.82
  Q 1087.76 388.27 1082.98 385.52
  Q 1076.83 381.99 1073.28 381.19
  Q 1032.34 371.92 990.98 379.38
  C 988.11 379.90 978.93 382.78 978.32 387.03
  Q 974.79 411.52 973.79 433.00
  Q 970.13 511.23 974.58 592.66
  Q 975.99 618.43 979.66 643.97
  C 980.61 650.54 981.84 659.87 987.30 662.21
  Q 993.15 664.72 1001.51 665.82
  Q 1022.30 668.57 1043.25 667.64
  C 1052.05 667.25 1061.86 666.16 1069.64 662.43
  A 1.58 1.54 -88.3 0 0 1070.33 661.76
  C 1073.97 655.00 1075.31 645.50 1076.19 638.25
  Q 1080.04 606.34 1082.58 574.37
  A 0.15 0.15 0.0 0 1 1082.85 574.29
  Q 1115.42 616.05 1153.02 653.23
  Q 1156.89 657.06 1162.95 661.22
  C 1167.32 664.21 1171.67 665.37 1176.75 666.01
  Q 1204.39 669.54 1232.01 665.81
  C 1237.00 665.13 1247.73 663.40 1248.98 657.58
  Q 1250.06 652.56 1250.43 648.66
  Q 1252.21 629.69 1253.20 605.49
  Q 1256.42 527.27 1254.83 449.00
  Q 1254.17 416.30 1251.71 388.19
  Q 1251.51 385.94 1250.49 384.60
  C 1247.73 380.98 1241.34 379.09 1236.80 378.18
  Q 1197.51 370.29 1158.94 380.23
  C 1153.95 381.51 1143.43 385.42 1142.43 391.24
  Q 1141.39 397.27 1141.92 408.74
  Q 1143.02 433.05 1143.44 457.39
  Q 1143.46 458.11 1143.04 457.52
  Z"
/>
<path fill="#6d5845" d="
  M 1643.42 471.32
  L 1643.77 477.98
  Q 1643.80 478.49 1644.32 478.50
  Q 1661.55 478.59 1678.51 481.74
  C 1681.78 482.35 1684.59 490.01 1685.72 493.77
  C 1690.52 509.83 1692.77 528.72 1689.52 545.27
  C 1687.87 553.61 1682.40 554.17 1674.40 555.12
  Q 1660.95 556.71 1647.42 556.97
  A 0.53 0.52 88.9 0 0 1646.91 557.51
  L 1646.99 564.75
  Q 1646.99 565.19 1647.43 565.19
  Q 1680.00 564.87 1712.50 563.07
  Q 1721.12 562.59 1731.02 563.87
  Q 1741.46 565.22 1743.59 575.51
  C 1747.77 595.66 1749.87 620.48 1747.73 642.03
  C 1746.83 651.15 1746.59 656.76 1737.52 659.48
  Q 1726.12 662.89 1717.37 664.11
  Q 1678.95 669.48 1640.19 670.44
  C 1613.66 671.09 1587.24 671.20 1561.25 669.44
  Q 1552.10 668.82 1542.57 666.29
  C 1538.38 665.18 1536.18 663.14 1534.82 659.22
  Q 1531.28 649.07 1529.85 638.38
  Q 1525.68 607.05 1523.79 575.50
  C 1520.49 520.57 1519.47 465.24 1521.87 410.25
  Q 1522.39 398.28 1525.74 387.74
  C 1528.30 379.70 1533.83 377.80 1541.50 376.78
  Q 1553.28 375.21 1561.00 374.62
  Q 1628.45 369.47 1696.00 373.01
  Q 1707.60 373.62 1719.01 375.70
  Q 1726.95 377.14 1729.24 384.46
  Q 1730.87 389.65 1731.48 396.49
  Q 1733.67 421.18 1731.53 443.75
  Q 1731.02 449.15 1729.40 456.16
  C 1728.14 461.57 1724.61 463.87 1719.47 465.12
  Q 1710.74 467.23 1704.24 467.68
  Q 1674.11 469.73 1643.92 470.78
  Q 1643.39 470.79 1643.42 471.32
  Z
  M 1640.71 481.18
  L 1640.13 468.14
  Q 1640.11 467.61 1640.63 467.60
  Q 1672.60 466.70 1704.49 464.42
  C 1710.77 463.97 1720.14 462.92 1725.06 458.59
  Q 1725.44 458.26 1725.58 457.77
  Q 1727.55 450.57 1727.97 446.47
  Q 1730.34 423.39 1728.63 400.24
  Q 1728.11 393.22 1726.46 386.34
  Q 1725.06 380.45 1718.75 379.24
  Q 1706.44 376.88 1697.74 376.39
  Q 1626.35 372.30 1555.09 378.40
  C 1549.16 378.91 1539.21 379.66 1534.78 381.60
  C 1523.96 386.35 1524.59 419.01 1524.31 430.99
  Q 1522.52 505.75 1527.32 580.40
  Q 1529.06 607.41 1532.49 634.25
  Q 1533.74 643.97 1536.86 655.37
  C 1537.93 659.26 1539.31 661.97 1543.49 663.15
  C 1553.19 665.90 1563.96 666.60 1573.99 667.02
  Q 1637.00 669.65 1699.68 663.19
  C 1710.79 662.04 1722.11 660.48 1731.74 657.95
  Q 1738.66 656.13 1740.95 654.21
  Q 1742.87 652.61 1743.43 649.25
  Q 1745.19 638.73 1745.32 632.00
  Q 1745.80 605.55 1741.28 579.49
  Q 1740.77 576.53 1739.07 572.56
  C 1737.73 569.43 1735.67 568.10 1732.50 567.51
  Q 1723.83 565.89 1715.00 566.33
  Q 1679.66 568.13 1644.24 568.46
  Q 1643.75 568.47 1643.75 567.97
  L 1643.75 554.30
  Q 1643.76 553.86 1644.20 553.85
  C 1655.66 553.61 1669.49 553.38 1681.33 550.70
  C 1691.64 548.36 1686.86 513.20 1685.34 505.80
  C 1684.49 501.65 1681.01 485.46 1677.02 484.68
  Q 1661.61 481.67 1641.32 481.76
  Q 1640.74 481.76 1640.71 481.18
  Z"
/>
<path fill="#f0e1c0" d="
  M 596.05 617.88
  C 587.95 562.26 583.48 506.76 580.61 450.66
  Q 579.48 428.60 579.95 406.50
  Q 580.13 397.91 580.52 395.74
  C 581.95 387.82 592.35 382.42 599.22 380.45
  Q 643.80 367.67 689.24 377.30
  C 695.24 378.57 703.89 381.02 707.70 386.57
  Q 709.21 388.77 709.58 392.86
  Q 712.21 422.05 712.61 457.00
  Q 713.50 533.95 706.99 610.61
  Q 705.58 627.26 702.95 643.74
  Q 701.79 651.01 699.68 656.91
  C 697.56 662.83 688.50 664.52 682.87 665.33
  Q 654.43 669.42 625.85 666.62
  C 620.35 666.08 614.51 664.83 609.74 663.05
  C 602.04 660.17 597.20 625.74 596.05 617.88
  Z"
/>
<path fill="#f0e1c0" d="
  M 540.52 656.48
  C 480.47 677.33 404.58 671.72 358.68 622.94
  Q 318.25 579.96 324.77 518.51
  C 328.57 482.77 341.64 448.49 366.48 422.12
  Q 407.81 378.24 470.00 374.66
  Q 491.02 373.45 507.26 376.19
  C 517.83 377.96 527.20 389.59 531.08 398.94
  Q 538.85 417.64 541.31 437.75
  C 542.86 450.45 538.90 472.16 522.18 473.00
  Q 510.45 473.59 498.75 474.59
  Q 470.65 476.99 450.51 496.52
  Q 434.12 512.42 439.07 535.26
  C 442.55 551.31 458.46 559.80 473.88 560.60
  Q 494.78 561.70 516.01 557.20
  Q 522.61 555.81 525.59 556.08
  Q 530.95 556.56 534.89 559.60
  C 551.63 572.56 557.01 601.34 557.24 621.51
  C 557.38 633.80 553.82 651.86 540.52 656.48
  Z"
/>
<path fill="#f0e1c0" d="
  M 1406.24 375.89
  Q 1431.95 372.60 1455.50 376.01
  C 1479.81 379.52 1488.64 418.81 1490.76 437.75
  C 1492.18 450.48 1488.43 472.06 1471.65 472.97
  Q 1455.45 473.86 1448.00 474.55
  Q 1422.04 476.96 1403.26 493.40
  C 1390.86 504.25 1385.46 516.09 1387.99 532.49
  C 1389.50 542.26 1393.97 549.15 1402.53 554.32
  C 1414.30 561.42 1427.28 561.16 1440.50 560.48
  Q 1453.37 559.83 1465.96 557.10
  Q 1472.05 555.77 1475.15 556.17
  C 1498.97 559.18 1506.67 602.47 1506.65 620.73
  C 1506.63 630.94 1504.54 645.90 1496.04 652.97
  Q 1492.80 655.67 1484.89 658.19
  Q 1444.36 671.11 1401.26 666.77
  C 1329.83 659.56 1271.76 606.76 1273.21 532.02
  Q 1273.66 508.84 1281.33 483.02
  C 1298.52 425.15 1346.54 383.53 1406.24 375.89
  Z"
/>
<path fill="#f0e1c0" d="
  M 852.12 481.71
  Q 869.63 481.65 886.90 484.55
  C 891.16 485.26 894.05 496.23 895.01 500.25
  Q 898.99 517.01 898.41 534.25
  C 898.26 538.53 897.58 546.73 894.65 549.43
  C 892.38 551.51 884.59 552.13 881.51 552.40
  Q 868.37 553.58 855.18 553.80
  Q 854.60 553.81 854.60 554.39
  L 854.57 567.95
  Q 854.57 568.52 855.14 568.51
  Q 889.12 568.14 922.98 566.14
  Q 935.62 565.39 945.36 568.01
  C 950.76 569.46 952.56 580.99 953.43 587.75
  C 955.90 606.78 957.70 629.96 954.09 649.82
  C 953.41 653.55 951.06 655.11 947.75 656.22
  Q 940.02 658.79 933.23 659.91
  Q 910.37 663.68 887.25 665.34
  Q 836.05 669.00 784.76 666.97
  C 774.32 666.56 762.76 666.00 753.58 662.93
  C 749.96 661.72 748.51 658.79 747.57 655.41
  Q 744.46 644.25 743.05 632.75
  Q 740.61 612.92 739.14 592.99
  Q 733.57 517.22 734.87 441.25
  Q 735.31 415.38 735.88 408.75
  Q 736.61 400.27 738.65 392.03
  C 739.93 386.89 741.83 382.21 747.48 381.05
  Q 756.54 379.19 765.76 378.42
  Q 821.41 373.76 877.25 374.99
  Q 895.90 375.40 914.50 376.90
  C 919.37 377.29 931.54 378.23 934.87 382.01
  Q 937.31 384.78 937.88 388.74
  Q 940.73 408.52 939.95 428.46
  C 939.56 438.52 939.04 446.60 937.01 455.53
  Q 936.03 459.86 931.72 461.27
  Q 924.79 463.53 917.49 464.10
  Q 884.42 466.70 851.26 467.62
  Q 850.65 467.64 850.69 468.24
  L 851.54 481.16
  Q 851.57 481.71 852.12 481.71
  Z"
/>
<path fill="#f0e1c0" d="
  M 1143.44 457.39
  Q 1143.02 433.05 1141.92 408.74
  Q 1141.39 397.27 1142.43 391.24
  C 1143.43 385.42 1153.95 381.51 1158.94 380.23
  Q 1197.51 370.29 1236.80 378.18
  C 1241.34 379.09 1247.73 380.98 1250.49 384.60
  Q 1251.51 385.94 1251.71 388.19
  Q 1254.17 416.30 1254.83 449.00
  Q 1256.42 527.27 1253.20 605.49
  Q 1252.21 629.69 1250.43 648.66
  Q 1250.06 652.56 1248.98 657.58
  C 1247.73 663.40 1237.00 665.13 1232.01 665.81
  Q 1204.39 669.54 1176.75 666.01
  C 1171.67 665.37 1167.32 664.21 1162.95 661.22
  Q 1156.89 657.06 1153.02 653.23
  Q 1115.42 616.05 1082.85 574.29
  A 0.15 0.15 0.0 0 0 1082.58 574.37
  Q 1080.04 606.34 1076.19 638.25
  C 1075.31 645.50 1073.97 655.00 1070.33 661.76
  A 1.58 1.54 -88.3 0 1 1069.64 662.43
  C 1061.86 666.16 1052.05 667.25 1043.25 667.64
  Q 1022.30 668.57 1001.51 665.82
  Q 993.15 664.72 987.30 662.21
  C 981.84 659.87 980.61 650.54 979.66 643.97
  Q 975.99 618.43 974.58 592.66
  Q 970.13 511.23 973.79 433.00
  Q 974.79 411.52 978.32 387.03
  C 978.93 382.78 988.11 379.90 990.98 379.38
  Q 1032.34 371.92 1073.28 381.19
  Q 1076.83 381.99 1082.98 385.52
  Q 1087.76 388.27 1095.17 395.82
  Q 1103.87 404.69 1111.49 414.52
  Q 1127.82 435.61 1143.04 457.52
  Q 1143.46 458.11 1143.44 457.39
  Z"
/>
<path fill="#f0e1c0" d="
  M 1641.32 481.76
  Q 1661.61 481.67 1677.02 484.68
  C 1681.01 485.46 1684.49 501.65 1685.34 505.80
  C 1686.86 513.20 1691.64 548.36 1681.33 550.70
  C 1669.49 553.38 1655.66 553.61 1644.20 553.85
  Q 1643.76 553.86 1643.75 554.30
  L 1643.75 567.97
  Q 1643.75 568.47 1644.24 568.46
  Q 1679.66 568.13 1715.00 566.33
  Q 1723.83 565.89 1732.50 567.51
  C 1735.67 568.10 1737.73 569.43 1739.07 572.56
  Q 1740.77 576.53 1741.28 579.49
  Q 1745.80 605.55 1745.32 632.00
  Q 1745.19 638.73 1743.43 649.25
  Q 1742.87 652.61 1740.95 654.21
  Q 1738.66 656.13 1731.74 657.95
  C 1722.11 660.48 1710.79 662.04 1699.68 663.19
  Q 1637.00 669.65 1573.99 667.02
  C 1563.96 666.60 1553.19 665.90 1543.49 663.15
  C 1539.31 661.97 1537.93 659.26 1536.86 655.37
  Q 1533.74 643.97 1532.49 634.25
  Q 1529.06 607.41 1527.32 580.40
  Q 1522.52 505.75 1524.31 430.99
  C 1524.59 419.01 1523.96 386.35 1534.78 381.60
  C 1539.21 379.66 1549.16 378.91 1555.09 378.40
  Q 1626.35 372.30 1697.74 376.39
  Q 1706.44 376.88 1718.75 379.24
  Q 1725.06 380.45 1726.46 386.34
  Q 1728.11 393.22 1728.63 400.24
  Q 1730.34 423.39 1727.97 446.47
  Q 1727.55 450.57 1725.58 457.77
  Q 1725.44 458.26 1725.06 458.59
  C 1720.14 462.92 1710.77 463.97 1704.49 464.42
  Q 1672.60 466.70 1640.63 467.60
  Q 1640.11 467.61 1640.13 468.14
  L 1640.71 481.18
  Q 1640.74 481.76 1641.32 481.76
  Z"
/>
<path fill="#6d5845" d="
  M 1779.65 490.43
  L 1921.64 478.67
  A 0.55 0.55 0.0 0 1 1922.22 479.32
  L 1914.10 522.00
  A 0.55 0.55 0.0 0 1 1913.53 522.45
  L 1783.74 514.09
  A 0.55 0.55 0.0 0 1 1783.23 513.64
  L 1779.16 491.08
  A 0.55 0.55 0.0 0 1 1779.65 490.43
  Z
  M 1783.06 493.11
  A 0.45 0.45 0.0 0 0 1782.66 493.64
  L 1785.75 510.90
  A 0.45 0.45 0.0 0 0 1786.16 511.27
  L 1911.18 519.29
  A 0.45 0.45 0.0 0 0 1911.65 518.93
  L 1918.57 482.46
  A 0.45 0.45 0.0 0 0 1918.09 481.93
  L 1783.06 493.11
  Z"
/>
<path fill="#f8c059" d="
  M 1783.06 493.11
  L 1918.09 481.93
  A 0.45 0.45 0.0 0 1 1918.57 482.46
  L 1911.65 518.93
  A 0.45 0.45 0.0 0 1 1911.18 519.29
  L 1786.16 511.27
  A 0.45 0.45 0.0 0 1 1785.75 510.90
  L 1782.66 493.64
  A 0.45 0.45 0.0 0 1 1783.06 493.11
  Z"
/>
<path fill="#6d5845" d="
  M 1488.43 745.10
  C 1483.24 737.31 1474.07 734.79 1465.52 738.53
  C 1459.06 741.35 1454.32 749.39 1459.32 755.68
  Q 1460.36 757.00 1465.74 759.15
  Q 1471.11 761.30 1482.38 763.87
  C 1502.03 768.36 1507.43 791.69 1492.96 805.24
  Q 1487.35 810.49 1479.76 811.76
  Q 1457.83 815.44 1445.92 797.30
  Q 1444.92 795.78 1444.30 794.06
  Q 1444.10 793.49 1444.64 793.23
  L 1454.04 788.75
  A 0.41 0.41 0.0 0 1 1454.59 788.94
  Q 1459.41 799.07 1469.66 800.69
  C 1478.52 802.10 1489.76 797.24 1489.68 786.82
  C 1489.64 780.32 1484.71 776.03 1478.57 774.89
  C 1464.32 772.25 1445.18 767.25 1445.73 749.02
  Q 1445.91 742.96 1449.34 737.56
  C 1455.34 728.12 1466.54 724.33 1477.49 725.80
  Q 1491.52 727.68 1498.73 739.82
  A 0.66 0.65 61.6 0 1 1498.46 740.75
  L 1489.21 745.31
  Q 1488.73 745.55 1488.43 745.10
  Z"
/>
<path fill="#6d5845" d="
  M 150.62 793.24
  L 111.10 793.24
  A 0.42 0.42 0.0 0 0 110.71 793.50
  L 103.66 811.12
  A 0.42 0.42 0.0 0 1 103.27 811.38
  L 91.77 811.38
  A 0.42 0.42 0.0 0 1 91.39 810.80
  L 125.56 726.72
  A 0.42 0.42 0.0 0 1 125.95 726.46
  L 136.07 726.47
  A 0.42 0.42 0.0 0 1 136.46 726.73
  L 170.68 810.79
  A 0.42 0.42 0.0 0 1 170.30 811.37
  L 158.54 811.39
  A 0.42 0.42 0.0 0 1 158.15 811.13
  L 151.01 793.50
  A 0.42 0.42 0.0 0 0 150.62 793.24
  Z
  M 115.84 781.05
  A 0.32 0.32 0.0 0 0 116.14 781.49
  L 145.60 781.49
  A 0.32 0.32 0.0 0 0 145.90 781.05
  L 131.17 744.71
  A 0.32 0.32 0.0 0 0 130.57 744.71
  L 115.84 781.05
  Z"
/>
<path fill="#6d5845" d="
  M 291.47 782.77
  L 291.47 810.84
  A 0.56 0.55 -0.0 0 1 290.91 811.39
  L 280.55 811.37
  A 0.57 0.56 90.0 0 1 279.99 810.80
  L 279.99 727.00
  Q 279.99 726.48 280.50 726.48
  Q 291.70 726.43 302.83 726.44
  Q 313.16 726.45 317.54 727.71
  Q 325.24 729.94 330.46 735.79
  C 344.16 751.18 337.76 772.14 319.90 780.31
  Q 319.34 780.57 319.65 781.10
  L 336.83 810.73
  Q 337.20 811.37 336.46 811.37
  L 324.06 811.39
  Q 323.52 811.39 323.25 810.92
  L 307.36 782.71
  Q 307.10 782.26 306.58 782.26
  L 291.98 782.26
  Q 291.47 782.26 291.47 782.77
  Z
  M 291.31 738.58
  L 291.37 769.80
  A 1.04 1.04 0.0 0 0 292.41 770.84
  L 307.70 770.81
  A 18.57 16.37 -0.1 0 0 326.24 754.41
  L 326.24 753.85
  A 18.57 16.37 -0.1 0 0 307.64 737.51
  L 292.35 737.54
  A 1.04 1.04 0.0 0 0 291.31 738.58
  Z"
/>
<path fill="#6d5845" d="
  M 430.91 758.81
  Q 440.95 753.89 451.46 756.29
  Q 463.09 758.93 466.82 768.43
  Q 468.53 772.77 468.58 785.28
  Q 468.64 798.02 468.54 810.74
  A 0.68 0.67 -89.2 0 1 467.86 811.41
  L 457.55 811.32
  Q 457.06 811.32 457.06 810.82
  Q 457.11 795.55 457.08 780.32
  Q 457.07 774.74 456.21 772.78
  C 453.46 766.44 444.44 766.55 438.69 767.39
  C 431.67 768.41 430.29 773.34 430.32 779.97
  Q 430.39 795.41 430.33 810.80
  Q 430.33 811.38 429.74 811.38
  L 419.53 811.39
  Q 418.92 811.39 418.92 810.78
  L 418.92 727.15
  Q 418.92 726.47 419.60 726.47
  L 429.78 726.47
  Q 430.36 726.47 430.36 727.04
  L 430.34 758.46
  Q 430.34 759.09 430.91 758.81
  Z"
/>
<path fill="#6d5845" d="
  M 660.79 767.04
  L 653.76 767.08
  Q 653.18 767.08 653.18 766.50
  L 653.21 756.25
  Q 653.21 755.65 653.81 755.64
  L 660.79 755.50
  Q 661.32 755.49 661.33 754.96
  L 661.66 727.03
  Q 661.67 726.48 662.22 726.48
  L 672.02 726.46
  A 0.57 0.56 -0.0 0 1 672.59 727.02
  L 672.71 754.99
  Q 672.72 755.52 673.24 755.53
  L 686.75 755.61
  A 0.64 0.64 0.0 0 1 687.39 756.25
  L 687.33 766.49
  Q 687.33 767.05 686.77 767.05
  L 673.22 767.04
  Q 672.72 767.04 672.72 767.53
  Q 672.62 778.71 672.69 789.86
  C 672.72 795.51 672.19 800.02 679.12 799.92
  Q 680.47 799.90 684.44 798.35
  Q 685.04 798.12 685.28 798.71
  L 689.02 808.15
  Q 689.19 808.56 688.79 808.76
  Q 679.58 813.30 671.06 809.95
  Q 665.05 807.58 662.71 801.95
  Q 661.42 798.83 661.50 791.39
  Q 661.63 779.49 661.36 767.60
  Q 661.35 767.04 660.79 767.04
  Z"
/>
<path fill="#6d5845" d="
  M 808.05 751.81
  L 781.65 810.83
  Q 781.41 811.38 780.81 811.38
  L 772.21 811.39
  Q 771.60 811.39 771.36 810.84
  L 744.25 750.24
  A 0.14 0.14 0.0 0 0 743.98 750.30
  L 743.98 810.82
  Q 743.99 811.37 743.43 811.37
  L 732.56 811.38
  Q 731.99 811.38 731.99 810.81
  L 731.99 726.98
  Q 731.99 726.46 732.52 726.46
  L 745.53 726.47
  A 0.87 0.87 0.0 0 1 746.32 726.98
  L 776.15 793.65
  A 0.40 0.40 0.0 0 0 776.88 793.65
  L 806.75 726.97
  Q 806.98 726.46 807.55 726.46
  L 820.45 726.45
  Q 820.95 726.45 820.95 726.95
  L 820.94 810.84
  Q 820.94 811.36 820.42 811.36
  L 809.55 811.40
  Q 808.96 811.40 808.96 810.80
  L 808.95 752.00
  Q 808.95 749.80 808.05 751.81
  Z"
/>
<path fill="#6d5845" d="
  M 910.73 755.02
  L 910.73 726.98
  Q 910.73 726.43 911.27 726.44
  L 921.47 726.48
  Q 921.95 726.48 921.95 726.96
  L 921.84 754.94
  Q 921.84 755.54 922.44 755.54
  L 935.81 755.58
  Q 936.29 755.58 936.29 756.06
  L 936.30 766.50
  Q 936.30 767.06 935.74 767.06
  L 922.48 766.99
  Q 921.90 766.99 921.90 767.57
  Q 921.72 780.77 921.94 793.95
  C 922.07 801.50 928.76 800.52 933.70 798.25
  Q 934.15 798.05 934.33 798.50
  L 938.22 808.24
  Q 938.37 808.60 938.02 808.77
  C 929.16 813.09 916.43 812.10 912.07 802.28
  Q 910.71 799.23 910.73 793.05
  Q 910.76 780.25 910.71 767.48
  Q 910.71 767.01 910.24 767.02
  L 902.75 767.09
  Q 902.16 767.09 902.16 766.50
  L 902.18 756.18
  Q 902.18 755.57 902.80 755.56
  L 910.22 755.53
  Q 910.73 755.53 910.73 755.02
  Z"
/>
<path fill="#6d5845" d="
  M 962.96 758.69
  C 975.22 752.91 993.54 754.77 998.85 768.94
  Q 1000.23 772.64 1000.22 780.23
  Q 1000.19 795.56 1000.21 810.88
  Q 1000.21 811.38 999.71 811.38
  L 989.50 811.39
  Q 989.02 811.39 989.01 810.90
  Q 988.96 794.33 988.96 777.75
  C 988.96 769.07 982.09 766.63 974.82 767.01
  C 966.17 767.46 962.19 769.70 962.23 779.02
  Q 962.30 794.96 962.24 810.86
  Q 962.23 811.38 961.71 811.38
  L 951.32 811.38
  Q 950.75 811.38 950.75 810.82
  L 950.75 726.98
  Q 950.75 726.47 951.27 726.47
  L 961.73 726.46
  Q 962.25 726.46 962.25 726.98
  L 962.25 758.25
  Q 962.25 759.03 962.96 758.69
  Z"
/>
<path fill="#6d5845" d="
  M 1266.78 755.54
  L 1280.26 755.55
  Q 1280.72 755.55 1280.72 756.01
  L 1280.70 766.58
  A 0.52 0.52 0.0 0 1 1280.18 767.10
  L 1266.75 767.02
  Q 1266.29 767.01 1266.29 767.48
  Q 1266.20 781.15 1266.28 794.76
  C 1266.31 801.55 1273.83 800.23 1277.85 798.24
  Q 1278.32 798.01 1278.52 798.50
  L 1282.37 808.09
  Q 1282.52 808.47 1282.16 808.65
  Q 1270.54 814.61 1260.73 807.89
  C 1255.79 804.50 1254.78 798.85 1254.77 792.57
  Q 1254.77 780.03 1254.76 767.53
  Q 1254.76 767.02 1254.25 767.03
  L 1247.19 767.11
  Q 1246.51 767.12 1246.51 766.44
  L 1246.50 756.03
  Q 1246.50 755.55 1246.97 755.55
  L 1254.24 755.54
  Q 1254.77 755.54 1254.77 755.01
  L 1254.76 726.98
  Q 1254.76 726.47 1255.27 726.47
  L 1265.73 726.46
  Q 1266.26 726.46 1266.26 726.99
  L 1266.26 755.03
  Q 1266.26 755.54 1266.78 755.54
  Z"
/>
<circle fill="#6d5845" cx="1301.17" cy="733.83" r="7.45"/>
<circle fill="#6d5845" cx="1580.37" cy="733.83" r="7.45"/>
<path fill="#6d5845" d="
  M 389.80 806.31
  Q 382.98 812.94 374.98 812.79
  Q 354.17 812.39 347.17 793.75
  Q 344.49 786.60 345.82 778.97
  C 348.10 765.88 357.94 756.14 371.50 754.75
  Q 381.92 753.67 389.67 761.27
  Q 390.29 761.87 390.29 761.01
  L 390.29 756.01
  A 0.46 0.45 -90.0 0 1 390.74 755.55
  L 401.28 755.55
  Q 401.77 755.55 401.77 756.03
  L 401.77 810.81
  Q 401.77 811.38 401.19 811.38
  L 390.84 811.38
  Q 390.29 811.38 390.29 810.84
  L 390.28 806.52
  Q 390.28 805.85 389.80 806.31
  Z
  M 374.1780 801.2123
  A 17.46 16.61 88.3 0 0 390.2627 783.2672
  A 17.46 16.61 88.3 0 0 373.1420 766.3077
  A 17.46 16.61 88.3 0 0 357.0573 784.2528
  A 17.46 16.61 88.3 0 0 374.1780 801.2123
  Z"
/>
<path fill="#6d5845" d="
  M 630.99 806.49
  Q 621.14 815.10 609.08 812.18
  C 583.91 806.10 578.34 772.16 600.58 758.85
  C 610.74 752.76 622.13 753.10 630.97 761.22
  Q 631.55 761.75 631.54 760.97
  L 631.52 756.01
  Q 631.51 755.54 631.99 755.54
  L 642.35 755.57
  A 0.66 0.66 0.0 0 1 643.01 756.23
  L 643.03 810.79
  A 0.57 0.57 0.0 0 1 642.46 811.36
  L 632.08 811.40
  Q 631.52 811.40 631.52 810.83
  L 631.52 806.74
  Q 631.52 806.03 630.99 806.49
  Z
  M 615.4898 801.1983
  A 17.46 16.62 87.9 0 0 631.4588 783.1410
  A 17.46 16.62 87.9 0 0 614.2102 766.3017
  A 17.46 16.62 87.9 0 0 598.2412 784.3590
  A 17.46 16.62 87.9 0 0 615.4898 801.1983
  Z"
/>
<path fill="#6d5845" d="
  M 880.52 760.98
  L 880.51 756.27
  Q 880.51 755.54 881.23 755.55
  L 891.66 755.56
  A 0.60 0.60 0.0 0 1 892.26 756.16
  L 892.26 810.80
  A 0.57 0.56 90.0 0 1 891.70 811.37
  L 881.45 811.39
  Q 880.51 811.39 880.51 810.45
  L 880.50 806.78
  Q 880.50 806.15 880.04 806.57
  C 867.14 818.20 847.04 812.31 839.46 797.91
  Q 834.72 788.90 836.38 778.55
  C 839.58 758.65 863.75 746.38 880.08 761.18
  Q 880.52 761.57 880.52 760.98
  Z
  M 864.7207 801.1959
  A 17.46 16.61 87.7 0 0 880.6166 783.0834
  A 17.46 16.61 87.7 0 0 863.3193 766.3041
  A 17.46 16.61 87.7 0 0 847.4234 784.4166
  A 17.46 16.61 87.7 0 0 864.7207 801.1959
  Z"
/>
<path fill="#6d5845" d="
  M 1024.40 787.98
  C 1027.05 802.72 1045.39 806.58 1052.23 792.09
  A 0.58 0.58 0.0 0 1 1052.99 791.80
  L 1062.40 796.07
  Q 1062.97 796.33 1062.70 796.90
  C 1050.15 823.29 1015.36 814.42 1012.52 786.93
  C 1010.72 769.55 1023.48 753.24 1041.66 754.77
  Q 1045.88 755.12 1049.99 757.35
  Q 1066.58 766.31 1065.56 786.78
  Q 1065.53 787.31 1065.01 787.31
  L 1024.96 787.31
  Q 1024.28 787.31 1024.40 787.98
  Z
  M 1052.45 775.78
  C 1047.11 763.31 1030.91 762.92 1025.55 775.80
  Q 1025.29 776.43 1025.97 776.43
  L 1052.02 776.43
  Q 1052.73 776.43 1052.45 775.78
  Z"
/>
<path fill="#6d5845" d="
  M 1224.93 761.02
  L 1224.80 756.14
  Q 1224.78 755.55 1225.36 755.55
  L 1235.80 755.54
  Q 1236.32 755.54 1236.32 756.06
  L 1236.32 810.78
  Q 1236.32 811.37 1235.72 811.37
  L 1225.39 811.39
  Q 1224.77 811.39 1224.79 810.77
  L 1224.94 806.78
  Q 1224.96 806.13 1224.46 806.55
  Q 1216.18 813.39 1206.45 812.73
  C 1187.23 811.41 1175.84 792.00 1181.62 774.18
  C 1187.38 756.44 1209.63 747.85 1224.43 761.25
  Q 1224.95 761.71 1224.93 761.02
  Z
  M 1208.7481 801.2014
  A 17.45 16.62 88.2 0 0 1224.8118 783.2380
  A 17.45 16.62 88.2 0 0 1207.6519 766.3186
  A 17.45 16.62 88.2 0 0 1191.5882 784.2820
  A 17.45 16.62 88.2 0 0 1208.7481 801.2014
  Z"
/>
<path fill="#6d5845" d="
  M 1333.61 789.72
  C 1338.49 802.94 1354.60 805.40 1362.91 793.80
  Q 1363.19 793.41 1363.58 793.67
  L 1372.24 799.31
  A 0.67 0.67 0.0 0 1 1372.42 800.26
  C 1364.21 812.03 1348.22 816.71 1335.48 809.15
  C 1318.49 799.06 1315.82 773.65 1331.74 760.90
  C 1345.02 750.28 1362.16 753.74 1372.38 766.96
  A 0.64 0.63 -35.5 0 1 1372.22 767.88
  L 1363.54 773.58
  Q 1363.10 773.87 1362.77 773.46
  C 1349.68 757.08 1327.04 771.91 1333.61 789.72
  Z"
/>
<path fill="#6d5845" d="
  M 1551.80 773.39
  C 1536.48 753.24 1510.14 779.29 1526.95 796.31
  C 1534.55 804.00 1545.87 802.49 1551.95 793.82
  Q 1552.28 793.36 1552.75 793.67
  L 1560.98 799.08
  A 1.26 1.25 36.3 0 1 1561.27 800.92
  Q 1549.67 815.22 1533.12 812.09
  C 1515.01 808.65 1505.77 788.99 1512.29 772.77
  C 1520.75 751.74 1548.52 748.14 1561.43 767.13
  Q 1561.76 767.62 1561.27 767.94
  L 1552.73 773.55
  A 0.70 0.69 -35.2 0 1 1551.80 773.39
  Z"
/>
<path fill="#6d5845" d="
  M 1610.97 787.93
  C 1613.75 802.63 1632.13 806.64 1638.91 792.11
  A 0.60 0.59 -65.2 0 1 1639.69 791.82
  L 1649.05 796.08
  Q 1649.55 796.31 1649.32 796.82
  C 1636.97 823.18 1602.16 814.62 1599.18 786.99
  Q 1597.54 771.78 1608.51 761.63
  C 1616.46 754.28 1627.84 752.25 1637.35 757.71
  Q 1653.27 766.85 1652.20 786.86
  Q 1652.17 787.31 1651.73 787.31
  L 1611.49 787.31
  Q 1610.85 787.31 1610.97 787.93
  Z
  M 1612.11 775.86
  Q 1611.85 776.43 1612.48 776.43
  L 1638.86 776.43
  Q 1639.40 776.43 1639.19 775.93
  C 1633.71 762.96 1617.94 763.16 1612.11 775.86
  Z"
/>
<path fill="#6d5845" d="
  M 1747.96 798.53
  C 1755.77 803.75 1764.94 801.22 1770.21 793.84
  Q 1770.57 793.35 1771.07 793.68
  L 1779.73 799.48
  Q 1780.18 799.78 1779.86 800.22
  Q 1772.97 809.85 1762.43 812.07
  C 1731.98 818.50 1716.13 777.73 1740.13 760.26
  C 1753.32 750.65 1770.08 753.83 1779.74 767.08
  Q 1780.07 767.53 1779.60 767.84
  L 1771.00 773.56
  Q 1770.54 773.86 1770.18 773.44
  C 1751.76 751.50 1726.60 784.29 1747.96 798.53
  Z"
/>
<path fill="#6d5845" d="
  M 1799.31 788.06
  C 1801.74 802.72 1820.46 806.38 1827.14 792.21
  Q 1827.43 791.59 1828.05 791.87
  L 1837.38 796.05
  Q 1837.89 796.28 1837.65 796.79
  C 1825.16 823.61 1789.83 814.25 1787.42 786.28
  C 1786.26 772.81 1794.16 758.86 1807.79 755.47
  C 1827.65 750.53 1841.47 768.07 1840.54 786.80
  Q 1840.51 787.31 1840.00 787.31
  L 1799.94 787.31
  Q 1799.19 787.31 1799.31 788.06
  Z
  M 1827.53 775.96
  C 1822.19 763.55 1806.19 762.71 1800.48 775.66
  A 0.55 0.55 0.0 0 0 1800.98 776.43
  L 1827.22 776.43
  Q 1827.73 776.43 1827.53 775.96
  Z"
/>
<path fill="#6d5845" d="
  M 192.45 760.02
  Q 204.62 751.21 218.08 758.44
  Q 218.57 758.71 218.45 759.26
  L 216.09 770.00
  A 0.54 0.53 23.5 0 1 215.26 770.32
  C 209.88 766.55 202.69 765.44 197.22 769.44
  C 192.98 772.54 192.26 777.97 192.20 783.00
  Q 191.99 800.70 192.08 810.75
  Q 192.09 811.37 191.47 811.37
  L 181.49 811.39
  Q 180.83 811.39 180.83 810.74
  L 180.82 756.90
  A 0.54 0.53 -0.0 0 1 181.36 756.37
  L 191.55 756.38
  A 0.62 0.61 2.1 0 1 192.17 757.04
  L 191.96 759.74
  Q 191.90 760.41 192.45 760.02
  Z"
/>
<path fill="#6d5845" d="
  M 497.49 758.82
  Q 514.50 750.84 529.28 761.88
  Q 529.67 762.17 530.02 761.84
  C 535.84 756.19 544.72 754.89 552.40 755.72
  C 561.19 756.67 568.41 760.40 571.66 768.58
  Q 573.02 772.00 573.01 778.58
  Q 573.01 794.70 573.03 810.80
  Q 573.03 811.37 572.47 811.37
  L 562.30 811.39
  Q 561.77 811.39 561.77 810.86
  Q 561.79 793.15 561.75 775.51
  C 561.73 765.28 540.92 764.33 536.40 771.86
  Q 535.16 773.92 535.15 778.38
  Q 535.09 794.64 535.14 810.90
  Q 535.15 811.37 534.68 811.37
  L 524.27 811.39
  Q 523.65 811.39 523.65 810.77
  Q 523.56 794.99 523.65 779.26
  Q 523.68 774.27 522.31 771.97
  C 518.22 765.07 501.03 764.96 497.76 772.85
  Q 496.94 774.83 496.91 780.76
  Q 496.84 795.78 496.90 810.80
  Q 496.90 811.42 496.28 811.41
  L 486.13 811.29
  Q 485.46 811.29 485.46 810.62
  L 485.44 756.58
  Q 485.44 756.10 485.92 756.10
  L 496.36 756.09
  Q 496.89 756.09 496.88 756.61
  L 496.87 758.42
  Q 496.87 759.11 497.49 758.82
  Z"
/>
<path fill="#6d5845" d="
  M 1090.85 758.85
  C 1100.97 753.87 1113.70 754.18 1122.35 761.95
  Q 1122.73 762.30 1123.12 761.95
  Q 1128.83 756.71 1137.01 755.86
  C 1148.45 754.68 1160.38 757.10 1165.02 768.64
  Q 1166.33 771.87 1166.33 777.51
  Q 1166.34 794.17 1166.32 810.80
  Q 1166.32 811.38 1165.74 811.38
  L 1155.76 811.38
  Q 1155.18 811.38 1155.18 810.80
  Q 1155.19 794.54 1155.16 778.34
  C 1155.15 772.17 1152.68 768.33 1146.48 767.37
  C 1140.98 766.51 1132.79 766.49 1129.64 772.08
  Q 1128.44 774.21 1128.44 779.12
  Q 1128.43 795.02 1128.43 810.89
  Q 1128.43 811.38 1127.94 811.38
  L 1117.77 811.38
  Q 1117.23 811.38 1117.23 810.84
  Q 1117.25 796.46 1117.21 782.13
  C 1117.18 774.08 1116.59 768.44 1107.74 767.31
  C 1102.18 766.60 1093.71 766.71 1091.12 772.78
  Q 1090.29 774.72 1090.27 780.31
  Q 1090.23 795.58 1090.25 810.84
  Q 1090.26 811.39 1089.71 811.39
  L 1079.31 811.37
  Q 1078.75 811.37 1078.75 810.81
  L 1078.75 756.67
  Q 1078.75 756.09 1079.33 756.09
  L 1089.68 756.10
  Q 1090.26 756.10 1090.25 756.68
  L 1090.22 758.45
  Q 1090.21 759.16 1090.85 758.85
  Z"
/>
<rect fill="#6d5845" x="1295.43" y="755.54" width="11.44" height="55.84" rx="0.35"/>
<rect fill="#6d5845" x="1574.55" y="755.56" width="11.48" height="55.82" rx="0.33"/>
<path fill="#6d5845" d="
  M 1677.40 758.91
  C 1689.46 752.88 1708.20 754.59 1713.58 768.69
  Q 1715.06 772.57 1715.05 781.48
  Q 1715.05 796.16 1715.04 810.82
  Q 1715.04 811.38 1714.49 811.38
  L 1704.49 811.39
  Q 1703.87 811.39 1703.87 810.77
  Q 1703.90 794.36 1703.82 778.01
  C 1703.77 767.22 1693.71 765.88 1685.50 767.47
  C 1679.68 768.59 1676.60 772.05 1676.80 777.93
  C 1677.18 788.84 1676.76 799.90 1676.91 810.84
  A 0.55 0.55 0.0 0 1 1676.36 811.40
  L 1666.01 811.33
  Q 1665.44 811.33 1665.44 810.76
  L 1665.43 756.70
  Q 1665.43 756.08 1666.05 756.09
  L 1676.50 756.12
  A 0.54 0.53 -85.0 0 1 1677.02 756.75
  L 1676.73 758.41
  Q 1676.57 759.33 1677.40 758.91
  Z"
/>
<rect fill="#6d5845" x="224.71" y="775.87" width="41.08" height="11.44" rx="0.31"/>
<path fill="#6d5845" d="
  M 1388.99 811.05
  C 1378.88 805.49 1389.13 791.46 1397.12 798.54
  C 1401.82 802.71 1399.75 811.20 1396.68 815.71
  Q 1392.13 822.40 1385.52 827.17
  Q 1385.08 827.49 1384.75 827.04
  L 1382.36 823.86
  A 0.66 0.66 0.0 0 1 1382.45 822.98
  C 1385.35 820.42 1389.28 815.86 1389.44 811.84
  Q 1389.46 811.31 1388.99 811.05
  Z"
/>
<path fill="#6d5845" d="
  M 1858.05 811.26
  C 1849.70 806.31 1854.63 794.40 1863.60 797.18
  C 1867.48 798.39 1868.91 802.13 1868.69 806.04
  C 1868.21 814.99 1861.06 822.20 1854.47 827.21
  Q 1854.01 827.56 1853.67 827.09
  L 1851.24 823.77
  A 0.64 0.63 52.4 0 1 1851.35 822.90
  Q 1856.51 818.67 1858.45 812.30
  A 0.90 0.90 0.0 0 0 1858.05 811.26
  Z"
/>
<path fill="#6d5845" d="
  M 339.22 930.76
  A 0.56 0.56 0.0 0 1 339.95 931.00
  Q 347.70 945.44 362.83 942.22
  C 370.59 940.57 376.75 933.79 374.64 925.45
  C 373.03 919.11 365.96 916.91 359.78 915.83
  Q 346.72 913.55 338.21 907.31
  Q 332.27 902.96 331.29 894.27
  Q 330.22 884.84 336.60 876.82
  Q 342.38 869.55 353.01 867.97
  Q 373.52 864.93 384.23 881.74
  Q 384.57 882.27 384.00 882.55
  L 374.68 887.19
  Q 374.13 887.46 373.79 886.96
  Q 366.59 876.57 353.79 879.45
  C 347.19 880.93 340.79 887.33 343.03 894.45
  Q 343.82 896.94 346.43 898.81
  C 354.21 904.39 366.16 904.14 374.11 908.25
  C 383.81 913.27 388.29 923.83 385.89 934.37
  C 382.58 948.90 367.56 955.84 353.77 953.99
  Q 337.36 951.78 329.50 935.90
  Q 329.26 935.42 329.75 935.19
  L 339.22 930.76
  Z"
/>
<path fill="#6d5845" d="
  M 276.24 902.97
  L 276.24 868.78
  Q 276.24 868.29 276.73 868.29
  L 286.88 868.29
  Q 287.46 868.29 287.46 868.88
  L 287.46 952.77
  Q 287.46 953.25 286.98 953.25
  L 276.75 953.25
  Q 276.24 953.25 276.24 952.75
  L 276.24 948.75
  Q 276.24 948.11 275.75 948.51
  Q 267.18 955.43 257.17 954.55
  C 237.89 952.84 226.75 932.92 233.24 915.15
  C 239.53 897.94 261.25 890.00 275.76 903.19
  Q 276.24 903.63 276.24 902.97
  Z
  M 245.77 915.75
  C 239.76 924.95 243.49 938.33 253.83 942.18
  C 263.61 945.82 274.34 938.94 275.93 928.67
  Q 276.32 926.13 275.28 922.96
  C 274.01 919.13 273.19 914.96 270.18 912.27
  C 262.59 905.50 251.25 907.37 245.77 915.75
  Z"
/>
<circle fill="#6d5845" cx="532.08" cy="875.73" r="7.45"/>
<rect fill="#6d5845" x="625.43" y="868.29" width="11.44" height="84.96" rx="0.32"/>
<path fill="#6d5845" d="
  M 721.5224 953.1794
  A 42.47 40.86 89.7 0 1 680.4406 910.9239
  A 42.47 40.86 89.7 0 1 721.0776 868.2406
  A 42.47 40.86 89.7 0 1 762.1594 910.4961
  A 42.47 40.86 89.7 0 1 721.5224 953.1794
  Z
  M 721.2360 941.6700
  A 30.96 29.33 90.1 0 0 750.6200 910.7612
  A 30.96 29.33 90.1 0 0 721.3440 879.7500
  A 30.96 29.33 90.1 0 0 691.9600 910.6588
  A 30.96 29.33 90.1 0 0 721.2360 941.6700
  Z"
/>
<rect fill="#6d5845" x="775.78" y="868.29" width="11.48" height="84.96" rx="0.28"/>
<circle fill="#6d5845" cx="1050.52" cy="875.73" r="7.46"/>
<path fill="#6d5845" d="
  M 1185.07 948.27
  C 1175.92 956.75 1162.26 956.25 1152.99 949.60
  C 1143.82 943.02 1139.28 931.99 1141.03 920.75
  C 1144.11 900.84 1168.87 887.92 1185.07 903.22
  Q 1185.60 903.72 1185.60 903.00
  L 1185.60 868.84
  Q 1185.60 868.29 1186.16 868.29
  L 1196.29 868.30
  Q 1196.78 868.30 1196.78 868.79
  L 1196.78 952.73
  Q 1196.78 953.25 1196.26 953.25
  L 1186.05 953.25
  A 0.46 0.45 -0.0 0 1 1185.59 952.80
  L 1185.60 948.51
  Q 1185.60 947.78 1185.07 948.27
  Z
  M 1153.34 931.96
  C 1159.84 948.65 1182.54 945.66 1185.28 928.64
  Q 1185.69 926.10 1184.66 922.98
  C 1183.39 919.10 1182.58 914.97 1179.54 912.26
  C 1165.82 900.06 1147.23 916.25 1153.34 931.96
  Z"
/>
<path fill="#6d5845" d="
  M 138.89 948.48
  C 129.60 956.37 117.82 956.49 107.67 949.98
  C 94.79 941.71 91.19 925.16 97.98 911.80
  C 105.44 897.11 126.10 890.70 138.87 903.21
  Q 139.48 903.81 139.48 902.95
  L 139.48 897.99
  Q 139.48 897.45 140.01 897.45
  L 150.46 897.47
  Q 150.95 897.47 150.95 897.96
  L 150.95 952.77
  Q 150.95 953.25 150.48 953.25
  L 139.99 953.26
  Q 139.47 953.26 139.47 952.74
  L 139.48 948.76
  Q 139.48 947.98 138.89 948.48
  Z
  M 123.1963 943.0848
  A 17.45 16.62 88.6 0 0 139.3850 925.2339
  A 17.45 16.62 88.6 0 0 122.3437 908.1952
  A 17.45 16.62 88.6 0 0 106.1550 926.0461
  A 17.45 16.62 88.6 0 0 123.1963 943.0848
  Z"
/>
<path fill="#6d5845" d="
  M 424.0032 954.6389
  A 29.02 28.14 89.5 0 1 395.6111 925.8656
  A 29.02 28.14 89.5 0 1 423.4968 896.6011
  A 29.02 28.14 89.5 0 1 451.8889 925.3744
  A 29.02 28.14 89.5 0 1 424.0032 954.6389
  Z
  M 423.5267 943.0987
  A 17.46 16.66 90.7 0 0 440.3988 925.8435
  A 17.46 16.66 90.7 0 0 423.9533 908.1813
  A 17.46 16.66 90.7 0 0 407.0812 925.4365
  A 17.46 16.66 90.7 0 0 423.5267 943.0987
  Z"
/>
<path fill="#6d5845" d="
  M 463.03 933.36
  C 455.17 902.34 493.82 882.38 513.28 909.02
  Q 513.56 909.40 513.17 909.66
  L 504.43 915.51
  Q 503.98 915.81 503.63 915.41
  C 498.71 909.78 493.31 906.56 485.99 908.70
  C 471.18 913.05 468.86 933.49 482.48 941.23
  C 489.90 945.45 498.83 942.60 503.73 935.67
  Q 504.02 935.25 504.45 935.53
  L 513.23 941.31
  Q 513.60 941.55 513.35 941.92
  C 499.89 962.04 469.07 957.22 463.03 933.36
  Z"
/>
<path fill="#6d5845" d="
  M 596.79 902.97
  L 596.80 897.96
  Q 596.80 897.47 597.29 897.47
  L 607.99 897.46
  Q 608.53 897.46 608.53 897.99
  L 608.53 952.74
  Q 608.53 953.25 608.01 953.25
  L 597.28 953.25
  A 0.47 0.47 0.0 0 1 596.81 952.78
  L 596.78 948.78
  Q 596.77 948.13 596.28 948.56
  Q 587.76 956.09 576.24 954.26
  C 546.27 949.49 543.96 907.69 571.87 897.89
  Q 585.50 893.09 596.35 903.16
  Q 596.79 903.56 596.79 902.97
  Z
  M 581.0303 943.0759
  A 17.45 16.60 87.7 0 0 596.9166 924.9738
  A 17.45 16.60 87.7 0 0 579.6297 908.2041
  A 17.45 16.60 87.7 0 0 563.7434 926.3062
  A 17.45 16.60 87.7 0 0 581.0303 943.0759
  Z"
/>
<path fill="#6d5845" d="
  M 1115.32 902.98
  L 1115.35 898.06
  Q 1115.35 897.46 1115.94 897.46
  L 1126.25 897.46
  Q 1126.79 897.46 1126.79 898.00
  L 1126.79 952.73
  Q 1126.79 953.25 1126.27 953.25
  L 1115.93 953.25
  A 0.58 0.57 -0.0 0 1 1115.35 952.68
  L 1115.34 948.74
  Q 1115.34 948.16 1114.89 948.52
  Q 1100.86 959.64 1085.27 951.15
  Q 1078.59 947.51 1074.70 940.83
  C 1063.92 922.26 1075.42 898.00 1097.25 896.62
  Q 1107.51 895.98 1114.84 903.17
  Q 1115.31 903.64 1115.32 902.98
  Z
  M 1099.2981 943.0914
  A 17.45 16.61 88.2 0 0 1115.3518 925.1283
  A 17.45 16.61 88.2 0 0 1098.2019 908.2086
  A 17.45 16.61 88.2 0 0 1082.1482 926.1717
  A 17.45 16.61 88.2 0 0 1099.2981 943.0914
  Z"
/>
<path fill="#6d5845" d="
  M 986.00 902.95
  Q 991.57 897.66 998.43 896.95
  C 1021.31 894.56 1036.34 916.75 1027.72 937.56
  C 1021.02 953.73 999.57 960.78 985.94 948.07
  A 0.26 0.26 0.0 0 0 985.51 948.26
  L 985.50 977.71
  A 0.45 0.45 0.0 0 1 985.05 978.16
  L 974.46 978.17
  Q 974.01 978.17 974.01 977.71
  L 974.00 898.24
  Q 974.00 897.72 974.52 897.72
  L 984.98 897.72
  Q 985.50 897.72 985.50 898.24
  L 985.50 902.74
  Q 985.50 903.42 986.00 902.95
  Z
  M 1001.8966 943.1487
  A 17.47 16.70 90.7 0 0 1018.8088 925.8840
  A 17.47 16.70 90.7 0 0 1002.3234 908.2113
  A 17.47 16.70 90.7 0 0 985.4112 925.4760
  A 17.47 16.70 90.7 0 0 1001.8966 943.1487
  Z"
/>
<path fill="#6d5845" d="
  M 180.04 900.59
  Q 189.56 896.27 199.46 897.97
  Q 212.10 900.14 216.22 911.14
  Q 217.50 914.55 217.49 920.50
  Q 217.45 936.64 217.47 952.75
  Q 217.47 953.25 216.97 953.25
  L 206.77 953.25
  Q 206.25 953.25 206.25 952.74
  Q 206.23 935.73 206.24 918.75
  Q 206.24 914.81 203.69 912.23
  C 198.90 907.36 184.04 907.37 180.53 914.07
  Q 179.51 916.03 179.51 920.61
  Q 179.53 936.67 179.49 952.74
  Q 179.49 953.25 178.98 953.25
  L 168.50 953.25
  Q 168.01 953.25 168.01 952.75
  L 168.00 898.47
  Q 168.00 897.93 168.53 897.93
  L 178.89 897.91
  Q 179.50 897.90 179.50 898.51
  L 179.49 900.24
  Q 179.49 900.84 180.04 900.59
  Z"
/>
<rect fill="#6d5845" x="526.27" y="897.47" width="11.48" height="55.78" rx="0.31"/>
<path fill="#6d5845" d="
  M 828.52 937.94
  L 846.20 897.65
  A 0.31 0.31 0.0 0 1 846.48 897.46
  L 858.39 897.46
  A 0.31 0.31 0.0 0 1 858.67 897.89
  L 823.61 977.96
  A 0.31 0.31 0.0 0 1 823.33 978.15
  L 811.39 978.16
  A 0.31 0.31 0.0 0 1 811.10 977.72
  L 821.98 953.13
  A 0.31 0.31 0.0 0 0 821.98 952.87
  L 797.80 897.89
  A 0.31 0.31 0.0 0 1 798.09 897.46
  L 810.58 897.46
  A 0.31 0.31 0.0 0 1 810.87 897.65
  L 827.95 937.94
  A 0.31 0.31 0.0 0 0 828.52 937.94
  Z"
/>
<path fill="#6d5845" d="
  M 881.31 900.64
  C 891.30 895.96 904.26 896.08 912.79 903.84
  Q 913.17 904.18 913.55 903.84
  Q 918.75 899.15 925.01 898.04
  C 936.92 895.93 951.06 898.48 955.63 911.14
  Q 956.99 914.90 956.95 922.49
  Q 956.88 937.65 956.94 952.78
  Q 956.94 953.25 956.46 953.25
  L 946.02 953.25
  Q 945.49 953.25 945.49 952.72
  Q 945.41 935.09 945.49 917.50
  C 945.54 907.12 924.59 906.12 920.16 913.85
  Q 918.95 915.96 918.97 920.86
  Q 919.04 936.81 918.97 952.76
  Q 918.97 953.25 918.47 953.25
  L 908.02 953.25
  Q 907.51 953.25 907.51 952.74
  Q 907.48 937.07 907.50 921.42
  Q 907.51 916.17 906.11 913.84
  C 902.00 907.04 885.54 906.95 881.84 914.11
  Q 880.78 916.15 880.77 921.07
  Q 880.75 936.89 880.77 952.72
  Q 880.77 953.25 880.23 953.25
  L 869.77 953.25
  Q 869.28 953.25 869.28 952.77
  L 869.29 898.30
  Q 869.29 897.88 869.70 897.88
  L 880.26 897.91
  A 0.57 0.56 -88.5 0 1 880.82 898.51
  L 880.74 900.25
  Q 880.70 900.92 881.31 900.64
  Z"
/>
<rect fill="#6d5845" x="1044.78" y="897.46" width="11.50" height="55.80" rx="0.28"/>
</svg>
