<?xml version="1.0" encoding="UTF-8" standalone="no"?>
<!DOCTYPE svg PUBLIC "-//W3C//DTD SVG 1.1//EN" "http://www.w3.org/Graphics/SVG/1.1/DTD/svg11.dtd">
<svg xmlns="http://www.w3.org/2000/svg" version="1.1" viewBox="0.00 0.00 1925.00 1089.00">
<g stroke-width="2.00" fill="none" stroke-linecap="butt">
<path stroke="#af9d83" vector-effect="non-scaling-stroke" d="
  M 694.72 541.38
  Q 694.51 480.02 688.18 419.01
  C 672.72 270.18 618.99 103.68 462.87 47.14
  C 420.78 31.91 376.22 25.98 331.50 26.61
  Q 283.46 27.28 231.49 37.72
  C 152.03 53.68 74.32 82.73 2.78 120.59
  A 1.62 1.61 -14.3 0 0 1.93 122.01
  L 1.94 349.24
  Q 1.94 349.88 2.50 349.58
  Q 84.27 305.92 174.51 284.66
  C 225.49 272.65 279.59 268.25 331.48 277.10
  Q 416.98 291.67 472.98 355.42
  C 489.33 374.02 503.34 396.10 513.95 418.01
  C 538.44 468.58 551.76 525.01 558.32 581.00
  Q 564.79 636.13 564.54 691.64
  Q 564.53 692.13 565.00 691.98
  C 624.18 671.95 689.28 663.49 751.50 671.82
  C 826.58 681.87 891.96 718.90 937.41 779.87
  C 964.09 815.67 983.55 857.23 996.45 899.83
  A 0.62 0.62 0.0 0 0 997.18 900.25
  C 1030.03 892.23 1063.24 887.22 1096.96 884.35
  C 1205.97 875.08 1339.48 896.29 1381.34 1016.16
  A 0.74 0.74 0.0 0 0 1382.34 1016.59
  C 1428.56 995.60 1498.08 981.83 1535.78 1027.50
  C 1549.48 1044.10 1556.29 1065.54 1559.53 1086.54
  Q 1559.63 1087.17 1560.26 1087.17
  L 1896.95 1087.18
  Q 1897.48 1087.18 1897.48 1086.65
  C 1897.75 987.36 1801.54 960.46 1721.36 965.58
  A 0.80 0.79 -13.4 0 1 1720.57 965.10
  Q 1703.49 925.52 1680.51 895.46
  Q 1617.79 813.42 1514.73 790.20
  Q 1465.27 779.05 1414.47 780.48
  Q 1329.96 782.86 1249.80 810.18
  Q 1249.27 810.37 1249.08 809.84
  Q 1227.73 751.62 1192.22 703.78
  C 1091.12 567.55 916.77 526.22 756.25 535.31
  Q 724.10 537.14 695.23 541.82
  Q 694.72 541.90 694.72 541.38"
/>
<path stroke="#a27d54" vector-effect="non-scaling-stroke" d="
  M 240.78 883.30
  L 240.85 910.47"
/>
<path stroke="#a89170" vector-effect="non-scaling-stroke" d="
  M 240.85 910.47
  L 240.59 921.68
  Q 240.57 922.27 240.94 921.81
  C 268.62 887.54 313.63 859.14 358.42 881.88
  Q 361.51 883.45 367.40 887.04
  Q 367.84 887.31 368.25 887.02
  Q 392.12 870.76 422.45 856.48
  C 455.82 840.76 493.08 829.65 529.75 831.66
  C 608.08 835.94 642.58 905.05 654.76 972.56
  Q 654.86 973.12 655.35 972.83
  C 702.91 945.17 771.61 927.12 809.72 981.78
  Q 819.08 995.20 823.81 1009.24
  Q 836.51 1046.94 836.94 1086.32
  Q 836.95 1087.15 837.78 1087.15
  L 1554.48 1087.15
  Q 1555.29 1087.15 1555.18 1086.35
  C 1549.60 1046.42 1528.82 1011.96 1486.80 1003.37
  Q 1471.42 1000.23 1457.74 1001.30
  Q 1416.72 1004.49 1380.05 1022.41
  A 0.77 0.77 0.0 0 1 1378.98 1021.96
  C 1341.30 908.45 1223.78 882.43 1118.75 887.14
  Q 1055.57 889.98 994.09 905.29
  Q 993.77 905.37 993.68 905.05
  C 979.93 858.61 958.60 813.25 928.28 775.21
  C 890.50 727.80 839.65 695.20 780.58 681.53
  Q 734.48 670.86 685.99 673.24
  Q 621.04 676.42 560.90 697.96
  Q 560.45 698.12 560.46 697.64
  C 560.87 634.33 555.63 569.37 540.93 507.52
  C 526.99 448.83 502.36 391.00 459.63 347.25
  C 373.25 258.84 242.11 266.56 133.95 299.61
  Q 65.53 320.52 2.44 354.40
  A 0.99 0.99 0.0 0 0 1.92 355.27
  L 1.92 610.23
  Q 1.92 610.73 2.43 610.72
  C 44.17 609.94 86.74 619.66 122.98 640.32
  C 210.44 690.20 239.19 789.43 240.78 883.30"
/>
<path stroke="#dcb57f" vector-effect="non-scaling-stroke" d="
  M 240.85 910.47
  Q 241.79 896.82 240.78 883.30"
/>
<path stroke="#a27d54" vector-effect="non-scaling-stroke" d="
  M 235.72 935.34
  Q 235.62 935.28 235.54 935.12
  Q 235.49 935.02 235.50 934.88
  Q 239.86 875.75 230.29 817.28
  C 215.63 727.70 167.49 653.12 77.19 625.42
  Q 41.56 614.49 3.64 614.72
  A 1.79 1.79 0.0 0 0 1.86 616.51
  L 1.84 1086.46
  A 0.62 0.62 0.0 0 0 2.46 1087.08
  L 832.03 1087.08
  Q 833.00 1087.08 832.97 1086.10
  C 831.07 1033.36 817.09 959.22 752.23 951.16
  C 718.78 947.00 680.42 962.00 652.63 979.59
  A 0.59 0.59 0.0 0 1 651.74 979.18
  C 646.34 946.26 635.65 912.67 616.86 885.16
  C 556.06 796.19 436.05 845.07 368.39 892.19
  A 0.79 0.79 0.0 0 1 367.50 892.20
  Q 359.80 887.22 355.93 885.32
  C 322.63 869.03 291.57 881.21 265.06 903.34
  Q 248.41 917.25 236.24 935.22
  A 0.40 0.39 -57.4 0 1 235.72 935.34"
/>
</g>
<path fill="#6d5845" d="
  M 1901.42 1089.00
  L 0.00 1089.00
  L 0.00 117.39
  Q 102.72 62.62 214.50 36.99
  Q 233.54 32.62 259.24 28.65
  Q 310.71 20.68 361.75 23.04
  Q 388.34 24.28 415.77 29.56
  Q 506.57 47.05 571.20 111.40
  C 601.29 141.35 625.37 179.37 642.57 218.49
  C 671.11 283.38 685.56 351.51 692.85 423.01
  Q 698.61 479.47 698.75 536.39
  Q 698.75 536.95 699.30 536.87
  Q 801.72 522.38 903.99 538.01
  C 969.99 548.09 1034.10 569.64 1090.44 604.79
  C 1165.98 651.93 1220.34 721.49 1251.56 804.55
  Q 1251.76 805.06 1252.28 804.89
  Q 1332.02 778.49 1414.99 776.32
  Q 1442.87 775.59 1472.75 778.77
  Q 1518.29 783.60 1560.94 800.18
  C 1636.25 829.46 1691.52 887.29 1723.27 960.97
  Q 1723.49 961.46 1724.03 961.42
  Q 1773.41 957.99 1818.25 972.77
  Q 1833.74 977.87 1848.86 987.28
  C 1878.10 1005.49 1895.61 1033.05 1900.28 1067.76
  Q 1901.90 1079.79 1901.42 1089.00
  Z
  M 694.72 541.38
  Q 694.51 480.02 688.18 419.01
  C 672.72 270.18 618.99 103.68 462.87 47.14
  C 420.78 31.91 376.22 25.98 331.50 26.61
  Q 283.46 27.28 231.49 37.72
  C 152.03 53.68 74.32 82.73 2.78 120.59
  A 1.62 1.61 -14.3 0 0 1.93 122.01
  L 1.94 349.24
  Q 1.94 349.88 2.50 349.58
  Q 84.27 305.92 174.51 284.66
  C 225.49 272.65 279.59 268.25 331.48 277.10
  Q 416.98 291.67 472.98 355.42
  C 489.33 374.02 503.34 396.10 513.95 418.01
  C 538.44 468.58 551.76 525.01 558.32 581.00
  Q 564.79 636.13 564.54 691.64
  Q 564.53 692.13 565.00 691.98
  C 624.18 671.95 689.28 663.49 751.50 671.82
  C 826.58 681.87 891.96 718.90 937.41 779.87
  C 964.09 815.67 983.55 857.23 996.45 899.83
  A 0.62 0.62 0.0 0 0 997.18 900.25
  C 1030.03 892.23 1063.24 887.22 1096.96 884.35
  C 1205.97 875.08 1339.48 896.29 1381.34 1016.16
  A 0.74 0.74 0.0 0 0 1382.34 1016.59
  C 1428.56 995.60 1498.08 981.83 1535.78 1027.50
  C 1549.48 1044.10 1556.29 1065.54 1559.53 1086.54
  Q 1559.63 1087.17 1560.26 1087.17
  L 1896.95 1087.18
  Q 1897.48 1087.18 1897.48 1086.65
  C 1897.75 987.36 1801.54 960.46 1721.36 965.58
  A 0.80 0.79 -13.4 0 1 1720.57 965.10
  Q 1703.49 925.52 1680.51 895.46
  Q 1617.79 813.42 1514.73 790.20
  Q 1465.27 779.05 1414.47 780.48
  Q 1329.96 782.86 1249.80 810.18
  Q 1249.27 810.37 1249.08 809.84
  Q 1227.73 751.62 1192.22 703.78
  C 1091.12 567.55 916.77 526.22 756.25 535.31
  Q 724.10 537.14 695.23 541.82
  Q 694.72 541.90 694.72 541.38
  Z
  M 240.78 883.30
  L 240.85 910.47
  L 240.59 921.68
  Q 240.57 922.27 240.94 921.81
  C 268.62 887.54 313.63 859.14 358.42 881.88
  Q 361.51 883.45 367.40 887.04
  Q 367.84 887.31 368.25 887.02
  Q 392.12 870.76 422.45 856.48
  C 455.82 840.76 493.08 829.65 529.75 831.66
  C 608.08 835.94 642.58 905.05 654.76 972.56
  Q 654.86 973.12 655.35 972.83
  C 702.91 945.17 771.61 927.12 809.72 981.78
  Q 819.08 995.20 823.81 1009.24
  Q 836.51 1046.94 836.94 1086.32
  Q 836.95 1087.15 837.78 1087.15
  L 1554.48 1087.15
  Q 1555.29 1087.15 1555.18 1086.35
  C 1549.60 1046.42 1528.82 1011.96 1486.80 1003.37
  Q 1471.42 1000.23 1457.74 1001.30
  Q 1416.72 1004.49 1380.05 1022.41
  A 0.77 0.77 0.0 0 1 1378.98 1021.96
  C 1341.30 908.45 1223.78 882.43 1118.75 887.14
  Q 1055.57 889.98 994.09 905.29
  Q 993.77 905.37 993.68 905.05
  C 979.93 858.61 958.60 813.25 928.28 775.21
  C 890.50 727.80 839.65 695.20 780.58 681.53
  Q 734.48 670.86 685.99 673.24
  Q 621.04 676.42 560.90 697.96
  Q 560.45 698.12 560.46 697.64
  C 560.87 634.33 555.63 569.37 540.93 507.52
  C 526.99 448.83 502.36 391.00 459.63 347.25
  C 373.25 258.84 242.11 266.56 133.95 299.61
  Q 65.53 320.52 2.44 354.40
  A 0.99 0.99 0.0 0 0 1.92 355.27
  L 1.92 610.23
  Q 1.92 610.73 2.43 610.72
  C 44.17 609.94 86.74 619.66 122.98 640.32
  C 210.44 690.20 239.19 789.43 240.78 883.30
  Z
  M 235.72 935.34
  Q 235.62 935.28 235.54 935.12
  Q 235.49 935.02 235.50 934.88
  Q 239.86 875.75 230.29 817.28
  C 215.63 727.70 167.49 653.12 77.19 625.42
  Q 41.56 614.49 3.64 614.72
  A 1.79 1.79 0.0 0 0 1.86 616.51
  L 1.84 1086.46
  A 0.62 0.62 0.0 0 0 2.46 1087.08
  L 832.03 1087.08
  Q 833.00 1087.08 832.97 1086.10
  C 831.07 1033.36 817.09 959.22 752.23 951.16
  C 718.78 947.00 680.42 962.00 652.63 979.59
  A 0.59 0.59 0.0 0 1 651.74 979.18
  C 646.34 946.26 635.65 912.67 616.86 885.16
  C 556.06 796.19 436.05 845.07 368.39 892.19
  A 0.79 0.79 0.0 0 1 367.50 892.20
  Q 359.80 887.22 355.93 885.32
  C 322.63 869.03 291.57 881.21 265.06 903.34
  Q 248.41 917.25 236.24 935.22
  A 0.40 0.39 -57.4 0 1 235.72 935.34
  Z"
/>
<path fill="#f0e1c1" d="
  M 695.23 541.82
  Q 724.10 537.14 756.25 535.31
  C 916.77 526.22 1091.12 567.55 1192.22 703.78
  Q 1227.73 751.62 1249.08 809.84
  Q 1249.27 810.37 1249.80 810.18
  Q 1329.96 782.86 1414.47 780.48
  Q 1465.27 779.05 1514.73 790.20
  Q 1617.79 813.42 1680.51 895.46
  Q 1703.49 925.52 1720.57 965.10
  A 0.80 0.79 -13.4 0 0 1721.36 965.58
  C 1801.54 960.46 1897.75 987.36 1897.48 1086.65
  Q 1897.48 1087.18 1896.95 1087.18
  L 1560.26 1087.17
  Q 1559.63 1087.17 1559.53 1086.54
  C 1556.29 1065.54 1549.48 1044.10 1535.78 1027.50
  C 1498.08 981.83 1428.56 995.60 1382.34 1016.59
  A 0.74 0.74 0.0 0 1 1381.34 1016.16
  C 1339.48 896.29 1205.97 875.08 1096.96 884.35
  C 1063.24 887.22 1030.03 892.23 997.18 900.25
  A 0.62 0.62 0.0 0 1 996.45 899.83
  C 983.55 857.23 964.09 815.67 937.41 779.87
  C 891.96 718.90 826.58 681.87 751.50 671.82
  C 689.28 663.49 624.18 671.95 565.00 691.98
  Q 564.53 692.13 564.54 691.64
  Q 564.79 636.13 558.32 581.00
  C 551.76 525.01 538.44 468.58 513.95 418.01
  C 503.34 396.10 489.33 374.02 472.98 355.42
  Q 416.98 291.67 331.48 277.10
  C 279.59 268.25 225.49 272.65 174.51 284.66
  Q 84.27 305.92 2.50 349.58
  Q 1.94 349.88 1.94 349.24
  L 1.93 122.01
  A 1.62 1.61 -14.3 0 1 2.78 120.59
  C 74.32 82.73 152.03 53.68 231.49 37.72
  Q 283.46 27.28 331.50 26.61
  C 376.22 25.98 420.78 31.91 462.87 47.14
  C 618.99 103.68 672.72 270.18 688.18 419.01
  Q 694.51 480.02 694.72 541.38
  Q 694.72 541.90 695.23 541.82
  Z"
/>
<path fill="#e2c99a" d="
  M 240.85 910.47
  Q 241.79 896.82 240.78 883.30
  C 239.19 789.43 210.44 690.20 122.98 640.32
  C 86.74 619.66 44.17 609.94 2.43 610.72
  Q 1.92 610.73 1.92 610.23
  L 1.92 355.27
  A 0.99 0.99 0.0 0 1 2.44 354.40
  Q 65.53 320.52 133.95 299.61
  C 242.11 266.56 373.25 258.84 459.63 347.25
  C 502.36 391.00 526.99 448.83 540.93 507.52
  C 555.63 569.37 560.87 634.33 560.46 697.64
  Q 560.45 698.12 560.90 697.96
  Q 621.04 676.42 685.99 673.24
  Q 734.48 670.86 780.58 681.53
  C 839.65 695.20 890.50 727.80 928.28 775.21
  C 958.60 813.25 979.93 858.61 993.68 905.05
  Q 993.77 905.37 994.09 905.29
  Q 1055.57 889.98 1118.75 887.14
  C 1223.78 882.43 1341.30 908.45 1378.98 1021.96
  A 0.77 0.77 0.0 0 0 1380.05 1022.41
  Q 1416.72 1004.49 1457.74 1001.30
  Q 1471.42 1000.23 1486.80 1003.37
  C 1528.82 1011.96 1549.60 1046.42 1555.18 1086.35
  Q 1555.29 1087.15 1554.48 1087.15
  L 837.78 1087.15
  Q 836.95 1087.15 836.94 1086.32
  Q 836.51 1046.94 823.81 1009.24
  Q 819.08 995.20 809.72 981.78
  C 771.61 927.12 702.91 945.17 655.35 972.83
  Q 654.86 973.12 654.76 972.56
  C 642.58 905.05 608.08 835.94 529.75 831.66
  C 493.08 829.65 455.82 840.76 422.45 856.48
  Q 392.12 870.76 368.25 887.02
  Q 367.84 887.31 367.40 887.04
  Q 361.51 883.45 358.42 881.88
  C 313.63 859.14 268.62 887.54 240.94 921.81
  Q 240.57 922.27 240.59 921.68
  L 240.85 910.47
  Z"
/>
<path fill="#d6a163" d="
  M 235.72 935.34
  A 0.40 0.39 -57.4 0 0 236.24 935.22
  Q 248.41 917.25 265.06 903.34
  C 291.57 881.21 322.63 869.03 355.93 885.32
  Q 359.80 887.22 367.50 892.20
  A 0.79 0.79 0.0 0 0 368.39 892.19
  C 436.05 845.07 556.06 796.19 616.86 885.16
  C 635.65 912.67 646.34 946.26 651.74 979.18
  A 0.59 0.59 0.0 0 0 652.63 979.59
  C 680.42 962.00 718.78 947.00 752.23 951.16
  C 817.09 959.22 831.07 1033.36 832.97 1086.10
  Q 833.00 1087.08 832.03 1087.08
  L 2.46 1087.08
  A 0.62 0.62 0.0 0 1 1.84 1086.46
  L 1.86 616.51
  A 1.79 1.79 0.0 0 1 3.64 614.72
  Q 41.56 614.49 77.19 625.42
  C 167.49 653.12 215.63 727.70 230.29 817.28
  Q 239.86 875.75 235.50 934.88
  Q 235.49 935.02 235.54 935.12
  Q 235.62 935.28 235.72 935.34
  Z"
/>
<path fill="#d6a163" d="
  M 240.78 883.30
  Q 241.79 896.82 240.85 910.47
  L 240.78 883.30
  Z"
/>
</svg>
