<?xml version="1.0" encoding="UTF-8" standalone="no"?>
<!DOCTYPE svg PUBLIC "-//W3C//DTD SVG 1.1//EN" "http://www.w3.org/Graphics/SVG/1.1/DTD/svg11.dtd">
<svg xmlns="http://www.w3.org/2000/svg" version="1.1" viewBox="0.00 0.00 1044.00 279.00">
<g stroke-width="2.00" fill="none" stroke-linecap="butt">
<path stroke="#af9d83" vector-effect="non-scaling-stroke" d="
  M 126.11 3.98
  C 54.99 11.51 1.47 72.38 3.85 144.03
  C 6.11 211.97 58.13 267.05 125.03 274.68
  Q 132.24 275.51 145.00 275.50
  Q 521.50 275.49 898.00 275.50
  Q 911.10 275.50 917.98 274.76
  C 977.06 268.38 1026.10 223.73 1037.14 164.99
  C 1051.94 86.22 996.31 11.70 916.47 3.91
  Q 909.93 3.27 896.51 3.27
  Q 521.30 3.24 146.09 3.27
  Q 132.85 3.27 126.11 3.98"
/>
<path stroke="#af9d83" vector-effect="non-scaling-stroke" d="
  M 177.99 79.03
  L 177.99 198.75
  A 0.60 0.60 0.0 0 0 178.59 199.35
  L 209.66 199.35
  A 60.41 60.35 -0.0 0 0 270.07 139.00
  L 270.07 138.78
  A 60.41 60.35 0.0 0 0 209.66 78.43
  L 178.59 78.43
  A 0.60 0.60 0.0 0 0 177.99 79.03"
/>
<path stroke="#af9d83" vector-effect="non-scaling-stroke" d="
  M 308.04 173.69
  A 0.31 0.31 0.0 0 1 308.33 173.50
  L 365.07 173.50
  A 0.31 0.31 0.0 0 1 365.36 173.69
  L 375.69 199.06
  A 0.31 0.31 0.0 0 0 375.98 199.25
  L 393.20 199.25
  A 0.31 0.31 0.0 0 0 393.49 198.82
  L 344.55 78.69
  A 0.31 0.31 0.0 0 0 344.26 78.50
  L 329.55 78.50
  A 0.31 0.31 0.0 0 0 329.26 78.69
  L 280.42 198.82
  A 0.31 0.31 0.0 0 0 280.71 199.25
  L 297.54 199.25
  A 0.31 0.31 0.0 0 0 297.83 199.06
  L 308.04 173.69"
/>
<path stroke="#af9d83" vector-effect="non-scaling-stroke" d="
  M 425.75 147.32
  A 0.32 0.32 0.0 0 1 426.07 147.00
  L 465.18 147.00
  A 0.32 0.32 0.0 0 0 465.50 146.68
  L 465.50 131.07
  A 0.32 0.32 0.0 0 0 465.18 130.75
  L 426.07 130.75
  A 0.32 0.32 0.0 0 1 425.75 130.43
  L 425.75 94.83
  A 0.32 0.32 0.0 0 1 426.07 94.51
  L 474.43 94.50
  A 0.32 0.32 0.0 0 0 474.75 94.18
  L 474.75 78.82
  A 0.32 0.32 0.0 0 0 474.43 78.50
  L 410.07 78.50
  A 0.32 0.32 0.0 0 0 409.75 78.82
  L 409.75 198.93
  A 0.32 0.32 0.0 0 0 410.07 199.25
  L 425.43 199.25
  A 0.32 0.32 0.0 0 0 425.75 198.93
  L 425.75 147.32"
/>
<path stroke="#af9d83" vector-effect="non-scaling-stroke" d="
  M 528.00 94.82
  A 0.32 0.32 0.0 0 1 528.32 94.50
  L 559.68 94.50
  A 0.32 0.32 0.0 0 0 560.00 94.18
  L 560.00 78.82
  A 0.32 0.32 0.0 0 0 559.68 78.50
  L 480.07 78.50
  A 0.32 0.32 0.0 0 0 479.75 78.82
  L 479.75 94.18
  A 0.32 0.32 0.0 0 0 480.07 94.50
  L 511.43 94.50
  A 0.32 0.32 0.0 0 1 511.75 94.82
  L 511.75 198.93
  A 0.32 0.32 0.0 0 0 512.07 199.25
  L 527.68 199.25
  A 0.32 0.32 0.0 0 0 528.00 198.93
  L 528.00 94.82"
/>
<path stroke="#af9d83" vector-effect="non-scaling-stroke" d="
  M 648.52 173.50
  A 0.32 0.32 0.0 0 1 648.82 173.70
  L 659.16 199.05
  A 0.32 0.32 0.0 0 0 659.46 199.25
  L 676.65 199.25
  A 0.32 0.32 0.0 0 0 676.95 198.81
  L 628.02 78.70
  A 0.32 0.32 0.0 0 0 627.72 78.50
  L 613.02 78.50
  A 0.32 0.32 0.0 0 0 612.72 78.70
  L 563.90 198.81
  A 0.32 0.32 0.0 0 0 564.20 199.25
  L 581.01 199.25
  A 0.32 0.32 0.0 0 0 581.31 199.05
  L 591.50 173.70
  A 0.32 0.32 0.0 0 1 591.80 173.50
  L 648.52 173.50"
/>
<path stroke="#af9d83" vector-effect="non-scaling-stroke" d="
  M 709.75 158.00
  L 731.03 158.00
  Q 731.67 158.00 731.99 158.56
  L 754.67 198.72
  Q 754.97 199.25 755.59 199.25
  L 773.72 199.25
  A 0.32 0.32 0.0 0 0 774.00 198.77
  L 749.25 156.03
  Q 748.89 155.41 749.55 155.13
  C 767.85 147.51 779.22 128.52 774.06 108.86
  C 770.29 94.52 759.09 83.65 744.74 79.91
  Q 739.15 78.45 727.10 78.47
  Q 710.35 78.50 693.50 78.50
  Q 693.00 78.50 693.00 79.01
  L 693.00 199.00
  Q 693.00 199.25 693.25 199.25
  L 708.75 199.25
  Q 709.25 199.25 709.25 198.75
  L 709.25 158.50
  Q 709.25 158.00 709.75 158.00"
/>
<path stroke="#af9d83" vector-effect="non-scaling-stroke" d="
  M 845.09 173.87
  A 0.39 0.39 0.0 0 0 845.48 174.25
  L 860.98 174.25
  A 0.39 0.39 0.0 0 0 861.37 173.87
  L 863.80 78.90
  A 0.39 0.39 0.0 0 0 863.41 78.50
  L 843.05 78.50
  A 0.39 0.39 0.0 0 0 842.66 78.90
  L 845.09 173.87"
/>
<path stroke="#af9d83" vector-effect="non-scaling-stroke" d="
  M 863.8358 189.9165
  A 10.63 10.50 6.3 0 0 854.4222 178.3134
  A 10.63 10.50 6.3 0 0 842.7042 187.5835
  A 10.63 10.50 6.3 0 0 852.1178 199.1866
  A 10.63 10.50 6.3 0 0 863.8358 189.9165"
/>
<path stroke="#af9d83" vector-effect="non-scaling-stroke" d="
  M 194.07 95.27
  L 193.91 182.67
  A 0.65 0.65 0.0 0 0 194.56 183.32
  L 208.65 183.34
  A 45.26 44.22 0.1 0 0 253.99 139.20
  L 253.99 138.94
  A 45.26 44.22 0.1 0 0 208.81 94.64
  L 194.72 94.62
  A 0.65 0.65 0.0 0 0 194.07 95.27"
/>
<path stroke="#af9d83" vector-effect="non-scaling-stroke" d="
  M 315.04 156.53
  A 0.32 0.32 0.0 0 0 315.33 156.97
  L 358.02 157.04
  A 0.32 0.32 0.0 0 0 358.32 156.60
  L 337.07 103.99
  A 0.32 0.32 0.0 0 0 336.47 103.99
  L 315.04 156.53"
/>
<path stroke="#af9d83" vector-effect="non-scaling-stroke" d="
  M 598.55 156.55
  A 0.33 0.33 0.0 0 0 598.86 157.00
  L 641.52 157.00
  A 0.33 0.33 0.0 0 0 641.83 156.55
  L 620.50 103.99
  A 0.33 0.33 0.0 0 0 619.88 103.99
  L 598.55 156.55"
/>
<path stroke="#af9d83" vector-effect="non-scaling-stroke" d="
  M 709.37 94.80
  L 709.13 141.34
  A 0.37 0.37 0.0 0 0 709.50 141.71
  L 733.04 141.83
  A 25.85 23.49 0.3 0 0 759.01 118.48
  L 759.01 118.18
  A 25.85 23.49 0.3 0 0 733.28 94.56
  L 709.74 94.43
  A 0.37 0.37 0.0 0 0 709.37 94.80"
/>
</g>
<path fill="#f0e1c1" d="
  M 135.88 0.00
  L 907.49 0.00
  C 966.33 2.30 1018.06 40.06 1036.05 96.48
  C 1062.77 180.24 1007.18 267.46 919.71 277.87
  Q 912.49 278.73 899.74 278.73
  Q 522.50 278.76 145.25 278.73
  Q 132.11 278.73 125.29 278.02
  C 48.52 269.97 -7.13 200.78 1.35 124.13
  C 9.07 54.33 66.20 2.93 135.88 0.00
  Z
  M 126.11 3.98
  C 54.99 11.51 1.47 72.38 3.85 144.03
  C 6.11 211.97 58.13 267.05 125.03 274.68
  Q 132.24 275.51 145.00 275.50
  Q 521.50 275.49 898.00 275.50
  Q 911.10 275.50 917.98 274.76
  C 977.06 268.38 1026.10 223.73 1037.14 164.99
  C 1051.94 86.22 996.31 11.70 916.47 3.91
  Q 909.93 3.27 896.51 3.27
  Q 521.30 3.24 146.09 3.27
  Q 132.85 3.27 126.11 3.98
  Z"
/>
<path fill="#6d5845" d="
  M 3.85 144.03
  C 1.47 72.38 54.99 11.51 126.11 3.98
  Q 132.85 3.27 146.09 3.27
  Q 521.30 3.24 896.51 3.27
  Q 909.93 3.27 916.47 3.91
  C 996.31 11.70 1051.94 86.22 1037.14 164.99
  C 1026.10 223.73 977.06 268.38 917.98 274.76
  Q 911.10 275.50 898.00 275.50
  Q 521.50 275.49 145.00 275.50
  Q 132.24 275.51 125.03 274.68
  C 58.13 267.05 6.11 211.97 3.85 144.03
  Z
  M 177.99 79.03
  L 177.99 198.75
  A 0.60 0.60 0.0 0 0 178.59 199.35
  L 209.66 199.35
  A 60.41 60.35 -0.0 0 0 270.07 139.00
  L 270.07 138.78
  A 60.41 60.35 0.0 0 0 209.66 78.43
  L 178.59 78.43
  A 0.60 0.60 0.0 0 0 177.99 79.03
  Z
  M 308.04 173.69
  A 0.31 0.31 0.0 0 1 308.33 173.50
  L 365.07 173.50
  A 0.31 0.31 0.0 0 1 365.36 173.69
  L 375.69 199.06
  A 0.31 0.31 0.0 0 0 375.98 199.25
  L 393.20 199.25
  A 0.31 0.31 0.0 0 0 393.49 198.82
  L 344.55 78.69
  A 0.31 0.31 0.0 0 0 344.26 78.50
  L 329.55 78.50
  A 0.31 0.31 0.0 0 0 329.26 78.69
  L 280.42 198.82
  A 0.31 0.31 0.0 0 0 280.71 199.25
  L 297.54 199.25
  A 0.31 0.31 0.0 0 0 297.83 199.06
  L 308.04 173.69
  Z
  M 425.75 147.32
  A 0.32 0.32 0.0 0 1 426.07 147.00
  L 465.18 147.00
  A 0.32 0.32 0.0 0 0 465.50 146.68
  L 465.50 131.07
  A 0.32 0.32 0.0 0 0 465.18 130.75
  L 426.07 130.75
  A 0.32 0.32 0.0 0 1 425.75 130.43
  L 425.75 94.83
  A 0.32 0.32 0.0 0 1 426.07 94.51
  L 474.43 94.50
  A 0.32 0.32 0.0 0 0 474.75 94.18
  L 474.75 78.82
  A 0.32 0.32 0.0 0 0 474.43 78.50
  L 410.07 78.50
  A 0.32 0.32 0.0 0 0 409.75 78.82
  L 409.75 198.93
  A 0.32 0.32 0.0 0 0 410.07 199.25
  L 425.43 199.25
  A 0.32 0.32 0.0 0 0 425.75 198.93
  L 425.75 147.32
  Z
  M 528.00 94.82
  A 0.32 0.32 0.0 0 1 528.32 94.50
  L 559.68 94.50
  A 0.32 0.32 0.0 0 0 560.00 94.18
  L 560.00 78.82
  A 0.32 0.32 0.0 0 0 559.68 78.50
  L 480.07 78.50
  A 0.32 0.32 0.0 0 0 479.75 78.82
  L 479.75 94.18
  A 0.32 0.32 0.0 0 0 480.07 94.50
  L 511.43 94.50
  A 0.32 0.32 0.0 0 1 511.75 94.82
  L 511.75 198.93
  A 0.32 0.32 0.0 0 0 512.07 199.25
  L 527.68 199.25
  A 0.32 0.32 0.0 0 0 528.00 198.93
  L 528.00 94.82
  Z
  M 648.52 173.50
  A 0.32 0.32 0.0 0 1 648.82 173.70
  L 659.16 199.05
  A 0.32 0.32 0.0 0 0 659.46 199.25
  L 676.65 199.25
  A 0.32 0.32 0.0 0 0 676.95 198.81
  L 628.02 78.70
  A 0.32 0.32 0.0 0 0 627.72 78.50
  L 613.02 78.50
  A 0.32 0.32 0.0 0 0 612.72 78.70
  L 563.90 198.81
  A 0.32 0.32 0.0 0 0 564.20 199.25
  L 581.01 199.25
  A 0.32 0.32 0.0 0 0 581.31 199.05
  L 591.50 173.70
  A 0.32 0.32 0.0 0 1 591.80 173.50
  L 648.52 173.50
  Z
  M 709.75 158.00
  L 731.03 158.00
  Q 731.67 158.00 731.99 158.56
  L 754.67 198.72
  Q 754.97 199.25 755.59 199.25
  L 773.72 199.25
  A 0.32 0.32 0.0 0 0 774.00 198.77
  L 749.25 156.03
  Q 748.89 155.41 749.55 155.13
  C 767.85 147.51 779.22 128.52 774.06 108.86
  C 770.29 94.52 759.09 83.65 744.74 79.91
  Q 739.15 78.45 727.10 78.47
  Q 710.35 78.50 693.50 78.50
  Q 693.00 78.50 693.00 79.01
  L 693.00 199.00
  Q 693.00 199.25 693.25 199.25
  L 708.75 199.25
  Q 709.25 199.25 709.25 198.75
  L 709.25 158.50
  Q 709.25 158.00 709.75 158.00
  Z
  M 845.09 173.87
  A 0.39 0.39 0.0 0 0 845.48 174.25
  L 860.98 174.25
  A 0.39 0.39 0.0 0 0 861.37 173.87
  L 863.80 78.90
  A 0.39 0.39 0.0 0 0 863.41 78.50
  L 843.05 78.50
  A 0.39 0.39 0.0 0 0 842.66 78.90
  L 845.09 173.87
  Z
  M 863.8358 189.9165
  A 10.63 10.50 6.3 0 0 854.4222 178.3134
  A 10.63 10.50 6.3 0 0 842.7042 187.5835
  A 10.63 10.50 6.3 0 0 852.1178 199.1866
  A 10.63 10.50 6.3 0 0 863.8358 189.9165
  Z"
/>
<path fill="#f0e1c1" d="
  M 177.99 79.03
  A 0.60 0.60 0.0 0 1 178.59 78.43
  L 209.66 78.43
  A 60.41 60.35 -0.0 0 1 270.07 138.78
  L 270.07 139.00
  A 60.41 60.35 -0.0 0 1 209.66 199.35
  L 178.59 199.35
  A 0.60 0.60 0.0 0 1 177.99 198.75
  L 177.99 79.03
  Z
  M 194.07 95.27
  L 193.91 182.67
  A 0.65 0.65 0.0 0 0 194.56 183.32
  L 208.65 183.34
  A 45.26 44.22 0.1 0 0 253.99 139.20
  L 253.99 138.94
  A 45.26 44.22 0.1 0 0 208.81 94.64
  L 194.72 94.62
  A 0.65 0.65 0.0 0 0 194.07 95.27
  Z"
/>
<path fill="#f0e1c1" d="
  M 308.04 173.69
  L 297.83 199.06
  A 0.31 0.31 0.0 0 1 297.54 199.25
  L 280.71 199.25
  A 0.31 0.31 0.0 0 1 280.42 198.82
  L 329.26 78.69
  A 0.31 0.31 0.0 0 1 329.55 78.50
  L 344.26 78.50
  A 0.31 0.31 0.0 0 1 344.55 78.69
  L 393.49 198.82
  A 0.31 0.31 0.0 0 1 393.20 199.25
  L 375.98 199.25
  A 0.31 0.31 0.0 0 1 375.69 199.06
  L 365.36 173.69
  A 0.31 0.31 0.0 0 0 365.07 173.50
  L 308.33 173.50
  A 0.31 0.31 0.0 0 0 308.04 173.69
  Z
  M 315.04 156.53
  A 0.32 0.32 0.0 0 0 315.33 156.97
  L 358.02 157.04
  A 0.32 0.32 0.0 0 0 358.32 156.60
  L 337.07 103.99
  A 0.32 0.32 0.0 0 0 336.47 103.99
  L 315.04 156.53
  Z"
/>
<path fill="#f0e1c1" d="
  M 425.75 147.32
  L 425.75 198.93
  A 0.32 0.32 0.0 0 1 425.43 199.25
  L 410.07 199.25
  A 0.32 0.32 0.0 0 1 409.75 198.93
  L 409.75 78.82
  A 0.32 0.32 0.0 0 1 410.07 78.50
  L 474.43 78.50
  A 0.32 0.32 0.0 0 1 474.75 78.82
  L 474.75 94.18
  A 0.32 0.32 0.0 0 1 474.43 94.50
  L 426.07 94.51
  A 0.32 0.32 0.0 0 0 425.75 94.83
  L 425.75 130.43
  A 0.32 0.32 0.0 0 0 426.07 130.75
  L 465.18 130.75
  A 0.32 0.32 0.0 0 1 465.50 131.07
  L 465.50 146.68
  A 0.32 0.32 0.0 0 1 465.18 147.00
  L 426.07 147.00
  A 0.32 0.32 0.0 0 0 425.75 147.32
  Z"
/>
<path fill="#f0e1c1" d="
  M 528.00 94.82
  L 528.00 198.93
  A 0.32 0.32 0.0 0 1 527.68 199.25
  L 512.07 199.25
  A 0.32 0.32 0.0 0 1 511.75 198.93
  L 511.75 94.82
  A 0.32 0.32 0.0 0 0 511.43 94.50
  L 480.07 94.50
  A 0.32 0.32 0.0 0 1 479.75 94.18
  L 479.75 78.82
  A 0.32 0.32 0.0 0 1 480.07 78.50
  L 559.68 78.50
  A 0.32 0.32 0.0 0 1 560.00 78.82
  L 560.00 94.18
  A 0.32 0.32 0.0 0 1 559.68 94.50
  L 528.32 94.50
  A 0.32 0.32 0.0 0 0 528.00 94.82
  Z"
/>
<path fill="#f0e1c1" d="
  M 648.52 173.50
  L 591.80 173.50
  A 0.32 0.32 0.0 0 0 591.50 173.70
  L 581.31 199.05
  A 0.32 0.32 0.0 0 1 581.01 199.25
  L 564.20 199.25
  A 0.32 0.32 0.0 0 1 563.90 198.81
  L 612.72 78.70
  A 0.32 0.32 0.0 0 1 613.02 78.50
  L 627.72 78.50
  A 0.32 0.32 0.0 0 1 628.02 78.70
  L 676.95 198.81
  A 0.32 0.32 0.0 0 1 676.65 199.25
  L 659.46 199.25
  A 0.32 0.32 0.0 0 1 659.16 199.05
  L 648.82 173.70
  A 0.32 0.32 0.0 0 0 648.52 173.50
  Z
  M 598.55 156.55
  A 0.33 0.33 0.0 0 0 598.86 157.00
  L 641.52 157.00
  A 0.33 0.33 0.0 0 0 641.83 156.55
  L 620.50 103.99
  A 0.33 0.33 0.0 0 0 619.88 103.99
  L 598.55 156.55
  Z"
/>
<path fill="#f0e1c1" d="
  M 709.25 158.50
  L 709.25 198.75
  Q 709.25 199.25 708.75 199.25
  L 693.25 199.25
  Q 693.00 199.25 693.00 199.00
  L 693.00 79.01
  Q 693.00 78.50 693.50 78.50
  Q 710.35 78.50 727.10 78.47
  Q 739.15 78.45 744.74 79.91
  C 759.09 83.65 770.29 94.52 774.06 108.86
  C 779.22 128.52 767.85 147.51 749.55 155.13
  Q 748.89 155.41 749.25 156.03
  L 774.00 198.77
  A 0.32 0.32 0.0 0 1 773.72 199.25
  L 755.59 199.25
  Q 754.97 199.25 754.67 198.72
  L 731.99 158.56
  Q 731.67 158.00 731.03 158.00
  L 709.75 158.00
  Q 709.25 158.00 709.25 158.50
  Z
  M 709.37 94.80
  L 709.13 141.34
  A 0.37 0.37 0.0 0 0 709.50 141.71
  L 733.04 141.83
  A 25.85 23.49 0.3 0 0 759.01 118.48
  L 759.01 118.18
  A 25.85 23.49 0.3 0 0 733.28 94.56
  L 709.74 94.43
  A 0.37 0.37 0.0 0 0 709.37 94.80
  Z"
/>
<path fill="#f0e1c1" d="
  M 845.09 173.87
  L 842.66 78.90
  A 0.39 0.39 0.0 0 1 843.05 78.50
  L 863.41 78.50
  A 0.39 0.39 0.0 0 1 863.80 78.90
  L 861.37 173.87
  A 0.39 0.39 0.0 0 1 860.98 174.25
  L 845.48 174.25
  A 0.39 0.39 0.0 0 1 845.09 173.87
  Z"
/>
<path fill="#6d5845" d="
  M 709.37 94.80
  A 0.37 0.37 0.0 0 1 709.74 94.43
  L 733.28 94.56
  A 25.85 23.49 0.3 0 1 759.01 118.18
  L 759.01 118.48
  A 25.85 23.49 0.3 0 1 733.04 141.83
  L 709.50 141.71
  A 0.37 0.37 0.0 0 1 709.13 141.34
  L 709.37 94.80
  Z"
/>
<path fill="#6d5845" d="
  M 194.07 95.27
  A 0.65 0.65 0.0 0 1 194.72 94.62
  L 208.81 94.64
  A 45.26 44.22 0.1 0 1 253.99 138.94
  L 253.99 139.20
  A 45.26 44.22 0.1 0 1 208.65 183.34
  L 194.56 183.32
  A 0.65 0.65 0.0 0 1 193.91 182.67
  L 194.07 95.27
  Z"
/>
<path fill="#6d5845" d="
  M 315.04 156.53
  L 336.47 103.99
  A 0.32 0.32 0.0 0 1 337.07 103.99
  L 358.32 156.60
  A 0.32 0.32 0.0 0 1 358.02 157.04
  L 315.33 156.97
  A 0.32 0.32 0.0 0 1 315.04 156.53
  Z"
/>
<path fill="#6d5845" d="
  M 598.55 156.55
  L 619.88 103.99
  A 0.33 0.33 0.0 0 1 620.50 103.99
  L 641.83 156.55
  A 0.33 0.33 0.0 0 1 641.52 157.00
  L 598.86 157.00
  A 0.33 0.33 0.0 0 1 598.55 156.55
  Z"
/>
<ellipse fill="#f0e1c1" cx="0.00" cy="0.00" transform="translate(853.27,188.75) rotate(6.3)" rx="10.63" ry="10.50"/>
</svg>
