<?xml version="1.0" encoding="UTF-8" standalone="no"?>
<!DOCTYPE svg PUBLIC "-//W3C//DTD SVG 1.1//EN" "http://www.w3.org/Graphics/SVG/1.1/DTD/svg11.dtd">
<svg xmlns="http://www.w3.org/2000/svg" version="1.1" viewBox="0.00 0.00 2099.00 997.00">
<g stroke-width="2.00" fill="none" stroke-linecap="butt">
<path stroke="#af9d83" vector-effect="non-scaling-stroke" d="
  M 372.85 289.92
  C 378.42 310.07 392.25 322.28 410.71 330.92
  Q 418.53 334.58 425.74 335.77
  Q 452.64 340.23 470.76 345.68
  Q 479.85 348.41 479.49 357.40
  C 479.41 359.38 478.01 361.75 476.47 362.71
  C 467.80 368.07 453.27 368.27 449.42 356.92
  Q 448.46 354.08 447.39 352.94
  C 435.01 339.57 372.32 341.98 368.35 364.70
  Q 367.71 368.41 369.55 374.62
  Q 374.82 392.35 387.27 405.26
  C 413.88 432.88 449.47 441.02 486.96 434.43
  Q 523.93 427.92 546.93 399.46
  C 564.99 377.11 567.18 346.33 553.56 321.46
  C 539.38 295.56 510.61 282.49 482.86 276.69
  Q 471.96 274.42 461.02 272.44
  C 456.44 271.62 445.75 269.48 445.30 263.53
  C 445.02 259.91 447.56 258.26 450.28 256.36
  C 456.19 252.23 463.22 249.35 470.01 252.26
  Q 475.00 254.40 476.66 260.06
  Q 477.55 263.09 478.53 264.16
  Q 481.03 266.90 484.74 266.69
  Q 501.65 265.72 520.48 259.46
  C 527.52 257.13 535.03 253.64 540.51 248.55
  C 547.23 242.30 544.76 236.69 541.94 229.51
  Q 536.13 214.73 524.35 204.64
  C 500.70 184.40 467.64 178.94 437.26 186.47
  C 406.79 194.02 379.10 216.63 372.33 248.00
  C 369.45 261.32 369.28 277.00 372.85 289.92"
/>
<path stroke="#af9d83" vector-effect="non-scaling-stroke" d="
  M 1075.66 380.90
  Q 1077.90 397.87 1081.42 414.62
  C 1082.20 418.31 1085.20 431.24 1088.95 432.56
  C 1098.89 436.07 1109.72 436.49 1121.44 436.59
  Q 1139.08 436.73 1156.49 433.54
  Q 1159.05 433.06 1163.56 430.32
  A 1.69 1.65 -3.7 0 0 1164.19 429.62
  Q 1166.87 423.97 1167.78 418.26
  Q 1171.42 395.32 1173.08 370.25
  Q 1177.22 307.63 1176.01 244.88
  Q 1175.61 223.77 1173.55 202.75
  Q 1173.30 200.22 1172.38 198.72
  C 1169.86 194.65 1163.95 192.52 1159.22 191.39
  Q 1130.74 184.60 1101.97 188.65
  C 1091.77 190.09 1083.70 191.90 1074.66 195.65
  C 1063.78 200.17 1064.17 206.92 1063.97 218.46
  Q 1063.76 230.75 1064.19 243.00
  Q 1066.62 312.23 1075.66 380.90"
/>
<path stroke="#af9d83" vector-effect="non-scaling-stroke" d="
  M 575.98 328.11
  C 581.65 378.27 620.85 420.50 669.46 432.48
  C 708.77 442.16 747.47 436.06 779.30 410.32
  Q 823.48 374.59 827.53 314.74
  Q 830.61 269.10 803.25 235.26
  Q 778.95 205.19 741.74 194.30
  C 699.80 182.02 658.19 185.60 623.65 213.90
  Q 576.24 252.72 574.96 314.26
  C 574.87 318.77 575.47 323.55 575.98 328.11"
/>
<path stroke="#af9d83" vector-effect="non-scaling-stroke" d="
  M 850.13 350.62
  C 862.07 399.84 906.41 430.77 955.26 435.71
  Q 993.67 439.59 1029.45 427.35
  Q 1032.94 426.16 1034.65 424.94
  C 1040.16 421.01 1043.17 412.03 1043.82 405.51
  Q 1046.21 381.50 1036.43 359.29
  C 1033.13 351.80 1027.11 343.79 1018.40 342.39
  Q 1015.50 341.93 1009.71 343.16
  Q 992.12 346.88 974.09 345.90
  C 959.37 345.10 946.68 337.77 944.01 322.26
  C 939.10 293.69 968.63 275.85 993.25 272.94
  Q 999.53 272.19 1013.99 271.52
  C 1028.37 270.86 1031.95 254.96 1031.09 243.50
  Q 1030.33 233.36 1027.47 223.58
  C 1023.86 211.27 1019.53 197.81 1007.18 191.61
  Q 1003.14 189.58 996.31 188.94
  Q 975.40 186.99 956.75 189.81
  C 913.54 196.33 876.31 224.65 859.15 265.42
  C 848.23 291.37 843.45 323.10 850.13 350.62"
/>
<path stroke="#af9d83" vector-effect="non-scaling-stroke" d="
  M 1436.66 323.25
  C 1437.39 347.43 1438.75 371.68 1441.14 395.76
  Q 1442.27 407.14 1444.92 418.24
  C 1446.06 423.05 1447.86 428.42 1452.97 430.34
  C 1460.42 433.14 1468.63 434.29 1477.48 434.94
  Q 1513.18 437.53 1554.60 435.79
  Q 1586.67 434.45 1610.80 431.17
  C 1614.42 430.67 1616.73 429.62 1617.99 426.27
  Q 1619.77 421.53 1620.38 416.48
  Q 1624.46 382.56 1616.37 349.43
  C 1615.01 343.86 1612.20 335.12 1606.26 334.44
  C 1601.54 333.89 1595.01 334.23 1589.13 334.71
  Q 1570.33 336.26 1551.47 336.27
  C 1546.97 336.27 1536.60 335.92 1535.94 330.01
  Q 1535.33 324.58 1535.06 310.49
  Q 1534.26 269.87 1533.65 229.24
  Q 1533.41 213.22 1532.34 197.11
  Q 1532.31 196.62 1531.93 196.30
  Q 1528.33 193.24 1524.50 192.41
  Q 1487.42 184.44 1449.06 192.49
  C 1444.71 193.41 1437.64 195.94 1437.23 200.24
  Q 1435.95 213.60 1435.75 235.25
  Q 1435.35 279.26 1436.66 323.25"
/>
<path stroke="#af9d83" vector-effect="non-scaling-stroke" d="
  M 670.26 298.48
  C 661.45 318.06 673.17 340.79 693.97 345.21
  Q 706.32 347.83 716.89 342.31
  C 732.07 334.37 739.55 315.34 733.43 299.08
  C 726.43 280.49 699.63 272.62 683.39 283.37
  Q 674.37 289.33 670.26 298.48"
/>
<path stroke="#af9d83" vector-effect="non-scaling-stroke" d="
  M 1286.25 192.72
  C 1277.09 194.15 1255.08 197.63 1250.88 204.70
  C 1246.91 211.39 1242.86 221.12 1239.88 229.62
  Q 1210.90 312.36 1196.90 398.98
  Q 1195.56 407.25 1195.09 421.11
  C 1194.87 427.36 1196.00 432.39 1202.47 433.85
  C 1212.36 436.08 1222.13 436.13 1233.87 436.48
  Q 1244.44 436.80 1255.01 435.74
  C 1260.44 435.20 1263.22 429.45 1265.65 424.70
  Q 1272.60 411.11 1279.23 397.33
  Q 1281.53 392.55 1283.93 390.51
  Q 1288.66 386.50 1295.26 386.35
  Q 1302.80 386.17 1322.13 386.31
  C 1332.64 386.39 1336.45 392.86 1340.18 402.01
  Q 1343.76 410.80 1346.73 419.82
  C 1348.60 425.52 1352.92 436.38 1360.00 436.55
  Q 1382.06 437.07 1411.76 433.65
  C 1417.71 432.97 1428.72 431.75 1432.24 427.03
  C 1434.52 423.97 1434.08 418.20 1433.18 414.75
  Q 1411.91 333.10 1382.77 256.23
  Q 1375.99 238.35 1366.83 219.06
  C 1363.75 212.57 1359.33 204.33 1354.25 199.24
  C 1349.03 194.01 1340.99 192.23 1333.74 191.52
  Q 1309.28 189.11 1286.25 192.72"
/>
<path stroke="#af9d83" vector-effect="non-scaling-stroke" d="
  M 1299.70 289.72
  C 1293.64 298.20 1288.11 310.73 1286.52 320.74
  C 1285.07 329.87 1292.71 332.30 1300.00 333.01
  C 1308.38 333.82 1326.47 334.18 1330.59 324.95
  C 1334.07 317.17 1321.19 298.22 1316.58 291.90
  C 1311.72 285.23 1305.66 281.37 1299.70 289.72"
/>
</g>
<path fill="#6d5845" d="
  M 448.36 262.42
  A 2.25 2.24 25.1 0 0 449.36 265.17
  C 453.10 267.28 456.53 268.50 461.06 269.37
  Q 472.29 271.52 483.51 273.79
  C 528.31 282.84 568.37 310.77 565.19 361.76
  C 564.14 378.70 556.51 393.99 544.98 406.58
  Q 522.66 430.94 488.49 437.25
  C 469.61 440.74 450.16 440.80 431.85 435.61
  C 404.50 427.85 378.81 408.38 368.54 381.10
  Q 365.07 371.88 365.01 367.19
  C 364.88 356.44 375.02 349.72 384.41 346.59
  Q 412.18 337.34 440.73 345.47
  Q 446.43 347.10 450.02 351.37
  Q 450.94 352.46 452.37 355.91
  C 455.97 364.58 465.97 364.83 473.42 360.82
  Q 478.64 358.00 475.80 352.97
  Q 474.20 350.13 469.75 348.73
  Q 453.43 343.60 436.62 340.64
  Q 421.56 337.98 417.56 336.76
  Q 400.58 331.56 388.28 320.48
  Q 372.67 306.42 368.80 286.99
  Q 366.04 273.13 367.86 256.23
  C 371.86 219.13 401.22 192.19 436.51 183.51
  C 464.51 176.63 494.39 180.26 518.64 196.34
  Q 539.54 210.20 547.07 234.20
  Q 550.26 244.40 542.53 251.01
  C 528.67 262.85 505.93 267.88 488.24 269.36
  Q 482.88 269.81 480.35 268.97
  Q 475.98 267.51 474.35 262.96
  Q 472.87 258.86 472.45 258.26
  C 469.84 254.62 465.58 253.44 461.17 254.55
  C 457.93 255.38 449.68 258.92 448.36 262.42
  Z
  M 372.85 289.92
  C 378.42 310.07 392.25 322.28 410.71 330.92
  Q 418.53 334.58 425.74 335.77
  Q 452.64 340.23 470.76 345.68
  Q 479.85 348.41 479.49 357.40
  C 479.41 359.38 478.01 361.75 476.47 362.71
  C 467.80 368.07 453.27 368.27 449.42 356.92
  Q 448.46 354.08 447.39 352.94
  C 435.01 339.57 372.32 341.98 368.35 364.70
  Q 367.71 368.41 369.55 374.62
  Q 374.82 392.35 387.27 405.26
  C 413.88 432.88 449.47 441.02 486.96 434.43
  Q 523.93 427.92 546.93 399.46
  C 564.99 377.11 567.18 346.33 553.56 321.46
  C 539.38 295.56 510.61 282.49 482.86 276.69
  Q 471.96 274.42 461.02 272.44
  C 456.44 271.62 445.75 269.48 445.30 263.53
  C 445.02 259.91 447.56 258.26 450.28 256.36
  C 456.19 252.23 463.22 249.35 470.01 252.26
  Q 475.00 254.40 476.66 260.06
  Q 477.55 263.09 478.53 264.16
  Q 481.03 266.90 484.74 266.69
  Q 501.65 265.72 520.48 259.46
  C 527.52 257.13 535.03 253.64 540.51 248.55
  C 547.23 242.30 544.76 236.69 541.94 229.51
  Q 536.13 214.73 524.35 204.64
  C 500.70 184.40 467.64 178.94 437.26 186.47
  C 406.79 194.02 379.10 216.63 372.33 248.00
  C 369.45 261.32 369.28 277.00 372.85 289.92
  Z"
/>
<path fill="#f0e1c0" d="
  M 372.85 289.92
  C 369.28 277.00 369.45 261.32 372.33 248.00
  C 379.10 216.63 406.79 194.02 437.26 186.47
  C 467.64 178.94 500.70 184.40 524.35 204.64
  Q 536.13 214.73 541.94 229.51
  C 544.76 236.69 547.23 242.30 540.51 248.55
  C 535.03 253.64 527.52 257.13 520.48 259.46
  Q 501.65 265.72 484.74 266.69
  Q 481.03 266.90 478.53 264.16
  Q 477.55 263.09 476.66 260.06
  Q 475.00 254.40 470.01 252.26
  C 463.22 249.35 456.19 252.23 450.28 256.36
  C 447.56 258.26 445.02 259.91 445.30 263.53
  C 445.75 269.48 456.44 271.62 461.02 272.44
  Q 471.96 274.42 482.86 276.69
  C 510.61 282.49 539.38 295.56 553.56 321.46
  C 567.18 346.33 564.99 377.11 546.93 399.46
  Q 523.93 427.92 486.96 434.43
  C 449.47 441.02 413.88 432.88 387.27 405.26
  Q 374.82 392.35 369.55 374.62
  Q 367.71 368.41 368.35 364.70
  C 372.32 341.98 435.01 339.57 447.39 352.94
  Q 448.46 354.08 449.42 356.92
  C 453.27 368.27 467.80 368.07 476.47 362.71
  C 478.01 361.75 479.41 359.38 479.49 357.40
  Q 479.85 348.41 470.76 345.68
  Q 452.64 340.23 425.74 335.77
  Q 418.53 334.58 410.71 330.92
  C 392.25 322.28 378.42 310.07 372.85 289.92
  Z"
/>
<path fill="#6d5845" d="
  M 1177.07 208.13
  Q 1177.21 208.84 1177.29 210.00
  Q 1179.08 235.39 1179.07 243.50
  Q 1179.02 274.24 1179.13 304.98
  C 1179.13 305.52 1178.84 305.91 1178.84 306.50
  Q 1178.17 354.13 1173.41 401.52
  Q 1171.68 418.71 1168.05 429.18
  Q 1167.21 431.59 1163.27 434.23
  C 1160.64 436.00 1154.10 437.24 1150.13 437.75
  Q 1126.05 440.81 1102.75 438.71
  Q 1096.45 438.14 1089.82 436.04
  Q 1086.75 435.07 1085.03 433.10
  Q 1082.92 430.68 1081.92 427.78
  Q 1078.65 418.23 1076.63 406.37
  Q 1072.74 383.53 1070.12 360.49
  Q 1063.12 298.93 1060.98 237.00
  Q 1060.78 230.98 1061.06 211.74
  Q 1061.25 198.54 1072.13 193.37
  Q 1082.82 188.28 1097.41 186.10
  Q 1123.83 182.15 1150.24 186.25
  C 1158.37 187.52 1173.99 190.38 1176.30 200.24
  C 1176.78 202.28 1176.53 205.40 1177.07 208.13
  Z
  M 1075.66 380.90
  Q 1077.90 397.87 1081.42 414.62
  C 1082.20 418.31 1085.20 431.24 1088.95 432.56
  C 1098.89 436.07 1109.72 436.49 1121.44 436.59
  Q 1139.08 436.73 1156.49 433.54
  Q 1159.05 433.06 1163.56 430.32
  A 1.69 1.65 -3.7 0 0 1164.19 429.62
  Q 1166.87 423.97 1167.78 418.26
  Q 1171.42 395.32 1173.08 370.25
  Q 1177.22 307.63 1176.01 244.88
  Q 1175.61 223.77 1173.55 202.75
  Q 1173.30 200.22 1172.38 198.72
  C 1169.86 194.65 1163.95 192.52 1159.22 191.39
  Q 1130.74 184.60 1101.97 188.65
  C 1091.77 190.09 1083.70 191.90 1074.66 195.65
  C 1063.78 200.17 1064.17 206.92 1063.97 218.46
  Q 1063.76 230.75 1064.19 243.00
  Q 1066.62 312.23 1075.66 380.90
  Z"
/>
<path fill="#6d5845" d="
  M 753.60 195.18
  C 792.35 210.10 822.20 244.18 829.11 285.35
  C 832.07 302.99 831.02 321.50 827.27 339.09
  C 815.57 394.06 767.07 437.60 710.27 439.67
  C 659.20 441.52 613.02 418.39 587.59 373.35
  Q 569.12 340.62 572.65 301.99
  C 576.08 264.40 594.63 232.44 624.21 209.45
  Q 657.79 183.35 700.99 184.67
  Q 728.50 185.52 753.60 195.18
  Z
  M 575.98 328.11
  C 581.65 378.27 620.85 420.50 669.46 432.48
  C 708.77 442.16 747.47 436.06 779.30 410.32
  Q 823.48 374.59 827.53 314.74
  Q 830.61 269.10 803.25 235.26
  Q 778.95 205.19 741.74 194.30
  C 699.80 182.02 658.19 185.60 623.65 213.90
  Q 576.24 252.72 574.96 314.26
  C 574.87 318.77 575.47 323.55 575.98 328.11
  Z"
/>
<path fill="#6d5845" d="
  M 948.23 438.11
  Q 947.86 438.38 947.51 437.99
  A 0.87 0.85 73.4 0 0 947.02 437.72
  C 916.86 433.03 887.27 417.94 868.23 393.95
  Q 838.94 357.05 845.22 307.01
  C 848.38 281.86 856.18 258.51 870.88 238.49
  C 890.30 212.04 918.91 193.44 951.53 187.69
  Q 975.04 183.55 998.89 186.19
  Q 1004.41 186.80 1008.19 188.69
  Q 1019.45 194.33 1024.67 206.44
  Q 1032.68 225.02 1034.31 244.01
  C 1035.29 255.39 1030.16 273.57 1015.99 274.29
  Q 1007.63 274.72 999.30 275.45
  Q 988.79 276.38 982.83 278.05
  C 969.62 281.76 951.88 292.95 947.75 306.74
  Q 946.50 310.93 946.46 315.47
  C 946.30 335.93 961.98 343.61 981.00 343.29
  Q 983.87 343.24 991.94 342.66
  Q 1000.74 342.02 1009.38 340.13
  Q 1015.22 338.85 1018.26 339.16
  Q 1025.58 339.92 1030.32 344.98
  C 1041.08 356.45 1045.15 371.80 1046.83 387.29
  Q 1047.90 397.19 1047.16 404.45
  C 1046.39 411.96 1043.40 422.06 1037.25 426.88
  Q 1034.91 428.70 1030.64 430.17
  Q 990.92 443.80 949.03 437.92
  Q 948.59 437.86 948.23 438.11
  Z
  M 850.13 350.62
  C 862.07 399.84 906.41 430.77 955.26 435.71
  Q 993.67 439.59 1029.45 427.35
  Q 1032.94 426.16 1034.65 424.94
  C 1040.16 421.01 1043.17 412.03 1043.82 405.51
  Q 1046.21 381.50 1036.43 359.29
  C 1033.13 351.80 1027.11 343.79 1018.40 342.39
  Q 1015.50 341.93 1009.71 343.16
  Q 992.12 346.88 974.09 345.90
  C 959.37 345.10 946.68 337.77 944.01 322.26
  C 939.10 293.69 968.63 275.85 993.25 272.94
  Q 999.53 272.19 1013.99 271.52
  C 1028.37 270.86 1031.95 254.96 1031.09 243.50
  Q 1030.33 233.36 1027.47 223.58
  C 1023.86 211.27 1019.53 197.81 1007.18 191.61
  Q 1003.14 189.58 996.31 188.94
  Q 975.40 186.99 956.75 189.81
  C 913.54 196.33 876.31 224.65 859.15 265.42
  C 848.23 291.37 843.45 323.10 850.13 350.62
  Z"
/>
<path fill="#6d5845" d="
  M 1479.57 185.66
  Q 1501.56 184.78 1523.19 189.16
  Q 1527.82 190.09 1531.96 192.29
  C 1534.52 193.65 1535.17 195.30 1535.40 198.28
  Q 1536.52 213.07 1536.36 227.90
  Q 1536.36 228.40 1536.54 228.86
  Q 1536.67 229.18 1536.67 229.50
  Q 1537.17 275.76 1538.26 322.00
  Q 1538.32 324.22 1539.11 330.02
  A 1.13 1.11 12.6 0 0 1539.62 330.81
  Q 1543.23 333.07 1547.25 333.15
  Q 1569.00 333.58 1592.50 331.41
  C 1595.19 331.16 1599.78 331.37 1603.82 331.30
  Q 1612.85 331.13 1616.34 339.96
  Q 1619.88 348.91 1621.46 357.48
  Q 1626.13 382.78 1624.51 408.51
  Q 1623.95 417.44 1621.36 426.01
  Q 1619.13 433.34 1611.51 434.31
  C 1585.99 437.57 1560.46 438.91 1534.76 439.43
  Q 1505.98 440.00 1477.25 438.03
  Q 1465.39 437.22 1454.00 433.93
  Q 1445.64 431.52 1443.17 423.16
  C 1441.01 415.83 1439.63 408.93 1438.77 400.84
  Q 1433.98 356.30 1433.21 311.50
  Q 1433.17 308.88 1433.12 306.25
  Q 1431.97 248.60 1433.11 219.50
  Q 1433.73 203.70 1434.21 199.74
  C 1435.75 187.05 1470.40 186.03 1479.57 185.66
  Z
  M 1436.66 323.25
  C 1437.39 347.43 1438.75 371.68 1441.14 395.76
  Q 1442.27 407.14 1444.92 418.24
  C 1446.06 423.05 1447.86 428.42 1452.97 430.34
  C 1460.42 433.14 1468.63 434.29 1477.48 434.94
  Q 1513.18 437.53 1554.60 435.79
  Q 1586.67 434.45 1610.80 431.17
  C 1614.42 430.67 1616.73 429.62 1617.99 426.27
  Q 1619.77 421.53 1620.38 416.48
  Q 1624.46 382.56 1616.37 349.43
  C 1615.01 343.86 1612.20 335.12 1606.26 334.44
  C 1601.54 333.89 1595.01 334.23 1589.13 334.71
  Q 1570.33 336.26 1551.47 336.27
  C 1546.97 336.27 1536.60 335.92 1535.94 330.01
  Q 1535.33 324.58 1535.06 310.49
  Q 1534.26 269.87 1533.65 229.24
  Q 1533.41 213.22 1532.34 197.11
  Q 1532.31 196.62 1531.93 196.30
  Q 1528.33 193.24 1524.50 192.41
  Q 1487.42 184.44 1449.06 192.49
  C 1444.71 193.41 1437.64 195.94 1437.23 200.24
  Q 1435.95 213.60 1435.75 235.25
  Q 1435.35 279.26 1436.66 323.25
  Z"
/>
<path fill="#f0e1c0" d="
  M 1075.66 380.90
  Q 1066.62 312.23 1064.19 243.00
  Q 1063.76 230.75 1063.97 218.46
  C 1064.17 206.92 1063.78 200.17 1074.66 195.65
  C 1083.70 191.90 1091.77 190.09 1101.97 188.65
  Q 1130.74 184.60 1159.22 191.39
  C 1163.95 192.52 1169.86 194.65 1172.38 198.72
  Q 1173.30 200.22 1173.55 202.75
  Q 1175.61 223.77 1176.01 244.88
  Q 1177.22 307.63 1173.08 370.25
  Q 1171.42 395.32 1167.78 418.26
  Q 1166.87 423.97 1164.19 429.62
  A 1.69 1.65 -3.7 0 1 1163.56 430.32
  Q 1159.05 433.06 1156.49 433.54
  Q 1139.08 436.73 1121.44 436.59
  C 1109.72 436.49 1098.89 436.07 1088.95 432.56
  C 1085.20 431.24 1082.20 418.31 1081.42 414.62
  Q 1077.90 397.87 1075.66 380.90
  Z"
/>
<path fill="#f0e1c0" d="
  M 575.98 328.11
  C 575.47 323.55 574.87 318.77 574.96 314.26
  Q 576.24 252.72 623.65 213.90
  C 658.19 185.60 699.80 182.02 741.74 194.30
  Q 778.95 205.19 803.25 235.26
  Q 830.61 269.10 827.53 314.74
  Q 823.48 374.59 779.30 410.32
  C 747.47 436.06 708.77 442.16 669.46 432.48
  C 620.85 420.50 581.65 378.27 575.98 328.11
  Z
  M 670.26 298.48
  C 661.45 318.06 673.17 340.79 693.97 345.21
  Q 706.32 347.83 716.89 342.31
  C 732.07 334.37 739.55 315.34 733.43 299.08
  C 726.43 280.49 699.63 272.62 683.39 283.37
  Q 674.37 289.33 670.26 298.48
  Z"
/>
<path fill="#6d5845" d="
  M 1338.62 189.17
  Q 1345.44 190.06 1351.34 193.23
  C 1357.19 196.37 1361.03 202.21 1364.29 207.94
  Q 1370.54 218.89 1375.44 230.52
  C 1389.20 263.19 1400.80 296.24 1411.67 329.96
  Q 1425.09 371.57 1435.89 413.93
  C 1438.45 424.01 1436.93 431.03 1426.00 434.24
  Q 1419.93 436.03 1405.27 437.46
  Q 1378.95 440.04 1359.00 439.46
  C 1353.69 439.31 1350.06 434.46 1347.54 429.29
  Q 1343.17 420.29 1340.16 410.74
  C 1338.43 405.24 1334.56 394.17 1328.55 390.72
  Q 1326.14 389.33 1321.17 389.28
  Q 1301.04 389.08 1294.51 389.38
  Q 1289.28 389.62 1285.63 393.12
  Q 1283.55 395.12 1280.89 400.93
  Q 1272.90 418.38 1264.85 432.52
  Q 1261.54 438.34 1254.54 438.91
  Q 1245.68 439.64 1236.85 439.49
  C 1225.43 439.30 1214.47 439.00 1203.50 437.32
  Q 1195.73 436.13 1193.09 429.74
  C 1191.41 425.65 1191.91 417.84 1192.40 413.11
  Q 1194.70 390.76 1200.48 362.01
  Q 1214.74 291.08 1237.55 226.74
  Q 1240.91 217.27 1246.90 205.68
  C 1249.58 200.49 1254.23 197.25 1259.49 195.66
  Q 1298.31 183.91 1338.62 189.17
  Z
  M 1286.25 192.72
  C 1277.09 194.15 1255.08 197.63 1250.88 204.70
  C 1246.91 211.39 1242.86 221.12 1239.88 229.62
  Q 1210.90 312.36 1196.90 398.98
  Q 1195.56 407.25 1195.09 421.11
  C 1194.87 427.36 1196.00 432.39 1202.47 433.85
  C 1212.36 436.08 1222.13 436.13 1233.87 436.48
  Q 1244.44 436.80 1255.01 435.74
  C 1260.44 435.20 1263.22 429.45 1265.65 424.70
  Q 1272.60 411.11 1279.23 397.33
  Q 1281.53 392.55 1283.93 390.51
  Q 1288.66 386.50 1295.26 386.35
  Q 1302.80 386.17 1322.13 386.31
  C 1332.64 386.39 1336.45 392.86 1340.18 402.01
  Q 1343.76 410.80 1346.73 419.82
  C 1348.60 425.52 1352.92 436.38 1360.00 436.55
  Q 1382.06 437.07 1411.76 433.65
  C 1417.71 432.97 1428.72 431.75 1432.24 427.03
  C 1434.52 423.97 1434.08 418.20 1433.18 414.75
  Q 1411.91 333.10 1382.77 256.23
  Q 1375.99 238.35 1366.83 219.06
  C 1363.75 212.57 1359.33 204.33 1354.25 199.24
  C 1349.03 194.01 1340.99 192.23 1333.74 191.52
  Q 1309.28 189.11 1286.25 192.72
  Z"
/>
<path fill="#f0e1c0" d="
  M 850.13 350.62
  C 843.45 323.10 848.23 291.37 859.15 265.42
  C 876.31 224.65 913.54 196.33 956.75 189.81
  Q 975.40 186.99 996.31 188.94
  Q 1003.14 189.58 1007.18 191.61
  C 1019.53 197.81 1023.86 211.27 1027.47 223.58
  Q 1030.33 233.36 1031.09 243.50
  C 1031.95 254.96 1028.37 270.86 1013.99 271.52
  Q 999.53 272.19 993.25 272.94
  C 968.63 275.85 939.10 293.69 944.01 322.26
  C 946.68 337.77 959.37 345.10 974.09 345.90
  Q 992.12 346.88 1009.71 343.16
  Q 1015.50 341.93 1018.40 342.39
  C 1027.11 343.79 1033.13 351.80 1036.43 359.29
  Q 1046.21 381.50 1043.82 405.51
  C 1043.17 412.03 1040.16 421.01 1034.65 424.94
  Q 1032.94 426.16 1029.45 427.35
  Q 993.67 439.59 955.26 435.71
  C 906.41 430.77 862.07 399.84 850.13 350.62
  Z"
/>
<path fill="#f0e1c0" d="
  M 1441.14 395.76
  C 1438.75 371.68 1437.39 347.43 1436.66 323.25
  Q 1435.35 279.26 1435.75 235.25
  Q 1435.95 213.60 1437.23 200.24
  C 1437.64 195.94 1444.71 193.41 1449.06 192.49
  Q 1487.42 184.44 1524.50 192.41
  Q 1528.33 193.24 1531.93 196.30
  Q 1532.31 196.62 1532.34 197.11
  Q 1533.41 213.22 1533.65 229.24
  Q 1534.26 269.87 1535.06 310.49
  Q 1535.33 324.58 1535.94 330.01
  C 1536.60 335.92 1546.97 336.27 1551.47 336.27
  Q 1570.33 336.26 1589.13 334.71
  C 1595.01 334.23 1601.54 333.89 1606.26 334.44
  C 1612.20 335.12 1615.01 343.86 1616.37 349.43
  Q 1624.46 382.56 1620.38 416.48
  Q 1619.77 421.53 1617.99 426.27
  C 1616.73 429.62 1614.42 430.67 1610.80 431.17
  Q 1586.67 434.45 1554.60 435.79
  Q 1513.18 437.53 1477.48 434.94
  C 1468.63 434.29 1460.42 433.14 1452.97 430.34
  C 1447.86 428.42 1446.06 423.05 1444.92 418.24
  Q 1442.27 407.14 1441.14 395.76
  Z"
/>
<path fill="#f0e1c0" d="
  M 1286.25 192.72
  Q 1309.28 189.11 1333.74 191.52
  C 1340.99 192.23 1349.03 194.01 1354.25 199.24
  C 1359.33 204.33 1363.75 212.57 1366.83 219.06
  Q 1375.99 238.35 1382.77 256.23
  Q 1411.91 333.10 1433.18 414.75
  C 1434.08 418.20 1434.52 423.97 1432.24 427.03
  C 1428.72 431.75 1417.71 432.97 1411.76 433.65
  Q 1382.06 437.07 1360.00 436.55
  C 1352.92 436.38 1348.60 425.52 1346.73 419.82
  Q 1343.76 410.80 1340.18 402.01
  C 1336.45 392.86 1332.64 386.39 1322.13 386.31
  Q 1302.80 386.17 1295.26 386.35
  Q 1288.66 386.50 1283.93 390.51
  Q 1281.53 392.55 1279.23 397.33
  Q 1272.60 411.11 1265.65 424.70
  C 1263.22 429.45 1260.44 435.20 1255.01 435.74
  Q 1244.44 436.80 1233.87 436.48
  C 1222.13 436.13 1212.36 436.08 1202.47 433.85
  C 1196.00 432.39 1194.87 427.36 1195.09 421.11
  Q 1195.56 407.25 1196.90 398.98
  Q 1210.90 312.36 1239.88 229.62
  C 1242.86 221.12 1246.91 211.39 1250.88 204.70
  C 1255.08 197.63 1277.09 194.15 1286.25 192.72
  Z
  M 1299.70 289.72
  C 1293.64 298.20 1288.11 310.73 1286.52 320.74
  C 1285.07 329.87 1292.71 332.30 1300.00 333.01
  C 1308.38 333.82 1326.47 334.18 1330.59 324.95
  C 1334.07 317.17 1321.19 298.22 1316.58 291.90
  C 1311.72 285.23 1305.66 281.37 1299.70 289.72
  Z"
/>
<path fill="#6d5845" d="
  M 693.97 345.21
  C 673.17 340.79 661.45 318.06 670.26 298.48
  Q 674.37 289.33 683.39 283.37
  C 699.63 272.62 726.43 280.49 733.43 299.08
  C 739.55 315.34 732.07 334.37 716.89 342.31
  Q 706.32 347.83 693.97 345.21
  Z
  M 696.36 281.78
  C 683.93 283.42 673.86 293.88 671.15 305.59
  C 666.98 323.64 679.90 340.76 698.16 342.61
  C 712.24 344.04 725.05 336.38 730.13 323.19
  C 735.83 308.38 731.03 292.20 716.23 285.25
  C 710.11 282.38 703.10 280.89 696.36 281.78
  Z"
/>
<path fill="#6d5845" d="
  M 1286.52 320.74
  C 1288.11 310.73 1293.64 298.20 1299.70 289.72
  C 1305.66 281.37 1311.72 285.23 1316.58 291.90
  C 1321.19 298.22 1334.07 317.17 1330.59 324.95
  C 1326.47 334.18 1308.38 333.82 1300.00 333.01
  C 1292.71 332.30 1285.07 329.87 1286.52 320.74
  Z
  M 1302.81 290.56
  C 1296.43 299.10 1291.81 311.18 1289.77 319.99
  C 1287.99 327.66 1294.61 329.82 1300.51 330.19
  C 1305.69 330.52 1331.82 331.51 1327.90 319.20
  C 1324.93 309.86 1318.75 299.74 1313.25 292.51
  Q 1310.99 289.54 1307.15 287.88
  Q 1306.68 287.68 1306.20 287.89
  Q 1304.11 288.82 1302.81 290.56
  Z"
/>
<path fill="#6d5845" d="
  M 422.99 539.40
  Q 423.00 537.46 422.20 539.23
  L 391.81 607.15
  Q 391.56 607.71 390.95 607.71
  L 381.25 607.72
  Q 380.73 607.72 380.52 607.25
  L 350.05 539.10
  Q 349.47 537.81 349.47 539.22
  L 349.46 607.14
  Q 349.46 607.74 348.86 607.74
  L 336.58 607.71
  Q 336.09 607.71 336.09 607.21
  L 336.08 513.45
  Q 336.08 512.24 337.30 512.24
  L 350.56 512.23
  A 1.72 1.71 -11.8 0 1 352.13 513.25
  L 385.84 588.71
  Q 386.16 589.42 386.47 588.71
  L 420.43 512.94
  A 1.22 1.21 11.9 0 1 421.54 512.22
  L 435.50 512.25
  A 0.50 0.50 0.0 0 1 436.00 512.75
  L 436.00 607.12
  Q 436.00 607.74 435.38 607.73
  L 423.57 607.69
  Q 422.95 607.69 422.95 607.07
  L 422.99 539.40
  Z"
/>
<path fill="#6d5845" d="
  M 595.96 544.91
  L 596.22 512.77
  Q 596.22 512.26 596.73 512.26
  L 607.69 512.29
  Q 608.59 512.29 608.60 513.19
  L 608.74 544.77
  Q 608.74 545.30 609.27 545.30
  L 624.10 545.30
  Q 624.64 545.30 624.64 545.85
  L 624.64 557.27
  Q 624.64 557.94 623.97 557.94
  L 609.25 557.94
  Q 608.68 557.94 608.68 558.51
  Q 608.66 573.97 608.68 589.37
  C 608.69 597.40 617.29 595.09 621.83 593.48
  A 0.57 0.57 0.0 0 1 622.55 593.81
  L 626.68 604.34
  Q 626.90 604.90 626.34 605.12
  Q 619.99 607.64 616.55 607.72
  C 603.57 608.04 595.84 600.46 595.94 587.92
  Q 596.06 573.17 596.03 558.49
  Q 596.03 557.94 595.48 557.94
  L 587.23 557.95
  Q 586.76 557.95 586.76 557.48
  L 586.76 545.77
  Q 586.76 545.30 587.23 545.30
  L 595.58 545.29
  Q 595.95 545.29 595.96 544.91
  Z"
/>
<path fill="#6d5845" d="
  M 1071.73 601.75
  C 1069.67 603.49 1067.51 605.61 1065.08 606.61
  C 1033.46 619.69 1008.12 580.65 1029.34 555.48
  C 1040.05 542.78 1059.06 539.87 1071.65 551.98
  Q 1072.15 552.46 1072.15 551.76
  L 1072.27 512.87
  Q 1072.27 512.25 1072.88 512.26
  L 1084.09 512.31
  A 0.67 0.66 0.4 0 1 1084.75 512.97
  L 1084.78 607.14
  Q 1084.78 607.72 1084.20 607.72
  L 1072.61 607.69
  A 0.56 0.55 -89.0 0 1 1072.06 607.11
  L 1072.27 602.02
  Q 1072.30 601.28 1071.73 601.75
  Z
  M 1066.21 562.53
  C 1053.35 549.39 1033.09 560.81 1034.22 578.09
  C 1034.67 584.94 1038.86 591.93 1045.12 594.90
  C 1056.66 600.39 1069.86 592.81 1071.94 580.23
  C 1072.62 576.11 1070.30 571.47 1069.02 567.52
  Q 1068.00 564.36 1066.21 562.53
  Z"
/>
<path fill="#6d5845" d="
  M 1225.14 538.30
  L 1194.36 607.12
  A 0.99 0.98 12.0 0 1 1193.46 607.70
  L 1184.03 607.73
  Q 1183.27 607.74 1182.97 607.05
  L 1152.91 539.82
  Q 1152.01 537.79 1152.01 540.01
  L 1152.00 607.24
  Q 1152.00 607.72 1151.51 607.72
  L 1139.26 607.72
  Q 1138.66 607.72 1138.66 607.13
  L 1138.67 512.91
  A 0.67 0.66 0.0 0 1 1139.34 512.25
  L 1153.18 512.23
  Q 1154.19 512.23 1154.61 513.15
  L 1188.38 588.70
  A 0.35 0.35 0.0 0 0 1189.02 588.70
  L 1222.95 512.93
  A 1.20 1.20 0.0 0 1 1224.04 512.23
  L 1237.76 512.25
  A 0.76 0.75 90.0 0 1 1238.51 513.01
  L 1238.51 607.35
  A 0.37 0.36 90.0 0 1 1238.15 607.72
  L 1226.00 607.72
  Q 1225.52 607.72 1225.52 607.25
  L 1225.52 538.38
  A 0.20 0.20 0.0 0 0 1225.14 538.30
  Z"
/>
<path fill="#6d5845" d="
  M 1417.14 558.52
  Q 1417.19 574.52 1417.19 590.50
  C 1417.18 594.72 1423.03 595.85 1425.70 594.91
  Q 1428.00 594.11 1430.38 593.58
  Q 1430.93 593.46 1431.13 593.99
  L 1435.17 604.41
  Q 1435.34 604.87 1434.89 605.06
  C 1423.65 609.65 1410.64 608.68 1405.67 596.22
  Q 1404.46 593.17 1404.49 588.15
  Q 1404.58 573.26 1404.50 558.44
  Q 1404.50 557.96 1404.01 557.95
  L 1395.81 557.91
  A 0.59 0.59 0.0 0 1 1395.22 557.31
  L 1395.28 546.01
  Q 1395.28 545.32 1395.97 545.32
  L 1403.98 545.28
  Q 1404.49 545.28 1404.49 544.77
  L 1404.62 512.94
  A 0.69 0.69 0.0 0 1 1405.31 512.26
  L 1416.51 512.25
  Q 1417.15 512.25 1417.15 512.89
  L 1417.16 544.72
  Q 1417.16 545.29 1417.72 545.29
  L 1432.50 545.31
  Q 1433.17 545.32 1433.17 545.99
  L 1433.20 557.24
  A 0.69 0.69 0.0 0 1 1432.51 557.93
  L 1417.71 557.95
  Q 1417.14 557.95 1417.14 558.52
  Z"
/>
<path fill="#6d5845" d="
  M 554.84 581.49
  Q 547.49 580.30 539.17 577.37
  C 528.86 573.73 523.87 564.33 528.50 554.30
  Q 530.83 549.26 535.25 546.57
  C 548.74 538.36 565.94 540.29 576.13 552.47
  A 0.79 0.79 0.0 0 1 575.94 553.65
  L 566.49 559.49
  Q 566.11 559.72 565.77 559.44
  Q 554.64 550.22 542.21 557.13
  Q 538.74 559.06 539.83 563.29
  A 1.09 1.09 0.0 0 0 540.32 563.95
  C 547.22 568.13 557.15 569.02 564.00 570.68
  C 577.84 574.04 584.02 590.59 573.75 601.27
  Q 566.77 608.52 555.28 609.33
  Q 536.62 610.65 525.96 595.75
  Q 525.34 594.88 526.27 594.35
  L 535.69 589.00
  Q 536.13 588.75 536.46 589.14
  Q 546.78 601.18 561.93 594.35
  Q 566.05 592.50 566.37 588.77
  C 566.81 583.75 558.41 582.07 554.84 581.49
  Z"
/>
<path fill="#6d5845" d="
  M 1346.49 545.26
  C 1359.60 538.60 1375.55 541.01 1385.06 552.61
  A 0.67 0.67 0.0 0 1 1384.89 553.60
  L 1375.44 559.42
  Q 1374.99 559.70 1374.59 559.36
  Q 1365.02 551.34 1352.96 556.13
  C 1350.10 557.27 1346.46 561.22 1349.40 564.11
  Q 1351.21 565.89 1357.57 567.30
  C 1363.82 568.68 1371.60 569.49 1377.19 572.48
  C 1392.44 580.67 1390.58 599.58 1375.25 606.23
  C 1360.81 612.50 1343.21 609.19 1334.63 595.21
  Q 1334.37 594.79 1334.80 594.55
  L 1344.63 588.95
  Q 1345.04 588.72 1345.35 589.08
  Q 1356.18 601.65 1371.14 594.39
  Q 1376.93 591.59 1374.43 586.35
  C 1373.29 583.95 1369.23 582.45 1366.73 582.07
  Q 1357.45 580.65 1348.57 577.68
  C 1332.00 572.15 1331.47 552.88 1346.49 545.26
  Z"
/>
<path fill="#6d5845" d="
  M 648.70 581.21
  C 651.96 598.06 672.71 603.23 680.65 586.43
  Q 680.88 585.95 681.37 586.17
  L 691.76 590.85
  A 0.65 0.65 0.0 0 1 692.07 591.73
  Q 687.90 600.10 680.60 604.80
  C 666.15 614.11 647.98 608.21 639.92 593.68
  Q 636.35 587.24 635.73 578.95
  C 634.05 556.63 656.22 535.58 678.74 547.68
  C 690.42 553.96 696.31 566.77 695.11 580.17
  Q 695.07 580.55 694.69 580.55
  L 649.21 580.60
  Q 648.58 580.60 648.70 581.21
  Z
  M 660.78 557.68
  C 656.61 559.03 651.31 563.69 650.05 568.15
  A 0.45 0.45 0.0 0 0 650.48 568.72
  L 680.75 568.71
  Q 681.35 568.71 681.11 568.15
  C 677.62 560.05 669.44 554.89 660.78 557.68
  Z"
/>
<path fill="#6d5845" d="
  M 917.11 601.82
  Q 910.78 608.24 901.75 609.09
  C 886.15 610.57 872.51 600.50 868.35 585.71
  C 862.54 565.04 877.71 544.61 898.92 544.12
  Q 909.00 543.88 916.95 552.04
  A 0.41 0.41 0.0 0 0 917.66 551.75
  L 917.69 545.80
  Q 917.70 545.30 918.20 545.30
  L 929.80 545.30
  Q 930.29 545.30 930.29 545.80
  L 930.30 607.21
  Q 930.30 607.72 929.79 607.72
  L 918.27 607.72
  Q 917.68 607.72 917.68 607.14
  L 917.65 602.04
  Q 917.65 601.27 917.11 601.82
  Z
  M 899.2591 596.6632
  A 19.83 18.93 88.5 0 0 917.6635 576.3445
  A 19.83 18.93 88.5 0 0 898.2209 557.0168
  A 19.83 18.93 88.5 0 0 879.8165 577.3355
  A 19.83 18.93 88.5 0 0 899.2591 596.6632
  Z"
/>
<path fill="#6d5845" d="
  M 1457.17 581.00
  C 1460.36 597.96 1480.90 603.41 1489.04 586.41
  Q 1489.29 585.90 1489.81 586.13
  L 1500.31 590.87
  A 0.54 0.53 -65.6 0 1 1500.57 591.58
  C 1489.03 616.41 1455.50 614.45 1446.30 589.02
  Q 1443.17 580.37 1444.62 570.75
  C 1447.59 551.16 1469.18 536.88 1488.09 548.25
  Q 1504.83 558.31 1503.67 579.95
  A 0.67 0.66 -88.2 0 1 1503.01 580.58
  L 1457.53 580.56
  Q 1457.08 580.56 1457.17 581.00
  Z
  M 1458.69 567.47
  Q 1458.06 568.72 1459.46 568.72
  L 1489.49 568.72
  A 0.26 0.25 77.9 0 0 1489.72 568.36
  C 1483.40 553.57 1466.03 553.04 1458.69 567.47
  Z"
/>
<path fill="#6d5845" d="
  M 1305.86 601.78
  Q 1299.94 608.21 1291.11 609.10
  C 1273.95 610.82 1259.26 599.10 1256.53 582.24
  C 1253.71 564.83 1264.57 548.21 1281.84 544.86
  C 1291.09 543.07 1299.55 545.34 1305.97 552.17
  A 0.30 0.30 0.0 0 0 1306.49 551.97
  L 1306.50 545.77
  Q 1306.50 545.30 1306.98 545.30
  L 1318.44 545.30
  Q 1319.08 545.30 1319.08 545.94
  L 1319.08 607.07
  Q 1319.08 607.72 1318.43 607.72
  L 1307.11 607.72
  A 0.61 0.61 0.0 0 1 1306.50 607.11
  L 1306.49 602.03
  Q 1306.49 601.10 1305.86 601.78
  Z
  M 1288.0542 596.6541
  A 19.82 18.95 88.6 0 0 1306.5143 576.3770
  A 19.82 18.95 88.6 0 0 1287.0858 557.0259
  A 19.82 18.95 88.6 0 0 1268.6257 577.3030
  A 19.82 18.95 88.6 0 0 1288.0542 596.6541
  Z"
/>
<path fill="#6d5845" d="
  M 723.05 550.05
  A 0.43 0.43 0.0 0 0 723.74 550.42
  Q 737.32 540.09 752.50 548.62
  Q 752.88 548.84 752.79 549.27
  L 750.15 561.23
  Q 750.02 561.82 749.50 561.51
  C 742.08 557.06 734.39 555.64 727.65 561.55
  C 723.67 565.05 723.22 572.48 723.17 577.49
  Q 722.98 598.11 723.08 607.12
  Q 723.08 607.70 722.50 607.70
  L 711.39 607.73
  Q 710.80 607.73 710.80 607.14
  L 710.80 546.95
  Q 710.80 546.45 711.30 546.45
  L 722.74 546.47
  Q 723.27 546.47 723.24 546.99
  L 723.05 550.05
  Z"
/>
<path fill="#6d5845" d="
  M 1532.04 550.53
  Q 1545.76 540.10 1560.93 548.57
  Q 1561.38 548.83 1561.27 549.33
  L 1558.69 560.88
  Q 1558.47 561.87 1557.62 561.31
  Q 1546.91 554.26 1536.68 560.88
  C 1532.55 563.56 1531.77 571.90 1531.71 576.50
  Q 1531.51 591.84 1531.49 607.18
  Q 1531.49 607.73 1530.94 607.72
  L 1519.93 607.70
  Q 1519.24 607.70 1519.24 607.00
  L 1519.26 547.09
  Q 1519.26 546.43 1519.92 546.43
  L 1530.97 546.45
  Q 1531.48 546.45 1531.49 546.97
  L 1531.57 550.30
  Q 1531.58 550.88 1532.04 550.53
  Z"
/>
<path fill="#6d5845" d="
  M 484.19 591.22
  L 504.23 545.50
  A 0.34 0.34 0.0 0 1 504.54 545.30
  L 517.51 545.32
  A 0.34 0.34 0.0 0 1 517.82 545.80
  L 478.47 635.76
  A 0.34 0.34 0.0 0 1 478.16 635.96
  L 465.12 635.94
  A 0.34 0.34 0.0 0 1 464.81 635.46
  L 477.05 607.83
  A 0.34 0.34 0.0 0 0 477.05 607.55
  L 449.91 545.79
  A 0.34 0.34 0.0 0 1 450.22 545.31
  L 463.85 545.29
  A 0.34 0.34 0.0 0 1 464.17 545.50
  L 483.56 591.21
  A 0.34 0.34 0.0 0 0 484.19 591.22
  Z"
/>
<path fill="#6d5845" d="
  M 792.04 591.28
  L 812.10 545.50
  A 0.31 0.31 0.0 0 1 812.38 545.31
  L 825.44 545.28
  A 0.31 0.31 0.0 0 1 825.73 545.72
  L 786.33 635.78
  A 0.31 0.31 0.0 0 1 786.05 635.97
  L 772.94 635.92
  A 0.31 0.31 0.0 0 1 772.66 635.49
  L 784.94 607.83
  A 0.31 0.31 0.0 0 0 784.94 607.57
  L 757.74 545.73
  A 0.31 0.31 0.0 0 1 758.03 545.29
  L 771.76 545.32
  A 0.31 0.31 0.0 0 1 772.04 545.51
  L 791.47 591.28
  A 0.31 0.31 0.0 0 0 792.04 591.28
  Z"
/>
<path fill="#6d5845" d="
  M 963.30 548.84
  C 966.34 547.70 969.49 546.31 972.44 545.78
  C 984.86 543.56 999.39 547.94 1003.94 560.54
  Q 1005.33 564.39 1005.32 572.09
  Q 1005.30 589.64 1005.30 607.16
  Q 1005.30 607.71 1004.75 607.71
  L 993.55 607.72
  Q 993.08 607.72 993.08 607.25
  Q 993.02 588.34 992.86 569.50
  Q 992.78 560.23 984.02 558.41
  C 978.03 557.16 966.93 557.16 963.75 563.67
  Q 962.52 566.18 962.54 572.97
  Q 962.59 590.07 962.55 607.13
  Q 962.55 607.72 961.97 607.72
  L 950.73 607.72
  Q 949.99 607.72 949.99 606.98
  L 949.99 546.23
  A 0.54 0.54 0.0 0 1 950.53 545.69
  L 962.01 545.69
  Q 962.57 545.69 962.57 546.26
  L 962.56 548.33
  Q 962.56 549.12 963.30 548.84
  Z"
/>
<path fill="#6d5845" d="
  M 1600.56 591.23
  L 1620.57 545.51
  A 0.35 0.35 0.0 0 1 1620.89 545.30
  L 1633.86 545.29
  A 0.35 0.35 0.0 0 1 1634.19 545.78
  L 1594.81 635.76
  A 0.35 0.35 0.0 0 1 1594.49 635.97
  L 1581.51 635.92
  A 0.35 0.35 0.0 0 1 1581.19 635.43
  L 1593.40 607.80
  A 0.35 0.35 0.0 0 0 1593.40 607.52
  L 1566.26 545.80
  A 0.35 0.35 0.0 0 1 1566.58 545.31
  L 1580.21 545.29
  A 0.35 0.35 0.0 0 1 1580.53 545.50
  L 1599.91 591.22
  A 0.35 0.35 0.0 0 0 1600.56 591.23
  Z"
/>
<circle fill="#6d5845" cx="1657.03" cy="553.55" r="8.23"/>
<circle fill="#6d5845" cx="1657.05" cy="599.52" r="8.24"/>
<path fill="#6d5845" d="
  M 1438.97 766.68
  C 1421.26 773.06 1401.91 765.93 1394.24 748.45
  Q 1394.02 747.95 1394.52 747.72
  L 1404.92 742.90
  Q 1405.37 742.69 1405.59 743.13
  Q 1413.15 758.45 1430.42 756.08
  C 1440.05 754.76 1448.16 745.65 1444.46 735.71
  C 1442.16 729.53 1436.42 727.35 1430.28 726.23
  Q 1417.74 723.92 1407.99 718.84
  C 1392.45 710.74 1392.58 690.49 1404.50 679.47
  Q 1410.96 673.49 1420.53 672.08
  Q 1443.20 668.75 1455.22 687.38
  A 0.68 0.68 0.0 0 1 1454.95 688.36
  L 1444.74 693.45
  Q 1444.20 693.72 1443.86 693.23
  C 1437.52 684.04 1426.78 681.46 1417.25 686.06
  Q 1412.83 688.19 1410.71 691.52
  C 1407.88 695.96 1407.27 702.81 1412.08 706.41
  C 1421.52 713.47 1434.90 712.23 1445.05 718.04
  C 1465.81 729.90 1459.96 759.11 1438.97 766.68
  Z"
/>
<path fill="#6d5845" d="
  M 173.11 742.88
  L 197.95 672.60
  A 0.34 0.34 0.0 0 1 198.27 672.37
  L 206.42 672.36
  A 0.34 0.34 0.0 0 1 206.74 672.59
  L 231.69 742.77
  A 0.34 0.34 0.0 0 0 232.34 742.74
  L 251.81 672.59
  A 0.34 0.34 0.0 0 1 252.14 672.34
  L 265.13 672.34
  A 0.34 0.34 0.0 0 1 265.46 672.77
  L 238.43 767.61
  A 0.34 0.34 0.0 0 1 238.10 767.86
  L 227.45 767.76
  A 0.34 0.34 0.0 0 1 227.13 767.54
  L 202.72 698.60
  A 0.34 0.34 0.0 0 0 202.08 698.60
  L 177.55 767.62
  A 0.34 0.34 0.0 0 1 177.23 767.85
  L 166.75 767.82
  A 0.34 0.34 0.0 0 1 166.42 767.57
  L 139.28 672.79
  A 0.34 0.34 0.0 0 1 139.61 672.36
  L 152.55 672.34
  A 0.34 0.34 0.0 0 1 152.88 672.59
  L 172.46 742.86
  A 0.34 0.34 0.0 0 0 173.11 742.88
  Z"
/>
<path fill="#6d5845" d="
  M 293.22 709.10
  Q 305.77 702.97 318.49 706.67
  Q 330.18 710.07 334.04 720.88
  Q 335.36 724.57 335.35 731.27
  Q 335.33 749.29 335.32 767.29
  A 0.57 0.56 -0.0 0 1 334.75 767.85
  L 323.96 767.80
  Q 323.10 767.80 323.10 766.94
  Q 323.10 750.96 323.09 734.99
  C 323.09 725.83 322.49 719.31 312.26 718.26
  C 303.74 717.40 292.47 717.76 292.61 729.49
  Q 292.75 740.82 292.57 767.27
  Q 292.57 767.83 292.01 767.83
  L 281.09 767.79
  Q 280.00 767.79 280.00 766.71
  L 280.00 672.79
  Q 280.00 672.34 280.46 672.34
  L 292.05 672.35
  A 0.57 0.57 0.0 0 1 292.62 672.92
  L 292.64 708.74
  Q 292.64 709.39 293.22 709.10
  Z"
/>
<path fill="#6d5845" d="
  M 633.08 748.78
  L 667.08 672.89
  Q 667.33 672.35 667.92 672.35
  L 682.12 672.32
  A 0.43 0.43 0.0 0 1 682.55 672.75
  L 682.55 767.14
  Q 682.55 767.82 681.87 767.81
  L 670.49 767.76
  Q 669.60 767.75 669.59 766.86
  L 669.57 699.10
  Q 669.57 697.58 668.95 698.97
  L 638.51 767.00
  Q 638.13 767.87 637.18 767.86
  L 627.78 767.77
  Q 627.30 767.76 627.11 767.33
  L 596.49 698.87
  A 0.25 0.25 0.0 0 0 596.02 698.97
  L 596.08 767.23
  Q 596.08 767.80 595.52 767.80
  L 583.36 767.76
  Q 582.72 767.75 582.72 767.11
  L 582.70 672.82
  A 0.48 0.48 0.0 0 1 583.18 672.34
  L 597.74 672.35
  A 0.79 0.79 0.0 0 1 598.46 672.81
  L 632.43 748.78
  Q 632.76 749.50 633.08 748.78
  Z"
/>
<ellipse fill="#6d5845" cx="0.00" cy="0.00" transform="translate(866.21,680.69) rotate(80.7)" rx="8.27" ry="8.16"/>
<path fill="#6d5845" d="
  M 1081.57 698.93
  L 1051.12 766.99
  Q 1050.74 767.82 1049.83 767.82
  L 1040.88 767.85
  A 1.47 1.47 0.0 0 1 1039.54 766.98
  L 1009.19 699.09
  Q 1008.64 697.87 1008.64 699.20
  L 1008.63 766.97
  Q 1008.63 767.81 1007.78 767.81
  L 996.15 767.79
  Q 995.27 767.78 995.27 766.90
  L 995.27 673.04
  A 0.69 0.69 0.0 0 1 995.96 672.35
  L 1010.00 672.34
  A 1.32 1.31 77.8 0 1 1011.20 673.12
  L 1045.11 748.99
  A 0.26 0.26 0.0 0 0 1045.59 748.99
  L 1079.77 672.71
  Q 1079.94 672.33 1080.36 672.33
  L 1094.54 672.37
  A 0.67 0.67 0.0 0 1 1095.21 673.04
  L 1095.22 766.94
  Q 1095.22 767.84 1094.32 767.84
  L 1082.89 767.81
  Q 1082.21 767.81 1082.21 767.14
  L 1082.21 699.07
  Q 1082.21 697.51 1081.57 698.93
  Z"
/>
<path fill="#6d5845" d="
  M 1256.74 704.85
  L 1256.74 672.80
  A 0.46 0.46 0.0 0 1 1257.20 672.34
  L 1268.71 672.35
  Q 1269.32 672.35 1269.32 672.96
  L 1269.32 704.75
  Q 1269.32 705.43 1270.00 705.43
  L 1284.71 705.37
  A 0.59 0.59 0.0 0 1 1285.30 705.96
  L 1285.27 717.51
  Q 1285.27 718.04 1284.74 718.04
  L 1269.98 718.04
  Q 1269.36 718.04 1269.36 718.65
  Q 1269.24 733.99 1269.32 749.31
  C 1269.36 757.78 1277.95 754.98 1282.62 753.65
  Q 1283.11 753.51 1283.30 753.99
  L 1287.34 764.45
  Q 1287.51 764.88 1287.08 765.09
  C 1276.61 769.99 1262.69 768.44 1258.01 756.89
  Q 1256.72 753.71 1256.74 747.99
  Q 1256.79 733.18 1256.71 718.43
  Q 1256.71 718.01 1256.29 718.02
  L 1248.09 718.20
  Q 1247.48 718.21 1247.48 717.59
  L 1247.47 705.99
  A 0.55 0.55 0.0 0 1 1248.02 705.44
  L 1256.15 705.44
  Q 1256.74 705.44 1256.74 704.85
  Z"
/>
<circle fill="#6d5845" cx="1622.71" cy="680.68" r="8.21"/>
<path fill="#6d5845" d="
  M 1720.02 718.01
  L 1711.98 718.18
  Q 1711.31 718.19 1711.30 717.52
  L 1711.26 705.97
  Q 1711.26 705.44 1711.78 705.44
  L 1719.93 705.44
  Q 1720.55 705.44 1720.55 704.82
  L 1720.66 672.95
  Q 1720.66 672.31 1721.30 672.32
  L 1732.60 672.44
  Q 1733.25 672.45 1733.25 673.10
  L 1733.17 704.52
  Q 1733.17 705.37 1734.02 705.37
  L 1748.55 705.42
  Q 1749.17 705.42 1749.17 706.05
  L 1749.16 717.46
  Q 1749.15 718.06 1748.55 718.06
  L 1733.84 718.00
  A 0.66 0.65 -0.4 0 0 1733.18 718.66
  L 1733.24 751.53
  A 1.75 1.74 -64.6 0 0 1733.63 752.63
  C 1736.81 756.48 1742.16 755.50 1746.06 753.56
  A 0.76 0.76 0.0 0 1 1747.10 753.96
  L 1751.18 764.36
  Q 1751.36 764.80 1750.93 765.01
  Q 1739.40 770.72 1729.26 765.07
  C 1723.61 761.93 1720.47 756.37 1720.51 750.02
  Q 1720.63 729.64 1720.53 718.50
  Q 1720.53 718.00 1720.02 718.01
  Z"
/>
<path fill="#6d5845" d="
  M 1330.25 756.06
  Q 1332.66 755.41 1334.82 753.89
  C 1338.95 751.00 1339.32 745.82 1334.08 743.62
  Q 1329.69 741.77 1323.29 740.77
  Q 1313.45 739.24 1306.73 735.62
  C 1295.40 729.52 1296.52 713.44 1306.54 707.00
  C 1319.86 698.45 1337.24 700.22 1347.77 712.48
  A 0.86 0.86 0.0 0 1 1347.57 713.77
  L 1338.22 719.61
  A 0.99 0.99 0.0 0 1 1336.97 719.43
  C 1332.30 714.21 1323.22 713.47 1317.17 715.63
  C 1313.63 716.89 1309.37 720.28 1312.12 724.21
  A 1.60 1.60 0.0 0 0 1312.83 724.78
  Q 1320.61 728.04 1331.01 729.54
  Q 1336.01 730.26 1340.77 732.95
  C 1354.62 740.79 1353.30 758.11 1340.01 765.42
  C 1325.84 773.22 1306.09 769.56 1297.53 755.38
  Q 1297.26 754.94 1297.70 754.69
  L 1307.38 749.08
  Q 1307.89 748.78 1308.27 749.24
  Q 1316.87 759.69 1330.25 756.06
  Z"
/>
<path fill="#6d5845" d="
  M 362.43 741.14
  C 365.38 758.10 386.21 763.47 394.28 746.49
  A 0.55 0.55 0.0 0 1 395.01 746.22
  L 405.49 751.03
  Q 406.03 751.28 405.76 751.81
  C 394.57 774.06 366.48 775.63 353.64 753.84
  Q 347.87 744.06 349.60 732.05
  C 352.58 711.34 375.15 695.90 394.36 708.97
  Q 410.25 719.78 408.82 740.16
  A 0.58 0.58 0.0 0 1 408.24 740.70
  L 362.79 740.71
  Q 362.35 740.71 362.43 741.14
  Z
  M 394.81 728.34
  C 388.76 713.50 369.99 713.19 363.66 728.25
  Q 363.43 728.80 364.02 728.80
  L 394.50 728.79
  A 0.33 0.33 0.0 0 0 394.81 728.34
  Z"
/>
<path fill="#6d5845" d="
  M 486.41 741.19
  C 489.58 758.11 509.95 763.39 518.29 746.61
  Q 518.59 746.01 519.20 746.29
  L 529.50 751.02
  Q 530.01 751.25 529.77 751.77
  C 520.68 770.90 497.13 775.56 482.34 760.14
  C 472.93 750.34 470.99 735.16 476.27 722.91
  C 482.86 707.61 501.32 698.94 516.69 707.83
  Q 530.38 715.75 532.66 731.76
  C 533.01 734.23 532.89 737.11 532.94 739.75
  A 0.94 0.94 0.0 0 1 532.00 740.70
  L 486.81 740.70
  Q 486.32 740.70 486.41 741.19
  Z
  M 508.60 718.13
  C 499.68 714.61 491.17 720.06 487.69 728.24
  Q 487.46 728.79 488.06 728.79
  L 518.50 728.79
  Q 519.03 728.79 518.83 728.30
  Q 515.84 720.99 508.60 718.13
  Z"
/>
<path fill="#6d5845" d="
  M 749.99 761.84
  C 743.08 769.20 732.32 770.93 723.12 768.24
  C 701.64 761.96 693.02 735.11 706.43 717.30
  C 716.70 703.65 737.11 698.90 749.97 712.21
  Q 750.53 712.79 750.53 711.99
  L 750.54 706.07
  Q 750.54 705.43 751.18 705.43
  L 762.68 705.41
  Q 763.20 705.41 763.20 705.93
  L 763.18 767.21
  A 0.65 0.65 0.0 0 1 762.53 767.86
  L 751.15 767.79
  Q 750.58 767.79 750.57 767.22
  L 750.51 762.04
  Q 750.50 761.30 749.99 761.84
  Z
  M 732.1145 756.7641
  A 19.83 18.93 88.6 0 0 750.5543 736.4775
  A 19.83 18.93 88.6 0 0 731.1455 717.1159
  A 19.83 18.93 88.6 0 0 712.7057 737.4025
  A 19.83 18.93 88.6 0 0 732.1145 756.7641
  Z"
/>
<path fill="#6d5845" d="
  M 894.17 719.42
  C 906.11 699.70 933.63 699.57 946.22 718.27
  Q 946.48 718.67 946.08 718.93
  L 936.44 725.28
  A 0.42 0.42 0.0 0 1 935.86 725.18
  C 924.88 710.51 904.11 716.87 901.70 734.41
  C 899.00 754.03 923.76 765.62 935.95 748.46
  Q 936.27 748.01 936.72 748.32
  L 946.24 754.71
  A 0.64 0.62 35.3 0 1 946.40 755.60
  Q 940.75 763.30 932.54 766.88
  C 912.00 775.83 890.20 760.24 889.01 738.85
  Q 888.45 728.86 894.17 719.42
  Z"
/>
<path fill="#6d5845" d="
  M 1123.74 741.30
  C 1126.85 758.25 1147.26 763.23 1155.64 746.57
  Q 1155.91 746.04 1156.45 746.28
  L 1166.77 751.00
  Q 1167.29 751.24 1167.04 751.75
  C 1153.61 779.40 1116.39 772.57 1111.15 743.42
  Q 1109.42 733.77 1112.98 724.33
  C 1117.38 712.64 1129.19 703.53 1142.14 704.27
  Q 1148.99 704.66 1154.44 708.04
  Q 1171.70 718.74 1170.07 740.19
  Q 1170.03 740.70 1169.52 740.70
  L 1124.24 740.70
  Q 1123.63 740.70 1123.74 741.30
  Z
  M 1134.88 718.13
  Q 1128.16 720.54 1125.02 728.41
  Q 1124.87 728.79 1125.27 728.79
  L 1156.02 728.79
  A 0.35 0.35 0.0 0 0 1156.33 728.28
  C 1152.02 719.99 1144.55 714.64 1134.88 718.13
  Z"
/>
<path fill="#6d5845" d="
  M 1193.18 741.13
  C 1196.30 757.93 1217.07 763.64 1225.01 746.58
  Q 1225.26 746.04 1225.82 746.28
  L 1236.18 750.95
  Q 1236.68 751.17 1236.45 751.67
  C 1223.03 779.94 1184.81 772.25 1180.50 742.31
  C 1178.66 729.45 1183.23 717.29 1193.84 709.57
  C 1206.71 700.20 1223.94 703.93 1233.15 716.34
  Q 1240.86 726.74 1239.49 740.25
  Q 1239.45 740.70 1238.99 740.70
  L 1193.54 740.70
  Q 1193.11 740.70 1193.18 741.13
  Z
  M 1196.63 724.38
  Q 1195.06 726.32 1194.43 728.33
  Q 1194.28 728.80 1194.77 728.80
  L 1225.26 728.79
  A 0.48 0.48 0.0 0 0 1225.67 728.06
  C 1223.81 724.92 1221.65 721.48 1218.45 719.64
  Q 1206.10 712.56 1196.63 724.38
  Z"
/>
<path fill="#6d5845" d="
  M 1500.0966 769.3898
  A 32.48 31.52 90.2 0 1 1468.6902 736.8000
  A 32.48 31.52 90.2 0 1 1500.3234 704.4302
  A 32.48 31.52 90.2 0 1 1531.7298 737.0200
  A 32.48 31.52 90.2 0 1 1500.0966 769.3898
  Z
  M 1500.4082 756.8289
  A 19.88 18.98 89.4 0 0 1519.1790 736.7512
  A 19.88 18.98 89.4 0 0 1499.9918 717.0711
  A 19.88 18.98 89.4 0 0 1481.2210 737.1488
  A 19.88 18.98 89.4 0 0 1500.4082 756.8289
  Z"
/>
<path fill="#6d5845" d="
  M 1558.65 709.25
  C 1572.86 700.45 1591.31 703.97 1600.95 718.14
  Q 1601.28 718.63 1600.79 718.95
  L 1591.41 725.17
  Q 1590.98 725.45 1590.59 725.12
  Q 1589.68 724.34 1588.96 723.55
  Q 1582.54 716.48 1574.07 717.09
  C 1557.70 718.27 1550.55 738.70 1561.38 750.48
  Q 1567.33 756.96 1575.62 756.69
  Q 1583.94 756.41 1590.93 748.61
  A 0.63 0.62 37.6 0 1 1591.75 748.51
  L 1601.04 754.75
  A 0.52 0.52 0.0 0 1 1601.17 755.49
  C 1588.88 772.45 1565.03 774.56 1551.28 758.05
  C 1538.94 743.23 1541.97 719.58 1558.65 709.25
  Z"
/>
<path fill="#6d5845" d="
  M 1656.96 741.12
  C 1660.42 758.12 1680.75 763.54 1688.95 746.46
  Q 1689.17 746.00 1689.63 746.21
  L 1700.03 750.98
  Q 1700.54 751.22 1700.30 751.73
  C 1693.54 765.58 1678.83 773.13 1664.07 767.66
  C 1650.34 762.58 1642.58 747.50 1644.05 733.48
  Q 1645.62 718.61 1657.34 709.83
  C 1671.22 699.44 1689.83 704.49 1698.58 718.70
  Q 1704.52 728.34 1703.38 740.15
  Q 1703.33 740.70 1702.77 740.70
  L 1657.31 740.71
  Q 1656.88 740.71 1656.96 741.12
  Z
  M 1689.37 728.24
  C 1683.21 713.49 1664.65 713.24 1658.33 728.19
  Q 1658.08 728.79 1658.73 728.79
  L 1689.00 728.80
  Q 1689.61 728.80 1689.37 728.24
  Z"
/>
<path fill="#6d5845" d="
  M 831.98 718.08
  C 839.79 733.44 829.02 748.82 813.52 751.64
  Q 804.93 753.20 797.08 749.96
  A 1.47 1.47 0.0 0 0 795.53 752.41
  Q 796.88 753.62 799.44 753.82
  Q 809.32 754.59 819.24 754.52
  Q 823.33 754.50 829.90 757.30
  C 839.72 761.50 845.01 772.50 839.10 782.18
  C 829.44 798.01 805.23 799.09 790.41 791.30
  C 778.08 784.82 775.23 771.51 785.21 760.64
  Q 785.54 760.28 785.34 759.83
  Q 781.81 751.88 787.00 744.81
  A 1.32 1.31 43.4 0 0 786.95 743.20
  Q 775.97 729.77 785.61 715.39
  Q 789.90 708.99 799.02 706.31
  Q 810.96 702.80 821.93 708.25
  Q 822.41 708.49 822.83 708.16
  Q 828.35 703.81 835.45 704.83
  Q 836.01 704.91 836.01 705.47
  L 836.01 716.75
  Q 836.01 717.25 835.50 717.26
  L 832.46 717.29
  A 0.54 0.54 0.0 0 0 831.98 718.08
  Z
  M 822.12 728.46
  A 14.17 11.04 0.0 0 0 807.95 717.42
  A 14.17 11.04 0.0 0 0 793.78 728.46
  A 14.17 11.04 0.0 0 0 807.95 739.50
  A 14.17 11.04 0.0 0 0 822.12 728.46
  Z
  M 796.37 767.12
  C 794.03 768.90 791.92 770.56 791.60 773.56
  Q 791.22 777.23 794.58 779.24
  Q 807.15 786.71 821.73 781.17
  C 824.95 779.95 830.84 775.59 828.63 771.89
  C 824.72 765.34 812.00 767.28 805.40 766.90
  Q 801.71 766.70 798.03 766.40
  Q 797.39 766.35 796.37 767.12
  Z"
/>
<path fill="#6d5845" d="
  M 437.34 710.59
  C 438.45 710.13 439.22 709.00 440.18 708.47
  Q 452.74 701.46 466.03 708.55
  A 0.87 0.85 20.5 0 1 466.47 709.49
  L 463.89 720.99
  A 0.74 0.74 0.0 0 1 462.74 721.43
  C 453.61 714.87 438.65 716.88 437.50 730.23
  C 437.29 732.59 436.81 735.17 436.79 737.43
  Q 436.69 752.14 436.75 766.91
  Q 436.76 767.83 435.84 767.83
  L 425.37 767.75
  Q 424.50 767.75 424.50 766.87
  L 424.50 707.00
  A 0.50 0.50 0.0 0 1 425.00 706.50
  L 436.26 706.51
  Q 436.75 706.51 436.75 707.01
  L 436.73 710.18
  Q 436.73 710.84 437.34 710.59
  Z"
/>
<rect fill="#6d5845" x="1616.24" y="705.43" width="12.56" height="62.40" rx="0.44"/>
<path fill="#6d5845" d="
  M 1792.53 751.33
  L 1812.56 705.64
  A 0.34 0.34 0.0 0 1 1812.87 705.44
  L 1825.85 705.45
  A 0.34 0.34 0.0 0 1 1826.16 705.93
  L 1786.78 795.91
  A 0.34 0.34 0.0 0 1 1786.47 796.11
  L 1773.48 796.06
  A 0.34 0.34 0.0 0 1 1773.17 795.58
  L 1785.39 767.93
  A 0.34 0.34 0.0 0 0 1785.39 767.65
  L 1758.27 705.91
  A 0.34 0.34 0.0 0 1 1758.58 705.43
  L 1772.23 705.44
  A 0.34 0.34 0.0 0 1 1772.55 705.65
  L 1791.90 751.32
  A 0.34 0.34 0.0 0 0 1792.53 751.33
  Z"
/>
<rect fill="#6d5845" x="859.72" y="705.44" width="12.60" height="62.38" rx="0.44"/>
<ellipse fill="#6d5845" cx="0.00" cy="0.00" transform="translate(1846.67,759.64) rotate(92.2)" rx="8.24" ry="8.12"/>
</svg>
