<?xml version="1.0" encoding="UTF-8" standalone="no"?>
<!DOCTYPE svg PUBLIC "-//W3C//DTD SVG 1.1//EN" "http://www.w3.org/Graphics/SVG/1.1/DTD/svg11.dtd">
<svg xmlns="http://www.w3.org/2000/svg" version="1.1" viewBox="0.00 0.00 1931.00 1086.00">
<g stroke-width="2.00" fill="none" stroke-linecap="butt">
<path stroke="#af5940" vector-effect="non-scaling-stroke" d="
  M 0.00 40.38
  Q 0.85 40.30 1.24 40.46
  Q 56.18 62.62 109.18 89.08
  Q 203.15 135.99 292.11 191.81
  Q 292.51 192.07 292.80 191.69
  L 300.85 181.21
  Q 301.12 180.86 300.98 180.43
  L 297.15 168.69
  A 1.46 1.45 -82.7 0 0 296.56 167.92
  Q 221.28 118.09 143.13 72.90
  C 107.80 52.48 71.72 32.94 34.25 16.70
  Q 17.79 9.57 0.65 4.32
  A 0.43 0.42 25.6 0 1 0.42 3.68
  L 0.80 3.11"
/>
<path stroke="#b3823f" vector-effect="non-scaling-stroke" d="
  M 0.80 3.11
  Q 27.85 11.81 52.58 23.63
  Q 101.00 46.78 148.97 74.75
  Q 223.65 118.30 295.68 166.01
  A 0.29 0.29 0.0 0 0 296.12 165.68
  L 288.15 141.24
  A 0.33 0.33 0.0 0 1 288.57 140.83
  L 308.25 147.78
  A 0.19 0.19 0.0 0 0 308.43 147.46
  Q 266.12 111.05 220.96 78.00
  Q 179.86 47.91 136.47 23.80
  Q 112.79 10.63 86.42 1.60
  Q 83.44 0.57 80.20 0.58
  Q 40.10 0.65 0.00 0.50"
/>
<path stroke="#657c6f" vector-effect="non-scaling-stroke" d="
  M 334.98 139.10
  Q 291.28 99.13 244.68 62.57
  C 216.31 40.30 185.07 17.77 152.28 1.38
  C 150.95 0.71 149.27 0.59 148.00 0.59
  Q 119.62 0.81 90.67 0.39
  A 0.73 0.72 55.1 0 0 90.42 1.80
  Q 113.61 10.04 135.77 22.22
  Q 174.75 43.67 210.98 69.51
  Q 262.37 106.18 310.18 147.42
  C 314.27 150.94 322.17 152.68 327.35 154.54
  A 1.08 1.07 -52.9 0 0 328.34 154.40
  L 340.97 145.25
  Q 341.46 144.89 341.02 144.46
  C 339.07 142.58 336.39 140.39 334.98 139.10"
/>
<path stroke="#b48d4f" vector-effect="non-scaling-stroke" d="
  M 317.90 213.37
  A 0.45 0.45 0.0 0 1 318.27 213.57
  L 340.91 246.44
  A 0.45 0.45 0.0 0 0 341.71 246.32
  L 353.88 208.48
  A 0.45 0.45 0.0 0 1 354.18 208.18
  L 392.30 196.85
  A 0.45 0.45 0.0 0 0 392.44 196.05
  L 360.25 172.76
  A 0.45 0.45 0.0 0 1 360.07 172.38
  L 361.15 132.56
  A 0.45 0.45 0.0 0 0 360.43 132.19
  L 328.33 155.86
  A 0.45 0.45 0.0 0 1 327.92 155.92
  L 290.61 142.75
  A 0.45 0.45 0.0 0 0 290.03 143.32
  L 302.27 180.95
  A 0.45 0.45 0.0 0 1 302.19 181.37
  L 277.92 212.69
  A 0.45 0.45 0.0 0 0 278.28 213.42
  L 317.90 213.37"
/>
<path stroke="#b3823f" vector-effect="non-scaling-stroke" d="
  M 1931.00 0.49
  Q 1891.02 0.66 1850.95 0.60
  Q 1847.65 0.60 1844.63 1.62
  C 1804.17 15.34 1765.59 39.27 1731.05 63.32
  Q 1674.67 102.58 1622.34 147.59
  A 0.17 0.17 0.0 0 0 1622.51 147.88
  L 1642.46 140.81
  A 0.33 0.33 0.0 0 1 1642.88 141.22
  L 1634.89 165.61
  A 0.31 0.31 0.0 0 0 1635.35 165.96
  C 1701.47 122.26 1769.35 80.28 1839.32 43.02
  Q 1874.95 24.05 1909.19 10.36
  Q 1917.96 6.85 1931.00 3.01"
/>
<path stroke="#af5940" vector-effect="non-scaling-stroke" d="
  M 1931.00 4.03
  C 1892.62 16.32 1852.08 36.77 1817.07 56.30
  Q 1725.99 107.10 1634.50 167.97
  A 1.61 1.60 82.0 0 0 1633.87 168.81
  L 1630.11 180.25
  Q 1629.90 180.89 1630.31 181.42
  L 1638.15 191.61
  Q 1638.48 192.04 1638.94 191.75
  Q 1716.02 143.49 1799.77 100.28
  Q 1865.30 66.47 1931.00 39.93"
/>
<path stroke="#657c6f" vector-effect="non-scaling-stroke" d="
  M 1840.24 1.84
  Q 1843.23 0.49 1839.95 0.50
  L 1780.89 0.71
  A 4.83 4.78 -58.6 0 0 1778.66 1.26
  Q 1747.94 17.10 1719.29 38.01
  Q 1651.60 87.41 1590.14 144.47
  A 0.57 0.56 -48.6 0 0 1590.19 145.34
  L 1602.72 154.43
  Q 1603.14 154.73 1603.62 154.56
  Q 1609.90 152.40 1616.16 150.12
  Q 1618.84 149.15 1621.05 147.25
  Q 1670.28 104.79 1725.26 66.01
  C 1756.48 43.98 1788.93 23.73 1823.27 8.52
  C 1827.86 6.49 1834.84 4.27 1840.24 1.84"
/>
<path stroke="#b48d4f" vector-effect="non-scaling-stroke" d="
  M 1538.48 196.17
  A 0.39 0.39 0.0 0 0 1538.60 196.85
  L 1576.79 208.17
  A 0.39 0.39 0.0 0 1 1577.05 208.43
  L 1589.35 246.44
  A 0.39 0.39 0.0 0 0 1590.04 246.54
  L 1612.66 213.67
  A 0.39 0.39 0.0 0 1 1612.98 213.50
  L 1652.86 213.46
  A 0.39 0.39 0.0 0 0 1653.16 212.83
  L 1628.78 181.31
  A 0.39 0.39 0.0 0 1 1628.71 180.95
  L 1640.99 143.22
  A 0.39 0.39 0.0 0 0 1640.49 142.73
  L 1603.05 155.93
  A 0.39 0.39 0.0 0 1 1602.69 155.88
  L 1570.44 132.08
  A 0.39 0.39 0.0 0 0 1569.82 132.41
  L 1570.91 172.41
  A 0.39 0.39 0.0 0 1 1570.75 172.74
  L 1538.48 196.17"
/>
<path stroke="#f2813b" vector-effect="non-scaling-stroke" d="
  M 0.80 3.11
  Q 0.70 3.40 0.00 3.12"
/>
</g>
<path fill="#6f5944" d="
  M 0.00 0.00
  L 152.04 0.00
  Q 184.90 16.71 214.77 38.69
  Q 281.31 87.67 341.79 143.89
  A 0.95 0.94 -41.6 0 0 342.99 143.96
  L 361.41 130.56
  Q 361.91 130.19 361.90 130.81
  L 360.86 171.50
  A 1.35 1.34 -71.4 0 0 361.40 172.60
  L 394.30 196.45
  A 0.37 0.37 0.0 0 1 394.19 197.11
  L 355.27 208.70
  Q 354.60 208.90 354.39 209.55
  L 341.83 248.29
  A 0.31 0.30 -53.8 0 1 341.29 248.38
  L 318.08 214.70
  A 1.00 0.99 72.0 0 0 317.27 214.28
  L 276.49 214.28
  Q 275.76 214.28 276.21 213.69
  L 291.61 193.58
  A 0.62 0.61 -55.9 0 0 291.44 192.69
  C 198.86 134.64 101.38 82.21 0.00 41.06
  L 0.00 40.38
  Q 0.85 40.30 1.24 40.46
  Q 56.18 62.62 109.18 89.08
  Q 203.15 135.99 292.11 191.81
  Q 292.51 192.07 292.80 191.69
  L 300.85 181.21
  Q 301.12 180.86 300.98 180.43
  L 297.15 168.69
  A 1.46 1.45 -82.7 0 0 296.56 167.92
  Q 221.28 118.09 143.13 72.90
  C 107.80 52.48 71.72 32.94 34.25 16.70
  Q 17.79 9.57 0.65 4.32
  A 0.43 0.42 25.6 0 1 0.42 3.68
  L 0.80 3.11
  Q 27.85 11.81 52.58 23.63
  Q 101.00 46.78 148.97 74.75
  Q 223.65 118.30 295.68 166.01
  A 0.29 0.29 0.0 0 0 296.12 165.68
  L 288.15 141.24
  A 0.33 0.33 0.0 0 1 288.57 140.83
  L 308.25 147.78
  A 0.19 0.19 0.0 0 0 308.43 147.46
  Q 266.12 111.05 220.96 78.00
  Q 179.86 47.91 136.47 23.80
  Q 112.79 10.63 86.42 1.60
  Q 83.44 0.57 80.20 0.58
  Q 40.10 0.65 0.00 0.50
  Q 0.00 0.25 0.00 0.00
  Z
  M 334.98 139.10
  Q 291.28 99.13 244.68 62.57
  C 216.31 40.30 185.07 17.77 152.28 1.38
  C 150.95 0.71 149.27 0.59 148.00 0.59
  Q 119.62 0.81 90.67 0.39
  A 0.73 0.72 55.1 0 0 90.42 1.80
  Q 113.61 10.04 135.77 22.22
  Q 174.75 43.67 210.98 69.51
  Q 262.37 106.18 310.18 147.42
  C 314.27 150.94 322.17 152.68 327.35 154.54
  A 1.08 1.07 -52.9 0 0 328.34 154.40
  L 340.97 145.25
  Q 341.46 144.89 341.02 144.46
  C 339.07 142.58 336.39 140.39 334.98 139.10
  Z
  M 317.90 213.37
  A 0.45 0.45 0.0 0 1 318.27 213.57
  L 340.91 246.44
  A 0.45 0.45 0.0 0 0 341.71 246.32
  L 353.88 208.48
  A 0.45 0.45 0.0 0 1 354.18 208.18
  L 392.30 196.85
  A 0.45 0.45 0.0 0 0 392.44 196.05
  L 360.25 172.76
  A 0.45 0.45 0.0 0 1 360.07 172.38
  L 361.15 132.56
  A 0.45 0.45 0.0 0 0 360.43 132.19
  L 328.33 155.86
  A 0.45 0.45 0.0 0 1 327.92 155.92
  L 290.61 142.75
  A 0.45 0.45 0.0 0 0 290.03 143.32
  L 302.27 180.95
  A 0.45 0.45 0.0 0 1 302.19 181.37
  L 277.92 212.69
  A 0.45 0.45 0.0 0 0 278.28 213.42
  L 317.90 213.37
  Z"
/>
<path fill="#6f5944" d="
  M 1779.09 0.00
  L 1931.00 0.00
  Q 1931.00 0.25 1931.00 0.49
  Q 1891.02 0.66 1850.95 0.60
  Q 1847.65 0.60 1844.63 1.62
  C 1804.17 15.34 1765.59 39.27 1731.05 63.32
  Q 1674.67 102.58 1622.34 147.59
  A 0.17 0.17 0.0 0 0 1622.51 147.88
  L 1642.46 140.81
  A 0.33 0.33 0.0 0 1 1642.88 141.22
  L 1634.89 165.61
  A 0.31 0.31 0.0 0 0 1635.35 165.96
  C 1701.47 122.26 1769.35 80.28 1839.32 43.02
  Q 1874.95 24.05 1909.19 10.36
  Q 1917.96 6.85 1931.00 3.01
  Q 1931.02 4.74 1931.00 4.03
  C 1892.62 16.32 1852.08 36.77 1817.07 56.30
  Q 1725.99 107.10 1634.50 167.97
  A 1.61 1.60 82.0 0 0 1633.87 168.81
  L 1630.11 180.25
  Q 1629.90 180.89 1630.31 181.42
  L 1638.15 191.61
  Q 1638.48 192.04 1638.94 191.75
  Q 1716.02 143.49 1799.77 100.28
  Q 1865.30 66.47 1931.00 39.93
  L 1931.00 41.13
  Q 1888.02 58.47 1854.68 74.37
  Q 1743.64 127.34 1639.71 192.62
  A 0.76 0.76 0.0 0 0 1639.51 193.72
  L 1654.81 213.69
  Q 1655.26 214.28 1654.52 214.28
  L 1613.73 214.28
  A 0.97 0.97 0.0 0 0 1612.93 214.70
  L 1589.68 248.42
  A 0.28 0.28 0.0 0 1 1589.18 248.35
  L 1576.65 209.66
  A 1.54 1.54 0.0 0 0 1575.62 208.66
  L 1536.77 197.10
  Q 1536.09 196.90 1536.67 196.48
  L 1569.68 172.54
  Q 1570.14 172.21 1570.13 171.64
  L 1569.13 130.93
  Q 1569.11 130.21 1569.70 130.64
  L 1588.20 144.08
  Q 1588.56 144.35 1588.89 144.04
  C 1634.71 101.95 1682.82 61.30 1734.23 26.19
  Q 1755.77 11.49 1779.09 0.00
  Z
  M 1840.24 1.84
  Q 1843.23 0.49 1839.95 0.50
  L 1780.89 0.71
  A 4.83 4.78 -58.6 0 0 1778.66 1.26
  Q 1747.94 17.10 1719.29 38.01
  Q 1651.60 87.41 1590.14 144.47
  A 0.57 0.56 -48.6 0 0 1590.19 145.34
  L 1602.72 154.43
  Q 1603.14 154.73 1603.62 154.56
  Q 1609.90 152.40 1616.16 150.12
  Q 1618.84 149.15 1621.05 147.25
  Q 1670.28 104.79 1725.26 66.01
  C 1756.48 43.98 1788.93 23.73 1823.27 8.52
  C 1827.86 6.49 1834.84 4.27 1840.24 1.84
  Z
  M 1538.48 196.17
  A 0.39 0.39 0.0 0 0 1538.60 196.85
  L 1576.79 208.17
  A 0.39 0.39 0.0 0 1 1577.05 208.43
  L 1589.35 246.44
  A 0.39 0.39 0.0 0 0 1590.04 246.54
  L 1612.66 213.67
  A 0.39 0.39 0.0 0 1 1612.98 213.50
  L 1652.86 213.46
  A 0.39 0.39 0.0 0 0 1653.16 212.83
  L 1628.78 181.31
  A 0.39 0.39 0.0 0 1 1628.71 180.95
  L 1640.99 143.22
  A 0.39 0.39 0.0 0 0 1640.49 142.73
  L 1603.05 155.93
  A 0.39 0.39 0.0 0 1 1602.69 155.88
  L 1570.44 132.08
  A 0.39 0.39 0.0 0 0 1569.82 132.41
  L 1570.91 172.41
  A 0.39 0.39 0.0 0 1 1570.75 172.74
  L 1538.48 196.17
  Z"
/>
<path fill="#f6aa3a" d="
  M 0.00 0.50
  Q 40.10 0.65 80.20 0.58
  Q 83.44 0.57 86.42 1.60
  Q 112.79 10.63 136.47 23.80
  Q 179.86 47.91 220.96 78.00
  Q 266.12 111.05 308.43 147.46
  A 0.19 0.19 0.0 0 1 308.25 147.78
  L 288.57 140.83
  A 0.33 0.33 0.0 0 0 288.15 141.24
  L 296.12 165.68
  A 0.29 0.29 0.0 0 1 295.68 166.01
  Q 223.65 118.30 148.97 74.75
  Q 101.00 46.78 52.58 23.63
  Q 27.85 11.81 0.80 3.11
  Q 0.70 3.40 0.00 3.12
  L 0.00 0.50
  Z"
/>
<path fill="#f6aa3a" d="
  M 1931.00 0.49
  L 1931.00 3.01
  Q 1917.96 6.85 1909.19 10.36
  Q 1874.95 24.05 1839.32 43.02
  C 1769.35 80.28 1701.47 122.26 1635.35 165.96
  A 0.31 0.31 0.0 0 1 1634.89 165.61
  L 1642.88 141.22
  A 0.33 0.33 0.0 0 0 1642.46 140.81
  L 1622.51 147.88
  A 0.17 0.17 0.0 0 1 1622.34 147.59
  Q 1674.67 102.58 1731.05 63.32
  C 1765.59 39.27 1804.17 15.34 1844.63 1.62
  Q 1847.65 0.60 1850.95 0.60
  Q 1891.02 0.66 1931.00 0.49
  Z"
/>
<path fill="#5a9e99" d="
  M 334.98 139.10
  C 336.39 140.39 339.07 142.58 341.02 144.46
  Q 341.46 144.89 340.97 145.25
  L 328.34 154.40
  A 1.08 1.07 -52.9 0 1 327.35 154.54
  C 322.17 152.68 314.27 150.94 310.18 147.42
  Q 262.37 106.18 210.98 69.51
  Q 174.75 43.67 135.77 22.22
  Q 113.61 10.04 90.42 1.80
  A 0.73 0.72 55.1 0 1 90.67 0.39
  Q 119.62 0.81 148.00 0.59
  C 149.27 0.59 150.95 0.71 152.28 1.38
  C 185.07 17.77 216.31 40.30 244.68 62.57
  Q 291.28 99.13 334.98 139.10
  Z"
/>
<path fill="#5a9e99" d="
  M 1840.24 1.84
  C 1834.84 4.27 1827.86 6.49 1823.27 8.52
  C 1788.93 23.73 1756.48 43.98 1725.26 66.01
  Q 1670.28 104.79 1621.05 147.25
  Q 1618.84 149.15 1616.16 150.12
  Q 1609.90 152.40 1603.62 154.56
  Q 1603.14 154.73 1602.72 154.43
  L 1590.19 145.34
  A 0.57 0.56 -48.6 0 1 1590.14 144.47
  Q 1651.60 87.41 1719.29 38.01
  Q 1747.94 17.10 1778.66 1.26
  A 4.83 4.78 -58.6 0 1 1780.89 0.71
  L 1839.95 0.50
  Q 1843.23 0.49 1840.24 1.84
  Z"
/>
<path fill="#ee583b" d="
  M 0.00 3.12
  Q 0.70 3.40 0.80 3.11
  L 0.42 3.68
  A 0.43 0.42 25.6 0 0 0.65 4.32
  Q 17.79 9.57 34.25 16.70
  C 71.72 32.94 107.80 52.48 143.13 72.90
  Q 221.28 118.09 296.56 167.92
  A 1.46 1.45 -82.7 0 1 297.15 168.69
  L 300.98 180.43
  Q 301.12 180.86 300.85 181.21
  L 292.80 191.69
  Q 292.51 192.07 292.11 191.81
  Q 203.15 135.99 109.18 89.08
  Q 56.18 62.62 1.24 40.46
  Q 0.85 40.30 0.00 40.38
  L 0.00 3.12
  Z"
/>
<path fill="#ee583b" d="
  M 1931.00 4.03
  L 1931.00 39.93
  Q 1865.30 66.47 1799.77 100.28
  Q 1716.02 143.49 1638.94 191.75
  Q 1638.48 192.04 1638.15 191.61
  L 1630.31 181.42
  Q 1629.90 180.89 1630.11 180.25
  L 1633.87 168.81
  A 1.61 1.60 82.0 0 1 1634.50 167.97
  Q 1725.99 107.10 1817.07 56.30
  C 1852.08 36.77 1892.62 16.32 1931.00 4.03
  Z"
/>
<path fill="#f8c059" d="
  M 317.90 213.37
  L 278.28 213.42
  A 0.45 0.45 0.0 0 1 277.92 212.69
  L 302.19 181.37
  A 0.45 0.45 0.0 0 0 302.27 180.95
  L 290.03 143.32
  A 0.45 0.45 0.0 0 1 290.61 142.75
  L 327.92 155.92
  A 0.45 0.45 0.0 0 0 328.33 155.86
  L 360.43 132.19
  A 0.45 0.45 0.0 0 1 361.15 132.56
  L 360.07 172.38
  A 0.45 0.45 0.0 0 0 360.25 172.76
  L 392.44 196.05
  A 0.45 0.45 0.0 0 1 392.30 196.85
  L 354.18 208.18
  A 0.45 0.45 0.0 0 0 353.88 208.48
  L 341.71 246.32
  A 0.45 0.45 0.0 0 1 340.91 246.44
  L 318.27 213.57
  A 0.45 0.45 0.0 0 0 317.90 213.37
  Z"
/>
<path fill="#f8c059" d="
  M 1538.48 196.17
  L 1570.75 172.74
  A 0.39 0.39 0.0 0 0 1570.91 172.41
  L 1569.82 132.41
  A 0.39 0.39 0.0 0 1 1570.44 132.08
  L 1602.69 155.88
  A 0.39 0.39 0.0 0 0 1603.05 155.93
  L 1640.49 142.73
  A 0.39 0.39 0.0 0 1 1640.99 143.22
  L 1628.71 180.95
  A 0.39 0.39 0.0 0 0 1628.78 181.31
  L 1653.16 212.83
  A 0.39 0.39 0.0 0 1 1652.86 213.46
  L 1612.98 213.50
  A 0.39 0.39 0.0 0 0 1612.66 213.67
  L 1590.04 246.54
  A 0.39 0.39 0.0 0 1 1589.35 246.44
  L 1577.05 208.43
  A 0.39 0.39 0.0 0 0 1576.79 208.17
  L 1538.60 196.85
  A 0.39 0.39 0.0 0 1 1538.48 196.17
  Z"
/>
</svg>
