<?xml version="1.0" encoding="UTF-8" standalone="no"?>
<!DOCTYPE svg PUBLIC "-//W3C//DTD SVG 1.1//EN" "http://www.w3.org/Graphics/SVG/1.1/DTD/svg11.dtd">
<svg xmlns="http://www.w3.org/2000/svg" version="1.1" viewBox="0.00 0.00 1455.00 1441.00">
<g stroke-width="2.00" fill="none" stroke-linecap="butt">
<path stroke="#b38c4f" vector-effect="non-scaling-stroke" d="
  M 485.13 873.62
  Q 499.54 891.06 498.38 913.87
  C 496.81 944.56 475.10 971.41 445.12 978.02
  Q 438.54 979.47 425.25 979.91
  Q 395.55 980.88 365.89 979.88
  A 0.49 0.49 0.0 0 0 365.39 980.30
  L 318.50 1285.76
  A 0.43 0.42 -14.2 0 0 319.18 1286.16
  L 541.76 1120.01
  A 0.62 0.62 0.0 0 1 542.71 1120.28
  L 657.61 1415.48
  Q 657.92 1416.29 658.27 1415.49
  L 767.89 1160.38
  A 0.85 0.85 0.0 0 1 769.21 1160.06
  L 1016.10 1358.10
  A 0.35 0.35 0.0 0 0 1016.67 1357.78
  L 984.02 1081.47
  Q 983.95 1080.89 984.53 1080.98
  L 1298.22 1129.18
  A 0.19 0.19 0.0 0 0 1298.40 1128.88
  L 1131.78 905.69
  A 0.50 0.50 0.0 0 1 1132.00 904.92
  L 1427.45 789.92
  A 0.30 0.30 0.0 0 0 1427.46 789.36
  L 1171.82 679.45
  A 0.52 0.51 -59.1 0 1 1171.63 678.66
  L 1369.65 431.81
  Q 1370.46 430.80 1369.17 430.95
  L 1093.44 463.49
  A 0.48 0.48 0.0 0 1 1092.91 462.94
  L 1141.02 149.53
  A 0.29 0.29 0.0 0 0 1140.56 149.26
  L 917.96 315.47
  Q 917.08 316.12 916.68 315.10
  L 801.92 20.25
  A 0.41 0.40 46.2 0 0 801.17 20.23
  L 691.59 275.24
  Q 691.14 276.30 690.23 275.57
  L 443.29 77.47
  Q 442.72 77.02 442.81 77.73
  L 475.48 354.23
  A 0.40 0.39 1.2 0 1 475.02 354.66
  L 161.53 306.49
  A 0.29 0.29 0.0 0 0 161.26 306.95
  L 312.68 509.82
  Q 312.97 510.21 313.29 509.84
  Q 321.28 500.57 330.59 492.63
  C 331.84 491.57 333.60 491.21 335.03 490.18
  C 347.57 481.17 360.58 475.76 376.16 472.83
  Q 388.55 470.49 397.50 470.53
  C 417.39 470.60 441.49 475.44 455.79 490.21
  C 465.53 500.25 469.59 514.66 469.57 528.59
  Q 469.56 531.92 468.30 534.15
  C 465.24 539.54 456.80 542.43 450.47 544.18
  C 443.84 546.03 404.09 555.25 405.70 540.83
  Q 405.76 540.29 405.22 540.25
  C 395.65 539.56 385.62 541.19 377.90 547.08
  C 367.92 554.69 363.53 567.96 368.25 579.93
  Q 372.87 591.63 385.07 595.41
  C 390.97 597.25 396.37 598.08 402.21 596.47
  Q 405.52 595.55 406.07 591.52
  Q 407.06 584.27 408.00 577.02
  C 408.63 572.23 414.53 569.84 418.80 568.34
  Q 438.25 561.47 458.90 562.72
  Q 465.51 563.12 471.79 565.14
  C 478.80 567.39 479.05 571.91 479.73 579.09
  Q 482.92 612.99 480.89 647.00
  C 480.41 654.98 480.01 666.71 471.76 668.01
  Q 451.82 671.16 429.98 668.54
  Q 427.60 668.25 425.14 666.59
  Q 424.72 666.31 424.24 666.42
  Q 398.86 672.13 373.38 668.93
  Q 362.89 667.62 353.94 664.47
  Q 331.03 656.40 314.27 639.02
  Q 288.24 612.03 290.67 573.50
  Q 291.47 560.77 296.28 543.46
  Q 296.46 542.80 295.82 543.05
  L 31.79 645.83
  A 0.19 0.19 0.0 0 0 31.78 646.18
  L 287.62 756.15
  Q 288.27 756.43 287.83 756.98
  L 89.51 1004.28
  A 0.31 0.30 -73.7 0 0 89.78 1004.78
  L 340.39 975.16
  Q 341.19 975.06 340.71 974.41
  Q 340.23 973.78 339.83 972.69
  Q 336.94 964.94 335.94 956.73
  C 330.62 913.21 330.29 865.55 331.47 825.25
  Q 331.91 810.25 333.44 800.24
  C 334.04 796.32 336.52 792.89 340.22 790.89
  Q 356.51 782.08 376.26 780.23
  C 400.17 778.00 424.19 779.28 445.94 788.19
  Q 465.70 796.28 475.07 815.72
  Q 486.92 840.30 474.33 864.26
  Q 474.08 864.74 474.52 865.06
  Q 482.91 870.94 485.13 873.62"
/>
<path stroke="#5aa190" vector-effect="non-scaling-stroke" d="
  M 463.84 527.56
  C 463.77 513.72 457.97 496.60 445.46 489.06
  C 419.60 473.46 389.24 472.87 361.14 482.86
  C 359.27 483.53 356.86 483.65 355.25 484.40
  C 331.15 495.77 312.64 514.09 303.73 539.53
  C 295.80 562.16 293.03 586.89 301.65 609.42
  Q 305.13 618.50 311.45 626.75
  Q 323.85 642.91 341.56 653.01
  Q 349.97 657.80 360.04 660.42
  Q 393.09 669.01 426.74 659.70
  Q 427.28 659.55 427.56 660.02
  L 428.69 661.90
  A 1.15 1.15 0.0 0 0 429.41 662.42
  Q 434.73 663.65 441.75 663.83
  Q 456.01 664.21 467.25 662.97
  Q 469.68 662.70 471.96 661.79
  Q 472.44 661.60 472.65 661.13
  Q 473.75 658.55 474.12 655.74
  Q 475.75 643.42 475.93 631.00
  Q 476.32 605.77 473.98 580.64
  Q 473.61 576.69 473.19 572.53
  A 1.14 1.11 13.9 0 0 472.66 571.68
  Q 468.82 569.32 464.23 568.94
  Q 448.30 567.62 432.51 570.10
  Q 429.54 570.57 422.49 572.58
  Q 417.57 574.00 414.27 576.86
  A 1.35 1.32 73.5 0 0 413.81 577.73
  Q 412.89 584.99 411.58 592.19
  C 410.86 596.16 409.66 599.20 406.13 600.84
  C 401.50 602.99 396.18 603.09 390.88 602.57
  Q 380.25 601.53 372.50 594.97
  C 359.19 583.69 356.87 565.79 366.51 550.86
  C 367.85 548.77 369.93 546.08 371.83 544.61
  Q 386.24 533.39 404.61 534.50
  Q 407.99 534.71 409.52 536.12
  Q 411.60 538.04 411.36 541.48
  A 0.62 0.61 9.6 0 0 411.82 542.12
  C 417.88 543.67 424.41 542.65 430.49 542.29
  Q 437.87 541.86 442.38 540.86
  C 447.46 539.74 459.35 536.98 462.64 532.43
  Q 463.85 530.75 463.84 527.56"
/>
<path stroke="#5aa190" vector-effect="non-scaling-stroke" d="
  M 450.03 971.32
  C 465.03 966.22 477.42 954.51 485.25 941.01
  Q 486.95 938.07 488.28 933.95
  C 492.09 922.18 494.05 911.83 491.52 899.27
  Q 491.04 896.89 490.60 894.49
  Q 490.11 891.88 489.15 889.90
  Q 482.01 875.19 467.26 867.48
  A 1.47 1.47 0.0 0 1 466.79 865.27
  C 473.47 856.89 475.51 846.70 475.05 836.20
  C 474.26 817.86 461.84 802.10 445.74 794.50
  Q 434.01 788.97 421.24 786.97
  Q 399.30 783.53 377.40 785.79
  Q 365.96 786.96 359.73 788.60
  C 354.38 790.01 339.69 794.51 338.57 801.10
  Q 337.36 808.33 337.51 823.05
  Q 337.52 823.56 337.28 824.01
  Q 337.00 824.56 336.98 825.50
  C 336.18 870.39 336.65 913.74 341.25 955.19
  C 341.85 960.61 342.92 965.32 344.67 970.11
  A 2.92 2.91 -5.1 0 0 346.90 971.97
  C 359.83 974.21 370.62 974.38 386.03 974.62
  Q 411.66 975.02 437.25 973.48
  Q 445.06 973.01 450.03 971.32"
/>
<path stroke="#b38c4f" vector-effect="non-scaling-stroke" d="
  M 788.51 484.99
  C 787.45 473.16 772.35 471.22 763.37 469.91
  Q 736.77 466.04 711.12 474.23
  C 708.76 474.98 706.38 476.54 703.95 477.53
  C 697.56 480.13 695.73 486.02 695.79 492.76
  Q 696.03 521.47 696.82 534.25
  Q 699.07 570.57 703.09 606.73
  Q 706.27 635.24 709.81 650.19
  C 711.04 655.37 713.40 663.98 717.49 665.73
  Q 724.62 668.78 734.00 668.96
  Q 741.59 669.10 749.17 668.83
  C 753.45 668.69 760.09 668.78 765.57 667.97
  C 774.41 666.65 780.71 665.65 783.21 656.79
  C 785.09 650.14 786.09 639.79 786.82 631.35
  Q 791.55 576.03 790.44 520.50
  Q 790.09 502.71 788.51 484.99"
/>
<path stroke="#b38c4f" vector-effect="non-scaling-stroke" d="
  M 946.62 638.12
  Q 964.43 619.17 969.89 594.86
  Q 975.06 571.77 969.67 550.99
  Q 965.85 536.31 964.07 532.14
  C 951.21 501.99 927.74 479.72 895.13 472.61
  Q 865.54 466.15 833.24 470.30
  Q 823.78 471.51 812.23 476.70
  Q 808.73 478.27 806.85 480.61
  Q 803.72 484.52 802.66 489.39
  Q 799.24 505.03 798.17 522.49
  Q 795.08 572.86 801.64 622.86
  C 803.13 634.23 806.64 660.88 816.96 664.36
  Q 826.79 667.68 840.76 668.39
  C 854.11 669.07 868.25 669.22 880.94 667.45
  C 897.38 665.16 915.74 660.04 930.00 651.23
  Q 934.38 648.52 938.63 645.62
  Q 941.28 643.81 946.62 638.12"
/>
<path stroke="#b38c4f" vector-effect="non-scaling-stroke" d="
  M 987.38 476.13
  C 983.46 479.65 982.29 487.92 981.65 493.17
  Q 981.23 496.71 981.08 502.34
  Q 979.36 566.27 984.76 630.01
  Q 985.74 641.62 988.19 653.03
  C 989.05 657.05 990.94 663.77 995.37 665.17
  C 1000.22 666.69 1005.69 667.46 1011.27 667.75
  Q 1055.34 670.04 1099.25 665.50
  C 1108.17 664.58 1130.25 662.47 1132.05 654.61
  Q 1133.23 649.46 1133.41 643.25
  Q 1133.94 625.27 1131.05 607.51
  C 1129.67 599.07 1127.28 595.09 1118.61 594.41
  Q 1111.61 593.86 1107.50 594.11
  Q 1087.53 595.33 1067.50 595.58
  A 0.75 0.75 0.0 0 1 1066.77 594.63
  Q 1066.99 593.81 1068.00 593.79
  Q 1077.64 593.55 1087.16 591.97
  C 1093.39 590.94 1095.14 586.27 1095.57 580.50
  C 1096.09 573.47 1094.98 542.59 1085.50 540.87
  Q 1075.47 539.06 1065.29 539.20
  A 0.61 0.61 0.0 0 1 1064.67 538.62
  L 1064.63 537.87
  Q 1064.60 537.16 1065.32 537.14
  Q 1085.07 536.79 1104.74 535.13
  C 1111.14 534.59 1119.52 533.34 1120.89 525.57
  Q 1123.56 510.49 1122.57 495.21
  C 1122.19 489.23 1122.21 474.83 1115.53 472.63
  Q 1108.15 470.20 1096.76 469.65
  Q 1050.76 467.44 1004.89 471.50
  C 1001.92 471.76 998.44 472.63 995.39 472.85
  Q 990.64 473.19 987.38 476.13"
/>
<path stroke="#b38c4f" vector-effect="non-scaling-stroke" d="
  M 606.12 561.88
  Q 604.83 570.04 601.10 579.13
  Q 596.39 590.60 585.77 589.35
  C 578.16 588.46 572.77 582.81 570.83 575.61
  Q 564.52 552.25 565.89 526.74
  Q 567.05 505.24 568.26 483.74
  C 568.53 479.05 563.87 476.97 559.96 475.96
  Q 546.12 472.34 531.90 472.11
  Q 525.72 472.01 519.62 472.15
  C 512.70 472.30 502.80 472.48 497.30 475.95
  Q 492.59 478.92 490.56 484.69
  Q 488.43 490.72 487.88 495.26
  Q 482.82 536.56 487.27 577.82
  Q 488.63 590.41 490.64 597.50
  Q 493.42 607.28 498.52 616.23
  Q 504.66 627.02 509.27 632.48
  Q 517.91 642.73 530.09 650.88
  Q 539.12 656.92 547.44 660.81
  Q 561.64 667.43 577.88 669.09
  Q 620.73 673.48 652.23 645.47
  Q 678.61 622.02 683.61 586.07
  Q 688.90 548.09 687.21 512.75
  Q 686.69 501.82 684.97 491.03
  C 683.98 484.82 682.27 480.45 677.02 478.18
  C 668.07 474.32 659.05 474.23 647.00 473.59
  C 643.84 473.43 640.81 474.06 638.33 474.06
  Q 628.09 474.06 618.16 476.50
  C 613.94 477.54 609.28 479.37 609.05 484.51
  Q 608.34 500.13 609.15 515.75
  Q 610.20 536.14 606.12 561.88"
/>
<path stroke="#b38c4f" vector-effect="non-scaling-stroke" d="
  M 733.27 813.03
  C 728.28 818.50 725.12 823.58 721.23 830.16
  C 693.44 877.12 709.03 934.47 754.02 963.79
  C 760.04 967.71 768.64 971.30 774.82 973.40
  C 798.78 981.51 826.27 982.26 849.52 971.53
  Q 858.09 967.58 866.88 961.62
  Q 886.17 948.53 897.16 928.46
  Q 911.67 901.96 910.41 870.26
  Q 909.55 848.68 898.84 830.02
  C 898.08 828.68 897.72 827.33 896.91 826.08
  Q 880.93 801.30 854.12 788.99
  C 853.09 788.51 851.93 788.41 851.00 788.02
  Q 837.13 782.27 818.50 780.05
  Q 790.75 776.74 767.15 787.37
  Q 766.01 787.88 764.79 788.25
  Q 763.43 788.66 762.51 789.20
  Q 746.12 798.93 733.27 813.03"
/>
<path stroke="#b38c4f" vector-effect="non-scaling-stroke" d="
  M 549.72 793.89
  Q 549.56 793.89 549.38 793.88
  A 1.24 1.20 -59.2 0 0 548.57 794.10
  Q 533.46 804.81 523.09 816.59
  C 522.07 817.75 521.19 820.10 519.92 821.64
  Q 514.72 827.96 511.30 835.29
  Q 508.62 841.04 505.56 850.26
  C 498.00 873.06 498.69 898.57 508.97 920.50
  Q 520.91 945.99 544.22 962.44
  Q 546.78 964.25 550.22 965.95
  C 555.45 968.54 560.98 971.46 566.00 973.28
  C 592.78 982.95 625.19 983.19 650.19 968.11
  C 655.34 965.00 660.36 962.34 664.82 958.37
  C 670.12 953.66 675.94 948.68 680.21 943.38
  C 697.63 921.75 704.98 895.63 703.30 868.01
  C 700.87 828.06 671.26 795.65 633.50 784.76
  Q 611.06 778.29 589.99 780.00
  Q 569.07 781.69 550.01 793.79
  Q 549.87 793.88 549.72 793.89"
/>
<path stroke="#b38c4f" vector-effect="non-scaling-stroke" d="
  M 923.88 789.63
  Q 920.28 791.40 918.70 794.27
  Q 917.64 796.18 917.54 800.71
  Q 916.65 840.39 917.70 860.00
  Q 919.10 885.88 920.13 900.88
  Q 921.62 922.47 924.75 946.50
  C 925.80 954.54 926.99 963.92 930.49 971.29
  C 932.17 974.81 934.18 976.06 937.83 976.88
  Q 946.50 978.85 953.75 978.99
  C 962.33 979.15 993.41 979.04 997.24 970.74
  Q 998.08 968.94 998.88 967.08
  C 1000.57 963.15 1000.99 958.43 1001.78 954.17
  Q 1001.88 953.65 1002.35 953.89
  Q 1012.56 959.09 1041.53 972.64
  C 1048.30 975.81 1058.29 981.34 1064.64 976.64
  C 1069.02 973.40 1073.39 967.98 1076.55 962.97
  C 1085.07 949.45 1093.00 930.42 1093.26 914.25
  C 1093.33 909.70 1091.96 906.77 1088.00 904.14
  Q 1069.65 891.94 1050.14 882.26
  A 0.73 0.73 0.0 0 1 1049.95 881.10
  Q 1065.24 865.54 1078.76 849.23
  Q 1086.29 840.16 1088.22 835.38
  Q 1091.27 827.82 1085.61 820.87
  Q 1072.74 805.06 1060.97 795.28
  C 1056.45 791.52 1047.70 784.54 1041.60 786.86
  Q 1033.84 789.81 1024.06 797.13
  Q 1015.81 803.30 1007.35 809.36
  Q 1006.91 809.68 1006.87 809.13
  Q 1006.35 801.71 1005.66 794.27
  Q 1005.27 790.10 1003.73 788.09
  C 1000.09 783.35 989.35 781.94 983.77 781.39
  Q 960.96 779.15 938.60 783.99
  Q 932.67 785.28 923.88 789.63"
/>
<path stroke="#5aa190" vector-effect="non-scaling-stroke" d="
  M 718.44 657.52
  C 719.33 659.79 719.15 660.44 721.49 661.03
  C 734.58 664.36 748.16 663.95 761.25 662.80
  C 765.01 662.47 775.67 661.38 776.99 657.02
  Q 778.80 651.04 779.73 643.24
  C 784.97 599.48 785.47 554.88 784.39 510.86
  C 784.17 501.66 783.35 492.54 782.52 483.38
  Q 782.48 482.88 782.15 482.50
  C 777.54 477.20 765.37 475.34 758.51 474.72
  Q 737.21 472.79 716.65 478.03
  C 711.93 479.24 701.93 482.60 701.68 488.25
  Q 700.97 504.03 701.71 521.25
  Q 704.31 581.65 713.77 641.35
  Q 714.90 648.53 718.44 657.52"
/>
<path stroke="#5aa190" vector-effect="non-scaling-stroke" d="
  M 936.62 639.62
  Q 946.96 631.17 953.28 620.79
  Q 957.91 613.18 961.65 602.89
  C 969.64 580.84 967.68 555.82 958.51 534.27
  Q 954.59 525.07 953.33 522.80
  Q 936.74 492.98 905.08 481.44
  Q 896.60 478.34 885.71 476.63
  C 866.94 473.68 844.22 472.72 825.29 477.61
  C 816.96 479.76 811.19 481.47 808.74 489.70
  Q 806.19 498.30 805.30 507.25
  Q 799.66 564.36 807.04 621.26
  C 808.29 630.87 810.01 642.43 813.74 651.39
  Q 815.59 655.85 816.99 657.26
  C 820.88 661.17 833.27 661.92 840.38 662.56
  Q 869.90 665.25 896.54 658.38
  C 897.89 658.04 899.40 658.34 900.50 658.01
  Q 913.79 654.05 922.00 649.78
  Q 928.05 646.64 936.62 639.62"
/>
<path stroke="#5aa190" vector-effect="non-scaling-stroke" d="
  M 1061.92 588.36
  Q 1074.71 588.37 1087.31 586.26
  Q 1087.80 586.18 1088.07 585.76
  Q 1089.51 583.50 1089.75 580.76
  Q 1091.30 563.58 1085.08 547.65
  A 2.16 2.14 83.8 0 0 1083.44 546.32
  Q 1071.80 544.34 1060.02 544.60
  Q 1059.30 544.61 1059.28 543.90
  L 1058.94 532.65
  A 0.73 0.73 0.0 0 1 1059.64 531.90
  Q 1079.38 531.21 1099.25 529.91
  Q 1107.28 529.38 1113.34 527.36
  C 1114.46 526.98 1115.26 526.10 1115.42 525.00
  Q 1118.58 503.25 1115.36 481.52
  Q 1114.86 478.16 1112.29 477.47
  Q 1107.41 476.16 1098.24 475.63
  Q 1053.46 473.07 1008.75 476.80
  Q 1002.57 477.32 998.36 477.90
  C 993.26 478.60 990.15 478.83 988.85 484.00
  Q 987.23 490.47 987.03 496.01
  Q 984.83 557.45 989.73 618.74
  Q 990.84 632.55 992.83 646.25
  Q 993.79 652.80 996.08 658.49
  A 2.15 2.15 0.0 0 0 997.52 659.77
  Q 1003.76 661.41 1010.50 661.86
  Q 1026.99 662.96 1043.50 662.77
  C 1066.93 662.51 1090.03 661.27 1113.21 657.69
  C 1117.17 657.08 1121.18 655.61 1125.05 654.46
  A 1.93 1.92 -0.3 0 0 1126.36 653.14
  Q 1127.80 648.12 1127.94 642.51
  Q 1128.39 624.22 1125.11 606.23
  Q 1124.61 603.54 1122.89 601.37
  A 1.53 1.47 -11.9 0 0 1122.06 600.85
  Q 1115.50 599.38 1108.24 599.82
  Q 1086.71 601.15 1061.95 601.41
  Q 1061.35 601.41 1061.35 600.81
  L 1061.34 588.94
  Q 1061.34 588.36 1061.92 588.36"
/>
<path stroke="#5aa190" vector-effect="non-scaling-stroke" d="
  M 573.62 590.38
  Q 568.31 585.80 565.59 576.99
  C 556.49 547.58 561.22 516.39 562.51 485.75
  Q 562.56 484.67 562.38 483.48
  Q 562.29 482.95 561.80 482.74
  Q 556.11 480.35 549.00 479.33
  C 533.78 477.17 517.37 476.30 502.78 480.13
  C 496.99 481.65 495.93 486.08 494.48 491.99
  Q 492.56 499.79 491.62 514.75
  Q 489.71 545.05 492.70 575.25
  C 493.85 586.78 495.57 597.17 500.14 606.52
  C 502.05 610.41 503.73 614.70 505.88 618.04
  Q 512.75 628.70 521.90 637.47
  Q 524.49 639.95 528.96 643.07
  Q 532.66 645.65 536.25 648.39
  Q 542.34 653.06 554.71 657.91
  C 555.39 658.18 555.81 658.04 556.41 658.26
  Q 587.14 669.37 618.23 659.28
  C 619.46 658.88 620.74 659.04 621.99 658.53
  Q 631.82 654.46 640.36 648.11
  Q 650.60 640.48 653.36 637.38
  Q 662.37 627.30 668.81 615.53
  Q 671.39 610.81 673.38 604.65
  Q 676.01 596.49 676.58 593.27
  Q 684.50 548.17 680.81 502.50
  C 680.53 499.02 679.28 486.66 676.53 484.67
  Q 673.93 482.79 668.98 481.79
  Q 643.85 476.70 618.86 482.27
  Q 617.30 482.61 615.04 484.14
  A 0.96 0.93 72.3 0 0 614.63 484.96
  C 614.79 488.13 614.35 491.44 614.41 494.35
  Q 614.81 511.67 614.72 529.00
  C 614.63 546.76 612.86 566.03 605.36 582.85
  Q 601.17 592.25 592.03 594.44
  C 586.18 595.85 578.18 594.31 573.62 590.38"
/>
<path stroke="#5aa190" vector-effect="non-scaling-stroke" d="
  M 865.63 585.62
  C 867.14 590.19 870.48 592.29 875.36 592.71
  C 889.61 593.94 907.24 587.53 906.63 570.66
  C 906.19 558.68 896.11 549.37 885.47 545.91
  C 880.59 544.31 868.75 543.15 865.41 548.76
  C 860.45 557.11 862.38 575.83 865.63 585.62"
/>
<path stroke="#b38c4f" vector-effect="non-scaling-stroke" d="
  M 899.85 564.91
  C 894.71 554.90 882.69 548.18 871.40 551.03
  A 1.58 1.52 10.1 0 0 870.55 551.60
  C 866.23 557.51 868.42 574.89 870.06 582.03
  Q 871.32 587.51 877.22 587.31
  C 885.95 587.00 900.74 584.65 900.83 573.12
  C 900.85 570.34 901.15 567.44 899.85 564.91"
/>
<path stroke="#5aa190" vector-effect="non-scaling-stroke" d="
  M 717.34 908.84
  C 723.60 925.88 735.15 942.22 749.69 954.08
  C 753.94 957.55 759.78 960.38 764.89 963.35
  Q 773.57 968.40 786.78 971.37
  Q 789.82 972.06 793.82 972.39
  Q 797.37 972.69 800.93 973.03
  C 807.63 973.67 813.80 973.51 820.37 973.42
  Q 825.37 973.35 829.09 972.63
  Q 846.70 969.24 861.27 958.67
  Q 862.77 957.58 865.95 955.65
  C 869.80 953.30 872.07 950.77 876.35 946.48
  Q 896.43 926.35 902.46 898.39
  C 903.36 894.19 903.75 889.23 904.34 884.66
  Q 905.20 878.02 905.21 874.31
  Q 905.30 854.66 896.56 836.91
  Q 894.65 833.02 888.96 824.37
  Q 887.42 822.03 885.45 819.88
  Q 883.53 817.78 881.60 815.67
  C 869.27 802.19 852.58 792.92 835.05 788.54
  Q 825.42 786.14 815.34 785.23
  C 798.56 783.73 781.36 786.07 766.25 794.02
  Q 764.13 795.14 757.39 799.20
  Q 752.72 802.02 749.12 805.20
  Q 740.38 812.93 732.67 821.69
  Q 732.37 822.03 732.41 822.48
  Q 732.43 822.82 732.28 823.02
  Q 722.54 835.87 717.42 851.13
  C 716.82 852.92 716.88 854.83 716.36 856.75
  Q 710.64 877.95 715.08 899.40
  C 715.40 900.95 716.17 902.96 716.45 904.80
  Q 716.86 907.52 717.34 908.84"
/>
<path stroke="#5aa190" vector-effect="non-scaling-stroke" d="
  M 664.29 951.68
  Q 666.70 949.90 669.20 947.20
  Q 679.19 936.39 685.57 925.75
  C 686.26 924.60 686.42 923.20 687.12 921.92
  C 697.29 903.58 700.03 877.79 696.14 857.43
  C 694.86 850.72 692.66 845.97 690.66 840.25
  Q 689.18 836.04 687.46 833.23
  Q 663.68 794.41 617.70 787.13
  Q 609.02 785.75 600.26 785.45
  Q 573.94 784.54 552.15 798.76
  C 551.23 799.36 550.13 799.38 549.22 800.05
  Q 535.77 810.04 525.55 823.10
  Q 519.21 831.20 515.17 840.13
  C 503.66 865.57 502.34 893.65 514.62 919.16
  Q 523.40 937.41 539.31 951.69
  C 541.40 953.57 543.92 954.90 545.49 956.07
  Q 559.38 966.48 577.23 971.17
  Q 580.59 972.06 583.39 972.35
  Q 588.56 972.90 589.58 973.07
  Q 602.84 975.33 616.17 973.55
  C 619.08 973.16 623.08 973.21 626.51 972.28
  Q 644.75 967.33 659.22 955.43
  Q 659.28 955.38 664.29 951.68"
/>
<path stroke="#5aa190" vector-effect="non-scaling-stroke" d="
  M 1009.02 815.69
  C 1006.80 817.61 1004.45 819.18 1002.27 821.17
  Q 1001.62 821.76 1001.62 820.88
  Q 1001.50 807.63 1000.10 794.44
  C 999.98 793.30 1000.39 792.04 999.10 791.13
  C 994.83 788.13 987.50 787.10 981.02 786.69
  Q 959.57 785.32 938.62 789.68
  C 934.12 790.62 924.02 793.37 923.62 798.31
  Q 923.08 805.11 923.03 809.00
  Q 922.44 859.09 926.97 913.50
  Q 929.14 939.49 933.11 961.56
  Q 934.09 967.03 934.45 967.91
  Q 935.98 971.66 940.21 972.02
  C 946.03 972.51 951.95 973.35 957.63 973.26
  Q 969.71 973.07 981.74 971.87
  C 986.53 971.39 992.02 970.66 993.44 965.95
  Q 996.45 955.96 996.94 945.82
  A 0.92 0.91 16.9 0 1 998.33 945.08
  Q 1004.17 948.58 1010.13 951.43
  Q 1020.35 956.31 1022.16 957.25
  Q 1036.66 964.77 1047.85 969.92
  Q 1050.60 971.18 1054.63 972.43
  C 1058.82 973.73 1060.88 973.32 1063.83 970.33
  Q 1066.51 967.64 1068.17 965.36
  Q 1068.47 964.96 1071.72 959.84
  Q 1082.70 942.53 1086.92 920.49
  Q 1087.99 914.91 1086.94 910.63
  A 1.42 1.40 10.1 0 0 1086.33 909.77
  Q 1064.31 895.41 1040.73 883.82
  A 0.71 0.70 35.7 0 1 1040.54 882.69
  Q 1059.08 863.88 1075.82 843.56
  Q 1080.32 838.09 1083.34 831.73
  C 1083.93 830.48 1083.92 828.83 1083.29 827.72
  C 1079.82 821.66 1075.12 816.85 1069.53 811.08
  C 1062.76 804.09 1054.88 796.86 1046.16 792.30
  A 1.39 1.37 51.7 0 0 1045.20 792.18
  Q 1041.20 793.18 1037.73 795.20
  Q 1022.40 804.10 1009.02 815.69"
/>
<path stroke="#5aa190" vector-effect="non-scaling-stroke" d="
  M 419.67 851.59
  Q 424.94 847.18 425.35 840.30
  Q 425.69 834.56 422.55 830.03
  C 417.88 823.31 408.47 822.26 401.00 823.37
  C 396.32 824.06 394.13 826.94 393.48 831.63
  C 392.71 837.13 392.79 849.48 396.39 853.85
  C 402.34 861.07 414.02 856.33 419.67 851.59"
/>
<path stroke="#5aa190" vector-effect="non-scaling-stroke" d="
  M 412.37 891.13
  C 405.88 889.79 396.35 891.69 394.71 899.49
  Q 392.38 910.63 395.39 922.78
  Q 398.00 933.34 409.22 932.61
  C 420.85 931.85 435.48 926.82 434.03 912.24
  C 432.89 900.69 423.05 893.32 412.37 891.13"
/>
<path stroke="#5aa190" vector-effect="non-scaling-stroke" d="
  M 802.87 852.58
  Q 790.80 854.72 784.93 865.34
  Q 779.80 874.63 781.43 884.13
  Q 783.01 893.33 790.14 899.80
  Q 797.85 906.81 808.78 906.72
  C 819.15 906.63 827.51 902.33 832.59 893.25
  Q 840.14 879.74 834.07 866.50
  Q 832.60 863.30 830.09 860.51
  Q 827.11 857.21 824.50 855.87
  Q 818.28 852.69 808.40 851.72
  C 806.50 851.54 804.77 852.25 802.87 852.58"
/>
<path stroke="#5aa190" vector-effect="non-scaling-stroke" d="
  M 609.87 853.88
  Q 605.22 852.33 600.74 852.33
  Q 597.15 852.33 592.70 853.91
  Q 588.08 855.55 585.27 857.50
  Q 577.54 862.87 574.75 873.25
  C 571.32 886.03 577.84 898.72 589.29 904.49
  Q 598.27 909.02 609.30 906.34
  Q 615.43 904.85 618.55 902.27
  C 632.95 890.39 634.72 867.77 618.12 856.90
  C 615.65 855.28 612.29 854.68 609.87 853.88"
/>
<path stroke="#b38c4f" vector-effect="non-scaling-stroke" d="
  M 418.71 844.38
  C 422.67 838.75 418.38 831.70 412.70 829.78
  Q 406.99 827.86 401.18 829.29
  C 396.79 830.38 399.43 845.55 400.35 848.70
  C 401.01 850.97 402.20 851.93 404.53 851.89
  Q 413.52 851.76 418.71 844.38"
/>
<path stroke="#b38c4f" vector-effect="non-scaling-stroke" d="
  M 830.6186 873.6688
  A 22.34 22.05 -14.6 0 0 803.4419 857.9620
  A 22.34 22.05 -14.6 0 0 787.3814 884.9312
  A 22.34 22.05 -14.6 0 0 814.5581 900.6380
  A 22.34 22.05 -14.6 0 0 830.6186 873.6688"
/>
<path stroke="#b38c4f" vector-effect="non-scaling-stroke" d="
  M 616.87 895.62
  Q 623.75 888.07 624.04 879.24
  Q 624.49 866.08 612.77 860.76
  Q 600.63 855.25 590.92 860.77
  C 578.25 867.96 575.76 885.28 586.33 895.48
  Q 595.33 904.16 608.06 901.31
  Q 612.64 900.28 616.87 895.62"
/>
<path stroke="#b38c4f" vector-effect="non-scaling-stroke" d="
  M 424.66 904.23
  C 420.26 899.23 412.82 896.01 405.97 896.74
  C 399.71 897.41 399.88 901.91 399.58 907.47
  C 399.36 911.53 399.97 922.70 403.21 925.64
  C 407.52 929.56 423.40 924.48 426.66 919.78
  C 429.86 915.19 428.17 908.22 424.66 904.23"
/>
</g>
<path fill="#6d5845" d="
  M 989.74 1087.31
  L 1023.04 1369.46
  Q 1023.12 1370.16 1022.57 1369.72
  L 770.77 1167.76
  Q 770.08 1167.20 769.83 1168.06
  C 768.77 1171.73 766.77 1175.73 765.53 1178.62
  Q 711.72 1303.86 658.03 1428.72
  Q 657.68 1429.52 657.37 1428.71
  L 540.40 1128.21
  A 0.56 0.55 -28.9 0 0 539.55 1127.97
  L 312.12 1297.70
  Q 311.56 1298.12 311.67 1297.43
  L 360.35 980.26
  Q 360.42 979.76 359.93 979.65
  Q 354.47 978.49 350.00 979.02
  Q 214.09 995.19 78.16 1011.13
  Q 77.49 1011.21 77.91 1010.68
  L 279.87 758.82
  A 0.38 0.37 -59.5 0 0 279.72 758.24
  L 18.94 646.13
  Q 18.12 645.78 18.95 645.45
  L 297.88 536.86
  A 1.82 1.82 0.0 0 0 298.91 535.83
  Q 303.18 524.84 309.63 514.96
  Q 309.90 514.54 309.60 514.13
  L 149.95 300.24
  A 0.33 0.33 0.0 0 1 150.27 299.72
  L 468.90 348.65
  Q 469.83 348.79 469.72 347.86
  L 436.43 66.27
  A 0.36 0.36 0.0 0 1 437.01 65.95
  L 688.78 267.94
  Q 689.14 268.23 689.32 267.81
  L 801.60 6.52
  A 0.19 0.19 0.0 0 1 801.95 6.53
  L 918.98 307.25
  A 0.74 0.74 0.0 0 0 920.11 307.58
  L 1147.26 137.98
  A 0.34 0.34 0.0 0 1 1147.80 138.31
  L 1098.85 457.05
  Q 1098.72 457.87 1099.54 457.78
  L 1381.24 424.48
  Q 1382.14 424.38 1381.57 425.08
  L 1179.69 676.74
  A 0.45 0.45 0.0 0 0 1179.86 677.44
  L 1440.04 789.30
  Q 1441.40 789.88 1440.02 790.42
  L 1139.97 907.21
  A 0.49 0.49 0.0 0 0 1139.76 907.96
  L 1309.25 1135.03
  Q 1310.03 1136.08 1308.73 1135.88
  L 990.18 1086.89
  Q 989.68 1086.81 989.74 1087.31
  Z
  M 485.13 873.62
  Q 499.54 891.06 498.38 913.87
  C 496.81 944.56 475.10 971.41 445.12 978.02
  Q 438.54 979.47 425.25 979.91
  Q 395.55 980.88 365.89 979.88
  A 0.49 0.49 0.0 0 0 365.39 980.30
  L 318.50 1285.76
  A 0.43 0.42 -14.2 0 0 319.18 1286.16
  L 541.76 1120.01
  A 0.62 0.62 0.0 0 1 542.71 1120.28
  L 657.61 1415.48
  Q 657.92 1416.29 658.27 1415.49
  L 767.89 1160.38
  A 0.85 0.85 0.0 0 1 769.21 1160.06
  L 1016.10 1358.10
  A 0.35 0.35 0.0 0 0 1016.67 1357.78
  L 984.02 1081.47
  Q 983.95 1080.89 984.53 1080.98
  L 1298.22 1129.18
  A 0.19 0.19 0.0 0 0 1298.40 1128.88
  L 1131.78 905.69
  A 0.50 0.50 0.0 0 1 1132.00 904.92
  L 1427.45 789.92
  A 0.30 0.30 0.0 0 0 1427.46 789.36
  L 1171.82 679.45
  A 0.52 0.51 -59.1 0 1 1171.63 678.66
  L 1369.65 431.81
  Q 1370.46 430.80 1369.17 430.95
  L 1093.44 463.49
  A 0.48 0.48 0.0 0 1 1092.91 462.94
  L 1141.02 149.53
  A 0.29 0.29 0.0 0 0 1140.56 149.26
  L 917.96 315.47
  Q 917.08 316.12 916.68 315.10
  L 801.92 20.25
  A 0.41 0.40 46.2 0 0 801.17 20.23
  L 691.59 275.24
  Q 691.14 276.30 690.23 275.57
  L 443.29 77.47
  Q 442.72 77.02 442.81 77.73
  L 475.48 354.23
  A 0.40 0.39 1.2 0 1 475.02 354.66
  L 161.53 306.49
  A 0.29 0.29 0.0 0 0 161.26 306.95
  L 312.68 509.82
  Q 312.97 510.21 313.29 509.84
  Q 321.28 500.57 330.59 492.63
  C 331.84 491.57 333.60 491.21 335.03 490.18
  C 347.57 481.17 360.58 475.76 376.16 472.83
  Q 388.55 470.49 397.50 470.53
  C 417.39 470.60 441.49 475.44 455.79 490.21
  C 465.53 500.25 469.59 514.66 469.57 528.59
  Q 469.56 531.92 468.30 534.15
  C 465.24 539.54 456.80 542.43 450.47 544.18
  C 443.84 546.03 404.09 555.25 405.70 540.83
  Q 405.76 540.29 405.22 540.25
  C 395.65 539.56 385.62 541.19 377.90 547.08
  C 367.92 554.69 363.53 567.96 368.25 579.93
  Q 372.87 591.63 385.07 595.41
  C 390.97 597.25 396.37 598.08 402.21 596.47
  Q 405.52 595.55 406.07 591.52
  Q 407.06 584.27 408.00 577.02
  C 408.63 572.23 414.53 569.84 418.80 568.34
  Q 438.25 561.47 458.90 562.72
  Q 465.51 563.12 471.79 565.14
  C 478.80 567.39 479.05 571.91 479.73 579.09
  Q 482.92 612.99 480.89 647.00
  C 480.41 654.98 480.01 666.71 471.76 668.01
  Q 451.82 671.16 429.98 668.54
  Q 427.60 668.25 425.14 666.59
  Q 424.72 666.31 424.24 666.42
  Q 398.86 672.13 373.38 668.93
  Q 362.89 667.62 353.94 664.47
  Q 331.03 656.40 314.27 639.02
  Q 288.24 612.03 290.67 573.50
  Q 291.47 560.77 296.28 543.46
  Q 296.46 542.80 295.82 543.05
  L 31.79 645.83
  A 0.19 0.19 0.0 0 0 31.78 646.18
  L 287.62 756.15
  Q 288.27 756.43 287.83 756.98
  L 89.51 1004.28
  A 0.31 0.30 -73.7 0 0 89.78 1004.78
  L 340.39 975.16
  Q 341.19 975.06 340.71 974.41
  Q 340.23 973.78 339.83 972.69
  Q 336.94 964.94 335.94 956.73
  C 330.62 913.21 330.29 865.55 331.47 825.25
  Q 331.91 810.25 333.44 800.24
  C 334.04 796.32 336.52 792.89 340.22 790.89
  Q 356.51 782.08 376.26 780.23
  C 400.17 778.00 424.19 779.28 445.94 788.19
  Q 465.70 796.28 475.07 815.72
  Q 486.92 840.30 474.33 864.26
  Q 474.08 864.74 474.52 865.06
  Q 482.91 870.94 485.13 873.62
  Z
  M 463.84 527.56
  C 463.77 513.72 457.97 496.60 445.46 489.06
  C 419.60 473.46 389.24 472.87 361.14 482.86
  C 359.27 483.53 356.86 483.65 355.25 484.40
  C 331.15 495.77 312.64 514.09 303.73 539.53
  C 295.80 562.16 293.03 586.89 301.65 609.42
  Q 305.13 618.50 311.45 626.75
  Q 323.85 642.91 341.56 653.01
  Q 349.97 657.80 360.04 660.42
  Q 393.09 669.01 426.74 659.70
  Q 427.28 659.55 427.56 660.02
  L 428.69 661.90
  A 1.15 1.15 0.0 0 0 429.41 662.42
  Q 434.73 663.65 441.75 663.83
  Q 456.01 664.21 467.25 662.97
  Q 469.68 662.70 471.96 661.79
  Q 472.44 661.60 472.65 661.13
  Q 473.75 658.55 474.12 655.74
  Q 475.75 643.42 475.93 631.00
  Q 476.32 605.77 473.98 580.64
  Q 473.61 576.69 473.19 572.53
  A 1.14 1.11 13.9 0 0 472.66 571.68
  Q 468.82 569.32 464.23 568.94
  Q 448.30 567.62 432.51 570.10
  Q 429.54 570.57 422.49 572.58
  Q 417.57 574.00 414.27 576.86
  A 1.35 1.32 73.5 0 0 413.81 577.73
  Q 412.89 584.99 411.58 592.19
  C 410.86 596.16 409.66 599.20 406.13 600.84
  C 401.50 602.99 396.18 603.09 390.88 602.57
  Q 380.25 601.53 372.50 594.97
  C 359.19 583.69 356.87 565.79 366.51 550.86
  C 367.85 548.77 369.93 546.08 371.83 544.61
  Q 386.24 533.39 404.61 534.50
  Q 407.99 534.71 409.52 536.12
  Q 411.60 538.04 411.36 541.48
  A 0.62 0.61 9.6 0 0 411.82 542.12
  C 417.88 543.67 424.41 542.65 430.49 542.29
  Q 437.87 541.86 442.38 540.86
  C 447.46 539.74 459.35 536.98 462.64 532.43
  Q 463.85 530.75 463.84 527.56
  Z
  M 450.03 971.32
  C 465.03 966.22 477.42 954.51 485.25 941.01
  Q 486.95 938.07 488.28 933.95
  C 492.09 922.18 494.05 911.83 491.52 899.27
  Q 491.04 896.89 490.60 894.49
  Q 490.11 891.88 489.15 889.90
  Q 482.01 875.19 467.26 867.48
  A 1.47 1.47 0.0 0 1 466.79 865.27
  C 473.47 856.89 475.51 846.70 475.05 836.20
  C 474.26 817.86 461.84 802.10 445.74 794.50
  Q 434.01 788.97 421.24 786.97
  Q 399.30 783.53 377.40 785.79
  Q 365.96 786.96 359.73 788.60
  C 354.38 790.01 339.69 794.51 338.57 801.10
  Q 337.36 808.33 337.51 823.05
  Q 337.52 823.56 337.28 824.01
  Q 337.00 824.56 336.98 825.50
  C 336.18 870.39 336.65 913.74 341.25 955.19
  C 341.85 960.61 342.92 965.32 344.67 970.11
  A 2.92 2.91 -5.1 0 0 346.90 971.97
  C 359.83 974.21 370.62 974.38 386.03 974.62
  Q 411.66 975.02 437.25 973.48
  Q 445.06 973.01 450.03 971.32
  Z"
/>
<path fill="#f8c059" d="
  M 485.13 873.62
  Q 482.91 870.94 474.52 865.06
  Q 474.08 864.74 474.33 864.26
  Q 486.92 840.30 475.07 815.72
  Q 465.70 796.28 445.94 788.19
  C 424.19 779.28 400.17 778.00 376.26 780.23
  Q 356.51 782.08 340.22 790.89
  C 336.52 792.89 334.04 796.32 333.44 800.24
  Q 331.91 810.25 331.47 825.25
  C 330.29 865.55 330.62 913.21 335.94 956.73
  Q 336.94 964.94 339.83 972.69
  Q 340.23 973.78 340.71 974.41
  Q 341.19 975.06 340.39 975.16
  L 89.78 1004.78
  A 0.31 0.30 -73.7 0 1 89.51 1004.28
  L 287.83 756.98
  Q 288.27 756.43 287.62 756.15
  L 31.78 646.18
  A 0.19 0.19 0.0 0 1 31.79 645.83
  L 295.82 543.05
  Q 296.46 542.80 296.28 543.46
  Q 291.47 560.77 290.67 573.50
  Q 288.24 612.03 314.27 639.02
  Q 331.03 656.40 353.94 664.47
  Q 362.89 667.62 373.38 668.93
  Q 398.86 672.13 424.24 666.42
  Q 424.72 666.31 425.14 666.59
  Q 427.60 668.25 429.98 668.54
  Q 451.82 671.16 471.76 668.01
  C 480.01 666.71 480.41 654.98 480.89 647.00
  Q 482.92 612.99 479.73 579.09
  C 479.05 571.91 478.80 567.39 471.79 565.14
  Q 465.51 563.12 458.90 562.72
  Q 438.25 561.47 418.80 568.34
  C 414.53 569.84 408.63 572.23 408.00 577.02
  Q 407.06 584.27 406.07 591.52
  Q 405.52 595.55 402.21 596.47
  C 396.37 598.08 390.97 597.25 385.07 595.41
  Q 372.87 591.63 368.25 579.93
  C 363.53 567.96 367.92 554.69 377.90 547.08
  C 385.62 541.19 395.65 539.56 405.22 540.25
  Q 405.76 540.29 405.70 540.83
  C 404.09 555.25 443.84 546.03 450.47 544.18
  C 456.80 542.43 465.24 539.54 468.30 534.15
  Q 469.56 531.92 469.57 528.59
  C 469.59 514.66 465.53 500.25 455.79 490.21
  C 441.49 475.44 417.39 470.60 397.50 470.53
  Q 388.55 470.49 376.16 472.83
  C 360.58 475.76 347.57 481.17 335.03 490.18
  C 333.60 491.21 331.84 491.57 330.59 492.63
  Q 321.28 500.57 313.29 509.84
  Q 312.97 510.21 312.68 509.82
  L 161.26 306.95
  A 0.29 0.29 0.0 0 1 161.53 306.49
  L 475.02 354.66
  A 0.40 0.39 1.2 0 0 475.48 354.23
  L 442.81 77.73
  Q 442.72 77.02 443.29 77.47
  L 690.23 275.57
  Q 691.14 276.30 691.59 275.24
  L 801.17 20.23
  A 0.41 0.40 46.2 0 1 801.92 20.25
  L 916.68 315.10
  Q 917.08 316.12 917.96 315.47
  L 1140.56 149.26
  A 0.29 0.29 0.0 0 1 1141.02 149.53
  L 1092.91 462.94
  A 0.48 0.48 0.0 0 0 1093.44 463.49
  L 1369.17 430.95
  Q 1370.46 430.80 1369.65 431.81
  L 1171.63 678.66
  A 0.52 0.51 -59.1 0 0 1171.82 679.45
  L 1427.46 789.36
  A 0.30 0.30 0.0 0 1 1427.45 789.92
  L 1132.00 904.92
  A 0.50 0.50 0.0 0 0 1131.78 905.69
  L 1298.40 1128.88
  A 0.19 0.19 0.0 0 1 1298.22 1129.18
  L 984.53 1080.98
  Q 983.95 1080.89 984.02 1081.47
  L 1016.67 1357.78
  A 0.35 0.35 0.0 0 1 1016.10 1358.10
  L 769.21 1160.06
  A 0.85 0.85 0.0 0 0 767.89 1160.38
  L 658.27 1415.49
  Q 657.92 1416.29 657.61 1415.48
  L 542.71 1120.28
  A 0.62 0.62 0.0 0 0 541.76 1120.01
  L 319.18 1286.16
  A 0.43 0.42 -14.2 0 1 318.50 1285.76
  L 365.39 980.30
  A 0.49 0.49 0.0 0 1 365.89 979.88
  Q 395.55 980.88 425.25 979.91
  Q 438.54 979.47 445.12 978.02
  C 475.10 971.41 496.81 944.56 498.38 913.87
  Q 499.54 891.06 485.13 873.62
  Z
  M 788.51 484.99
  C 787.45 473.16 772.35 471.22 763.37 469.91
  Q 736.77 466.04 711.12 474.23
  C 708.76 474.98 706.38 476.54 703.95 477.53
  C 697.56 480.13 695.73 486.02 695.79 492.76
  Q 696.03 521.47 696.82 534.25
  Q 699.07 570.57 703.09 606.73
  Q 706.27 635.24 709.81 650.19
  C 711.04 655.37 713.40 663.98 717.49 665.73
  Q 724.62 668.78 734.00 668.96
  Q 741.59 669.10 749.17 668.83
  C 753.45 668.69 760.09 668.78 765.57 667.97
  C 774.41 666.65 780.71 665.65 783.21 656.79
  C 785.09 650.14 786.09 639.79 786.82 631.35
  Q 791.55 576.03 790.44 520.50
  Q 790.09 502.71 788.51 484.99
  Z
  M 946.62 638.12
  Q 964.43 619.17 969.89 594.86
  Q 975.06 571.77 969.67 550.99
  Q 965.85 536.31 964.07 532.14
  C 951.21 501.99 927.74 479.72 895.13 472.61
  Q 865.54 466.15 833.24 470.30
  Q 823.78 471.51 812.23 476.70
  Q 808.73 478.27 806.85 480.61
  Q 803.72 484.52 802.66 489.39
  Q 799.24 505.03 798.17 522.49
  Q 795.08 572.86 801.64 622.86
  C 803.13 634.23 806.64 660.88 816.96 664.36
  Q 826.79 667.68 840.76 668.39
  C 854.11 669.07 868.25 669.22 880.94 667.45
  C 897.38 665.16 915.74 660.04 930.00 651.23
  Q 934.38 648.52 938.63 645.62
  Q 941.28 643.81 946.62 638.12
  Z
  M 987.38 476.13
  C 983.46 479.65 982.29 487.92 981.65 493.17
  Q 981.23 496.71 981.08 502.34
  Q 979.36 566.27 984.76 630.01
  Q 985.74 641.62 988.19 653.03
  C 989.05 657.05 990.94 663.77 995.37 665.17
  C 1000.22 666.69 1005.69 667.46 1011.27 667.75
  Q 1055.34 670.04 1099.25 665.50
  C 1108.17 664.58 1130.25 662.47 1132.05 654.61
  Q 1133.23 649.46 1133.41 643.25
  Q 1133.94 625.27 1131.05 607.51
  C 1129.67 599.07 1127.28 595.09 1118.61 594.41
  Q 1111.61 593.86 1107.50 594.11
  Q 1087.53 595.33 1067.50 595.58
  A 0.75 0.75 0.0 0 1 1066.77 594.63
  Q 1066.99 593.81 1068.00 593.79
  Q 1077.64 593.55 1087.16 591.97
  C 1093.39 590.94 1095.14 586.27 1095.57 580.50
  C 1096.09 573.47 1094.98 542.59 1085.50 540.87
  Q 1075.47 539.06 1065.29 539.20
  A 0.61 0.61 0.0 0 1 1064.67 538.62
  L 1064.63 537.87
  Q 1064.60 537.16 1065.32 537.14
  Q 1085.07 536.79 1104.74 535.13
  C 1111.14 534.59 1119.52 533.34 1120.89 525.57
  Q 1123.56 510.49 1122.57 495.21
  C 1122.19 489.23 1122.21 474.83 1115.53 472.63
  Q 1108.15 470.20 1096.76 469.65
  Q 1050.76 467.44 1004.89 471.50
  C 1001.92 471.76 998.44 472.63 995.39 472.85
  Q 990.64 473.19 987.38 476.13
  Z
  M 606.12 561.88
  Q 604.83 570.04 601.10 579.13
  Q 596.39 590.60 585.77 589.35
  C 578.16 588.46 572.77 582.81 570.83 575.61
  Q 564.52 552.25 565.89 526.74
  Q 567.05 505.24 568.26 483.74
  C 568.53 479.05 563.87 476.97 559.96 475.96
  Q 546.12 472.34 531.90 472.11
  Q 525.72 472.01 519.62 472.15
  C 512.70 472.30 502.80 472.48 497.30 475.95
  Q 492.59 478.92 490.56 484.69
  Q 488.43 490.72 487.88 495.26
  Q 482.82 536.56 487.27 577.82
  Q 488.63 590.41 490.64 597.50
  Q 493.42 607.28 498.52 616.23
  Q 504.66 627.02 509.27 632.48
  Q 517.91 642.73 530.09 650.88
  Q 539.12 656.92 547.44 660.81
  Q 561.64 667.43 577.88 669.09
  Q 620.73 673.48 652.23 645.47
  Q 678.61 622.02 683.61 586.07
  Q 688.90 548.09 687.21 512.75
  Q 686.69 501.82 684.97 491.03
  C 683.98 484.82 682.27 480.45 677.02 478.18
  C 668.07 474.32 659.05 474.23 647.00 473.59
  C 643.84 473.43 640.81 474.06 638.33 474.06
  Q 628.09 474.06 618.16 476.50
  C 613.94 477.54 609.28 479.37 609.05 484.51
  Q 608.34 500.13 609.15 515.75
  Q 610.20 536.14 606.12 561.88
  Z
  M 733.27 813.03
  C 728.28 818.50 725.12 823.58 721.23 830.16
  C 693.44 877.12 709.03 934.47 754.02 963.79
  C 760.04 967.71 768.64 971.30 774.82 973.40
  C 798.78 981.51 826.27 982.26 849.52 971.53
  Q 858.09 967.58 866.88 961.62
  Q 886.17 948.53 897.16 928.46
  Q 911.67 901.96 910.41 870.26
  Q 909.55 848.68 898.84 830.02
  C 898.08 828.68 897.72 827.33 896.91 826.08
  Q 880.93 801.30 854.12 788.99
  C 853.09 788.51 851.93 788.41 851.00 788.02
  Q 837.13 782.27 818.50 780.05
  Q 790.75 776.74 767.15 787.37
  Q 766.01 787.88 764.79 788.25
  Q 763.43 788.66 762.51 789.20
  Q 746.12 798.93 733.27 813.03
  Z
  M 549.72 793.89
  Q 549.56 793.89 549.38 793.88
  A 1.24 1.20 -59.2 0 0 548.57 794.10
  Q 533.46 804.81 523.09 816.59
  C 522.07 817.75 521.19 820.10 519.92 821.64
  Q 514.72 827.96 511.30 835.29
  Q 508.62 841.04 505.56 850.26
  C 498.00 873.06 498.69 898.57 508.97 920.50
  Q 520.91 945.99 544.22 962.44
  Q 546.78 964.25 550.22 965.95
  C 555.45 968.54 560.98 971.46 566.00 973.28
  C 592.78 982.95 625.19 983.19 650.19 968.11
  C 655.34 965.00 660.36 962.34 664.82 958.37
  C 670.12 953.66 675.94 948.68 680.21 943.38
  C 697.63 921.75 704.98 895.63 703.30 868.01
  C 700.87 828.06 671.26 795.65 633.50 784.76
  Q 611.06 778.29 589.99 780.00
  Q 569.07 781.69 550.01 793.79
  Q 549.87 793.88 549.72 793.89
  Z
  M 923.88 789.63
  Q 920.28 791.40 918.70 794.27
  Q 917.64 796.18 917.54 800.71
  Q 916.65 840.39 917.70 860.00
  Q 919.10 885.88 920.13 900.88
  Q 921.62 922.47 924.75 946.50
  C 925.80 954.54 926.99 963.92 930.49 971.29
  C 932.17 974.81 934.18 976.06 937.83 976.88
  Q 946.50 978.85 953.75 978.99
  C 962.33 979.15 993.41 979.04 997.24 970.74
  Q 998.08 968.94 998.88 967.08
  C 1000.57 963.15 1000.99 958.43 1001.78 954.17
  Q 1001.88 953.65 1002.35 953.89
  Q 1012.56 959.09 1041.53 972.64
  C 1048.30 975.81 1058.29 981.34 1064.64 976.64
  C 1069.02 973.40 1073.39 967.98 1076.55 962.97
  C 1085.07 949.45 1093.00 930.42 1093.26 914.25
  C 1093.33 909.70 1091.96 906.77 1088.00 904.14
  Q 1069.65 891.94 1050.14 882.26
  A 0.73 0.73 0.0 0 1 1049.95 881.10
  Q 1065.24 865.54 1078.76 849.23
  Q 1086.29 840.16 1088.22 835.38
  Q 1091.27 827.82 1085.61 820.87
  Q 1072.74 805.06 1060.97 795.28
  C 1056.45 791.52 1047.70 784.54 1041.60 786.86
  Q 1033.84 789.81 1024.06 797.13
  Q 1015.81 803.30 1007.35 809.36
  Q 1006.91 809.68 1006.87 809.13
  Q 1006.35 801.71 1005.66 794.27
  Q 1005.27 790.10 1003.73 788.09
  C 1000.09 783.35 989.35 781.94 983.77 781.39
  Q 960.96 779.15 938.60 783.99
  Q 932.67 785.28 923.88 789.63
  Z"
/>
<path fill="#6d5845" d="
  M 763.37 469.91
  C 772.35 471.22 787.45 473.16 788.51 484.99
  Q 790.09 502.71 790.44 520.50
  Q 791.55 576.03 786.82 631.35
  C 786.09 639.79 785.09 650.14 783.21 656.79
  C 780.71 665.65 774.41 666.65 765.57 667.97
  C 760.09 668.78 753.45 668.69 749.17 668.83
  Q 741.59 669.10 734.00 668.96
  Q 724.62 668.78 717.49 665.73
  C 713.40 663.98 711.04 655.37 709.81 650.19
  Q 706.27 635.24 703.09 606.73
  Q 699.07 570.57 696.82 534.25
  Q 696.03 521.47 695.79 492.76
  C 695.73 486.02 697.56 480.13 703.95 477.53
  C 706.38 476.54 708.76 474.98 711.12 474.23
  Q 736.77 466.04 763.37 469.91
  Z
  M 718.44 657.52
  C 719.33 659.79 719.15 660.44 721.49 661.03
  C 734.58 664.36 748.16 663.95 761.25 662.80
  C 765.01 662.47 775.67 661.38 776.99 657.02
  Q 778.80 651.04 779.73 643.24
  C 784.97 599.48 785.47 554.88 784.39 510.86
  C 784.17 501.66 783.35 492.54 782.52 483.38
  Q 782.48 482.88 782.15 482.50
  C 777.54 477.20 765.37 475.34 758.51 474.72
  Q 737.21 472.79 716.65 478.03
  C 711.93 479.24 701.93 482.60 701.68 488.25
  Q 700.97 504.03 701.71 521.25
  Q 704.31 581.65 713.77 641.35
  Q 714.90 648.53 718.44 657.52
  Z"
/>
<path fill="#6d5845" d="
  M 946.62 638.12
  Q 941.28 643.81 938.63 645.62
  Q 934.38 648.52 930.00 651.23
  C 915.74 660.04 897.38 665.16 880.94 667.45
  C 868.25 669.22 854.11 669.07 840.76 668.39
  Q 826.79 667.68 816.96 664.36
  C 806.64 660.88 803.13 634.23 801.64 622.86
  Q 795.08 572.86 798.17 522.49
  Q 799.24 505.03 802.66 489.39
  Q 803.72 484.52 806.85 480.61
  Q 808.73 478.27 812.23 476.70
  Q 823.78 471.51 833.24 470.30
  Q 865.54 466.15 895.13 472.61
  C 927.74 479.72 951.21 501.99 964.07 532.14
  Q 965.85 536.31 969.67 550.99
  Q 975.06 571.77 969.89 594.86
  Q 964.43 619.17 946.62 638.12
  Z
  M 936.62 639.62
  Q 946.96 631.17 953.28 620.79
  Q 957.91 613.18 961.65 602.89
  C 969.64 580.84 967.68 555.82 958.51 534.27
  Q 954.59 525.07 953.33 522.80
  Q 936.74 492.98 905.08 481.44
  Q 896.60 478.34 885.71 476.63
  C 866.94 473.68 844.22 472.72 825.29 477.61
  C 816.96 479.76 811.19 481.47 808.74 489.70
  Q 806.19 498.30 805.30 507.25
  Q 799.66 564.36 807.04 621.26
  C 808.29 630.87 810.01 642.43 813.74 651.39
  Q 815.59 655.85 816.99 657.26
  C 820.88 661.17 833.27 661.92 840.38 662.56
  Q 869.90 665.25 896.54 658.38
  C 897.89 658.04 899.40 658.34 900.50 658.01
  Q 913.79 654.05 922.00 649.78
  Q 928.05 646.64 936.62 639.62
  Z"
/>
<path fill="#6d5845" d="
  M 987.38 476.13
  Q 990.64 473.19 995.39 472.85
  C 998.44 472.63 1001.92 471.76 1004.89 471.50
  Q 1050.76 467.44 1096.76 469.65
  Q 1108.15 470.20 1115.53 472.63
  C 1122.21 474.83 1122.19 489.23 1122.57 495.21
  Q 1123.56 510.49 1120.89 525.57
  C 1119.52 533.34 1111.14 534.59 1104.74 535.13
  Q 1085.07 536.79 1065.32 537.14
  Q 1064.60 537.16 1064.63 537.87
  L 1064.67 538.62
  A 0.61 0.61 0.0 0 0 1065.29 539.20
  Q 1075.47 539.06 1085.50 540.87
  C 1094.98 542.59 1096.09 573.47 1095.57 580.50
  C 1095.14 586.27 1093.39 590.94 1087.16 591.97
  Q 1077.64 593.55 1068.00 593.79
  Q 1066.99 593.81 1066.77 594.63
  A 0.75 0.75 0.0 0 0 1067.50 595.58
  Q 1087.53 595.33 1107.50 594.11
  Q 1111.61 593.86 1118.61 594.41
  C 1127.28 595.09 1129.67 599.07 1131.05 607.51
  Q 1133.94 625.27 1133.41 643.25
  Q 1133.23 649.46 1132.05 654.61
  C 1130.25 662.47 1108.17 664.58 1099.25 665.50
  Q 1055.34 670.04 1011.27 667.75
  C 1005.69 667.46 1000.22 666.69 995.37 665.17
  C 990.94 663.77 989.05 657.05 988.19 653.03
  Q 985.74 641.62 984.76 630.01
  Q 979.36 566.27 981.08 502.34
  Q 981.23 496.71 981.65 493.17
  C 982.29 487.92 983.46 479.65 987.38 476.13
  Z
  M 1061.92 588.36
  Q 1074.71 588.37 1087.31 586.26
  Q 1087.80 586.18 1088.07 585.76
  Q 1089.51 583.50 1089.75 580.76
  Q 1091.30 563.58 1085.08 547.65
  A 2.16 2.14 83.8 0 0 1083.44 546.32
  Q 1071.80 544.34 1060.02 544.60
  Q 1059.30 544.61 1059.28 543.90
  L 1058.94 532.65
  A 0.73 0.73 0.0 0 1 1059.64 531.90
  Q 1079.38 531.21 1099.25 529.91
  Q 1107.28 529.38 1113.34 527.36
  C 1114.46 526.98 1115.26 526.10 1115.42 525.00
  Q 1118.58 503.25 1115.36 481.52
  Q 1114.86 478.16 1112.29 477.47
  Q 1107.41 476.16 1098.24 475.63
  Q 1053.46 473.07 1008.75 476.80
  Q 1002.57 477.32 998.36 477.90
  C 993.26 478.60 990.15 478.83 988.85 484.00
  Q 987.23 490.47 987.03 496.01
  Q 984.83 557.45 989.73 618.74
  Q 990.84 632.55 992.83 646.25
  Q 993.79 652.80 996.08 658.49
  A 2.15 2.15 0.0 0 0 997.52 659.77
  Q 1003.76 661.41 1010.50 661.86
  Q 1026.99 662.96 1043.50 662.77
  C 1066.93 662.51 1090.03 661.27 1113.21 657.69
  C 1117.17 657.08 1121.18 655.61 1125.05 654.46
  A 1.93 1.92 -0.3 0 0 1126.36 653.14
  Q 1127.80 648.12 1127.94 642.51
  Q 1128.39 624.22 1125.11 606.23
  Q 1124.61 603.54 1122.89 601.37
  A 1.53 1.47 -11.9 0 0 1122.06 600.85
  Q 1115.50 599.38 1108.24 599.82
  Q 1086.71 601.15 1061.95 601.41
  Q 1061.35 601.41 1061.35 600.81
  L 1061.34 588.94
  Q 1061.34 588.36 1061.92 588.36
  Z"
/>
<path fill="#6d5845" d="
  M 606.12 561.88
  Q 610.20 536.14 609.15 515.75
  Q 608.34 500.13 609.05 484.51
  C 609.28 479.37 613.94 477.54 618.16 476.50
  Q 628.09 474.06 638.33 474.06
  C 640.81 474.06 643.84 473.43 647.00 473.59
  C 659.05 474.23 668.07 474.32 677.02 478.18
  C 682.27 480.45 683.98 484.82 684.97 491.03
  Q 686.69 501.82 687.21 512.75
  Q 688.90 548.09 683.61 586.07
  Q 678.61 622.02 652.23 645.47
  Q 620.73 673.48 577.88 669.09
  Q 561.64 667.43 547.44 660.81
  Q 539.12 656.92 530.09 650.88
  Q 517.91 642.73 509.27 632.48
  Q 504.66 627.02 498.52 616.23
  Q 493.42 607.28 490.64 597.50
  Q 488.63 590.41 487.27 577.82
  Q 482.82 536.56 487.88 495.26
  Q 488.43 490.72 490.56 484.69
  Q 492.59 478.92 497.30 475.95
  C 502.80 472.48 512.70 472.30 519.62 472.15
  Q 525.72 472.01 531.90 472.11
  Q 546.12 472.34 559.96 475.96
  C 563.87 476.97 568.53 479.05 568.26 483.74
  Q 567.05 505.24 565.89 526.74
  Q 564.52 552.25 570.83 575.61
  C 572.77 582.81 578.16 588.46 585.77 589.35
  Q 596.39 590.60 601.10 579.13
  Q 604.83 570.04 606.12 561.88
  Z
  M 573.62 590.38
  Q 568.31 585.80 565.59 576.99
  C 556.49 547.58 561.22 516.39 562.51 485.75
  Q 562.56 484.67 562.38 483.48
  Q 562.29 482.95 561.80 482.74
  Q 556.11 480.35 549.00 479.33
  C 533.78 477.17 517.37 476.30 502.78 480.13
  C 496.99 481.65 495.93 486.08 494.48 491.99
  Q 492.56 499.79 491.62 514.75
  Q 489.71 545.05 492.70 575.25
  C 493.85 586.78 495.57 597.17 500.14 606.52
  C 502.05 610.41 503.73 614.70 505.88 618.04
  Q 512.75 628.70 521.90 637.47
  Q 524.49 639.95 528.96 643.07
  Q 532.66 645.65 536.25 648.39
  Q 542.34 653.06 554.71 657.91
  C 555.39 658.18 555.81 658.04 556.41 658.26
  Q 587.14 669.37 618.23 659.28
  C 619.46 658.88 620.74 659.04 621.99 658.53
  Q 631.82 654.46 640.36 648.11
  Q 650.60 640.48 653.36 637.38
  Q 662.37 627.30 668.81 615.53
  Q 671.39 610.81 673.38 604.65
  Q 676.01 596.49 676.58 593.27
  Q 684.50 548.17 680.81 502.50
  C 680.53 499.02 679.28 486.66 676.53 484.67
  Q 673.93 482.79 668.98 481.79
  Q 643.85 476.70 618.86 482.27
  Q 617.30 482.61 615.04 484.14
  A 0.96 0.93 72.3 0 0 614.63 484.96
  C 614.79 488.13 614.35 491.44 614.41 494.35
  Q 614.81 511.67 614.72 529.00
  C 614.63 546.76 612.86 566.03 605.36 582.85
  Q 601.17 592.25 592.03 594.44
  C 586.18 595.85 578.18 594.31 573.62 590.38
  Z"
/>
<path fill="#47eada" d="
  M 718.44 657.52
  Q 714.90 648.53 713.77 641.35
  Q 704.31 581.65 701.71 521.25
  Q 700.97 504.03 701.68 488.25
  C 701.93 482.60 711.93 479.24 716.65 478.03
  Q 737.21 472.79 758.51 474.72
  C 765.37 475.34 777.54 477.20 782.15 482.50
  Q 782.48 482.88 782.52 483.38
  C 783.35 492.54 784.17 501.66 784.39 510.86
  C 785.47 554.88 784.97 599.48 779.73 643.24
  Q 778.80 651.04 776.99 657.02
  C 775.67 661.38 765.01 662.47 761.25 662.80
  C 748.16 663.95 734.58 664.36 721.49 661.03
  C 719.15 660.44 719.33 659.79 718.44 657.52
  Z"
/>
<path fill="#47eada" d="
  M 936.62 639.62
  Q 928.05 646.64 922.00 649.78
  Q 913.79 654.05 900.50 658.01
  C 899.40 658.34 897.89 658.04 896.54 658.38
  Q 869.90 665.25 840.38 662.56
  C 833.27 661.92 820.88 661.17 816.99 657.26
  Q 815.59 655.85 813.74 651.39
  C 810.01 642.43 808.29 630.87 807.04 621.26
  Q 799.66 564.36 805.30 507.25
  Q 806.19 498.30 808.74 489.70
  C 811.19 481.47 816.96 479.76 825.29 477.61
  C 844.22 472.72 866.94 473.68 885.71 476.63
  Q 896.60 478.34 905.08 481.44
  Q 936.74 492.98 953.33 522.80
  Q 954.59 525.07 958.51 534.27
  C 967.68 555.82 969.64 580.84 961.65 602.89
  Q 957.91 613.18 953.28 620.79
  Q 946.96 631.17 936.62 639.62
  Z
  M 865.63 585.62
  C 867.14 590.19 870.48 592.29 875.36 592.71
  C 889.61 593.94 907.24 587.53 906.63 570.66
  C 906.19 558.68 896.11 549.37 885.47 545.91
  C 880.59 544.31 868.75 543.15 865.41 548.76
  C 860.45 557.11 862.38 575.83 865.63 585.62
  Z"
/>
<path fill="#47eada" d="
  M 1061.34 588.94
  L 1061.35 600.81
  Q 1061.35 601.41 1061.95 601.41
  Q 1086.71 601.15 1108.24 599.82
  Q 1115.50 599.38 1122.06 600.85
  A 1.53 1.47 -11.9 0 1 1122.89 601.37
  Q 1124.61 603.54 1125.11 606.23
  Q 1128.39 624.22 1127.94 642.51
  Q 1127.80 648.12 1126.36 653.14
  A 1.93 1.92 -0.3 0 1 1125.05 654.46
  C 1121.18 655.61 1117.17 657.08 1113.21 657.69
  C 1090.03 661.27 1066.93 662.51 1043.50 662.77
  Q 1026.99 662.96 1010.50 661.86
  Q 1003.76 661.41 997.52 659.77
  A 2.15 2.15 0.0 0 1 996.08 658.49
  Q 993.79 652.80 992.83 646.25
  Q 990.84 632.55 989.73 618.74
  Q 984.83 557.45 987.03 496.01
  Q 987.23 490.47 988.85 484.00
  C 990.15 478.83 993.26 478.60 998.36 477.90
  Q 1002.57 477.32 1008.75 476.80
  Q 1053.46 473.07 1098.24 475.63
  Q 1107.41 476.16 1112.29 477.47
  Q 1114.86 478.16 1115.36 481.52
  Q 1118.58 503.25 1115.42 525.00
  C 1115.26 526.10 1114.46 526.98 1113.34 527.36
  Q 1107.28 529.38 1099.25 529.91
  Q 1079.38 531.21 1059.64 531.90
  A 0.73 0.73 0.0 0 0 1058.94 532.65
  L 1059.28 543.90
  Q 1059.30 544.61 1060.02 544.60
  Q 1071.80 544.34 1083.44 546.32
  A 2.16 2.14 83.8 0 1 1085.08 547.65
  Q 1091.30 563.58 1089.75 580.76
  Q 1089.51 583.50 1088.07 585.76
  Q 1087.80 586.18 1087.31 586.26
  Q 1074.71 588.37 1061.92 588.36
  Q 1061.34 588.36 1061.34 588.94
  Z"
/>
<path fill="#47eada" d="
  M 445.46 489.06
  C 457.97 496.60 463.77 513.72 463.84 527.56
  Q 463.85 530.75 462.64 532.43
  C 459.35 536.98 447.46 539.74 442.38 540.86
  Q 437.87 541.86 430.49 542.29
  C 424.41 542.65 417.88 543.67 411.82 542.12
  A 0.62 0.61 9.6 0 1 411.36 541.48
  Q 411.60 538.04 409.52 536.12
  Q 407.99 534.71 404.61 534.50
  Q 386.24 533.39 371.83 544.61
  C 369.93 546.08 367.85 548.77 366.51 550.86
  C 356.87 565.79 359.19 583.69 372.50 594.97
  Q 380.25 601.53 390.88 602.57
  C 396.18 603.09 401.50 602.99 406.13 600.84
  C 409.66 599.20 410.86 596.16 411.58 592.19
  Q 412.89 584.99 413.81 577.73
  A 1.35 1.32 73.5 0 1 414.27 576.86
  Q 417.57 574.00 422.49 572.58
  Q 429.54 570.57 432.51 570.10
  Q 448.30 567.62 464.23 568.94
  Q 468.82 569.32 472.66 571.68
  A 1.14 1.11 13.9 0 1 473.19 572.53
  Q 473.61 576.69 473.98 580.64
  Q 476.32 605.77 475.93 631.00
  Q 475.75 643.42 474.12 655.74
  Q 473.75 658.55 472.65 661.13
  Q 472.44 661.60 471.96 661.79
  Q 469.68 662.70 467.25 662.97
  Q 456.01 664.21 441.75 663.83
  Q 434.73 663.65 429.41 662.42
  A 1.15 1.15 0.0 0 1 428.69 661.90
  L 427.56 660.02
  Q 427.28 659.55 426.74 659.70
  Q 393.09 669.01 360.04 660.42
  Q 349.97 657.80 341.56 653.01
  Q 323.85 642.91 311.45 626.75
  Q 305.13 618.50 301.65 609.42
  C 293.03 586.89 295.80 562.16 303.73 539.53
  C 312.64 514.09 331.15 495.77 355.25 484.40
  C 356.86 483.65 359.27 483.53 361.14 482.86
  C 389.24 472.87 419.60 473.46 445.46 489.06
  Z"
/>
<path fill="#47eada" d="
  M 573.62 590.38
  C 578.18 594.31 586.18 595.85 592.03 594.44
  Q 601.17 592.25 605.36 582.85
  C 612.86 566.03 614.63 546.76 614.72 529.00
  Q 614.81 511.67 614.41 494.35
  C 614.35 491.44 614.79 488.13 614.63 484.96
  A 0.96 0.93 72.3 0 1 615.04 484.14
  Q 617.30 482.61 618.86 482.27
  Q 643.85 476.70 668.98 481.79
  Q 673.93 482.79 676.53 484.67
  C 679.28 486.66 680.53 499.02 680.81 502.50
  Q 684.50 548.17 676.58 593.27
  Q 676.01 596.49 673.38 604.65
  Q 671.39 610.81 668.81 615.53
  Q 662.37 627.30 653.36 637.38
  Q 650.60 640.48 640.36 648.11
  Q 631.82 654.46 621.99 658.53
  C 620.74 659.04 619.46 658.88 618.23 659.28
  Q 587.14 669.37 556.41 658.26
  C 555.81 658.04 555.39 658.18 554.71 657.91
  Q 542.34 653.06 536.25 648.39
  Q 532.66 645.65 528.96 643.07
  Q 524.49 639.95 521.90 637.47
  Q 512.75 628.70 505.88 618.04
  C 503.73 614.70 502.05 610.41 500.14 606.52
  C 495.57 597.17 493.85 586.78 492.70 575.25
  Q 489.71 545.05 491.62 514.75
  Q 492.56 499.79 494.48 491.99
  C 495.93 486.08 496.99 481.65 502.78 480.13
  C 517.37 476.30 533.78 477.17 549.00 479.33
  Q 556.11 480.35 561.80 482.74
  Q 562.29 482.95 562.38 483.48
  Q 562.56 484.67 562.51 485.75
  C 561.22 516.39 556.49 547.58 565.59 576.99
  Q 568.31 585.80 573.62 590.38
  Z"
/>
<path fill="#6d5845" d="
  M 865.63 585.62
  C 862.38 575.83 860.45 557.11 865.41 548.76
  C 868.75 543.15 880.59 544.31 885.47 545.91
  C 896.11 549.37 906.19 558.68 906.63 570.66
  C 907.24 587.53 889.61 593.94 875.36 592.71
  C 870.48 592.29 867.14 590.19 865.63 585.62
  Z
  M 899.85 564.91
  C 894.71 554.90 882.69 548.18 871.40 551.03
  A 1.58 1.52 10.1 0 0 870.55 551.60
  C 866.23 557.51 868.42 574.89 870.06 582.03
  Q 871.32 587.51 877.22 587.31
  C 885.95 587.00 900.74 584.65 900.83 573.12
  C 900.85 570.34 901.15 567.44 899.85 564.91
  Z"
/>
<path fill="#f8c059" d="
  M 871.40 551.03
  C 882.69 548.18 894.71 554.90 899.85 564.91
  C 901.15 567.44 900.85 570.34 900.83 573.12
  C 900.74 584.65 885.95 587.00 877.22 587.31
  Q 871.32 587.51 870.06 582.03
  C 868.42 574.89 866.23 557.51 870.55 551.60
  A 1.58 1.52 10.1 0 1 871.40 551.03
  Z"
/>
<path fill="#6d5845" d="
  M 733.27 813.03
  Q 746.12 798.93 762.51 789.20
  Q 763.43 788.66 764.79 788.25
  Q 766.01 787.88 767.15 787.37
  Q 790.75 776.74 818.50 780.05
  Q 837.13 782.27 851.00 788.02
  C 851.93 788.41 853.09 788.51 854.12 788.99
  Q 880.93 801.30 896.91 826.08
  C 897.72 827.33 898.08 828.68 898.84 830.02
  Q 909.55 848.68 910.41 870.26
  Q 911.67 901.96 897.16 928.46
  Q 886.17 948.53 866.88 961.62
  Q 858.09 967.58 849.52 971.53
  C 826.27 982.26 798.78 981.51 774.82 973.40
  C 768.64 971.30 760.04 967.71 754.02 963.79
  C 709.03 934.47 693.44 877.12 721.23 830.16
  C 725.12 823.58 728.28 818.50 733.27 813.03
  Z
  M 717.34 908.84
  C 723.60 925.88 735.15 942.22 749.69 954.08
  C 753.94 957.55 759.78 960.38 764.89 963.35
  Q 773.57 968.40 786.78 971.37
  Q 789.82 972.06 793.82 972.39
  Q 797.37 972.69 800.93 973.03
  C 807.63 973.67 813.80 973.51 820.37 973.42
  Q 825.37 973.35 829.09 972.63
  Q 846.70 969.24 861.27 958.67
  Q 862.77 957.58 865.95 955.65
  C 869.80 953.30 872.07 950.77 876.35 946.48
  Q 896.43 926.35 902.46 898.39
  C 903.36 894.19 903.75 889.23 904.34 884.66
  Q 905.20 878.02 905.21 874.31
  Q 905.30 854.66 896.56 836.91
  Q 894.65 833.02 888.96 824.37
  Q 887.42 822.03 885.45 819.88
  Q 883.53 817.78 881.60 815.67
  C 869.27 802.19 852.58 792.92 835.05 788.54
  Q 825.42 786.14 815.34 785.23
  C 798.56 783.73 781.36 786.07 766.25 794.02
  Q 764.13 795.14 757.39 799.20
  Q 752.72 802.02 749.12 805.20
  Q 740.38 812.93 732.67 821.69
  Q 732.37 822.03 732.41 822.48
  Q 732.43 822.82 732.28 823.02
  Q 722.54 835.87 717.42 851.13
  C 716.82 852.92 716.88 854.83 716.36 856.75
  Q 710.64 877.95 715.08 899.40
  C 715.40 900.95 716.17 902.96 716.45 904.80
  Q 716.86 907.52 717.34 908.84
  Z"
/>
<path fill="#6d5845" d="
  M 550.01 793.79
  Q 569.07 781.69 589.99 780.00
  Q 611.06 778.29 633.50 784.76
  C 671.26 795.65 700.87 828.06 703.30 868.01
  C 704.98 895.63 697.63 921.75 680.21 943.38
  C 675.94 948.68 670.12 953.66 664.82 958.37
  C 660.36 962.34 655.34 965.00 650.19 968.11
  C 625.19 983.19 592.78 982.95 566.00 973.28
  C 560.98 971.46 555.45 968.54 550.22 965.95
  Q 546.78 964.25 544.22 962.44
  Q 520.91 945.99 508.97 920.50
  C 498.69 898.57 498.00 873.06 505.56 850.26
  Q 508.62 841.04 511.30 835.29
  Q 514.72 827.96 519.92 821.64
  C 521.19 820.10 522.07 817.75 523.09 816.59
  Q 533.46 804.81 548.57 794.10
  A 1.24 1.20 -59.2 0 1 549.38 793.88
  Q 549.56 793.89 549.72 793.89
  Q 549.87 793.88 550.01 793.79
  Z
  M 664.29 951.68
  Q 666.70 949.90 669.20 947.20
  Q 679.19 936.39 685.57 925.75
  C 686.26 924.60 686.42 923.20 687.12 921.92
  C 697.29 903.58 700.03 877.79 696.14 857.43
  C 694.86 850.72 692.66 845.97 690.66 840.25
  Q 689.18 836.04 687.46 833.23
  Q 663.68 794.41 617.70 787.13
  Q 609.02 785.75 600.26 785.45
  Q 573.94 784.54 552.15 798.76
  C 551.23 799.36 550.13 799.38 549.22 800.05
  Q 535.77 810.04 525.55 823.10
  Q 519.21 831.20 515.17 840.13
  C 503.66 865.57 502.34 893.65 514.62 919.16
  Q 523.40 937.41 539.31 951.69
  C 541.40 953.57 543.92 954.90 545.49 956.07
  Q 559.38 966.48 577.23 971.17
  Q 580.59 972.06 583.39 972.35
  Q 588.56 972.90 589.58 973.07
  Q 602.84 975.33 616.17 973.55
  C 619.08 973.16 623.08 973.21 626.51 972.28
  Q 644.75 967.33 659.22 955.43
  Q 659.28 955.38 664.29 951.68
  Z"
/>
<path fill="#6d5845" d="
  M 923.88 789.63
  Q 932.67 785.28 938.60 783.99
  Q 960.96 779.15 983.77 781.39
  C 989.35 781.94 1000.09 783.35 1003.73 788.09
  Q 1005.27 790.10 1005.66 794.27
  Q 1006.35 801.71 1006.87 809.13
  Q 1006.91 809.68 1007.35 809.36
  Q 1015.81 803.30 1024.06 797.13
  Q 1033.84 789.81 1041.60 786.86
  C 1047.70 784.54 1056.45 791.52 1060.97 795.28
  Q 1072.74 805.06 1085.61 820.87
  Q 1091.27 827.82 1088.22 835.38
  Q 1086.29 840.16 1078.76 849.23
  Q 1065.24 865.54 1049.95 881.10
  A 0.73 0.73 0.0 0 0 1050.14 882.26
  Q 1069.65 891.94 1088.00 904.14
  C 1091.96 906.77 1093.33 909.70 1093.26 914.25
  C 1093.00 930.42 1085.07 949.45 1076.55 962.97
  C 1073.39 967.98 1069.02 973.40 1064.64 976.64
  C 1058.29 981.34 1048.30 975.81 1041.53 972.64
  Q 1012.56 959.09 1002.35 953.89
  Q 1001.88 953.65 1001.78 954.17
  C 1000.99 958.43 1000.57 963.15 998.88 967.08
  Q 998.08 968.94 997.24 970.74
  C 993.41 979.04 962.33 979.15 953.75 978.99
  Q 946.50 978.85 937.83 976.88
  C 934.18 976.06 932.17 974.81 930.49 971.29
  C 926.99 963.92 925.80 954.54 924.75 946.50
  Q 921.62 922.47 920.13 900.88
  Q 919.10 885.88 917.70 860.00
  Q 916.65 840.39 917.54 800.71
  Q 917.64 796.18 918.70 794.27
  Q 920.28 791.40 923.88 789.63
  Z
  M 1009.02 815.69
  C 1006.80 817.61 1004.45 819.18 1002.27 821.17
  Q 1001.62 821.76 1001.62 820.88
  Q 1001.50 807.63 1000.10 794.44
  C 999.98 793.30 1000.39 792.04 999.10 791.13
  C 994.83 788.13 987.50 787.10 981.02 786.69
  Q 959.57 785.32 938.62 789.68
  C 934.12 790.62 924.02 793.37 923.62 798.31
  Q 923.08 805.11 923.03 809.00
  Q 922.44 859.09 926.97 913.50
  Q 929.14 939.49 933.11 961.56
  Q 934.09 967.03 934.45 967.91
  Q 935.98 971.66 940.21 972.02
  C 946.03 972.51 951.95 973.35 957.63 973.26
  Q 969.71 973.07 981.74 971.87
  C 986.53 971.39 992.02 970.66 993.44 965.95
  Q 996.45 955.96 996.94 945.82
  A 0.92 0.91 16.9 0 1 998.33 945.08
  Q 1004.17 948.58 1010.13 951.43
  Q 1020.35 956.31 1022.16 957.25
  Q 1036.66 964.77 1047.85 969.92
  Q 1050.60 971.18 1054.63 972.43
  C 1058.82 973.73 1060.88 973.32 1063.83 970.33
  Q 1066.51 967.64 1068.17 965.36
  Q 1068.47 964.96 1071.72 959.84
  Q 1082.70 942.53 1086.92 920.49
  Q 1087.99 914.91 1086.94 910.63
  A 1.42 1.40 10.1 0 0 1086.33 909.77
  Q 1064.31 895.41 1040.73 883.82
  A 0.71 0.70 35.7 0 1 1040.54 882.69
  Q 1059.08 863.88 1075.82 843.56
  Q 1080.32 838.09 1083.34 831.73
  C 1083.93 830.48 1083.92 828.83 1083.29 827.72
  C 1079.82 821.66 1075.12 816.85 1069.53 811.08
  C 1062.76 804.09 1054.88 796.86 1046.16 792.30
  A 1.39 1.37 51.7 0 0 1045.20 792.18
  Q 1041.20 793.18 1037.73 795.20
  Q 1022.40 804.10 1009.02 815.69
  Z"
/>
<path fill="#47eada" d="
  M 485.25 941.01
  C 477.42 954.51 465.03 966.22 450.03 971.32
  Q 445.06 973.01 437.25 973.48
  Q 411.66 975.02 386.03 974.62
  C 370.62 974.38 359.83 974.21 346.90 971.97
  A 2.92 2.91 -5.1 0 1 344.67 970.11
  C 342.92 965.32 341.85 960.61 341.25 955.19
  C 336.65 913.74 336.18 870.39 336.98 825.50
  Q 337.00 824.56 337.28 824.01
  Q 337.52 823.56 337.51 823.05
  Q 337.36 808.33 338.57 801.10
  C 339.69 794.51 354.38 790.01 359.73 788.60
  Q 365.96 786.96 377.40 785.79
  Q 399.30 783.53 421.24 786.97
  Q 434.01 788.97 445.74 794.50
  C 461.84 802.10 474.26 817.86 475.05 836.20
  C 475.51 846.70 473.47 856.89 466.79 865.27
  A 1.47 1.47 0.0 0 0 467.26 867.48
  Q 482.01 875.19 489.15 889.90
  Q 490.11 891.88 490.60 894.49
  Q 491.04 896.89 491.52 899.27
  C 494.05 911.83 492.09 922.18 488.28 933.95
  Q 486.95 938.07 485.25 941.01
  Z
  M 419.67 851.59
  Q 424.94 847.18 425.35 840.30
  Q 425.69 834.56 422.55 830.03
  C 417.88 823.31 408.47 822.26 401.00 823.37
  C 396.32 824.06 394.13 826.94 393.48 831.63
  C 392.71 837.13 392.79 849.48 396.39 853.85
  C 402.34 861.07 414.02 856.33 419.67 851.59
  Z
  M 412.37 891.13
  C 405.88 889.79 396.35 891.69 394.71 899.49
  Q 392.38 910.63 395.39 922.78
  Q 398.00 933.34 409.22 932.61
  C 420.85 931.85 435.48 926.82 434.03 912.24
  C 432.89 900.69 423.05 893.32 412.37 891.13
  Z"
/>
<path fill="#47eada" d="
  M 749.69 954.08
  C 735.15 942.22 723.60 925.88 717.34 908.84
  Q 716.86 907.52 716.45 904.80
  C 716.17 902.96 715.40 900.95 715.08 899.40
  Q 710.64 877.95 716.36 856.75
  C 716.88 854.83 716.82 852.92 717.42 851.13
  Q 722.54 835.87 732.28 823.02
  Q 732.43 822.82 732.41 822.48
  Q 732.37 822.03 732.67 821.69
  Q 740.38 812.93 749.12 805.20
  Q 752.72 802.02 757.39 799.20
  Q 764.13 795.14 766.25 794.02
  C 781.36 786.07 798.56 783.73 815.34 785.23
  Q 825.42 786.14 835.05 788.54
  C 852.58 792.92 869.27 802.19 881.60 815.67
  Q 883.53 817.78 885.45 819.88
  Q 887.42 822.03 888.96 824.37
  Q 894.65 833.02 896.56 836.91
  Q 905.30 854.66 905.21 874.31
  Q 905.20 878.02 904.34 884.66
  C 903.75 889.23 903.36 894.19 902.46 898.39
  Q 896.43 926.35 876.35 946.48
  C 872.07 950.77 869.80 953.30 865.95 955.65
  Q 862.77 957.58 861.27 958.67
  Q 846.70 969.24 829.09 972.63
  Q 825.37 973.35 820.37 973.42
  C 813.80 973.51 807.63 973.67 800.93 973.03
  Q 797.37 972.69 793.82 972.39
  Q 789.82 972.06 786.78 971.37
  Q 773.57 968.40 764.89 963.35
  C 759.78 960.38 753.94 957.55 749.69 954.08
  Z
  M 802.87 852.58
  Q 790.80 854.72 784.93 865.34
  Q 779.80 874.63 781.43 884.13
  Q 783.01 893.33 790.14 899.80
  Q 797.85 906.81 808.78 906.72
  C 819.15 906.63 827.51 902.33 832.59 893.25
  Q 840.14 879.74 834.07 866.50
  Q 832.60 863.30 830.09 860.51
  Q 827.11 857.21 824.50 855.87
  Q 818.28 852.69 808.40 851.72
  C 806.50 851.54 804.77 852.25 802.87 852.58
  Z"
/>
<path fill="#47eada" d="
  M 659.22 955.43
  Q 644.75 967.33 626.51 972.28
  C 623.08 973.21 619.08 973.16 616.17 973.55
  Q 602.84 975.33 589.58 973.07
  Q 588.56 972.90 583.39 972.35
  Q 580.59 972.06 577.23 971.17
  Q 559.38 966.48 545.49 956.07
  C 543.92 954.90 541.40 953.57 539.31 951.69
  Q 523.40 937.41 514.62 919.16
  C 502.34 893.65 503.66 865.57 515.17 840.13
  Q 519.21 831.20 525.55 823.10
  Q 535.77 810.04 549.22 800.05
  C 550.13 799.38 551.23 799.36 552.15 798.76
  Q 573.94 784.54 600.26 785.45
  Q 609.02 785.75 617.70 787.13
  Q 663.68 794.41 687.46 833.23
  Q 689.18 836.04 690.66 840.25
  C 692.66 845.97 694.86 850.72 696.14 857.43
  C 700.03 877.79 697.29 903.58 687.12 921.92
  C 686.42 923.20 686.26 924.60 685.57 925.75
  Q 679.19 936.39 669.20 947.20
  Q 666.70 949.90 664.29 951.68
  Q 659.28 955.38 659.22 955.43
  Z
  M 609.87 853.88
  Q 605.22 852.33 600.74 852.33
  Q 597.15 852.33 592.70 853.91
  Q 588.08 855.55 585.27 857.50
  Q 577.54 862.87 574.75 873.25
  C 571.32 886.03 577.84 898.72 589.29 904.49
  Q 598.27 909.02 609.30 906.34
  Q 615.43 904.85 618.55 902.27
  C 632.95 890.39 634.72 867.77 618.12 856.90
  C 615.65 855.28 612.29 854.68 609.87 853.88
  Z"
/>
<path fill="#47eada" d="
  M 1009.02 815.69
  Q 1022.40 804.10 1037.73 795.20
  Q 1041.20 793.18 1045.20 792.18
  A 1.39 1.37 51.7 0 1 1046.16 792.30
  C 1054.88 796.86 1062.76 804.09 1069.53 811.08
  C 1075.12 816.85 1079.82 821.66 1083.29 827.72
  C 1083.92 828.83 1083.93 830.48 1083.34 831.73
  Q 1080.32 838.09 1075.82 843.56
  Q 1059.08 863.88 1040.54 882.69
  A 0.71 0.70 35.7 0 0 1040.73 883.82
  Q 1064.31 895.41 1086.33 909.77
  A 1.42 1.40 10.1 0 1 1086.94 910.63
  Q 1087.99 914.91 1086.92 920.49
  Q 1082.70 942.53 1071.72 959.84
  Q 1068.47 964.96 1068.17 965.36
  Q 1066.51 967.64 1063.83 970.33
  C 1060.88 973.32 1058.82 973.73 1054.63 972.43
  Q 1050.60 971.18 1047.85 969.92
  Q 1036.66 964.77 1022.16 957.25
  Q 1020.35 956.31 1010.13 951.43
  Q 1004.17 948.58 998.33 945.08
  A 0.92 0.91 16.9 0 0 996.94 945.82
  Q 996.45 955.96 993.44 965.95
  C 992.02 970.66 986.53 971.39 981.74 971.87
  Q 969.71 973.07 957.63 973.26
  C 951.95 973.35 946.03 972.51 940.21 972.02
  Q 935.98 971.66 934.45 967.91
  Q 934.09 967.03 933.11 961.56
  Q 929.14 939.49 926.97 913.50
  Q 922.44 859.09 923.03 809.00
  Q 923.08 805.11 923.62 798.31
  C 924.02 793.37 934.12 790.62 938.62 789.68
  Q 959.57 785.32 981.02 786.69
  C 987.50 787.10 994.83 788.13 999.10 791.13
  C 1000.39 792.04 999.98 793.30 1000.10 794.44
  Q 1001.50 807.63 1001.62 820.88
  Q 1001.62 821.76 1002.27 821.17
  C 1004.45 819.18 1006.80 817.61 1009.02 815.69
  Z"
/>
<path fill="#6d5845" d="
  M 419.67 851.59
  C 414.02 856.33 402.34 861.07 396.39 853.85
  C 392.79 849.48 392.71 837.13 393.48 831.63
  C 394.13 826.94 396.32 824.06 401.00 823.37
  C 408.47 822.26 417.88 823.31 422.55 830.03
  Q 425.69 834.56 425.35 840.30
  Q 424.94 847.18 419.67 851.59
  Z
  M 418.71 844.38
  C 422.67 838.75 418.38 831.70 412.70 829.78
  Q 406.99 827.86 401.18 829.29
  C 396.79 830.38 399.43 845.55 400.35 848.70
  C 401.01 850.97 402.20 851.93 404.53 851.89
  Q 413.52 851.76 418.71 844.38
  Z"
/>
<path fill="#f8c059" d="
  M 412.70 829.78
  C 418.38 831.70 422.67 838.75 418.71 844.38
  Q 413.52 851.76 404.53 851.89
  C 402.20 851.93 401.01 850.97 400.35 848.70
  C 399.43 845.55 396.79 830.38 401.18 829.29
  Q 406.99 827.86 412.70 829.78
  Z"
/>
<path fill="#6d5845" d="
  M 802.87 852.58
  C 804.77 852.25 806.50 851.54 808.40 851.72
  Q 818.28 852.69 824.50 855.87
  Q 827.11 857.21 830.09 860.51
  Q 832.60 863.30 834.07 866.50
  Q 840.14 879.74 832.59 893.25
  C 827.51 902.33 819.15 906.63 808.78 906.72
  Q 797.85 906.81 790.14 899.80
  Q 783.01 893.33 781.43 884.13
  Q 779.80 874.63 784.93 865.34
  Q 790.80 854.72 802.87 852.58
  Z
  M 830.6186 873.6688
  A 22.34 22.05 -14.6 0 0 803.4419 857.9620
  A 22.34 22.05 -14.6 0 0 787.3814 884.9312
  A 22.34 22.05 -14.6 0 0 814.5581 900.6380
  A 22.34 22.05 -14.6 0 0 830.6186 873.6688
  Z"
/>
<path fill="#6d5845" d="
  M 609.87 853.88
  C 612.29 854.68 615.65 855.28 618.12 856.90
  C 634.72 867.77 632.95 890.39 618.55 902.27
  Q 615.43 904.85 609.30 906.34
  Q 598.27 909.02 589.29 904.49
  C 577.84 898.72 571.32 886.03 574.75 873.25
  Q 577.54 862.87 585.27 857.50
  Q 588.08 855.55 592.70 853.91
  Q 597.15 852.33 600.74 852.33
  Q 605.22 852.33 609.87 853.88
  Z
  M 616.87 895.62
  Q 623.75 888.07 624.04 879.24
  Q 624.49 866.08 612.77 860.76
  Q 600.63 855.25 590.92 860.77
  C 578.25 867.96 575.76 885.28 586.33 895.48
  Q 595.33 904.16 608.06 901.31
  Q 612.64 900.28 616.87 895.62
  Z"
/>
<ellipse fill="#f8c059" cx="0.00" cy="0.00" transform="translate(809.00,879.30) rotate(-14.6)" rx="22.34" ry="22.05"/>
<path fill="#f8c059" d="
  M 616.87 895.62
  Q 612.64 900.28 608.06 901.31
  Q 595.33 904.16 586.33 895.48
  C 575.76 885.28 578.25 867.96 590.92 860.77
  Q 600.63 855.25 612.77 860.76
  Q 624.49 866.08 624.04 879.24
  Q 623.75 888.07 616.87 895.62
  Z"
/>
<path fill="#6d5845" d="
  M 412.37 891.13
  C 423.05 893.32 432.89 900.69 434.03 912.24
  C 435.48 926.82 420.85 931.85 409.22 932.61
  Q 398.00 933.34 395.39 922.78
  Q 392.38 910.63 394.71 899.49
  C 396.35 891.69 405.88 889.79 412.37 891.13
  Z
  M 424.66 904.23
  C 420.26 899.23 412.82 896.01 405.97 896.74
  C 399.71 897.41 399.88 901.91 399.58 907.47
  C 399.36 911.53 399.97 922.70 403.21 925.64
  C 407.52 929.56 423.40 924.48 426.66 919.78
  C 429.86 915.19 428.17 908.22 424.66 904.23
  Z"
/>
<path fill="#f8c059" d="
  M 424.66 904.23
  C 428.17 908.22 429.86 915.19 426.66 919.78
  C 423.40 924.48 407.52 929.56 403.21 925.64
  C 399.97 922.70 399.36 911.53 399.58 907.47
  C 399.88 901.91 399.71 897.41 405.97 896.74
  C 412.82 896.01 420.26 899.23 424.66 904.23
  Z"
/>
</svg>
