<?xml version="1.0" encoding="UTF-8" standalone="no"?>
<!DOCTYPE svg PUBLIC "-//W3C//DTD SVG 1.1//EN" "http://www.w3.org/Graphics/SVG/1.1/DTD/svg11.dtd">
<svg xmlns="http://www.w3.org/2000/svg" version="1.1" viewBox="0.00 0.00 1043.00 279.00">
<g stroke-width="2.00" fill="none" stroke-linecap="butt">
<path stroke="#af9d83" vector-effect="non-scaling-stroke" d="
  M 1031.40 182.36
  C 1058.14 99.02 1001.77 12.69 914.73 4.36
  Q 908.51 3.76 894.75 3.76
  Q 519.25 3.74 143.76 3.76
  Q 130.79 3.76 123.77 4.54
  C 43.64 13.35 -11.36 89.49 5.36 168.30
  C 17.68 226.37 66.55 269.51 125.27 275.34
  Q 131.94 276.00 145.26 276.00
  Q 521.13 276.02 897.00 276.00
  Q 909.91 276.00 916.96 275.21
  C 969.75 269.31 1015.35 232.37 1031.40 182.36"
/>
<path stroke="#af9d83" vector-effect="non-scaling-stroke" d="
  M 176.60 79.46
  L 176.40 199.18
  A 0.63 0.63 0.0 0 0 177.02 199.81
  L 207.60 199.86
  A 61.05 60.41 0.1 0 0 268.76 139.56
  L 268.76 139.40
  A 61.05 60.41 0.1 0 0 207.82 78.88
  L 177.24 78.83
  A 0.63 0.63 0.0 0 0 176.60 79.46"
/>
<path stroke="#af9d83" vector-effect="non-scaling-stroke" d="
  M 306.58 174.20
  A 0.32 0.32 0.0 0 1 306.88 174.00
  L 363.64 174.00
  A 0.32 0.32 0.0 0 1 363.94 174.20
  L 374.27 199.55
  A 0.32 0.32 0.0 0 0 374.57 199.75
  L 391.77 199.75
  A 0.32 0.32 0.0 0 0 392.07 199.31
  L 343.14 79.20
  A 0.32 0.32 0.0 0 0 342.84 79.00
  L 328.11 79.00
  A 0.32 0.32 0.0 0 0 327.81 79.20
  L 278.98 199.32
  A 0.32 0.32 0.0 0 0 279.28 199.76
  L 296.10 199.75
  A 0.32 0.32 0.0 0 0 296.40 199.55
  L 306.58 174.20"
/>
<path stroke="#af9d83" vector-effect="non-scaling-stroke" d="
  M 424.85 131.25
  A 0.35 0.35 0.0 0 1 424.50 130.90
  L 424.50 95.35
  A 0.35 0.35 0.0 0 1 424.85 95.00
  L 473.15 95.00
  A 0.35 0.35 0.0 0 0 473.50 94.65
  L 473.50 79.36
  A 0.35 0.35 0.0 0 0 473.15 79.01
  L 408.60 79.00
  A 0.35 0.35 0.0 0 0 408.25 79.35
  L 408.25 199.40
  A 0.35 0.35 0.0 0 0 408.60 199.75
  L 424.15 199.75
  A 0.35 0.35 0.0 0 0 424.50 199.40
  L 424.50 147.60
  A 0.35 0.35 0.0 0 1 424.85 147.25
  L 463.90 147.25
  A 0.35 0.35 0.0 0 0 464.25 146.90
  L 464.25 131.60
  A 0.35 0.35 0.0 0 0 463.90 131.25
  L 424.85 131.25"
/>
<path stroke="#af9d83" vector-effect="non-scaling-stroke" d="
  M 509.84 95.00
  A 0.41 0.41 0.0 0 1 510.25 95.41
  L 510.25 199.34
  A 0.41 0.41 0.0 0 0 510.66 199.75
  L 526.09 199.75
  A 0.41 0.41 0.0 0 0 526.50 199.34
  L 526.50 95.41
  A 0.41 0.41 0.0 0 1 526.91 95.00
  L 558.09 95.00
  A 0.41 0.41 0.0 0 0 558.50 94.59
  L 558.50 79.41
  A 0.41 0.41 0.0 0 0 558.09 79.00
  L 478.66 79.00
  A 0.41 0.41 0.0 0 0 478.25 79.41
  L 478.26 94.60
  A 0.41 0.41 0.0 0 0 478.67 95.01
  L 509.84 95.00"
/>
<path stroke="#af9d83" vector-effect="non-scaling-stroke" d="
  M 590.08 174.21
  A 0.33 0.33 0.0 0 1 590.38 174.00
  L 647.11 174.00
  A 0.33 0.33 0.0 0 1 647.41 174.21
  L 657.75 199.54
  A 0.33 0.33 0.0 0 0 658.05 199.75
  L 675.23 199.75
  A 0.33 0.33 0.0 0 0 675.53 199.30
  L 626.61 79.21
  A 0.33 0.33 0.0 0 0 626.31 79.00
  L 611.58 79.00
  A 0.33 0.33 0.0 0 0 611.28 79.21
  L 562.46 199.30
  A 0.33 0.33 0.0 0 0 562.77 199.75
  L 579.57 199.75
  A 0.33 0.33 0.0 0 0 579.87 199.54
  L 590.08 174.21"
/>
<path stroke="#af9d83" vector-effect="non-scaling-stroke" d="
  M 708.25 158.50
  L 729.75 158.50
  Q 730.27 158.50 730.52 158.95
  L 753.26 199.20
  Q 753.58 199.75 754.22 199.75
  L 772.14 199.75
  Q 772.88 199.75 772.51 199.11
  L 747.72 156.31
  Q 747.45 155.85 747.94 155.65
  C 784.81 140.51 781.18 90.07 743.07 80.33
  Q 737.68 78.95 727.27 78.97
  Q 709.81 79.00 692.25 79.01
  Q 691.75 79.01 691.75 79.51
  L 691.75 199.25
  Q 691.75 199.75 692.25 199.75
  L 707.25 199.75
  Q 707.75 199.75 707.75 199.25
  L 707.75 159.00
  Q 707.75 158.50 708.25 158.50"
/>
<path stroke="#af9d83" vector-effect="non-scaling-stroke" d="
  M 843.68 174.43
  A 0.33 0.33 0.0 0 0 844.01 174.75
  L 859.60 174.75
  A 0.33 0.33 0.0 0 0 859.93 174.43
  L 862.38 79.34
  A 0.33 0.33 0.0 0 0 862.05 79.00
  L 841.55 79.00
  A 0.33 0.33 0.0 0 0 841.22 79.34
  L 843.68 174.43"
/>
<path stroke="#af9d83" vector-effect="non-scaling-stroke" d="
  M 862.45 189.26
  A 10.60 10.60 0.0 0 0 851.85 178.66
  A 10.60 10.60 0.0 0 0 841.25 189.26
  A 10.60 10.60 0.0 0 0 851.85 199.86
  A 10.60 10.60 0.0 0 0 862.45 189.26"
/>
<path stroke="#af9d83" vector-effect="non-scaling-stroke" d="
  M 192.75 95.33
  L 192.75 183.39
  A 0.38 0.38 0.0 0 0 193.13 183.77
  L 207.14 183.77
  A 45.39 44.25 0.0 0 0 252.53 139.52
  L 252.53 139.20
  A 45.39 44.25 -0.0 0 0 207.14 94.95
  L 193.13 94.95
  A 0.38 0.38 0.0 0 0 192.75 95.33"
/>
<path stroke="#af9d83" vector-effect="non-scaling-stroke" d="
  M 313.61 157.01
  A 0.33 0.33 0.0 0 0 313.91 157.46
  L 356.60 157.54
  A 0.33 0.33 0.0 0 0 356.91 157.08
  L 335.66 104.46
  A 0.33 0.33 0.0 0 0 335.05 104.46
  L 313.61 157.01"
/>
<path stroke="#af9d83" vector-effect="non-scaling-stroke" d="
  M 597.12 157.04
  A 0.34 0.34 0.0 0 0 597.43 157.50
  L 640.09 157.50
  A 0.34 0.34 0.0 0 0 640.40 157.04
  L 619.08 104.48
  A 0.34 0.34 0.0 0 0 618.44 104.48
  L 597.12 157.04"
/>
<path stroke="#af9d83" vector-effect="non-scaling-stroke" d="
  M 707.75 95.39
  L 707.75 141.93
  A 0.39 0.39 0.0 0 0 708.14 142.32
  L 731.63 142.32
  A 25.90 23.48 0.0 0 0 757.53 118.84
  L 757.53 118.48
  A 25.90 23.48 -0.0 0 0 731.63 95.00
  L 708.14 95.00
  A 0.39 0.39 0.0 0 0 707.75 95.39"
/>
</g>
<path fill="#6d5845" d="
  M 912.12 279.00
  L 128.21 279.00
  C 61.01 273.13 9.10 223.73 0.00 156.91
  L 0.00 122.75
  Q 9.43 58.11 62.32 23.04
  Q 90.88 4.10 126.28 1.05
  Q 132.55 0.50 146.26 0.50
  Q 520.75 0.50 895.25 0.50
  Q 908.40 0.50 915.23 1.17
  C 1003.29 9.83 1061.78 96.86 1034.97 182.01
  C 1017.84 236.41 969.49 274.13 912.12 279.00
  Z
  M 1031.40 182.36
  C 1058.14 99.02 1001.77 12.69 914.73 4.36
  Q 908.51 3.76 894.75 3.76
  Q 519.25 3.74 143.76 3.76
  Q 130.79 3.76 123.77 4.54
  C 43.64 13.35 -11.36 89.49 5.36 168.30
  C 17.68 226.37 66.55 269.51 125.27 275.34
  Q 131.94 276.00 145.26 276.00
  Q 521.13 276.02 897.00 276.00
  Q 909.91 276.00 916.96 275.21
  C 969.75 269.31 1015.35 232.37 1031.40 182.36
  Z"
/>
<path fill="#f0e1c1" d="
  M 914.73 4.36
  C 1001.77 12.69 1058.14 99.02 1031.40 182.36
  C 1015.35 232.37 969.75 269.31 916.96 275.21
  Q 909.91 276.00 897.00 276.00
  Q 521.13 276.02 145.26 276.00
  Q 131.94 276.00 125.27 275.34
  C 66.55 269.51 17.68 226.37 5.36 168.30
  C -11.36 89.49 43.64 13.35 123.77 4.54
  Q 130.79 3.76 143.76 3.76
  Q 519.25 3.74 894.75 3.76
  Q 908.51 3.76 914.73 4.36
  Z
  M 176.60 79.46
  L 176.40 199.18
  A 0.63 0.63 0.0 0 0 177.02 199.81
  L 207.60 199.86
  A 61.05 60.41 0.1 0 0 268.76 139.56
  L 268.76 139.40
  A 61.05 60.41 0.1 0 0 207.82 78.88
  L 177.24 78.83
  A 0.63 0.63 0.0 0 0 176.60 79.46
  Z
  M 306.58 174.20
  A 0.32 0.32 0.0 0 1 306.88 174.00
  L 363.64 174.00
  A 0.32 0.32 0.0 0 1 363.94 174.20
  L 374.27 199.55
  A 0.32 0.32 0.0 0 0 374.57 199.75
  L 391.77 199.75
  A 0.32 0.32 0.0 0 0 392.07 199.31
  L 343.14 79.20
  A 0.32 0.32 0.0 0 0 342.84 79.00
  L 328.11 79.00
  A 0.32 0.32 0.0 0 0 327.81 79.20
  L 278.98 199.32
  A 0.32 0.32 0.0 0 0 279.28 199.76
  L 296.10 199.75
  A 0.32 0.32 0.0 0 0 296.40 199.55
  L 306.58 174.20
  Z
  M 424.85 131.25
  A 0.35 0.35 0.0 0 1 424.50 130.90
  L 424.50 95.35
  A 0.35 0.35 0.0 0 1 424.85 95.00
  L 473.15 95.00
  A 0.35 0.35 0.0 0 0 473.50 94.65
  L 473.50 79.36
  A 0.35 0.35 0.0 0 0 473.15 79.01
  L 408.60 79.00
  A 0.35 0.35 0.0 0 0 408.25 79.35
  L 408.25 199.40
  A 0.35 0.35 0.0 0 0 408.60 199.75
  L 424.15 199.75
  A 0.35 0.35 0.0 0 0 424.50 199.40
  L 424.50 147.60
  A 0.35 0.35 0.0 0 1 424.85 147.25
  L 463.90 147.25
  A 0.35 0.35 0.0 0 0 464.25 146.90
  L 464.25 131.60
  A 0.35 0.35 0.0 0 0 463.90 131.25
  L 424.85 131.25
  Z
  M 509.84 95.00
  A 0.41 0.41 0.0 0 1 510.25 95.41
  L 510.25 199.34
  A 0.41 0.41 0.0 0 0 510.66 199.75
  L 526.09 199.75
  A 0.41 0.41 0.0 0 0 526.50 199.34
  L 526.50 95.41
  A 0.41 0.41 0.0 0 1 526.91 95.00
  L 558.09 95.00
  A 0.41 0.41 0.0 0 0 558.50 94.59
  L 558.50 79.41
  A 0.41 0.41 0.0 0 0 558.09 79.00
  L 478.66 79.00
  A 0.41 0.41 0.0 0 0 478.25 79.41
  L 478.26 94.60
  A 0.41 0.41 0.0 0 0 478.67 95.01
  L 509.84 95.00
  Z
  M 590.08 174.21
  A 0.33 0.33 0.0 0 1 590.38 174.00
  L 647.11 174.00
  A 0.33 0.33 0.0 0 1 647.41 174.21
  L 657.75 199.54
  A 0.33 0.33 0.0 0 0 658.05 199.75
  L 675.23 199.75
  A 0.33 0.33 0.0 0 0 675.53 199.30
  L 626.61 79.21
  A 0.33 0.33 0.0 0 0 626.31 79.00
  L 611.58 79.00
  A 0.33 0.33 0.0 0 0 611.28 79.21
  L 562.46 199.30
  A 0.33 0.33 0.0 0 0 562.77 199.75
  L 579.57 199.75
  A 0.33 0.33 0.0 0 0 579.87 199.54
  L 590.08 174.21
  Z
  M 708.25 158.50
  L 729.75 158.50
  Q 730.27 158.50 730.52 158.95
  L 753.26 199.20
  Q 753.58 199.75 754.22 199.75
  L 772.14 199.75
  Q 772.88 199.75 772.51 199.11
  L 747.72 156.31
  Q 747.45 155.85 747.94 155.65
  C 784.81 140.51 781.18 90.07 743.07 80.33
  Q 737.68 78.95 727.27 78.97
  Q 709.81 79.00 692.25 79.01
  Q 691.75 79.01 691.75 79.51
  L 691.75 199.25
  Q 691.75 199.75 692.25 199.75
  L 707.25 199.75
  Q 707.75 199.75 707.75 199.25
  L 707.75 159.00
  Q 707.75 158.50 708.25 158.50
  Z
  M 843.68 174.43
  A 0.33 0.33 0.0 0 0 844.01 174.75
  L 859.60 174.75
  A 0.33 0.33 0.0 0 0 859.93 174.43
  L 862.38 79.34
  A 0.33 0.33 0.0 0 0 862.05 79.00
  L 841.55 79.00
  A 0.33 0.33 0.0 0 0 841.22 79.34
  L 843.68 174.43
  Z
  M 862.45 189.26
  A 10.60 10.60 0.0 0 0 851.85 178.66
  A 10.60 10.60 0.0 0 0 841.25 189.26
  A 10.60 10.60 0.0 0 0 851.85 199.86
  A 10.60 10.60 0.0 0 0 862.45 189.26
  Z"
/>
<path fill="#6d5845" d="
  M 176.60 79.46
  A 0.63 0.63 0.0 0 1 177.24 78.83
  L 207.82 78.88
  A 61.05 60.41 0.1 0 1 268.76 139.40
  L 268.76 139.56
  A 61.05 60.41 0.1 0 1 207.60 199.86
  L 177.02 199.81
  A 0.63 0.63 0.0 0 1 176.40 199.18
  L 176.60 79.46
  Z
  M 192.75 95.33
  L 192.75 183.39
  A 0.38 0.38 0.0 0 0 193.13 183.77
  L 207.14 183.77
  A 45.39 44.25 0.0 0 0 252.53 139.52
  L 252.53 139.20
  A 45.39 44.25 -0.0 0 0 207.14 94.95
  L 193.13 94.95
  A 0.38 0.38 0.0 0 0 192.75 95.33
  Z"
/>
<path fill="#6d5845" d="
  M 306.58 174.20
  L 296.40 199.55
  A 0.32 0.32 0.0 0 1 296.10 199.75
  L 279.28 199.76
  A 0.32 0.32 0.0 0 1 278.98 199.32
  L 327.81 79.20
  A 0.32 0.32 0.0 0 1 328.11 79.00
  L 342.84 79.00
  A 0.32 0.32 0.0 0 1 343.14 79.20
  L 392.07 199.31
  A 0.32 0.32 0.0 0 1 391.77 199.75
  L 374.57 199.75
  A 0.32 0.32 0.0 0 1 374.27 199.55
  L 363.94 174.20
  A 0.32 0.32 0.0 0 0 363.64 174.00
  L 306.88 174.00
  A 0.32 0.32 0.0 0 0 306.58 174.20
  Z
  M 313.61 157.01
  A 0.33 0.33 0.0 0 0 313.91 157.46
  L 356.60 157.54
  A 0.33 0.33 0.0 0 0 356.91 157.08
  L 335.66 104.46
  A 0.33 0.33 0.0 0 0 335.05 104.46
  L 313.61 157.01
  Z"
/>
<path fill="#6d5845" d="
  M 424.85 131.25
  L 463.90 131.25
  A 0.35 0.35 0.0 0 1 464.25 131.60
  L 464.25 146.90
  A 0.35 0.35 0.0 0 1 463.90 147.25
  L 424.85 147.25
  A 0.35 0.35 0.0 0 0 424.50 147.60
  L 424.50 199.40
  A 0.35 0.35 0.0 0 1 424.15 199.75
  L 408.60 199.75
  A 0.35 0.35 0.0 0 1 408.25 199.40
  L 408.25 79.35
  A 0.35 0.35 0.0 0 1 408.60 79.00
  L 473.15 79.01
  A 0.35 0.35 0.0 0 1 473.50 79.36
  L 473.50 94.65
  A 0.35 0.35 0.0 0 1 473.15 95.00
  L 424.85 95.00
  A 0.35 0.35 0.0 0 0 424.50 95.35
  L 424.50 130.90
  A 0.35 0.35 0.0 0 0 424.85 131.25
  Z"
/>
<path fill="#6d5845" d="
  M 509.84 95.00
  L 478.67 95.01
  A 0.41 0.41 0.0 0 1 478.26 94.60
  L 478.25 79.41
  A 0.41 0.41 0.0 0 1 478.66 79.00
  L 558.09 79.00
  A 0.41 0.41 0.0 0 1 558.50 79.41
  L 558.50 94.59
  A 0.41 0.41 0.0 0 1 558.09 95.00
  L 526.91 95.00
  A 0.41 0.41 0.0 0 0 526.50 95.41
  L 526.50 199.34
  A 0.41 0.41 0.0 0 1 526.09 199.75
  L 510.66 199.75
  A 0.41 0.41 0.0 0 1 510.25 199.34
  L 510.25 95.41
  A 0.41 0.41 0.0 0 0 509.84 95.00
  Z"
/>
<path fill="#6d5845" d="
  M 590.08 174.21
  L 579.87 199.54
  A 0.33 0.33 0.0 0 1 579.57 199.75
  L 562.77 199.75
  A 0.33 0.33 0.0 0 1 562.46 199.30
  L 611.28 79.21
  A 0.33 0.33 0.0 0 1 611.58 79.00
  L 626.31 79.00
  A 0.33 0.33 0.0 0 1 626.61 79.21
  L 675.53 199.30
  A 0.33 0.33 0.0 0 1 675.23 199.75
  L 658.05 199.75
  A 0.33 0.33 0.0 0 1 657.75 199.54
  L 647.41 174.21
  A 0.33 0.33 0.0 0 0 647.11 174.00
  L 590.38 174.00
  A 0.33 0.33 0.0 0 0 590.08 174.21
  Z
  M 597.12 157.04
  A 0.34 0.34 0.0 0 0 597.43 157.50
  L 640.09 157.50
  A 0.34 0.34 0.0 0 0 640.40 157.04
  L 619.08 104.48
  A 0.34 0.34 0.0 0 0 618.44 104.48
  L 597.12 157.04
  Z"
/>
<path fill="#6d5845" d="
  M 707.75 159.00
  L 707.75 199.25
  Q 707.75 199.75 707.25 199.75
  L 692.25 199.75
  Q 691.75 199.75 691.75 199.25
  L 691.75 79.51
  Q 691.75 79.01 692.25 79.01
  Q 709.81 79.00 727.27 78.97
  Q 737.68 78.95 743.07 80.33
  C 781.18 90.07 784.81 140.51 747.94 155.65
  Q 747.45 155.85 747.72 156.31
  L 772.51 199.11
  Q 772.88 199.75 772.14 199.75
  L 754.22 199.75
  Q 753.58 199.75 753.26 199.20
  L 730.52 158.95
  Q 730.27 158.50 729.75 158.50
  L 708.25 158.50
  Q 707.75 158.50 707.75 159.00
  Z
  M 707.75 95.39
  L 707.75 141.93
  A 0.39 0.39 0.0 0 0 708.14 142.32
  L 731.63 142.32
  A 25.90 23.48 0.0 0 0 757.53 118.84
  L 757.53 118.48
  A 25.90 23.48 -0.0 0 0 731.63 95.00
  L 708.14 95.00
  A 0.39 0.39 0.0 0 0 707.75 95.39
  Z"
/>
<path fill="#6d5845" d="
  M 843.68 174.43
  L 841.22 79.34
  A 0.33 0.33 0.0 0 1 841.55 79.00
  L 862.05 79.00
  A 0.33 0.33 0.0 0 1 862.38 79.34
  L 859.93 174.43
  A 0.33 0.33 0.0 0 1 859.60 174.75
  L 844.01 174.75
  A 0.33 0.33 0.0 0 1 843.68 174.43
  Z"
/>
<path fill="#f0e1c1" d="
  M 192.75 95.33
  A 0.38 0.38 0.0 0 1 193.13 94.95
  L 207.14 94.95
  A 45.39 44.25 -0.0 0 1 252.53 139.20
  L 252.53 139.52
  A 45.39 44.25 0.0 0 1 207.14 183.77
  L 193.13 183.77
  A 0.38 0.38 0.0 0 1 192.75 183.39
  L 192.75 95.33
  Z"
/>
<path fill="#f0e1c1" d="
  M 707.75 95.39
  A 0.39 0.39 0.0 0 1 708.14 95.00
  L 731.63 95.00
  A 25.90 23.48 0.0 0 1 757.53 118.48
  L 757.53 118.84
  A 25.90 23.48 0.0 0 1 731.63 142.32
  L 708.14 142.32
  A 0.39 0.39 0.0 0 1 707.75 141.93
  L 707.75 95.39
  Z"
/>
<path fill="#f0e1c1" d="
  M 313.61 157.01
  L 335.05 104.46
  A 0.33 0.33 0.0 0 1 335.66 104.46
  L 356.91 157.08
  A 0.33 0.33 0.0 0 1 356.60 157.54
  L 313.91 157.46
  A 0.33 0.33 0.0 0 1 313.61 157.01
  Z"
/>
<path fill="#f0e1c1" d="
  M 597.12 157.04
  L 618.44 104.48
  A 0.34 0.34 0.0 0 1 619.08 104.48
  L 640.40 157.04
  A 0.34 0.34 0.0 0 1 640.09 157.50
  L 597.43 157.50
  A 0.34 0.34 0.0 0 1 597.12 157.04
  Z"
/>
<circle fill="#6d5845" cx="851.85" cy="189.26" r="10.60"/>
</svg>
