<?xml version="1.0" encoding="UTF-8" standalone="no"?>
<!DOCTYPE svg PUBLIC "-//W3C//DTD SVG 1.1//EN" "http://www.w3.org/Graphics/SVG/1.1/DTD/svg11.dtd">
<svg xmlns="http://www.w3.org/2000/svg" version="1.1" viewBox="0.00 0.00 543.00 289.00">
<g stroke-width="2.00" fill="none" stroke-linecap="butt">
<path stroke="#a37b55" vector-effect="non-scaling-stroke" d="
  M 271.34 0.00
  C 270.67 2.66 270.48 5.80 269.94 8.02
  Q 266.85 20.92 256.42 28.39
  C 248.37 34.16 237.80 33.99 228.68 31.05
  Q 217.08 27.29 205.63 22.62
  A 1.07 1.06 -75.8 0 0 204.17 23.50
  C 202.94 34.98 202.22 46.30 196.38 56.66
  C 190.41 67.23 176.81 72.23 164.89 74.80
  C 139.87 80.19 124.26 68.81 104.23 56.87
  Q 103.78 56.61 103.34 56.88
  C 91.42 64.16 74.86 65.40 64.04 55.21
  Q 58.42 49.92 53.65 43.78
  A 1.12 1.12 0.0 0 0 51.64 44.50
  Q 52.14 59.74 52.17 75.51
  C 52.19 89.16 50.02 104.79 42.69 116.50
  C 32.35 133.02 16.22 142.92 0.00 151.79"
/>
<path stroke="#a98f71" vector-effect="non-scaling-stroke" d="
  M 272.75 0.00
  Q 272.24 19.23 257.53 29.88
  C 242.49 40.76 223.07 31.54 206.42 24.95
  Q 205.88 24.73 205.82 25.31
  C 204.19 40.41 202.67 59.59 187.69 68.20
  C 176.45 74.66 161.99 78.84 149.13 78.18
  C 133.42 77.37 117.89 67.69 105.08 59.19
  A 2.17 2.17 0.0 0 0 102.78 59.13
  C 88.71 67.40 72.65 66.11 61.23 55.28
  C 59.18 53.33 56.63 50.04 54.23 47.48
  Q 53.63 46.85 53.65 47.72
  C 54.11 66.26 55.29 85.22 50.37 103.30
  C 43.67 127.98 21.59 142.50 0.00 153.85"
/>
<path stroke="#edc479" vector-effect="non-scaling-stroke" d="
  M 333.67 0.00
  L 336.64 22.48
  Q 336.91 24.53 334.85 24.39
  L 329.29 24.02"
/>
<path stroke="#9e7f60" vector-effect="non-scaling-stroke" d="
  M 329.29 24.02
  Q 324.12 21.94 317.69 22.02"
/>
<path stroke="#edc479" vector-effect="non-scaling-stroke" d="
  M 317.69 22.02
  Q 314.94 21.74 309.87 20.63
  Q 304.09 19.36 295.39 19.02"
/>
<path stroke="#9e7f60" vector-effect="non-scaling-stroke" d="
  M 295.39 19.02
  Q 289.08 17.07 282.61 18.28
  C 280.17 18.73 279.45 20.30 278.31 22.27
  Q 269.67 37.14 265.14 52.96
  C 263.69 58.04 270.88 58.52 275.02 59.15
  C 278.37 59.65 280.42 55.30 282.01 53.03
  Q 282.28 52.65 282.73 52.54
  C 286.25 51.66 288.44 52.77 289.16 56.47
  Q 289.59 58.68 289.97 60.76"
/>
<path stroke="#edc479" vector-effect="non-scaling-stroke" d="
  M 289.97 60.76
  L 265.84 70.12
  A 0.51 0.51 0.0 0 0 265.84 71.07
  Q 274.28 74.19 281.81 78.88"
/>
<path stroke="#9e7f60" vector-effect="non-scaling-stroke" d="
  M 281.81 78.88
  C 278.55 84.16 284.79 87.28 289.03 87.42
  A 0.40 0.39 34.9 0 1 289.17 88.18
  Q 275.58 93.63 276.72 108.79
  Q 276.80 109.87 277.86 110.10
  L 285.80 111.86"
/>
<path stroke="#edc479" vector-effect="non-scaling-stroke" d="
  M 285.80 111.86
  L 274.77 125.48
  A 0.41 0.41 0.0 0 0 275.02 126.14
  L 277.87 126.67"
/>
<path stroke="#9e7f60" vector-effect="non-scaling-stroke" d="
  M 277.87 126.67
  C 253.48 137.02 224.22 136.47 198.49 132.10
  Q 192.20 131.03 174.56 127.32"
/>
<path stroke="#9e7f60" vector-effect="non-scaling-stroke" d="
  M 173.07 128.60
  L 172.95 134.37"
/>
<path stroke="#9e7f60" vector-effect="non-scaling-stroke" d="
  M 172.86 138.25
  L 172.57 142.54"
/>
<path stroke="#9e7f60" vector-effect="non-scaling-stroke" d="
  M 172.19 153.76
  L 172.06 160.02"
/>
<path stroke="#9e7f60" vector-effect="non-scaling-stroke" d="
  M 171.33 165.64
  Q 165.02 205.46 145.90 241.01"
/>
<path stroke="#9e7f60" vector-effect="non-scaling-stroke" d="
  M 123.10 266.09
  C 98.28 280.40 65.80 284.37 37.86 277.98
  C 25.99 275.27 12.28 269.08 0.00 263.90"
/>
<path stroke="#edc479" vector-effect="non-scaling-stroke" d="
  M 356.36 0.00
  L 370.98 11.77
  A 0.74 0.74 0.0 0 0 372.13 11.47
  L 376.74 0.00"
/>
<path stroke="#edc479" vector-effect="non-scaling-stroke" d="
  M 400.11 0.00
  L 407.06 17.87
  Q 407.51 19.03 408.50 18.27
  L 432.24 0.00"
/>
<path stroke="#edc479" vector-effect="non-scaling-stroke" d="
  M 441.94 0.00
  L 436.29 41.53
  Q 436.21 42.14 436.82 42.05
  L 446.38 40.72"
/>
<path stroke="#b48a50" vector-effect="non-scaling-stroke" d="
  M 446.38 40.72
  L 449.35 40.52"
/>
<path stroke="#a97a3f" vector-effect="non-scaling-stroke" d="
  M 466.54 52.83
  C 457.03 37.46 432.30 43.32 435.88 63.54
  Q 436.17 65.18 439.82 68.25
  A 0.36 0.35 -20.2 0 1 439.53 68.87
  Q 436.13 68.31 433.55 70.54
  A 0.45 0.45 0.0 0 1 432.80 70.25
  C 432.30 65.42 429.74 43.46 425.54 41.42
  Q 419.62 38.56 411.23 39.62
  C 408.17 40.01 407.26 41.31 405.84 43.80
  Q 397.27 58.82 392.91 75.19
  A 2.57 2.57 0.0 0 0 394.45 78.24
  C 396.66 79.12 403.10 81.07 405.29 79.78
  C 407.16 78.68 409.00 75.06 410.17 73.52
  A 0.90 0.88 25.3 0 1 411.09 73.20
  L 415.64 74.28
  A 0.96 0.95 -1.6 0 1 416.32 74.92
  C 417.15 77.58 416.91 80.25 418.71 82.61
  A 1.24 1.24 0.0 0 0 419.53 83.09
  Q 424.36 83.78 429.27 84.12
  Q 434.14 84.46 434.16 79.86
  Q 434.16 79.19 434.55 79.73
  Q 441.66 89.66 454.24 87.84
  Q 459.16 87.13 461.65 84.90
  Q 463.77 83.00 464.72 82.73"
/>
<path stroke="#a97a3f" vector-effect="non-scaling-stroke" d="
  M 469.62 84.47
  Q 474.71 91.42 484.48 94.40"
/>
<path stroke="#a97a3f" vector-effect="non-scaling-stroke" d="
  M 470.47 99.07
  Q 465.03 96.33 459.49 96.75
  C 454.01 97.16 448.29 103.04 443.66 106.94
  Q 435.85 113.52 436.93 123.23
  Q 437.30 126.61 439.99 127.04
  Q 444.59 127.77 449.23 128.44
  Q 449.73 128.51 449.69 129.00
  Q 449.46 131.83 449.52 134.71
  C 449.60 138.35 451.88 138.07 454.54 138.82
  Q 459.16 140.12 463.65 138.94"
/>
<path stroke="#a97a3f" vector-effect="non-scaling-stroke" d="
  M 284.60 125.37
  Q 280.84 125.36 277.87 126.67"
/>
<path stroke="#a97a3f" vector-effect="non-scaling-stroke" d="
  M 285.80 111.86
  Q 297.66 113.90 302.25 114.44
  C 303.48 114.58 306.86 114.82 308.04 113.48
  C 309.92 111.36 309.55 106.53 309.31 103.92
  C 308.87 99.30 303.16 99.59 299.84 100.00
  A 0.41 0.41 0.0 0 1 299.68 99.20
  C 303.63 98.07 306.61 98.49 309.63 95.45
  C 318.15 86.86 310.70 72.46 300.00 70.82
  Q 287.39 68.88 281.81 78.88"
/>
<path stroke="#a97a3f" vector-effect="non-scaling-stroke" d="
  M 289.97 60.76
  Q 297.29 63.98 305.14 62.21
  Q 305.68 62.09 305.81 62.63
  C 306.04 63.51 306.33 63.83 307.24 64.09
  Q 311.23 65.23 315.34 65.47
  C 318.56 65.66 321.62 66.12 321.83 62.14
  A 0.60 0.60 0.0 0 1 322.81 61.71
  Q 325.57 64.01 328.57 66.42
  C 333.52 70.40 337.07 65.65 340.02 62.21
  Q 340.50 61.66 340.62 62.38
  C 341.10 65.32 339.44 69.08 343.47 70.12
  Q 348.56 71.44 353.54 71.63
  A 2.84 2.84 0.0 0 0 356.38 69.60
  L 358.87 61.28
  A 0.22 0.22 0.0 0 1 359.26 61.22
  C 360.76 63.48 363.82 68.28 366.15 68.83
  C 368.53 69.39 374.02 65.15 375.75 63.58
  A 0.38 0.37 73.5 0 1 376.37 63.92
  C 375.80 67.34 374.18 74.88 379.04 76.01
  Q 383.39 77.02 387.88 77.29
  C 390.68 77.45 391.17 76.52 391.79 74.10
  Q 396.76 54.56 397.69 39.50
  C 397.98 34.88 388.91 34.30 385.48 33.99
  C 379.84 33.46 374.60 39.78 370.87 44.43
  Q 370.47 44.93 370.22 44.35
  Q 367.92 39.10 365.28 34.00
  C 362.60 28.84 354.49 28.23 349.74 28.37
  Q 346.76 28.46 345.98 31.76
  Q 342.58 46.11 341.44 56.48
  A 0.09 0.09 0.0 0 1 341.28 56.52
  L 337.57 51.30
  Q 337.24 50.84 337.58 50.39
  Q 343.93 41.83 339.76 32.67
  Q 337.26 27.19 329.29 24.02"
/>
<path stroke="#a97a3f" vector-effect="non-scaling-stroke" d="
  M 336.88 117.62
  C 344.08 123.46 357.72 123.91 363.13 114.81
  C 371.80 100.22 369.07 77.88 347.21 79.05
  Q 339.55 79.46 335.58 85.81
  C 330.04 94.69 327.68 110.18 336.88 117.62"
/>
<path stroke="#a97a3f" vector-effect="non-scaling-stroke" d="
  M 406.02 116.27
  C 408.24 115.54 410.93 115.51 412.75 114.65
  C 421.14 110.70 421.36 99.28 415.81 93.02
  Q 412.35 89.13 406.55 87.84
  Q 396.50 85.62 389.28 94.22
  C 384.06 100.45 390.70 104.04 396.05 104.54
  A 0.34 0.34 0.0 0 1 396.11 105.20
  C 386.94 107.90 383.72 115.06 382.90 124.01
  C 382.75 125.69 383.59 126.94 385.32 127.32
  Q 392.82 128.96 406.26 130.98
  Q 409.90 131.53 412.49 131.35
  C 416.59 131.08 416.27 123.72 415.84 121.36
  C 415.37 118.75 414.91 117.62 412.00 117.27
  Q 409.07 116.91 406.09 116.78
  A 0.26 0.26 0.0 0 1 406.02 116.27"
/>
<path stroke="#a98f71" vector-effect="non-scaling-stroke" d="
  M 532.78 2.26
  C 528.62 6.55 523.36 9.46 517.87 12.16
  Q 503.18 19.39 487.15 13.22
  Q 480.69 10.73 474.60 8.41
  A 1.77 1.77 0.0 0 0 472.47 9.11
  C 464.86 21.05 458.10 31.40 446.38 40.72"
/>
<path stroke="#a97a3f" vector-effect="non-scaling-stroke" d="
  M 295.39 19.02
  C 297.97 20.12 299.81 21.54 300.58 24.46
  Q 304.23 38.15 305.40 52.30
  Q 305.41 52.39 305.49 52.40
  Q 305.52 52.40 305.56 52.40
  Q 305.71 52.40 305.72 52.25
  Q 306.55 40.10 308.66 28.14
  Q 309.09 25.71 310.37 23.59
  Q 310.64 23.14 311.16 23.05
  L 317.69 22.02"
/>
<path stroke="#5e706c" vector-effect="non-scaling-stroke" d="
  M 305.25 60.08
  C 304.47 50.39 302.88 37.67 300.07 27.16
  C 299.21 23.97 298.73 21.69 295.78 20.68
  Q 289.18 18.43 281.70 19.95
  A 1.38 1.36 -79.8 0 0 280.82 20.57
  Q 271.10 36.53 266.00 54.52
  A 0.83 0.82 25.7 0 0 266.32 55.42
  C 268.73 57.13 273.09 57.61 276.16 58.06
  A 0.99 0.98 21.9 0 0 277.11 57.66
  L 281.49 51.60
  A 1.14 1.11 15.8 0 1 282.34 51.14
  Q 285.84 50.93 289.05 52.38
  A 1.00 0.98 6.7 0 1 289.61 53.08
  L 290.72 58.65
  A 2.97 2.97 0.0 0 0 293.19 61.00
  C 296.09 61.43 302.11 62.52 304.80 60.95
  Q 305.30 60.66 305.25 60.08"
/>
<path stroke="#5e706c" vector-effect="non-scaling-stroke" d="
  M 335.94 50.20
  Q 340.76 45.66 340.02 38.46
  C 338.66 25.39 323.40 21.71 312.75 24.03
  Q 310.64 24.49 310.18 27.00
  Q 307.05 44.00 306.31 60.88
  A 2.34 2.33 7.8 0 0 308.12 63.25
  Q 312.50 64.25 317.30 64.62
  C 319.38 64.78 321.19 63.61 321.04 61.48
  A 1.17 1.17 0.0 0 1 322.97 60.50
  Q 326.95 63.87 330.57 66.45
  Q 332.52 67.83 334.30 66.34
  Q 337.80 63.43 340.36 59.89
  A 2.25 2.24 45.2 0 0 340.36 57.26
  L 335.86 51.06
  Q 335.52 50.60 335.94 50.20"
/>
<path stroke="#5e706c" vector-effect="non-scaling-stroke" d="
  M 358.46 58.78
  A 0.31 0.31 0.0 0 1 359.02 58.71
  Q 361.81 63.65 365.79 67.68
  A 1.54 1.53 50.2 0 0 367.76 67.86
  L 376.98 61.50
  A 0.25 0.25 0.0 0 1 377.37 61.72
  L 376.87 72.60
  A 2.32 2.32 0.0 0 0 378.62 74.95
  Q 383.25 76.11 388.51 76.10
  Q 390.43 76.10 390.92 74.23
  Q 395.45 57.01 396.85 39.16
  A 1.90 1.90 0.0 0 0 395.77 37.30
  C 391.23 35.16 383.21 33.41 379.09 37.34
  Q 374.64 41.59 370.79 46.00
  A 0.66 0.66 0.0 0 1 369.68 45.82
  Q 367.15 39.56 363.79 33.90
  C 361.47 29.98 354.40 29.48 350.37 29.47
  C 348.32 29.47 347.40 30.00 346.93 31.99
  Q 342.88 49.21 341.62 66.47
  A 2.41 2.41 0.0 0 0 343.58 69.02
  L 353.30 70.84
  A 1.62 1.62 0.0 0 0 355.16 69.71
  L 358.46 58.78"
/>
<path stroke="#5e706c" vector-effect="non-scaling-stroke" d="
  M 284.17 39.95
  A 1.26 1.26 0.0 0 0 285.00 41.86
  L 288.89 42.60
  A 1.61 1.61 0.0 0 0 290.69 40.46
  L 289.02 35.93
  A 1.21 1.21 0.0 0 0 286.87 35.70
  L 284.17 39.95"
/>
<path stroke="#5e706c" vector-effect="non-scaling-stroke" d="
  M 321.11 37.57
  L 320.95 41.59
  A 1.44 1.44 0.0 0 0 322.33 43.09
  L 323.25 43.12
  A 4.10 3.35 2.3 0 0 327.48 39.94
  L 327.49 39.74
  A 4.10 3.35 2.3 0 0 323.53 36.23
  L 322.61 36.19
  A 1.44 1.44 0.0 0 0 321.11 37.57"
/>
<path stroke="#9e7f60" vector-effect="non-scaling-stroke" d="
  M 285.41 40.29
  A 0.51 0.51 0.0 0 0 285.80 41.06
  L 289.04 41.39
  A 0.51 0.51 0.0 0 0 289.57 40.71
  L 288.30 37.13
  A 0.51 0.51 0.0 0 0 287.38 37.03
  L 285.41 40.29"
/>
<path stroke="#a97a3f" vector-effect="non-scaling-stroke" d="
  M 322.33 38.10
  L 322.16 41.11
  A 0.74 0.74 0.0 0 0 322.85 41.89
  L 323.09 41.91
  A 3.04 2.11 3.3 0 0 326.25 39.98
  L 326.26 39.70
  A 3.04 2.11 3.3 0 0 323.35 37.41
  L 323.11 37.40
  A 0.74 0.74 0.0 0 0 322.33 38.10"
/>
<path stroke="#5e706c" vector-effect="non-scaling-stroke" d="
  M 407.54 43.26
  C 401.31 53.43 396.80 64.27 393.86 74.94
  A 2.19 2.18 17.5 0 0 395.24 77.58
  Q 399.26 79.00 403.50 79.08
  C 405.74 79.12 407.75 75.22 408.98 73.15
  A 1.21 1.20 -80.4 0 1 409.76 72.59
  C 412.30 72.06 417.75 72.70 417.78 76.26
  Q 417.81 79.46 419.20 81.67
  A 1.19 1.18 -12.1 0 0 420.02 82.20
  Q 424.58 82.89 429.17 83.12
  C 431.94 83.26 433.26 82.42 432.94 79.50
  Q 430.86 60.40 427.19 46.03
  C 425.76 40.43 417.67 40.24 413.00 40.65
  C 410.20 40.90 409.17 40.60 407.54 43.26"
/>
<path stroke="#5e706c" vector-effect="non-scaling-stroke" d="
  M 450.29 57.63
  Q 451.86 56.76 453.29 57.60
  Q 453.67 57.82 453.73 58.26
  C 454.27 62.34 466.28 60.40 466.13 56.75
  Q 465.94 52.20 461.36 48.63
  C 453.66 42.64 439.62 45.04 436.93 55.74
  Q 435.01 63.39 440.51 67.64
  C 443.18 69.71 447.81 70.89 451.34 72.76
  A 1.01 1.00 -33.1 0 1 450.94 74.65
  L 449.11 74.79
  Q 448.51 74.84 448.34 74.26
  C 446.77 69.06 438.24 69.23 434.50 71.06
  A 1.55 1.55 0.0 0 0 433.62 72.46
  C 433.52 90.22 464.96 92.67 466.08 74.43
  C 466.58 66.34 457.50 61.09 450.62 59.75
  A 1.14 1.14 0.0 0 1 450.29 57.63"
/>
<path stroke="#5e706c" vector-effect="non-scaling-stroke" d="
  M 509.2568 71.7555
  A 20.90 20.53 -2.7 0 0 487.4129 52.2328
  A 20.90 20.53 -2.7 0 0 467.5032 73.7245
  A 20.90 20.53 -2.7 0 0 489.3471 93.2472
  A 20.90 20.53 -2.7 0 0 509.2568 71.7555"
/>
<path stroke="#9e7f60" vector-effect="non-scaling-stroke" d="
  M 451.24 58.83
  L 452.12 59.15
  A 0.50 0.49 -19.9 0 0 452.54 58.26
  Q 452.01 57.96 451.31 58.09
  A 0.39 0.38 50.4 0 0 451.24 58.83"
/>
<path stroke="#9e7f60" vector-effect="non-scaling-stroke" d="
  M 448.21 72.72
  L 449.18 73.71
  A 0.37 0.37 0.0 0 0 449.75 73.23
  Q 449.25 72.57 448.47 72.31
  Q 447.50 71.98 448.21 72.72"
/>
<path stroke="#5e706c" vector-effect="non-scaling-stroke" d="
  M 418.02 63.11
  A 1.47 1.47 0.0 0 0 418.40 61.53
  L 416.96 57.59
  A 1.47 1.47 0.0 0 0 414.35 57.29
  L 412.05 60.78
  A 1.47 1.47 0.0 0 0 412.85 63.00
  L 416.01 63.97
  A 1.47 1.47 0.0 0 0 417.45 63.64
  L 418.02 63.11"
/>
<path stroke="#5e706c" vector-effect="non-scaling-stroke" d="
  M 493.25 72.77
  A 4.94 4.94 0.0 0 0 488.31 67.83
  A 4.94 4.94 0.0 0 0 483.37 72.77
  A 4.94 4.94 0.0 0 0 488.31 77.71
  A 4.94 4.94 0.0 0 0 493.25 72.77"
/>
<path stroke="#986b45" vector-effect="non-scaling-stroke" d="
  M 413.16 61.12
  A 0.77 0.77 0.0 0 0 413.60 62.31
  L 416.26 62.99
  A 0.77 0.77 0.0 0 0 417.20 62.06
  L 416.38 58.71
  A 0.77 0.77 0.0 0 0 415.00 58.45
  L 413.16 61.12"
/>
<path stroke="#5e706c" vector-effect="non-scaling-stroke" d="
  M 296.65 100.07
  A 0.43 0.42 -48.7 0 1 296.60 99.24
  C 303.25 97.27 310.78 97.07 311.94 88.50
  C 314.27 71.26 289.84 64.86 282.47 79.88
  C 280.10 84.71 287.13 86.01 289.93 87.11
  A 2.72 2.71 -64.3 0 0 293.28 85.93
  L 294.37 84.02
  Q 294.73 83.39 295.40 83.67
  L 297.73 84.69
  A 1.19 1.19 0.0 0 1 297.57 86.93
  Q 294.96 87.64 292.28 88.35
  Q 277.53 92.27 277.61 107.98
  A 1.16 1.16 0.0 0 0 278.51 109.11
  Q 291.22 112.08 304.50 113.47
  Q 305.90 113.62 306.88 113.25
  A 1.14 1.13 -2.3 0 0 307.55 112.53
  C 308.67 108.77 310.18 100.90 304.00 100.73
  Q 300.15 100.62 296.65 100.07"
/>
<path stroke="#9e7f60" vector-effect="non-scaling-stroke" d="
  M 294.01 86.60
  A 0.26 0.26 0.0 0 0 294.33 86.95
  L 296.59 86.18
  A 0.54 0.54 0.0 0 0 296.85 85.35
  Q 296.33 84.63 295.39 84.99
  Q 294.64 85.27 294.01 86.60"
/>
<path stroke="#5e706c" vector-effect="non-scaling-stroke" d="
  M 364.84 108.81
  C 368.26 99.07 367.76 85.54 356.61 81.37
  C 351.78 79.56 343.92 79.40 339.59 82.90
  C 330.88 89.93 328.12 110.91 338.55 117.70
  Q 344.58 121.63 352.07 120.67
  C 359.04 119.77 362.63 115.10 364.84 108.81"
/>
<path stroke="#5e706c" vector-effect="non-scaling-stroke" d="
  M 348.3280 106.1982
  A 5.83 4.96 99.0 0 0 354.1389 101.2159
  A 5.83 4.96 99.0 0 0 350.1520 94.6818
  A 5.83 4.96 99.0 0 0 344.3411 99.6641
  A 5.83 4.96 99.0 0 0 348.3280 106.1982"
/>
<path stroke="#5e706c" vector-effect="non-scaling-stroke" d="
  M 403.27 116.34
  C 407.45 114.57 413.24 114.89 416.08 111.01
  C 423.05 101.50 415.35 89.30 403.99 88.49
  Q 392.82 87.70 388.38 98.31
  Q 388.21 98.73 388.35 99.16
  C 389.43 102.55 394.04 103.12 396.79 104.18
  A 2.40 2.40 0.0 0 0 400.03 102.29
  Q 400.22 101.03 401.99 100.97
  Q 404.03 100.89 404.64 102.32
  A 1.25 1.25 0.0 0 1 403.71 104.05
  C 396.20 105.35 388.95 108.10 385.74 115.59
  C 384.76 117.88 384.40 120.81 383.98 123.42
  C 383.64 125.51 384.50 126.23 386.38 126.60
  Q 400.74 129.49 411.24 130.67
  C 414.63 131.05 415.12 126.93 415.08 124.42
  C 415.04 121.05 415.27 118.29 411.26 118.00
  Q 407.27 117.70 403.34 116.95
  Q 402.29 116.75 403.27 116.34"
/>
<path stroke="#9e7f60" vector-effect="non-scaling-stroke" d="
  M 403.36 102.89
  A 0.37 0.36 -46.1 0 0 403.35 102.21
  Q 401.47 101.49 400.75 103.26
  Q 400.40 104.15 401.28 103.78
  L 403.36 102.89"
/>
<path stroke="#a97a3f" vector-effect="non-scaling-stroke" d="
  M 348.3280 105.0408
  A 4.73 3.83 100.5 0 0 352.9559 101.0880
  A 4.73 3.83 100.5 0 0 350.0520 95.7392
  A 4.73 3.83 100.5 0 0 345.4241 99.6920
  A 4.73 3.83 100.5 0 0 348.3280 105.0408"
/>
<path stroke="#5e706c" vector-effect="non-scaling-stroke" d="
  M 468.20 115.96
  Q 468.68 109.95 469.57 103.99
  C 469.99 101.22 469.73 99.86 467.03 98.92
  Q 462.85 97.47 459.01 98.05
  Q 455.99 98.51 452.08 101.51
  C 445.22 106.79 438.52 110.97 438.05 119.46
  C 437.83 123.31 437.32 125.55 441.73 126.24
  Q 445.77 126.88 449.71 127.35
  A 1.03 1.02 -86.5 0 1 450.61 128.37
  L 450.57 135.65
  A 1.08 1.07 -79.9 0 0 451.27 136.66
  Q 456.50 138.52 462.05 137.96
  A 0.78 0.78 0.0 0 0 462.71 137.43
  L 465.06 130.35
  Q 465.20 129.92 465.65 129.87
  C 467.53 129.67 470.72 130.58 471.45 128.71
  Q 473.09 124.44 473.52 119.59
  Q 473.67 117.98 472.11 117.55
  L 468.63 116.57
  Q 468.16 116.44 468.20 115.96"
/>
<path stroke="#5e706c" vector-effect="non-scaling-stroke" d="
  M 456.80 114.10
  A 0.32 0.32 0.0 0 0 456.28 113.84
  L 453.11 116.36
  A 0.32 0.32 0.0 0 0 453.25 116.93
  L 456.32 117.54
  A 0.32 0.32 0.0 0 0 456.70 117.24
  L 456.80 114.10"
/>
</g>
<path fill="#d6a163" d="
  M 0.00 0.00
  L 271.34 0.00
  C 270.67 2.66 270.48 5.80 269.94 8.02
  Q 266.85 20.92 256.42 28.39
  C 248.37 34.16 237.80 33.99 228.68 31.05
  Q 217.08 27.29 205.63 22.62
  A 1.07 1.06 -75.8 0 0 204.17 23.50
  C 202.94 34.98 202.22 46.30 196.38 56.66
  C 190.41 67.23 176.81 72.23 164.89 74.80
  C 139.87 80.19 124.26 68.81 104.23 56.87
  Q 103.78 56.61 103.34 56.88
  C 91.42 64.16 74.86 65.40 64.04 55.21
  Q 58.42 49.92 53.65 43.78
  A 1.12 1.12 0.0 0 0 51.64 44.50
  Q 52.14 59.74 52.17 75.51
  C 52.19 89.16 50.02 104.79 42.69 116.50
  C 32.35 133.02 16.22 142.92 0.00 151.79
  L 0.00 0.00
  Z"
/>
<path fill="#6f5547" d="
  M 271.34 0.00
  L 272.75 0.00
  Q 272.24 19.23 257.53 29.88
  C 242.49 40.76 223.07 31.54 206.42 24.95
  Q 205.88 24.73 205.82 25.31
  C 204.19 40.41 202.67 59.59 187.69 68.20
  C 176.45 74.66 161.99 78.84 149.13 78.18
  C 133.42 77.37 117.89 67.69 105.08 59.19
  A 2.17 2.17 0.0 0 0 102.78 59.13
  C 88.71 67.40 72.65 66.11 61.23 55.28
  C 59.18 53.33 56.63 50.04 54.23 47.48
  Q 53.63 46.85 53.65 47.72
  C 54.11 66.26 55.29 85.22 50.37 103.30
  C 43.67 127.98 21.59 142.50 0.00 153.85
  L 0.00 151.79
  C 16.22 142.92 32.35 133.02 42.69 116.50
  C 50.02 104.79 52.19 89.16 52.17 75.51
  Q 52.14 59.74 51.64 44.50
  A 1.12 1.12 0.0 0 1 53.65 43.78
  Q 58.42 49.92 64.04 55.21
  C 74.86 65.40 91.42 64.16 103.34 56.88
  Q 103.78 56.61 104.23 56.87
  C 124.26 68.81 139.87 80.19 164.89 74.80
  C 176.81 72.23 190.41 67.23 196.38 56.66
  C 202.22 46.30 202.94 34.98 204.17 23.50
  A 1.07 1.06 -75.8 0 1 205.63 22.62
  Q 217.08 27.29 228.68 31.05
  C 237.80 33.99 248.37 34.16 256.42 28.39
  Q 266.85 20.92 269.94 8.02
  C 270.48 5.80 270.67 2.66 271.34 0.00
  Z"
/>
<path fill="#e2c99a" d="
  M 272.75 0.00
  L 333.67 0.00
  L 336.64 22.48
  Q 336.91 24.53 334.85 24.39
  L 329.29 24.02
  Q 324.12 21.94 317.69 22.02
  Q 314.94 21.74 309.87 20.63
  Q 304.09 19.36 295.39 19.02
  Q 289.08 17.07 282.61 18.28
  C 280.17 18.73 279.45 20.30 278.31 22.27
  Q 269.67 37.14 265.14 52.96
  C 263.69 58.04 270.88 58.52 275.02 59.15
  C 278.37 59.65 280.42 55.30 282.01 53.03
  Q 282.28 52.65 282.73 52.54
  C 286.25 51.66 288.44 52.77 289.16 56.47
  Q 289.59 58.68 289.97 60.76
  L 265.84 70.12
  A 0.51 0.51 0.0 0 0 265.84 71.07
  Q 274.28 74.19 281.81 78.88
  C 278.55 84.16 284.79 87.28 289.03 87.42
  A 0.40 0.39 34.9 0 1 289.17 88.18
  Q 275.58 93.63 276.72 108.79
  Q 276.80 109.87 277.86 110.10
  L 285.80 111.86
  L 274.77 125.48
  A 0.41 0.41 0.0 0 0 275.02 126.14
  L 277.87 126.67
  C 253.48 137.02 224.22 136.47 198.49 132.10
  Q 192.20 131.03 174.56 127.32
  Q 174.07 127.10 173.67 127.13
  Q 173.18 127.18 173.07 127.64
  Q 172.98 128.01 173.07 128.60
  L 172.95 134.37
  L 172.86 138.25
  L 172.57 142.54
  L 172.19 153.76
  L 172.06 160.02
  L 171.33 165.64
  Q 165.02 205.46 145.90 241.01
  Q 136.87 256.09 123.10 266.09
  C 98.28 280.40 65.80 284.37 37.86 277.98
  C 25.99 275.27 12.28 269.08 0.00 263.90
  L 0.00 153.85
  C 21.59 142.50 43.67 127.98 50.37 103.30
  C 55.29 85.22 54.11 66.26 53.65 47.72
  Q 53.63 46.85 54.23 47.48
  C 56.63 50.04 59.18 53.33 61.23 55.28
  C 72.65 66.11 88.71 67.40 102.78 59.13
  A 2.17 2.17 0.0 0 1 105.08 59.19
  C 117.89 67.69 133.42 77.37 149.13 78.18
  C 161.99 78.84 176.45 74.66 187.69 68.20
  C 202.67 59.59 204.19 40.41 205.82 25.31
  Q 205.88 24.73 206.42 24.95
  C 223.07 31.54 242.49 40.76 257.53 29.88
  Q 272.24 19.23 272.75 0.00
  Z"
/>
<path fill="#f8bf58" d="
  M 333.67 0.00
  L 356.36 0.00
  L 370.98 11.77
  A 0.74 0.74 0.0 0 0 372.13 11.47
  L 376.74 0.00
  L 400.11 0.00
  L 407.06 17.87
  Q 407.51 19.03 408.50 18.27
  L 432.24 0.00
  L 441.94 0.00
  L 436.29 41.53
  Q 436.21 42.14 436.82 42.05
  L 446.38 40.72
  L 449.35 40.52
  L 479.16 36.56
  Q 479.86 36.47 479.41 37.02
  L 466.54 52.83
  C 457.03 37.46 432.30 43.32 435.88 63.54
  Q 436.17 65.18 439.82 68.25
  A 0.36 0.35 -20.2 0 1 439.53 68.87
  Q 436.13 68.31 433.55 70.54
  A 0.45 0.45 0.0 0 1 432.80 70.25
  C 432.30 65.42 429.74 43.46 425.54 41.42
  Q 419.62 38.56 411.23 39.62
  C 408.17 40.01 407.26 41.31 405.84 43.80
  Q 397.27 58.82 392.91 75.19
  A 2.57 2.57 0.0 0 0 394.45 78.24
  C 396.66 79.12 403.10 81.07 405.29 79.78
  C 407.16 78.68 409.00 75.06 410.17 73.52
  A 0.90 0.88 25.3 0 1 411.09 73.20
  L 415.64 74.28
  A 0.96 0.95 -1.6 0 1 416.32 74.92
  C 417.15 77.58 416.91 80.25 418.71 82.61
  A 1.24 1.24 0.0 0 0 419.53 83.09
  Q 424.36 83.78 429.27 84.12
  Q 434.14 84.46 434.16 79.86
  Q 434.16 79.19 434.55 79.73
  Q 441.66 89.66 454.24 87.84
  Q 459.16 87.13 461.65 84.90
  Q 463.77 83.00 464.72 82.73
  L 469.62 84.47
  Q 474.71 91.42 484.48 94.40
  L 470.47 99.07
  Q 465.03 96.33 459.49 96.75
  C 454.01 97.16 448.29 103.04 443.66 106.94
  Q 435.85 113.52 436.93 123.23
  Q 437.30 126.61 439.99 127.04
  Q 444.59 127.77 449.23 128.44
  Q 449.73 128.51 449.69 129.00
  Q 449.46 131.83 449.52 134.71
  C 449.60 138.35 451.88 138.07 454.54 138.82
  Q 459.16 140.12 463.65 138.94
  L 468.45 145.53
  Q 468.77 145.98 468.22 145.90
  L 418.77 138.91
  Q 418.12 138.82 418.20 139.48
  L 423.75 182.24
  Q 423.84 182.98 423.26 182.51
  L 383.88 151.10
  A 0.39 0.38 -58.4 0 0 383.28 151.25
  L 365.45 191.76
  A 0.23 0.23 0.0 0 1 365.02 191.75
  L 347.43 145.22
  Q 347.22 144.66 346.73 145.01
  L 311.04 170.81
  Q 310.41 171.26 310.54 170.50
  L 318.78 121.26
  Q 318.86 120.79 318.39 120.86
  L 284.60 125.37
  Q 280.84 125.36 277.87 126.67
  L 275.02 126.14
  A 0.41 0.41 0.0 0 1 274.77 125.48
  L 285.80 111.86
  Q 297.66 113.90 302.25 114.44
  C 303.48 114.58 306.86 114.82 308.04 113.48
  C 309.92 111.36 309.55 106.53 309.31 103.92
  C 308.87 99.30 303.16 99.59 299.84 100.00
  A 0.41 0.41 0.0 0 1 299.68 99.20
  C 303.63 98.07 306.61 98.49 309.63 95.45
  C 318.15 86.86 310.70 72.46 300.00 70.82
  Q 287.39 68.88 281.81 78.88
  Q 274.28 74.19 265.84 71.07
  A 0.51 0.51 0.0 0 1 265.84 70.12
  L 289.97 60.76
  Q 297.29 63.98 305.14 62.21
  Q 305.68 62.09 305.81 62.63
  C 306.04 63.51 306.33 63.83 307.24 64.09
  Q 311.23 65.23 315.34 65.47
  C 318.56 65.66 321.62 66.12 321.83 62.14
  A 0.60 0.60 0.0 0 1 322.81 61.71
  Q 325.57 64.01 328.57 66.42
  C 333.52 70.40 337.07 65.65 340.02 62.21
  Q 340.50 61.66 340.62 62.38
  C 341.10 65.32 339.44 69.08 343.47 70.12
  Q 348.56 71.44 353.54 71.63
  A 2.84 2.84 0.0 0 0 356.38 69.60
  L 358.87 61.28
  A 0.22 0.22 0.0 0 1 359.26 61.22
  C 360.76 63.48 363.82 68.28 366.15 68.83
  C 368.53 69.39 374.02 65.15 375.75 63.58
  A 0.38 0.37 73.5 0 1 376.37 63.92
  C 375.80 67.34 374.18 74.88 379.04 76.01
  Q 383.39 77.02 387.88 77.29
  C 390.68 77.45 391.17 76.52 391.79 74.10
  Q 396.76 54.56 397.69 39.50
  C 397.98 34.88 388.91 34.30 385.48 33.99
  C 379.84 33.46 374.60 39.78 370.87 44.43
  Q 370.47 44.93 370.22 44.35
  Q 367.92 39.10 365.28 34.00
  C 362.60 28.84 354.49 28.23 349.74 28.37
  Q 346.76 28.46 345.98 31.76
  Q 342.58 46.11 341.44 56.48
  A 0.09 0.09 0.0 0 1 341.28 56.52
  L 337.57 51.30
  Q 337.24 50.84 337.58 50.39
  Q 343.93 41.83 339.76 32.67
  Q 337.26 27.19 329.29 24.02
  L 334.85 24.39
  Q 336.91 24.53 336.64 22.48
  L 333.67 0.00
  Z
  M 336.88 117.62
  C 344.08 123.46 357.72 123.91 363.13 114.81
  C 371.80 100.22 369.07 77.88 347.21 79.05
  Q 339.55 79.46 335.58 85.81
  C 330.04 94.69 327.68 110.18 336.88 117.62
  Z
  M 406.02 116.27
  C 408.24 115.54 410.93 115.51 412.75 114.65
  C 421.14 110.70 421.36 99.28 415.81 93.02
  Q 412.35 89.13 406.55 87.84
  Q 396.50 85.62 389.28 94.22
  C 384.06 100.45 390.70 104.04 396.05 104.54
  A 0.34 0.34 0.0 0 1 396.11 105.20
  C 386.94 107.90 383.72 115.06 382.90 124.01
  C 382.75 125.69 383.59 126.94 385.32 127.32
  Q 392.82 128.96 406.26 130.98
  Q 409.90 131.53 412.49 131.35
  C 416.59 131.08 416.27 123.72 415.84 121.36
  C 415.37 118.75 414.91 117.62 412.00 117.27
  Q 409.07 116.91 406.09 116.78
  A 0.26 0.26 0.0 0 1 406.02 116.27
  Z"
/>
<path fill="#e2c99a" d="
  M 356.36 0.00
  L 376.74 0.00
  L 372.13 11.47
  A 0.74 0.74 0.0 0 1 370.98 11.77
  L 356.36 0.00
  Z"
/>
<path fill="#e2c99a" d="
  M 400.11 0.00
  L 432.24 0.00
  L 408.50 18.27
  Q 407.51 19.03 407.06 17.87
  L 400.11 0.00
  Z"
/>
<path fill="#e2c99a" d="
  M 441.94 0.00
  L 533.07 0.00
  Q 533.45 0.80 532.78 2.26
  C 528.62 6.55 523.36 9.46 517.87 12.16
  Q 503.18 19.39 487.15 13.22
  Q 480.69 10.73 474.60 8.41
  A 1.77 1.77 0.0 0 0 472.47 9.11
  C 464.86 21.05 458.10 31.40 446.38 40.72
  L 436.82 42.05
  Q 436.21 42.14 436.29 41.53
  L 441.94 0.00
  Z"
/>
<path fill="#6f5547" d="
  M 534.31 0.00
  L 535.89 0.00
  Q 534.21 4.40 529.93 7.42
  C 521.81 13.16 511.77 17.70 501.78 17.89
  C 492.15 18.07 485.33 14.72 474.66 10.25
  A 0.67 0.66 27.9 0 0 473.85 10.49
  Q 467.66 19.59 461.46 28.46
  Q 457.82 33.66 449.35 40.52
  L 446.38 40.72
  C 458.10 31.40 464.86 21.05 472.47 9.11
  A 1.77 1.77 0.0 0 1 474.60 8.41
  Q 480.69 10.73 487.15 13.22
  Q 503.18 19.39 517.87 12.16
  C 523.36 9.46 528.62 6.55 532.78 2.26
  Q 533.83 1.35 534.31 0.00
  Z"
/>
<path fill="#5a3426" d="
  M 295.39 19.02
  C 297.97 20.12 299.81 21.54 300.58 24.46
  Q 304.23 38.15 305.40 52.30
  Q 305.41 52.39 305.49 52.40
  Q 305.52 52.40 305.56 52.40
  Q 305.71 52.40 305.72 52.25
  Q 306.55 40.10 308.66 28.14
  Q 309.09 25.71 310.37 23.59
  Q 310.64 23.14 311.16 23.05
  L 317.69 22.02
  Q 324.12 21.94 329.29 24.02
  Q 337.26 27.19 339.76 32.67
  Q 343.93 41.83 337.58 50.39
  Q 337.24 50.84 337.57 51.30
  L 341.28 56.52
  A 0.09 0.09 0.0 0 0 341.44 56.48
  Q 342.58 46.11 345.98 31.76
  Q 346.76 28.46 349.74 28.37
  C 354.49 28.23 362.60 28.84 365.28 34.00
  Q 367.92 39.10 370.22 44.35
  Q 370.47 44.93 370.87 44.43
  C 374.60 39.78 379.84 33.46 385.48 33.99
  C 388.91 34.30 397.98 34.88 397.69 39.50
  Q 396.76 54.56 391.79 74.10
  C 391.17 76.52 390.68 77.45 387.88 77.29
  Q 383.39 77.02 379.04 76.01
  C 374.18 74.88 375.80 67.34 376.37 63.92
  A 0.38 0.37 73.5 0 0 375.75 63.58
  C 374.02 65.15 368.53 69.39 366.15 68.83
  C 363.82 68.28 360.76 63.48 359.26 61.22
  A 0.22 0.22 0.0 0 0 358.87 61.28
  L 356.38 69.60
  A 2.84 2.84 0.0 0 1 353.54 71.63
  Q 348.56 71.44 343.47 70.12
  C 339.44 69.08 341.10 65.32 340.62 62.38
  Q 340.50 61.66 340.02 62.21
  C 337.07 65.65 333.52 70.40 328.57 66.42
  Q 325.57 64.01 322.81 61.71
  A 0.60 0.60 0.0 0 0 321.83 62.14
  C 321.62 66.12 318.56 65.66 315.34 65.47
  Q 311.23 65.23 307.24 64.09
  C 306.33 63.83 306.04 63.51 305.81 62.63
  Q 305.68 62.09 305.14 62.21
  Q 297.29 63.98 289.97 60.76
  Q 289.59 58.68 289.16 56.47
  C 288.44 52.77 286.25 51.66 282.73 52.54
  Q 282.28 52.65 282.01 53.03
  C 280.42 55.30 278.37 59.65 275.02 59.15
  C 270.88 58.52 263.69 58.04 265.14 52.96
  Q 269.67 37.14 278.31 22.27
  C 279.45 20.30 280.17 18.73 282.61 18.28
  Q 289.08 17.07 295.39 19.02
  Z
  M 305.25 60.08
  C 304.47 50.39 302.88 37.67 300.07 27.16
  C 299.21 23.97 298.73 21.69 295.78 20.68
  Q 289.18 18.43 281.70 19.95
  A 1.38 1.36 -79.8 0 0 280.82 20.57
  Q 271.10 36.53 266.00 54.52
  A 0.83 0.82 25.7 0 0 266.32 55.42
  C 268.73 57.13 273.09 57.61 276.16 58.06
  A 0.99 0.98 21.9 0 0 277.11 57.66
  L 281.49 51.60
  A 1.14 1.11 15.8 0 1 282.34 51.14
  Q 285.84 50.93 289.05 52.38
  A 1.00 0.98 6.7 0 1 289.61 53.08
  L 290.72 58.65
  A 2.97 2.97 0.0 0 0 293.19 61.00
  C 296.09 61.43 302.11 62.52 304.80 60.95
  Q 305.30 60.66 305.25 60.08
  Z
  M 335.94 50.20
  Q 340.76 45.66 340.02 38.46
  C 338.66 25.39 323.40 21.71 312.75 24.03
  Q 310.64 24.49 310.18 27.00
  Q 307.05 44.00 306.31 60.88
  A 2.34 2.33 7.8 0 0 308.12 63.25
  Q 312.50 64.25 317.30 64.62
  C 319.38 64.78 321.19 63.61 321.04 61.48
  A 1.17 1.17 0.0 0 1 322.97 60.50
  Q 326.95 63.87 330.57 66.45
  Q 332.52 67.83 334.30 66.34
  Q 337.80 63.43 340.36 59.89
  A 2.25 2.24 45.2 0 0 340.36 57.26
  L 335.86 51.06
  Q 335.52 50.60 335.94 50.20
  Z
  M 358.46 58.78
  A 0.31 0.31 0.0 0 1 359.02 58.71
  Q 361.81 63.65 365.79 67.68
  A 1.54 1.53 50.2 0 0 367.76 67.86
  L 376.98 61.50
  A 0.25 0.25 0.0 0 1 377.37 61.72
  L 376.87 72.60
  A 2.32 2.32 0.0 0 0 378.62 74.95
  Q 383.25 76.11 388.51 76.10
  Q 390.43 76.10 390.92 74.23
  Q 395.45 57.01 396.85 39.16
  A 1.90 1.90 0.0 0 0 395.77 37.30
  C 391.23 35.16 383.21 33.41 379.09 37.34
  Q 374.64 41.59 370.79 46.00
  A 0.66 0.66 0.0 0 1 369.68 45.82
  Q 367.15 39.56 363.79 33.90
  C 361.47 29.98 354.40 29.48 350.37 29.47
  C 348.32 29.47 347.40 30.00 346.93 31.99
  Q 342.88 49.21 341.62 66.47
  A 2.41 2.41 0.0 0 0 343.58 69.02
  L 353.30 70.84
  A 1.62 1.62 0.0 0 0 355.16 69.71
  L 358.46 58.78
  Z"
/>
<path fill="#f8bf58" d="
  M 295.39 19.02
  Q 304.09 19.36 309.87 20.63
  Q 314.94 21.74 317.69 22.02
  L 311.16 23.05
  Q 310.64 23.14 310.37 23.59
  Q 309.09 25.71 308.66 28.14
  Q 306.55 40.10 305.72 52.25
  Q 305.71 52.40 305.56 52.40
  Q 305.52 52.40 305.49 52.40
  Q 305.41 52.39 305.40 52.30
  Q 304.23 38.15 300.58 24.46
  C 299.81 21.54 297.97 20.12 295.39 19.02
  Z"
/>
<path fill="#62abb1" d="
  M 300.07 27.16
  C 302.88 37.67 304.47 50.39 305.25 60.08
  Q 305.30 60.66 304.80 60.95
  C 302.11 62.52 296.09 61.43 293.19 61.00
  A 2.97 2.97 0.0 0 1 290.72 58.65
  L 289.61 53.08
  A 1.00 0.98 6.7 0 0 289.05 52.38
  Q 285.84 50.93 282.34 51.14
  A 1.14 1.11 15.8 0 0 281.49 51.60
  L 277.11 57.66
  A 0.99 0.98 21.9 0 1 276.16 58.06
  C 273.09 57.61 268.73 57.13 266.32 55.42
  A 0.83 0.82 25.7 0 1 266.00 54.52
  Q 271.10 36.53 280.82 20.57
  A 1.38 1.36 -79.8 0 1 281.70 19.95
  Q 289.18 18.43 295.78 20.68
  C 298.73 21.69 299.21 23.97 300.07 27.16
  Z
  M 284.17 39.95
  A 1.26 1.26 0.0 0 0 285.00 41.86
  L 288.89 42.60
  A 1.61 1.61 0.0 0 0 290.69 40.46
  L 289.02 35.93
  A 1.21 1.21 0.0 0 0 286.87 35.70
  L 284.17 39.95
  Z"
/>
<path fill="#62abb1" d="
  M 335.86 51.06
  L 340.36 57.26
  A 2.25 2.24 45.2 0 1 340.36 59.89
  Q 337.80 63.43 334.30 66.34
  Q 332.52 67.83 330.57 66.45
  Q 326.95 63.87 322.97 60.50
  A 1.17 1.17 0.0 0 0 321.04 61.48
  C 321.19 63.61 319.38 64.78 317.30 64.62
  Q 312.50 64.25 308.12 63.25
  A 2.34 2.33 7.8 0 1 306.31 60.88
  Q 307.05 44.00 310.18 27.00
  Q 310.64 24.49 312.75 24.03
  C 323.40 21.71 338.66 25.39 340.02 38.46
  Q 340.76 45.66 335.94 50.20
  Q 335.52 50.60 335.86 51.06
  Z
  M 321.11 37.57
  L 320.95 41.59
  A 1.44 1.44 0.0 0 0 322.33 43.09
  L 323.25 43.12
  A 4.10 3.35 2.3 0 0 327.48 39.94
  L 327.49 39.74
  A 4.10 3.35 2.3 0 0 323.53 36.23
  L 322.61 36.19
  A 1.44 1.44 0.0 0 0 321.11 37.57
  Z"
/>
<path fill="#62abb1" d="
  M 358.46 58.78
  L 355.16 69.71
  A 1.62 1.62 0.0 0 1 353.30 70.84
  L 343.58 69.02
  A 2.41 2.41 0.0 0 1 341.62 66.47
  Q 342.88 49.21 346.93 31.99
  C 347.40 30.00 348.32 29.47 350.37 29.47
  C 354.40 29.48 361.47 29.98 363.79 33.90
  Q 367.15 39.56 369.68 45.82
  A 0.66 0.66 0.0 0 0 370.79 46.00
  Q 374.64 41.59 379.09 37.34
  C 383.21 33.41 391.23 35.16 395.77 37.30
  A 1.90 1.90 0.0 0 1 396.85 39.16
  Q 395.45 57.01 390.92 74.23
  Q 390.43 76.10 388.51 76.10
  Q 383.25 76.11 378.62 74.95
  A 2.32 2.32 0.0 0 1 376.87 72.60
  L 377.37 61.72
  A 0.25 0.25 0.0 0 0 376.98 61.50
  L 367.76 67.86
  A 1.54 1.53 50.2 0 1 365.79 67.68
  Q 361.81 63.65 359.02 58.71
  A 0.31 0.31 0.0 0 0 358.46 58.78
  Z"
/>
<path fill="#5a3426" d="
  M 284.17 39.95
  L 286.87 35.70
  A 1.21 1.21 0.0 0 1 289.02 35.93
  L 290.69 40.46
  A 1.61 1.61 0.0 0 1 288.89 42.60
  L 285.00 41.86
  A 1.26 1.26 0.0 0 1 284.17 39.95
  Z
  M 285.41 40.29
  A 0.51 0.51 0.0 0 0 285.80 41.06
  L 289.04 41.39
  A 0.51 0.51 0.0 0 0 289.57 40.71
  L 288.30 37.13
  A 0.51 0.51 0.0 0 0 287.38 37.03
  L 285.41 40.29
  Z"
/>
<path fill="#5a3426" d="
  M 321.11 37.57
  A 1.44 1.44 0.0 0 1 322.61 36.19
  L 323.53 36.23
  A 4.10 3.35 2.3 0 1 327.49 39.74
  L 327.48 39.94
  A 4.10 3.35 2.3 0 1 323.25 43.12
  L 322.33 43.09
  A 1.44 1.44 0.0 0 1 320.95 41.59
  L 321.11 37.57
  Z
  M 322.33 38.10
  L 322.16 41.11
  A 0.74 0.74 0.0 0 0 322.85 41.89
  L 323.09 41.91
  A 3.04 2.11 3.3 0 0 326.25 39.98
  L 326.26 39.70
  A 3.04 2.11 3.3 0 0 323.35 37.41
  L 323.11 37.40
  A 0.74 0.74 0.0 0 0 322.33 38.10
  Z"
/>
<path fill="#e2c99a" d="
  M 285.41 40.29
  L 287.38 37.03
  A 0.51 0.51 0.0 0 1 288.30 37.13
  L 289.57 40.71
  A 0.51 0.51 0.0 0 1 289.04 41.39
  L 285.80 41.06
  A 0.51 0.51 0.0 0 1 285.41 40.29
  Z"
/>
<path fill="#f8bf58" d="
  M 322.33 38.10
  A 0.74 0.74 0.0 0 1 323.11 37.40
  L 323.35 37.41
  A 3.04 2.11 3.3 0 1 326.26 39.70
  L 326.25 39.98
  A 3.04 2.11 3.3 0 1 323.09 41.91
  L 322.85 41.89
  A 0.74 0.74 0.0 0 1 322.16 41.11
  L 322.33 38.10
  Z"
/>
<path fill="#5a3426" d="
  M 466.54 52.83
  Q 468.82 58.21 465.55 60.08
  Q 464.25 60.83 460.37 61.61
  Q 459.45 61.79 460.25 62.28
  Q 464.05 64.58 465.85 68.65
  Q 466.23 69.50 466.52 68.61
  C 467.55 65.48 468.57 62.55 470.46 59.97
  C 484.05 41.42 515.28 53.62 509.81 77.61
  Q 506.96 90.07 493.05 94.35
  Q 490.62 95.10 484.48 94.40
  Q 474.71 91.42 469.62 84.47
  L 467.32 78.80
  Q 467.14 78.34 466.82 78.72
  Q 465.19 80.67 464.72 82.73
  Q 463.77 83.00 461.65 84.90
  Q 459.16 87.13 454.24 87.84
  Q 441.66 89.66 434.55 79.73
  Q 434.16 79.19 434.16 79.86
  Q 434.14 84.46 429.27 84.12
  Q 424.36 83.78 419.53 83.09
  A 1.24 1.24 0.0 0 1 418.71 82.61
  C 416.91 80.25 417.15 77.58 416.32 74.92
  A 0.96 0.95 -1.6 0 0 415.64 74.28
  L 411.09 73.20
  A 0.90 0.88 25.3 0 0 410.17 73.52
  C 409.00 75.06 407.16 78.68 405.29 79.78
  C 403.10 81.07 396.66 79.12 394.45 78.24
  A 2.57 2.57 0.0 0 1 392.91 75.19
  Q 397.27 58.82 405.84 43.80
  C 407.26 41.31 408.17 40.01 411.23 39.62
  Q 419.62 38.56 425.54 41.42
  C 429.74 43.46 432.30 65.42 432.80 70.25
  A 0.45 0.45 0.0 0 0 433.55 70.54
  Q 436.13 68.31 439.53 68.87
  A 0.36 0.35 -20.2 0 0 439.82 68.25
  Q 436.17 65.18 435.88 63.54
  C 432.30 43.32 457.03 37.46 466.54 52.83
  Z
  M 407.54 43.26
  C 401.31 53.43 396.80 64.27 393.86 74.94
  A 2.19 2.18 17.5 0 0 395.24 77.58
  Q 399.26 79.00 403.50 79.08
  C 405.74 79.12 407.75 75.22 408.98 73.15
  A 1.21 1.20 -80.4 0 1 409.76 72.59
  C 412.30 72.06 417.75 72.70 417.78 76.26
  Q 417.81 79.46 419.20 81.67
  A 1.19 1.18 -12.1 0 0 420.02 82.20
  Q 424.58 82.89 429.17 83.12
  C 431.94 83.26 433.26 82.42 432.94 79.50
  Q 430.86 60.40 427.19 46.03
  C 425.76 40.43 417.67 40.24 413.00 40.65
  C 410.20 40.90 409.17 40.60 407.54 43.26
  Z
  M 450.29 57.63
  Q 451.86 56.76 453.29 57.60
  Q 453.67 57.82 453.73 58.26
  C 454.27 62.34 466.28 60.40 466.13 56.75
  Q 465.94 52.20 461.36 48.63
  C 453.66 42.64 439.62 45.04 436.93 55.74
  Q 435.01 63.39 440.51 67.64
  C 443.18 69.71 447.81 70.89 451.34 72.76
  A 1.01 1.00 -33.1 0 1 450.94 74.65
  L 449.11 74.79
  Q 448.51 74.84 448.34 74.26
  C 446.77 69.06 438.24 69.23 434.50 71.06
  A 1.55 1.55 0.0 0 0 433.62 72.46
  C 433.52 90.22 464.96 92.67 466.08 74.43
  C 466.58 66.34 457.50 61.09 450.62 59.75
  A 1.14 1.14 0.0 0 1 450.29 57.63
  Z
  M 509.2568 71.7555
  A 20.90 20.53 -2.7 0 0 487.4129 52.2328
  A 20.90 20.53 -2.7 0 0 467.5032 73.7245
  A 20.90 20.53 -2.7 0 0 489.3471 93.2472
  A 20.90 20.53 -2.7 0 0 509.2568 71.7555
  Z
  M 451.24 58.83
  L 452.12 59.15
  A 0.50 0.49 -19.9 0 0 452.54 58.26
  Q 452.01 57.96 451.31 58.09
  A 0.39 0.38 50.4 0 0 451.24 58.83
  Z
  M 448.21 72.72
  L 449.18 73.71
  A 0.37 0.37 0.0 0 0 449.75 73.23
  Q 449.25 72.57 448.47 72.31
  Q 447.50 71.98 448.21 72.72
  Z"
/>
<path fill="#62abb1" d="
  M 393.86 74.94
  C 396.80 64.27 401.31 53.43 407.54 43.26
  C 409.17 40.60 410.20 40.90 413.00 40.65
  C 417.67 40.24 425.76 40.43 427.19 46.03
  Q 430.86 60.40 432.94 79.50
  C 433.26 82.42 431.94 83.26 429.17 83.12
  Q 424.58 82.89 420.02 82.20
  A 1.19 1.18 -12.1 0 1 419.20 81.67
  Q 417.81 79.46 417.78 76.26
  C 417.75 72.70 412.30 72.06 409.76 72.59
  A 1.21 1.20 -80.4 0 0 408.98 73.15
  C 407.75 75.22 405.74 79.12 403.50 79.08
  Q 399.26 79.00 395.24 77.58
  A 2.19 2.18 17.5 0 1 393.86 74.94
  Z
  M 418.02 63.11
  A 1.47 1.47 0.0 0 0 418.40 61.53
  L 416.96 57.59
  A 1.47 1.47 0.0 0 0 414.35 57.29
  L 412.05 60.78
  A 1.47 1.47 0.0 0 0 412.85 63.00
  L 416.01 63.97
  A 1.47 1.47 0.0 0 0 417.45 63.64
  L 418.02 63.11
  Z"
/>
<path fill="#62abb1" d="
  M 450.29 57.63
  A 1.14 1.14 0.0 0 0 450.62 59.75
  C 457.50 61.09 466.58 66.34 466.08 74.43
  C 464.96 92.67 433.52 90.22 433.62 72.46
  A 1.55 1.55 0.0 0 1 434.50 71.06
  C 438.24 69.23 446.77 69.06 448.34 74.26
  Q 448.51 74.84 449.11 74.79
  L 450.94 74.65
  A 1.01 1.00 -33.1 0 0 451.34 72.76
  C 447.81 70.89 443.18 69.71 440.51 67.64
  Q 435.01 63.39 436.93 55.74
  C 439.62 45.04 453.66 42.64 461.36 48.63
  Q 465.94 52.20 466.13 56.75
  C 466.28 60.40 454.27 62.34 453.73 58.26
  Q 453.67 57.82 453.29 57.60
  Q 451.86 56.76 450.29 57.63
  Z"
/>
<path fill="#62abb1" d="
  M 509.2568 71.7555
  A 20.90 20.53 -2.7 0 1 489.3471 93.2472
  A 20.90 20.53 -2.7 0 1 467.5032 73.7245
  A 20.90 20.53 -2.7 0 1 487.4129 52.2328
  A 20.90 20.53 -2.7 0 1 509.2568 71.7555
  Z
  M 493.25 72.77
  A 4.94 4.94 0.0 0 0 488.31 67.83
  A 4.94 4.94 0.0 0 0 483.37 72.77
  A 4.94 4.94 0.0 0 0 488.31 77.71
  A 4.94 4.94 0.0 0 0 493.25 72.77
  Z"
/>
<path fill="#5a3426" d="
  M 418.02 63.11
  L 417.45 63.64
  A 1.47 1.47 0.0 0 1 416.01 63.97
  L 412.85 63.00
  A 1.47 1.47 0.0 0 1 412.05 60.78
  L 414.35 57.29
  A 1.47 1.47 0.0 0 1 416.96 57.59
  L 418.40 61.53
  A 1.47 1.47 0.0 0 1 418.02 63.11
  Z
  M 413.16 61.12
  A 0.77 0.77 0.0 0 0 413.60 62.31
  L 416.26 62.99
  A 0.77 0.77 0.0 0 0 417.20 62.06
  L 416.38 58.71
  A 0.77 0.77 0.0 0 0 415.00 58.45
  L 413.16 61.12
  Z"
/>
<path fill="#d6a163" d="
  M 413.16 61.12
  L 415.00 58.45
  A 0.77 0.77 0.0 0 1 416.38 58.71
  L 417.20 62.06
  A 0.77 0.77 0.0 0 1 416.26 62.99
  L 413.60 62.31
  A 0.77 0.77 0.0 0 1 413.16 61.12
  Z"
/>
<path fill="#e2c99a" d="
  M 451.24 58.83
  A 0.39 0.38 50.4 0 1 451.31 58.09
  Q 452.01 57.96 452.54 58.26
  A 0.50 0.49 -19.9 0 1 452.12 59.15
  L 451.24 58.83
  Z"
/>
<path fill="#5a3426" d="
  M 493.25 72.77
  A 4.94 4.94 0.0 0 1 488.31 77.71
  A 4.94 4.94 0.0 0 1 483.37 72.77
  A 4.94 4.94 0.0 0 1 488.31 67.83
  A 4.94 4.94 0.0 0 1 493.25 72.77
  Z
  M 492.1155 73.1229
  A 3.82 3.67 5.0 0 0 488.6299 69.1340
  A 3.82 3.67 5.0 0 0 484.5045 72.4571
  A 3.82 3.67 5.0 0 0 487.9901 76.4460
  A 3.82 3.67 5.0 0 0 492.1155 73.1229
  Z"
/>
<path fill="#5a3426" d="
  M 285.80 111.86
  L 277.86 110.10
  Q 276.80 109.87 276.72 108.79
  Q 275.58 93.63 289.17 88.18
  A 0.40 0.39 34.9 0 0 289.03 87.42
  C 284.79 87.28 278.55 84.16 281.81 78.88
  Q 287.39 68.88 300.00 70.82
  C 310.70 72.46 318.15 86.86 309.63 95.45
  C 306.61 98.49 303.63 98.07 299.68 99.20
  A 0.41 0.41 0.0 0 0 299.84 100.00
  C 303.16 99.59 308.87 99.30 309.31 103.92
  C 309.55 106.53 309.92 111.36 308.04 113.48
  C 306.86 114.82 303.48 114.58 302.25 114.44
  Q 297.66 113.90 285.80 111.86
  Z
  M 296.65 100.07
  A 0.43 0.42 -48.7 0 1 296.60 99.24
  C 303.25 97.27 310.78 97.07 311.94 88.50
  C 314.27 71.26 289.84 64.86 282.47 79.88
  C 280.10 84.71 287.13 86.01 289.93 87.11
  A 2.72 2.71 -64.3 0 0 293.28 85.93
  L 294.37 84.02
  Q 294.73 83.39 295.40 83.67
  L 297.73 84.69
  A 1.19 1.19 0.0 0 1 297.57 86.93
  Q 294.96 87.64 292.28 88.35
  Q 277.53 92.27 277.61 107.98
  A 1.16 1.16 0.0 0 0 278.51 109.11
  Q 291.22 112.08 304.50 113.47
  Q 305.90 113.62 306.88 113.25
  A 1.14 1.13 -2.3 0 0 307.55 112.53
  C 308.67 108.77 310.18 100.90 304.00 100.73
  Q 300.15 100.62 296.65 100.07
  Z
  M 294.01 86.60
  A 0.26 0.26 0.0 0 0 294.33 86.95
  L 296.59 86.18
  A 0.54 0.54 0.0 0 0 296.85 85.35
  Q 296.33 84.63 295.39 84.99
  Q 294.64 85.27 294.01 86.60
  Z"
/>
<path fill="#62abb1" d="
  M 296.65 100.07
  Q 300.15 100.62 304.00 100.73
  C 310.18 100.90 308.67 108.77 307.55 112.53
  A 1.14 1.13 -2.3 0 1 306.88 113.25
  Q 305.90 113.62 304.50 113.47
  Q 291.22 112.08 278.51 109.11
  A 1.16 1.16 0.0 0 1 277.61 107.98
  Q 277.53 92.27 292.28 88.35
  Q 294.96 87.64 297.57 86.93
  A 1.19 1.19 0.0 0 0 297.73 84.69
  L 295.40 83.67
  Q 294.73 83.39 294.37 84.02
  L 293.28 85.93
  A 2.72 2.71 -64.3 0 1 289.93 87.11
  C 287.13 86.01 280.10 84.71 282.47 79.88
  C 289.84 64.86 314.27 71.26 311.94 88.50
  C 310.78 97.07 303.25 97.27 296.60 99.24
  A 0.43 0.42 -48.7 0 0 296.65 100.07
  Z"
/>
<path fill="#e2c99a" d="
  M 449.18 73.71
  L 448.21 72.72
  Q 447.50 71.98 448.47 72.31
  Q 449.25 72.57 449.75 73.23
  A 0.37 0.37 0.0 0 1 449.18 73.71
  Z"
/>
<path fill="#5a3426" d="
  M 336.88 117.62
  C 327.68 110.18 330.04 94.69 335.58 85.81
  Q 339.55 79.46 347.21 79.05
  C 369.07 77.88 371.80 100.22 363.13 114.81
  C 357.72 123.91 344.08 123.46 336.88 117.62
  Z
  M 364.84 108.81
  C 368.26 99.07 367.76 85.54 356.61 81.37
  C 351.78 79.56 343.92 79.40 339.59 82.90
  C 330.88 89.93 328.12 110.91 338.55 117.70
  Q 344.58 121.63 352.07 120.67
  C 359.04 119.77 362.63 115.10 364.84 108.81
  Z"
/>
<path fill="#62abb1" d="
  M 364.84 108.81
  C 362.63 115.10 359.04 119.77 352.07 120.67
  Q 344.58 121.63 338.55 117.70
  C 328.12 110.91 330.88 89.93 339.59 82.90
  C 343.92 79.40 351.78 79.56 356.61 81.37
  C 367.76 85.54 368.26 99.07 364.84 108.81
  Z
  M 348.3280 106.1982
  A 5.83 4.96 99.0 0 0 354.1389 101.2159
  A 5.83 4.96 99.0 0 0 350.1520 94.6818
  A 5.83 4.96 99.0 0 0 344.3411 99.6641
  A 5.83 4.96 99.0 0 0 348.3280 106.1982
  Z"
/>
<path fill="#e2c99a" d="
  M 294.01 86.60
  Q 294.64 85.27 295.39 84.99
  Q 296.33 84.63 296.85 85.35
  A 0.54 0.54 0.0 0 1 296.59 86.18
  L 294.33 86.95
  A 0.26 0.26 0.0 0 1 294.01 86.60
  Z"
/>
<path fill="#5a3426" d="
  M 406.09 116.78
  Q 409.07 116.91 412.00 117.27
  C 414.91 117.62 415.37 118.75 415.84 121.36
  C 416.27 123.72 416.59 131.08 412.49 131.35
  Q 409.90 131.53 406.26 130.98
  Q 392.82 128.96 385.32 127.32
  C 383.59 126.94 382.75 125.69 382.90 124.01
  C 383.72 115.06 386.94 107.90 396.11 105.20
  A 0.34 0.34 0.0 0 0 396.05 104.54
  C 390.70 104.04 384.06 100.45 389.28 94.22
  Q 396.50 85.62 406.55 87.84
  Q 412.35 89.13 415.81 93.02
  C 421.36 99.28 421.14 110.70 412.75 114.65
  C 410.93 115.51 408.24 115.54 406.02 116.27
  A 0.26 0.26 0.0 0 0 406.09 116.78
  Z
  M 403.27 116.34
  C 407.45 114.57 413.24 114.89 416.08 111.01
  C 423.05 101.50 415.35 89.30 403.99 88.49
  Q 392.82 87.70 388.38 98.31
  Q 388.21 98.73 388.35 99.16
  C 389.43 102.55 394.04 103.12 396.79 104.18
  A 2.40 2.40 0.0 0 0 400.03 102.29
  Q 400.22 101.03 401.99 100.97
  Q 404.03 100.89 404.64 102.32
  A 1.25 1.25 0.0 0 1 403.71 104.05
  C 396.20 105.35 388.95 108.10 385.74 115.59
  C 384.76 117.88 384.40 120.81 383.98 123.42
  C 383.64 125.51 384.50 126.23 386.38 126.60
  Q 400.74 129.49 411.24 130.67
  C 414.63 131.05 415.12 126.93 415.08 124.42
  C 415.04 121.05 415.27 118.29 411.26 118.00
  Q 407.27 117.70 403.34 116.95
  Q 402.29 116.75 403.27 116.34
  Z
  M 403.36 102.89
  A 0.37 0.36 -46.1 0 0 403.35 102.21
  Q 401.47 101.49 400.75 103.26
  Q 400.40 104.15 401.28 103.78
  L 403.36 102.89
  Z"
/>
<path fill="#62abb1" d="
  M 403.34 116.95
  Q 407.27 117.70 411.26 118.00
  C 415.27 118.29 415.04 121.05 415.08 124.42
  C 415.12 126.93 414.63 131.05 411.24 130.67
  Q 400.74 129.49 386.38 126.60
  C 384.50 126.23 383.64 125.51 383.98 123.42
  C 384.40 120.81 384.76 117.88 385.74 115.59
  C 388.95 108.10 396.20 105.35 403.71 104.05
  A 1.25 1.25 0.0 0 0 404.64 102.32
  Q 404.03 100.89 401.99 100.97
  Q 400.22 101.03 400.03 102.29
  A 2.40 2.40 0.0 0 1 396.79 104.18
  C 394.04 103.12 389.43 102.55 388.35 99.16
  Q 388.21 98.73 388.38 98.31
  Q 392.82 87.70 403.99 88.49
  C 415.35 89.30 423.05 101.50 416.08 111.01
  C 413.24 114.89 407.45 114.57 403.27 116.34
  Q 402.29 116.75 403.34 116.95
  Z"
/>
<path fill="#5a3426" d="
  M 348.3280 106.1982
  A 5.83 4.96 99.0 0 1 344.3411 99.6641
  A 5.83 4.96 99.0 0 1 350.1520 94.6818
  A 5.83 4.96 99.0 0 1 354.1389 101.2159
  A 5.83 4.96 99.0 0 1 348.3280 106.1982
  Z
  M 348.3280 105.0408
  A 4.73 3.83 100.5 0 0 352.9559 101.0880
  A 4.73 3.83 100.5 0 0 350.0520 95.7392
  A 4.73 3.83 100.5 0 0 345.4241 99.6920
  A 4.73 3.83 100.5 0 0 348.3280 105.0408
  Z"
/>
<ellipse fill="#f8bf58" cx="0.00" cy="0.00" transform="translate(349.19,100.39) rotate(100.5)" rx="4.73" ry="3.83"/>
<path fill="#5a3426" d="
  M 470.47 99.07
  Q 471.21 106.83 469.34 113.81
  Q 468.95 115.26 470.39 115.70
  C 472.97 116.48 474.56 116.50 474.57 119.70
  Q 474.59 125.50 471.86 130.64
  A 0.86 0.85 12.8 0 1 471.14 131.09
  L 466.38 131.29
  Q 465.85 131.32 465.71 131.82
  L 463.65 138.94
  Q 459.16 140.12 454.54 138.82
  C 451.88 138.07 449.60 138.35 449.52 134.71
  Q 449.46 131.83 449.69 129.00
  Q 449.73 128.51 449.23 128.44
  Q 444.59 127.77 439.99 127.04
  Q 437.30 126.61 436.93 123.23
  Q 435.85 113.52 443.66 106.94
  C 448.29 103.04 454.01 97.16 459.49 96.75
  Q 465.03 96.33 470.47 99.07
  Z
  M 468.20 115.96
  Q 468.68 109.95 469.57 103.99
  C 469.99 101.22 469.73 99.86 467.03 98.92
  Q 462.85 97.47 459.01 98.05
  Q 455.99 98.51 452.08 101.51
  C 445.22 106.79 438.52 110.97 438.05 119.46
  C 437.83 123.31 437.32 125.55 441.73 126.24
  Q 445.77 126.88 449.71 127.35
  A 1.03 1.02 -86.5 0 1 450.61 128.37
  L 450.57 135.65
  A 1.08 1.07 -79.9 0 0 451.27 136.66
  Q 456.50 138.52 462.05 137.96
  A 0.78 0.78 0.0 0 0 462.71 137.43
  L 465.06 130.35
  Q 465.20 129.92 465.65 129.87
  C 467.53 129.67 470.72 130.58 471.45 128.71
  Q 473.09 124.44 473.52 119.59
  Q 473.67 117.98 472.11 117.55
  L 468.63 116.57
  Q 468.16 116.44 468.20 115.96
  Z"
/>
<path fill="#62abb1" d="
  M 468.63 116.57
  L 472.11 117.55
  Q 473.67 117.98 473.52 119.59
  Q 473.09 124.44 471.45 128.71
  C 470.72 130.58 467.53 129.67 465.65 129.87
  Q 465.20 129.92 465.06 130.35
  L 462.71 137.43
  A 0.78 0.78 0.0 0 1 462.05 137.96
  Q 456.50 138.52 451.27 136.66
  A 1.08 1.07 -79.9 0 1 450.57 135.65
  L 450.61 128.37
  A 1.03 1.02 -86.5 0 0 449.71 127.35
  Q 445.77 126.88 441.73 126.24
  C 437.32 125.55 437.83 123.31 438.05 119.46
  C 438.52 110.97 445.22 106.79 452.08 101.51
  Q 455.99 98.51 459.01 98.05
  Q 462.85 97.47 467.03 98.92
  C 469.73 99.86 469.99 101.22 469.57 103.99
  Q 468.68 109.95 468.20 115.96
  Q 468.16 116.44 468.63 116.57
  Z
  M 456.80 114.10
  A 0.32 0.32 0.0 0 0 456.28 113.84
  L 453.11 116.36
  A 0.32 0.32 0.0 0 0 453.25 116.93
  L 456.32 117.54
  A 0.32 0.32 0.0 0 0 456.70 117.24
  L 456.80 114.10
  Z"
/>
<path fill="#e2c99a" d="
  M 403.36 102.89
  L 401.28 103.78
  Q 400.40 104.15 400.75 103.26
  Q 401.47 101.49 403.35 102.21
  A 0.37 0.36 -46.1 0 1 403.36 102.89
  Z"
/>
<path fill="#5a3426" d="
  M 456.80 114.10
  L 456.70 117.24
  A 0.32 0.32 0.0 0 1 456.32 117.54
  L 453.25 116.93
  A 0.32 0.32 0.0 0 1 453.11 116.36
  L 456.28 113.84
  A 0.32 0.32 0.0 0 1 456.80 114.10
  Z"
/>
<path fill="#5a3426" d="
  M 284.60 125.37
  Q 271.00 132.99 255.75 135.02
  Q 227.80 138.73 199.99 134.00
  Q 187.80 131.93 175.63 129.70
  Q 175.05 129.59 175.04 130.19
  C 174.82 140.66 174.93 152.18 173.73 161.56
  Q 172.02 175.01 167.52 191.73
  Q 159.85 220.25 146.46 243.93
  C 132.88 267.97 109.18 277.24 83.15 281.27
  Q 49.21 286.52 17.11 273.34
  Q 9.68 270.29 0.00 265.61
  L 0.00 263.90
  C 12.28 269.08 25.99 275.27 37.86 277.98
  C 65.80 284.37 98.28 280.40 123.10 266.09
  Q 137.73 257.07 145.90 241.01
  Q 165.02 205.46 171.33 165.64
  L 172.06 160.02
  L 172.19 153.76
  Q 172.18 155.06 172.49 155.97
  Q 172.84 157.01 172.86 155.91
  L 173.04 141.87
  Q 173.04 141.87 172.93 141.87
  Q 172.91 141.87 172.90 141.87
  Q 172.86 141.87 172.87 141.90
  Q 172.95 142.51 172.57 142.54
  L 172.86 138.25
  Q 173.47 136.47 172.95 134.37
  L 173.07 128.60
  Q 173.89 128.44 174.56 127.32
  Q 192.20 131.03 198.49 132.10
  C 224.22 136.47 253.48 137.02 277.87 126.67
  Q 280.84 125.36 284.60 125.37
  Z"
/>
</svg>
