<?xml version="1.0" encoding="UTF-8" standalone="no"?>
<!DOCTYPE svg PUBLIC "-//W3C//DTD SVG 1.1//EN" "http://www.w3.org/Graphics/SVG/1.1/DTD/svg11.dtd">
<svg xmlns="http://www.w3.org/2000/svg" version="1.1" viewBox="0.00 0.00 842.00 405.00">
<g stroke-width="2.00" fill="none" stroke-linecap="butt">
<path stroke="#af9c82" vector-effect="non-scaling-stroke" d="
  M 842.00 27.99
  Q 824.78 16.86 804.89 13.19
  C 791.46 10.71 775.86 9.22 761.46 9.93
  C 720.73 11.94 685.92 35.99 661.55 67.29
  C 647.72 85.05 642.07 107.72 641.17 129.87
  Q 641.15 130.38 641.46 129.98
  L 660.09 106.17
  A 0.74 0.63 77.2 0 0 660.21 105.94
  L 660.66 104.70
  Q 660.82 104.26 661.29 104.25
  L 683.09 104.17
  Q 683.44 104.16 683.54 104.50
  L 702.73 167.30
  A 0.34 0.34 0.0 0 0 703.38 167.32
  Q 712.26 143.93 732.67 131.42
  C 751.04 120.16 776.58 115.91 797.79 116.66
  Q 808.72 117.05 817.48 119.73
  Q 830.36 123.65 842.00 131.62"
/>
<path stroke="#a8906f" vector-effect="non-scaling-stroke" d="
  M 842.00 133.80
  C 826.75 124.38 815.07 118.71 797.75 118.25
  C 771.08 117.53 737.91 123.78 719.03 144.72
  Q 712.40 152.07 708.29 160.56
  C 699.50 178.70 694.18 198.76 690.02 218.77
  Q 685.19 241.99 686.22 266.17"
/>
<path stroke="#b6aba1" vector-effect="non-scaling-stroke" d="
  M 686.22 266.17
  Q 684.96 265.74 684.28 265.04"
/>
<path stroke="#af9c82" vector-effect="non-scaling-stroke" d="
  M 684.28 265.04
  Q 683.36 241.59 688.09 218.80
  Q 688.16 218.45 688.44 217.77
  Q 688.70 217.16 688.62 216.66
  Q 688.55 216.24 688.43 216.64
  L 676.57 254.21"
/>
<path stroke="#b6aba1" vector-effect="non-scaling-stroke" d="
  M 676.57 254.21
  L 675.25 249.50"
/>
<path stroke="#556d6b" vector-effect="non-scaling-stroke" d="
  M 675.25 249.50
  Q 676.00 249.08 676.26 248.32
  Q 688.50 211.68 699.75 174.94
  Q 699.93 174.33 699.42 174.71
  Q 684.04 186.02 668.18 196.92
  Q 666.41 198.13 666.06 199.53
  Q 661.88 216.24 650.00 267.01
  Q 649.88 267.53 650.56 268.60"
/>
<path stroke="#b6aba1" vector-effect="non-scaling-stroke" d="
  M 650.56 268.60
  L 646.71 269.45"
/>
<path stroke="#a8906f" vector-effect="non-scaling-stroke" d="
  M 646.71 269.45
  Q 624.25 266.90 604.98 271.76
  Q 574.23 279.52 558.01 308.34
  C 549.66 323.20 544.86 338.97 539.27 354.64
  A 0.67 0.67 0.0 0 1 538.55 355.08
  C 516.26 352.22 494.24 348.09 471.51 349.36
  C 456.75 350.19 444.33 355.53 433.26 365.43
  C 422.43 375.11 415.13 388.63 407.89 400.84
  A 1.54 1.54 0.0 0 1 405.90 401.44
  C 394.39 395.88 384.81 390.69 371.49 394.79
  Q 363.35 397.30 354.69 405.00"
/>
<path stroke="#af9c82" vector-effect="non-scaling-stroke" d="
  M 351.67 405.00
  Q 358.97 398.39 367.81 394.32
  C 381.62 387.97 392.95 392.79 405.62 399.16
  A 0.96 0.95 28.4 0 0 406.88 398.79
  C 413.46 387.67 419.22 377.27 428.74 367.17
  Q 429.27 366.61 428.50 366.61
  L 383.86 366.74
  Q 383.36 366.74 383.08 366.32
  C 382.41 365.26 382.25 364.62 381.34 363.79
  Q 355.50 340.31 329.84 316.96
  A 0.99 0.98 -35.5 0 0 328.78 316.79
  C 312.43 324.01 295.67 334.96 284.73 349.34
  C 278.59 357.41 273.65 368.32 269.13 378.08
  A 2.36 2.35 -82.0 0 1 267.34 379.43
  C 245.31 382.88 227.30 385.41 213.35 405.00"
/>
<path stroke="#4b615f" vector-effect="non-scaling-stroke" d="
  M 210.94 405.00
  Q 211.22 404.21 211.17 403.59
  Q 211.13 403.02 210.47 402.46
  Q 185.25 381.03 160.05 359.57
  Q 159.69 359.27 159.23 359.28
  Q 158.40 359.30 158.09 358.60
  Q 157.89 358.16 158.06 357.33
  Q 158.64 354.62 158.70 353.75
  Q 160.39 326.49 162.55 299.26
  Q 162.77 296.38 160.79 292.98
  Q 152.27 278.42 144.09 263.95
  A 0.63 0.63 0.0 0 0 142.98 263.98
  L 128.23 293.11
  A 1.09 1.07 -47.6 0 0 128.27 294.14
  L 148.33 328.31
  Q 148.38 328.40 148.38 328.51
  Q 148.37 328.66 148.38 328.83
  A 0.44 0.44 0.0 0 1 147.64 329.17
  L 121.95 305.03
  A 1.83 1.82 -40.0 0 0 119.69 304.84
  L 105.69 314.11
  A 1.28 1.28 0.0 0 0 105.45 316.04
  L 153.91 369.45
  Q 154.32 369.90 154.90 370.05
  Q 156.31 370.43 156.54 371.85
  Q 156.63 372.39 157.00 372.80
  Q 160.86 377.11 164.69 381.46
  C 165.66 382.56 166.99 383.30 168.00 384.63
  Q 169.90 387.14 170.07 387.32
  Q 178.00 395.81 185.68 405.00"
/>
<path stroke="#556d6b" vector-effect="non-scaling-stroke" d="
  M 183.54 405.00
  L 167.76 387.59
  Q 167.32 387.10 167.25 387.75
  L 165.91 400.44
  A 1.54 1.54 0.0 0 0 166.88 402.03
  L 174.51 405.00"
/>
<path stroke="#68817a" vector-effect="non-scaling-stroke" d="
  M 161.09 405.00
  L 162.65 402.85
  Q 162.97 402.41 162.49 402.17
  Q 142.51 392.09 122.64 381.82
  Q 122.47 381.74 122.31 381.75
  Q 122.04 381.79 121.79 381.89
  A 1.37 1.37 0.0 0 1 121.00 381.99
  L 107.73 379.93
  A 0.22 0.22 0.0 0 0 107.54 380.30
  L 130.39 405.00"
/>
<path stroke="#a8906f" vector-effect="non-scaling-stroke" d="
  M 127.92 405.00
  L 121.73 398.41
  Q 121.37 398.03 120.85 397.92
  Q 108.98 395.47 101.54 405.00"
/>
<path stroke="#af9c82" vector-effect="non-scaling-stroke" d="
  M 99.31 405.00
  Q 106.10 394.69 118.63 395.60
  Q 119.21 395.64 118.82 395.22
  L 104.74 380.11
  A 0.78 0.77 36.2 0 1 104.60 379.24
  L 110.27 367.34
  Q 110.49 366.88 111.00 366.91
  C 119.11 367.34 127.31 366.70 135.22 367.74
  Q 143.08 368.77 151.05 369.71
  Q 151.78 369.79 151.28 369.25
  L 124.04 339.07
  Q 123.68 338.67 123.14 338.67
  Q 91.22 338.86 69.72 361.07
  C 62.12 368.92 59.62 378.39 56.12 387.96
  A 1.66 1.64 -79.0 0 1 54.52 389.05
  C 37.69 388.51 19.78 386.21 12.86 405.00"
/>
<path stroke="#5c8782" vector-effect="non-scaling-stroke" d="
  M 527.71 37.89
  Q 526.79 46.82 526.51 53.75
  Q 525.26 85.16 523.84 116.79
  A 1.43 1.42 11.9 0 0 524.76 118.19
  L 553.11 128.89
  Q 553.57 129.06 553.70 129.53
  L 567.18 175.00
  A 0.31 0.31 0.0 0 0 567.79 174.89
  L 565.45 129.99
  Q 565.42 129.43 565.83 129.04
  L 585.26 110.76
  A 1.09 1.08 -41.2 0 0 585.36 109.29
  L 542.14 55.78"
/>
<path stroke="#68817a" vector-effect="non-scaling-stroke" d="
  M 491.04 87.05
  C 490.20 95.21 488.78 103.19 488.12 111.38
  C 487.84 114.85 486.71 118.89 486.55 121.75
  Q 486.04 131.14 485.03 140.17
  A 0.53 0.53 0.0 0 0 485.84 140.67
  L 520.70 118.60
  A 2.73 2.72 75.3 0 0 521.98 116.40
  L 525.70 39.51
  A 0.30 0.30 0.0 0 0 525.17 39.31
  Q 509.14 59.53 493.29 79.95
  C 491.47 82.29 491.33 84.26 491.04 87.05"
/>
<path stroke="#68817a" vector-effect="non-scaling-stroke" d="
  M 318.58 97.61
  Q 318.40 104.62 318.65 111.71
  Q 319.06 122.93 319.10 125.79
  Q 319.49 155.66 320.64 185.51
  Q 321.07 196.77 321.35 207.84
  A 0.79 0.79 0.0 0 0 322.52 208.51
  L 351.94 192.43
  Q 352.34 192.21 352.70 192.50
  L 386.51 219.62
  A 0.13 0.13 0.0 0 0 386.70 219.44
  L 358.34 182.38
  Q 358.01 181.94 358.33 181.50
  Q 360.71 178.25 362.83 174.87
  Q 375.75 154.28 388.11 133.54
  Q 388.37 133.10 388.06 132.68
  L 335.76 63.32
  Q 334.60 61.79 333.82 63.54
  L 320.08 94.32"
/>
<path stroke="#5c8782" vector-effect="non-scaling-stroke" d="
  M 445.99 108.77
  A 0.36 0.36 0.0 0 0 446.01 108.10
  L 337.76 62.63
  A 0.36 0.36 0.0 0 0 337.33 63.19
  L 389.97 131.87
  A 0.36 0.36 0.0 0 0 390.40 131.98
  L 419.28 119.38
  A 0.36 0.36 0.0 0 1 419.70 119.48
  L 437.74 141.98
  A 0.36 0.36 0.0 0 0 438.37 141.66
  L 430.93 114.24
  A 0.36 0.36 0.0 0 1 431.16 113.80
  L 445.99 108.77"
/>
<path stroke="#97a9a1" vector-effect="non-scaling-stroke" d="
  M 663.74 106.25
  A 0.31 0.31 0.0 0 0 663.46 106.67
  L 667.87 118.69
  A 0.31 0.31 0.0 0 0 668.39 118.79
  L 679.50 106.36
  A 0.31 0.31 0.0 0 0 679.26 105.85
  L 663.74 106.25"
/>
<path stroke="#5c8782" vector-effect="non-scaling-stroke" d="
  M 666.67 195.34
  Q 666.65 196.03 667.21 195.62
  L 700.60 171.18
  A 1.99 1.98 63.5 0 0 701.32 169.00
  L 682.36 106.73
  A 0.42 0.42 0.0 0 0 681.64 106.57
  Q 675.76 113.14 669.99 119.97
  C 668.67 121.54 668.74 122.79 668.69 124.75
  Q 667.77 157.20 666.67 195.34"
/>
<path stroke="#68817a" vector-effect="non-scaling-stroke" d="
  M 627.03 152.29
  L 664.23 194.85
  A 0.29 0.28 25.7 0 0 664.73 194.68
  Q 665.80 162.43 666.66 130.11
  C 666.74 127.00 667.56 122.05 666.12 118.73
  Q 663.69 113.17 662.00 107.61
  A 0.39 0.39 0.0 0 0 661.31 107.49
  L 639.05 136.46"
/>
<path stroke="#556d6b" vector-effect="non-scaling-stroke" d="
  M 441.63 147.68
  Q 442.36 150.38 440.60 148.20
  L 419.56 121.99
  A 1.04 1.03 58.5 0 0 418.34 121.69
  L 391.59 133.15
  A 0.68 0.67 -28.3 0 0 391.29 134.14
  L 420.58 178.67
  A 4.37 4.35 -20.5 0 0 424.83 180.60
  L 480.02 173.06
  Q 481.32 172.88 480.72 171.71
  L 449.02 110.38
  A 1.51 1.50 65.8 0 0 447.13 109.66
  L 433.54 115.00
  Q 432.90 115.25 433.08 115.92
  L 441.63 147.68"
/>
<path stroke="#556d6b" vector-effect="non-scaling-stroke" d="
  M 569.41 187.75
  C 568.17 185.33 567.63 182.36 567.03 180.37
  Q 559.53 155.52 552.25 130.55
  Q 552.10 130.02 551.58 129.83
  L 524.50 119.85
  Q 523.78 119.58 523.82 120.35
  Q 525.96 157.64 528.17 195.00
  Q 528.31 197.29 529.82 199.45
  Q 561.73 244.98 584.95 277.37
  Q 585.30 277.86 585.83 277.56
  Q 597.25 271.10 610.18 268.84
  Q 610.70 268.75 610.66 268.22
  Q 609.99 259.68 608.64 251.24
  Q 597.60 181.83 586.53 112.57
  A 0.38 0.38 0.0 0 0 585.90 112.35
  Q 577.71 119.92 569.74 127.57
  C 568.87 128.40 567.14 129.62 567.22 131.00
  Q 568.61 152.88 569.29 174.78
  C 569.38 177.83 570.29 183.33 569.98 187.63
  Q 569.90 188.71 569.41 187.75"
/>
<path stroke="#4b615f" vector-effect="non-scaling-stroke" d="
  M 520.47 120.87
  Q 520.21 120.92 519.87 121.12
  Q 502.78 131.38 484.95 142.99
  A 2.43 2.42 65.4 0 0 483.94 145.71
  L 491.24 170.63
  A 1.23 1.22 -12.6 0 0 492.61 171.50
  L 506.02 169.47
  A 3.85 3.84 68.0 0 1 509.72 171.04
  L 524.56 192.01
  Q 524.81 192.36 524.93 192.76
  Q 525.13 193.45 525.72 193.84
  A 0.56 0.56 0.0 0 0 526.58 193.34
  Q 523.54 144.72 522.46 124.51
  Q 522.34 122.35 521.78 120.92
  Q 521.70 120.73 521.56 120.67
  Q 521.38 120.58 521.20 120.64
  Q 520.54 120.85 520.47 120.87"
/>
<path stroke="#b6aba1" vector-effect="non-scaling-stroke" d="
  M 362.70 184.30
  Q 361.90 184.79 364.05 185.40"
/>
<path stroke="#4b615f" vector-effect="non-scaling-stroke" d="
  M 364.05 185.40
  Q 363.84 185.27 363.54 185.51
  Q 363.12 185.85 363.45 186.28
  L 394.37 226.68
  A 0.69 0.69 0.0 0 1 393.38 227.64
  L 353.57 195.16
  A 1.91 1.91 0.0 0 0 351.49 194.94
  L 322.83 209.56
  A 0.97 0.96 -31.3 0 0 322.48 210.97
  Q 323.20 211.99 324.38 213.11
  Q 345.05 232.92 365.75 252.72
  Q 370.82 257.58 374.10 260.90
  C 378.76 265.63 383.86 269.87 388.55 274.61
  C 393.05 279.16 397.86 283.11 402.32 287.63
  Q 407.97 293.35 409.91 295.18
  Q 437.56 321.32 465.01 347.61
  Q 465.41 348.00 465.97 347.95
  Q 477.49 346.94 489.22 347.27
  C 492.71 347.37 496.57 348.00 500.32 348.24
  C 506.61 348.65 512.57 349.81 518.72 350.32"
/>
<path stroke="#556d6b" vector-effect="non-scaling-stroke" d="
  M 518.72 350.32
  Q 519.95 350.99 521.38 350.80
  Q 521.99 350.72 521.41 350.51
  L 520.27 350.09"
/>
<path stroke="#4b615f" vector-effect="non-scaling-stroke" d="
  M 520.27 350.09
  Q 520.24 349.50 519.70 349.11
  Q 467.38 311.37 414.82 273.94
  Q 414.39 273.63 414.39 273.10
  C 414.39 268.73 415.25 262.96 415.45 260.09
  C 416.14 250.19 417.18 239.91 417.79 230.45
  Q 419.21 208.18 421.04 185.93
  C 421.17 184.37 421.46 182.56 420.62 181.29
  Q 405.24 158.32 390.76 136.17
  Q 389.65 134.47 388.57 136.19
  Q 373.75 159.70 361.09 180.50
  C 359.88 182.48 360.72 183.67 362.70 184.30"
/>
<path stroke="#327787" vector-effect="non-scaling-stroke" d="
  M 520.27 350.09
  L 518.72 350.32"
/>
<path stroke="#94b5bd" vector-effect="non-scaling-stroke" d="
  M 364.05 185.40
  Q 371.35 186.93 375.92 189.57
  C 383.54 193.97 385.19 202.26 387.37 210.24
  Q 387.60 211.09 387.85 210.24
  Q 388.52 208.03 389.50 204.24
  C 392.93 190.99 402.42 189.18 413.50 184.97
  Q 414.18 184.71 413.46 184.55
  C 406.35 183.02 398.99 182.42 394.17 176.26
  C 391.68 173.08 390.74 168.27 389.83 164.15
  A 0.83 0.82 56.3 0 0 388.35 163.85
  Q 388.11 164.19 387.77 164.74
  Q 387.50 165.17 387.42 165.70
  C 385.50 179.15 374.86 182.42 362.70 184.30"
/>
<path stroke="#4b615f" vector-effect="non-scaling-stroke" d="
  M 622.16 168.82
  C 617.64 185.18 614.60 199.56 609.74 218.27
  Q 607.77 225.86 606.97 228.43
  Q 606.82 228.89 606.90 229.36
  L 612.76 267.27
  A 1.08 1.07 -8.4 0 0 613.98 268.17
  Q 630.54 265.82 647.14 267.71
  Q 647.90 267.80 648.08 267.05
  L 664.45 199.18
  Q 664.66 198.28 664.06 197.58
  L 626.81 154.48
  A 0.81 0.80 31.5 0 0 625.42 154.81
  C 624.27 159.46 623.38 164.42 622.16 168.82"
/>
<path stroke="#5c8782" vector-effect="non-scaling-stroke" d="
  M 452.69 228.39
  Q 468.04 231.42 483.45 233.61
  A 0.52 0.51 -76.4 0 0 484.01 233.26
  L 505.24 171.93
  A 0.29 0.29 0.0 0 0 504.93 171.55
  L 424.17 182.34
  A 0.53 0.53 0.0 0 0 423.77 183.12
  Q 435.58 204.96 447.55 226.95
  Q 448.22 228.19 450.04 228.23
  Q 452.15 228.28 452.69 228.39"
/>
<path stroke="#5b7776" vector-effect="non-scaling-stroke" d="
  M 506.97 172.47
  L 485.50 234.09
  A 1.03 1.01 33.7 0 0 485.72 235.13
  L 554.64 309.39
  Q 555.09 309.87 555.43 309.31
  C 562.69 296.99 571.10 286.71 583.20 279.02
  Q 583.58 278.77 583.33 278.40
  C 567.83 256.14 552.51 233.69 536.38 211.89
  Q 521.86 192.26 507.61 172.38
  Q 507.20 171.81 506.97 172.47"
/>
<path stroke="#68817a" vector-effect="non-scaling-stroke" d="
  M 424.08 187.21
  A 0.34 0.34 0.0 0 0 423.44 187.34
  L 416.24 267.40
  A 0.34 0.34 0.0 0 0 416.85 267.64
  L 446.78 229.49
  A 0.34 0.34 0.0 0 0 446.81 229.11
  L 424.08 187.21"
/>
<path stroke="#5c8782" vector-effect="non-scaling-stroke" d="
  M 238.69 261.61
  L 246.46 290.01
  Q 246.80 291.25 246.70 289.96
  L 244.53 262.07
  Q 244.50 261.56 244.83 261.19
  L 255.42 249.37
  A 0.71 0.71 0.0 0 0 255.46 248.48
  L 221.80 203.16
  Q 221.48 202.73 221.48 203.26
  L 221.30 252.14
  A 1.82 1.82 0.0 0 0 222.35 253.79
  L 238.27 261.11
  Q 238.60 261.26 238.69 261.61"
/>
<path stroke="#68817a" vector-effect="non-scaling-stroke" d="
  M 218.99 204.09
  Q 211.06 215.44 203.45 226.54
  Q 202.31 228.21 202.12 230.23
  Q 200.44 248.92 199.05 267.78
  Q 199.00 268.48 199.56 268.06
  L 218.19 253.96
  Q 219.40 253.04 219.40 251.53
  L 219.56 204.27
  Q 219.57 203.27 218.99 204.09"
/>
<path stroke="#af9c82" vector-effect="non-scaling-stroke" d="
  M 609.34 213.45
  A 0.51 0.51 0.0 0 0 608.86 212.82
  L 604.82 212.67
  A 0.51 0.51 0.0 0 0 604.29 213.26
  L 605.93 223.42
  A 0.51 0.51 0.0 0 0 606.93 223.46
  L 609.34 213.45"
/>
<path stroke="#68817a" vector-effect="non-scaling-stroke" d="
  M 141.50 260.42
  L 110.03 214.70
  A 0.40 0.40 0.0 0 0 109.33 214.79
  Q 105.66 225.04 101.67 235.49
  Q 100.76 237.86 100.87 240.37
  Q 101.79 260.76 102.73 281.15
  C 103.10 289.14 104.02 301.06 103.93 311.29
  A 0.91 0.91 0.0 0 0 105.33 312.07
  L 121.04 302.10
  Q 121.47 301.83 121.83 302.17
  L 141.01 320.33
  A 0.34 0.34 0.0 0 0 141.54 319.91
  L 126.31 295.03
  A 1.86 1.85 42.3 0 1 126.22 293.27
  L 141.57 261.30
  A 0.88 0.88 0.0 0 0 141.50 260.42"
/>
<path stroke="#5c8782" vector-effect="non-scaling-stroke" d="
  M 167.24 249.48
  L 174.74 246.58
  Q 175.69 246.22 174.77 245.77
  L 113.73 216.09
  Q 112.90 215.69 113.43 216.44
  L 143.51 259.44
  A 0.72 0.71 -28.1 0 0 144.36 259.69
  L 160.81 253.09
  Q 161.31 252.89 161.62 253.33
  L 170.39 265.91
  A 0.27 0.27 0.0 0 0 170.87 265.69
  L 166.86 250.22
  Q 166.72 249.68 167.24 249.48"
/>
<path stroke="#a27c53" vector-effect="non-scaling-stroke" d="
  M 536.97 352.63
  Q 537.07 352.81 537.23 352.89
  Q 537.64 353.06 537.80 352.65
  L 540.97 344.75"
/>
<path stroke="#556d6b" vector-effect="non-scaling-stroke" d="
  M 540.97 344.75
  Q 546.20 327.87 553.92 312.01
  Q 554.13 311.57 553.80 311.21
  Q 501.20 253.54 485.18 236.57
  C 483.56 234.86 479.91 235.06 477.95 234.58
  Q 472.82 233.32 467.50 233.24
  Q 467.10 233.23 466.96 232.91
  Q 466.79 232.53 466.38 232.48
  C 463.30 232.08 458.51 232.58 455.48 231.39
  Q 453.28 230.53 452.36 230.44
  Q 450.62 230.28 448.87 230.35
  Q 448.35 230.38 448.03 230.78
  Q 436.63 244.94 425.47 259.28
  Q 425.42 259.35 422.19 263.14
  Q 420.02 265.69 418.44 268.72
  A 1.63 1.60 -0.9 0 1 417.76 269.41
  Q 415.98 270.37 416.15 272.43
  Q 416.19 272.92 416.59 273.21
  Q 435.46 287.17 454.63 300.72
  Q 490.16 325.82 525.53 351.14
  Q 525.81 351.34 526.68 351.34
  A 0.03 0.02 20.8 0 1 526.70 351.38
  L 526.51 351.60
  Q 526.43 351.68 526.54 351.68
  L 536.97 352.63"
/>
<path stroke="#89927b" vector-effect="non-scaling-stroke" d="
  M 540.97 344.75
  Q 539.62 347.29 537.84 352.09
  Q 537.62 352.68 536.97 352.63"
/>
<path stroke="#556d6b" vector-effect="non-scaling-stroke" d="
  M 175.22 274.44
  Q 175.65 276.15 174.62 274.72
  L 161.46 256.29
  Q 160.66 255.16 159.37 255.67
  L 145.49 261.18
  A 0.66 0.66 0.0 0 0 145.16 262.13
  L 163.96 294.63
  A 0.70 0.68 -18.7 0 0 164.65 294.96
  L 196.33 290.43
  A 0.53 0.53 0.0 0 0 196.74 289.68
  L 177.54 248.37
  A 1.09 1.08 -23.9 0 0 176.13 247.83
  L 169.95 250.49
  A 0.92 0.91 -18.8 0 0 169.42 251.55
  L 175.22 274.44"
/>
<path stroke="#97a9a1" vector-effect="non-scaling-stroke" d="
  M 302.05 248.00
  L 303.80 254.71
  Q 303.92 255.19 304.21 254.79
  L 308.94 248.32
  Q 309.34 247.76 308.66 247.76
  L 302.26 247.74
  A 0.21 0.21 0.0 0 0 302.05 248.00"
/>
<path stroke="#68817a" vector-effect="non-scaling-stroke" d="
  M 299.77 248.47
  L 281.23 277.52
  A 0.68 0.68 0.0 0 0 281.26 278.30
  L 302.39 306.36
  Q 302.93 307.07 302.93 306.17
  Q 302.80 285.38 302.74 264.58
  C 302.72 258.57 302.00 253.88 300.27 248.53
  A 0.28 0.28 0.0 0 0 299.77 248.47"
/>
<path stroke="#5c8782" vector-effect="non-scaling-stroke" d="
  M 323.26 290.27
  L 311.49 248.92
  Q 311.34 248.39 310.98 248.81
  C 308.38 251.78 304.49 256.29 304.53 260.45
  Q 304.78 283.68 304.73 306.99
  Q 304.73 307.67 305.24 307.23
  L 322.80 291.84
  A 1.53 1.52 -28.7 0 0 323.26 290.27"
/>
<path stroke="#af9c82" vector-effect="non-scaling-stroke" d="
  M 258.86 252.09
  Q 258.46 252.42 258.55 253.01
  Q 262.61 279.83 266.71 306.68
  Q 266.79 307.18 267.26 307.00
  L 273.39 304.68
  Q 273.89 304.49 273.99 303.97
  Q 276.35 291.90 278.47 279.83
  Q 278.91 277.33 280.28 275.20
  Q 287.96 263.33 295.31 251.67
  A 1.07 1.06 -73.3 0 0 294.43 250.03
  L 290.44 249.97"
/>
<path stroke="#556d6b" vector-effect="non-scaling-stroke" d="
  M 248.65 302.95
  C 247.95 301.38 247.34 300.04 246.92 298.49
  Q 242.09 280.92 237.41 263.75
  A 2.37 2.35 -85.4 0 0 236.13 262.23
  L 221.94 255.61
  Q 221.37 255.34 221.42 255.97
  Q 223.50 281.55 225.53 307.32
  Q 225.70 309.53 226.87 311.43
  Q 246.81 343.85 266.85 376.27
  Q 267.16 376.78 267.45 376.26
  Q 270.17 371.36 272.59 366.31
  Q 273.47 364.48 273.29 363.24
  Q 265.17 307.60 256.46 252.00
  A 0.37 0.37 0.0 0 0 255.82 251.81
  L 247.31 261.45
  A 3.02 3.00 -26.7 0 0 246.56 263.68
  Q 247.90 280.81 249.05 298.50
  Q 249.22 301.22 249.05 302.89
  Q 248.97 303.65 248.65 302.95"
/>
<path stroke="#af9c82" vector-effect="non-scaling-stroke" d="
  M 355.31 287.38
  Q 357.27 287.78 359.30 287.84
  Q 359.89 287.86 359.55 287.38
  C 348.84 272.24 333.23 259.51 315.37 254.13
  Q 314.83 253.96 314.99 254.50
  L 324.62 288.14
  Q 324.83 288.87 325.40 288.38
  L 325.65 288.17
  Q 325.97 287.90 326.39 287.90
  Q 338.90 287.84 351.38 287.01
  Q 353.00 286.90 355.31 287.38"
/>
<path stroke="#4b615f" vector-effect="non-scaling-stroke" d="
  M 212.73 288.34
  L 222.05 303.95
  A 0.71 0.71 0.0 0 0 223.36 303.53
  L 219.61 256.25
  A 0.42 0.42 0.0 0 0 218.94 255.95
  L 199.33 270.59
  A 0.86 0.85 63.9 0 0 199.02 271.51
  L 203.73 288.78
  Q 203.88 289.33 204.45 289.25
  L 212.18 288.08
  Q 212.54 288.03 212.73 288.34"
/>
<path stroke="#4b615f" vector-effect="non-scaling-stroke" d="
  M 302.66 309.80
  L 281.09 280.99
  Q 280.43 280.11 280.23 281.19
  Q 275.71 305.26 271.06 329.85
  Q 270.54 332.58 271.02 335.38
  Q 273.17 347.82 274.60 360.61
  A 0.37 0.37 0.0 0 0 275.30 360.74
  Q 283.90 344.18 298.62 332.69
  A 1.30 1.26 -15.3 0 0 299.09 331.90
  L 302.80 310.38
  A 0.73 0.73 0.0 0 0 302.66 309.80"
/>
<path stroke="#af9c82" vector-effect="non-scaling-stroke" d="
  M 201.47 289.58
  A 0.44 0.44 0.0 0 0 201.78 289.00
  L 201.15 287.30
  A 0.44 0.44 0.0 0 0 200.39 287.19
  L 198.64 289.45
  A 0.44 0.44 0.0 0 0 199.09 290.15
  L 201.47 289.58"
/>
<path stroke="#97a9a1" vector-effect="non-scaling-stroke" d="
  M 353.05 296.82
  L 351.77 290.57
  Q 351.44 288.98 349.82 289.04
  L 328.01 289.90
  A 2.33 2.30 15.5 0 0 326.18 290.92
  L 318.76 302.09
  Q 318.38 302.66 319.06 302.71
  L 342.69 304.63
  A 1.30 1.26 -61.4 0 0 343.59 304.35
  L 348.26 300.71
  Q 348.72 300.35 349.29 300.41
  L 383.24 303.74
  Q 383.38 303.76 383.38 303.63
  Q 383.38 303.56 383.38 303.50
  Q 383.38 303.49 383.23 303.46
  L 353.65 297.42
  Q 353.16 297.32 353.05 296.82"
/>
<path stroke="#5c8782" vector-effect="non-scaling-stroke" d="
  M 404.72 306.65
  A 0.46 0.46 0.0 0 1 404.48 307.52
  Q 377.88 305.21 351.31 302.32
  C 349.01 302.07 347.41 303.13 345.99 304.69
  A 0.57 0.57 0.0 0 0 346.20 305.61
  L 417.30 334.42
  A 0.43 0.42 -74.2 0 0 417.88 334.09
  L 421.78 309.52
  Q 421.86 308.96 421.46 308.56
  L 406.83 294.01
  A 2.39 2.37 69.6 0 0 405.34 293.32
  L 353.96 289.27
  A 0.43 0.43 0.0 0 0 353.50 289.78
  L 354.48 294.85
  A 1.49 1.48 -89.8 0 0 355.63 296.02
  Q 378.51 300.79 401.47 305.55
  Q 403.28 305.93 404.72 306.65"
/>
<path stroke="#5c8782" vector-effect="non-scaling-stroke" d="
  M 210.26 290.22
  L 165.19 296.65
  A 0.85 0.84 -18.0 0 0 164.56 297.88
  L 179.77 326.82
  A 1.11 1.10 -7.6 0 0 180.52 327.39
  L 199.51 331.55
  Q 199.99 331.66 200.11 331.18
  L 210.73 290.75
  Q 210.90 290.13 210.26 290.22"
/>
<path stroke="#5b7776" vector-effect="non-scaling-stroke" d="
  M 265.03 377.77
  A 0.34 0.34 0.0 0 0 265.26 377.26
  L 212.87 292.30
  A 0.34 0.34 0.0 0 0 212.25 292.39
  L 201.69 332.72
  A 0.34 0.34 0.0 0 0 201.75 333.01
  L 240.55 382.19
  A 0.34 0.34 0.0 0 0 240.88 382.31
  L 265.03 377.77"
/>
<path stroke="#556d6b" vector-effect="non-scaling-stroke" d="
  M 315.62 303.49
  C 316.14 302.10 318.01 300.87 318.34 299.80
  Q 318.46 299.41 318.36 299.05
  Q 318.22 298.52 317.80 298.88
  L 305.36 309.73
  A 2.68 2.67 -15.6 0 0 304.47 311.31
  L 301.20 330.17
  A 0.12 0.12 0.0 0 0 301.38 330.29
  L 316.00 320.82
  A 1.46 1.44 80.9 0 0 316.62 319.95
  L 319.50 308.29
  A 0.99 0.97 -62.2 0 0 319.21 307.33
  L 315.83 304.32
  Q 315.44 303.98 315.62 303.49"
/>
<path stroke="#68817a" vector-effect="non-scaling-stroke" d="
  M 160.94 353.06
  L 178.13 329.14
  A 1.21 1.20 -41.2 0 0 178.22 327.87
  L 164.44 301.46
  Q 164.02 300.66 163.96 301.57
  L 160.50 352.91
  Q 160.44 353.75 160.94 353.06"
/>
<path stroke="#68817a" vector-effect="non-scaling-stroke" d="
  M 321.76 304.91
  C 320.93 304.87 320.09 304.49 319.23 304.35
  Q 318.38 304.21 319.01 304.80
  L 384.29 364.43
  Q 384.75 364.85 385.22 364.44
  L 416.13 336.65
  A 0.60 0.59 35.0 0 0 415.95 335.66
  Q 382.52 322.07 348.79 308.34
  Q 345.20 306.88 341.51 306.49
  Q 331.65 305.42 321.76 304.91"
/>
<path stroke="#a8906f" vector-effect="non-scaling-stroke" d="
  M 269.79 326.51
  L 273.44 307.06
  Q 273.54 306.54 273.05 306.74
  L 267.55 308.94
  Q 267.13 309.11 267.19 309.55
  L 269.69 326.51
  A 0.05 0.05 0.0 0 0 269.79 326.51"
/>
<path stroke="#a8906f" vector-effect="non-scaling-stroke" d="
  M 319.11 319.32
  L 327.39 315.30
  Q 327.91 315.04 327.45 314.69
  L 321.52 310.13
  Q 320.98 309.72 320.82 310.38
  L 318.76 319.03
  Q 318.63 319.55 319.11 319.32"
/>
<path stroke="#556d6b" vector-effect="non-scaling-stroke" d="
  M 419.68 334.08
  A 1.31 1.29 -77.2 0 0 420.57 335.51
  Q 441.57 341.96 461.99 348.41
  Q 462.53 348.59 462.69 348.21
  A 0.37 0.37 0.0 0 0 462.61 347.80
  L 423.76 310.27
  A 0.30 0.30 0.0 0 0 423.26 310.44
  L 419.68 334.08"
/>
<path stroke="#556d6b" vector-effect="non-scaling-stroke" d="
  M 238.63 382.79
  L 200.38 334.19
  A 2.32 2.29 -12.4 0 0 199.05 333.35
  L 181.46 329.47
  A 1.62 1.61 24.1 0 0 179.80 330.10
  L 160.86 356.21
  Q 160.03 357.35 161.10 358.25
  L 212.16 401.65
  Q 212.62 402.04 213.01 401.59
  C 215.13 399.21 217.30 396.42 219.41 394.54
  Q 227.71 387.17 238.44 383.46
  Q 239.01 383.26 238.63 382.79"
/>
<path stroke="#4b615f" vector-effect="non-scaling-stroke" d="
  M 413.60 341.28
  C 407.87 345.67 402.07 351.48 397.44 355.53
  Q 392.60 359.77 388.05 364.09
  A 0.56 0.56 0.0 0 0 388.44 365.05
  Q 409.12 364.80 429.75 364.94
  Q 430.19 364.95 431.23 364.51
  Q 431.88 364.24 432.49 363.68
  Q 443.29 353.61 457.13 349.70
  Q 458.70 349.26 457.15 348.75
  Q 440.65 343.29 423.23 338.08
  Q 423.12 338.04 421.73 337.56
  C 417.27 335.98 416.16 339.31 413.60 341.28"
/>
<path stroke="#5c8782" vector-effect="non-scaling-stroke" d="
  M 158.26 381.31
  Q 155.92 381.77 155.00 381.63
  Q 140.20 379.43 125.38 377.44
  Q 124.88 377.37 124.56 377.75
  L 123.22 379.31
  Q 122.74 379.86 123.39 380.20
  L 163.45 400.58
  Q 164.02 400.87 164.08 400.24
  L 165.54 385.54
  Q 165.59 385.07 165.27 384.72
  L 154.01 372.24
  Q 153.71 371.90 153.26 371.85
  L 128.00 368.72
  Q 127.40 368.65 127.49 369.25
  L 127.88 372.00
  A 0.81 0.80 3.9 0 0 128.47 372.67
  Q 141.14 376.14 153.87 379.28
  C 155.47 379.68 156.68 380.53 158.28 381.11
  Q 158.63 381.24 158.26 381.31"
/>
<path stroke="#97a9a1" vector-effect="non-scaling-stroke" d="
  M 124.38 375.50
  L 139.22 377.67
  A 0.12 0.12 0.0 0 0 139.27 377.44
  L 126.75 374.37
  Q 126.23 374.25 126.13 373.71
  L 125.37 369.52
  Q 125.28 369.03 124.78 369.02
  L 112.19 368.88
  A 0.92 0.89 12.2 0 0 111.37 369.39
  L 107.51 377.54
  Q 107.29 378.00 107.79 378.07
  L 119.78 379.86
  Q 120.33 379.94 120.68 379.51
  L 123.75 375.75
  Q 124.00 375.45 124.38 375.50"
/>
<path stroke="#a8906f" vector-effect="non-scaling-stroke" d="
  M 842.00 250.40
  Q 830.82 257.38 819.42 266.92
  C 808.57 275.99 801.23 286.01 798.58 300.00
  C 794.93 319.25 795.20 335.51 794.92 358.90
  Q 794.91 359.66 794.46 359.05
  C 792.14 355.90 789.80 352.12 787.14 349.71
  Q 777.79 341.26 765.05 341.33
  C 758.55 341.37 754.18 341.23 750.25 346.08
  Q 749.93 346.48 749.48 346.23
  C 737.54 339.37 725.05 330.79 711.74 327.78
  C 697.97 324.67 683.07 329.27 671.46 336.96
  C 663.13 342.46 659.24 349.80 657.02 359.96
  Q 654.74 370.38 654.34 381.28
  Q 654.31 381.95 653.73 381.62
  Q 641.34 374.62 627.48 371.40
  C 606.98 366.64 593.67 386.88 592.43 405.00"
/>
<path stroke="#f1e4cd" vector-effect="non-scaling-stroke" d="
  M 646.71 269.45
  Q 649.65 270.78 655.46 272.36
  C 667.14 275.52 669.57 284.03 672.65 294.77
  Q 672.88 295.58 673.13 294.78
  C 675.39 287.84 676.51 281.98 682.59 277.25"
/>
<path stroke="#a8906f" vector-effect="non-scaling-stroke" d="
  M 682.59 277.25
  Q 684.06 278.10 685.51 278.08
  Q 686.05 278.08 686.25 277.58
  Q 686.70 276.47 686.41 274.89"
/>
<path stroke="#f1e4cd" vector-effect="non-scaling-stroke" d="
  M 686.41 274.89
  L 700.44 270.12
  A 0.39 0.39 0.0 0 0 700.35 269.37
  Q 693.13 268.66 686.22 266.17"
/>
<path stroke="#9ec1c9" vector-effect="non-scaling-stroke" d="
  M 675.25 249.50
  L 674.92 249.20
  A 0.96 0.96 0.0 0 0 673.37 249.66
  C 672.20 253.61 670.94 257.90 668.28 260.92
  C 664.05 265.73 657.09 267.56 650.56 268.60"
/>
<path stroke="#f8f0e0" vector-effect="non-scaling-stroke" d="
  M 684.28 265.04
  Q 677.94 261.59 676.57 254.21"
/>
<path stroke="#b6aba1" vector-effect="non-scaling-stroke" d="
  M 686.41 274.89
  L 682.59 277.25"
/>
<path stroke="#a27c53" vector-effect="non-scaling-stroke" d="
  M 842.00 252.32
  C 830.51 260.68 819.37 267.60 809.55 279.23
  C 800.92 289.46 798.87 304.73 798.01 318.00
  Q 796.59 340.11 796.74 362.05
  A 1.07 1.07 0.0 0 1 794.77 362.64
  C 791.85 358.18 788.48 353.01 784.73 349.73
  C 777.33 343.26 767.76 342.43 758.50 343.27
  Q 753.75 343.70 751.32 347.56
  A 1.42 1.42 0.0 0 1 749.38 348.01
  C 734.94 339.12 715.94 326.04 697.99 328.47
  Q 685.64 330.14 674.56 337.01
  C 664.10 343.49 659.98 351.55 658.16 363.53
  Q 656.70 373.17 655.99 383.02
  A 1.36 1.36 0.0 0 1 653.91 384.07
  Q 642.22 376.84 628.70 373.60
  Q 622.40 372.09 618.23 372.73
  C 607.07 374.44 598.98 385.45 596.10 395.78
  Q 594.85 400.31 594.05 405.00"
/>
</g>
<path fill="#6d5643" d="
  M 842.00 26.11
  L 842.00 27.99
  Q 824.78 16.86 804.89 13.19
  C 791.46 10.71 775.86 9.22 761.46 9.93
  C 720.73 11.94 685.92 35.99 661.55 67.29
  C 647.72 85.05 642.07 107.72 641.17 129.87
  Q 641.15 130.38 641.46 129.98
  L 660.09 106.17
  A 0.74 0.63 77.2 0 0 660.21 105.94
  L 660.66 104.70
  Q 660.82 104.26 661.29 104.25
  L 683.09 104.17
  Q 683.44 104.16 683.54 104.50
  L 702.73 167.30
  A 0.34 0.34 0.0 0 0 703.38 167.32
  Q 712.26 143.93 732.67 131.42
  C 751.04 120.16 776.58 115.91 797.79 116.66
  Q 808.72 117.05 817.48 119.73
  Q 830.36 123.65 842.00 131.62
  L 842.00 133.80
  C 826.75 124.38 815.07 118.71 797.75 118.25
  C 771.08 117.53 737.91 123.78 719.03 144.72
  Q 712.40 152.07 708.29 160.56
  C 699.50 178.70 694.18 198.76 690.02 218.77
  Q 685.19 241.99 686.22 266.17
  Q 684.96 265.74 684.28 265.04
  Q 683.36 241.59 688.09 218.80
  Q 688.16 218.45 688.44 217.77
  Q 688.70 217.16 688.62 216.66
  Q 688.55 216.24 688.43 216.64
  L 676.57 254.21
  L 675.25 249.50
  Q 676.00 249.08 676.26 248.32
  Q 688.50 211.68 699.75 174.94
  Q 699.93 174.33 699.42 174.71
  Q 684.04 186.02 668.18 196.92
  Q 666.41 198.13 666.06 199.53
  Q 661.88 216.24 650.00 267.01
  Q 649.88 267.53 650.56 268.60
  L 646.71 269.45
  Q 624.25 266.90 604.98 271.76
  Q 574.23 279.52 558.01 308.34
  C 549.66 323.20 544.86 338.97 539.27 354.64
  A 0.67 0.67 0.0 0 1 538.55 355.08
  C 516.26 352.22 494.24 348.09 471.51 349.36
  C 456.75 350.19 444.33 355.53 433.26 365.43
  C 422.43 375.11 415.13 388.63 407.89 400.84
  A 1.54 1.54 0.0 0 1 405.90 401.44
  C 394.39 395.88 384.81 390.69 371.49 394.79
  Q 363.35 397.30 354.69 405.00
  L 351.67 405.00
  Q 358.97 398.39 367.81 394.32
  C 381.62 387.97 392.95 392.79 405.62 399.16
  A 0.96 0.95 28.4 0 0 406.88 398.79
  C 413.46 387.67 419.22 377.27 428.74 367.17
  Q 429.27 366.61 428.50 366.61
  L 383.86 366.74
  Q 383.36 366.74 383.08 366.32
  C 382.41 365.26 382.25 364.62 381.34 363.79
  Q 355.50 340.31 329.84 316.96
  A 0.99 0.98 -35.5 0 0 328.78 316.79
  C 312.43 324.01 295.67 334.96 284.73 349.34
  C 278.59 357.41 273.65 368.32 269.13 378.08
  A 2.36 2.35 -82.0 0 1 267.34 379.43
  C 245.31 382.88 227.30 385.41 213.35 405.00
  L 210.94 405.00
  Q 211.22 404.21 211.17 403.59
  Q 211.13 403.02 210.47 402.46
  Q 185.25 381.03 160.05 359.57
  Q 159.69 359.27 159.23 359.28
  Q 158.40 359.30 158.09 358.60
  Q 157.89 358.16 158.06 357.33
  Q 158.64 354.62 158.70 353.75
  Q 160.39 326.49 162.55 299.26
  Q 162.77 296.38 160.79 292.98
  Q 152.27 278.42 144.09 263.95
  A 0.63 0.63 0.0 0 0 142.98 263.98
  L 128.23 293.11
  A 1.09 1.07 -47.6 0 0 128.27 294.14
  L 148.33 328.31
  Q 148.38 328.40 148.38 328.51
  Q 148.37 328.66 148.38 328.83
  A 0.44 0.44 0.0 0 1 147.64 329.17
  L 121.95 305.03
  A 1.83 1.82 -40.0 0 0 119.69 304.84
  L 105.69 314.11
  A 1.28 1.28 0.0 0 0 105.45 316.04
  L 153.91 369.45
  Q 154.32 369.90 154.90 370.05
  Q 156.31 370.43 156.54 371.85
  Q 156.63 372.39 157.00 372.80
  Q 160.86 377.11 164.69 381.46
  C 165.66 382.56 166.99 383.30 168.00 384.63
  Q 169.90 387.14 170.07 387.32
  Q 178.00 395.81 185.68 405.00
  L 183.54 405.00
  L 167.76 387.59
  Q 167.32 387.10 167.25 387.75
  L 165.91 400.44
  A 1.54 1.54 0.0 0 0 166.88 402.03
  L 174.51 405.00
  L 161.09 405.00
  L 162.65 402.85
  Q 162.97 402.41 162.49 402.17
  Q 142.51 392.09 122.64 381.82
  Q 122.47 381.74 122.31 381.75
  Q 122.04 381.79 121.79 381.89
  A 1.37 1.37 0.0 0 1 121.00 381.99
  L 107.73 379.93
  A 0.22 0.22 0.0 0 0 107.54 380.30
  L 130.39 405.00
  L 127.92 405.00
  L 121.73 398.41
  Q 121.37 398.03 120.85 397.92
  Q 108.98 395.47 101.54 405.00
  L 99.31 405.00
  Q 106.10 394.69 118.63 395.60
  Q 119.21 395.64 118.82 395.22
  L 104.74 380.11
  A 0.78 0.77 36.2 0 1 104.60 379.24
  L 110.27 367.34
  Q 110.49 366.88 111.00 366.91
  C 119.11 367.34 127.31 366.70 135.22 367.74
  Q 143.08 368.77 151.05 369.71
  Q 151.78 369.79 151.28 369.25
  L 124.04 339.07
  Q 123.68 338.67 123.14 338.67
  Q 91.22 338.86 69.72 361.07
  C 62.12 368.92 59.62 378.39 56.12 387.96
  A 1.66 1.64 -79.0 0 1 54.52 389.05
  C 37.69 388.51 19.78 386.21 12.86 405.00
  L 10.98 405.00
  C 18.14 384.55 36.21 386.87 53.74 386.99
  A 0.77 0.76 10.8 0 0 54.47 386.50
  C 56.85 380.39 59.06 373.30 62.16 368.21
  C 73.70 349.29 95.98 338.26 118.02 337.17
  Q 119.70 337.08 121.39 336.73
  Q 121.94 336.62 121.56 336.21
  Q 112.62 326.48 103.86 316.64
  Q 103.56 316.30 102.57 315.98
  Q 102.08 315.82 102.12 315.31
  Q 102.35 312.25 102.21 309.25
  Q 100.56 274.07 99.14 238.88
  A 6.68 6.60 -36.5 0 1 99.53 236.37
  L 108.50 211.99
  Q 108.71 211.42 109.32 211.49
  Q 110.16 211.59 110.73 212.28
  A 2.51 2.40 82.1 0 0 111.54 212.92
  Q 145.19 229.52 178.99 245.81
  Q 179.43 246.03 179.42 246.30
  Q 179.41 246.49 179.24 246.71
  Q 179.02 247.01 179.17 247.34
  L 197.33 286.75
  Q 197.53 287.19 197.95 286.96
  Q 201.17 285.18 199.73 281.52
  C 198.98 279.61 198.39 276.28 197.31 273.27
  Q 196.80 271.83 197.00 269.75
  Q 198.02 259.32 200.12 228.32
  Q 200.16 227.85 200.43 227.46
  L 221.21 197.81
  Q 221.35 197.61 221.36 197.86
  Q 221.46 199.73 222.75 201.46
  Q 240.28 225.05 257.87 248.58
  Q 258.10 248.89 258.16 249.24
  Q 258.20 249.44 258.22 249.67
  Q 258.25 249.96 258.54 249.91
  Q 277.55 246.15 296.80 248.34
  Q 297.41 248.41 297.72 247.88
  L 298.75 246.15
  Q 298.99 245.75 299.46 245.76
  L 312.04 246.09
  Q 312.54 246.10 312.67 246.57
  L 314.00 251.22
  Q 314.16 251.78 314.71 251.95
  C 334.76 258.23 350.06 270.94 362.34 287.68
  A 1.55 1.53 -15.8 0 0 363.48 288.31
  L 403.01 291.49
  Q 404.15 291.59 403.33 290.79
  Q 362.73 251.98 321.90 212.60
  Q 321.15 211.89 320.22 211.46
  Q 319.76 211.25 319.75 210.75
  Q 318.20 154.90 316.64 99.05
  Q 316.58 96.73 317.53 94.62
  Q 324.75 78.67 332.32 62.93
  C 332.85 61.84 332.75 60.26 333.72 59.25
  Q 334.10 58.85 334.55 59.15
  Q 336.01 60.11 336.77 60.43
  Q 363.64 71.76 446.60 106.42
  Q 446.71 106.47 448.76 106.98
  Q 450.58 107.43 450.64 109.49
  Q 450.66 110.00 450.89 110.45
  L 482.64 171.89
  Q 483.00 172.60 483.78 172.49
  L 489.20 171.75
  Q 489.86 171.66 489.68 171.01
  Q 486.28 158.68 482.50 146.53
  Q 481.78 144.23 482.10 141.85
  Q 485.70 114.58 489.32 87.29
  Q 489.70 84.38 489.82 81.42
  Q 489.84 80.90 490.16 80.50
  L 527.05 33.81
  Q 527.34 33.45 527.56 33.85
  C 529.24 36.90 531.73 39.61 533.75 42.15
  Q 560.80 76.00 587.93 109.80
  A 1.36 1.30 -64.1 0 1 588.21 110.68
  Q 588.15 112.16 588.49 114.24
  Q 596.16 162.41 603.88 210.57
  Q 603.98 211.13 604.55 211.14
  L 609.40 211.16
  Q 610.00 211.16 610.14 210.58
  Q 616.93 182.32 624.01 154.15
  C 624.36 152.74 623.63 151.74 625.23 150.40
  Q 626.43 149.40 626.72 149.00
  Q 632.50 141.14 638.60 133.88
  A 2.83 2.82 65.9 0 0 639.26 132.15
  C 639.94 107.79 646.04 84.08 661.15 64.69
  C 682.90 36.77 713.03 15.74 748.44 9.63
  C 769.31 6.03 793.37 8.52 813.73 13.46
  Q 828.92 17.14 842.00 26.11
  Z
  M 527.71 37.89
  Q 526.79 46.82 526.51 53.75
  Q 525.26 85.16 523.84 116.79
  A 1.43 1.42 11.9 0 0 524.76 118.19
  L 553.11 128.89
  Q 553.57 129.06 553.70 129.53
  L 567.18 175.00
  A 0.31 0.31 0.0 0 0 567.79 174.89
  L 565.45 129.99
  Q 565.42 129.43 565.83 129.04
  L 585.26 110.76
  A 1.09 1.08 -41.2 0 0 585.36 109.29
  L 542.14 55.78
  Q 535.99 46.83 527.71 37.89
  Z
  M 491.04 87.05
  C 490.20 95.21 488.78 103.19 488.12 111.38
  C 487.84 114.85 486.71 118.89 486.55 121.75
  Q 486.04 131.14 485.03 140.17
  A 0.53 0.53 0.0 0 0 485.84 140.67
  L 520.70 118.60
  A 2.73 2.72 75.3 0 0 521.98 116.40
  L 525.70 39.51
  A 0.30 0.30 0.0 0 0 525.17 39.31
  Q 509.14 59.53 493.29 79.95
  C 491.47 82.29 491.33 84.26 491.04 87.05
  Z
  M 320.08 94.32
  L 320.12 93.69
  Q 320.14 93.23 319.86 93.59
  Q 318.62 95.22 318.58 97.61
  Q 318.40 104.62 318.65 111.71
  Q 319.06 122.93 319.10 125.79
  Q 319.49 155.66 320.64 185.51
  Q 321.07 196.77 321.35 207.84
  A 0.79 0.79 0.0 0 0 322.52 208.51
  L 351.94 192.43
  Q 352.34 192.21 352.70 192.50
  L 386.51 219.62
  A 0.13 0.13 0.0 0 0 386.70 219.44
  L 358.34 182.38
  Q 358.01 181.94 358.33 181.50
  Q 360.71 178.25 362.83 174.87
  Q 375.75 154.28 388.11 133.54
  Q 388.37 133.10 388.06 132.68
  L 335.76 63.32
  Q 334.60 61.79 333.82 63.54
  L 320.08 94.32
  Z
  M 445.99 108.77
  A 0.36 0.36 0.0 0 0 446.01 108.10
  L 337.76 62.63
  A 0.36 0.36 0.0 0 0 337.33 63.19
  L 389.97 131.87
  A 0.36 0.36 0.0 0 0 390.40 131.98
  L 419.28 119.38
  A 0.36 0.36 0.0 0 1 419.70 119.48
  L 437.74 141.98
  A 0.36 0.36 0.0 0 0 438.37 141.66
  L 430.93 114.24
  A 0.36 0.36 0.0 0 1 431.16 113.80
  L 445.99 108.77
  Z
  M 663.74 106.25
  A 0.31 0.31 0.0 0 0 663.46 106.67
  L 667.87 118.69
  A 0.31 0.31 0.0 0 0 668.39 118.79
  L 679.50 106.36
  A 0.31 0.31 0.0 0 0 679.26 105.85
  L 663.74 106.25
  Z
  M 666.67 195.34
  Q 666.65 196.03 667.21 195.62
  L 700.60 171.18
  A 1.99 1.98 63.5 0 0 701.32 169.00
  L 682.36 106.73
  A 0.42 0.42 0.0 0 0 681.64 106.57
  Q 675.76 113.14 669.99 119.97
  C 668.67 121.54 668.74 122.79 668.69 124.75
  Q 667.77 157.20 666.67 195.34
  Z
  M 639.05 136.46
  Q 637.62 137.90 633.44 142.98
  Q 628.82 148.57 627.03 152.29
  L 664.23 194.85
  A 0.29 0.28 25.7 0 0 664.73 194.68
  Q 665.80 162.43 666.66 130.11
  C 666.74 127.00 667.56 122.05 666.12 118.73
  Q 663.69 113.17 662.00 107.61
  A 0.39 0.39 0.0 0 0 661.31 107.49
  L 639.05 136.46
  Z
  M 441.63 147.68
  Q 442.36 150.38 440.60 148.20
  L 419.56 121.99
  A 1.04 1.03 58.5 0 0 418.34 121.69
  L 391.59 133.15
  A 0.68 0.67 -28.3 0 0 391.29 134.14
  L 420.58 178.67
  A 4.37 4.35 -20.5 0 0 424.83 180.60
  L 480.02 173.06
  Q 481.32 172.88 480.72 171.71
  L 449.02 110.38
  A 1.51 1.50 65.8 0 0 447.13 109.66
  L 433.54 115.00
  Q 432.90 115.25 433.08 115.92
  L 441.63 147.68
  Z
  M 569.41 187.75
  C 568.17 185.33 567.63 182.36 567.03 180.37
  Q 559.53 155.52 552.25 130.55
  Q 552.10 130.02 551.58 129.83
  L 524.50 119.85
  Q 523.78 119.58 523.82 120.35
  Q 525.96 157.64 528.17 195.00
  Q 528.31 197.29 529.82 199.45
  Q 561.73 244.98 584.95 277.37
  Q 585.30 277.86 585.83 277.56
  Q 597.25 271.10 610.18 268.84
  Q 610.70 268.75 610.66 268.22
  Q 609.99 259.68 608.64 251.24
  Q 597.60 181.83 586.53 112.57
  A 0.38 0.38 0.0 0 0 585.90 112.35
  Q 577.71 119.92 569.74 127.57
  C 568.87 128.40 567.14 129.62 567.22 131.00
  Q 568.61 152.88 569.29 174.78
  C 569.38 177.83 570.29 183.33 569.98 187.63
  Q 569.90 188.71 569.41 187.75
  Z
  M 520.47 120.87
  Q 520.21 120.92 519.87 121.12
  Q 502.78 131.38 484.95 142.99
  A 2.43 2.42 65.4 0 0 483.94 145.71
  L 491.24 170.63
  A 1.23 1.22 -12.6 0 0 492.61 171.50
  L 506.02 169.47
  A 3.85 3.84 68.0 0 1 509.72 171.04
  L 524.56 192.01
  Q 524.81 192.36 524.93 192.76
  Q 525.13 193.45 525.72 193.84
  A 0.56 0.56 0.0 0 0 526.58 193.34
  Q 523.54 144.72 522.46 124.51
  Q 522.34 122.35 521.78 120.92
  Q 521.70 120.73 521.56 120.67
  Q 521.38 120.58 521.20 120.64
  Q 520.54 120.85 520.47 120.87
  Z
  M 362.70 184.30
  Q 361.90 184.79 364.05 185.40
  Q 363.84 185.27 363.54 185.51
  Q 363.12 185.85 363.45 186.28
  L 394.37 226.68
  A 0.69 0.69 0.0 0 1 393.38 227.64
  L 353.57 195.16
  A 1.91 1.91 0.0 0 0 351.49 194.94
  L 322.83 209.56
  A 0.97 0.96 -31.3 0 0 322.48 210.97
  Q 323.20 211.99 324.38 213.11
  Q 345.05 232.92 365.75 252.72
  Q 370.82 257.58 374.10 260.90
  C 378.76 265.63 383.86 269.87 388.55 274.61
  C 393.05 279.16 397.86 283.11 402.32 287.63
  Q 407.97 293.35 409.91 295.18
  Q 437.56 321.32 465.01 347.61
  Q 465.41 348.00 465.97 347.95
  Q 477.49 346.94 489.22 347.27
  C 492.71 347.37 496.57 348.00 500.32 348.24
  C 506.61 348.65 512.57 349.81 518.72 350.32
  Q 519.95 350.99 521.38 350.80
  Q 521.99 350.72 521.41 350.51
  L 520.27 350.09
  Q 520.24 349.50 519.70 349.11
  Q 467.38 311.37 414.82 273.94
  Q 414.39 273.63 414.39 273.10
  C 414.39 268.73 415.25 262.96 415.45 260.09
  C 416.14 250.19 417.18 239.91 417.79 230.45
  Q 419.21 208.18 421.04 185.93
  C 421.17 184.37 421.46 182.56 420.62 181.29
  Q 405.24 158.32 390.76 136.17
  Q 389.65 134.47 388.57 136.19
  Q 373.75 159.70 361.09 180.50
  C 359.88 182.48 360.72 183.67 362.70 184.30
  Z
  M 622.16 168.82
  C 617.64 185.18 614.60 199.56 609.74 218.27
  Q 607.77 225.86 606.97 228.43
  Q 606.82 228.89 606.90 229.36
  L 612.76 267.27
  A 1.08 1.07 -8.4 0 0 613.98 268.17
  Q 630.54 265.82 647.14 267.71
  Q 647.90 267.80 648.08 267.05
  L 664.45 199.18
  Q 664.66 198.28 664.06 197.58
  L 626.81 154.48
  A 0.81 0.80 31.5 0 0 625.42 154.81
  C 624.27 159.46 623.38 164.42 622.16 168.82
  Z
  M 452.69 228.39
  Q 468.04 231.42 483.45 233.61
  A 0.52 0.51 -76.4 0 0 484.01 233.26
  L 505.24 171.93
  A 0.29 0.29 0.0 0 0 504.93 171.55
  L 424.17 182.34
  A 0.53 0.53 0.0 0 0 423.77 183.12
  Q 435.58 204.96 447.55 226.95
  Q 448.22 228.19 450.04 228.23
  Q 452.15 228.28 452.69 228.39
  Z
  M 506.97 172.47
  L 485.50 234.09
  A 1.03 1.01 33.7 0 0 485.72 235.13
  L 554.64 309.39
  Q 555.09 309.87 555.43 309.31
  C 562.69 296.99 571.10 286.71 583.20 279.02
  Q 583.58 278.77 583.33 278.40
  C 567.83 256.14 552.51 233.69 536.38 211.89
  Q 521.86 192.26 507.61 172.38
  Q 507.20 171.81 506.97 172.47
  Z
  M 424.08 187.21
  A 0.34 0.34 0.0 0 0 423.44 187.34
  L 416.24 267.40
  A 0.34 0.34 0.0 0 0 416.85 267.64
  L 446.78 229.49
  A 0.34 0.34 0.0 0 0 446.81 229.11
  L 424.08 187.21
  Z
  M 238.69 261.61
  L 246.46 290.01
  Q 246.80 291.25 246.70 289.96
  L 244.53 262.07
  Q 244.50 261.56 244.83 261.19
  L 255.42 249.37
  A 0.71 0.71 0.0 0 0 255.46 248.48
  L 221.80 203.16
  Q 221.48 202.73 221.48 203.26
  L 221.30 252.14
  A 1.82 1.82 0.0 0 0 222.35 253.79
  L 238.27 261.11
  Q 238.60 261.26 238.69 261.61
  Z
  M 218.99 204.09
  Q 211.06 215.44 203.45 226.54
  Q 202.31 228.21 202.12 230.23
  Q 200.44 248.92 199.05 267.78
  Q 199.00 268.48 199.56 268.06
  L 218.19 253.96
  Q 219.40 253.04 219.40 251.53
  L 219.56 204.27
  Q 219.57 203.27 218.99 204.09
  Z
  M 609.34 213.45
  A 0.51 0.51 0.0 0 0 608.86 212.82
  L 604.82 212.67
  A 0.51 0.51 0.0 0 0 604.29 213.26
  L 605.93 223.42
  A 0.51 0.51 0.0 0 0 606.93 223.46
  L 609.34 213.45
  Z
  M 141.50 260.42
  L 110.03 214.70
  A 0.40 0.40 0.0 0 0 109.33 214.79
  Q 105.66 225.04 101.67 235.49
  Q 100.76 237.86 100.87 240.37
  Q 101.79 260.76 102.73 281.15
  C 103.10 289.14 104.02 301.06 103.93 311.29
  A 0.91 0.91 0.0 0 0 105.33 312.07
  L 121.04 302.10
  Q 121.47 301.83 121.83 302.17
  L 141.01 320.33
  A 0.34 0.34 0.0 0 0 141.54 319.91
  L 126.31 295.03
  A 1.86 1.85 42.3 0 1 126.22 293.27
  L 141.57 261.30
  A 0.88 0.88 0.0 0 0 141.50 260.42
  Z
  M 167.24 249.48
  L 174.74 246.58
  Q 175.69 246.22 174.77 245.77
  L 113.73 216.09
  Q 112.90 215.69 113.43 216.44
  L 143.51 259.44
  A 0.72 0.71 -28.1 0 0 144.36 259.69
  L 160.81 253.09
  Q 161.31 252.89 161.62 253.33
  L 170.39 265.91
  A 0.27 0.27 0.0 0 0 170.87 265.69
  L 166.86 250.22
  Q 166.72 249.68 167.24 249.48
  Z
  M 536.97 352.63
  Q 537.07 352.81 537.23 352.89
  Q 537.64 353.06 537.80 352.65
  L 540.97 344.75
  Q 546.20 327.87 553.92 312.01
  Q 554.13 311.57 553.80 311.21
  Q 501.20 253.54 485.18 236.57
  C 483.56 234.86 479.91 235.06 477.95 234.58
  Q 472.82 233.32 467.50 233.24
  Q 467.10 233.23 466.96 232.91
  Q 466.79 232.53 466.38 232.48
  C 463.30 232.08 458.51 232.58 455.48 231.39
  Q 453.28 230.53 452.36 230.44
  Q 450.62 230.28 448.87 230.35
  Q 448.35 230.38 448.03 230.78
  Q 436.63 244.94 425.47 259.28
  Q 425.42 259.35 422.19 263.14
  Q 420.02 265.69 418.44 268.72
  A 1.63 1.60 -0.9 0 1 417.76 269.41
  Q 415.98 270.37 416.15 272.43
  Q 416.19 272.92 416.59 273.21
  Q 435.46 287.17 454.63 300.72
  Q 490.16 325.82 525.53 351.14
  Q 525.81 351.34 526.68 351.34
  A 0.03 0.02 20.8 0 1 526.70 351.38
  L 526.51 351.60
  Q 526.43 351.68 526.54 351.68
  L 536.97 352.63
  Z
  M 175.22 274.44
  Q 175.65 276.15 174.62 274.72
  L 161.46 256.29
  Q 160.66 255.16 159.37 255.67
  L 145.49 261.18
  A 0.66 0.66 0.0 0 0 145.16 262.13
  L 163.96 294.63
  A 0.70 0.68 -18.7 0 0 164.65 294.96
  L 196.33 290.43
  A 0.53 0.53 0.0 0 0 196.74 289.68
  L 177.54 248.37
  A 1.09 1.08 -23.9 0 0 176.13 247.83
  L 169.95 250.49
  A 0.92 0.91 -18.8 0 0 169.42 251.55
  L 175.22 274.44
  Z
  M 302.05 248.00
  L 303.80 254.71
  Q 303.92 255.19 304.21 254.79
  L 308.94 248.32
  Q 309.34 247.76 308.66 247.76
  L 302.26 247.74
  A 0.21 0.21 0.0 0 0 302.05 248.00
  Z
  M 299.77 248.47
  L 281.23 277.52
  A 0.68 0.68 0.0 0 0 281.26 278.30
  L 302.39 306.36
  Q 302.93 307.07 302.93 306.17
  Q 302.80 285.38 302.74 264.58
  C 302.72 258.57 302.00 253.88 300.27 248.53
  A 0.28 0.28 0.0 0 0 299.77 248.47
  Z
  M 323.26 290.27
  L 311.49 248.92
  Q 311.34 248.39 310.98 248.81
  C 308.38 251.78 304.49 256.29 304.53 260.45
  Q 304.78 283.68 304.73 306.99
  Q 304.73 307.67 305.24 307.23
  L 322.80 291.84
  A 1.53 1.52 -28.7 0 0 323.26 290.27
  Z
  M 258.86 252.09
  Q 258.46 252.42 258.55 253.01
  Q 262.61 279.83 266.71 306.68
  Q 266.79 307.18 267.26 307.00
  L 273.39 304.68
  Q 273.89 304.49 273.99 303.97
  Q 276.35 291.90 278.47 279.83
  Q 278.91 277.33 280.28 275.20
  Q 287.96 263.33 295.31 251.67
  A 1.07 1.06 -73.3 0 0 294.43 250.03
  L 290.44 249.97
  L 291.53 249.65
  Q 292.23 249.45 291.51 249.41
  Q 275.27 248.53 259.26 251.26
  Q 258.74 251.35 258.86 252.09
  Z
  M 248.65 302.95
  C 247.95 301.38 247.34 300.04 246.92 298.49
  Q 242.09 280.92 237.41 263.75
  A 2.37 2.35 -85.4 0 0 236.13 262.23
  L 221.94 255.61
  Q 221.37 255.34 221.42 255.97
  Q 223.50 281.55 225.53 307.32
  Q 225.70 309.53 226.87 311.43
  Q 246.81 343.85 266.85 376.27
  Q 267.16 376.78 267.45 376.26
  Q 270.17 371.36 272.59 366.31
  Q 273.47 364.48 273.29 363.24
  Q 265.17 307.60 256.46 252.00
  A 0.37 0.37 0.0 0 0 255.82 251.81
  L 247.31 261.45
  A 3.02 3.00 -26.7 0 0 246.56 263.68
  Q 247.90 280.81 249.05 298.50
  Q 249.22 301.22 249.05 302.89
  Q 248.97 303.65 248.65 302.95
  Z
  M 355.31 287.38
  Q 357.27 287.78 359.30 287.84
  Q 359.89 287.86 359.55 287.38
  C 348.84 272.24 333.23 259.51 315.37 254.13
  Q 314.83 253.96 314.99 254.50
  L 324.62 288.14
  Q 324.83 288.87 325.40 288.38
  L 325.65 288.17
  Q 325.97 287.90 326.39 287.90
  Q 338.90 287.84 351.38 287.01
  Q 353.00 286.90 355.31 287.38
  Z
  M 212.73 288.34
  L 222.05 303.95
  A 0.71 0.71 0.0 0 0 223.36 303.53
  L 219.61 256.25
  A 0.42 0.42 0.0 0 0 218.94 255.95
  L 199.33 270.59
  A 0.86 0.85 63.9 0 0 199.02 271.51
  L 203.73 288.78
  Q 203.88 289.33 204.45 289.25
  L 212.18 288.08
  Q 212.54 288.03 212.73 288.34
  Z
  M 302.66 309.80
  L 281.09 280.99
  Q 280.43 280.11 280.23 281.19
  Q 275.71 305.26 271.06 329.85
  Q 270.54 332.58 271.02 335.38
  Q 273.17 347.82 274.60 360.61
  A 0.37 0.37 0.0 0 0 275.30 360.74
  Q 283.90 344.18 298.62 332.69
  A 1.30 1.26 -15.3 0 0 299.09 331.90
  L 302.80 310.38
  A 0.73 0.73 0.0 0 0 302.66 309.80
  Z
  M 201.47 289.58
  A 0.44 0.44 0.0 0 0 201.78 289.00
  L 201.15 287.30
  A 0.44 0.44 0.0 0 0 200.39 287.19
  L 198.64 289.45
  A 0.44 0.44 0.0 0 0 199.09 290.15
  L 201.47 289.58
  Z
  M 353.05 296.82
  L 351.77 290.57
  Q 351.44 288.98 349.82 289.04
  L 328.01 289.90
  A 2.33 2.30 15.5 0 0 326.18 290.92
  L 318.76 302.09
  Q 318.38 302.66 319.06 302.71
  L 342.69 304.63
  A 1.30 1.26 -61.4 0 0 343.59 304.35
  L 348.26 300.71
  Q 348.72 300.35 349.29 300.41
  L 383.24 303.74
  Q 383.38 303.76 383.38 303.63
  Q 383.38 303.56 383.38 303.50
  Q 383.38 303.49 383.23 303.46
  L 353.65 297.42
  Q 353.16 297.32 353.05 296.82
  Z
  M 404.72 306.65
  A 0.46 0.46 0.0 0 1 404.48 307.52
  Q 377.88 305.21 351.31 302.32
  C 349.01 302.07 347.41 303.13 345.99 304.69
  A 0.57 0.57 0.0 0 0 346.20 305.61
  L 417.30 334.42
  A 0.43 0.42 -74.2 0 0 417.88 334.09
  L 421.78 309.52
  Q 421.86 308.96 421.46 308.56
  L 406.83 294.01
  A 2.39 2.37 69.6 0 0 405.34 293.32
  L 353.96 289.27
  A 0.43 0.43 0.0 0 0 353.50 289.78
  L 354.48 294.85
  A 1.49 1.48 -89.8 0 0 355.63 296.02
  Q 378.51 300.79 401.47 305.55
  Q 403.28 305.93 404.72 306.65
  Z
  M 210.26 290.22
  L 165.19 296.65
  A 0.85 0.84 -18.0 0 0 164.56 297.88
  L 179.77 326.82
  A 1.11 1.10 -7.6 0 0 180.52 327.39
  L 199.51 331.55
  Q 199.99 331.66 200.11 331.18
  L 210.73 290.75
  Q 210.90 290.13 210.26 290.22
  Z
  M 265.03 377.77
  A 0.34 0.34 0.0 0 0 265.26 377.26
  L 212.87 292.30
  A 0.34 0.34 0.0 0 0 212.25 292.39
  L 201.69 332.72
  A 0.34 0.34 0.0 0 0 201.75 333.01
  L 240.55 382.19
  A 0.34 0.34 0.0 0 0 240.88 382.31
  L 265.03 377.77
  Z
  M 315.62 303.49
  C 316.14 302.10 318.01 300.87 318.34 299.80
  Q 318.46 299.41 318.36 299.05
  Q 318.22 298.52 317.80 298.88
  L 305.36 309.73
  A 2.68 2.67 -15.6 0 0 304.47 311.31
  L 301.20 330.17
  A 0.12 0.12 0.0 0 0 301.38 330.29
  L 316.00 320.82
  A 1.46 1.44 80.9 0 0 316.62 319.95
  L 319.50 308.29
  A 0.99 0.97 -62.2 0 0 319.21 307.33
  L 315.83 304.32
  Q 315.44 303.98 315.62 303.49
  Z
  M 160.94 353.06
  L 178.13 329.14
  A 1.21 1.20 -41.2 0 0 178.22 327.87
  L 164.44 301.46
  Q 164.02 300.66 163.96 301.57
  L 160.50 352.91
  Q 160.44 353.75 160.94 353.06
  Z
  M 321.76 304.91
  C 320.93 304.87 320.09 304.49 319.23 304.35
  Q 318.38 304.21 319.01 304.80
  L 384.29 364.43
  Q 384.75 364.85 385.22 364.44
  L 416.13 336.65
  A 0.60 0.59 35.0 0 0 415.95 335.66
  Q 382.52 322.07 348.79 308.34
  Q 345.20 306.88 341.51 306.49
  Q 331.65 305.42 321.76 304.91
  Z
  M 269.79 326.51
  L 273.44 307.06
  Q 273.54 306.54 273.05 306.74
  L 267.55 308.94
  Q 267.13 309.11 267.19 309.55
  L 269.69 326.51
  A 0.05 0.05 0.0 0 0 269.79 326.51
  Z
  M 319.11 319.32
  L 327.39 315.30
  Q 327.91 315.04 327.45 314.69
  L 321.52 310.13
  Q 320.98 309.72 320.82 310.38
  L 318.76 319.03
  Q 318.63 319.55 319.11 319.32
  Z
  M 419.68 334.08
  A 1.31 1.29 -77.2 0 0 420.57 335.51
  Q 441.57 341.96 461.99 348.41
  Q 462.53 348.59 462.69 348.21
  A 0.37 0.37 0.0 0 0 462.61 347.80
  L 423.76 310.27
  A 0.30 0.30 0.0 0 0 423.26 310.44
  L 419.68 334.08
  Z
  M 238.63 382.79
  L 200.38 334.19
  A 2.32 2.29 -12.4 0 0 199.05 333.35
  L 181.46 329.47
  A 1.62 1.61 24.1 0 0 179.80 330.10
  L 160.86 356.21
  Q 160.03 357.35 161.10 358.25
  L 212.16 401.65
  Q 212.62 402.04 213.01 401.59
  C 215.13 399.21 217.30 396.42 219.41 394.54
  Q 227.71 387.17 238.44 383.46
  Q 239.01 383.26 238.63 382.79
  Z
  M 413.60 341.28
  C 407.87 345.67 402.07 351.48 397.44 355.53
  Q 392.60 359.77 388.05 364.09
  A 0.56 0.56 0.0 0 0 388.44 365.05
  Q 409.12 364.80 429.75 364.94
  Q 430.19 364.95 431.23 364.51
  Q 431.88 364.24 432.49 363.68
  Q 443.29 353.61 457.13 349.70
  Q 458.70 349.26 457.15 348.75
  Q 440.65 343.29 423.23 338.08
  Q 423.12 338.04 421.73 337.56
  C 417.27 335.98 416.16 339.31 413.60 341.28
  Z
  M 158.26 381.31
  Q 155.92 381.77 155.00 381.63
  Q 140.20 379.43 125.38 377.44
  Q 124.88 377.37 124.56 377.75
  L 123.22 379.31
  Q 122.74 379.86 123.39 380.20
  L 163.45 400.58
  Q 164.02 400.87 164.08 400.24
  L 165.54 385.54
  Q 165.59 385.07 165.27 384.72
  L 154.01 372.24
  Q 153.71 371.90 153.26 371.85
  L 128.00 368.72
  Q 127.40 368.65 127.49 369.25
  L 127.88 372.00
  A 0.81 0.80 3.9 0 0 128.47 372.67
  Q 141.14 376.14 153.87 379.28
  C 155.47 379.68 156.68 380.53 158.28 381.11
  Q 158.63 381.24 158.26 381.31
  Z
  M 124.38 375.50
  L 139.22 377.67
  A 0.12 0.12 0.0 0 0 139.27 377.44
  L 126.75 374.37
  Q 126.23 374.25 126.13 373.71
  L 125.37 369.52
  Q 125.28 369.03 124.78 369.02
  L 112.19 368.88
  A 0.92 0.89 12.2 0 0 111.37 369.39
  L 107.51 377.54
  Q 107.29 378.00 107.79 378.07
  L 119.78 379.86
  Q 120.33 379.94 120.68 379.51
  L 123.75 375.75
  Q 124.00 375.45 124.38 375.50
  Z"
/>
<path fill="#f0e1c1" d="
  M 842.00 27.99
  L 842.00 131.62
  Q 830.36 123.65 817.48 119.73
  Q 808.72 117.05 797.79 116.66
  C 776.58 115.91 751.04 120.16 732.67 131.42
  Q 712.26 143.93 703.38 167.32
  A 0.34 0.34 0.0 0 1 702.73 167.30
  L 683.54 104.50
  Q 683.44 104.16 683.09 104.17
  L 661.29 104.25
  Q 660.82 104.26 660.66 104.70
  L 660.21 105.94
  A 0.74 0.63 77.2 0 1 660.09 106.17
  L 641.46 129.98
  Q 641.15 130.38 641.17 129.87
  C 642.07 107.72 647.72 85.05 661.55 67.29
  C 685.92 35.99 720.73 11.94 761.46 9.93
  C 775.86 9.22 791.46 10.71 804.89 13.19
  Q 824.78 16.86 842.00 27.99
  Z"
/>
<path fill="#4ab8c1" d="
  M 527.71 37.89
  L 542.14 55.78
  L 585.36 109.29
  A 1.09 1.08 -41.2 0 1 585.26 110.76
  L 565.83 129.04
  Q 565.42 129.43 565.45 129.99
  L 567.79 174.89
  A 0.31 0.31 0.0 0 1 567.18 175.00
  L 553.70 129.53
  Q 553.57 129.06 553.11 128.89
  L 524.76 118.19
  A 1.43 1.42 11.9 0 1 523.84 116.79
  Q 525.26 85.16 526.51 53.75
  Q 526.79 46.82 527.71 37.89
  Z"
/>
<path fill="#62abb1" d="
  M 491.04 87.05
  C 491.33 84.26 491.47 82.29 493.29 79.95
  Q 509.14 59.53 525.17 39.31
  A 0.30 0.30 0.0 0 1 525.70 39.51
  L 521.98 116.40
  A 2.73 2.72 75.3 0 1 520.70 118.60
  L 485.84 140.67
  A 0.53 0.53 0.0 0 1 485.03 140.17
  Q 486.04 131.14 486.55 121.75
  C 486.71 118.89 487.84 114.85 488.12 111.38
  C 488.78 103.19 490.20 95.21 491.04 87.05
  Z"
/>
<path fill="#62abb1" d="
  M 318.58 97.61
  L 320.08 94.32
  L 333.82 63.54
  Q 334.60 61.79 335.76 63.32
  L 388.06 132.68
  Q 388.37 133.10 388.11 133.54
  Q 375.75 154.28 362.83 174.87
  Q 360.71 178.25 358.33 181.50
  Q 358.01 181.94 358.34 182.38
  L 386.70 219.44
  A 0.13 0.13 0.0 0 1 386.51 219.62
  L 352.70 192.50
  Q 352.34 192.21 351.94 192.43
  L 322.52 208.51
  A 0.79 0.79 0.0 0 1 321.35 207.84
  Q 321.07 196.77 320.64 185.51
  Q 319.49 155.66 319.10 125.79
  Q 319.06 122.93 318.65 111.71
  Q 318.40 104.62 318.58 97.61
  Z"
/>
<path fill="#4ab8c1" d="
  M 445.99 108.77
  L 431.16 113.80
  A 0.36 0.36 0.0 0 0 430.93 114.24
  L 438.37 141.66
  A 0.36 0.36 0.0 0 1 437.74 141.98
  L 419.70 119.48
  A 0.36 0.36 0.0 0 0 419.28 119.38
  L 390.40 131.98
  A 0.36 0.36 0.0 0 1 389.97 131.87
  L 337.33 63.19
  A 0.36 0.36 0.0 0 1 337.76 62.63
  L 446.01 108.10
  A 0.36 0.36 0.0 0 1 445.99 108.77
  Z"
/>
<path fill="#c1fbff" d="
  M 663.74 106.25
  L 679.26 105.85
  A 0.31 0.31 0.0 0 1 679.50 106.36
  L 668.39 118.79
  A 0.31 0.31 0.0 0 1 667.87 118.69
  L 663.46 106.67
  A 0.31 0.31 0.0 0 1 663.74 106.25
  Z"
/>
<path fill="#4ab8c1" d="
  M 666.67 195.34
  Q 667.77 157.20 668.69 124.75
  C 668.74 122.79 668.67 121.54 669.99 119.97
  Q 675.76 113.14 681.64 106.57
  A 0.42 0.42 0.0 0 1 682.36 106.73
  L 701.32 169.00
  A 1.99 1.98 63.5 0 1 700.60 171.18
  L 667.21 195.62
  Q 666.65 196.03 666.67 195.34
  Z"
/>
<path fill="#62abb1" d="
  M 627.03 152.29
  Q 633.66 144.78 639.05 136.46
  L 661.31 107.49
  A 0.39 0.39 0.0 0 1 662.00 107.61
  Q 663.69 113.17 666.12 118.73
  C 667.56 122.05 666.74 127.00 666.66 130.11
  Q 665.80 162.43 664.73 194.68
  A 0.29 0.28 25.7 0 1 664.23 194.85
  L 627.03 152.29
  Z"
/>
<path fill="#3c8393" d="
  M 441.63 147.68
  L 433.08 115.92
  Q 432.90 115.25 433.54 115.00
  L 447.13 109.66
  A 1.51 1.50 65.8 0 1 449.02 110.38
  L 480.72 171.71
  Q 481.32 172.88 480.02 173.06
  L 424.83 180.60
  A 4.37 4.35 -20.5 0 1 420.58 178.67
  L 391.29 134.14
  A 0.68 0.67 -28.3 0 1 391.59 133.15
  L 418.34 121.69
  A 1.04 1.03 58.5 0 1 419.56 121.99
  L 440.60 148.20
  Q 442.36 150.38 441.63 147.68
  Z"
/>
<path fill="#3c8393" d="
  M 569.98 187.63
  C 570.29 183.33 569.38 177.83 569.29 174.78
  Q 568.61 152.88 567.22 131.00
  C 567.14 129.62 568.87 128.40 569.74 127.57
  Q 577.71 119.92 585.90 112.35
  A 0.38 0.38 0.0 0 1 586.53 112.57
  Q 597.60 181.83 608.64 251.24
  Q 609.99 259.68 610.66 268.22
  Q 610.70 268.75 610.18 268.84
  Q 597.25 271.10 585.83 277.56
  Q 585.30 277.86 584.95 277.37
  Q 561.73 244.98 529.82 199.45
  Q 528.31 197.29 528.17 195.00
  Q 525.96 157.64 523.82 120.35
  Q 523.78 119.58 524.50 119.85
  L 551.58 129.83
  Q 552.10 130.02 552.25 130.55
  Q 559.53 155.52 567.03 180.37
  C 567.63 182.36 568.17 185.33 569.41 187.75
  Q 569.90 188.71 569.98 187.63
  Z"
/>
<path fill="#e2c99a" d="
  M 842.00 133.80
  L 842.00 250.40
  Q 830.82 257.38 819.42 266.92
  C 808.57 275.99 801.23 286.01 798.58 300.00
  C 794.93 319.25 795.20 335.51 794.92 358.90
  Q 794.91 359.66 794.46 359.05
  C 792.14 355.90 789.80 352.12 787.14 349.71
  Q 777.79 341.26 765.05 341.33
  C 758.55 341.37 754.18 341.23 750.25 346.08
  Q 749.93 346.48 749.48 346.23
  C 737.54 339.37 725.05 330.79 711.74 327.78
  C 697.97 324.67 683.07 329.27 671.46 336.96
  C 663.13 342.46 659.24 349.80 657.02 359.96
  Q 654.74 370.38 654.34 381.28
  Q 654.31 381.95 653.73 381.62
  Q 641.34 374.62 627.48 371.40
  C 606.98 366.64 593.67 386.88 592.43 405.00
  L 354.69 405.00
  Q 363.35 397.30 371.49 394.79
  C 384.81 390.69 394.39 395.88 405.90 401.44
  A 1.54 1.54 0.0 0 0 407.89 400.84
  C 415.13 388.63 422.43 375.11 433.26 365.43
  C 444.33 355.53 456.75 350.19 471.51 349.36
  C 494.24 348.09 516.26 352.22 538.55 355.08
  A 0.67 0.67 0.0 0 0 539.27 354.64
  C 544.86 338.97 549.66 323.20 558.01 308.34
  Q 574.23 279.52 604.98 271.76
  Q 624.25 266.90 646.71 269.45
  Q 649.65 270.78 655.46 272.36
  C 667.14 275.52 669.57 284.03 672.65 294.77
  Q 672.88 295.58 673.13 294.78
  C 675.39 287.84 676.51 281.98 682.59 277.25
  Q 684.06 278.10 685.51 278.08
  Q 686.05 278.08 686.25 277.58
  Q 686.70 276.47 686.41 274.89
  L 700.44 270.12
  A 0.39 0.39 0.0 0 0 700.35 269.37
  Q 693.13 268.66 686.22 266.17
  Q 685.19 241.99 690.02 218.77
  C 694.18 198.76 699.50 178.70 708.29 160.56
  Q 712.40 152.07 719.03 144.72
  C 737.91 123.78 771.08 117.53 797.75 118.25
  C 815.07 118.71 826.75 124.38 842.00 133.80
  Z"
/>
<path fill="#286b7a" d="
  M 521.20 120.64
  Q 521.38 120.58 521.56 120.67
  Q 521.70 120.73 521.78 120.92
  Q 522.34 122.35 522.46 124.51
  Q 523.54 144.72 526.58 193.34
  A 0.56 0.56 0.0 0 1 525.72 193.84
  Q 525.13 193.45 524.93 192.76
  Q 524.81 192.36 524.56 192.01
  L 509.72 171.04
  A 3.85 3.84 68.0 0 0 506.02 169.47
  L 492.61 171.50
  A 1.23 1.22 -12.6 0 1 491.24 170.63
  L 483.94 145.71
  A 2.43 2.42 65.4 0 1 484.95 142.99
  Q 502.78 131.38 519.87 121.12
  Q 520.21 120.92 520.47 120.87
  Q 520.54 120.85 521.20 120.64
  Z"
/>
<path fill="#286b7a" d="
  M 520.27 350.09
  L 518.72 350.32
  C 512.57 349.81 506.61 348.65 500.32 348.24
  C 496.57 348.00 492.71 347.37 489.22 347.27
  Q 477.49 346.94 465.97 347.95
  Q 465.41 348.00 465.01 347.61
  Q 437.56 321.32 409.91 295.18
  Q 407.97 293.35 402.32 287.63
  C 397.86 283.11 393.05 279.16 388.55 274.61
  C 383.86 269.87 378.76 265.63 374.10 260.90
  Q 370.82 257.58 365.75 252.72
  Q 345.05 232.92 324.38 213.11
  Q 323.20 211.99 322.48 210.97
  A 0.97 0.96 -31.3 0 1 322.83 209.56
  L 351.49 194.94
  A 1.91 1.91 0.0 0 1 353.57 195.16
  L 393.38 227.64
  A 0.69 0.69 0.0 0 0 394.37 226.68
  L 363.45 186.28
  Q 363.12 185.85 363.54 185.51
  Q 363.84 185.27 364.05 185.40
  Q 371.35 186.93 375.92 189.57
  C 383.54 193.97 385.19 202.26 387.37 210.24
  Q 387.60 211.09 387.85 210.24
  Q 388.52 208.03 389.50 204.24
  C 392.93 190.99 402.42 189.18 413.50 184.97
  Q 414.18 184.71 413.46 184.55
  C 406.35 183.02 398.99 182.42 394.17 176.26
  C 391.68 173.08 390.74 168.27 389.83 164.15
  A 0.83 0.82 56.3 0 0 388.35 163.85
  Q 388.11 164.19 387.77 164.74
  Q 387.50 165.17 387.42 165.70
  C 385.50 179.15 374.86 182.42 362.70 184.30
  C 360.72 183.67 359.88 182.48 361.09 180.50
  Q 373.75 159.70 388.57 136.19
  Q 389.65 134.47 390.76 136.17
  Q 405.24 158.32 420.62 181.29
  C 421.46 182.56 421.17 184.37 421.04 185.93
  Q 419.21 208.18 417.79 230.45
  C 417.18 239.91 416.14 250.19 415.45 260.09
  C 415.25 262.96 414.39 268.73 414.39 273.10
  Q 414.39 273.63 414.82 273.94
  Q 467.38 311.37 519.70 349.11
  Q 520.24 349.50 520.27 350.09
  Z"
/>
<path fill="#286b7a" d="
  M 622.16 168.82
  C 623.38 164.42 624.27 159.46 625.42 154.81
  A 0.81 0.80 31.5 0 1 626.81 154.48
  L 664.06 197.58
  Q 664.66 198.28 664.45 199.18
  L 648.08 267.05
  Q 647.90 267.80 647.14 267.71
  Q 630.54 265.82 613.98 268.17
  A 1.08 1.07 -8.4 0 1 612.76 267.27
  L 606.90 229.36
  Q 606.82 228.89 606.97 228.43
  Q 607.77 225.86 609.74 218.27
  C 614.60 199.56 617.64 185.18 622.16 168.82
  Z"
/>
<path fill="#ffffff" d="
  M 364.05 185.40
  Q 361.90 184.79 362.70 184.30
  C 374.86 182.42 385.50 179.15 387.42 165.70
  Q 387.50 165.17 387.77 164.74
  Q 388.11 164.19 388.35 163.85
  A 0.83 0.82 56.3 0 1 389.83 164.15
  C 390.74 168.27 391.68 173.08 394.17 176.26
  C 398.99 182.42 406.35 183.02 413.46 184.55
  Q 414.18 184.71 413.50 184.97
  C 402.42 189.18 392.93 190.99 389.50 204.24
  Q 388.52 208.03 387.85 210.24
  Q 387.60 211.09 387.37 210.24
  C 385.19 202.26 383.54 193.97 375.92 189.57
  Q 371.35 186.93 364.05 185.40
  Z"
/>
<path fill="#4ab8c1" d="
  M 450.04 228.23
  Q 448.22 228.19 447.55 226.95
  Q 435.58 204.96 423.77 183.12
  A 0.53 0.53 0.0 0 1 424.17 182.34
  L 504.93 171.55
  A 0.29 0.29 0.0 0 1 505.24 171.93
  L 484.01 233.26
  A 0.52 0.51 -76.4 0 1 483.45 233.61
  Q 468.04 231.42 452.69 228.39
  Q 452.15 228.28 450.04 228.23
  Z"
/>
<path fill="#4997a8" d="
  M 485.50 234.09
  L 506.97 172.47
  Q 507.20 171.81 507.61 172.38
  Q 521.86 192.26 536.38 211.89
  C 552.51 233.69 567.83 256.14 583.33 278.40
  Q 583.58 278.77 583.20 279.02
  C 571.10 286.71 562.69 296.99 555.43 309.31
  Q 555.09 309.87 554.64 309.39
  L 485.72 235.13
  A 1.03 1.01 33.7 0 1 485.50 234.09
  Z"
/>
<path fill="#3c8393" d="
  M 675.25 249.50
  L 674.92 249.20
  A 0.96 0.96 0.0 0 0 673.37 249.66
  C 672.20 253.61 670.94 257.90 668.28 260.92
  C 664.05 265.73 657.09 267.56 650.56 268.60
  Q 649.88 267.53 650.00 267.01
  Q 661.88 216.24 666.06 199.53
  Q 666.41 198.13 668.18 196.92
  Q 684.04 186.02 699.42 174.71
  Q 699.93 174.33 699.75 174.94
  Q 688.50 211.68 676.26 248.32
  Q 676.00 249.08 675.25 249.50
  Z"
/>
<path fill="#62abb1" d="
  M 424.08 187.21
  L 446.81 229.11
  A 0.34 0.34 0.0 0 1 446.78 229.49
  L 416.85 267.64
  A 0.34 0.34 0.0 0 1 416.24 267.40
  L 423.44 187.34
  A 0.34 0.34 0.0 0 1 424.08 187.21
  Z"
/>
<path fill="#4ab8c1" d="
  M 238.27 261.11
  L 222.35 253.79
  A 1.82 1.82 0.0 0 1 221.30 252.14
  L 221.48 203.26
  Q 221.48 202.73 221.80 203.16
  L 255.46 248.48
  A 0.71 0.71 0.0 0 1 255.42 249.37
  L 244.83 261.19
  Q 244.50 261.56 244.53 262.07
  L 246.70 289.96
  Q 246.80 291.25 246.46 290.01
  L 238.69 261.61
  Q 238.60 261.26 238.27 261.11
  Z"
/>
<path fill="#62abb1" d="
  M 218.99 204.09
  Q 219.57 203.27 219.56 204.27
  L 219.40 251.53
  Q 219.40 253.04 218.19 253.96
  L 199.56 268.06
  Q 199.00 268.48 199.05 267.78
  Q 200.44 248.92 202.12 230.23
  Q 202.31 228.21 203.45 226.54
  Q 211.06 215.44 218.99 204.09
  Z"
/>
<path fill="#f0e1c1" d="
  M 609.34 213.45
  L 606.93 223.46
  A 0.51 0.51 0.0 0 1 605.93 223.42
  L 604.29 213.26
  A 0.51 0.51 0.0 0 1 604.82 212.67
  L 608.86 212.82
  A 0.51 0.51 0.0 0 1 609.34 213.45
  Z"
/>
<path fill="#62abb1" d="
  M 141.50 260.42
  A 0.88 0.88 0.0 0 1 141.57 261.30
  L 126.22 293.27
  A 1.86 1.85 42.3 0 0 126.31 295.03
  L 141.54 319.91
  A 0.34 0.34 0.0 0 1 141.01 320.33
  L 121.83 302.17
  Q 121.47 301.83 121.04 302.10
  L 105.33 312.07
  A 0.91 0.91 0.0 0 1 103.93 311.29
  C 104.02 301.06 103.10 289.14 102.73 281.15
  Q 101.79 260.76 100.87 240.37
  Q 100.76 237.86 101.67 235.49
  Q 105.66 225.04 109.33 214.79
  A 0.40 0.40 0.0 0 1 110.03 214.70
  L 141.50 260.42
  Z"
/>
<path fill="#4ab8c1" d="
  M 166.86 250.22
  L 170.87 265.69
  A 0.27 0.27 0.0 0 1 170.39 265.91
  L 161.62 253.33
  Q 161.31 252.89 160.81 253.09
  L 144.36 259.69
  A 0.72 0.71 -28.1 0 1 143.51 259.44
  L 113.43 216.44
  Q 112.90 215.69 113.73 216.09
  L 174.77 245.77
  Q 175.69 246.22 174.74 246.58
  L 167.24 249.48
  Q 166.72 249.68 166.86 250.22
  Z"
/>
<path fill="#f0e1c1" d="
  M 684.28 265.04
  Q 677.94 261.59 676.57 254.21
  L 688.43 216.64
  Q 688.55 216.24 688.62 216.66
  Q 688.70 217.16 688.44 217.77
  Q 688.16 218.45 688.09 218.80
  Q 683.36 241.59 684.28 265.04
  Z"
/>
<path fill="#3c8393" d="
  M 540.97 344.75
  Q 539.62 347.29 537.84 352.09
  Q 537.62 352.68 536.97 352.63
  L 526.54 351.68
  Q 526.43 351.68 526.51 351.60
  L 526.70 351.38
  A 0.03 0.02 20.8 0 0 526.68 351.34
  Q 525.81 351.34 525.53 351.14
  Q 490.16 325.82 454.63 300.72
  Q 435.46 287.17 416.59 273.21
  Q 416.19 272.92 416.15 272.43
  Q 415.98 270.37 417.76 269.41
  A 1.63 1.60 -0.9 0 0 418.44 268.72
  Q 420.02 265.69 422.19 263.14
  Q 425.42 259.35 425.47 259.28
  Q 436.63 244.94 448.03 230.78
  Q 448.35 230.38 448.87 230.35
  Q 450.62 230.28 452.36 230.44
  Q 453.28 230.53 455.48 231.39
  C 458.51 232.58 463.30 232.08 466.38 232.48
  Q 466.79 232.53 466.96 232.91
  Q 467.10 233.23 467.50 233.24
  Q 472.82 233.32 477.95 234.58
  C 479.91 235.06 483.56 234.86 485.18 236.57
  Q 501.20 253.54 553.80 311.21
  Q 554.13 311.57 553.92 312.01
  Q 546.20 327.87 540.97 344.75
  Z"
/>
<path fill="#3c8393" d="
  M 175.22 274.44
  L 169.42 251.55
  A 0.92 0.91 -18.8 0 1 169.95 250.49
  L 176.13 247.83
  A 1.09 1.08 -23.9 0 1 177.54 248.37
  L 196.74 289.68
  A 0.53 0.53 0.0 0 1 196.33 290.43
  L 164.65 294.96
  A 0.70 0.68 -18.7 0 1 163.96 294.63
  L 145.16 262.13
  A 0.66 0.66 0.0 0 1 145.49 261.18
  L 159.37 255.67
  Q 160.66 255.16 161.46 256.29
  L 174.62 274.72
  Q 175.65 276.15 175.22 274.44
  Z"
/>
<path fill="#c1fbff" d="
  M 302.05 248.00
  A 0.21 0.21 0.0 0 1 302.26 247.74
  L 308.66 247.76
  Q 309.34 247.76 308.94 248.32
  L 304.21 254.79
  Q 303.92 255.19 303.80 254.71
  L 302.05 248.00
  Z"
/>
<path fill="#62abb1" d="
  M 281.23 277.52
  L 299.77 248.47
  A 0.28 0.28 0.0 0 1 300.27 248.53
  C 302.00 253.88 302.72 258.57 302.74 264.58
  Q 302.80 285.38 302.93 306.17
  Q 302.93 307.07 302.39 306.36
  L 281.26 278.30
  A 0.68 0.68 0.0 0 1 281.23 277.52
  Z"
/>
<path fill="#4ab8c1" d="
  M 311.49 248.92
  L 323.26 290.27
  A 1.53 1.52 -28.7 0 1 322.80 291.84
  L 305.24 307.23
  Q 304.73 307.67 304.73 306.99
  Q 304.78 283.68 304.53 260.45
  C 304.49 256.29 308.38 251.78 310.98 248.81
  Q 311.34 248.39 311.49 248.92
  Z"
/>
<path fill="#ffffff" d="
  M 675.25 249.50
  L 676.57 254.21
  Q 677.94 261.59 684.28 265.04
  Q 684.96 265.74 686.22 266.17
  Q 693.13 268.66 700.35 269.37
  A 0.39 0.39 0.0 0 1 700.44 270.12
  L 686.41 274.89
  L 682.59 277.25
  C 676.51 281.98 675.39 287.84 673.13 294.78
  Q 672.88 295.58 672.65 294.77
  C 669.57 284.03 667.14 275.52 655.46 272.36
  Q 649.65 270.78 646.71 269.45
  L 650.56 268.60
  C 657.09 267.56 664.05 265.73 668.28 260.92
  C 670.94 257.90 672.20 253.61 673.37 249.66
  A 0.96 0.96 0.0 0 1 674.92 249.20
  L 675.25 249.50
  Z"
/>
<path fill="#f0e1c1" d="
  M 290.44 249.97
  L 294.43 250.03
  A 1.07 1.06 -73.3 0 1 295.31 251.67
  Q 287.96 263.33 280.28 275.20
  Q 278.91 277.33 278.47 279.83
  Q 276.35 291.90 273.99 303.97
  Q 273.89 304.49 273.39 304.68
  L 267.26 307.00
  Q 266.79 307.18 266.71 306.68
  Q 262.61 279.83 258.55 253.01
  Q 258.46 252.42 258.86 252.09
  Q 274.42 249.03 290.44 249.97
  Z"
/>
<path fill="#6d5643" d="
  M 842.00 250.40
  L 842.00 252.32
  C 830.51 260.68 819.37 267.60 809.55 279.23
  C 800.92 289.46 798.87 304.73 798.01 318.00
  Q 796.59 340.11 796.74 362.05
  A 1.07 1.07 0.0 0 1 794.77 362.64
  C 791.85 358.18 788.48 353.01 784.73 349.73
  C 777.33 343.26 767.76 342.43 758.50 343.27
  Q 753.75 343.70 751.32 347.56
  A 1.42 1.42 0.0 0 1 749.38 348.01
  C 734.94 339.12 715.94 326.04 697.99 328.47
  Q 685.64 330.14 674.56 337.01
  C 664.10 343.49 659.98 351.55 658.16 363.53
  Q 656.70 373.17 655.99 383.02
  A 1.36 1.36 0.0 0 1 653.91 384.07
  Q 642.22 376.84 628.70 373.60
  Q 622.40 372.09 618.23 372.73
  C 607.07 374.44 598.98 385.45 596.10 395.78
  Q 594.85 400.31 594.05 405.00
  L 592.43 405.00
  C 593.67 386.88 606.98 366.64 627.48 371.40
  Q 641.34 374.62 653.73 381.62
  Q 654.31 381.95 654.34 381.28
  Q 654.74 370.38 657.02 359.96
  C 659.24 349.80 663.13 342.46 671.46 336.96
  C 683.07 329.27 697.97 324.67 711.74 327.78
  C 725.05 330.79 737.54 339.37 749.48 346.23
  Q 749.93 346.48 750.25 346.08
  C 754.18 341.23 758.55 341.37 765.05 341.33
  Q 777.79 341.26 787.14 349.71
  C 789.80 352.12 792.14 355.90 794.46 359.05
  Q 794.91 359.66 794.92 358.90
  C 795.20 335.51 794.93 319.25 798.58 300.00
  C 801.23 286.01 808.57 275.99 819.42 266.92
  Q 830.82 257.38 842.00 250.40
  Z"
/>
<path fill="#3c8393" d="
  M 249.05 302.89
  Q 249.22 301.22 249.05 298.50
  Q 247.90 280.81 246.56 263.68
  A 3.02 3.00 -26.7 0 1 247.31 261.45
  L 255.82 251.81
  A 0.37 0.37 0.0 0 1 256.46 252.00
  Q 265.17 307.60 273.29 363.24
  Q 273.47 364.48 272.59 366.31
  Q 270.17 371.36 267.45 376.26
  Q 267.16 376.78 266.85 376.27
  Q 246.81 343.85 226.87 311.43
  Q 225.70 309.53 225.53 307.32
  Q 223.50 281.55 221.42 255.97
  Q 221.37 255.34 221.94 255.61
  L 236.13 262.23
  A 2.37 2.35 -85.4 0 1 237.41 263.75
  Q 242.09 280.92 246.92 298.49
  C 247.34 300.04 247.95 301.38 248.65 302.95
  Q 248.97 303.65 249.05 302.89
  Z"
/>
<path fill="#d6a163" d="
  M 842.00 252.32
  L 842.00 405.00
  L 594.05 405.00
  Q 594.85 400.31 596.10 395.78
  C 598.98 385.45 607.07 374.44 618.23 372.73
  Q 622.40 372.09 628.70 373.60
  Q 642.22 376.84 653.91 384.07
  A 1.36 1.36 0.0 0 0 655.99 383.02
  Q 656.70 373.17 658.16 363.53
  C 659.98 351.55 664.10 343.49 674.56 337.01
  Q 685.64 330.14 697.99 328.47
  C 715.94 326.04 734.94 339.12 749.38 348.01
  A 1.42 1.42 0.0 0 0 751.32 347.56
  Q 753.75 343.70 758.50 343.27
  C 767.76 342.43 777.33 343.26 784.73 349.73
  C 788.48 353.01 791.85 358.18 794.77 362.64
  A 1.07 1.07 0.0 0 0 796.74 362.05
  Q 796.59 340.11 798.01 318.00
  C 798.87 304.73 800.92 289.46 809.55 279.23
  C 819.37 267.60 830.51 260.68 842.00 252.32
  Z"
/>
<path fill="#f0e1c1" d="
  M 351.38 287.01
  Q 338.90 287.84 326.39 287.90
  Q 325.97 287.90 325.65 288.17
  L 325.40 288.38
  Q 324.83 288.87 324.62 288.14
  L 314.99 254.50
  Q 314.83 253.96 315.37 254.13
  C 333.23 259.51 348.84 272.24 359.55 287.38
  Q 359.89 287.86 359.30 287.84
  Q 357.27 287.78 355.31 287.38
  Q 353.00 286.90 351.38 287.01
  Z"
/>
<path fill="#286b7a" d="
  M 212.18 288.08
  L 204.45 289.25
  Q 203.88 289.33 203.73 288.78
  L 199.02 271.51
  A 0.86 0.85 63.9 0 1 199.33 270.59
  L 218.94 255.95
  A 0.42 0.42 0.0 0 1 219.61 256.25
  L 223.36 303.53
  A 0.71 0.71 0.0 0 1 222.05 303.95
  L 212.73 288.34
  Q 212.54 288.03 212.18 288.08
  Z"
/>
<path fill="#286b7a" d="
  M 210.94 405.00
  L 185.68 405.00
  Q 178.00 395.81 170.07 387.32
  Q 169.90 387.14 168.00 384.63
  C 166.99 383.30 165.66 382.56 164.69 381.46
  Q 160.86 377.11 157.00 372.80
  Q 156.63 372.39 156.54 371.85
  Q 156.31 370.43 154.90 370.05
  Q 154.32 369.90 153.91 369.45
  L 105.45 316.04
  A 1.28 1.28 0.0 0 1 105.69 314.11
  L 119.69 304.84
  A 1.83 1.82 -40.0 0 1 121.95 305.03
  L 147.64 329.17
  A 0.44 0.44 0.0 0 0 148.38 328.83
  Q 148.37 328.66 148.38 328.51
  Q 148.38 328.40 148.33 328.31
  L 128.27 294.14
  A 1.09 1.07 -47.6 0 1 128.23 293.11
  L 142.98 263.98
  A 0.63 0.63 0.0 0 1 144.09 263.95
  Q 152.27 278.42 160.79 292.98
  Q 162.77 296.38 162.55 299.26
  Q 160.39 326.49 158.70 353.75
  Q 158.64 354.62 158.06 357.33
  Q 157.89 358.16 158.09 358.60
  Q 158.40 359.30 159.23 359.28
  Q 159.69 359.27 160.05 359.57
  Q 185.25 381.03 210.47 402.46
  Q 211.13 403.02 211.17 403.59
  Q 211.22 404.21 210.94 405.00
  Z"
/>
<path fill="#6d5643" d="
  M 686.41 274.89
  Q 686.70 276.47 686.25 277.58
  Q 686.05 278.08 685.51 278.08
  Q 684.06 278.10 682.59 277.25
  L 686.41 274.89
  Z"
/>
<path fill="#286b7a" d="
  M 281.09 280.99
  L 302.66 309.80
  A 0.73 0.73 0.0 0 1 302.80 310.38
  L 299.09 331.90
  A 1.30 1.26 -15.3 0 1 298.62 332.69
  Q 283.90 344.18 275.30 360.74
  A 0.37 0.37 0.0 0 1 274.60 360.61
  Q 273.17 347.82 271.02 335.38
  Q 270.54 332.58 271.06 329.85
  Q 275.71 305.26 280.23 281.19
  Q 280.43 280.11 281.09 280.99
  Z"
/>
<path fill="#f0e1c1" d="
  M 201.47 289.58
  L 199.09 290.15
  A 0.44 0.44 0.0 0 1 198.64 289.45
  L 200.39 287.19
  A 0.44 0.44 0.0 0 1 201.15 287.30
  L 201.78 289.00
  A 0.44 0.44 0.0 0 1 201.47 289.58
  Z"
/>
<path fill="#c1fbff" d="
  M 353.65 297.42
  L 383.23 303.46
  Q 383.38 303.49 383.38 303.50
  Q 383.38 303.56 383.38 303.63
  Q 383.38 303.76 383.24 303.74
  L 349.29 300.41
  Q 348.72 300.35 348.26 300.71
  L 343.59 304.35
  A 1.30 1.26 -61.4 0 1 342.69 304.63
  L 319.06 302.71
  Q 318.38 302.66 318.76 302.09
  L 326.18 290.92
  A 2.33 2.30 15.5 0 1 328.01 289.90
  L 349.82 289.04
  Q 351.44 288.98 351.77 290.57
  L 353.05 296.82
  Q 353.16 297.32 353.65 297.42
  Z"
/>
<path fill="#4ab8c1" d="
  M 404.72 306.65
  Q 403.28 305.93 401.47 305.55
  Q 378.51 300.79 355.63 296.02
  A 1.49 1.48 -89.8 0 1 354.48 294.85
  L 353.50 289.78
  A 0.43 0.43 0.0 0 1 353.96 289.27
  L 405.34 293.32
  A 2.39 2.37 69.6 0 1 406.83 294.01
  L 421.46 308.56
  Q 421.86 308.96 421.78 309.52
  L 417.88 334.09
  A 0.43 0.42 -74.2 0 1 417.30 334.42
  L 346.20 305.61
  A 0.57 0.57 0.0 0 1 345.99 304.69
  C 347.41 303.13 349.01 302.07 351.31 302.32
  Q 377.88 305.21 404.48 307.52
  A 0.46 0.46 0.0 0 0 404.72 306.65
  Z"
/>
<path fill="#4ab8c1" d="
  M 165.19 296.65
  L 210.26 290.22
  Q 210.90 290.13 210.73 290.75
  L 200.11 331.18
  Q 199.99 331.66 199.51 331.55
  L 180.52 327.39
  A 1.11 1.10 -7.6 0 1 179.77 326.82
  L 164.56 297.88
  A 0.85 0.84 -18.0 0 1 165.19 296.65
  Z"
/>
<path fill="#4997a8" d="
  M 265.03 377.77
  L 240.88 382.31
  A 0.34 0.34 0.0 0 1 240.55 382.19
  L 201.75 333.01
  A 0.34 0.34 0.0 0 1 201.69 332.72
  L 212.25 292.39
  A 0.34 0.34 0.0 0 1 212.87 292.30
  L 265.26 377.26
  A 0.34 0.34 0.0 0 1 265.03 377.77
  Z"
/>
<path fill="#3c8393" d="
  M 315.83 304.32
  L 319.21 307.33
  A 0.99 0.97 -62.2 0 1 319.50 308.29
  L 316.62 319.95
  A 1.46 1.44 80.9 0 1 316.00 320.82
  L 301.38 330.29
  A 0.12 0.12 0.0 0 1 301.20 330.17
  L 304.47 311.31
  A 2.68 2.67 -15.6 0 1 305.36 309.73
  L 317.80 298.88
  Q 318.22 298.52 318.36 299.05
  Q 318.46 299.41 318.34 299.80
  C 318.01 300.87 316.14 302.10 315.62 303.49
  Q 315.44 303.98 315.83 304.32
  Z"
/>
<path fill="#62abb1" d="
  M 160.50 352.91
  L 163.96 301.57
  Q 164.02 300.66 164.44 301.46
  L 178.22 327.87
  A 1.21 1.20 -41.2 0 1 178.13 329.14
  L 160.94 353.06
  Q 160.44 353.75 160.50 352.91
  Z"
/>
<path fill="#62abb1" d="
  M 321.76 304.91
  Q 331.65 305.42 341.51 306.49
  Q 345.20 306.88 348.79 308.34
  Q 382.52 322.07 415.95 335.66
  A 0.60 0.59 35.0 0 1 416.13 336.65
  L 385.22 364.44
  Q 384.75 364.85 384.29 364.43
  L 319.01 304.80
  Q 318.38 304.21 319.23 304.35
  C 320.09 304.49 320.93 304.87 321.76 304.91
  Z"
/>
<path fill="#e2c99a" d="
  M 273.44 307.06
  L 269.79 326.51
  A 0.05 0.05 0.0 0 1 269.69 326.51
  L 267.19 309.55
  Q 267.13 309.11 267.55 308.94
  L 273.05 306.74
  Q 273.54 306.54 273.44 307.06
  Z"
/>
<path fill="#e2c99a" d="
  M 327.39 315.30
  L 319.11 319.32
  Q 318.63 319.55 318.76 319.03
  L 320.82 310.38
  Q 320.98 309.72 321.52 310.13
  L 327.45 314.69
  Q 327.91 315.04 327.39 315.30
  Z"
/>
<path fill="#3c8393" d="
  M 419.68 334.08
  L 423.26 310.44
  A 0.30 0.30 0.0 0 1 423.76 310.27
  L 462.61 347.80
  A 0.37 0.37 0.0 0 1 462.69 348.21
  Q 462.53 348.59 461.99 348.41
  Q 441.57 341.96 420.57 335.51
  A 1.31 1.29 -77.2 0 1 419.68 334.08
  Z"
/>
<path fill="#f0e1c1" d="
  M 351.67 405.00
  L 213.35 405.00
  C 227.30 385.41 245.31 382.88 267.34 379.43
  A 2.36 2.35 -82.0 0 0 269.13 378.08
  C 273.65 368.32 278.59 357.41 284.73 349.34
  C 295.67 334.96 312.43 324.01 328.78 316.79
  A 0.99 0.98 -35.5 0 1 329.84 316.96
  Q 355.50 340.31 381.34 363.79
  C 382.25 364.62 382.41 365.26 383.08 366.32
  Q 383.36 366.74 383.86 366.74
  L 428.50 366.61
  Q 429.27 366.61 428.74 367.17
  C 419.22 377.27 413.46 387.67 406.88 398.79
  A 0.96 0.95 28.4 0 1 405.62 399.16
  C 392.95 392.79 381.62 387.97 367.81 394.32
  Q 358.97 398.39 351.67 405.00
  Z"
/>
<path fill="#3c8393" d="
  M 200.38 334.19
  L 238.63 382.79
  Q 239.01 383.26 238.44 383.46
  Q 227.71 387.17 219.41 394.54
  C 217.30 396.42 215.13 399.21 213.01 401.59
  Q 212.62 402.04 212.16 401.65
  L 161.10 358.25
  Q 160.03 357.35 160.86 356.21
  L 179.80 330.10
  A 1.62 1.61 24.1 0 1 181.46 329.47
  L 199.05 333.35
  A 2.32 2.29 -12.4 0 1 200.38 334.19
  Z"
/>
<path fill="#286b7a" d="
  M 413.60 341.28
  C 416.16 339.31 417.27 335.98 421.73 337.56
  Q 423.12 338.04 423.23 338.08
  Q 440.65 343.29 457.15 348.75
  Q 458.70 349.26 457.13 349.70
  Q 443.29 353.61 432.49 363.68
  Q 431.88 364.24 431.23 364.51
  Q 430.19 364.95 429.75 364.94
  Q 409.12 364.80 388.44 365.05
  A 0.56 0.56 0.0 0 1 388.05 364.09
  Q 392.60 359.77 397.44 355.53
  C 402.07 351.48 407.87 345.67 413.60 341.28
  Z"
/>
<path fill="#f0e1c1" d="
  M 99.31 405.00
  L 12.86 405.00
  C 19.78 386.21 37.69 388.51 54.52 389.05
  A 1.66 1.64 -79.0 0 0 56.12 387.96
  C 59.62 378.39 62.12 368.92 69.72 361.07
  Q 91.22 338.86 123.14 338.67
  Q 123.68 338.67 124.04 339.07
  L 151.28 369.25
  Q 151.78 369.79 151.05 369.71
  Q 143.08 368.77 135.22 367.74
  C 127.31 366.70 119.11 367.34 111.00 366.91
  Q 110.49 366.88 110.27 367.34
  L 104.60 379.24
  A 0.78 0.77 36.2 0 0 104.74 380.11
  L 118.82 395.22
  Q 119.21 395.64 118.63 395.60
  Q 106.10 394.69 99.31 405.00
  Z"
/>
<path fill="#d6a163" d="
  M 540.97 344.75
  L 537.80 352.65
  Q 537.64 353.06 537.23 352.89
  Q 537.07 352.81 536.97 352.63
  Q 537.62 352.68 537.84 352.09
  Q 539.62 347.29 540.97 344.75
  Z"
/>
<path fill="#3c8393" d="
  M 520.27 350.09
  L 521.41 350.51
  Q 521.99 350.72 521.38 350.80
  Q 519.95 350.99 518.72 350.32
  L 520.27 350.09
  Z"
/>
<path fill="#4ab8c1" d="
  M 158.28 381.11
  C 156.68 380.53 155.47 379.68 153.87 379.28
  Q 141.14 376.14 128.47 372.67
  A 0.81 0.80 3.9 0 1 127.88 372.00
  L 127.49 369.25
  Q 127.40 368.65 128.00 368.72
  L 153.26 371.85
  Q 153.71 371.90 154.01 372.24
  L 165.27 384.72
  Q 165.59 385.07 165.54 385.54
  L 164.08 400.24
  Q 164.02 400.87 163.45 400.58
  L 123.39 380.20
  Q 122.74 379.86 123.22 379.31
  L 124.56 377.75
  Q 124.88 377.37 125.38 377.44
  Q 140.20 379.43 155.00 381.63
  Q 155.92 381.77 158.26 381.31
  Q 158.63 381.24 158.28 381.11
  Z"
/>
<path fill="#c1fbff" d="
  M 123.75 375.75
  L 120.68 379.51
  Q 120.33 379.94 119.78 379.86
  L 107.79 378.07
  Q 107.29 378.00 107.51 377.54
  L 111.37 369.39
  A 0.92 0.89 12.2 0 1 112.19 368.88
  L 124.78 369.02
  Q 125.28 369.03 125.37 369.52
  L 126.13 373.71
  Q 126.23 374.25 126.75 374.37
  L 139.27 377.44
  A 0.12 0.12 0.0 0 1 139.22 377.67
  L 124.38 375.50
  Q 124.00 375.45 123.75 375.75
  Z"
/>
<path fill="#62abb1" d="
  M 161.09 405.00
  L 130.39 405.00
  L 107.54 380.30
  A 0.22 0.22 0.0 0 1 107.73 379.93
  L 121.00 381.99
  A 1.37 1.37 0.0 0 0 121.79 381.89
  Q 122.04 381.79 122.31 381.75
  Q 122.47 381.74 122.64 381.82
  Q 142.51 392.09 162.49 402.17
  Q 162.97 402.41 162.65 402.85
  L 161.09 405.00
  Z"
/>
<path fill="#3c8393" d="
  M 183.54 405.00
  L 174.51 405.00
  L 166.88 402.03
  A 1.54 1.54 0.0 0 1 165.91 400.44
  L 167.25 387.75
  Q 167.32 387.10 167.76 387.59
  L 183.54 405.00
  Z"
/>
<path fill="#e2c99a" d="
  M 127.92 405.00
  L 101.54 405.00
  Q 108.98 395.47 120.85 397.92
  Q 121.37 398.03 121.73 398.41
  L 127.92 405.00
  Z"
/>
</svg>
