<?xml version="1.0" encoding="UTF-8" standalone="no"?>
<!DOCTYPE svg PUBLIC "-//W3C//DTD SVG 1.1//EN" "http://www.w3.org/Graphics/SVG/1.1/DTD/svg11.dtd">
<svg xmlns="http://www.w3.org/2000/svg" version="1.1" viewBox="0.00 0.00 439.00 345.00">
<g stroke-width="2.00" fill="none" stroke-linecap="butt">
<path stroke="#604f3f" vector-effect="non-scaling-stroke" d="
  M 341.49 126.52
  L 338.74 129.17"
/>
<path stroke="#516f6e" vector-effect="non-scaling-stroke" d="
  M 338.74 129.17
  L 321.38 143.69
  A 2.70 2.67 75.3 0 0 320.45 145.30
  L 313.41 185.68"
/>
<path stroke="#604f3f" vector-effect="non-scaling-stroke" d="
  M 313.41 185.68
  L 311.29 185.71"
/>
<path stroke="#476362" vector-effect="non-scaling-stroke" d="
  M 311.29 185.71
  C 311.67 185.45 311.96 185.17 312.04 184.68
  Q 315.25 164.91 318.78 144.94
  Q 318.92 144.17 318.45 143.55
  L 297.25 115.27
  A 0.59 0.59 0.0 0 0 296.20 115.51
  Q 291.37 139.80 287.00 164.46
  Q 286.51 167.19 287.03 170.01
  Q 288.96 180.48 290.18 191.21"
/>
<path stroke="#604f3f" vector-effect="non-scaling-stroke" d="
  M 290.18 191.21
  Q 289.89 192.01 288.59 192.06"
/>
<path stroke="#516f6e" vector-effect="non-scaling-stroke" d="
  M 288.59 192.06
  L 272.63 86.06
  A 0.48 0.48 0.0 0 0 271.79 85.81
  L 263.45 95.29
  A 3.35 3.30 -26.7 0 0 262.63 97.72
  L 265.23 135.48
  Q 265.43 138.27 264.03 135.70
  Q 263.89 135.42 263.34 133.47
  Q 258.28 115.37 253.10 97.25
  A 1.52 1.50 4.6 0 0 252.28 96.30
  L 237.97 89.63
  Q 237.42 89.38 237.46 89.99
  Q 239.45 115.80 241.52 141.52
  Q 241.70 143.74 242.86 145.63
  Q 259.80 173.04 276.82 200.76"
/>
<path stroke="#604f3f" vector-effect="non-scaling-stroke" d="
  M 276.82 200.76
  Q 276.02 200.32 275.54 201.92"
/>
<path stroke="#587979" vector-effect="non-scaling-stroke" d="
  M 275.54 201.92
  L 228.77 126.21
  Q 228.44 125.69 228.28 126.29
  L 217.94 165.78
  Q 217.64 166.94 218.39 167.88
  L 252.35 210.49"
/>
<path stroke="#604f3f" vector-effect="non-scaling-stroke" d="
  M 252.35 210.49
  Q 251.38 211.17 250.43 211.36"
/>
<path stroke="#516f6e" vector-effect="non-scaling-stroke" d="
  M 250.43 211.36
  L 215.80 167.85
  Q 215.45 167.41 214.90 167.29
  L 197.31 163.45
  A 1.49 1.47 -65.6 0 0 195.81 164.02
  L 176.77 190.26
  Q 175.97 191.36 177.01 192.25
  L 205.31 216.29
  Q 205.54 216.48 205.61 216.78
  Q 205.65 216.95 205.81 217.11"
/>
<path stroke="#b3ada4" vector-effect="non-scaling-stroke" d="
  M 205.81 217.11
  L 204.44 217.67"
/>
<path stroke="#476362" vector-effect="non-scaling-stroke" d="
  M 204.44 217.67
  Q 190.10 205.60 175.95 193.41
  Q 175.71 193.20 175.46 193.15
  Q 175.17 193.10 174.84 193.10
  Q 174.34 193.10 174.16 192.63
  C 173.53 190.97 174.51 189.52 174.60 188.11
  Q 176.40 160.67 178.21 133.24
  Q 178.30 131.95 178.45 130.65
  Q 178.51 130.10 178.23 129.63
  L 159.98 97.95
  A 0.56 0.55 -46.5 0 0 159.00 97.98
  L 144.35 126.93
  A 1.46 1.45 -46.9 0 0 144.39 128.34
  L 163.99 161.74
  A 0.66 0.66 0.0 0 1 162.97 162.55
  L 137.96 139.04
  A 1.84 1.84 0.0 0 0 135.69 138.85
  L 121.68 148.13
  Q 120.43 148.96 121.43 150.07
  L 169.98 203.70
  A 1.75 1.73 72.6 0 0 171.01 204.25
  Q 172.49 204.49 172.55 205.99
  A 0.90 0.86 24.5 0 0 172.77 206.54
  L 199.15 235.86
  Q 199.51 236.26 200.06 236.25
  L 212.60 236.08"
/>
<path stroke="#b3ada4" vector-effect="non-scaling-stroke" d="
  M 212.60 236.08
  L 213.40 238.55"
/>
<path stroke="#ac9e85" vector-effect="non-scaling-stroke" d="
  M 213.40 238.55
  L 199.47 238.37"
/>
<path stroke="#a59272" vector-effect="non-scaling-stroke" d="
  M 199.47 238.37
  L 195.83 238.91"
/>
<path stroke="#ac9e85" vector-effect="non-scaling-stroke" d="
  M 195.83 238.91
  Q 193.88 239.52 192.57 240.67"
/>
<path stroke="#604f3f" vector-effect="non-scaling-stroke" d="
  M 192.57 240.67
  Q 192.62 238.36 188.73 240.47"
/>
<path stroke="#476362" vector-effect="non-scaling-stroke" d="
  M 188.73 240.47
  Q 185.80 238.06 181.62 237.56
  A 1.88 1.85 26.0 0 0 180.11 238.07
  L 164.37 253.15
  A 0.53 0.53 0.0 0 0 164.72 254.06
  L 176.73 254.42"
/>
<path stroke="#604f3f" vector-effect="non-scaling-stroke" d="
  M 176.73 254.42
  Q 176.92 254.88 176.02 255.95"
/>
<path stroke="#604f3f" vector-effect="non-scaling-stroke" d="
  M 143.11 201.05
  Q 142.82 202.93 144.04 202.63"
/>
<path stroke="#588985" vector-effect="non-scaling-stroke" d="
  M 144.04 202.63
  Q 143.05 204.11 144.06 206.20
  Q 144.28 206.65 144.76 206.78
  Q 157.22 210.12 169.74 213.26
  Q 172.11 213.85 174.22 215.19
  Q 174.80 215.56 174.12 215.56
  Q 168.92 215.61 162.01 214.38
  Q 157.16 213.52 146.83 212.62
  C 144.16 212.39 141.39 209.98 139.15 213.39
  Q 138.81 213.91 139.36 214.19
  L 179.29 234.51
  Q 179.82 234.79 179.88 234.19
  L 181.35 219.35
  Q 181.40 218.83 181.05 218.44
  L 169.59 205.90"
/>
<path stroke="#604f3f" vector-effect="non-scaling-stroke" d="
  M 169.59 205.90
  Q 167.47 204.27 164.14 204.62
  Q 163.41 204.69 163.77 204.05
  L 164.07 203.51"
/>
<path stroke="#604f3f" vector-effect="non-scaling-stroke" d="
  M 118.38 147.80
  L 120.21 146.38"
/>
<path stroke="#64837d" vector-effect="non-scaling-stroke" d="
  M 120.21 146.38
  L 136.99 136.00
  Q 137.40 135.75 137.75 136.08
  L 157.62 154.90
  A 0.23 0.22 6.7 0 0 157.97 154.63
  L 142.16 128.78
  A 1.35 1.35 0.0 0 1 142.09 127.50
  L 157.22 96.06
  Q 157.79 94.87 157.04 93.79
  L 126.23 49.00
  A 0.52 0.49 38.6 0 0 125.34 49.07
  L 116.64 73.06"
/>
<path stroke="#604f3f" vector-effect="non-scaling-stroke" d="
  M 116.64 73.06
  Q 116.26 70.10 117.63 66.50
  Q 119.63 61.22 121.83 53.72"
/>
<path stroke="#415858" vector-effect="non-scaling-stroke" d="
  M 176.73 254.42
  C 180.10 248.60 182.94 244.32 188.73 240.47"
/>
<path stroke="#a5937b" vector-effect="non-scaling-stroke" d="
  M 192.57 240.67
  Q 191.41 241.59 189.36 241.82
  A 0.82 0.80 -89.5 0 0 188.65 242.53
  Q 188.52 243.64 187.45 243.83
  Q 186.94 243.92 186.58 244.29
  Q 183.48 247.50 181.05 251.20
  Q 180.02 252.77 177.39 258.66
  Q 175.69 262.46 173.42 266.02
  A 0.79 0.78 -67.0 0 1 172.59 266.36
  C 164.00 264.51 152.02 264.34 145.09 270.10
  Q 137.78 276.17 138.65 287.28
  C 139.30 295.61 148.82 298.80 156.02 297.44
  Q 166.69 295.42 177.06 292.15
  C 178.73 291.62 180.70 291.44 182.21 291.86
  Q 199.07 296.51 211.64 286.13
  C 215.45 282.98 218.98 277.86 222.09 273.61
  A 1.11 1.11 0.0 0 1 223.57 273.31
  Q 228.94 276.56 235.28 278.32
  C 243.67 280.66 246.31 274.01 249.04 268.06
  A 1.52 1.51 17.5 0 1 250.69 267.21
  C 259.04 268.73 269.72 270.53 275.57 262.41
  C 278.17 258.81 279.25 252.52 280.29 247.81
  A 0.90 0.89 38.5 0 1 281.97 247.62
  C 287.09 258.27 300.25 285.40 316.65 273.36
  C 319.33 271.39 320.95 270.36 322.97 268.66
  Q 323.36 268.33 323.88 268.28
  C 335.68 267.03 344.52 266.77 350.97 256.70
  Q 352.76 253.90 356.43 244.13
  Q 356.64 243.58 357.09 243.97
  Q 365.52 251.34 374.48 257.97
  C 384.65 265.50 401.06 268.70 409.63 256.91
  C 418.26 245.03 416.13 231.45 407.81 220.25
  Q 400.29 210.15 386.50 207.85
  C 377.62 206.37 367.69 205.54 359.41 209.49
  A 1.94 1.93 -37.2 0 1 357.32 209.21
  Q 350.75 203.55 344.07 198.20
  Q 328.20 185.51 307.75 187.89
  Q 303.01 188.44 292.01 192.60
  Q 290.76 193.08 289.50 194.13
  Q 288.35 195.10 287.08 195.91
  Q 277.03 202.30 269.00 211.06
  A 2.06 2.05 -66.5 0 1 267.35 211.71
  C 263.06 211.38 258.77 211.01 254.66 212.08
  Q 249.12 213.53 245.83 216.26
  Q 242.14 219.33 236.12 227.89
  Q 235.81 228.32 235.28 228.28
  L 225.34 227.51"
/>
<path stroke="#ada29a" vector-effect="non-scaling-stroke" d="
  M 225.34 227.51
  L 229.30 225.29"
/>
<path stroke="#4b6464" vector-effect="non-scaling-stroke" d="
  M 229.30 225.29
  Q 235.74 227.60 236.74 222.23"
/>
<path stroke="#ada29a" vector-effect="non-scaling-stroke" d="
  M 236.74 222.23
  Q 238.76 221.82 238.50 221.09"
/>
<path stroke="#4b6464" vector-effect="non-scaling-stroke" d="
  M 238.50 221.09
  Q 238.95 219.47 239.60 218.83
  Q 244.44 214.08 250.43 211.36"
/>
<path stroke="#4b6464" vector-effect="non-scaling-stroke" d="
  M 313.41 185.68
  L 325.18 186.51
  Q 325.41 186.53 325.30 186.32
  L 325.16 186.07
  Q 325.05 185.86 325.10 185.62
  L 338.74 129.17"
/>
<path stroke="#415858" vector-effect="non-scaling-stroke" d="
  M 311.29 185.71
  Q 300.54 186.32 290.18 191.21"
/>
<path stroke="#4b6464" vector-effect="non-scaling-stroke" d="
  M 288.59 192.06
  L 276.82 200.76"
/>
<path stroke="#94b5bd" vector-effect="non-scaling-stroke" d="
  M 204.44 217.67
  L 193.75 220.77
  A 0.33 0.33 0.0 0 0 193.76 221.40
  C 202.20 223.54 209.61 226.76 212.60 236.08"
/>
<path stroke="#5e7873" vector-effect="non-scaling-stroke" d="
  M 120.21 146.38
  L 116.64 73.06"
/>
<path stroke="#526e6f" vector-effect="non-scaling-stroke" d="
  M 275.54 201.92
  L 268.07 209.23
  A 2.10 2.09 27.9 0 1 266.24 209.79
  Q 259.03 208.55 252.35 210.49"
/>
<path stroke="#9ec1c9" vector-effect="non-scaling-stroke" d="
  M 238.50 221.09
  C 229.28 218.53 222.12 217.97 219.12 207.28
  Q 218.24 204.11 217.57 200.89
  Q 217.41 200.15 217.30 200.07
  Q 216.27 199.43 216.00 200.61
  C 214.44 207.40 212.92 213.50 205.81 217.11"
/>
<path stroke="#e9d5ae" vector-effect="non-scaling-stroke" d="
  M 195.83 238.91
  Q 198.72 239.90 199.47 238.37"
/>
<path stroke="#f8f0e0" vector-effect="non-scaling-stroke" d="
  M 213.40 238.55
  L 215.39 246.79
  A 0.29 0.29 0.0 0 0 215.95 246.77
  C 217.14 239.60 219.13 232.24 225.34 227.51"
/>
<path stroke="#527f7b" vector-effect="non-scaling-stroke" d="
  M 169.59 205.90
  L 144.04 202.63"
/>
<path stroke="#9ec1c9" vector-effect="non-scaling-stroke" d="
  M 236.74 222.23
  L 229.30 225.29"
/>
<path stroke="#a98347" vector-effect="non-scaling-stroke" d="
  M 83.46 59.48
  A 1.00 1.00 0.0 0 0 84.95 59.27
  L 86.77 56.46
  A 1.00 1.00 0.0 0 0 86.72 55.31
  L 59.28 19.67
  A 1.00 1.00 0.0 0 0 57.76 19.60
  L 49.03 28.87
  A 1.00 1.00 0.0 0 0 49.11 30.32
  L 83.46 59.48"
/>
<path stroke="#588985" vector-effect="non-scaling-stroke" d="
  M 254.75 95.71
  L 262.22 123.73
  A 0.19 0.19 0.0 0 0 262.60 123.67
  L 260.50 96.01
  Q 260.46 95.47 260.82 95.07
  L 271.36 83.45
  A 0.81 0.81 0.0 0 0 271.41 82.42
  L 237.79 37.16
  A 0.17 0.17 0.0 0 0 237.49 37.26
  L 237.31 86.65
  A 1.00 0.97 -78.0 0 0 237.88 87.55
  L 254.24 95.10
  Q 254.64 95.28 254.75 95.71"
/>
<path stroke="#64837d" vector-effect="non-scaling-stroke" d="
  M 235.54 38.31
  A 0.33 0.33 0.0 0 0 234.94 38.12
  L 218.26 62.24
  A 0.33 0.33 0.0 0 0 218.20 62.40
  L 215.03 101.77
  A 0.33 0.33 0.0 0 0 215.56 102.06
  L 235.29 87.12
  A 0.33 0.33 0.0 0 0 235.42 86.86
  L 235.54 38.31"
/>
<path stroke="#588985" vector-effect="non-scaling-stroke" d="
  M 183.24 83.48
  L 190.95 80.48
  A 0.33 0.33 0.0 0 0 190.98 79.87
  L 129.51 49.99
  A 0.17 0.16 -4.4 0 0 129.30 50.23
  L 159.55 93.49
  A 0.62 0.61 61.6 0 0 160.28 93.71
  L 176.81 87.08
  Q 177.31 86.88 177.62 87.33
  L 186.40 99.89
  A 0.26 0.26 0.0 0 0 186.87 99.68
  L 182.85 84.24
  Q 182.71 83.69 183.24 83.48"
/>
<path stroke="#516f6e" vector-effect="non-scaling-stroke" d="
  M 190.89 109.15
  L 178.08 91.13
  Q 176.70 89.19 174.48 90.06
  L 161.50 95.19
  A 0.66 0.66 0.0 0 0 161.17 96.13
  L 179.80 128.33
  A 1.15 1.14 70.7 0 0 180.95 128.89
  L 212.44 124.44
  A 0.45 0.45 0.0 0 0 212.79 123.81
  L 193.59 82.48
  Q 193.11 81.44 192.06 81.89
  L 185.79 84.57
  A 0.69 0.69 0.0 0 0 185.39 85.37
  L 191.35 108.94
  A 0.26 0.26 0.0 0 1 190.89 109.15"
/>
<path stroke="#94aba4" vector-effect="non-scaling-stroke" d="
  M 319.72 88.45
  A 0.32 0.32 0.0 0 0 320.28 88.56
  L 325.04 82.30
  A 0.32 0.32 0.0 0 0 324.78 81.79
  L 318.34 81.83
  A 0.32 0.32 0.0 0 0 318.03 82.23
  L 319.72 88.45"
/>
<path stroke="#64837d" vector-effect="non-scaling-stroke" d="
  M 318.94 139.75
  C 319.09 126.35 318.71 113.22 318.74 97.93
  C 318.75 92.21 317.92 87.66 316.27 82.54
  A 0.29 0.29 0.0 0 0 315.75 82.47
  L 297.54 111.08
  A 1.38 1.37 42.7 0 0 297.61 112.66
  L 318.30 139.96
  Q 318.93 140.80 318.94 139.75"
/>
<path stroke="#588985" vector-effect="non-scaling-stroke" d="
  M 327.47 82.74
  A 0.30 0.30 0.0 0 0 326.94 82.65
  L 320.60 91.39
  A 0.30 0.30 0.0 0 0 320.54 91.57
  L 320.68 140.93
  A 0.30 0.30 0.0 0 0 321.18 141.16
  L 339.40 125.30
  A 0.30 0.30 0.0 0 0 339.49 124.99
  L 327.47 82.74"
/>
<path stroke="#476362" vector-effect="non-scaling-stroke" d="
  M 229.31 122.37
  Q 229.51 122.77 229.40 123.08
  Q 229.27 123.44 229.47 123.78
  L 238.45 138.80
  A 0.47 0.46 32.9 0 0 239.31 138.62
  Q 239.54 136.57 239.33 134.24
  Q 237.37 113.00 235.62 90.08
  A 0.33 0.33 0.0 0 0 235.10 89.84
  L 215.38 104.59
  A 0.85 0.84 -25.9 0 0 215.07 105.47
  L 219.47 122.13
  A 1.41 1.40 -11.5 0 0 221.03 123.16
  L 228.64 122.03
  A 0.65 0.64 -17.8 0 1 229.31 122.37"
/>
<path stroke="#588985" vector-effect="non-scaling-stroke" d="
  M 216.13 165.20
  L 226.69 124.49
  A 0.28 0.28 0.0 0 0 226.38 124.15
  L 181.22 130.66
  A 0.86 0.86 0.0 0 0 180.58 131.91
  L 195.75 160.77
  A 1.30 1.29 82.2 0 0 196.61 161.43
  L 215.54 165.57
  Q 216.01 165.67 216.13 165.20"
/>
<path stroke="#64837d" vector-effect="non-scaling-stroke" d="
  M 194.02 161.57
  L 180.41 135.39
  Q 180.03 134.66 179.97 135.48
  L 176.52 186.52
  Q 176.43 187.95 177.25 186.78
  L 193.91 163.26
  A 1.63 1.62 48.8 0 0 194.02 161.57"
/>
<path stroke="#64837d" vector-effect="non-scaling-stroke" d="
  M 150.54 211.08
  Q 151.92 211.38 153.26 211.76
  Q 153.86 211.93 154.15 211.69
  Q 154.50 211.38 154.04 211.27
  L 150.73 210.52"
/>
<path stroke="#94aba4" vector-effect="non-scaling-stroke" d="
  M 150.73 210.52
  L 142.74 208.66
  Q 142.27 208.55 142.12 208.09
  L 140.67 203.35
  A 0.64 0.64 0.0 0 0 140.06 202.90
  L 128.12 202.86
  A 0.83 0.83 0.0 0 0 127.35 203.34
  L 123.50 211.54
  A 0.40 0.39 17.0 0 0 123.80 212.10
  L 135.18 213.77
  A 1.25 1.22 35.1 0 0 135.97 213.64
  Q 138.39 212.32 139.46 209.77
  Q 139.65 209.30 140.16 209.38
  L 150.54 211.08"
/>
<path stroke="#92d3d8" vector-effect="non-scaling-stroke" d="
  M 150.73 210.52
  Q 150.86 210.93 150.54 211.08"
/>
<path stroke="#64837d" vector-effect="non-scaling-stroke" d="
  M 139.52 216.55
  Q 138.95 216.27 138.33 216.18
  L 123.92 213.88
  A 0.38 0.38 0.0 0 0 123.58 214.52
  L 160.02 253.54
  Q 160.68 254.25 161.37 253.57
  L 178.30 236.81
  Q 178.78 236.34 178.18 236.04
  Q 158.94 226.10 139.52 216.55"
/>
<path stroke="#516f6e" vector-effect="non-scaling-stroke" d="
  M 183.70 221.38
  A 0.33 0.33 0.0 0 0 183.12 221.57
  L 181.85 235.37
  A 0.33 0.33 0.0 0 0 182.08 235.71
  L 190.51 238.38
  A 0.33 0.33 0.0 0 0 190.69 238.39
  L 196.85 236.75
  A 0.33 0.33 0.0 0 0 197.01 236.21
  L 183.70 221.38"
/>
<path stroke="#a98347" vector-effect="non-scaling-stroke" d="
  M 78.20 85.31
  A 0.80 0.80 0.0 0 0 79.21 85.04
  L 81.64 81.50
  A 0.80 0.80 0.0 0 0 81.47 80.41
  L 34.41 44.41
  A 0.80 0.80 0.0 0 0 33.23 44.65
  L 24.93 58.94
  A 0.80 0.80 0.0 0 0 25.27 60.06
  L 78.20 85.31"
/>
<path stroke="#a98347" vector-effect="non-scaling-stroke" d="
  M 75.28 107.59
  A 0.78 0.78 0.0 0 0 76.07 107.00
  L 77.21 102.29
  A 0.78 0.78 0.0 0 0 76.62 101.34
  L 18.14 88.77
  A 0.78 0.78 0.0 0 0 17.20 89.63
  L 19.12 104.44
  A 0.78 0.78 0.0 0 0 19.85 105.12
  L 75.28 107.59"
/>
<path stroke="#a98347" vector-effect="non-scaling-stroke" d="
  M 77.96 126.97
  A 0.97 0.97 0.0 0 0 78.68 126.01
  L 78.61 122.47
  A 0.97 0.97 0.0 0 0 77.54 121.52
  L 40.96 125.47
  A 0.97 0.97 0.0 0 0 40.16 126.79
  L 43.32 135.02
  A 0.97 0.97 0.0 0 0 44.47 135.61
  L 77.96 126.97"
/>
<path stroke="#9e8768" vector-effect="non-scaling-stroke" d="
  M 222.02 284.25
  A 0.66 0.66 0.0 0 1 223.22 283.85
  Q 225.82 287.52 228.58 290.91
  C 237.16 301.44 247.50 295.89 256.71 290.37
  C 258.12 289.53 259.15 288.39 260.02 287.11
  A 1.62 1.61 -61.7 0 1 261.97 286.52
  Q 265.61 288.01 269.48 288.32
  Q 273.26 288.62 276.77 286.87
  Q 282.08 284.22 285.68 279.59
  A 1.30 1.30 0.0 0 1 287.69 279.53
  Q 291.33 283.68 295.60 287.40
  C 304.11 294.84 311.80 291.63 320.92 287.90
  A 1.67 1.66 38.6 0 1 321.83 287.80
  C 325.52 288.42 329.73 289.66 333.07 289.52
  Q 341.12 289.18 345.84 282.39
  A 1.52 1.52 0.0 0 1 347.21 281.74
  C 350.73 281.99 354.52 282.27 357.80 280.97
  Q 368.13 276.85 368.61 265.16
  A 1.02 1.02 0.0 0 1 370.39 264.53
  C 375.59 270.43 384.25 279.03 392.70 275.19
  Q 399.21 272.22 403.27 266.20
  A 0.65 0.65 0.0 0 0 402.53 265.22
  C 384.35 271.12 370.40 258.08 357.99 246.90
  A 0.63 0.63 0.0 0 0 356.97 247.18
  C 354.08 256.61 348.95 265.30 338.49 268.06
  Q 335.03 268.97 324.34 269.98
  A 1.67 1.66 -67.4 0 0 323.45 270.35
  C 315.10 277.24 307.22 281.80 297.32 273.71
  C 290.43 268.08 286.20 259.16 282.10 251.37
  A 0.59 0.59 0.0 0 0 280.99 251.57
  C 278.74 270.28 266.56 271.65 251.28 269.43
  A 1.38 1.38 0.0 0 0 249.80 270.27
  C 248.38 273.76 246.18 277.77 242.63 279.53
  C 237.16 282.24 228.19 278.49 223.58 275.17
  Q 223.12 274.84 222.79 275.30
  C 214.98 286.03 208.58 294.23 194.29 295.18
  C 188.27 295.59 182.29 292.31 176.37 294.20
  C 167.55 297.02 159.09 299.27 149.76 299.45
  Q 149.12 299.46 149.57 299.93
  Q 154.84 305.38 161.71 307.92
  C 173.72 312.36 190.44 305.80 202.29 299.87
  Q 205.60 298.22 210.51 297.58
  Q 222.41 296.00 222.02 284.25"
/>
<path stroke="#9f8e7e" vector-effect="non-scaling-stroke" d="
  M 379.05 282.79
  C 383.47 284.74 393.46 282.79 394.47 277.00
  A 0.45 0.45 0.0 0 0 393.82 276.53
  C 385.35 280.97 376.42 273.90 370.62 267.98
  Q 370.29 267.63 370.18 268.11
  Q 366.46 284.12 349.82 283.90
  Q 349.47 283.90 348.35 283.59
  Q 347.36 283.33 346.75 284.06
  Q 341.81 290.10 334.73 291.01
  C 330.87 291.51 326.02 290.27 321.80 289.60
  Q 321.32 289.53 320.86 289.71
  Q 314.78 292.12 312.74 292.71
  C 301.94 295.86 294.12 289.20 287.53 281.68
  A 0.87 0.87 0.0 0 0 286.26 281.65
  C 280.00 288.13 271.80 292.80 262.72 288.32
  A 1.20 1.20 0.0 0 0 261.37 288.51
  Q 257.46 292.10 252.81 294.57
  C 240.53 301.07 232.14 299.57 224.08 288.09
  Q 223.68 287.52 223.54 288.20
  C 221.90 295.97 216.35 298.58 209.00 299.44
  Q 206.45 299.73 204.22 300.86
  C 192.87 306.61 180.84 311.11 168.02 311.26
  A 0.58 0.58 0.0 0 0 167.52 312.13
  C 172.69 321.12 182.57 316.42 190.71 313.13
  Q 191.18 312.94 191.68 313.08
  C 200.31 315.52 212.09 318.42 220.51 316.22
  C 229.43 313.90 237.40 307.79 245.19 302.16
  Q 245.61 301.86 246.09 302.01
  C 256.83 305.44 264.57 301.68 272.62 294.82
  A 1.64 1.63 -51.0 0 1 274.47 294.62
  C 280.47 297.89 287.02 300.59 293.87 301.09
  Q 309.05 302.21 323.09 295.73
  C 323.82 295.39 324.59 295.13 325.44 295.44
  Q 338.02 300.15 350.94 296.33
  C 359.86 293.70 370.31 289.81 377.02 283.16
  A 1.83 1.82 -55.3 0 1 379.05 282.79"
/>
</g>
<path fill="#5a4535" d="
  M 83.73 60.75
  L 47.88 30.36
  A 0.86 0.86 0.0 0 1 47.80 29.12
  L 57.87 18.29
  A 0.86 0.86 0.0 0 1 59.18 18.35
  L 87.75 55.45
  A 0.86 0.86 0.0 0 1 87.78 56.45
  L 85.00 60.58
  A 0.86 0.86 0.0 0 1 83.73 60.75
  Z
  M 83.46 59.48
  A 1.00 1.00 0.0 0 0 84.95 59.27
  L 86.77 56.46
  A 1.00 1.00 0.0 0 0 86.72 55.31
  L 59.28 19.67
  A 1.00 1.00 0.0 0 0 57.76 19.60
  L 49.03 28.87
  A 1.00 1.00 0.0 0 0 49.11 30.32
  L 83.46 59.48
  Z"
/>
<path fill="#f8c059" d="
  M 83.46 59.48
  L 49.11 30.32
  A 1.00 1.00 0.0 0 1 49.03 28.87
  L 57.76 19.60
  A 1.00 1.00 0.0 0 1 59.28 19.67
  L 86.72 55.31
  A 1.00 1.00 0.0 0 1 86.77 56.46
  L 84.95 59.27
  A 1.00 1.00 0.0 0 1 83.46 59.48
  Z"
/>
<path fill="#675a49" fill-opacity="0.996" d="
  M 341.49 126.52
  L 338.74 129.17
  L 321.38 143.69
  A 2.70 2.67 75.3 0 0 320.45 145.30
  L 313.41 185.68
  L 311.29 185.71
  C 311.67 185.45 311.96 185.17 312.04 184.68
  Q 315.25 164.91 318.78 144.94
  Q 318.92 144.17 318.45 143.55
  L 297.25 115.27
  A 0.59 0.59 0.0 0 0 296.20 115.51
  Q 291.37 139.80 287.00 164.46
  Q 286.51 167.19 287.03 170.01
  Q 288.96 180.48 290.18 191.21
  Q 289.89 192.01 288.59 192.06
  L 272.63 86.06
  A 0.48 0.48 0.0 0 0 271.79 85.81
  L 263.45 95.29
  A 3.35 3.30 -26.7 0 0 262.63 97.72
  L 265.23 135.48
  Q 265.43 138.27 264.03 135.70
  Q 263.89 135.42 263.34 133.47
  Q 258.28 115.37 253.10 97.25
  A 1.52 1.50 4.6 0 0 252.28 96.30
  L 237.97 89.63
  Q 237.42 89.38 237.46 89.99
  Q 239.45 115.80 241.52 141.52
  Q 241.70 143.74 242.86 145.63
  Q 259.80 173.04 276.82 200.76
  Q 276.02 200.32 275.54 201.92
  L 228.77 126.21
  Q 228.44 125.69 228.28 126.29
  L 217.94 165.78
  Q 217.64 166.94 218.39 167.88
  L 252.35 210.49
  Q 251.38 211.17 250.43 211.36
  L 215.80 167.85
  Q 215.45 167.41 214.90 167.29
  L 197.31 163.45
  A 1.49 1.47 -65.6 0 0 195.81 164.02
  L 176.77 190.26
  Q 175.97 191.36 177.01 192.25
  L 205.31 216.29
  Q 205.54 216.48 205.61 216.78
  Q 205.65 216.95 205.81 217.11
  L 204.44 217.67
  Q 190.10 205.60 175.95 193.41
  Q 175.71 193.20 175.46 193.15
  Q 175.17 193.10 174.84 193.10
  Q 174.34 193.10 174.16 192.63
  C 173.53 190.97 174.51 189.52 174.60 188.11
  Q 176.40 160.67 178.21 133.24
  Q 178.30 131.95 178.45 130.65
  Q 178.51 130.10 178.23 129.63
  L 159.98 97.95
  A 0.56 0.55 -46.5 0 0 159.00 97.98
  L 144.35 126.93
  A 1.46 1.45 -46.9 0 0 144.39 128.34
  L 163.99 161.74
  A 0.66 0.66 0.0 0 1 162.97 162.55
  L 137.96 139.04
  A 1.84 1.84 0.0 0 0 135.69 138.85
  L 121.68 148.13
  Q 120.43 148.96 121.43 150.07
  L 169.98 203.70
  A 1.75 1.73 72.6 0 0 171.01 204.25
  Q 172.49 204.49 172.55 205.99
  A 0.90 0.86 24.5 0 0 172.77 206.54
  L 199.15 235.86
  Q 199.51 236.26 200.06 236.25
  L 212.60 236.08
  L 213.40 238.55
  L 199.47 238.37
  L 195.83 238.91
  Q 193.88 239.52 192.57 240.67
  Q 192.62 238.36 188.73 240.47
  Q 185.80 238.06 181.62 237.56
  A 1.88 1.85 26.0 0 0 180.11 238.07
  L 164.37 253.15
  A 0.53 0.53 0.0 0 0 164.72 254.06
  L 176.73 254.42
  Q 176.92 254.88 176.02 255.95
  C 172.74 255.92 163.16 255.07 161.00 256.57
  Q 160.60 256.86 160.26 256.50
  L 121.44 214.78
  A 2.90 2.89 -52.4 0 1 121.01 211.45
  L 126.36 201.46
  Q 126.61 201.01 127.13 201.01
  L 143.11 201.05
  Q 142.82 202.93 144.04 202.63
  Q 143.05 204.11 144.06 206.20
  Q 144.28 206.65 144.76 206.78
  Q 157.22 210.12 169.74 213.26
  Q 172.11 213.85 174.22 215.19
  Q 174.80 215.56 174.12 215.56
  Q 168.92 215.61 162.01 214.38
  Q 157.16 213.52 146.83 212.62
  C 144.16 212.39 141.39 209.98 139.15 213.39
  Q 138.81 213.91 139.36 214.19
  L 179.29 234.51
  Q 179.82 234.79 179.88 234.19
  L 181.35 219.35
  Q 181.40 218.83 181.05 218.44
  L 169.59 205.90
  Q 167.47 204.27 164.14 204.62
  Q 163.41 204.69 163.77 204.05
  L 164.07 203.51
  L 167.16 203.81
  Q 167.92 203.89 167.41 203.31
  L 119.97 150.79
  A 2.34 2.30 -10.0 0 0 119.08 150.18
  Q 117.52 149.58 118.38 147.80
  L 120.21 146.38
  L 136.99 136.00
  Q 137.40 135.75 137.75 136.08
  L 157.62 154.90
  A 0.23 0.22 6.7 0 0 157.97 154.63
  L 142.16 128.78
  A 1.35 1.35 0.0 0 1 142.09 127.50
  L 157.22 96.06
  Q 157.79 94.87 157.04 93.79
  L 126.23 49.00
  A 0.52 0.49 38.6 0 0 125.34 49.07
  L 116.64 73.06
  Q 116.26 70.10 117.63 66.50
  Q 119.63 61.22 121.83 53.72
  L 124.36 46.05
  A 0.83 0.83 0.0 0 1 125.21 45.48
  Q 126.14 45.54 126.74 46.28
  Q 127.08 46.69 127.56 46.93
  Q 161.20 63.52 194.99 79.81
  Q 195.43 80.03 195.41 80.30
  Q 195.41 80.49 195.24 80.72
  Q 195.02 81.01 195.17 81.35
  L 214.66 123.63
  Q 214.90 124.16 215.46 124.04
  L 217.31 123.67
  Q 217.92 123.54 217.75 122.94
  L 212.91 105.56
  A 0.35 0.32 43.0 0 1 212.90 105.42
  L 216.23 61.99
  A 1.04 0.97 -27.1 0 1 216.41 61.49
  L 237.20 31.82
  Q 237.27 31.72 237.29 31.84
  Q 237.56 33.86 239.31 36.21
  Q 255.89 58.47 272.46 80.75
  Q 272.53 80.84 273.47 81.81
  C 274.52 82.90 274.06 84.14 274.23 85.25
  Q 279.91 122.63 285.66 160.33
  Q 285.78 161.06 285.91 160.33
  Q 290.21 137.34 294.45 113.97
  Q 294.94 111.32 296.38 109.04
  Q 305.51 94.60 314.78 80.17
  Q 315.05 79.75 315.55 79.77
  L 328.08 80.09
  Q 328.47 80.10 328.58 80.48
  L 341.49 126.52
  Z
  M 254.75 95.71
  L 262.22 123.73
  A 0.19 0.19 0.0 0 0 262.60 123.67
  L 260.50 96.01
  Q 260.46 95.47 260.82 95.07
  L 271.36 83.45
  A 0.81 0.81 0.0 0 0 271.41 82.42
  L 237.79 37.16
  A 0.17 0.17 0.0 0 0 237.49 37.26
  L 237.31 86.65
  A 1.00 0.97 -78.0 0 0 237.88 87.55
  L 254.24 95.10
  Q 254.64 95.28 254.75 95.71
  Z
  M 235.54 38.31
  A 0.33 0.33 0.0 0 0 234.94 38.12
  L 218.26 62.24
  A 0.33 0.33 0.0 0 0 218.20 62.40
  L 215.03 101.77
  A 0.33 0.33 0.0 0 0 215.56 102.06
  L 235.29 87.12
  A 0.33 0.33 0.0 0 0 235.42 86.86
  L 235.54 38.31
  Z
  M 183.24 83.48
  L 190.95 80.48
  A 0.33 0.33 0.0 0 0 190.98 79.87
  L 129.51 49.99
  A 0.17 0.16 -4.4 0 0 129.30 50.23
  L 159.55 93.49
  A 0.62 0.61 61.6 0 0 160.28 93.71
  L 176.81 87.08
  Q 177.31 86.88 177.62 87.33
  L 186.40 99.89
  A 0.26 0.26 0.0 0 0 186.87 99.68
  L 182.85 84.24
  Q 182.71 83.69 183.24 83.48
  Z
  M 190.89 109.15
  L 178.08 91.13
  Q 176.70 89.19 174.48 90.06
  L 161.50 95.19
  A 0.66 0.66 0.0 0 0 161.17 96.13
  L 179.80 128.33
  A 1.15 1.14 70.7 0 0 180.95 128.89
  L 212.44 124.44
  A 0.45 0.45 0.0 0 0 212.79 123.81
  L 193.59 82.48
  Q 193.11 81.44 192.06 81.89
  L 185.79 84.57
  A 0.69 0.69 0.0 0 0 185.39 85.37
  L 191.35 108.94
  A 0.26 0.26 0.0 0 1 190.89 109.15
  Z
  M 319.72 88.45
  A 0.32 0.32 0.0 0 0 320.28 88.56
  L 325.04 82.30
  A 0.32 0.32 0.0 0 0 324.78 81.79
  L 318.34 81.83
  A 0.32 0.32 0.0 0 0 318.03 82.23
  L 319.72 88.45
  Z
  M 318.94 139.75
  C 319.09 126.35 318.71 113.22 318.74 97.93
  C 318.75 92.21 317.92 87.66 316.27 82.54
  A 0.29 0.29 0.0 0 0 315.75 82.47
  L 297.54 111.08
  A 1.38 1.37 42.7 0 0 297.61 112.66
  L 318.30 139.96
  Q 318.93 140.80 318.94 139.75
  Z
  M 327.47 82.74
  A 0.30 0.30 0.0 0 0 326.94 82.65
  L 320.60 91.39
  A 0.30 0.30 0.0 0 0 320.54 91.57
  L 320.68 140.93
  A 0.30 0.30 0.0 0 0 321.18 141.16
  L 339.40 125.30
  A 0.30 0.30 0.0 0 0 339.49 124.99
  L 327.47 82.74
  Z
  M 229.31 122.37
  Q 229.51 122.77 229.40 123.08
  Q 229.27 123.44 229.47 123.78
  L 238.45 138.80
  A 0.47 0.46 32.9 0 0 239.31 138.62
  Q 239.54 136.57 239.33 134.24
  Q 237.37 113.00 235.62 90.08
  A 0.33 0.33 0.0 0 0 235.10 89.84
  L 215.38 104.59
  A 0.85 0.84 -25.9 0 0 215.07 105.47
  L 219.47 122.13
  A 1.41 1.40 -11.5 0 0 221.03 123.16
  L 228.64 122.03
  A 0.65 0.64 -17.8 0 1 229.31 122.37
  Z
  M 216.13 165.20
  L 226.69 124.49
  A 0.28 0.28 0.0 0 0 226.38 124.15
  L 181.22 130.66
  A 0.86 0.86 0.0 0 0 180.58 131.91
  L 195.75 160.77
  A 1.30 1.29 82.2 0 0 196.61 161.43
  L 215.54 165.57
  Q 216.01 165.67 216.13 165.20
  Z
  M 194.02 161.57
  L 180.41 135.39
  Q 180.03 134.66 179.97 135.48
  L 176.52 186.52
  Q 176.43 187.95 177.25 186.78
  L 193.91 163.26
  A 1.63 1.62 48.8 0 0 194.02 161.57
  Z
  M 150.54 211.08
  Q 151.92 211.38 153.26 211.76
  Q 153.86 211.93 154.15 211.69
  Q 154.50 211.38 154.04 211.27
  L 150.73 210.52
  L 142.74 208.66
  Q 142.27 208.55 142.12 208.09
  L 140.67 203.35
  A 0.64 0.64 0.0 0 0 140.06 202.90
  L 128.12 202.86
  A 0.83 0.83 0.0 0 0 127.35 203.34
  L 123.50 211.54
  A 0.40 0.39 17.0 0 0 123.80 212.10
  L 135.18 213.77
  A 1.25 1.22 35.1 0 0 135.97 213.64
  Q 138.39 212.32 139.46 209.77
  Q 139.65 209.30 140.16 209.38
  L 150.54 211.08
  Z
  M 139.52 216.55
  Q 138.95 216.27 138.33 216.18
  L 123.92 213.88
  A 0.38 0.38 0.0 0 0 123.58 214.52
  L 160.02 253.54
  Q 160.68 254.25 161.37 253.57
  L 178.30 236.81
  Q 178.78 236.34 178.18 236.04
  Q 158.94 226.10 139.52 216.55
  Z
  M 183.70 221.38
  A 0.33 0.33 0.0 0 0 183.12 221.57
  L 181.85 235.37
  A 0.33 0.33 0.0 0 0 182.08 235.71
  L 190.51 238.38
  A 0.33 0.33 0.0 0 0 190.69 238.39
  L 196.85 236.75
  A 0.33 0.33 0.0 0 0 197.01 236.21
  L 183.70 221.38
  Z"
/>
<path fill="#4ab8c1" d="
  M 254.24 95.10
  L 237.88 87.55
  A 1.00 0.97 -78.0 0 1 237.31 86.65
  L 237.49 37.26
  A 0.17 0.17 0.0 0 1 237.79 37.16
  L 271.41 82.42
  A 0.81 0.81 0.0 0 1 271.36 83.45
  L 260.82 95.07
  Q 260.46 95.47 260.50 96.01
  L 262.60 123.67
  A 0.19 0.19 0.0 0 1 262.22 123.73
  L 254.75 95.71
  Q 254.64 95.28 254.24 95.10
  Z"
/>
<path fill="#62abb1" d="
  M 235.54 38.31
  L 235.42 86.86
  A 0.33 0.33 0.0 0 1 235.29 87.12
  L 215.56 102.06
  A 0.33 0.33 0.0 0 1 215.03 101.77
  L 218.20 62.40
  A 0.33 0.33 0.0 0 1 218.26 62.24
  L 234.94 38.12
  A 0.33 0.33 0.0 0 1 235.54 38.31
  Z"
/>
<path fill="#5a4535" d="
  M 78.38 86.31
  L 24.09 60.41
  A 0.77 0.77 0.0 0 1 23.75 59.33
  L 33.05 43.43
  A 0.77 0.77 0.0 0 1 34.18 43.21
  L 82.62 80.31
  A 0.77 0.77 0.0 0 1 82.77 81.38
  L 79.34 86.07
  A 0.77 0.77 0.0 0 1 78.38 86.31
  Z
  M 78.20 85.31
  A 0.80 0.80 0.0 0 0 79.21 85.04
  L 81.64 81.50
  A 0.80 0.80 0.0 0 0 81.47 80.41
  L 34.41 44.41
  A 0.80 0.80 0.0 0 0 33.23 44.65
  L 24.93 58.94
  A 0.80 0.80 0.0 0 0 25.27 60.06
  L 78.20 85.31
  Z"
/>
<path fill="#f8c059" d="
  M 78.20 85.31
  L 25.27 60.06
  A 0.80 0.80 0.0 0 1 24.93 58.94
  L 33.23 44.65
  A 0.80 0.80 0.0 0 1 34.41 44.41
  L 81.47 80.41
  A 0.80 0.80 0.0 0 1 81.64 81.50
  L 79.21 85.04
  A 0.80 0.80 0.0 0 1 78.20 85.31
  Z"
/>
<path fill="#62abb1" d="
  M 120.21 146.38
  L 116.64 73.06
  L 125.34 49.07
  A 0.52 0.49 38.6 0 1 126.23 49.00
  L 157.04 93.79
  Q 157.79 94.87 157.22 96.06
  L 142.09 127.50
  A 1.35 1.35 0.0 0 0 142.16 128.78
  L 157.97 154.63
  A 0.23 0.22 6.7 0 1 157.62 154.90
  L 137.75 136.08
  Q 137.40 135.75 136.99 136.00
  L 120.21 146.38
  Z"
/>
<path fill="#4ab8c1" d="
  M 182.85 84.24
  L 186.87 99.68
  A 0.26 0.26 0.0 0 1 186.40 99.89
  L 177.62 87.33
  Q 177.31 86.88 176.81 87.08
  L 160.28 93.71
  A 0.62 0.61 61.6 0 1 159.55 93.49
  L 129.30 50.23
  A 0.17 0.16 -4.4 0 1 129.51 49.99
  L 190.98 79.87
  A 0.33 0.33 0.0 0 1 190.95 80.48
  L 183.24 83.48
  Q 182.71 83.69 182.85 84.24
  Z"
/>
<path fill="#5a4535" d="
  M 121.83 53.72
  Q 119.63 61.22 117.63 66.50
  Q 116.26 70.10 116.64 73.06
  L 120.21 146.38
  L 118.38 147.80
  Q 116.82 112.51 115.25 77.25
  C 115.08 73.51 115.07 71.35 116.42 67.76
  Q 119.05 60.74 121.83 53.72
  Z"
/>
<path fill="#3c8393" d="
  M 191.35 108.94
  L 185.39 85.37
  A 0.69 0.69 0.0 0 1 185.79 84.57
  L 192.06 81.89
  Q 193.11 81.44 193.59 82.48
  L 212.79 123.81
  A 0.45 0.45 0.0 0 1 212.44 124.44
  L 180.95 128.89
  A 1.15 1.14 70.7 0 1 179.80 128.33
  L 161.17 96.13
  A 0.66 0.66 0.0 0 1 161.50 95.19
  L 174.48 90.06
  Q 176.70 89.19 178.08 91.13
  L 190.89 109.15
  A 0.26 0.26 0.0 0 0 191.35 108.94
  Z"
/>
<path fill="#c1fbff" d="
  M 319.72 88.45
  L 318.03 82.23
  A 0.32 0.32 0.0 0 1 318.34 81.83
  L 324.78 81.79
  A 0.32 0.32 0.0 0 1 325.04 82.30
  L 320.28 88.56
  A 0.32 0.32 0.0 0 1 319.72 88.45
  Z"
/>
<path fill="#62abb1" d="
  M 318.74 97.93
  C 318.71 113.22 319.09 126.35 318.94 139.75
  Q 318.93 140.80 318.30 139.96
  L 297.61 112.66
  A 1.38 1.37 42.7 0 1 297.54 111.08
  L 315.75 82.47
  A 0.29 0.29 0.0 0 1 316.27 82.54
  C 317.92 87.66 318.75 92.21 318.74 97.93
  Z"
/>
<path fill="#4ab8c1" d="
  M 327.47 82.74
  L 339.49 124.99
  A 0.30 0.30 0.0 0 1 339.40 125.30
  L 321.18 141.16
  A 0.30 0.30 0.0 0 1 320.68 140.93
  L 320.54 91.57
  A 0.30 0.30 0.0 0 1 320.60 91.39
  L 326.94 82.65
  A 0.30 0.30 0.0 0 1 327.47 82.74
  Z"
/>
<path fill="#3c8393" d="
  M 288.59 192.06
  L 276.82 200.76
  Q 259.80 173.04 242.86 145.63
  Q 241.70 143.74 241.52 141.52
  Q 239.45 115.80 237.46 89.99
  Q 237.42 89.38 237.97 89.63
  L 252.28 96.30
  A 1.52 1.50 4.6 0 1 253.10 97.25
  Q 258.28 115.37 263.34 133.47
  Q 263.89 135.42 264.03 135.70
  Q 265.43 138.27 265.23 135.48
  L 262.63 97.72
  A 3.35 3.30 -26.7 0 1 263.45 95.29
  L 271.79 85.81
  A 0.48 0.48 0.0 0 1 272.63 86.06
  L 288.59 192.06
  Z"
/>
<path fill="#5a4535" d="
  M 75.90 108.51
  L 19.06 105.85
  A 0.64 0.64 0.0 0 1 18.46 105.28
  L 16.48 88.48
  A 0.64 0.64 0.0 0 1 17.26 87.78
  L 77.61 100.81
  A 0.64 0.64 0.0 0 1 78.10 101.59
  L 76.55 108.02
  A 0.64 0.64 0.0 0 1 75.90 108.51
  Z
  M 75.28 107.59
  A 0.78 0.78 0.0 0 0 76.07 107.00
  L 77.21 102.29
  A 0.78 0.78 0.0 0 0 76.62 101.34
  L 18.14 88.77
  A 0.78 0.78 0.0 0 0 17.20 89.63
  L 19.12 104.44
  A 0.78 0.78 0.0 0 0 19.85 105.12
  L 75.28 107.59
  Z"
/>
<path fill="#f8c059" d="
  M 75.28 107.59
  L 19.85 105.12
  A 0.78 0.78 0.0 0 1 19.12 104.44
  L 17.20 89.63
  A 0.78 0.78 0.0 0 1 18.14 88.77
  L 76.62 101.34
  A 0.78 0.78 0.0 0 1 77.21 102.29
  L 76.07 107.00
  A 0.78 0.78 0.0 0 1 75.28 107.59
  Z"
/>
<path fill="#286b7a" d="
  M 228.64 122.03
  L 221.03 123.16
  A 1.41 1.40 -11.5 0 1 219.47 122.13
  L 215.07 105.47
  A 0.85 0.84 -25.9 0 1 215.38 104.59
  L 235.10 89.84
  A 0.33 0.33 0.0 0 1 235.62 90.08
  Q 237.37 113.00 239.33 134.24
  Q 239.54 136.57 239.31 138.62
  A 0.47 0.46 32.9 0 1 238.45 138.80
  L 229.47 123.78
  Q 229.27 123.44 229.40 123.08
  Q 229.51 122.77 229.31 122.37
  A 0.65 0.64 -17.8 0 0 228.64 122.03
  Z"
/>
<path fill="#286b7a" d="
  M 204.44 217.67
  L 193.75 220.77
  A 0.33 0.33 0.0 0 0 193.76 221.40
  C 202.20 223.54 209.61 226.76 212.60 236.08
  L 200.06 236.25
  Q 199.51 236.26 199.15 235.86
  L 172.77 206.54
  A 0.90 0.86 24.5 0 1 172.55 205.99
  Q 172.49 204.49 171.01 204.25
  A 1.75 1.73 72.6 0 1 169.98 203.70
  L 121.43 150.07
  Q 120.43 148.96 121.68 148.13
  L 135.69 138.85
  A 1.84 1.84 0.0 0 1 137.96 139.04
  L 162.97 162.55
  A 0.66 0.66 0.0 0 0 163.99 161.74
  L 144.39 128.34
  A 1.46 1.45 -46.9 0 1 144.35 126.93
  L 159.00 97.98
  A 0.56 0.55 -46.5 0 1 159.98 97.95
  L 178.23 129.63
  Q 178.51 130.10 178.45 130.65
  Q 178.30 131.95 178.21 133.24
  Q 176.40 160.67 174.60 188.11
  C 174.51 189.52 173.53 190.97 174.16 192.63
  Q 174.34 193.10 174.84 193.10
  Q 175.17 193.10 175.46 193.15
  Q 175.71 193.20 175.95 193.41
  Q 190.10 205.60 204.44 217.67
  Z"
/>
<path fill="#286b7a" d="
  M 311.29 185.71
  Q 300.54 186.32 290.18 191.21
  Q 288.96 180.48 287.03 170.01
  Q 286.51 167.19 287.00 164.46
  Q 291.37 139.80 296.20 115.51
  A 0.59 0.59 0.0 0 1 297.25 115.27
  L 318.45 143.55
  Q 318.92 144.17 318.78 144.94
  Q 315.25 164.91 312.04 184.68
  C 311.96 185.17 311.67 185.45 311.29 185.71
  Z"
/>
<path fill="#5a4535" d="
  M 78.63 127.54
  L 43.93 136.54
  A 0.80 0.80 0.0 0 1 42.98 136.06
  L 39.02 125.92
  A 0.80 0.80 0.0 0 1 39.68 124.84
  L 78.35 120.67
  A 0.80 0.80 0.0 0 1 79.24 121.46
  L 79.23 126.76
  A 0.80 0.80 0.0 0 1 78.63 127.54
  Z
  M 77.96 126.97
  A 0.97 0.97 0.0 0 0 78.68 126.01
  L 78.61 122.47
  A 0.97 0.97 0.0 0 0 77.54 121.52
  L 40.96 125.47
  A 0.97 0.97 0.0 0 0 40.16 126.79
  L 43.32 135.02
  A 0.97 0.97 0.0 0 0 44.47 135.61
  L 77.96 126.97
  Z"
/>
<path fill="#f8c059" d="
  M 77.96 126.97
  L 44.47 135.61
  A 0.97 0.97 0.0 0 1 43.32 135.02
  L 40.16 126.79
  A 0.97 0.97 0.0 0 1 40.96 125.47
  L 77.54 121.52
  A 0.97 0.97 0.0 0 1 78.61 122.47
  L 78.68 126.01
  A 0.97 0.97 0.0 0 1 77.96 126.97
  Z"
/>
<path fill="#4ab8c1" d="
  M 226.69 124.49
  L 216.13 165.20
  Q 216.01 165.67 215.54 165.57
  L 196.61 161.43
  A 1.30 1.29 82.2 0 1 195.75 160.77
  L 180.58 131.91
  A 0.86 0.86 0.0 0 1 181.22 130.66
  L 226.38 124.15
  A 0.28 0.28 0.0 0 1 226.69 124.49
  Z"
/>
<path fill="#4997a8" d="
  M 275.54 201.92
  L 268.07 209.23
  A 2.10 2.09 27.9 0 1 266.24 209.79
  Q 259.03 208.55 252.35 210.49
  L 218.39 167.88
  Q 217.64 166.94 217.94 165.78
  L 228.28 126.29
  Q 228.44 125.69 228.77 126.21
  L 275.54 201.92
  Z"
/>
<path fill="#5a4535" d="
  M 341.49 126.52
  L 326.55 186.57
  Q 326.43 187.04 326.90 187.17
  Q 333.10 188.85 338.35 191.94
  Q 345.07 195.88 351.16 200.70
  Q 352.38 201.68 354.87 204.22
  Q 356.49 205.87 358.31 207.36
  Q 358.73 207.71 359.24 207.50
  C 371.02 202.77 385.62 204.55 396.88 208.86
  C 405.33 212.10 411.69 221.18 415.07 230.02
  C 419.41 241.37 416.62 252.57 408.42 261.30
  Q 406.93 262.89 405.72 265.18
  Q 403.30 269.74 398.32 274.30
  Q 397.54 275.02 396.09 278.34
  C 394.30 282.45 390.16 284.10 385.56 285.38
  C 383.02 286.09 381.31 285.36 378.88 284.71
  Q 378.35 284.57 377.94 284.91
  C 366.76 294.08 348.04 301.82 333.62 299.40
  Q 331.41 299.03 324.68 297.30
  A 1.63 1.58 40.6 0 0 323.69 297.36
  Q 317.94 299.71 312.01 301.33
  Q 292.46 306.66 273.84 296.91
  A 1.13 1.13 0.0 0 0 272.56 297.06
  C 265.03 303.79 256.71 306.99 246.67 303.94
  A 1.10 1.10 0.0 0 0 245.72 304.08
  C 238.72 308.92 232.65 313.68 224.53 316.81
  C 218.69 319.06 212.84 319.07 206.71 318.50
  C 201.83 318.05 196.69 316.32 191.70 314.89
  Q 191.20 314.74 190.72 314.94
  Q 181.46 318.70 176.25 319.29
  C 169.08 320.09 168.94 316.20 165.38 311.95
  Q 164.58 310.99 163.02 310.46
  Q 153.60 307.23 146.81 300.01
  Q 145.47 298.59 143.35 297.37
  C 129.84 289.63 137.57 268.45 150.07 264.79
  C 155.68 263.15 164.18 262.83 170.49 263.78
  Q 172.28 264.05 172.97 262.73
  Q 174.68 259.45 176.02 255.95
  Q 176.92 254.88 176.73 254.42
  C 180.10 248.60 182.94 244.32 188.73 240.47
  Q 192.62 238.36 192.57 240.67
  Q 191.41 241.59 189.36 241.82
  A 0.82 0.80 -89.5 0 0 188.65 242.53
  Q 188.52 243.64 187.45 243.83
  Q 186.94 243.92 186.58 244.29
  Q 183.48 247.50 181.05 251.20
  Q 180.02 252.77 177.39 258.66
  Q 175.69 262.46 173.42 266.02
  A 0.79 0.78 -67.0 0 1 172.59 266.36
  C 164.00 264.51 152.02 264.34 145.09 270.10
  Q 137.78 276.17 138.65 287.28
  C 139.30 295.61 148.82 298.80 156.02 297.44
  Q 166.69 295.42 177.06 292.15
  C 178.73 291.62 180.70 291.44 182.21 291.86
  Q 199.07 296.51 211.64 286.13
  C 215.45 282.98 218.98 277.86 222.09 273.61
  A 1.11 1.11 0.0 0 1 223.57 273.31
  Q 228.94 276.56 235.28 278.32
  C 243.67 280.66 246.31 274.01 249.04 268.06
  A 1.52 1.51 17.5 0 1 250.69 267.21
  C 259.04 268.73 269.72 270.53 275.57 262.41
  C 278.17 258.81 279.25 252.52 280.29 247.81
  A 0.90 0.89 38.5 0 1 281.97 247.62
  C 287.09 258.27 300.25 285.40 316.65 273.36
  C 319.33 271.39 320.95 270.36 322.97 268.66
  Q 323.36 268.33 323.88 268.28
  C 335.68 267.03 344.52 266.77 350.97 256.70
  Q 352.76 253.90 356.43 244.13
  Q 356.64 243.58 357.09 243.97
  Q 365.52 251.34 374.48 257.97
  C 384.65 265.50 401.06 268.70 409.63 256.91
  C 418.26 245.03 416.13 231.45 407.81 220.25
  Q 400.29 210.15 386.50 207.85
  C 377.62 206.37 367.69 205.54 359.41 209.49
  A 1.94 1.93 -37.2 0 1 357.32 209.21
  Q 350.75 203.55 344.07 198.20
  Q 328.20 185.51 307.75 187.89
  Q 303.01 188.44 292.01 192.60
  Q 290.76 193.08 289.50 194.13
  Q 288.35 195.10 287.08 195.91
  Q 277.03 202.30 269.00 211.06
  A 2.06 2.05 -66.5 0 1 267.35 211.71
  C 263.06 211.38 258.77 211.01 254.66 212.08
  Q 249.12 213.53 245.83 216.26
  Q 242.14 219.33 236.12 227.89
  Q 235.81 228.32 235.28 228.28
  L 225.34 227.51
  L 229.30 225.29
  Q 235.74 227.60 236.74 222.23
  Q 238.76 221.82 238.50 221.09
  Q 238.95 219.47 239.60 218.83
  Q 244.44 214.08 250.43 211.36
  Q 251.38 211.17 252.35 210.49
  Q 259.03 208.55 266.24 209.79
  A 2.10 2.09 27.9 0 0 268.07 209.23
  L 275.54 201.92
  Q 276.02 200.32 276.82 200.76
  L 288.59 192.06
  Q 289.89 192.01 290.18 191.21
  Q 300.54 186.32 311.29 185.71
  L 313.41 185.68
  L 325.18 186.51
  Q 325.41 186.53 325.30 186.32
  L 325.16 186.07
  Q 325.05 185.86 325.10 185.62
  L 338.74 129.17
  L 341.49 126.52
  Z
  M 222.02 284.25
  A 0.66 0.66 0.0 0 1 223.22 283.85
  Q 225.82 287.52 228.58 290.91
  C 237.16 301.44 247.50 295.89 256.71 290.37
  C 258.12 289.53 259.15 288.39 260.02 287.11
  A 1.62 1.61 -61.7 0 1 261.97 286.52
  Q 265.61 288.01 269.48 288.32
  Q 273.26 288.62 276.77 286.87
  Q 282.08 284.22 285.68 279.59
  A 1.30 1.30 0.0 0 1 287.69 279.53
  Q 291.33 283.68 295.60 287.40
  C 304.11 294.84 311.80 291.63 320.92 287.90
  A 1.67 1.66 38.6 0 1 321.83 287.80
  C 325.52 288.42 329.73 289.66 333.07 289.52
  Q 341.12 289.18 345.84 282.39
  A 1.52 1.52 0.0 0 1 347.21 281.74
  C 350.73 281.99 354.52 282.27 357.80 280.97
  Q 368.13 276.85 368.61 265.16
  A 1.02 1.02 0.0 0 1 370.39 264.53
  C 375.59 270.43 384.25 279.03 392.70 275.19
  Q 399.21 272.22 403.27 266.20
  A 0.65 0.65 0.0 0 0 402.53 265.22
  C 384.35 271.12 370.40 258.08 357.99 246.90
  A 0.63 0.63 0.0 0 0 356.97 247.18
  C 354.08 256.61 348.95 265.30 338.49 268.06
  Q 335.03 268.97 324.34 269.98
  A 1.67 1.66 -67.4 0 0 323.45 270.35
  C 315.10 277.24 307.22 281.80 297.32 273.71
  C 290.43 268.08 286.20 259.16 282.10 251.37
  A 0.59 0.59 0.0 0 0 280.99 251.57
  C 278.74 270.28 266.56 271.65 251.28 269.43
  A 1.38 1.38 0.0 0 0 249.80 270.27
  C 248.38 273.76 246.18 277.77 242.63 279.53
  C 237.16 282.24 228.19 278.49 223.58 275.17
  Q 223.12 274.84 222.79 275.30
  C 214.98 286.03 208.58 294.23 194.29 295.18
  C 188.27 295.59 182.29 292.31 176.37 294.20
  C 167.55 297.02 159.09 299.27 149.76 299.45
  Q 149.12 299.46 149.57 299.93
  Q 154.84 305.38 161.71 307.92
  C 173.72 312.36 190.44 305.80 202.29 299.87
  Q 205.60 298.22 210.51 297.58
  Q 222.41 296.00 222.02 284.25
  Z
  M 379.05 282.79
  C 383.47 284.74 393.46 282.79 394.47 277.00
  A 0.45 0.45 0.0 0 0 393.82 276.53
  C 385.35 280.97 376.42 273.90 370.62 267.98
  Q 370.29 267.63 370.18 268.11
  Q 366.46 284.12 349.82 283.90
  Q 349.47 283.90 348.35 283.59
  Q 347.36 283.33 346.75 284.06
  Q 341.81 290.10 334.73 291.01
  C 330.87 291.51 326.02 290.27 321.80 289.60
  Q 321.32 289.53 320.86 289.71
  Q 314.78 292.12 312.74 292.71
  C 301.94 295.86 294.12 289.20 287.53 281.68
  A 0.87 0.87 0.0 0 0 286.26 281.65
  C 280.00 288.13 271.80 292.80 262.72 288.32
  A 1.20 1.20 0.0 0 0 261.37 288.51
  Q 257.46 292.10 252.81 294.57
  C 240.53 301.07 232.14 299.57 224.08 288.09
  Q 223.68 287.52 223.54 288.20
  C 221.90 295.97 216.35 298.58 209.00 299.44
  Q 206.45 299.73 204.22 300.86
  C 192.87 306.61 180.84 311.11 168.02 311.26
  A 0.58 0.58 0.0 0 0 167.52 312.13
  C 172.69 321.12 182.57 316.42 190.71 313.13
  Q 191.18 312.94 191.68 313.08
  C 200.31 315.52 212.09 318.42 220.51 316.22
  C 229.43 313.90 237.40 307.79 245.19 302.16
  Q 245.61 301.86 246.09 302.01
  C 256.83 305.44 264.57 301.68 272.62 294.82
  A 1.64 1.63 -51.0 0 1 274.47 294.62
  C 280.47 297.89 287.02 300.59 293.87 301.09
  Q 309.05 302.21 323.09 295.73
  C 323.82 295.39 324.59 295.13 325.44 295.44
  Q 338.02 300.15 350.94 296.33
  C 359.86 293.70 370.31 289.81 377.02 283.16
  A 1.83 1.82 -55.3 0 1 379.05 282.79
  Z"
/>
<path fill="#3c8393" d="
  M 338.74 129.17
  L 325.10 185.62
  Q 325.05 185.86 325.16 186.07
  L 325.30 186.32
  Q 325.41 186.53 325.18 186.51
  L 313.41 185.68
  L 320.45 145.30
  A 2.70 2.67 75.3 0 1 321.38 143.69
  L 338.74 129.17
  Z"
/>
<path fill="#62abb1" d="
  M 180.41 135.39
  L 194.02 161.57
  A 1.63 1.62 48.8 0 1 193.91 163.26
  L 177.25 186.78
  Q 176.43 187.95 176.52 186.52
  L 179.97 135.48
  Q 180.03 134.66 180.41 135.39
  Z"
/>
<path fill="#3c8393" d="
  M 250.43 211.36
  Q 244.44 214.08 239.60 218.83
  Q 238.95 219.47 238.50 221.09
  C 229.28 218.53 222.12 217.97 219.12 207.28
  Q 218.24 204.11 217.57 200.89
  Q 217.41 200.15 217.30 200.07
  Q 216.27 199.43 216.00 200.61
  C 214.44 207.40 212.92 213.50 205.81 217.11
  Q 205.65 216.95 205.61 216.78
  Q 205.54 216.48 205.31 216.29
  L 177.01 192.25
  Q 175.97 191.36 176.77 190.26
  L 195.81 164.02
  A 1.49 1.47 -65.6 0 1 197.31 163.45
  L 214.90 167.29
  Q 215.45 167.41 215.80 167.85
  L 250.43 211.36
  Z"
/>
<path fill="#f0e1c1" d="
  M 192.57 240.67
  Q 193.88 239.52 195.83 238.91
  Q 198.72 239.90 199.47 238.37
  L 213.40 238.55
  L 215.39 246.79
  A 0.29 0.29 0.0 0 0 215.95 246.77
  C 217.14 239.60 219.13 232.24 225.34 227.51
  L 235.28 228.28
  Q 235.81 228.32 236.12 227.89
  Q 242.14 219.33 245.83 216.26
  Q 249.12 213.53 254.66 212.08
  C 258.77 211.01 263.06 211.38 267.35 211.71
  A 2.06 2.05 -66.5 0 0 269.00 211.06
  Q 277.03 202.30 287.08 195.91
  Q 288.35 195.10 289.50 194.13
  Q 290.76 193.08 292.01 192.60
  Q 303.01 188.44 307.75 187.89
  Q 328.20 185.51 344.07 198.20
  Q 350.75 203.55 357.32 209.21
  A 1.94 1.93 -37.2 0 0 359.41 209.49
  C 367.69 205.54 377.62 206.37 386.50 207.85
  Q 400.29 210.15 407.81 220.25
  C 416.13 231.45 418.26 245.03 409.63 256.91
  C 401.06 268.70 384.65 265.50 374.48 257.97
  Q 365.52 251.34 357.09 243.97
  Q 356.64 243.58 356.43 244.13
  Q 352.76 253.90 350.97 256.70
  C 344.52 266.77 335.68 267.03 323.88 268.28
  Q 323.36 268.33 322.97 268.66
  C 320.95 270.36 319.33 271.39 316.65 273.36
  C 300.25 285.40 287.09 258.27 281.97 247.62
  A 0.90 0.89 38.5 0 0 280.29 247.81
  C 279.25 252.52 278.17 258.81 275.57 262.41
  C 269.72 270.53 259.04 268.73 250.69 267.21
  A 1.52 1.51 17.5 0 0 249.04 268.06
  C 246.31 274.01 243.67 280.66 235.28 278.32
  Q 228.94 276.56 223.57 273.31
  A 1.11 1.11 0.0 0 0 222.09 273.61
  C 218.98 277.86 215.45 282.98 211.64 286.13
  Q 199.07 296.51 182.21 291.86
  C 180.70 291.44 178.73 291.62 177.06 292.15
  Q 166.69 295.42 156.02 297.44
  C 148.82 298.80 139.30 295.61 138.65 287.28
  Q 137.78 276.17 145.09 270.10
  C 152.02 264.34 164.00 264.51 172.59 266.36
  A 0.79 0.78 -67.0 0 0 173.42 266.02
  Q 175.69 262.46 177.39 258.66
  Q 180.02 252.77 181.05 251.20
  Q 183.48 247.50 186.58 244.29
  Q 186.94 243.92 187.45 243.83
  Q 188.52 243.64 188.65 242.53
  A 0.82 0.80 -89.5 0 1 189.36 241.82
  Q 191.41 241.59 192.57 240.67
  Z"
/>
<path fill="#ffffff" d="
  M 238.50 221.09
  Q 238.76 221.82 236.74 222.23
  L 229.30 225.29
  L 225.34 227.51
  C 219.13 232.24 217.14 239.60 215.95 246.77
  A 0.29 0.29 0.0 0 1 215.39 246.79
  L 213.40 238.55
  L 212.60 236.08
  C 209.61 226.76 202.20 223.54 193.76 221.40
  A 0.33 0.33 0.0 0 1 193.75 220.77
  L 204.44 217.67
  L 205.81 217.11
  C 212.92 213.50 214.44 207.40 216.00 200.61
  Q 216.27 199.43 217.30 200.07
  Q 217.41 200.15 217.57 200.89
  Q 218.24 204.11 219.12 207.28
  C 222.12 217.97 229.28 218.53 238.50 221.09
  Z"
/>
<path fill="#5a4535" d="
  M 164.07 203.51
  L 163.77 204.05
  Q 163.41 204.69 164.14 204.62
  Q 167.47 204.27 169.59 205.90
  L 144.04 202.63
  Q 142.82 202.93 143.11 201.05
  L 164.07 203.51
  Z"
/>
<path fill="#c1fbff" d="
  M 150.73 210.52
  Q 150.86 210.93 150.54 211.08
  L 140.16 209.38
  Q 139.65 209.30 139.46 209.77
  Q 138.39 212.32 135.97 213.64
  A 1.25 1.22 35.1 0 1 135.18 213.77
  L 123.80 212.10
  A 0.40 0.39 17.0 0 1 123.50 211.54
  L 127.35 203.34
  A 0.83 0.83 0.0 0 1 128.12 202.86
  L 140.06 202.90
  A 0.64 0.64 0.0 0 1 140.67 203.35
  L 142.12 208.09
  Q 142.27 208.55 142.74 208.66
  L 150.73 210.52
  Z"
/>
<path fill="#4ab8c1" d="
  M 144.04 202.63
  L 169.59 205.90
  L 181.05 218.44
  Q 181.40 218.83 181.35 219.35
  L 179.88 234.19
  Q 179.82 234.79 179.29 234.51
  L 139.36 214.19
  Q 138.81 213.91 139.15 213.39
  C 141.39 209.98 144.16 212.39 146.83 212.62
  Q 157.16 213.52 162.01 214.38
  Q 168.92 215.61 174.12 215.56
  Q 174.80 215.56 174.22 215.19
  Q 172.11 213.85 169.74 213.26
  Q 157.22 210.12 144.76 206.78
  Q 144.28 206.65 144.06 206.20
  Q 143.05 204.11 144.04 202.63
  Z"
/>
<path fill="#62abb1" d="
  M 150.73 210.52
  L 154.04 211.27
  Q 154.50 211.38 154.15 211.69
  Q 153.86 211.93 153.26 211.76
  Q 151.92 211.38 150.54 211.08
  Q 150.86 210.93 150.73 210.52
  Z"
/>
<path fill="#62abb1" d="
  M 139.52 216.55
  Q 158.94 226.10 178.18 236.04
  Q 178.78 236.34 178.30 236.81
  L 161.37 253.57
  Q 160.68 254.25 160.02 253.54
  L 123.58 214.52
  A 0.38 0.38 0.0 0 1 123.92 213.88
  L 138.33 216.18
  Q 138.95 216.27 139.52 216.55
  Z"
/>
<path fill="#3c8393" d="
  M 183.70 221.38
  L 197.01 236.21
  A 0.33 0.33 0.0 0 1 196.85 236.75
  L 190.69 238.39
  A 0.33 0.33 0.0 0 1 190.51 238.38
  L 182.08 235.71
  A 0.33 0.33 0.0 0 1 181.85 235.37
  L 183.12 221.57
  A 0.33 0.33 0.0 0 1 183.70 221.38
  Z"
/>
<path fill="#3c8393" d="
  M 236.74 222.23
  Q 235.74 227.60 229.30 225.29
  L 236.74 222.23
  Z"
/>
<path fill="#286b7a" d="
  M 188.73 240.47
  C 182.94 244.32 180.10 248.60 176.73 254.42
  L 164.72 254.06
  A 0.53 0.53 0.0 0 1 164.37 253.15
  L 180.11 238.07
  A 1.88 1.85 26.0 0 1 181.62 237.56
  Q 185.80 238.06 188.73 240.47
  Z"
/>
<path fill="#e2c99a" d="
  M 199.47 238.37
  Q 198.72 239.90 195.83 238.91
  L 199.47 238.37
  Z"
/>
<path fill="#e2c99a" d="
  M 222.02 284.25
  Q 222.41 296.00 210.51 297.58
  Q 205.60 298.22 202.29 299.87
  C 190.44 305.80 173.72 312.36 161.71 307.92
  Q 154.84 305.38 149.57 299.93
  Q 149.12 299.46 149.76 299.45
  C 159.09 299.27 167.55 297.02 176.37 294.20
  C 182.29 292.31 188.27 295.59 194.29 295.18
  C 208.58 294.23 214.98 286.03 222.79 275.30
  Q 223.12 274.84 223.58 275.17
  C 228.19 278.49 237.16 282.24 242.63 279.53
  C 246.18 277.77 248.38 273.76 249.80 270.27
  A 1.38 1.38 0.0 0 1 251.28 269.43
  C 266.56 271.65 278.74 270.28 280.99 251.57
  A 0.59 0.59 0.0 0 1 282.10 251.37
  C 286.20 259.16 290.43 268.08 297.32 273.71
  C 307.22 281.80 315.10 277.24 323.45 270.35
  A 1.67 1.66 -67.4 0 1 324.34 269.98
  Q 335.03 268.97 338.49 268.06
  C 348.95 265.30 354.08 256.61 356.97 247.18
  A 0.63 0.63 0.0 0 1 357.99 246.90
  C 370.40 258.08 384.35 271.12 402.53 265.22
  A 0.65 0.65 0.0 0 1 403.27 266.20
  Q 399.21 272.22 392.70 275.19
  C 384.25 279.03 375.59 270.43 370.39 264.53
  A 1.02 1.02 0.0 0 0 368.61 265.16
  Q 368.13 276.85 357.80 280.97
  C 354.52 282.27 350.73 281.99 347.21 281.74
  A 1.52 1.52 0.0 0 0 345.84 282.39
  Q 341.12 289.18 333.07 289.52
  C 329.73 289.66 325.52 288.42 321.83 287.80
  A 1.67 1.66 38.6 0 0 320.92 287.90
  C 311.80 291.63 304.11 294.84 295.60 287.40
  Q 291.33 283.68 287.69 279.53
  A 1.30 1.30 0.0 0 0 285.68 279.59
  Q 282.08 284.22 276.77 286.87
  Q 273.26 288.62 269.48 288.32
  Q 265.61 288.01 261.97 286.52
  A 1.62 1.61 -61.7 0 0 260.02 287.11
  C 259.15 288.39 258.12 289.53 256.71 290.37
  C 247.50 295.89 237.16 301.44 228.58 290.91
  Q 225.82 287.52 223.22 283.85
  A 0.66 0.66 0.0 0 0 222.02 284.25
  Z"
/>
<path fill="#e3d6c7" d="
  M 394.47 277.00
  C 393.46 282.79 383.47 284.74 379.05 282.79
  A 1.83 1.82 -55.3 0 0 377.02 283.16
  C 370.31 289.81 359.86 293.70 350.94 296.33
  Q 338.02 300.15 325.44 295.44
  C 324.59 295.13 323.82 295.39 323.09 295.73
  Q 309.05 302.21 293.87 301.09
  C 287.02 300.59 280.47 297.89 274.47 294.62
  A 1.64 1.63 -51.0 0 0 272.62 294.82
  C 264.57 301.68 256.83 305.44 246.09 302.01
  Q 245.61 301.86 245.19 302.16
  C 237.40 307.79 229.43 313.90 220.51 316.22
  C 212.09 318.42 200.31 315.52 191.68 313.08
  Q 191.18 312.94 190.71 313.13
  C 182.57 316.42 172.69 321.12 167.52 312.13
  A 0.58 0.58 0.0 0 1 168.02 311.26
  C 180.84 311.11 192.87 306.61 204.22 300.86
  Q 206.45 299.73 209.00 299.44
  C 216.35 298.58 221.90 295.97 223.54 288.20
  Q 223.68 287.52 224.08 288.09
  C 232.14 299.57 240.53 301.07 252.81 294.57
  Q 257.46 292.10 261.37 288.51
  A 1.20 1.20 0.0 0 1 262.72 288.32
  C 271.80 292.80 280.00 288.13 286.26 281.65
  A 0.87 0.87 0.0 0 1 287.53 281.68
  C 294.12 289.20 301.94 295.86 312.74 292.71
  Q 314.78 292.12 320.86 289.71
  Q 321.32 289.53 321.80 289.60
  C 326.02 290.27 330.87 291.51 334.73 291.01
  Q 341.81 290.10 346.75 284.06
  Q 347.36 283.33 348.35 283.59
  Q 349.47 283.90 349.82 283.90
  Q 366.46 284.12 370.18 268.11
  Q 370.29 267.63 370.62 267.98
  C 376.42 273.90 385.35 280.97 393.82 276.53
  A 0.45 0.45 0.0 0 1 394.47 277.00
  Z"
/>
</svg>
