<?xml version="1.0" encoding="UTF-8" standalone="no"?>
<!DOCTYPE svg PUBLIC "-//W3C//DTD SVG 1.1//EN" "http://www.w3.org/Graphics/SVG/1.1/DTD/svg11.dtd">
<svg xmlns="http://www.w3.org/2000/svg" version="1.1" viewBox="0.00 0.00 1241.00 1689.00">
<path fill="#63abb0" d="
  M 1241.00 111.27
  L 1241.00 1689.00
  L 0.74 1689.00
  Q 0.74 1253.38 0.74 817.75
  Q 0.74 817.18 0.00 815.88
  L 0.00 98.96
  C 12.57 108.56 25.12 118.62 39.61 125.20
  Q 42.51 126.51 45.59 126.61
  C 84.80 127.83 108.65 97.50 136.42 75.70
  Q 165.66 52.75 201.87 55.77
  C 244.90 59.36 277.81 90.75 310.46 114.35
  C 315.88 118.27 328.51 126.71 335.53 126.63
  C 371.03 126.22 394.45 98.94 419.31 78.56
  C 465.36 40.81 516.21 54.07 559.71 86.51
  Q 577.54 99.81 595.32 113.18
  C 601.35 117.72 614.38 126.52 622.34 126.67
  C 646.69 127.12 665.72 115.89 683.45 100.43
  C 698.51 87.29 707.70 78.68 721.37 69.87
  C 747.88 52.79 778.74 51.71 807.77 62.78
  C 834.48 72.97 857.47 92.11 881.90 110.86
  C 887.25 114.96 904.19 126.93 910.97 126.43
  C 945.82 123.88 966.45 96.63 994.42 75.66
  Q 1038.33 42.75 1089.80 63.18
  Q 1109.47 70.98 1128.37 84.93
  Q 1148.62 99.87 1168.78 114.99
  Q 1175.86 120.30 1187.05 125.27
  Q 1189.92 126.54 1192.93 126.62
  Q 1216.00 127.18 1235.38 114.59
  Q 1238.15 112.79 1241.00 111.27
  Z"
/>
</svg>
