<?xml version="1.0" encoding="UTF-8" standalone="no"?>
<!DOCTYPE svg PUBLIC "-//W3C//DTD SVG 1.1//EN" "http://www.w3.org/Graphics/SVG/1.1/DTD/svg11.dtd">
<svg xmlns="http://www.w3.org/2000/svg" version="1.1" viewBox="0.00 0.00 3066.00 683.00">
<g stroke-width="2.00" fill="none" stroke-linecap="butt">
<path stroke="#b38c4f" vector-effect="non-scaling-stroke" d="
  M 621.38 155.22
  A 0.34 0.34 0.0 0 1 621.15 155.00
  L 590.48 60.35
  A 0.34 0.34 0.0 0 0 589.88 60.26
  L 533.52 142.03
  A 0.34 0.34 0.0 0 1 533.24 142.18
  L 433.37 142.17
  A 0.34 0.34 0.0 0 0 433.10 142.72
  L 494.26 221.68
  A 0.34 0.34 0.0 0 1 494.31 221.99
  L 463.68 316.09
  A 0.34 0.34 0.0 0 0 464.12 316.51
  L 557.53 283.58
  A 0.34 0.34 0.0 0 1 557.84 283.63
  L 638.21 342.91
  A 0.34 0.34 0.0 0 0 638.75 342.62
  L 636.18 242.87
  A 0.34 0.34 0.0 0 1 636.32 242.58
  L 716.85 184.20
  A 0.34 0.34 0.0 0 0 716.75 183.60
  L 621.38 155.22"
/>
<path stroke="#af9d83" vector-effect="non-scaling-stroke" d="
  M 390.31 375.16
  C 389.68 328.77 385.59 283.02 373.94 238.64
  C 364.80 203.86 349.05 168.98 325.10 142.14
  C 271.37 81.94 189.64 78.04 116.47 95.71
  Q 56.31 110.24 1.71 139.23
  Q 1.21 139.49 1.21 140.05
  L 1.21 267.45
  A 0.26 0.26 0.0 0 0 1.59 267.68
  Q 31.11 251.94 63.01 241.34
  C 133.66 217.87 220.26 210.60 271.26 278.26
  C 293.86 308.23 305.68 345.28 311.26 381.99
  Q 317.13 420.61 316.98 459.65
  Q 316.98 460.15 317.45 459.99
  Q 341.93 451.79 369.13 448.67
  C 423.73 442.41 475.74 454.63 514.28 495.11
  C 535.43 517.32 550.75 546.98 559.20 576.36
  A 0.99 0.99 0.0 0 0 560.38 577.05
  Q 607.55 565.51 656.01 567.64
  C 708.27 569.94 756.09 589.86 775.75 641.85
  A 0.74 0.74 0.0 0 0 776.76 642.26
  C 794.35 633.98 818.24 628.43 837.38 632.96
  C 860.68 638.48 872.43 658.59 875.67 681.29
  Q 875.74 681.79 876.25 681.79
  L 1065.00 681.79
  A 0.56 0.55 89.5 0 0 1065.55 681.22
  C 1064.59 638.13 1033.79 619.40 995.24 614.51
  Q 981.03 612.71 966.89 613.73
  A 0.91 0.90 -13.3 0 1 966.00 613.18
  Q 958.23 594.95 946.64 578.59
  C 911.05 528.35 854.50 508.24 794.51 509.88
  Q 746.85 511.18 701.79 526.46
  A 0.33 0.33 0.0 0 1 701.38 526.26
  Q 667.88 436.28 581.68 397.48
  C 551.14 383.73 517.27 376.04 483.50 373.05
  Q 436.04 368.85 390.74 375.52
  Q 390.31 375.59 390.31 375.16"
/>
<path stroke="#ae5840" vector-effect="non-scaling-stroke" d="
  M 388.83 306.38
  Q 389.17 309.60 389.52 312.57
  A 0.52 0.51 70.6 0 0 390.31 312.95
  L 480.46 254.22
  Q 481.06 253.83 481.28 253.15
  L 491.11 223.00
  A 1.10 1.08 35.9 0 0 490.94 222.00
  L 470.70 195.52
  A 0.51 0.50 -33.7 0 0 470.04 195.39
  L 380.07 250.66
  A 0.61 0.59 68.4 0 0 379.80 251.30
  Q 385.84 278.69 388.83 306.38"
/>
<path stroke="#a89170" vector-effect="non-scaling-stroke" d="
  M 557.94 579.27
  C 549.70 551.63 536.62 524.56 517.85 502.53
  C 467.19 443.06 384.35 438.47 315.21 463.30
  Q 314.69 463.49 314.69 462.92
  Q 315.24 421.32 308.68 380.26
  C 303.23 346.13 292.28 311.51 272.92 284.06
  C 208.86 193.23 81.16 227.06 1.67 270.49
  A 0.92 0.91 75.6 0 0 1.20 271.29
  L 1.20 413.76
  A 0.62 0.62 0.0 0 0 1.83 414.38
  C 53.19 413.65 98.26 440.02 119.09 487.62
  C 132.61 518.53 136.52 553.82 134.99 588.17
  Q 134.91 589.84 135.94 588.53
  Q 145.56 576.20 160.05 568.32
  Q 183.62 555.50 206.26 569.38
  Q 206.70 569.65 207.12 569.37
  C 240.47 546.84 295.21 523.58 332.68 550.82
  C 352.69 565.36 363.57 593.60 367.56 617.44
  A 0.45 0.45 0.0 0 0 368.23 617.75
  Q 384.93 607.71 404.24 604.09
  C 455.11 594.56 468.77 642.80 470.13 681.23
  A 0.58 0.58 0.0 0 0 470.71 681.79
  L 872.72 681.78
  Q 873.25 681.78 873.18 681.26
  C 871.50 668.77 866.36 655.50 857.64 646.68
  C 836.71 625.51 798.65 633.92 775.07 645.45
  A 0.54 0.53 -22.3 0 1 774.32 645.14
  C 761.48 606.55 730.73 583.93 692.07 574.98
  Q 675.64 571.18 665.99 570.43
  Q 611.53 566.19 558.63 579.65
  Q 558.10 579.79 557.94 579.27"
/>
<path stroke="#b28140" vector-effect="non-scaling-stroke" d="
  M 459.38 320.32
  L 479.43 258.73
  Q 479.61 258.18 479.12 258.49
  L 390.10 316.36
  A 0.51 0.50 -19.9 0 0 389.87 316.83
  Q 392.10 344.62 392.36 372.51
  Q 392.36 373.16 393.01 373.07
  Q 411.93 370.32 431.01 369.38
  Q 431.57 369.35 432.01 369.00
  Q 471.89 336.85 510.71 303.43
  A 0.21 0.20 -74.8 0 0 510.51 303.08
  L 459.95 320.88
  Q 459.10 321.18 459.38 320.32"
/>
<path stroke="#647b6f" vector-effect="non-scaling-stroke" d="
  M 516.32 302.29
  C 486.48 328.09 461.59 348.46 436.96 368.65
  Q 436.43 369.09 437.11 369.07
  Q 477.75 368.26 517.78 375.25
  Q 518.46 375.36 518.97 374.90
  L 589.69 311.49
  A 0.70 0.70 0.0 0 0 589.63 310.40
  L 557.78 287.20
  A 1.58 1.55 -36.1 0 0 556.36 286.99
  Q 538.43 293.10 521.12 299.45
  Q 518.47 300.42 516.32 302.29"
/>
<path stroke="#a27d54" vector-effect="non-scaling-stroke" d="
  M 132.41 596.32
  C 134.82 554.08 131.25 507.69 107.65 470.86
  C 84.53 434.79 44.13 415.96 1.69 416.76
  A 0.50 0.50 0.0 0 0 1.20 417.26
  L 1.19 681.23
  A 0.55 0.54 0.0 0 0 1.74 681.77
  L 467.02 681.77
  Q 467.76 681.77 467.73 681.04
  C 466.80 659.24 462.65 630.45 444.92 615.18
  C 423.08 596.37 388.44 607.30 366.74 621.51
  A 0.45 0.45 0.0 0 1 366.05 621.22
  C 357.87 578.64 338.35 537.02 286.49 540.79
  C 258.71 542.81 230.24 556.12 207.23 572.31
  Q 206.80 572.61 206.35 572.37
  Q 203.94 571.08 201.59 569.73
  C 174.90 554.36 147.42 575.04 132.82 596.46
  A 0.23 0.22 -26.1 0 1 132.41 596.32"
/>
<path stroke="#b38c4f" vector-effect="non-scaling-stroke" d="
  M 2349.22 183.62
  A 0.32 0.32 0.0 0 0 2349.13 184.18
  L 2429.69 242.57
  A 0.32 0.32 0.0 0 1 2429.83 242.84
  L 2427.25 342.68
  A 0.32 0.32 0.0 0 0 2427.76 342.94
  L 2508.16 283.63
  A 0.32 0.32 0.0 0 1 2508.46 283.59
  L 2601.92 316.50
  A 0.32 0.32 0.0 0 0 2602.33 316.10
  L 2571.68 221.96
  A 0.32 0.32 0.0 0 1 2571.73 221.67
  L 2632.93 142.70
  A 0.32 0.32 0.0 0 0 2632.68 142.18
  L 2532.80 142.18
  A 0.32 0.32 0.0 0 1 2532.53 142.04
  L 2476.13 60.22
  A 0.32 0.32 0.0 0 0 2475.56 60.31
  L 2444.85 155.03
  A 0.32 0.32 0.0 0 1 2444.64 155.24
  L 2349.22 183.62"
/>
<path stroke="#af9d83" vector-effect="non-scaling-stroke" d="
  M 2680.23 379.56
  Q 2630.76 372.00 2581.00 377.53
  C 2489.73 387.66 2412.38 432.23 2376.85 519.30
  Q 2375.09 523.61 2373.30 528.02
  Q 2373.09 528.53 2372.57 528.35
  C 2336.33 516.06 2297.10 509.94 2258.76 512.50
  C 2191.19 517.02 2138.82 551.52 2111.94 614.12
  Q 2111.73 614.62 2111.19 614.58
  C 2088.34 613.00 2060.29 616.47 2041.16 628.95
  Q 2013.67 646.87 2013.90 681.43
  Q 2013.90 681.79 2014.26 681.79
  L 2200.26 681.79
  A 0.72 0.72 0.0 0 0 2200.97 681.20
  Q 2202.08 675.56 2203.57 670.01
  C 2209.16 649.24 2224.58 634.22 2246.51 632.46
  C 2265.08 630.97 2282.03 635.50 2299.07 642.59
  Q 2299.59 642.80 2299.79 642.28
  Q 2315.78 599.44 2358.09 581.96
  Q 2380.31 572.78 2401.77 570.49
  Q 2456.82 564.61 2512.55 578.34
  Q 2513.10 578.47 2513.28 577.94
  Q 2515.42 571.71 2517.61 565.53
  C 2540.58 500.78 2588.80 455.98 2658.96 450.80
  Q 2706.83 447.27 2752.52 462.83
  Q 2753.01 462.99 2753.00 462.47
  Q 2752.80 425.67 2757.99 389.25
  C 2763.27 352.21 2774.96 313.81 2797.63 283.64
  C 2861.80 198.25 2986.84 231.14 3064.12 272.64
  A 0.46 0.46 0.0 0 0 3064.80 272.24
  L 3064.80 147.01
  A 1.33 1.33 0.0 0 0 3064.08 145.83
  C 3017.95 121.44 2967.56 103.68 2915.51 96.44
  C 2886.66 92.43 2855.88 92.69 2827.73 99.62
  Q 2765.46 114.96 2729.51 169.20
  Q 2715.01 191.09 2706.50 213.74
  C 2686.92 265.91 2680.86 323.27 2680.77 379.10
  Q 2680.76 379.64 2680.23 379.56"
/>
<path stroke="#ae5840" vector-effect="non-scaling-stroke" d="
  M 2582.91 247.58
  C 2583.99 250.88 2583.98 253.04 2586.96 255.01
  Q 2633.57 285.87 2680.69 315.95
  A 0.54 0.53 18.9 0 0 2681.51 315.55
  Q 2684.40 284.66 2691.41 254.44
  A 0.91 0.90 22.1 0 0 2690.99 253.46
  Q 2643.10 224.99 2596.04 195.18
  A 0.41 0.41 0.0 0 0 2595.50 195.27
  L 2575.23 221.77
  A 1.60 1.57 -35.5 0 0 2574.98 223.21
  Q 2578.95 235.43 2582.91 247.58"
/>
<path stroke="#a89170" vector-effect="non-scaling-stroke" d="
  M 2514.99 580.82
  Q 2514.87 581.23 2514.45 581.13
  C 2444.22 563.23 2330.79 558.15 2301.25 645.77
  Q 2301.07 646.31 2300.56 646.06
  C 2261.42 627.29 2211.32 625.89 2203.63 681.34
  Q 2203.57 681.78 2204.02 681.78
  L 2600.74 681.78
  Q 2601.77 681.78 2601.78 680.76
  C 2602.13 659.98 2607.07 633.65 2621.41 617.92
  C 2642.55 594.74 2678.63 604.47 2702.35 618.50
  A 0.37 0.37 0.0 0 0 2702.91 618.24
  C 2706.91 595.40 2716.76 568.98 2734.87 554.31
  C 2771.87 524.35 2827.58 547.86 2861.53 570.80
  Q 2861.94 571.08 2862.37 570.82
  C 2888.82 554.70 2914.62 568.54 2932.05 589.82
  Q 2932.51 590.38 2932.51 589.66
  Q 2932.48 579.44 2932.58 569.26
  C 2932.92 535.45 2940.10 498.60 2959.04 470.28
  C 2982.67 434.96 3021.96 417.63 3064.17 417.66
  Q 3064.80 417.66 3064.80 417.04
  L 3064.79 276.46
  Q 3064.79 275.90 3064.32 275.59
  Q 3062.97 274.72 3061.54 273.97
  Q 3029.30 257.05 2994.57 246.19
  C 2954.71 233.73 2913.26 227.22 2873.02 236.84
  C 2817.01 250.23 2784.37 294.73 2769.44 347.80
  Q 2757.75 389.35 2755.92 432.52
  Q 2754.96 454.90 2755.04 465.59
  Q 2755.05 466.14 2754.53 465.96
  C 2719.15 453.43 2677.87 447.93 2641.46 454.94
  Q 2574.18 467.89 2538.40 527.18
  Q 2523.13 552.49 2514.99 580.82"
/>
<path stroke="#b28140" vector-effect="non-scaling-stroke" d="
  M 2606.13 320.94
  L 2555.49 303.11
  A 0.21 0.20 74.9 0 0 2555.29 303.46
  Q 2596.47 338.79 2638.72 372.85
  A 1.86 1.85 65.0 0 0 2639.81 373.25
  Q 2658.99 373.88 2677.97 376.82
  A 0.55 0.53 -85.5 0 0 2678.59 376.28
  Q 2678.45 348.31 2680.99 320.45
  A 1.27 1.27 0.0 0 0 2680.42 319.27
  L 2586.93 258.54
  Q 2586.33 258.16 2586.55 258.83
  L 2606.67 320.41
  Q 2606.93 321.22 2606.13 320.94"
/>
<path stroke="#647b6f" vector-effect="non-scaling-stroke" d="
  M 2544.32 299.16
  Q 2527.72 293.33 2509.76 286.96
  A 1.63 1.61 36.7 0 0 2508.26 287.17
  L 2476.28 310.41
  A 0.67 0.67 0.0 0 0 2476.22 311.45
  L 2551.90 379.22
  A 0.76 0.76 0.0 0 0 2552.55 379.40
  Q 2592.55 372.04 2633.23 373.01
  A 0.47 0.46 -24.9 0 0 2633.54 372.18
  Q 2589.81 337.18 2547.63 300.84
  Q 2546.60 299.96 2544.32 299.16"
/>
<path stroke="#a27d54" vector-effect="non-scaling-stroke" d="
  M 2934.85 597.50
  Q 2925.62 584.08 2911.24 574.32
  Q 2886.78 557.73 2862.27 573.60
  Q 2861.83 573.88 2861.41 573.59
  C 2836.38 556.33 2800.12 539.46 2769.25 542.62
  C 2728.04 546.84 2710.11 586.10 2704.59 622.08
  Q 2704.50 622.65 2704.01 622.34
  C 2678.74 606.35 2639.68 594.53 2618.65 624.82
  C 2607.81 640.44 2604.62 663.16 2604.17 681.41
  Q 2604.16 681.77 2604.52 681.77
  L 3064.26 681.77
  A 0.53 0.53 0.0 0 0 3064.79 681.24
  L 3064.79 420.76
  A 0.75 0.75 0.0 0 0 3064.05 420.01
  Q 3044.76 419.58 3026.01 424.84
  C 2964.02 442.20 2937.58 499.61 2935.12 559.26
  Q 2934.34 578.30 2935.23 597.37
  Q 2935.26 598.10 2934.85 597.50"
/>
</g>
<path fill="#6e5845" d="
  M 1067.45 683.00
  L 0.00 683.00
  L 0.00 137.41
  Q 59.84 105.36 126.24 91.04
  Q 169.85 81.63 211.98 84.98
  C 257.03 88.56 299.62 108.44 329.16 143.10
  C 354.11 172.37 369.98 209.86 378.69 247.19
  A 0.69 0.69 0.0 0 0 379.73 247.62
  L 468.39 193.13
  A 0.74 0.74 0.0 0 0 468.59 192.05
  L 429.38 140.82
  A 0.24 0.24 0.0 0 1 429.57 140.43
  L 531.76 140.43
  A 1.00 0.99 -72.0 0 0 532.57 140.01
  L 590.38 56.17
  Q 590.86 55.48 591.12 56.28
  L 622.53 153.21
  Q 622.68 153.66 623.14 153.80
  L 720.97 182.92
  A 0.34 0.34 0.0 0 1 721.07 183.52
  L 638.41 243.46
  Q 638.00 243.76 638.01 244.27
  L 640.58 345.79
  A 0.55 0.55 0.0 0 1 639.71 346.25
  L 593.36 312.50
  Q 592.99 312.23 592.65 312.54
  L 522.18 375.81
  Q 521.82 376.13 522.29 376.23
  Q 551.15 382.12 575.28 392.03
  Q 667.03 429.71 702.76 523.06
  Q 702.96 523.57 703.48 523.40
  Q 759.58 504.67 817.21 507.86
  C 868.34 510.68 916.07 532.77 946.85 574.64
  Q 959.04 591.23 967.68 610.76
  Q 967.88 611.21 968.37 611.18
  Q 981.87 610.35 997.99 612.46
  C 1031.85 616.88 1060.78 633.24 1066.94 669.50
  Q 1068.23 677.08 1067.45 683.00
  Z
  M 621.38 155.22
  A 0.34 0.34 0.0 0 1 621.15 155.00
  L 590.48 60.35
  A 0.34 0.34 0.0 0 0 589.88 60.26
  L 533.52 142.03
  A 0.34 0.34 0.0 0 1 533.24 142.18
  L 433.37 142.17
  A 0.34 0.34 0.0 0 0 433.10 142.72
  L 494.26 221.68
  A 0.34 0.34 0.0 0 1 494.31 221.99
  L 463.68 316.09
  A 0.34 0.34 0.0 0 0 464.12 316.51
  L 557.53 283.58
  A 0.34 0.34 0.0 0 1 557.84 283.63
  L 638.21 342.91
  A 0.34 0.34 0.0 0 0 638.75 342.62
  L 636.18 242.87
  A 0.34 0.34 0.0 0 1 636.32 242.58
  L 716.85 184.20
  A 0.34 0.34 0.0 0 0 716.75 183.60
  L 621.38 155.22
  Z
  M 390.31 375.16
  C 389.68 328.77 385.59 283.02 373.94 238.64
  C 364.80 203.86 349.05 168.98 325.10 142.14
  C 271.37 81.94 189.64 78.04 116.47 95.71
  Q 56.31 110.24 1.71 139.23
  Q 1.21 139.49 1.21 140.05
  L 1.21 267.45
  A 0.26 0.26 0.0 0 0 1.59 267.68
  Q 31.11 251.94 63.01 241.34
  C 133.66 217.87 220.26 210.60 271.26 278.26
  C 293.86 308.23 305.68 345.28 311.26 381.99
  Q 317.13 420.61 316.98 459.65
  Q 316.98 460.15 317.45 459.99
  Q 341.93 451.79 369.13 448.67
  C 423.73 442.41 475.74 454.63 514.28 495.11
  C 535.43 517.32 550.75 546.98 559.20 576.36
  A 0.99 0.99 0.0 0 0 560.38 577.05
  Q 607.55 565.51 656.01 567.64
  C 708.27 569.94 756.09 589.86 775.75 641.85
  A 0.74 0.74 0.0 0 0 776.76 642.26
  C 794.35 633.98 818.24 628.43 837.38 632.96
  C 860.68 638.48 872.43 658.59 875.67 681.29
  Q 875.74 681.79 876.25 681.79
  L 1065.00 681.79
  A 0.56 0.55 89.5 0 0 1065.55 681.22
  C 1064.59 638.13 1033.79 619.40 995.24 614.51
  Q 981.03 612.71 966.89 613.73
  A 0.91 0.90 -13.3 0 1 966.00 613.18
  Q 958.23 594.95 946.64 578.59
  C 911.05 528.35 854.50 508.24 794.51 509.88
  Q 746.85 511.18 701.79 526.46
  A 0.33 0.33 0.0 0 1 701.38 526.26
  Q 667.88 436.28 581.68 397.48
  C 551.14 383.73 517.27 376.04 483.50 373.05
  Q 436.04 368.85 390.74 375.52
  Q 390.31 375.59 390.31 375.16
  Z
  M 388.83 306.38
  Q 389.17 309.60 389.52 312.57
  A 0.52 0.51 70.6 0 0 390.31 312.95
  L 480.46 254.22
  Q 481.06 253.83 481.28 253.15
  L 491.11 223.00
  A 1.10 1.08 35.9 0 0 490.94 222.00
  L 470.70 195.52
  A 0.51 0.50 -33.7 0 0 470.04 195.39
  L 380.07 250.66
  A 0.61 0.59 68.4 0 0 379.80 251.30
  Q 385.84 278.69 388.83 306.38
  Z
  M 557.94 579.27
  C 549.70 551.63 536.62 524.56 517.85 502.53
  C 467.19 443.06 384.35 438.47 315.21 463.30
  Q 314.69 463.49 314.69 462.92
  Q 315.24 421.32 308.68 380.26
  C 303.23 346.13 292.28 311.51 272.92 284.06
  C 208.86 193.23 81.16 227.06 1.67 270.49
  A 0.92 0.91 75.6 0 0 1.20 271.29
  L 1.20 413.76
  A 0.62 0.62 0.0 0 0 1.83 414.38
  C 53.19 413.65 98.26 440.02 119.09 487.62
  C 132.61 518.53 136.52 553.82 134.99 588.17
  Q 134.91 589.84 135.94 588.53
  Q 145.56 576.20 160.05 568.32
  Q 183.62 555.50 206.26 569.38
  Q 206.70 569.65 207.12 569.37
  C 240.47 546.84 295.21 523.58 332.68 550.82
  C 352.69 565.36 363.57 593.60 367.56 617.44
  A 0.45 0.45 0.0 0 0 368.23 617.75
  Q 384.93 607.71 404.24 604.09
  C 455.11 594.56 468.77 642.80 470.13 681.23
  A 0.58 0.58 0.0 0 0 470.71 681.79
  L 872.72 681.78
  Q 873.25 681.78 873.18 681.26
  C 871.50 668.77 866.36 655.50 857.64 646.68
  C 836.71 625.51 798.65 633.92 775.07 645.45
  A 0.54 0.53 -22.3 0 1 774.32 645.14
  C 761.48 606.55 730.73 583.93 692.07 574.98
  Q 675.64 571.18 665.99 570.43
  Q 611.53 566.19 558.63 579.65
  Q 558.10 579.79 557.94 579.27
  Z
  M 459.38 320.32
  L 479.43 258.73
  Q 479.61 258.18 479.12 258.49
  L 390.10 316.36
  A 0.51 0.50 -19.9 0 0 389.87 316.83
  Q 392.10 344.62 392.36 372.51
  Q 392.36 373.16 393.01 373.07
  Q 411.93 370.32 431.01 369.38
  Q 431.57 369.35 432.01 369.00
  Q 471.89 336.85 510.71 303.43
  A 0.21 0.20 -74.8 0 0 510.51 303.08
  L 459.95 320.88
  Q 459.10 321.18 459.38 320.32
  Z
  M 516.32 302.29
  C 486.48 328.09 461.59 348.46 436.96 368.65
  Q 436.43 369.09 437.11 369.07
  Q 477.75 368.26 517.78 375.25
  Q 518.46 375.36 518.97 374.90
  L 589.69 311.49
  A 0.70 0.70 0.0 0 0 589.63 310.40
  L 557.78 287.20
  A 1.58 1.55 -36.1 0 0 556.36 286.99
  Q 538.43 293.10 521.12 299.45
  Q 518.47 300.42 516.32 302.29
  Z
  M 132.41 596.32
  C 134.82 554.08 131.25 507.69 107.65 470.86
  C 84.53 434.79 44.13 415.96 1.69 416.76
  A 0.50 0.50 0.0 0 0 1.20 417.26
  L 1.19 681.23
  A 0.55 0.54 0.0 0 0 1.74 681.77
  L 467.02 681.77
  Q 467.76 681.77 467.73 681.04
  C 466.80 659.24 462.65 630.45 444.92 615.18
  C 423.08 596.37 388.44 607.30 366.74 621.51
  A 0.45 0.45 0.0 0 1 366.05 621.22
  C 357.87 578.64 338.35 537.02 286.49 540.79
  C 258.71 542.81 230.24 556.12 207.23 572.31
  Q 206.80 572.61 206.35 572.37
  Q 203.94 571.08 201.59 569.73
  C 174.90 554.36 147.42 575.04 132.82 596.46
  A 0.23 0.22 -26.1 0 1 132.41 596.32
  Z"
/>
<path fill="#6e5845" d="
  M 3066.00 144.08
  L 3066.00 683.00
  L 2011.45 683.00
  Q 2011.17 679.21 2011.80 673.01
  C 2016.81 623.41 2068.27 609.40 2109.59 612.21
  Q 2110.11 612.24 2110.32 611.76
  C 2129.95 566.35 2165.31 532.67 2212.76 518.32
  C 2245.34 508.46 2279.92 507.56 2313.74 512.14
  Q 2343.72 516.20 2371.23 525.26
  Q 2371.73 525.43 2371.92 524.94
  C 2390.97 474.96 2424.85 433.74 2471.82 408.05
  Q 2507.30 388.64 2548.53 380.39
  Q 2549.19 380.26 2548.68 379.82
  Q 2510.55 346.53 2473.31 312.25
  Q 2473.16 312.12 2473.00 312.23
  L 2426.12 346.37
  A 0.45 0.45 0.0 0 1 2425.41 346.00
  L 2427.98 244.36
  A 1.16 1.15 -72.0 0 0 2427.50 243.40
  L 2345.29 183.79
  Q 2344.36 183.12 2345.46 182.79
  L 2442.87 153.79
  Q 2443.32 153.66 2443.46 153.22
  L 2474.89 56.28
  Q 2475.15 55.48 2475.63 56.18
  L 2533.14 139.59
  Q 2533.72 140.44 2534.74 140.44
  L 2636.23 140.43
  Q 2636.91 140.43 2636.50 140.97
  L 2597.58 191.83
  Q 2597.04 192.53 2597.79 193.00
  Q 2644.44 222.47 2691.84 250.71
  Q 2692.37 251.02 2692.52 250.42
  C 2700.85 215.81 2714.99 181.99 2737.09 154.39
  C 2787.68 91.22 2866.46 82.40 2940.98 98.36
  Q 3006.69 112.44 3066.00 144.08
  Z
  M 2349.22 183.62
  A 0.32 0.32 0.0 0 0 2349.13 184.18
  L 2429.69 242.57
  A 0.32 0.32 0.0 0 1 2429.83 242.84
  L 2427.25 342.68
  A 0.32 0.32 0.0 0 0 2427.76 342.94
  L 2508.16 283.63
  A 0.32 0.32 0.0 0 1 2508.46 283.59
  L 2601.92 316.50
  A 0.32 0.32 0.0 0 0 2602.33 316.10
  L 2571.68 221.96
  A 0.32 0.32 0.0 0 1 2571.73 221.67
  L 2632.93 142.70
  A 0.32 0.32 0.0 0 0 2632.68 142.18
  L 2532.80 142.18
  A 0.32 0.32 0.0 0 1 2532.53 142.04
  L 2476.13 60.22
  A 0.32 0.32 0.0 0 0 2475.56 60.31
  L 2444.85 155.03
  A 0.32 0.32 0.0 0 1 2444.64 155.24
  L 2349.22 183.62
  Z
  M 2680.23 379.56
  Q 2630.76 372.00 2581.00 377.53
  C 2489.73 387.66 2412.38 432.23 2376.85 519.30
  Q 2375.09 523.61 2373.30 528.02
  Q 2373.09 528.53 2372.57 528.35
  C 2336.33 516.06 2297.10 509.94 2258.76 512.50
  C 2191.19 517.02 2138.82 551.52 2111.94 614.12
  Q 2111.73 614.62 2111.19 614.58
  C 2088.34 613.00 2060.29 616.47 2041.16 628.95
  Q 2013.67 646.87 2013.90 681.43
  Q 2013.90 681.79 2014.26 681.79
  L 2200.26 681.79
  A 0.72 0.72 0.0 0 0 2200.97 681.20
  Q 2202.08 675.56 2203.57 670.01
  C 2209.16 649.24 2224.58 634.22 2246.51 632.46
  C 2265.08 630.97 2282.03 635.50 2299.07 642.59
  Q 2299.59 642.80 2299.79 642.28
  Q 2315.78 599.44 2358.09 581.96
  Q 2380.31 572.78 2401.77 570.49
  Q 2456.82 564.61 2512.55 578.34
  Q 2513.10 578.47 2513.28 577.94
  Q 2515.42 571.71 2517.61 565.53
  C 2540.58 500.78 2588.80 455.98 2658.96 450.80
  Q 2706.83 447.27 2752.52 462.83
  Q 2753.01 462.99 2753.00 462.47
  Q 2752.80 425.67 2757.99 389.25
  C 2763.27 352.21 2774.96 313.81 2797.63 283.64
  C 2861.80 198.25 2986.84 231.14 3064.12 272.64
  A 0.46 0.46 0.0 0 0 3064.80 272.24
  L 3064.80 147.01
  A 1.33 1.33 0.0 0 0 3064.08 145.83
  C 3017.95 121.44 2967.56 103.68 2915.51 96.44
  C 2886.66 92.43 2855.88 92.69 2827.73 99.62
  Q 2765.46 114.96 2729.51 169.20
  Q 2715.01 191.09 2706.50 213.74
  C 2686.92 265.91 2680.86 323.27 2680.77 379.10
  Q 2680.76 379.64 2680.23 379.56
  Z
  M 2582.91 247.58
  C 2583.99 250.88 2583.98 253.04 2586.96 255.01
  Q 2633.57 285.87 2680.69 315.95
  A 0.54 0.53 18.9 0 0 2681.51 315.55
  Q 2684.40 284.66 2691.41 254.44
  A 0.91 0.90 22.1 0 0 2690.99 253.46
  Q 2643.10 224.99 2596.04 195.18
  A 0.41 0.41 0.0 0 0 2595.50 195.27
  L 2575.23 221.77
  A 1.60 1.57 -35.5 0 0 2574.98 223.21
  Q 2578.95 235.43 2582.91 247.58
  Z
  M 2514.99 580.82
  Q 2514.87 581.23 2514.45 581.13
  C 2444.22 563.23 2330.79 558.15 2301.25 645.77
  Q 2301.07 646.31 2300.56 646.06
  C 2261.42 627.29 2211.32 625.89 2203.63 681.34
  Q 2203.57 681.78 2204.02 681.78
  L 2600.74 681.78
  Q 2601.77 681.78 2601.78 680.76
  C 2602.13 659.98 2607.07 633.65 2621.41 617.92
  C 2642.55 594.74 2678.63 604.47 2702.35 618.50
  A 0.37 0.37 0.0 0 0 2702.91 618.24
  C 2706.91 595.40 2716.76 568.98 2734.87 554.31
  C 2771.87 524.35 2827.58 547.86 2861.53 570.80
  Q 2861.94 571.08 2862.37 570.82
  C 2888.82 554.70 2914.62 568.54 2932.05 589.82
  Q 2932.51 590.38 2932.51 589.66
  Q 2932.48 579.44 2932.58 569.26
  C 2932.92 535.45 2940.10 498.60 2959.04 470.28
  C 2982.67 434.96 3021.96 417.63 3064.17 417.66
  Q 3064.80 417.66 3064.80 417.04
  L 3064.79 276.46
  Q 3064.79 275.90 3064.32 275.59
  Q 3062.97 274.72 3061.54 273.97
  Q 3029.30 257.05 2994.57 246.19
  C 2954.71 233.73 2913.26 227.22 2873.02 236.84
  C 2817.01 250.23 2784.37 294.73 2769.44 347.80
  Q 2757.75 389.35 2755.92 432.52
  Q 2754.96 454.90 2755.04 465.59
  Q 2755.05 466.14 2754.53 465.96
  C 2719.15 453.43 2677.87 447.93 2641.46 454.94
  Q 2574.18 467.89 2538.40 527.18
  Q 2523.13 552.49 2514.99 580.82
  Z
  M 2606.13 320.94
  L 2555.49 303.11
  A 0.21 0.20 74.9 0 0 2555.29 303.46
  Q 2596.47 338.79 2638.72 372.85
  A 1.86 1.85 65.0 0 0 2639.81 373.25
  Q 2658.99 373.88 2677.97 376.82
  A 0.55 0.53 -85.5 0 0 2678.59 376.28
  Q 2678.45 348.31 2680.99 320.45
  A 1.27 1.27 0.0 0 0 2680.42 319.27
  L 2586.93 258.54
  Q 2586.33 258.16 2586.55 258.83
  L 2606.67 320.41
  Q 2606.93 321.22 2606.13 320.94
  Z
  M 2544.32 299.16
  Q 2527.72 293.33 2509.76 286.96
  A 1.63 1.61 36.7 0 0 2508.26 287.17
  L 2476.28 310.41
  A 0.67 0.67 0.0 0 0 2476.22 311.45
  L 2551.90 379.22
  A 0.76 0.76 0.0 0 0 2552.55 379.40
  Q 2592.55 372.04 2633.23 373.01
  A 0.47 0.46 -24.9 0 0 2633.54 372.18
  Q 2589.81 337.18 2547.63 300.84
  Q 2546.60 299.96 2544.32 299.16
  Z
  M 2934.85 597.50
  Q 2925.62 584.08 2911.24 574.32
  Q 2886.78 557.73 2862.27 573.60
  Q 2861.83 573.88 2861.41 573.59
  C 2836.38 556.33 2800.12 539.46 2769.25 542.62
  C 2728.04 546.84 2710.11 586.10 2704.59 622.08
  Q 2704.50 622.65 2704.01 622.34
  C 2678.74 606.35 2639.68 594.53 2618.65 624.82
  C 2607.81 640.44 2604.62 663.16 2604.17 681.41
  Q 2604.16 681.77 2604.52 681.77
  L 3064.26 681.77
  A 0.53 0.53 0.0 0 0 3064.79 681.24
  L 3064.79 420.76
  A 0.75 0.75 0.0 0 0 3064.05 420.01
  Q 3044.76 419.58 3026.01 424.84
  C 2964.02 442.20 2937.58 499.61 2935.12 559.26
  Q 2934.34 578.30 2935.23 597.37
  Q 2935.26 598.10 2934.85 597.50
  Z"
/>
<path fill="#f8c059" d="
  M 2349.22 183.62
  L 2444.64 155.24
  A 0.32 0.32 0.0 0 0 2444.85 155.03
  L 2475.56 60.31
  A 0.32 0.32 0.0 0 1 2476.13 60.22
  L 2532.53 142.04
  A 0.32 0.32 0.0 0 0 2532.80 142.18
  L 2632.68 142.18
  A 0.32 0.32 0.0 0 1 2632.93 142.70
  L 2571.73 221.67
  A 0.32 0.32 0.0 0 0 2571.68 221.96
  L 2602.33 316.10
  A 0.32 0.32 0.0 0 1 2601.92 316.50
  L 2508.46 283.59
  A 0.32 0.32 0.0 0 0 2508.16 283.63
  L 2427.76 342.94
  A 0.32 0.32 0.0 0 1 2427.25 342.68
  L 2429.83 242.84
  A 0.32 0.32 0.0 0 0 2429.69 242.57
  L 2349.13 184.18
  A 0.32 0.32 0.0 0 1 2349.22 183.62
  Z"
/>
<path fill="#f8c059" d="
  M 621.38 155.22
  L 716.75 183.60
  A 0.34 0.34 0.0 0 1 716.85 184.20
  L 636.32 242.58
  A 0.34 0.34 0.0 0 0 636.18 242.87
  L 638.75 342.62
  A 0.34 0.34 0.0 0 1 638.21 342.91
  L 557.84 283.63
  A 0.34 0.34 0.0 0 0 557.53 283.58
  L 464.12 316.51
  A 0.34 0.34 0.0 0 1 463.68 316.09
  L 494.31 221.99
  A 0.34 0.34 0.0 0 0 494.26 221.68
  L 433.10 142.72
  A 0.34 0.34 0.0 0 1 433.37 142.17
  L 533.24 142.18
  A 0.34 0.34 0.0 0 0 533.52 142.03
  L 589.88 60.26
  A 0.34 0.34 0.0 0 1 590.48 60.35
  L 621.15 155.00
  A 0.34 0.34 0.0 0 0 621.38 155.22
  Z"
/>
<path fill="#f0e1c1" d="
  M 390.74 375.52
  Q 436.04 368.85 483.50 373.05
  C 517.27 376.04 551.14 383.73 581.68 397.48
  Q 667.88 436.28 701.38 526.26
  A 0.33 0.33 0.0 0 0 701.79 526.46
  Q 746.85 511.18 794.51 509.88
  C 854.50 508.24 911.05 528.35 946.64 578.59
  Q 958.23 594.95 966.00 613.18
  A 0.91 0.90 -13.3 0 0 966.89 613.73
  Q 981.03 612.71 995.24 614.51
  C 1033.79 619.40 1064.59 638.13 1065.55 681.22
  A 0.56 0.55 89.5 0 1 1065.00 681.79
  L 876.25 681.79
  Q 875.74 681.79 875.67 681.29
  C 872.43 658.59 860.68 638.48 837.38 632.96
  C 818.24 628.43 794.35 633.98 776.76 642.26
  A 0.74 0.74 0.0 0 1 775.75 641.85
  C 756.09 589.86 708.27 569.94 656.01 567.64
  Q 607.55 565.51 560.38 577.05
  A 0.99 0.99 0.0 0 1 559.20 576.36
  C 550.75 546.98 535.43 517.32 514.28 495.11
  C 475.74 454.63 423.73 442.41 369.13 448.67
  Q 341.93 451.79 317.45 459.99
  Q 316.98 460.15 316.98 459.65
  Q 317.13 420.61 311.26 381.99
  C 305.68 345.28 293.86 308.23 271.26 278.26
  C 220.26 210.60 133.66 217.87 63.01 241.34
  Q 31.11 251.94 1.59 267.68
  A 0.26 0.26 0.0 0 1 1.21 267.45
  L 1.21 140.05
  Q 1.21 139.49 1.71 139.23
  Q 56.31 110.24 116.47 95.71
  C 189.64 78.04 271.37 81.94 325.10 142.14
  C 349.05 168.98 364.80 203.86 373.94 238.64
  C 385.59 283.02 389.68 328.77 390.31 375.16
  Q 390.31 375.59 390.74 375.52
  Z"
/>
<path fill="#f0e1c1" d="
  M 2680.77 379.10
  C 2680.86 323.27 2686.92 265.91 2706.50 213.74
  Q 2715.01 191.09 2729.51 169.20
  Q 2765.46 114.96 2827.73 99.62
  C 2855.88 92.69 2886.66 92.43 2915.51 96.44
  C 2967.56 103.68 3017.95 121.44 3064.08 145.83
  A 1.33 1.33 0.0 0 1 3064.80 147.01
  L 3064.80 272.24
  A 0.46 0.46 0.0 0 1 3064.12 272.64
  C 2986.84 231.14 2861.80 198.25 2797.63 283.64
  C 2774.96 313.81 2763.27 352.21 2757.99 389.25
  Q 2752.80 425.67 2753.00 462.47
  Q 2753.01 462.99 2752.52 462.83
  Q 2706.83 447.27 2658.96 450.80
  C 2588.80 455.98 2540.58 500.78 2517.61 565.53
  Q 2515.42 571.71 2513.28 577.94
  Q 2513.10 578.47 2512.55 578.34
  Q 2456.82 564.61 2401.77 570.49
  Q 2380.31 572.78 2358.09 581.96
  Q 2315.78 599.44 2299.79 642.28
  Q 2299.59 642.80 2299.07 642.59
  C 2282.03 635.50 2265.08 630.97 2246.51 632.46
  C 2224.58 634.22 2209.16 649.24 2203.57 670.01
  Q 2202.08 675.56 2200.97 681.20
  A 0.72 0.72 0.0 0 1 2200.26 681.79
  L 2014.26 681.79
  Q 2013.90 681.79 2013.90 681.43
  Q 2013.67 646.87 2041.16 628.95
  C 2060.29 616.47 2088.34 613.00 2111.19 614.58
  Q 2111.73 614.62 2111.94 614.12
  C 2138.82 551.52 2191.19 517.02 2258.76 512.50
  C 2297.10 509.94 2336.33 516.06 2372.57 528.35
  Q 2373.09 528.53 2373.30 528.02
  Q 2375.09 523.61 2376.85 519.30
  C 2412.38 432.23 2489.73 387.66 2581.00 377.53
  Q 2630.76 372.00 2680.23 379.56
  Q 2680.76 379.64 2680.77 379.10
  Z"
/>
<path fill="#ee583b" d="
  M 2582.91 247.58
  Q 2578.95 235.43 2574.98 223.21
  A 1.60 1.57 -35.5 0 1 2575.23 221.77
  L 2595.50 195.27
  A 0.41 0.41 0.0 0 1 2596.04 195.18
  Q 2643.10 224.99 2690.99 253.46
  A 0.91 0.90 22.1 0 1 2691.41 254.44
  Q 2684.40 284.66 2681.51 315.55
  A 0.54 0.53 18.9 0 1 2680.69 315.95
  Q 2633.57 285.87 2586.96 255.01
  C 2583.98 253.04 2583.99 250.88 2582.91 247.58
  Z"
/>
<path fill="#ee583b" d="
  M 388.83 306.38
  Q 385.84 278.69 379.80 251.30
  A 0.61 0.59 68.4 0 1 380.07 250.66
  L 470.04 195.39
  A 0.51 0.50 -33.7 0 1 470.70 195.52
  L 490.94 222.00
  A 1.10 1.08 35.9 0 1 491.11 223.00
  L 481.28 253.15
  Q 481.06 253.83 480.46 254.22
  L 390.31 312.95
  A 0.52 0.51 70.6 0 1 389.52 312.57
  Q 389.17 309.60 388.83 306.38
  Z"
/>
<path fill="#e2c99a" d="
  M 558.63 579.65
  Q 611.53 566.19 665.99 570.43
  Q 675.64 571.18 692.07 574.98
  C 730.73 583.93 761.48 606.55 774.32 645.14
  A 0.54 0.53 -22.3 0 0 775.07 645.45
  C 798.65 633.92 836.71 625.51 857.64 646.68
  C 866.36 655.50 871.50 668.77 873.18 681.26
  Q 873.25 681.78 872.72 681.78
  L 470.71 681.79
  A 0.58 0.58 0.0 0 1 470.13 681.23
  C 468.77 642.80 455.11 594.56 404.24 604.09
  Q 384.93 607.71 368.23 617.75
  A 0.45 0.45 0.0 0 1 367.56 617.44
  C 363.57 593.60 352.69 565.36 332.68 550.82
  C 295.21 523.58 240.47 546.84 207.12 569.37
  Q 206.70 569.65 206.26 569.38
  Q 183.62 555.50 160.05 568.32
  Q 145.56 576.20 135.94 588.53
  Q 134.91 589.84 134.99 588.17
  C 136.52 553.82 132.61 518.53 119.09 487.62
  C 98.26 440.02 53.19 413.65 1.83 414.38
  A 0.62 0.62 0.0 0 1 1.20 413.76
  L 1.20 271.29
  A 0.92 0.91 75.6 0 1 1.67 270.49
  C 81.16 227.06 208.86 193.23 272.92 284.06
  C 292.28 311.51 303.23 346.13 308.68 380.26
  Q 315.24 421.32 314.69 462.92
  Q 314.69 463.49 315.21 463.30
  C 384.35 438.47 467.19 443.06 517.85 502.53
  C 536.62 524.56 549.70 551.63 557.94 579.27
  Q 558.10 579.79 558.63 579.65
  Z"
/>
<path fill="#e2c99a" d="
  M 2514.99 580.82
  Q 2523.13 552.49 2538.40 527.18
  Q 2574.18 467.89 2641.46 454.94
  C 2677.87 447.93 2719.15 453.43 2754.53 465.96
  Q 2755.05 466.14 2755.04 465.59
  Q 2754.96 454.90 2755.92 432.52
  Q 2757.75 389.35 2769.44 347.80
  C 2784.37 294.73 2817.01 250.23 2873.02 236.84
  C 2913.26 227.22 2954.71 233.73 2994.57 246.19
  Q 3029.30 257.05 3061.54 273.97
  Q 3062.97 274.72 3064.32 275.59
  Q 3064.79 275.90 3064.79 276.46
  L 3064.80 417.04
  Q 3064.80 417.66 3064.17 417.66
  C 3021.96 417.63 2982.67 434.96 2959.04 470.28
  C 2940.10 498.60 2932.92 535.45 2932.58 569.26
  Q 2932.48 579.44 2932.51 589.66
  Q 2932.51 590.38 2932.05 589.82
  C 2914.62 568.54 2888.82 554.70 2862.37 570.82
  Q 2861.94 571.08 2861.53 570.80
  C 2827.58 547.86 2771.87 524.35 2734.87 554.31
  C 2716.76 568.98 2706.91 595.40 2702.91 618.24
  A 0.37 0.37 0.0 0 1 2702.35 618.50
  C 2678.63 604.47 2642.55 594.74 2621.41 617.92
  C 2607.07 633.65 2602.13 659.98 2601.78 680.76
  Q 2601.77 681.78 2600.74 681.78
  L 2204.02 681.78
  Q 2203.57 681.78 2203.63 681.34
  C 2211.32 625.89 2261.42 627.29 2300.56 646.06
  Q 2301.07 646.31 2301.25 645.77
  C 2330.79 558.15 2444.22 563.23 2514.45 581.13
  Q 2514.87 581.23 2514.99 580.82
  Z"
/>
<path fill="#f6aa3a" d="
  M 2606.67 320.41
  L 2586.55 258.83
  Q 2586.33 258.16 2586.93 258.54
  L 2680.42 319.27
  A 1.27 1.27 0.0 0 1 2680.99 320.45
  Q 2678.45 348.31 2678.59 376.28
  A 0.55 0.53 -85.5 0 1 2677.97 376.82
  Q 2658.99 373.88 2639.81 373.25
  A 1.86 1.85 65.0 0 1 2638.72 372.85
  Q 2596.47 338.79 2555.29 303.46
  A 0.21 0.20 74.9 0 1 2555.49 303.11
  L 2606.13 320.94
  Q 2606.93 321.22 2606.67 320.41
  Z"
/>
<path fill="#f6aa3a" d="
  M 459.95 320.88
  L 510.51 303.08
  A 0.21 0.20 -74.8 0 1 510.71 303.43
  Q 471.89 336.85 432.01 369.00
  Q 431.57 369.35 431.01 369.38
  Q 411.93 370.32 393.01 373.07
  Q 392.36 373.16 392.36 372.51
  Q 392.10 344.62 389.87 316.83
  A 0.51 0.50 -19.9 0 1 390.10 316.36
  L 479.12 258.49
  Q 479.61 258.18 479.43 258.73
  L 459.38 320.32
  Q 459.10 321.18 459.95 320.88
  Z"
/>
<path fill="#5a9e99" d="
  M 2544.32 299.16
  Q 2546.60 299.96 2547.63 300.84
  Q 2589.81 337.18 2633.54 372.18
  A 0.47 0.46 -24.9 0 1 2633.23 373.01
  Q 2592.55 372.04 2552.55 379.40
  A 0.76 0.76 0.0 0 1 2551.90 379.22
  L 2476.22 311.45
  A 0.67 0.67 0.0 0 1 2476.28 310.41
  L 2508.26 287.17
  A 1.63 1.61 36.7 0 1 2509.76 286.96
  Q 2527.72 293.33 2544.32 299.16
  Z"
/>
<path fill="#5a9e99" d="
  M 436.96 368.65
  C 461.59 348.46 486.48 328.09 516.32 302.29
  Q 518.47 300.42 521.12 299.45
  Q 538.43 293.10 556.36 286.99
  A 1.58 1.55 -36.1 0 1 557.78 287.20
  L 589.63 310.40
  A 0.70 0.70 0.0 0 1 589.69 311.49
  L 518.97 374.90
  Q 518.46 375.36 517.78 375.25
  Q 477.75 368.26 437.11 369.07
  Q 436.43 369.09 436.96 368.65
  Z"
/>
<path fill="#d6a163" d="
  M 132.41 596.32
  A 0.23 0.22 -26.1 0 0 132.82 596.46
  C 147.42 575.04 174.90 554.36 201.59 569.73
  Q 203.94 571.08 206.35 572.37
  Q 206.80 572.61 207.23 572.31
  C 230.24 556.12 258.71 542.81 286.49 540.79
  C 338.35 537.02 357.87 578.64 366.05 621.22
  A 0.45 0.45 0.0 0 0 366.74 621.51
  C 388.44 607.30 423.08 596.37 444.92 615.18
  C 462.65 630.45 466.80 659.24 467.73 681.04
  Q 467.76 681.77 467.02 681.77
  L 1.74 681.77
  A 0.55 0.54 -0.0 0 1 1.19 681.23
  L 1.20 417.26
  A 0.50 0.50 0.0 0 1 1.69 416.76
  C 44.13 415.96 84.53 434.79 107.65 470.86
  C 131.25 507.69 134.82 554.08 132.41 596.32
  Z"
/>
<path fill="#d6a163" d="
  M 2935.23 597.37
  Q 2934.34 578.30 2935.12 559.26
  C 2937.58 499.61 2964.02 442.20 3026.01 424.84
  Q 3044.76 419.58 3064.05 420.01
  A 0.75 0.75 0.0 0 1 3064.79 420.76
  L 3064.79 681.24
  A 0.53 0.53 0.0 0 1 3064.26 681.77
  L 2604.52 681.77
  Q 2604.16 681.77 2604.17 681.41
  C 2604.62 663.16 2607.81 640.44 2618.65 624.82
  C 2639.68 594.53 2678.74 606.35 2704.01 622.34
  Q 2704.50 622.65 2704.59 622.08
  C 2710.11 586.10 2728.04 546.84 2769.25 542.62
  C 2800.12 539.46 2836.38 556.33 2861.41 573.59
  Q 2861.83 573.88 2862.27 573.60
  Q 2886.78 557.73 2911.24 574.32
  Q 2925.62 584.08 2934.85 597.50
  Q 2935.26 598.10 2935.23 597.37
  Z"
/>
</svg>
