<?xml version="1.0" encoding="UTF-8" standalone="no"?>
<!DOCTYPE svg PUBLIC "-//W3C//DTD SVG 1.1//EN" "http://www.w3.org/Graphics/SVG/1.1/DTD/svg11.dtd">
<svg xmlns="http://www.w3.org/2000/svg" version="1.1" viewBox="0.00 0.00 3424.00 612.00">
<g stroke-width="2.00" fill="none" stroke-linecap="butt">
<path stroke="#af9d83" vector-effect="non-scaling-stroke" d="
  M 3080.04 341.34
  C 3030.00 333.87 2975.51 336.86 2927.75 354.04
  Q 2839.49 385.79 2806.26 473.78
  A 0.55 0.55 0.0 0 1 2805.57 474.10
  C 2758.22 457.85 2701.34 452.65 2654.00 470.53
  C 2616.39 484.73 2588.89 513.94 2573.07 550.63
  A 0.73 0.72 -75.7 0 1 2572.35 551.06
  C 2533.40 548.07 2485.27 562.17 2485.68 610.50
  Q 2485.68 610.82 2486.01 610.82
  L 2652.00 610.81
  A 0.78 0.77 3.8 0 0 2652.77 610.14
  C 2654.19 598.84 2658.86 587.15 2666.71 579.07
  C 2685.27 560.00 2718.05 565.85 2740.01 576.13
  A 0.56 0.55 -67.4 0 0 2740.77 575.81
  C 2768.20 499.55 2868.49 503.58 2930.57 518.57
  Q 2931.09 518.69 2931.25 518.18
  C 2947.95 463.03 2983.72 419.80 3041.89 407.53
  C 3075.31 400.48 3111.95 404.82 3144.17 415.41
  Q 3144.70 415.58 3144.70 415.02
  C 3144.76 339.51 3160.37 236.03 3248.82 212.94
  C 3274.94 206.12 3301.88 206.95 3328.50 212.27
  Q 3377.88 222.13 3422.17 245.91
  A 0.46 0.45 -76.1 0 0 3422.84 245.50
  L 3422.84 133.74
  Q 3422.84 133.27 3422.43 133.06
  Q 3368.78 104.33 3309.34 92.07
  C 3270.91 84.14 3228.86 83.64 3192.58 97.57
  C 3097.67 134.03 3080.15 254.01 3080.60 340.86
  Q 3080.60 341.43 3080.04 341.34"
/>
<path stroke="#a89170" vector-effect="non-scaling-stroke" d="
  M 2741.34 578.98
  C 2722.20 569.88 2694.30 562.84 2674.75 574.94
  C 2662.97 582.22 2656.71 597.27 2654.95 610.51
  A 0.27 0.27 0.0 0 0 2655.22 610.82
  L 3009.28 610.82
  A 0.70 0.69 -89.6 0 0 3009.97 610.13
  C 3010.32 588.17 3016.48 557.03 3038.36 545.79
  C 3056.89 536.27 3082.38 544.30 3099.54 554.50
  A 0.45 0.45 0.0 0 0 3100.21 554.20
  C 3107.69 515.24 3128.25 480.51 3173.99 485.33
  C 3198.28 487.89 3221.87 498.40 3241.72 511.98
  Q 3242.12 512.25 3242.53 511.99
  C 3265.82 496.92 3289.03 510.54 3304.45 528.73
  A 0.39 0.39 0.0 0 0 3305.13 528.46
  C 3303.22 492.43 3308.65 453.03 3328.05 423.31
  C 3348.69 391.68 3384.49 374.93 3422.06 375.31
  Q 3422.84 375.32 3422.84 374.54
  L 3422.84 249.25
  Q 3422.84 248.73 3422.38 248.49
  C 3378.45 224.97 3324.68 207.00 3274.99 210.46
  Q 3207.54 215.15 3175.08 274.78
  C 3151.55 318.00 3146.67 369.91 3146.83 418.18
  Q 3146.84 418.74 3146.30 418.55
  C 3082.19 395.44 3005.72 401.31 2962.36 459.89
  Q 2942.02 487.37 2932.80 520.62
  A 0.69 0.69 0.0 0 1 2931.96 521.10
  Q 2891.76 510.80 2850.00 512.01
  C 2803.85 513.36 2757.71 530.85 2742.10 578.66
  Q 2741.90 579.25 2741.34 578.98"
/>
<path stroke="#a27d54" vector-effect="non-scaling-stroke" d="
  M 3306.99 535.65
  Q 3305.00 533.17 3303.06 530.68
  C 3288.71 512.28 3264.72 498.74 3242.57 514.48
  Q 3242.16 514.78 3241.74 514.49
  C 3212.40 494.30 3162.37 471.75 3129.97 498.64
  C 3113.18 512.57 3104.82 536.73 3101.66 557.63
  A 0.29 0.29 0.0 0 1 3101.22 557.83
  C 3088.16 549.52 3070.47 542.42 3054.74 543.30
  C 3020.59 545.23 3013.01 582.87 3012.07 610.14
  Q 3012.05 610.80 3012.71 610.80
  L 3422.33 610.80
  Q 3422.84 610.80 3422.84 610.29
  L 3422.83 378.03
  A 0.53 0.53 0.0 0 0 3422.30 377.50
  C 3389.52 377.02 3358.51 389.10 3337.21 414.19
  C 3308.71 447.76 3305.79 493.67 3307.37 535.51
  Q 3307.39 536.15 3306.99 535.65"
/>
<path stroke="#af9d83" vector-effect="non-scaling-stroke" d="
  M 327.52 353.56
  C 327.05 296.02 320.48 232.87 290.57 182.20
  C 227.39 75.16 89.05 109.06 1.61 155.37
  A 1.59 1.58 -14.3 0 0 0.78 156.76
  L 0.79 262.61
  A 0.62 0.61 -14.0 0 0 1.70 263.15
  C 35.29 245.31 73.48 232.56 110.24 228.20
  Q 137.50 224.96 163.25 230.76
  C 249.94 250.27 266.62 351.72 266.12 424.49
  A 0.35 0.34 80.9 0 0 266.57 424.82
  C 315.96 408.57 372.26 407.83 415.61 440.08
  C 442.70 460.23 459.70 490.98 469.55 522.75
  Q 469.70 523.25 470.22 523.13
  C 530.24 508.69 624.34 504.91 651.02 577.56
  Q 651.21 578.07 651.72 577.86
  C 670.05 570.04 697.18 563.38 715.04 575.21
  C 726.51 582.81 733.23 596.44 734.84 610.03
  A 1.42 1.42 0.0 0 0 736.26 611.28
  L 893.90 611.25
  A 0.40 0.40 0.0 0 0 894.30 610.85
  C 894.62 564.86 849.08 550.69 811.68 553.84
  A 0.74 0.73 -14.1 0 1 810.95 553.41
  C 789.24 503.17 747.65 473.20 693.25 467.68
  C 658.24 464.12 621.80 469.45 589.29 480.44
  Q 588.83 480.59 588.66 480.14
  Q 561.69 407.68 493.37 374.63
  C 443.66 350.58 381.91 345.83 328.01 353.98
  Q 327.53 354.05 327.52 353.56"
/>
<path stroke="#a89170" vector-effect="non-scaling-stroke" d="
  M 650.02 579.99
  C 625.10 505.83 528.27 510.48 469.10 525.06
  Q 468.59 525.19 468.43 524.68
  C 461.03 500.78 450.35 478.63 433.89 459.60
  C 404.04 425.09 362.48 413.07 317.75 416.33
  Q 289.69 418.37 264.84 427.45
  Q 264.34 427.64 264.33 427.10
  C 263.44 381.02 260.14 333.38 238.17 291.80
  C 189.10 198.92 74.96 225.59 1.41 265.65
  A 1.27 1.26 -14.3 0 0 0.75 266.76
  L 0.75 385.75
  A 0.83 0.83 0.0 0 0 1.60 386.58
  C 50.29 385.74 91.14 415.12 105.19 461.79
  Q 115.56 496.22 112.85 533.33
  Q 112.78 534.26 113.39 533.56
  C 128.56 516.27 150.15 501.90 173.05 517.15
  Q 173.48 517.43 173.90 517.14
  C 202.19 497.46 247.99 478.17 279.64 501.76
  C 296.95 514.65 304.31 536.75 308.45 557.01
  Q 308.57 557.60 309.10 557.31
  C 323.80 549.05 343.06 541.83 360.12 546.31
  C 387.23 553.44 393.66 586.95 394.58 610.44
  A 0.95 0.95 0.0 0 0 395.53 611.36
  L 732.20 611.35
  A 0.86 0.86 0.0 0 0 733.05 610.35
  C 730.02 592.26 721.83 577.04 703.58 572.11
  C 686.35 567.45 666.68 572.97 650.71 580.29
  Q 650.20 580.53 650.02 579.99"
/>
<path stroke="#a27d54" vector-effect="non-scaling-stroke" d="
  M 111.14 538.85
  C 113.85 507.66 110.12 472.52 96.43 444.26
  C 78.29 406.81 42.54 388.57 1.85 388.40
  Q 0.75 388.40 0.75 389.50
  L 0.73 610.33
  A 1.10 1.10 0.0 0 0 1.83 611.43
  L 391.60 611.48
  Q 392.67 611.48 392.64 610.41
  Q 392.33 601.09 390.88 591.37
  C 387.85 570.96 377.93 549.72 355.21 546.79
  C 339.65 544.79 321.21 551.35 307.94 560.08
  A 0.42 0.41 -21.1 0 1 307.30 559.80
  C 301.69 524.40 282.45 488.27 240.25 492.44
  Q 222.17 494.23 205.62 501.21
  C 194.84 505.75 183.77 511.48 174.12 518.43
  A 1.33 1.33 0.0 0 1 172.56 518.44
  C 149.98 502.37 124.39 519.68 111.53 538.99
  A 0.21 0.21 0.0 0 1 111.14 538.85"
/>
</g>
<path fill="#6e5945" d="
  M 3424.00 131.39
  L 3424.00 612.00
  L 2483.40 612.00
  C 2482.84 561.31 2529.57 546.60 2571.05 548.75
  Q 2571.58 548.77 2571.79 548.29
  C 2597.71 488.85 2649.79 458.40 2713.75 457.36
  Q 2760.06 456.61 2804.30 471.35
  A 0.64 0.63 -70.2 0 0 2805.09 470.97
  Q 2832.47 398.26 2901.52 362.79
  C 2918.31 354.16 2938.95 347.13 2958.23 342.98
  Q 3017.45 330.25 3077.91 338.85
  A 0.47 0.47 0.0 0 0 3078.45 338.38
  C 3078.29 298.82 3082.28 258.84 3092.38 220.52
  C 3107.75 162.22 3141.14 110.90 3201.25 92.25
  C 3235.97 81.47 3275.33 82.72 3310.83 90.14
  Q 3370.26 102.57 3424.00 131.39
  Z
  M 3080.04 341.34
  C 3030.00 333.87 2975.51 336.86 2927.75 354.04
  Q 2839.49 385.79 2806.26 473.78
  A 0.55 0.55 0.0 0 1 2805.57 474.10
  C 2758.22 457.85 2701.34 452.65 2654.00 470.53
  C 2616.39 484.73 2588.89 513.94 2573.07 550.63
  A 0.73 0.72 -75.7 0 1 2572.35 551.06
  C 2533.40 548.07 2485.27 562.17 2485.68 610.50
  Q 2485.68 610.82 2486.01 610.82
  L 2652.00 610.81
  A 0.78 0.77 3.8 0 0 2652.77 610.14
  C 2654.19 598.84 2658.86 587.15 2666.71 579.07
  C 2685.27 560.00 2718.05 565.85 2740.01 576.13
  A 0.56 0.55 -67.4 0 0 2740.77 575.81
  C 2768.20 499.55 2868.49 503.58 2930.57 518.57
  Q 2931.09 518.69 2931.25 518.18
  C 2947.95 463.03 2983.72 419.80 3041.89 407.53
  C 3075.31 400.48 3111.95 404.82 3144.17 415.41
  Q 3144.70 415.58 3144.70 415.02
  C 3144.76 339.51 3160.37 236.03 3248.82 212.94
  C 3274.94 206.12 3301.88 206.95 3328.50 212.27
  Q 3377.88 222.13 3422.17 245.91
  A 0.46 0.45 -76.1 0 0 3422.84 245.50
  L 3422.84 133.74
  Q 3422.84 133.27 3422.43 133.06
  Q 3368.78 104.33 3309.34 92.07
  C 3270.91 84.14 3228.86 83.64 3192.58 97.57
  C 3097.67 134.03 3080.15 254.01 3080.60 340.86
  Q 3080.60 341.43 3080.04 341.34
  Z
  M 2741.34 578.98
  C 2722.20 569.88 2694.30 562.84 2674.75 574.94
  C 2662.97 582.22 2656.71 597.27 2654.95 610.51
  A 0.27 0.27 0.0 0 0 2655.22 610.82
  L 3009.28 610.82
  A 0.70 0.69 -89.6 0 0 3009.97 610.13
  C 3010.32 588.17 3016.48 557.03 3038.36 545.79
  C 3056.89 536.27 3082.38 544.30 3099.54 554.50
  A 0.45 0.45 0.0 0 0 3100.21 554.20
  C 3107.69 515.24 3128.25 480.51 3173.99 485.33
  C 3198.28 487.89 3221.87 498.40 3241.72 511.98
  Q 3242.12 512.25 3242.53 511.99
  C 3265.82 496.92 3289.03 510.54 3304.45 528.73
  A 0.39 0.39 0.0 0 0 3305.13 528.46
  C 3303.22 492.43 3308.65 453.03 3328.05 423.31
  C 3348.69 391.68 3384.49 374.93 3422.06 375.31
  Q 3422.84 375.32 3422.84 374.54
  L 3422.84 249.25
  Q 3422.84 248.73 3422.38 248.49
  C 3378.45 224.97 3324.68 207.00 3274.99 210.46
  Q 3207.54 215.15 3175.08 274.78
  C 3151.55 318.00 3146.67 369.91 3146.83 418.18
  Q 3146.84 418.74 3146.30 418.55
  C 3082.19 395.44 3005.72 401.31 2962.36 459.89
  Q 2942.02 487.37 2932.80 520.62
  A 0.69 0.69 0.0 0 1 2931.96 521.10
  Q 2891.76 510.80 2850.00 512.01
  C 2803.85 513.36 2757.71 530.85 2742.10 578.66
  Q 2741.90 579.25 2741.34 578.98
  Z
  M 3306.99 535.65
  Q 3305.00 533.17 3303.06 530.68
  C 3288.71 512.28 3264.72 498.74 3242.57 514.48
  Q 3242.16 514.78 3241.74 514.49
  C 3212.40 494.30 3162.37 471.75 3129.97 498.64
  C 3113.18 512.57 3104.82 536.73 3101.66 557.63
  A 0.29 0.29 0.0 0 1 3101.22 557.83
  C 3088.16 549.52 3070.47 542.42 3054.74 543.30
  C 3020.59 545.23 3013.01 582.87 3012.07 610.14
  Q 3012.05 610.80 3012.71 610.80
  L 3422.33 610.80
  Q 3422.84 610.80 3422.84 610.29
  L 3422.83 378.03
  A 0.53 0.53 0.0 0 0 3422.30 377.50
  C 3389.52 377.02 3358.51 389.10 3337.21 414.19
  C 3308.71 447.76 3305.79 493.67 3307.37 535.51
  Q 3307.39 536.15 3306.99 535.65
  Z"
/>
<path fill="#f0e1c1" d="
  M 3080.60 340.86
  C 3080.15 254.01 3097.67 134.03 3192.58 97.57
  C 3228.86 83.64 3270.91 84.14 3309.34 92.07
  Q 3368.78 104.33 3422.43 133.06
  Q 3422.84 133.27 3422.84 133.74
  L 3422.84 245.50
  A 0.46 0.45 -76.1 0 1 3422.17 245.91
  Q 3377.88 222.13 3328.50 212.27
  C 3301.88 206.95 3274.94 206.12 3248.82 212.94
  C 3160.37 236.03 3144.76 339.51 3144.70 415.02
  Q 3144.70 415.58 3144.17 415.41
  C 3111.95 404.82 3075.31 400.48 3041.89 407.53
  C 2983.72 419.80 2947.95 463.03 2931.25 518.18
  Q 2931.09 518.69 2930.57 518.57
  C 2868.49 503.58 2768.20 499.55 2740.77 575.81
  A 0.56 0.55 -67.4 0 1 2740.01 576.13
  C 2718.05 565.85 2685.27 560.00 2666.71 579.07
  C 2658.86 587.15 2654.19 598.84 2652.77 610.14
  A 0.78 0.77 3.8 0 1 2652.00 610.81
  L 2486.01 610.82
  Q 2485.68 610.82 2485.68 610.50
  C 2485.27 562.17 2533.40 548.07 2572.35 551.06
  A 0.73 0.72 -75.7 0 0 2573.07 550.63
  C 2588.89 513.94 2616.39 484.73 2654.00 470.53
  C 2701.34 452.65 2758.22 457.85 2805.57 474.10
  A 0.55 0.55 0.0 0 0 2806.26 473.78
  Q 2839.49 385.79 2927.75 354.04
  C 2975.51 336.86 3030.00 333.87 3080.04 341.34
  Q 3080.60 341.43 3080.60 340.86
  Z"
/>
<path fill="#6e5945" d="
  M 896.23 612.00
  L 0.00 612.00
  L 0.00 153.96
  C 85.40 108.59 219.70 74.46 286.58 172.20
  C 307.37 202.57 318.66 240.72 323.97 277.25
  Q 329.33 314.06 329.30 351.27
  Q 329.30 351.82 329.85 351.74
  Q 387.98 343.64 443.50 355.50
  Q 468.03 360.74 492.25 371.90
  C 538.19 393.07 571.92 430.13 589.78 477.62
  Q 589.96 478.12 590.47 477.95
  C 657.30 456.16 741.11 455.87 790.06 514.95
  Q 803.10 530.68 812.22 551.45
  A 0.77 0.75 -13.3 0 0 812.98 551.91
  C 851.73 549.28 897.86 564.47 896.23 612.00
  Z
  M 327.52 353.56
  C 327.05 296.02 320.48 232.87 290.57 182.20
  C 227.39 75.16 89.05 109.06 1.61 155.37
  A 1.59 1.58 -14.3 0 0 0.78 156.76
  L 0.79 262.61
  A 0.62 0.61 -14.0 0 0 1.70 263.15
  C 35.29 245.31 73.48 232.56 110.24 228.20
  Q 137.50 224.96 163.25 230.76
  C 249.94 250.27 266.62 351.72 266.12 424.49
  A 0.35 0.34 80.9 0 0 266.57 424.82
  C 315.96 408.57 372.26 407.83 415.61 440.08
  C 442.70 460.23 459.70 490.98 469.55 522.75
  Q 469.70 523.25 470.22 523.13
  C 530.24 508.69 624.34 504.91 651.02 577.56
  Q 651.21 578.07 651.72 577.86
  C 670.05 570.04 697.18 563.38 715.04 575.21
  C 726.51 582.81 733.23 596.44 734.84 610.03
  A 1.42 1.42 0.0 0 0 736.26 611.28
  L 893.90 611.25
  A 0.40 0.40 0.0 0 0 894.30 610.85
  C 894.62 564.86 849.08 550.69 811.68 553.84
  A 0.74 0.73 -14.1 0 1 810.95 553.41
  C 789.24 503.17 747.65 473.20 693.25 467.68
  C 658.24 464.12 621.80 469.45 589.29 480.44
  Q 588.83 480.59 588.66 480.14
  Q 561.69 407.68 493.37 374.63
  C 443.66 350.58 381.91 345.83 328.01 353.98
  Q 327.53 354.05 327.52 353.56
  Z
  M 650.02 579.99
  C 625.10 505.83 528.27 510.48 469.10 525.06
  Q 468.59 525.19 468.43 524.68
  C 461.03 500.78 450.35 478.63 433.89 459.60
  C 404.04 425.09 362.48 413.07 317.75 416.33
  Q 289.69 418.37 264.84 427.45
  Q 264.34 427.64 264.33 427.10
  C 263.44 381.02 260.14 333.38 238.17 291.80
  C 189.10 198.92 74.96 225.59 1.41 265.65
  A 1.27 1.26 -14.3 0 0 0.75 266.76
  L 0.75 385.75
  A 0.83 0.83 0.0 0 0 1.60 386.58
  C 50.29 385.74 91.14 415.12 105.19 461.79
  Q 115.56 496.22 112.85 533.33
  Q 112.78 534.26 113.39 533.56
  C 128.56 516.27 150.15 501.90 173.05 517.15
  Q 173.48 517.43 173.90 517.14
  C 202.19 497.46 247.99 478.17 279.64 501.76
  C 296.95 514.65 304.31 536.75 308.45 557.01
  Q 308.57 557.60 309.10 557.31
  C 323.80 549.05 343.06 541.83 360.12 546.31
  C 387.23 553.44 393.66 586.95 394.58 610.44
  A 0.95 0.95 0.0 0 0 395.53 611.36
  L 732.20 611.35
  A 0.86 0.86 0.0 0 0 733.05 610.35
  C 730.02 592.26 721.83 577.04 703.58 572.11
  C 686.35 567.45 666.68 572.97 650.71 580.29
  Q 650.20 580.53 650.02 579.99
  Z
  M 111.14 538.85
  C 113.85 507.66 110.12 472.52 96.43 444.26
  C 78.29 406.81 42.54 388.57 1.85 388.40
  Q 0.75 388.40 0.75 389.50
  L 0.73 610.33
  A 1.10 1.10 0.0 0 0 1.83 611.43
  L 391.60 611.48
  Q 392.67 611.48 392.64 610.41
  Q 392.33 601.09 390.88 591.37
  C 387.85 570.96 377.93 549.72 355.21 546.79
  C 339.65 544.79 321.21 551.35 307.94 560.08
  A 0.42 0.41 -21.1 0 1 307.30 559.80
  C 301.69 524.40 282.45 488.27 240.25 492.44
  Q 222.17 494.23 205.62 501.21
  C 194.84 505.75 183.77 511.48 174.12 518.43
  A 1.33 1.33 0.0 0 1 172.56 518.44
  C 149.98 502.37 124.39 519.68 111.53 538.99
  A 0.21 0.21 0.0 0 1 111.14 538.85
  Z"
/>
<path fill="#f0e1c1" d="
  M 328.01 353.98
  C 381.91 345.83 443.66 350.58 493.37 374.63
  Q 561.69 407.68 588.66 480.14
  Q 588.83 480.59 589.29 480.44
  C 621.80 469.45 658.24 464.12 693.25 467.68
  C 747.65 473.20 789.24 503.17 810.95 553.41
  A 0.74 0.73 -14.1 0 0 811.68 553.84
  C 849.08 550.69 894.62 564.86 894.30 610.85
  A 0.40 0.40 0.0 0 1 893.90 611.25
  L 736.26 611.28
  A 1.42 1.42 0.0 0 1 734.84 610.03
  C 733.23 596.44 726.51 582.81 715.04 575.21
  C 697.18 563.38 670.05 570.04 651.72 577.86
  Q 651.21 578.07 651.02 577.56
  C 624.34 504.91 530.24 508.69 470.22 523.13
  Q 469.70 523.25 469.55 522.75
  C 459.70 490.98 442.70 460.23 415.61 440.08
  C 372.26 407.83 315.96 408.57 266.57 424.82
  A 0.35 0.34 80.9 0 1 266.12 424.49
  C 266.62 351.72 249.94 250.27 163.25 230.76
  Q 137.50 224.96 110.24 228.20
  C 73.48 232.56 35.29 245.31 1.70 263.15
  A 0.62 0.61 -14.0 0 1 0.79 262.61
  L 0.78 156.76
  A 1.59 1.58 -14.3 0 1 1.61 155.37
  C 89.05 109.06 227.39 75.16 290.57 182.20
  C 320.48 232.87 327.05 296.02 327.52 353.56
  Q 327.53 354.05 328.01 353.98
  Z"
/>
<path fill="#e2c99a" d="
  M 2742.10 578.66
  C 2757.71 530.85 2803.85 513.36 2850.00 512.01
  Q 2891.76 510.80 2931.96 521.10
  A 0.69 0.69 0.0 0 0 2932.80 520.62
  Q 2942.02 487.37 2962.36 459.89
  C 3005.72 401.31 3082.19 395.44 3146.30 418.55
  Q 3146.84 418.74 3146.83 418.18
  C 3146.67 369.91 3151.55 318.00 3175.08 274.78
  Q 3207.54 215.15 3274.99 210.46
  C 3324.68 207.00 3378.45 224.97 3422.38 248.49
  Q 3422.84 248.73 3422.84 249.25
  L 3422.84 374.54
  Q 3422.84 375.32 3422.06 375.31
  C 3384.49 374.93 3348.69 391.68 3328.05 423.31
  C 3308.65 453.03 3303.22 492.43 3305.13 528.46
  A 0.39 0.39 0.0 0 1 3304.45 528.73
  C 3289.03 510.54 3265.82 496.92 3242.53 511.99
  Q 3242.12 512.25 3241.72 511.98
  C 3221.87 498.40 3198.28 487.89 3173.99 485.33
  C 3128.25 480.51 3107.69 515.24 3100.21 554.20
  A 0.45 0.45 0.0 0 1 3099.54 554.50
  C 3082.38 544.30 3056.89 536.27 3038.36 545.79
  C 3016.48 557.03 3010.32 588.17 3009.97 610.13
  A 0.70 0.69 -89.6 0 1 3009.28 610.82
  L 2655.22 610.82
  A 0.27 0.27 0.0 0 1 2654.95 610.51
  C 2656.71 597.27 2662.97 582.22 2674.75 574.94
  C 2694.30 562.84 2722.20 569.88 2741.34 578.98
  Q 2741.90 579.25 2742.10 578.66
  Z"
/>
<path fill="#e2c99a" d="
  M 650.71 580.29
  C 666.68 572.97 686.35 567.45 703.58 572.11
  C 721.83 577.04 730.02 592.26 733.05 610.35
  A 0.86 0.86 0.0 0 1 732.20 611.35
  L 395.53 611.36
  A 0.95 0.95 0.0 0 1 394.58 610.44
  C 393.66 586.95 387.23 553.44 360.12 546.31
  C 343.06 541.83 323.80 549.05 309.10 557.31
  Q 308.57 557.60 308.45 557.01
  C 304.31 536.75 296.95 514.65 279.64 501.76
  C 247.99 478.17 202.19 497.46 173.90 517.14
  Q 173.48 517.43 173.05 517.15
  C 150.15 501.90 128.56 516.27 113.39 533.56
  Q 112.78 534.26 112.85 533.33
  Q 115.56 496.22 105.19 461.79
  C 91.14 415.12 50.29 385.74 1.60 386.58
  A 0.83 0.83 0.0 0 1 0.75 385.75
  L 0.75 266.76
  A 1.27 1.26 -14.3 0 1 1.41 265.65
  C 74.96 225.59 189.10 198.92 238.17 291.80
  C 260.14 333.38 263.44 381.02 264.33 427.10
  Q 264.34 427.64 264.84 427.45
  Q 289.69 418.37 317.75 416.33
  C 362.48 413.07 404.04 425.09 433.89 459.60
  C 450.35 478.63 461.03 500.78 468.43 524.68
  Q 468.59 525.19 469.10 525.06
  C 528.27 510.48 625.10 505.83 650.02 579.99
  Q 650.20 580.53 650.71 580.29
  Z"
/>
<path fill="#d6a163" d="
  M 3307.37 535.51
  C 3305.79 493.67 3308.71 447.76 3337.21 414.19
  C 3358.51 389.10 3389.52 377.02 3422.30 377.50
  A 0.53 0.53 0.0 0 1 3422.83 378.03
  L 3422.84 610.29
  Q 3422.84 610.80 3422.33 610.80
  L 3012.71 610.80
  Q 3012.05 610.80 3012.07 610.14
  C 3013.01 582.87 3020.59 545.23 3054.74 543.30
  C 3070.47 542.42 3088.16 549.52 3101.22 557.83
  A 0.29 0.29 0.0 0 0 3101.66 557.63
  C 3104.82 536.73 3113.18 512.57 3129.97 498.64
  C 3162.37 471.75 3212.40 494.30 3241.74 514.49
  Q 3242.16 514.78 3242.57 514.48
  C 3264.72 498.74 3288.71 512.28 3303.06 530.68
  Q 3305.00 533.17 3306.99 535.65
  Q 3307.39 536.15 3307.37 535.51
  Z"
/>
<path fill="#d6a163" d="
  M 111.14 538.85
  A 0.21 0.21 0.0 0 0 111.53 538.99
  C 124.39 519.68 149.98 502.37 172.56 518.44
  A 1.33 1.33 0.0 0 0 174.12 518.43
  C 183.77 511.48 194.84 505.75 205.62 501.21
  Q 222.17 494.23 240.25 492.44
  C 282.45 488.27 301.69 524.40 307.30 559.80
  A 0.42 0.41 -21.1 0 0 307.94 560.08
  C 321.21 551.35 339.65 544.79 355.21 546.79
  C 377.93 549.72 387.85 570.96 390.88 591.37
  Q 392.33 601.09 392.64 610.41
  Q 392.67 611.48 391.60 611.48
  L 1.83 611.43
  A 1.10 1.10 0.0 0 1 0.73 610.33
  L 0.75 389.50
  Q 0.75 388.40 1.85 388.40
  C 42.54 388.57 78.29 406.81 96.43 444.26
  C 110.12 472.52 113.85 507.66 111.14 538.85
  Z"
/>
</svg>
