<?xml version="1.0" encoding="UTF-8" standalone="no"?>
<!DOCTYPE svg PUBLIC "-//W3C//DTD SVG 1.1//EN" "http://www.w3.org/Graphics/SVG/1.1/DTD/svg11.dtd">
<svg xmlns="http://www.w3.org/2000/svg" version="1.1" viewBox="0.00 0.00 1593.00 1314.00">
<g stroke-width="2.00" fill="none" stroke-linecap="butt">
<path stroke="#b38c4f" vector-effect="non-scaling-stroke" d="
  M 989.45 931.91
  L 1226.65 968.37
  A 0.32 0.31 76.1 0 0 1226.95 967.87
  L 1101.05 799.20
  Q 1100.68 798.70 1101.26 798.47
  L 1324.83 711.44
  A 0.29 0.29 0.0 0 0 1324.84 710.91
  L 1131.45 627.75
  Q 1130.85 627.49 1131.26 626.97
  L 1281.38 439.83
  A 0.29 0.29 0.0 0 0 1281.12 439.36
  L 1072.08 464.05
  A 0.49 0.49 0.0 0 1 1071.54 463.49
  L 1107.84 227.01
  Q 1108.04 225.69 1106.97 226.49
  L 938.95 351.96
  Q 938.33 352.42 938.05 351.70
  L 851.21 128.51
  Q 850.84 127.55 850.43 128.49
  L 767.43 321.67
  Q 767.17 322.26 766.67 321.86
  L 579.55 171.71
  Q 579.00 171.27 579.08 171.97
  L 603.75 380.78
  A 0.68 0.68 0.0 0 1 602.97 381.53
  L 366.29 345.19
  A 0.33 0.33 0.0 0 0 365.97 345.71
  L 480.41 499.06
  Q 480.68 499.42 480.97 499.07
  C 504.01 471.31 544.43 461.36 577.41 476.33
  C 593.05 483.42 599.54 498.01 599.41 514.51
  C 599.32 525.05 572.76 528.05 565.59 528.39
  C 561.14 528.59 550.85 529.92 550.88 522.76
  Q 550.88 522.25 550.37 522.21
  Q 544.59 521.82 539.01 523.15
  C 513.84 529.15 515.52 563.59 542.77 565.35
  C 546.27 565.58 550.41 565.58 551.10 561.37
  Q 551.97 555.95 552.68 550.50
  C 554.29 538.11 605.08 534.90 606.37 545.99
  Q 610.17 578.71 607.34 609.75
  C 607.01 613.35 605.54 618.25 601.20 618.97
  Q 585.73 621.54 568.74 619.30
  Q 567.87 619.19 565.64 617.97
  Q 565.20 617.73 564.72 617.83
  C 533.82 624.61 503.46 619.99 480.96 596.28
  C 461.40 575.66 461.23 551.06 467.93 524.87
  Q 468.11 524.17 467.44 524.44
  L 268.07 602.07
  A 0.31 0.31 0.0 0 0 268.06 602.64
  L 461.30 685.72
  A 0.57 0.57 0.0 0 1 461.52 686.60
  L 311.49 873.73
  Q 311.08 874.23 311.72 874.15
  L 501.22 851.74
  Q 501.64 851.69 501.48 851.29
  Q 498.28 843.34 497.48 834.75
  Q 492.30 779.46 495.49 724.00
  C 495.84 717.89 496.92 714.48 502.38 711.18
  Q 506.46 708.72 509.22 707.93
  Q 540.18 699.12 571.52 706.68
  Q 580.78 708.91 588.57 713.95
  C 606.37 725.43 613.10 748.72 603.03 767.55
  Q 602.78 768.01 603.21 768.30
  Q 622.72 781.88 621.09 805.88
  C 619.54 828.72 602.88 850.76 579.25 854.27
  Q 570.21 855.61 556.48 855.74
  Q 538.84 855.90 520.97 855.29
  Q 520.47 855.27 520.39 855.76
  L 484.86 1087.23
  A 0.25 0.25 0.0 0 0 485.25 1087.47
  L 653.97 961.50
  A 0.51 0.51 0.0 0 1 654.75 961.73
  L 741.80 1185.43
  A 0.22 0.22 0.0 0 0 742.21 1185.44
  L 825.37 991.93
  A 0.54 0.54 0.0 0 1 826.21 991.72
  L 1013.24 1141.76
  A 0.31 0.31 0.0 0 0 1013.74 1141.48
  L 989.05 932.30
  Q 988.99 931.84 989.45 931.91"
/>
<path stroke="#5aa190" vector-effect="non-scaling-stroke" d="
  M 567.57 613.29
  Q 568.65 615.03 571.24 615.28
  Q 586.49 616.74 599.75 614.74
  C 602.67 614.31 603.05 609.37 603.23 607.08
  Q 605.44 577.94 602.40 548.85
  C 602.15 546.45 600.72 545.14 598.51 544.72
  C 586.30 542.38 570.02 543.23 558.62 549.14
  Q 557.09 549.93 556.91 551.64
  Q 556.36 556.90 555.30 562.13
  C 554.16 567.69 550.69 569.57 545.25 569.67
  C 509.66 570.34 507.06 524.01 540.26 518.44
  Q 547.60 517.20 551.53 517.83
  Q 555.43 518.45 555.17 523.04
  A 0.71 0.71 0.0 0 0 555.73 523.78
  Q 557.65 524.20 561.24 524.14
  Q 577.81 523.84 590.99 518.45
  C 593.39 517.46 594.93 516.25 594.94 513.38
  C 595.01 497.08 588.06 485.16 572.72 479.05
  Q 559.75 473.89 547.50 473.77
  C 511.57 473.41 481.57 492.76 471.62 528.00
  C 464.41 553.57 467.54 578.63 488.06 597.21
  C 510.12 617.18 538.34 619.78 566.78 612.96
  Q 567.29 612.84 567.57 613.29"
/>
<path stroke="#5aa190" vector-effect="non-scaling-stroke" d="
  M 568.50 850.99
  C 579.22 850.66 589.12 848.16 597.56 841.53
  Q 613.05 829.36 616.09 810.97
  C 618.93 793.73 613.31 778.57 597.48 770.02
  A 1.05 1.04 32.3 0 1 597.13 768.49
  C 604.08 758.97 605.13 747.60 601.19 736.52
  C 595.50 720.53 581.80 713.03 565.74 709.84
  Q 539.74 704.67 514.21 711.06
  C 509.46 712.24 500.75 715.16 500.19 720.99
  C 498.97 733.75 498.83 744.42 498.67 759.34
  Q 498.35 790.46 500.53 821.51
  Q 501.46 834.74 503.80 845.62
  Q 504.16 847.27 505.58 848.93
  Q 505.92 849.32 506.43 849.40
  Q 516.45 851.05 528.00 851.21
  Q 550.67 851.54 568.50 850.99"
/>
<path stroke="#b38c4f" vector-effect="non-scaling-stroke" d="
  M 818.40 468.47
  Q 800.21 466.55 782.77 471.80
  C 776.03 473.83 771.02 476.99 770.70 484.22
  Q 770.16 496.67 771.17 514.76
  Q 772.94 546.10 776.72 577.25
  Q 778.73 593.73 781.84 607.63
  C 782.97 612.69 785.00 617.74 790.98 618.63
  Q 807.85 621.13 824.77 618.91
  C 830.01 618.22 835.36 616.34 836.58 611.51
  Q 838.71 603.06 839.66 592.01
  Q 844.25 538.84 841.42 485.55
  C 841.29 483.08 840.94 478.43 839.79 476.29
  C 836.68 470.52 824.96 469.16 818.40 468.47"
/>
<path stroke="#b38c4f" vector-effect="non-scaling-stroke" d="
  M 936.35 475.93
  C 915.71 466.95 889.69 466.19 868.59 470.49
  Q 861.19 472.00 857.80 474.29
  C 851.67 478.43 850.21 489.11 849.47 496.11
  C 847.02 519.32 846.96 542.72 848.80 565.98
  C 849.53 575.14 852.38 610.90 860.97 615.50
  Q 864.67 617.48 870.97 618.39
  C 901.06 622.74 945.72 618.29 965.53 591.26
  Q 986.42 562.75 977.59 527.49
  C 972.06 505.38 957.42 485.10 936.35 475.93"
/>
<path stroke="#b38c4f" vector-effect="non-scaling-stroke" d="
  M 1051.76 563.73
  L 1051.79 563.28
  Q 1051.82 562.81 1052.29 562.78
  Q 1059.88 562.37 1067.43 561.36
  C 1073.13 560.60 1073.85 553.60 1073.85 548.75
  C 1073.86 544.10 1072.05 524.04 1066.27 522.75
  Q 1060.20 521.40 1050.62 521.30
  A 0.45 0.44 85.5 0 1 1050.18 520.92
  L 1050.14 520.61
  Q 1050.06 520.02 1050.65 520.00
  Q 1063.71 519.59 1076.75 518.83
  C 1081.49 518.55 1091.47 517.67 1092.58 511.81
  C 1093.82 505.22 1097.18 473.08 1088.02 470.67
  Q 1081.42 468.93 1071.01 468.52
  Q 1036.57 467.18 1002.27 470.48
  C 991.97 471.47 988.84 472.81 987.60 483.51
  Q 986.54 492.73 986.40 502.00
  Q 985.79 544.45 989.40 586.76
  Q 990.40 598.50 992.79 610.07
  Q 994.17 616.81 1001.47 617.73
  Q 1012.81 619.17 1018.12 619.31
  Q 1051.70 620.21 1084.98 615.85
  C 1089.29 615.29 1100.56 613.88 1101.41 608.53
  Q 1103.91 592.84 1100.44 573.71
  C 1099.10 566.27 1097.85 563.76 1089.54 563.13
  Q 1084.79 562.77 1081.51 563.04
  Q 1066.87 564.21 1052.22 564.22
  A 0.46 0.45 2.3 0 1 1051.76 563.73"
/>
<path stroke="#b38c4f" vector-effect="non-scaling-stroke" d="
  M 681.88 619.87
  Q 718.93 623.46 743.74 596.01
  C 755.98 582.47 760.09 568.55 762.26 551.50
  C 763.74 539.85 768.32 482.16 758.11 476.10
  Q 754.21 473.79 748.52 472.90
  C 741.10 471.75 705.51 469.61 704.94 479.74
  C 704.67 484.59 704.66 489.48 704.83 495.42
  C 705.35 512.93 705.80 533.89 698.64 552.11
  C 696.26 558.18 690.74 560.70 684.60 558.88
  C 667.38 553.80 672.91 499.52 673.79 486.14
  C 674.19 480.09 675.17 475.46 669.04 473.78
  Q 648.21 468.06 625.23 471.89
  Q 616.92 473.28 614.87 481.21
  Q 612.13 491.81 611.52 503.99
  Q 610.30 527.92 612.76 551.75
  C 616.51 588.16 645.85 616.39 681.88 619.87"
/>
<path stroke="#b38c4f" vector-effect="non-scaling-stroke" d="
  M 850.62 854.76
  C 896.81 859.10 933.27 822.08 933.29 776.76
  Q 933.31 741.54 906.21 720.21
  C 894.36 710.89 881.75 706.55 866.76 704.30
  Q 836.40 699.75 812.78 716.53
  C 777.10 741.88 768.03 790.71 795.67 825.72
  Q 816.03 851.50 850.62 854.76"
/>
<path stroke="#b38c4f" vector-effect="non-scaling-stroke" d="
  M 709.88 854.92
  Q 724.03 853.45 734.01 847.99
  Q 773.24 826.55 776.28 782.48
  C 777.93 758.54 769.66 737.57 751.03 721.95
  C 728.63 703.17 690.80 697.32 664.64 711.36
  C 628.70 730.66 611.69 774.96 630.06 812.38
  C 644.82 842.48 676.59 858.37 709.88 854.92"
/>
<path stroke="#b38c4f" vector-effect="non-scaling-stroke" d="
  M 1003.10 835.71
  Q 1013.62 840.91 1024.11 846.14
  Q 1036.53 852.33 1042.23 853.84
  C 1049.52 855.77 1054.60 849.62 1058.08 844.28
  Q 1067.00 830.62 1070.74 814.73
  C 1071.78 810.32 1073.13 801.36 1068.77 798.40
  Q 1057.28 790.63 1039.18 781.31
  Q 1038.64 781.04 1039.06 780.60
  Q 1051.63 767.45 1061.93 754.93
  Q 1064.65 751.63 1066.97 747.57
  C 1069.68 742.84 1069.61 739.36 1066.33 735.17
  Q 1055.98 721.96 1043.62 712.63
  C 1038.96 709.13 1035.19 707.44 1029.57 710.55
  Q 1017.44 717.25 1007.03 726.05
  A 0.43 0.43 0.0 0 1 1006.32 725.74
  Q 1005.94 719.54 1005.35 713.52
  C 1004.74 707.27 996.82 705.79 991.51 705.17
  C 982.12 704.09 940.16 703.30 938.93 716.99
  Q 938.01 727.18 938.42 748.00
  Q 939.20 788.45 943.93 828.62
  Q 944.95 837.19 946.95 845.63
  Q 948.59 852.59 955.73 853.58
  C 964.01 854.74 993.23 856.28 998.75 848.91
  C 1001.26 845.56 1001.83 840.13 1002.47 836.04
  Q 1002.56 835.44 1003.10 835.71"
/>
<path stroke="#5aa190" vector-effect="non-scaling-stroke" d="
  M 835.96 478.38
  C 827.88 469.09 785.77 471.18 777.06 479.54
  C 774.62 481.89 774.75 487.07 774.81 490.00
  Q 775.75 535.80 781.97 583.25
  Q 783.78 597.05 786.58 608.56
  Q 786.98 610.22 788.53 612.89
  Q 788.79 613.34 789.29 613.49
  C 800.94 617.08 816.56 615.90 828.00 613.69
  C 830.27 613.26 832.05 611.95 832.55 609.77
  Q 834.44 601.49 835.39 590.24
  Q 839.48 541.32 837.47 492.25
  Q 837.33 488.72 836.33 479.24
  Q 836.28 478.75 835.96 478.38"
/>
<path stroke="#5aa190" vector-effect="non-scaling-stroke" d="
  M 871.87 474.10
  C 868.11 474.74 860.10 476.64 858.04 480.05
  C 854.04 486.66 853.26 498.87 852.74 506.50
  Q 850.21 543.59 854.59 580.50
  Q 855.76 590.36 858.67 602.50
  C 859.59 606.36 861.33 611.46 865.57 612.59
  Q 869.09 613.52 874.50 614.23
  Q 901.16 617.72 925.49 611.05
  C 937.45 607.77 948.27 603.08 956.91 594.20
  C 981.91 568.47 980.91 529.32 960.66 501.40
  C 951.40 488.64 938.45 479.55 923.26 475.81
  Q 898.31 469.66 871.87 474.10"
/>
<path stroke="#5aa190" vector-effect="non-scaling-stroke" d="
  M 1046.09 524.96
  L 1045.75 516.57
  A 0.65 0.65 0.0 0 1 1046.37 515.90
  Q 1061.07 515.27 1075.75 514.54
  Q 1081.61 514.24 1086.74 512.56
  A 2.65 2.63 85.6 0 0 1088.51 510.48
  Q 1091.22 493.74 1088.46 476.99
  A 2.67 2.67 0.0 0 0 1086.48 474.83
  Q 1081.19 473.49 1075.00 473.16
  Q 1036.90 471.13 998.92 475.05
  Q 994.39 475.51 993.00 478.84
  C 992.31 480.51 991.44 485.29 991.35 487.50
  Q 989.67 531.92 992.75 576.26
  Q 993.95 593.41 996.72 608.01
  Q 997.10 610.02 998.54 612.24
  Q 998.81 612.67 999.30 612.80
  Q 1004.08 614.08 1009.00 614.35
  Q 1042.82 616.20 1076.50 612.76
  Q 1085.52 611.84 1094.26 609.47
  C 1095.95 609.02 1097.18 607.96 1097.37 606.06
  Q 1098.81 591.78 1096.33 575.25
  Q 1095.75 571.36 1094.80 569.05
  A 1.20 1.18 87.7 0 0 1094.07 568.37
  Q 1089.85 567.01 1085.74 567.23
  Q 1064.85 568.31 1048.17 568.58
  Q 1047.57 568.59 1047.57 567.99
  L 1047.58 559.20
  Q 1047.58 558.55 1048.24 558.55
  Q 1057.82 558.53 1067.29 557.06
  A 1.03 1.02 -80.6 0 0 1068.04 556.52
  C 1071.31 550.43 1068.46 535.39 1066.33 528.97
  Q 1065.67 526.97 1064.01 526.71
  Q 1056.96 525.57 1046.62 525.47
  Q 1046.11 525.47 1046.09 524.96"
/>
<path stroke="#5aa190" vector-effect="non-scaling-stroke" d="
  M 751.98 478.28
  C 741.65 475.71 730.15 475.56 719.62 476.86
  Q 714.57 477.48 710.10 479.17
  A 1.34 1.33 81.1 0 0 709.25 480.34
  C 709.03 484.63 708.86 488.71 709.08 493.20
  Q 710.03 512.63 708.13 531.99
  C 707.34 539.97 704.69 553.95 698.79 559.80
  C 692.52 566.02 681.26 564.55 676.00 558.00
  C 672.80 554.01 670.70 547.00 669.78 541.75
  C 666.42 522.56 668.09 503.85 669.78 481.75
  Q 669.87 480.48 669.60 479.32
  Q 669.47 478.81 668.99 478.58
  Q 666.51 477.42 663.25 476.78
  Q 643.79 472.93 624.73 476.39
  C 620.35 477.19 618.32 483.49 617.86 486.48
  Q 613.00 518.05 617.34 552.49
  Q 618.57 562.28 620.88 568.76
  C 631.04 597.13 660.84 616.25 690.47 616.06
  C 721.24 615.86 748.21 594.59 755.54 564.84
  Q 757.12 558.41 758.61 545.08
  Q 761.61 518.12 759.14 491.61
  Q 758.79 487.82 757.67 483.31
  C 756.83 479.95 755.09 479.05 751.98 478.28"
/>
<path stroke="#5aa190" vector-effect="non-scaling-stroke" d="
  M 925.13 533.12
  C 919.68 527.76 912.26 524.60 904.49 525.80
  C 899.22 526.62 897.89 529.96 897.33 535.02
  Q 896.26 544.48 898.38 553.74
  C 899.71 559.56 901.93 562.07 908.00 562.08
  C 915.36 562.09 923.60 560.48 927.88 554.34
  C 932.44 547.80 930.69 538.57 925.13 533.12"
/>
<path stroke="#b38c4f" vector-effect="non-scaling-stroke" d="
  M 905.28 557.48
  C 913.42 558.70 926.36 556.07 926.17 545.83
  C 925.99 535.83 913.32 527.63 903.90 530.36
  A 2.41 2.39 -2.3 0 0 902.20 532.19
  C 901.03 538.05 900.33 551.97 904.44 557.01
  Q 904.77 557.41 905.28 557.48"
/>
<path stroke="#5aa190" vector-effect="non-scaling-stroke" d="
  M 852.99 850.53
  C 894.86 853.66 927.10 820.06 928.93 779.74
  C 930.37 748.03 911.23 721.33 881.24 711.86
  C 861.98 705.78 839.97 705.41 822.12 715.58
  C 784.79 736.85 771.30 784.92 797.29 820.69
  C 810.75 839.20 830.41 848.85 852.99 850.53"
/>
<path stroke="#5aa190" vector-effect="non-scaling-stroke" d="
  M 682.58 848.98
  C 729.25 860.16 769.72 826.91 772.12 780.35
  C 774.15 740.98 744.80 712.36 706.97 708.51
  C 692.26 707.01 678.33 708.67 665.59 715.83
  C 629.87 735.89 615.01 781.72 637.79 817.18
  Q 653.79 842.09 682.58 848.98"
/>
<path stroke="#5aa190" vector-effect="non-scaling-stroke" d="
  M 1002.44 734.63
  Q 1001.88 724.81 1001.42 714.99
  C 1001.24 710.99 995.25 710.14 992.26 709.74
  Q 975.70 707.52 959.24 710.21
  C 955.58 710.80 943.60 713.20 943.22 717.99
  Q 942.31 729.68 942.69 747.00
  Q 943.45 782.21 946.84 817.26
  Q 948.21 831.42 951.52 845.25
  Q 952.25 848.27 955.16 848.93
  C 964.87 851.14 975.92 850.42 985.75 849.33
  C 989.93 848.87 995.31 848.29 996.53 843.50
  Q 998.34 836.35 998.93 829.28
  A 0.53 0.53 0.0 0 1 999.71 828.86
  Q 1017.26 838.34 1035.44 846.48
  Q 1041.98 849.40 1043.33 849.59
  Q 1048.18 850.26 1051.77 845.29
  Q 1062.36 830.62 1066.25 815.02
  C 1066.94 812.28 1068.67 803.54 1065.96 801.79
  Q 1049.38 791.09 1031.81 782.41
  A 0.37 0.37 0.0 0 1 1031.71 781.82
  Q 1043.99 769.37 1055.45 755.95
  C 1057.58 753.46 1066.38 742.99 1064.25 739.81
  C 1061.61 735.88 1040.15 710.76 1033.95 713.40
  C 1023.02 718.05 1012.41 727.11 1003.06 734.90
  Q 1002.49 735.38 1002.44 734.63"
/>
<path stroke="#5aa190" vector-effect="non-scaling-stroke" d="
  M 554.96 736.79
  C 551.31 736.11 543.36 735.89 542.18 740.93
  Q 540.37 748.66 542.53 756.53
  C 545.08 765.80 555.89 763.05 561.20 758.53
  C 570.13 750.92 566.11 738.87 554.96 736.79"
/>
<path stroke="#5aa190" vector-effect="non-scaling-stroke" d="
  M 546.45 817.68
  C 549.63 820.40 555.50 819.61 559.29 818.64
  C 584.20 812.29 569.95 786.07 550.70 788.09
  C 545.05 788.68 542.80 791.56 542.27 796.99
  C 541.68 803.12 541.66 813.57 546.45 817.68"
/>
<path stroke="#5aa190" vector-effect="non-scaling-stroke" d="
  M 877.1148 774.0325
  A 21.27 20.99 -13.7 0 0 851.4788 758.6772
  A 21.27 20.99 -13.7 0 0 835.7852 784.1075
  A 21.27 20.99 -13.7 0 0 861.4212 799.4628
  A 21.27 20.99 -13.7 0 0 877.1148 774.0325"
/>
<path stroke="#5aa190" vector-effect="non-scaling-stroke" d="
  M 720.3614 774.7677
  A 21.27 20.98 -12.8 0 0 694.9719 759.0214
  A 21.27 20.98 -12.8 0 0 678.8786 784.1923
  A 21.27 20.98 -12.8 0 0 704.2681 799.9386
  A 21.27 20.98 -12.8 0 0 720.3614 774.7677"
/>
<path stroke="#b38c4f" vector-effect="non-scaling-stroke" d="
  M 545.67 744.70
  L 546.19 754.63
  A 3.77 3.77 0.0 0 0 550.15 758.19
  L 550.84 758.16
  A 11.32 8.57 -3.0 0 0 561.70 749.01
  L 561.68 748.67
  A 11.32 8.57 -3.0 0 0 549.93 740.70
  L 549.24 740.74
  A 3.77 3.77 0.0 0 0 545.67 744.70"
/>
<path stroke="#b38c4f" vector-effect="non-scaling-stroke" d="
  M 872.8236 774.8150
  A 16.92 16.63 -14.6 0 0 852.2581 762.9870
  A 16.92 16.63 -14.6 0 0 840.0764 783.3450
  A 16.92 16.63 -14.6 0 0 860.6419 795.1730
  A 16.92 16.63 -14.6 0 0 872.8236 774.8150"
/>
<path stroke="#b38c4f" vector-effect="non-scaling-stroke" d="
  M 716.0133 775.3319
  A 16.91 16.63 -14.2 0 0 695.5405 763.3581
  A 16.91 16.63 -14.2 0 0 683.2267 783.6281
  A 16.91 16.63 -14.2 0 0 703.6995 795.6019
  A 16.91 16.63 -14.2 0 0 716.0133 775.3319"
/>
<path stroke="#b38c4f" vector-effect="non-scaling-stroke" d="
  M 550.74 815.13
  C 556.51 815.86 568.61 813.10 568.14 805.01
  C 567.59 795.68 556.08 790.03 547.92 793.32
  A 1.08 1.08 0.0 0 0 547.27 794.05
  Q 544.88 803.23 547.86 812.31
  Q 548.71 814.87 550.74 815.13"
/>
</g>
<path fill="#6d5845" d="
  M 599.05 377.09
  A 0.36 0.36 0.0 0 0 599.46 376.70
  L 574.27 163.47
  Q 574.15 162.49 574.92 163.11
  L 765.23 315.81
  A 0.42 0.42 0.0 0 0 765.88 315.65
  L 850.86 117.86
  A 0.14 0.13 -44.5 0 1 851.11 117.86
  L 939.93 346.13
  Q 940.03 346.40 940.27 346.23
  L 1112.25 217.79
  Q 1113.19 217.08 1113.01 218.25
  L 1076.04 459.11
  A 0.53 0.52 -89.1 0 0 1076.62 459.71
  L 1289.99 434.51
  A 0.24 0.24 0.0 0 1 1290.20 434.90
  L 1137.31 625.51
  Q 1136.94 625.97 1137.48 626.20
  L 1334.74 711.03
  A 0.34 0.33 -44.2 0 1 1334.73 711.65
  L 1107.05 800.28
  A 0.29 0.29 0.0 0 0 1106.93 800.73
  L 1235.39 972.83
  Q 1235.99 973.63 1235.00 973.48
  L 994.25 936.47
  A 0.71 0.70 1.0 0 0 993.44 937.25
  L 1018.58 1150.29
  A 0.30 0.30 0.0 0 1 1018.09 1150.56
  L 827.63 997.76
  Q 827.15 997.38 826.91 997.94
  L 742.13 1195.23
  A 0.32 0.32 0.0 0 1 741.54 1195.22
  L 653.09 967.92
  A 0.65 0.64 61.0 0 0 652.10 967.63
  L 480.20 1095.98
  Q 479.62 1096.41 479.73 1095.70
  L 516.61 855.51
  Q 516.67 855.06 516.22 854.99
  Q 511.91 854.28 508.75 854.66
  Q 405.75 866.85 303.19 878.97
  Q 302.29 879.08 302.86 878.37
  L 455.53 687.97
  A 0.43 0.43 0.0 0 0 455.36 687.31
  L 258.34 602.60
  Q 257.34 602.18 258.35 601.78
  L 469.37 519.62
  Q 469.86 519.43 470.04 518.94
  Q 473.22 510.62 478.11 503.19
  Q 478.40 502.76 478.09 502.35
  L 357.26 340.44
  Q 356.85 339.89 357.53 339.99
  L 599.05 377.09
  Z
  M 989.45 931.91
  L 1226.65 968.37
  A 0.32 0.31 76.1 0 0 1226.95 967.87
  L 1101.05 799.20
  Q 1100.68 798.70 1101.26 798.47
  L 1324.83 711.44
  A 0.29 0.29 0.0 0 0 1324.84 710.91
  L 1131.45 627.75
  Q 1130.85 627.49 1131.26 626.97
  L 1281.38 439.83
  A 0.29 0.29 0.0 0 0 1281.12 439.36
  L 1072.08 464.05
  A 0.49 0.49 0.0 0 1 1071.54 463.49
  L 1107.84 227.01
  Q 1108.04 225.69 1106.97 226.49
  L 938.95 351.96
  Q 938.33 352.42 938.05 351.70
  L 851.21 128.51
  Q 850.84 127.55 850.43 128.49
  L 767.43 321.67
  Q 767.17 322.26 766.67 321.86
  L 579.55 171.71
  Q 579.00 171.27 579.08 171.97
  L 603.75 380.78
  A 0.68 0.68 0.0 0 1 602.97 381.53
  L 366.29 345.19
  A 0.33 0.33 0.0 0 0 365.97 345.71
  L 480.41 499.06
  Q 480.68 499.42 480.97 499.07
  C 504.01 471.31 544.43 461.36 577.41 476.33
  C 593.05 483.42 599.54 498.01 599.41 514.51
  C 599.32 525.05 572.76 528.05 565.59 528.39
  C 561.14 528.59 550.85 529.92 550.88 522.76
  Q 550.88 522.25 550.37 522.21
  Q 544.59 521.82 539.01 523.15
  C 513.84 529.15 515.52 563.59 542.77 565.35
  C 546.27 565.58 550.41 565.58 551.10 561.37
  Q 551.97 555.95 552.68 550.50
  C 554.29 538.11 605.08 534.90 606.37 545.99
  Q 610.17 578.71 607.34 609.75
  C 607.01 613.35 605.54 618.25 601.20 618.97
  Q 585.73 621.54 568.74 619.30
  Q 567.87 619.19 565.64 617.97
  Q 565.20 617.73 564.72 617.83
  C 533.82 624.61 503.46 619.99 480.96 596.28
  C 461.40 575.66 461.23 551.06 467.93 524.87
  Q 468.11 524.17 467.44 524.44
  L 268.07 602.07
  A 0.31 0.31 0.0 0 0 268.06 602.64
  L 461.30 685.72
  A 0.57 0.57 0.0 0 1 461.52 686.60
  L 311.49 873.73
  Q 311.08 874.23 311.72 874.15
  L 501.22 851.74
  Q 501.64 851.69 501.48 851.29
  Q 498.28 843.34 497.48 834.75
  Q 492.30 779.46 495.49 724.00
  C 495.84 717.89 496.92 714.48 502.38 711.18
  Q 506.46 708.72 509.22 707.93
  Q 540.18 699.12 571.52 706.68
  Q 580.78 708.91 588.57 713.95
  C 606.37 725.43 613.10 748.72 603.03 767.55
  Q 602.78 768.01 603.21 768.30
  Q 622.72 781.88 621.09 805.88
  C 619.54 828.72 602.88 850.76 579.25 854.27
  Q 570.21 855.61 556.48 855.74
  Q 538.84 855.90 520.97 855.29
  Q 520.47 855.27 520.39 855.76
  L 484.86 1087.23
  A 0.25 0.25 0.0 0 0 485.25 1087.47
  L 653.97 961.50
  A 0.51 0.51 0.0 0 1 654.75 961.73
  L 741.80 1185.43
  A 0.22 0.22 0.0 0 0 742.21 1185.44
  L 825.37 991.93
  A 0.54 0.54 0.0 0 1 826.21 991.72
  L 1013.24 1141.76
  A 0.31 0.31 0.0 0 0 1013.74 1141.48
  L 989.05 932.30
  Q 988.99 931.84 989.45 931.91
  Z
  M 567.57 613.29
  Q 568.65 615.03 571.24 615.28
  Q 586.49 616.74 599.75 614.74
  C 602.67 614.31 603.05 609.37 603.23 607.08
  Q 605.44 577.94 602.40 548.85
  C 602.15 546.45 600.72 545.14 598.51 544.72
  C 586.30 542.38 570.02 543.23 558.62 549.14
  Q 557.09 549.93 556.91 551.64
  Q 556.36 556.90 555.30 562.13
  C 554.16 567.69 550.69 569.57 545.25 569.67
  C 509.66 570.34 507.06 524.01 540.26 518.44
  Q 547.60 517.20 551.53 517.83
  Q 555.43 518.45 555.17 523.04
  A 0.71 0.71 0.0 0 0 555.73 523.78
  Q 557.65 524.20 561.24 524.14
  Q 577.81 523.84 590.99 518.45
  C 593.39 517.46 594.93 516.25 594.94 513.38
  C 595.01 497.08 588.06 485.16 572.72 479.05
  Q 559.75 473.89 547.50 473.77
  C 511.57 473.41 481.57 492.76 471.62 528.00
  C 464.41 553.57 467.54 578.63 488.06 597.21
  C 510.12 617.18 538.34 619.78 566.78 612.96
  Q 567.29 612.84 567.57 613.29
  Z
  M 568.50 850.99
  C 579.22 850.66 589.12 848.16 597.56 841.53
  Q 613.05 829.36 616.09 810.97
  C 618.93 793.73 613.31 778.57 597.48 770.02
  A 1.05 1.04 32.3 0 1 597.13 768.49
  C 604.08 758.97 605.13 747.60 601.19 736.52
  C 595.50 720.53 581.80 713.03 565.74 709.84
  Q 539.74 704.67 514.21 711.06
  C 509.46 712.24 500.75 715.16 500.19 720.99
  C 498.97 733.75 498.83 744.42 498.67 759.34
  Q 498.35 790.46 500.53 821.51
  Q 501.46 834.74 503.80 845.62
  Q 504.16 847.27 505.58 848.93
  Q 505.92 849.32 506.43 849.40
  Q 516.45 851.05 528.00 851.21
  Q 550.67 851.54 568.50 850.99
  Z"
/>
<path fill="#f8c059" d="
  M 989.05 932.30
  L 1013.74 1141.48
  A 0.31 0.31 0.0 0 1 1013.24 1141.76
  L 826.21 991.72
  A 0.54 0.54 0.0 0 0 825.37 991.93
  L 742.21 1185.44
  A 0.22 0.22 0.0 0 1 741.80 1185.43
  L 654.75 961.73
  A 0.51 0.51 0.0 0 0 653.97 961.50
  L 485.25 1087.47
  A 0.25 0.25 0.0 0 1 484.86 1087.23
  L 520.39 855.76
  Q 520.47 855.27 520.97 855.29
  Q 538.84 855.90 556.48 855.74
  Q 570.21 855.61 579.25 854.27
  C 602.88 850.76 619.54 828.72 621.09 805.88
  Q 622.72 781.88 603.21 768.30
  Q 602.78 768.01 603.03 767.55
  C 613.10 748.72 606.37 725.43 588.57 713.95
  Q 580.78 708.91 571.52 706.68
  Q 540.18 699.12 509.22 707.93
  Q 506.46 708.72 502.38 711.18
  C 496.92 714.48 495.84 717.89 495.49 724.00
  Q 492.30 779.46 497.48 834.75
  Q 498.28 843.34 501.48 851.29
  Q 501.64 851.69 501.22 851.74
  L 311.72 874.15
  Q 311.08 874.23 311.49 873.73
  L 461.52 686.60
  A 0.57 0.57 0.0 0 0 461.30 685.72
  L 268.06 602.64
  A 0.31 0.31 0.0 0 1 268.07 602.07
  L 467.44 524.44
  Q 468.11 524.17 467.93 524.87
  C 461.23 551.06 461.40 575.66 480.96 596.28
  C 503.46 619.99 533.82 624.61 564.72 617.83
  Q 565.20 617.73 565.64 617.97
  Q 567.87 619.19 568.74 619.30
  Q 585.73 621.54 601.20 618.97
  C 605.54 618.25 607.01 613.35 607.34 609.75
  Q 610.17 578.71 606.37 545.99
  C 605.08 534.90 554.29 538.11 552.68 550.50
  Q 551.97 555.95 551.10 561.37
  C 550.41 565.58 546.27 565.58 542.77 565.35
  C 515.52 563.59 513.84 529.15 539.01 523.15
  Q 544.59 521.82 550.37 522.21
  Q 550.88 522.25 550.88 522.76
  C 550.85 529.92 561.14 528.59 565.59 528.39
  C 572.76 528.05 599.32 525.05 599.41 514.51
  C 599.54 498.01 593.05 483.42 577.41 476.33
  C 544.43 461.36 504.01 471.31 480.97 499.07
  Q 480.68 499.42 480.41 499.06
  L 365.97 345.71
  A 0.33 0.33 0.0 0 1 366.29 345.19
  L 602.97 381.53
  A 0.68 0.68 0.0 0 0 603.75 380.78
  L 579.08 171.97
  Q 579.00 171.27 579.55 171.71
  L 766.67 321.86
  Q 767.17 322.26 767.43 321.67
  L 850.43 128.49
  Q 850.84 127.55 851.21 128.51
  L 938.05 351.70
  Q 938.33 352.42 938.95 351.96
  L 1106.97 226.49
  Q 1108.04 225.69 1107.84 227.01
  L 1071.54 463.49
  A 0.49 0.49 0.0 0 0 1072.08 464.05
  L 1281.12 439.36
  A 0.29 0.29 0.0 0 1 1281.38 439.83
  L 1131.26 626.97
  Q 1130.85 627.49 1131.45 627.75
  L 1324.84 710.91
  A 0.29 0.29 0.0 0 1 1324.83 711.44
  L 1101.26 798.47
  Q 1100.68 798.70 1101.05 799.20
  L 1226.95 967.87
  A 0.32 0.31 76.1 0 1 1226.65 968.37
  L 989.45 931.91
  Q 988.99 931.84 989.05 932.30
  Z
  M 818.40 468.47
  Q 800.21 466.55 782.77 471.80
  C 776.03 473.83 771.02 476.99 770.70 484.22
  Q 770.16 496.67 771.17 514.76
  Q 772.94 546.10 776.72 577.25
  Q 778.73 593.73 781.84 607.63
  C 782.97 612.69 785.00 617.74 790.98 618.63
  Q 807.85 621.13 824.77 618.91
  C 830.01 618.22 835.36 616.34 836.58 611.51
  Q 838.71 603.06 839.66 592.01
  Q 844.25 538.84 841.42 485.55
  C 841.29 483.08 840.94 478.43 839.79 476.29
  C 836.68 470.52 824.96 469.16 818.40 468.47
  Z
  M 936.35 475.93
  C 915.71 466.95 889.69 466.19 868.59 470.49
  Q 861.19 472.00 857.80 474.29
  C 851.67 478.43 850.21 489.11 849.47 496.11
  C 847.02 519.32 846.96 542.72 848.80 565.98
  C 849.53 575.14 852.38 610.90 860.97 615.50
  Q 864.67 617.48 870.97 618.39
  C 901.06 622.74 945.72 618.29 965.53 591.26
  Q 986.42 562.75 977.59 527.49
  C 972.06 505.38 957.42 485.10 936.35 475.93
  Z
  M 1051.76 563.73
  L 1051.79 563.28
  Q 1051.82 562.81 1052.29 562.78
  Q 1059.88 562.37 1067.43 561.36
  C 1073.13 560.60 1073.85 553.60 1073.85 548.75
  C 1073.86 544.10 1072.05 524.04 1066.27 522.75
  Q 1060.20 521.40 1050.62 521.30
  A 0.45 0.44 85.5 0 1 1050.18 520.92
  L 1050.14 520.61
  Q 1050.06 520.02 1050.65 520.00
  Q 1063.71 519.59 1076.75 518.83
  C 1081.49 518.55 1091.47 517.67 1092.58 511.81
  C 1093.82 505.22 1097.18 473.08 1088.02 470.67
  Q 1081.42 468.93 1071.01 468.52
  Q 1036.57 467.18 1002.27 470.48
  C 991.97 471.47 988.84 472.81 987.60 483.51
  Q 986.54 492.73 986.40 502.00
  Q 985.79 544.45 989.40 586.76
  Q 990.40 598.50 992.79 610.07
  Q 994.17 616.81 1001.47 617.73
  Q 1012.81 619.17 1018.12 619.31
  Q 1051.70 620.21 1084.98 615.85
  C 1089.29 615.29 1100.56 613.88 1101.41 608.53
  Q 1103.91 592.84 1100.44 573.71
  C 1099.10 566.27 1097.85 563.76 1089.54 563.13
  Q 1084.79 562.77 1081.51 563.04
  Q 1066.87 564.21 1052.22 564.22
  A 0.46 0.45 2.3 0 1 1051.76 563.73
  Z
  M 681.88 619.87
  Q 718.93 623.46 743.74 596.01
  C 755.98 582.47 760.09 568.55 762.26 551.50
  C 763.74 539.85 768.32 482.16 758.11 476.10
  Q 754.21 473.79 748.52 472.90
  C 741.10 471.75 705.51 469.61 704.94 479.74
  C 704.67 484.59 704.66 489.48 704.83 495.42
  C 705.35 512.93 705.80 533.89 698.64 552.11
  C 696.26 558.18 690.74 560.70 684.60 558.88
  C 667.38 553.80 672.91 499.52 673.79 486.14
  C 674.19 480.09 675.17 475.46 669.04 473.78
  Q 648.21 468.06 625.23 471.89
  Q 616.92 473.28 614.87 481.21
  Q 612.13 491.81 611.52 503.99
  Q 610.30 527.92 612.76 551.75
  C 616.51 588.16 645.85 616.39 681.88 619.87
  Z
  M 850.62 854.76
  C 896.81 859.10 933.27 822.08 933.29 776.76
  Q 933.31 741.54 906.21 720.21
  C 894.36 710.89 881.75 706.55 866.76 704.30
  Q 836.40 699.75 812.78 716.53
  C 777.10 741.88 768.03 790.71 795.67 825.72
  Q 816.03 851.50 850.62 854.76
  Z
  M 709.88 854.92
  Q 724.03 853.45 734.01 847.99
  Q 773.24 826.55 776.28 782.48
  C 777.93 758.54 769.66 737.57 751.03 721.95
  C 728.63 703.17 690.80 697.32 664.64 711.36
  C 628.70 730.66 611.69 774.96 630.06 812.38
  C 644.82 842.48 676.59 858.37 709.88 854.92
  Z
  M 1003.10 835.71
  Q 1013.62 840.91 1024.11 846.14
  Q 1036.53 852.33 1042.23 853.84
  C 1049.52 855.77 1054.60 849.62 1058.08 844.28
  Q 1067.00 830.62 1070.74 814.73
  C 1071.78 810.32 1073.13 801.36 1068.77 798.40
  Q 1057.28 790.63 1039.18 781.31
  Q 1038.64 781.04 1039.06 780.60
  Q 1051.63 767.45 1061.93 754.93
  Q 1064.65 751.63 1066.97 747.57
  C 1069.68 742.84 1069.61 739.36 1066.33 735.17
  Q 1055.98 721.96 1043.62 712.63
  C 1038.96 709.13 1035.19 707.44 1029.57 710.55
  Q 1017.44 717.25 1007.03 726.05
  A 0.43 0.43 0.0 0 1 1006.32 725.74
  Q 1005.94 719.54 1005.35 713.52
  C 1004.74 707.27 996.82 705.79 991.51 705.17
  C 982.12 704.09 940.16 703.30 938.93 716.99
  Q 938.01 727.18 938.42 748.00
  Q 939.20 788.45 943.93 828.62
  Q 944.95 837.19 946.95 845.63
  Q 948.59 852.59 955.73 853.58
  C 964.01 854.74 993.23 856.28 998.75 848.91
  C 1001.26 845.56 1001.83 840.13 1002.47 836.04
  Q 1002.56 835.44 1003.10 835.71
  Z"
/>
<path fill="#6d5845" d="
  M 818.40 468.47
  C 824.96 469.16 836.68 470.52 839.79 476.29
  C 840.94 478.43 841.29 483.08 841.42 485.55
  Q 844.25 538.84 839.66 592.01
  Q 838.71 603.06 836.58 611.51
  C 835.36 616.34 830.01 618.22 824.77 618.91
  Q 807.85 621.13 790.98 618.63
  C 785.00 617.74 782.97 612.69 781.84 607.63
  Q 778.73 593.73 776.72 577.25
  Q 772.94 546.10 771.17 514.76
  Q 770.16 496.67 770.70 484.22
  C 771.02 476.99 776.03 473.83 782.77 471.80
  Q 800.21 466.55 818.40 468.47
  Z
  M 835.96 478.38
  C 827.88 469.09 785.77 471.18 777.06 479.54
  C 774.62 481.89 774.75 487.07 774.81 490.00
  Q 775.75 535.80 781.97 583.25
  Q 783.78 597.05 786.58 608.56
  Q 786.98 610.22 788.53 612.89
  Q 788.79 613.34 789.29 613.49
  C 800.94 617.08 816.56 615.90 828.00 613.69
  C 830.27 613.26 832.05 611.95 832.55 609.77
  Q 834.44 601.49 835.39 590.24
  Q 839.48 541.32 837.47 492.25
  Q 837.33 488.72 836.33 479.24
  Q 836.28 478.75 835.96 478.38
  Z"
/>
<path fill="#6d5845" d="
  M 868.59 470.49
  C 889.69 466.19 915.71 466.95 936.35 475.93
  C 957.42 485.10 972.06 505.38 977.59 527.49
  Q 986.42 562.75 965.53 591.26
  C 945.72 618.29 901.06 622.74 870.97 618.39
  Q 864.67 617.48 860.97 615.50
  C 852.38 610.90 849.53 575.14 848.80 565.98
  C 846.96 542.72 847.02 519.32 849.47 496.11
  C 850.21 489.11 851.67 478.43 857.80 474.29
  Q 861.19 472.00 868.59 470.49
  Z
  M 871.87 474.10
  C 868.11 474.74 860.10 476.64 858.04 480.05
  C 854.04 486.66 853.26 498.87 852.74 506.50
  Q 850.21 543.59 854.59 580.50
  Q 855.76 590.36 858.67 602.50
  C 859.59 606.36 861.33 611.46 865.57 612.59
  Q 869.09 613.52 874.50 614.23
  Q 901.16 617.72 925.49 611.05
  C 937.45 607.77 948.27 603.08 956.91 594.20
  C 981.91 568.47 980.91 529.32 960.66 501.40
  C 951.40 488.64 938.45 479.55 923.26 475.81
  Q 898.31 469.66 871.87 474.10
  Z"
/>
<path fill="#6d5845" d="
  M 1052.22 564.22
  Q 1066.87 564.21 1081.51 563.04
  Q 1084.79 562.77 1089.54 563.13
  C 1097.85 563.76 1099.10 566.27 1100.44 573.71
  Q 1103.91 592.84 1101.41 608.53
  C 1100.56 613.88 1089.29 615.29 1084.98 615.85
  Q 1051.70 620.21 1018.12 619.31
  Q 1012.81 619.17 1001.47 617.73
  Q 994.17 616.81 992.79 610.07
  Q 990.40 598.50 989.40 586.76
  Q 985.79 544.45 986.40 502.00
  Q 986.54 492.73 987.60 483.51
  C 988.84 472.81 991.97 471.47 1002.27 470.48
  Q 1036.57 467.18 1071.01 468.52
  Q 1081.42 468.93 1088.02 470.67
  C 1097.18 473.08 1093.82 505.22 1092.58 511.81
  C 1091.47 517.67 1081.49 518.55 1076.75 518.83
  Q 1063.71 519.59 1050.65 520.00
  Q 1050.06 520.02 1050.14 520.61
  L 1050.18 520.92
  A 0.45 0.44 85.5 0 0 1050.62 521.30
  Q 1060.20 521.40 1066.27 522.75
  C 1072.05 524.04 1073.86 544.10 1073.85 548.75
  C 1073.85 553.60 1073.13 560.60 1067.43 561.36
  Q 1059.88 562.37 1052.29 562.78
  Q 1051.82 562.81 1051.79 563.28
  L 1051.76 563.73
  A 0.46 0.45 2.3 0 0 1052.22 564.22
  Z
  M 1046.09 524.96
  L 1045.75 516.57
  A 0.65 0.65 0.0 0 1 1046.37 515.90
  Q 1061.07 515.27 1075.75 514.54
  Q 1081.61 514.24 1086.74 512.56
  A 2.65 2.63 85.6 0 0 1088.51 510.48
  Q 1091.22 493.74 1088.46 476.99
  A 2.67 2.67 0.0 0 0 1086.48 474.83
  Q 1081.19 473.49 1075.00 473.16
  Q 1036.90 471.13 998.92 475.05
  Q 994.39 475.51 993.00 478.84
  C 992.31 480.51 991.44 485.29 991.35 487.50
  Q 989.67 531.92 992.75 576.26
  Q 993.95 593.41 996.72 608.01
  Q 997.10 610.02 998.54 612.24
  Q 998.81 612.67 999.30 612.80
  Q 1004.08 614.08 1009.00 614.35
  Q 1042.82 616.20 1076.50 612.76
  Q 1085.52 611.84 1094.26 609.47
  C 1095.95 609.02 1097.18 607.96 1097.37 606.06
  Q 1098.81 591.78 1096.33 575.25
  Q 1095.75 571.36 1094.80 569.05
  A 1.20 1.18 87.7 0 0 1094.07 568.37
  Q 1089.85 567.01 1085.74 567.23
  Q 1064.85 568.31 1048.17 568.58
  Q 1047.57 568.59 1047.57 567.99
  L 1047.58 559.20
  Q 1047.58 558.55 1048.24 558.55
  Q 1057.82 558.53 1067.29 557.06
  A 1.03 1.02 -80.6 0 0 1068.04 556.52
  C 1071.31 550.43 1068.46 535.39 1066.33 528.97
  Q 1065.67 526.97 1064.01 526.71
  Q 1056.96 525.57 1046.62 525.47
  Q 1046.11 525.47 1046.09 524.96
  Z"
/>
<path fill="#6d5845" d="
  M 681.88 619.87
  C 645.85 616.39 616.51 588.16 612.76 551.75
  Q 610.30 527.92 611.52 503.99
  Q 612.13 491.81 614.87 481.21
  Q 616.92 473.28 625.23 471.89
  Q 648.21 468.06 669.04 473.78
  C 675.17 475.46 674.19 480.09 673.79 486.14
  C 672.91 499.52 667.38 553.80 684.60 558.88
  C 690.74 560.70 696.26 558.18 698.64 552.11
  C 705.80 533.89 705.35 512.93 704.83 495.42
  C 704.66 489.48 704.67 484.59 704.94 479.74
  C 705.51 469.61 741.10 471.75 748.52 472.90
  Q 754.21 473.79 758.11 476.10
  C 768.32 482.16 763.74 539.85 762.26 551.50
  C 760.09 568.55 755.98 582.47 743.74 596.01
  Q 718.93 623.46 681.88 619.87
  Z
  M 751.98 478.28
  C 741.65 475.71 730.15 475.56 719.62 476.86
  Q 714.57 477.48 710.10 479.17
  A 1.34 1.33 81.1 0 0 709.25 480.34
  C 709.03 484.63 708.86 488.71 709.08 493.20
  Q 710.03 512.63 708.13 531.99
  C 707.34 539.97 704.69 553.95 698.79 559.80
  C 692.52 566.02 681.26 564.55 676.00 558.00
  C 672.80 554.01 670.70 547.00 669.78 541.75
  C 666.42 522.56 668.09 503.85 669.78 481.75
  Q 669.87 480.48 669.60 479.32
  Q 669.47 478.81 668.99 478.58
  Q 666.51 477.42 663.25 476.78
  Q 643.79 472.93 624.73 476.39
  C 620.35 477.19 618.32 483.49 617.86 486.48
  Q 613.00 518.05 617.34 552.49
  Q 618.57 562.28 620.88 568.76
  C 631.04 597.13 660.84 616.25 690.47 616.06
  C 721.24 615.86 748.21 594.59 755.54 564.84
  Q 757.12 558.41 758.61 545.08
  Q 761.61 518.12 759.14 491.61
  Q 758.79 487.82 757.67 483.31
  C 756.83 479.95 755.09 479.05 751.98 478.28
  Z"
/>
<path fill="#47eada" d="
  M 777.06 479.54
  C 785.77 471.18 827.88 469.09 835.96 478.38
  Q 836.28 478.75 836.33 479.24
  Q 837.33 488.72 837.47 492.25
  Q 839.48 541.32 835.39 590.24
  Q 834.44 601.49 832.55 609.77
  C 832.05 611.95 830.27 613.26 828.00 613.69
  C 816.56 615.90 800.94 617.08 789.29 613.49
  Q 788.79 613.34 788.53 612.89
  Q 786.98 610.22 786.58 608.56
  Q 783.78 597.05 781.97 583.25
  Q 775.75 535.80 774.81 490.00
  C 774.75 487.07 774.62 481.89 777.06 479.54
  Z"
/>
<path fill="#47eada" d="
  M 871.87 474.10
  Q 898.31 469.66 923.26 475.81
  C 938.45 479.55 951.40 488.64 960.66 501.40
  C 980.91 529.32 981.91 568.47 956.91 594.20
  C 948.27 603.08 937.45 607.77 925.49 611.05
  Q 901.16 617.72 874.50 614.23
  Q 869.09 613.52 865.57 612.59
  C 861.33 611.46 859.59 606.36 858.67 602.50
  Q 855.76 590.36 854.59 580.50
  Q 850.21 543.59 852.74 506.50
  C 853.26 498.87 854.04 486.66 858.04 480.05
  C 860.10 476.64 868.11 474.74 871.87 474.10
  Z
  M 925.13 533.12
  C 919.68 527.76 912.26 524.60 904.49 525.80
  C 899.22 526.62 897.89 529.96 897.33 535.02
  Q 896.26 544.48 898.38 553.74
  C 899.71 559.56 901.93 562.07 908.00 562.08
  C 915.36 562.09 923.60 560.48 927.88 554.34
  C 932.44 547.80 930.69 538.57 925.13 533.12
  Z"
/>
<path fill="#47eada" d="
  M 1046.62 525.47
  Q 1056.96 525.57 1064.01 526.71
  Q 1065.67 526.97 1066.33 528.97
  C 1068.46 535.39 1071.31 550.43 1068.04 556.52
  A 1.03 1.02 -80.6 0 1 1067.29 557.06
  Q 1057.82 558.53 1048.24 558.55
  Q 1047.58 558.55 1047.58 559.20
  L 1047.57 567.99
  Q 1047.57 568.59 1048.17 568.58
  Q 1064.85 568.31 1085.74 567.23
  Q 1089.85 567.01 1094.07 568.37
  A 1.20 1.18 87.7 0 1 1094.80 569.05
  Q 1095.75 571.36 1096.33 575.25
  Q 1098.81 591.78 1097.37 606.06
  C 1097.18 607.96 1095.95 609.02 1094.26 609.47
  Q 1085.52 611.84 1076.50 612.76
  Q 1042.82 616.20 1009.00 614.35
  Q 1004.08 614.08 999.30 612.80
  Q 998.81 612.67 998.54 612.24
  Q 997.10 610.02 996.72 608.01
  Q 993.95 593.41 992.75 576.26
  Q 989.67 531.92 991.35 487.50
  C 991.44 485.29 992.31 480.51 993.00 478.84
  Q 994.39 475.51 998.92 475.05
  Q 1036.90 471.13 1075.00 473.16
  Q 1081.19 473.49 1086.48 474.83
  A 2.67 2.67 0.0 0 1 1088.46 476.99
  Q 1091.22 493.74 1088.51 510.48
  A 2.65 2.63 85.6 0 1 1086.74 512.56
  Q 1081.61 514.24 1075.75 514.54
  Q 1061.07 515.27 1046.37 515.90
  A 0.65 0.65 0.0 0 0 1045.75 516.57
  L 1046.09 524.96
  Q 1046.11 525.47 1046.62 525.47
  Z"
/>
<path fill="#47eada" d="
  M 566.78 612.96
  C 538.34 619.78 510.12 617.18 488.06 597.21
  C 467.54 578.63 464.41 553.57 471.62 528.00
  C 481.57 492.76 511.57 473.41 547.50 473.77
  Q 559.75 473.89 572.72 479.05
  C 588.06 485.16 595.01 497.08 594.94 513.38
  C 594.93 516.25 593.39 517.46 590.99 518.45
  Q 577.81 523.84 561.24 524.14
  Q 557.65 524.20 555.73 523.78
  A 0.71 0.71 0.0 0 1 555.17 523.04
  Q 555.43 518.45 551.53 517.83
  Q 547.60 517.20 540.26 518.44
  C 507.06 524.01 509.66 570.34 545.25 569.67
  C 550.69 569.57 554.16 567.69 555.30 562.13
  Q 556.36 556.90 556.91 551.64
  Q 557.09 549.93 558.62 549.14
  C 570.02 543.23 586.30 542.38 598.51 544.72
  C 600.72 545.14 602.15 546.45 602.40 548.85
  Q 605.44 577.94 603.23 607.08
  C 603.05 609.37 602.67 614.31 599.75 614.74
  Q 586.49 616.74 571.24 615.28
  Q 568.65 615.03 567.57 613.29
  Q 567.29 612.84 566.78 612.96
  Z"
/>
<path fill="#47eada" d="
  M 719.62 476.86
  C 730.15 475.56 741.65 475.71 751.98 478.28
  C 755.09 479.05 756.83 479.95 757.67 483.31
  Q 758.79 487.82 759.14 491.61
  Q 761.61 518.12 758.61 545.08
  Q 757.12 558.41 755.54 564.84
  C 748.21 594.59 721.24 615.86 690.47 616.06
  C 660.84 616.25 631.04 597.13 620.88 568.76
  Q 618.57 562.28 617.34 552.49
  Q 613.00 518.05 617.86 486.48
  C 618.32 483.49 620.35 477.19 624.73 476.39
  Q 643.79 472.93 663.25 476.78
  Q 666.51 477.42 668.99 478.58
  Q 669.47 478.81 669.60 479.32
  Q 669.87 480.48 669.78 481.75
  C 668.09 503.85 666.42 522.56 669.78 541.75
  C 670.70 547.00 672.80 554.01 676.00 558.00
  C 681.26 564.55 692.52 566.02 698.79 559.80
  C 704.69 553.95 707.34 539.97 708.13 531.99
  Q 710.03 512.63 709.08 493.20
  C 708.86 488.71 709.03 484.63 709.25 480.34
  A 1.34 1.33 81.1 0 1 710.10 479.17
  Q 714.57 477.48 719.62 476.86
  Z"
/>
<path fill="#6d5845" d="
  M 904.49 525.80
  C 912.26 524.60 919.68 527.76 925.13 533.12
  C 930.69 538.57 932.44 547.80 927.88 554.34
  C 923.60 560.48 915.36 562.09 908.00 562.08
  C 901.93 562.07 899.71 559.56 898.38 553.74
  Q 896.26 544.48 897.33 535.02
  C 897.89 529.96 899.22 526.62 904.49 525.80
  Z
  M 905.28 557.48
  C 913.42 558.70 926.36 556.07 926.17 545.83
  C 925.99 535.83 913.32 527.63 903.90 530.36
  A 2.41 2.39 -2.3 0 0 902.20 532.19
  C 901.03 538.05 900.33 551.97 904.44 557.01
  Q 904.77 557.41 905.28 557.48
  Z"
/>
<path fill="#f8c059" d="
  M 926.17 545.83
  C 926.36 556.07 913.42 558.70 905.28 557.48
  Q 904.77 557.41 904.44 557.01
  C 900.33 551.97 901.03 538.05 902.20 532.19
  A 2.41 2.39 -2.3 0 1 903.90 530.36
  C 913.32 527.63 925.99 535.83 926.17 545.83
  Z"
/>
<path fill="#6d5845" d="
  M 850.62 854.76
  Q 816.03 851.50 795.67 825.72
  C 768.03 790.71 777.10 741.88 812.78 716.53
  Q 836.40 699.75 866.76 704.30
  C 881.75 706.55 894.36 710.89 906.21 720.21
  Q 933.31 741.54 933.29 776.76
  C 933.27 822.08 896.81 859.10 850.62 854.76
  Z
  M 852.99 850.53
  C 894.86 853.66 927.10 820.06 928.93 779.74
  C 930.37 748.03 911.23 721.33 881.24 711.86
  C 861.98 705.78 839.97 705.41 822.12 715.58
  C 784.79 736.85 771.30 784.92 797.29 820.69
  C 810.75 839.20 830.41 848.85 852.99 850.53
  Z"
/>
<path fill="#6d5845" d="
  M 709.88 854.92
  C 676.59 858.37 644.82 842.48 630.06 812.38
  C 611.69 774.96 628.70 730.66 664.64 711.36
  C 690.80 697.32 728.63 703.17 751.03 721.95
  C 769.66 737.57 777.93 758.54 776.28 782.48
  Q 773.24 826.55 734.01 847.99
  Q 724.03 853.45 709.88 854.92
  Z
  M 682.58 848.98
  C 729.25 860.16 769.72 826.91 772.12 780.35
  C 774.15 740.98 744.80 712.36 706.97 708.51
  C 692.26 707.01 678.33 708.67 665.59 715.83
  C 629.87 735.89 615.01 781.72 637.79 817.18
  Q 653.79 842.09 682.58 848.98
  Z"
/>
<path fill="#6d5845" d="
  M 1002.47 836.04
  C 1001.83 840.13 1001.26 845.56 998.75 848.91
  C 993.23 856.28 964.01 854.74 955.73 853.58
  Q 948.59 852.59 946.95 845.63
  Q 944.95 837.19 943.93 828.62
  Q 939.20 788.45 938.42 748.00
  Q 938.01 727.18 938.93 716.99
  C 940.16 703.30 982.12 704.09 991.51 705.17
  C 996.82 705.79 1004.74 707.27 1005.35 713.52
  Q 1005.94 719.54 1006.32 725.74
  A 0.43 0.43 0.0 0 0 1007.03 726.05
  Q 1017.44 717.25 1029.57 710.55
  C 1035.19 707.44 1038.96 709.13 1043.62 712.63
  Q 1055.98 721.96 1066.33 735.17
  C 1069.61 739.36 1069.68 742.84 1066.97 747.57
  Q 1064.65 751.63 1061.93 754.93
  Q 1051.63 767.45 1039.06 780.60
  Q 1038.64 781.04 1039.18 781.31
  Q 1057.28 790.63 1068.77 798.40
  C 1073.13 801.36 1071.78 810.32 1070.74 814.73
  Q 1067.00 830.62 1058.08 844.28
  C 1054.60 849.62 1049.52 855.77 1042.23 853.84
  Q 1036.53 852.33 1024.11 846.14
  Q 1013.62 840.91 1003.10 835.71
  Q 1002.56 835.44 1002.47 836.04
  Z
  M 1002.44 734.63
  Q 1001.88 724.81 1001.42 714.99
  C 1001.24 710.99 995.25 710.14 992.26 709.74
  Q 975.70 707.52 959.24 710.21
  C 955.58 710.80 943.60 713.20 943.22 717.99
  Q 942.31 729.68 942.69 747.00
  Q 943.45 782.21 946.84 817.26
  Q 948.21 831.42 951.52 845.25
  Q 952.25 848.27 955.16 848.93
  C 964.87 851.14 975.92 850.42 985.75 849.33
  C 989.93 848.87 995.31 848.29 996.53 843.50
  Q 998.34 836.35 998.93 829.28
  A 0.53 0.53 0.0 0 1 999.71 828.86
  Q 1017.26 838.34 1035.44 846.48
  Q 1041.98 849.40 1043.33 849.59
  Q 1048.18 850.26 1051.77 845.29
  Q 1062.36 830.62 1066.25 815.02
  C 1066.94 812.28 1068.67 803.54 1065.96 801.79
  Q 1049.38 791.09 1031.81 782.41
  A 0.37 0.37 0.0 0 1 1031.71 781.82
  Q 1043.99 769.37 1055.45 755.95
  C 1057.58 753.46 1066.38 742.99 1064.25 739.81
  C 1061.61 735.88 1040.15 710.76 1033.95 713.40
  C 1023.02 718.05 1012.41 727.11 1003.06 734.90
  Q 1002.49 735.38 1002.44 734.63
  Z"
/>
<path fill="#47eada" d="
  M 597.56 841.53
  C 589.12 848.16 579.22 850.66 568.50 850.99
  Q 550.67 851.54 528.00 851.21
  Q 516.45 851.05 506.43 849.40
  Q 505.92 849.32 505.58 848.93
  Q 504.16 847.27 503.80 845.62
  Q 501.46 834.74 500.53 821.51
  Q 498.35 790.46 498.67 759.34
  C 498.83 744.42 498.97 733.75 500.19 720.99
  C 500.75 715.16 509.46 712.24 514.21 711.06
  Q 539.74 704.67 565.74 709.84
  C 581.80 713.03 595.50 720.53 601.19 736.52
  C 605.13 747.60 604.08 758.97 597.13 768.49
  A 1.05 1.04 32.3 0 0 597.48 770.02
  C 613.31 778.57 618.93 793.73 616.09 810.97
  Q 613.05 829.36 597.56 841.53
  Z
  M 554.96 736.79
  C 551.31 736.11 543.36 735.89 542.18 740.93
  Q 540.37 748.66 542.53 756.53
  C 545.08 765.80 555.89 763.05 561.20 758.53
  C 570.13 750.92 566.11 738.87 554.96 736.79
  Z
  M 546.45 817.68
  C 549.63 820.40 555.50 819.61 559.29 818.64
  C 584.20 812.29 569.95 786.07 550.70 788.09
  C 545.05 788.68 542.80 791.56 542.27 796.99
  C 541.68 803.12 541.66 813.57 546.45 817.68
  Z"
/>
<path fill="#47eada" d="
  M 928.93 779.74
  C 927.10 820.06 894.86 853.66 852.99 850.53
  C 830.41 848.85 810.75 839.20 797.29 820.69
  C 771.30 784.92 784.79 736.85 822.12 715.58
  C 839.97 705.41 861.98 705.78 881.24 711.86
  C 911.23 721.33 930.37 748.03 928.93 779.74
  Z
  M 877.1148 774.0325
  A 21.27 20.99 -13.7 0 0 851.4788 758.6772
  A 21.27 20.99 -13.7 0 0 835.7852 784.1075
  A 21.27 20.99 -13.7 0 0 861.4212 799.4628
  A 21.27 20.99 -13.7 0 0 877.1148 774.0325
  Z"
/>
<path fill="#47eada" d="
  M 772.12 780.35
  C 769.72 826.91 729.25 860.16 682.58 848.98
  Q 653.79 842.09 637.79 817.18
  C 615.01 781.72 629.87 735.89 665.59 715.83
  C 678.33 708.67 692.26 707.01 706.97 708.51
  C 744.80 712.36 774.15 740.98 772.12 780.35
  Z
  M 720.3614 774.7677
  A 21.27 20.98 -12.8 0 0 694.9719 759.0214
  A 21.27 20.98 -12.8 0 0 678.8786 784.1923
  A 21.27 20.98 -12.8 0 0 704.2681 799.9386
  A 21.27 20.98 -12.8 0 0 720.3614 774.7677
  Z"
/>
<path fill="#47eada" d="
  M 1003.06 734.90
  C 1012.41 727.11 1023.02 718.05 1033.95 713.40
  C 1040.15 710.76 1061.61 735.88 1064.25 739.81
  C 1066.38 742.99 1057.58 753.46 1055.45 755.95
  Q 1043.99 769.37 1031.71 781.82
  A 0.37 0.37 0.0 0 0 1031.81 782.41
  Q 1049.38 791.09 1065.96 801.79
  C 1068.67 803.54 1066.94 812.28 1066.25 815.02
  Q 1062.36 830.62 1051.77 845.29
  Q 1048.18 850.26 1043.33 849.59
  Q 1041.98 849.40 1035.44 846.48
  Q 1017.26 838.34 999.71 828.86
  A 0.53 0.53 0.0 0 0 998.93 829.28
  Q 998.34 836.35 996.53 843.50
  C 995.31 848.29 989.93 848.87 985.75 849.33
  C 975.92 850.42 964.87 851.14 955.16 848.93
  Q 952.25 848.27 951.52 845.25
  Q 948.21 831.42 946.84 817.26
  Q 943.45 782.21 942.69 747.00
  Q 942.31 729.68 943.22 717.99
  C 943.60 713.20 955.58 710.80 959.24 710.21
  Q 975.70 707.52 992.26 709.74
  C 995.25 710.14 1001.24 710.99 1001.42 714.99
  Q 1001.88 724.81 1002.44 734.63
  Q 1002.49 735.38 1003.06 734.90
  Z"
/>
<path fill="#6d5845" d="
  M 542.18 740.93
  C 543.36 735.89 551.31 736.11 554.96 736.79
  C 566.11 738.87 570.13 750.92 561.20 758.53
  C 555.89 763.05 545.08 765.80 542.53 756.53
  Q 540.37 748.66 542.18 740.93
  Z
  M 545.67 744.70
  L 546.19 754.63
  A 3.77 3.77 0.0 0 0 550.15 758.19
  L 550.84 758.16
  A 11.32 8.57 -3.0 0 0 561.70 749.01
  L 561.68 748.67
  A 11.32 8.57 -3.0 0 0 549.93 740.70
  L 549.24 740.74
  A 3.77 3.77 0.0 0 0 545.67 744.70
  Z"
/>
<path fill="#f8c059" d="
  M 545.67 744.70
  A 3.77 3.77 0.0 0 1 549.24 740.74
  L 549.93 740.70
  A 11.32 8.57 -3.0 0 1 561.68 748.67
  L 561.70 749.01
  A 11.32 8.57 -3.0 0 1 550.84 758.16
  L 550.15 758.19
  A 3.77 3.77 0.0 0 1 546.19 754.63
  L 545.67 744.70
  Z"
/>
<path fill="#6d5845" d="
  M 877.1148 774.0325
  A 21.27 20.99 -13.7 0 1 861.4212 799.4628
  A 21.27 20.99 -13.7 0 1 835.7852 784.1075
  A 21.27 20.99 -13.7 0 1 851.4788 758.6772
  A 21.27 20.99 -13.7 0 1 877.1148 774.0325
  Z
  M 872.8236 774.8150
  A 16.92 16.63 -14.6 0 0 852.2581 762.9870
  A 16.92 16.63 -14.6 0 0 840.0764 783.3450
  A 16.92 16.63 -14.6 0 0 860.6419 795.1730
  A 16.92 16.63 -14.6 0 0 872.8236 774.8150
  Z"
/>
<path fill="#6d5845" d="
  M 720.3614 774.7677
  A 21.27 20.98 -12.8 0 1 704.2681 799.9386
  A 21.27 20.98 -12.8 0 1 678.8786 784.1923
  A 21.27 20.98 -12.8 0 1 694.9719 759.0214
  A 21.27 20.98 -12.8 0 1 720.3614 774.7677
  Z
  M 716.0133 775.3319
  A 16.91 16.63 -14.2 0 0 695.5405 763.3581
  A 16.91 16.63 -14.2 0 0 683.2267 783.6281
  A 16.91 16.63 -14.2 0 0 703.6995 795.6019
  A 16.91 16.63 -14.2 0 0 716.0133 775.3319
  Z"
/>
<ellipse fill="#f8c059" cx="0.00" cy="0.00" transform="translate(856.45,779.08) rotate(-14.6)" rx="16.92" ry="16.63"/>
<ellipse fill="#f8c059" cx="0.00" cy="0.00" transform="translate(699.62,779.48) rotate(-14.2)" rx="16.91" ry="16.63"/>
<path fill="#6d5845" d="
  M 546.45 817.68
  C 541.66 813.57 541.68 803.12 542.27 796.99
  C 542.80 791.56 545.05 788.68 550.70 788.09
  C 569.95 786.07 584.20 812.29 559.29 818.64
  C 555.50 819.61 549.63 820.40 546.45 817.68
  Z
  M 550.74 815.13
  C 556.51 815.86 568.61 813.10 568.14 805.01
  C 567.59 795.68 556.08 790.03 547.92 793.32
  A 1.08 1.08 0.0 0 0 547.27 794.05
  Q 544.88 803.23 547.86 812.31
  Q 548.71 814.87 550.74 815.13
  Z"
/>
<path fill="#f8c059" d="
  M 568.14 805.01
  C 568.61 813.10 556.51 815.86 550.74 815.13
  Q 548.71 814.87 547.86 812.31
  Q 544.88 803.23 547.27 794.05
  A 1.08 1.08 0.0 0 1 547.92 793.32
  C 556.08 790.03 567.59 795.68 568.14 805.01
  Z"
/>
</svg>
