<?xml version="1.0" encoding="UTF-8" standalone="no"?>
<!DOCTYPE svg PUBLIC "-//W3C//DTD SVG 1.1//EN" "http://www.w3.org/Graphics/SVG/1.1/DTD/svg11.dtd">
<svg xmlns="http://www.w3.org/2000/svg" version="1.1" viewBox="0.00 0.00 1494.00 1403.00">
<g stroke-width="2.00" fill="none" stroke-linecap="butt">
<path stroke="#5aa190" vector-effect="non-scaling-stroke" d="
  M 1212.99 411.20
  C 1181.67 387.06 1136.15 387.04 1100.98 401.20
  Q 1099.89 401.64 1096.64 403.63
  A 1.22 1.22 0.0 0 0 1096.10 404.37
  Q 1094.76 409.69 1094.53 413.25
  Q 1093.50 429.66 1093.98 450.26
  Q 1095.23 504.93 1101.61 559.24
  Q 1103.05 571.51 1104.45 575.02
  Q 1105.74 578.28 1109.25 578.47
  Q 1132.30 579.73 1155.26 577.14
  Q 1163.76 576.17 1164.05 568.61
  C 1164.15 565.99 1164.38 563.35 1164.59 560.72
  C 1165.56 547.99 1186.68 559.04 1192.14 562.31
  C 1200.52 567.33 1208.64 573.36 1218.01 576.47
  C 1225.49 578.95 1227.83 574.80 1232.17 569.70
  Q 1242.24 557.85 1248.72 546.97
  Q 1250.86 543.37 1252.14 539.39
  C 1253.53 535.07 1247.23 528.28 1244.60 525.61
  Q 1232.84 513.69 1219.75 502.88
  Q 1219.28 502.49 1219.75 502.11
  Q 1233.21 491.33 1235.20 474.25
  C 1237.87 451.37 1232.22 426.02 1212.99 411.20"
/>
<path stroke="#5aa190" vector-effect="non-scaling-stroke" d="
  M 846.84 469.85
  Q 866.21 469.43 885.49 467.44
  C 888.23 467.16 889.70 465.87 890.77 463.51
  C 897.84 447.96 898.81 427.25 896.12 410.63
  C 895.43 406.35 893.15 398.16 888.25 397.91
  Q 833.39 395.12 770.25 397.78
  Q 749.36 398.66 730.25 401.00
  C 727.69 401.31 720.43 402.26 718.76 404.62
  Q 717.75 406.06 717.59 408.00
  Q 715.83 428.31 718.73 448.50
  Q 720.22 458.91 722.54 465.89
  A 1.27 1.26 4.8 0 0 723.17 466.63
  Q 726.37 468.25 729.03 468.64
  Q 747.10 471.27 768.46 471.24
  Q 769.00 471.24 769.04 471.78
  Q 771.60 514.81 777.70 557.47
  C 778.23 561.21 780.22 575.68 783.96 577.08
  C 789.57 579.17 797.16 579.35 804.24 579.58
  Q 818.98 580.05 833.50 577.24
  Q 836.29 576.70 838.59 574.96
  Q 839.01 574.65 839.16 574.15
  Q 841.58 566.20 841.90 562.76
  Q 846.25 516.69 846.31 470.39
  Q 846.31 469.86 846.84 469.85"
/>
<path stroke="#5aa190" vector-effect="non-scaling-stroke" d="
  M 642.62 481.24
  L 642.67 464.53
  A 0.44 0.43 0.7 0 1 643.12 464.10
  Q 663.31 464.89 683.51 464.38
  Q 688.77 464.24 694.07 463.49
  A 1.32 1.30 -75.2 0 0 694.90 463.00
  Q 696.92 460.36 697.87 457.54
  Q 705.59 434.59 702.60 410.27
  Q 702.59 410.21 702.40 407.22
  C 702.07 402.11 698.98 399.59 693.87 399.13
  Q 656.38 395.76 618.75 397.25
  Q 602.41 397.90 586.25 400.24
  C 580.30 401.10 571.46 402.64 567.04 407.03
  Q 566.67 407.39 566.62 407.90
  C 565.30 420.85 565.50 434.24 566.44 450.51
  Q 569.02 495.47 575.68 540.01
  Q 578.01 555.62 581.10 569.02
  Q 581.84 572.20 583.49 576.10
  Q 583.69 576.57 584.16 576.76
  Q 588.89 578.73 593.99 579.32
  Q 612.18 581.42 630.26 578.52
  C 635.95 577.61 637.35 574.35 638.24 569.24
  Q 640.60 555.80 641.26 540.09
  Q 641.28 539.51 641.86 539.50
  C 654.66 539.20 666.78 539.14 679.78 537.03
  C 682.84 536.53 684.65 535.76 685.67 532.87
  C 690.44 519.34 692.91 501.48 688.79 487.55
  Q 687.99 484.86 686.27 484.63
  Q 664.95 481.78 643.36 481.98
  Q 642.61 481.99 642.62 481.24"
/>
<path stroke="#5aa190" vector-effect="non-scaling-stroke" d="
  M 207.26 511.88
  C 208.54 530.46 210.53 549.84 216.08 567.97
  C 217.31 572.01 219.21 576.22 223.64 577.37
  Q 228.74 578.71 237.00 579.73
  Q 276.27 584.57 311.61 571.96
  C 324.19 567.47 335.25 561.19 343.63 551.63
  C 368.93 522.76 371.73 483.86 355.35 449.67
  C 340.08 417.80 313.91 401.98 279.61 398.14
  Q 258.20 395.74 237.25 398.24
  C 231.42 398.94 221.58 401.10 217.34 403.95
  Q 213.16 406.75 211.69 412.49
  Q 208.97 423.05 208.27 430.51
  Q 204.46 471.14 207.26 511.88"
/>
<path stroke="#5aa190" vector-effect="non-scaling-stroke" d="
  M 1030.54 404.39
  C 1027.43 399.78 1018.89 398.11 1013.89 397.68
  Q 987.29 395.40 961.91 403.16
  C 959.13 404.00 955.40 405.76 954.17 407.96
  Q 951.41 412.92 947.92 421.85
  Q 945.58 427.83 942.84 436.21
  Q 926.23 487.07 916.59 539.73
  Q 913.43 556.96 913.13 571.74
  C 913.01 577.58 919.74 578.03 924.01 578.37
  C 935.54 579.27 947.75 580.26 958.41 578.26
  A 1.30 1.28 11.4 0 0 959.24 577.72
  C 964.82 569.59 968.77 560.08 973.04 551.19
  C 976.36 544.29 980.36 541.45 988.01 541.33
  Q 996.62 541.20 1005.25 541.26
  C 1011.83 541.32 1016.07 542.42 1019.23 548.04
  C 1023.83 556.20 1025.79 565.12 1029.79 573.51
  C 1033.00 580.25 1036.46 579.21 1043.85 578.99
  Q 1057.21 578.58 1070.51 577.26
  C 1076.07 576.71 1085.66 575.88 1088.99 572.17
  Q 1089.32 571.81 1089.38 571.31
  Q 1089.84 567.22 1089.31 565.22
  Q 1075.09 511.63 1056.09 459.54
  Q 1048.96 439.99 1040.50 421.00
  Q 1036.99 413.13 1031.83 406.30
  Q 1031.75 406.19 1030.54 404.39"
/>
<path stroke="#5aa190" vector-effect="non-scaling-stroke" d="
  M 420.67 421.23
  C 406.67 460.13 396.16 499.83 388.77 540.50
  Q 386.44 553.30 385.26 566.24
  C 384.88 570.37 384.60 577.94 388.72 578.70
  Q 406.43 581.97 429.81 579.74
  A 1.33 1.32 -69.3 0 0 430.62 579.37
  Q 432.81 577.25 434.45 573.99
  Q 441.14 560.64 444.80 552.96
  C 448.04 546.18 451.75 542.84 459.26 542.69
  Q 469.50 542.48 479.76 542.63
  C 487.25 542.74 491.71 548.56 494.11 554.97
  Q 499.18 568.52 500.67 572.75
  C 501.98 576.44 504.44 580.28 508.80 580.31
  Q 532.61 580.47 554.77 576.75
  C 564.10 575.19 561.79 568.78 559.92 561.68
  Q 543.61 500.05 520.27 440.70
  C 516.62 431.43 507.12 405.54 497.49 401.78
  Q 491.64 399.49 484.50 398.97
  C 466.71 397.67 444.16 399.22 427.85 407.20
  Q 427.39 407.42 427.12 407.86
  Q 423.19 414.24 420.67 421.23"
/>
<path stroke="#5aa190" vector-effect="non-scaling-stroke" d="
  M 828.50 805.57
  Q 841.49 794.99 843.79 778.77
  Q 846.24 761.52 841.07 743.90
  Q 834.90 722.88 817.55 711.41
  C 786.74 691.05 745.11 691.25 711.47 703.98
  Q 708.87 704.97 705.49 707.03
  A 1.51 1.49 -4.6 0 0 704.86 707.76
  Q 703.93 710.13 703.76 711.74
  Q 702.40 724.67 702.61 742.00
  Q 703.39 805.13 710.34 863.45
  C 710.86 867.80 711.76 872.20 712.58 876.55
  C 713.73 882.63 717.66 882.02 723.45 882.23
  Q 737.55 882.72 751.62 881.76
  C 756.95 881.39 770.57 881.47 771.94 875.95
  Q 773.07 871.40 773.07 866.14
  C 773.09 846.00 808.90 870.66 814.98 874.47
  C 819.16 877.08 822.55 878.51 827.02 880.00
  C 833.72 882.23 835.71 879.05 840.22 873.98
  Q 850.99 861.87 858.94 847.70
  C 859.79 846.19 861.35 842.73 861.18 840.80
  C 860.75 836.17 851.81 827.35 848.36 824.13
  Q 838.64 815.04 828.49 806.42
  Q 827.98 805.99 828.50 805.57"
/>
<path stroke="#5aa190" vector-effect="non-scaling-stroke" d="
  M 1418.83 878.33
  A 3.58 3.57 -9.9 0 0 1420.44 876.05
  Q 1421.76 869.82 1422.25 860.50
  Q 1423.94 828.36 1420.97 796.31
  C 1420.69 793.25 1421.14 790.92 1417.70 789.58
  Q 1413.61 787.99 1408.51 787.53
  C 1394.69 786.31 1376.09 787.78 1363.75 794.75
  A 2.85 2.83 78.9 0 0 1362.34 796.86
  Q 1361.53 803.19 1360.37 809.83
  Q 1359.53 814.60 1357.84 816.72
  C 1353.10 822.65 1340.60 821.26 1334.31 819.44
  C 1312.82 813.22 1303.92 789.53 1315.87 770.68
  C 1323.42 758.77 1337.15 753.72 1351.32 754.10
  C 1357.77 754.28 1359.11 754.34 1360.12 760.97
  Q 1360.19 761.49 1360.70 761.64
  Q 1363.25 762.37 1365.20 762.39
  Q 1384.96 762.59 1403.02 756.25
  Q 1406.22 755.13 1409.17 752.87
  C 1411.75 750.89 1411.20 749.51 1411.02 746.59
  C 1410.01 730.61 1405.43 716.66 1390.92 708.37
  C 1364.08 693.05 1329.89 694.86 1302.68 707.24
  C 1267.29 723.35 1250.41 756.12 1248.11 793.74
  Q 1246.23 824.42 1265.22 847.52
  C 1290.16 877.85 1329.64 885.90 1366.89 878.12
  Q 1371.03 877.25 1375.37 876.33
  A 0.65 0.65 0.0 0 1 1376.12 876.77
  Q 1376.82 878.93 1378.85 879.22
  Q 1397.17 881.83 1416.89 878.99
  Q 1418.00 878.83 1418.83 878.33"
/>
<path stroke="#5aa190" vector-effect="non-scaling-stroke" d="
  M 1165.07 754.29
  A 0.29 0.29 0.0 0 1 1164.54 754.45
  C 1154.17 739.14 1143.26 723.80 1130.39 710.36
  C 1123.28 702.94 1117.28 701.43 1106.50 700.02
  C 1092.42 698.16 1074.93 697.88 1061.34 702.71
  A 2.90 2.90 0.0 0 0 1059.45 705.02
  Q 1057.84 715.94 1057.19 727.75
  Q 1053.49 794.72 1059.65 861.51
  Q 1060.15 866.95 1062.21 874.50
  C 1063.03 877.52 1065.18 878.77 1067.99 879.31
  Q 1083.59 882.32 1100.26 881.36
  Q 1106.94 880.98 1113.41 879.24
  Q 1115.62 878.64 1116.18 876.90
  Q 1118.29 870.29 1119.32 861.01
  Q 1121.64 840.03 1123.09 819.09
  A 0.26 0.26 0.0 0 1 1123.55 818.95
  Q 1144.58 846.48 1169.31 870.95
  C 1175.93 877.50 1179.46 879.59 1187.75 880.36
  Q 1205.86 882.06 1222.18 879.39
  Q 1225.50 878.85 1228.43 877.22
  A 1.18 1.17 81.4 0 0 1229.00 876.44
  Q 1229.24 875.35 1229.37 874.23
  Q 1231.48 855.30 1232.03 836.25
  Q 1233.55 783.75 1231.95 731.26
  Q 1231.55 718.11 1230.49 705.00
  C 1230.22 701.71 1225.11 700.48 1222.49 699.96
  Q 1197.13 694.90 1172.20 701.63
  Q 1167.27 702.97 1164.28 706.51
  A 1.40 1.39 -24.9 0 0 1163.95 707.41
  C 1163.84 723.08 1164.85 738.68 1165.07 754.29"
/>
<path stroke="#5aa190" vector-effect="non-scaling-stroke" d="
  M 976.63 845.87
  C 983.50 851.37 986.74 863.69 989.79 872.09
  C 990.97 875.36 993.65 881.64 997.83 881.70
  Q 1020.30 881.98 1045.48 877.58
  Q 1053.16 876.24 1051.21 868.60
  Q 1034.37 802.79 1008.25 737.03
  Q 1002.34 722.16 994.30 709.34
  C 990.41 703.14 984.15 701.25 976.99 700.67
  Q 950.39 698.49 926.73 704.69
  C 921.01 706.19 916.76 708.07 914.32 713.75
  Q 909.47 725.04 906.73 733.12
  Q 886.66 792.26 876.59 853.86
  C 875.51 860.49 875.20 867.29 874.83 874.00
  C 874.53 879.47 880.21 880.46 884.25 880.85
  Q 900.26 882.38 916.34 881.45
  C 919.53 881.27 921.44 880.55 922.91 877.81
  Q 927.82 868.60 932.32 859.15
  Q 936.51 850.36 937.62 849.04
  Q 941.62 844.30 948.76 843.99
  Q 956.75 843.64 970.00 843.99
  Q 974.42 844.11 976.63 845.87"
/>
<path stroke="#5aa190" vector-effect="non-scaling-stroke" d="
  M 265.95 767.87
  Q 264.97 762.33 265.60 756.77
  A 1.16 1.15 2.5 0 1 266.73 755.75
  Q 287.38 755.34 308.51 753.69
  Q 314.73 753.20 319.44 751.08
  A 1.09 1.09 0.0 0 0 320.06 750.30
  Q 322.31 738.99 322.13 727.51
  C 322.00 719.90 321.79 713.38 320.33 706.48
  Q 319.63 703.22 316.49 702.68
  Q 307.56 701.16 298.50 700.77
  Q 254.68 698.89 211.01 702.92
  Q 206.23 703.36 201.51 704.31
  C 197.15 705.19 196.25 712.19 195.75 716.25
  Q 195.05 721.88 194.79 736.50
  C 194.02 779.11 195.08 822.45 200.61 864.74
  Q 201.53 871.76 203.75 878.50
  Q 204.46 880.65 206.99 881.10
  Q 216.40 882.79 223.75 883.10
  Q 258.90 884.62 293.96 881.72
  Q 308.09 880.56 322.01 877.91
  Q 326.42 877.08 330.52 875.08
  A 1.08 1.07 84.2 0 0 331.10 874.36
  C 333.99 862.42 332.57 847.36 330.92 835.26
  Q 330.15 829.63 328.85 825.61
  C 327.52 821.50 319.52 822.23 316.25 822.37
  Q 292.31 823.39 268.27 823.73
  Q 267.72 823.73 267.72 823.18
  L 267.74 811.46
  Q 267.74 810.82 268.38 810.82
  Q 280.52 810.79 292.53 809.09
  A 2.31 2.30 5.9 0 0 294.39 807.58
  C 298.01 797.53 294.72 781.10 290.96 771.38
  A 2.27 2.27 0.0 0 0 289.17 769.96
  Q 277.89 768.36 266.50 768.34
  Q 266.03 768.34 265.95 767.87"
/>
<path stroke="#5aa190" vector-effect="non-scaling-stroke" d="
  M 568.86 879.82
  C 573.55 872.21 577.61 863.91 581.23 855.74
  Q 583.28 851.10 585.16 849.23
  Q 589.34 845.06 595.78 844.87
  Q 603.10 844.65 615.50 844.77
  C 623.14 844.85 626.80 848.49 629.88 855.35
  Q 633.35 863.06 635.99 871.10
  C 637.59 875.99 639.88 882.74 646.25 882.64
  Q 669.12 882.28 689.76 879.25
  C 694.26 878.59 699.85 876.49 698.47 870.59
  Q 694.86 855.07 687.84 833.94
  Q 687.65 833.38 687.96 832.87
  Q 688.43 832.11 687.65 831.65
  A 1.02 1.01 15.1 0 1 687.16 830.80
  Q 687.15 829.51 686.77 828.29
  C 674.83 790.85 662.76 753.65 646.10 717.98
  Q 644.96 715.55 640.70 709.59
  C 636.65 703.93 631.30 702.25 624.52 701.62
  Q 596.42 699.02 570.72 706.48
  C 567.40 707.44 564.05 709.24 562.31 712.63
  Q 558.01 720.99 556.43 725.47
  Q 534.38 788.14 523.89 853.77
  Q 522.05 865.27 521.81 874.74
  C 521.62 881.75 529.43 881.66 534.50 882.03
  Q 550.41 883.21 564.15 882.29
  C 566.31 882.14 567.77 881.59 568.86 879.82"
/>
<path stroke="#5aa190" vector-effect="non-scaling-stroke" d="
  M 463.88 791.63
  Q 482.89 772.46 499.45 751.14
  Q 500.68 749.56 502.91 744.15
  A 1.39 1.35 49.6 0 0 502.97 743.24
  Q 502.26 740.66 501.22 739.29
  Q 488.26 722.15 471.56 709.90
  Q 469.22 708.19 465.81 706.85
  Q 465.35 706.67 464.88 706.82
  Q 459.82 708.50 457.30 710.04
  Q 439.38 720.99 423.66 735.00
  A 0.54 0.53 68.5 0 1 422.77 734.61
  Q 422.49 721.82 421.17 708.75
  C 421.02 707.18 421.02 705.86 419.41 705.08
  Q 415.90 703.39 411.01 702.68
  Q 383.04 698.59 355.77 705.76
  C 352.72 706.56 347.25 709.04 346.95 713.01
  Q 345.61 730.48 345.96 748.00
  Q 346.94 796.25 351.97 844.23
  C 353.16 855.61 354.15 868.73 358.44 879.32
  Q 358.86 880.35 359.91 880.71
  Q 365.91 882.71 372.49 883.08
  Q 390.53 884.10 408.26 880.77
  C 414.89 879.53 415.32 875.23 416.45 869.49
  Q 417.78 862.70 418.49 856.06
  A 0.50 0.49 16.3 0 1 419.21 855.67
  C 437.07 865.02 455.04 874.43 473.75 881.73
  C 476.42 882.78 478.41 883.38 481.08 881.79
  Q 483.95 880.08 485.53 878.03
  Q 501.74 856.99 506.32 830.00
  Q 507.05 825.69 505.80 822.01
  A 1.57 1.52 7.9 0 0 505.16 821.19
  Q 483.75 807.35 460.89 796.03
  Q 460.36 795.77 460.71 795.31
  Q 462.24 793.29 463.88 791.63"
/>
<path stroke="#5aa190" vector-effect="non-scaling-stroke" d="
  M 795.56 1003.86
  A 0.63 0.62 7.4 0 0 795.30 1003.53
  Q 792.33 1001.64 788.52 1000.90
  Q 765.59 996.43 743.23 1002.93
  C 739.19 1004.10 737.88 1006.49 737.78 1010.76
  Q 736.87 1049.63 741.19 1090.25
  C 742.09 1098.64 742.90 1110.16 746.69 1116.68
  Q 746.93 1117.10 747.40 1117.26
  C 756.65 1120.47 767.12 1120.60 777.13 1119.56
  C 783.01 1118.95 790.94 1119.34 792.44 1112.75
  Q 794.35 1104.34 795.21 1095.75
  Q 799.60 1051.94 796.39 1008.01
  Q 796.26 1006.13 795.56 1003.86"
/>
<path stroke="#5aa190" vector-effect="non-scaling-stroke" d="
  M 727.28 1008.50
  Q 727.11 1006.12 726.98 1004.71
  A 1.04 1.04 0.0 0 0 726.47 1003.91
  C 715.95 997.79 696.06 998.75 684.25 1000.60
  C 680.20 1001.23 668.89 1003.13 668.62 1008.49
  Q 667.83 1024.15 668.55 1044.50
  Q 669.39 1068.32 671.94 1092.01
  Q 673.21 1103.77 675.95 1114.02
  C 677.19 1118.69 683.22 1119.17 687.20 1119.62
  C 692.86 1120.26 719.97 1121.49 722.43 1115.12
  Q 724.14 1110.70 725.13 1102.17
  Q 730.55 1055.43 727.28 1008.50"
/>
<path stroke="#5aa190" vector-effect="non-scaling-stroke" d="
  M 784.65 1179.91
  C 800.02 1167.57 800.23 1141.26 779.30 1134.17
  Q 759.72 1127.53 747.39 1142.93
  C 741.06 1150.84 740.47 1161.10 745.00 1170.13
  C 751.82 1183.72 771.71 1190.30 784.65 1179.91"
/>
<path stroke="#5aa190" vector-effect="non-scaling-stroke" d="
  M 678.16 1143.22
  C 669.35 1154.75 671.62 1170.56 683.00 1179.30
  C 692.10 1186.28 706.66 1187.60 715.93 1179.69
  C 723.52 1173.21 727.50 1163.84 726.17 1153.93
  C 724.74 1143.30 717.89 1136.41 707.52 1133.52
  Q 689.43 1128.46 678.16 1143.22"
/>
<path stroke="#5aa190" vector-effect="non-scaling-stroke" d="
  M 1153.63 443.63
  C 1144.16 447.08 1145.42 461.21 1147.37 468.84
  C 1149.74 478.15 1154.44 483.81 1164.75 481.60
  Q 1175.81 479.23 1181.25 469.98
  C 1188.17 458.21 1181.25 444.98 1168.12 442.99
  C 1164.05 442.38 1157.53 442.20 1153.63 443.63"
/>
<path stroke="#5aa190" vector-effect="non-scaling-stroke" d="
  M 307.08 488.65
  C 305.80 479.65 300.54 473.89 292.76 469.47
  C 284.83 464.96 267.07 461.07 265.02 474.51
  C 263.74 482.87 262.86 505.24 271.00 510.70
  Q 273.57 512.42 278.30 512.54
  C 292.63 512.90 309.58 506.11 307.08 488.65"
/>
<path stroke="#5aa190" vector-effect="non-scaling-stroke" d="
  M 1012.85 485.43
  C 1009.90 479.70 1000.98 460.94 992.20 465.81
  C 987.36 468.50 982.77 479.46 981.06 484.52
  C 978.93 490.84 976.13 497.78 981.76 501.87
  C 988.33 506.64 1011.12 506.30 1014.87 497.58
  C 1016.53 493.74 1014.70 489.02 1012.85 485.43"
/>
<path stroke="#5aa190" vector-effect="non-scaling-stroke" d="
  M 457.35 476.25
  C 454.41 481.61 447.94 495.21 451.50 500.92
  C 456.20 508.47 477.72 507.07 483.83 502.56
  C 489.69 498.24 487.45 492.58 484.64 486.64
  C 482.02 481.10 471.96 460.44 463.06 468.01
  Q 460.33 470.33 458.77 473.44
  Q 457.40 476.17 457.35 476.25"
/>
<path stroke="#5aa190" vector-effect="non-scaling-stroke" d="
  M 133.23 701.66
  C 95.79 687.34 45.87 704.94 38.67 747.51
  C 34.11 774.42 44.10 796.83 71.04 806.14
  Q 74.65 807.39 86.14 809.46
  Q 95.57 811.16 107.12 814.15
  C 112.02 815.41 117.04 816.72 119.35 821.41
  Q 121.49 825.75 118.70 829.46
  C 115.04 834.34 106.43 835.43 101.07 833.44
  Q 95.33 831.30 93.68 824.49
  A 1.35 1.33 -78.3 0 0 93.19 823.73
  C 84.28 816.79 65.62 817.58 55.25 819.80
  C 47.40 821.49 34.95 825.27 36.34 835.45
  Q 36.61 837.39 39.02 843.49
  C 49.30 869.58 78.70 883.95 105.50 884.07
  Q 124.07 884.16 140.09 877.62
  C 162.30 868.55 180.98 846.73 179.03 821.73
  C 175.92 781.95 139.26 769.28 105.81 764.09
  Q 100.19 763.22 95.02 760.97
  C 89.05 758.37 89.77 752.93 94.32 749.36
  C 101.53 743.71 111.87 741.25 117.42 750.80
  A 1.23 1.20 29.4 0 1 117.59 751.38
  Q 117.72 756.16 122.23 755.98
  C 135.15 755.44 150.19 751.66 161.67 743.87
  Q 167.24 740.09 164.91 733.72
  Q 156.42 710.53 133.23 701.66"
/>
<path stroke="#5aa190" vector-effect="non-scaling-stroke" d="
  M 790.20 772.91
  C 795.53 762.95 791.73 751.78 781.25 747.63
  C 776.85 745.88 770.57 745.83 765.73 746.30
  C 751.01 747.70 753.97 768.33 757.70 777.51
  C 760.32 783.94 765.47 786.29 772.34 785.29
  Q 784.53 783.52 790.20 772.91"
/>
<path stroke="#5aa190" vector-effect="non-scaling-stroke" d="
  M 971.62 782.63
  C 968.49 776.98 959.03 760.11 951.14 771.14
  Q 943.61 781.67 940.81 794.27
  C 939.59 799.74 940.91 804.61 946.57 806.20
  Q 956.84 809.07 968.44 806.13
  C 983.24 802.38 976.15 790.78 971.62 782.63"
/>
<path stroke="#5aa190" vector-effect="non-scaling-stroke" d="
  M 622.57 791.47
  C 619.14 783.89 607.27 757.61 596.58 773.98
  Q 589.56 784.74 587.43 796.01
  Q 585.76 804.87 593.65 807.16
  C 602.58 809.76 631.04 810.14 622.57 791.47"
/>
</g>
<path fill="#6d5845" d="
  M 239.98 695.28
  Q 241.48 695.23 240.10 694.63
  L 88.22 629.33
  Q 87.45 629.00 88.23 628.70
  L 214.73 579.44
  Q 215.18 579.26 214.95 578.84
  Q 208.84 567.61 206.72 554.26
  Q 197.93 498.88 201.59 443.96
  C 202.42 431.49 203.37 423.45 205.91 412.35
  C 207.96 403.42 211.91 399.20 220.83 396.35
  C 241.47 389.76 266.09 390.38 287.33 393.54
  Q 288.76 393.75 287.89 392.59
  L 215.02 294.97
  A 0.25 0.25 0.0 0 1 215.26 294.58
  L 523.80 341.96
  A 0.51 0.50 1.3 0 0 524.38 341.41
  L 492.22 69.27
  A 0.39 0.39 0.0 0 1 492.85 68.92
  L 736.02 264.01
  A 0.54 0.54 0.0 0 0 736.85 263.80
  L 844.84 12.48
  Q 845.38 11.23 845.87 12.50
  L 958.80 302.69
  A 0.53 0.53 0.0 0 0 959.61 302.93
  L 1179.26 138.91
  A 0.31 0.31 0.0 0 1 1179.75 139.21
  L 1141.87 385.80
  Q 1141.77 386.45 1142.42 386.40
  C 1177.61 383.77 1224.18 397.10 1236.65 435.18
  A 1.00 1.00 0.0 0 0 1237.72 435.86
  L 1405.29 416.07
  A 0.29 0.29 0.0 0 1 1405.55 416.54
  L 1210.35 659.87
  A 0.55 0.54 -59.1 0 0 1210.56 660.72
  L 1302.69 700.35
  Q 1303.37 700.64 1304.07 700.36
  C 1331.13 689.51 1361.94 688.34 1388.26 700.63
  C 1409.09 710.36 1416.02 726.67 1416.85 748.93
  Q 1416.87 749.43 1417.33 749.62
  L 1462.28 768.99
  A 0.34 0.33 46.2 0 1 1462.27 769.61
  L 1422.75 785.00
  A 0.53 0.53 0.0 0 0 1422.57 785.88
  C 1424.47 787.69 1425.71 789.01 1426.02 791.78
  Q 1430.31 829.65 1427.54 867.62
  C 1427.28 871.09 1426.53 874.90 1425.71 878.00
  C 1424.08 884.17 1418.19 884.69 1412.75 885.22
  Q 1399.48 886.51 1383.26 885.47
  Q 1377.21 885.09 1372.79 882.80
  Q 1372.37 882.58 1371.90 882.69
  C 1329.97 892.91 1287.14 883.78 1259.45 849.16
  Q 1259.08 848.70 1258.53 848.91
  L 1237.14 857.25
  Q 1236.65 857.44 1236.61 857.97
  Q 1235.96 866.70 1235.01 875.51
  C 1234.34 881.66 1229.16 884.05 1223.00 885.03
  Q 1206.70 887.62 1190.31 886.24
  C 1183.32 885.65 1178.71 885.29 1173.53 882.05
  A 1.34 1.34 0.0 0 0 1171.74 883.99
  L 1335.02 1102.72
  Q 1335.83 1103.82 1334.49 1103.61
  L 1026.79 1056.32
  Q 1026.05 1056.21 1026.14 1056.95
  L 1058.22 1328.72
  Q 1058.36 1329.94 1057.40 1329.17
  L 814.29 1134.16
  Q 813.95 1133.89 813.78 1134.29
  L 705.62 1385.77
  Q 705.08 1387.03 704.59 1385.75
  L 591.71 1095.74
  A 0.64 0.64 0.0 0 0 590.74 1095.46
  L 371.28 1259.30
  A 0.34 0.34 0.0 0 1 370.74 1258.98
  L 418.08 950.69
  Q 418.19 949.96 417.46 950.05
  L 145.46 982.21
  Q 144.52 982.32 145.11 981.58
  L 219.19 889.20
  A 0.55 0.55 0.0 0 0 218.78 888.31
  C 214.18 888.20 204.06 887.50 200.68 884.11
  C 196.53 879.93 194.96 867.29 194.34 861.35
  Q 187.20 793.00 189.62 722.75
  Q 189.89 715.13 191.74 708.27
  C 194.20 699.22 198.82 698.65 206.93 697.72
  Q 223.69 695.80 239.98 695.28
  Z
  M 1212.99 411.20
  C 1181.67 387.06 1136.15 387.04 1100.98 401.20
  Q 1099.89 401.64 1096.64 403.63
  A 1.22 1.22 0.0 0 0 1096.10 404.37
  Q 1094.76 409.69 1094.53 413.25
  Q 1093.50 429.66 1093.98 450.26
  Q 1095.23 504.93 1101.61 559.24
  Q 1103.05 571.51 1104.45 575.02
  Q 1105.74 578.28 1109.25 578.47
  Q 1132.30 579.73 1155.26 577.14
  Q 1163.76 576.17 1164.05 568.61
  C 1164.15 565.99 1164.38 563.35 1164.59 560.72
  C 1165.56 547.99 1186.68 559.04 1192.14 562.31
  C 1200.52 567.33 1208.64 573.36 1218.01 576.47
  C 1225.49 578.95 1227.83 574.80 1232.17 569.70
  Q 1242.24 557.85 1248.72 546.97
  Q 1250.86 543.37 1252.14 539.39
  C 1253.53 535.07 1247.23 528.28 1244.60 525.61
  Q 1232.84 513.69 1219.75 502.88
  Q 1219.28 502.49 1219.75 502.11
  Q 1233.21 491.33 1235.20 474.25
  C 1237.87 451.37 1232.22 426.02 1212.99 411.20
  Z
  M 846.84 469.85
  Q 866.21 469.43 885.49 467.44
  C 888.23 467.16 889.70 465.87 890.77 463.51
  C 897.84 447.96 898.81 427.25 896.12 410.63
  C 895.43 406.35 893.15 398.16 888.25 397.91
  Q 833.39 395.12 770.25 397.78
  Q 749.36 398.66 730.25 401.00
  C 727.69 401.31 720.43 402.26 718.76 404.62
  Q 717.75 406.06 717.59 408.00
  Q 715.83 428.31 718.73 448.50
  Q 720.22 458.91 722.54 465.89
  A 1.27 1.26 4.8 0 0 723.17 466.63
  Q 726.37 468.25 729.03 468.64
  Q 747.10 471.27 768.46 471.24
  Q 769.00 471.24 769.04 471.78
  Q 771.60 514.81 777.70 557.47
  C 778.23 561.21 780.22 575.68 783.96 577.08
  C 789.57 579.17 797.16 579.35 804.24 579.58
  Q 818.98 580.05 833.50 577.24
  Q 836.29 576.70 838.59 574.96
  Q 839.01 574.65 839.16 574.15
  Q 841.58 566.20 841.90 562.76
  Q 846.25 516.69 846.31 470.39
  Q 846.31 469.86 846.84 469.85
  Z
  M 642.62 481.24
  L 642.67 464.53
  A 0.44 0.43 0.7 0 1 643.12 464.10
  Q 663.31 464.89 683.51 464.38
  Q 688.77 464.24 694.07 463.49
  A 1.32 1.30 -75.2 0 0 694.90 463.00
  Q 696.92 460.36 697.87 457.54
  Q 705.59 434.59 702.60 410.27
  Q 702.59 410.21 702.40 407.22
  C 702.07 402.11 698.98 399.59 693.87 399.13
  Q 656.38 395.76 618.75 397.25
  Q 602.41 397.90 586.25 400.24
  C 580.30 401.10 571.46 402.64 567.04 407.03
  Q 566.67 407.39 566.62 407.90
  C 565.30 420.85 565.50 434.24 566.44 450.51
  Q 569.02 495.47 575.68 540.01
  Q 578.01 555.62 581.10 569.02
  Q 581.84 572.20 583.49 576.10
  Q 583.69 576.57 584.16 576.76
  Q 588.89 578.73 593.99 579.32
  Q 612.18 581.42 630.26 578.52
  C 635.95 577.61 637.35 574.35 638.24 569.24
  Q 640.60 555.80 641.26 540.09
  Q 641.28 539.51 641.86 539.50
  C 654.66 539.20 666.78 539.14 679.78 537.03
  C 682.84 536.53 684.65 535.76 685.67 532.87
  C 690.44 519.34 692.91 501.48 688.79 487.55
  Q 687.99 484.86 686.27 484.63
  Q 664.95 481.78 643.36 481.98
  Q 642.61 481.99 642.62 481.24
  Z
  M 207.26 511.88
  C 208.54 530.46 210.53 549.84 216.08 567.97
  C 217.31 572.01 219.21 576.22 223.64 577.37
  Q 228.74 578.71 237.00 579.73
  Q 276.27 584.57 311.61 571.96
  C 324.19 567.47 335.25 561.19 343.63 551.63
  C 368.93 522.76 371.73 483.86 355.35 449.67
  C 340.08 417.80 313.91 401.98 279.61 398.14
  Q 258.20 395.74 237.25 398.24
  C 231.42 398.94 221.58 401.10 217.34 403.95
  Q 213.16 406.75 211.69 412.49
  Q 208.97 423.05 208.27 430.51
  Q 204.46 471.14 207.26 511.88
  Z
  M 1030.54 404.39
  C 1027.43 399.78 1018.89 398.11 1013.89 397.68
  Q 987.29 395.40 961.91 403.16
  C 959.13 404.00 955.40 405.76 954.17 407.96
  Q 951.41 412.92 947.92 421.85
  Q 945.58 427.83 942.84 436.21
  Q 926.23 487.07 916.59 539.73
  Q 913.43 556.96 913.13 571.74
  C 913.01 577.58 919.74 578.03 924.01 578.37
  C 935.54 579.27 947.75 580.26 958.41 578.26
  A 1.30 1.28 11.4 0 0 959.24 577.72
  C 964.82 569.59 968.77 560.08 973.04 551.19
  C 976.36 544.29 980.36 541.45 988.01 541.33
  Q 996.62 541.20 1005.25 541.26
  C 1011.83 541.32 1016.07 542.42 1019.23 548.04
  C 1023.83 556.20 1025.79 565.12 1029.79 573.51
  C 1033.00 580.25 1036.46 579.21 1043.85 578.99
  Q 1057.21 578.58 1070.51 577.26
  C 1076.07 576.71 1085.66 575.88 1088.99 572.17
  Q 1089.32 571.81 1089.38 571.31
  Q 1089.84 567.22 1089.31 565.22
  Q 1075.09 511.63 1056.09 459.54
  Q 1048.96 439.99 1040.50 421.00
  Q 1036.99 413.13 1031.83 406.30
  Q 1031.75 406.19 1030.54 404.39
  Z
  M 420.67 421.23
  C 406.67 460.13 396.16 499.83 388.77 540.50
  Q 386.44 553.30 385.26 566.24
  C 384.88 570.37 384.60 577.94 388.72 578.70
  Q 406.43 581.97 429.81 579.74
  A 1.33 1.32 -69.3 0 0 430.62 579.37
  Q 432.81 577.25 434.45 573.99
  Q 441.14 560.64 444.80 552.96
  C 448.04 546.18 451.75 542.84 459.26 542.69
  Q 469.50 542.48 479.76 542.63
  C 487.25 542.74 491.71 548.56 494.11 554.97
  Q 499.18 568.52 500.67 572.75
  C 501.98 576.44 504.44 580.28 508.80 580.31
  Q 532.61 580.47 554.77 576.75
  C 564.10 575.19 561.79 568.78 559.92 561.68
  Q 543.61 500.05 520.27 440.70
  C 516.62 431.43 507.12 405.54 497.49 401.78
  Q 491.64 399.49 484.50 398.97
  C 466.71 397.67 444.16 399.22 427.85 407.20
  Q 427.39 407.42 427.12 407.86
  Q 423.19 414.24 420.67 421.23
  Z
  M 370.48 505.00
  Q 369.81 512.24 367.67 519.17
  A 0.42 0.42 0.0 0 0 368.22 519.69
  L 378.96 515.50
  A 0.43 0.43 0.0 0 0 379.15 514.84
  L 371.53 504.70
  Q 370.62 503.50 370.48 505.00
  Z
  M 828.50 805.57
  Q 841.49 794.99 843.79 778.77
  Q 846.24 761.52 841.07 743.90
  Q 834.90 722.88 817.55 711.41
  C 786.74 691.05 745.11 691.25 711.47 703.98
  Q 708.87 704.97 705.49 707.03
  A 1.51 1.49 -4.6 0 0 704.86 707.76
  Q 703.93 710.13 703.76 711.74
  Q 702.40 724.67 702.61 742.00
  Q 703.39 805.13 710.34 863.45
  C 710.86 867.80 711.76 872.20 712.58 876.55
  C 713.73 882.63 717.66 882.02 723.45 882.23
  Q 737.55 882.72 751.62 881.76
  C 756.95 881.39 770.57 881.47 771.94 875.95
  Q 773.07 871.40 773.07 866.14
  C 773.09 846.00 808.90 870.66 814.98 874.47
  C 819.16 877.08 822.55 878.51 827.02 880.00
  C 833.72 882.23 835.71 879.05 840.22 873.98
  Q 850.99 861.87 858.94 847.70
  C 859.79 846.19 861.35 842.73 861.18 840.80
  C 860.75 836.17 851.81 827.35 848.36 824.13
  Q 838.64 815.04 828.49 806.42
  Q 827.98 805.99 828.50 805.57
  Z
  M 1418.83 878.33
  A 3.58 3.57 -9.9 0 0 1420.44 876.05
  Q 1421.76 869.82 1422.25 860.50
  Q 1423.94 828.36 1420.97 796.31
  C 1420.69 793.25 1421.14 790.92 1417.70 789.58
  Q 1413.61 787.99 1408.51 787.53
  C 1394.69 786.31 1376.09 787.78 1363.75 794.75
  A 2.85 2.83 78.9 0 0 1362.34 796.86
  Q 1361.53 803.19 1360.37 809.83
  Q 1359.53 814.60 1357.84 816.72
  C 1353.10 822.65 1340.60 821.26 1334.31 819.44
  C 1312.82 813.22 1303.92 789.53 1315.87 770.68
  C 1323.42 758.77 1337.15 753.72 1351.32 754.10
  C 1357.77 754.28 1359.11 754.34 1360.12 760.97
  Q 1360.19 761.49 1360.70 761.64
  Q 1363.25 762.37 1365.20 762.39
  Q 1384.96 762.59 1403.02 756.25
  Q 1406.22 755.13 1409.17 752.87
  C 1411.75 750.89 1411.20 749.51 1411.02 746.59
  C 1410.01 730.61 1405.43 716.66 1390.92 708.37
  C 1364.08 693.05 1329.89 694.86 1302.68 707.24
  C 1267.29 723.35 1250.41 756.12 1248.11 793.74
  Q 1246.23 824.42 1265.22 847.52
  C 1290.16 877.85 1329.64 885.90 1366.89 878.12
  Q 1371.03 877.25 1375.37 876.33
  A 0.65 0.65 0.0 0 1 1376.12 876.77
  Q 1376.82 878.93 1378.85 879.22
  Q 1397.17 881.83 1416.89 878.99
  Q 1418.00 878.83 1418.83 878.33
  Z
  M 1165.07 754.29
  A 0.29 0.29 0.0 0 1 1164.54 754.45
  C 1154.17 739.14 1143.26 723.80 1130.39 710.36
  C 1123.28 702.94 1117.28 701.43 1106.50 700.02
  C 1092.42 698.16 1074.93 697.88 1061.34 702.71
  A 2.90 2.90 0.0 0 0 1059.45 705.02
  Q 1057.84 715.94 1057.19 727.75
  Q 1053.49 794.72 1059.65 861.51
  Q 1060.15 866.95 1062.21 874.50
  C 1063.03 877.52 1065.18 878.77 1067.99 879.31
  Q 1083.59 882.32 1100.26 881.36
  Q 1106.94 880.98 1113.41 879.24
  Q 1115.62 878.64 1116.18 876.90
  Q 1118.29 870.29 1119.32 861.01
  Q 1121.64 840.03 1123.09 819.09
  A 0.26 0.26 0.0 0 1 1123.55 818.95
  Q 1144.58 846.48 1169.31 870.95
  C 1175.93 877.50 1179.46 879.59 1187.75 880.36
  Q 1205.86 882.06 1222.18 879.39
  Q 1225.50 878.85 1228.43 877.22
  A 1.18 1.17 81.4 0 0 1229.00 876.44
  Q 1229.24 875.35 1229.37 874.23
  Q 1231.48 855.30 1232.03 836.25
  Q 1233.55 783.75 1231.95 731.26
  Q 1231.55 718.11 1230.49 705.00
  C 1230.22 701.71 1225.11 700.48 1222.49 699.96
  Q 1197.13 694.90 1172.20 701.63
  Q 1167.27 702.97 1164.28 706.51
  A 1.40 1.39 -24.9 0 0 1163.95 707.41
  C 1163.84 723.08 1164.85 738.68 1165.07 754.29
  Z
  M 976.63 845.87
  C 983.50 851.37 986.74 863.69 989.79 872.09
  C 990.97 875.36 993.65 881.64 997.83 881.70
  Q 1020.30 881.98 1045.48 877.58
  Q 1053.16 876.24 1051.21 868.60
  Q 1034.37 802.79 1008.25 737.03
  Q 1002.34 722.16 994.30 709.34
  C 990.41 703.14 984.15 701.25 976.99 700.67
  Q 950.39 698.49 926.73 704.69
  C 921.01 706.19 916.76 708.07 914.32 713.75
  Q 909.47 725.04 906.73 733.12
  Q 886.66 792.26 876.59 853.86
  C 875.51 860.49 875.20 867.29 874.83 874.00
  C 874.53 879.47 880.21 880.46 884.25 880.85
  Q 900.26 882.38 916.34 881.45
  C 919.53 881.27 921.44 880.55 922.91 877.81
  Q 927.82 868.60 932.32 859.15
  Q 936.51 850.36 937.62 849.04
  Q 941.62 844.30 948.76 843.99
  Q 956.75 843.64 970.00 843.99
  Q 974.42 844.11 976.63 845.87
  Z
  M 265.95 767.87
  Q 264.97 762.33 265.60 756.77
  A 1.16 1.15 2.5 0 1 266.73 755.75
  Q 287.38 755.34 308.51 753.69
  Q 314.73 753.20 319.44 751.08
  A 1.09 1.09 0.0 0 0 320.06 750.30
  Q 322.31 738.99 322.13 727.51
  C 322.00 719.90 321.79 713.38 320.33 706.48
  Q 319.63 703.22 316.49 702.68
  Q 307.56 701.16 298.50 700.77
  Q 254.68 698.89 211.01 702.92
  Q 206.23 703.36 201.51 704.31
  C 197.15 705.19 196.25 712.19 195.75 716.25
  Q 195.05 721.88 194.79 736.50
  C 194.02 779.11 195.08 822.45 200.61 864.74
  Q 201.53 871.76 203.75 878.50
  Q 204.46 880.65 206.99 881.10
  Q 216.40 882.79 223.75 883.10
  Q 258.90 884.62 293.96 881.72
  Q 308.09 880.56 322.01 877.91
  Q 326.42 877.08 330.52 875.08
  A 1.08 1.07 84.2 0 0 331.10 874.36
  C 333.99 862.42 332.57 847.36 330.92 835.26
  Q 330.15 829.63 328.85 825.61
  C 327.52 821.50 319.52 822.23 316.25 822.37
  Q 292.31 823.39 268.27 823.73
  Q 267.72 823.73 267.72 823.18
  L 267.74 811.46
  Q 267.74 810.82 268.38 810.82
  Q 280.52 810.79 292.53 809.09
  A 2.31 2.30 5.9 0 0 294.39 807.58
  C 298.01 797.53 294.72 781.10 290.96 771.38
  A 2.27 2.27 0.0 0 0 289.17 769.96
  Q 277.89 768.36 266.50 768.34
  Q 266.03 768.34 265.95 767.87
  Z
  M 568.86 879.82
  C 573.55 872.21 577.61 863.91 581.23 855.74
  Q 583.28 851.10 585.16 849.23
  Q 589.34 845.06 595.78 844.87
  Q 603.10 844.65 615.50 844.77
  C 623.14 844.85 626.80 848.49 629.88 855.35
  Q 633.35 863.06 635.99 871.10
  C 637.59 875.99 639.88 882.74 646.25 882.64
  Q 669.12 882.28 689.76 879.25
  C 694.26 878.59 699.85 876.49 698.47 870.59
  Q 694.86 855.07 687.84 833.94
  Q 687.65 833.38 687.96 832.87
  Q 688.43 832.11 687.65 831.65
  A 1.02 1.01 15.1 0 1 687.16 830.80
  Q 687.15 829.51 686.77 828.29
  C 674.83 790.85 662.76 753.65 646.10 717.98
  Q 644.96 715.55 640.70 709.59
  C 636.65 703.93 631.30 702.25 624.52 701.62
  Q 596.42 699.02 570.72 706.48
  C 567.40 707.44 564.05 709.24 562.31 712.63
  Q 558.01 720.99 556.43 725.47
  Q 534.38 788.14 523.89 853.77
  Q 522.05 865.27 521.81 874.74
  C 521.62 881.75 529.43 881.66 534.50 882.03
  Q 550.41 883.21 564.15 882.29
  C 566.31 882.14 567.77 881.59 568.86 879.82
  Z
  M 463.88 791.63
  Q 482.89 772.46 499.45 751.14
  Q 500.68 749.56 502.91 744.15
  A 1.39 1.35 49.6 0 0 502.97 743.24
  Q 502.26 740.66 501.22 739.29
  Q 488.26 722.15 471.56 709.90
  Q 469.22 708.19 465.81 706.85
  Q 465.35 706.67 464.88 706.82
  Q 459.82 708.50 457.30 710.04
  Q 439.38 720.99 423.66 735.00
  A 0.54 0.53 68.5 0 1 422.77 734.61
  Q 422.49 721.82 421.17 708.75
  C 421.02 707.18 421.02 705.86 419.41 705.08
  Q 415.90 703.39 411.01 702.68
  Q 383.04 698.59 355.77 705.76
  C 352.72 706.56 347.25 709.04 346.95 713.01
  Q 345.61 730.48 345.96 748.00
  Q 346.94 796.25 351.97 844.23
  C 353.16 855.61 354.15 868.73 358.44 879.32
  Q 358.86 880.35 359.91 880.71
  Q 365.91 882.71 372.49 883.08
  Q 390.53 884.10 408.26 880.77
  C 414.89 879.53 415.32 875.23 416.45 869.49
  Q 417.78 862.70 418.49 856.06
  A 0.50 0.49 16.3 0 1 419.21 855.67
  C 437.07 865.02 455.04 874.43 473.75 881.73
  C 476.42 882.78 478.41 883.38 481.08 881.79
  Q 483.95 880.08 485.53 878.03
  Q 501.74 856.99 506.32 830.00
  Q 507.05 825.69 505.80 822.01
  A 1.57 1.52 7.9 0 0 505.16 821.19
  Q 483.75 807.35 460.89 796.03
  Q 460.36 795.77 460.71 795.31
  Q 462.24 793.29 463.88 791.63
  Z
  M 300.49 786.07
  Q 300.67 787.57 301.62 786.39
  L 340.27 738.26
  A 0.42 0.42 0.0 0 0 340.11 737.61
  L 328.22 732.48
  Q 327.68 732.24 327.64 732.83
  C 327.25 739.22 327.22 745.45 325.31 751.64
  C 323.27 758.24 312.74 759.12 306.75 759.50
  Q 289.11 760.65 271.36 761.32
  A 0.60 0.59 16.9 0 0 270.90 761.56
  Q 270.18 762.59 271.52 762.66
  Q 279.76 763.14 288.02 764.13
  Q 293.49 764.78 295.83 768.54
  C 298.14 772.23 299.87 780.74 300.49 786.07
  Z
  M 1353.50 811.86
  L 1345.77 814.99
  Q 1344.81 815.38 1345.85 815.42
  C 1347.77 815.51 1353.19 814.82 1354.00 812.33
  Q 1354.26 811.56 1353.50 811.86
  Z
  M 277.3822 816.8217
  A 2.19 0.94 -7.3 0 0 275.0906 816.1676
  A 2.19 0.94 -7.3 0 0 273.0378 817.3783
  A 2.19 0.94 -7.3 0 0 275.3294 818.0324
  A 2.19 0.94 -7.3 0 0 277.3822 816.8217
  Z
  M 795.56 1003.86
  A 0.63 0.62 7.4 0 0 795.30 1003.53
  Q 792.33 1001.64 788.52 1000.90
  Q 765.59 996.43 743.23 1002.93
  C 739.19 1004.10 737.88 1006.49 737.78 1010.76
  Q 736.87 1049.63 741.19 1090.25
  C 742.09 1098.64 742.90 1110.16 746.69 1116.68
  Q 746.93 1117.10 747.40 1117.26
  C 756.65 1120.47 767.12 1120.60 777.13 1119.56
  C 783.01 1118.95 790.94 1119.34 792.44 1112.75
  Q 794.35 1104.34 795.21 1095.75
  Q 799.60 1051.94 796.39 1008.01
  Q 796.26 1006.13 795.56 1003.86
  Z
  M 727.28 1008.50
  Q 727.11 1006.12 726.98 1004.71
  A 1.04 1.04 0.0 0 0 726.47 1003.91
  C 715.95 997.79 696.06 998.75 684.25 1000.60
  C 680.20 1001.23 668.89 1003.13 668.62 1008.49
  Q 667.83 1024.15 668.55 1044.50
  Q 669.39 1068.32 671.94 1092.01
  Q 673.21 1103.77 675.95 1114.02
  C 677.19 1118.69 683.22 1119.17 687.20 1119.62
  C 692.86 1120.26 719.97 1121.49 722.43 1115.12
  Q 724.14 1110.70 725.13 1102.17
  Q 730.55 1055.43 727.28 1008.50
  Z
  M 784.65 1179.91
  C 800.02 1167.57 800.23 1141.26 779.30 1134.17
  Q 759.72 1127.53 747.39 1142.93
  C 741.06 1150.84 740.47 1161.10 745.00 1170.13
  C 751.82 1183.72 771.71 1190.30 784.65 1179.91
  Z
  M 678.16 1143.22
  C 669.35 1154.75 671.62 1170.56 683.00 1179.30
  C 692.10 1186.28 706.66 1187.60 715.93 1179.69
  C 723.52 1173.21 727.50 1163.84 726.17 1153.93
  C 724.74 1143.30 717.89 1136.41 707.52 1133.52
  Q 689.43 1128.46 678.16 1143.22
  Z"
/>
<path fill="#47eada" d="
  M 1100.98 401.20
  C 1136.15 387.04 1181.67 387.06 1212.99 411.20
  C 1232.22 426.02 1237.87 451.37 1235.20 474.25
  Q 1233.21 491.33 1219.75 502.11
  Q 1219.28 502.49 1219.75 502.88
  Q 1232.84 513.69 1244.60 525.61
  C 1247.23 528.28 1253.53 535.07 1252.14 539.39
  Q 1250.86 543.37 1248.72 546.97
  Q 1242.24 557.85 1232.17 569.70
  C 1227.83 574.80 1225.49 578.95 1218.01 576.47
  C 1208.64 573.36 1200.52 567.33 1192.14 562.31
  C 1186.68 559.04 1165.56 547.99 1164.59 560.72
  C 1164.38 563.35 1164.15 565.99 1164.05 568.61
  Q 1163.76 576.17 1155.26 577.14
  Q 1132.30 579.73 1109.25 578.47
  Q 1105.74 578.28 1104.45 575.02
  Q 1103.05 571.51 1101.61 559.24
  Q 1095.23 504.93 1093.98 450.26
  Q 1093.50 429.66 1094.53 413.25
  Q 1094.76 409.69 1096.10 404.37
  A 1.22 1.22 0.0 0 1 1096.64 403.63
  Q 1099.89 401.64 1100.98 401.20
  Z
  M 1153.63 443.63
  C 1144.16 447.08 1145.42 461.21 1147.37 468.84
  C 1149.74 478.15 1154.44 483.81 1164.75 481.60
  Q 1175.81 479.23 1181.25 469.98
  C 1188.17 458.21 1181.25 444.98 1168.12 442.99
  C 1164.05 442.38 1157.53 442.20 1153.63 443.63
  Z"
/>
<path fill="#47eada" d="
  M 846.31 470.39
  Q 846.25 516.69 841.90 562.76
  Q 841.58 566.20 839.16 574.15
  Q 839.01 574.65 838.59 574.96
  Q 836.29 576.70 833.50 577.24
  Q 818.98 580.05 804.24 579.58
  C 797.16 579.35 789.57 579.17 783.96 577.08
  C 780.22 575.68 778.23 561.21 777.70 557.47
  Q 771.60 514.81 769.04 471.78
  Q 769.00 471.24 768.46 471.24
  Q 747.10 471.27 729.03 468.64
  Q 726.37 468.25 723.17 466.63
  A 1.27 1.26 4.8 0 1 722.54 465.89
  Q 720.22 458.91 718.73 448.50
  Q 715.83 428.31 717.59 408.00
  Q 717.75 406.06 718.76 404.62
  C 720.43 402.26 727.69 401.31 730.25 401.00
  Q 749.36 398.66 770.25 397.78
  Q 833.39 395.12 888.25 397.91
  C 893.15 398.16 895.43 406.35 896.12 410.63
  C 898.81 427.25 897.84 447.96 890.77 463.51
  C 889.70 465.87 888.23 467.16 885.49 467.44
  Q 866.21 469.43 846.84 469.85
  Q 846.31 469.86 846.31 470.39
  Z"
/>
<path fill="#47eada" d="
  M 642.62 481.24
  Q 642.61 481.99 643.36 481.98
  Q 664.95 481.78 686.27 484.63
  Q 687.99 484.86 688.79 487.55
  C 692.91 501.48 690.44 519.34 685.67 532.87
  C 684.65 535.76 682.84 536.53 679.78 537.03
  C 666.78 539.14 654.66 539.20 641.86 539.50
  Q 641.28 539.51 641.26 540.09
  Q 640.60 555.80 638.24 569.24
  C 637.35 574.35 635.95 577.61 630.26 578.52
  Q 612.18 581.42 593.99 579.32
  Q 588.89 578.73 584.16 576.76
  Q 583.69 576.57 583.49 576.10
  Q 581.84 572.20 581.10 569.02
  Q 578.01 555.62 575.68 540.01
  Q 569.02 495.47 566.44 450.51
  C 565.50 434.24 565.30 420.85 566.62 407.90
  Q 566.67 407.39 567.04 407.03
  C 571.46 402.64 580.30 401.10 586.25 400.24
  Q 602.41 397.90 618.75 397.25
  Q 656.38 395.76 693.87 399.13
  C 698.98 399.59 702.07 402.11 702.40 407.22
  Q 702.59 410.21 702.60 410.27
  Q 705.59 434.59 697.87 457.54
  Q 696.92 460.36 694.90 463.00
  A 1.32 1.30 -75.2 0 1 694.07 463.49
  Q 688.77 464.24 683.51 464.38
  Q 663.31 464.89 643.12 464.10
  A 0.44 0.43 0.7 0 0 642.67 464.53
  L 642.62 481.24
  Z"
/>
<path fill="#47eada" d="
  M 207.26 511.88
  Q 204.46 471.14 208.27 430.51
  Q 208.97 423.05 211.69 412.49
  Q 213.16 406.75 217.34 403.95
  C 221.58 401.10 231.42 398.94 237.25 398.24
  Q 258.20 395.74 279.61 398.14
  C 313.91 401.98 340.08 417.80 355.35 449.67
  C 371.73 483.86 368.93 522.76 343.63 551.63
  C 335.25 561.19 324.19 567.47 311.61 571.96
  Q 276.27 584.57 237.00 579.73
  Q 228.74 578.71 223.64 577.37
  C 219.21 576.22 217.31 572.01 216.08 567.97
  C 210.53 549.84 208.54 530.46 207.26 511.88
  Z
  M 307.08 488.65
  C 305.80 479.65 300.54 473.89 292.76 469.47
  C 284.83 464.96 267.07 461.07 265.02 474.51
  C 263.74 482.87 262.86 505.24 271.00 510.70
  Q 273.57 512.42 278.30 512.54
  C 292.63 512.90 309.58 506.11 307.08 488.65
  Z"
/>
<path fill="#47eada" d="
  M 1031.83 406.30
  Q 1036.99 413.13 1040.50 421.00
  Q 1048.96 439.99 1056.09 459.54
  Q 1075.09 511.63 1089.31 565.22
  Q 1089.84 567.22 1089.38 571.31
  Q 1089.32 571.81 1088.99 572.17
  C 1085.66 575.88 1076.07 576.71 1070.51 577.26
  Q 1057.21 578.58 1043.85 578.99
  C 1036.46 579.21 1033.00 580.25 1029.79 573.51
  C 1025.79 565.12 1023.83 556.20 1019.23 548.04
  C 1016.07 542.42 1011.83 541.32 1005.25 541.26
  Q 996.62 541.20 988.01 541.33
  C 980.36 541.45 976.36 544.29 973.04 551.19
  C 968.77 560.08 964.82 569.59 959.24 577.72
  A 1.30 1.28 11.4 0 1 958.41 578.26
  C 947.75 580.26 935.54 579.27 924.01 578.37
  C 919.74 578.03 913.01 577.58 913.13 571.74
  Q 913.43 556.96 916.59 539.73
  Q 926.23 487.07 942.84 436.21
  Q 945.58 427.83 947.92 421.85
  Q 951.41 412.92 954.17 407.96
  C 955.40 405.76 959.13 404.00 961.91 403.16
  Q 987.29 395.40 1013.89 397.68
  C 1018.89 398.11 1027.43 399.78 1030.54 404.39
  Q 1031.75 406.19 1031.83 406.30
  Z
  M 1012.85 485.43
  C 1009.90 479.70 1000.98 460.94 992.20 465.81
  C 987.36 468.50 982.77 479.46 981.06 484.52
  C 978.93 490.84 976.13 497.78 981.76 501.87
  C 988.33 506.64 1011.12 506.30 1014.87 497.58
  C 1016.53 493.74 1014.70 489.02 1012.85 485.43
  Z"
/>
<path fill="#47eada" d="
  M 420.67 421.23
  Q 423.19 414.24 427.12 407.86
  Q 427.39 407.42 427.85 407.20
  C 444.16 399.22 466.71 397.67 484.50 398.97
  Q 491.64 399.49 497.49 401.78
  C 507.12 405.54 516.62 431.43 520.27 440.70
  Q 543.61 500.05 559.92 561.68
  C 561.79 568.78 564.10 575.19 554.77 576.75
  Q 532.61 580.47 508.80 580.31
  C 504.44 580.28 501.98 576.44 500.67 572.75
  Q 499.18 568.52 494.11 554.97
  C 491.71 548.56 487.25 542.74 479.76 542.63
  Q 469.50 542.48 459.26 542.69
  C 451.75 542.84 448.04 546.18 444.80 552.96
  Q 441.14 560.64 434.45 573.99
  Q 432.81 577.25 430.62 579.37
  A 1.33 1.32 -69.3 0 1 429.81 579.74
  Q 406.43 581.97 388.72 578.70
  C 384.60 577.94 384.88 570.37 385.26 566.24
  Q 386.44 553.30 388.77 540.50
  C 396.16 499.83 406.67 460.13 420.67 421.23
  Z
  M 457.35 476.25
  C 454.41 481.61 447.94 495.21 451.50 500.92
  C 456.20 508.47 477.72 507.07 483.83 502.56
  C 489.69 498.24 487.45 492.58 484.64 486.64
  C 482.02 481.10 471.96 460.44 463.06 468.01
  Q 460.33 470.33 458.77 473.44
  Q 457.40 476.17 457.35 476.25
  Z"
/>
<path fill="#6d5845" d="
  M 1153.63 443.63
  C 1157.53 442.20 1164.05 442.38 1168.12 442.99
  C 1181.25 444.98 1188.17 458.21 1181.25 469.98
  Q 1175.81 479.23 1164.75 481.60
  C 1154.44 483.81 1149.74 478.15 1147.37 468.84
  C 1145.42 461.21 1144.16 447.08 1153.63 443.63
  Z"
/>
<path fill="#6d5845" d="
  M 307.08 488.65
  C 309.58 506.11 292.63 512.90 278.30 512.54
  Q 273.57 512.42 271.00 510.70
  C 262.86 505.24 263.74 482.87 265.02 474.51
  C 267.07 461.07 284.83 464.96 292.76 469.47
  C 300.54 473.89 305.80 479.65 307.08 488.65
  Z
  M 271.65 472.58
  C 268.26 479.62 269.72 492.65 271.29 499.60
  C 272.28 503.98 272.57 506.68 277.47 506.79
  C 283.43 506.92 289.12 506.37 294.19 503.56
  C 303.83 498.22 303.76 486.80 296.61 479.41
  C 290.48 473.09 281.25 469.09 272.39 471.95
  A 1.25 1.21 3.8 0 0 271.65 472.58
  Z"
/>
<path fill="#6d5845" d="
  M 1012.85 485.43
  C 1014.70 489.02 1016.53 493.74 1014.87 497.58
  C 1011.12 506.30 988.33 506.64 981.76 501.87
  C 976.13 497.78 978.93 490.84 981.06 484.52
  C 982.77 479.46 987.36 468.50 992.20 465.81
  C 1000.98 460.94 1009.90 479.70 1012.85 485.43
  Z"
/>
<path fill="#6d5845" d="
  M 458.77 473.44
  Q 460.33 470.33 463.06 468.01
  C 471.96 460.44 482.02 481.10 484.64 486.64
  C 487.45 492.58 489.69 498.24 483.83 502.56
  C 477.72 507.07 456.20 508.47 451.50 500.92
  C 447.94 495.21 454.41 481.61 457.35 476.25
  Q 457.40 476.17 458.77 473.44
  Z"
/>
<path fill="#6d5845" d="
  M 123.96 761.83
  Q 128.46 763.13 132.95 764.41
  C 161.44 772.57 183.15 791.96 184.66 823.11
  C 185.27 835.58 181.39 847.46 173.99 857.81
  C 157.77 880.50 131.50 890.07 104.01 889.56
  C 73.23 888.98 42.14 871.84 32.28 841.49
  Q 28.78 830.75 34.21 824.02
  C 40.41 816.34 56.10 812.95 66.27 812.69
  Q 69.19 812.62 69.32 812.63
  Q 74.85 813.22 69.55 811.54
  C 55.31 807.02 41.20 795.92 35.65 781.39
  Q 33.02 774.49 32.26 765.34
  C 28.12 715.96 71.61 685.99 117.26 691.82
  C 140.95 694.85 163.45 708.95 170.42 732.69
  Q 171.84 737.51 170.82 740.83
  C 166.49 754.97 135.94 760.48 123.99 761.52
  Q 123.14 761.59 123.96 761.83
  Z
  M 133.23 701.66
  C 95.79 687.34 45.87 704.94 38.67 747.51
  C 34.11 774.42 44.10 796.83 71.04 806.14
  Q 74.65 807.39 86.14 809.46
  Q 95.57 811.16 107.12 814.15
  C 112.02 815.41 117.04 816.72 119.35 821.41
  Q 121.49 825.75 118.70 829.46
  C 115.04 834.34 106.43 835.43 101.07 833.44
  Q 95.33 831.30 93.68 824.49
  A 1.35 1.33 -78.3 0 0 93.19 823.73
  C 84.28 816.79 65.62 817.58 55.25 819.80
  C 47.40 821.49 34.95 825.27 36.34 835.45
  Q 36.61 837.39 39.02 843.49
  C 49.30 869.58 78.70 883.95 105.50 884.07
  Q 124.07 884.16 140.09 877.62
  C 162.30 868.55 180.98 846.73 179.03 821.73
  C 175.92 781.95 139.26 769.28 105.81 764.09
  Q 100.19 763.22 95.02 760.97
  C 89.05 758.37 89.77 752.93 94.32 749.36
  C 101.53 743.71 111.87 741.25 117.42 750.80
  A 1.23 1.20 29.4 0 1 117.59 751.38
  Q 117.72 756.16 122.23 755.98
  C 135.15 755.44 150.19 751.66 161.67 743.87
  Q 167.24 740.09 164.91 733.72
  Q 156.42 710.53 133.23 701.66
  Z
  M 97.22 755.92
  Q 106.31 759.04 115.88 760.08
  Q 116.49 760.15 116.06 759.72
  C 114.08 757.71 112.62 757.24 112.31 753.68
  A 1.35 1.29 -66.5 0 0 112.06 753.00
  C 108.27 747.72 102.25 750.67 98.06 753.26
  Q 96.83 754.03 96.79 755.29
  A 0.64 0.63 -79.7 0 0 97.22 755.92
  Z
  M 93.21 816.97
  C 96.03 818.60 98.05 820.27 99.29 823.46
  Q 100.32 826.08 101.09 826.81
  C 104.51 830.02 110.49 828.94 114.01 826.47
  Q 114.40 826.20 114.47 825.73
  C 114.82 823.47 113.66 822.29 111.54 821.53
  Q 102.92 818.46 93.33 816.66
  Q 92.36 816.47 93.21 816.97
  Z"
/>
<path fill="#47eada" d="
  M 828.49 806.42
  Q 838.64 815.04 848.36 824.13
  C 851.81 827.35 860.75 836.17 861.18 840.80
  C 861.35 842.73 859.79 846.19 858.94 847.70
  Q 850.99 861.87 840.22 873.98
  C 835.71 879.05 833.72 882.23 827.02 880.00
  C 822.55 878.51 819.16 877.08 814.98 874.47
  C 808.90 870.66 773.09 846.00 773.07 866.14
  Q 773.07 871.40 771.94 875.95
  C 770.57 881.47 756.95 881.39 751.62 881.76
  Q 737.55 882.72 723.45 882.23
  C 717.66 882.02 713.73 882.63 712.58 876.55
  C 711.76 872.20 710.86 867.80 710.34 863.45
  Q 703.39 805.13 702.61 742.00
  Q 702.40 724.67 703.76 711.74
  Q 703.93 710.13 704.86 707.76
  A 1.51 1.49 -4.6 0 1 705.49 707.03
  Q 708.87 704.97 711.47 703.98
  C 745.11 691.25 786.74 691.05 817.55 711.41
  Q 834.90 722.88 841.07 743.90
  Q 846.24 761.52 843.79 778.77
  Q 841.49 794.99 828.50 805.57
  Q 827.98 805.99 828.49 806.42
  Z
  M 790.20 772.91
  C 795.53 762.95 791.73 751.78 781.25 747.63
  C 776.85 745.88 770.57 745.83 765.73 746.30
  C 751.01 747.70 753.97 768.33 757.70 777.51
  C 760.32 783.94 765.47 786.29 772.34 785.29
  Q 784.53 783.52 790.20 772.91
  Z"
/>
<path fill="#47eada" d="
  M 38.67 747.51
  C 45.87 704.94 95.79 687.34 133.23 701.66
  Q 156.42 710.53 164.91 733.72
  Q 167.24 740.09 161.67 743.87
  C 150.19 751.66 135.15 755.44 122.23 755.98
  Q 117.72 756.16 117.59 751.38
  A 1.23 1.20 29.4 0 0 117.42 750.80
  C 111.87 741.25 101.53 743.71 94.32 749.36
  C 89.77 752.93 89.05 758.37 95.02 760.97
  Q 100.19 763.22 105.81 764.09
  C 139.26 769.28 175.92 781.95 179.03 821.73
  C 180.98 846.73 162.30 868.55 140.09 877.62
  Q 124.07 884.16 105.50 884.07
  C 78.70 883.95 49.30 869.58 39.02 843.49
  Q 36.61 837.39 36.34 835.45
  C 34.95 825.27 47.40 821.49 55.25 819.80
  C 65.62 817.58 84.28 816.79 93.19 823.73
  A 1.35 1.33 -78.3 0 1 93.68 824.49
  Q 95.33 831.30 101.07 833.44
  C 106.43 835.43 115.04 834.34 118.70 829.46
  Q 121.49 825.75 119.35 821.41
  C 117.04 816.72 112.02 815.41 107.12 814.15
  Q 95.57 811.16 86.14 809.46
  Q 74.65 807.39 71.04 806.14
  C 44.10 796.83 34.11 774.42 38.67 747.51
  Z"
/>
<path fill="#47eada" d="
  M 1418.83 878.33
  Q 1418.00 878.83 1416.89 878.99
  Q 1397.17 881.83 1378.85 879.22
  Q 1376.82 878.93 1376.12 876.77
  A 0.65 0.65 0.0 0 0 1375.37 876.33
  Q 1371.03 877.25 1366.89 878.12
  C 1329.64 885.90 1290.16 877.85 1265.22 847.52
  Q 1246.23 824.42 1248.11 793.74
  C 1250.41 756.12 1267.29 723.35 1302.68 707.24
  C 1329.89 694.86 1364.08 693.05 1390.92 708.37
  C 1405.43 716.66 1410.01 730.61 1411.02 746.59
  C 1411.20 749.51 1411.75 750.89 1409.17 752.87
  Q 1406.22 755.13 1403.02 756.25
  Q 1384.96 762.59 1365.20 762.39
  Q 1363.25 762.37 1360.70 761.64
  Q 1360.19 761.49 1360.12 760.97
  C 1359.11 754.34 1357.77 754.28 1351.32 754.10
  C 1337.15 753.72 1323.42 758.77 1315.87 770.68
  C 1303.92 789.53 1312.82 813.22 1334.31 819.44
  C 1340.60 821.26 1353.10 822.65 1357.84 816.72
  Q 1359.53 814.60 1360.37 809.83
  Q 1361.53 803.19 1362.34 796.86
  A 2.85 2.83 78.9 0 1 1363.75 794.75
  C 1376.09 787.78 1394.69 786.31 1408.51 787.53
  Q 1413.61 787.99 1417.70 789.58
  C 1421.14 790.92 1420.69 793.25 1420.97 796.31
  Q 1423.94 828.36 1422.25 860.50
  Q 1421.76 869.82 1420.44 876.05
  A 3.58 3.57 -9.9 0 1 1418.83 878.33
  Z"
/>
<path fill="#47eada" d="
  M 1165.07 754.29
  C 1164.85 738.68 1163.84 723.08 1163.95 707.41
  A 1.40 1.39 -24.9 0 1 1164.28 706.51
  Q 1167.27 702.97 1172.20 701.63
  Q 1197.13 694.90 1222.49 699.96
  C 1225.11 700.48 1230.22 701.71 1230.49 705.00
  Q 1231.55 718.11 1231.95 731.26
  Q 1233.55 783.75 1232.03 836.25
  Q 1231.48 855.30 1229.37 874.23
  Q 1229.24 875.35 1229.00 876.44
  A 1.18 1.17 81.4 0 1 1228.43 877.22
  Q 1225.50 878.85 1222.18 879.39
  Q 1205.86 882.06 1187.75 880.36
  C 1179.46 879.59 1175.93 877.50 1169.31 870.95
  Q 1144.58 846.48 1123.55 818.95
  A 0.26 0.26 0.0 0 0 1123.09 819.09
  Q 1121.64 840.03 1119.32 861.01
  Q 1118.29 870.29 1116.18 876.90
  Q 1115.62 878.64 1113.41 879.24
  Q 1106.94 880.98 1100.26 881.36
  Q 1083.59 882.32 1067.99 879.31
  C 1065.18 878.77 1063.03 877.52 1062.21 874.50
  Q 1060.15 866.95 1059.65 861.51
  Q 1053.49 794.72 1057.19 727.75
  Q 1057.84 715.94 1059.45 705.02
  A 2.90 2.90 0.0 0 1 1061.34 702.71
  C 1074.93 697.88 1092.42 698.16 1106.50 700.02
  C 1117.28 701.43 1123.28 702.94 1130.39 710.36
  C 1143.26 723.80 1154.17 739.14 1164.54 754.45
  A 0.29 0.29 0.0 0 0 1165.07 754.29
  Z"
/>
<path fill="#47eada" d="
  M 976.63 845.87
  Q 974.42 844.11 970.00 843.99
  Q 956.75 843.64 948.76 843.99
  Q 941.62 844.30 937.62 849.04
  Q 936.51 850.36 932.32 859.15
  Q 927.82 868.60 922.91 877.81
  C 921.44 880.55 919.53 881.27 916.34 881.45
  Q 900.26 882.38 884.25 880.85
  C 880.21 880.46 874.53 879.47 874.83 874.00
  C 875.20 867.29 875.51 860.49 876.59 853.86
  Q 886.66 792.26 906.73 733.12
  Q 909.47 725.04 914.32 713.75
  C 916.76 708.07 921.01 706.19 926.73 704.69
  Q 950.39 698.49 976.99 700.67
  C 984.15 701.25 990.41 703.14 994.30 709.34
  Q 1002.34 722.16 1008.25 737.03
  Q 1034.37 802.79 1051.21 868.60
  Q 1053.16 876.24 1045.48 877.58
  Q 1020.30 881.98 997.83 881.70
  C 993.65 881.64 990.97 875.36 989.79 872.09
  C 986.74 863.69 983.50 851.37 976.63 845.87
  Z
  M 971.62 782.63
  C 968.49 776.98 959.03 760.11 951.14 771.14
  Q 943.61 781.67 940.81 794.27
  C 939.59 799.74 940.91 804.61 946.57 806.20
  Q 956.84 809.07 968.44 806.13
  C 983.24 802.38 976.15 790.78 971.62 782.63
  Z"
/>
<path fill="#47eada" d="
  M 266.50 768.34
  Q 277.89 768.36 289.17 769.96
  A 2.27 2.27 0.0 0 1 290.96 771.38
  C 294.72 781.10 298.01 797.53 294.39 807.58
  A 2.31 2.30 5.9 0 1 292.53 809.09
  Q 280.52 810.79 268.38 810.82
  Q 267.74 810.82 267.74 811.46
  L 267.72 823.18
  Q 267.72 823.73 268.27 823.73
  Q 292.31 823.39 316.25 822.37
  C 319.52 822.23 327.52 821.50 328.85 825.61
  Q 330.15 829.63 330.92 835.26
  C 332.57 847.36 333.99 862.42 331.10 874.36
  A 1.08 1.07 84.2 0 1 330.52 875.08
  Q 326.42 877.08 322.01 877.91
  Q 308.09 880.56 293.96 881.72
  Q 258.90 884.62 223.75 883.10
  Q 216.40 882.79 206.99 881.10
  Q 204.46 880.65 203.75 878.50
  Q 201.53 871.76 200.61 864.74
  C 195.08 822.45 194.02 779.11 194.79 736.50
  Q 195.05 721.88 195.75 716.25
  C 196.25 712.19 197.15 705.19 201.51 704.31
  Q 206.23 703.36 211.01 702.92
  Q 254.68 698.89 298.50 700.77
  Q 307.56 701.16 316.49 702.68
  Q 319.63 703.22 320.33 706.48
  C 321.79 713.38 322.00 719.90 322.13 727.51
  Q 322.31 738.99 320.06 750.30
  A 1.09 1.09 0.0 0 1 319.44 751.08
  Q 314.73 753.20 308.51 753.69
  Q 287.38 755.34 266.73 755.75
  A 1.16 1.15 2.5 0 0 265.60 756.77
  Q 264.97 762.33 265.95 767.87
  Q 266.03 768.34 266.50 768.34
  Z"
/>
<path fill="#47eada" d="
  M 581.23 855.74
  C 577.61 863.91 573.55 872.21 568.86 879.82
  C 567.77 881.59 566.31 882.14 564.15 882.29
  Q 550.41 883.21 534.50 882.03
  C 529.43 881.66 521.62 881.75 521.81 874.74
  Q 522.05 865.27 523.89 853.77
  Q 534.38 788.14 556.43 725.47
  Q 558.01 720.99 562.31 712.63
  C 564.05 709.24 567.40 707.44 570.72 706.48
  Q 596.42 699.02 624.52 701.62
  C 631.30 702.25 636.65 703.93 640.70 709.59
  Q 644.96 715.55 646.10 717.98
  C 662.76 753.65 674.83 790.85 686.77 828.29
  Q 687.15 829.51 687.16 830.80
  A 1.02 1.01 15.1 0 0 687.65 831.65
  Q 688.43 832.11 687.96 832.87
  Q 687.65 833.38 687.84 833.94
  Q 694.86 855.07 698.47 870.59
  C 699.85 876.49 694.26 878.59 689.76 879.25
  Q 669.12 882.28 646.25 882.64
  C 639.88 882.74 637.59 875.99 635.99 871.10
  Q 633.35 863.06 629.88 855.35
  C 626.80 848.49 623.14 844.85 615.50 844.77
  Q 603.10 844.65 595.78 844.87
  Q 589.34 845.06 585.16 849.23
  Q 583.28 851.10 581.23 855.74
  Z
  M 622.57 791.47
  C 619.14 783.89 607.27 757.61 596.58 773.98
  Q 589.56 784.74 587.43 796.01
  Q 585.76 804.87 593.65 807.16
  C 602.58 809.76 631.04 810.14 622.57 791.47
  Z"
/>
<path fill="#47eada" d="
  M 463.88 791.63
  Q 462.24 793.29 460.71 795.31
  Q 460.36 795.77 460.89 796.03
  Q 483.75 807.35 505.16 821.19
  A 1.57 1.52 7.9 0 1 505.80 822.01
  Q 507.05 825.69 506.32 830.00
  Q 501.74 856.99 485.53 878.03
  Q 483.95 880.08 481.08 881.79
  C 478.41 883.38 476.42 882.78 473.75 881.73
  C 455.04 874.43 437.07 865.02 419.21 855.67
  A 0.50 0.49 16.3 0 0 418.49 856.06
  Q 417.78 862.70 416.45 869.49
  C 415.32 875.23 414.89 879.53 408.26 880.77
  Q 390.53 884.10 372.49 883.08
  Q 365.91 882.71 359.91 880.71
  Q 358.86 880.35 358.44 879.32
  C 354.15 868.73 353.16 855.61 351.97 844.23
  Q 346.94 796.25 345.96 748.00
  Q 345.61 730.48 346.95 713.01
  C 347.25 709.04 352.72 706.56 355.77 705.76
  Q 383.04 698.59 411.01 702.68
  Q 415.90 703.39 419.41 705.08
  C 421.02 705.86 421.02 707.18 421.17 708.75
  Q 422.49 721.82 422.77 734.61
  A 0.54 0.53 68.5 0 0 423.66 735.00
  Q 439.38 720.99 457.30 710.04
  Q 459.82 708.50 464.88 706.82
  Q 465.35 706.67 465.81 706.85
  Q 469.22 708.19 471.56 709.90
  Q 488.26 722.15 501.22 739.29
  Q 502.26 740.66 502.97 743.24
  A 1.39 1.35 49.6 0 1 502.91 744.15
  Q 500.68 749.56 499.45 751.14
  Q 482.89 772.46 463.88 791.63
  Z"
/>
<path fill="#6d5845" d="
  M 781.25 747.63
  C 791.73 751.78 795.53 762.95 790.20 772.91
  Q 784.53 783.52 772.34 785.29
  C 765.47 786.29 760.32 783.94 757.70 777.51
  C 753.97 768.33 751.01 747.70 765.73 746.30
  C 770.57 745.83 776.85 745.88 781.25 747.63
  Z"
/>
<path fill="#6d5845" d="
  M 971.62 782.63
  C 976.15 790.78 983.24 802.38 968.44 806.13
  Q 956.84 809.07 946.57 806.20
  C 940.91 804.61 939.59 799.74 940.81 794.27
  Q 943.61 781.67 951.14 771.14
  C 959.03 760.11 968.49 776.98 971.62 782.63
  Z"
/>
<path fill="#6d5845" d="
  M 622.57 791.47
  C 631.04 810.14 602.58 809.76 593.65 807.16
  Q 585.76 804.87 587.43 796.01
  Q 589.56 784.74 596.58 773.98
  C 607.27 757.61 619.14 783.89 622.57 791.47
  Z"
/>
<path fill="#47eada" d="
  M 795.56 1003.86
  Q 796.26 1006.13 796.39 1008.01
  Q 799.60 1051.94 795.21 1095.75
  Q 794.35 1104.34 792.44 1112.75
  C 790.94 1119.34 783.01 1118.95 777.13 1119.56
  C 767.12 1120.60 756.65 1120.47 747.40 1117.26
  Q 746.93 1117.10 746.69 1116.68
  C 742.90 1110.16 742.09 1098.64 741.19 1090.25
  Q 736.87 1049.63 737.78 1010.76
  C 737.88 1006.49 739.19 1004.10 743.23 1002.93
  Q 765.59 996.43 788.52 1000.90
  Q 792.33 1001.64 795.30 1003.53
  A 0.63 0.62 7.4 0 1 795.56 1003.86
  Z"
/>
<path fill="#47eada" d="
  M 727.28 1008.50
  Q 730.55 1055.43 725.13 1102.17
  Q 724.14 1110.70 722.43 1115.12
  C 719.97 1121.49 692.86 1120.26 687.20 1119.62
  C 683.22 1119.17 677.19 1118.69 675.95 1114.02
  Q 673.21 1103.77 671.94 1092.01
  Q 669.39 1068.32 668.55 1044.50
  Q 667.83 1024.15 668.62 1008.49
  C 668.89 1003.13 680.20 1001.23 684.25 1000.60
  C 696.06 998.75 715.95 997.79 726.47 1003.91
  A 1.04 1.04 0.0 0 1 726.98 1004.71
  Q 727.11 1006.12 727.28 1008.50
  Z"
/>
<path fill="#47eada" d="
  M 779.30 1134.17
  C 800.23 1141.26 800.02 1167.57 784.65 1179.91
  C 771.71 1190.30 751.82 1183.72 745.00 1170.13
  C 740.47 1161.10 741.06 1150.84 747.39 1142.93
  Q 759.72 1127.53 779.30 1134.17
  Z"
/>
<path fill="#47eada" d="
  M 678.16 1143.22
  Q 689.43 1128.46 707.52 1133.52
  C 717.89 1136.41 724.74 1143.30 726.17 1153.93
  C 727.50 1163.84 723.52 1173.21 715.93 1179.69
  C 706.66 1187.60 692.10 1186.28 683.00 1179.30
  C 671.62 1170.56 669.35 1154.75 678.16 1143.22
  Z"
/>
</svg>
