<?xml version="1.0" encoding="UTF-8" standalone="no"?>
<!DOCTYPE svg PUBLIC "-//W3C//DTD SVG 1.1//EN" "http://www.w3.org/Graphics/SVG/1.1/DTD/svg11.dtd">
<svg xmlns="http://www.w3.org/2000/svg" version="1.1" viewBox="0.00 0.00 1593.00 1314.00">
<g stroke-width="2.00" fill="none" stroke-linecap="butt">
<path stroke="#b38c4f" vector-effect="non-scaling-stroke" d="
  M 753.03 301.02
  A 0.31 0.31 0.0 0 1 752.55 301.14
  L 567.38 152.57
  A 0.26 0.26 0.0 0 0 566.96 152.80
  L 591.41 359.68
  A 0.33 0.33 0.0 0 1 591.03 360.04
  L 356.74 324.06
  A 0.35 0.35 0.0 0 0 356.41 324.61
  L 410.88 397.64
  Q 411.20 398.07 411.73 398.17
  C 450.23 405.51 472.46 440.44 471.46 478.24
  Q 471.45 478.79 471.77 479.22
  L 480.62 491.10
  A 0.60 0.60 0.0 0 1 480.35 492.03
  L 468.38 496.61
  Q 467.88 496.80 467.69 497.30
  C 459.55 519.21 446.45 532.26 424.32 539.40
  Q 398.41 547.76 369.25 544.68
  Q 359.40 543.64 353.64 541.55
  Q 353.30 541.43 352.97 541.56
  L 259.81 577.84
  Q 258.91 578.19 259.80 578.57
  Q 316.85 603.10 374.34 627.83
  Q 376.48 628.75 378.82 628.67
  Q 395.92 628.10 413.00 628.65
  Q 425.38 629.05 431.26 630.70
  Q 434.72 631.66 435.76 634.01
  C 438.15 639.42 437.93 648.17 438.10 654.59
  A 1.02 1.02 0.0 0 0 438.71 655.49
  L 447.29 659.20
  Q 447.85 659.44 447.85 658.83
  Q 447.84 650.47 448.50 642.13
  C 449.56 628.65 487.31 628.75 496.26 629.41
  Q 502.57 629.88 508.60 631.76
  Q 514.08 633.45 514.24 639.24
  Q 514.40 644.74 515.22 650.28
  Q 515.32 650.93 515.83 650.50
  C 520.83 646.20 539.79 631.13 546.27 633.87
  C 554.66 637.41 565.37 648.57 571.52 656.03
  C 576.24 661.75 579.11 665.29 574.46 672.74
  Q 572.46 675.92 570.09 678.85
  Q 559.32 692.16 547.45 704.39
  Q 546.97 704.89 547.59 705.20
  Q 561.05 712.10 574.13 720.35
  C 579.47 723.72 580.62 727.12 579.50 733.26
  Q 576.27 750.96 568.06 764.78
  Q 563.44 772.56 559.03 775.49
  C 554.19 778.70 549.98 777.09 544.52 774.68
  Q 527.89 767.34 511.94 758.96
  A 0.52 0.52 0.0 0 0 511.18 759.36
  C 510.73 763.48 509.67 771.94 505.27 774.05
  C 498.11 777.48 462.73 780.66 458.27 773.21
  Q 456.41 770.10 455.15 762.97
  Q 452.98 750.68 451.79 738.25
  Q 448.35 702.05 447.85 665.63
  A 0.18 0.18 0.0 0 0 447.53 665.52
  L 418.03 702.29
  Q 417.73 702.66 417.74 703.15
  C 417.88 708.32 418.79 719.23 412.26 720.58
  Q 409.66 721.11 402.96 721.71
  C 402.41 721.76 401.84 722.20 401.64 722.67
  Q 401.40 723.22 402.00 723.20
  Q 414.63 722.87 427.25 722.23
  Q 434.56 721.86 438.01 722.86
  C 443.62 724.50 443.85 730.01 444.67 734.95
  Q 447.21 750.44 445.36 766.00
  C 444.63 772.23 435.76 773.61 430.81 774.28
  Q 394.71 779.22 358.45 777.52
  A 1.42 1.42 0.0 0 0 357.29 778.04
  L 302.49 846.42
  A 0.24 0.24 0.0 0 0 302.71 846.81
  L 509.24 822.39
  A 0.54 0.54 0.0 0 1 509.84 823.00
  L 473.88 1057.17
  A 0.34 0.34 0.0 0 0 474.42 1057.49
  L 640.94 933.16
  A 0.54 0.54 0.0 0 1 641.77 933.40
  L 727.71 1154.25
  A 0.30 0.30 0.0 0 0 728.27 1154.26
  L 792.55 1004.65
  Q 792.84 1003.98 792.16 1004.26
  Q 791.45 1004.55 790.87 1005.10
  C 785.79 1009.91 775.24 1010.18 769.35 1008.16
  C 754.55 1003.10 747.63 987.32 754.75 973.49
  C 765.79 952.06 800.26 957.54 801.64 982.47
  A 0.21 0.21 0.0 0 0 802.04 982.54
  L 810.35 963.21
  A 0.55 0.54 -58.6 0 1 811.19 963.00
  L 995.83 1111.13
  Q 996.62 1111.76 996.50 1110.76
  L 972.15 904.50
  A 0.52 0.51 0.9 0 1 972.74 903.93
  L 1207.00 939.94
  A 0.29 0.29 0.0 0 0 1207.27 939.48
  L 1082.90 772.86
  A 0.64 0.63 -26.7 0 1 1083.23 771.87
  L 1084.96 771.38
  Q 1085.68 771.17 1085.14 770.65
  Q 1067.80 754.14 1052.78 735.51
  Q 1052.29 734.91 1052.24 735.67
  Q 1051.08 751.15 1048.86 766.52
  Q 1047.83 773.57 1041.30 774.84
  Q 1026.82 777.64 1011.31 775.47
  C 1004.78 774.56 1000.46 774.25 997.99 768.32
  Q 997.75 767.73 997.46 768.30
  Q 995.91 771.29 993.49 772.26
  Q 988.06 774.43 980.01 775.13
  Q 967.55 776.22 954.97 776.58
  Q 946.53 776.83 943.56 768.97
  Q 940.64 761.24 937.65 753.61
  C 935.68 748.61 933.63 747.29 928.05 747.36
  C 923.17 747.42 911.35 745.80 908.90 751.19
  Q 904.24 761.45 898.81 771.32
  C 896.13 776.18 891.95 776.57 886.72 776.54
  C 880.80 776.52 875.08 776.59 869.30 776.13
  C 860.54 775.45 853.47 775.03 853.95 764.52
  Q 854.36 755.76 856.17 745.14
  Q 862.96 705.42 874.91 666.95
  Q 879.11 653.41 884.97 640.49
  Q 886.89 636.27 889.97 634.74
  C 896.46 631.52 904.73 630.10 912.51 629.11
  Q 924.97 627.53 937.47 628.96
  C 944.61 629.78 949.89 631.54 953.65 637.36
  Q 958.46 644.79 962.59 654.81
  Q 981.73 701.31 994.83 749.76
  A 0.13 0.13 0.0 0 0 995.08 749.71
  Q 991.90 706.92 993.27 664.00
  Q 993.73 649.68 995.97 635.53
  C 997.81 623.92 1036.08 627.99 1044.00 629.60
  C 1057.35 632.31 1068.14 649.65 1075.94 660.09
  Q 1076.43 660.74 1076.40 659.93
  Q 1076.23 654.36 1075.78 644.25
  C 1075.54 639.10 1075.91 633.80 1081.35 631.33
  C 1094.55 625.31 1113.87 625.60 1127.76 628.69
  C 1131.54 629.52 1135.06 631.70 1135.50 635.92
  Q 1136.47 645.13 1136.72 652.00
  Q 1138.52 701.40 1136.28 750.48
  A 0.54 0.54 0.0 0 0 1137.01 751.01
  L 1151.41 745.41
  Q 1151.96 745.19 1151.62 744.71
  C 1136.92 723.81 1138.12 697.55 1146.82 674.48
  Q 1156.89 647.78 1184.14 634.61
  Q 1184.86 634.26 1184.12 633.94
  L 1112.76 603.26
  A 0.41 0.41 0.0 0 1 1112.60 602.63
  L 1260.86 417.80
  A 0.39 0.39 0.0 0 0 1260.50 417.17
  L 1137.49 431.69
  Q 1136.93 431.75 1137.07 432.29
  C 1141.44 448.48 1141.77 467.47 1129.76 480.54
  Q 1129.37 480.96 1129.81 481.32
  Q 1139.58 489.21 1147.81 498.64
  C 1151.67 503.06 1154.07 507.35 1151.48 512.71
  Q 1144.64 526.88 1132.24 539.40
  C 1130.01 541.65 1128.02 542.88 1124.98 542.64
  C 1119.62 542.20 1115.48 540.29 1110.44 537.17
  C 1101.60 531.69 1094.74 527.03 1086.14 525.19
  A 1.02 1.02 0.0 0 0 1084.90 526.19
  C 1084.87 533.08 1084.57 541.06 1075.99 542.25
  Q 1058.70 544.64 1039.25 543.62
  C 1032.65 543.27 1030.95 540.79 1029.60 534.46
  Q 1028.53 529.42 1028.32 527.67
  Q 1022.15 476.47 1022.24 422.50
  C 1022.25 417.33 1022.02 403.38 1026.71 400.99
  C 1037.46 395.50 1048.75 393.27 1060.66 391.87
  Q 1061.20 391.80 1061.29 391.26
  L 1089.61 206.73
  A 0.31 0.31 0.0 0 0 1089.11 206.43
  L 922.26 331.01
  Q 922.01 331.20 921.89 330.91
  L 835.79 109.62
  A 0.28 0.28 0.0 0 0 835.27 109.60
  L 753.03 301.02"
/>
<path stroke="#5aa190" vector-effect="non-scaling-stroke" d="
  M 1080.65 526.11
  C 1080.77 518.73 1089.47 521.04 1093.48 522.83
  Q 1103.65 527.37 1112.97 533.50
  Q 1117.29 536.34 1122.22 537.95
  Q 1126.53 539.35 1129.63 535.89
  C 1137.07 527.59 1143.83 519.38 1147.78 509.86
  C 1149.21 506.41 1145.55 502.48 1143.61 500.39
  Q 1134.00 490.09 1123.19 481.42
  A 0.65 0.65 0.0 0 1 1123.21 480.40
  C 1138.11 469.17 1137.44 446.49 1131.94 430.34
  Q 1127.64 417.74 1116.66 409.86
  C 1091.72 391.96 1057.72 392.43 1030.45 403.85
  Q 1027.89 404.93 1027.55 407.99
  Q 1026.58 416.70 1026.56 421.75
  Q 1026.34 474.06 1032.57 526.00
  C 1032.97 529.34 1033.39 538.99 1037.99 539.27
  Q 1055.03 540.31 1073.26 538.35
  Q 1076.42 538.01 1079.01 536.17
  Q 1079.42 535.87 1079.54 535.36
  Q 1080.58 530.76 1080.65 526.11"
/>
<path stroke="#5aa190" vector-effect="non-scaling-stroke" d="
  M 364.04 539.69
  Q 395.88 544.93 425.70 534.26
  C 439.48 529.33 449.91 521.58 457.19 509.43
  Q 471.11 486.17 465.89 460.25
  C 459.94 430.72 439.79 407.16 409.25 401.93
  Q 389.71 398.58 370.00 400.72
  C 365.14 401.24 353.19 403.27 350.56 407.85
  C 348.80 410.91 347.41 416.98 346.94 421.18
  Q 341.31 471.20 349.64 520.83
  C 350.42 525.46 351.76 529.63 353.44 533.83
  C 355.40 538.71 358.63 538.80 364.04 539.69"
/>
<path stroke="#5aa190" vector-effect="non-scaling-stroke" d="
  M 1149.05 681.35
  C 1143.21 699.73 1142.40 721.77 1152.30 737.94
  C 1171.41 769.17 1208.46 777.15 1242.10 768.04
  A 0.77 0.77 0.0 0 1 1242.88 768.29
  L 1244.35 770.08
  A 0.46 0.46 0.0 0 0 1244.66 770.25
  Q 1258.06 772.06 1273.25 770.26
  Q 1275.12 770.04 1276.36 769.41
  A 1.18 1.15 -6.6 0 0 1276.97 768.66
  Q 1278.12 764.22 1278.27 762.25
  Q 1280.56 732.81 1277.21 703.44
  Q 1277.15 702.96 1276.80 702.63
  Q 1275.09 701.04 1273.26 700.70
  Q 1254.05 697.13 1235.22 704.39
  Q 1234.41 704.70 1232.98 706.13
  Q 1232.62 706.49 1232.56 707.00
  Q 1231.88 712.63 1230.86 718.21
  C 1229.36 726.51 1220.27 726.04 1214.05 724.98
  C 1202.31 722.98 1193.34 713.83 1192.80 701.91
  C 1191.96 683.21 1208.62 673.45 1225.18 674.10
  C 1228.85 674.25 1231.14 675.36 1230.80 679.41
  A 0.68 0.67 -83.1 0 0 1231.36 680.13
  C 1238.09 681.27 1270.07 678.66 1270.10 670.02
  C 1270.14 658.10 1265.92 646.15 1255.26 639.43
  C 1239.08 629.23 1216.85 628.79 1198.52 633.87
  C 1174.47 640.54 1156.72 657.19 1149.05 681.35"
/>
<path stroke="#5aa190" vector-effect="non-scaling-stroke" d="
  M 1080.62 674.20
  Q 1070.52 659.57 1057.33 643.43
  C 1049.42 633.75 1040.87 632.67 1027.96 631.92
  C 1021.92 631.56 1005.26 631.50 1000.46 635.46
  A 1.27 1.25 -16.8 0 0 1000.02 636.27
  Q 998.37 648.43 997.90 658.75
  Q 996.26 694.87 998.15 732.76
  Q 998.96 748.85 1001.54 764.75
  C 1001.93 767.19 1002.71 769.09 1005.32 769.89
  Q 1009.00 771.01 1013.50 771.41
  C 1022.95 772.25 1033.81 772.89 1042.43 769.83
  A 1.23 1.23 0.0 0 0 1043.13 769.20
  Q 1044.52 766.24 1044.80 764.26
  Q 1047.08 748.20 1048.86 724.33
  Q 1048.91 723.69 1049.30 724.20
  Q 1062.12 740.76 1078.88 758.37
  Q 1084.25 764.01 1089.08 767.95
  C 1092.07 770.40 1094.52 770.72 1098.25 771.11
  Q 1113.13 772.67 1126.51 770.12
  Q 1128.17 769.80 1129.84 768.59
  A 1.17 1.16 76.5 0 0 1130.32 767.80
  C 1130.70 765.23 1131.22 762.49 1131.37 759.91
  Q 1134.33 709.25 1132.58 658.50
  Q 1132.19 647.16 1131.23 635.70
  A 1.17 1.17 0.0 0 0 1130.70 634.82
  Q 1127.59 632.81 1122.75 632.10
  Q 1103.14 629.19 1085.70 634.03
  Q 1079.67 635.70 1080.05 642.23
  Q 1080.85 655.68 1081.11 674.04
  Q 1081.12 674.92 1080.62 674.20"
/>
<path stroke="#5aa190" vector-effect="non-scaling-stroke" d="
  M 987.20 738.69
  Q 975.12 696.46 958.38 655.84
  Q 956.83 652.08 951.51 642.25
  Q 947.14 634.19 938.52 633.23
  Q 920.60 631.24 903.01 635.14
  C 897.06 636.46 891.20 637.31 888.58 643.10
  Q 885.09 650.82 882.40 658.84
  Q 867.74 702.55 860.17 748.02
  C 859.34 752.97 857.00 766.33 859.23 769.35
  C 862.20 773.37 887.94 772.14 892.32 771.82
  A 1.50 1.47 20.6 0 0 893.23 771.42
  Q 894.91 769.81 896.00 767.71
  Q 900.19 759.56 904.10 751.24
  C 906.70 745.70 909.85 743.08 915.89 743.07
  Q 922.01 743.05 928.16 743.05
  C 934.17 743.06 937.92 744.16 940.49 749.52
  Q 944.03 756.91 946.35 764.78
  C 947.03 767.09 949.67 772.16 952.99 772.16
  Q 969.35 772.16 985.50 769.80
  C 990.39 769.08 994.87 768.54 993.73 762.53
  C 992.35 755.24 988.83 744.41 987.20 738.69"
/>
<path stroke="#5aa190" vector-effect="non-scaling-stroke" d="
  M 390.45 684.59
  L 390.25 676.16
  Q 390.24 675.60 390.79 675.58
  Q 404.15 675.07 417.50 674.43
  C 420.23 674.31 431.85 673.66 432.46 670.37
  Q 435.22 655.34 432.61 638.40
  C 432.24 636.03 431.03 634.89 428.75 634.58
  Q 415.94 632.81 403.00 632.65
  Q 374.44 632.32 346.02 635.20
  C 343.16 635.49 339.47 635.26 338.36 638.57
  Q 336.90 642.92 336.70 647.51
  Q 334.83 690.66 337.80 733.76
  Q 338.82 748.58 341.14 763.25
  Q 341.73 766.99 343.22 770.47
  Q 343.42 770.93 343.88 771.13
  Q 346.07 772.04 346.87 772.14
  C 370.12 775.00 394.73 773.78 418.00 771.56
  C 424.79 770.91 434.12 770.21 440.25 767.13
  Q 440.72 766.89 440.83 766.37
  C 442.89 756.20 441.68 743.11 440.13 733.56
  Q 439.58 730.23 438.48 727.99
  A 1.18 1.15 83.5 0 0 437.72 727.37
  Q 433.20 726.19 429.49 726.41
  Q 411.01 727.51 392.47 727.65
  Q 392.00 727.65 392.00 727.19
  L 392.00 718.32
  Q 392.01 717.83 392.49 717.81
  C 398.73 717.59 405.73 717.65 411.80 716.11
  A 0.98 0.98 0.0 0 0 412.50 715.46
  C 415.24 707.20 412.77 694.69 409.73 687.05
  A 0.90 0.90 0.0 0 0 409.03 686.49
  Q 400.07 685.06 390.99 685.12
  A 0.54 0.53 88.9 0 1 390.45 684.59"
/>
<path stroke="#5aa190" vector-effect="non-scaling-stroke" d="
  M 511.10 659.17
  Q 510.88 649.07 509.79 638.78
  C 509.61 637.07 508.74 636.48 507.24 636.02
  C 493.04 631.63 473.93 633.20 459.25 637.27
  Q 455.48 638.32 453.05 641.15
  A 1.64 1.58 67.6 0 0 452.67 642.11
  Q 451.94 655.63 452.40 673.50
  C 453.22 705.03 454.57 733.52 459.44 763.02
  Q 459.88 765.71 461.84 770.65
  A 1.19 1.19 0.0 0 0 462.54 771.32
  Q 467.07 772.90 473.26 773.14
  Q 488.46 773.73 500.98 771.01
  Q 504.35 770.27 505.18 767.00
  Q 507.01 759.76 507.78 752.51
  A 0.44 0.44 0.0 0 1 508.43 752.17
  Q 527.00 762.06 545.58 770.45
  Q 549.02 772.00 553.56 773.08
  A 1.44 1.38 -50.9 0 0 554.53 772.96
  Q 558.06 771.18 560.62 767.60
  C 568.19 757.01 575.52 741.57 575.37 728.55
  Q 575.34 726.39 574.30 725.71
  Q 558.10 715.17 540.41 706.44
  A 0.59 0.59 0.0 0 1 540.25 705.50
  Q 550.02 695.61 559.37 685.10
  Q 566.26 677.35 571.35 669.54
  C 574.03 665.44 571.33 662.62 568.76 659.53
  Q 559.06 647.90 547.50 639.50
  Q 546.04 638.44 543.79 637.92
  A 1.63 1.60 -49.3 0 0 542.83 638.00
  C 531.75 642.45 520.72 651.63 511.80 659.48
  A 0.42 0.42 0.0 0 1 511.10 659.17"
/>
<path stroke="#b38c4f" vector-effect="non-scaling-stroke" d="
  M 1198.03 694.49
  C 1194.17 705.12 1201.36 717.56 1212.65 720.28
  Q 1214.57 720.74 1216.64 719.98
  Q 1221.45 718.20 1226.32 716.24
  Q 1226.81 716.04 1226.92 715.52
  Q 1227.74 711.49 1228.16 707.37
  C 1228.77 701.43 1235.15 699.34 1240.22 697.97
  Q 1257.77 693.23 1275.61 696.79
  Q 1276.09 696.88 1276.53 696.71
  L 1304.02 686.01
  A 0.29 0.29 0.0 0 0 1304.03 685.48
  L 1274.72 672.93
  Q 1274.21 672.71 1273.97 673.21
  C 1270.19 680.98 1252.84 683.74 1244.98 684.36
  C 1240.32 684.73 1226.29 686.95 1226.53 679.20
  Q 1226.54 678.74 1226.08 678.69
  C 1213.77 677.23 1202.31 682.69 1198.03 694.49"
/>
<path stroke="#5aa190" vector-effect="non-scaling-stroke" d="
  M 796.7709 978.9144
  A 20.63 20.27 -16.2 0 0 771.3049 965.2048
  A 20.63 20.27 -16.2 0 0 757.1491 990.4256
  A 20.63 20.27 -16.2 0 0 782.6151 1004.1352
  A 20.63 20.27 -16.2 0 0 796.7709 978.9144"
/>
<path stroke="#b38c4f" vector-effect="non-scaling-stroke" d="
  M 841.26 460.02
  Q 854.03 459.62 866.74 458.30
  C 870.43 457.91 872.51 456.51 874.08 453.34
  C 880.51 440.35 881.13 421.98 878.47 408.00
  C 877.40 402.37 874.62 396.68 868.50 396.40
  Q 828.01 394.56 787.50 395.81
  Q 766.81 396.45 746.25 398.78
  C 742.01 399.26 734.15 400.52 733.52 405.98
  Q 730.80 429.60 736.62 452.57
  C 738.24 458.95 745.84 459.53 751.49 460.06
  Q 761.98 461.03 772.37 461.22
  A 0.67 0.67 0.0 0 1 773.03 461.85
  Q 774.24 482.30 776.37 502.76
  Q 777.88 517.24 780.86 531.47
  C 781.96 536.70 783.31 541.79 788.14 542.76
  Q 805.04 546.18 823.54 543.49
  Q 829.99 542.55 832.28 540.77
  C 836.70 537.35 837.48 526.40 837.92 520.69
  Q 840.23 490.71 840.67 460.62
  Q 840.68 460.04 841.26 460.02"
/>
<path stroke="#b38c4f" vector-effect="non-scaling-stroke" d="
  M 683.57 513.53
  Q 693.71 513.71 703.75 512.46
  C 711.36 511.52 715.44 511.54 717.64 503.97
  Q 721.80 489.67 721.25 477.11
  C 721.08 473.17 719.74 464.83 715.97 463.51
  Q 712.73 462.38 705.50 461.85
  Q 695.13 461.09 684.70 460.80
  A 0.54 0.54 0.0 0 1 684.17 460.27
  L 684.15 456.59
  A 0.69 0.69 0.0 0 1 684.87 455.90
  Q 701.87 456.71 719.00 455.39
  Q 722.66 455.11 724.39 452.13
  C 730.68 441.32 733.04 416.86 729.54 405.06
  C 726.88 396.10 719.66 397.23 709.98 396.56
  Q 678.87 394.39 647.76 396.79
  Q 637.76 397.56 626.71 400.15
  C 621.84 401.29 617.35 404.27 617.01 409.64
  Q 616.36 419.75 616.65 428.25
  Q 618.17 473.46 625.75 519.76
  Q 627.15 528.37 629.57 536.75
  C 630.26 539.17 631.15 541.14 633.68 542.16
  C 641.35 545.25 675.15 547.60 679.09 538.78
  C 682.05 532.14 682.36 521.76 682.97 514.07
  Q 683.02 513.52 683.57 513.53"
/>
<path stroke="#b38c4f" vector-effect="non-scaling-stroke" d="
  M 1012.17 542.10
  C 1019.96 541.09 1029.90 540.01 1027.11 529.02
  Q 1013.99 477.44 994.31 427.98
  Q 990.50 418.41 985.60 409.36
  C 981.74 402.21 977.67 398.11 970.76 397.02
  Q 951.44 393.96 930.96 398.38
  C 925.50 399.56 917.75 401.84 915.39 406.18
  Q 911.63 413.11 908.36 422.67
  Q 892.41 469.38 884.62 518.10
  Q 883.87 522.75 883.62 526.90
  C 883.11 535.44 882.46 541.73 892.48 543.06
  Q 906.16 544.88 919.96 543.82
  C 924.08 543.51 926.59 542.17 928.45 538.65
  Q 933.12 529.81 937.35 520.72
  C 939.09 516.98 940.90 515.10 945.01 515.03
  Q 952.38 514.92 959.75 514.83
  C 971.49 514.68 967.67 543.97 982.97 544.16
  Q 994.96 544.31 1012.17 542.10"
/>
<path stroke="#b38c4f" vector-effect="non-scaling-stroke" d="
  M 479.16 519.63
  Q 477.38 531.04 477.87 535.52
  Q 478.71 543.22 486.64 544.10
  Q 501.03 545.71 513.93 544.88
  C 518.23 544.60 520.90 543.52 522.87 539.81
  Q 527.78 530.57 532.21 521.05
  C 534.07 517.07 536.08 516.19 540.26 516.12
  Q 547.75 516.00 555.25 516.19
  Q 557.98 516.26 559.40 518.59
  C 562.90 524.37 564.60 530.74 567.18 536.99
  C 569.79 543.31 572.43 545.08 579.52 545.04
  Q 595.22 544.95 610.75 542.55
  C 618.33 541.37 623.93 538.35 621.76 529.74
  Q 611.82 490.31 595.49 445.73
  Q 589.83 430.25 582.81 415.35
  C 580.12 409.64 575.63 401.21 569.27 399.19
  Q 561.36 396.68 551.50 396.66
  C 543.36 396.64 515.29 398.83 510.49 406.20
  Q 507.74 410.42 504.22 420.38
  Q 487.06 468.84 479.16 519.63"
/>
<path stroke="#b38c4f" vector-effect="non-scaling-stroke" d="
  M 785.02 758.50
  C 790.79 758.35 799.07 763.63 803.83 766.74
  C 808.97 770.09 824.19 779.58 830.01 774.25
  C 835.40 769.33 855.05 746.82 851.56 738.22
  Q 849.93 734.20 846.09 730.15
  Q 838.19 721.83 829.35 714.40
  Q 828.93 714.04 829.30 713.62
  Q 836.74 705.53 838.42 695.26
  C 841.10 678.84 837.43 657.20 825.30 644.95
  C 811.97 631.50 791.19 624.89 771.74 624.59
  C 757.19 624.37 740.40 626.88 727.29 633.56
  C 723.77 635.35 723.04 637.65 722.62 641.31
  Q 721.61 650.19 721.61 656.50
  Q 721.63 709.45 728.13 761.99
  C 728.95 768.64 729.99 776.17 736.74 776.63
  Q 752.98 777.75 772.26 775.89
  C 783.84 774.78 784.06 768.76 784.44 759.08
  A 0.60 0.60 0.0 0 1 785.02 758.50"
/>
<path stroke="#b38c4f" vector-effect="non-scaling-stroke" d="
  M 687.44 777.16
  C 697.45 776.59 707.34 776.05 717.25 774.51
  C 726.95 773.00 728.36 766.97 726.06 758.48
  Q 714.55 715.88 699.23 674.50
  Q 691.55 653.77 685.92 643.62
  C 682.56 637.57 679.26 632.77 673.51 631.03
  Q 667.50 629.22 660.39 628.95
  Q 642.90 628.28 626.01 632.79
  C 619.38 634.55 616.01 636.29 613.43 642.20
  Q 609.17 651.94 607.35 657.32
  Q 594.44 695.59 586.72 735.23
  Q 584.04 749.01 582.94 762.99
  C 582.15 773.03 585.78 776.04 595.50 776.76
  C 600.91 777.16 622.00 778.63 625.51 775.01
  Q 628.21 772.20 631.34 765.55
  Q 634.39 759.04 637.50 752.53
  C 638.60 750.22 640.30 748.57 642.75 748.35
  Q 649.59 747.74 660.03 748.19
  C 662.14 748.28 663.79 749.28 664.76 751.01
  Q 668.37 757.52 671.05 766.06
  C 674.10 775.80 677.80 777.71 687.44 777.16"
/>
<path stroke="#b38c4f" vector-effect="non-scaling-stroke" d="
  M 749.75 917.11
  Q 751.10 932.14 752.75 943.75
  C 753.21 947.00 754.42 953.46 756.98 955.91
  C 762.09 960.77 780.16 959.94 787.51 958.78
  C 793.09 957.90 797.78 957.02 799.14 950.74
  Q 801.31 940.73 802.12 930.51
  Q 804.64 898.95 802.27 867.36
  C 801.69 859.58 790.95 859.02 785.15 858.45
  C 776.07 857.55 755.00 857.50 749.23 866.29
  Q 749.00 866.65 748.89 866.24
  Q 747.68 861.78 743.29 860.62
  Q 722.97 855.22 702.51 861.42
  C 697.59 862.91 695.63 866.00 695.49 871.25
  Q 694.61 905.25 698.77 939.01
  Q 699.61 945.83 701.53 952.41
  C 703.26 958.35 711.68 959.44 716.99 959.71
  Q 726.93 960.21 736.80 958.76
  Q 745.00 957.56 746.36 949.52
  Q 748.95 934.20 749.54 917.12
  Q 749.60 915.47 749.75 917.11"
/>
<path stroke="#b38c4f" vector-effect="non-scaling-stroke" d="
  M 707.00 966.76
  C 688.60 982.96 702.71 1011.00 726.12 1009.41
  C 745.73 1008.08 755.75 982.88 742.79 968.37
  Q 739.03 964.17 732.55 961.88
  Q 718.26 956.84 707.00 966.76"
/>
<path stroke="#5aa190" vector-effect="non-scaling-stroke" d="
  M 776.98 457.55
  Q 779.01 488.11 782.83 518.49
  Q 783.90 527.00 786.39 535.25
  Q 787.34 538.41 791.25 538.95
  Q 810.27 541.58 827.10 538.20
  Q 828.71 537.88 829.90 536.89
  C 832.06 535.09 833.03 526.37 833.25 523.99
  Q 836.25 491.84 836.26 456.50
  Q 836.26 455.95 836.81 455.92
  Q 850.68 455.38 864.51 454.31
  Q 866.64 454.14 868.72 453.36
  Q 869.21 453.17 869.48 452.71
  C 875.86 441.70 876.46 423.59 874.88 411.73
  C 874.40 408.18 872.34 400.83 868.75 400.66
  Q 821.12 398.50 773.49 400.66
  Q 757.26 401.40 741.25 404.18
  Q 738.00 404.75 737.68 407.23
  Q 735.56 423.43 738.95 443.11
  C 739.50 446.28 740.31 453.58 743.34 454.21
  C 754.32 456.49 765.22 456.64 776.38 456.97
  Q 776.94 456.99 776.98 457.55"
/>
<path stroke="#5aa190" vector-effect="non-scaling-stroke" d="
  M 680.37 451.43
  Q 699.66 452.31 718.93 451.24
  A 1.27 1.24 -71.0 0 0 719.81 450.80
  Q 721.74 448.49 722.66 445.57
  Q 727.63 429.66 726.42 412.99
  C 726.18 409.66 725.33 402.27 721.00 401.82
  Q 684.47 398.02 646.26 401.27
  C 639.69 401.83 626.61 402.81 621.85 407.77
  Q 621.50 408.14 621.46 408.65
  Q 620.66 419.44 621.07 430.25
  Q 622.76 474.53 629.97 518.25
  Q 631.84 529.57 634.31 537.38
  A 1.11 1.10 0.6 0 0 635.01 538.09
  C 644.04 541.12 655.36 540.98 664.62 540.03
  C 671.34 539.34 675.46 539.56 676.49 532.27
  Q 678.53 517.91 678.93 509.80
  Q 678.96 509.28 679.48 509.29
  Q 693.41 509.58 707.21 507.76
  Q 709.42 507.47 711.51 506.49
  A 1.42 1.42 0.0 0 0 712.21 505.79
  C 716.13 497.22 717.22 486.14 716.69 477.00
  C 716.48 473.27 716.59 467.49 711.99 466.99
  Q 695.37 465.16 680.43 465.12
  Q 679.88 465.12 679.88 464.57
  L 679.86 451.92
  Q 679.86 451.40 680.37 451.43"
/>
<path stroke="#5aa190" vector-effect="non-scaling-stroke" d="
  M 1017.73 510.36
  Q 1005.91 468.41 989.68 427.96
  C 986.91 421.06 983.21 412.75 979.60 407.68
  Q 975.26 401.59 966.74 400.84
  Q 944.89 398.91 926.01 404.37
  C 923.02 405.23 920.46 406.14 918.87 409.13
  Q 915.63 415.23 913.77 420.50
  Q 899.59 460.63 891.39 504.38
  Q 888.41 520.27 887.72 532.30
  C 887.45 537.05 889.26 538.63 893.76 538.95
  Q 909.74 540.09 920.34 539.45
  C 922.66 539.31 923.70 538.06 924.70 536.20
  Q 929.15 527.94 933.12 519.43
  C 935.59 514.11 938.19 511.01 944.01 510.80
  Q 947.98 510.65 960.76 510.81
  C 966.35 510.88 969.19 515.10 971.12 520.04
  Q 973.90 527.21 976.63 534.36
  C 979.02 540.63 982.22 539.85 988.60 539.64
  Q 999.32 539.28 1013.45 537.63
  C 1017.09 537.21 1024.13 536.52 1023.19 531.23
  C 1022.00 524.65 1019.37 516.20 1017.73 510.36"
/>
<path stroke="#5aa190" vector-effect="non-scaling-stroke" d="
  M 1066.86 452.12
  C 1067.87 458.91 1070.58 465.96 1079.00 465.13
  Q 1084.52 464.59 1088.71 461.52
  C 1096.90 455.52 1098.68 443.94 1089.43 437.59
  C 1085.34 434.78 1079.76 434.49 1074.99 435.05
  C 1066.08 436.09 1065.84 445.28 1066.86 452.12"
/>
<path stroke="#5aa190" vector-effect="non-scaling-stroke" d="
  M 525.13 404.13
  C 520.44 405.24 515.16 406.25 513.04 410.65
  Q 509.36 418.28 506.98 425.24
  C 497.63 452.50 490.26 481.12 484.95 509.81
  Q 482.27 524.28 482.08 535.74
  Q 482.06 537.05 483.46 538.40
  C 487.14 541.93 510.68 540.88 516.25 540.35
  Q 516.76 540.30 517.12 539.95
  Q 518.61 538.48 519.27 537.28
  Q 523.21 530.06 528.10 519.53
  C 530.22 514.99 533.38 511.86 538.27 511.80
  Q 545.89 511.69 553.61 511.73
  C 560.00 511.76 562.97 514.52 565.32 520.22
  Q 569.24 529.73 570.88 534.81
  C 572.27 539.14 574.42 540.83 579.19 540.77
  Q 595.97 540.57 612.56 537.86
  Q 619.14 536.79 617.34 529.99
  Q 604.72 482.54 588.70 440.25
  Q 583.98 427.79 578.15 415.82
  C 575.31 409.98 571.66 403.40 564.57 402.29
  Q 545.53 399.29 525.13 404.13"
/>
<path stroke="#5aa190" vector-effect="non-scaling-stroke" d="
  M 389.94 459.48
  C 388.86 465.96 387.79 487.30 397.74 488.45
  C 408.42 489.69 421.56 485.80 422.30 473.27
  C 423.08 460.17 409.10 451.47 397.49 452.50
  Q 391.01 453.08 389.94 459.48"
/>
<path stroke="#5aa190" vector-effect="non-scaling-stroke" d="
  M 946.45 454.52
  C 942.51 459.24 939.90 465.95 938.40 471.69
  C 937.26 476.04 937.76 480.35 942.49 481.73
  C 948.29 483.43 969.56 484.43 965.81 472.03
  C 964.19 466.64 954.18 445.29 946.45 454.52"
/>
<path stroke="#5aa190" vector-effect="non-scaling-stroke" d="
  M 536.70 482.58
  C 542.49 484.55 564.41 485.19 560.50 473.26
  C 559.10 468.96 550.94 451.24 544.03 453.39
  C 538.62 455.08 533.71 468.66 532.48 473.65
  Q 530.77 480.56 536.70 482.58"
/>
<path stroke="#b38c4f" vector-effect="non-scaling-stroke" d="
  M 1090.18 453.17
  C 1093.96 446.23 1088.37 439.65 1081.23 439.35
  C 1077.16 439.19 1071.81 438.46 1071.08 443.78
  C 1070.50 447.99 1070.98 461.29 1077.73 460.95
  Q 1086.17 460.53 1090.18 453.17"
/>
<path stroke="#b38c4f" vector-effect="non-scaling-stroke" d="
  M 950.15 456.86
  C 945.75 462.22 943.50 469.30 941.89 475.26
  A 1.09 1.08 -58.1 0 0 942.12 476.27
  C 945.11 479.73 959.80 479.01 961.95 475.17
  A 1.14 1.14 0.0 0 0 962.04 474.25
  Q 958.68 464.45 951.73 456.82
  A 1.04 1.04 0.0 0 0 950.15 456.86"
/>
<path stroke="#b38c4f" vector-effect="non-scaling-stroke" d="
  M 555.09 471.44
  C 553.62 468.22 548.81 458.66 545.37 457.67
  A 0.83 0.83 0.0 0 0 544.47 457.98
  Q 538.78 465.90 536.77 475.52
  C 535.50 481.63 550.93 479.13 553.74 478.27
  C 557.93 477.00 556.35 474.18 555.09 471.44"
/>
<path stroke="#5aa190" vector-effect="non-scaling-stroke" d="
  M 822.78 713.73
  Q 833.61 704.66 834.69 689.49
  C 835.79 673.88 831.75 655.82 819.33 645.40
  C 798.71 628.11 769.51 625.86 743.88 632.20
  Q 734.94 634.41 728.23 637.90
  A 1.17 1.17 0.0 0 0 727.64 638.67
  Q 726.20 645.01 726.15 649.00
  Q 725.38 704.20 732.17 758.98
  C 732.67 763.07 733.29 771.97 736.74 772.30
  Q 750.10 773.59 770.00 771.68
  Q 773.70 771.32 776.27 770.47
  C 781.97 768.57 778.65 760.50 780.68 756.65
  C 785.10 748.28 807.80 763.78 812.90 766.99
  C 816.38 769.17 824.47 773.60 828.13 769.89
  Q 839.08 758.75 846.57 745.04
  Q 847.53 743.30 847.64 741.36
  C 847.99 735.05 826.69 717.78 822.78 714.49
  Q 822.33 714.11 822.78 713.73"
/>
<path stroke="#5aa190" vector-effect="non-scaling-stroke" d="
  M 276.15 670.85
  C 277.37 672.87 276.49 675.74 280.24 675.53
  C 289.58 675.02 306.45 671.89 312.58 664.36
  C 314.13 662.47 313.88 660.90 313.15 658.75
  C 301.41 624.23 251.64 622.34 228.54 645.34
  Q 212.22 661.59 215.73 685.68
  C 217.68 699.12 227.40 709.03 239.64 713.65
  Q 242.70 714.81 255.04 717.10
  Q 263.24 718.62 271.28 720.88
  C 275.60 722.10 280.23 725.84 278.50 730.46
  C 276.49 735.83 268.39 736.72 263.79 734.96
  Q 259.62 733.37 258.53 728.48
  A 1.49 1.47 12.6 0 0 258.00 727.66
  Q 255.23 725.51 251.02 724.66
  Q 235.53 721.53 221.62 726.85
  C 216.76 728.72 213.27 732.22 214.70 737.73
  C 220.85 761.41 246.10 774.49 269.26 774.05
  Q 284.92 773.76 297.78 767.36
  C 317.08 757.75 329.23 736.77 321.76 715.46
  C 313.91 693.07 290.51 685.35 269.44 682.17
  Q 265.29 681.54 263.57 681.09
  C 243.86 675.96 269.07 659.16 276.15 670.85"
/>
<path stroke="#5aa190" vector-effect="non-scaling-stroke" d="
  M 717.69 745.19
  Q 707.18 707.77 693.29 671.45
  Q 689.19 660.75 684.36 650.35
  C 682.37 646.06 679.25 639.73 675.45 636.81
  Q 673.13 635.03 671.33 634.73
  Q 648.02 630.85 624.99 637.60
  C 621.68 638.57 619.50 639.69 617.91 643.00
  Q 613.82 651.47 610.86 660.41
  Q 596.65 703.25 589.09 747.76
  Q 586.74 761.59 587.16 767.26
  Q 587.46 771.33 591.49 771.83
  Q 605.81 773.61 620.22 772.51
  C 621.67 772.40 623.01 771.50 623.66 770.34
  Q 627.82 762.95 632.89 752.02
  C 635.22 746.99 637.94 744.15 643.39 743.88
  Q 648.03 743.64 657.97 743.78
  Q 662.52 743.85 664.81 745.25
  C 670.46 748.70 673.66 760.44 675.30 765.67
  Q 676.38 769.09 679.36 772.10
  Q 679.71 772.45 680.20 772.55
  Q 681.97 772.88 683.75 772.85
  Q 698.56 772.59 713.25 770.74
  C 716.87 770.28 723.34 769.31 722.77 764.99
  C 721.97 758.87 719.08 750.14 717.69 745.19"
/>
<path stroke="#5aa190" vector-effect="non-scaling-stroke" d="
  M 772.73 668.45
  C 764.13 670.60 765.45 683.48 767.44 689.80
  C 769.24 695.52 772.31 698.87 778.73 698.28
  C 786.27 697.58 793.35 692.05 794.79 684.49
  C 797.33 671.21 783.33 665.80 772.73 668.45"
/>
<path stroke="#5aa190" vector-effect="non-scaling-stroke" d="
  M 936.60 709.05
  C 938.35 703.03 929.39 689.97 925.69 686.31
  Q 922.94 683.59 919.81 684.83
  C 914.24 687.03 909.79 700.62 908.68 706.02
  C 907.73 710.70 910.13 713.42 914.64 714.43
  C 919.90 715.60 934.54 716.16 936.60 709.05"
/>
<path stroke="#5aa190" vector-effect="non-scaling-stroke" d="
  M 664.58 702.94
  C 662.19 697.73 656.69 686.41 651.23 685.36
  C 644.41 684.06 639.00 700.02 637.73 705.51
  C 636.32 711.54 638.79 714.31 644.62 715.38
  C 651.88 716.71 670.68 716.26 664.58 702.94"
/>
<path stroke="#b38c4f" vector-effect="non-scaling-stroke" d="
  M 787.45 674.87
  C 784.31 672.45 780.69 672.14 776.70 672.35
  C 769.66 672.74 769.92 677.75 770.52 683.32
  C 771.08 688.51 772.57 695.86 779.96 693.63
  Q 784.75 692.18 787.57 689.18
  C 791.43 685.08 792.34 678.66 787.45 674.87"
/>
<path stroke="#b38c4f" vector-effect="non-scaling-stroke" d="
  M 932.74 706.60
  C 930.57 700.40 927.00 694.20 922.60 689.38
  A 1.32 1.32 0.0 0 0 920.56 689.50
  Q 915.10 697.06 912.94 706.51
  C 912.53 708.30 912.80 709.51 914.76 710.01
  C 919.01 711.10 929.96 711.84 932.63 707.57
  Q 932.92 707.11 932.74 706.60"
/>
<path stroke="#b38c4f" vector-effect="non-scaling-stroke" d="
  M 649.33 690.38
  C 645.92 694.77 642.11 702.67 641.69 708.40
  A 2.27 2.27 0.0 0 0 643.47 710.78
  C 646.39 711.43 663.89 713.09 661.16 706.13
  Q 657.87 697.76 651.88 690.36
  A 1.63 1.63 0.0 0 0 649.33 690.38"
/>
<path stroke="#5aa190" vector-effect="non-scaling-stroke" d="
  M 744.12 866.04
  C 736.91 860.80 709.76 861.67 701.95 866.36
  Q 699.93 867.58 699.86 869.99
  Q 699.00 902.47 702.58 934.76
  Q 703.42 942.31 705.30 949.70
  C 705.98 952.38 707.04 953.70 709.73 954.17
  Q 722.84 956.47 736.01 954.26
  C 741.44 953.34 742.14 949.94 742.76 945.25
  Q 746.64 916.12 745.69 885.00
  Q 745.34 873.53 744.58 866.84
  A 1.18 1.17 -75.2 0 0 744.12 866.04"
/>
<path stroke="#5aa190" vector-effect="non-scaling-stroke" d="
  M 755.88 934.12
  Q 757.18 945.29 759.25 952.14
  A 1.17 1.16 -87.3 0 0 759.92 952.88
  C 767.56 956.04 777.71 955.58 785.75 954.58
  Q 790.38 954.00 792.90 953.05
  A 1.55 1.52 3.8 0 0 793.69 952.37
  Q 795.33 949.43 795.78 946.00
  C 799.24 920.05 800.25 892.79 797.90 866.68
  Q 797.85 866.11 797.35 865.81
  C 788.39 860.49 770.01 862.16 760.50 864.33
  C 755.94 865.36 753.08 866.46 753.00 871.00
  Q 752.38 904.27 755.88 934.12"
/>
<path stroke="#5aa190" vector-effect="non-scaling-stroke" d="
  M 730.92 965.82
  C 719.71 962.43 708.45 967.00 704.24 978.17
  C 700.12 989.12 706.77 1000.90 717.79 1004.11
  C 743.86 1011.69 755.00 973.10 730.92 965.82"
/>
</g>
<path fill="#6d5845" d="
  M 367.00 628.80
  L 249.99 578.50
  Q 248.88 578.02 250.01 577.58
  L 350.18 538.59
  Q 350.73 538.37 350.49 537.84
  Q 346.60 529.25 345.45 522.27
  Q 337.38 473.60 342.21 424.50
  Q 342.81 418.48 344.30 412.66
  C 346.42 404.40 350.10 400.41 358.25 398.59
  Q 381.55 393.37 404.58 397.08
  Q 405.86 397.29 405.08 396.25
  L 347.87 319.58
  Q 347.25 318.76 348.27 318.91
  L 586.65 355.53
  Q 587.12 355.60 587.06 355.13
  L 562.12 144.00
  A 0.25 0.25 0.0 0 1 562.52 143.78
  L 751.04 295.04
  A 0.31 0.30 31.5 0 0 751.51 294.93
  L 835.32 99.87
  Q 835.70 98.99 836.05 99.88
  L 923.53 324.71
  Q 923.72 325.19 924.13 324.88
  L 1094.20 197.87
  A 0.35 0.35 0.0 0 1 1094.75 198.21
  L 1065.15 391.01
  Q 1065.06 391.63 1065.68 391.61
  C 1092.30 390.69 1125.22 400.05 1135.46 427.57
  Q 1135.65 428.10 1136.22 428.04
  L 1269.28 412.33
  Q 1270.21 412.22 1269.63 412.95
  L 1118.64 601.17
  A 0.36 0.36 0.0 0 0 1118.78 601.72
  L 1189.22 632.00
  Q 1189.65 632.19 1190.10 632.03
  C 1210.85 624.54 1233.70 623.86 1253.68 633.60
  C 1267.62 640.40 1273.67 652.77 1274.34 668.05
  Q 1274.36 668.62 1274.88 668.84
  L 1313.94 685.63
  Q 1314.65 685.94 1313.93 686.22
  L 1280.53 699.19
  Q 1280.02 699.39 1280.28 699.87
  Q 1281.42 701.92 1281.56 703.24
  Q 1284.14 727.69 1283.34 752.25
  Q 1282.98 762.99 1281.31 769.52
  Q 1280.29 773.50 1275.49 774.21
  Q 1262.93 776.06 1249.00 775.09
  Q 1244.43 774.77 1240.84 773.20
  Q 1240.38 773.00 1239.90 773.11
  C 1207.91 780.13 1176.72 774.32 1154.80 748.82
  Q 1154.37 748.33 1153.76 748.56
  L 1136.27 755.36
  Q 1135.80 755.54 1135.79 756.04
  Q 1135.64 762.20 1134.55 768.16
  C 1133.98 771.26 1131.62 773.41 1128.77 774.01
  Q 1108.81 778.22 1088.99 773.80
  A 0.30 0.30 0.0 0 0 1088.69 774.27
  L 1215.96 944.77
  A 0.22 0.21 -13.6 0 1 1215.75 945.11
  L 977.04 908.42
  A 0.49 0.49 0.0 0 0 976.48 908.96
  L 1001.36 1119.78
  A 0.31 0.31 0.0 0 1 1000.86 1120.06
  L 812.35 968.83
  A 0.20 0.19 31.1 0 0 812.04 968.90
  L 728.09 1164.28
  Q 727.80 1164.95 727.53 1164.27
  L 639.98 939.28
  A 0.42 0.42 0.0 0 0 639.33 939.10
  L 469.23 1066.10
  A 0.32 0.31 -13.9 0 1 468.73 1065.80
  L 505.35 827.30
  Q 505.45 826.65 504.80 826.73
  L 294.49 851.59
  Q 293.32 851.73 294.06 850.81
  L 352.61 777.80
  A 0.51 0.51 0.0 0 0 352.22 776.97
  C 348.56 776.89 341.33 776.44 339.53 772.45
  Q 337.27 767.45 336.50 762.00
  Q 334.81 750.04 333.90 738.00
  Q 330.62 694.43 332.07 650.75
  Q 332.33 642.84 333.95 637.70
  C 335.95 631.37 340.81 631.43 347.67 630.62
  Q 357.24 629.48 366.91 629.24
  Q 367.95 629.21 367.00 628.80
  Z
  M 753.03 301.02
  A 0.31 0.31 0.0 0 1 752.55 301.14
  L 567.38 152.57
  A 0.26 0.26 0.0 0 0 566.96 152.80
  L 591.41 359.68
  A 0.33 0.33 0.0 0 1 591.03 360.04
  L 356.74 324.06
  A 0.35 0.35 0.0 0 0 356.41 324.61
  L 410.88 397.64
  Q 411.20 398.07 411.73 398.17
  C 450.23 405.51 472.46 440.44 471.46 478.24
  Q 471.45 478.79 471.77 479.22
  L 480.62 491.10
  A 0.60 0.60 0.0 0 1 480.35 492.03
  L 468.38 496.61
  Q 467.88 496.80 467.69 497.30
  C 459.55 519.21 446.45 532.26 424.32 539.40
  Q 398.41 547.76 369.25 544.68
  Q 359.40 543.64 353.64 541.55
  Q 353.30 541.43 352.97 541.56
  L 259.81 577.84
  Q 258.91 578.19 259.80 578.57
  Q 316.85 603.10 374.34 627.83
  Q 376.48 628.75 378.82 628.67
  Q 395.92 628.10 413.00 628.65
  Q 425.38 629.05 431.26 630.70
  Q 434.72 631.66 435.76 634.01
  C 438.15 639.42 437.93 648.17 438.10 654.59
  A 1.02 1.02 0.0 0 0 438.71 655.49
  L 447.29 659.20
  Q 447.85 659.44 447.85 658.83
  Q 447.84 650.47 448.50 642.13
  C 449.56 628.65 487.31 628.75 496.26 629.41
  Q 502.57 629.88 508.60 631.76
  Q 514.08 633.45 514.24 639.24
  Q 514.40 644.74 515.22 650.28
  Q 515.32 650.93 515.83 650.50
  C 520.83 646.20 539.79 631.13 546.27 633.87
  C 554.66 637.41 565.37 648.57 571.52 656.03
  C 576.24 661.75 579.11 665.29 574.46 672.74
  Q 572.46 675.92 570.09 678.85
  Q 559.32 692.16 547.45 704.39
  Q 546.97 704.89 547.59 705.20
  Q 561.05 712.10 574.13 720.35
  C 579.47 723.72 580.62 727.12 579.50 733.26
  Q 576.27 750.96 568.06 764.78
  Q 563.44 772.56 559.03 775.49
  C 554.19 778.70 549.98 777.09 544.52 774.68
  Q 527.89 767.34 511.94 758.96
  A 0.52 0.52 0.0 0 0 511.18 759.36
  C 510.73 763.48 509.67 771.94 505.27 774.05
  C 498.11 777.48 462.73 780.66 458.27 773.21
  Q 456.41 770.10 455.15 762.97
  Q 452.98 750.68 451.79 738.25
  Q 448.35 702.05 447.85 665.63
  A 0.18 0.18 0.0 0 0 447.53 665.52
  L 418.03 702.29
  Q 417.73 702.66 417.74 703.15
  C 417.88 708.32 418.79 719.23 412.26 720.58
  Q 409.66 721.11 402.96 721.71
  C 402.41 721.76 401.84 722.20 401.64 722.67
  Q 401.40 723.22 402.00 723.20
  Q 414.63 722.87 427.25 722.23
  Q 434.56 721.86 438.01 722.86
  C 443.62 724.50 443.85 730.01 444.67 734.95
  Q 447.21 750.44 445.36 766.00
  C 444.63 772.23 435.76 773.61 430.81 774.28
  Q 394.71 779.22 358.45 777.52
  A 1.42 1.42 0.0 0 0 357.29 778.04
  L 302.49 846.42
  A 0.24 0.24 0.0 0 0 302.71 846.81
  L 509.24 822.39
  A 0.54 0.54 0.0 0 1 509.84 823.00
  L 473.88 1057.17
  A 0.34 0.34 0.0 0 0 474.42 1057.49
  L 640.94 933.16
  A 0.54 0.54 0.0 0 1 641.77 933.40
  L 727.71 1154.25
  A 0.30 0.30 0.0 0 0 728.27 1154.26
  L 792.55 1004.65
  Q 792.84 1003.98 792.16 1004.26
  Q 791.45 1004.55 790.87 1005.10
  C 785.79 1009.91 775.24 1010.18 769.35 1008.16
  C 754.55 1003.10 747.63 987.32 754.75 973.49
  C 765.79 952.06 800.26 957.54 801.64 982.47
  A 0.21 0.21 0.0 0 0 802.04 982.54
  L 810.35 963.21
  A 0.55 0.54 -58.6 0 1 811.19 963.00
  L 995.83 1111.13
  Q 996.62 1111.76 996.50 1110.76
  L 972.15 904.50
  A 0.52 0.51 0.9 0 1 972.74 903.93
  L 1207.00 939.94
  A 0.29 0.29 0.0 0 0 1207.27 939.48
  L 1082.90 772.86
  A 0.64 0.63 -26.7 0 1 1083.23 771.87
  L 1084.96 771.38
  Q 1085.68 771.17 1085.14 770.65
  Q 1067.80 754.14 1052.78 735.51
  Q 1052.29 734.91 1052.24 735.67
  Q 1051.08 751.15 1048.86 766.52
  Q 1047.83 773.57 1041.30 774.84
  Q 1026.82 777.64 1011.31 775.47
  C 1004.78 774.56 1000.46 774.25 997.99 768.32
  Q 997.75 767.73 997.46 768.30
  Q 995.91 771.29 993.49 772.26
  Q 988.06 774.43 980.01 775.13
  Q 967.55 776.22 954.97 776.58
  Q 946.53 776.83 943.56 768.97
  Q 940.64 761.24 937.65 753.61
  C 935.68 748.61 933.63 747.29 928.05 747.36
  C 923.17 747.42 911.35 745.80 908.90 751.19
  Q 904.24 761.45 898.81 771.32
  C 896.13 776.18 891.95 776.57 886.72 776.54
  C 880.80 776.52 875.08 776.59 869.30 776.13
  C 860.54 775.45 853.47 775.03 853.95 764.52
  Q 854.36 755.76 856.17 745.14
  Q 862.96 705.42 874.91 666.95
  Q 879.11 653.41 884.97 640.49
  Q 886.89 636.27 889.97 634.74
  C 896.46 631.52 904.73 630.10 912.51 629.11
  Q 924.97 627.53 937.47 628.96
  C 944.61 629.78 949.89 631.54 953.65 637.36
  Q 958.46 644.79 962.59 654.81
  Q 981.73 701.31 994.83 749.76
  A 0.13 0.13 0.0 0 0 995.08 749.71
  Q 991.90 706.92 993.27 664.00
  Q 993.73 649.68 995.97 635.53
  C 997.81 623.92 1036.08 627.99 1044.00 629.60
  C 1057.35 632.31 1068.14 649.65 1075.94 660.09
  Q 1076.43 660.74 1076.40 659.93
  Q 1076.23 654.36 1075.78 644.25
  C 1075.54 639.10 1075.91 633.80 1081.35 631.33
  C 1094.55 625.31 1113.87 625.60 1127.76 628.69
  C 1131.54 629.52 1135.06 631.70 1135.50 635.92
  Q 1136.47 645.13 1136.72 652.00
  Q 1138.52 701.40 1136.28 750.48
  A 0.54 0.54 0.0 0 0 1137.01 751.01
  L 1151.41 745.41
  Q 1151.96 745.19 1151.62 744.71
  C 1136.92 723.81 1138.12 697.55 1146.82 674.48
  Q 1156.89 647.78 1184.14 634.61
  Q 1184.86 634.26 1184.12 633.94
  L 1112.76 603.26
  A 0.41 0.41 0.0 0 1 1112.60 602.63
  L 1260.86 417.80
  A 0.39 0.39 0.0 0 0 1260.50 417.17
  L 1137.49 431.69
  Q 1136.93 431.75 1137.07 432.29
  C 1141.44 448.48 1141.77 467.47 1129.76 480.54
  Q 1129.37 480.96 1129.81 481.32
  Q 1139.58 489.21 1147.81 498.64
  C 1151.67 503.06 1154.07 507.35 1151.48 512.71
  Q 1144.64 526.88 1132.24 539.40
  C 1130.01 541.65 1128.02 542.88 1124.98 542.64
  C 1119.62 542.20 1115.48 540.29 1110.44 537.17
  C 1101.60 531.69 1094.74 527.03 1086.14 525.19
  A 1.02 1.02 0.0 0 0 1084.90 526.19
  C 1084.87 533.08 1084.57 541.06 1075.99 542.25
  Q 1058.70 544.64 1039.25 543.62
  C 1032.65 543.27 1030.95 540.79 1029.60 534.46
  Q 1028.53 529.42 1028.32 527.67
  Q 1022.15 476.47 1022.24 422.50
  C 1022.25 417.33 1022.02 403.38 1026.71 400.99
  C 1037.46 395.50 1048.75 393.27 1060.66 391.87
  Q 1061.20 391.80 1061.29 391.26
  L 1089.61 206.73
  A 0.31 0.31 0.0 0 0 1089.11 206.43
  L 922.26 331.01
  Q 922.01 331.20 921.89 330.91
  L 835.79 109.62
  A 0.28 0.28 0.0 0 0 835.27 109.60
  L 753.03 301.02
  Z
  M 1080.65 526.11
  C 1080.77 518.73 1089.47 521.04 1093.48 522.83
  Q 1103.65 527.37 1112.97 533.50
  Q 1117.29 536.34 1122.22 537.95
  Q 1126.53 539.35 1129.63 535.89
  C 1137.07 527.59 1143.83 519.38 1147.78 509.86
  C 1149.21 506.41 1145.55 502.48 1143.61 500.39
  Q 1134.00 490.09 1123.19 481.42
  A 0.65 0.65 0.0 0 1 1123.21 480.40
  C 1138.11 469.17 1137.44 446.49 1131.94 430.34
  Q 1127.64 417.74 1116.66 409.86
  C 1091.72 391.96 1057.72 392.43 1030.45 403.85
  Q 1027.89 404.93 1027.55 407.99
  Q 1026.58 416.70 1026.56 421.75
  Q 1026.34 474.06 1032.57 526.00
  C 1032.97 529.34 1033.39 538.99 1037.99 539.27
  Q 1055.03 540.31 1073.26 538.35
  Q 1076.42 538.01 1079.01 536.17
  Q 1079.42 535.87 1079.54 535.36
  Q 1080.58 530.76 1080.65 526.11
  Z
  M 364.04 539.69
  Q 395.88 544.93 425.70 534.26
  C 439.48 529.33 449.91 521.58 457.19 509.43
  Q 471.11 486.17 465.89 460.25
  C 459.94 430.72 439.79 407.16 409.25 401.93
  Q 389.71 398.58 370.00 400.72
  C 365.14 401.24 353.19 403.27 350.56 407.85
  C 348.80 410.91 347.41 416.98 346.94 421.18
  Q 341.31 471.20 349.64 520.83
  C 350.42 525.46 351.76 529.63 353.44 533.83
  C 355.40 538.71 358.63 538.80 364.04 539.69
  Z
  M 470.00 492.00
  L 474.41 490.19
  A 0.48 0.48 0.0 0 0 474.62 489.47
  L 471.32 484.90
  Q 470.92 484.35 470.79 485.01
  L 469.45 491.55
  Q 469.30 492.29 470.00 492.00
  Z
  M 1149.05 681.35
  C 1143.21 699.73 1142.40 721.77 1152.30 737.94
  C 1171.41 769.17 1208.46 777.15 1242.10 768.04
  A 0.77 0.77 0.0 0 1 1242.88 768.29
  L 1244.35 770.08
  A 0.46 0.46 0.0 0 0 1244.66 770.25
  Q 1258.06 772.06 1273.25 770.26
  Q 1275.12 770.04 1276.36 769.41
  A 1.18 1.15 -6.6 0 0 1276.97 768.66
  Q 1278.12 764.22 1278.27 762.25
  Q 1280.56 732.81 1277.21 703.44
  Q 1277.15 702.96 1276.80 702.63
  Q 1275.09 701.04 1273.26 700.70
  Q 1254.05 697.13 1235.22 704.39
  Q 1234.41 704.70 1232.98 706.13
  Q 1232.62 706.49 1232.56 707.00
  Q 1231.88 712.63 1230.86 718.21
  C 1229.36 726.51 1220.27 726.04 1214.05 724.98
  C 1202.31 722.98 1193.34 713.83 1192.80 701.91
  C 1191.96 683.21 1208.62 673.45 1225.18 674.10
  C 1228.85 674.25 1231.14 675.36 1230.80 679.41
  A 0.68 0.67 -83.1 0 0 1231.36 680.13
  C 1238.09 681.27 1270.07 678.66 1270.10 670.02
  C 1270.14 658.10 1265.92 646.15 1255.26 639.43
  C 1239.08 629.23 1216.85 628.79 1198.52 633.87
  C 1174.47 640.54 1156.72 657.19 1149.05 681.35
  Z
  M 1080.62 674.20
  Q 1070.52 659.57 1057.33 643.43
  C 1049.42 633.75 1040.87 632.67 1027.96 631.92
  C 1021.92 631.56 1005.26 631.50 1000.46 635.46
  A 1.27 1.25 -16.8 0 0 1000.02 636.27
  Q 998.37 648.43 997.90 658.75
  Q 996.26 694.87 998.15 732.76
  Q 998.96 748.85 1001.54 764.75
  C 1001.93 767.19 1002.71 769.09 1005.32 769.89
  Q 1009.00 771.01 1013.50 771.41
  C 1022.95 772.25 1033.81 772.89 1042.43 769.83
  A 1.23 1.23 0.0 0 0 1043.13 769.20
  Q 1044.52 766.24 1044.80 764.26
  Q 1047.08 748.20 1048.86 724.33
  Q 1048.91 723.69 1049.30 724.20
  Q 1062.12 740.76 1078.88 758.37
  Q 1084.25 764.01 1089.08 767.95
  C 1092.07 770.40 1094.52 770.72 1098.25 771.11
  Q 1113.13 772.67 1126.51 770.12
  Q 1128.17 769.80 1129.84 768.59
  A 1.17 1.16 76.5 0 0 1130.32 767.80
  C 1130.70 765.23 1131.22 762.49 1131.37 759.91
  Q 1134.33 709.25 1132.58 658.50
  Q 1132.19 647.16 1131.23 635.70
  A 1.17 1.17 0.0 0 0 1130.70 634.82
  Q 1127.59 632.81 1122.75 632.10
  Q 1103.14 629.19 1085.70 634.03
  Q 1079.67 635.70 1080.05 642.23
  Q 1080.85 655.68 1081.11 674.04
  Q 1081.12 674.92 1080.62 674.20
  Z
  M 987.20 738.69
  Q 975.12 696.46 958.38 655.84
  Q 956.83 652.08 951.51 642.25
  Q 947.14 634.19 938.52 633.23
  Q 920.60 631.24 903.01 635.14
  C 897.06 636.46 891.20 637.31 888.58 643.10
  Q 885.09 650.82 882.40 658.84
  Q 867.74 702.55 860.17 748.02
  C 859.34 752.97 857.00 766.33 859.23 769.35
  C 862.20 773.37 887.94 772.14 892.32 771.82
  A 1.50 1.47 20.6 0 0 893.23 771.42
  Q 894.91 769.81 896.00 767.71
  Q 900.19 759.56 904.10 751.24
  C 906.70 745.70 909.85 743.08 915.89 743.07
  Q 922.01 743.05 928.16 743.05
  C 934.17 743.06 937.92 744.16 940.49 749.52
  Q 944.03 756.91 946.35 764.78
  C 947.03 767.09 949.67 772.16 952.99 772.16
  Q 969.35 772.16 985.50 769.80
  C 990.39 769.08 994.87 768.54 993.73 762.53
  C 992.35 755.24 988.83 744.41 987.20 738.69
  Z
  M 390.45 684.59
  L 390.25 676.16
  Q 390.24 675.60 390.79 675.58
  Q 404.15 675.07 417.50 674.43
  C 420.23 674.31 431.85 673.66 432.46 670.37
  Q 435.22 655.34 432.61 638.40
  C 432.24 636.03 431.03 634.89 428.75 634.58
  Q 415.94 632.81 403.00 632.65
  Q 374.44 632.32 346.02 635.20
  C 343.16 635.49 339.47 635.26 338.36 638.57
  Q 336.90 642.92 336.70 647.51
  Q 334.83 690.66 337.80 733.76
  Q 338.82 748.58 341.14 763.25
  Q 341.73 766.99 343.22 770.47
  Q 343.42 770.93 343.88 771.13
  Q 346.07 772.04 346.87 772.14
  C 370.12 775.00 394.73 773.78 418.00 771.56
  C 424.79 770.91 434.12 770.21 440.25 767.13
  Q 440.72 766.89 440.83 766.37
  C 442.89 756.20 441.68 743.11 440.13 733.56
  Q 439.58 730.23 438.48 727.99
  A 1.18 1.15 83.5 0 0 437.72 727.37
  Q 433.20 726.19 429.49 726.41
  Q 411.01 727.51 392.47 727.65
  Q 392.00 727.65 392.00 727.19
  L 392.00 718.32
  Q 392.01 717.83 392.49 717.81
  C 398.73 717.59 405.73 717.65 411.80 716.11
  A 0.98 0.98 0.0 0 0 412.50 715.46
  C 415.24 707.20 412.77 694.69 409.73 687.05
  A 0.90 0.90 0.0 0 0 409.03 686.49
  Q 400.07 685.06 390.99 685.12
  A 0.54 0.53 88.9 0 1 390.45 684.59
  Z
  M 511.10 659.17
  Q 510.88 649.07 509.79 638.78
  C 509.61 637.07 508.74 636.48 507.24 636.02
  C 493.04 631.63 473.93 633.20 459.25 637.27
  Q 455.48 638.32 453.05 641.15
  A 1.64 1.58 67.6 0 0 452.67 642.11
  Q 451.94 655.63 452.40 673.50
  C 453.22 705.03 454.57 733.52 459.44 763.02
  Q 459.88 765.71 461.84 770.65
  A 1.19 1.19 0.0 0 0 462.54 771.32
  Q 467.07 772.90 473.26 773.14
  Q 488.46 773.73 500.98 771.01
  Q 504.35 770.27 505.18 767.00
  Q 507.01 759.76 507.78 752.51
  A 0.44 0.44 0.0 0 1 508.43 752.17
  Q 527.00 762.06 545.58 770.45
  Q 549.02 772.00 553.56 773.08
  A 1.44 1.38 -50.9 0 0 554.53 772.96
  Q 558.06 771.18 560.62 767.60
  C 568.19 757.01 575.52 741.57 575.37 728.55
  Q 575.34 726.39 574.30 725.71
  Q 558.10 715.17 540.41 706.44
  A 0.59 0.59 0.0 0 1 540.25 705.50
  Q 550.02 695.61 559.37 685.10
  Q 566.26 677.35 571.35 669.54
  C 574.03 665.44 571.33 662.62 568.76 659.53
  Q 559.06 647.90 547.50 639.50
  Q 546.04 638.44 543.79 637.92
  A 1.63 1.60 -49.3 0 0 542.83 638.00
  C 531.75 642.45 520.72 651.63 511.80 659.48
  A 0.42 0.42 0.0 0 1 511.10 659.17
  Z
  M 436.37 673.02
  A 0.11 0.11 0.0 0 0 436.56 673.10
  L 444.75 662.88
  A 0.51 0.50 30.8 0 0 444.55 662.10
  L 438.78 659.63
  A 0.44 0.44 0.0 0 0 438.17 659.97
  L 436.37 673.02
  Z
  M 1198.03 694.49
  C 1194.17 705.12 1201.36 717.56 1212.65 720.28
  Q 1214.57 720.74 1216.64 719.98
  Q 1221.45 718.20 1226.32 716.24
  Q 1226.81 716.04 1226.92 715.52
  Q 1227.74 711.49 1228.16 707.37
  C 1228.77 701.43 1235.15 699.34 1240.22 697.97
  Q 1257.77 693.23 1275.61 696.79
  Q 1276.09 696.88 1276.53 696.71
  L 1304.02 686.01
  A 0.29 0.29 0.0 0 0 1304.03 685.48
  L 1274.72 672.93
  Q 1274.21 672.71 1273.97 673.21
  C 1270.19 680.98 1252.84 683.74 1244.98 684.36
  C 1240.32 684.73 1226.29 686.95 1226.53 679.20
  Q 1226.54 678.74 1226.08 678.69
  C 1213.77 677.23 1202.31 682.69 1198.03 694.49
  Z
  M 395.25 680.79
  C 399.00 681.02 411.35 681.02 413.24 684.55
  Q 415.78 689.31 416.84 696.78
  Q 416.95 697.53 417.42 696.94
  L 435.04 675.02
  A 0.09 0.09 0.0 0 0 434.92 674.89
  Q 431.22 677.23 426.74 677.69
  Q 410.65 679.35 394.72 679.65
  A 0.45 0.45 0.0 0 0 394.42 680.42
  Q 394.75 680.75 395.25 680.79
  Z
  M 796.7709 978.9144
  A 20.63 20.27 -16.2 0 0 771.3049 965.2048
  A 20.63 20.27 -16.2 0 0 757.1491 990.4256
  A 20.63 20.27 -16.2 0 0 782.6151 1004.1352
  A 20.63 20.27 -16.2 0 0 796.7709 978.9144
  Z"
/>
<path fill="#f8c059" d="
  M 753.03 301.02
  L 835.27 109.60
  A 0.28 0.28 0.0 0 1 835.79 109.62
  L 921.89 330.91
  Q 922.01 331.20 922.26 331.01
  L 1089.11 206.43
  A 0.31 0.31 0.0 0 1 1089.61 206.73
  L 1061.29 391.26
  Q 1061.20 391.80 1060.66 391.87
  C 1048.75 393.27 1037.46 395.50 1026.71 400.99
  C 1022.02 403.38 1022.25 417.33 1022.24 422.50
  Q 1022.15 476.47 1028.32 527.67
  Q 1028.53 529.42 1029.60 534.46
  C 1030.95 540.79 1032.65 543.27 1039.25 543.62
  Q 1058.70 544.64 1075.99 542.25
  C 1084.57 541.06 1084.87 533.08 1084.90 526.19
  A 1.02 1.02 0.0 0 1 1086.14 525.19
  C 1094.74 527.03 1101.60 531.69 1110.44 537.17
  C 1115.48 540.29 1119.62 542.20 1124.98 542.64
  C 1128.02 542.88 1130.01 541.65 1132.24 539.40
  Q 1144.64 526.88 1151.48 512.71
  C 1154.07 507.35 1151.67 503.06 1147.81 498.64
  Q 1139.58 489.21 1129.81 481.32
  Q 1129.37 480.96 1129.76 480.54
  C 1141.77 467.47 1141.44 448.48 1137.07 432.29
  Q 1136.93 431.75 1137.49 431.69
  L 1260.50 417.17
  A 0.39 0.39 0.0 0 1 1260.86 417.80
  L 1112.60 602.63
  A 0.41 0.41 0.0 0 0 1112.76 603.26
  L 1184.12 633.94
  Q 1184.86 634.26 1184.14 634.61
  Q 1156.89 647.78 1146.82 674.48
  C 1138.12 697.55 1136.92 723.81 1151.62 744.71
  Q 1151.96 745.19 1151.41 745.41
  L 1137.01 751.01
  A 0.54 0.54 0.0 0 1 1136.28 750.48
  Q 1138.52 701.40 1136.72 652.00
  Q 1136.47 645.13 1135.50 635.92
  C 1135.06 631.70 1131.54 629.52 1127.76 628.69
  C 1113.87 625.60 1094.55 625.31 1081.35 631.33
  C 1075.91 633.80 1075.54 639.10 1075.78 644.25
  Q 1076.23 654.36 1076.40 659.93
  Q 1076.43 660.74 1075.94 660.09
  C 1068.14 649.65 1057.35 632.31 1044.00 629.60
  C 1036.08 627.99 997.81 623.92 995.97 635.53
  Q 993.73 649.68 993.27 664.00
  Q 991.90 706.92 995.08 749.71
  A 0.13 0.13 0.0 0 1 994.83 749.76
  Q 981.73 701.31 962.59 654.81
  Q 958.46 644.79 953.65 637.36
  C 949.89 631.54 944.61 629.78 937.47 628.96
  Q 924.97 627.53 912.51 629.11
  C 904.73 630.10 896.46 631.52 889.97 634.74
  Q 886.89 636.27 884.97 640.49
  Q 879.11 653.41 874.91 666.95
  Q 862.96 705.42 856.17 745.14
  Q 854.36 755.76 853.95 764.52
  C 853.47 775.03 860.54 775.45 869.30 776.13
  C 875.08 776.59 880.80 776.52 886.72 776.54
  C 891.95 776.57 896.13 776.18 898.81 771.32
  Q 904.24 761.45 908.90 751.19
  C 911.35 745.80 923.17 747.42 928.05 747.36
  C 933.63 747.29 935.68 748.61 937.65 753.61
  Q 940.64 761.24 943.56 768.97
  Q 946.53 776.83 954.97 776.58
  Q 967.55 776.22 980.01 775.13
  Q 988.06 774.43 993.49 772.26
  Q 995.91 771.29 997.46 768.30
  Q 997.75 767.73 997.99 768.32
  C 1000.46 774.25 1004.78 774.56 1011.31 775.47
  Q 1026.82 777.64 1041.30 774.84
  Q 1047.83 773.57 1048.86 766.52
  Q 1051.08 751.15 1052.24 735.67
  Q 1052.29 734.91 1052.78 735.51
  Q 1067.80 754.14 1085.14 770.65
  Q 1085.68 771.17 1084.96 771.38
  L 1083.23 771.87
  A 0.64 0.63 -26.7 0 0 1082.90 772.86
  L 1207.27 939.48
  A 0.29 0.29 0.0 0 1 1207.00 939.94
  L 972.74 903.93
  A 0.52 0.51 0.9 0 0 972.15 904.50
  L 996.50 1110.76
  Q 996.62 1111.76 995.83 1111.13
  L 811.19 963.00
  A 0.55 0.54 -58.6 0 0 810.35 963.21
  L 802.04 982.54
  A 0.21 0.21 0.0 0 1 801.64 982.47
  C 800.26 957.54 765.79 952.06 754.75 973.49
  C 747.63 987.32 754.55 1003.10 769.35 1008.16
  C 775.24 1010.18 785.79 1009.91 790.87 1005.10
  Q 791.45 1004.55 792.16 1004.26
  Q 792.84 1003.98 792.55 1004.65
  L 728.27 1154.26
  A 0.30 0.30 0.0 0 1 727.71 1154.25
  L 641.77 933.40
  A 0.54 0.54 0.0 0 0 640.94 933.16
  L 474.42 1057.49
  A 0.34 0.34 0.0 0 1 473.88 1057.17
  L 509.84 823.00
  A 0.54 0.54 0.0 0 0 509.24 822.39
  L 302.71 846.81
  A 0.24 0.24 0.0 0 1 302.49 846.42
  L 357.29 778.04
  A 1.42 1.42 0.0 0 1 358.45 777.52
  Q 394.71 779.22 430.81 774.28
  C 435.76 773.61 444.63 772.23 445.36 766.00
  Q 447.21 750.44 444.67 734.95
  C 443.85 730.01 443.62 724.50 438.01 722.86
  Q 434.56 721.86 427.25 722.23
  Q 414.63 722.87 402.00 723.20
  Q 401.40 723.22 401.64 722.67
  C 401.84 722.20 402.41 721.76 402.96 721.71
  Q 409.66 721.11 412.26 720.58
  C 418.79 719.23 417.88 708.32 417.74 703.15
  Q 417.73 702.66 418.03 702.29
  L 447.53 665.52
  A 0.18 0.18 0.0 0 1 447.85 665.63
  Q 448.35 702.05 451.79 738.25
  Q 452.98 750.68 455.15 762.97
  Q 456.41 770.10 458.27 773.21
  C 462.73 780.66 498.11 777.48 505.27 774.05
  C 509.67 771.94 510.73 763.48 511.18 759.36
  A 0.52 0.52 0.0 0 1 511.94 758.96
  Q 527.89 767.34 544.52 774.68
  C 549.98 777.09 554.19 778.70 559.03 775.49
  Q 563.44 772.56 568.06 764.78
  Q 576.27 750.96 579.50 733.26
  C 580.62 727.12 579.47 723.72 574.13 720.35
  Q 561.05 712.10 547.59 705.20
  Q 546.97 704.89 547.45 704.39
  Q 559.32 692.16 570.09 678.85
  Q 572.46 675.92 574.46 672.74
  C 579.11 665.29 576.24 661.75 571.52 656.03
  C 565.37 648.57 554.66 637.41 546.27 633.87
  C 539.79 631.13 520.83 646.20 515.83 650.50
  Q 515.32 650.93 515.22 650.28
  Q 514.40 644.74 514.24 639.24
  Q 514.08 633.45 508.60 631.76
  Q 502.57 629.88 496.26 629.41
  C 487.31 628.75 449.56 628.65 448.50 642.13
  Q 447.84 650.47 447.85 658.83
  Q 447.85 659.44 447.29 659.20
  L 438.71 655.49
  A 1.02 1.02 0.0 0 1 438.10 654.59
  C 437.93 648.17 438.15 639.42 435.76 634.01
  Q 434.72 631.66 431.26 630.70
  Q 425.38 629.05 413.00 628.65
  Q 395.92 628.10 378.82 628.67
  Q 376.48 628.75 374.34 627.83
  Q 316.85 603.10 259.80 578.57
  Q 258.91 578.19 259.81 577.84
  L 352.97 541.56
  Q 353.30 541.43 353.64 541.55
  Q 359.40 543.64 369.25 544.68
  Q 398.41 547.76 424.32 539.40
  C 446.45 532.26 459.55 519.21 467.69 497.30
  Q 467.88 496.80 468.38 496.61
  L 480.35 492.03
  A 0.60 0.60 0.0 0 0 480.62 491.10
  L 471.77 479.22
  Q 471.45 478.79 471.46 478.24
  C 472.46 440.44 450.23 405.51 411.73 398.17
  Q 411.20 398.07 410.88 397.64
  L 356.41 324.61
  A 0.35 0.35 0.0 0 1 356.74 324.06
  L 591.03 360.04
  A 0.33 0.33 0.0 0 0 591.41 359.68
  L 566.96 152.80
  A 0.26 0.26 0.0 0 1 567.38 152.57
  L 752.55 301.14
  A 0.31 0.31 0.0 0 0 753.03 301.02
  Z
  M 841.26 460.02
  Q 854.03 459.62 866.74 458.30
  C 870.43 457.91 872.51 456.51 874.08 453.34
  C 880.51 440.35 881.13 421.98 878.47 408.00
  C 877.40 402.37 874.62 396.68 868.50 396.40
  Q 828.01 394.56 787.50 395.81
  Q 766.81 396.45 746.25 398.78
  C 742.01 399.26 734.15 400.52 733.52 405.98
  Q 730.80 429.60 736.62 452.57
  C 738.24 458.95 745.84 459.53 751.49 460.06
  Q 761.98 461.03 772.37 461.22
  A 0.67 0.67 0.0 0 1 773.03 461.85
  Q 774.24 482.30 776.37 502.76
  Q 777.88 517.24 780.86 531.47
  C 781.96 536.70 783.31 541.79 788.14 542.76
  Q 805.04 546.18 823.54 543.49
  Q 829.99 542.55 832.28 540.77
  C 836.70 537.35 837.48 526.40 837.92 520.69
  Q 840.23 490.71 840.67 460.62
  Q 840.68 460.04 841.26 460.02
  Z
  M 683.57 513.53
  Q 693.71 513.71 703.75 512.46
  C 711.36 511.52 715.44 511.54 717.64 503.97
  Q 721.80 489.67 721.25 477.11
  C 721.08 473.17 719.74 464.83 715.97 463.51
  Q 712.73 462.38 705.50 461.85
  Q 695.13 461.09 684.70 460.80
  A 0.54 0.54 0.0 0 1 684.17 460.27
  L 684.15 456.59
  A 0.69 0.69 0.0 0 1 684.87 455.90
  Q 701.87 456.71 719.00 455.39
  Q 722.66 455.11 724.39 452.13
  C 730.68 441.32 733.04 416.86 729.54 405.06
  C 726.88 396.10 719.66 397.23 709.98 396.56
  Q 678.87 394.39 647.76 396.79
  Q 637.76 397.56 626.71 400.15
  C 621.84 401.29 617.35 404.27 617.01 409.64
  Q 616.36 419.75 616.65 428.25
  Q 618.17 473.46 625.75 519.76
  Q 627.15 528.37 629.57 536.75
  C 630.26 539.17 631.15 541.14 633.68 542.16
  C 641.35 545.25 675.15 547.60 679.09 538.78
  C 682.05 532.14 682.36 521.76 682.97 514.07
  Q 683.02 513.52 683.57 513.53
  Z
  M 1012.17 542.10
  C 1019.96 541.09 1029.90 540.01 1027.11 529.02
  Q 1013.99 477.44 994.31 427.98
  Q 990.50 418.41 985.60 409.36
  C 981.74 402.21 977.67 398.11 970.76 397.02
  Q 951.44 393.96 930.96 398.38
  C 925.50 399.56 917.75 401.84 915.39 406.18
  Q 911.63 413.11 908.36 422.67
  Q 892.41 469.38 884.62 518.10
  Q 883.87 522.75 883.62 526.90
  C 883.11 535.44 882.46 541.73 892.48 543.06
  Q 906.16 544.88 919.96 543.82
  C 924.08 543.51 926.59 542.17 928.45 538.65
  Q 933.12 529.81 937.35 520.72
  C 939.09 516.98 940.90 515.10 945.01 515.03
  Q 952.38 514.92 959.75 514.83
  C 971.49 514.68 967.67 543.97 982.97 544.16
  Q 994.96 544.31 1012.17 542.10
  Z
  M 479.16 519.63
  Q 477.38 531.04 477.87 535.52
  Q 478.71 543.22 486.64 544.10
  Q 501.03 545.71 513.93 544.88
  C 518.23 544.60 520.90 543.52 522.87 539.81
  Q 527.78 530.57 532.21 521.05
  C 534.07 517.07 536.08 516.19 540.26 516.12
  Q 547.75 516.00 555.25 516.19
  Q 557.98 516.26 559.40 518.59
  C 562.90 524.37 564.60 530.74 567.18 536.99
  C 569.79 543.31 572.43 545.08 579.52 545.04
  Q 595.22 544.95 610.75 542.55
  C 618.33 541.37 623.93 538.35 621.76 529.74
  Q 611.82 490.31 595.49 445.73
  Q 589.83 430.25 582.81 415.35
  C 580.12 409.64 575.63 401.21 569.27 399.19
  Q 561.36 396.68 551.50 396.66
  C 543.36 396.64 515.29 398.83 510.49 406.20
  Q 507.74 410.42 504.22 420.38
  Q 487.06 468.84 479.16 519.63
  Z
  M 785.02 758.50
  C 790.79 758.35 799.07 763.63 803.83 766.74
  C 808.97 770.09 824.19 779.58 830.01 774.25
  C 835.40 769.33 855.05 746.82 851.56 738.22
  Q 849.93 734.20 846.09 730.15
  Q 838.19 721.83 829.35 714.40
  Q 828.93 714.04 829.30 713.62
  Q 836.74 705.53 838.42 695.26
  C 841.10 678.84 837.43 657.20 825.30 644.95
  C 811.97 631.50 791.19 624.89 771.74 624.59
  C 757.19 624.37 740.40 626.88 727.29 633.56
  C 723.77 635.35 723.04 637.65 722.62 641.31
  Q 721.61 650.19 721.61 656.50
  Q 721.63 709.45 728.13 761.99
  C 728.95 768.64 729.99 776.17 736.74 776.63
  Q 752.98 777.75 772.26 775.89
  C 783.84 774.78 784.06 768.76 784.44 759.08
  A 0.60 0.60 0.0 0 1 785.02 758.50
  Z
  M 687.44 777.16
  C 697.45 776.59 707.34 776.05 717.25 774.51
  C 726.95 773.00 728.36 766.97 726.06 758.48
  Q 714.55 715.88 699.23 674.50
  Q 691.55 653.77 685.92 643.62
  C 682.56 637.57 679.26 632.77 673.51 631.03
  Q 667.50 629.22 660.39 628.95
  Q 642.90 628.28 626.01 632.79
  C 619.38 634.55 616.01 636.29 613.43 642.20
  Q 609.17 651.94 607.35 657.32
  Q 594.44 695.59 586.72 735.23
  Q 584.04 749.01 582.94 762.99
  C 582.15 773.03 585.78 776.04 595.50 776.76
  C 600.91 777.16 622.00 778.63 625.51 775.01
  Q 628.21 772.20 631.34 765.55
  Q 634.39 759.04 637.50 752.53
  C 638.60 750.22 640.30 748.57 642.75 748.35
  Q 649.59 747.74 660.03 748.19
  C 662.14 748.28 663.79 749.28 664.76 751.01
  Q 668.37 757.52 671.05 766.06
  C 674.10 775.80 677.80 777.71 687.44 777.16
  Z
  M 749.75 917.11
  Q 751.10 932.14 752.75 943.75
  C 753.21 947.00 754.42 953.46 756.98 955.91
  C 762.09 960.77 780.16 959.94 787.51 958.78
  C 793.09 957.90 797.78 957.02 799.14 950.74
  Q 801.31 940.73 802.12 930.51
  Q 804.64 898.95 802.27 867.36
  C 801.69 859.58 790.95 859.02 785.15 858.45
  C 776.07 857.55 755.00 857.50 749.23 866.29
  Q 749.00 866.65 748.89 866.24
  Q 747.68 861.78 743.29 860.62
  Q 722.97 855.22 702.51 861.42
  C 697.59 862.91 695.63 866.00 695.49 871.25
  Q 694.61 905.25 698.77 939.01
  Q 699.61 945.83 701.53 952.41
  C 703.26 958.35 711.68 959.44 716.99 959.71
  Q 726.93 960.21 736.80 958.76
  Q 745.00 957.56 746.36 949.52
  Q 748.95 934.20 749.54 917.12
  Q 749.60 915.47 749.75 917.11
  Z
  M 707.00 966.76
  C 688.60 982.96 702.71 1011.00 726.12 1009.41
  C 745.73 1008.08 755.75 982.88 742.79 968.37
  Q 739.03 964.17 732.55 961.88
  Q 718.26 956.84 707.00 966.76
  Z"
/>
<path fill="#6d5845" d="
  M 840.67 460.62
  Q 840.23 490.71 837.92 520.69
  C 837.48 526.40 836.70 537.35 832.28 540.77
  Q 829.99 542.55 823.54 543.49
  Q 805.04 546.18 788.14 542.76
  C 783.31 541.79 781.96 536.70 780.86 531.47
  Q 777.88 517.24 776.37 502.76
  Q 774.24 482.30 773.03 461.85
  A 0.67 0.67 0.0 0 0 772.37 461.22
  Q 761.98 461.03 751.49 460.06
  C 745.84 459.53 738.24 458.95 736.62 452.57
  Q 730.80 429.60 733.52 405.98
  C 734.15 400.52 742.01 399.26 746.25 398.78
  Q 766.81 396.45 787.50 395.81
  Q 828.01 394.56 868.50 396.40
  C 874.62 396.68 877.40 402.37 878.47 408.00
  C 881.13 421.98 880.51 440.35 874.08 453.34
  C 872.51 456.51 870.43 457.91 866.74 458.30
  Q 854.03 459.62 841.26 460.02
  Q 840.68 460.04 840.67 460.62
  Z
  M 776.98 457.55
  Q 779.01 488.11 782.83 518.49
  Q 783.90 527.00 786.39 535.25
  Q 787.34 538.41 791.25 538.95
  Q 810.27 541.58 827.10 538.20
  Q 828.71 537.88 829.90 536.89
  C 832.06 535.09 833.03 526.37 833.25 523.99
  Q 836.25 491.84 836.26 456.50
  Q 836.26 455.95 836.81 455.92
  Q 850.68 455.38 864.51 454.31
  Q 866.64 454.14 868.72 453.36
  Q 869.21 453.17 869.48 452.71
  C 875.86 441.70 876.46 423.59 874.88 411.73
  C 874.40 408.18 872.34 400.83 868.75 400.66
  Q 821.12 398.50 773.49 400.66
  Q 757.26 401.40 741.25 404.18
  Q 738.00 404.75 737.68 407.23
  Q 735.56 423.43 738.95 443.11
  C 739.50 446.28 740.31 453.58 743.34 454.21
  C 754.32 456.49 765.22 456.64 776.38 456.97
  Q 776.94 456.99 776.98 457.55
  Z"
/>
<path fill="#6d5845" d="
  M 682.97 514.07
  C 682.36 521.76 682.05 532.14 679.09 538.78
  C 675.15 547.60 641.35 545.25 633.68 542.16
  C 631.15 541.14 630.26 539.17 629.57 536.75
  Q 627.15 528.37 625.75 519.76
  Q 618.17 473.46 616.65 428.25
  Q 616.36 419.75 617.01 409.64
  C 617.35 404.27 621.84 401.29 626.71 400.15
  Q 637.76 397.56 647.76 396.79
  Q 678.87 394.39 709.98 396.56
  C 719.66 397.23 726.88 396.10 729.54 405.06
  C 733.04 416.86 730.68 441.32 724.39 452.13
  Q 722.66 455.11 719.00 455.39
  Q 701.87 456.71 684.87 455.90
  A 0.69 0.69 0.0 0 0 684.15 456.59
  L 684.17 460.27
  A 0.54 0.54 0.0 0 0 684.70 460.80
  Q 695.13 461.09 705.50 461.85
  Q 712.73 462.38 715.97 463.51
  C 719.74 464.83 721.08 473.17 721.25 477.11
  Q 721.80 489.67 717.64 503.97
  C 715.44 511.54 711.36 511.52 703.75 512.46
  Q 693.71 513.71 683.57 513.53
  Q 683.02 513.52 682.97 514.07
  Z
  M 680.37 451.43
  Q 699.66 452.31 718.93 451.24
  A 1.27 1.24 -71.0 0 0 719.81 450.80
  Q 721.74 448.49 722.66 445.57
  Q 727.63 429.66 726.42 412.99
  C 726.18 409.66 725.33 402.27 721.00 401.82
  Q 684.47 398.02 646.26 401.27
  C 639.69 401.83 626.61 402.81 621.85 407.77
  Q 621.50 408.14 621.46 408.65
  Q 620.66 419.44 621.07 430.25
  Q 622.76 474.53 629.97 518.25
  Q 631.84 529.57 634.31 537.38
  A 1.11 1.10 0.6 0 0 635.01 538.09
  C 644.04 541.12 655.36 540.98 664.62 540.03
  C 671.34 539.34 675.46 539.56 676.49 532.27
  Q 678.53 517.91 678.93 509.80
  Q 678.96 509.28 679.48 509.29
  Q 693.41 509.58 707.21 507.76
  Q 709.42 507.47 711.51 506.49
  A 1.42 1.42 0.0 0 0 712.21 505.79
  C 716.13 497.22 717.22 486.14 716.69 477.00
  C 716.48 473.27 716.59 467.49 711.99 466.99
  Q 695.37 465.16 680.43 465.12
  Q 679.88 465.12 679.88 464.57
  L 679.86 451.92
  Q 679.86 451.40 680.37 451.43
  Z"
/>
<path fill="#6d5845" d="
  M 1012.17 542.10
  Q 994.96 544.31 982.97 544.16
  C 967.67 543.97 971.49 514.68 959.75 514.83
  Q 952.38 514.92 945.01 515.03
  C 940.90 515.10 939.09 516.98 937.35 520.72
  Q 933.12 529.81 928.45 538.65
  C 926.59 542.17 924.08 543.51 919.96 543.82
  Q 906.16 544.88 892.48 543.06
  C 882.46 541.73 883.11 535.44 883.62 526.90
  Q 883.87 522.75 884.62 518.10
  Q 892.41 469.38 908.36 422.67
  Q 911.63 413.11 915.39 406.18
  C 917.75 401.84 925.50 399.56 930.96 398.38
  Q 951.44 393.96 970.76 397.02
  C 977.67 398.11 981.74 402.21 985.60 409.36
  Q 990.50 418.41 994.31 427.98
  Q 1013.99 477.44 1027.11 529.02
  C 1029.90 540.01 1019.96 541.09 1012.17 542.10
  Z
  M 1017.73 510.36
  Q 1005.91 468.41 989.68 427.96
  C 986.91 421.06 983.21 412.75 979.60 407.68
  Q 975.26 401.59 966.74 400.84
  Q 944.89 398.91 926.01 404.37
  C 923.02 405.23 920.46 406.14 918.87 409.13
  Q 915.63 415.23 913.77 420.50
  Q 899.59 460.63 891.39 504.38
  Q 888.41 520.27 887.72 532.30
  C 887.45 537.05 889.26 538.63 893.76 538.95
  Q 909.74 540.09 920.34 539.45
  C 922.66 539.31 923.70 538.06 924.70 536.20
  Q 929.15 527.94 933.12 519.43
  C 935.59 514.11 938.19 511.01 944.01 510.80
  Q 947.98 510.65 960.76 510.81
  C 966.35 510.88 969.19 515.10 971.12 520.04
  Q 973.90 527.21 976.63 534.36
  C 979.02 540.63 982.22 539.85 988.60 539.64
  Q 999.32 539.28 1013.45 537.63
  C 1017.09 537.21 1024.13 536.52 1023.19 531.23
  C 1022.00 524.65 1019.37 516.20 1017.73 510.36
  Z"
/>
<path fill="#47eada" d="
  M 1093.48 522.83
  C 1089.47 521.04 1080.77 518.73 1080.65 526.11
  Q 1080.58 530.76 1079.54 535.36
  Q 1079.42 535.87 1079.01 536.17
  Q 1076.42 538.01 1073.26 538.35
  Q 1055.03 540.31 1037.99 539.27
  C 1033.39 538.99 1032.97 529.34 1032.57 526.00
  Q 1026.34 474.06 1026.56 421.75
  Q 1026.58 416.70 1027.55 407.99
  Q 1027.89 404.93 1030.45 403.85
  C 1057.72 392.43 1091.72 391.96 1116.66 409.86
  Q 1127.64 417.74 1131.94 430.34
  C 1137.44 446.49 1138.11 469.17 1123.21 480.40
  A 0.65 0.65 0.0 0 0 1123.19 481.42
  Q 1134.00 490.09 1143.61 500.39
  C 1145.55 502.48 1149.21 506.41 1147.78 509.86
  C 1143.83 519.38 1137.07 527.59 1129.63 535.89
  Q 1126.53 539.35 1122.22 537.95
  Q 1117.29 536.34 1112.97 533.50
  Q 1103.65 527.37 1093.48 522.83
  Z
  M 1066.86 452.12
  C 1067.87 458.91 1070.58 465.96 1079.00 465.13
  Q 1084.52 464.59 1088.71 461.52
  C 1096.90 455.52 1098.68 443.94 1089.43 437.59
  C 1085.34 434.78 1079.76 434.49 1074.99 435.05
  C 1066.08 436.09 1065.84 445.28 1066.86 452.12
  Z"
/>
<path fill="#6d5845" d="
  M 479.16 519.63
  Q 487.06 468.84 504.22 420.38
  Q 507.74 410.42 510.49 406.20
  C 515.29 398.83 543.36 396.64 551.50 396.66
  Q 561.36 396.68 569.27 399.19
  C 575.63 401.21 580.12 409.64 582.81 415.35
  Q 589.83 430.25 595.49 445.73
  Q 611.82 490.31 621.76 529.74
  C 623.93 538.35 618.33 541.37 610.75 542.55
  Q 595.22 544.95 579.52 545.04
  C 572.43 545.08 569.79 543.31 567.18 536.99
  C 564.60 530.74 562.90 524.37 559.40 518.59
  Q 557.98 516.26 555.25 516.19
  Q 547.75 516.00 540.26 516.12
  C 536.08 516.19 534.07 517.07 532.21 521.05
  Q 527.78 530.57 522.87 539.81
  C 520.90 543.52 518.23 544.60 513.93 544.88
  Q 501.03 545.71 486.64 544.10
  Q 478.71 543.22 477.87 535.52
  Q 477.38 531.04 479.16 519.63
  Z
  M 525.13 404.13
  C 520.44 405.24 515.16 406.25 513.04 410.65
  Q 509.36 418.28 506.98 425.24
  C 497.63 452.50 490.26 481.12 484.95 509.81
  Q 482.27 524.28 482.08 535.74
  Q 482.06 537.05 483.46 538.40
  C 487.14 541.93 510.68 540.88 516.25 540.35
  Q 516.76 540.30 517.12 539.95
  Q 518.61 538.48 519.27 537.28
  Q 523.21 530.06 528.10 519.53
  C 530.22 514.99 533.38 511.86 538.27 511.80
  Q 545.89 511.69 553.61 511.73
  C 560.00 511.76 562.97 514.52 565.32 520.22
  Q 569.24 529.73 570.88 534.81
  C 572.27 539.14 574.42 540.83 579.19 540.77
  Q 595.97 540.57 612.56 537.86
  Q 619.14 536.79 617.34 529.99
  Q 604.72 482.54 588.70 440.25
  Q 583.98 427.79 578.15 415.82
  C 575.31 409.98 571.66 403.40 564.57 402.29
  Q 545.53 399.29 525.13 404.13
  Z"
/>
<path fill="#47eada" d="
  M 776.38 456.97
  C 765.22 456.64 754.32 456.49 743.34 454.21
  C 740.31 453.58 739.50 446.28 738.95 443.11
  Q 735.56 423.43 737.68 407.23
  Q 738.00 404.75 741.25 404.18
  Q 757.26 401.40 773.49 400.66
  Q 821.12 398.50 868.75 400.66
  C 872.34 400.83 874.40 408.18 874.88 411.73
  C 876.46 423.59 875.86 441.70 869.48 452.71
  Q 869.21 453.17 868.72 453.36
  Q 866.64 454.14 864.51 454.31
  Q 850.68 455.38 836.81 455.92
  Q 836.26 455.95 836.26 456.50
  Q 836.25 491.84 833.25 523.99
  C 833.03 526.37 832.06 535.09 829.90 536.89
  Q 828.71 537.88 827.10 538.20
  Q 810.27 541.58 791.25 538.95
  Q 787.34 538.41 786.39 535.25
  Q 783.90 527.00 782.83 518.49
  Q 779.01 488.11 776.98 457.55
  Q 776.94 456.99 776.38 456.97
  Z"
/>
<path fill="#47eada" d="
  M 679.86 451.92
  L 679.88 464.57
  Q 679.88 465.12 680.43 465.12
  Q 695.37 465.16 711.99 466.99
  C 716.59 467.49 716.48 473.27 716.69 477.00
  C 717.22 486.14 716.13 497.22 712.21 505.79
  A 1.42 1.42 0.0 0 1 711.51 506.49
  Q 709.42 507.47 707.21 507.76
  Q 693.41 509.58 679.48 509.29
  Q 678.96 509.28 678.93 509.80
  Q 678.53 517.91 676.49 532.27
  C 675.46 539.56 671.34 539.34 664.62 540.03
  C 655.36 540.98 644.04 541.12 635.01 538.09
  A 1.11 1.10 0.6 0 1 634.31 537.38
  Q 631.84 529.57 629.97 518.25
  Q 622.76 474.53 621.07 430.25
  Q 620.66 419.44 621.46 408.65
  Q 621.50 408.14 621.85 407.77
  C 626.61 402.81 639.69 401.83 646.26 401.27
  Q 684.47 398.02 721.00 401.82
  C 725.33 402.27 726.18 409.66 726.42 412.99
  Q 727.63 429.66 722.66 445.57
  Q 721.74 448.49 719.81 450.80
  A 1.27 1.24 -71.0 0 1 718.93 451.24
  Q 699.66 452.31 680.37 451.43
  Q 679.86 451.40 679.86 451.92
  Z"
/>
<path fill="#47eada" d="
  M 364.04 539.69
  C 358.63 538.80 355.40 538.71 353.44 533.83
  C 351.76 529.63 350.42 525.46 349.64 520.83
  Q 341.31 471.20 346.94 421.18
  C 347.41 416.98 348.80 410.91 350.56 407.85
  C 353.19 403.27 365.14 401.24 370.00 400.72
  Q 389.71 398.58 409.25 401.93
  C 439.79 407.16 459.94 430.72 465.89 460.25
  Q 471.11 486.17 457.19 509.43
  C 449.91 521.58 439.48 529.33 425.70 534.26
  Q 395.88 544.93 364.04 539.69
  Z
  M 389.94 459.48
  C 388.86 465.96 387.79 487.30 397.74 488.45
  C 408.42 489.69 421.56 485.80 422.30 473.27
  C 423.08 460.17 409.10 451.47 397.49 452.50
  Q 391.01 453.08 389.94 459.48
  Z"
/>
<path fill="#47eada" d="
  M 1017.73 510.36
  C 1019.37 516.20 1022.00 524.65 1023.19 531.23
  C 1024.13 536.52 1017.09 537.21 1013.45 537.63
  Q 999.32 539.28 988.60 539.64
  C 982.22 539.85 979.02 540.63 976.63 534.36
  Q 973.90 527.21 971.12 520.04
  C 969.19 515.10 966.35 510.88 960.76 510.81
  Q 947.98 510.65 944.01 510.80
  C 938.19 511.01 935.59 514.11 933.12 519.43
  Q 929.15 527.94 924.70 536.20
  C 923.70 538.06 922.66 539.31 920.34 539.45
  Q 909.74 540.09 893.76 538.95
  C 889.26 538.63 887.45 537.05 887.72 532.30
  Q 888.41 520.27 891.39 504.38
  Q 899.59 460.63 913.77 420.50
  Q 915.63 415.23 918.87 409.13
  C 920.46 406.14 923.02 405.23 926.01 404.37
  Q 944.89 398.91 966.74 400.84
  Q 975.26 401.59 979.60 407.68
  C 983.21 412.75 986.91 421.06 989.68 427.96
  Q 1005.91 468.41 1017.73 510.36
  Z
  M 946.45 454.52
  C 942.51 459.24 939.90 465.95 938.40 471.69
  C 937.26 476.04 937.76 480.35 942.49 481.73
  C 948.29 483.43 969.56 484.43 965.81 472.03
  C 964.19 466.64 954.18 445.29 946.45 454.52
  Z"
/>
<path fill="#47eada" d="
  M 525.13 404.13
  Q 545.53 399.29 564.57 402.29
  C 571.66 403.40 575.31 409.98 578.15 415.82
  Q 583.98 427.79 588.70 440.25
  Q 604.72 482.54 617.34 529.99
  Q 619.14 536.79 612.56 537.86
  Q 595.97 540.57 579.19 540.77
  C 574.42 540.83 572.27 539.14 570.88 534.81
  Q 569.24 529.73 565.32 520.22
  C 562.97 514.52 560.00 511.76 553.61 511.73
  Q 545.89 511.69 538.27 511.80
  C 533.38 511.86 530.22 514.99 528.10 519.53
  Q 523.21 530.06 519.27 537.28
  Q 518.61 538.48 517.12 539.95
  Q 516.76 540.30 516.25 540.35
  C 510.68 540.88 487.14 541.93 483.46 538.40
  Q 482.06 537.05 482.08 535.74
  Q 482.27 524.28 484.95 509.81
  C 490.26 481.12 497.63 452.50 506.98 425.24
  Q 509.36 418.28 513.04 410.65
  C 515.16 406.25 520.44 405.24 525.13 404.13
  Z
  M 536.70 482.58
  C 542.49 484.55 564.41 485.19 560.50 473.26
  C 559.10 468.96 550.94 451.24 544.03 453.39
  C 538.62 455.08 533.71 468.66 532.48 473.65
  Q 530.77 480.56 536.70 482.58
  Z"
/>
<path fill="#6d5845" d="
  M 1066.86 452.12
  C 1065.84 445.28 1066.08 436.09 1074.99 435.05
  C 1079.76 434.49 1085.34 434.78 1089.43 437.59
  C 1098.68 443.94 1096.90 455.52 1088.71 461.52
  Q 1084.52 464.59 1079.00 465.13
  C 1070.58 465.96 1067.87 458.91 1066.86 452.12
  Z
  M 1090.18 453.17
  C 1093.96 446.23 1088.37 439.65 1081.23 439.35
  C 1077.16 439.19 1071.81 438.46 1071.08 443.78
  C 1070.50 447.99 1070.98 461.29 1077.73 460.95
  Q 1086.17 460.53 1090.18 453.17
  Z"
/>
<path fill="#f8c059" d="
  M 1081.23 439.35
  C 1088.37 439.65 1093.96 446.23 1090.18 453.17
  Q 1086.17 460.53 1077.73 460.95
  C 1070.98 461.29 1070.50 447.99 1071.08 443.78
  C 1071.81 438.46 1077.16 439.19 1081.23 439.35
  Z"
/>
<path fill="#6d5845" d="
  M 938.40 471.69
  C 939.90 465.95 942.51 459.24 946.45 454.52
  C 954.18 445.29 964.19 466.64 965.81 472.03
  C 969.56 484.43 948.29 483.43 942.49 481.73
  C 937.76 480.35 937.26 476.04 938.40 471.69
  Z
  M 950.15 456.86
  C 945.75 462.22 943.50 469.30 941.89 475.26
  A 1.09 1.08 -58.1 0 0 942.12 476.27
  C 945.11 479.73 959.80 479.01 961.95 475.17
  A 1.14 1.14 0.0 0 0 962.04 474.25
  Q 958.68 464.45 951.73 456.82
  A 1.04 1.04 0.0 0 0 950.15 456.86
  Z"
/>
<path fill="#6d5845" d="
  M 397.74 488.45
  C 387.79 487.30 388.86 465.96 389.94 459.48
  Q 391.01 453.08 397.49 452.50
  C 409.10 451.47 423.08 460.17 422.30 473.27
  C 421.56 485.80 408.42 489.69 397.74 488.45
  Z
  M 394.05 461.00
  C 393.24 467.92 393.19 476.25 395.91 482.39
  C 397.65 486.32 408.39 483.55 411.31 482.29
  C 418.86 479.01 420.24 470.63 415.18 464.26
  Q 408.66 456.04 397.76 456.85
  C 395.17 457.04 394.32 458.69 394.05 461.00
  Z"
/>
<path fill="#6d5845" d="
  M 536.70 482.58
  Q 530.77 480.56 532.48 473.65
  C 533.71 468.66 538.62 455.08 544.03 453.39
  C 550.94 451.24 559.10 468.96 560.50 473.26
  C 564.41 485.19 542.49 484.55 536.70 482.58
  Z
  M 555.09 471.44
  C 553.62 468.22 548.81 458.66 545.37 457.67
  A 0.83 0.83 0.0 0 0 544.47 457.98
  Q 538.78 465.90 536.77 475.52
  C 535.50 481.63 550.93 479.13 553.74 478.27
  C 557.93 477.00 556.35 474.18 555.09 471.44
  Z"
/>
<path fill="#f8c059" d="
  M 941.89 475.26
  C 943.50 469.30 945.75 462.22 950.15 456.86
  A 1.04 1.04 0.0 0 1 951.73 456.82
  Q 958.68 464.45 962.04 474.25
  A 1.14 1.14 0.0 0 1 961.95 475.17
  C 959.80 479.01 945.11 479.73 942.12 476.27
  A 1.09 1.08 -58.1 0 1 941.89 475.26
  Z"
/>
<path fill="#f8c059" d="
  M 555.09 471.44
  C 556.35 474.18 557.93 477.00 553.74 478.27
  C 550.93 479.13 535.50 481.63 536.77 475.52
  Q 538.78 465.90 544.47 457.98
  A 0.83 0.83 0.0 0 1 545.37 457.67
  C 548.81 458.66 553.62 468.22 555.09 471.44
  Z"
/>
<path fill="#6d5845" d="
  M 784.44 759.08
  C 784.06 768.76 783.84 774.78 772.26 775.89
  Q 752.98 777.75 736.74 776.63
  C 729.99 776.17 728.95 768.64 728.13 761.99
  Q 721.63 709.45 721.61 656.50
  Q 721.61 650.19 722.62 641.31
  C 723.04 637.65 723.77 635.35 727.29 633.56
  C 740.40 626.88 757.19 624.37 771.74 624.59
  C 791.19 624.89 811.97 631.50 825.30 644.95
  C 837.43 657.20 841.10 678.84 838.42 695.26
  Q 836.74 705.53 829.30 713.62
  Q 828.93 714.04 829.35 714.40
  Q 838.19 721.83 846.09 730.15
  Q 849.93 734.20 851.56 738.22
  C 855.05 746.82 835.40 769.33 830.01 774.25
  C 824.19 779.58 808.97 770.09 803.83 766.74
  C 799.07 763.63 790.79 758.35 785.02 758.50
  A 0.60 0.60 0.0 0 0 784.44 759.08
  Z
  M 822.78 713.73
  Q 833.61 704.66 834.69 689.49
  C 835.79 673.88 831.75 655.82 819.33 645.40
  C 798.71 628.11 769.51 625.86 743.88 632.20
  Q 734.94 634.41 728.23 637.90
  A 1.17 1.17 0.0 0 0 727.64 638.67
  Q 726.20 645.01 726.15 649.00
  Q 725.38 704.20 732.17 758.98
  C 732.67 763.07 733.29 771.97 736.74 772.30
  Q 750.10 773.59 770.00 771.68
  Q 773.70 771.32 776.27 770.47
  C 781.97 768.57 778.65 760.50 780.68 756.65
  C 785.10 748.28 807.80 763.78 812.90 766.99
  C 816.38 769.17 824.47 773.60 828.13 769.89
  Q 839.08 758.75 846.57 745.04
  Q 847.53 743.30 847.64 741.36
  C 847.99 735.05 826.69 717.78 822.78 714.49
  Q 822.33 714.11 822.78 713.73
  Z"
/>
<path fill="#6d5845" d="
  M 281.55 680.05
  C 293.85 683.26 305.13 687.58 314.37 696.13
  C 325.68 706.59 330.57 723.18 327.21 738.26
  C 323.24 756.09 307.02 770.03 290.00 775.06
  C 266.04 782.14 241.23 777.91 222.85 760.42
  Q 215.59 753.51 211.55 742.24
  Q 206.88 729.20 218.58 723.71
  Q 229.63 718.53 241.71 719.32
  A 0.19 0.18 -34.3 0 0 241.78 718.96
  C 222.89 713.24 211.03 699.06 211.02 678.98
  Q 211.01 648.35 237.36 633.63
  C 263.29 619.15 302.10 623.95 315.86 653.66
  Q 321.67 666.22 309.83 672.15
  Q 296.53 678.82 281.58 679.77
  Q 280.69 679.83 281.55 680.05
  Z
  M 276.15 670.85
  C 277.37 672.87 276.49 675.74 280.24 675.53
  C 289.58 675.02 306.45 671.89 312.58 664.36
  C 314.13 662.47 313.88 660.90 313.15 658.75
  C 301.41 624.23 251.64 622.34 228.54 645.34
  Q 212.22 661.59 215.73 685.68
  C 217.68 699.12 227.40 709.03 239.64 713.65
  Q 242.70 714.81 255.04 717.10
  Q 263.24 718.62 271.28 720.88
  C 275.60 722.10 280.23 725.84 278.50 730.46
  C 276.49 735.83 268.39 736.72 263.79 734.96
  Q 259.62 733.37 258.53 728.48
  A 1.49 1.47 12.6 0 0 258.00 727.66
  Q 255.23 725.51 251.02 724.66
  Q 235.53 721.53 221.62 726.85
  C 216.76 728.72 213.27 732.22 214.70 737.73
  C 220.85 761.41 246.10 774.49 269.26 774.05
  Q 284.92 773.76 297.78 767.36
  C 317.08 757.75 329.23 736.77 321.76 715.46
  C 313.91 693.07 290.51 685.35 269.44 682.17
  Q 265.29 681.54 263.57 681.09
  C 243.86 675.96 269.07 659.16 276.15 670.85
  Z
  M 272.81 674.34
  C 271.14 668.46 263.80 671.65 260.81 674.62
  Q 260.43 675.00 260.89 675.28
  C 264.48 677.48 271.05 678.18 275.26 678.85
  Q 275.95 678.96 275.42 678.51
  C 273.82 677.15 273.44 676.55 272.81 674.34
  Z
  M 258.18 722.25
  C 259.71 723.99 261.43 724.38 262.33 726.88
  Q 264.73 733.53 272.50 730.62
  C 275.50 729.50 274.63 726.65 272.27 725.90
  Q 265.36 723.68 258.26 722.12
  Q 258.02 722.07 258.18 722.25
  Z"
/>
<path fill="#6d5845" d="
  M 687.44 777.16
  C 677.80 777.71 674.10 775.80 671.05 766.06
  Q 668.37 757.52 664.76 751.01
  C 663.79 749.28 662.14 748.28 660.03 748.19
  Q 649.59 747.74 642.75 748.35
  C 640.30 748.57 638.60 750.22 637.50 752.53
  Q 634.39 759.04 631.34 765.55
  Q 628.21 772.20 625.51 775.01
  C 622.00 778.63 600.91 777.16 595.50 776.76
  C 585.78 776.04 582.15 773.03 582.94 762.99
  Q 584.04 749.01 586.72 735.23
  Q 594.44 695.59 607.35 657.32
  Q 609.17 651.94 613.43 642.20
  C 616.01 636.29 619.38 634.55 626.01 632.79
  Q 642.90 628.28 660.39 628.95
  Q 667.50 629.22 673.51 631.03
  C 679.26 632.77 682.56 637.57 685.92 643.62
  Q 691.55 653.77 699.23 674.50
  Q 714.55 715.88 726.06 758.48
  C 728.36 766.97 726.95 773.00 717.25 774.51
  C 707.34 776.05 697.45 776.59 687.44 777.16
  Z
  M 717.69 745.19
  Q 707.18 707.77 693.29 671.45
  Q 689.19 660.75 684.36 650.35
  C 682.37 646.06 679.25 639.73 675.45 636.81
  Q 673.13 635.03 671.33 634.73
  Q 648.02 630.85 624.99 637.60
  C 621.68 638.57 619.50 639.69 617.91 643.00
  Q 613.82 651.47 610.86 660.41
  Q 596.65 703.25 589.09 747.76
  Q 586.74 761.59 587.16 767.26
  Q 587.46 771.33 591.49 771.83
  Q 605.81 773.61 620.22 772.51
  C 621.67 772.40 623.01 771.50 623.66 770.34
  Q 627.82 762.95 632.89 752.02
  C 635.22 746.99 637.94 744.15 643.39 743.88
  Q 648.03 743.64 657.97 743.78
  Q 662.52 743.85 664.81 745.25
  C 670.46 748.70 673.66 760.44 675.30 765.67
  Q 676.38 769.09 679.36 772.10
  Q 679.71 772.45 680.20 772.55
  Q 681.97 772.88 683.75 772.85
  Q 698.56 772.59 713.25 770.74
  C 716.87 770.28 723.34 769.31 722.77 764.99
  C 721.97 758.87 719.08 750.14 717.69 745.19
  Z"
/>
<path fill="#47eada" d="
  M 822.78 714.49
  C 826.69 717.78 847.99 735.05 847.64 741.36
  Q 847.53 743.30 846.57 745.04
  Q 839.08 758.75 828.13 769.89
  C 824.47 773.60 816.38 769.17 812.90 766.99
  C 807.80 763.78 785.10 748.28 780.68 756.65
  C 778.65 760.50 781.97 768.57 776.27 770.47
  Q 773.70 771.32 770.00 771.68
  Q 750.10 773.59 736.74 772.30
  C 733.29 771.97 732.67 763.07 732.17 758.98
  Q 725.38 704.20 726.15 649.00
  Q 726.20 645.01 727.64 638.67
  A 1.17 1.17 0.0 0 1 728.23 637.90
  Q 734.94 634.41 743.88 632.20
  C 769.51 625.86 798.71 628.11 819.33 645.40
  C 831.75 655.82 835.79 673.88 834.69 689.49
  Q 833.61 704.66 822.78 713.73
  Q 822.33 714.11 822.78 714.49
  Z
  M 772.73 668.45
  C 764.13 670.60 765.45 683.48 767.44 689.80
  C 769.24 695.52 772.31 698.87 778.73 698.28
  C 786.27 697.58 793.35 692.05 794.79 684.49
  C 797.33 671.21 783.33 665.80 772.73 668.45
  Z"
/>
<path fill="#47eada" d="
  M 276.15 670.85
  C 269.07 659.16 243.86 675.96 263.57 681.09
  Q 265.29 681.54 269.44 682.17
  C 290.51 685.35 313.91 693.07 321.76 715.46
  C 329.23 736.77 317.08 757.75 297.78 767.36
  Q 284.92 773.76 269.26 774.05
  C 246.10 774.49 220.85 761.41 214.70 737.73
  C 213.27 732.22 216.76 728.72 221.62 726.85
  Q 235.53 721.53 251.02 724.66
  Q 255.23 725.51 258.00 727.66
  A 1.49 1.47 12.6 0 1 258.53 728.48
  Q 259.62 733.37 263.79 734.96
  C 268.39 736.72 276.49 735.83 278.50 730.46
  C 280.23 725.84 275.60 722.10 271.28 720.88
  Q 263.24 718.62 255.04 717.10
  Q 242.70 714.81 239.64 713.65
  C 227.40 709.03 217.68 699.12 215.73 685.68
  Q 212.22 661.59 228.54 645.34
  C 251.64 622.34 301.41 624.23 313.15 658.75
  C 313.88 660.90 314.13 662.47 312.58 664.36
  C 306.45 671.89 289.58 675.02 280.24 675.53
  C 276.49 675.74 277.37 672.87 276.15 670.85
  Z"
/>
<path fill="#47eada" d="
  M 1149.05 681.35
  C 1156.72 657.19 1174.47 640.54 1198.52 633.87
  C 1216.85 628.79 1239.08 629.23 1255.26 639.43
  C 1265.92 646.15 1270.14 658.10 1270.10 670.02
  C 1270.07 678.66 1238.09 681.27 1231.36 680.13
  A 0.68 0.67 -83.1 0 1 1230.80 679.41
  C 1231.14 675.36 1228.85 674.25 1225.18 674.10
  C 1208.62 673.45 1191.96 683.21 1192.80 701.91
  C 1193.34 713.83 1202.31 722.98 1214.05 724.98
  C 1220.27 726.04 1229.36 726.51 1230.86 718.21
  Q 1231.88 712.63 1232.56 707.00
  Q 1232.62 706.49 1232.98 706.13
  Q 1234.41 704.70 1235.22 704.39
  Q 1254.05 697.13 1273.26 700.70
  Q 1275.09 701.04 1276.80 702.63
  Q 1277.15 702.96 1277.21 703.44
  Q 1280.56 732.81 1278.27 762.25
  Q 1278.12 764.22 1276.97 768.66
  A 1.18 1.15 -6.6 0 1 1276.36 769.41
  Q 1275.12 770.04 1273.25 770.26
  Q 1258.06 772.06 1244.66 770.25
  A 0.46 0.46 0.0 0 1 1244.35 770.08
  L 1242.88 768.29
  A 0.77 0.77 0.0 0 0 1242.10 768.04
  C 1208.46 777.15 1171.41 769.17 1152.30 737.94
  C 1142.40 721.77 1143.21 699.73 1149.05 681.35
  Z"
/>
<path fill="#47eada" d="
  M 1081.11 674.04
  Q 1080.85 655.68 1080.05 642.23
  Q 1079.67 635.70 1085.70 634.03
  Q 1103.14 629.19 1122.75 632.10
  Q 1127.59 632.81 1130.70 634.82
  A 1.17 1.17 0.0 0 1 1131.23 635.70
  Q 1132.19 647.16 1132.58 658.50
  Q 1134.33 709.25 1131.37 759.91
  C 1131.22 762.49 1130.70 765.23 1130.32 767.80
  A 1.17 1.16 76.5 0 1 1129.84 768.59
  Q 1128.17 769.80 1126.51 770.12
  Q 1113.13 772.67 1098.25 771.11
  C 1094.52 770.72 1092.07 770.40 1089.08 767.95
  Q 1084.25 764.01 1078.88 758.37
  Q 1062.12 740.76 1049.30 724.20
  Q 1048.91 723.69 1048.86 724.33
  Q 1047.08 748.20 1044.80 764.26
  Q 1044.52 766.24 1043.13 769.20
  A 1.23 1.23 0.0 0 1 1042.43 769.83
  C 1033.81 772.89 1022.95 772.25 1013.50 771.41
  Q 1009.00 771.01 1005.32 769.89
  C 1002.71 769.09 1001.93 767.19 1001.54 764.75
  Q 998.96 748.85 998.15 732.76
  Q 996.26 694.87 997.90 658.75
  Q 998.37 648.43 1000.02 636.27
  A 1.27 1.25 -16.8 0 1 1000.46 635.46
  C 1005.26 631.50 1021.92 631.56 1027.96 631.92
  C 1040.87 632.67 1049.42 633.75 1057.33 643.43
  Q 1070.52 659.57 1080.62 674.20
  Q 1081.12 674.92 1081.11 674.04
  Z"
/>
<path fill="#47eada" d="
  M 987.20 738.69
  C 988.83 744.41 992.35 755.24 993.73 762.53
  C 994.87 768.54 990.39 769.08 985.50 769.80
  Q 969.35 772.16 952.99 772.16
  C 949.67 772.16 947.03 767.09 946.35 764.78
  Q 944.03 756.91 940.49 749.52
  C 937.92 744.16 934.17 743.06 928.16 743.05
  Q 922.01 743.05 915.89 743.07
  C 909.85 743.08 906.70 745.70 904.10 751.24
  Q 900.19 759.56 896.00 767.71
  Q 894.91 769.81 893.23 771.42
  A 1.50 1.47 20.6 0 1 892.32 771.82
  C 887.94 772.14 862.20 773.37 859.23 769.35
  C 857.00 766.33 859.34 752.97 860.17 748.02
  Q 867.74 702.55 882.40 658.84
  Q 885.09 650.82 888.58 643.10
  C 891.20 637.31 897.06 636.46 903.01 635.14
  Q 920.60 631.24 938.52 633.23
  Q 947.14 634.19 951.51 642.25
  Q 956.83 652.08 958.38 655.84
  Q 975.12 696.46 987.20 738.69
  Z
  M 936.60 709.05
  C 938.35 703.03 929.39 689.97 925.69 686.31
  Q 922.94 683.59 919.81 684.83
  C 914.24 687.03 909.79 700.62 908.68 706.02
  C 907.73 710.70 910.13 713.42 914.64 714.43
  C 919.90 715.60 934.54 716.16 936.60 709.05
  Z"
/>
<path fill="#47eada" d="
  M 390.99 685.12
  Q 400.07 685.06 409.03 686.49
  A 0.90 0.90 0.0 0 1 409.73 687.05
  C 412.77 694.69 415.24 707.20 412.50 715.46
  A 0.98 0.98 0.0 0 1 411.80 716.11
  C 405.73 717.65 398.73 717.59 392.49 717.81
  Q 392.01 717.83 392.00 718.32
  L 392.00 727.19
  Q 392.00 727.65 392.47 727.65
  Q 411.01 727.51 429.49 726.41
  Q 433.20 726.19 437.72 727.37
  A 1.18 1.15 83.5 0 1 438.48 727.99
  Q 439.58 730.23 440.13 733.56
  C 441.68 743.11 442.89 756.20 440.83 766.37
  Q 440.72 766.89 440.25 767.13
  C 434.12 770.21 424.79 770.91 418.00 771.56
  C 394.73 773.78 370.12 775.00 346.87 772.14
  Q 346.07 772.04 343.88 771.13
  Q 343.42 770.93 343.22 770.47
  Q 341.73 766.99 341.14 763.25
  Q 338.82 748.58 337.80 733.76
  Q 334.83 690.66 336.70 647.51
  Q 336.90 642.92 338.36 638.57
  C 339.47 635.26 343.16 635.49 346.02 635.20
  Q 374.44 632.32 403.00 632.65
  Q 415.94 632.81 428.75 634.58
  C 431.03 634.89 432.24 636.03 432.61 638.40
  Q 435.22 655.34 432.46 670.37
  C 431.85 673.66 420.23 674.31 417.50 674.43
  Q 404.15 675.07 390.79 675.58
  Q 390.24 675.60 390.25 676.16
  L 390.45 684.59
  A 0.54 0.53 88.9 0 0 390.99 685.12
  Z"
/>
<path fill="#47eada" d="
  M 717.69 745.19
  C 719.08 750.14 721.97 758.87 722.77 764.99
  C 723.34 769.31 716.87 770.28 713.25 770.74
  Q 698.56 772.59 683.75 772.85
  Q 681.97 772.88 680.20 772.55
  Q 679.71 772.45 679.36 772.10
  Q 676.38 769.09 675.30 765.67
  C 673.66 760.44 670.46 748.70 664.81 745.25
  Q 662.52 743.85 657.97 743.78
  Q 648.03 743.64 643.39 743.88
  C 637.94 744.15 635.22 746.99 632.89 752.02
  Q 627.82 762.95 623.66 770.34
  C 623.01 771.50 621.67 772.40 620.22 772.51
  Q 605.81 773.61 591.49 771.83
  Q 587.46 771.33 587.16 767.26
  Q 586.74 761.59 589.09 747.76
  Q 596.65 703.25 610.86 660.41
  Q 613.82 651.47 617.91 643.00
  C 619.50 639.69 621.68 638.57 624.99 637.60
  Q 648.02 630.85 671.33 634.73
  Q 673.13 635.03 675.45 636.81
  C 679.25 639.73 682.37 646.06 684.36 650.35
  Q 689.19 660.75 693.29 671.45
  Q 707.18 707.77 717.69 745.19
  Z
  M 664.58 702.94
  C 662.19 697.73 656.69 686.41 651.23 685.36
  C 644.41 684.06 639.00 700.02 637.73 705.51
  C 636.32 711.54 638.79 714.31 644.62 715.38
  C 651.88 716.71 670.68 716.26 664.58 702.94
  Z"
/>
<path fill="#47eada" d="
  M 511.10 659.17
  A 0.42 0.42 0.0 0 0 511.80 659.48
  C 520.72 651.63 531.75 642.45 542.83 638.00
  A 1.63 1.60 -49.3 0 1 543.79 637.92
  Q 546.04 638.44 547.50 639.50
  Q 559.06 647.90 568.76 659.53
  C 571.33 662.62 574.03 665.44 571.35 669.54
  Q 566.26 677.35 559.37 685.10
  Q 550.02 695.61 540.25 705.50
  A 0.59 0.59 0.0 0 0 540.41 706.44
  Q 558.10 715.17 574.30 725.71
  Q 575.34 726.39 575.37 728.55
  C 575.52 741.57 568.19 757.01 560.62 767.60
  Q 558.06 771.18 554.53 772.96
  A 1.44 1.38 -50.9 0 1 553.56 773.08
  Q 549.02 772.00 545.58 770.45
  Q 527.00 762.06 508.43 752.17
  A 0.44 0.44 0.0 0 0 507.78 752.51
  Q 507.01 759.76 505.18 767.00
  Q 504.35 770.27 500.98 771.01
  Q 488.46 773.73 473.26 773.14
  Q 467.07 772.90 462.54 771.32
  A 1.19 1.19 0.0 0 1 461.84 770.65
  Q 459.88 765.71 459.44 763.02
  C 454.57 733.52 453.22 705.03 452.40 673.50
  Q 451.94 655.63 452.67 642.11
  A 1.64 1.58 67.6 0 1 453.05 641.15
  Q 455.48 638.32 459.25 637.27
  C 473.93 633.20 493.04 631.63 507.24 636.02
  C 508.74 636.48 509.61 637.07 509.79 638.78
  Q 510.88 649.07 511.10 659.17
  Z"
/>
<path fill="#6d5845" d="
  M 767.44 689.80
  C 765.45 683.48 764.13 670.60 772.73 668.45
  C 783.33 665.80 797.33 671.21 794.79 684.49
  C 793.35 692.05 786.27 697.58 778.73 698.28
  C 772.31 698.87 769.24 695.52 767.44 689.80
  Z
  M 787.45 674.87
  C 784.31 672.45 780.69 672.14 776.70 672.35
  C 769.66 672.74 769.92 677.75 770.52 683.32
  C 771.08 688.51 772.57 695.86 779.96 693.63
  Q 784.75 692.18 787.57 689.18
  C 791.43 685.08 792.34 678.66 787.45 674.87
  Z"
/>
<path fill="#f8c059" d="
  M 787.45 674.87
  C 792.34 678.66 791.43 685.08 787.57 689.18
  Q 784.75 692.18 779.96 693.63
  C 772.57 695.86 771.08 688.51 770.52 683.32
  C 769.92 677.75 769.66 672.74 776.70 672.35
  C 780.69 672.14 784.31 672.45 787.45 674.87
  Z"
/>
<path fill="#f8c059" d="
  M 1198.03 694.49
  C 1202.31 682.69 1213.77 677.23 1226.08 678.69
  Q 1226.54 678.74 1226.53 679.20
  C 1226.29 686.95 1240.32 684.73 1244.98 684.36
  C 1252.84 683.74 1270.19 680.98 1273.97 673.21
  Q 1274.21 672.71 1274.72 672.93
  L 1304.03 685.48
  A 0.29 0.29 0.0 0 1 1304.02 686.01
  L 1276.53 696.71
  Q 1276.09 696.88 1275.61 696.79
  Q 1257.77 693.23 1240.22 697.97
  C 1235.15 699.34 1228.77 701.43 1228.16 707.37
  Q 1227.74 711.49 1226.92 715.52
  Q 1226.81 716.04 1226.32 716.24
  Q 1221.45 718.20 1216.64 719.98
  Q 1214.57 720.74 1212.65 720.28
  C 1201.36 717.56 1194.17 705.12 1198.03 694.49
  Z"
/>
<path fill="#6d5845" d="
  M 936.60 709.05
  C 934.54 716.16 919.90 715.60 914.64 714.43
  C 910.13 713.42 907.73 710.70 908.68 706.02
  C 909.79 700.62 914.24 687.03 919.81 684.83
  Q 922.94 683.59 925.69 686.31
  C 929.39 689.97 938.35 703.03 936.60 709.05
  Z
  M 932.74 706.60
  C 930.57 700.40 927.00 694.20 922.60 689.38
  A 1.32 1.32 0.0 0 0 920.56 689.50
  Q 915.10 697.06 912.94 706.51
  C 912.53 708.30 912.80 709.51 914.76 710.01
  C 919.01 711.10 929.96 711.84 932.63 707.57
  Q 932.92 707.11 932.74 706.60
  Z"
/>
<path fill="#6d5845" d="
  M 664.58 702.94
  C 670.68 716.26 651.88 716.71 644.62 715.38
  C 638.79 714.31 636.32 711.54 637.73 705.51
  C 639.00 700.02 644.41 684.06 651.23 685.36
  C 656.69 686.41 662.19 697.73 664.58 702.94
  Z
  M 649.33 690.38
  C 645.92 694.77 642.11 702.67 641.69 708.40
  A 2.27 2.27 0.0 0 0 643.47 710.78
  C 646.39 711.43 663.89 713.09 661.16 706.13
  Q 657.87 697.76 651.88 690.36
  A 1.63 1.63 0.0 0 0 649.33 690.38
  Z"
/>
<path fill="#f8c059" d="
  M 922.60 689.38
  C 927.00 694.20 930.57 700.40 932.74 706.60
  Q 932.92 707.11 932.63 707.57
  C 929.96 711.84 919.01 711.10 914.76 710.01
  C 912.80 709.51 912.53 708.30 912.94 706.51
  Q 915.10 697.06 920.56 689.50
  A 1.32 1.32 0.0 0 1 922.60 689.38
  Z"
/>
<path fill="#f8c059" d="
  M 641.69 708.40
  C 642.11 702.67 645.92 694.77 649.33 690.38
  A 1.63 1.63 0.0 0 1 651.88 690.36
  Q 657.87 697.76 661.16 706.13
  C 663.89 713.09 646.39 711.43 643.47 710.78
  A 2.27 2.27 0.0 0 1 641.69 708.40
  Z"
/>
<path fill="#6d5845" d="
  M 749.54 917.12
  Q 748.95 934.20 746.36 949.52
  Q 745.00 957.56 736.80 958.76
  Q 726.93 960.21 716.99 959.71
  C 711.68 959.44 703.26 958.35 701.53 952.41
  Q 699.61 945.83 698.77 939.01
  Q 694.61 905.25 695.49 871.25
  C 695.63 866.00 697.59 862.91 702.51 861.42
  Q 722.97 855.22 743.29 860.62
  Q 747.68 861.78 748.89 866.24
  Q 749.00 866.65 749.23 866.29
  C 755.00 857.50 776.07 857.55 785.15 858.45
  C 790.95 859.02 801.69 859.58 802.27 867.36
  Q 804.64 898.95 802.12 930.51
  Q 801.31 940.73 799.14 950.74
  C 797.78 957.02 793.09 957.90 787.51 958.78
  C 780.16 959.94 762.09 960.77 756.98 955.91
  C 754.42 953.46 753.21 947.00 752.75 943.75
  Q 751.10 932.14 749.75 917.11
  Q 749.60 915.47 749.54 917.12
  Z
  M 744.12 866.04
  C 736.91 860.80 709.76 861.67 701.95 866.36
  Q 699.93 867.58 699.86 869.99
  Q 699.00 902.47 702.58 934.76
  Q 703.42 942.31 705.30 949.70
  C 705.98 952.38 707.04 953.70 709.73 954.17
  Q 722.84 956.47 736.01 954.26
  C 741.44 953.34 742.14 949.94 742.76 945.25
  Q 746.64 916.12 745.69 885.00
  Q 745.34 873.53 744.58 866.84
  A 1.18 1.17 -75.2 0 0 744.12 866.04
  Z
  M 755.88 934.12
  Q 757.18 945.29 759.25 952.14
  A 1.17 1.16 -87.3 0 0 759.92 952.88
  C 767.56 956.04 777.71 955.58 785.75 954.58
  Q 790.38 954.00 792.90 953.05
  A 1.55 1.52 3.8 0 0 793.69 952.37
  Q 795.33 949.43 795.78 946.00
  C 799.24 920.05 800.25 892.79 797.90 866.68
  Q 797.85 866.11 797.35 865.81
  C 788.39 860.49 770.01 862.16 760.50 864.33
  C 755.94 865.36 753.08 866.46 753.00 871.00
  Q 752.38 904.27 755.88 934.12
  Z"
/>
<path fill="#47eada" d="
  M 701.95 866.36
  C 709.76 861.67 736.91 860.80 744.12 866.04
  A 1.18 1.17 -75.2 0 1 744.58 866.84
  Q 745.34 873.53 745.69 885.00
  Q 746.64 916.12 742.76 945.25
  C 742.14 949.94 741.44 953.34 736.01 954.26
  Q 722.84 956.47 709.73 954.17
  C 707.04 953.70 705.98 952.38 705.30 949.70
  Q 703.42 942.31 702.58 934.76
  Q 699.00 902.47 699.86 869.99
  Q 699.93 867.58 701.95 866.36
  Z"
/>
<path fill="#47eada" d="
  M 755.88 934.12
  Q 752.38 904.27 753.00 871.00
  C 753.08 866.46 755.94 865.36 760.50 864.33
  C 770.01 862.16 788.39 860.49 797.35 865.81
  Q 797.85 866.11 797.90 866.68
  C 800.25 892.79 799.24 920.05 795.78 946.00
  Q 795.33 949.43 793.69 952.37
  A 1.55 1.52 3.8 0 1 792.90 953.05
  Q 790.38 954.00 785.75 954.58
  C 777.71 955.58 767.56 956.04 759.92 952.88
  A 1.17 1.16 -87.3 0 1 759.25 952.14
  Q 757.18 945.29 755.88 934.12
  Z"
/>
<path fill="#6d5845" d="
  M 726.12 1009.41
  C 702.71 1011.00 688.60 982.96 707.00 966.76
  Q 718.26 956.84 732.55 961.88
  Q 739.03 964.17 742.79 968.37
  C 755.75 982.88 745.73 1008.08 726.12 1009.41
  Z
  M 730.92 965.82
  C 719.71 962.43 708.45 967.00 704.24 978.17
  C 700.12 989.12 706.77 1000.90 717.79 1004.11
  C 743.86 1011.69 755.00 973.10 730.92 965.82
  Z"
/>
<path fill="#47eada" d="
  M 730.92 965.82
  C 755.00 973.10 743.86 1011.69 717.79 1004.11
  C 706.77 1000.90 700.12 989.12 704.24 978.17
  C 708.45 967.00 719.71 962.43 730.92 965.82
  Z"
/>
<ellipse fill="#47eada" cx="0.00" cy="0.00" transform="translate(776.96,984.67) rotate(-16.2)" rx="20.63" ry="20.27"/>
</svg>
