<?xml version="1.0" encoding="UTF-8" standalone="no"?>
<!DOCTYPE svg PUBLIC "-//W3C//DTD SVG 1.1//EN" "http://www.w3.org/Graphics/SVG/1.1/DTD/svg11.dtd">
<svg xmlns="http://www.w3.org/2000/svg" version="1.1" viewBox="0.00 0.00 1454.00 1442.00">
<g stroke-width="2.00" fill="none" stroke-linecap="butt">
<path stroke="#5aa190" vector-effect="non-scaling-stroke" d="
  M 777.84 484.25
  C 777.45 480.91 768.69 477.91 766.29 477.42
  Q 737.02 471.42 708.29 479.58
  C 703.84 480.84 697.08 483.66 696.30 488.68
  Q 695.69 492.56 695.68 496.50
  C 695.64 513.71 696.55 529.57 697.69 547.99
  Q 700.42 591.80 706.73 635.26
  Q 708.16 645.13 710.72 654.81
  C 712.40 661.16 712.97 664.60 719.73 665.49
  Q 740.87 668.29 760.29 665.60
  C 768.04 664.53 772.44 664.28 773.65 655.96
  Q 776.83 634.16 777.53 624.50
  Q 781.25 573.19 780.36 521.75
  Q 780.04 502.94 777.84 484.25"
/>
<path stroke="#5aa190" vector-effect="non-scaling-stroke" d="
  M 813.13 481.13
  Q 806.30 483.55 804.50 491.00
  C 800.64 506.94 799.71 520.82 799.04 538.49
  Q 797.37 582.39 803.31 626.00
  C 804.26 632.93 807.97 659.30 814.98 662.23
  C 819.08 663.94 824.00 664.40 828.57 665.07
  Q 870.70 671.22 910.00 656.79
  C 923.75 651.74 935.35 644.41 944.22 633.51
  C 959.88 614.25 967.27 589.31 964.27 564.55
  C 960.30 531.82 941.48 499.83 911.00 485.52
  C 897.04 478.97 881.73 476.52 865.79 475.37
  Q 846.39 473.98 827.07 477.09
  Q 822.40 477.84 813.13 481.13"
/>
<path stroke="#5aa190" vector-effect="non-scaling-stroke" d="
  M 1059.03 545.63
  L 1058.63 534.15
  A 0.74 0.74 0.0 0 1 1059.34 533.38
  Q 1080.51 532.55 1102.00 531.11
  C 1104.80 530.93 1113.20 530.08 1115.02 527.83
  Q 1115.87 526.77 1116.09 525.26
  Q 1118.51 509.17 1117.28 492.97
  C 1116.88 487.63 1116.70 484.19 1115.19 480.13
  A 2.78 2.77 87.3 0 0 1113.31 478.42
  Q 1108.21 477.03 1102.49 476.65
  Q 1050.65 473.19 998.93 478.29
  C 996.51 478.53 991.02 479.07 989.40 481.03
  C 986.40 484.66 985.71 494.53 985.55 499.37
  Q 983.42 563.53 988.99 627.49
  Q 990.01 639.17 991.81 650.74
  C 992.69 656.36 993.67 663.05 998.23 663.84
  C 1010.11 665.90 1019.72 666.03 1034.06 666.23
  Q 1074.71 666.79 1115.01 661.10
  Q 1117.90 660.69 1124.59 658.33
  C 1126.01 657.83 1127.54 656.68 1127.69 655.27
  Q 1130.27 631.31 1125.45 607.74
  C 1124.99 605.50 1124.00 603.39 1121.77 602.97
  Q 1115.10 601.71 1106.22 602.26
  Q 1084.07 603.62 1061.75 603.95
  Q 1061.13 603.96 1061.12 603.34
  L 1061.05 591.15
  Q 1061.05 590.56 1061.63 590.56
  Q 1073.88 590.48 1086.03 588.77
  C 1087.87 588.51 1089.25 587.31 1089.52 585.57
  Q 1092.21 567.78 1085.58 550.05
  C 1085.07 548.68 1084.34 548.05 1082.94 547.85
  Q 1071.36 546.17 1059.64 546.22
  Q 1059.05 546.22 1059.03 545.63"
/>
<path stroke="#5aa190" vector-effect="non-scaling-stroke" d="
  M 358.43 549.12
  C 367.50 539.01 381.28 534.94 394.82 535.93
  Q 397.95 536.16 399.40 537.40
  Q 401.48 539.19 401.21 542.43
  A 1.55 1.54 7.3 0 0 402.49 544.08
  Q 406.55 544.76 410.37 544.69
  C 422.30 544.45 434.30 542.29 445.55 538.29
  C 448.71 537.16 454.62 534.47 454.64 531.76
  C 454.78 512.89 448.86 496.73 431.73 487.27
  C 416.33 478.77 398.01 475.79 380.67 477.20
  C 324.05 481.80 288.97 519.71 284.80 575.74
  Q 282.27 609.77 304.07 634.91
  C 332.74 667.96 376.40 673.67 417.03 663.26
  A 0.80 0.79 -17.4 0 1 417.98 663.75
  C 418.67 665.58 420.34 666.23 422.32 666.46
  Q 440.91 668.56 459.50 666.14
  Q 461.32 665.90 463.11 665.10
  A 1.14 1.12 86.7 0 0 463.73 664.39
  Q 465.43 659.05 465.77 654.50
  Q 468.67 616.32 464.41 576.76
  C 463.88 571.79 455.30 570.93 451.52 570.63
  Q 428.87 568.82 407.60 576.53
  C 405.58 577.25 403.89 579.04 403.58 581.42
  Q 402.75 587.76 401.63 594.06
  C 400.64 599.62 398.61 603.23 393.20 604.67
  Q 387.12 606.30 380.21 605.22
  Q 362.21 602.42 354.10 588.06
  C 347.03 575.54 348.93 559.71 358.43 549.12"
/>
<path stroke="#5aa190" vector-effect="non-scaling-stroke" d="
  M 671.87 487.26
  C 670.75 484.90 666.87 483.13 664.51 482.64
  Q 638.35 477.25 612.25 482.91
  Q 610.09 483.38 608.20 484.61
  Q 607.76 484.90 607.73 485.42
  Q 607.25 495.32 607.34 498.25
  C 608.22 527.76 608.97 554.42 600.49 580.21
  C 596.85 591.27 588.86 599.26 576.33 597.17
  C 563.43 595.01 558.72 584.41 555.97 573.02
  C 549.10 544.56 553.30 514.64 554.84 485.45
  Q 554.93 483.80 553.41 483.17
  Q 548.24 481.00 541.75 480.01
  Q 520.54 476.79 499.27 479.64
  C 489.17 481.00 487.82 484.10 485.58 493.26
  Q 484.65 497.05 484.13 501.81
  Q 480.03 539.58 483.86 577.33
  Q 485.10 589.55 487.13 597.02
  C 498.60 639.24 540.37 668.36 583.73 667.53
  C 626.28 666.70 662.21 636.42 670.68 594.87
  Q 671.89 588.93 673.54 575.08
  Q 677.63 540.59 675.13 505.86
  Q 674.63 499.00 673.17 492.27
  Q 672.26 488.08 671.87 487.26"
/>
<path stroke="#5aa190" vector-effect="non-scaling-stroke" d="
  M 457.26 872.33
  C 464.87 861.12 467.69 849.49 464.85 835.92
  C 459.42 810.00 438.57 797.35 414.00 792.88
  C 390.00 788.51 363.98 789.16 341.28 796.60
  C 337.66 797.79 328.53 801.61 327.98 805.73
  Q 326.88 813.82 326.74 816.50
  Q 323.20 885.76 329.16 954.82
  C 329.79 962.13 330.95 971.75 333.18 977.28
  Q 334.17 979.75 336.48 980.25
  Q 343.85 981.83 353.00 982.22
  Q 383.63 983.51 414.27 982.46
  Q 428.08 981.99 434.16 980.73
  C 464.39 974.44 485.25 945.66 483.73 915.16
  C 482.92 898.75 476.21 885.54 462.40 876.63
  Q 459.87 875.00 457.43 873.25
  A 0.67 0.66 34.8 0 1 457.26 872.33"
/>
<path stroke="#5aa190" vector-effect="non-scaling-stroke" d="
  M 755.16 803.15
  C 712.77 829.82 693.61 884.96 718.45 930.31
  C 736.27 962.84 766.96 980.41 803.50 981.94
  C 842.96 983.59 879.26 959.45 894.22 922.95
  C 903.16 901.14 905.42 874.45 897.35 851.91
  C 887.45 824.26 863.93 803.29 835.94 795.26
  C 808.61 787.41 779.57 787.79 755.16 803.15"
/>
<path stroke="#5aa190" vector-effect="non-scaling-stroke" d="
  M 659.00 958.77
  Q 680.62 939.52 688.14 911.49
  C 706.62 842.62 657.25 789.67 589.26 790.73
  C 545.72 791.41 508.09 825.87 499.61 867.96
  Q 491.33 909.07 515.59 942.38
  C 532.27 965.29 556.15 978.48 584.77 981.72
  Q 627.75 986.58 659.00 958.77"
/>
<path stroke="#5aa190" vector-effect="non-scaling-stroke" d="
  M 1000.56 826.91
  Q 1000.05 813.71 998.78 800.37
  C 998.55 797.90 997.57 795.91 995.25 795.16
  Q 987.38 792.60 977.26 791.97
  Q 954.12 790.56 931.79 796.59
  C 928.51 797.48 921.97 799.44 921.45 803.50
  Q 920.82 808.40 920.75 815.75
  Q 920.29 863.81 923.86 911.75
  Q 925.65 935.84 929.10 959.75
  Q 930.01 966.12 932.36 974.63
  C 933.08 977.26 933.91 978.64 936.72 979.41
  Q 941.53 980.74 946.00 981.08
  Q 965.32 982.57 984.99 978.98
  Q 988.23 978.38 991.26 976.03
  A 1.71 1.68 80.3 0 0 991.83 975.21
  Q 995.05 964.45 995.87 953.24
  A 0.61 0.60 15.6 0 1 996.75 952.75
  Q 1020.79 965.44 1045.64 976.92
  Q 1050.12 978.98 1056.68 980.79
  C 1060.93 981.96 1065.17 976.80 1067.44 973.69
  Q 1083.05 952.37 1087.50 926.25
  Q 1088.04 923.04 1087.23 918.28
  Q 1087.14 917.78 1086.74 917.46
  Q 1086.21 917.04 1085.63 916.67
  Q 1063.61 902.22 1040.15 890.52
  A 0.60 0.60 0.0 0 1 1039.99 889.56
  Q 1056.77 872.45 1072.45 853.96
  Q 1078.03 847.39 1082.64 840.08
  Q 1085.20 836.03 1082.32 832.00
  C 1073.35 819.45 1060.94 807.18 1047.52 798.57
  C 1047.00 798.23 1045.93 797.94 1045.30 797.71
  Q 1044.83 797.53 1044.35 797.69
  Q 1038.89 799.44 1035.98 801.24
  Q 1017.44 812.69 1001.17 827.17
  A 0.37 0.37 0.0 0 1 1000.56 826.91"
/>
<path stroke="#5aa190" vector-effect="non-scaling-stroke" d="
  M 904.04 571.49
  C 902.62 556.19 885.89 545.00 871.25 546.35
  C 864.32 546.99 860.80 550.08 860.01 557.01
  Q 858.18 573.20 862.04 587.06
  Q 864.08 594.41 871.23 595.16
  C 885.98 596.72 905.78 590.08 904.04 571.49"
/>
<path stroke="#5aa190" vector-effect="non-scaling-stroke" d="
  M 383.15 838.29
  C 382.66 844.32 382.21 861.48 390.50 863.38
  C 397.99 865.09 405.36 862.47 410.69 857.33
  C 418.68 849.62 417.14 836.87 407.17 831.58
  Q 399.30 827.40 389.78 829.81
  Q 383.71 831.35 383.15 838.29"
/>
<path stroke="#5aa190" vector-effect="non-scaling-stroke" d="
  M 384.13 908.63
  C 383.09 916.35 383.16 930.04 388.05 936.37
  C 393.20 943.05 407.47 939.65 414.30 936.56
  C 425.94 931.29 426.92 918.10 420.08 908.47
  C 414.66 900.86 401.96 895.94 392.44 898.61
  C 387.18 900.08 384.83 903.40 384.13 908.63"
/>
<path stroke="#5aa190" vector-effect="non-scaling-stroke" d="
  M 832.6623 879.3745
  A 28.51 28.11 -13.5 0 0 798.3779 858.6967
  A 28.51 28.11 -13.5 0 0 777.2177 892.6855
  A 28.51 28.11 -13.5 0 0 811.5021 913.3633
  A 28.51 28.11 -13.5 0 0 832.6623 879.3745"
/>
<path stroke="#5aa190" vector-effect="non-scaling-stroke" d="
  M 622.2996 879.1888
  A 28.48 28.10 -15.0 0 0 587.5172 859.4175
  A 28.48 28.10 -15.0 0 0 567.2804 893.9312
  A 28.48 28.10 -15.0 0 0 602.0628 913.7025
  A 28.48 28.10 -15.0 0 0 622.2996 879.1888"
/>
</g>
<path fill="#6d5845" d="
  M 985.68 1094.52
  L 1019.13 1378.05
  A 0.36 0.36 0.0 0 1 1018.55 1378.38
  L 765.17 1175.10
  A 0.41 0.41 0.0 0 0 764.53 1175.26
  L 651.80 1437.60
  A 0.35 0.35 0.0 0 1 651.15 1437.59
  L 533.39 1134.98
  A 0.59 0.59 0.0 0 0 532.49 1134.72
  L 304.01 1305.32
  A 0.39 0.39 0.0 0 1 303.39 1304.95
  L 351.90 988.99
  A 1.02 1.02 0.0 0 0 350.93 987.81
  Q 343.72 987.58 336.81 986.15
  Q 333.83 985.53 331.13 985.85
  Q 199.97 1001.34 68.79 1016.86
  A 0.38 0.38 0.0 0 1 68.45 1016.25
  L 271.48 763.00
  Q 271.98 762.38 271.25 762.07
  L 9.98 649.74
  Q 8.45 649.07 10.00 648.47
  L 285.26 541.29
  A 1.36 1.33 -1.7 0 0 286.04 540.48
  Q 290.90 526.36 299.45 514.14
  A 0.79 0.77 -46.2 0 0 299.44 513.22
  L 141.44 301.48
  Q 140.89 300.75 141.79 300.89
  L 462.44 350.15
  A 0.75 0.75 0.0 0 0 463.30 349.32
  L 429.83 66.09
  A 0.34 0.34 0.0 0 1 430.38 65.78
  L 683.58 268.96
  A 0.64 0.63 31.1 0 0 684.56 268.72
  L 797.23 6.47
  Q 797.51 5.82 797.77 6.48
  L 915.56 309.22
  Q 915.85 309.98 916.50 309.49
  L 1144.99 138.84
  A 0.37 0.37 0.0 0 1 1145.58 139.20
  L 1096.32 460.20
  Q 1096.21 460.91 1096.92 460.83
  L 1380.50 427.36
  A 0.40 0.40 0.0 0 1 1380.73 428.11
  Q 1380.42 428.27 1380.03 428.76
  Q 1278.73 554.99 1177.52 681.12
  A 0.67 0.67 0.0 0 0 1177.77 682.15
  L 1440.01 794.93
  A 0.24 0.24 0.0 0 1 1440.00 795.38
  L 1137.27 913.25
  A 0.64 0.64 0.0 0 0 1136.99 914.22
  L 1307.12 1142.15
  Q 1308.11 1143.48 1306.47 1143.23
  L 986.22 1094.00
  Q 985.61 1093.91 985.68 1094.52
  Z
  M 777.84 484.25
  C 777.45 480.91 768.69 477.91 766.29 477.42
  Q 737.02 471.42 708.29 479.58
  C 703.84 480.84 697.08 483.66 696.30 488.68
  Q 695.69 492.56 695.68 496.50
  C 695.64 513.71 696.55 529.57 697.69 547.99
  Q 700.42 591.80 706.73 635.26
  Q 708.16 645.13 710.72 654.81
  C 712.40 661.16 712.97 664.60 719.73 665.49
  Q 740.87 668.29 760.29 665.60
  C 768.04 664.53 772.44 664.28 773.65 655.96
  Q 776.83 634.16 777.53 624.50
  Q 781.25 573.19 780.36 521.75
  Q 780.04 502.94 777.84 484.25
  Z
  M 813.13 481.13
  Q 806.30 483.55 804.50 491.00
  C 800.64 506.94 799.71 520.82 799.04 538.49
  Q 797.37 582.39 803.31 626.00
  C 804.26 632.93 807.97 659.30 814.98 662.23
  C 819.08 663.94 824.00 664.40 828.57 665.07
  Q 870.70 671.22 910.00 656.79
  C 923.75 651.74 935.35 644.41 944.22 633.51
  C 959.88 614.25 967.27 589.31 964.27 564.55
  C 960.30 531.82 941.48 499.83 911.00 485.52
  C 897.04 478.97 881.73 476.52 865.79 475.37
  Q 846.39 473.98 827.07 477.09
  Q 822.40 477.84 813.13 481.13
  Z
  M 1059.03 545.63
  L 1058.63 534.15
  A 0.74 0.74 0.0 0 1 1059.34 533.38
  Q 1080.51 532.55 1102.00 531.11
  C 1104.80 530.93 1113.20 530.08 1115.02 527.83
  Q 1115.87 526.77 1116.09 525.26
  Q 1118.51 509.17 1117.28 492.97
  C 1116.88 487.63 1116.70 484.19 1115.19 480.13
  A 2.78 2.77 87.3 0 0 1113.31 478.42
  Q 1108.21 477.03 1102.49 476.65
  Q 1050.65 473.19 998.93 478.29
  C 996.51 478.53 991.02 479.07 989.40 481.03
  C 986.40 484.66 985.71 494.53 985.55 499.37
  Q 983.42 563.53 988.99 627.49
  Q 990.01 639.17 991.81 650.74
  C 992.69 656.36 993.67 663.05 998.23 663.84
  C 1010.11 665.90 1019.72 666.03 1034.06 666.23
  Q 1074.71 666.79 1115.01 661.10
  Q 1117.90 660.69 1124.59 658.33
  C 1126.01 657.83 1127.54 656.68 1127.69 655.27
  Q 1130.27 631.31 1125.45 607.74
  C 1124.99 605.50 1124.00 603.39 1121.77 602.97
  Q 1115.10 601.71 1106.22 602.26
  Q 1084.07 603.62 1061.75 603.95
  Q 1061.13 603.96 1061.12 603.34
  L 1061.05 591.15
  Q 1061.05 590.56 1061.63 590.56
  Q 1073.88 590.48 1086.03 588.77
  C 1087.87 588.51 1089.25 587.31 1089.52 585.57
  Q 1092.21 567.78 1085.58 550.05
  C 1085.07 548.68 1084.34 548.05 1082.94 547.85
  Q 1071.36 546.17 1059.64 546.22
  Q 1059.05 546.22 1059.03 545.63
  Z
  M 358.43 549.12
  C 367.50 539.01 381.28 534.94 394.82 535.93
  Q 397.95 536.16 399.40 537.40
  Q 401.48 539.19 401.21 542.43
  A 1.55 1.54 7.3 0 0 402.49 544.08
  Q 406.55 544.76 410.37 544.69
  C 422.30 544.45 434.30 542.29 445.55 538.29
  C 448.71 537.16 454.62 534.47 454.64 531.76
  C 454.78 512.89 448.86 496.73 431.73 487.27
  C 416.33 478.77 398.01 475.79 380.67 477.20
  C 324.05 481.80 288.97 519.71 284.80 575.74
  Q 282.27 609.77 304.07 634.91
  C 332.74 667.96 376.40 673.67 417.03 663.26
  A 0.80 0.79 -17.4 0 1 417.98 663.75
  C 418.67 665.58 420.34 666.23 422.32 666.46
  Q 440.91 668.56 459.50 666.14
  Q 461.32 665.90 463.11 665.10
  A 1.14 1.12 86.7 0 0 463.73 664.39
  Q 465.43 659.05 465.77 654.50
  Q 468.67 616.32 464.41 576.76
  C 463.88 571.79 455.30 570.93 451.52 570.63
  Q 428.87 568.82 407.60 576.53
  C 405.58 577.25 403.89 579.04 403.58 581.42
  Q 402.75 587.76 401.63 594.06
  C 400.64 599.62 398.61 603.23 393.20 604.67
  Q 387.12 606.30 380.21 605.22
  Q 362.21 602.42 354.10 588.06
  C 347.03 575.54 348.93 559.71 358.43 549.12
  Z
  M 671.87 487.26
  C 670.75 484.90 666.87 483.13 664.51 482.64
  Q 638.35 477.25 612.25 482.91
  Q 610.09 483.38 608.20 484.61
  Q 607.76 484.90 607.73 485.42
  Q 607.25 495.32 607.34 498.25
  C 608.22 527.76 608.97 554.42 600.49 580.21
  C 596.85 591.27 588.86 599.26 576.33 597.17
  C 563.43 595.01 558.72 584.41 555.97 573.02
  C 549.10 544.56 553.30 514.64 554.84 485.45
  Q 554.93 483.80 553.41 483.17
  Q 548.24 481.00 541.75 480.01
  Q 520.54 476.79 499.27 479.64
  C 489.17 481.00 487.82 484.10 485.58 493.26
  Q 484.65 497.05 484.13 501.81
  Q 480.03 539.58 483.86 577.33
  Q 485.10 589.55 487.13 597.02
  C 498.60 639.24 540.37 668.36 583.73 667.53
  C 626.28 666.70 662.21 636.42 670.68 594.87
  Q 671.89 588.93 673.54 575.08
  Q 677.63 540.59 675.13 505.86
  Q 674.63 499.00 673.17 492.27
  Q 672.26 488.08 671.87 487.26
  Z
  M 457.26 872.33
  C 464.87 861.12 467.69 849.49 464.85 835.92
  C 459.42 810.00 438.57 797.35 414.00 792.88
  C 390.00 788.51 363.98 789.16 341.28 796.60
  C 337.66 797.79 328.53 801.61 327.98 805.73
  Q 326.88 813.82 326.74 816.50
  Q 323.20 885.76 329.16 954.82
  C 329.79 962.13 330.95 971.75 333.18 977.28
  Q 334.17 979.75 336.48 980.25
  Q 343.85 981.83 353.00 982.22
  Q 383.63 983.51 414.27 982.46
  Q 428.08 981.99 434.16 980.73
  C 464.39 974.44 485.25 945.66 483.73 915.16
  C 482.92 898.75 476.21 885.54 462.40 876.63
  Q 459.87 875.00 457.43 873.25
  A 0.67 0.66 34.8 0 1 457.26 872.33
  Z
  M 755.16 803.15
  C 712.77 829.82 693.61 884.96 718.45 930.31
  C 736.27 962.84 766.96 980.41 803.50 981.94
  C 842.96 983.59 879.26 959.45 894.22 922.95
  C 903.16 901.14 905.42 874.45 897.35 851.91
  C 887.45 824.26 863.93 803.29 835.94 795.26
  C 808.61 787.41 779.57 787.79 755.16 803.15
  Z
  M 659.00 958.77
  Q 680.62 939.52 688.14 911.49
  C 706.62 842.62 657.25 789.67 589.26 790.73
  C 545.72 791.41 508.09 825.87 499.61 867.96
  Q 491.33 909.07 515.59 942.38
  C 532.27 965.29 556.15 978.48 584.77 981.72
  Q 627.75 986.58 659.00 958.77
  Z
  M 1000.56 826.91
  Q 1000.05 813.71 998.78 800.37
  C 998.55 797.90 997.57 795.91 995.25 795.16
  Q 987.38 792.60 977.26 791.97
  Q 954.12 790.56 931.79 796.59
  C 928.51 797.48 921.97 799.44 921.45 803.50
  Q 920.82 808.40 920.75 815.75
  Q 920.29 863.81 923.86 911.75
  Q 925.65 935.84 929.10 959.75
  Q 930.01 966.12 932.36 974.63
  C 933.08 977.26 933.91 978.64 936.72 979.41
  Q 941.53 980.74 946.00 981.08
  Q 965.32 982.57 984.99 978.98
  Q 988.23 978.38 991.26 976.03
  A 1.71 1.68 80.3 0 0 991.83 975.21
  Q 995.05 964.45 995.87 953.24
  A 0.61 0.60 15.6 0 1 996.75 952.75
  Q 1020.79 965.44 1045.64 976.92
  Q 1050.12 978.98 1056.68 980.79
  C 1060.93 981.96 1065.17 976.80 1067.44 973.69
  Q 1083.05 952.37 1087.50 926.25
  Q 1088.04 923.04 1087.23 918.28
  Q 1087.14 917.78 1086.74 917.46
  Q 1086.21 917.04 1085.63 916.67
  Q 1063.61 902.22 1040.15 890.52
  A 0.60 0.60 0.0 0 1 1039.99 889.56
  Q 1056.77 872.45 1072.45 853.96
  Q 1078.03 847.39 1082.64 840.08
  Q 1085.20 836.03 1082.32 832.00
  C 1073.35 819.45 1060.94 807.18 1047.52 798.57
  C 1047.00 798.23 1045.93 797.94 1045.30 797.71
  Q 1044.83 797.53 1044.35 797.69
  Q 1038.89 799.44 1035.98 801.24
  Q 1017.44 812.69 1001.17 827.17
  A 0.37 0.37 0.0 0 1 1000.56 826.91
  Z"
/>
<path fill="#47eada" d="
  M 766.29 477.42
  C 768.69 477.91 777.45 480.91 777.84 484.25
  Q 780.04 502.94 780.36 521.75
  Q 781.25 573.19 777.53 624.50
  Q 776.83 634.16 773.65 655.96
  C 772.44 664.28 768.04 664.53 760.29 665.60
  Q 740.87 668.29 719.73 665.49
  C 712.97 664.60 712.40 661.16 710.72 654.81
  Q 708.16 645.13 706.73 635.26
  Q 700.42 591.80 697.69 547.99
  C 696.55 529.57 695.64 513.71 695.68 496.50
  Q 695.69 492.56 696.30 488.68
  C 697.08 483.66 703.84 480.84 708.29 479.58
  Q 737.02 471.42 766.29 477.42
  Z"
/>
<path fill="#47eada" d="
  M 813.13 481.13
  Q 822.40 477.84 827.07 477.09
  Q 846.39 473.98 865.79 475.37
  C 881.73 476.52 897.04 478.97 911.00 485.52
  C 941.48 499.83 960.30 531.82 964.27 564.55
  C 967.27 589.31 959.88 614.25 944.22 633.51
  C 935.35 644.41 923.75 651.74 910.00 656.79
  Q 870.70 671.22 828.57 665.07
  C 824.00 664.40 819.08 663.94 814.98 662.23
  C 807.97 659.30 804.26 632.93 803.31 626.00
  Q 797.37 582.39 799.04 538.49
  C 799.71 520.82 800.64 506.94 804.50 491.00
  Q 806.30 483.55 813.13 481.13
  Z
  M 904.04 571.49
  C 902.62 556.19 885.89 545.00 871.25 546.35
  C 864.32 546.99 860.80 550.08 860.01 557.01
  Q 858.18 573.20 862.04 587.06
  Q 864.08 594.41 871.23 595.16
  C 885.98 596.72 905.78 590.08 904.04 571.49
  Z"
/>
<path fill="#47eada" d="
  M 1059.64 546.22
  Q 1071.36 546.17 1082.94 547.85
  C 1084.34 548.05 1085.07 548.68 1085.58 550.05
  Q 1092.21 567.78 1089.52 585.57
  C 1089.25 587.31 1087.87 588.51 1086.03 588.77
  Q 1073.88 590.48 1061.63 590.56
  Q 1061.05 590.56 1061.05 591.15
  L 1061.12 603.34
  Q 1061.13 603.96 1061.75 603.95
  Q 1084.07 603.62 1106.22 602.26
  Q 1115.10 601.71 1121.77 602.97
  C 1124.00 603.39 1124.99 605.50 1125.45 607.74
  Q 1130.27 631.31 1127.69 655.27
  C 1127.54 656.68 1126.01 657.83 1124.59 658.33
  Q 1117.90 660.69 1115.01 661.10
  Q 1074.71 666.79 1034.06 666.23
  C 1019.72 666.03 1010.11 665.90 998.23 663.84
  C 993.67 663.05 992.69 656.36 991.81 650.74
  Q 990.01 639.17 988.99 627.49
  Q 983.42 563.53 985.55 499.37
  C 985.71 494.53 986.40 484.66 989.40 481.03
  C 991.02 479.07 996.51 478.53 998.93 478.29
  Q 1050.65 473.19 1102.49 476.65
  Q 1108.21 477.03 1113.31 478.42
  A 2.78 2.77 87.3 0 1 1115.19 480.13
  C 1116.70 484.19 1116.88 487.63 1117.28 492.97
  Q 1118.51 509.17 1116.09 525.26
  Q 1115.87 526.77 1115.02 527.83
  C 1113.20 530.08 1104.80 530.93 1102.00 531.11
  Q 1080.51 532.55 1059.34 533.38
  A 0.74 0.74 0.0 0 0 1058.63 534.15
  L 1059.03 545.63
  Q 1059.05 546.22 1059.64 546.22
  Z"
/>
<path fill="#47eada" d="
  M 358.43 549.12
  C 348.93 559.71 347.03 575.54 354.10 588.06
  Q 362.21 602.42 380.21 605.22
  Q 387.12 606.30 393.20 604.67
  C 398.61 603.23 400.64 599.62 401.63 594.06
  Q 402.75 587.76 403.58 581.42
  C 403.89 579.04 405.58 577.25 407.60 576.53
  Q 428.87 568.82 451.52 570.63
  C 455.30 570.93 463.88 571.79 464.41 576.76
  Q 468.67 616.32 465.77 654.50
  Q 465.43 659.05 463.73 664.39
  A 1.14 1.12 86.7 0 1 463.11 665.10
  Q 461.32 665.90 459.50 666.14
  Q 440.91 668.56 422.32 666.46
  C 420.34 666.23 418.67 665.58 417.98 663.75
  A 0.80 0.79 -17.4 0 0 417.03 663.26
  C 376.40 673.67 332.74 667.96 304.07 634.91
  Q 282.27 609.77 284.80 575.74
  C 288.97 519.71 324.05 481.80 380.67 477.20
  C 398.01 475.79 416.33 478.77 431.73 487.27
  C 448.86 496.73 454.78 512.89 454.64 531.76
  C 454.62 534.47 448.71 537.16 445.55 538.29
  C 434.30 542.29 422.30 544.45 410.37 544.69
  Q 406.55 544.76 402.49 544.08
  A 1.55 1.54 7.3 0 1 401.21 542.43
  Q 401.48 539.19 399.40 537.40
  Q 397.95 536.16 394.82 535.93
  C 381.28 534.94 367.50 539.01 358.43 549.12
  Z"
/>
<path fill="#47eada" d="
  M 664.51 482.64
  C 666.87 483.13 670.75 484.90 671.87 487.26
  Q 672.26 488.08 673.17 492.27
  Q 674.63 499.00 675.13 505.86
  Q 677.63 540.59 673.54 575.08
  Q 671.89 588.93 670.68 594.87
  C 662.21 636.42 626.28 666.70 583.73 667.53
  C 540.37 668.36 498.60 639.24 487.13 597.02
  Q 485.10 589.55 483.86 577.33
  Q 480.03 539.58 484.13 501.81
  Q 484.65 497.05 485.58 493.26
  C 487.82 484.10 489.17 481.00 499.27 479.64
  Q 520.54 476.79 541.75 480.01
  Q 548.24 481.00 553.41 483.17
  Q 554.93 483.80 554.84 485.45
  C 553.30 514.64 549.10 544.56 555.97 573.02
  C 558.72 584.41 563.43 595.01 576.33 597.17
  C 588.86 599.26 596.85 591.27 600.49 580.21
  C 608.97 554.42 608.22 527.76 607.34 498.25
  Q 607.25 495.32 607.73 485.42
  Q 607.76 484.90 608.20 484.61
  Q 610.09 483.38 612.25 482.91
  Q 638.35 477.25 664.51 482.64
  Z"
/>
<path fill="#6d5845" d="
  M 871.25 546.35
  C 885.89 545.00 902.62 556.19 904.04 571.49
  C 905.78 590.08 885.98 596.72 871.23 595.16
  Q 864.08 594.41 862.04 587.06
  Q 858.18 573.20 860.01 557.01
  C 860.80 550.08 864.32 546.99 871.25 546.35
  Z"
/>
<path fill="#47eada" d="
  M 457.43 873.25
  Q 459.87 875.00 462.40 876.63
  C 476.21 885.54 482.92 898.75 483.73 915.16
  C 485.25 945.66 464.39 974.44 434.16 980.73
  Q 428.08 981.99 414.27 982.46
  Q 383.63 983.51 353.00 982.22
  Q 343.85 981.83 336.48 980.25
  Q 334.17 979.75 333.18 977.28
  C 330.95 971.75 329.79 962.13 329.16 954.82
  Q 323.20 885.76 326.74 816.50
  Q 326.88 813.82 327.98 805.73
  C 328.53 801.61 337.66 797.79 341.28 796.60
  C 363.98 789.16 390.00 788.51 414.00 792.88
  C 438.57 797.35 459.42 810.00 464.85 835.92
  C 467.69 849.49 464.87 861.12 457.26 872.33
  A 0.67 0.66 34.8 0 0 457.43 873.25
  Z
  M 383.15 838.29
  C 382.66 844.32 382.21 861.48 390.50 863.38
  C 397.99 865.09 405.36 862.47 410.69 857.33
  C 418.68 849.62 417.14 836.87 407.17 831.58
  Q 399.30 827.40 389.78 829.81
  Q 383.71 831.35 383.15 838.29
  Z
  M 384.13 908.63
  C 383.09 916.35 383.16 930.04 388.05 936.37
  C 393.20 943.05 407.47 939.65 414.30 936.56
  C 425.94 931.29 426.92 918.10 420.08 908.47
  C 414.66 900.86 401.96 895.94 392.44 898.61
  C 387.18 900.08 384.83 903.40 384.13 908.63
  Z"
/>
<path fill="#47eada" d="
  M 718.45 930.31
  C 693.61 884.96 712.77 829.82 755.16 803.15
  C 779.57 787.79 808.61 787.41 835.94 795.26
  C 863.93 803.29 887.45 824.26 897.35 851.91
  C 905.42 874.45 903.16 901.14 894.22 922.95
  C 879.26 959.45 842.96 983.59 803.50 981.94
  C 766.96 980.41 736.27 962.84 718.45 930.31
  Z
  M 832.6623 879.3745
  A 28.51 28.11 -13.5 0 0 798.3779 858.6967
  A 28.51 28.11 -13.5 0 0 777.2177 892.6855
  A 28.51 28.11 -13.5 0 0 811.5021 913.3633
  A 28.51 28.11 -13.5 0 0 832.6623 879.3745
  Z"
/>
<path fill="#47eada" d="
  M 659.00 958.77
  Q 627.75 986.58 584.77 981.72
  C 556.15 978.48 532.27 965.29 515.59 942.38
  Q 491.33 909.07 499.61 867.96
  C 508.09 825.87 545.72 791.41 589.26 790.73
  C 657.25 789.67 706.62 842.62 688.14 911.49
  Q 680.62 939.52 659.00 958.77
  Z
  M 622.2996 879.1888
  A 28.48 28.10 -15.0 0 0 587.5172 859.4175
  A 28.48 28.10 -15.0 0 0 567.2804 893.9312
  A 28.48 28.10 -15.0 0 0 602.0628 913.7025
  A 28.48 28.10 -15.0 0 0 622.2996 879.1888
  Z"
/>
<path fill="#47eada" d="
  M 1000.56 826.91
  A 0.37 0.37 0.0 0 0 1001.17 827.17
  Q 1017.44 812.69 1035.98 801.24
  Q 1038.89 799.44 1044.35 797.69
  Q 1044.83 797.53 1045.30 797.71
  C 1045.93 797.94 1047.00 798.23 1047.52 798.57
  C 1060.94 807.18 1073.35 819.45 1082.32 832.00
  Q 1085.20 836.03 1082.64 840.08
  Q 1078.03 847.39 1072.45 853.96
  Q 1056.77 872.45 1039.99 889.56
  A 0.60 0.60 0.0 0 0 1040.15 890.52
  Q 1063.61 902.22 1085.63 916.67
  Q 1086.21 917.04 1086.74 917.46
  Q 1087.14 917.78 1087.23 918.28
  Q 1088.04 923.04 1087.50 926.25
  Q 1083.05 952.37 1067.44 973.69
  C 1065.17 976.80 1060.93 981.96 1056.68 980.79
  Q 1050.12 978.98 1045.64 976.92
  Q 1020.79 965.44 996.75 952.75
  A 0.61 0.60 15.6 0 0 995.87 953.24
  Q 995.05 964.45 991.83 975.21
  A 1.71 1.68 80.3 0 1 991.26 976.03
  Q 988.23 978.38 984.99 978.98
  Q 965.32 982.57 946.00 981.08
  Q 941.53 980.74 936.72 979.41
  C 933.91 978.64 933.08 977.26 932.36 974.63
  Q 930.01 966.12 929.10 959.75
  Q 925.65 935.84 923.86 911.75
  Q 920.29 863.81 920.75 815.75
  Q 920.82 808.40 921.45 803.50
  C 921.97 799.44 928.51 797.48 931.79 796.59
  Q 954.12 790.56 977.26 791.97
  Q 987.38 792.60 995.25 795.16
  C 997.57 795.91 998.55 797.90 998.78 800.37
  Q 1000.05 813.71 1000.56 826.91
  Z"
/>
<path fill="#6d5845" d="
  M 390.50 863.38
  C 382.21 861.48 382.66 844.32 383.15 838.29
  Q 383.71 831.35 389.78 829.81
  Q 399.30 827.40 407.17 831.58
  C 417.14 836.87 418.68 849.62 410.69 857.33
  C 405.36 862.47 397.99 865.09 390.50 863.38
  Z"
/>
<ellipse fill="#6d5845" cx="0.00" cy="0.00" transform="translate(804.94,886.03) rotate(-13.5)" rx="28.51" ry="28.11"/>
<ellipse fill="#6d5845" cx="0.00" cy="0.00" transform="translate(594.79,886.56) rotate(-15.0)" rx="28.48" ry="28.10"/>
<path fill="#6d5845" d="
  M 384.13 908.63
  C 384.83 903.40 387.18 900.08 392.44 898.61
  C 401.96 895.94 414.66 900.86 420.08 908.47
  C 426.92 918.10 425.94 931.29 414.30 936.56
  C 407.47 939.65 393.20 943.05 388.05 936.37
  C 383.16 930.04 383.09 916.35 384.13 908.63
  Z"
/>
</svg>
