<?xml version="1.0" encoding="UTF-8" standalone="no"?>
<!DOCTYPE svg PUBLIC "-//W3C//DTD SVG 1.1//EN" "http://www.w3.org/Graphics/SVG/1.1/DTD/svg11.dtd">
<svg xmlns="http://www.w3.org/2000/svg" version="1.1" viewBox="0.00 0.00 1743.00 535.00">
<g stroke-width="2.00" fill="none" stroke-linecap="butt">
<path stroke="#627b75" vector-effect="non-scaling-stroke" d="
  M 843.23 135.03
  Q 852.54 134.96 861.74 133.51
  C 864.27 133.11 866.64 132.03 867.12 129.50
  Q 870.29 112.88 863.63 96.03
  C 863.11 94.73 862.02 93.21 860.76 92.94
  Q 852.99 91.27 841.69 91.01
  A 0.75 0.74 -1.7 0 1 840.97 90.34
  L 840.58 85.91
  Q 840.52 85.23 841.21 85.20
  Q 851.56 84.71 876.25 83.21
  C 879.44 83.02 889.45 81.85 890.17 78.02
  Q 893.33 61.16 891.48 44.17
  Q 890.74 37.40 890.37 36.34
  Q 888.82 31.91 883.32 31.17
  Q 878.18 30.48 872.99 30.13
  Q 838.12 27.79 803.24 30.02
  Q 786.23 31.10 779.48 32.70
  Q 775.93 33.54 774.83 35.91
  Q 771.80 42.45 771.47 52.00
  Q 769.68 104.68 773.58 157.24
  Q 774.86 174.45 777.31 188.50
  C 778.08 192.95 779.29 197.73 784.57 198.69
  C 794.28 200.48 802.39 200.72 813.84 200.93
  C 824.19 201.13 897.61 200.78 900.02 190.51
  C 902.62 179.45 901.29 164.16 899.62 152.51
  C 898.92 147.71 898.40 141.81 892.74 140.79
  Q 886.68 139.69 880.49 140.08
  Q 862.02 141.25 843.43 141.24
  Q 842.78 141.24 842.76 140.60
  L 842.62 135.67
  Q 842.60 135.04 843.23 135.03"
/>
<path stroke="#627b75" vector-effect="non-scaling-stroke" d="
  M 1572.05 122.83
  C 1571.92 153.35 1589.14 179.04 1616.49 191.98
  C 1641.48 203.81 1672.10 203.45 1697.88 194.68
  C 1703.81 192.66 1707.22 187.70 1708.20 181.76
  C 1710.38 168.51 1707.59 138.54 1690.55 134.47
  Q 1688.26 133.93 1684.93 134.67
  C 1671.83 137.60 1643.43 141.52 1640.27 121.49
  C 1637.42 103.45 1656.05 91.28 1671.76 89.31
  Q 1675.92 88.79 1687.97 88.03
  C 1696.89 87.47 1700.49 77.30 1700.02 69.62
  Q 1699.16 55.53 1693.41 42.65
  C 1690.06 35.13 1684.24 30.54 1675.92 29.59
  C 1617.38 22.91 1572.30 64.65 1572.05 122.83"
/>
<path stroke="#627b75" vector-effect="non-scaling-stroke" d="
  M 546.41 101.30
  Q 560.47 100.73 574.50 99.74
  C 579.25 99.41 583.17 99.25 585.51 94.48
  C 593.13 78.96 594.42 53.87 588.90 37.57
  C 586.55 30.65 582.42 30.94 575.34 30.63
  Q 512.72 27.90 450.17 31.91
  Q 445.65 32.20 441.34 32.82
  C 436.97 33.46 432.23 33.74 428.09 35.39
  C 424.87 36.68 423.92 39.31 423.62 42.50
  Q 421.29 67.89 427.10 92.63
  C 428.59 98.98 432.72 99.30 438.27 100.08
  Q 453.82 102.25 469.63 102.33
  A 0.86 0.85 88.6 0 1 470.48 103.15
  Q 472.42 140.96 477.79 178.73
  C 478.48 183.62 480.72 197.68 485.48 198.66
  Q 509.29 203.57 532.53 198.55
  Q 538.79 197.19 539.81 191.14
  C 540.51 186.99 541.59 182.58 541.89 179.13
  Q 545.26 140.58 545.84 101.88
  Q 545.85 101.32 546.41 101.30"
/>
<path stroke="#627b75" vector-effect="non-scaling-stroke" d="
  M 696.78 155.95
  Q 698.20 174.70 701.52 191.44
  C 702.81 197.91 706.61 199.26 712.50 200.25
  Q 730.22 203.21 747.01 200.32
  C 753.87 199.13 754.90 193.37 755.82 187.75
  Q 758.20 173.17 759.66 154.99
  Q 763.80 103.45 762.82 51.75
  Q 762.71 45.87 762.33 43.99
  C 761.17 38.18 755.89 35.20 750.48 33.55
  Q 726.81 26.31 702.78 32.42
  C 698.67 33.46 693.28 35.84 692.95 40.26
  Q 691.32 61.81 692.58 89.23
  A 0.59 0.58 -1.9 0 1 692.00 89.84
  L 673.50 90.15
  Q 673.07 90.15 673.06 89.72
  Q 672.59 66.35 670.72 43.06
  C 670.18 36.26 665.78 33.78 659.50 32.29
  Q 638.62 27.37 617.75 32.32
  C 612.58 33.54 605.18 35.90 602.38 40.83
  Q 601.20 42.92 601.10 46.88
  Q 600.84 56.56 601.46 69.99
  Q 604.01 125.66 611.56 176.24
  C 612.23 180.70 614.64 196.96 618.70 199.12
  Q 621.72 200.73 627.98 201.39
  Q 644.94 203.18 661.59 199.48
  Q 667.12 198.24 668.00 193.02
  Q 670.71 176.91 671.38 160.27
  A 0.92 0.91 87.0 0 1 672.16 159.40
  L 696.31 155.59
  A 0.41 0.40 -7.3 0 1 696.78 155.95"
/>
<path stroke="#627b75" vector-effect="non-scaling-stroke" d="
  M 1348.39 103.03
  Q 1350.47 139.39 1355.33 175.49
  Q 1356.52 184.39 1359.04 193.00
  C 1360.68 198.62 1364.64 199.21 1369.75 199.90
  Q 1389.86 202.64 1409.79 198.92
  Q 1416.34 197.70 1417.82 190.66
  Q 1419.49 182.72 1419.75 180.01
  Q 1423.36 140.96 1423.73 101.67
  A 0.45 0.44 -0.7 0 1 1424.17 101.23
  Q 1440.55 100.81 1457.01 99.28
  C 1462.39 98.78 1464.42 93.57 1465.90 88.72
  C 1470.81 72.65 1471.96 54.96 1467.29 38.69
  C 1465.55 32.65 1462.85 31.08 1456.48 30.78
  Q 1389.85 27.66 1323.29 32.26
  Q 1316.45 32.73 1307.52 34.93
  C 1301.71 36.36 1301.48 41.53 1301.18 46.50
  Q 1299.84 69.26 1304.81 91.49
  Q 1305.49 94.54 1307.12 97.26
  Q 1307.38 97.69 1307.84 97.89
  Q 1312.51 99.81 1314.74 100.07
  Q 1331.20 101.97 1347.78 102.43
  Q 1348.36 102.45 1348.39 103.03"
/>
<path stroke="#627b75" vector-effect="non-scaling-stroke" d="
  M 1555.12 188.87
  Q 1556.81 178.46 1557.19 174.49
  Q 1563.14 110.98 1559.96 47.25
  C 1559.58 39.70 1558.62 34.75 1550.43 32.56
  Q 1521.99 24.98 1493.15 33.80
  C 1483.48 36.76 1481.73 42.36 1481.89 51.75
  Q 1482.96 115.70 1492.41 177.80
  Q 1493.20 183.03 1494.24 187.18
  C 1495.53 192.34 1496.80 198.48 1501.51 199.71
  C 1515.44 203.33 1532.19 202.39 1546.26 200.00
  C 1552.75 198.90 1554.19 194.65 1555.12 188.87"
/>
<path stroke="#627b75" vector-effect="non-scaling-stroke" d="
  M 179.23 143.77
  Q 180.35 167.73 184.77 191.42
  C 185.22 193.85 186.94 200.37 189.99 200.69
  Q 212.20 203.03 236.68 199.57
  Q 241.63 198.87 242.47 193.90
  C 245.01 178.88 245.44 166.49 245.99 148.74
  Q 247.36 104.73 245.10 60.75
  Q 244.52 49.46 242.33 38.37
  C 241.45 33.88 235.59 32.99 231.49 32.34
  Q 210.07 28.97 188.66 32.37
  C 183.51 33.19 179.17 34.90 175.42 38.92
  Q 167.36 47.57 159.26 59.27
  Q 148.46 74.87 137.91 90.60
  A 0.39 0.39 0.0 0 1 137.26 90.59
  C 125.96 73.40 114.35 55.27 100.58 39.90
  Q 95.02 33.69 85.23 32.29
  Q 62.33 29.00 42.76 32.39
  C 38.30 33.17 33.27 34.47 32.42 38.49
  C 31.14 44.51 30.47 51.35 30.16 58.21
  Q 27.92 108.09 30.03 158.00
  Q 30.59 171.30 32.35 186.66
  Q 33.01 192.42 34.89 197.39
  A 1.46 1.42 5.2 0 0 35.52 198.13
  Q 37.89 199.49 40.24 199.88
  Q 61.52 203.39 83.59 201.12
  C 86.76 200.79 88.60 199.59 89.44 196.59
  Q 92.01 187.32 93.22 177.74
  Q 95.24 161.74 96.62 145.51
  Q 96.67 144.81 97.15 145.32
  C 107.03 155.64 116.93 166.38 128.16 175.27
  C 133.37 179.40 136.80 182.28 142.61 177.90
  C 155.80 167.95 167.57 155.70 178.70 143.58
  A 0.31 0.31 0.0 0 1 179.23 143.77"
/>
<path stroke="#627b75" vector-effect="non-scaling-stroke" d="
  M 413.48 197.89
  C 420.82 196.83 425.04 193.43 423.08 185.79
  Q 407.76 126.13 385.35 68.79
  C 382.17 60.64 378.80 53.44 374.89 46.06
  Q 370.83 38.41 368.14 36.34
  Q 363.51 32.76 360.38 32.25
  C 342.07 29.24 323.36 30.38 305.54 35.39
  C 300.78 36.73 296.94 38.89 295.00 43.02
  Q 291.35 50.78 288.50 58.87
  Q 275.00 97.14 266.28 136.77
  Q 260.92 161.12 258.46 180.59
  Q 258.06 183.73 257.97 186.66
  C 257.70 194.77 258.38 198.78 267.50 199.79
  Q 283.53 201.57 299.64 200.39
  Q 303.78 200.08 305.56 197.06
  Q 310.60 188.52 316.65 175.31
  C 319.50 169.07 321.95 166.66 328.76 166.57
  Q 337.49 166.44 346.23 166.54
  C 353.67 166.62 356.38 173.67 358.45 179.93
  Q 360.91 187.34 364.08 194.42
  C 366.38 199.58 369.29 201.08 375.12 200.99
  Q 394.39 200.67 413.48 197.89"
/>
<path stroke="#627b75" vector-effect="non-scaling-stroke" d="
  M 1058.23 144.03
  Q 1059.27 163.41 1062.06 182.60
  Q 1063.10 189.78 1065.17 196.72
  Q 1066.28 200.46 1069.74 200.80
  Q 1088.07 202.60 1109.50 200.50
  C 1114.40 200.02 1119.77 200.08 1121.09 194.55
  C 1123.94 182.63 1124.37 169.48 1124.81 157.25
  Q 1126.53 108.73 1123.92 60.25
  Q 1123.52 52.80 1122.59 45.37
  C 1121.81 39.19 1121.63 34.64 1115.39 33.27
  Q 1096.54 29.15 1075.72 31.10
  Q 1065.64 32.05 1060.78 34.28
  Q 1056.55 36.22 1052.71 40.72
  C 1039.42 56.34 1028.30 73.60 1016.90 90.60
  A 0.40 0.40 0.0 0 1 1016.24 90.60
  Q 1003.87 71.67 990.50 53.29
  C 985.60 46.55 977.55 34.97 969.01 33.19
  Q 945.20 28.21 921.25 32.44
  C 918.29 32.97 912.27 34.52 911.53 38.08
  Q 909.89 46.06 909.39 55.51
  Q 906.59 109.21 909.10 161.01
  Q 909.89 177.11 911.98 190.75
  Q 912.46 193.85 914.06 197.55
  A 1.45 1.44 -87.5 0 0 914.71 198.26
  Q 917.12 199.58 919.37 199.93
  Q 937.92 202.90 957.75 201.63
  C 962.08 201.36 967.04 201.36 968.27 197.00
  C 972.91 180.53 974.15 162.57 975.62 145.51
  Q 975.68 144.82 976.16 145.32
  C 985.61 155.24 995.12 165.53 1005.79 174.16
  C 1011.67 178.92 1015.44 182.71 1022.06 177.61
  C 1035.24 167.45 1046.01 155.52 1057.70 143.83
  Q 1058.19 143.34 1058.23 144.03"
/>
<path stroke="#627b75" vector-effect="non-scaling-stroke" d="
  M 1231.76 30.99
  C 1215.37 29.68 1198.73 31.16 1182.99 35.94
  C 1175.43 38.24 1173.56 43.36 1170.84 50.03
  Q 1164.79 64.89 1160.06 80.21
  Q 1146.06 125.50 1138.52 172.28
  C 1137.54 178.35 1135.36 192.12 1138.39 196.34
  C 1142.70 202.31 1168.93 200.69 1176.04 200.69
  C 1184.02 200.70 1185.25 196.03 1189.08 188.63
  Q 1192.66 181.71 1195.96 174.64
  C 1198.36 169.50 1201.14 166.56 1206.77 166.55
  Q 1214.47 166.54 1222.24 166.48
  C 1229.01 166.43 1232.16 167.56 1234.83 173.68
  Q 1238.82 182.78 1240.07 186.99
  C 1241.48 191.69 1245.13 200.79 1250.24 200.94
  Q 1267.71 201.45 1289.50 198.38
  C 1297.86 197.20 1304.64 195.41 1302.01 185.24
  Q 1290.33 140.11 1273.61 93.16
  Q 1266.81 74.07 1258.68 55.53
  C 1255.92 49.24 1250.38 37.33 1244.02 34.15
  Q 1238.84 31.55 1231.76 30.99"
/>
<path stroke="#627b75" vector-effect="non-scaling-stroke" d="
  M 350.85 123.06
  C 352.67 117.84 343.07 103.54 339.74 99.77
  C 336.69 96.31 333.84 96.48 331.25 100.34
  Q 325.50 108.89 322.98 119.02
  Q 321.09 126.63 329.03 127.73
  C 334.36 128.47 348.77 129.04 350.85 123.06"
/>
<path stroke="#627b75" vector-effect="non-scaling-stroke" d="
  M 1229.68 118.57
  C 1228.29 114.80 1217.42 89.72 1210.56 99.82
  Q 1204.51 108.72 1201.98 119.19
  C 1200.89 123.67 1202.10 126.61 1206.76 127.51
  C 1212.24 128.57 1233.83 129.84 1229.68 118.57"
/>
</g>
<path fill="#634b3c" d="
  M 845.22 139.04
  Q 863.68 138.77 882.11 137.80
  C 888.01 137.49 897.07 137.30 899.90 143.36
  Q 901.47 146.71 902.21 152.73
  C 903.49 163.08 904.11 173.57 903.47 184.00
  Q 903.17 189.04 901.30 193.67
  Q 901.11 194.15 900.66 194.40
  C 892.99 198.79 883.58 199.62 874.99 200.53
  Q 837.02 204.56 798.87 202.91
  Q 790.59 202.55 782.52 200.65
  C 779.08 199.84 777.62 197.79 776.53 194.34
  Q 774.02 186.44 773.28 179.51
  Q 766.54 115.98 769.28 49.50
  Q 769.46 45.19 771.40 38.21
  C 773.61 30.24 779.08 30.01 787.13 29.24
  Q 817.90 26.30 848.80 26.85
  C 862.97 27.10 872.46 27.34 884.50 29.17
  C 890.38 30.06 892.43 33.33 893.26 39.16
  Q 895.57 55.27 893.59 72.16
  C 892.99 77.25 892.58 81.83 887.04 83.62
  Q 881.88 85.29 875.75 85.72
  Q 859.64 86.87 843.41 87.22
  A 0.77 0.77 0.0 0 0 842.65 88.01
  Q 842.68 89.05 844.00 89.04
  Q 856.14 88.92 862.55 90.86
  C 868.58 92.70 870.60 116.51 870.50 121.89
  Q 870.39 128.01 868.47 132.20
  C 866.18 137.20 850.25 137.13 845.40 137.23
  A 0.71 0.70 2.8 0 0 844.71 137.85
  L 844.64 138.40
  A 0.58 0.57 -87.3 0 0 845.22 139.04
  Z
  M 843.23 135.03
  Q 852.54 134.96 861.74 133.51
  C 864.27 133.11 866.64 132.03 867.12 129.50
  Q 870.29 112.88 863.63 96.03
  C 863.11 94.73 862.02 93.21 860.76 92.94
  Q 852.99 91.27 841.69 91.01
  A 0.75 0.74 -1.7 0 1 840.97 90.34
  L 840.58 85.91
  Q 840.52 85.23 841.21 85.20
  Q 851.56 84.71 876.25 83.21
  C 879.44 83.02 889.45 81.85 890.17 78.02
  Q 893.33 61.16 891.48 44.17
  Q 890.74 37.40 890.37 36.34
  Q 888.82 31.91 883.32 31.17
  Q 878.18 30.48 872.99 30.13
  Q 838.12 27.79 803.24 30.02
  Q 786.23 31.10 779.48 32.70
  Q 775.93 33.54 774.83 35.91
  Q 771.80 42.45 771.47 52.00
  Q 769.68 104.68 773.58 157.24
  Q 774.86 174.45 777.31 188.50
  C 778.08 192.95 779.29 197.73 784.57 198.69
  C 794.28 200.48 802.39 200.72 813.84 200.93
  C 824.19 201.13 897.61 200.78 900.02 190.51
  C 902.62 179.45 901.29 164.16 899.62 152.51
  C 898.92 147.71 898.40 141.81 892.74 140.79
  Q 886.68 139.69 880.49 140.08
  Q 862.02 141.25 843.43 141.24
  Q 842.78 141.24 842.76 140.60
  L 842.62 135.67
  Q 842.60 135.04 843.23 135.03
  Z"
/>
<path fill="#634b3c" d="
  M 1594.18 179.86
  Q 1592.34 178.43 1590.20 176.06
  Q 1565.94 149.28 1570.21 112.24
  C 1572.40 93.32 1578.77 75.44 1590.53 60.61
  Q 1611.08 34.69 1644.10 28.31
  Q 1657.44 25.73 1672.93 26.91
  Q 1681.07 27.54 1685.44 29.96
  C 1696.91 36.32 1701.24 55.63 1702.38 67.52
  C 1703.11 75.23 1700.81 84.95 1693.51 88.98
  C 1689.15 91.39 1682.40 90.76 1677.17 91.00
  Q 1660.95 91.76 1649.63 102.33
  Q 1645.19 106.48 1643.56 110.79
  Q 1641.57 116.03 1642.77 121.59
  C 1646.38 138.45 1671.15 135.29 1683.17 132.66
  Q 1687.99 131.60 1690.64 132.03
  C 1707.51 134.73 1711.93 162.37 1711.51 175.01
  C 1711.32 180.79 1709.34 188.86 1705.08 193.35
  C 1702.55 196.02 1698.24 197.21 1694.52 198.32
  C 1661.80 208.05 1627.18 204.69 1599.49 184.53
  C 1597.70 183.23 1596.13 181.39 1594.18 179.86
  Z
  M 1572.05 122.83
  C 1571.92 153.35 1589.14 179.04 1616.49 191.98
  C 1641.48 203.81 1672.10 203.45 1697.88 194.68
  C 1703.81 192.66 1707.22 187.70 1708.20 181.76
  C 1710.38 168.51 1707.59 138.54 1690.55 134.47
  Q 1688.26 133.93 1684.93 134.67
  C 1671.83 137.60 1643.43 141.52 1640.27 121.49
  C 1637.42 103.45 1656.05 91.28 1671.76 89.31
  Q 1675.92 88.79 1687.97 88.03
  C 1696.89 87.47 1700.49 77.30 1700.02 69.62
  Q 1699.16 55.53 1693.41 42.65
  C 1690.06 35.13 1684.24 30.54 1675.92 29.59
  C 1617.38 22.91 1572.30 64.65 1572.05 122.83
  Z"
/>
<path fill="#634b3c" d="
  M 467.82 104.75
  C 456.14 104.71 442.61 104.18 431.38 101.18
  C 425.95 99.73 424.52 93.52 423.61 88.70
  Q 419.73 68.15 420.66 47.24
  Q 420.92 41.50 422.51 37.26
  C 424.44 32.12 435.21 31.06 439.83 30.59
  Q 460.37 28.54 481.00 27.83
  Q 528.38 26.19 575.75 28.22
  Q 582.26 28.50 583.47 28.82
  C 589.86 30.55 592.21 38.08 593.20 43.98
  Q 597.45 69.42 588.73 93.76
  C 586.59 99.73 582.84 101.35 576.47 101.90
  Q 562.47 103.12 548.48 103.58
  Q 547.96 103.59 547.95 104.12
  Q 547.72 141.29 544.29 178.24
  C 543.75 184.06 542.66 189.95 541.03 195.00
  C 539.28 200.41 530.93 201.59 526.00 202.22
  Q 505.66 204.84 486.23 201.41
  Q 484.78 201.15 482.75 199.86
  C 476.67 195.99 474.29 173.59 473.45 166.26
  C 471.12 145.91 469.59 125.62 468.28 105.19
  Q 468.25 104.75 467.82 104.75
  Z
  M 546.41 101.30
  Q 560.47 100.73 574.50 99.74
  C 579.25 99.41 583.17 99.25 585.51 94.48
  C 593.13 78.96 594.42 53.87 588.90 37.57
  C 586.55 30.65 582.42 30.94 575.34 30.63
  Q 512.72 27.90 450.17 31.91
  Q 445.65 32.20 441.34 32.82
  C 436.97 33.46 432.23 33.74 428.09 35.39
  C 424.87 36.68 423.92 39.31 423.62 42.50
  Q 421.29 67.89 427.10 92.63
  C 428.59 98.98 432.72 99.30 438.27 100.08
  Q 453.82 102.25 469.63 102.33
  A 0.86 0.85 88.6 0 1 470.48 103.15
  Q 472.42 140.96 477.79 178.73
  C 478.48 183.62 480.72 197.68 485.48 198.66
  Q 509.29 203.57 532.53 198.55
  Q 538.79 197.19 539.81 191.14
  C 540.51 186.99 541.59 182.58 541.89 179.13
  Q 545.26 140.58 545.84 101.88
  Q 545.85 101.32 546.41 101.30
  Z"
/>
<path fill="#634b3c" d="
  M 694.13 158.44
  L 674.16 161.48
  A 0.59 0.58 -3.7 0 0 673.67 162.03
  Q 673.02 174.64 671.47 186.99
  Q 670.88 191.71 669.45 196.21
  C 667.32 202.92 655.42 203.34 649.40 203.97
  Q 634.77 205.48 620.74 202.56
  Q 615.48 201.46 613.72 196.29
  Q 610.97 188.13 609.64 179.68
  Q 603.75 142.00 601.07 103.98
  C 599.68 84.26 598.21 64.12 598.51 45.75
  C 598.61 39.52 603.18 34.70 609.02 32.61
  Q 634.41 23.54 660.77 30.15
  C 667.19 31.76 672.26 34.59 672.91 41.67
  Q 675.00 64.16 675.10 87.12
  A 0.80 0.80 0.0 0 0 675.94 87.92
  L 689.78 87.39
  Q 690.19 87.38 690.18 86.97
  Q 689.46 66.68 690.17 46.42
  C 690.38 40.44 690.46 35.83 695.17 32.90
  Q 699.06 30.47 705.73 29.07
  Q 730.06 23.99 753.52 31.99
  C 759.38 33.98 763.95 38.05 764.72 44.45
  Q 765.42 50.28 765.48 57.00
  Q 766.07 115.36 760.45 171.68
  C 759.77 178.54 757.89 198.36 752.64 200.75
  Q 748.14 202.79 743.18 203.34
  Q 727.99 205.03 712.86 202.97
  C 706.62 202.12 701.41 200.16 699.87 193.72
  Q 695.75 176.49 694.61 158.83
  Q 694.58 158.37 694.13 158.44
  Z
  M 696.78 155.95
  Q 698.20 174.70 701.52 191.44
  C 702.81 197.91 706.61 199.26 712.50 200.25
  Q 730.22 203.21 747.01 200.32
  C 753.87 199.13 754.90 193.37 755.82 187.75
  Q 758.20 173.17 759.66 154.99
  Q 763.80 103.45 762.82 51.75
  Q 762.71 45.87 762.33 43.99
  C 761.17 38.18 755.89 35.20 750.48 33.55
  Q 726.81 26.31 702.78 32.42
  C 698.67 33.46 693.28 35.84 692.95 40.26
  Q 691.32 61.81 692.58 89.23
  A 0.59 0.58 -1.9 0 1 692.00 89.84
  L 673.50 90.15
  Q 673.07 90.15 673.06 89.72
  Q 672.59 66.35 670.72 43.06
  C 670.18 36.26 665.78 33.78 659.50 32.29
  Q 638.62 27.37 617.75 32.32
  C 612.58 33.54 605.18 35.90 602.38 40.83
  Q 601.20 42.92 601.10 46.88
  Q 600.84 56.56 601.46 69.99
  Q 604.01 125.66 611.56 176.24
  C 612.23 180.70 614.64 196.96 618.70 199.12
  Q 621.72 200.73 627.98 201.39
  Q 644.94 203.18 661.59 199.48
  Q 667.12 198.24 668.00 193.02
  Q 670.71 176.91 671.38 160.27
  A 0.92 0.91 87.0 0 1 672.16 159.40
  L 696.31 155.59
  A 0.41 0.40 -7.3 0 1 696.78 155.95
  Z"
/>
<path fill="#634b3c" d="
  M 1345.87 104.71
  Q 1328.48 104.64 1312.24 102.00
  C 1304.21 100.69 1302.89 95.19 1301.56 88.25
  Q 1297.60 67.65 1299.15 43.12
  Q 1299.72 33.97 1307.97 32.33
  Q 1318.32 30.26 1328.75 29.58
  Q 1397.85 25.05 1459.76 28.52
  C 1477.64 29.53 1472.15 74.66 1469.54 85.28
  C 1468.28 90.43 1466.14 97.18 1461.63 100.43
  Q 1459.88 101.69 1453.51 102.14
  Q 1440.03 103.08 1426.53 103.57
  Q 1426.01 103.59 1426.00 104.11
  Q 1425.66 135.75 1423.35 167.25
  Q 1422.53 178.45 1420.58 189.50
  C 1419.63 194.88 1417.77 199.57 1411.76 200.81
  Q 1393.82 204.50 1373.75 202.75
  Q 1367.54 202.20 1362.76 200.74
  C 1358.21 199.34 1356.59 194.58 1355.66 190.31
  Q 1352.51 175.87 1351.24 164.51
  Q 1348.18 137.19 1346.37 109.75
  Q 1346.21 107.46 1346.31 105.17
  Q 1346.33 104.71 1345.87 104.71
  Z
  M 1348.39 103.03
  Q 1350.47 139.39 1355.33 175.49
  Q 1356.52 184.39 1359.04 193.00
  C 1360.68 198.62 1364.64 199.21 1369.75 199.90
  Q 1389.86 202.64 1409.79 198.92
  Q 1416.34 197.70 1417.82 190.66
  Q 1419.49 182.72 1419.75 180.01
  Q 1423.36 140.96 1423.73 101.67
  A 0.45 0.44 -0.7 0 1 1424.17 101.23
  Q 1440.55 100.81 1457.01 99.28
  C 1462.39 98.78 1464.42 93.57 1465.90 88.72
  C 1470.81 72.65 1471.96 54.96 1467.29 38.69
  C 1465.55 32.65 1462.85 31.08 1456.48 30.78
  Q 1389.85 27.66 1323.29 32.26
  Q 1316.45 32.73 1307.52 34.93
  C 1301.71 36.36 1301.48 41.53 1301.18 46.50
  Q 1299.84 69.26 1304.81 91.49
  Q 1305.49 94.54 1307.12 97.26
  Q 1307.38 97.69 1307.84 97.89
  Q 1312.51 99.81 1314.74 100.07
  Q 1331.20 101.97 1347.78 102.43
  Q 1348.36 102.45 1348.39 103.03
  Z"
/>
<path fill="#634b3c" d="
  M 1489.90 32.60
  Q 1520.09 22.20 1551.11 30.53
  C 1556.83 32.06 1561.05 34.68 1561.64 40.91
  Q 1563.06 55.75 1563.39 74.75
  Q 1564.22 123.47 1559.84 171.99
  Q 1558.90 182.48 1556.83 192.79
  Q 1555.28 200.48 1547.50 202.00
  C 1532.78 204.88 1512.07 206.50 1497.66 200.81
  A 1.69 1.59 82.0 0 1 1496.91 200.21
  Q 1493.53 195.31 1492.28 189.44
  Q 1488.85 173.35 1486.86 157.01
  Q 1481.55 113.46 1479.86 67.50
  Q 1479.47 56.90 1479.83 47.53
  Q 1480.06 41.85 1481.75 38.99
  Q 1484.40 34.49 1489.90 32.60
  Z
  M 1555.12 188.87
  Q 1556.81 178.46 1557.19 174.49
  Q 1563.14 110.98 1559.96 47.25
  C 1559.58 39.70 1558.62 34.75 1550.43 32.56
  Q 1521.99 24.98 1493.15 33.80
  C 1483.48 36.76 1481.73 42.36 1481.89 51.75
  Q 1482.96 115.70 1492.41 177.80
  Q 1493.20 183.03 1494.24 187.18
  C 1495.53 192.34 1496.80 198.48 1501.51 199.71
  C 1515.44 203.33 1532.19 202.39 1546.26 200.00
  C 1552.75 198.90 1554.19 194.65 1555.12 188.87
  Z"
/>
<path fill="#634b3c" d="
  M 177.20 148.92
  L 153.19 172.86
  Q 152.81 173.24 152.30 173.44
  Q 151.50 173.76 150.39 174.85
  Q 145.44 179.73 139.84 182.08
  C 134.21 184.45 126.16 177.25 122.04 173.51
  Q 108.45 161.18 98.82 150.68
  Q 98.57 150.41 98.55 150.78
  Q 97.15 169.50 94.05 188.03
  Q 93.01 194.24 90.50 200.00
  C 88.81 203.88 79.58 204.18 76.00 204.31
  Q 62.23 204.79 48.49 203.56
  Q 41.58 202.94 35.99 201.21
  C 31.23 199.75 30.25 190.13 29.71 184.71
  Q 27.32 161.04 26.80 137.25
  Q 25.88 94.85 28.19 52.50
  Q 28.67 43.72 30.30 37.33
  C 31.88 31.13 43.04 29.61 48.24 29.01
  Q 63.64 27.26 84.14 29.71
  Q 93.18 30.79 99.40 35.45
  Q 102.59 37.84 109.94 47.17
  Q 115.20 53.84 120.50 61.51
  Q 131.31 77.15 137.34 86.25
  Q 137.62 86.67 137.89 86.26
  C 147.71 71.61 157.37 56.69 168.43 42.98
  Q 171.87 38.72 175.43 35.47
  C 178.25 32.89 183.01 31.05 186.76 30.37
  Q 208.88 26.38 231.76 29.92
  Q 236.66 30.68 240.73 32.60
  C 244.07 34.17 244.97 37.27 245.44 40.62
  Q 247.14 52.87 247.75 65.24
  Q 250.52 122.09 246.79 178.87
  Q 246.26 186.93 244.62 194.82
  C 243.20 201.61 238.50 201.95 231.93 202.70
  C 224.66 203.53 190.81 206.05 186.32 201.50
  C 183.46 198.60 182.32 191.55 181.49 186.86
  Q 177.78 165.87 177.23 148.94
  Q 177.23 148.90 177.20 148.92
  Z
  M 179.23 143.77
  Q 180.35 167.73 184.77 191.42
  C 185.22 193.85 186.94 200.37 189.99 200.69
  Q 212.20 203.03 236.68 199.57
  Q 241.63 198.87 242.47 193.90
  C 245.01 178.88 245.44 166.49 245.99 148.74
  Q 247.36 104.73 245.10 60.75
  Q 244.52 49.46 242.33 38.37
  C 241.45 33.88 235.59 32.99 231.49 32.34
  Q 210.07 28.97 188.66 32.37
  C 183.51 33.19 179.17 34.90 175.42 38.92
  Q 167.36 47.57 159.26 59.27
  Q 148.46 74.87 137.91 90.60
  A 0.39 0.39 0.0 0 1 137.26 90.59
  C 125.96 73.40 114.35 55.27 100.58 39.90
  Q 95.02 33.69 85.23 32.29
  Q 62.33 29.00 42.76 32.39
  C 38.30 33.17 33.27 34.47 32.42 38.49
  C 31.14 44.51 30.47 51.35 30.16 58.21
  Q 27.92 108.09 30.03 158.00
  Q 30.59 171.30 32.35 186.66
  Q 33.01 192.42 34.89 197.39
  A 1.46 1.42 5.2 0 0 35.52 198.13
  Q 37.89 199.49 40.24 199.88
  Q 61.52 203.39 83.59 201.12
  C 86.76 200.79 88.60 199.59 89.44 196.59
  Q 92.01 187.32 93.22 177.74
  Q 95.24 161.74 96.62 145.51
  Q 96.67 144.81 97.15 145.32
  C 107.03 155.64 116.93 166.38 128.16 175.27
  C 133.37 179.40 136.80 182.28 142.61 177.90
  C 155.80 167.95 167.57 155.70 178.70 143.58
  A 0.31 0.31 0.0 0 1 179.23 143.77
  Z"
/>
<path fill="#634b3c" d="
  M 346.62 168.87
  Q 336.89 169.11 327.17 169.15
  Q 325.09 169.16 323.54 170.02
  Q 321.12 171.35 320.58 172.52
  Q 314.78 185.06 308.26 197.22
  C 305.98 201.47 302.92 202.70 297.96 202.95
  Q 286.60 203.53 274.00 202.81
  Q 267.61 202.45 262.48 201.22
  C 253.76 199.13 255.30 188.35 256.08 180.00
  Q 257.35 166.20 262.25 143.28
  Q 271.43 100.29 285.92 58.80
  Q 290.65 45.27 293.82 40.08
  Q 296.34 35.96 302.13 34.13
  Q 326.35 26.48 354.74 29.04
  C 365.88 30.05 370.90 33.85 376.37 43.75
  Q 380.75 51.66 384.48 60.50
  Q 393.85 82.69 401.00 103.64
  Q 414.45 143.00 425.00 183.24
  C 426.15 187.63 426.73 194.74 422.02 197.47
  Q 417.71 199.97 412.76 200.65
  Q 393.59 203.28 374.25 203.38
  Q 369.89 203.40 367.48 202.04
  C 361.05 198.42 358.67 187.12 355.41 178.08
  C 354.24 174.86 350.86 168.77 346.62 168.87
  Z
  M 413.48 197.89
  C 420.82 196.83 425.04 193.43 423.08 185.79
  Q 407.76 126.13 385.35 68.79
  C 382.17 60.64 378.80 53.44 374.89 46.06
  Q 370.83 38.41 368.14 36.34
  Q 363.51 32.76 360.38 32.25
  C 342.07 29.24 323.36 30.38 305.54 35.39
  C 300.78 36.73 296.94 38.89 295.00 43.02
  Q 291.35 50.78 288.50 58.87
  Q 275.00 97.14 266.28 136.77
  Q 260.92 161.12 258.46 180.59
  Q 258.06 183.73 257.97 186.66
  C 257.70 194.77 258.38 198.78 267.50 199.79
  Q 283.53 201.57 299.64 200.39
  Q 303.78 200.08 305.56 197.06
  Q 310.60 188.52 316.65 175.31
  C 319.50 169.07 321.95 166.66 328.76 166.57
  Q 337.49 166.44 346.23 166.54
  C 353.67 166.62 356.38 173.67 358.45 179.93
  Q 360.91 187.34 364.08 194.42
  C 366.38 199.58 369.29 201.08 375.12 200.99
  Q 394.39 200.67 413.48 197.89
  Z"
/>
<path fill="#634b3c" d="
  M 1030.37 173.87
  Q 1025.10 179.44 1018.85 182.08
  C 1013.45 184.37 1005.87 177.84 1001.96 174.32
  Q 987.97 161.74 977.78 150.64
  Q 977.55 150.40 977.54 150.73
  Q 977.31 156.19 976.62 161.61
  C 974.99 174.28 973.65 186.52 970.28 198.91
  Q 969.95 200.11 968.53 201.43
  C 966.04 203.74 959.96 203.91 956.26 204.09
  Q 935.33 205.14 916.73 201.88
  C 911.46 200.95 910.10 194.90 909.48 190.75
  Q 907.08 174.61 906.34 155.26
  Q 904.39 104.24 907.08 53.25
  Q 907.53 44.67 909.25 37.50
  C 910.61 31.80 919.34 30.02 925.36 29.26
  Q 944.20 26.87 963.01 29.52
  Q 971.92 30.77 976.29 33.51
  Q 980.06 35.87 985.77 43.00
  Q 991.52 50.17 996.82 57.69
  Q 1006.78 71.82 1016.33 86.24
  Q 1016.60 86.66 1016.88 86.24
  Q 1024.05 75.56 1037.63 55.87
  Q 1044.75 45.54 1052.83 36.96
  C 1057.97 31.50 1065.24 30.27 1072.75 29.29
  Q 1093.18 26.64 1115.14 30.83
  C 1123.62 32.45 1123.95 37.12 1124.97 45.16
  Q 1125.86 52.13 1126.32 60.37
  Q 1129.65 119.32 1125.81 178.24
  C 1125.36 185.13 1124.86 192.94 1121.82 199.25
  A 1.59 1.58 -2.6 0 1 1121.18 199.95
  Q 1117.80 201.90 1115.42 202.20
  Q 1096.65 204.63 1071.62 203.37
  Q 1065.20 203.05 1063.25 198.05
  Q 1061.46 193.48 1060.34 186.93
  C 1058.21 174.50 1056.69 161.74 1056.28 149.14
  Q 1056.28 148.93 1056.13 149.08
  L 1031.90 173.19
  Q 1031.57 173.53 1031.10 173.61
  Q 1030.54 173.70 1030.37 173.87
  Z
  M 1058.23 144.03
  Q 1059.27 163.41 1062.06 182.60
  Q 1063.10 189.78 1065.17 196.72
  Q 1066.28 200.46 1069.74 200.80
  Q 1088.07 202.60 1109.50 200.50
  C 1114.40 200.02 1119.77 200.08 1121.09 194.55
  C 1123.94 182.63 1124.37 169.48 1124.81 157.25
  Q 1126.53 108.73 1123.92 60.25
  Q 1123.52 52.80 1122.59 45.37
  C 1121.81 39.19 1121.63 34.64 1115.39 33.27
  Q 1096.54 29.15 1075.72 31.10
  Q 1065.64 32.05 1060.78 34.28
  Q 1056.55 36.22 1052.71 40.72
  C 1039.42 56.34 1028.30 73.60 1016.90 90.60
  A 0.40 0.40 0.0 0 1 1016.24 90.60
  Q 1003.87 71.67 990.50 53.29
  C 985.60 46.55 977.55 34.97 969.01 33.19
  Q 945.20 28.21 921.25 32.44
  C 918.29 32.97 912.27 34.52 911.53 38.08
  Q 909.89 46.06 909.39 55.51
  Q 906.59 109.21 909.10 161.01
  Q 909.89 177.11 911.98 190.75
  Q 912.46 193.85 914.06 197.55
  A 1.45 1.44 -87.5 0 0 914.71 198.26
  Q 917.12 199.58 919.37 199.93
  Q 937.92 202.90 957.75 201.63
  C 962.08 201.36 967.04 201.36 968.27 197.00
  C 972.91 180.53 974.15 162.57 975.62 145.51
  Q 975.68 144.82 976.16 145.32
  C 985.61 155.24 995.12 165.53 1005.79 174.16
  C 1011.67 178.92 1015.44 182.71 1022.06 177.61
  C 1035.24 167.45 1046.01 155.52 1057.70 143.83
  Q 1058.19 143.34 1058.23 144.03
  Z"
/>
<path fill="#634b3c" d="
  M 1223.37 168.93
  Q 1214.72 169.15 1206.06 169.14
  Q 1204.12 169.14 1202.63 169.96
  Q 1200.25 171.27 1199.78 172.26
  Q 1192.53 187.41 1187.31 197.26
  C 1185.13 201.37 1181.75 202.71 1176.97 202.95
  Q 1163.23 203.64 1149.51 202.53
  C 1142.69 201.97 1134.70 200.55 1134.46 191.99
  Q 1134.23 183.84 1136.46 170.31
  Q 1146.06 112.03 1165.63 56.36
  Q 1167.22 51.82 1169.12 47.69
  C 1172.31 40.71 1174.07 36.33 1181.24 34.08
  Q 1207.27 25.90 1235.74 29.28
  C 1248.61 30.81 1252.70 38.13 1258.44 49.33
  Q 1263.89 59.97 1272.50 83.28
  Q 1290.84 132.98 1304.18 184.26
  C 1306.67 193.81 1302.54 198.82 1293.23 200.23
  Q 1270.44 203.69 1251.59 203.37
  C 1244.35 203.25 1241.93 198.18 1239.24 191.71
  C 1236.92 186.14 1233.86 171.77 1227.81 169.38
  Q 1226.48 168.86 1223.37 168.93
  Z
  M 1231.76 30.99
  C 1215.37 29.68 1198.73 31.16 1182.99 35.94
  C 1175.43 38.24 1173.56 43.36 1170.84 50.03
  Q 1164.79 64.89 1160.06 80.21
  Q 1146.06 125.50 1138.52 172.28
  C 1137.54 178.35 1135.36 192.12 1138.39 196.34
  C 1142.70 202.31 1168.93 200.69 1176.04 200.69
  C 1184.02 200.70 1185.25 196.03 1189.08 188.63
  Q 1192.66 181.71 1195.96 174.64
  C 1198.36 169.50 1201.14 166.56 1206.77 166.55
  Q 1214.47 166.54 1222.24 166.48
  C 1229.01 166.43 1232.16 167.56 1234.83 173.68
  Q 1238.82 182.78 1240.07 186.99
  C 1241.48 191.69 1245.13 200.79 1250.24 200.94
  Q 1267.71 201.45 1289.50 198.38
  C 1297.86 197.20 1304.64 195.41 1302.01 185.24
  Q 1290.33 140.11 1273.61 93.16
  Q 1266.81 74.07 1258.68 55.53
  C 1255.92 49.24 1250.38 37.33 1244.02 34.15
  Q 1238.84 31.55 1231.76 30.99
  Z"
/>
<path fill="#61abae" d="
  M 842.62 135.67
  L 842.76 140.60
  Q 842.78 141.24 843.43 141.24
  Q 862.02 141.25 880.49 140.08
  Q 886.68 139.69 892.74 140.79
  C 898.40 141.81 898.92 147.71 899.62 152.51
  C 901.29 164.16 902.62 179.45 900.02 190.51
  C 897.61 200.78 824.19 201.13 813.84 200.93
  C 802.39 200.72 794.28 200.48 784.57 198.69
  C 779.29 197.73 778.08 192.95 777.31 188.50
  Q 774.86 174.45 773.58 157.24
  Q 769.68 104.68 771.47 52.00
  Q 771.80 42.45 774.83 35.91
  Q 775.93 33.54 779.48 32.70
  Q 786.23 31.10 803.24 30.02
  Q 838.12 27.79 872.99 30.13
  Q 878.18 30.48 883.32 31.17
  Q 888.82 31.91 890.37 36.34
  Q 890.74 37.40 891.48 44.17
  Q 893.33 61.16 890.17 78.02
  C 889.45 81.85 879.44 83.02 876.25 83.21
  Q 851.56 84.71 841.21 85.20
  Q 840.52 85.23 840.58 85.91
  L 840.97 90.34
  A 0.75 0.74 -1.7 0 0 841.69 91.01
  Q 852.99 91.27 860.76 92.94
  C 862.02 93.21 863.11 94.73 863.63 96.03
  Q 870.29 112.88 867.12 129.50
  C 866.64 132.03 864.27 133.11 861.74 133.51
  Q 852.54 134.96 843.23 135.03
  Q 842.60 135.04 842.62 135.67
  Z"
/>
<path fill="#61abae" d="
  M 1616.49 191.98
  C 1589.14 179.04 1571.92 153.35 1572.05 122.83
  C 1572.30 64.65 1617.38 22.91 1675.92 29.59
  C 1684.24 30.54 1690.06 35.13 1693.41 42.65
  Q 1699.16 55.53 1700.02 69.62
  C 1700.49 77.30 1696.89 87.47 1687.97 88.03
  Q 1675.92 88.79 1671.76 89.31
  C 1656.05 91.28 1637.42 103.45 1640.27 121.49
  C 1643.43 141.52 1671.83 137.60 1684.93 134.67
  Q 1688.26 133.93 1690.55 134.47
  C 1707.59 138.54 1710.38 168.51 1708.20 181.76
  C 1707.22 187.70 1703.81 192.66 1697.88 194.68
  C 1672.10 203.45 1641.48 203.81 1616.49 191.98
  Z"
/>
<path fill="#61abae" d="
  M 1555.12 188.87
  C 1554.19 194.65 1552.75 198.90 1546.26 200.00
  C 1532.19 202.39 1515.44 203.33 1501.51 199.71
  C 1496.80 198.48 1495.53 192.34 1494.24 187.18
  Q 1493.20 183.03 1492.41 177.80
  Q 1482.96 115.70 1481.89 51.75
  C 1481.73 42.36 1483.48 36.76 1493.15 33.80
  Q 1521.99 24.98 1550.43 32.56
  C 1558.62 34.75 1559.58 39.70 1559.96 47.25
  Q 1563.14 110.98 1557.19 174.49
  Q 1556.81 178.46 1555.12 188.87
  Z"
/>
<path fill="#61abae" d="
  M 545.84 101.88
  Q 545.26 140.58 541.89 179.13
  C 541.59 182.58 540.51 186.99 539.81 191.14
  Q 538.79 197.19 532.53 198.55
  Q 509.29 203.57 485.48 198.66
  C 480.72 197.68 478.48 183.62 477.79 178.73
  Q 472.42 140.96 470.48 103.15
  A 0.86 0.85 88.6 0 0 469.63 102.33
  Q 453.82 102.25 438.27 100.08
  C 432.72 99.30 428.59 98.98 427.10 92.63
  Q 421.29 67.89 423.62 42.50
  C 423.92 39.31 424.87 36.68 428.09 35.39
  C 432.23 33.74 436.97 33.46 441.34 32.82
  Q 445.65 32.20 450.17 31.91
  Q 512.72 27.90 575.34 30.63
  C 582.42 30.94 586.55 30.65 588.90 37.57
  C 594.42 53.87 593.13 78.96 585.51 94.48
  C 583.17 99.25 579.25 99.41 574.50 99.74
  Q 560.47 100.73 546.41 101.30
  Q 545.85 101.32 545.84 101.88
  Z"
/>
<path fill="#61abae" d="
  M 696.31 155.59
  L 672.16 159.40
  A 0.92 0.91 87.0 0 0 671.38 160.27
  Q 670.71 176.91 668.00 193.02
  Q 667.12 198.24 661.59 199.48
  Q 644.94 203.18 627.98 201.39
  Q 621.72 200.73 618.70 199.12
  C 614.64 196.96 612.23 180.70 611.56 176.24
  Q 604.01 125.66 601.46 69.99
  Q 600.84 56.56 601.10 46.88
  Q 601.20 42.92 602.38 40.83
  C 605.18 35.90 612.58 33.54 617.75 32.32
  Q 638.62 27.37 659.50 32.29
  C 665.78 33.78 670.18 36.26 670.72 43.06
  Q 672.59 66.35 673.06 89.72
  Q 673.07 90.15 673.50 90.15
  L 692.00 89.84
  A 0.59 0.58 -1.9 0 0 692.58 89.23
  Q 691.32 61.81 692.95 40.26
  C 693.28 35.84 698.67 33.46 702.78 32.42
  Q 726.81 26.31 750.48 33.55
  C 755.89 35.20 761.17 38.18 762.33 43.99
  Q 762.71 45.87 762.82 51.75
  Q 763.80 103.45 759.66 154.99
  Q 758.20 173.17 755.82 187.75
  C 754.90 193.37 753.87 199.13 747.01 200.32
  Q 730.22 203.21 712.50 200.25
  C 706.61 199.26 702.81 197.91 701.52 191.44
  Q 698.20 174.70 696.78 155.95
  A 0.41 0.40 -7.3 0 0 696.31 155.59
  Z"
/>
<path fill="#61abae" d="
  M 1347.78 102.43
  Q 1331.20 101.97 1314.74 100.07
  Q 1312.51 99.81 1307.84 97.89
  Q 1307.38 97.69 1307.12 97.26
  Q 1305.49 94.54 1304.81 91.49
  Q 1299.84 69.26 1301.18 46.50
  C 1301.48 41.53 1301.71 36.36 1307.52 34.93
  Q 1316.45 32.73 1323.29 32.26
  Q 1389.85 27.66 1456.48 30.78
  C 1462.85 31.08 1465.55 32.65 1467.29 38.69
  C 1471.96 54.96 1470.81 72.65 1465.90 88.72
  C 1464.42 93.57 1462.39 98.78 1457.01 99.28
  Q 1440.55 100.81 1424.17 101.23
  A 0.45 0.44 -0.7 0 0 1423.73 101.67
  Q 1423.36 140.96 1419.75 180.01
  Q 1419.49 182.72 1417.82 190.66
  Q 1416.34 197.70 1409.79 198.92
  Q 1389.86 202.64 1369.75 199.90
  C 1364.64 199.21 1360.68 198.62 1359.04 193.00
  Q 1356.52 184.39 1355.33 175.49
  Q 1350.47 139.39 1348.39 103.03
  Q 1348.36 102.45 1347.78 102.43
  Z"
/>
<path fill="#61abae" d="
  M 179.23 143.77
  A 0.31 0.31 0.0 0 0 178.70 143.58
  C 167.57 155.70 155.80 167.95 142.61 177.90
  C 136.80 182.28 133.37 179.40 128.16 175.27
  C 116.93 166.38 107.03 155.64 97.15 145.32
  Q 96.67 144.81 96.62 145.51
  Q 95.24 161.74 93.22 177.74
  Q 92.01 187.32 89.44 196.59
  C 88.60 199.59 86.76 200.79 83.59 201.12
  Q 61.52 203.39 40.24 199.88
  Q 37.89 199.49 35.52 198.13
  A 1.46 1.42 5.2 0 1 34.89 197.39
  Q 33.01 192.42 32.35 186.66
  Q 30.59 171.30 30.03 158.00
  Q 27.92 108.09 30.16 58.21
  C 30.47 51.35 31.14 44.51 32.42 38.49
  C 33.27 34.47 38.30 33.17 42.76 32.39
  Q 62.33 29.00 85.23 32.29
  Q 95.02 33.69 100.58 39.90
  C 114.35 55.27 125.96 73.40 137.26 90.59
  A 0.39 0.39 0.0 0 0 137.91 90.60
  Q 148.46 74.87 159.26 59.27
  Q 167.36 47.57 175.42 38.92
  C 179.17 34.90 183.51 33.19 188.66 32.37
  Q 210.07 28.97 231.49 32.34
  C 235.59 32.99 241.45 33.88 242.33 38.37
  Q 244.52 49.46 245.10 60.75
  Q 247.36 104.73 245.99 148.74
  C 245.44 166.49 245.01 178.88 242.47 193.90
  Q 241.63 198.87 236.68 199.57
  Q 212.20 203.03 189.99 200.69
  C 186.94 200.37 185.22 193.85 184.77 191.42
  Q 180.35 167.73 179.23 143.77
  Z"
/>
<path fill="#61abae" d="
  M 423.08 185.79
  C 425.04 193.43 420.82 196.83 413.48 197.89
  Q 394.39 200.67 375.12 200.99
  C 369.29 201.08 366.38 199.58 364.08 194.42
  Q 360.91 187.34 358.45 179.93
  C 356.38 173.67 353.67 166.62 346.23 166.54
  Q 337.49 166.44 328.76 166.57
  C 321.95 166.66 319.50 169.07 316.65 175.31
  Q 310.60 188.52 305.56 197.06
  Q 303.78 200.08 299.64 200.39
  Q 283.53 201.57 267.50 199.79
  C 258.38 198.78 257.70 194.77 257.97 186.66
  Q 258.06 183.73 258.46 180.59
  Q 260.92 161.12 266.28 136.77
  Q 275.00 97.14 288.50 58.87
  Q 291.35 50.78 295.00 43.02
  C 296.94 38.89 300.78 36.73 305.54 35.39
  C 323.36 30.38 342.07 29.24 360.38 32.25
  Q 363.51 32.76 368.14 36.34
  Q 370.83 38.41 374.89 46.06
  C 378.80 53.44 382.17 60.64 385.35 68.79
  Q 407.76 126.13 423.08 185.79
  Z
  M 350.85 123.06
  C 352.67 117.84 343.07 103.54 339.74 99.77
  C 336.69 96.31 333.84 96.48 331.25 100.34
  Q 325.50 108.89 322.98 119.02
  Q 321.09 126.63 329.03 127.73
  C 334.36 128.47 348.77 129.04 350.85 123.06
  Z"
/>
<path fill="#61abae" d="
  M 1057.70 143.83
  C 1046.01 155.52 1035.24 167.45 1022.06 177.61
  C 1015.44 182.71 1011.67 178.92 1005.79 174.16
  C 995.12 165.53 985.61 155.24 976.16 145.32
  Q 975.68 144.82 975.62 145.51
  C 974.15 162.57 972.91 180.53 968.27 197.00
  C 967.04 201.36 962.08 201.36 957.75 201.63
  Q 937.92 202.90 919.37 199.93
  Q 917.12 199.58 914.71 198.26
  A 1.45 1.44 -87.5 0 1 914.06 197.55
  Q 912.46 193.85 911.98 190.75
  Q 909.89 177.11 909.10 161.01
  Q 906.59 109.21 909.39 55.51
  Q 909.89 46.06 911.53 38.08
  C 912.27 34.52 918.29 32.97 921.25 32.44
  Q 945.20 28.21 969.01 33.19
  C 977.55 34.97 985.60 46.55 990.50 53.29
  Q 1003.87 71.67 1016.24 90.60
  A 0.40 0.40 0.0 0 0 1016.90 90.60
  C 1028.30 73.60 1039.42 56.34 1052.71 40.72
  Q 1056.55 36.22 1060.78 34.28
  Q 1065.64 32.05 1075.72 31.10
  Q 1096.54 29.15 1115.39 33.27
  C 1121.63 34.64 1121.81 39.19 1122.59 45.37
  Q 1123.52 52.80 1123.92 60.25
  Q 1126.53 108.73 1124.81 157.25
  C 1124.37 169.48 1123.94 182.63 1121.09 194.55
  C 1119.77 200.08 1114.40 200.02 1109.50 200.50
  Q 1088.07 202.60 1069.74 200.80
  Q 1066.28 200.46 1065.17 196.72
  Q 1063.10 189.78 1062.06 182.60
  Q 1059.27 163.41 1058.23 144.03
  Q 1058.19 143.34 1057.70 143.83
  Z"
/>
<path fill="#61abae" d="
  M 1182.99 35.94
  C 1198.73 31.16 1215.37 29.68 1231.76 30.99
  Q 1238.84 31.55 1244.02 34.15
  C 1250.38 37.33 1255.92 49.24 1258.68 55.53
  Q 1266.81 74.07 1273.61 93.16
  Q 1290.33 140.11 1302.01 185.24
  C 1304.64 195.41 1297.86 197.20 1289.50 198.38
  Q 1267.71 201.45 1250.24 200.94
  C 1245.13 200.79 1241.48 191.69 1240.07 186.99
  Q 1238.82 182.78 1234.83 173.68
  C 1232.16 167.56 1229.01 166.43 1222.24 166.48
  Q 1214.47 166.54 1206.77 166.55
  C 1201.14 166.56 1198.36 169.50 1195.96 174.64
  Q 1192.66 181.71 1189.08 188.63
  C 1185.25 196.03 1184.02 200.70 1176.04 200.69
  C 1168.93 200.69 1142.70 202.31 1138.39 196.34
  C 1135.36 192.12 1137.54 178.35 1138.52 172.28
  Q 1146.06 125.50 1160.06 80.21
  Q 1164.79 64.89 1170.84 50.03
  C 1173.56 43.36 1175.43 38.24 1182.99 35.94
  Z
  M 1229.68 118.57
  C 1228.29 114.80 1217.42 89.72 1210.56 99.82
  Q 1204.51 108.72 1201.98 119.19
  C 1200.89 123.67 1202.10 126.61 1206.76 127.51
  C 1212.24 128.57 1233.83 129.84 1229.68 118.57
  Z"
/>
<path fill="#634b3c" d="
  M 339.74 99.77
  C 343.07 103.54 352.67 117.84 350.85 123.06
  C 348.77 129.04 334.36 128.47 329.03 127.73
  Q 321.09 126.63 322.98 119.02
  Q 325.50 108.89 331.25 100.34
  C 333.84 96.48 336.69 96.31 339.74 99.77
  Z
  M 333.08 102.09
  C 328.85 107.95 327.10 113.68 325.01 120.49
  Q 323.90 124.12 327.86 125.15
  C 330.68 125.88 351.98 127.61 348.38 119.05
  Q 344.23 109.18 337.52 100.82
  Q 336.05 98.98 334.26 100.52
  Q 334.13 100.63 333.08 102.09
  Z"
/>
<path fill="#634b3c" d="
  M 1210.56 99.82
  C 1217.42 89.72 1228.29 114.80 1229.68 118.57
  C 1233.83 129.84 1212.24 128.57 1206.76 127.51
  C 1202.10 126.61 1200.89 123.67 1201.98 119.19
  Q 1204.51 108.72 1210.56 99.82
  Z
  M 1212.09 102.10
  Q 1205.63 111.16 1203.85 122.18
  Q 1203.77 122.67 1204.06 123.05
  Q 1205.55 125.01 1207.99 125.35
  C 1212.16 125.93 1223.61 126.45 1226.80 123.33
  C 1230.51 119.70 1219.09 104.04 1216.43 100.73
  Q 1215.02 98.98 1213.33 100.46
  Q 1213.13 100.64 1212.09 102.10
  Z"
/>
<path fill="#6d5845" d="
  M 1428.76 296.75
  L 1428.75 262.99
  Q 1428.75 262.38 1429.36 262.38
  L 1439.20 262.40
  Q 1439.75 262.40 1439.75 262.95
  L 1439.75 345.37
  Q 1439.75 346.00 1439.13 346.00
  L 1429.25 346.00
  Q 1428.75 346.00 1428.75 345.50
  L 1428.76 341.29
  Q 1428.76 340.65 1428.29 341.08
  C 1414.64 353.31 1393.88 346.59 1387.04 330.74
  Q 1383.03 321.46 1385.51 311.47
  C 1390.14 292.84 1412.98 283.02 1428.28 296.96
  Q 1428.76 297.39 1428.76 296.75
  Z
  M 1423.23 305.83
  C 1412.94 296.43 1397.70 303.21 1395.74 315.99
  C 1394.02 327.21 1403.80 339.03 1415.52 336.10
  Q 1426.77 333.28 1428.58 321.77
  C 1429.18 317.95 1427.19 313.85 1425.91 310.23
  Q 1424.90 307.35 1423.23 305.83
  Z"
/>
<path fill="#6d5845" d="
  M 244.77 263.97
  A 0.54 0.54 0.0 0 1 245.30 263.43
  L 266.21 263.36
  A 42.25 41.70 -0.2 0 1 308.61 304.91
  L 308.61 305.21
  A 42.25 41.70 -0.2 0 1 266.51 347.06
  L 245.60 347.13
  A 0.54 0.54 0.0 0 1 245.05 346.59
  L 244.77 263.97
  Z
  M 255.77 275.21
  L 255.67 335.27
  A 0.76 0.76 0.0 0 0 256.43 336.03
  L 266.34 336.05
  A 31.27 30.69 0.1 0 0 297.66 305.42
  L 297.66 305.22
  A 31.27 30.69 0.1 0 0 266.44 274.47
  L 256.53 274.45
  A 0.76 0.76 0.0 0 0 255.77 275.21
  Z"
/>
<circle fill="#6d5845" cx="328.82" cy="270.57" r="7.18"/>
<path fill="#6d5845" d="
  M 747.50 286.68
  L 747.50 346.50
  Q 747.50 347.00 747.00 347.00
  L 736.46 347.00
  A 0.55 0.54 -0.0 0 1 735.91 346.46
  L 735.91 263.97
  Q 735.91 263.38 736.51 263.38
  L 749.00 263.39
  Q 749.50 263.39 749.71 263.84
  L 779.44 330.29
  A 0.31 0.31 0.0 0 0 780.00 330.29
  L 809.76 263.91
  A 0.88 0.88 0.0 0 1 810.57 263.38
  L 822.99 263.40
  Q 823.59 263.40 823.59 264.00
  L 823.59 346.37
  Q 823.59 347.00 822.97 347.00
  L 812.46 347.00
  A 0.55 0.54 -0.0 0 1 811.91 346.46
  L 811.91 286.87
  A 0.26 0.26 0.0 0 0 811.41 286.77
  L 784.63 346.60
  Q 784.45 347.00 784.02 347.00
  L 775.50 347.00
  A 0.84 0.84 0.0 0 1 774.73 346.50
  L 747.93 286.58
  Q 747.50 285.60 747.50 286.68
  Z"
/>
<circle fill="#6d5845" cx="983.82" cy="270.57" r="7.18"/>
<path fill="#6d5845" d="
  M 1143.39 302.58
  Q 1154.21 310.59 1152.69 325.24
  C 1151.28 338.81 1140.77 346.77 1127.75 346.91
  Q 1112.58 347.08 1097.40 346.97
  Q 1096.92 346.97 1096.92 346.48
  L 1096.91 264.00
  Q 1096.91 263.43 1097.48 263.42
  Q 1109.62 263.28 1121.67 263.41
  Q 1130.59 263.50 1134.67 264.84
  C 1151.07 270.22 1155.48 290.03 1143.34 301.90
  Q 1142.96 302.27 1143.39 302.58
  Z
  M 1107.67 275.15
  L 1107.79 297.23
  A 0.77 0.77 0.0 0 0 1108.56 298.00
  L 1124.81 297.91
  A 14.42 10.79 -0.3 0 0 1139.18 287.05
  L 1139.16 285.01
  A 14.42 10.79 -0.3 0 0 1124.69 274.29
  L 1108.44 274.38
  A 0.77 0.77 0.0 0 0 1107.67 275.15
  Z
  M 1107.55 309.78
  L 1107.59 334.90
  A 1.09 1.09 0.0 0 0 1108.68 335.99
  L 1127.20 335.96
  A 14.77 12.13 -0.1 0 0 1141.95 323.80
  L 1141.95 320.76
  A 14.77 12.13 -0.1 0 0 1127.16 308.66
  L 1108.64 308.69
  A 1.09 1.09 0.0 0 0 1107.55 309.78
  Z"
/>
<path fill="#6d5845" d="
  M 1239.23 295.52
  C 1254.07 288.04 1276.52 293.26 1276.54 313.25
  Q 1276.56 329.88 1276.46 346.51
  Q 1276.46 347.00 1275.97 347.00
  L 1266.03 347.00
  Q 1265.53 347.00 1265.52 346.49
  Q 1265.45 331.85 1265.52 317.25
  Q 1265.55 310.85 1264.28 308.43
  C 1261.40 302.95 1254.21 302.82 1248.67 303.44
  C 1241.91 304.20 1238.77 307.21 1238.77 314.25
  Q 1238.76 330.36 1238.74 346.48
  Q 1238.74 347.00 1238.22 347.00
  L 1228.33 347.00
  Q 1227.66 347.00 1227.66 346.33
  L 1227.66 263.99
  Q 1227.66 263.38 1228.27 263.38
  L 1238.20 263.39
  Q 1238.75 263.39 1238.75 263.95
  L 1238.75 295.23
  Q 1238.75 295.76 1239.23 295.52
  Z"
/>
<circle fill="#6d5845" cx="1299.82" cy="270.57" r="7.18"/>
<path fill="#6d5845" d="
  M 382.67 325.87
  Q 380.99 324.19 379.26 323.93
  C 371.54 322.80 360.03 320.85 354.30 315.66
  Q 347.11 309.14 351.00 300.00
  C 354.45 291.91 362.54 288.53 370.98 288.18
  Q 384.83 287.61 393.11 297.72
  Q 393.49 298.18 392.98 298.49
  L 384.63 303.63
  Q 384.20 303.89 383.82 303.58
  Q 375.04 296.33 364.74 300.90
  C 362.23 302.01 358.38 306.13 362.51 308.20
  C 370.86 312.36 380.89 311.18 388.54 316.49
  C 396.70 322.16 397.62 332.88 390.97 340.07
  C 379.87 352.06 357.13 348.90 348.85 335.13
  Q 348.59 334.70 349.03 334.45
  L 357.45 329.64
  Q 357.90 329.38 358.24 329.78
  Q 366.37 339.46 379.22 335.00
  C 383.24 333.60 386.35 329.56 382.67 325.87
  Z"
/>
<path fill="#6d5845" d="
  M 413.72 340.43
  C 401.01 329.37 401.03 308.67 413.42 297.65
  C 426.29 286.20 443.97 288.52 454.41 302.42
  Q 454.71 302.82 454.30 303.09
  L 445.94 308.64
  Q 445.55 308.90 445.26 308.54
  C 438.02 299.61 426.20 298.70 419.04 307.85
  C 405.13 325.61 430.56 348.42 445.23 329.22
  Q 445.62 328.71 446.16 329.06
  L 454.35 334.44
  A 0.55 0.54 35.1 0 1 454.49 335.22
  C 444.21 349.03 426.56 351.61 413.72 340.43
  Z"
/>
<path fill="#6d5845" d="
  M 490.7005 347.3898
  A 28.50 27.65 90.2 0 1 463.1502 318.7935
  A 28.50 27.65 90.2 0 1 490.8995 290.3902
  A 28.50 27.65 90.2 0 1 518.4498 318.9865
  A 28.50 27.65 90.2 0 1 490.7005 347.3898
  Z
  M 490.6887 336.3498
  A 17.44 16.65 90.3 0 0 507.4298 318.9972
  A 17.44 16.65 90.3 0 0 490.8713 301.4702
  A 17.44 16.65 90.3 0 0 474.1302 318.8228
  A 17.44 16.65 90.3 0 0 490.6887 336.3498
  Z"
/>
<path fill="#6d5845" d="
  M 603.26 322.82
  C 605.90 337.73 624.27 341.79 631.20 327.37
  Q 631.44 326.87 631.93 327.10
  L 640.97 331.22
  Q 641.38 331.40 641.19 331.81
  C 634.40 346.52 617.18 352.34 603.58 342.67
  C 587.50 331.22 588.03 306.54 603.76 295.09
  C 611.55 289.42 621.83 288.58 630.08 293.63
  Q 645.08 302.81 644.16 321.82
  Q 644.14 322.25 643.71 322.25
  L 603.74 322.25
  Q 603.16 322.25 603.26 322.82
  Z
  M 631.50 311.91
  Q 631.89 311.91 631.74 311.55
  C 626.48 298.31 609.83 298.01 604.37 311.35
  Q 604.14 311.91 604.75 311.91
  L 631.50 311.91
  Z"
/>
<path fill="#6d5845" d="
  M 881.07 341.05
  Q 873.85 347.43 864.94 347.43
  C 845.30 347.43 833.05 327.70 838.75 309.73
  C 844.28 292.29 866.76 283.19 881.06 297.15
  Q 881.51 297.59 881.51 296.96
  L 881.50 291.75
  Q 881.50 291.25 882.00 291.25
  L 892.05 291.25
  A 0.55 0.54 90.0 0 1 892.59 291.80
  L 892.60 345.33
  Q 892.60 346.00 891.92 346.00
  L 881.99 346.00
  Q 881.49 346.00 881.49 345.49
  L 881.51 341.26
  Q 881.52 340.66 881.07 341.05
  Z
  M 865.4571 336.3323
  A 17.43 16.60 88.3 0 0 881.5327 318.4175
  A 17.43 16.60 88.3 0 0 864.4229 301.4877
  A 17.43 16.60 88.3 0 0 848.3473 319.4025
  A 17.43 16.60 88.3 0 0 865.4571 336.3323
  Z"
/>
<path fill="#6d5845" d="
  M 1053.46 335.14
  C 1041.13 353.38 1014.18 350.58 1005.54 330.55
  C 992.38 300.00 1032.49 274.42 1053.41 302.43
  Q 1053.70 302.82 1053.30 303.09
  L 1044.93 308.65
  Q 1044.49 308.95 1044.17 308.52
  C 1036.95 298.88 1023.86 299.10 1017.06 308.99
  C 1004.90 326.67 1030.44 347.98 1044.32 329.11
  Q 1044.62 328.70 1045.04 328.98
  L 1053.32 334.42
  Q 1053.75 334.71 1053.46 335.14
  Z"
/>
<path fill="#6d5845" d="
  M 1173.27 322.81
  C 1175.82 337.60 1194.27 341.89 1201.27 327.36
  Q 1201.49 326.90 1201.95 327.11
  L 1210.97 331.22
  Q 1211.39 331.41 1211.20 331.82
  C 1205.94 343.20 1193.90 349.97 1181.66 346.61
  C 1168.44 342.97 1160.82 329.52 1161.93 316.33
  C 1163.41 298.71 1180.02 284.98 1197.65 292.31
  C 1209.12 297.08 1214.93 309.74 1214.18 321.63
  Q 1214.14 322.25 1213.52 322.25
  L 1173.74 322.25
  Q 1173.17 322.25 1173.27 322.81
  Z
  M 1201.50 311.91
  Q 1201.89 311.91 1201.74 311.55
  C 1196.48 298.31 1179.83 298.01 1174.37 311.35
  Q 1174.14 311.91 1174.75 311.91
  L 1201.50 311.91
  Z"
/>
<path fill="#6d5845" d="
  M 952.89 303.14
  C 963.01 323.60 939.83 338.17 922.10 331.33
  A 1.12 1.12 0.0 0 0 920.63 332.01
  C 920.22 333.21 920.81 333.91 921.97 334.21
  C 930.05 336.24 938.98 334.45 946.76 336.19
  C 956.67 338.41 964.45 347.72 960.08 357.81
  C 953.32 373.41 930.01 374.18 917.00 367.98
  C 906.27 362.88 902.37 349.44 911.99 340.88
  Q 912.37 340.54 912.14 340.09
  C 909.31 334.51 911.22 331.28 913.66 326.21
  A 0.73 0.72 -52.4 0 0 913.56 325.42
  C 902.28 312.18 910.66 295.49 926.51 292.41
  Q 935.73 290.62 944.03 294.72
  Q 944.49 294.95 944.90 294.64
  Q 949.83 290.91 956.08 291.57
  Q 956.50 291.61 956.50 292.03
  L 956.50 302.00
  Q 956.50 302.49 956.01 302.49
  L 953.27 302.52
  Q 952.58 302.53 952.89 303.14
  Z
  M 944.2499 312.4466
  A 12.43 9.70 -0.2 0 0 931.7861 302.7901
  A 12.43 9.70 -0.2 0 0 919.3901 312.5334
  A 12.43 9.70 -0.2 0 0 931.8539 322.1899
  A 12.43 9.70 -0.2 0 0 944.2499 312.4466
  Z
  M 943.81 358.84
  Q 948.68 357.06 950.36 352.53
  A 1.31 1.28 44.4 0 0 950.34 351.55
  C 948.13 346.31 940.09 346.05 935.38 346.17
  Q 929.37 346.34 923.38 345.74
  A 1.68 1.64 33.9 0 0 922.51 345.90
  C 917.74 348.22 914.76 354.05 920.90 357.30
  Q 931.99 363.15 943.81 358.84
  Z"
/>
<path fill="#6d5845" d="
  M 669.07 296.76
  Q 680.98 287.86 694.23 295.04
  Q 694.73 295.31 694.61 295.87
  L 692.28 306.24
  A 0.43 0.43 0.0 0 1 691.61 306.50
  Q 685.00 301.74 678.04 303.52
  C 669.64 305.65 668.69 313.18 668.64 320.75
  Q 668.57 333.57 668.60 346.38
  Q 668.60 347.00 667.98 347.00
  L 658.33 347.00
  Q 657.66 347.00 657.66 346.33
  L 657.66 293.67
  Q 657.66 293.00 658.33 293.00
  L 667.94 293.00
  Q 668.63 293.00 668.62 293.69
  L 668.56 296.50
  Q 668.55 297.16 669.07 296.76
  Z"
/>
<rect fill="#6d5845" x="323.25" y="292.25" width="11.10" height="54.74" rx="0.35"/>
<path fill="#6d5845" d="
  M 573.53 292.25
  L 585.46 292.25
  A 0.34 0.34 0.0 0 1 585.77 292.73
  L 561.46 346.80
  A 0.34 0.34 0.0 0 1 561.15 347.00
  L 551.75 347.00
  A 0.34 0.34 0.0 0 1 551.44 346.80
  L 527.13 292.73
  A 0.34 0.34 0.0 0 1 527.44 292.25
  L 539.27 292.25
  A 0.34 0.34 0.0 0 1 539.58 292.45
  L 556.15 330.11
  A 0.34 0.34 0.0 0 0 556.77 330.11
  L 573.22 292.45
  A 0.34 0.34 0.0 0 1 573.53 292.25
  Z"
/>
<rect fill="#6d5845" x="978.25" y="292.25" width="11.10" height="54.74" rx="0.35"/>
<rect fill="#6d5845" x="1294.25" y="292.25" width="11.10" height="54.74" rx="0.36"/>
<path fill="#6d5845" d="
  M 1335.23 295.53
  C 1350.13 287.99 1372.51 293.32 1372.54 313.25
  Q 1372.56 329.88 1372.46 346.51
  Q 1372.46 347.00 1371.97 347.00
  L 1362.03 347.00
  Q 1361.52 347.00 1361.52 346.49
  Q 1361.45 331.70 1361.52 316.95
  C 1361.56 309.14 1360.15 304.18 1351.71 303.41
  C 1343.62 302.68 1334.77 303.42 1334.77 314.00
  Q 1334.76 330.23 1334.74 346.48
  Q 1334.74 347.00 1334.22 347.00
  L 1324.27 347.00
  Q 1323.66 347.00 1323.66 346.39
  L 1323.66 293.25
  Q 1323.66 292.67 1324.25 292.67
  L 1334.14 292.65
  Q 1334.76 292.65 1334.76 293.27
  L 1334.75 295.23
  Q 1334.74 295.77 1335.23 295.53
  Z"
/>
<path fill="#6d5845" d="
  M 900.74 481.00
  L 900.76 485.49
  Q 900.76 486.00 900.26 486.00
  L 890.33 486.00
  Q 889.66 486.00 889.66 485.33
  L 889.66 402.99
  Q 889.66 402.38 890.27 402.38
  L 900.20 402.39
  Q 900.75 402.40 900.75 402.95
  L 900.75 437.01
  Q 900.75 437.68 901.22 437.21
  C 912.22 426.18 929.14 429.24 938.51 440.59
  C 947.39 451.36 947.08 466.22 938.77 477.10
  C 930.38 488.10 911.98 491.61 901.22 480.80
  Q 900.74 480.31 900.74 481.00
  Z
  M 917.3390 476.3699
  A 17.47 16.64 90.2 0 0 934.0399 458.9581
  A 17.47 16.64 90.2 0 0 917.4610 441.4301
  A 17.47 16.64 90.2 0 0 900.7601 458.8419
  A 17.47 16.64 90.2 0 0 917.3390 476.3699
  Z"
/>
<path fill="#6d5845" d="
  M 645.75 422.52
  L 645.75 486.69
  A 0.31 0.31 0.0 0 1 645.44 487.00
  L 635.22 487.00
  A 0.31 0.31 0.0 0 1 634.91 486.69
  L 634.91 403.69
  A 0.31 0.31 0.0 0 1 635.22 403.38
  L 646.73 403.39
  A 0.31 0.31 0.0 0 1 646.99 403.53
  L 690.18 467.87
  A 0.31 0.31 0.0 0 0 690.75 467.70
  L 690.75 403.69
  A 0.31 0.31 0.0 0 1 691.06 403.38
  L 701.44 403.40
  A 0.31 0.31 0.0 0 1 701.75 403.71
  L 701.75 486.69
  A 0.31 0.31 0.0 0 1 701.44 487.00
  L 689.92 487.00
  A 0.31 0.31 0.0 0 1 689.66 486.86
  L 646.32 422.34
  A 0.31 0.31 0.0 0 0 645.75 422.52
  Z"
/>
<path fill="#6d5845" d="
  M 966.26 462.83
  C 968.90 477.76 987.27 481.74 994.17 467.40
  Q 994.43 466.87 994.97 467.12
  L 1003.98 471.22
  Q 1004.50 471.46 1004.25 471.97
  C 996.36 488.28 976.46 492.96 963.06 479.67
  C 956.02 472.70 953.50 462.29 955.43 452.61
  C 957.70 441.23 967.23 431.09 979.33 430.39
  C 997.09 429.38 1008.01 445.17 1007.15 461.83
  Q 1007.13 462.25 1006.71 462.25
  L 966.74 462.25
  Q 966.15 462.25 966.26 462.83
  Z
  M 994.49 451.91
  A 0.29 0.29 0.0 0 0 994.76 451.51
  C 989.56 438.26 972.80 438.07 967.39 451.38
  Q 967.18 451.91 967.75 451.91
  L 994.49 451.91
  Z"
/>
<path fill="#6d5845" d="
  M 1032.07 436.77
  Q 1043.99 427.86 1057.23 435.04
  Q 1057.73 435.31 1057.61 435.86
  L 1055.28 446.24
  A 0.43 0.43 0.0 0 1 1054.61 446.50
  Q 1048.00 441.74 1041.03 443.52
  C 1032.41 445.72 1031.59 453.76 1031.58 461.50
  Q 1031.57 473.94 1031.61 486.38
  Q 1031.61 487.00 1030.99 487.00
  L 1021.33 487.00
  Q 1020.66 487.00 1020.66 486.33
  L 1020.66 433.67
  Q 1020.66 433.00 1021.33 433.00
  L 1030.94 433.00
  Q 1031.63 433.00 1031.62 433.69
  L 1031.56 436.50
  Q 1031.55 437.16 1032.07 436.77
  Z"
/>
<path fill="#6d5845" d="
  M 756.66 483.24
  C 743.46 491.67 720.05 486.26 719.74 467.50
  Q 719.46 450.14 719.49 432.78
  Q 719.49 432.25 720.01 432.25
  L 729.97 432.25
  Q 730.48 432.25 730.48 432.75
  Q 730.54 446.96 730.49 461.13
  C 730.46 469.27 730.93 474.89 740.02 475.84
  C 745.66 476.44 753.80 476.22 756.36 470.17
  Q 757.15 468.30 757.16 462.97
  Q 757.17 447.92 757.14 432.87
  A 0.62 0.62 0.0 0 1 757.76 432.25
  L 767.55 432.25
  A 0.54 0.54 0.0 0 1 768.09 432.79
  L 768.09 486.00
  Q 768.09 486.58 767.50 486.58
  L 757.72 486.60
  Q 757.08 486.60 757.11 485.97
  L 757.19 483.55
  Q 757.21 482.88 756.66 483.24
  Z"
/>
<path fill="#6d5845" d="
  M 798.25 435.55
  C 808.20 430.46 820.97 430.94 829.56 438.53
  Q 829.94 438.86 830.32 438.54
  C 843.89 426.92 873.27 430.58 873.17 453.00
  Q 873.10 469.70 873.07 486.41
  Q 873.07 487.00 872.47 487.00
  L 862.72 487.00
  Q 862.14 487.00 862.15 486.42
  Q 862.20 469.54 862.10 452.76
  C 862.04 442.74 849.24 442.01 842.24 443.97
  C 836.80 445.49 835.49 449.33 835.50 454.87
  Q 835.53 470.68 835.49 486.49
  Q 835.49 487.00 834.97 487.00
  L 825.03 487.00
  Q 824.53 487.00 824.53 486.50
  Q 824.43 460.86 824.51 453.75
  C 824.57 447.57 821.20 444.52 815.27 443.50
  C 807.82 442.22 797.67 443.57 797.71 453.50
  Q 797.77 469.98 797.75 486.47
  Q 797.75 487.00 797.22 487.00
  L 787.27 487.00
  Q 786.66 487.00 786.66 486.39
  L 786.66 433.25
  Q 786.66 432.66 787.25 432.66
  L 797.14 432.66
  Q 797.75 432.66 797.75 433.27
  L 797.75 435.24
  Q 797.75 435.81 798.25 435.55
  Z"
/>
</svg>
