<?xml version="1.0" encoding="UTF-8" standalone="no"?>
<!DOCTYPE svg PUBLIC "-//W3C//DTD SVG 1.1//EN" "http://www.w3.org/Graphics/SVG/1.1/DTD/svg11.dtd">
<svg xmlns="http://www.w3.org/2000/svg" version="1.1" viewBox="0.00 0.00 3101.00 676.00">
<g stroke-width="2.00" fill="none" stroke-linecap="butt">
<path stroke="#af9d84" vector-effect="non-scaling-stroke" d="
  M 394.61 364.61
  C 394.03 322.09 390.73 280.85 381.38 239.28
  C 372.89 201.53 357.77 163.86 333.23 133.99
  C 288.73 79.79 220.72 65.77 153.73 75.12
  C 100.89 82.50 48.82 100.89 1.79 125.86
  A 1.06 1.05 -14.2 0 0 1.23 126.79
  L 1.22 255.47
  A 0.34 0.33 75.9 0 0 1.71 255.77
  Q 47.48 231.39 98.00 219.44
  C 132.54 211.27 171.11 208.75 205.18 218.58
  C 272.68 238.07 303.49 302.55 314.08 366.75
  Q 320.89 408.02 320.50 449.99
  Q 320.50 450.55 321.03 450.37
  Q 357.17 438.46 395.26 437.46
  C 452.48 435.94 502.78 457.65 535.91 505.35
  Q 555.47 533.51 565.74 568.43
  Q 565.89 568.95 566.41 568.82
  Q 617.12 556.56 669.24 559.75
  Q 693.80 561.25 716.98 569.19
  Q 766.18 586.02 784.71 634.45
  Q 784.90 634.95 785.39 634.73
  C 798.77 628.79 813.66 624.54 828.33 623.97
  C 862.20 622.67 881.02 642.26 885.71 674.30
  Q 885.78 674.78 886.26 674.78
  L 1077.24 674.78
  A 0.55 0.55 0.0 0 0 1077.79 674.21
  C 1076.54 638.49 1056.35 618.57 1023.77 609.99
  Q 1001.51 604.12 978.10 605.93
  A 1.07 1.05 -13.9 0 1 977.04 605.30
  C 957.37 559.60 922.18 524.89 874.23 510.14
  Q 844.56 501.01 813.24 500.82
  Q 760.11 500.49 709.94 517.62
  A 0.56 0.56 0.0 0 1 709.23 517.28
  C 696.32 481.45 674.31 447.63 645.18 422.96
  C 601.21 385.71 546.66 367.62 489.50 362.50
  Q 441.41 358.20 395.12 365.05
  Q 394.62 365.12 394.61 364.61"
/>
<path stroke="#a89170" vector-effect="non-scaling-stroke" d="
  M 318.95 453.99
  A 0.49 0.49 0.0 0 1 318.23 453.55
  Q 318.55 427.79 316.39 402.00
  C 313.25 364.57 305.21 326.83 288.12 292.84
  C 230.23 177.72 90.74 210.23 1.58 258.69
  Q 1.21 258.89 1.21 259.31
  L 1.20 403.50
  A 0.76 0.76 0.0 0 0 1.97 404.26
  C 55.69 403.46 102.34 432.22 122.44 482.61
  C 134.69 513.30 137.93 547.46 136.44 580.31
  Q 136.38 581.77 137.29 580.64
  C 154.41 559.46 182.39 543.88 208.45 561.13
  A 0.79 0.78 44.5 0 0 209.32 561.13
  C 239.06 541.03 285.91 520.29 321.60 534.19
  C 352.05 546.05 366.81 579.32 371.66 609.58
  A 0.52 0.52 0.0 0 0 372.44 609.95
  C 399.63 593.82 440.07 584.12 460.75 616.52
  C 471.26 632.98 475.01 655.06 475.44 674.21
  A 0.59 0.58 89.0 0 0 476.02 674.78
  L 882.56 674.78
  Q 883.28 674.78 883.18 674.06
  Q 882.07 666.25 878.44 656.79
  C 862.50 615.28 814.88 623.21 783.90 637.99
  Q 783.39 638.24 783.21 637.71
  C 764.11 581.35 710.18 562.44 655.73 561.12
  Q 609.71 560.00 565.01 571.50
  Q 564.49 571.63 564.34 571.12
  C 555.43 541.86 542.07 514.25 522.41 491.84
  C 472.39 434.79 392.19 429.04 324.07 451.84
  Q 321.33 452.76 318.95 453.99"
/>
<path stroke="#a27d55" vector-effect="non-scaling-stroke" d="
  M 133.95 588.01
  C 136.24 555.28 133.83 521.15 122.76 490.04
  C 103.51 435.91 58.21 406.59 1.67 406.57
  Q 1.21 406.57 1.21 407.03
  L 1.21 674.11
  A 0.65 0.65 0.0 0 0 1.86 674.76
  L 472.72 674.76
  A 0.38 0.38 0.0 0 0 473.10 674.36
  C 472.08 653.85 468.94 629.34 455.27 612.87
  C 433.46 586.61 394.79 598.28 370.83 613.74
  A 0.48 0.48 0.0 0 1 370.10 613.41
  C 363.76 572.71 343.57 532.67 296.26 531.90
  Q 284.66 531.71 274.20 534.23
  Q 239.83 542.53 209.45 564.20
  Q 209.00 564.52 208.55 564.20
  C 180.50 543.98 150.72 564.77 134.36 588.16
  A 0.23 0.22 64.7 0 1 133.95 588.01"
/>
<path stroke="#af9d84" vector-effect="non-scaling-stroke" d="
  M 2710.94 369.02
  Q 2646.64 359.24 2582.76 371.29
  Q 2554.31 376.66 2527.52 387.54
  Q 2447.19 420.17 2409.30 498.05
  Q 2407.26 502.23 2400.35 519.19
  Q 2400.14 519.70 2399.61 519.52
  C 2361.00 506.45 2319.32 500.34 2278.51 504.02
  C 2212.81 509.96 2162.17 545.48 2135.99 606.26
  A 0.97 0.96 13.6 0 1 2135.03 606.84
  C 2108.75 604.84 2074.88 609.69 2055.04 628.90
  Q 2036.63 646.72 2036.79 674.31
  Q 2036.80 674.78 2037.26 674.78
  L 2225.49 674.78
  A 0.79 0.78 3.7 0 0 2226.27 674.10
  C 2230.01 645.72 2247.80 624.47 2278.02 624.61
  Q 2302.84 624.73 2325.28 635.25
  A 0.66 0.65 -67.9 0 0 2326.17 634.87
  C 2343.33 585.93 2390.03 564.70 2438.51 561.21
  Q 2489.77 557.51 2541.30 570.09
  Q 2541.82 570.22 2541.99 569.71
  C 2549.27 547.30 2558.44 526.50 2571.88 507.08
  C 2598.65 468.38 2639.73 445.36 2686.78 441.25
  Q 2735.89 436.96 2783.76 453.15
  A 0.44 0.44 0.0 0 0 2784.34 452.73
  C 2784.07 364.19 2803.39 243.46 2909.77 221.55
  C 2941.11 215.09 2974.65 217.81 3005.98 225.37
  Q 3054.90 237.17 3099.19 260.85
  A 0.41 0.41 0.0 0 0 3099.79 260.49
  L 3099.79 133.50
  A 0.78 0.78 0.0 0 0 3099.37 132.81
  Q 3036.18 98.96 2966.10 85.28
  C 2926.83 77.62 2886.16 77.47 2847.75 89.26
  C 2764.20 114.93 2729.42 199.22 2717.88 278.26
  Q 2711.32 323.19 2711.44 368.60
  Q 2711.44 369.10 2710.94 369.02"
/>
<path stroke="#a89170" vector-effect="non-scaling-stroke" d="
  M 2327.49 638.55
  A 0.39 0.39 0.0 0 1 2326.95 638.78
  C 2308.11 629.60 2283.19 623.07 2262.98 628.74
  C 2241.95 634.64 2231.82 653.92 2228.66 674.35
  Q 2228.59 674.78 2229.02 674.78
  L 2630.53 674.78
  A 0.98 0.98 0.0 0 0 2631.51 673.82
  C 2631.84 652.98 2636.60 627.18 2650.53 611.04
  C 2671.89 586.28 2708.65 596.63 2733.14 610.59
  Q 2733.61 610.85 2733.71 610.33
  C 2741.50 571.22 2760.31 533.03 2805.95 531.67
  C 2836.78 530.76 2869.10 545.30 2894.23 562.64
  Q 2894.66 562.94 2895.09 562.65
  C 2921.45 545.09 2948.57 561.23 2965.81 582.14
  Q 2966.24 582.66 2966.21 581.98
  C 2963.34 512.79 2980.98 438.78 3054.88 414.30
  C 3069.00 409.62 3084.22 407.44 3099.09 407.47
  Q 3099.79 407.48 3099.79 406.78
  L 3099.79 264.51
  A 0.77 0.76 14.6 0 0 3099.39 263.84
  C 3060.78 243.04 3018.01 227.73 2974.51 221.79
  C 2926.00 215.16 2877.69 224.83 2842.58 260.43
  C 2819.95 283.38 2806.11 315.15 2798.43 346.10
  C 2789.41 382.43 2786.60 418.12 2786.67 456.21
  Q 2786.67 456.88 2786.04 456.65
  Q 2747.08 442.61 2709.24 442.24
  C 2651.26 441.67 2601.51 464.88 2569.91 514.42
  Q 2552.94 541.01 2543.72 572.43
  A 0.54 0.54 0.0 0 1 2543.07 572.81
  C 2471.89 555.00 2356.78 549.75 2327.49 638.55"
/>
<path stroke="#a27d55" vector-effect="non-scaling-stroke" d="
  M 2968.29 589.32
  Q 2956.71 572.80 2940.97 563.82
  Q 2917.31 550.32 2894.91 565.40
  Q 2894.55 565.65 2894.19 565.40
  C 2856.36 539.17 2791.23 512.52 2756.56 559.57
  C 2744.72 575.64 2738.75 594.75 2735.43 614.26
  Q 2735.33 614.82 2734.84 614.52
  C 2706.85 597.42 2665.05 585.54 2645.57 622.30
  C 2637.09 638.31 2634.58 656.42 2633.80 674.27
  Q 2633.78 674.76 2634.27 674.76
  L 3099.26 674.76
  Q 3099.78 674.76 3099.78 674.24
  L 3099.78 410.74
  A 0.73 0.73 0.0 0 0 3099.06 410.01
  C 3052.67 409.17 3010.76 431.08 2988.64 472.59
  C 2970.00 507.55 2965.73 549.60 2968.86 589.11
  Q 2968.95 590.25 2968.29 589.32"
/>
</g>
<path fill="#6d5946" d="
  M 1079.90 676.00
  L 0.00 676.00
  L 0.00 123.96
  C 43.84 100.60 93.41 82.57 143.99 74.15
  Q 178.31 68.44 212.09 71.00
  C 291.42 77.01 344.42 124.34 371.36 197.02
  C 390.97 249.94 396.00 305.58 397.01 361.78
  Q 397.02 362.29 397.52 362.22
  Q 442.52 356.01 487.75 359.83
  C 530.50 363.43 574.87 374.66 612.14 396.47
  Q 681.94 437.31 710.64 514.07
  Q 710.88 514.72 711.54 514.50
  Q 767.59 495.78 826.75 498.77
  Q 849.32 499.92 874.94 507.84
  C 923.53 522.86 958.56 557.05 978.73 603.01
  A 0.74 0.73 -13.0 0 0 979.45 603.45
  C 1020.49 600.86 1070.41 613.52 1078.85 661.16
  Q 1080.34 669.59 1079.90 676.00
  Z
  M 394.61 364.61
  C 394.03 322.09 390.73 280.85 381.38 239.28
  C 372.89 201.53 357.77 163.86 333.23 133.99
  C 288.73 79.79 220.72 65.77 153.73 75.12
  C 100.89 82.50 48.82 100.89 1.79 125.86
  A 1.06 1.05 -14.2 0 0 1.23 126.79
  L 1.22 255.47
  A 0.34 0.33 75.9 0 0 1.71 255.77
  Q 47.48 231.39 98.00 219.44
  C 132.54 211.27 171.11 208.75 205.18 218.58
  C 272.68 238.07 303.49 302.55 314.08 366.75
  Q 320.89 408.02 320.50 449.99
  Q 320.50 450.55 321.03 450.37
  Q 357.17 438.46 395.26 437.46
  C 452.48 435.94 502.78 457.65 535.91 505.35
  Q 555.47 533.51 565.74 568.43
  Q 565.89 568.95 566.41 568.82
  Q 617.12 556.56 669.24 559.75
  Q 693.80 561.25 716.98 569.19
  Q 766.18 586.02 784.71 634.45
  Q 784.90 634.95 785.39 634.73
  C 798.77 628.79 813.66 624.54 828.33 623.97
  C 862.20 622.67 881.02 642.26 885.71 674.30
  Q 885.78 674.78 886.26 674.78
  L 1077.24 674.78
  A 0.55 0.55 0.0 0 0 1077.79 674.21
  C 1076.54 638.49 1056.35 618.57 1023.77 609.99
  Q 1001.51 604.12 978.10 605.93
  A 1.07 1.05 -13.9 0 1 977.04 605.30
  C 957.37 559.60 922.18 524.89 874.23 510.14
  Q 844.56 501.01 813.24 500.82
  Q 760.11 500.49 709.94 517.62
  A 0.56 0.56 0.0 0 1 709.23 517.28
  C 696.32 481.45 674.31 447.63 645.18 422.96
  C 601.21 385.71 546.66 367.62 489.50 362.50
  Q 441.41 358.20 395.12 365.05
  Q 394.62 365.12 394.61 364.61
  Z
  M 318.95 453.99
  A 0.49 0.49 0.0 0 1 318.23 453.55
  Q 318.55 427.79 316.39 402.00
  C 313.25 364.57 305.21 326.83 288.12 292.84
  C 230.23 177.72 90.74 210.23 1.58 258.69
  Q 1.21 258.89 1.21 259.31
  L 1.20 403.50
  A 0.76 0.76 0.0 0 0 1.97 404.26
  C 55.69 403.46 102.34 432.22 122.44 482.61
  C 134.69 513.30 137.93 547.46 136.44 580.31
  Q 136.38 581.77 137.29 580.64
  C 154.41 559.46 182.39 543.88 208.45 561.13
  A 0.79 0.78 44.5 0 0 209.32 561.13
  C 239.06 541.03 285.91 520.29 321.60 534.19
  C 352.05 546.05 366.81 579.32 371.66 609.58
  A 0.52 0.52 0.0 0 0 372.44 609.95
  C 399.63 593.82 440.07 584.12 460.75 616.52
  C 471.26 632.98 475.01 655.06 475.44 674.21
  A 0.59 0.58 89.0 0 0 476.02 674.78
  L 882.56 674.78
  Q 883.28 674.78 883.18 674.06
  Q 882.07 666.25 878.44 656.79
  C 862.50 615.28 814.88 623.21 783.90 637.99
  Q 783.39 638.24 783.21 637.71
  C 764.11 581.35 710.18 562.44 655.73 561.12
  Q 609.71 560.00 565.01 571.50
  Q 564.49 571.63 564.34 571.12
  C 555.43 541.86 542.07 514.25 522.41 491.84
  C 472.39 434.79 392.19 429.04 324.07 451.84
  Q 321.33 452.76 318.95 453.99
  Z
  M 133.95 588.01
  C 136.24 555.28 133.83 521.15 122.76 490.04
  C 103.51 435.91 58.21 406.59 1.67 406.57
  Q 1.21 406.57 1.21 407.03
  L 1.21 674.11
  A 0.65 0.65 0.0 0 0 1.86 674.76
  L 472.72 674.76
  A 0.38 0.38 0.0 0 0 473.10 674.36
  C 472.08 653.85 468.94 629.34 455.27 612.87
  C 433.46 586.61 394.79 598.28 370.83 613.74
  A 0.48 0.48 0.0 0 1 370.10 613.41
  C 363.76 572.71 343.57 532.67 296.26 531.90
  Q 284.66 531.71 274.20 534.23
  Q 239.83 542.53 209.45 564.20
  Q 209.00 564.52 208.55 564.20
  C 180.50 543.98 150.72 564.77 134.36 588.16
  A 0.23 0.22 64.7 0 1 133.95 588.01
  Z"
/>
<path fill="#f0e1c1" d="
  M 395.12 365.05
  Q 441.41 358.20 489.50 362.50
  C 546.66 367.62 601.21 385.71 645.18 422.96
  C 674.31 447.63 696.32 481.45 709.23 517.28
  A 0.56 0.56 0.0 0 0 709.94 517.62
  Q 760.11 500.49 813.24 500.82
  Q 844.56 501.01 874.23 510.14
  C 922.18 524.89 957.37 559.60 977.04 605.30
  A 1.07 1.05 -13.9 0 0 978.10 605.93
  Q 1001.51 604.12 1023.77 609.99
  C 1056.35 618.57 1076.54 638.49 1077.79 674.21
  A 0.55 0.55 0.0 0 1 1077.24 674.78
  L 886.26 674.78
  Q 885.78 674.78 885.71 674.30
  C 881.02 642.26 862.20 622.67 828.33 623.97
  C 813.66 624.54 798.77 628.79 785.39 634.73
  Q 784.90 634.95 784.71 634.45
  Q 766.18 586.02 716.98 569.19
  Q 693.80 561.25 669.24 559.75
  Q 617.12 556.56 566.41 568.82
  Q 565.89 568.95 565.74 568.43
  Q 555.47 533.51 535.91 505.35
  C 502.78 457.65 452.48 435.94 395.26 437.46
  Q 357.17 438.46 321.03 450.37
  Q 320.50 450.55 320.50 449.99
  Q 320.89 408.02 314.08 366.75
  C 303.49 302.55 272.68 238.07 205.18 218.58
  C 171.11 208.75 132.54 211.27 98.00 219.44
  Q 47.48 231.39 1.71 255.77
  A 0.34 0.33 75.9 0 1 1.22 255.47
  L 1.23 126.79
  A 1.06 1.05 -14.2 0 1 1.79 125.86
  C 48.82 100.89 100.89 82.50 153.73 75.12
  C 220.72 65.77 288.73 79.79 333.23 133.99
  C 357.77 163.86 372.89 201.53 381.38 239.28
  C 390.73 280.85 394.03 322.09 394.61 364.61
  Q 394.62 365.12 395.12 365.05
  Z"
/>
<path fill="#6d5946" d="
  M 3101.00 130.81
  L 3101.00 676.00
  L 2034.41 676.00
  Q 2034.02 667.40 2035.84 658.76
  C 2045.27 614.01 2094.22 601.62 2133.64 604.44
  Q 2134.17 604.48 2134.38 603.99
  C 2153.01 560.80 2185.73 527.87 2230.05 512.14
  Q 2255.81 502.99 2283.12 501.13
  C 2321.94 498.48 2361.44 504.33 2398.34 516.44
  Q 2398.85 516.61 2399.04 516.10
  Q 2413.25 478.26 2437.81 448.82
  C 2478.05 400.57 2537.37 374.48 2599.02 366.11
  Q 2655.00 358.52 2708.59 366.09
  Q 2709.10 366.16 2709.10 365.65
  Q 2709.00 320.94 2715.47 276.75
  C 2722.18 230.97 2736.33 185.14 2763.68 147.42
  C 2795.15 104.00 2842.31 80.95 2895.47 78.10
  Q 2935.71 75.94 2975.26 84.54
  Q 3041.36 98.90 3101.00 130.81
  Z
  M 2710.94 369.02
  Q 2646.64 359.24 2582.76 371.29
  Q 2554.31 376.66 2527.52 387.54
  Q 2447.19 420.17 2409.30 498.05
  Q 2407.26 502.23 2400.35 519.19
  Q 2400.14 519.70 2399.61 519.52
  C 2361.00 506.45 2319.32 500.34 2278.51 504.02
  C 2212.81 509.96 2162.17 545.48 2135.99 606.26
  A 0.97 0.96 13.6 0 1 2135.03 606.84
  C 2108.75 604.84 2074.88 609.69 2055.04 628.90
  Q 2036.63 646.72 2036.79 674.31
  Q 2036.80 674.78 2037.26 674.78
  L 2225.49 674.78
  A 0.79 0.78 3.7 0 0 2226.27 674.10
  C 2230.01 645.72 2247.80 624.47 2278.02 624.61
  Q 2302.84 624.73 2325.28 635.25
  A 0.66 0.65 -67.9 0 0 2326.17 634.87
  C 2343.33 585.93 2390.03 564.70 2438.51 561.21
  Q 2489.77 557.51 2541.30 570.09
  Q 2541.82 570.22 2541.99 569.71
  C 2549.27 547.30 2558.44 526.50 2571.88 507.08
  C 2598.65 468.38 2639.73 445.36 2686.78 441.25
  Q 2735.89 436.96 2783.76 453.15
  A 0.44 0.44 0.0 0 0 2784.34 452.73
  C 2784.07 364.19 2803.39 243.46 2909.77 221.55
  C 2941.11 215.09 2974.65 217.81 3005.98 225.37
  Q 3054.90 237.17 3099.19 260.85
  A 0.41 0.41 0.0 0 0 3099.79 260.49
  L 3099.79 133.50
  A 0.78 0.78 0.0 0 0 3099.37 132.81
  Q 3036.18 98.96 2966.10 85.28
  C 2926.83 77.62 2886.16 77.47 2847.75 89.26
  C 2764.20 114.93 2729.42 199.22 2717.88 278.26
  Q 2711.32 323.19 2711.44 368.60
  Q 2711.44 369.10 2710.94 369.02
  Z
  M 2327.49 638.55
  A 0.39 0.39 0.0 0 1 2326.95 638.78
  C 2308.11 629.60 2283.19 623.07 2262.98 628.74
  C 2241.95 634.64 2231.82 653.92 2228.66 674.35
  Q 2228.59 674.78 2229.02 674.78
  L 2630.53 674.78
  A 0.98 0.98 0.0 0 0 2631.51 673.82
  C 2631.84 652.98 2636.60 627.18 2650.53 611.04
  C 2671.89 586.28 2708.65 596.63 2733.14 610.59
  Q 2733.61 610.85 2733.71 610.33
  C 2741.50 571.22 2760.31 533.03 2805.95 531.67
  C 2836.78 530.76 2869.10 545.30 2894.23 562.64
  Q 2894.66 562.94 2895.09 562.65
  C 2921.45 545.09 2948.57 561.23 2965.81 582.14
  Q 2966.24 582.66 2966.21 581.98
  C 2963.34 512.79 2980.98 438.78 3054.88 414.30
  C 3069.00 409.62 3084.22 407.44 3099.09 407.47
  Q 3099.79 407.48 3099.79 406.78
  L 3099.79 264.51
  A 0.77 0.76 14.6 0 0 3099.39 263.84
  C 3060.78 243.04 3018.01 227.73 2974.51 221.79
  C 2926.00 215.16 2877.69 224.83 2842.58 260.43
  C 2819.95 283.38 2806.11 315.15 2798.43 346.10
  C 2789.41 382.43 2786.60 418.12 2786.67 456.21
  Q 2786.67 456.88 2786.04 456.65
  Q 2747.08 442.61 2709.24 442.24
  C 2651.26 441.67 2601.51 464.88 2569.91 514.42
  Q 2552.94 541.01 2543.72 572.43
  A 0.54 0.54 0.0 0 1 2543.07 572.81
  C 2471.89 555.00 2356.78 549.75 2327.49 638.55
  Z
  M 2968.29 589.32
  Q 2956.71 572.80 2940.97 563.82
  Q 2917.31 550.32 2894.91 565.40
  Q 2894.55 565.65 2894.19 565.40
  C 2856.36 539.17 2791.23 512.52 2756.56 559.57
  C 2744.72 575.64 2738.75 594.75 2735.43 614.26
  Q 2735.33 614.82 2734.84 614.52
  C 2706.85 597.42 2665.05 585.54 2645.57 622.30
  C 2637.09 638.31 2634.58 656.42 2633.80 674.27
  Q 2633.78 674.76 2634.27 674.76
  L 3099.26 674.76
  Q 3099.78 674.76 3099.78 674.24
  L 3099.78 410.74
  A 0.73 0.73 0.0 0 0 3099.06 410.01
  C 3052.67 409.17 3010.76 431.08 2988.64 472.59
  C 2970.00 507.55 2965.73 549.60 2968.86 589.11
  Q 2968.95 590.25 2968.29 589.32
  Z"
/>
<path fill="#f0e1c1" d="
  M 2711.44 368.60
  Q 2711.32 323.19 2717.88 278.26
  C 2729.42 199.22 2764.20 114.93 2847.75 89.26
  C 2886.16 77.47 2926.83 77.62 2966.10 85.28
  Q 3036.18 98.96 3099.37 132.81
  A 0.78 0.78 0.0 0 1 3099.79 133.50
  L 3099.79 260.49
  A 0.41 0.41 0.0 0 1 3099.19 260.85
  Q 3054.90 237.17 3005.98 225.37
  C 2974.65 217.81 2941.11 215.09 2909.77 221.55
  C 2803.39 243.46 2784.07 364.19 2784.34 452.73
  A 0.44 0.44 0.0 0 1 2783.76 453.15
  Q 2735.89 436.96 2686.78 441.25
  C 2639.73 445.36 2598.65 468.38 2571.88 507.08
  C 2558.44 526.50 2549.27 547.30 2541.99 569.71
  Q 2541.82 570.22 2541.30 570.09
  Q 2489.77 557.51 2438.51 561.21
  C 2390.03 564.70 2343.33 585.93 2326.17 634.87
  A 0.66 0.65 -67.9 0 1 2325.28 635.25
  Q 2302.84 624.73 2278.02 624.61
  C 2247.80 624.47 2230.01 645.72 2226.27 674.10
  A 0.79 0.78 3.7 0 1 2225.49 674.78
  L 2037.26 674.78
  Q 2036.80 674.78 2036.79 674.31
  Q 2036.63 646.72 2055.04 628.90
  C 2074.88 609.69 2108.75 604.84 2135.03 606.84
  A 0.97 0.96 13.6 0 0 2135.99 606.26
  C 2162.17 545.48 2212.81 509.96 2278.51 504.02
  C 2319.32 500.34 2361.00 506.45 2399.61 519.52
  Q 2400.14 519.70 2400.35 519.19
  Q 2407.26 502.23 2409.30 498.05
  Q 2447.19 420.17 2527.52 387.54
  Q 2554.31 376.66 2582.76 371.29
  Q 2646.64 359.24 2710.94 369.02
  Q 2711.44 369.10 2711.44 368.60
  Z"
/>
<path fill="#e2c99a" d="
  M 318.95 453.99
  Q 321.33 452.76 324.07 451.84
  C 392.19 429.04 472.39 434.79 522.41 491.84
  C 542.07 514.25 555.43 541.86 564.34 571.12
  Q 564.49 571.63 565.01 571.50
  Q 609.71 560.00 655.73 561.12
  C 710.18 562.44 764.11 581.35 783.21 637.71
  Q 783.39 638.24 783.90 637.99
  C 814.88 623.21 862.50 615.28 878.44 656.79
  Q 882.07 666.25 883.18 674.06
  Q 883.28 674.78 882.56 674.78
  L 476.02 674.78
  A 0.59 0.58 89.0 0 1 475.44 674.21
  C 475.01 655.06 471.26 632.98 460.75 616.52
  C 440.07 584.12 399.63 593.82 372.44 609.95
  A 0.52 0.52 0.0 0 1 371.66 609.58
  C 366.81 579.32 352.05 546.05 321.60 534.19
  C 285.91 520.29 239.06 541.03 209.32 561.13
  A 0.79 0.78 44.5 0 1 208.45 561.13
  C 182.39 543.88 154.41 559.46 137.29 580.64
  Q 136.38 581.77 136.44 580.31
  C 137.93 547.46 134.69 513.30 122.44 482.61
  C 102.34 432.22 55.69 403.46 1.97 404.26
  A 0.76 0.76 0.0 0 1 1.20 403.50
  L 1.21 259.31
  Q 1.21 258.89 1.58 258.69
  C 90.74 210.23 230.23 177.72 288.12 292.84
  C 305.21 326.83 313.25 364.57 316.39 402.00
  Q 318.55 427.79 318.23 453.55
  A 0.49 0.49 0.0 0 0 318.95 453.99
  Z"
/>
<path fill="#e2c99a" d="
  M 2327.49 638.55
  C 2356.78 549.75 2471.89 555.00 2543.07 572.81
  A 0.54 0.54 0.0 0 0 2543.72 572.43
  Q 2552.94 541.01 2569.91 514.42
  C 2601.51 464.88 2651.26 441.67 2709.24 442.24
  Q 2747.08 442.61 2786.04 456.65
  Q 2786.67 456.88 2786.67 456.21
  C 2786.60 418.12 2789.41 382.43 2798.43 346.10
  C 2806.11 315.15 2819.95 283.38 2842.58 260.43
  C 2877.69 224.83 2926.00 215.16 2974.51 221.79
  C 3018.01 227.73 3060.78 243.04 3099.39 263.84
  A 0.77 0.76 14.6 0 1 3099.79 264.51
  L 3099.79 406.78
  Q 3099.79 407.48 3099.09 407.47
  C 3084.22 407.44 3069.00 409.62 3054.88 414.30
  C 2980.98 438.78 2963.34 512.79 2966.21 581.98
  Q 2966.24 582.66 2965.81 582.14
  C 2948.57 561.23 2921.45 545.09 2895.09 562.65
  Q 2894.66 562.94 2894.23 562.64
  C 2869.10 545.30 2836.78 530.76 2805.95 531.67
  C 2760.31 533.03 2741.50 571.22 2733.71 610.33
  Q 2733.61 610.85 2733.14 610.59
  C 2708.65 596.63 2671.89 586.28 2650.53 611.04
  C 2636.60 627.18 2631.84 652.98 2631.51 673.82
  A 0.98 0.98 0.0 0 1 2630.53 674.78
  L 2229.02 674.78
  Q 2228.59 674.78 2228.66 674.35
  C 2231.82 653.92 2241.95 634.64 2262.98 628.74
  C 2283.19 623.07 2308.11 629.60 2326.95 638.78
  A 0.39 0.39 0.0 0 0 2327.49 638.55
  Z"
/>
<path fill="#d6a163" d="
  M 133.95 588.01
  A 0.23 0.22 64.7 0 0 134.36 588.16
  C 150.72 564.77 180.50 543.98 208.55 564.20
  Q 209.00 564.52 209.45 564.20
  Q 239.83 542.53 274.20 534.23
  Q 284.66 531.71 296.26 531.90
  C 343.57 532.67 363.76 572.71 370.10 613.41
  A 0.48 0.48 0.0 0 0 370.83 613.74
  C 394.79 598.28 433.46 586.61 455.27 612.87
  C 468.94 629.34 472.08 653.85 473.10 674.36
  A 0.38 0.38 0.0 0 1 472.72 674.76
  L 1.86 674.76
  A 0.65 0.65 0.0 0 1 1.21 674.11
  L 1.21 407.03
  Q 1.21 406.57 1.67 406.57
  C 58.21 406.59 103.51 435.91 122.76 490.04
  C 133.83 521.15 136.24 555.28 133.95 588.01
  Z"
/>
<path fill="#d6a163" d="
  M 2968.86 589.11
  C 2965.73 549.60 2970.00 507.55 2988.64 472.59
  C 3010.76 431.08 3052.67 409.17 3099.06 410.01
  A 0.73 0.73 0.0 0 1 3099.78 410.74
  L 3099.78 674.24
  Q 3099.78 674.76 3099.26 674.76
  L 2634.27 674.76
  Q 2633.78 674.76 2633.80 674.27
  C 2634.58 656.42 2637.09 638.31 2645.57 622.30
  C 2665.05 585.54 2706.85 597.42 2734.84 614.52
  Q 2735.33 614.82 2735.43 614.26
  C 2738.75 594.75 2744.72 575.64 2756.56 559.57
  C 2791.23 512.52 2856.36 539.17 2894.19 565.40
  Q 2894.55 565.65 2894.91 565.40
  Q 2917.31 550.32 2940.97 563.82
  Q 2956.71 572.80 2968.29 589.32
  Q 2968.95 590.25 2968.86 589.11
  Z"
/>
</svg>
