<?xml version="1.0" encoding="UTF-8"?>
<!DOCTYPE svg PUBLIC "-//W3C//DTD SVG 1.1//EN" "http://www.w3.org/Graphics/SVG/1.1/DTD/svg11.dtd">
<svg xmlns="http://www.w3.org/2000/svg" version="1.1" width="4500px" height="4500px" style="shape-rendering:geometricPrecision; text-rendering:geometricPrecision; image-rendering:optimizeQuality; fill-rule:evenodd; clip-rule:evenodd" xmlns:xlink="http://www.w3.org/1999/xlink">
<g><path style="opacity:0.975" fill="#6e5946" d="M 654.5,-0.5 C 1413.17,-0.5 2171.83,-0.5 2930.5,-0.5C 2998.17,32.493 3063.5,69.3264 3126.5,110C 3211.72,165.221 3294.72,223.554 3375.5,285C 3541.2,412.336 3702.53,545.336 3859.5,684C 3903.76,722.928 3947.43,762.595 3990.5,803C 4026.8,777.914 4062.8,752.081 4098.5,725.5C 4098.83,731.667 4099.17,737.833 4099.5,744C 4097.36,815.827 4095.86,887.66 4095,959.5C 4158.1,1004.97 4220.93,1050.8 4283.5,1097C 4208.9,1119.53 4134.24,1141.87 4059.5,1164C 4035.27,1238.2 4010.93,1312.36 3986.5,1386.5C 3941.97,1322.47 3897.64,1258.3 3853.5,1194C 3775.52,1194.81 3697.52,1194.65 3619.5,1193.5C 3649.38,1154.24 3679.38,1115.08 3709.5,1076C 3335.09,840.564 2947.42,626.231 2546.5,433C 2366.21,346.797 2182.88,267.797 1996.5,196C 1946.43,177.144 1896.1,158.977 1845.5,141.5C 1764.24,386.674 1659.58,621.341 1531.5,845.5C 1550.11,867.612 1569.28,889.279 1589,910.5C 1594.83,891 1600.67,871.5 1606.5,852C 1606.36,851.228 1606.02,850.561 1605.5,850C 1593.22,845.544 1580.55,842.877 1567.5,842C 1566.41,839.936 1566.24,837.769 1567,835.5C 1582.44,833.396 1597.78,831.396 1613,829.5C 1635.54,754.226 1657.87,678.893 1680,603.5C 1773.13,522.706 1865.96,441.539 1958.5,360C 1994.7,355.497 2031.03,351.83 2067.5,349C 2069.56,348.347 2071.23,347.18 2072.5,345.5C 2073.36,346.736 2074.02,348.069 2074.5,349.5C 2073.86,354.284 2073.53,359.117 2073.5,364C 2076.45,463.166 2078.95,562.332 2081,661.5C 2061.89,726.815 2043.22,792.148 2025,857.5C 2033.23,846.854 2041.06,836.021 2048.5,825C 2102.16,793.503 2155.5,761.503 2208.5,729C 2266.85,724.486 2325.18,719.819 2383.5,715C 2385,712.833 2386.17,713 2387,715.5C 2351.76,807.593 2315.93,901.76 2279.5,998C 2279.83,998.333 2280.17,998.667 2280.5,999C 2203.47,1081.7 2126.8,1164.7 2050.5,1248C 2101.64,1219.42 2152.64,1190.25 2203.5,1160.5C 2208.62,1161.14 2213.78,1161.48 2219,1161.5C 2286.19,1158.91 2353.36,1156.91 2420.5,1155.5C 2371.29,1232.75 2321.96,1309.92 2272.5,1387C 2273.17,1387.67 2273.83,1388.33 2274.5,1389C 2196.33,1411.28 2118.33,1433.95 2040.5,1457C 2047.97,1468.06 2050.47,1480.23 2048,1493.5C 2042.41,1531.42 2020.58,1552.92 1982.5,1558C 1970.83,1558.67 1959.17,1558.67 1947.5,1558C 1935.35,1556.42 1923.35,1554.42 1911.5,1552C 1880.79,1618.52 1829.45,1643.69 1757.5,1627.5C 1746.99,1647.66 1730.32,1657.99 1707.5,1658.5C 1697.25,1658.18 1687.25,1656.68 1677.5,1654C 1656.5,1682.5 1628.17,1696.66 1592.5,1696.5C 1580.09,1696.55 1567.93,1694.88 1556,1691.5C 1534.62,1708.12 1511.79,1722.62 1487.5,1735C 1411.04,1769.03 1341.04,1759.03 1277.5,1705C 1261.7,1690.87 1247.7,1675.21 1235.5,1658C 1201.4,1661.11 1168.06,1657.45 1135.5,1647C 1089.87,1629.39 1060.54,1597.39 1047.5,1551C 1029.38,1573.46 1010.88,1595.63 992,1617.5C 951.089,1700.32 909.923,1782.99 868.5,1865.5C 846.587,1853.96 824.754,1842.29 803,1830.5C 597.582,2049.97 378.082,2252.8 144.5,2439C 161.795,2445.27 179.129,2451.43 196.5,2457.5C 220.656,2439.59 244.99,2421.92 269.5,2404.5C 269.833,2409.17 270.167,2413.83 270.5,2418.5C 269.517,2444.17 269.017,2469.83 269,2495.5C 293.331,2513.01 317.497,2530.67 341.5,2548.5C 313.105,2558.02 284.439,2566.85 255.5,2575C 245.934,2603.86 236.268,2632.7 226.5,2661.5C 208.615,2637.1 191.282,2612.27 174.5,2587C 144.15,2586.73 113.816,2586.56 83.5,2586.5C 102.076,2562.35 120.41,2538.01 138.5,2513.5C 132.231,2495.19 126.064,2476.86 120,2458.5C 80.2428,2490.1 40.0761,2521.1 -0.5,2551.5C -0.5,1956.5 -0.5,1361.5 -0.5,766.5C 219.385,548.546 421.218,316.213 605,69.5C 621.755,46.313 638.255,22.9797 654.5,-0.5 Z M 1571.5,1373.5 C 1573.86,1377.81 1575.03,1382.47 1575,1387.5C 1571.33,1384.66 1567.83,1381.66 1564.5,1378.5C 1567.08,1377.06 1569.41,1375.39 1571.5,1373.5 Z"/></g>
<g><path style="opacity:1" fill="#474953" d="M 3.5,2541.5 C 2.50009,1952 2.16676,1362.33 2.5,772.5C 223.044,552.889 425.877,319.222 611,71.5C 627.412,49.0093 643.579,26.3427 659.5,3.5C 878.499,2.33334 1097.5,2.16667 1316.5,3C 1445.49,24.331 1572.49,54.331 1697.5,93C 1744.68,107.45 1791.68,122.616 1838.5,138.5C 1833.78,154.501 1828.95,170.501 1824,186.5C 1745.77,413.361 1646.77,631.694 1527,841.5C 1496.19,807.741 1466.19,774.075 1437,740.5C 1436.83,741 1436.67,741.5 1436.5,742C 1437.49,744.453 1437.66,746.953 1437,749.5C 1434.3,761.908 1431.3,774.241 1428,786.5C 1317.3,720.082 1201.47,709.916 1080.5,756C 981.545,798.288 911.379,869.121 870,968.5C 823.634,1095.89 837.634,1215.89 912,1328.5C 944.725,1374.26 985.225,1411.42 1033.5,1440C 994.008,1465.49 952.341,1469.49 908.5,1452C 916.927,1449.91 922.427,1444.74 925,1436.5C 927.721,1425.12 926.721,1414.12 922,1403.5C 913.757,1389.24 903.257,1376.74 890.5,1366C 867.372,1347.6 842.706,1331.43 816.5,1317.5C 815.479,1318 815.312,1318.67 816,1319.5C 828.236,1330.45 832.07,1343.78 827.5,1359.5C 814.75,1356.37 805.917,1348.7 801,1336.5C 799.042,1331.33 797.709,1326 797,1320.5C 795.434,1287.44 801.101,1255.77 814,1225.5C 814.667,1224.17 814.667,1222.83 814,1221.5C 804.948,1232.88 796.281,1244.55 788,1256.5C 781.359,1267.62 774.859,1278.79 768.5,1290C 619.903,1308.16 471.237,1325.99 322.5,1343.5C 334.919,1398.51 348.586,1453.18 363.5,1507.5C 493.081,1457.87 622.748,1408.54 752.5,1359.5C 759.172,1404.46 780.672,1441.13 817,1469.5C 817.688,1470.33 817.521,1471 816.5,1471.5C 702.323,1554.09 588.323,1636.92 474.5,1720C 509.382,1753.38 544.715,1786.22 580.5,1818.5C 679.655,1715.18 778.655,1611.68 877.5,1508C 879.553,1507.68 881.553,1508.01 883.5,1509C 935.648,1532.36 990.314,1542.52 1047.5,1539.5C 1047.65,1540.55 1047.48,1541.55 1047,1542.5C 1031.96,1561.24 1016.46,1579.58 1000.5,1597.5C 988.51,1584.68 976.677,1571.68 965,1558.5C 904.71,1645.58 844.543,1732.75 784.5,1820C 788.666,1822.92 792.999,1825.58 797.5,1828C 592.313,2045.9 373.646,2247.9 141.5,2434C 139.99,2434.85 138.49,2435.68 137,2436.5C 128.39,2433.91 119.89,2431.24 111.5,2428.5C 113.992,2436.47 116.159,2444.47 118,2452.5C 80.0358,2482.55 41.8691,2512.22 3.5,2541.5 Z"/></g>
<g><path style="opacity:1" fill="#ad583f" d="M 1987.5,3.5 C 1779,3.16693 1570.67,3.50027 1362.5,4.5C 1360.44,4.31299 1358.44,3.81299 1356.5,3C 1567,2.16706 1777.33,2.33373 1987.5,3.5 Z"/></g>
<g><path style="opacity:1" fill="#b18040" d="M 2545.5,3.5 C 2375,3.16699 2204.67,3.50033 2034.5,4.5C 2032.69,4.50864 2031.02,4.00864 2029.5,3C 2201.67,2.16715 2373.67,2.33382 2545.5,3.5 Z"/></g>
<g><path style="opacity:1" fill="#647a6e" d="M 2921.5,3.5 C 2804.67,3.16715 2688,3.50048 2571.5,4.5C 2570.24,4.53859 2569.24,4.03859 2568.5,3C 2686.33,2.16738 2804,2.33404 2921.5,3.5 Z"/></g>
<g><path style="opacity:1" fill="#ed583b" d="M 1362.5,4.5 C 1570.67,3.50027 1779,3.16693 1987.5,3.5C 2012.5,6.13305 2037.17,10.633 2061.5,17C 2100.58,27.9167 2139.25,40.25 2177.5,54C 2269.85,89.8273 2360.85,129.827 2450.5,174C 2582.9,240.358 2713.23,310.025 2841.5,383C 3146.03,558.059 3444.36,742.392 3736.5,936C 3745.09,959.438 3753.09,983.105 3760.5,1007C 3745.06,1028.27 3729.06,1049.11 3712.5,1069.5C 3329.65,828.846 2932.98,610.346 2522.5,414C 2349.29,332.044 2173.29,256.711 1994.5,188C 1859.68,136.728 1722.68,92.0611 1583.5,54C 1510.49,34.4977 1436.83,17.9977 1362.5,4.5 Z"/></g>
<g><path style="opacity:1" fill="#f5a93a" d="M 2034.5,4.5 C 2204.67,3.50033 2375,3.16699 2545.5,3.5C 2576.06,12.2969 2606.06,22.4636 2635.5,34C 2707.45,63.1363 2777.79,96.4696 2846.5,134C 2972.54,204.327 3094.54,280.66 3212.5,363C 3416.92,506.427 3613.92,659.761 3803.5,823C 3764.87,809.792 3726.21,796.792 3687.5,784C 3702.42,830.77 3717.76,877.437 3733.5,924C 3733.17,924.5 3732.83,925 3732.5,925.5C 3456.87,743.315 3175.87,569.149 2889.5,403C 2735.49,314.15 2578.49,230.15 2418.5,151C 2350.95,118.969 2282.95,88.9689 2214.5,61C 2172.68,44.3906 2130.01,29.724 2086.5,17C 2069.23,12.5165 2051.9,8.34984 2034.5,4.5 Z"/></g>
<g><path style="opacity:1" fill="#5a9d98" d="M 2571.5,4.5 C 2688,3.50048 2804.67,3.16715 2921.5,3.5C 2976.67,29.228 3030,58.0613 3081.5,90C 3189.66,158.073 3294.33,231.073 3395.5,309C 3598.58,466.363 3794.91,632.363 3984.5,807C 3959.81,825.669 3934.81,843.835 3909.5,861.5C 3880.23,850.91 3850.9,840.41 3821.5,830C 3609.2,645.657 3387.2,474.323 3155.5,316C 3050.59,244.839 2942.26,178.839 2830.5,118C 2757.65,78.8898 2682.98,44.8898 2606.5,16C 2595.03,11.6753 2583.36,7.842 2571.5,4.5 Z"/></g>
<g><path style="opacity:1" fill="#6a5847" d="M 1083.5,123.5 C 1084.83,129.966 1085.5,136.799 1085.5,144C 1085.09,165.845 1084.42,187.679 1083.5,209.5C 1083.83,211.167 1084.17,212.833 1084.5,214.5C 1108.89,231.69 1132.89,249.357 1156.5,267.5C 1127.48,276.175 1098.48,284.842 1069.5,293.5C 1061.16,322.513 1051.83,351.18 1041.5,379.5C 1024.13,355.262 1007.13,330.762 990.5,306C 959.833,305.667 929.167,305.333 898.5,305C 916.667,281.5 934.833,258 953,234.5C 953.667,232.5 953.667,230.5 953,228.5C 944.26,201.448 935.427,174.448 926.5,147.5C 926.833,147.167 927.167,146.833 927.5,146.5C 955.103,156.368 982.77,166.034 1010.5,175.5C 1012.3,175.423 1013.97,174.923 1015.5,174C 1038.35,157.303 1061.02,140.47 1083.5,123.5 Z"/></g>
<g><path style="opacity:1" fill="#5a9d98" d="M 1080.5,129.5 C 1081.83,134.792 1082.5,140.458 1082.5,146.5C 1081.75,169.509 1081.25,192.509 1081,215.5C 1103.9,232.7 1127.07,249.534 1150.5,266C 1123.17,274.333 1095.83,282.667 1068.5,291C 1058.94,318.336 1049.78,345.836 1041,373.5C 1025.03,350.029 1008.86,326.696 992.5,303.5C 963.5,302.833 934.5,302.167 905.5,301.5C 923.089,278.638 940.422,255.638 957.5,232.5C 948.58,205.552 939.914,178.552 931.5,151.5C 958.294,160.218 984.96,169.552 1011.5,179.5C 1035.08,163.585 1058.08,146.918 1080.5,129.5 Z"/></g>
<g><path style="opacity:1" fill="#e0a058" d="M 2062.5,352.5 C 2064.29,352.215 2065.95,352.548 2067.5,353.5C 2022.21,427.918 1976.54,502.084 1930.5,576C 1852.42,582.34 1774.42,588.674 1696.5,595C 1785.17,517.333 1873.83,439.667 1962.5,362C 1996.08,359.812 2029.41,356.645 2062.5,352.5 Z"/></g>
<g><path style="opacity:1" fill="#f0a739" d="M 2068.5,357.5 C 2069.22,357.918 2069.72,358.584 2070,359.5C 2072.93,458.161 2075.26,556.827 2077,655.5C 2029.58,629.206 1982.08,603.04 1934.5,577C 1979.31,503.861 2023.98,430.694 2068.5,357.5 Z"/></g>
<g><path style="opacity:1" fill="#f5c058" d="M 1922.5,579.5 C 1925.19,579.336 1927.85,579.503 1930.5,580C 1918.74,656.318 1907.91,732.818 1898,809.5C 1897.67,809.833 1897.33,810.167 1897,810.5C 1890.69,802.361 1883.86,794.695 1876.5,787.5C 1800.59,830.373 1724.75,873.373 1649,916.5C 1648.33,918.833 1648.33,921.167 1649,923.5C 1676.92,1065.76 1705.08,1207.92 1733.5,1350C 1714.36,1357.82 1696.19,1367.32 1679,1378.5C 1660.44,1369.4 1640.94,1366.9 1620.5,1371C 1606.28,1374.69 1592.78,1380.19 1580,1387.5C 1561.51,1304.57 1543.35,1221.57 1525.5,1138.5C 1578.44,960.858 1631.27,783.192 1684,605.5C 1686.83,603.333 1689.67,601.167 1692.5,599C 1769.35,592.819 1846.01,586.319 1922.5,579.5 Z"/></g>
<g><path style="opacity:1" fill="#e0a058" d="M 1933.5,580.5 C 1981.83,606.663 2029.83,633.33 2077.5,660.5C 2056.89,730.02 2036.73,799.687 2017,869.5C 2006.82,883.205 1996.65,896.872 1986.5,910.5C 1957.87,879.25 1929.71,847.584 1902,815.5C 1902.52,804.156 1903.52,792.822 1905,781.5C 1914.27,714.418 1923.77,647.418 1933.5,580.5 Z"/></g>
<g><path style="opacity:1" fill="#59a39e" d="M 2355.5,720.5 C 2361.51,720.334 2367.51,720.501 2373.5,721C 2303.5,762.667 2233.5,804.333 2163.5,846C 2161.72,846.704 2159.89,847.204 2158,847.5C 2123.75,840.716 2089.58,833.549 2055.5,826C 2106.83,795 2158.17,764 2209.5,733C 2258.29,728.748 2306.96,724.581 2355.5,720.5 Z"/></g>
<g><path style="opacity:1" fill="#447f7f" d="M 2377.5,722.5 C 2378.24,722.369 2378.91,722.536 2379.5,723C 2344.63,814.312 2310.3,905.812 2276.5,997.5C 2259.56,994.788 2242.56,992.288 2225.5,990C 2221.23,989.097 2217.06,987.93 2213,986.5C 2197.46,943.324 2181.46,900.324 2165,857.5C 2163.75,854.923 2163.42,852.257 2164,849.5C 2235.48,807.518 2306.64,765.185 2377.5,722.5 Z"/></g>
<g><path style="opacity:1" fill="#61aaad" d="M 1208.5,732.5 C 1287.14,730.454 1359.64,750.121 1426,791.5C 1426.67,793.833 1426.67,796.167 1426,798.5C 1419.45,826.437 1413.12,854.437 1407,882.5C 1406.17,884.5 1405.33,886.5 1404.5,888.5C 1379.31,870.139 1353.97,851.973 1328.5,834C 1278.55,802.541 1225.22,795.875 1168.5,814C 1133.55,826.203 1099.55,840.536 1066.5,857C 1045.99,864.183 1026.32,873.183 1007.5,884C 975.657,904.55 956.49,933.383 950,970.5C 947.94,986.703 950.607,1002.04 958,1016.5C 967.727,976.891 990.56,947.391 1026.5,928C 1046.62,917.499 1067.28,908.499 1088.5,901C 1117.41,886.586 1147.07,873.919 1177.5,863C 1198.02,856.619 1219.02,853.619 1240.5,854C 1260.99,856.496 1279.99,863.162 1297.5,874C 1329.44,896.221 1360.94,919.055 1392,942.5C 1389.87,957.968 1386.87,973.301 1383,988.5C 1382.43,991.458 1381.27,994.125 1379.5,996.5C 1410,1047.5 1440.5,1098.5 1471,1149.5C 1472.42,1152.03 1472.75,1154.7 1472,1157.5C 1452.05,1197.52 1425.22,1232.35 1391.5,1262C 1356.54,1293.27 1317.21,1317.6 1273.5,1335C 1251.2,1343.07 1228.2,1347.57 1204.5,1348.5C 1173,1346.92 1143.67,1338.09 1116.5,1322C 1079.42,1299.92 1049.25,1270.75 1026,1234.5C 996.892,1184.91 1001.89,1139.25 1041,1097.5C 1089.49,1050.49 1145.99,1016.66 1210.5,996C 1226,991.499 1241.84,988.999 1258,988.5C 1277.07,988.37 1294.23,993.87 1309.5,1005C 1329.85,1027.35 1348.69,1050.85 1366,1075.5C 1376.52,1090.57 1382.36,1107.24 1383.5,1125.5C 1383.33,1129.17 1383.17,1132.83 1383,1136.5C 1379.98,1149.21 1374.31,1160.54 1366,1170.5C 1352.38,1184.87 1337.55,1197.7 1321.5,1209C 1308.5,1217.33 1295.5,1225.67 1282.5,1234C 1262.77,1246.35 1241.43,1254.35 1218.5,1258C 1191.73,1259.93 1169.56,1250.77 1152,1230.5C 1136.5,1212.17 1123.5,1192.17 1113,1170.5C 1104.55,1152.96 1105.89,1136.29 1117,1120.5C 1140.44,1094.7 1169.6,1082.53 1204.5,1084C 1246.03,1092.85 1262.53,1118.01 1254,1159.5C 1253.17,1160.33 1252.33,1161.17 1251.5,1162C 1247.82,1162.11 1244.16,1162.11 1240.5,1162C 1239.71,1163.09 1239.04,1164.25 1238.5,1165.5C 1247.34,1176.08 1257.34,1177.25 1268.5,1169C 1289.29,1139.21 1288.46,1110.04 1266,1081.5C 1239.82,1056.49 1208.66,1046.99 1172.5,1053C 1137.86,1060.07 1109.36,1077.23 1087,1104.5C 1074.97,1121.65 1070.97,1140.65 1075,1161.5C 1085.84,1200.36 1105.34,1234.19 1133.5,1263C 1158.15,1286.22 1187.49,1296.55 1221.5,1294C 1249.28,1290.56 1275.28,1281.89 1299.5,1268C 1326.53,1252.62 1352.2,1235.29 1376.5,1216C 1431.06,1167.23 1438.56,1112.06 1399,1050.5C 1379.24,1020.48 1356.74,992.649 1331.5,967C 1304.67,949.959 1275.33,942.959 1243.5,946C 1224.71,946.892 1206.37,950.226 1188.5,956C 1118.34,979.307 1056.84,1016.47 1004,1067.5C 984.342,1088.14 970.342,1112.14 962,1139.5C 957.436,1167.25 959.102,1194.59 967,1221.5C 985.894,1274.4 1018.39,1316.9 1064.5,1349C 1088.18,1365.18 1113.52,1378.18 1140.5,1388C 1136.3,1392.9 1132.47,1398.07 1129,1403.5C 1124.56,1406.3 1120.4,1409.47 1116.5,1413C 1088.16,1412.94 1062.32,1420.77 1039,1436.5C 949.849,1384.9 890.849,1309.57 862,1210.5C 830.236,1082.96 855.236,968.289 937,866.5C 1008.88,784.309 1099.38,739.642 1208.5,732.5 Z"/></g>
<g><path style="opacity:1" fill="#f7bf58" d="M 4094.5,733.5 C 4095.17,737.988 4095.5,742.654 4095.5,747.5C 4093.23,819.157 4091.73,890.824 4091,962.5C 4151.83,1006.67 4212.67,1050.83 4273.5,1095C 4201.42,1117.47 4129.09,1139.14 4056.5,1160C 4032.93,1232.2 4009.27,1304.36 3985.5,1376.5C 3942.02,1314.89 3899.02,1252.89 3856.5,1190.5C 3780.2,1190.63 3703.87,1190.47 3627.5,1190C 3655.79,1153.26 3683.95,1116.42 3712,1079.5C 3713.21,1078.93 3714.37,1078.26 3715.5,1077.5C 3733.22,1054.54 3750.55,1031.37 3767.5,1008C 3744.2,937.263 3721.2,866.429 3698.5,795.5C 3698.83,795.167 3699.17,794.833 3699.5,794.5C 3769.63,819.488 3839.8,844.154 3910,868.5C 3913.01,867.41 3915.84,865.91 3918.5,864C 3940.5,848 3962.5,832 3984.5,816C 3991.05,810.867 3997.38,805.534 4003.5,800C 4034.26,778.301 4064.59,756.134 4094.5,733.5 Z"/></g>
<g><path style="opacity:1" fill="#59a39e" d="M 1443.5,754.5 C 1491.7,808.355 1540.03,862.188 1588.5,916C 1583.17,931.306 1578.33,946.806 1574,962.5C 1556.66,983.338 1539.16,1004.01 1521.5,1024.5C 1495.12,934.621 1469.12,844.621 1443.5,754.5 Z"/></g>
<g><path style="opacity:1" fill="#447f7f" d="M 1439.5,755.5 C 1465.68,845.524 1491.68,935.691 1517.5,1026C 1515.5,1026.67 1513.5,1026.67 1511.5,1026C 1469.17,1015.87 1426.83,1005.87 1384.5,996C 1402.57,915.778 1420.9,835.611 1439.5,755.5 Z"/></g>
<g><path style="opacity:1" fill="#5a514c" d="M 2.5,772.5 C 2.16676,1362.33 2.50009,1952 3.5,2541.5C 3.44001,2542.04 3.10667,2542.38 2.5,2542.5C 2.16667,2247.5 1.83333,1952.5 1.5,1657.5C 1.5,1362.33 1.83333,1067.33 2.5,772.5 Z"/></g>
<g><path style="opacity:1" fill="#447f7f" d="M 1875.5,793.5 C 1878.73,795.22 1881.56,797.553 1884,800.5C 1929.17,851.667 1974.33,902.833 2019.5,954C 1958.39,968.691 1897.06,982.858 1835.5,996.5C 1826.79,965.021 1817.45,933.688 1807.5,902.5C 1830.16,866.173 1852.82,829.84 1875.5,793.5 Z"/></g>
<g><path style="opacity:1" fill="#59a39e" d="M 1868.5,795.5 C 1869.46,796.721 1869.3,798.054 1868,799.5C 1846.12,833.43 1824.62,867.597 1803.5,902C 1812.85,931.444 1821.68,960.944 1830,990.5C 1809.83,969 1789.67,947.5 1769.5,926C 1731.79,922.92 1694.12,919.586 1656.5,916C 1727.39,876.059 1798.06,835.892 1868.5,795.5 Z"/></g>
<g><path style="opacity:1" fill="#47e8d8" d="M 1225.5,808.5 C 1264.16,809.333 1299.5,820.5 1331.5,842C 1354.99,859.245 1378.66,876.245 1402.5,893C 1403.3,896.777 1403.13,900.61 1402,904.5C 1399.23,915.485 1396.56,926.485 1394,937.5C 1365.41,916.789 1336.91,895.956 1308.5,875C 1270.01,848.642 1228.34,842.308 1183.5,856C 1174.37,858.599 1165.37,861.599 1156.5,865C 1131.64,875.428 1106.97,886.428 1082.5,898C 1052.76,908.016 1025.09,922.016 999.5,940C 979.448,956.393 965.282,976.893 957,1001.5C 952.811,988.271 952.478,974.938 956,961.5C 968.852,920.307 995.352,891.474 1035.5,875C 1071.77,859.861 1107.77,844.194 1143.5,828C 1170.06,817.692 1197.39,811.192 1225.5,808.5 Z"/></g>
<g><path style="opacity:1" fill="#395957" d="M 2050.5,828.5 C 2085.84,835.954 2121.18,843.454 2156.5,851C 2107.67,903.833 2058.83,956.667 2010,1009.5C 2014.1,994.191 2018.43,978.858 2023,963.5C 2024,960.199 2024.33,956.866 2024,953.5C 2012.11,940.618 2000.61,927.451 1989.5,914C 2009.97,885.547 2030.3,857.047 2050.5,828.5 Z"/></g>
<g><path style="opacity:1" fill="#cdb58b" d="M 1596.5,839.5 C 1601.02,838.188 1605.68,838.188 1610.5,839.5C 1610.02,840.931 1609.36,842.264 1608.5,843.5C 1604.82,841.294 1600.82,839.96 1596.5,839.5 Z"/></g>
<g><path style="opacity:1" fill="#59a39e" d="M 2158.5,853.5 C 2159.46,853.953 2160.29,854.619 2161,855.5C 2177.38,900.599 2194.05,945.599 2211,990.5C 2228.02,993.92 2245.19,996.753 2262.5,999C 2265.86,999.727 2269.2,1000.56 2272.5,1001.5C 2193.38,1086.9 2114.38,1172.4 2035.5,1258C 1996.58,1280.37 1957.75,1302.87 1919,1325.5C 1948.27,1222.92 1977.6,1120.25 2007,1017.5C 2057.71,962.963 2108.21,908.297 2158.5,853.5 Z"/></g>
<g><path style="opacity:1" fill="#447f7f" d="M 1651.5,920.5 C 1652.62,919.844 1653.95,919.511 1655.5,919.5C 1692.86,922.438 1730.19,925.604 1767.5,929C 1789.45,952.405 1811.28,975.905 1833,999.5C 1825.9,1113.53 1818.06,1227.53 1809.5,1341.5C 1784.76,1339.36 1760.59,1342.03 1737,1349.5C 1709.17,1208.88 1681.5,1068.21 1654,927.5C 1653.84,924.809 1653.01,922.476 1651.5,920.5 Z"/></g>
<g><path style="opacity:1" fill="#47e8d8" d="M 1237.5,950.5 C 1265.94,947.594 1292.94,952.428 1318.5,965C 1328.51,970.999 1337.34,978.499 1345,987.5C 1358.71,1004.21 1372.05,1021.21 1385,1038.5C 1399.12,1057.74 1409.79,1078.74 1417,1101.5C 1422.53,1126.66 1418.86,1150.32 1406,1172.5C 1392.63,1194.2 1375.47,1212.37 1354.5,1227C 1325.77,1248.54 1294.77,1266.2 1261.5,1280C 1205.2,1301.05 1158.37,1288.22 1121,1241.5C 1104.61,1219.76 1091.61,1196.09 1082,1170.5C 1075.56,1149.33 1077.89,1129.33 1089,1110.5C 1123.55,1066.32 1168.39,1049.82 1223.5,1061C 1249.49,1069.33 1267.33,1086.16 1277,1111.5C 1280.56,1129.38 1277.56,1146.04 1268,1161.5C 1263.01,1168.5 1256.51,1170.66 1248.5,1168C 1254.55,1166.95 1258.39,1163.45 1260,1157.5C 1267.33,1121.98 1254.49,1097.15 1221.5,1083C 1180.52,1073.33 1145.36,1083.5 1116,1113.5C 1103.15,1129.28 1099.81,1146.94 1106,1166.5C 1116.53,1190 1129.86,1211.66 1146,1231.5C 1169.74,1259.4 1199.57,1268.9 1235.5,1260C 1253.09,1254.88 1269.75,1247.54 1285.5,1238C 1310.22,1223.61 1333.55,1207.28 1355.5,1189C 1370.91,1175.59 1381.41,1159.09 1387,1139.5C 1390.01,1119.19 1386.34,1100.19 1376,1082.5C 1357.52,1052.73 1336.02,1025.23 1311.5,1000C 1295.39,988.473 1277.39,983.307 1257.5,984.5C 1225.17,985.992 1194.5,993.492 1165.5,1007C 1116.22,1029.38 1072.39,1059.54 1034,1097.5C 1000.86,1134.68 994.194,1176.34 1014,1222.5C 1036.96,1266.79 1070.13,1301.29 1113.5,1326C 1165.9,1356.59 1220.57,1360.92 1277.5,1339C 1350.96,1308.21 1410.79,1260.38 1457,1195.5C 1464.27,1183.97 1470.77,1171.97 1476.5,1159.5C 1485.37,1173.37 1493.37,1187.7 1500.5,1202.5C 1487.83,1224.68 1473,1245.34 1456,1264.5C 1427.67,1295.52 1395.84,1322.02 1360.5,1344C 1358.36,1345.4 1356.03,1346.24 1353.5,1346.5C 1315.71,1341.88 1279.04,1346.38 1243.5,1360C 1229.33,1365.45 1215.66,1371.95 1202.5,1379.5C 1182.35,1366.75 1163.18,1368.08 1145,1383.5C 1077.99,1361 1025.99,1319.67 989,1259.5C 970.64,1228.06 962.307,1194.06 964,1157.5C 968.597,1126.97 981.264,1100.31 1002,1077.5C 1056.66,1021.57 1121.5,982.072 1196.5,959C 1210.13,955.309 1223.79,952.475 1237.5,950.5 Z"/></g>
<g><path style="opacity:1" fill="#59a39e" d="M 2016.5,958.5 C 2017.87,958.343 2019.21,958.51 2020.5,959C 1982.02,1092.13 1943.69,1225.29 1905.5,1358.5C 1893.83,1359.58 1882.5,1362.25 1871.5,1366.5C 1855.71,1356.27 1838.71,1348.77 1820.5,1344C 1818.19,1343.5 1815.86,1343.34 1813.5,1343.5C 1820.54,1227.85 1828.54,1113.18 1837.5,999.5C 1897.35,986.362 1957.02,972.695 2016.5,958.5 Z"/></g>
<g><path style="opacity:1" fill="#3a5957" d="M 1570.5,971.5 C 1559.21,1014.25 1546.71,1056.91 1533,1099.5C 1530,1081.18 1527,1062.85 1524,1044.5C 1522.92,1039.53 1522.59,1034.53 1523,1029.5C 1539.05,1010.29 1554.88,990.96 1570.5,971.5 Z"/></g>
<g><path style="opacity:1" fill="#59a39e" d="M 1386.5,1000.5 C 1430.65,1010.89 1474.82,1021.22 1519,1031.5C 1522.6,1056.72 1526.44,1081.88 1530.5,1107C 1529.06,1115.05 1526.89,1122.88 1524,1130.5C 1522.76,1134.78 1522.42,1139.11 1523,1143.5C 1533.41,1188.4 1543.08,1233.4 1552,1278.5C 1496.56,1185.94 1441.39,1093.28 1386.5,1000.5 Z"/></g>
<g><path style="opacity:1" fill="#6c5745" d="M 315.5,1042.5 C 432.463,1064.1 549.463,1085.6 666.5,1107C 669.873,1124.4 672.873,1141.9 675.5,1159.5C 557.854,1167.21 440.188,1174.54 322.5,1181.5C 320.466,1135.14 318.132,1088.81 315.5,1042.5 Z"/></g>
<g><path style="opacity:1" fill="#ad583f" d="M 324.5,1049.5 C 323.5,1049.5 322.5,1049.5 321.5,1049.5C 321.5,1051.83 321.5,1054.17 321.5,1056.5C 320.527,1054.05 320.194,1051.39 320.5,1048.5C 322.099,1048.23 323.432,1048.57 324.5,1049.5 Z"/></g>
<g><path style="opacity:1" fill="#ed583b" d="M 324.5,1049.5 C 437.212,1069.68 549.879,1090.18 662.5,1111C 665.217,1125.46 667.883,1139.96 670.5,1154.5C 556.314,1162.46 442.147,1170.12 328,1177.5C 324.875,1137.33 322.708,1097 321.5,1056.5C 321.5,1054.17 321.5,1051.83 321.5,1049.5C 322.5,1049.5 323.5,1049.5 324.5,1049.5 Z"/></g>
<g><path style="opacity:1" fill="#ab7d3f" d="M 2395.5,1159.5 C 2400.32,1158.35 2405.32,1158.18 2410.5,1159C 2409.96,1159.72 2409.29,1160.22 2408.5,1160.5C 2404.37,1159.52 2400.03,1159.18 2395.5,1159.5 Z"/></g>
<g><path style="opacity:1" fill="#f0a739" d="M 2395.5,1159.5 C 2400.03,1159.18 2404.37,1159.52 2408.5,1160.5C 2386.5,1176.84 2364.83,1193.67 2343.5,1211C 2290.37,1254.46 2237.54,1298.29 2185,1342.5C 2185.05,1335.85 2185.38,1329.18 2186,1322.5C 2191.58,1270.45 2197.41,1218.45 2203.5,1166.5C 2267.45,1163.19 2331.45,1160.86 2395.5,1159.5 Z"/></g>
<g><path style="opacity:1" fill="#f0a739" d="M 2409.5,1163.5 C 2410.53,1163.9 2410.69,1164.56 2410,1165.5C 2363.04,1238.58 2316.21,1311.75 2269.5,1385C 2266.76,1384.98 2264.09,1384.31 2261.5,1383C 2236.17,1371 2210.83,1359 2185.5,1347C 2259.32,1284.62 2333.98,1223.45 2409.5,1163.5 Z"/></g>
<g><path style="opacity:1" fill="#e0a058" d="M 2198.5,1167.5 C 2199.12,1167.92 2199.46,1168.58 2199.5,1169.5C 2193.07,1228.52 2186.4,1287.52 2179.5,1346.5C 2118.38,1368.54 2057.05,1390.21 1995.5,1411.5C 1986.15,1404.99 1976.15,1399.82 1965.5,1396C 1956.29,1369.55 1937.62,1356.72 1909.5,1357.5C 1911.86,1348.25 1914.53,1339.09 1917.5,1330C 2011.56,1276.31 2105.22,1222.15 2198.5,1167.5 Z"/></g>
<g><path style="opacity:1" fill="#61aaad" d="M 1502.5,1209.5 C 1503.5,1209.41 1504.33,1209.75 1505,1210.5C 1511,1221.17 1517,1231.83 1523,1242.5C 1530.12,1255.55 1535.46,1269.21 1539,1283.5C 1540.41,1300.52 1533.57,1313.02 1518.5,1321C 1514.25,1323.3 1509.91,1325.3 1505.5,1327C 1492.54,1330.82 1479.54,1334.49 1466.5,1338C 1454.99,1343.09 1443.66,1348.75 1432.5,1355C 1422.11,1357.68 1411.78,1360.51 1401.5,1363.5C 1389.61,1356.52 1376.95,1351.36 1363.5,1348C 1421,1313 1467.33,1266.84 1502.5,1209.5 Z"/></g>
<g><path style="opacity:1" fill="#e1c899" d="M 794.5,1259.5 C 795.043,1259.56 795.376,1259.89 795.5,1260.5C 788.336,1286.08 787.836,1311.74 794,1337.5C 800.186,1354.18 812.02,1364.18 829.5,1367.5C 833.47,1363.8 835.636,1359.13 836,1353.5C 836.456,1347.8 836.456,1342.13 836,1336.5C 861.58,1351.07 884.58,1369.07 905,1390.5C 911.469,1397.77 916.135,1406.1 919,1415.5C 921.22,1425.84 919.053,1435.01 912.5,1443C 905.9,1445.59 899.234,1445.26 892.5,1442C 888.727,1440.03 884.894,1438.2 881,1436.5C 879.18,1437.6 877.68,1439.1 876.5,1441C 907.296,1464.04 941.963,1473.04 980.5,1468C 1007.91,1462.96 1032.58,1451.96 1054.5,1435C 1071.01,1425.79 1088.67,1421.12 1107.5,1421C 1100.89,1428.38 1094.89,1436.22 1089.5,1444.5C 1067.24,1457.62 1053.74,1476.95 1049,1502.5C 1047.31,1512.43 1046.47,1522.43 1046.5,1532.5C 976.062,1535.64 910.396,1519.47 849.5,1484C 825.243,1469.41 804.409,1450.91 787,1428.5C 759.609,1389.27 754.609,1347.27 772,1302.5C 777.953,1287.26 785.453,1272.92 794.5,1259.5 Z"/></g>
<g><path style="opacity:1" fill="#dfc698" d="M 1543.5,1272.5 C 1547.56,1278.27 1551.39,1284.27 1555,1290.5C 1560.97,1315.7 1566.14,1340.87 1570.5,1366C 1565.58,1368.71 1560.75,1371.54 1556,1374.5C 1535.28,1361.93 1512.78,1354.76 1488.5,1353C 1476.09,1352.38 1463.75,1352.38 1451.5,1353C 1458.56,1349.14 1465.9,1345.8 1473.5,1343C 1486.35,1339.95 1499.02,1336.29 1511.5,1332C 1540.13,1321.86 1550.8,1302.03 1543.5,1272.5 Z"/></g>
<g><path style="opacity:1" fill="#ed583b" d="M 765.5,1294.5 C 766.376,1294.37 767.043,1294.7 767.5,1295.5C 759.797,1313.87 755.464,1333.04 754.5,1353C 625.528,1402.27 496.528,1451.43 367.5,1500.5C 366.201,1499.91 365.368,1498.91 365,1497.5C 352.828,1447.48 340.661,1397.48 328.5,1347.5C 474.372,1330.39 620.039,1312.72 765.5,1294.5 Z"/></g>
<g><path style="opacity:1" fill="#e1d4c5" d="M 1776.5,1343.5 C 1811.32,1341.76 1842.98,1350.76 1871.5,1370.5C 1889.23,1361.72 1907.89,1358.89 1927.5,1362C 1943.92,1366.92 1954.92,1377.42 1960.5,1393.5C 1910.69,1383.98 1862.69,1389.48 1816.5,1410C 1803.73,1409.91 1791.06,1410.91 1778.5,1413C 1763.33,1418.83 1752.83,1429.33 1747,1444.5C 1728.43,1403.63 1697.59,1389.46 1654.5,1402C 1640.21,1407.56 1627.04,1415.06 1615,1424.5C 1588.94,1412.28 1563.1,1412.78 1537.5,1426C 1531.62,1429.44 1526.29,1433.61 1521.5,1438.5C 1513,1422.68 1502,1408.84 1488.5,1397C 1461.37,1378.16 1433.04,1376.33 1403.5,1391.5C 1395.21,1386.86 1386.54,1383.02 1377.5,1380C 1354.73,1375.53 1334.06,1380.19 1315.5,1394C 1298.59,1392.29 1281.92,1393.62 1265.5,1398C 1245.31,1406.19 1231.14,1420.36 1223,1440.5C 1210.66,1422.91 1194.83,1409.41 1175.5,1400C 1165.97,1397.64 1156.3,1396.97 1146.5,1398C 1142.59,1398.61 1138.93,1399.77 1135.5,1401.5C 1134.48,1401 1134.31,1400.33 1135,1399.5C 1143.6,1386.96 1155.1,1378.46 1169.5,1374C 1175.57,1373.2 1181.57,1373.53 1187.5,1375C 1192.82,1376.99 1197.82,1379.49 1202.5,1382.5C 1240.9,1361.09 1282.07,1349.09 1326,1346.5C 1352.86,1347.01 1378.03,1353.67 1401.5,1366.5C 1435.4,1355.18 1470.07,1352.35 1505.5,1358C 1532.45,1363.56 1556.28,1375.39 1577,1393.5C 1601.89,1375.92 1629.39,1369.42 1659.5,1374C 1666.5,1376 1673.17,1378.83 1679.5,1382.5C 1708.64,1361.46 1740.98,1348.46 1776.5,1343.5 Z M 1571.5,1373.5 C 1569.41,1375.39 1567.08,1377.06 1564.5,1378.5C 1567.83,1381.66 1571.33,1384.66 1575,1387.5C 1575.03,1382.47 1573.86,1377.81 1571.5,1373.5 Z"/></g>
<g><path style="opacity:1" fill="#f5c058" d="M 2179.5,1349.5 C 2207.84,1361.5 2235.84,1374.34 2263.5,1388C 2187.96,1409.71 2112.46,1431.54 2037,1453.5C 2032.68,1450.51 2028.35,1447.51 2024,1444.5C 2017.72,1433.21 2009.55,1423.37 1999.5,1415C 2002.13,1413.67 2004.8,1412.34 2007.5,1411C 2065.26,1391.36 2122.6,1370.86 2179.5,1349.5 Z"/></g>
<g><path style="opacity:1" fill="#e8decd" d="M 1348.5,1381.5 C 1368.67,1378.78 1386.84,1383.44 1403,1395.5C 1440.8,1376.66 1473.8,1382.99 1502,1414.5C 1509.15,1423.5 1515.32,1433.16 1520.5,1443.5C 1548.45,1417.21 1580.12,1411.87 1615.5,1427.5C 1631.72,1414.39 1650.05,1405.56 1670.5,1401C 1694.5,1396.89 1714.33,1404.05 1730,1422.5C 1737.72,1432.6 1743.89,1443.6 1748.5,1455.5C 1752.49,1430.34 1767.16,1416.18 1792.5,1413C 1800.85,1412.65 1809.18,1412.65 1817.5,1413C 1859.26,1394.32 1902.93,1387.99 1948.5,1394C 1978.88,1400.68 2002.55,1417.02 2019.5,1443C 2013.21,1441.85 2006.87,1440.51 2000.5,1439C 1969.67,1436.54 1939.5,1439.7 1910,1448.5C 1874.06,1433.43 1837.56,1431.93 1800.5,1444C 1777.33,1453.92 1758.33,1469.09 1743.5,1489.5C 1732.71,1479.54 1720.71,1471.38 1707.5,1465C 1685.97,1457.4 1667.81,1462.23 1653,1479.5C 1650,1484.17 1647,1488.83 1644,1493.5C 1619.42,1485.3 1594.58,1484.47 1569.5,1491C 1546.08,1501.93 1531.25,1520.1 1525,1545.5C 1516.06,1513.34 1501.06,1484.34 1480,1458.5C 1469.69,1447.6 1457.19,1440.76 1442.5,1438C 1432.16,1436.91 1422.16,1438.24 1412.5,1442C 1403.89,1446.55 1395.73,1451.71 1388,1457.5C 1354.93,1450.03 1324.1,1455.2 1295.5,1473C 1278.16,1486.35 1265.33,1503.18 1257,1523.5C 1240.65,1498.15 1220.49,1476.32 1196.5,1458C 1173.22,1441.34 1147.22,1434 1118.5,1436C 1110.26,1437.73 1102.26,1439.73 1094.5,1442C 1105.77,1425.06 1120.44,1412.06 1138.5,1403C 1158.18,1397.07 1176.18,1400.4 1192.5,1413C 1204.79,1422.95 1215.29,1434.45 1224,1447.5C 1232.23,1420.6 1250.06,1404.1 1277.5,1398C 1290.49,1396.44 1303.49,1396.11 1316.5,1397C 1326.18,1389.62 1336.85,1384.45 1348.5,1381.5 Z"/></g>
<g><path style="opacity:1" fill="#f2e5cb" d="M 1118.5,1438.5 C 1135.81,1436.89 1152.48,1439.39 1168.5,1446C 1190.91,1456.47 1210.41,1470.97 1227,1489.5C 1237.77,1502.43 1247.94,1515.76 1257.5,1529.5C 1268.75,1498.75 1289.42,1476.91 1319.5,1464C 1342.17,1456.95 1365.17,1455.78 1388.5,1460.5C 1396.46,1454.85 1404.79,1449.68 1413.5,1445C 1434.33,1436.9 1453.33,1439.9 1470.5,1454C 1486.24,1468.97 1498.41,1486.47 1507,1506.5C 1514.06,1523.07 1520.06,1540.07 1525,1557.5C 1535.51,1506.31 1566.68,1483.81 1618.5,1490C 1628.15,1491.58 1637.48,1494.08 1646.5,1497.5C 1652.41,1481.09 1663.74,1470.26 1680.5,1465C 1687.23,1464.17 1693.9,1464.5 1700.5,1466C 1717.12,1471.98 1731.46,1481.48 1743.5,1494.5C 1779.4,1446.5 1826.73,1429.34 1885.5,1443C 1893.54,1445.9 1901.71,1448.4 1910,1450.5C 1923.43,1447.72 1936.93,1445.22 1950.5,1443C 1962.8,1441.49 1975.14,1440.82 1987.5,1441C 2038.53,1442.57 2055.69,1467.4 2039,1515.5C 2026,1540.92 2005.17,1554.09 1976.5,1555C 1954.26,1556.16 1932.42,1553.66 1911,1547.5C 1906.13,1555.55 1901.47,1563.89 1897,1572.5C 1866.3,1618.42 1823.46,1636.59 1768.5,1627C 1764.27,1625.96 1760.1,1624.8 1756,1623.5C 1737.5,1655.05 1711.33,1663.39 1677.5,1648.5C 1658.24,1677.3 1631.24,1692.3 1596.5,1693.5C 1582.22,1693.27 1568.22,1691.27 1554.5,1687.5C 1528.21,1709.82 1498.88,1727.32 1466.5,1740C 1410.7,1759.29 1357.7,1753.63 1307.5,1723C 1279.73,1704.06 1256.06,1680.9 1236.5,1653.5C 1199.68,1658.51 1164.01,1654.34 1129.5,1641C 1079.29,1618.58 1052.62,1579.91 1049.5,1525C 1049.03,1496.49 1059.36,1472.82 1080.5,1454C 1091.95,1445.79 1104.62,1440.63 1118.5,1438.5 Z"/></g>
<g><path style="opacity:1" fill="#ed583b" d="M 820.5,1474.5 C 822.308,1474.49 823.975,1474.99 825.5,1476C 839.674,1486.93 855.008,1496.09 871.5,1503.5C 872.583,1504.36 872.749,1505.36 872,1506.5C 774.436,1607.97 677.103,1709.64 580,1811.5C 547.667,1781.5 515.333,1751.5 483,1721.5C 482.383,1720.55 482.549,1719.72 483.5,1719C 596.255,1637.97 708.588,1556.47 820.5,1474.5 Z"/></g>
<g><path style="opacity:1" fill="#ed583b" d="M 964.5,1567.5 C 967.731,1569.22 970.564,1571.55 973,1574.5C 979.98,1582.98 987.146,1591.31 994.5,1599.5C 952.438,1685.29 910.105,1770.96 867.5,1856.5C 866.277,1857.61 864.944,1857.78 863.5,1857C 840.167,1844.67 816.833,1832.33 793.5,1820C 792.483,1818.95 792.316,1817.78 793,1816.5C 850.177,1733.47 907.343,1650.47 964.5,1567.5 Z"/></g>
<g><path style="opacity:1" fill="#c34a48" d="M 266.5,2410.5 C 267.165,2413.82 267.499,2417.32 267.5,2421C 266.408,2446.5 265.908,2472 266,2497.5C 288.693,2514.36 311.526,2531.03 334.5,2547.5C 306.907,2556.13 279.24,2564.47 251.5,2572.5C 243.173,2599.98 234.34,2627.31 225,2654.5C 208.833,2631 192.667,2607.5 176.5,2584C 147.491,2583.5 118.491,2583.5 89.5,2584C 105.637,2562.23 122.137,2540.73 139,2519.5C 140.308,2517.87 141.142,2516.03 141.5,2514C 133.53,2486.93 124.864,2460.09 115.5,2433.5C 115.833,2433.17 116.167,2432.83 116.5,2432.5C 142.746,2442.13 169.08,2451.46 195.5,2460.5C 198.528,2460.15 201.194,2458.99 203.5,2457C 224.568,2441.48 245.568,2425.98 266.5,2410.5 Z"/></g>
</svg>
