<?xml version="1.0" encoding="UTF-8"?>
<!DOCTYPE svg PUBLIC "-//W3C//DTD SVG 1.1//EN" "http://www.w3.org/Graphics/SVG/1.1/DTD/svg11.dtd">
<svg xmlns="http://www.w3.org/2000/svg" version="1.1" width="4500px" height="4500px" style="shape-rendering:geometricPrecision; text-rendering:geometricPrecision; image-rendering:optimizeQuality; fill-rule:evenodd; clip-rule:evenodd" xmlns:xlink="http://www.w3.org/1999/xlink">
<g><path style="opacity:0.965" fill="#6e5946" d="M 1398.5,-0.5 C 1750.5,-0.5 2102.5,-0.5 2454.5,-0.5C 2387.45,244.165 2311.61,486.165 2227,725.5C 2076.29,1156.25 1901.29,1576.92 1702,1987.5C 1553.89,2291.84 1389.56,2585.84 1209,2869.5C 1064.86,3094.66 907.19,3309.99 736,3515.5C 712.806,3542.07 689.973,3568.91 667.5,3596C 688.881,3663.57 702.048,3732.74 707,3803.5C 709.295,3838.14 711.128,3872.81 712.5,3907.5C 811.35,3893.18 909.35,3897.68 1006.5,3921C 1099.55,3943.59 1179.39,3988.76 1246,4056.5C 1287.7,4102.42 1319.87,4154.42 1342.5,4212.5C 1433.49,4181.81 1526.49,4173.31 1621.5,4187C 1743.68,4209.87 1829.85,4278.03 1880,4391.5C 1927.86,4387.34 1973.36,4395.84 2016.5,4417C 2049.15,4435.46 2069.82,4462.96 2078.5,4499.5C 2020.83,4499.5 1963.17,4499.5 1905.5,4499.5C 1960.82,4497.5 2016.49,4496.84 2072.5,4497.5C 2063.21,4463.69 2043.21,4438.19 2012.5,4421C 1982.05,4405.64 1949.72,4397.3 1915.5,4396C 1902.09,4395.6 1888.75,4395.43 1875.5,4395.5C 1822.48,4275.31 1730.82,4206.48 1600.5,4189C 1511.16,4180.19 1424.16,4190.36 1339.5,4219.5C 1279.84,4067.36 1170.84,3970.19 1012.5,3928C 911.825,3902.41 810.158,3897.57 707.5,3913.5C 706.018,3844.76 700.185,3776.42 690,3708.5C 679.482,3641.95 659.148,3578.61 629,3518.5C 570.157,3406.37 477.657,3343.2 351.5,3329C 334.562,3327 317.562,3325.84 300.5,3325.5C 238.296,3327.05 177.296,3336.22 117.5,3353C 78.3111,3364.37 39.9778,3377.7 2.5,3393C 1.50155,3480.1 1.16821,3567.26 1.5,3654.5C 54.688,3633.42 109.688,3618.59 166.5,3610C 350.7,3586.97 470.866,3663.47 527,3839.5C 549.542,3919.51 559.709,4001.17 557.5,4084.5C 629.01,4060.32 702.344,4052.82 777.5,4062C 882.737,4080.28 960.904,4136.11 1012,4229.5C 1027.95,4258.67 1040.78,4289.17 1050.5,4321C 1076.96,4315.52 1103.63,4310.86 1130.5,4307C 1179.43,4300.92 1228.43,4300.25 1277.5,4305C 1326.87,4309.9 1372.2,4325.9 1413.5,4353C 1449.27,4379.1 1474.77,4412.94 1490,4454.5C 1518.85,4441.2 1549.18,4433.86 1581,4432.5C 1630.9,4431.18 1665.06,4453.51 1683.5,4499.5C 1681.5,4499.5 1679.5,4499.5 1677.5,4499.5C 1666,4467.5 1643.66,4447.67 1610.5,4440C 1567.09,4434.07 1525.93,4441.24 1487,4461.5C 1464.32,4396.82 1420.82,4352.66 1356.5,4329C 1310.62,4313.3 1263.28,4305.8 1214.5,4306.5C 1175.25,4307.27 1136.25,4310.77 1097.5,4317C 1080.7,4320.09 1064.03,4323.43 1047.5,4327C 1033.71,4281.25 1013.54,4238.42 987,4198.5C 925.698,4112.92 842.198,4067.76 736.5,4063C 673.864,4060.5 613.197,4070 554.5,4091.5C 553.931,4036.87 549.765,3982.54 542,3928.5C 533.392,3866.68 514.392,3808.35 485,3753.5C 434.806,3667.71 359.972,3620.54 260.5,3612C 210.566,3609.46 161.233,3613.79 112.5,3625C 75.3361,3634.06 39.0027,3645.56 3.5,3659.5C 2.16671,3716.5 1.50004,3773.83 1.5,3831.5C 1.5,3889 1.83334,3946.33 2.5,4003.5C 67.3356,4023.17 115.836,4062.83 148,4122.5C 171.466,4170.69 184.8,4221.69 188,4275.5C 188.333,4299.17 188.667,4322.83 189,4346.5C 207.731,4322.76 231.231,4305.6 259.5,4295C 285.994,4288.21 310.827,4292.05 334,4306.5C 368.48,4283.68 405.313,4265.84 444.5,4253C 550.604,4224.12 619.77,4261.96 652,4366.5C 655.475,4379.09 658.642,4391.76 661.5,4404.5C 686.65,4389.06 713.983,4379.22 743.5,4375C 793.87,4370.09 829.37,4390.59 850,4436.5C 857.506,4456.19 862.672,4476.52 865.5,4497.5C 991.675,4497.82 1117.84,4497.49 1244,4496.5C 1246.85,4496.68 1249.69,4497.02 1252.5,4497.5C 1254.03,4497.64 1255.03,4498.31 1255.5,4499.5C 836.833,4499.5 418.167,4499.5 -0.5,4499.5C -0.5,3630.5 -0.5,2761.5 -0.5,1892.5C 244.551,1708.68 469.718,1501.68 675,1271.5C 853.148,1070.89 1008.48,853.887 1141,620.5C 1219.02,482.119 1285.68,338.452 1341,189.5C 1363.89,127.27 1383.06,63.9371 1398.5,-0.5 Z"/></g>
<g><path style="opacity:1" fill="#474c55" d="M 1402.5,1.5 C 1751.5,1.16667 2100.5,1.5 2449.5,2.5C 2388.11,225.858 2319.28,447.192 2243,666.5C 2115.7,1035.35 1971.03,1397.01 1809,1751.5C 1683.81,2024.22 1546.81,2290.56 1398,2550.5C 1263.28,2784.02 1116.62,3009.36 958,3226.5C 865.266,3351.59 767.6,3472.93 665,3590.5C 643.507,3524.02 608.34,3465.85 559.5,3416C 511.922,3371.54 455.922,3342.87 391.5,3330C 371.974,3326.31 352.307,3323.64 332.5,3322C 324.976,3319.52 317.31,3317.69 309.5,3316.5C 310.996,3307.23 311.663,3297.9 311.5,3288.5C 393.328,3299.9 475.328,3301.4 557.5,3293C 634.966,3284.96 706.966,3260.96 773.5,3221C 785.184,3213.49 796.517,3205.49 807.5,3197C 814.739,3190.43 821.239,3183.26 827,3175.5C 837.508,3154.32 835.175,3134.65 820,3116.5C 805.832,3101.32 789.666,3088.82 771.5,3079C 724.639,3054.38 675.639,3035.04 624.5,3021C 637.984,2996.24 645.817,2969.74 648,2941.5C 648.667,2925.83 648.667,2910.17 648,2894.5C 646.458,2880.04 644.458,2865.71 642,2851.5C 692.74,2824.03 714.407,2781.36 707,2723.5C 705.401,2704.03 699.067,2686.36 688,2670.5C 685.167,2667.67 682.333,2664.83 679.5,2662C 726.644,2633.18 759.477,2592.68 778,2540.5C 786.949,2501.2 781.283,2464.2 761,2429.5C 741.286,2396.44 716.453,2367.61 686.5,2343C 611.987,2282.24 527.654,2240.24 433.5,2217C 327.903,2186.96 220.237,2170.79 110.5,2168.5C 73.9625,2168.52 37.6291,2171.18 1.5,2176.5C 1.33334,2083.5 1.5,1990.5 2,1897.5C 212.192,1738.71 408.525,1563.05 591,1370.5C 773.392,1176.52 934.725,966.85 1075,741.5C 1171.86,585.115 1254.53,421.115 1323,249.5C 1355.02,168.616 1381.52,85.9495 1402.5,1.5 Z"/></g>
<g><path style="opacity:1" fill="#6f5945" d="M 1755.5,1128.5 C 1777.74,1158.76 1799.4,1189.6 1820.5,1221C 1858.83,1221.33 1897.17,1221.67 1935.5,1222C 1912.01,1251.99 1889.01,1282.33 1866.5,1313C 1877.38,1348.97 1889.04,1384.63 1901.5,1420C 1901.17,1420.5 1900.83,1421 1900.5,1421.5C 1864.85,1408.67 1829.18,1396.01 1793.5,1383.5C 1762.86,1405.64 1732.36,1427.97 1702,1450.5C 1701.94,1419 1702.44,1387.5 1703.5,1356C 1703.17,1349.17 1702.83,1342.33 1702.5,1335.5C 1672.03,1313.53 1641.69,1291.36 1611.5,1269C 1647.85,1258.16 1684.18,1247.32 1720.5,1236.5C 1732.17,1200.5 1743.83,1164.5 1755.5,1128.5 Z"/></g>
<g><path style="opacity:1" fill="#f7bf58" d="M 1819.5,1224.5 C 1855.5,1225.17 1891.5,1225.83 1927.5,1226.5C 1905.21,1254.92 1883.55,1283.76 1862.5,1313C 1873.1,1346.8 1884.1,1380.47 1895.5,1414C 1895.17,1414.5 1894.83,1415 1894.5,1415.5C 1861.17,1403.22 1827.67,1391.22 1794,1379.5C 1764.06,1400.43 1734.4,1421.76 1705,1443.5C 1705.28,1407.11 1705.95,1370.78 1707,1334.5C 1677.69,1313.36 1648.53,1292.03 1619.5,1270.5C 1654.37,1260.4 1689.03,1249.73 1723.5,1238.5C 1735.37,1204.4 1746.53,1170.06 1757,1135.5C 1777.86,1165.23 1798.69,1194.9 1819.5,1224.5 Z"/></g>
<g><path style="opacity:1" fill="#b28b4e" d="M 1819.5,1224.5 C 1855.84,1224.17 1892.17,1224.5 1928.5,1225.5C 1928.38,1226.11 1928.04,1226.44 1927.5,1226.5C 1891.5,1225.83 1855.5,1225.17 1819.5,1224.5 Z"/></g>
<g><path style="opacity:1" fill="#6f5b46" d="M 1359.5,1702.5 C 1429.83,1703.17 1500.17,1703.83 1570.5,1704.5C 1535.73,1737.77 1501.4,1771.6 1467.5,1806C 1483.66,1820.75 1488.16,1838.59 1481,1859.5C 1470.82,1878.35 1454.98,1888.85 1433.5,1891C 1483.17,1920.51 1533.17,1949.51 1583.5,1978C 1546.52,1987.94 1509.52,1997.77 1472.5,2007.5C 1470.77,2010.95 1470.43,2014.45 1471.5,2018C 1478.68,2018.9 1485.68,2020.57 1492.5,2023C 1495.19,2025.72 1496.52,2029.06 1496.5,2033C 1495.67,2046.17 1493.17,2059 1489,2071.5C 1488.21,2073.59 1487.04,2075.42 1485.5,2077C 1477.25,2078.41 1468.92,2078.91 1460.5,2078.5C 1458.92,2090.15 1456.09,2101.48 1452,2112.5C 1451.17,2113.33 1450.33,2114.17 1449.5,2115C 1445.31,2116.48 1440.98,2117.31 1436.5,2117.5C 1426.75,2117.02 1417.08,2115.85 1407.5,2114C 1403.84,2113.17 1400.51,2111.67 1397.5,2109.5C 1396.85,2107.88 1396.35,2106.22 1396,2104.5C 1395.5,2093.51 1395.33,2082.51 1395.5,2071.5C 1386.15,2070.5 1376.81,2069.66 1367.5,2069C 1396.71,2119.92 1426.04,2170.75 1455.5,2221.5C 1455.17,2221.83 1454.83,2222.17 1454.5,2222.5C 1377.77,2201.86 1301.27,2180.52 1225,2158.5C 1223.67,2229.03 1223,2299.69 1223,2370.5C 1166.64,2313.81 1110.64,2256.81 1055,2199.5C 1019.41,2260.34 984.081,2321.34 949,2382.5C 928.217,2305.37 908.05,2228.04 888.5,2150.5C 885.984,2150.76 883.65,2151.59 881.5,2153C 822.667,2187.17 763.833,2221.33 705,2255.5C 704.333,2253.83 704.333,2252.17 705,2250.5C 724.165,2181.35 743.331,2112.18 762.5,2043C 762.415,2041.89 762.081,2040.89 761.5,2040C 752.098,2038.72 742.765,2037.05 733.5,2035C 730.846,2031.67 729.846,2027.84 730.5,2023.5C 672.496,2023.83 614.496,2023.5 556.5,2022.5C 613.626,1966.54 670.626,1910.37 727.5,1854C 666.336,1818.92 605.336,1783.59 544.5,1748C 616.124,1729.18 687.79,1710.51 759.5,1692C 763.929,1691.02 768.096,1689.52 772,1687.5C 773.301,1685.6 773.968,1683.6 774,1681.5C 739.833,1622.5 705.667,1563.5 671.5,1504.5C 748.467,1524.81 825.467,1545.81 902.5,1567.5C 903.333,1496.84 903.833,1426.17 904,1355.5C 960.375,1412.37 1016.54,1469.37 1072.5,1526.5C 1108,1465.5 1143.5,1404.5 1179,1343.5C 1198.87,1421.32 1219.21,1498.99 1240,1576.5C 1301,1541.17 1362,1505.83 1423,1470.5C 1401.97,1547.78 1380.8,1625.12 1359.5,1702.5 Z"/></g>
<g><path style="opacity:1" fill="#f7bf58" d="M 1440.5,1791.5 C 1445.17,1790.83 1449.83,1790.17 1454.5,1789.5C 1462.82,1789.67 1470.49,1787.5 1477.5,1783C 1479.05,1781.79 1480.22,1780.29 1481,1778.5C 1481.41,1765.14 1476.24,1754.31 1465.5,1746C 1442.68,1730.82 1419.01,1729.49 1394.5,1742C 1373.07,1756.81 1365.57,1776.98 1372,1802.5C 1377.53,1814.2 1386.36,1822.2 1398.5,1826.5C 1398.16,1827.34 1397.49,1827.67 1396.5,1827.5C 1388.76,1827.14 1381.1,1827.64 1373.5,1829C 1368.81,1829.92 1365.31,1832.42 1363,1836.5C 1362.29,1851.92 1367.79,1864.75 1379.5,1875C 1393.71,1886.59 1410.04,1892.26 1428.5,1892C 1477.34,1920.59 1526.34,1948.92 1575.5,1977C 1541.27,1986.31 1506.94,1995.14 1472.5,2003.5C 1473.64,1987.98 1474.97,1972.48 1476.5,1957C 1476.87,1952.82 1476.04,1948.98 1474,1945.5C 1466.5,1939.86 1458,1936.69 1448.5,1936C 1439.82,1935.57 1431.15,1935.91 1422.5,1937C 1418.71,1938.39 1415.05,1940.06 1411.5,1942C 1394.04,1956.46 1376.87,1971.29 1360,1986.5C 1352.1,1995.3 1345.43,2004.96 1340,2015.5C 1336.67,2030.51 1336.67,2045.51 1340,2060.5C 1341.25,2063.38 1343.42,2065.21 1346.5,2066C 1352.17,2066.8 1357.84,2067.64 1363.5,2068.5C 1392.17,2117.83 1420.83,2167.17 1449.5,2216.5C 1446.86,2217.36 1444.19,2217.19 1441.5,2216C 1368.28,2195.39 1294.95,2175.22 1221.5,2155.5C 1220.83,2224.5 1220.17,2293.5 1219.5,2362.5C 1164.54,2306.37 1109.37,2250.37 1054,2194.5C 1019.42,2254.66 984.586,2314.66 949.5,2374.5C 929.799,2298.03 909.633,2221.7 889,2145.5C 829.418,2179.71 769.918,2214.04 710.5,2248.5C 710.114,2244.54 710.614,2240.54 712,2236.5C 730.251,2171.92 748.251,2107.25 766,2042.5C 767.062,2041.9 768.228,2041.57 769.5,2041.5C 800.03,2045.94 830.697,2048.44 861.5,2049C 865.492,2045.43 867.658,2040.93 868,2035.5C 868.667,2026.5 868.667,2017.5 868,2008.5C 867.131,1998.87 861.965,1993.7 852.5,1993C 842.856,1992.02 833.19,1991.35 823.5,1991C 820.424,1990.65 817.424,1989.99 814.5,1989C 826.258,1983.31 838.591,1979.31 851.5,1977C 880.329,1959.51 888.162,1935.01 875,1903.5C 862.278,1877.71 841.445,1864.38 812.5,1863.5C 780.276,1863.51 757.776,1878.18 745,1907.5C 744.262,1911.26 744.595,1914.93 746,1918.5C 755.659,1927.58 767.159,1932.74 780.5,1934C 785.768,1935.07 790.768,1934.4 795.5,1932C 797.622,1928.44 799.622,1924.77 801.5,1921C 807.272,1919.71 812.439,1920.88 817,1924.5C 818.271,1928.17 817.104,1930.67 813.5,1932C 794.22,1936.76 776.22,1944.42 759.5,1955C 745.996,1966.16 737.162,1980.33 733,1997.5C 731.677,2005.12 730.844,2012.79 730.5,2020.5C 674.832,2020.67 619.166,2020.5 563.5,2020C 619.68,1964.65 675.68,1909.15 731.5,1853.5C 671.869,1818.68 612.202,1783.85 552.5,1749C 624.205,1730.32 695.872,1711.49 767.5,1692.5C 768.167,1692.67 768.833,1692.83 769.5,1693C 756.6,1719.98 745.766,1747.81 737,1776.5C 734.693,1785.26 732.86,1794.1 731.5,1803C 731.542,1804.97 732.042,1806.8 733,1808.5C 745.536,1814.2 758.702,1816.36 772.5,1815C 773.931,1814.53 775.097,1813.7 776,1812.5C 780.776,1804.72 785.943,1797.22 791.5,1790C 800.164,1788.48 808.664,1789.31 817,1792.5C 818.608,1795.38 819.941,1798.38 821,1801.5C 821.921,1806.93 823.255,1812.26 825,1817.5C 826.167,1820 828,1821.83 830.5,1823C 840.788,1824.14 851.121,1824.97 861.5,1825.5C 865.804,1824.79 870.137,1824.29 874.5,1824C 876.002,1823.42 877.335,1822.58 878.5,1821.5C 879.621,1815.89 879.788,1810.22 879,1804.5C 873.3,1764.04 864.3,1724.37 852,1685.5C 847.983,1674.73 840.15,1669.23 828.5,1669C 812.97,1666.41 797.637,1667.08 782.5,1671C 780.212,1673.74 778.045,1676.58 776,1679.5C 743.293,1622.58 710.46,1565.75 677.5,1509C 753.862,1528.97 830.029,1549.8 906,1571.5C 906.333,1502.17 906.667,1432.83 907,1363.5C 962.333,1419.5 1017.67,1475.5 1073,1531.5C 1107.85,1471.8 1142.68,1412.13 1177.5,1352.5C 1197.89,1427.94 1217.73,1503.61 1237,1579.5C 1237.41,1579.96 1237.91,1580.29 1238.5,1580.5C 1298.42,1545.96 1358.25,1511.29 1418,1476.5C 1397.43,1552.67 1376.6,1628.83 1355.5,1705C 1425.17,1705.33 1494.83,1705.67 1564.5,1706C 1531.5,1738.33 1498.5,1770.67 1465.5,1803C 1457.56,1798.7 1449.22,1794.87 1440.5,1791.5 Z"/></g>
<g><path style="opacity:1" fill="#47e8d8" d="M 802.5,1669.5 C 815.181,1669.15 827.514,1670.98 839.5,1675C 844.116,1677.62 847.283,1681.45 849,1686.5C 862.232,1728.25 871.732,1770.91 877.5,1814.5C 877.444,1817.11 876.444,1819.28 874.5,1821C 859.81,1822.99 845.143,1822.65 830.5,1820C 826.241,1813.15 823.741,1805.65 823,1797.5C 821.771,1792.27 818.604,1789.1 813.5,1788C 808.184,1787.32 802.85,1786.82 797.5,1786.5C 794.375,1786.43 791.375,1786.93 788.5,1788C 783.222,1796.28 777.555,1804.28 771.5,1812C 759.921,1812.8 748.587,1811.47 737.5,1808C 736.667,1807.17 735.833,1806.33 735,1805.5C 734.376,1800.78 734.71,1796.11 736,1791.5C 744.702,1760.96 755.369,1731.29 768,1702.5C 772.531,1692.6 777.698,1683.1 783.5,1674C 789.734,1671.46 796.068,1669.96 802.5,1669.5 Z"/></g>
<g><path style="opacity:1" fill="#715d47" d="M 916.5,1676.5 C 938.48,1674.6 959.147,1678.76 978.5,1689C 1001.56,1703.44 1010.72,1724.27 1006,1751.5C 1004.11,1761.28 999.611,1769.61 992.5,1776.5C 998.909,1784.32 1005.08,1792.32 1011,1800.5C 1013.27,1805.9 1012.6,1810.9 1009,1815.5C 1002.87,1823.96 995.706,1831.46 987.5,1838C 982.747,1839.88 978.08,1839.55 973.5,1837C 965.833,1831.33 958.167,1825.67 950.5,1820C 947.439,1817.97 944.105,1816.8 940.5,1816.5C 940.395,1820.32 939.562,1823.99 938,1827.5C 937.167,1829.67 935.667,1831.17 933.5,1832C 918.013,1833.1 902.679,1832.1 887.5,1829C 885.513,1827.68 884.346,1825.85 884,1823.5C 882.055,1780.96 884.055,1738.63 890,1696.5C 890.711,1691.7 892.211,1687.2 894.5,1683C 901.717,1680.2 909.051,1678.03 916.5,1676.5 Z"/></g>
<g><path style="opacity:1" fill="#47e8d8" d="M 916.5,1679.5 C 941.478,1676.92 964.145,1682.75 984.5,1697C 1001.01,1711.55 1007.18,1729.71 1003,1751.5C 1000.87,1761.78 995.7,1770.11 987.5,1776.5C 994.188,1784.02 1000.69,1791.69 1007,1799.5C 1009.83,1803.3 1010.16,1807.3 1008,1811.5C 1001.2,1820.63 993.371,1828.8 984.5,1836C 980.124,1836.65 976.124,1835.65 972.5,1833C 966.5,1828.33 960.5,1823.67 954.5,1819C 950.424,1816.2 945.924,1814.36 941,1813.5C 939.739,1813.76 938.739,1814.43 938,1815.5C 937.625,1819.67 936.625,1823.67 935,1827.5C 934.097,1828.7 932.931,1829.53 931.5,1830C 917.732,1830.49 904.065,1829.49 890.5,1827C 889.069,1826.53 887.903,1825.7 887,1824.5C 884.887,1779.96 887.221,1735.63 894,1691.5C 894.885,1689 896.052,1686.67 897.5,1684.5C 903.899,1682.58 910.233,1680.91 916.5,1679.5 Z"/></g>
<g><path style="opacity:1" fill="#715c47" d="M 1037.5,1694.5 C 1053.13,1693.36 1068.47,1694.86 1083.5,1699C 1085.5,1700 1087.5,1701 1089.5,1702C 1094.43,1706.93 1098.6,1712.43 1102,1718.5C 1108.08,1730.33 1114.41,1741.99 1121,1753.5C 1132.09,1739.74 1143.93,1726.57 1156.5,1714C 1158.5,1712.67 1160.5,1711.33 1162.5,1710C 1180.31,1706.95 1197.65,1708.62 1214.5,1715C 1216.29,1715.78 1217.79,1716.95 1219,1718.5C 1218.66,1750.63 1216.32,1782.63 1212,1814.5C 1210.18,1829.73 1207.18,1844.73 1203,1859.5C 1201.83,1860.67 1200.67,1861.83 1199.5,1863C 1186.75,1863.84 1174.08,1863.18 1161.5,1861C 1158.28,1860.28 1155.28,1859.12 1152.5,1857.5C 1150.92,1852.65 1150.09,1847.65 1150,1842.5C 1149.67,1831.83 1149.33,1821.17 1149,1810.5C 1137.94,1821.28 1125.44,1829.94 1111.5,1836.5C 1106.04,1834.55 1101.54,1831.22 1098,1826.5C 1091.76,1819.01 1085.76,1811.35 1080,1803.5C 1077.19,1814.41 1074.52,1825.41 1072,1836.5C 1070.73,1840.64 1068.9,1844.48 1066.5,1848C 1051.15,1849.21 1036.15,1847.54 1021.5,1843C 1020.07,1842.53 1018.9,1841.7 1018,1840.5C 1017.36,1794.76 1021.36,1749.43 1030,1704.5C 1030.86,1699.72 1033.36,1696.39 1037.5,1694.5 Z"/></g>
<g><path style="opacity:1" fill="#47e8d8" d="M 1040.5,1696.5 C 1056.76,1695.49 1072.43,1697.99 1087.5,1704C 1090.45,1707.41 1093.29,1710.91 1096,1714.5C 1104,1729.32 1112.17,1743.98 1120.5,1758.5C 1130.48,1746.69 1140.65,1735.02 1151,1723.5C 1155.17,1720 1159.33,1716.5 1163.5,1713C 1176.52,1710.96 1189.52,1711.29 1202.5,1714C 1207.39,1714.86 1211.89,1716.69 1216,1719.5C 1215.95,1764.31 1211.28,1808.64 1202,1852.5C 1201.2,1855.22 1200.04,1857.72 1198.5,1860C 1186.09,1860.82 1173.76,1860.16 1161.5,1858C 1158.69,1857.4 1156.19,1856.24 1154,1854.5C 1152.91,1837.87 1152.07,1821.2 1151.5,1804.5C 1139.26,1815.75 1125.93,1825.42 1111.5,1833.5C 1106.25,1829.75 1101.41,1825.42 1097,1820.5C 1091.3,1812.43 1085.14,1804.76 1078.5,1797.5C 1075.67,1809.18 1072.83,1820.84 1070,1832.5C 1068.54,1837.17 1066.71,1841.67 1064.5,1846C 1049.71,1846.65 1035.38,1844.48 1021.5,1839.5C 1020.72,1838.27 1020.22,1836.94 1020,1835.5C 1020.3,1791.78 1024.64,1748.44 1033,1705.5C 1033.97,1703.61 1034.64,1701.61 1035,1699.5C 1037.06,1698.77 1038.89,1697.77 1040.5,1696.5 Z"/></g>
<g><path style="opacity:1" fill="#59514e" d="M 1359.5,1702.5 C 1430.17,1702.17 1500.84,1702.5 1571.5,1703.5C 1571.38,1704.11 1571.04,1704.44 1570.5,1704.5C 1500.17,1703.83 1429.83,1703.17 1359.5,1702.5 Z"/></g>
<g><path style="opacity:1" fill="#705d47" d="M 1277.5,1722.5 C 1290.57,1722.24 1303.57,1723.07 1316.5,1725C 1323.48,1726.56 1328.65,1730.39 1332,1736.5C 1336.67,1747.15 1340.33,1758.15 1343,1769.5C 1350.8,1799.82 1356.8,1830.48 1361,1861.5C 1361.67,1866.5 1361.67,1871.5 1361,1876.5C 1359.42,1878.04 1357.59,1879.21 1355.5,1880C 1340.76,1880.87 1326.09,1880.2 1311.5,1878C 1308.93,1876.09 1307.09,1873.59 1306,1870.5C 1305.07,1862.79 1302.91,1855.45 1299.5,1848.5C 1295.94,1846.05 1291.94,1844.88 1287.5,1845C 1282.38,1844.11 1277.38,1844.45 1272.5,1846C 1267.22,1854.28 1261.56,1862.28 1255.5,1870C 1243.7,1870.7 1232.04,1869.7 1220.5,1867C 1216.18,1865.84 1213.85,1863.01 1213.5,1858.5C 1223.25,1813.44 1239.08,1770.77 1261,1730.5C 1265.47,1725.52 1270.97,1722.86 1277.5,1722.5 Z"/></g>
<g><path style="opacity:1" fill="#6e5d48" d="M 937.5,1723.5 C 942.566,1723.34 947.566,1723.84 952.5,1725C 961.35,1730.94 962.85,1738.44 957,1747.5C 950.214,1753.6 942.881,1754.6 935,1750.5C 934.333,1749.17 933.667,1747.83 933,1746.5C 932.333,1740.83 932.333,1735.17 933,1729.5C 934.332,1727.34 935.832,1725.34 937.5,1723.5 Z"/></g>
<g><path style="opacity:1" fill="#47e8d8" d="M 1277.5,1725.5 C 1292.48,1724.43 1307.14,1725.93 1321.5,1730C 1323.96,1731.46 1326.13,1733.29 1328,1735.5C 1331.22,1741.94 1333.89,1748.61 1336,1755.5C 1347.26,1794.48 1354.93,1834.15 1359,1874.5C 1358.5,1875 1358,1875.5 1357.5,1876C 1342.89,1877.86 1328.23,1877.86 1313.5,1876C 1311.38,1874.27 1309.88,1872.1 1309,1869.5C 1307.29,1863.93 1305.95,1858.26 1305,1852.5C 1303.91,1848.81 1301.74,1845.98 1298.5,1844C 1292.02,1843.04 1285.52,1842.21 1279,1841.5C 1275,1841.28 1271.66,1842.61 1269,1845.5C 1264.45,1853.43 1259.28,1860.93 1253.5,1868C 1242.66,1868.15 1232,1866.81 1221.5,1864C 1219.78,1863.48 1218.44,1862.48 1217.5,1861C 1216.27,1857.68 1216.27,1854.35 1217.5,1851C 1228.39,1809.38 1243.89,1769.55 1264,1731.5C 1267.94,1728.03 1272.44,1726.03 1277.5,1725.5 Z"/></g>
<g><path style="opacity:1" fill="#705e49" d="M 806.5,1726.5 C 811.439,1725.35 814.939,1727.02 817,1731.5C 820.462,1737.17 822.629,1743.33 823.5,1750C 823.561,1751.71 822.894,1753.04 821.5,1754C 814.664,1756.78 807.664,1757.11 800.5,1755C 795.776,1752.56 794.276,1748.73 796,1743.5C 798.997,1737.5 802.497,1731.84 806.5,1726.5 Z"/></g>
<g><path style="opacity:1" fill="#f4bd58" d="M 941.5,1725.5 C 950.19,1725.34 955.857,1729.34 958.5,1737.5C 955.704,1747.14 949.371,1751.31 939.5,1750C 934.154,1743.41 933.321,1736.25 937,1728.5C 938.409,1727.22 939.909,1726.22 941.5,1725.5 Z"/></g>
<g><path style="opacity:1" fill="#f3bc58" d="M 808.5,1729.5 C 810.903,1729.39 812.736,1730.39 814,1732.5C 817.005,1737.51 819.172,1742.84 820.5,1748.5C 820.471,1750.03 819.804,1751.2 818.5,1752C 812.026,1754.17 805.693,1753.84 799.5,1751C 798.643,1750.31 797.977,1749.48 797.5,1748.5C 799.964,1741.39 803.631,1735.06 808.5,1729.5 Z"/></g>
<g><path style="opacity:1" fill="#47e8d8" d="M 1416.5,1736.5 C 1437.38,1733.85 1455.22,1739.85 1470,1754.5C 1476.12,1761.39 1478.79,1769.39 1478,1778.5C 1473.1,1782.2 1467.6,1784.7 1461.5,1786C 1454.21,1787.35 1446.87,1787.69 1439.5,1787C 1437.31,1777.41 1431.64,1774.41 1422.5,1778C 1415.85,1781.61 1415.85,1785.28 1422.5,1789C 1438.1,1792.64 1452.43,1798.97 1465.5,1808C 1484.28,1826.33 1486.45,1846.5 1472,1868.5C 1455.05,1885.87 1434.55,1892.04 1410.5,1887C 1393.15,1882.98 1379.65,1873.48 1370,1858.5C 1367.16,1852.99 1365.33,1847.15 1364.5,1841C 1365.29,1837.43 1367.29,1834.76 1370.5,1833C 1385.53,1827.38 1399.69,1828.88 1413,1837.5C 1413.13,1841.94 1415.3,1844.77 1419.5,1846C 1422.83,1846.67 1426.17,1846.67 1429.5,1846C 1433.66,1841.65 1433.33,1837.65 1428.5,1834C 1418.52,1829.56 1408.19,1825.89 1397.5,1823C 1373.26,1810.29 1366.43,1791.12 1377,1765.5C 1381.78,1755.72 1388.95,1748.22 1398.5,1743C 1404.59,1740.7 1410.59,1738.53 1416.5,1736.5 Z"/></g>
<g><path style="opacity:1" fill="#6b5a48" d="M 1555.5,1752.5 C 1581.46,1750.57 1604.46,1757.73 1624.5,1774C 1647.95,1798.77 1653.45,1827.27 1641,1859.5C 1630.43,1882.73 1612.93,1898.23 1588.5,1906C 1561.77,1911.32 1537.77,1905.65 1516.5,1889C 1487.13,1859.63 1481.97,1826.46 1501,1789.5C 1513.97,1769.34 1532.14,1757.01 1555.5,1752.5 Z"/></g>
<g><path style="opacity:1" fill="#47e9d9" d="M 1560.5,1754.5 C 1587.55,1754.3 1610.38,1763.97 1629,1783.5C 1646.64,1807.77 1649.31,1833.77 1637,1861.5C 1614.79,1900.52 1582.29,1913.02 1539.5,1899C 1504.05,1881.85 1488.88,1853.69 1494,1814.5C 1504.06,1780.93 1526.23,1760.93 1560.5,1754.5 Z"/></g>
<g><path style="opacity:1" fill="#f1bb58" d="M 1439.5,1789.5 C 1439.5,1790.17 1439.17,1790.5 1438.5,1790.5C 1433.52,1789.02 1428.52,1787.52 1423.5,1786C 1421.74,1785.28 1420.91,1784.11 1421,1782.5C 1428.62,1777.2 1433.62,1778.87 1436,1787.5C 1436.82,1788.82 1437.98,1789.49 1439.5,1789.5 Z"/></g>
<g><path style="opacity:1" fill="#705e49" d="M 1289.5,1781.5 C 1291.99,1781.3 1294.32,1781.8 1296.5,1783C 1302.33,1790.16 1305.16,1798.32 1305,1807.5C 1304.5,1808.67 1303.67,1809.5 1302.5,1810C 1295.53,1811.84 1288.53,1811.84 1281.5,1810C 1277.79,1807.44 1276.62,1803.94 1278,1799.5C 1281.08,1793 1284.92,1787 1289.5,1781.5 Z"/></g>
<g><path style="opacity:1" fill="#f4bd58" d="M 1290.5,1784.5 C 1292.9,1784.39 1294.74,1785.39 1296,1787.5C 1299.23,1792.72 1301.39,1798.39 1302.5,1804.5C 1302.47,1806.03 1301.8,1807.2 1300.5,1808C 1295.5,1808.67 1290.5,1808.67 1285.5,1808C 1281.09,1807.25 1279.59,1804.75 1281,1800.5C 1283.56,1794.78 1286.73,1789.44 1290.5,1784.5 Z"/></g>
<g><path style="opacity:1" fill="#b18a4e" d="M 1439.5,1789.5 C 1444.5,1789.5 1449.5,1789.5 1454.5,1789.5C 1449.83,1790.17 1445.17,1790.83 1440.5,1791.5C 1439.51,1791.67 1438.84,1791.34 1438.5,1790.5C 1439.17,1790.5 1439.5,1790.17 1439.5,1789.5 Z"/></g>
<g><path style="opacity:1" fill="#6b5b49" d="M 1561.5,1809.5 C 1582.92,1808.08 1591.75,1817.74 1588,1838.5C 1579.91,1851.1 1569.07,1853.93 1555.5,1847C 1546.73,1838.37 1545.23,1828.53 1551,1817.5C 1553.94,1813.96 1557.44,1811.3 1561.5,1809.5 Z"/></g>
<g><path style="opacity:1" fill="#474c55" d="M 1562.5,1812.5 C 1573.47,1810.57 1581.3,1814.57 1586,1824.5C 1586.5,1843 1577.66,1850.16 1559.5,1846C 1549.44,1837.91 1547.94,1828.41 1555,1817.5C 1557.43,1815.55 1559.93,1813.88 1562.5,1812.5 Z"/></g>
<g><path style="opacity:1" fill="#b38c4f" d="M 1398.5,1826.5 C 1402.64,1827.66 1406.64,1828.99 1410.5,1830.5C 1409.83,1830.5 1409.5,1830.83 1409.5,1831.5C 1405.12,1829.99 1400.79,1828.66 1396.5,1827.5C 1397.49,1827.67 1398.16,1827.34 1398.5,1826.5 Z"/></g>
<g><path style="opacity:1" fill="#f0ba57" d="M 1409.5,1831.5 C 1409.5,1830.83 1409.83,1830.5 1410.5,1830.5C 1416.26,1832.43 1421.93,1834.6 1427.5,1837C 1428.37,1840.38 1427.04,1842.88 1423.5,1844.5C 1419.09,1843.59 1416.59,1840.92 1416,1836.5C 1414.24,1834.23 1412.08,1832.57 1409.5,1831.5 Z"/></g>
<g><path style="opacity:1" fill="#47e8d8" d="M 798.5,1866.5 C 829.314,1862.9 853.147,1873.9 870,1899.5C 885.463,1929.29 879.629,1953.79 852.5,1973C 840.597,1976.79 828.597,1980.45 816.5,1984C 812.553,1986.28 808.887,1988.95 805.5,1992C 823.208,1993.28 840.875,1994.95 858.5,1997C 862.092,2000.02 864.258,2003.85 865,2008.5C 867,2017.5 867,2026.5 865,2035.5C 864.464,2039.45 862.964,2042.95 860.5,2046C 818.592,2045.38 777.092,2040.88 736,2032.5C 730.018,2003.34 738.184,1978.51 760.5,1958C 777.79,1946.9 796.457,1938.9 816.5,1934C 822.707,1927.14 821.373,1921.81 812.5,1918C 808.5,1917.33 804.5,1917.33 800.5,1918C 797.006,1921.16 794.672,1924.99 793.5,1929.5C 791.293,1931.03 788.793,1931.7 786,1931.5C 773.991,1930.63 762.824,1927.13 752.5,1921C 746.404,1915.04 745.904,1908.54 751,1901.5C 761.639,1882.68 777.472,1871.02 798.5,1866.5 Z"/></g>
<g><path style="opacity:1" fill="#705d48" d="M 1004.5,1887.5 C 1050.15,1885.21 1077.98,1906.21 1088,1950.5C 1092.91,1986.79 1084.91,2019.79 1064,2049.5C 1054.1,2060.03 1041.94,2066.2 1027.5,2068C 966.306,2072.97 934.973,2044.8 933.5,1983.5C 934.17,1955.99 942.337,1930.99 958,1908.5C 970.485,1894.68 985.985,1887.68 1004.5,1887.5 Z"/></g>
<g><path style="opacity:1" fill="#47e9d9" d="M 999.5,1890.5 C 1045.32,1886.29 1073.82,1906.29 1085,1950.5C 1090.1,1984.69 1083.1,2016.02 1064,2044.5C 1050.93,2059.78 1034.26,2067.12 1014,2066.5C 972.732,2066.56 947.399,2046.56 938,2006.5C 933.614,1976.48 938.614,1948.15 953,1921.5C 963.276,1903.28 978.776,1892.95 999.5,1890.5 Z"/></g>
<g><path style="opacity:1" fill="#715d47" d="M 1202.5,1910.5 C 1229.09,1906.53 1251.59,1914.19 1270,1933.5C 1284,1951.83 1288.34,1972.17 1283,1994.5C 1276.86,2008.64 1266.69,2018.81 1252.5,2025C 1240.44,2026.51 1229.1,2030.18 1218.5,2036C 1232.51,2037.23 1246.51,2038.56 1260.5,2040C 1263.87,2040.56 1266.71,2042.06 1269,2044.5C 1274.17,2058.92 1274.84,2073.59 1271,2088.5C 1269.94,2091.56 1268.11,2094.06 1265.5,2096C 1223.78,2094.95 1182.44,2090.28 1141.5,2082C 1139.07,2081.71 1137.24,2080.54 1136,2078.5C 1131.7,2031.23 1151.87,2000.06 1196.5,1985C 1204.18,1982.67 1211.84,1980.33 1219.5,1978C 1223.74,1973.88 1223.08,1970.55 1217.5,1968C 1213.5,1967.33 1209.5,1967.33 1205.5,1968C 1204.29,1976.71 1199.29,1980.87 1190.5,1980.5C 1179.16,1980.17 1168.5,1977.33 1158.5,1972C 1149.68,1967.5 1147.18,1960.67 1151,1951.5C 1160.95,1928.71 1178.12,1915.04 1202.5,1910.5 Z"/></g>
<g><path style="opacity:1" fill="#47e8d8" d="M 1206.5,1912.5 C 1229.49,1910.86 1249.32,1917.86 1266,1933.5C 1276.29,1946.13 1282.12,1960.63 1283.5,1977C 1281.68,1998.32 1271.01,2013.32 1251.5,2022C 1243.5,2024 1235.5,2026 1227.5,2028C 1221.34,2030.58 1215.67,2033.91 1210.5,2038C 1227.15,2039.82 1243.81,2041.49 1260.5,2043C 1265.06,2044.56 1267.89,2047.73 1269,2052.5C 1272.08,2065.31 1271.41,2077.98 1267,2090.5C 1266.17,2091.33 1265.33,2092.17 1264.5,2093C 1222.79,2091.79 1181.45,2087.12 1140.5,2079C 1135.54,2054.99 1140.71,2033.16 1156,2013.5C 1167.76,2001.76 1181.59,1993.26 1197.5,1988C 1204.78,1985.46 1212.11,1983.13 1219.5,1981C 1225.06,1979.5 1226.89,1976 1225,1970.5C 1223.13,1967.81 1220.63,1965.98 1217.5,1965C 1212.71,1964.12 1208.05,1964.45 1203.5,1966C 1201.62,1968.94 1200.12,1972.11 1199,1975.5C 1196.57,1977.09 1193.9,1978.09 1191,1978.5C 1178.8,1976.66 1167.3,1972.82 1156.5,1967C 1154.42,1964.59 1152.76,1961.92 1151.5,1959C 1160.57,1932.42 1178.91,1916.92 1206.5,1912.5 Z"/></g>
<g><path style="opacity:1" fill="#47e8d8" d="M 1428.5,1938.5 C 1442.46,1937.1 1455.79,1939.27 1468.5,1945C 1470,1946.5 1471.5,1948 1473,1949.5C 1472.7,1973.27 1470.87,1996.94 1467.5,2020.5C 1476.68,2020.58 1485.18,2022.92 1493,2027.5C 1494.07,2044.26 1490.9,2060.09 1483.5,2075C 1475.19,2076.73 1466.85,2076.9 1458.5,2075.5C 1456.9,2087.92 1453.73,2099.92 1449,2111.5C 1447.83,2112.89 1446.33,2113.73 1444.5,2114C 1429.76,2115.53 1415.43,2113.87 1401.5,2109C 1400.67,2108.17 1399.83,2107.33 1399,2106.5C 1397.17,2094.19 1397,2081.86 1398.5,2069.5C 1380.4,2067.65 1362.4,2065.15 1344.5,2062C 1342.33,2058.49 1341.17,2054.66 1341,2050.5C 1337.43,2031.53 1341.43,2014.53 1353,1999.5C 1372.15,1978.7 1392.98,1959.86 1415.5,1943C 1419.82,1941.1 1424.16,1939.6 1428.5,1938.5 Z"/></g>
<g><path style="opacity:1" fill="#705d48" d="M 1007.5,1950.5 C 1025.5,1949.83 1034.83,1958.5 1035.5,1976.5C 1035.05,1984.34 1032.89,1991.68 1029,1998.5C 1026.74,2001.43 1023.9,2003.6 1020.5,2005C 1000.52,2008.88 989.519,2000.88 987.5,1981C 986.945,1970.16 990.612,1961.16 998.5,1954C 1001.35,1952.21 1004.35,1951.04 1007.5,1950.5 Z"/></g>
<g><path style="opacity:1" fill="#f6be58" d="M 1005.5,1953.5 C 1026.41,1952.58 1035.24,1962.58 1032,1983.5C 1030.86,1989.91 1028.03,1995.41 1023.5,2000C 1004.37,2007.28 993.369,2000.94 990.5,1981C 989.981,1968.52 994.981,1959.35 1005.5,1953.5 Z"/></g>
<g><path style="opacity:1" fill="#6e5a46" d="M 1418.5,2005.5 C 1419.82,2005.33 1420.99,2005.66 1422,2006.5C 1422.79,2013.22 1422.63,2019.88 1421.5,2026.5C 1415.06,2027.72 1408.72,2027.22 1402.5,2025C 1401.2,2022.46 1401.37,2019.96 1403,2017.5C 1407.78,2012.88 1412.95,2008.88 1418.5,2005.5 Z"/></g>
<g><path style="opacity:1" fill="#f0b957" d="M 1418.5,2009.5 C 1419.78,2012.4 1419.78,2015.4 1418.5,2018.5C 1413.91,2019.98 1409.24,2020.82 1404.5,2021C 1408.46,2016.2 1413.13,2012.37 1418.5,2009.5 Z"/></g>
<g><path style="opacity:1" fill="#aa854d" d="M 1418.5,2009.5 C 1418.56,2008.96 1418.89,2008.62 1419.5,2008.5C 1419.83,2010.17 1420.17,2011.83 1420.5,2013.5C 1420.44,2015.64 1419.78,2017.31 1418.5,2018.5C 1419.78,2015.4 1419.78,2012.4 1418.5,2009.5 Z"/></g>
<g><path style="opacity:1" fill="#4d4d53" d="M 1415.5,2021.5 C 1416.83,2021.5 1418.17,2021.5 1419.5,2021.5C 1419.5,2022.83 1419.5,2024.17 1419.5,2025.5C 1416.19,2024.96 1412.85,2024.46 1409.5,2024C 1411.61,2023.16 1413.61,2022.32 1415.5,2021.5 Z"/></g>
<g><path style="opacity:1" fill="#b28b4e" d="M 1221.5,2155.5 C 1221.83,2224.84 1221.5,2294.17 1220.5,2363.5C 1219.89,2363.38 1219.56,2363.04 1219.5,2362.5C 1220.17,2293.5 1220.83,2224.5 1221.5,2155.5 Z"/></g>
<g><path style="opacity:1" fill="#efe0c0" d="M 72.5,2171.5 C 135.539,2169.61 198.206,2173.45 260.5,2183C 346.387,2196.14 430.387,2216.81 512.5,2245C 573.747,2268.61 629.747,2300.94 680.5,2342C 704.109,2361.94 725.276,2384.11 744,2408.5C 761.795,2433.27 773.462,2460.6 779,2490.5C 781.635,2517.7 776.635,2543.36 764,2567.5C 743.464,2606.04 714.631,2636.87 677.5,2660C 652.897,2672.65 626.897,2681.31 599.5,2686C 586.188,2687.1 572.855,2687.6 559.5,2687.5C 559.5,2688.83 559.5,2690.17 559.5,2691.5C 601.409,2693.88 640.576,2684.88 677,2664.5C 685.915,2672.1 692.582,2681.44 697,2692.5C 721.327,2780.7 689.827,2837.54 602.5,2863C 593.237,2865.37 583.904,2867.37 574.5,2869C 573.62,2870.36 573.286,2871.86 573.5,2873.5C 585.277,2871.62 596.943,2869.12 608.5,2866C 618.962,2862.31 629.295,2858.48 639.5,2854.5C 644.553,2880.9 646.719,2907.57 646,2934.5C 644.021,2959.4 638.354,2983.4 629,3006.5C 626.839,3011.49 624.172,3016.16 621,3020.5C 612.193,3017.22 611.527,3018.22 619,3023.5C 610.939,3038.27 600.439,3051.44 587.5,3063C 561.273,3084.61 531.607,3099.61 498.5,3108C 467.515,3114.96 436.181,3119.62 404.5,3122C 367.943,3126.98 332.276,3135.64 297.5,3148C 282.881,3154.14 268.548,3161.14 254.5,3169C 253.333,3169.17 252.167,3169.33 251,3169.5C 164.622,3151.48 81.1223,3125.15 0.5,3090.5C 0.5,2786.83 0.5,2483.17 0.5,2179.5C 24.5291,2175.9 48.5291,2173.23 72.5,2171.5 Z"/></g>
<g><path style="opacity:1" fill="#6d5946" d="M 340.5,2456.5 C 346.613,2455.41 351.779,2457.08 356,2461.5C 360.059,2471.28 364.392,2480.95 369,2490.5C 370.933,2498.13 368.433,2503.63 361.5,2507C 349.755,2507.05 338.088,2506.05 326.5,2504C 320.959,2500.18 319.126,2495.01 321,2488.5C 326,2479.17 331,2469.83 336,2460.5C 337.667,2459.27 339.167,2457.93 340.5,2456.5 Z"/></g>
<g><path style="opacity:1" fill="#4c3c30" d="M 343.5,2457.5 C 347.505,2457.56 351.005,2458.89 354,2461.5C 358.14,2470.92 362.473,2480.25 367,2489.5C 370.092,2496.47 368.259,2501.64 361.5,2505C 349.707,2505.44 338.04,2504.44 326.5,2502C 323.798,2499.6 322.131,2496.6 321.5,2493C 326.594,2481.98 332.094,2471.15 338,2460.5C 340.058,2459.77 341.891,2458.77 343.5,2457.5 Z"/></g>
<g><path style="opacity:1" fill="#705c49" d="M 494.5,2474.5 C 503.82,2473.97 509.653,2478.3 512,2487.5C 515.645,2495.96 519.145,2504.46 522.5,2513C 520.875,2522.95 515.041,2527.12 505,2525.5C 495.987,2525.41 487.153,2524.24 478.5,2522C 472.725,2517.67 471.225,2512.17 474,2505.5C 478.412,2496.34 483.078,2487.34 488,2478.5C 490.013,2476.75 492.18,2475.42 494.5,2474.5 Z"/></g>
<g><path style="opacity:1" fill="#4c3c30" d="M 495.5,2475.5 C 499.354,2475.84 502.854,2477.17 506,2479.5C 510.591,2489.02 514.924,2498.68 519,2508.5C 521.299,2515.74 519.132,2520.9 512.5,2524C 502.833,2523.76 493.166,2523.09 483.5,2522C 474.63,2519.02 472.13,2513.19 476,2504.5C 480.333,2496.5 484.667,2488.5 489,2480.5C 490.805,2478.17 492.972,2476.51 495.5,2475.5 Z"/></g>
<g><path style="opacity:1" fill="#715d49" d="M 219.5,2520.5 C 227.524,2520.57 235.524,2521.07 243.5,2522C 357.77,2537.75 472.103,2553.09 586.5,2568C 607.855,2570.34 614.688,2581.51 607,2601.5C 600.07,2609.02 591.57,2611.52 581.5,2609C 463.914,2593.43 346.247,2578.43 228.5,2564C 208.941,2562.11 201.441,2551.61 206,2532.5C 208.833,2526.49 213.333,2522.49 219.5,2520.5 Z"/></g>
<g><path style="opacity:1" fill="#4c3c30" d="M 223.5,2521.5 C 346.562,2537.96 469.562,2554.46 592.5,2571C 604.9,2573.4 610.4,2580.9 609,2593.5C 606.213,2602.65 600.046,2607.65 590.5,2608.5C 467.824,2593 345.157,2577.17 222.5,2561C 212.182,2559.18 206.515,2553.01 205.5,2542.5C 206.228,2530.58 212.228,2523.58 223.5,2521.5 Z"/></g>
<g><path style="opacity:1" fill="#474c55" d="M 621.5,3026.5 C 643.089,3042.92 659.255,3063.59 670,3088.5C 677.847,3110.96 672.347,3129.46 653.5,3144C 632.871,3156.44 610.871,3165.77 587.5,3172C 529.46,3187.17 470.46,3193.17 410.5,3190C 359.001,3187.69 308.001,3181.35 257.5,3171C 283.221,3156.14 310.554,3145.14 339.5,3138C 356.697,3133.69 374.03,3130.03 391.5,3127C 419.149,3123.19 446.816,3119.52 474.5,3116C 513.78,3109.7 549.447,3095.03 581.5,3072C 597.532,3059.14 610.865,3043.97 621.5,3026.5 Z"/></g>
<g><path style="opacity:1" fill="#61aaad" d="M 632.5,3029.5 C 632.56,3028.96 632.893,3028.62 633.5,3028.5C 684.59,3042.7 733.257,3062.87 779.5,3089C 793.989,3097.83 806.823,3108.67 818,3121.5C 833.829,3142.38 833.163,3162.71 816,3182.5C 795.782,3201.05 773.616,3216.88 749.5,3230C 697.534,3257.1 642.534,3275.43 584.5,3285C 503.996,3296.57 423.329,3297.57 342.5,3288C 226.07,3273.35 112.57,3246.52 2,3207.5C 1.33333,3170.17 1.33333,3132.83 2,3095.5C 125.62,3149.65 255.12,3182.15 390.5,3193C 456.761,3198.06 522.095,3192.72 586.5,3177C 609.217,3170.8 630.884,3162.14 651.5,3151C 676.109,3134.17 683.275,3111.67 673,3083.5C 663.14,3062.78 649.64,3044.78 632.5,3029.5 Z"/></g>
<g><path style="opacity:1" fill="#efdfc0" d="M 187.5,3265.5 C 188.088,3268.61 188.755,3271.61 189.5,3274.5C 194.544,3314.69 214.211,3324.19 248.5,3303C 251.597,3300.61 253.763,3297.78 255,3294.5C 254.439,3293.98 253.772,3293.64 253,3293.5C 238.293,3304.08 223.793,3303.91 209.5,3293C 203.59,3287.76 198.423,3281.93 194,3275.5C 193.503,3272.85 193.336,3270.19 193.5,3267.5C 230.911,3275.55 268.577,3282.22 306.5,3287.5C 308.318,3291.17 308.984,3295.17 308.5,3299.5C 307.896,3306.81 306.562,3313.98 304.5,3321C 251.472,3321.67 199.138,3328 147.5,3340C 102.15,3351.56 57.8163,3365.9 14.5,3383C 9.82349,3382.5 5.15683,3381.67 0.5,3380.5C 0.333339,3324.17 0.500006,3267.83 1,3211.5C 62.0003,3233.41 124.167,3251.41 187.5,3265.5 Z"/></g>
<g><path style="opacity:1" fill="#ab997f" d="M 187.5,3265.5 C 189.388,3267.99 190.055,3270.99 189.5,3274.5C 188.755,3271.61 188.088,3268.61 187.5,3265.5 Z"/></g>
<g><path style="opacity:1" fill="#ab987f" d="M 306.5,3287.5 C 307.5,3287.5 308.5,3287.5 309.5,3287.5C 309.817,3291.7 309.483,3295.7 308.5,3299.5C 308.984,3295.17 308.318,3291.17 306.5,3287.5 Z"/></g>
<g><path style="opacity:1" fill="#ad9b81" d="M 307.5,3319.5 C 311.188,3319.78 314.855,3320.28 318.5,3321C 316.667,3321.17 314.833,3321.33 313,3321.5C 310.705,3321.45 308.871,3320.79 307.5,3319.5 Z"/></g>
<g><path style="opacity:1" fill="#efe0c0" d="M 1905.5,4499.5 C 1831.5,4499.5 1757.5,4499.5 1683.5,4499.5C 1665.06,4453.51 1630.9,4431.18 1581,4432.5C 1549.18,4433.86 1518.85,4441.2 1490,4454.5C 1474.77,4412.94 1449.27,4379.1 1413.5,4353C 1372.2,4325.9 1326.87,4309.9 1277.5,4305C 1228.43,4300.25 1179.43,4300.92 1130.5,4307C 1103.63,4310.86 1076.96,4315.52 1050.5,4321C 1040.78,4289.17 1027.95,4258.67 1012,4229.5C 960.904,4136.11 882.737,4080.28 777.5,4062C 702.344,4052.82 629.01,4060.32 557.5,4084.5C 559.709,4001.17 549.542,3919.51 527,3839.5C 470.866,3663.47 350.7,3586.97 166.5,3610C 109.688,3618.59 54.688,3633.42 1.5,3654.5C 1.16821,3567.26 1.50155,3480.1 2.5,3393C 39.9778,3377.7 78.3111,3364.37 117.5,3353C 177.296,3336.22 238.296,3327.05 300.5,3325.5C 317.562,3325.84 334.562,3327 351.5,3329C 477.657,3343.2 570.157,3406.37 629,3518.5C 659.148,3578.61 679.482,3641.95 690,3708.5C 700.185,3776.42 706.018,3844.76 707.5,3913.5C 810.158,3897.57 911.825,3902.41 1012.5,3928C 1170.84,3970.19 1279.84,4067.36 1339.5,4219.5C 1424.16,4190.36 1511.16,4180.19 1600.5,4189C 1730.82,4206.48 1822.48,4275.31 1875.5,4395.5C 1888.75,4395.43 1902.09,4395.6 1915.5,4396C 1949.72,4397.3 1982.05,4405.64 2012.5,4421C 2043.21,4438.19 2063.21,4463.69 2072.5,4497.5C 2016.49,4496.84 1960.82,4497.5 1905.5,4499.5 Z"/></g>
<g><path style="opacity:1" fill="#4d4d53" d="M 1.5,3383.5 C 7.98578,3384.49 8.15245,3386.16 2,3388.5C 1.50649,3386.87 1.33982,3385.2 1.5,3383.5 Z"/></g>
<g><path style="opacity:1" fill="#e1c899" d="M 1677.5,4499.5 C 1536.83,4499.5 1396.17,4499.5 1255.5,4499.5C 1255.03,4498.31 1254.03,4497.64 1252.5,4497.5C 1249.69,4497.02 1246.85,4496.68 1244,4496.5C 1117.84,4497.49 991.675,4497.82 865.5,4497.5C 862.672,4476.52 857.506,4456.19 850,4436.5C 829.37,4390.59 793.87,4370.09 743.5,4375C 713.983,4379.22 686.65,4389.06 661.5,4404.5C 658.642,4391.76 655.475,4379.09 652,4366.5C 619.77,4261.96 550.604,4224.12 444.5,4253C 405.313,4265.84 368.48,4283.68 334,4306.5C 310.827,4292.05 285.994,4288.21 259.5,4295C 231.231,4305.6 207.731,4322.76 189,4346.5C 188.667,4322.83 188.333,4299.17 188,4275.5C 184.8,4221.69 171.466,4170.69 148,4122.5C 115.836,4062.83 67.3356,4023.17 2.5,4003.5C 2.16882,3888.76 2.50215,3774.1 3.5,3659.5C 39.0027,3645.56 75.3361,3634.06 112.5,3625C 161.233,3613.79 210.566,3609.46 260.5,3612C 359.972,3620.54 434.806,3667.71 485,3753.5C 514.392,3808.35 533.392,3866.68 542,3928.5C 549.765,3982.54 553.931,4036.87 554.5,4091.5C 613.197,4070 673.864,4060.5 736.5,4063C 842.198,4067.76 925.698,4112.92 987,4198.5C 1013.54,4238.42 1033.71,4281.25 1047.5,4327C 1064.03,4323.43 1080.7,4320.09 1097.5,4317C 1136.25,4310.77 1175.25,4307.27 1214.5,4306.5C 1263.28,4305.8 1310.62,4313.3 1356.5,4329C 1420.82,4352.66 1464.32,4396.82 1487,4461.5C 1525.93,4441.24 1567.09,4434.07 1610.5,4440C 1643.66,4447.67 1666,4467.5 1677.5,4499.5 Z"/></g>
<g><path style="opacity:1" fill="#a7906f" d="M 3.5,3659.5 C 2.50215,3774.1 2.16882,3888.76 2.5,4003.5C 1.83334,3946.33 1.5,3889 1.5,3831.5C 1.50004,3773.83 2.16671,3716.5 3.5,3659.5 Z"/></g>
<g><path style="opacity:1" fill="#a27d54" d="M 4.5,4009.5 C 2.50138,4171.83 1.83471,4334.5 2.5,4497.5C 1.50034,4334.67 1.16701,4171.67 1.5,4008.5C 2.79105,4008.26 3.79105,4008.6 4.5,4009.5 Z"/></g>
<g><path style="opacity:1" fill="#d5a062" d="M 4.5,4009.5 C 74.7861,4032.61 124.619,4078.28 154,4146.5C 172.961,4193.97 182.961,4243.31 184,4294.5C 184.402,4316.84 184.402,4339.17 184,4361.5C 198.965,4340.2 217.465,4322.7 239.5,4309C 271.65,4291.33 302.984,4292.49 333.5,4312.5C 368.222,4289.31 405.556,4271.14 445.5,4258C 475.956,4248.29 506.956,4245.96 538.5,4251C 569.682,4257.86 594.849,4274.02 614,4299.5C 630.221,4322.28 641.887,4347.28 649,4374.5C 652.177,4387.21 655.344,4399.87 658.5,4412.5C 692.957,4389.22 730.957,4378.39 772.5,4380C 801.654,4384.17 823.488,4399 838,4424.5C 850.235,4447.37 857.735,4471.7 860.5,4497.5C 574.5,4497.5 288.5,4497.5 2.5,4497.5C 1.83471,4334.5 2.50138,4171.83 4.5,4009.5 Z"/></g>
</svg>
