<?xml version="1.0" encoding="UTF-8"?>
<!DOCTYPE svg PUBLIC "-//W3C//DTD SVG 1.1//EN" "http://www.w3.org/Graphics/SVG/1.1/DTD/svg11.dtd">
<svg xmlns="http://www.w3.org/2000/svg" version="1.1" width="4500px" height="4500px" style="shape-rendering:geometricPrecision; text-rendering:geometricPrecision; image-rendering:optimizeQuality; fill-rule:evenodd; clip-rule:evenodd" xmlns:xlink="http://www.w3.org/1999/xlink">
<g><path style="opacity:0.972" fill="#6e5845" d="M 1601.5,-0.5 C 2332.5,-0.5 3063.5,-0.5 3794.5,-0.5C 3895.06,140.255 4001.56,276.589 4114,408.5C 4236.49,551.844 4364.99,690.177 4499.5,823.5C 4499.5,1459.5 4499.5,2095.5 4499.5,2731.5C 4308.09,2587.67 4124.43,2433.84 3948.5,2270C 3947.67,2269.31 3947,2269.48 3946.5,2270.5C 3911.16,2322.52 3875.33,2374.18 3839,2425.5C 3818.82,2364.97 3798.66,2304.47 3778.5,2244C 3717.68,2225.97 3657.02,2207.63 3596.5,2189C 3647.48,2151.18 3698.81,2113.84 3750.5,2077C 3479.93,1803.5 3239.43,1507 3029,1187.5C 2884.26,967.094 2758.26,735.428 2651,492.5C 2613.27,405.366 2578.6,317.033 2547,227.5C 2288.75,332.054 2035.58,448.22 1787.5,576C 1504.7,721.048 1228.04,875.715 957.5,1040C 907.163,1070.83 857.163,1102.17 807.5,1134C 839.308,1175.98 871.308,1217.81 903.5,1259.5C 819.835,1260.33 736.169,1260.83 652.5,1261C 605.123,1329.59 557.623,1398.09 510,1466.5C 483.641,1387.09 457.475,1307.59 431.5,1228C 351.37,1204.4 271.37,1180.4 191.5,1156C 259.089,1106.96 326.589,1057.79 394,1008.5C 392.75,928.828 390.917,849.161 388.5,769.5C 388.833,765.5 389.167,761.5 389.5,757.5C 427.86,785.693 466.36,813.693 505,841.5C 703.455,658.326 908.955,484.159 1121.5,319C 1214.37,247.233 1309.7,178.9 1407.5,114C 1470.25,72.782 1534.92,34.6153 1601.5,-0.5 Z"/></g>
<g><path style="opacity:1" fill="#647a6e" d="M 1611.5,3.5 C 1732.33,2.33402 1853.33,2.16736 1974.5,3C 1973.96,3.71719 1973.29,4.21719 1972.5,4.5C 1852.33,3.50046 1732,3.16713 1611.5,3.5 Z"/></g>
<g><path style="opacity:1" fill="#b18040" d="M 1995.5,3.5 C 2174,2.3338 2352.67,2.16713 2531.5,3C 2530.76,4.03859 2529.76,4.53859 2528.5,4.5C 2351,3.50031 2173.33,3.16698 1995.5,3.5 Z"/></g>
<g><path style="opacity:1" fill="#ad583f" d="M 2557.5,3.5 C 2781.33,2.33371 3005.33,2.16704 3229.5,3C 3228.26,3.79142 3226.92,4.29142 3225.5,4.5C 3003,3.50025 2780.33,3.16692 2557.5,3.5 Z"/></g>
<g><path style="opacity:1" fill="#5a9d98" d="M 1611.5,3.5 C 1732,3.16713 1852.33,3.50046 1972.5,4.5C 1898.78,32.5083 1826.78,65.3416 1756.5,103C 1623.66,174.892 1495.32,253.559 1371.5,339C 1133.43,503.761 904.765,681.094 685.5,871C 654.514,881.993 623.514,892.826 592.5,903.5C 565.482,884.657 538.815,865.324 512.5,845.5C 696.778,675.348 887.112,512.848 1083.5,358C 1195.54,269.63 1311.2,186.296 1430.5,108C 1488.93,70.1116 1549.26,35.2782 1611.5,3.5 Z"/></g>
<g><path style="opacity:1" fill="#f5a93a" d="M 1995.5,3.5 C 2173.33,3.16698 2351,3.50031 2528.5,4.5C 2490.54,15.8138 2453.21,28.6471 2416.5,43C 2292.63,93.4176 2170.97,149.751 2051.5,212C 1892.54,295.391 1735.87,382.391 1581.5,473C 1310.71,633.117 1044.21,799.617 782,972.5C 781.333,971.167 781.333,969.833 782,968.5C 799.04,919.05 815.04,869.383 830,819.5C 787.947,835.132 745.78,849.966 703.5,864C 921.809,676.565 1149.14,501.231 1385.5,338C 1509.5,252.635 1638.17,174.302 1771.5,103C 1844.26,64.4276 1918.93,31.2609 1995.5,3.5 Z"/></g>
<g><path style="opacity:1" fill="#ed583b" d="M 2557.5,3.5 C 2780.33,3.16692 3003,3.50025 3225.5,4.5C 3107.53,30.8512 2991.2,62.6846 2876.5,100C 2681.13,165.421 2489.8,239.421 2302.5,322C 2023.25,446.623 1749.25,582.623 1480.5,730C 1250.83,855.802 1025.33,987.969 804,1126.5C 785.88,1104.94 768.714,1082.61 752.5,1059.5C 760.364,1034.41 768.531,1009.41 777,984.5C 1090.05,777.35 1409.55,579.85 1735.5,392C 1877.32,310.975 2021.66,233.975 2168.5,161C 2261.3,115.267 2355.96,73.9332 2452.5,37C 2486.98,24.1175 2521.98,12.9508 2557.5,3.5 Z"/></g>
<g><path style="opacity:1" fill="#474953" d="M 3264.5,2.5 C 3439.5,2.16667 3614.5,2.5 3789.5,3.5C 3865.02,109.869 3944.19,213.536 4027,314.5C 4173.74,493.949 4330.07,665.616 4496,829.5C 4496.67,1024.17 4496.67,1218.83 4496,1413.5C 4390.72,1485.77 4288.56,1562.27 4189.5,1643C 4069.03,1741.46 3951.36,1843.46 3836.5,1949C 3835.5,1949.67 3834.5,1949.67 3833.5,1949C 3804.93,1927.47 3776.1,1906.3 3747,1885.5C 3748.02,1937.82 3749.18,1990.16 3750.5,2042.5C 3750.17,2050.5 3749.83,2058.5 3749.5,2066.5C 3477.31,1790.97 3235.81,1491.97 3025,1169.5C 2875.83,940.873 2747.17,700.539 2639,448.5C 2608.31,375.315 2579.81,301.149 2553.5,226C 2553.91,225.055 2554.57,224.388 2555.5,224C 2729.96,154.399 2908.3,94.3993 3090.5,44C 3148.46,28.9331 3206.46,15.0997 3264.5,2.5 Z"/></g>
<g><path style="opacity:1" fill="#f7bf58" d="M 393.5,767.5 C 459.811,814.899 525.644,862.899 591,911.5C 666.363,885.535 741.53,859.035 816.5,832C 817.635,831.251 818.635,831.417 819.5,832.5C 793.898,908.64 768.898,984.974 744.5,1061.5C 794.487,1125.5 844.154,1189.83 893.5,1254.5C 812.169,1255.33 730.835,1255.83 649.5,1256C 603.333,1322.83 557.167,1389.67 511,1456.5C 485.93,1379.12 460.764,1301.79 435.5,1224.5C 357.833,1201 280.167,1177.5 202.5,1154C 268,1106.5 333.5,1059 399,1011.5C 397.1,930.184 395.267,848.851 393.5,767.5 Z"/></g>
<g><path style="opacity:1" fill="#6b5b49" d="M 4267.5,1073.5 C 4286.49,1099.6 4305.16,1126.1 4323.5,1153C 4355.84,1153.17 4388.17,1153.67 4420.5,1154.5C 4400.29,1179.77 4380.96,1205.61 4362.5,1232C 4371.87,1261.93 4381.53,1291.76 4391.5,1321.5C 4389.23,1322.21 4386.9,1322.04 4384.5,1321C 4356.61,1311.43 4328.95,1301.6 4301.5,1291.5C 4274.6,1309.87 4248.1,1328.87 4222,1348.5C 4222.23,1315.83 4222.57,1283.16 4223,1250.5C 4197.08,1231.79 4171.24,1212.96 4145.5,1194C 4176.37,1184.21 4207.37,1174.71 4238.5,1165.5C 4248.1,1136.54 4257.6,1107.54 4267,1078.5C 4267.49,1076.87 4267.66,1075.2 4267.5,1073.5 Z"/></g>
<g><path style="opacity:1" fill="#47e9d9" d="M 4268.5,1080.5 C 4270.07,1080.94 4271.24,1081.94 4272,1083.5C 4288.25,1107.67 4304.75,1131.67 4321.5,1155.5C 4352.49,1156.33 4383.49,1156.83 4414.5,1157C 4395.82,1181.68 4377.15,1206.34 4358.5,1231C 4367.73,1259.54 4377.07,1288.04 4386.5,1316.5C 4383.11,1317.22 4379.77,1316.72 4376.5,1315C 4351.33,1305.59 4326,1296.43 4300.5,1287.5C 4275.19,1305.64 4250.03,1323.97 4225,1342.5C 4224.99,1316 4225.49,1289.5 4226.5,1263C 4226.17,1258.17 4225.83,1253.33 4225.5,1248.5C 4201.17,1230.67 4176.83,1212.83 4152.5,1195C 4181.77,1185.98 4211.11,1177.15 4240.5,1168.5C 4249.96,1140.95 4259.13,1113.29 4268,1085.5C 4268.49,1083.87 4268.66,1082.2 4268.5,1080.5 Z"/></g>
<g><path style="opacity:1" fill="#5a9d98" d="M 4495.5,1419.5 C 4496.83,1443.66 4497.5,1468.16 4497.5,1493C 4497.17,1517.5 4496.83,1542 4496.5,1566.5C 4314.43,1691.75 4139.76,1826.92 3972.5,1972C 3949.16,1980.84 3925.49,1989 3901.5,1996.5C 3881.03,1982.09 3860.7,1967.42 3840.5,1952.5C 4025.13,1781.13 4218.46,1620.97 4420.5,1472C 4445.57,1454.48 4470.57,1436.98 4495.5,1419.5 Z"/></g>
<g><path style="opacity:1" fill="#f5a93a" d="M 4496.5,1571.5 C 4497.5,1635.66 4497.83,1700 4497.5,1764.5C 4345.07,1856.21 4194.74,1951.21 4046.5,2049.5C 4046.17,2049 4045.83,2048.5 4045.5,2048C 4058.54,2010.04 4070.88,1971.87 4082.5,1933.5C 4050.5,1944.46 4018.66,1955.79 3987,1967.5C 3986.31,1966.67 3986.48,1966 3987.5,1965.5C 4150.92,1825.7 4320.59,1694.37 4496.5,1571.5 Z"/></g>
<g><path style="opacity:1" fill="#ed583b" d="M 4494.5,1770.5 C 4495.5,1770.5 4496.5,1770.5 4497.5,1770.5C 4497.67,1816.83 4497.5,1863.17 4497,1909.5C 4350.17,1991.9 4205.51,2077.56 4063,2166.5C 4061.74,2166.24 4060.74,2165.57 4060,2164.5C 4047.64,2148.31 4035.47,2131.97 4023.5,2115.5C 4029.74,2096.28 4036.07,2077.11 4042.5,2058C 4191.71,1959.89 4342.37,1864.06 4494.5,1770.5 Z"/></g>
<g><path style="opacity:1" fill="#f7bf58" d="M 4130.5,2263.5 C 4068.83,2264.17 4007.17,2264.83 3945.5,2265.5C 3910.59,2316.26 3875.42,2366.93 3840,2417.5C 3820.42,2358.77 3801.26,2299.94 3782.5,2241C 3723.3,2223.73 3664.3,2205.9 3605.5,2187.5C 3654.53,2151.15 3703.86,2115.15 3753.5,2079.5C 3753.83,2076 3754.17,2072.5 3754.5,2069C 3752.26,2010.51 3751.26,1952.01 3751.5,1893.5C 3799.28,1927.79 3846.61,1962.62 3893.5,1998C 3896.04,1999.77 3898.71,2001.27 3901.5,2002.5C 3959.33,1981.71 4017.33,1961.55 4075.5,1942C 4056.67,1998.8 4037.84,2055.63 4019,2112.5C 4018.33,2114.5 4018.33,2116.5 4019,2118.5C 4056.65,2166.46 4093.82,2214.8 4130.5,2263.5 Z"/></g>
<g><path style="opacity:1" fill="#474953" d="M 4494.5,1916.5 C 4495.83,2050.33 4496.5,2184.5 4496.5,2319C 4496.33,2453.17 4496.17,2587.33 4496,2721.5C 4309.19,2580.06 4129.69,2429.23 3957.5,2269C 4017.83,2268.67 4078.17,2268.33 4138.5,2268C 4114.33,2236.5 4090.17,2205 4066,2173.5C 4065.49,2172 4065.99,2170.84 4067.5,2170C 4207.59,2081.95 4349.92,1997.45 4494.5,1916.5 Z"/></g>
<g><path style="opacity:1" fill="#b28c4e" d="M 4130.5,2263.5 C 4131.04,2263.56 4131.38,2263.89 4131.5,2264.5C 4069.5,2265.5 4007.5,2265.83 3945.5,2265.5C 4007.17,2264.83 4068.83,2264.17 4130.5,2263.5 Z"/></g>
</svg>
