<?xml version="1.0" encoding="UTF-8"?>
<!DOCTYPE svg PUBLIC "-//W3C//DTD SVG 1.1//EN" "http://www.w3.org/Graphics/SVG/1.1/DTD/svg11.dtd">
<svg xmlns="http://www.w3.org/2000/svg" version="1.1" width="4500px" height="4500px" style="shape-rendering:geometricPrecision; text-rendering:geometricPrecision; image-rendering:optimizeQuality; fill-rule:evenodd; clip-rule:evenodd" xmlns:xlink="http://www.w3.org/1999/xlink">
<g><path style="opacity:0.862" fill="#6f5745" d="M 2647.5,1534.5 C 2648.82,1537.09 2649.48,1540.09 2649.5,1543.5C 2648.67,1562.84 2648.17,1582.18 2648,1601.5C 2666.08,1614.79 2684.24,1627.96 2702.5,1641C 2681.09,1648.27 2659.43,1654.77 2637.5,1660.5C 2631.23,1682.48 2624.06,1704.15 2616,1725.5C 2603.7,1707.03 2591.2,1688.7 2578.5,1670.5C 2555.84,1669.67 2533.17,1669.17 2510.5,1669C 2523.92,1650.82 2537.59,1632.82 2551.5,1615C 2544.21,1594.28 2537.21,1573.45 2530.5,1552.5C 2531,1552.17 2531.5,1551.83 2532,1551.5C 2552.79,1558.56 2573.46,1565.9 2594,1573.5C 2612.17,1560.85 2630,1547.85 2647.5,1534.5 Z"/></g>
<g><path style="opacity:1" fill="#c34a48" d="M 2645.5,1538.5 C 2646.8,1540.22 2647.47,1542.39 2647.5,1545C 2646.84,1562.5 2646.17,1580 2645.5,1597.5C 2645.83,1599.5 2646.17,1601.5 2646.5,1603.5C 2663.34,1615.42 2680.01,1627.59 2696.5,1640C 2694.78,1641.53 2692.78,1642.53 2690.5,1643C 2672.3,1648.68 2653.97,1653.84 2635.5,1658.5C 2629.23,1678.96 2622.57,1699.3 2615.5,1719.5C 2603.31,1702.47 2591.31,1685.3 2579.5,1668C 2557.83,1667.67 2536.17,1667.33 2514.5,1667C 2528.25,1650.14 2541.25,1632.8 2553.5,1615C 2546.29,1595.04 2540.12,1574.88 2535,1554.5C 2554.39,1562.1 2574.06,1569.1 2594,1575.5C 2598.39,1573.46 2602.56,1570.96 2606.5,1568C 2619.68,1558.3 2632.68,1548.47 2645.5,1538.5 Z"/></g>
<g><path style="opacity:0.906" fill="#6f5945" d="M 724.5,1687.5 C 726.411,1687.57 727.578,1688.57 728,1690.5C 754.892,1751.28 782.059,1811.95 809.5,1872.5C 803.099,1879.2 796.099,1885.2 788.5,1890.5C 748.179,1835.87 707.845,1781.2 667.5,1726.5C 686.355,1713.24 705.355,1700.24 724.5,1687.5 Z"/></g>
<g><path style="opacity:1" fill="#f6bf58" d="M 723.5,1692.5 C 750.832,1751.17 777.665,1810.17 804,1869.5C 804.667,1870.5 804.667,1871.5 804,1872.5C 799,1876.83 794,1881.17 789,1885.5C 750.289,1832.58 711.455,1779.74 672.5,1727C 689.912,1715.97 706.912,1704.47 723.5,1692.5 Z"/></g>
<g><path style="opacity:0.911" fill="#6f5a45" d="M 3252.5,1701.5 C 3299.46,1698.52 3343.46,1708.36 3384.5,1731C 3450.02,1773.4 3480.19,1833.9 3475,1912.5C 3469.87,1981.28 3439.04,2035.11 3382.5,2074C 3344.84,2097.33 3303.84,2107.33 3259.5,2104C 3176.94,2097.41 3117.78,2056.91 3082,1982.5C 3061.41,1929.74 3061.74,1877.07 3083,1824.5C 3107.85,1768.64 3149.02,1730.48 3206.5,1710C 3221.72,1705.74 3237.05,1702.91 3252.5,1701.5 Z M 3260.5,1854.5 C 3283.45,1851.41 3301.61,1859.08 3315,1877.5C 3325.61,1902.22 3321.11,1923.72 3301.5,1942C 3270.45,1959.45 3245.28,1953.28 3226,1923.5C 3217.45,1898.86 3223.28,1878.36 3243.5,1862C 3249,1858.91 3254.67,1856.41 3260.5,1854.5 Z"/></g>
<g><path style="opacity:1" fill="#f7bf58" d="M 3246.5,1705.5 C 3285.96,1702.45 3323.96,1708.28 3360.5,1723C 3425.17,1753.67 3462.01,1804.5 3471,1875.5C 3477.24,1961.21 3444.74,2027.71 3373.5,2075C 3336.22,2095.62 3296.22,2103.95 3253.5,2100C 3189.77,2093.89 3139.6,2064.72 3103,2012.5C 3073.16,1966.6 3063.83,1916.6 3075,1862.5C 3089.01,1806.49 3120.18,1762.65 3168.5,1731C 3192.7,1716.99 3218.7,1708.49 3246.5,1705.5 Z M 3260.5,1854.5 C 3254.67,1856.41 3249,1858.91 3243.5,1862C 3223.28,1878.36 3217.45,1898.86 3226,1923.5C 3245.28,1953.28 3270.45,1959.45 3301.5,1942C 3321.11,1923.72 3325.61,1902.22 3315,1877.5C 3301.61,1859.08 3283.45,1851.41 3260.5,1854.5 Z"/></g>
<g><path style="opacity:0.914" fill="#705a45" d="M 2861.5,1735.5 C 2901.25,1731.95 2937.91,1740.78 2971.5,1762C 2992.08,1776.58 3006.58,1795.74 3015,1819.5C 3016.55,1827.08 3015.22,1834.08 3011,1840.5C 2998.59,1853.9 2983.76,1863.73 2966.5,1870C 2946.92,1878.31 2926.59,1883.31 2905.5,1885C 2897.56,1882.73 2892.73,1877.56 2891,1869.5C 2884.47,1862.5 2876.64,1860.67 2867.5,1864C 2860.83,1867 2855,1871.17 2850,1876.5C 2846.23,1880.81 2847.06,1883.97 2852.5,1886C 2855.77,1887.2 2859.11,1888.2 2862.5,1889C 2882.17,1890.95 2901.84,1892.95 2921.5,1895C 2960.08,1899.07 2994.41,1913.07 3024.5,1937C 3061.15,1972.96 3073.98,2016.12 3063,2066.5C 3045.77,2116.06 3012.61,2150.23 2963.5,2169C 2916.24,2186.62 2868.57,2187.96 2820.5,2173C 2784.54,2160.12 2756.38,2137.62 2736,2105.5C 2731.22,2097.28 2727.56,2088.62 2725,2079.5C 2723.43,2070.97 2724.76,2062.97 2729,2055.5C 2738.22,2045.14 2749.38,2037.64 2762.5,2033C 2792.19,2022 2822.52,2019.67 2853.5,2026C 2863.26,2028.28 2869.76,2034.12 2873,2043.5C 2879.62,2050.82 2887.78,2053.32 2897.5,2051C 2904.45,2049.62 2909.95,2046.12 2914,2040.5C 2914.98,2032.45 2911.48,2027.29 2903.5,2025C 2876.45,2019.37 2849.12,2016.04 2821.5,2015C 2747.13,2003.8 2709.8,1960.63 2709.5,1885.5C 2709.16,1851.35 2719.99,1821.35 2742,1795.5C 2774.25,1760.46 2814.08,1740.46 2861.5,1735.5 Z"/></g>
<g><path style="opacity:1" fill="#f7bf58" d="M 2868.5,1738.5 C 2902.01,1737.21 2933.34,1744.71 2962.5,1761C 2984.03,1774.54 2999.86,1793.04 3010,1816.5C 3012.32,1823.35 3011.98,1830.02 3009,1836.5C 2992.77,1853.54 2973.27,1865.37 2950.5,1872C 2939.35,1875.57 2928.02,1878.57 2916.5,1881C 2904.36,1883.35 2896.86,1878.51 2894,1866.5C 2883.72,1857.35 2872.55,1856.19 2860.5,1863C 2856.05,1865.78 2851.88,1868.95 2848,1872.5C 2842.89,1878.69 2843.39,1884.19 2849.5,1889C 2853.79,1890.49 2858.12,1891.82 2862.5,1893C 2886.96,1894.46 2911.29,1897.13 2935.5,1901C 2966.64,1906.54 2994.64,1918.88 3019.5,1938C 3046.21,1961.44 3060.71,1990.94 3063,2026.5C 3064.24,2055.45 3056.57,2081.78 3040,2105.5C 3016.15,2138.34 2984.65,2160.18 2945.5,2171C 2907.98,2181.49 2870.32,2182.16 2832.5,2173C 2796.76,2162.07 2767.59,2141.9 2745,2112.5C 2739.18,2103.2 2734.18,2093.53 2730,2083.5C 2725.71,2070.71 2728.55,2059.88 2738.5,2051C 2753.06,2040.7 2769.06,2033.7 2786.5,2030C 2807.77,2025.78 2829.1,2025.45 2850.5,2029C 2856.29,2030.71 2861.46,2033.54 2866,2037.5C 2870.03,2049.36 2878.36,2055.36 2891,2055.5C 2899.19,2054.99 2906.69,2052.49 2913.5,2048C 2920.37,2040.09 2920.04,2032.42 2912.5,2025C 2908.72,2022.78 2904.72,2021.11 2900.5,2020C 2871.98,2015.5 2843.31,2012.16 2814.5,2010C 2783.47,2005.08 2757.64,1990.91 2737,1967.5C 2728.64,1957.11 2722.64,1945.44 2719,1932.5C 2700.59,1848.82 2730.09,1788.98 2807.5,1753C 2827.24,1745.38 2847.57,1740.55 2868.5,1738.5 Z"/></g>
<g><path style="opacity:0.905" fill="#6f5945" d="M 597.5,1765.5 C 598.822,1765.33 599.989,1765.66 601,1766.5C 654.621,1833.12 708.621,1899.46 763,1965.5C 763.982,1966.76 764.315,1968.09 764,1969.5C 757.167,1975.67 750.333,1981.83 743.5,1988C 742.5,1988.67 741.5,1988.67 740.5,1988C 673.833,1934 607.167,1880 540.5,1826C 560.071,1806.27 579.071,1786.1 597.5,1765.5 Z"/></g>
<g><path style="opacity:1" fill="#f7bf58" d="M 598.5,1770.5 C 652.028,1836.35 705.695,1902.19 759.5,1968C 753.762,1973.62 747.929,1979.12 742,1984.5C 677.108,1931.31 611.942,1878.47 546.5,1826C 563.672,1807.33 581.005,1788.83 598.5,1770.5 Z"/></g>
<g><path style="opacity:0.912" fill="#705a45" d="M 2491.5,1785.5 C 2502.57,1785.4 2513.57,1786.23 2524.5,1788C 2530.53,1789.52 2536.2,1791.85 2541.5,1795C 2548.07,1800.9 2553.91,1807.4 2559,1814.5C 2585.48,1856.44 2609.14,1900.11 2630,1945.5C 2661.15,2012.13 2689.81,2079.79 2716,2148.5C 2720.39,2158.17 2721.73,2168.17 2720,2178.5C 2718.22,2182.61 2715.39,2185.78 2711.5,2188C 2706.74,2190.59 2701.74,2192.59 2696.5,2194C 2661.76,2202.6 2626.59,2208.76 2591,2212.5C 2583.2,2211.43 2576.87,2207.76 2572,2201.5C 2569.67,2197.83 2567.33,2194.17 2565,2190.5C 2558.23,2173.62 2549.89,2157.62 2540,2142.5C 2537.5,2140 2535,2137.5 2532.5,2135C 2528.74,2133.09 2524.74,2132.25 2520.5,2132.5C 2504.81,2133.74 2489.14,2135.24 2473.5,2137C 2465.62,2138.02 2459.12,2141.52 2454,2147.5C 2446.33,2167.83 2438.67,2188.17 2431,2208.5C 2428.38,2214.91 2424.88,2220.75 2420.5,2226C 2415.47,2228.59 2410.13,2230.26 2404.5,2231C 2376.98,2235.18 2349.31,2236.85 2321.5,2236C 2312.98,2235.79 2306.81,2231.96 2303,2224.5C 2301.14,2217.3 2300.14,2209.96 2300,2202.5C 2300.58,2139.12 2305.91,2076.12 2316,2013.5C 2322.25,1971.9 2329.92,1930.57 2339,1889.5C 2343.66,1867.2 2350.33,1845.53 2359,1824.5C 2360.14,1822.39 2361.64,1820.56 2363.5,1819C 2372.28,1813.28 2381.61,1808.61 2391.5,1805C 2424.07,1793.85 2457.4,1787.35 2491.5,1785.5 Z M 2472.5,1960.5 C 2479.1,1961.92 2484.6,1965.25 2489,1970.5C 2497.16,1980.81 2504.82,1991.48 2512,2002.5C 2514.53,2006.73 2516.37,2011.23 2517.5,2016C 2516.45,2021.4 2513.45,2025.4 2508.5,2028C 2492.37,2034.69 2475.71,2036.69 2458.5,2034C 2455.45,2033.39 2452.95,2031.89 2451,2029.5C 2450.07,2006.26 2455.74,1984.6 2468,1964.5C 2469.4,1962.93 2470.9,1961.6 2472.5,1960.5 Z"/></g>
<g><path style="opacity:1" fill="#f7bf58" d="M 2482.5,1789.5 C 2496.91,1789.15 2511.24,1789.98 2525.5,1792C 2528.99,1792.94 2532.33,1794.28 2535.5,1796C 2540.63,1800.13 2545.47,1804.63 2550,1809.5C 2564.42,1828.66 2577.09,1848.99 2588,1870.5C 2635.18,1962.19 2676.85,2055.85 2713,2151.5C 2716.73,2159.9 2717.73,2168.57 2716,2177.5C 2712.94,2182.79 2708.44,2186.29 2702.5,2188C 2666.15,2198.05 2629.15,2204.89 2591.5,2208.5C 2588.4,2207.98 2585.4,2207.15 2582.5,2206C 2579.67,2203.17 2576.83,2200.33 2574,2197.5C 2565.03,2180.23 2556.03,2162.9 2547,2145.5C 2542.7,2137.86 2536.53,2132.36 2528.5,2129C 2507.65,2129.02 2486.99,2131.02 2466.5,2135C 2459.59,2136.92 2454.09,2140.76 2450,2146.5C 2441.6,2168.6 2433.27,2190.6 2425,2212.5C 2423.02,2216.96 2420.19,2220.79 2416.5,2224C 2390.1,2229.31 2363.43,2232.48 2336.5,2233.5C 2329.43,2233.19 2322.43,2232.36 2315.5,2231C 2311,2229.17 2307.83,2226 2306,2221.5C 2303.63,2200.9 2302.96,2180.23 2304,2159.5C 2310.7,2066.79 2324.03,1975.12 2344,1884.5C 2348.35,1864.15 2354.68,1844.48 2363,1825.5C 2369.98,1819.26 2377.81,1814.43 2386.5,1811C 2417.6,1799.41 2449.6,1792.25 2482.5,1789.5 Z M 2472.5,1960.5 C 2470.9,1961.6 2469.4,1962.93 2468,1964.5C 2455.74,1984.6 2450.07,2006.26 2451,2029.5C 2452.95,2031.89 2455.45,2033.39 2458.5,2034C 2475.71,2036.69 2492.37,2034.69 2508.5,2028C 2513.45,2025.4 2516.45,2021.4 2517.5,2016C 2516.37,2011.23 2514.53,2006.73 2512,2002.5C 2504.82,1991.48 2497.16,1980.81 2489,1970.5C 2484.6,1965.25 2479.1,1961.92 2472.5,1960.5 Z"/></g>
<g><path style="opacity:0.917" fill="#705a45" d="M 2150.5,1833.5 C 2166.96,1833.06 2183.29,1834.22 2199.5,1837C 2204.28,1838.13 2208.11,1840.63 2211,1844.5C 2213.95,1852.31 2216.29,1860.31 2218,1868.5C 2240.7,1990.81 2252.7,2114.15 2254,2238.5C 2253.69,2244.74 2252.35,2250.74 2250,2256.5C 2245.53,2260.33 2240.36,2262.83 2234.5,2264C 2194.96,2273.43 2154.96,2277.43 2114.5,2276C 2111.39,2272.94 2108.89,2269.44 2107,2265.5C 2099.12,2243.97 2092.78,2221.97 2088,2199.5C 2083.49,2178.93 2079.49,2158.27 2076,2137.5C 2051.75,2170.43 2025.25,2201.6 1996.5,2231C 1992.43,2234.06 1988.1,2236.73 1983.5,2239C 1978.3,2239.87 1973.3,2239.2 1968.5,2237C 1946.45,2224.62 1925.79,2210.28 1906.5,2194C 1894.04,2183.87 1881.87,2173.37 1870,2162.5C 1871.31,2204.22 1869.98,2245.89 1866,2287.5C 1865.42,2293.94 1862.92,2299.44 1858.5,2304C 1839.58,2309.56 1820.24,2312.89 1800.5,2314C 1779.85,2315.49 1759.19,2315.82 1738.5,2315C 1732.58,2315.07 1727.41,2313.23 1723,2309.5C 1716.32,2294.46 1711.66,2278.8 1709,2262.5C 1687.96,2145.4 1676.29,2027.4 1674,1908.5C 1674.26,1903.79 1675.59,1899.45 1678,1895.5C 1687.52,1888.88 1698.02,1884.38 1709.5,1882C 1742.73,1874.09 1776.39,1871.09 1810.5,1873C 1821.76,1873.39 1832.43,1876.05 1842.5,1881C 1857.27,1893.77 1871.44,1907.27 1885,1921.5C 1909.38,1949.54 1933.38,1977.87 1957,2006.5C 1976,1971.83 1995,1937.17 2014,1902.5C 2023,1887.17 2033.17,1872.67 2044.5,1859C 2057.51,1850.21 2071.84,1844.55 2087.5,1842C 2108.44,1837.59 2129.44,1834.76 2150.5,1833.5 Z"/></g>
<g><path style="opacity:0.915" fill="#6e5844" d="M 3659.5,1834.5 C 3781.24,1926.73 3902.58,2019.57 4023.5,2113C 3930.61,2233.71 3837.94,2354.55 3745.5,2475.5C 3640.36,2395.53 3535.36,2315.36 3430.5,2235C 3425.9,2231.38 3421.06,2228.22 3416,2225.5C 2530.21,2363.16 1644.37,2500.49 758.5,2637.5C 755.8,2604.47 752.8,2571.47 749.5,2538.5C 1635.98,2411.79 2522.48,2285.12 3409,2158.5C 3410.5,2158.67 3412,2158.83 3413.5,2159C 3518.96,2210.56 3624.29,2262.39 3729.5,2314.5C 3733.45,2311.26 3736.95,2307.59 3740,2303.5C 3791.14,2240.72 3842.64,2178.22 3894.5,2116C 3824.52,2063.68 3754.19,2011.85 3683.5,1960.5C 3629.97,1979.07 3576.3,1996.9 3522.5,2014C 3568.38,1954.29 3614.05,1894.46 3659.5,1834.5 Z"/></g>
<g><path style="opacity:1" fill="#f7bf58" d="M 1867.5,2155.5 C 1867.44,2154.96 1867.11,2154.62 1866.5,2154.5C 1865.19,2158.98 1865.19,2163.32 1866.5,2167.5C 1867.3,2205.9 1866.13,2244.23 1863,2282.5C 1862.35,2288.73 1860.52,2294.56 1857.5,2300C 1850.63,2302.47 1843.63,2304.47 1836.5,2306C 1805.98,2310.36 1775.32,2312.36 1744.5,2312C 1739.86,2311.17 1735.19,2310.5 1730.5,2310C 1728.71,2309.22 1727.21,2308.05 1726,2306.5C 1722.35,2299.9 1719.69,2292.9 1718,2285.5C 1709.66,2247.47 1703,2209.14 1698,2170.5C 1688.86,2098.72 1682.19,2026.72 1678,1954.5C 1677.33,1938.17 1677.33,1921.83 1678,1905.5C 1678.41,1901.51 1680.25,1898.34 1683.5,1896C 1697.15,1889.35 1711.48,1884.68 1726.5,1882C 1757.31,1875.97 1788.31,1874.64 1819.5,1878C 1830.79,1878.81 1840.46,1883.15 1848.5,1891C 1866.34,1908.17 1883.51,1926.01 1900,1944.5C 1919.57,1967.31 1938.9,1990.31 1958,2013.5C 1978.75,1975.01 1999.75,1936.67 2021,1898.5C 2027.42,1888.66 2034.09,1878.99 2041,1869.5C 2044.17,1865 2048,1861.17 2052.5,1858C 2060.75,1853.54 2069.41,1850.21 2078.5,1848C 2116.71,1838.61 2155.38,1835.95 2194.5,1840C 2199.22,1840.61 2203.38,1842.44 2207,1845.5C 2209.27,1849.97 2210.93,1854.63 2212,1859.5C 2219.02,1894.33 2225.02,1929.33 2230,1964.5C 2240.65,2047 2247.82,2129.84 2251.5,2213C 2251.44,2222.86 2250.94,2232.69 2250,2242.5C 2249.67,2247.66 2247.83,2252.16 2244.5,2256C 2237.45,2259.21 2230.12,2261.54 2222.5,2263C 2187.52,2270.57 2152.19,2273.74 2116.5,2272.5C 2113.24,2268.97 2110.74,2264.97 2109,2260.5C 2101.1,2236.24 2094.43,2211.58 2089,2186.5C 2084.93,2167.16 2081.27,2147.83 2078,2128.5C 2052.13,2164.06 2023.63,2197.56 1992.5,2229C 1988.48,2232.35 1983.98,2234.85 1979,2236.5C 1966.57,2232.07 1955.07,2225.9 1944.5,2218C 1917.8,2198.47 1892.13,2177.64 1867.5,2155.5 Z"/></g>
<g><path style="opacity:1" fill="#ed583b" d="M 3659.5,1840.5 C 3662.52,1841.34 3665.18,1842.84 3667.5,1845C 3784.33,1934.34 3901,2023.84 4017.5,2113.5C 3926.67,2232.5 3835.83,2351.5 3745,2470.5C 3641.23,2391.7 3537.73,2312.53 3434.5,2233C 3429.14,2228.66 3423.47,2224.82 3417.5,2221.5C 2532.2,2359.11 1646.87,2496.45 761.5,2633.5C 759.314,2603.79 756.648,2574.12 753.5,2544.5C 753.608,2543.56 753.941,2542.72 754.5,2542C 755.833,2541.67 757.167,2541.33 758.5,2541C 1642.55,2414.73 2526.55,2288.23 3410.5,2161.5C 3517.21,2214.27 3624.04,2266.94 3731,2319.5C 3787.71,2251.96 3843.88,2183.96 3899.5,2115.5C 3828.9,2062.19 3757.9,2009.36 3686.5,1957C 3679.76,1958.02 3673.09,1959.69 3666.5,1962C 3622.31,1977.18 3578.14,1992.34 3534,2007.5C 3534.04,2005.72 3534.71,2004.05 3536,2002.5C 3577.43,1948.62 3618.59,1894.62 3659.5,1840.5 Z"/></g>
<g><path style="opacity:0.911" fill="#705a45" d="M 3259.5,1850.5 C 3281.65,1847.38 3300.15,1854.05 3315,1870.5C 3327.31,1890.56 3327.64,1910.89 3316,1931.5C 3307.44,1944.2 3295.61,1952.04 3280.5,1955C 3249.67,1957.84 3229.17,1944.67 3219,1915.5C 3215.31,1882.85 3228.81,1861.18 3259.5,1850.5 Z M 3260.5,1854.5 C 3254.67,1856.41 3249,1858.91 3243.5,1862C 3223.28,1878.36 3217.45,1898.86 3226,1923.5C 3245.28,1953.28 3270.45,1959.45 3301.5,1942C 3321.11,1923.72 3325.61,1902.22 3315,1877.5C 3301.61,1859.08 3283.45,1851.41 3260.5,1854.5 Z"/></g>
<g><path style="opacity:0.916" fill="#705a45" d="M 1366.5,1891.5 C 1423.3,1886.82 1476.3,1898.66 1525.5,1927C 1558.63,1948.5 1580.8,1978.33 1592,2016.5C 1603.06,2050.61 1605.39,2085.28 1599,2120.5C 1594.59,2137.49 1586.42,2152.33 1574.5,2165C 1595.88,2179.36 1616.55,2194.69 1636.5,2211C 1646.49,2219.65 1654.99,2229.49 1662,2240.5C 1663.93,2246.49 1663.93,2252.49 1662,2258.5C 1648.46,2294.26 1629.79,2326.93 1606,2356.5C 1600.56,2362.98 1593.56,2365.98 1585,2365.5C 1571.97,2364.45 1559.47,2361.28 1547.5,2356C 1527.53,2345.85 1507.19,2336.51 1486.5,2328C 1476.92,2324.47 1467.09,2321.97 1457,2320.5C 1454.45,2320.76 1451.95,2321.26 1449.5,2322C 1447.33,2322.83 1445.83,2324.33 1445,2326.5C 1446,2339.18 1445.67,2351.85 1444,2364.5C 1441.13,2371.7 1435.96,2376.54 1428.5,2379C 1411.48,2384.07 1394.14,2387.74 1376.5,2390C 1348.67,2394.56 1320.67,2396.89 1292.5,2397C 1285.82,2394.99 1280.99,2390.82 1278,2384.5C 1270.15,2360.58 1263.82,2336.25 1259,2311.5C 1235.32,2198.55 1219.15,2084.55 1210.5,1969.5C 1210.03,1959.95 1211.2,1950.62 1214,1941.5C 1229.75,1929.87 1246.92,1920.7 1265.5,1914C 1298.29,1901.88 1331.96,1894.38 1366.5,1891.5 Z M 1398.5,2037.5 C 1416.49,2034.44 1431.65,2039.44 1444,2052.5C 1453.03,2068.14 1452.36,2083.47 1442,2098.5C 1430.61,2113.61 1415.45,2120.78 1396.5,2120C 1389.75,2116.91 1384.58,2112.08 1381,2105.5C 1372.8,2088.63 1370.13,2070.96 1373,2052.5C 1374.83,2046.67 1378.67,2042.83 1384.5,2041C 1389.28,2039.75 1393.94,2038.58 1398.5,2037.5 Z"/></g>
<g><path style="opacity:1" fill="#f7bf58" d="M 1375.5,1894.5 C 1430.28,1892.03 1480.94,1904.86 1527.5,1933C 1560.46,1956.05 1581.62,1987.22 1591,2026.5C 1597.02,2049.8 1599.69,2073.47 1599,2097.5C 1597.08,2123.67 1587.24,2146.34 1569.5,2165.5C 1593.86,2182.68 1617.52,2200.84 1640.5,2220C 1646.41,2225.24 1651.58,2231.07 1656,2237.5C 1660.25,2246.36 1660.25,2255.36 1656,2264.5C 1641.66,2299.37 1622.16,2330.87 1597.5,2359C 1587.51,2362.28 1577.51,2362.28 1567.5,2359C 1547.44,2351.97 1528.1,2343.3 1509.5,2333C 1502.05,2330.19 1494.72,2327.19 1487.5,2324C 1475.26,2319.15 1462.59,2317.15 1449.5,2318C 1445.98,2318.5 1443.48,2320.34 1442,2323.5C 1442.15,2334.16 1442.15,2344.83 1442,2355.5C 1441.16,2359.21 1440.16,2362.88 1439,2366.5C 1432.92,2373.09 1425.42,2377.26 1416.5,2379C 1379.06,2386.71 1341.23,2391.54 1303,2393.5C 1298.43,2393.52 1293.93,2393.02 1289.5,2392C 1285.91,2389.08 1283.08,2385.58 1281,2381.5C 1273.9,2358.76 1267.9,2335.76 1263,2312.5C 1242.2,2210.63 1226.53,2107.96 1216,2004.5C 1214.11,1986.15 1214.11,1967.82 1216,1949.5C 1215.9,1945.19 1217.74,1942.03 1221.5,1940C 1235.41,1931.04 1250.08,1923.71 1265.5,1918C 1301.15,1904.82 1337.82,1896.99 1375.5,1894.5 Z M 1398.5,2037.5 C 1393.94,2038.58 1389.28,2039.75 1384.5,2041C 1378.67,2042.83 1374.83,2046.67 1373,2052.5C 1370.13,2070.96 1372.8,2088.63 1381,2105.5C 1384.58,2112.08 1389.75,2116.91 1396.5,2120C 1415.45,2120.78 1430.61,2113.61 1442,2098.5C 1452.36,2083.47 1453.03,2068.14 1444,2052.5C 1431.65,2039.44 1416.49,2034.44 1398.5,2037.5 Z"/></g>
<g><path style="opacity:0.91" fill="#6f5a45" d="M 485.5,1931.5 C 565.752,1969.29 645.752,2007.63 725.5,2046.5C 720.974,2056.9 715.474,2066.57 709,2075.5C 631.76,2053.4 554.593,2031.07 477.5,2008.5C 479.278,1982.82 481.945,1957.16 485.5,1931.5 Z"/></g>
<g><path style="opacity:1" fill="#f6bf58" d="M 488.5,1936.5 C 565.019,1973.59 641.685,2010.43 718.5,2047C 719.517,2048.05 719.684,2049.22 719,2050.5C 715.675,2057.82 711.841,2064.82 707.5,2071.5C 632.167,2049.5 556.833,2027.5 481.5,2005.5C 481.167,2004.5 480.833,2003.5 480.5,2002.5C 483.421,1980.52 486.088,1958.52 488.5,1936.5 Z"/></g>
<g><path style="opacity:0.915" fill="#705a45" d="M 961.5,1944.5 C 979.604,1943.38 997.27,1945.54 1014.5,1951C 1026.33,1958.83 1036.17,1968.67 1044,1980.5C 1051.58,1992 1058.92,2003.66 1066,2015.5C 1128.12,2131.41 1181.79,2251.07 1227,2374.5C 1233.27,2391.34 1228.44,2403.5 1212.5,2411C 1172.9,2422.55 1132.57,2430.55 1091.5,2435C 1076.3,2438.94 1064.47,2434.44 1056,2421.5C 1046.1,2403.5 1036.77,2385.17 1028,2366.5C 1023.93,2359.76 1019.1,2353.59 1013.5,2348C 1009.39,2345.3 1004.89,2343.8 1000,2343.5C 981.836,2345.37 963.67,2347.2 945.5,2349C 935.641,2349.95 927.474,2354.11 921,2361.5C 912,2385.17 903,2408.83 894,2432.5C 891.049,2439.58 887.215,2446.08 882.5,2452C 876.222,2455.24 869.555,2457.24 862.5,2458C 830.304,2462.94 797.971,2464.61 765.5,2463C 756.82,2461.99 750.654,2457.49 747,2449.5C 745.177,2442.63 744.177,2435.63 744,2428.5C 743.2,2387.04 745.2,2345.71 750,2304.5C 759.427,2209.94 775.76,2116.61 799,2024.5C 802.681,2011.79 807.348,1999.46 813,1987.5C 815.167,1985.33 817.333,1983.17 819.5,1981C 837.79,1970.79 857.123,1963.12 877.5,1958C 905.236,1950.92 933.236,1946.42 961.5,1944.5 Z M 943.5,2145.5 C 951.167,2147.99 957.667,2152.32 963,2158.5C 974.737,2172.3 984.737,2187.3 993,2203.5C 996.269,2211.19 994.435,2217.36 987.5,2222C 969.169,2230.91 949.836,2234.24 929.5,2232C 917.889,2229.96 913.389,2223.13 916,2211.5C 919.256,2191.14 925.589,2171.8 935,2153.5C 937.098,2149.9 939.932,2147.23 943.5,2145.5 Z"/></g>
<g><path style="opacity:1" fill="#f7bf58" d="M 953.5,1948.5 C 969.907,1948.02 986.24,1948.86 1002.5,1951C 1011.78,1953.05 1019.61,1957.55 1026,1964.5C 1034.77,1974.6 1042.77,1985.27 1050,1996.5C 1070.53,2030.88 1089.53,2066.21 1107,2102.5C 1150.33,2192.53 1189.33,2284.19 1224,2377.5C 1225.68,2383.86 1225.68,2390.19 1224,2396.5C 1219.74,2402.22 1214.24,2406.39 1207.5,2409C 1163.42,2421.85 1118.42,2429.18 1072.5,2431C 1064.95,2426.45 1059.12,2420.28 1055,2412.5C 1047.34,2396.87 1039.67,2381.2 1032,2365.5C 1028.02,2358.38 1023.19,2351.88 1017.5,2346C 1011.15,2341.15 1003.98,2339.32 996,2340.5C 978.866,2342.23 961.7,2343.73 944.5,2345C 933.254,2346.7 924.087,2351.87 917,2360.5C 907.623,2385.24 898.289,2409.9 889,2434.5C 886.006,2444.5 879.506,2450.66 869.5,2453C 838.335,2457.63 807.002,2459.96 775.5,2460C 770.47,2459.55 765.47,2458.89 760.5,2458C 755.288,2455.75 751.788,2451.92 750,2446.5C 749.003,2440.54 748.337,2434.54 748,2428.5C 747.333,2410.17 747.333,2391.83 748,2373.5C 755.746,2260.31 772.746,2148.65 799,2038.5C 802.995,2025.85 806.995,2013.18 811,2000.5C 812.892,1993.61 816.725,1988.11 822.5,1984C 832.752,1978.03 843.419,1973.03 854.5,1969C 886.813,1958.24 919.813,1951.4 953.5,1948.5 Z M 943.5,2145.5 C 939.932,2147.23 937.098,2149.9 935,2153.5C 925.589,2171.8 919.256,2191.14 916,2211.5C 913.389,2223.13 917.889,2229.96 929.5,2232C 949.836,2234.24 969.169,2230.91 987.5,2222C 994.435,2217.36 996.269,2211.19 993,2203.5C 984.737,2187.3 974.737,2172.3 963,2158.5C 957.667,2152.32 951.167,2147.99 943.5,2145.5 Z"/></g>
<g><path style="opacity:0.922" fill="#705a45" d="M 2469.5,1957.5 C 2475.03,1956.71 2480.03,1957.88 2484.5,1961C 2500.01,1975.86 2512.17,1993.03 2521,2012.5C 2521.67,2022.64 2517.17,2029.47 2507.5,2033C 2491.19,2038.54 2474.53,2040.21 2457.5,2038C 2448.8,2035.31 2444.8,2029.31 2445.5,2020C 2447.99,2001.2 2453.49,1983.37 2462,1966.5C 2464.05,1963.02 2466.55,1960.02 2469.5,1957.5 Z M 2472.5,1960.5 C 2470.9,1961.6 2469.4,1962.93 2468,1964.5C 2455.74,1984.6 2450.07,2006.26 2451,2029.5C 2452.95,2031.89 2455.45,2033.39 2458.5,2034C 2475.71,2036.69 2492.37,2034.69 2508.5,2028C 2513.45,2025.4 2516.45,2021.4 2517.5,2016C 2516.37,2011.23 2514.53,2006.73 2512,2002.5C 2504.82,1991.48 2497.16,1980.81 2489,1970.5C 2484.6,1965.25 2479.1,1961.92 2472.5,1960.5 Z"/></g>
<g><path style="opacity:0.913" fill="#6f5a45" d="M 1397.5,2033.5 C 1411.67,2031.93 1425.01,2034.43 1437.5,2041C 1453.86,2054.12 1458.36,2070.62 1451,2090.5C 1439.13,2115.02 1419.63,2125.85 1392.5,2123C 1387.38,2120.21 1383.21,2116.38 1380,2111.5C 1370.31,2094.06 1366.31,2075.39 1368,2055.5C 1369.5,2047.34 1374,2041.5 1381.5,2038C 1386.93,2036.35 1392.26,2034.85 1397.5,2033.5 Z M 1398.5,2037.5 C 1393.94,2038.58 1389.28,2039.75 1384.5,2041C 1378.67,2042.83 1374.83,2046.67 1373,2052.5C 1370.13,2070.96 1372.8,2088.63 1381,2105.5C 1384.58,2112.08 1389.75,2116.91 1396.5,2120C 1415.45,2120.78 1430.61,2113.61 1442,2098.5C 1452.36,2083.47 1453.03,2068.14 1444,2052.5C 1431.65,2039.44 1416.49,2034.44 1398.5,2037.5 Z"/></g>
<g><path style="opacity:0.922" fill="#6e5945" d="M 539.5,2105.5 C 596.167,2112.5 652.833,2119.5 709.5,2126.5C 708.328,2136.19 706.328,2145.69 703.5,2155C 651.486,2156.63 599.486,2157.46 547.5,2157.5C 544.741,2140.19 542.074,2122.85 539.5,2105.5 Z"/></g>
<g><path style="opacity:1" fill="#f5be58" d="M 543.5,2110.5 C 544.274,2109.85 545.274,2109.52 546.5,2109.5C 599.551,2116.26 652.551,2123.26 705.5,2130.5C 704.14,2136.83 702.64,2143.17 701,2149.5C 699.56,2151.05 697.727,2151.88 695.5,2152C 653.832,2152.76 612.165,2153.6 570.5,2154.5C 563.833,2154.17 557.167,2153.83 550.5,2153.5C 548.245,2139.03 545.911,2124.7 543.5,2110.5 Z"/></g>
<g><path style="opacity:0.917" fill="#705a45" d="M 940.5,2142.5 C 945.08,2142.11 949.414,2142.95 953.5,2145C 971.742,2161.31 986.242,2180.48 997,2202.5C 1000.1,2215.13 995.602,2223.96 983.5,2229C 965.715,2235.45 947.381,2237.78 928.5,2236C 921.693,2234.85 916.526,2231.35 913,2225.5C 912.474,2196.91 919.807,2170.58 935,2146.5C 936.812,2145.02 938.645,2143.69 940.5,2142.5 Z M 943.5,2145.5 C 939.932,2147.23 937.098,2149.9 935,2153.5C 925.589,2171.8 919.256,2191.14 916,2211.5C 913.389,2223.13 917.889,2229.96 929.5,2232C 949.836,2234.24 969.169,2230.91 987.5,2222C 994.435,2217.36 996.269,2211.19 993,2203.5C 984.737,2187.3 974.737,2172.3 963,2158.5C 957.667,2152.32 951.167,2147.99 943.5,2145.5 Z"/></g>
<g><path style="opacity:1" fill="#b28c4e" d="M 1867.5,2155.5 C 1866.52,2159.3 1866.18,2163.3 1866.5,2167.5C 1865.19,2163.32 1865.19,2158.98 1866.5,2154.5C 1867.11,2154.62 1867.44,2154.96 1867.5,2155.5 Z"/></g>
<g><path style="opacity:0.914" fill="#6d5946" d="M 3359.5,2276.5 C 3374.2,2276.31 3388.53,2278.48 3402.5,2283C 3408.61,2285.44 3413.11,2289.61 3416,2295.5C 3426.2,2349.43 3433.53,2403.76 3438,2458.5C 3455.78,2458.07 3473.62,2458.57 3491.5,2460C 3496.61,2460.63 3500.44,2463.13 3503,2467.5C 3507.92,2480.7 3510.59,2494.37 3511,2508.5C 3513.31,2531.55 3512.98,2554.55 3510,2577.5C 3510.22,2585.9 3506.39,2591.4 3498.5,2594C 3481.96,2599.44 3465.13,2603.61 3448,2606.5C 3447.67,2627.5 3447.33,2648.5 3447,2669.5C 3446.71,2677.27 3445.71,2684.93 3444,2692.5C 3442.33,2696.34 3439.83,2699.51 3436.5,2702C 3420.87,2708.86 3404.53,2713.19 3387.5,2715C 3367.91,2718.36 3348.24,2719.03 3328.5,2717C 3319.18,2717.36 3313.01,2713.19 3310,2704.5C 3301.6,2678.35 3295.44,2651.68 3291.5,2624.5C 3255.18,2628 3218.84,2631.5 3182.5,2635C 3175.09,2635.89 3167.75,2635.56 3160.5,2634C 3155.5,2629.33 3151.66,2623.83 3149,2617.5C 3135.43,2583.72 3129.76,2548.72 3132,2512.5C 3140.43,2485.65 3152.09,2460.32 3167,2436.5C 3197.72,2391.73 3230.39,2348.4 3265,2306.5C 3276.52,2296.66 3289.68,2289.82 3304.5,2286C 3322.61,2280.65 3340.94,2277.48 3359.5,2276.5 Z M 3314.5,2461.5 C 3315.79,2462.06 3316.62,2463.06 3317,2464.5C 3320.9,2477.22 3323.06,2490.22 3323.5,2503.5C 3310.62,2506.09 3297.62,2506.92 3284.5,2506C 3283.48,2505.48 3282.82,2504.65 3282.5,2503.5C 3289.78,2486.95 3300.45,2472.95 3314.5,2461.5 Z"/></g>
<g><path style="opacity:1" fill="#61aaad" d="M 3350.5,2280.5 C 3365.01,2279.82 3379.34,2280.99 3393.5,2284C 3408.39,2287.56 3415.89,2297.06 3416,2312.5C 3424.39,2362.55 3430.56,2412.88 3434.5,2463.5C 3452.15,2462.4 3469.81,2462.24 3487.5,2463C 3494.21,2463.04 3498.71,2466.21 3501,2472.5C 3505.08,2486.52 3507.42,2500.85 3508,2515.5C 3508.67,2532.5 3508.67,2549.5 3508,2566.5C 3507.56,2573.04 3506.23,2579.37 3504,2585.5C 3501.59,2587.96 3498.76,2589.79 3495.5,2591C 3478.51,2596.44 3461.17,2600.28 3443.5,2602.5C 3444.94,2627.17 3444.78,2651.84 3443,2676.5C 3442.69,2682.74 3441.35,2688.74 3439,2694.5C 3435.73,2697.88 3431.9,2700.38 3427.5,2702C 3394.6,2712.65 3360.93,2716.32 3326.5,2713C 3322.37,2712.3 3318.87,2710.46 3316,2707.5C 3312.87,2700.69 3310.2,2693.69 3308,2686.5C 3302.7,2664.5 3297.87,2642.5 3293.5,2620.5C 3258.52,2624 3223.52,2627.5 3188.5,2631C 3180.5,2631.67 3172.5,2631.67 3164.5,2631C 3161,2628.83 3158.17,2626 3156,2622.5C 3140.9,2588.85 3133.9,2553.52 3135,2516.5C 3142.93,2488.41 3154.93,2462.08 3171,2437.5C 3202.2,2391.96 3235.7,2348.12 3271.5,2306C 3282.48,2298.18 3294.48,2292.51 3307.5,2289C 3321.85,2285.56 3336.18,2282.73 3350.5,2280.5 Z M 3314.5,2461.5 C 3300.45,2472.95 3289.78,2486.95 3282.5,2503.5C 3282.82,2504.65 3283.48,2505.48 3284.5,2506C 3297.62,2506.92 3310.62,2506.09 3323.5,2503.5C 3323.06,2490.22 3320.9,2477.22 3317,2464.5C 3316.62,2463.06 3315.79,2462.06 3314.5,2461.5 Z"/></g>
<g><path style="opacity:0.915" fill="#6d5946" d="M 2937.5,2333.5 C 3027.85,2331.05 3085.68,2373.05 3111,2459.5C 3118.12,2509.16 3102.29,2549.66 3063.5,2581C 3060.33,2582.75 3057.33,2584.75 3054.5,2587C 3037.06,2594.88 3020.06,2603.55 3003.5,2613C 2994.92,2618.91 2986.92,2625.58 2979.5,2633C 3013.43,2628.58 3047.43,2624.25 3081.5,2620C 3087.92,2619.13 3094.25,2619.46 3100.5,2621C 3110.37,2628.22 3117.2,2637.72 3121,2649.5C 3131.96,2676.23 3135.62,2703.9 3132,2732.5C 3131.27,2738.15 3128.43,2742.31 3123.5,2745C 3106.43,2749.62 3089.1,2752.96 3071.5,2755C 2995.14,2765.54 2918.47,2772.7 2841.5,2776.5C 2834.11,2776.59 2826.77,2776.09 2819.5,2775C 2815.7,2772.91 2813.2,2769.75 2812,2765.5C 2808.05,2753.48 2805.72,2741.15 2805,2728.5C 2796.64,2680.29 2804.98,2635.29 2830,2593.5C 2839.72,2579.45 2851.22,2566.95 2864.5,2556C 2893.01,2532.85 2923.67,2512.85 2956.5,2496C 2968.21,2485.33 2966.54,2477 2951.5,2471C 2939.69,2467.73 2928.86,2469.56 2919,2476.5C 2917.56,2478.27 2916.56,2480.27 2916,2482.5C 2918.12,2495.76 2913.29,2505.26 2901.5,2511C 2895.67,2513.1 2889.67,2514.43 2883.5,2515C 2866.47,2515.86 2849.47,2515.52 2832.5,2514C 2815.1,2513.05 2800.27,2506.55 2788,2494.5C 2782.7,2483.51 2782.03,2472.18 2786,2460.5C 2801.98,2399.85 2839.82,2360.02 2899.5,2341C 2912.14,2337.64 2924.81,2335.14 2937.5,2333.5 Z"/></g>
<g><path style="opacity:1" fill="#61aaad" d="M 2945.5,2336.5 C 3022.36,2337.17 3074.86,2373.17 3103,2444.5C 3117.59,2494.65 3105.75,2537.48 3067.5,2573C 3055.32,2582.42 3041.99,2589.76 3027.5,2595C 3005.05,2604.78 2986.05,2619.12 2970.5,2638C 3005.87,2634.09 3041.2,2629.42 3076.5,2624C 3084.27,2623.07 3091.94,2623.4 3099.5,2625C 3104.71,2628.91 3108.88,2633.75 3112,2639.5C 3126.46,2667.81 3132.12,2697.81 3129,2729.5C 3128.24,2734.19 3126.08,2738.02 3122.5,2741C 3104.12,2746.04 3085.45,2749.71 3066.5,2752C 2990.65,2762.3 2914.48,2769.47 2838,2773.5C 2832.47,2773.35 2826.97,2772.85 2821.5,2772C 2819.29,2770.13 2817.46,2767.96 2816,2765.5C 2813.75,2759.67 2812.09,2753.67 2811,2747.5C 2807.5,2723.29 2805.83,2698.96 2806,2674.5C 2810.98,2627.03 2831.81,2588.2 2868.5,2558C 2897.12,2535.01 2927.78,2515.01 2960.5,2498C 2971.02,2489.11 2971.02,2480.11 2960.5,2471C 2945.21,2463.01 2930.55,2463.84 2916.5,2473.5C 2915.33,2475.17 2914.17,2476.83 2913,2478.5C 2912,2484.46 2911.34,2490.46 2911,2496.5C 2908.44,2502.06 2904.27,2505.89 2898.5,2508C 2868.61,2514.55 2838.94,2513.55 2809.5,2505C 2799.76,2501.26 2792.59,2494.76 2788,2485.5C 2791.64,2430.4 2817.14,2388.57 2864.5,2360C 2889.96,2346.68 2916.96,2338.85 2945.5,2336.5 Z"/></g>
<g><path style="opacity:0.913" fill="#6d5946" d="M 2584.5,2403.5 C 2636.53,2401.61 2679.37,2420.28 2713,2459.5C 2742.38,2496.64 2759.38,2538.97 2764,2586.5C 2769.84,2632.08 2765.84,2676.75 2752,2720.5C 2738.49,2763.35 2710.65,2792.51 2668.5,2808C 2629.4,2821.8 2589.4,2825.47 2548.5,2819C 2510.72,2811.19 2480.22,2792.02 2457,2761.5C 2431.8,2726.59 2416.8,2687.59 2412,2644.5C 2403.56,2587.94 2410.89,2533.61 2434,2481.5C 2449.22,2453.46 2471.72,2433.63 2501.5,2422C 2528.35,2411.53 2556.02,2405.37 2584.5,2403.5 Z M 2580.5,2554.5 C 2605.68,2552.34 2622.85,2563.01 2632,2586.5C 2640.69,2610.66 2639.03,2633.99 2627,2656.5C 2615.81,2667.4 2602.31,2672.74 2586.5,2672.5C 2562,2670.5 2546.83,2657.5 2541,2633.5C 2536.85,2617.79 2536.85,2602.12 2541,2586.5C 2543.67,2576.65 2549.17,2568.81 2557.5,2563C 2564.88,2559.04 2572.55,2556.21 2580.5,2554.5 Z"/></g>
<g><path style="opacity:1" fill="#61aaad" d="M 2576.5,2407.5 C 2627.24,2403.86 2670.07,2420.2 2705,2456.5C 2729.84,2485.18 2746.51,2518.18 2755,2555.5C 2764.16,2599.71 2764.82,2644.04 2757,2688.5C 2751.74,2714.34 2742.08,2738.34 2728,2760.5C 2714,2778.5 2696.5,2792 2675.5,2801C 2634.18,2817.81 2591.52,2822.48 2547.5,2815C 2509.38,2805.86 2478.88,2785.36 2456,2753.5C 2436.69,2724.93 2424.03,2693.6 2418,2659.5C 2407.19,2603.38 2411.85,2548.71 2432,2495.5C 2445.39,2463.78 2467.89,2440.94 2499.5,2427C 2524.48,2417.24 2550.15,2410.74 2576.5,2407.5 Z M 2580.5,2554.5 C 2572.55,2556.21 2564.88,2559.04 2557.5,2563C 2549.17,2568.81 2543.67,2576.65 2541,2586.5C 2536.85,2602.12 2536.85,2617.79 2541,2633.5C 2546.83,2657.5 2562,2670.5 2586.5,2672.5C 2602.31,2672.74 2615.81,2667.4 2627,2656.5C 2639.03,2633.99 2640.69,2610.66 2632,2586.5C 2622.85,2563.01 2605.68,2552.34 2580.5,2554.5 Z"/></g>
<g><path style="opacity:0.918" fill="#6c5946" d="M 3313.5,2457.5 C 3317.82,2457.1 3320.32,2459.1 3321,2463.5C 3323.88,2475.39 3326.05,2487.39 3327.5,2499.5C 3327.55,2505.48 3324.55,2508.32 3318.5,2508C 3306.89,2509.81 3295.22,2510.48 3283.5,2510C 3280.13,2509.13 3278.46,2506.96 3278.5,2503.5C 3279.36,2500.08 3280.53,2496.74 3282,2493.5C 3290.59,2479.75 3301.09,2467.75 3313.5,2457.5 Z M 3314.5,2461.5 C 3300.45,2472.95 3289.78,2486.95 3282.5,2503.5C 3282.82,2504.65 3283.48,2505.48 3284.5,2506C 3297.62,2506.92 3310.62,2506.09 3323.5,2503.5C 3323.06,2490.22 3320.9,2477.22 3317,2464.5C 3316.62,2463.06 3315.79,2462.06 3314.5,2461.5 Z"/></g>
<g><path style="opacity:0.914" fill="#6d5946" d="M 2220.5,2475.5 C 2295.74,2476.18 2343.91,2512.52 2365,2584.5C 2371.77,2633.12 2354.6,2670.62 2313.5,2697C 2290.74,2705.54 2270.4,2717.87 2252.5,2734C 2284.28,2730.08 2316.11,2726.25 2348,2722.5C 2353.52,2722.59 2358.18,2724.59 2362,2728.5C 2374.66,2746.8 2381.99,2767.13 2384,2789.5C 2384.88,2800.55 2384.55,2811.55 2383,2822.5C 2381.47,2828.03 2377.97,2831.53 2372.5,2833C 2352.33,2837.31 2332,2840.64 2311.5,2843C 2250.88,2850.84 2190.04,2856.34 2129,2859.5C 2123.81,2859.29 2118.64,2858.79 2113.5,2858C 2109.7,2855.91 2107.2,2852.75 2106,2848.5C 2104.69,2844.58 2103.69,2840.58 2103,2836.5C 2100.23,2816.92 2098.4,2797.25 2097.5,2777.5C 2100.19,2734.96 2117.19,2699.46 2148.5,2671C 2173.67,2649.86 2201,2631.86 2230.5,2617C 2241.55,2608.87 2240.88,2601.87 2228.5,2596C 2217.77,2591.95 2207.93,2593.45 2199,2600.5C 2196.91,2605.58 2195.91,2610.91 2196,2616.5C 2194.26,2623.24 2190.1,2627.74 2183.5,2630C 2163.32,2634.9 2142.99,2635.56 2122.5,2632C 2108.06,2631.31 2095.89,2625.81 2086,2615.5C 2083.29,2611.09 2081.79,2606.26 2081.5,2601C 2092.73,2534.77 2131.07,2494.1 2196.5,2479C 2204.6,2477.5 2212.6,2476.33 2220.5,2475.5 Z"/></g>
<g><path style="opacity:1" fill="#61aaad" d="M 2214.5,2479.5 C 2279.55,2476.27 2326.05,2503.93 2354,2562.5C 2372.36,2610.23 2362.52,2651.07 2324.5,2685C 2312.69,2693.24 2300.02,2699.91 2286.5,2705C 2269.53,2712.97 2255.2,2724.3 2243.5,2739C 2274.86,2735.6 2306.19,2731.6 2337.5,2727C 2346.75,2724.61 2354.58,2726.78 2361,2733.5C 2377.76,2760.65 2383.76,2789.98 2379,2821.5C 2378.46,2823.87 2377.3,2825.87 2375.5,2827.5C 2370.58,2829.19 2365.58,2830.69 2360.5,2832C 2289.9,2843.03 2218.9,2850.7 2147.5,2855C 2137.17,2855.67 2126.83,2855.67 2116.5,2855C 2114.71,2854.22 2113.21,2853.05 2112,2851.5C 2095.33,2803.62 2097.99,2756.95 2120,2711.5C 2128.97,2696.52 2140.14,2683.36 2153.5,2672C 2178.62,2651.6 2205.62,2633.93 2234.5,2619C 2245.36,2609.08 2244.36,2600.41 2231.5,2593C 2221.53,2589.7 2211.53,2589.7 2201.5,2593C 2193.7,2598.38 2190.53,2605.88 2192,2615.5C 2190.19,2621.31 2186.36,2625.14 2180.5,2627C 2154.94,2632.28 2129.61,2631.28 2104.5,2624C 2097.87,2621.37 2092.37,2617.2 2088,2611.5C 2084.88,2602.9 2084.88,2594.23 2088,2585.5C 2098.9,2542.6 2124.4,2511.77 2164.5,2493C 2180.77,2486.6 2197.44,2482.1 2214.5,2479.5 Z"/></g>
<g><path style="opacity:0.92" fill="#6f5945" d="M 3727.5,2494.5 C 3734.5,2494.5 3741.5,2494.5 3748.5,2494.5C 3751.07,2511.85 3753.74,2529.19 3756.5,2546.5C 3755.33,2546.83 3754.17,2547.17 3753,2547.5C 3697,2540.55 3641.16,2533.05 3585.5,2525C 3588.2,2516.01 3590.2,2506.84 3591.5,2497.5C 3637,2496.88 3682.34,2495.88 3727.5,2494.5 Z"/></g>
<g><path style="opacity:1" fill="#f6be58" d="M 3701.5,2498.5 C 3716.17,2498.5 3730.83,2498.5 3745.5,2498.5C 3748.04,2513.44 3749.87,2528.44 3751,2543.5C 3697.95,2536.14 3644.78,2529.31 3591.5,2523C 3591.04,2522.59 3590.71,2522.09 3590.5,2521.5C 3591.77,2516.2 3592.93,2510.86 3594,2505.5C 3594.2,2503.6 3595.03,2502.1 3596.5,2501C 3631.67,2500.51 3666.67,2499.68 3701.5,2498.5 Z"/></g>
<g><path style="opacity:0.917" fill="#6d5947" d="M 2584.5,2550.5 C 2608.8,2550.07 2625.63,2561.07 2635,2583.5C 2644.42,2608.78 2643.09,2633.45 2631,2657.5C 2622.93,2667.54 2612.43,2673.37 2599.5,2675C 2564.45,2679.29 2543.28,2664.12 2536,2629.5C 2533.14,2612.55 2534.14,2595.88 2539,2579.5C 2544.88,2565.3 2555.38,2556.47 2570.5,2553C 2575.34,2552.32 2580,2551.49 2584.5,2550.5 Z M 2580.5,2554.5 C 2572.55,2556.21 2564.88,2559.04 2557.5,2563C 2549.17,2568.81 2543.67,2576.65 2541,2586.5C 2536.85,2602.12 2536.85,2617.79 2541,2633.5C 2546.83,2657.5 2562,2670.5 2586.5,2672.5C 2602.31,2672.74 2615.81,2667.4 2627,2656.5C 2639.03,2633.99 2640.69,2610.66 2632,2586.5C 2622.85,2563.01 2605.68,2552.34 2580.5,2554.5 Z"/></g>
<g><path style="opacity:0.918" fill="#6d5a48" d="M 1985.5,2568.5 C 1986.68,2568.28 1987.68,2568.61 1988.5,2569.5C 1974.03,2608.91 1959.36,2648.24 1944.5,2687.5C 1646.55,2729.11 1348.55,2770.45 1050.5,2811.5C 1049.23,2811.43 1048.06,2811.1 1047,2810.5C 1034.21,2794.04 1021.05,2777.88 1007.5,2762C 1333.54,2697.43 1659.54,2632.93 1985.5,2568.5 Z"/></g>
<g><path style="opacity:1" fill="#61aaad" d="M 1978.5,2573.5 C 1979.98,2573.24 1981.31,2573.57 1982.5,2574.5C 1969.33,2610.17 1956.17,2645.83 1943,2681.5C 1942.5,2683.33 1941.33,2684.5 1939.5,2685C 1643.25,2725.37 1347.09,2766.2 1051,2807.5C 1038.53,2793.35 1026.36,2778.85 1014.5,2764C 1328.37,2701.69 1642.37,2640.03 1956.5,2579C 1964.15,2577.84 1971.48,2576.01 1978.5,2573.5 Z"/></g>
<g><path style="opacity:0.912" fill="#6f5945" d="M 3585.5,2577.5 C 3663.29,2599.36 3740.95,2621.7 3818.5,2644.5C 3818.83,2645.17 3819.17,2645.83 3819.5,2646.5C 3816.6,2671.58 3813.27,2696.58 3809.5,2721.5C 3730.17,2683.5 3650.83,2645.5 3571.5,2607.5C 3570.42,2606.64 3570.25,2605.64 3571,2604.5C 3575.85,2595.47 3580.68,2586.47 3585.5,2577.5 Z"/></g>
<g><path style="opacity:1" fill="#f6bf58" d="M 3587.5,2581.5 C 3663.58,2603.37 3739.58,2625.54 3815.5,2648C 3812.42,2670.75 3809.59,2693.59 3807,2716.5C 3729.97,2679.07 3652.81,2641.74 3575.5,2604.5C 3579.77,2596.96 3583.77,2589.3 3587.5,2581.5 Z"/></g>
<g><path style="opacity:0.905" fill="#6f5945" d="M 3552.5,2664.5 C 3555.14,2664.95 3557.47,2666.12 3559.5,2668C 3624.06,2720.86 3688.89,2773.36 3754,2825.5C 3754.67,2826.5 3754.67,2827.5 3754,2828.5C 3734.98,2848.19 3715.98,2867.85 3697,2887.5C 3642.36,2820.93 3587.69,2754.26 3533,2687.5C 3531.6,2685.85 3531.43,2684.19 3532.5,2682.5C 3539.51,2676.82 3546.18,2670.82 3552.5,2664.5 Z"/></g>
<g><path style="opacity:1" fill="#f7bf58" d="M 3553.5,2668.5 C 3618.15,2720.81 3682.81,2773.14 3747.5,2825.5C 3748.58,2826.36 3748.75,2827.36 3748,2828.5C 3730.63,2846.2 3713.63,2864.2 3697,2882.5C 3644.33,2817.83 3591.67,2753.17 3539,2688.5C 3537.71,2686.95 3537.04,2685.28 3537,2683.5C 3542.7,2678.63 3548.2,2673.63 3553.5,2668.5 Z"/></g>
<g><path style="opacity:0.859" fill="#6e5745" d="M 3222.5,2699.5 C 3224.07,2699.94 3225.24,2700.94 3226,2702.5C 3238.03,2719.7 3249.86,2737.03 3261.5,2754.5C 3284.16,2755.33 3306.83,2755.83 3329.5,2756C 3315.64,2773.69 3301.98,2791.52 3288.5,2809.5C 3295.3,2830.56 3302.3,2851.56 3309.5,2872.5C 3309.17,2872.83 3308.83,2873.17 3308.5,2873.5C 3287.63,2866.27 3266.8,2858.93 3246,2851.5C 3227.7,2864.29 3209.54,2877.29 3191.5,2890.5C 3191.17,2886.17 3190.83,2881.83 3190.5,2877.5C 3190.96,2859.6 3191.63,2841.76 3192.5,2824C 3174.17,2810.5 3155.83,2797 3137.5,2783.5C 3158.75,2776.64 3180.09,2769.97 3201.5,2763.5C 3208.9,2742.3 3215.9,2720.97 3222.5,2699.5 Z"/></g>
<g><path style="opacity:1" fill="#c34a48" d="M 3223.5,2704.5 C 3235.97,2721.82 3248.3,2739.32 3260.5,2757C 3281.83,2757.33 3303.17,2757.67 3324.5,2758C 3311.22,2774.77 3298.55,2791.94 3286.5,2809.5C 3292.84,2829.52 3299.17,2849.52 3305.5,2869.5C 3285.24,2862.8 3265.07,2855.8 3245,2848.5C 3227.67,2861.17 3210.33,2873.83 3193,2886.5C 3193.05,2864.8 3193.38,2843.13 3194,2821.5C 3176.74,2809.12 3159.58,2796.62 3142.5,2784C 3162.79,2777.68 3183.13,2771.51 3203.5,2765.5C 3210.57,2745.28 3217.24,2724.95 3223.5,2704.5 Z"/></g>
<g><path style="opacity:0.904" fill="#6f5945" d="M 3505.5,2762.5 C 3506.82,2762.33 3507.99,2762.66 3509,2763.5C 3548.64,2817.97 3588.47,2872.31 3628.5,2926.5C 3609.55,2939.98 3590.22,2952.98 3570.5,2965.5C 3541.73,2904.28 3513.73,2842.62 3486.5,2780.5C 3492.85,2774.48 3499.19,2768.48 3505.5,2762.5 Z"/></g>
<g><path style="opacity:1" fill="#f6bf58" d="M 3505.5,2768.5 C 3507.37,2768.86 3508.87,2769.86 3510,2771.5C 3547.31,2822.97 3584.81,2874.31 3622.5,2925.5C 3606.55,2937.15 3590.22,2948.31 3573.5,2959C 3570.94,2959.45 3569.44,2958.28 3569,2955.5C 3542.89,2897.62 3517.06,2839.62 3491.5,2781.5C 3496.19,2777.14 3500.85,2772.81 3505.5,2768.5 Z"/></g>
</svg>
