<?xml version="1.0" encoding="UTF-8"?>
<!DOCTYPE svg PUBLIC "-//W3C//DTD SVG 1.1//EN" "http://www.w3.org/Graphics/SVG/1.1/DTD/svg11.dtd">
<svg xmlns="http://www.w3.org/2000/svg" version="1.1" width="4500px" height="4500px" style="shape-rendering:geometricPrecision; text-rendering:geometricPrecision; image-rendering:optimizeQuality; fill-rule:evenodd; clip-rule:evenodd" xmlns:xlink="http://www.w3.org/1999/xlink">
<g><path style="opacity:0.969" fill="#6f5a47" d="M 2445.5,-0.5 C 2686.17,-0.5 2926.83,-0.5 3167.5,-0.5C 3171.27,194.005 3166.77,388.339 3154,582.5C 3129.54,982.736 3076.2,1379.07 2994,1771.5C 2932.7,2063.71 2851.03,2350.04 2749,2630.5C 2664.73,2861.31 2562.73,3083.98 2443,3298.5C 2409.47,3357.75 2374.3,3415.91 2337.5,3473C 2366,3493.17 2389.33,3518.17 2407.5,3548C 2439.94,3547.07 2471.27,3552.41 2501.5,3564C 2555.73,3588.62 2582.57,3630.78 2582,3690.5C 2580.28,3714.43 2571.11,3734.93 2554.5,3752C 2548.67,3756.75 2542.34,3760.75 2535.5,3764C 2525.3,3779.53 2511.97,3791.53 2495.5,3800C 2487.24,3812.59 2476.24,3821.93 2462.5,3828C 2447.35,3832.7 2433.52,3830.2 2421,3820.5C 2414.87,3823.26 2408.71,3825.93 2402.5,3828.5C 2401.53,3830.4 2401.2,3832.4 2401.5,3834.5C 2408.06,3834.68 2414.39,3835.85 2420.5,3838C 2422.1,3841.27 2422.93,3844.77 2423,3848.5C 2423.5,3849.67 2424.33,3850.5 2425.5,3851C 2435.17,3850.72 2444.84,3850.39 2454.5,3850C 2455.98,3851.3 2456.65,3852.97 2456.5,3855C 2456.05,3858.98 2455.05,3862.81 2453.5,3866.5C 2491.4,3874.68 2509.24,3898.02 2507,3936.5C 2504.75,3941.71 2500.92,3945.21 2495.5,3947C 2501.12,3953.69 2500.79,3960.03 2494.5,3966C 2498.67,3970.83 2502.83,3975.67 2507,3980.5C 2511.54,3998.6 2505.37,4011.76 2488.5,4020C 2479.81,4023.39 2470.81,4025.39 2461.5,4026C 2442.12,4027.75 2422.78,4028.42 2403.5,4028C 2433.51,4048.36 2444.01,4076.2 2435,4111.5C 2430.82,4122.85 2423.32,4131.18 2412.5,4136.5C 2406.41,4145.26 2398.74,4152.26 2389.5,4157.5C 2384.08,4165.1 2377.08,4170.6 2368.5,4174C 2364.17,4174.67 2359.83,4174.67 2355.5,4174C 2352.39,4172.36 2349.23,4170.86 2346,4169.5C 2317,4183.75 2286.84,4187.25 2255.5,4180C 2248.34,4177.5 2241.5,4174.33 2235,4170.5C 2207.39,4177.69 2180.89,4174.86 2155.5,4162C 2150.04,4158.21 2144.88,4154.05 2140,4149.5C 2124.67,4158.03 2108.5,4160.19 2091.5,4156C 2088.59,4154.63 2085.75,4153.13 2083,4151.5C 2054.04,4170.14 2023.54,4173.3 1991.5,4161C 1985.96,4158.07 1980.63,4154.9 1975.5,4151.5C 1965.27,4154.64 1954.94,4155.14 1944.5,4153C 1935.57,4150.4 1929.57,4144.74 1926.5,4136C 1920.55,4136.3 1914.55,4136.47 1908.5,4136.5C 1909.96,4142.91 1909.79,4149.24 1908,4155.5C 1903.78,4159.38 1898.94,4160.38 1893.5,4158.5C 1885.07,4160.43 1879.23,4165.43 1876,4173.5C 1873.25,4183.85 1869.58,4193.85 1865,4203.5C 1854.31,4216.42 1840.48,4222.76 1823.5,4222.5C 1810.92,4222.15 1798.92,4219.32 1787.5,4214C 1777.71,4209.61 1768.04,4204.94 1758.5,4200C 1750.15,4196.43 1744.65,4198.93 1742,4207.5C 1741.78,4218.2 1741.11,4228.87 1740,4239.5C 1736.94,4248.8 1730.44,4253.97 1720.5,4255C 1717.9,4255.88 1715.73,4257.38 1714,4259.5C 1711.87,4270.12 1709.87,4280.79 1708,4291.5C 1695.12,4315.37 1674.95,4327.04 1647.5,4326.5C 1619.14,4325.88 1593.64,4317.21 1571,4300.5C 1467.86,4375.02 1359.36,4441.35 1245.5,4499.5C 830.167,4499.5 414.833,4499.5 -0.5,4499.5C -0.5,4399.83 -0.5,4300.17 -0.5,4200.5C 145.871,4094.36 284.204,3977.86 414.5,3851C 580.804,3687.43 734.47,3513.77 875.5,3330C 870.692,3326.69 866.025,3323.19 861.5,3319.5C 871.047,3316.04 880.714,3312.87 890.5,3310C 984.994,3186.83 1074.83,3060.33 1160,2930.5C 1160.46,2929.26 1159.96,2928.42 1158.5,2928C 1132.27,2920.22 1108.27,2908.22 1086.5,2892C 1067.2,2876.69 1055.37,2856.85 1051,2832.5C 1046.23,2799.63 1045.23,2766.63 1048,2733.5C 1051.87,2688.13 1059.03,2643.3 1069.5,2599C 1059.57,2593.12 1049.57,2587.12 1039.5,2581C 1025.82,2571.65 1016.32,2559.15 1011,2543.5C 1006.31,2522.68 1014.47,2511.18 1035.5,2509C 1035.96,2508.59 1036.29,2508.09 1036.5,2507.5C 1026.91,2483.05 1021.08,2457.71 1019,2431.5C 1018.54,2413.17 1018.04,2394.83 1017.5,2376.5C 1016.9,2354.45 1019.4,2332.78 1025,2311.5C 1032.6,2287.95 1048.76,2275.95 1073.5,2275.5C 1088.97,2275.62 1103.3,2279.62 1116.5,2287.5C 1139.62,2279.65 1162.62,2279.82 1185.5,2288C 1189.77,2290.38 1193.93,2292.88 1198,2295.5C 1211.71,2289.77 1225.88,2287.93 1240.5,2290C 1255.97,2294.81 1266.14,2304.97 1271,2320.5C 1277.25,2341.35 1277.92,2362.35 1273,2383.5C 1271.56,2389.66 1269.06,2395.32 1265.5,2400.5C 1272.3,2403.38 1278.96,2406.54 1285.5,2410C 1291.35,2416.88 1294.02,2424.88 1293.5,2434C 1291.94,2453.34 1287.11,2471.84 1279,2489.5C 1273.94,2500.62 1268.61,2511.62 1263,2522.5C 1258.64,2526.76 1253.48,2529.6 1247.5,2531C 1238.55,2532.18 1229.55,2532.85 1220.5,2533C 1231.61,2535.58 1241.77,2540.08 1251,2546.5C 1258.98,2560.1 1257.98,2573.1 1248,2585.5C 1234.71,2599.45 1219.21,2610.28 1201.5,2618C 1193.32,2621.17 1185.15,2624.34 1177,2627.5C 1168.79,2652.2 1163.79,2677.54 1162,2703.5C 1159.75,2730.18 1166.08,2754.51 1181,2776.5C 1195.88,2793.69 1214.71,2803.02 1237.5,2804.5C 1241.43,2784.98 1248.93,2766.98 1260,2750.5C 1267.59,2741.91 1276.59,2735.24 1287,2730.5C 1347.5,2631.48 1405.34,2532.32 1460.5,2433C 1454.28,2430.06 1448.28,2426.89 1442.5,2423.5C 1449.43,2409.97 1457.09,2396.97 1465.5,2384.5C 1470.35,2387.76 1475.01,2391.26 1479.5,2395C 1480.17,2395.67 1480.83,2395.67 1481.5,2395C 1488.21,2382.42 1495.04,2369.92 1502,2357.5C 1502.67,2356.5 1502.67,2355.5 1502,2354.5C 1490.83,2345.33 1479.67,2336.17 1468.5,2327C 1467.48,2325.95 1467.32,2324.78 1468,2323.5C 1481.37,2309.8 1494.37,2295.8 1507,2281.5C 1514.39,2290.05 1521.55,2298.71 1528.5,2307.5C 1606.58,2163.01 1680.75,2016.35 1751,1867.5C 2008.61,1319.74 2223.94,755.403 2397,174.5C 2414.26,116.451 2430.43,58.1174 2445.5,-0.5 Z"/></g>
<g><path style="opacity:1" fill="#4d535f" d="M 2449.5,1.5 C 2687.5,1.5 2925.5,1.5 3163.5,1.5C 3166.69,152.224 3164.52,302.891 3157,453.5C 3137.16,877.281 3085.5,1296.95 3002,1712.5C 2943.39,2001.27 2865.73,2284.6 2769,2562.5C 2688.63,2791.31 2590.96,3013.64 2476,3229.5C 2431.52,3311.14 2384.52,3391.14 2335,3469.5C 2333.95,3470.52 2332.78,3470.68 2331.5,3470C 2305.26,3453.81 2276.76,3444.64 2246,3442.5C 2229.95,3401.31 2218.79,3358.97 2212.5,3315.5C 2169.22,3340.1 2122.56,3353.1 2072.5,3354.5C 2072.67,3349.82 2072.5,3345.15 2072,3340.5C 2070.86,3338.39 2069.36,3336.56 2067.5,3335C 2081.28,3322.32 2087.95,3306.48 2087.5,3287.5C 2087.26,3263.61 2079.43,3242.61 2064,3224.5C 2052.43,3210.93 2039.6,3198.76 2025.5,3188C 2027.33,3185.5 2029.17,3183 2031,3180.5C 2031.95,3174.47 2032.95,3168.47 2034,3162.5C 2036.5,3160 2039,3157.5 2041.5,3155C 2047.13,3152.52 2052.79,3150.02 2058.5,3147.5C 2079.43,3162.4 2100.1,3161.9 2120.5,3146C 2127.24,3139.93 2133.24,3133.26 2138.5,3126C 2156.28,3116.28 2170.95,3103.11 2182.5,3086.5C 2190.29,3083.19 2197.12,3078.53 2203,3072.5C 2247.79,3075.75 2278.95,3056.58 2296.5,3015C 2334.88,3015.55 2372.55,3010.89 2409.5,3001C 2435.55,2993.73 2457.72,2980.23 2476,2960.5C 2485.03,2948.81 2491.36,2935.81 2495,2921.5C 2501.56,2895.92 2505.89,2869.92 2508,2843.5C 2508.86,2824.84 2509.36,2806.18 2509.5,2787.5C 2509.03,2756.45 2507.86,2725.45 2506,2694.5C 2522.98,2688.93 2538.81,2681.09 2553.5,2671C 2569.4,2658.74 2575.23,2642.9 2571,2623.5C 2565.21,2617.02 2558.04,2612.68 2549.5,2610.5C 2566.79,2580.45 2577.63,2548.12 2582,2513.5C 2583.45,2502.14 2585.11,2490.8 2587,2479.5C 2589.71,2458.53 2590.04,2437.53 2588,2416.5C 2584.24,2395.41 2572.07,2381.91 2551.5,2376C 2534.22,2372.92 2517.39,2374.42 2501,2380.5C 2485.69,2374.17 2469.69,2370.5 2453,2369.5C 2440.9,2369.14 2429.73,2372.14 2419.5,2378.5C 2374.47,2354.76 2346.3,2367.76 2335,2417.5C 2330.86,2436.94 2332.03,2455.94 2338.5,2474.5C 2330.33,2474.97 2322.67,2477.14 2315.5,2481C 2308.37,2489.1 2305.04,2498.6 2305.5,2509.5C 2307.43,2538.87 2313.93,2567.2 2325,2594.5C 2329.88,2600.38 2336.05,2604.21 2343.5,2606C 2351.93,2607.39 2360.26,2608.72 2368.5,2610C 2359.44,2611.29 2350.44,2612.96 2341.5,2615C 2327.99,2621.19 2322.82,2631.69 2326,2646.5C 2330.39,2659.44 2337.89,2670.28 2348.5,2679C 2362.65,2690.58 2377.98,2700.41 2394.5,2708.5C 2403.43,2744.48 2403.59,2780.48 2395,2816.5C 2382.55,2857.3 2355.05,2877.47 2312.5,2877C 2310.52,2862.93 2307.36,2849.09 2303,2835.5C 2293.94,2810.11 2276.11,2795.27 2249.5,2791C 2239.17,2790.33 2228.83,2790.33 2218.5,2791C 2207.66,2827.84 2199.49,2865.34 2194,2903.5C 2170.13,2880.65 2141.97,2865.82 2109.5,2859C 2087.65,2855.47 2065.65,2853.47 2043.5,2853C 2024.23,2820.73 1999.06,2793.89 1968,2772.5C 1968.02,2739.48 1969.02,2706.48 1971,2673.5C 1973.45,2617.45 1976.62,2561.45 1980.5,2505.5C 2011.91,2514.59 2043.91,2520.43 2076.5,2523C 2071.49,2518.47 2067.33,2513.31 2064,2507.5C 2056.85,2493.33 2050.52,2478.99 2045,2464.5C 2021.27,2392.26 2001.27,2318.93 1985,2244.5C 1956.25,2113.73 1929.91,1982.4 1906,1850.5C 1904.13,1870.51 1900.47,1890.17 1895,1909.5C 1875.49,1972.84 1851.82,2034.51 1824,2094.5C 1757.74,2237.85 1685.58,2378.01 1607.5,2515C 1621.77,2513.88 1635.77,2511.21 1649.5,2507C 1670.69,2501.21 1691.69,2494.71 1712.5,2487.5C 1708.68,2588.64 1700.51,2689.31 1688,2789.5C 1671.59,2787.04 1655.09,2786.88 1638.5,2789C 1626.84,2791.99 1615.68,2796.16 1605,2801.5C 1597.14,2800.13 1589.31,2798.63 1581.5,2797C 1571.5,2796.33 1561.5,2796.33 1551.5,2797C 1538.89,2800.1 1531.23,2807.94 1528.5,2820.5C 1517.43,2824.08 1507.76,2829.92 1499.5,2838C 1492.48,2839.45 1485.65,2841.29 1479,2843.5C 1428.03,2831.74 1384.7,2844.74 1349,2882.5C 1349.9,2850.5 1349.56,2818.5 1348,2786.5C 1346.16,2768.43 1343.83,2750.43 1341,2732.5C 1325.52,2728.05 1309.85,2727.38 1294,2730.5C 1293.5,2730.17 1293,2729.83 1292.5,2729.5C 1338.17,2654.83 1382.84,2579.49 1426.5,2503.5C 1427.51,2512.23 1428.84,2520.9 1430.5,2529.5C 1473.16,2531.24 1515.82,2532.4 1558.5,2533C 1560.69,2527.74 1562.02,2522.24 1562.5,2516.5C 1520.19,2507.81 1477.85,2498.98 1435.5,2490C 1435.04,2489.59 1434.71,2489.09 1434.5,2488.5C 1444.34,2470.14 1454.68,2452.14 1465.5,2434.5C 1499.08,2450.46 1532.74,2466.12 1566.5,2481.5C 1570.1,2477.4 1573.1,2472.9 1575.5,2468C 1545.63,2444.81 1515.47,2421.98 1485,2399.5C 1491.42,2385.34 1498.92,2371.67 1507.5,2358.5C 1537.85,2384.02 1568.35,2409.36 1599,2434.5C 1603.25,2429.01 1607.25,2423.34 1611,2417.5C 1611.67,2416.17 1611.67,2414.83 1611,2413.5C 1584.5,2379.83 1558,2346.17 1531.5,2312.5C 1680.49,2032.57 1816.65,1747.57 1940,1457.5C 2104.83,1067.67 2250.17,668.673 2376,260.5C 2390.55,210.756 2405.21,161.089 2420,111.5C 2430.15,74.9401 2439.98,38.2734 2449.5,1.5 Z"/></g>
<g><path style="opacity:1" fill="#6b5c4a" d="M 2269.5,1565.5 C 2269.94,1588 2270.1,1610.66 2270,1633.5C 2287.57,1646.7 2305.4,1659.53 2323.5,1672C 2301.94,1679.13 2280.27,1685.97 2258.5,1692.5C 2251.69,1713.58 2244.69,1734.58 2237.5,1755.5C 2225.03,1737.2 2212.36,1719.03 2199.5,1701C 2177.16,1700.83 2154.83,1700.33 2132.5,1699.5C 2145.18,1682.14 2158.35,1665.14 2172,1648.5C 2167.11,1627.49 2160.78,1606.83 2153,1586.5C 2152.22,1585.06 2152.39,1583.72 2153.5,1582.5C 2173.94,1590.43 2194.61,1597.76 2215.5,1604.5C 2233.88,1591.98 2251.88,1578.98 2269.5,1565.5 Z"/></g>
<g><path style="opacity:1" fill="#47e9d9" d="M 2267.5,1569.5 C 2267.85,1591 2268.01,1612.66 2268,1634.5C 2284.81,1646.48 2301.31,1658.81 2317.5,1671.5C 2298.03,1678.1 2278.36,1684.27 2258.5,1690C 2256.29,1693.95 2254.46,1698.12 2253,1702.5C 2248.27,1719.03 2242.94,1735.36 2237,1751.5C 2224.97,1734.3 2213.14,1716.97 2201.5,1699.5C 2179.84,1698.67 2158.17,1698.17 2136.5,1698C 2149,1681.5 2161.5,1665 2174,1648.5C 2174.67,1646.5 2174.67,1644.5 2174,1642.5C 2167.77,1623.48 2161.77,1604.48 2156,1585.5C 2175.49,1593.39 2195.33,1600.39 2215.5,1606.5C 2233.41,1594.92 2250.74,1582.59 2267.5,1569.5 Z"/></g>
<g><path style="opacity:1" fill="#f5a93a" d="M 1905.5,1874.5 C 1907.24,1877.75 1908.41,1881.41 1909,1885.5C 1927.49,1986.14 1947.33,2086.47 1968.5,2186.5C 1901.55,2198.57 1834.55,2210.07 1767.5,2221C 1803.69,2149.15 1836.86,2076.31 1867,2002.5C 1882.11,1965.16 1894.45,1926.83 1904,1887.5C 1905.08,1883.23 1905.58,1878.9 1905.5,1874.5 Z"/></g>
<g><path style="opacity:1" fill="#f7bf58" d="M 1965.5,2190.5 C 1967.14,2190.29 1968.64,2190.62 1970,2191.5C 1987.36,2273.26 2007.69,2354.26 2031,2434.5C 2038.77,2459.69 2048.44,2484.02 2060,2507.5C 2061.97,2510.97 2064.14,2514.3 2066.5,2517.5C 2065.5,2517.83 2064.5,2518.17 2063.5,2518.5C 2024.04,2515.26 1986.38,2505.43 1950.5,2489C 1880.92,2467.41 1810.25,2463.41 1738.5,2477C 1729.9,2479.21 1721.24,2481.21 1712.5,2483C 1680.59,2494.52 1648.09,2504.02 1615,2511.5C 1615.37,2508.72 1616.37,2506.06 1618,2503.5C 1669.33,2412.35 1718.5,2319.85 1765.5,2226C 1832.19,2213.61 1898.85,2201.78 1965.5,2190.5 Z"/></g>
<g><path style="opacity:1" fill="#705b46" d="M 2211.5,2236.5 C 2211.9,2235.47 2212.56,2235.31 2213.5,2236C 2227.75,2245.64 2241.08,2256.47 2253.5,2268.5C 2273.54,2264.46 2293.54,2260.63 2313.5,2257C 2296.94,2275.1 2278.28,2290.6 2257.5,2303.5C 2255.29,2301.23 2252.62,2299.73 2249.5,2299C 2245.58,2298.8 2241.75,2298.3 2238,2297.5C 2229.64,2276.89 2220.8,2256.56 2211.5,2236.5 Z"/></g>
<g><path style="opacity:1" fill="#f4a83a" d="M 2216.5,2240.5 C 2229.34,2249.16 2241.17,2259.16 2252,2270.5C 2270.7,2265.79 2289.53,2262.46 2308.5,2260.5C 2293,2275.84 2276.16,2289.51 2258,2301.5C 2252.38,2297.32 2246.04,2295.32 2239,2295.5C 2231.22,2277.24 2223.72,2258.91 2216.5,2240.5 Z"/></g>
<g><path style="opacity:1" fill="#61aaad" d="M 1068.5,2277.5 C 1113.88,2278.59 1141.38,2301.26 1151,2345.5C 1153.42,2360.98 1151.08,2375.65 1144,2389.5C 1134.25,2402.42 1121.42,2407.25 1105.5,2404C 1076.25,2394.59 1061.92,2374.76 1062.5,2344.5C 1059.48,2358.74 1062.31,2371.74 1071,2383.5C 1084.48,2400.49 1101.98,2407.99 1123.5,2406C 1131.86,2404.14 1138.86,2399.98 1144.5,2393.5C 1152.07,2399.72 1160.4,2404.72 1169.5,2408.5C 1175.29,2435.13 1191.63,2451.29 1218.5,2457C 1224.53,2458.04 1230.53,2458.21 1236.5,2457.5C 1215.11,2456.55 1196.95,2448.55 1182,2433.5C 1173.49,2422.47 1170.49,2410.14 1173,2396.5C 1175.71,2390.73 1180.21,2387.23 1186.5,2386C 1189.5,2385.83 1192.5,2385.67 1195.5,2385.5C 1203.89,2386.18 1212.22,2387.35 1220.5,2389C 1240.43,2395.09 1260.1,2401.75 1279.5,2409C 1288.15,2414.79 1292.15,2422.96 1291.5,2433.5C 1290.54,2448.01 1287.37,2462.01 1282,2475.5C 1276.13,2490.42 1269.46,2505.09 1262,2519.5C 1256.62,2525.77 1249.78,2529.27 1241.5,2530C 1233.17,2530.67 1224.83,2530.67 1216.5,2530C 1196.29,2526.92 1176.29,2522.92 1156.5,2518C 1117.79,2510.68 1078.79,2507.18 1039.5,2507.5C 1030.41,2486.15 1024.58,2463.82 1022,2440.5C 1019.12,2405.16 1019.12,2369.82 1022,2334.5C 1023.24,2325.21 1025.57,2316.21 1029,2307.5C 1036.61,2290.04 1049.78,2280.04 1068.5,2277.5 Z"/></g>
<g><path style="opacity:1" fill="#6e5a47" d="M 2210.5,2309.5 C 2199.66,2309.06 2188.82,2308.4 2178,2307.5C 2171.44,2308.01 2164.94,2308.51 2158.5,2309C 2170.74,2298.38 2184.74,2291.21 2200.5,2287.5C 2201.81,2271.01 2204.14,2254.68 2207.5,2238.5C 2216.69,2259.41 2225.69,2280.41 2234.5,2301.5C 2230.9,2304.7 2228.9,2308.7 2228.5,2313.5C 2222.29,2312.58 2216.29,2311.25 2210.5,2309.5 Z"/></g>
<g><path style="opacity:1" fill="#f2a73a" d="M 2210.5,2309.5 C 2205.05,2308.15 2199.38,2307.32 2193.5,2307C 2183.83,2306.67 2174.17,2306.33 2164.5,2306C 2175.67,2297.75 2188,2292.25 2201.5,2289.5C 2203.06,2274.09 2205.23,2258.76 2208,2243.5C 2216.07,2262.54 2224.24,2281.54 2232.5,2300.5C 2229.47,2303.56 2227.8,2307.23 2227.5,2311.5C 2221.87,2310.51 2216.21,2309.84 2210.5,2309.5 Z"/></g>
<g><path style="opacity:1" fill="#61aaad" d="M 1148.5,2283.5 C 1164.43,2282.72 1179.1,2286.55 1192.5,2295C 1201.8,2302.76 1207.63,2312.59 1210,2324.5C 1215.23,2344.74 1215.73,2365.07 1211.5,2385.5C 1201.87,2383.3 1192.2,2383.13 1182.5,2385C 1173.48,2389.18 1169.15,2396.35 1169.5,2406.5C 1160.9,2402.62 1153.07,2397.62 1146,2391.5C 1157.86,2362.13 1155.2,2334.13 1138,2307.5C 1132.65,2300.65 1126.48,2294.65 1119.5,2289.5C 1129.13,2286.67 1138.8,2284.67 1148.5,2283.5 Z"/></g>
<g><path style="opacity:1" fill="#ec583b" d="M 1506.5,2286.5 C 1540.64,2329.48 1574.64,2372.65 1608.5,2416C 1605.36,2420.64 1602.03,2425.14 1598.5,2429.5C 1556.23,2395.4 1514.4,2360.73 1473,2325.5C 1472.33,2324.83 1472.33,2324.17 1473,2323.5C 1484.74,2311.59 1495.91,2299.26 1506.5,2286.5 Z"/></g>
<g><path style="opacity:1" fill="#61aaad" d="M 1226.5,2290.5 C 1249.87,2291.11 1264.37,2302.77 1270,2325.5C 1276.3,2346.63 1275.97,2367.63 1269,2388.5C 1267.68,2393.15 1265.34,2397.15 1262,2400.5C 1246.14,2394.27 1229.97,2388.94 1213.5,2384.5C 1217.9,2360.04 1216.06,2336.04 1208,2312.5C 1205.92,2307.33 1203.09,2302.67 1199.5,2298.5C 1202.51,2296.33 1205.84,2294.83 1209.5,2294C 1215.36,2293.13 1221.03,2291.96 1226.5,2290.5 Z"/></g>
<g><path style="opacity:1" fill="#775e45" d="M 2239.5,2307.5 C 2243.18,2307.33 2246.85,2307.5 2250.5,2308C 2255.59,2315.66 2253.75,2320.82 2245,2323.5C 2236.14,2320.76 2234.31,2315.42 2239.5,2307.5 Z"/></g>
<g><path style="opacity:1" fill="#f2a83a" d="M 2241.5,2308.5 C 2249.33,2307.49 2252.49,2310.83 2251,2318.5C 2247,2323.83 2243,2323.83 2239,2318.5C 2237.86,2314.58 2238.69,2311.25 2241.5,2308.5 Z"/></g>
<g><path style="opacity:1" fill="#705a46" d="M 2314.5,2263.5 C 2315.04,2263.56 2315.38,2263.89 2315.5,2264.5C 2308.29,2283.28 2298.29,2300.28 2285.5,2315.5C 2294.16,2331.5 2303.33,2347.16 2313,2362.5C 2314.3,2364.4 2314.97,2366.4 2315,2368.5C 2297.22,2352.55 2278.72,2337.55 2259.5,2323.5C 2261.58,2318.28 2262.08,2312.94 2261,2307.5C 2280.28,2294.61 2298.12,2279.94 2314.5,2263.5 Z"/></g>
<g><path style="opacity:1" fill="#f2a83a" d="M 2310.5,2269.5 C 2311.04,2269.56 2311.38,2269.89 2311.5,2270.5C 2304.05,2286.58 2294.72,2301.41 2283.5,2315C 2291.45,2329.73 2299.78,2344.23 2308.5,2358.5C 2308.17,2358.83 2307.83,2359.17 2307.5,2359.5C 2292.14,2347.14 2276.81,2334.8 2261.5,2322.5C 2263.31,2317.52 2263.97,2312.52 2263.5,2307.5C 2280.37,2296.3 2296.03,2283.63 2310.5,2269.5 Z"/></g>
<g><path style="opacity:1" fill="#61aaac" d="M 2375.5,2368.5 C 2390.72,2367.98 2404.72,2371.81 2417.5,2380C 2407.41,2390.36 2400.57,2402.52 2397,2416.5C 2392.31,2432.49 2390.48,2448.82 2391.5,2465.5C 2374.45,2466.06 2357.79,2468.73 2341.5,2473.5C 2338.65,2467.8 2336.49,2461.8 2335,2455.5C 2332.32,2429.91 2337.65,2406.24 2351,2384.5C 2357.38,2376.24 2365.55,2370.91 2375.5,2368.5 Z"/></g>
<g><path style="opacity:1" fill="#61aaac" d="M 2442.5,2371.5 C 2462.09,2370.45 2480.76,2373.95 2498.5,2382C 2475.17,2394.79 2460.67,2414.29 2455,2440.5C 2453.13,2453.14 2453.96,2465.64 2457.5,2478C 2457.17,2478.83 2456.83,2479.67 2456.5,2480.5C 2448.75,2485.54 2440.42,2489.21 2431.5,2491.5C 2434.51,2476.01 2428.18,2467.51 2412.5,2466C 2406.11,2465.1 2399.78,2464.94 2393.5,2465.5C 2392.14,2440.62 2396.97,2416.95 2408,2394.5C 2416.3,2381.94 2427.8,2374.27 2442.5,2371.5 Z"/></g>
<g><path style="opacity:1" fill="#ec583b" d="M 2214.5,2414.5 C 2161.11,2539.84 2107.61,2665.17 2054,2790.5C 2049.43,2798.08 2043.26,2803.91 2035.5,2808C 2030.27,2809.72 2026.44,2808.22 2024,2803.5C 2023.27,2801.13 2022.43,2798.8 2021.5,2796.5C 2083.18,2657.14 2144.85,2517.81 2206.5,2378.5C 2207.6,2376.72 2208.43,2374.72 2209,2372.5C 2209.84,2379.33 2211.68,2385.83 2214.5,2392C 2219.18,2392.25 2223.01,2390.41 2226,2386.5C 2222.68,2395.94 2218.85,2405.27 2214.5,2414.5 Z"/></g>
<g><path style="opacity:1" fill="#61aaad" d="M 2521.5,2376.5 C 2538.38,2374.11 2554.05,2377.28 2568.5,2386C 2579.24,2396.22 2585.41,2408.72 2587,2423.5C 2588.76,2436.49 2588.76,2449.49 2587,2462.5C 2583.64,2488.61 2579.64,2514.61 2575,2540.5C 2569.21,2564.32 2560.37,2586.99 2548.5,2608.5C 2543.4,2609.52 2538.4,2609.02 2533.5,2607C 2487.84,2602.39 2442.17,2602.39 2396.5,2607C 2377.56,2608.62 2358.9,2607.29 2340.5,2603C 2335.07,2601.2 2330.57,2598.03 2327,2593.5C 2318.99,2573.47 2312.99,2552.81 2309,2531.5C 2307.53,2521.21 2307.2,2510.87 2308,2500.5C 2308.9,2492.18 2312.74,2485.68 2319.5,2481C 2348.5,2471.88 2378.16,2467.22 2408.5,2467C 2414.57,2467.93 2420.24,2469.93 2425.5,2473C 2430.09,2477.97 2431.59,2483.8 2430,2490.5C 2423.77,2514.06 2408.6,2527.89 2384.5,2532C 2375.8,2533.32 2367.14,2533.82 2358.5,2533.5C 2383.33,2537.79 2404.5,2531.12 2422,2513.5C 2426.29,2507.24 2429.79,2500.58 2432.5,2493.5C 2441.65,2490.59 2450.32,2486.59 2458.5,2481.5C 2468.68,2495.96 2482.68,2501.8 2500.5,2499C 2524.28,2493.89 2539.78,2479.72 2547,2456.5C 2547.83,2452.46 2547.66,2448.46 2546.5,2444.5C 2543.43,2472.74 2528.09,2490.24 2500.5,2497C 2470.96,2499.46 2455.96,2485.79 2455.5,2456C 2457.23,2420.82 2473.9,2395.82 2505.5,2381C 2511.04,2379.8 2516.38,2378.3 2521.5,2376.5 Z"/></g>
<g><path style="opacity:1" fill="#735b46" d="M 2223.5,2382.5 C 2229,2365.99 2234.34,2349.32 2239.5,2332.5C 2245.47,2332.79 2250.97,2331.12 2256,2327.5C 2276.58,2342.58 2296.41,2358.58 2315.5,2375.5C 2304.57,2375.61 2293.57,2374.77 2282.5,2373C 2271.52,2370.53 2260.52,2368.53 2249.5,2367C 2242.57,2372.71 2235.74,2378.55 2229,2384.5C 2224.73,2394.48 2220.56,2404.48 2216.5,2414.5C 2215.83,2414.5 2215.17,2414.5 2214.5,2414.5C 2218.85,2405.27 2222.68,2395.94 2226,2386.5C 2223.01,2390.41 2219.18,2392.25 2214.5,2392C 2211.68,2385.83 2209.84,2379.33 2209,2372.5C 2208.43,2374.72 2207.6,2376.72 2206.5,2378.5C 2206.5,2377.83 2206.5,2377.17 2206.5,2376.5C 2207.45,2373.58 2208.12,2370.58 2208.5,2367.5C 2206.76,2359.26 2205.6,2350.93 2205,2342.5C 2188.11,2334.64 2171.94,2325.64 2156.5,2315.5C 2157.38,2314.75 2158.38,2314.25 2159.5,2314C 2182.34,2312.53 2205,2313.86 2227.5,2318C 2229.29,2322.41 2231.96,2326.24 2235.5,2329.5C 2230.18,2349.96 2223.18,2369.79 2214.5,2389C 2215.52,2391.99 2217.18,2392.33 2219.5,2390C 2220.62,2387.26 2221.95,2384.76 2223.5,2382.5 Z"/></g>
<g><path style="opacity:1" fill="#f4a83a" d="M 2223.5,2382.5 C 2231.1,2367.37 2236.77,2351.37 2240.5,2334.5C 2246.17,2334.3 2251.33,2332.63 2256,2329.5C 2275.03,2342.86 2293.2,2357.36 2310.5,2373C 2290.46,2372.77 2270.79,2369.94 2251.5,2364.5C 2241.59,2371.57 2232.09,2379.23 2223,2387.5C 2223.02,2385.89 2223.19,2384.23 2223.5,2382.5 Z"/></g>
<g><path style="opacity:1" fill="#f4a83a" d="M 2165.5,2314.5 C 2186.48,2313.66 2207.14,2315.66 2227.5,2320.5C 2228.87,2324.04 2230.87,2327.21 2233.5,2330C 2228.38,2349.4 2221.88,2368.23 2214,2386.5C 2210.64,2371.66 2208.14,2356.66 2206.5,2341.5C 2190.51,2333.51 2174.85,2325.01 2159.5,2316C 2161.71,2315.81 2163.71,2315.31 2165.5,2314.5 Z"/></g>
<g><path style="opacity:1" fill="#ec583b" d="M 1465.5,2389.5 C 1500.44,2415.31 1535.44,2441.15 1570.5,2467C 1571.52,2468.05 1571.68,2469.22 1571,2470.5C 1569.3,2473.19 1567.3,2475.52 1565,2477.5C 1526.11,2459.64 1487.27,2441.64 1448.5,2423.5C 1447.42,2422.64 1447.25,2421.64 1448,2420.5C 1453.85,2410.14 1459.68,2399.81 1465.5,2389.5 Z"/></g>
<g><path style="opacity:1" fill="#5a9d98" d="M 1801.5,2472.5 C 1847.07,2470.36 1891.73,2475.52 1935.5,2488C 1949.35,2492.52 1962.85,2497.69 1976,2503.5C 1968.88,2643.77 1962.88,2784.11 1958,2924.5C 1955.24,2912.65 1950.58,2901.65 1944,2891.5C 1940.35,2887.09 1936.18,2883.26 1931.5,2880C 1927.81,2877.71 1923.81,2876.55 1919.5,2876.5C 1928.31,2810.41 1903.31,2793.07 1844.5,2824.5C 1838.8,2819.64 1832.47,2815.81 1825.5,2813C 1814.8,2812.26 1805.97,2816.09 1799,2824.5C 1791.44,2835.29 1785.77,2846.96 1782,2859.5C 1772.67,2843.5 1763.33,2827.5 1754,2811.5C 1748.17,2804.35 1742.17,2804.02 1736,2810.5C 1730.65,2820.55 1726.98,2831.22 1725,2842.5C 1723.52,2853.53 1721.85,2864.53 1720,2875.5C 1717.77,2903.17 1715.6,2930.84 1713.5,2958.5C 1701,2951.08 1688.67,2943.42 1676.5,2935.5C 1678.26,2909.16 1681.09,2882.82 1685,2856.5C 1696.38,2756.36 1705.71,2656.02 1713,2555.5C 1714.26,2532.18 1715.09,2508.85 1715.5,2485.5C 1728.15,2482.9 1740.81,2480.4 1753.5,2478C 1769.59,2475.69 1785.59,2473.86 1801.5,2472.5 Z"/></g>
<g><path style="opacity:1" fill="#ea583b" d="M 1428.5,2492.5 C 1472.18,2501.06 1515.85,2509.72 1559.5,2518.5C 1558.82,2522.57 1557.82,2526.57 1556.5,2530.5C 1554.67,2530.83 1552.83,2531.17 1551,2531.5C 1512.18,2529.82 1473.34,2528.32 1434.5,2527C 1432.95,2525.56 1432.12,2523.73 1432,2521.5C 1430.59,2511.86 1429.42,2502.19 1428.5,2492.5 Z"/></g>
<g><path style="opacity:1" fill="#6f5b47" d="M 1876.5,2506.5 C 1897.98,2504.81 1906.48,2514.48 1902,2535.5C 1895.28,2546.66 1885.78,2549.83 1873.5,2545C 1862.79,2537.87 1859.96,2528.37 1865,2516.5C 1867.82,2511.84 1871.65,2508.51 1876.5,2506.5 Z"/></g>
<g><path style="opacity:1" fill="#f5c058" d="M 1050.5,2509.5 C 1114.53,2510.79 1176.86,2521.29 1237.5,2541C 1250.09,2545.92 1255.59,2555.09 1254,2568.5C 1249.28,2580.44 1241.78,2590.28 1231.5,2598C 1214.84,2609.91 1196.68,2618.74 1177,2624.5C 1157.89,2601.45 1133.22,2590.78 1103,2592.5C 1092.02,2592.29 1081.19,2593.12 1070.5,2595C 1050.87,2587.44 1034.37,2575.61 1021,2559.5C 1017.53,2554.23 1014.86,2548.56 1013,2542.5C 1008.86,2525.93 1015.03,2515.76 1031.5,2512C 1037.97,2511.07 1044.3,2510.24 1050.5,2509.5 Z"/></g>
<g><path style="opacity:1" fill="#f3bf58" d="M 1877.5,2509.5 C 1893.82,2508.04 1901.32,2515.38 1900,2531.5C 1894.24,2542.98 1885.4,2546.15 1873.5,2541C 1866.01,2534.01 1864.51,2525.84 1869,2516.5C 1871.44,2513.55 1874.27,2511.21 1877.5,2509.5 Z"/></g>
<g><path style="opacity:1" fill="#6e5945" d="M 1818.5,2552.5 C 1847.38,2549.59 1865.88,2561.92 1874,2589.5C 1870.84,2658.27 1872.34,2726.94 1878.5,2795.5C 1842.51,2792.99 1806.51,2790.66 1770.5,2788.5C 1774.87,2720.46 1779.7,2652.46 1785,2584.5C 1791.21,2568.45 1802.37,2557.79 1818.5,2552.5 Z"/></g>
<g><path style="opacity:1" fill="#f3bf58" d="M 1825.5,2555.5 C 1850.37,2555.87 1865.54,2568.2 1871,2592.5C 1871.27,2600.5 1871.1,2608.5 1870.5,2616.5C 1856.16,2616.25 1841.83,2615.92 1827.5,2615.5C 1826.66,2595.51 1825.99,2575.51 1825.5,2555.5 Z"/></g>
<g><path style="opacity:1" fill="#f3bf58" d="M 1823.5,2602.5 C 1823.5,2606.5 1823.5,2610.5 1823.5,2614.5C 1820.17,2614.5 1816.83,2614.5 1813.5,2614.5C 1804.17,2614.5 1794.83,2614.5 1785.5,2614.5C 1784.66,2600.75 1787.16,2587.75 1793,2575.5C 1800.12,2564.87 1809.95,2558.54 1822.5,2556.5C 1823.03,2571.83 1823.36,2587.16 1823.5,2602.5 Z"/></g>
<g><path style="opacity:1" fill="#6e5745" d="M 1536.5,2574.5 C 1539.5,2574.5 1542.5,2574.5 1545.5,2574.5C 1546.09,2580.3 1545.42,2585.8 1543.5,2591C 1518.15,2597.77 1492.82,2604.6 1467.5,2611.5C 1465.11,2610.76 1463.61,2609.09 1463,2606.5C 1460.04,2599.09 1457.2,2591.76 1454.5,2584.5C 1482.08,2582.04 1509.41,2578.71 1536.5,2574.5 Z"/></g>
<g><path style="opacity:1" fill="#ea583b" d="M 1536.5,2577.5 C 1538.5,2577.5 1540.5,2577.5 1542.5,2577.5C 1542.5,2581.17 1542.5,2584.83 1542.5,2588.5C 1517.9,2594.44 1493.4,2600.78 1469,2607.5C 1468.17,2607.17 1467.33,2606.83 1466.5,2606.5C 1464.32,2601.47 1462.15,2596.47 1460,2591.5C 1459.28,2589.89 1459.45,2588.39 1460.5,2587C 1486.02,2584.14 1511.35,2580.98 1536.5,2577.5 Z"/></g>
<g><path style="opacity:1" fill="#ec583b" d="M 1094.5,2593.5 C 1120.16,2591.16 1143.16,2597.66 1163.5,2613C 1167.37,2616.53 1170.87,2620.37 1174,2624.5C 1169.52,2644.44 1165.02,2664.44 1160.5,2684.5C 1127.91,2668.34 1093.91,2664.34 1058.5,2672.5C 1058.17,2671.83 1057.83,2671.17 1057.5,2670.5C 1061.66,2646.05 1066.32,2621.72 1071.5,2597.5C 1079.28,2596.04 1086.94,2594.7 1094.5,2593.5 Z"/></g>
<g><path style="opacity:1" fill="#f5c058" d="M 2448.5,2604.5 C 2476.95,2603.86 2505.28,2605.36 2533.5,2609C 2544.13,2610.59 2554.13,2613.92 2563.5,2619C 2571.93,2627.08 2573.76,2636.58 2569,2647.5C 2562.22,2660.61 2552.39,2670.78 2539.5,2678C 2528.28,2683.79 2516.61,2688.29 2504.5,2691.5C 2483.09,2684.07 2461.09,2681.57 2438.5,2684C 2422.26,2687.12 2408.26,2694.45 2396.5,2706C 2373.39,2696.67 2353.55,2682.5 2337,2663.5C 2318.19,2634.95 2325.69,2618.12 2359.5,2613C 2389.2,2609.1 2418.87,2606.26 2448.5,2604.5 Z"/></g>
<g><path style="opacity:1" fill="#715845" d="M 2206.5,2376.5 C 2206.5,2377.17 2206.5,2377.83 2206.5,2378.5C 2144.85,2517.81 2083.18,2657.14 2021.5,2796.5C 2022.43,2798.8 2023.27,2801.13 2024,2803.5C 2026.44,2808.22 2030.27,2809.72 2035.5,2808C 2043.26,2803.91 2049.43,2798.08 2054,2790.5C 2107.61,2665.17 2161.11,2539.84 2214.5,2414.5C 2215.17,2414.5 2215.83,2414.5 2216.5,2414.5C 2163.1,2539.85 2109.6,2665.18 2056,2790.5C 2050.76,2798.74 2043.93,2805.24 2035.5,2810C 2032.37,2810.79 2029.37,2810.46 2026.5,2809C 2019.4,2802.31 2018.57,2794.81 2024,2786.5C 2084.57,2649.57 2145.41,2512.91 2206.5,2376.5 Z"/></g>
<g><path style="opacity:1" fill="#ae894e" d="M 1823.5,2602.5 C 1824.48,2606.63 1824.82,2610.97 1824.5,2615.5C 1820.63,2615.81 1816.96,2615.48 1813.5,2614.5C 1816.83,2614.5 1820.17,2614.5 1823.5,2614.5C 1823.5,2610.5 1823.5,2606.5 1823.5,2602.5 Z"/></g>
<g><path style="opacity:1" fill="#f4bf58" d="M 1785.5,2617.5 C 1798.51,2617.43 1811.51,2617.76 1824.5,2618.5C 1825.21,2638.16 1825.54,2657.83 1825.5,2677.5C 1811.29,2677.91 1797.12,2678.91 1783,2680.5C 1782.17,2680.17 1781.33,2679.83 1780.5,2679.5C 1782.17,2658.85 1783.83,2638.18 1785.5,2617.5 Z"/></g>
<g><path style="opacity:1" fill="#f4bf58" d="M 1863.5,2619.5 C 1865.26,2620.46 1867.26,2620.79 1869.5,2620.5C 1869.5,2622.83 1869.5,2625.17 1869.5,2627.5C 1869.5,2633.17 1869.5,2638.83 1869.5,2644.5C 1868.51,2653.99 1868.17,2663.65 1868.5,2673.5C 1866.59,2673.22 1864.92,2673.55 1863.5,2674.5C 1852.83,2675.13 1842.16,2675.8 1831.5,2676.5C 1829.86,2671.41 1828.86,2666.08 1828.5,2660.5C 1828.33,2646.5 1828,2632.5 1827.5,2618.5C 1839.5,2618.7 1851.5,2619.03 1863.5,2619.5 Z"/></g>
<g><path style="opacity:1" fill="#b08b4e" d="M 1863.5,2619.5 C 1865.83,2619.5 1868.17,2619.5 1870.5,2619.5C 1870.81,2622.39 1870.47,2625.05 1869.5,2627.5C 1869.5,2625.17 1869.5,2622.83 1869.5,2620.5C 1867.26,2620.79 1865.26,2620.46 1863.5,2619.5 Z"/></g>
<g><path style="opacity:1" fill="#b08c4e" d="M 1869.5,2644.5 C 1869.5,2654.5 1869.5,2664.5 1869.5,2674.5C 1867.5,2674.5 1865.5,2674.5 1863.5,2674.5C 1864.92,2673.55 1866.59,2673.22 1868.5,2673.5C 1868.17,2663.65 1868.51,2653.99 1869.5,2644.5 Z"/></g>
<g><path style="opacity:1" fill="#ae8a4e" d="M 1828.5,2660.5 C 1828.86,2666.08 1829.86,2671.41 1831.5,2676.5C 1830.79,2677.4 1829.79,2677.74 1828.5,2677.5C 1828.5,2671.83 1828.5,2666.17 1828.5,2660.5 Z"/></g>
<g><path style="opacity:1" fill="#ec583b" d="M 1082.5,2669.5 C 1109.52,2668.8 1135.19,2674.3 1159.5,2686C 1160.36,2686.69 1161.02,2687.52 1161.5,2688.5C 1158.44,2709.34 1159.44,2730.01 1164.5,2750.5C 1139.39,2749.01 1114.73,2751.51 1090.5,2758C 1077.82,2762.42 1066.66,2769.25 1057,2778.5C 1054.33,2782.5 1051.67,2786.5 1049,2790.5C 1047.87,2751.91 1050.54,2713.58 1057,2675.5C 1065.39,2672.58 1073.89,2670.58 1082.5,2669.5 Z"/></g>
<g><path style="opacity:1" fill="#f1bd58" d="M 1857.5,2677.5 C 1861.5,2677.5 1865.5,2677.5 1869.5,2677.5C 1869.54,2696.17 1869.87,2714.84 1870.5,2733.5C 1867.81,2733.66 1865.15,2733.5 1862.5,2733C 1860.53,2727.69 1860.03,2722.19 1861,2716.5C 1862.3,2714.6 1862.97,2712.6 1863,2710.5C 1858.55,2712.26 1854.05,2713.93 1849.5,2715.5C 1845.98,2725.68 1839.32,2733.02 1829.5,2737.5C 1828.5,2718.51 1828.17,2699.51 1828.5,2680.5C 1838.32,2679.65 1847.98,2678.65 1857.5,2677.5 Z"/></g>
<g><path style="opacity:1" fill="#f5c058" d="M 1778.5,2744.5 C 1777.53,2742.39 1777.2,2740.06 1777.5,2737.5C 1778.69,2720.17 1779.86,2702.84 1781,2685.5C 1795.69,2683.03 1810.53,2681.36 1825.5,2680.5C 1825.5,2699.83 1825.5,2719.17 1825.5,2738.5C 1809.82,2740.42 1794.16,2742.42 1778.5,2744.5 Z"/></g>
<g><path style="opacity:1" fill="#ec583b" d="M 2404.5,2767.5 C 2403.83,2763.17 2403.17,2758.83 2402.5,2754.5C 2401.33,2738.76 2399.83,2723.1 2398,2707.5C 2417.21,2689.43 2440.04,2681.93 2466.5,2685C 2479.09,2686.69 2491.26,2689.86 2503,2694.5C 2506.08,2719.74 2507.42,2745.08 2507,2770.5C 2482.03,2760.19 2456.2,2757.36 2429.5,2762C 2421.12,2763.68 2412.78,2765.51 2404.5,2767.5 Z"/></g>
<g><path style="opacity:1" fill="#f5c058" d="M 1306.5,2729.5 C 1310.51,2729.33 1314.51,2729.5 1318.5,2730C 1325.31,2730.75 1331.98,2732.09 1338.5,2734C 1301.67,2792.55 1287.51,2856.39 1296,2925.5C 1299.75,2954.98 1307.58,2983.32 1319.5,3010.5C 1283.33,3010.15 1257.5,2993.48 1242,2960.5C 1229.64,2926.89 1225.64,2892.23 1230,2856.5C 1233.07,2826.78 1240.07,2798.11 1251,2770.5C 1261.65,2745.95 1280.15,2732.28 1306.5,2729.5 Z"/></g>
<g><path style="opacity:1" fill="#efbb58" d="M 1867.5,2737.5 C 1868.39,2736.22 1869.39,2736.22 1870.5,2737.5C 1869.77,2738.09 1868.77,2738.09 1867.5,2737.5 Z"/></g>
<g><path style="opacity:1" fill="#955249" d="M 1338.5,2736.5 C 1339.12,2736.61 1339.62,2736.94 1340,2737.5C 1352.98,2818.43 1349.98,2898.76 1331,2978.5C 1328.28,2989 1324.95,2999.33 1321,3009.5C 1281.73,2915.63 1287.56,2824.63 1338.5,2736.5 Z"/></g>
<g><path style="opacity:1" fill="#ab884e" d="M 1777.5,2737.5 C 1777.2,2740.06 1777.53,2742.39 1778.5,2744.5C 1778.44,2745.04 1778.11,2745.38 1777.5,2745.5C 1776.2,2742.69 1776.2,2740.02 1777.5,2737.5 Z"/></g>
<g><path style="opacity:1" fill="#f3bf58" d="M 1818.5,2747.5 C 1821.08,2747.03 1823.08,2747.69 1824.5,2749.5C 1824.76,2762.61 1823.76,2775.61 1821.5,2788.5C 1805.82,2787.63 1790.16,2786.63 1774.5,2785.5C 1774.56,2774.48 1775.06,2763.48 1776,2752.5C 1776.22,2751.06 1776.72,2749.73 1777.5,2748.5C 1789.52,2747.07 1801.52,2745.41 1813.5,2743.5C 1814.83,2743.67 1816.17,2743.83 1817.5,2744C 1816,2745.25 1814.33,2746.25 1812.5,2747C 1814.47,2747.5 1816.47,2747.66 1818.5,2747.5 Z"/></g>
<g><path style="opacity:1" fill="#ad894e" d="M 1818.5,2747.5 C 1820.61,2746.53 1822.94,2746.2 1825.5,2746.5C 1825.74,2747.79 1825.4,2748.79 1824.5,2749.5C 1823.08,2747.69 1821.08,2747.03 1818.5,2747.5 Z"/></g>
<g><path style="opacity:1" fill="#eab857" d="M 1828.5,2746.5 C 1830.59,2746.32 1832.59,2746.65 1834.5,2747.5C 1835.14,2752.94 1837.47,2757.44 1841.5,2761C 1837.94,2762.24 1834.27,2762.74 1830.5,2762.5C 1829.54,2766.94 1828.38,2771.28 1827,2775.5C 1827.03,2765.82 1827.53,2756.15 1828.5,2746.5 Z"/></g>
<g><path style="opacity:1" fill="#ecb957" d="M 1864.5,2748.5 C 1866.83,2748.5 1869.17,2748.5 1871.5,2748.5C 1872.61,2763.19 1873.95,2777.86 1875.5,2792.5C 1872.09,2792.26 1868.75,2791.6 1865.5,2790.5C 1868.98,2786.59 1869.82,2782.25 1868,2777.5C 1866.51,2772.47 1867.67,2768.31 1871.5,2765C 1869.17,2762.67 1866.83,2760.33 1864.5,2758C 1863,2757.49 1861.84,2757.99 1861,2759.5C 1861.4,2757.37 1862.4,2755.37 1864,2753.5C 1864.49,2751.87 1864.66,2750.2 1864.5,2748.5 Z"/></g>
<g><path style="opacity:1" fill="#ed583b" d="M 1138.5,2751.5 C 1147.56,2751.15 1156.56,2751.65 1165.5,2753C 1169.18,2761.53 1173.52,2769.7 1178.5,2777.5C 1143.51,2792.74 1121.68,2819.07 1113,2856.5C 1110.08,2872.03 1108.41,2887.7 1108,2903.5C 1079.96,2888.72 1061.96,2866.05 1054,2835.5C 1051.51,2822.91 1049.68,2810.24 1048.5,2797.5C 1053.44,2784.77 1061.78,2774.94 1073.5,2768C 1094.12,2757.93 1115.79,2752.43 1138.5,2751.5 Z"/></g>
<g><path style="opacity:1" fill="#ad583f" d="M 2402.5,2754.5 C 2403.17,2758.83 2403.83,2763.17 2404.5,2767.5C 2404.44,2768.04 2404.11,2768.38 2403.5,2768.5C 2402.51,2763.88 2402.17,2759.21 2402.5,2754.5 Z"/></g>
<g><path style="opacity:1" fill="#ec583b" d="M 2442.5,2761.5 C 2464.98,2759.83 2486.48,2763.5 2507,2772.5C 2508.22,2803.24 2507.22,2833.91 2504,2864.5C 2503.31,2872.31 2501.98,2879.97 2500,2887.5C 2491.32,2868.48 2477.15,2855.32 2457.5,2848C 2436.28,2839.66 2414.28,2834.82 2391.5,2833.5C 2398.83,2813.19 2402.83,2792.19 2403.5,2770.5C 2416.31,2766.08 2429.31,2763.08 2442.5,2761.5 Z"/></g>
<g><path style="opacity:1" fill="#f2e5cb" d="M 1966.5,2775.5 C 1997.17,2797 2022.17,2823.84 2041.5,2856C 2072.91,2855.6 2103.58,2859.93 2133.5,2869C 2156.65,2877.16 2176.82,2889.99 2194,2907.5C 2189.06,2954.18 2189.39,3000.84 2195,3047.5C 2196.2,3055.58 2197.7,3063.58 2199.5,3071.5C 2188.11,3081.69 2174.78,3087.86 2159.5,3090C 2128.93,3093.61 2101.76,3085.78 2078,3066.5C 2081.22,3059.17 2083.89,3051.5 2086,3043.5C 2087.28,3027.01 2086.28,3010.68 2083,2994.5C 2079.47,2983.77 2074.14,2974.1 2067,2965.5C 2052.33,2952.17 2037.67,2938.83 2023,2925.5C 2023.6,2922.97 2024.1,2920.31 2024.5,2917.5C 2024.25,2915.14 2023.91,2912.81 2023.5,2910.5C 2033.21,2909.65 2036.71,2904.65 2034,2895.5C 2022.18,2883.17 2007.68,2876.67 1990.5,2876C 1992.5,2871.73 1993,2867.23 1992,2862.5C 1990.57,2854.45 1986.07,2852.28 1978.5,2856C 1973.58,2859.04 1968.75,2862.21 1964,2865.5C 1964.8,2835.52 1965.63,2805.52 1966.5,2775.5 Z"/></g>
<g><path style="opacity:1" fill="#ed583b" d="M 1178.5,2779.5 C 1184.04,2783.97 1189.71,2788.47 1195.5,2793C 1201.07,2795.94 1206.4,2799.11 1211.5,2802.5C 1186.56,2842.8 1179.56,2886.13 1190.5,2932.5C 1164.33,2928.44 1139.33,2920.27 1115.5,2908C 1114.33,2906.92 1113,2906.08 1111.5,2905.5C 1107.69,2866.37 1118.52,2832.03 1144,2802.5C 1154.07,2792.59 1165.57,2784.92 1178.5,2779.5 Z"/></g>
<g><path style="opacity:1" fill="#f1e4ca" d="M 1644.5,2790.5 C 1655.51,2790.33 1666.51,2790.5 1677.5,2791C 1681.22,2791.39 1684.89,2792.06 1688.5,2793C 1687.28,2805.54 1685.62,2818.04 1683.5,2830.5C 1676.79,2822.57 1668.46,2820.07 1658.5,2823C 1656.32,2825.02 1654.32,2827.18 1652.5,2829.5C 1640.97,2816.89 1626.97,2808.06 1610.5,2803C 1621.45,2797.52 1632.79,2793.35 1644.5,2790.5 Z"/></g>
<g><path style="opacity:1" fill="#f5c058" d="M 2230.5,2791.5 C 2269.13,2790.67 2293.63,2808.67 2304,2845.5C 2316.06,2896.46 2315.06,2947.13 2301,2997.5C 2293.86,3023.61 2279.36,3044.44 2257.5,3060C 2240.26,3069.75 2221.93,3073.25 2202.5,3070.5C 2251.79,2988.16 2260.63,2901.49 2229,2810.5C 2226.61,2805.2 2224.11,2799.87 2221.5,2794.5C 2224.42,2793.05 2227.42,2792.05 2230.5,2791.5 Z"/></g>
<g><path style="opacity:1" fill="#955249" d="M 2219.5,2795.5 C 2239.94,2839.13 2248.44,2885.13 2245,2933.5C 2241.33,2982.18 2226.66,3027.18 2201,3068.5C 2190.31,3012.4 2188.98,2956.07 2197,2899.5C 2201.63,2864.17 2209.13,2829.5 2219.5,2795.5 Z"/></g>
<g><path style="opacity:1" fill="#f5c058" d="M 1554.5,2799.5 C 1579.26,2798.42 1602.93,2802.92 1625.5,2813C 1640.72,2821.22 1652.22,2833.05 1660,2848.5C 1659.14,2843.4 1657.64,2838.4 1655.5,2833.5C 1658.16,2825.83 1663.5,2823.33 1671.5,2826C 1676.28,2828.45 1680.12,2831.95 1683,2836.5C 1676.92,2898.92 1669.58,2961.26 1661,3023.5C 1655.05,3016.53 1647.71,3011.86 1639,3009.5C 1617.28,3017.85 1594.78,3022.02 1571.5,3022C 1559.74,3018.9 1549.41,3013.23 1540.5,3005C 1523.87,2988.56 1510.03,2970.06 1499,2949.5C 1492.79,2937.07 1486.62,2924.74 1480.5,2912.5C 1476.7,2929.33 1471.2,2945.67 1464,2961.5C 1454.45,2981.61 1444.11,3001.28 1433,3020.5C 1419.22,3009.05 1407.22,2996.05 1397,2981.5C 1383.75,2957.55 1384.42,2933.88 1399,2910.5C 1406.37,2898.79 1415.54,2888.62 1426.5,2880C 1447.76,2863.7 1471.1,2851.03 1496.5,2842C 1503.16,2840.77 1509.82,2839.6 1516.5,2838.5C 1524.38,2839.44 1531.88,2841.44 1539,2844.5C 1535.68,2839.83 1533.34,2834.5 1532,2828.5C 1531.84,2812.8 1539.34,2803.13 1554.5,2799.5 Z"/></g>
<g><path style="opacity:1" fill="#eb583b" d="M 1213.5,2802.5 C 1221.05,2804.37 1228.71,2805.7 1236.5,2806.5C 1226.17,2850.91 1224.83,2895.57 1232.5,2940.5C 1219.32,2939.69 1206.32,2937.69 1193.5,2934.5C 1190.5,2927.53 1188.67,2920.19 1188,2912.5C 1183.91,2872.86 1192.41,2836.19 1213.5,2802.5 Z"/></g>
<g><path style="opacity:1" fill="#61aaad" d="M 1741.5,2809.5 C 1743.99,2809.3 1746.32,2809.8 1748.5,2811C 1750.45,2813.07 1752.29,2815.24 1754,2817.5C 1763.27,2834.43 1772.93,2851.09 1783,2867.5C 1786.98,2852.27 1793.65,2838.27 1803,2825.5C 1812.26,2815.49 1822.76,2813.99 1834.5,2821C 1837.95,2823.48 1841.12,2826.31 1844,2829.5C 1857.64,2819.79 1872.81,2814.12 1889.5,2812.5C 1903.49,2812.99 1912.33,2819.99 1916,2833.5C 1919.07,2849.18 1918.91,2864.85 1915.5,2880.5C 1920.38,2880.19 1925.05,2881.03 1929.5,2883C 1937.87,2888.71 1944.04,2896.21 1948,2905.5C 1952.22,2916.26 1955.55,2927.26 1958,2938.5C 1957.23,2973.83 1957.4,3009.17 1958.5,3044.5C 1950.59,3045.54 1942.92,3047.54 1935.5,3050.5C 1915.22,3043.68 1894.88,3037.18 1874.5,3031C 1846.49,3024.79 1818.15,3022.12 1789.5,3023C 1752.58,3024.7 1723.75,3040.53 1703,3070.5C 1701.29,3070.56 1699.96,3069.89 1699,3068.5C 1688.8,3053.96 1677.46,3040.29 1665,3027.5C 1667.92,2997.83 1671.25,2968.16 1675,2938.5C 1688.75,2947.29 1702.58,2955.96 1716.5,2964.5C 1718.21,2930.74 1721.04,2897.07 1725,2863.5C 1726.78,2847.7 1730.45,2832.37 1736,2817.5C 1737.6,2814.63 1739.43,2811.96 1741.5,2809.5 Z"/></g>
<g><path style="opacity:1" fill="#eee1c7" d="M 1526.5,2823.5 C 1528.2,2827.33 1529.54,2831.5 1530.5,2836C 1523.18,2835.92 1515.85,2835.58 1508.5,2835C 1513.92,2830.05 1519.92,2826.21 1526.5,2823.5 Z"/></g>
<g><path style="opacity:1" fill="#ed583b" d="M 2389.5,2834.5 C 2416.94,2836.12 2442.94,2842.96 2467.5,2855C 2482.68,2863.18 2493.18,2875.34 2499,2891.5C 2496.75,2914.12 2489.75,2935.12 2478,2954.5C 2464.39,2971.88 2447.22,2984.21 2426.5,2991.5C 2432.42,2957.02 2427.26,2924.35 2411,2893.5C 2401.73,2878.23 2389.23,2866.4 2373.5,2858C 2380.25,2851.09 2385.59,2843.26 2389.5,2834.5 Z"/></g>
<g><path style="opacity:1" fill="#f2e5cb" d="M 1431.5,2842.5 C 1446.26,2842.45 1460.93,2843.62 1475.5,2846C 1455.5,2855.69 1436.84,2867.35 1419.5,2881C 1403.41,2895.03 1392.24,2912.2 1386,2932.5C 1381.9,2950.59 1384.57,2967.59 1394,2983.5C 1404.55,2998.39 1416.88,3011.72 1431,3023.5C 1429.56,3027.88 1427.39,3032.05 1424.5,3036C 1421.04,3037.74 1417.38,3038.74 1413.5,3039C 1392.18,3040.92 1371.18,3039.25 1350.5,3034C 1340,3030.16 1329.5,3026.33 1319,3022.5C 1289.67,3027.59 1260.17,3028.76 1230.5,3026C 1184.62,3019.08 1170.12,2993.91 1187,2950.5C 1188.67,2947.17 1190.33,2943.83 1192,2940.5C 1192.78,2938.79 1194.11,2937.79 1196,2937.5C 1208.59,2939.18 1221.09,2941.35 1233.5,2944C 1246.38,2988.04 1275.71,3011.54 1321.5,3014.5C 1336.18,2973.77 1345.01,2931.77 1348,2888.5C 1369.74,2862.05 1397.57,2846.72 1431.5,2842.5 Z"/></g>
<g><path style="opacity:0.918" fill="#6e5745" d="M 2940.5,2846.5 C 2941.75,2847.33 2942.41,2848.67 2942.5,2850.5C 2940.87,2889.15 2940.03,2927.82 2940,2966.5C 2972,2989.67 3003.83,3013.01 3035.5,3036.5C 2998.04,3048.48 2960.38,3059.98 2922.5,3071C 2909.62,3108.29 2897.12,3145.79 2885,3183.5C 2884.59,3183.96 2884.09,3184.29 2883.5,3184.5C 2860.92,3152.34 2838.59,3120.01 2816.5,3087.5C 2776.5,3086.83 2736.5,3086.17 2696.5,3085.5C 2720.76,3053.97 2744.76,3022.31 2768.5,2990.5C 2756.46,2952.88 2744.13,2915.38 2731.5,2878C 2769.15,2890.06 2806.65,2902.9 2844,2916.5C 2876.66,2893.76 2908.83,2870.43 2940.5,2846.5 Z"/></g>
<g><path style="opacity:1" fill="#9a5047" d="M 2936.5,2855.5 C 2936.56,2854.96 2936.89,2854.62 2937.5,2854.5C 2938.82,2860.99 2938.82,2867.32 2937.5,2873.5C 2937.82,2867.31 2937.49,2861.31 2936.5,2855.5 Z"/></g>
<g><path style="opacity:1" fill="#c34a48" d="M 2936.5,2855.5 C 2937.49,2861.31 2937.82,2867.31 2937.5,2873.5C 2937.08,2905.18 2936.58,2936.85 2936,2968.5C 2966.23,2991.03 2996.73,3013.2 3027.5,3035C 2991.32,3046.6 2954.98,3057.77 2918.5,3068.5C 2906.98,3104.57 2895.14,3140.57 2883,3176.5C 2861.5,3145.67 2840,3114.83 2818.5,3084C 2780.17,3083.67 2741.83,3083.33 2703.5,3083C 2726.21,3053.08 2749.05,3023.24 2772,2993.5C 2772.67,2991.5 2772.67,2989.5 2772,2987.5C 2762.33,2958.5 2752.67,2929.5 2743,2900.5C 2741.43,2894.81 2740.09,2889.14 2739,2883.5C 2774.02,2896.21 2809.19,2908.55 2844.5,2920.5C 2846.79,2920.38 2848.79,2919.54 2850.5,2918C 2879.02,2896.91 2907.69,2876.08 2936.5,2855.5 Z"/></g>
<g><path style="opacity:1" fill="#f5c058" d="M 1966.5,3043.5 C 1965.17,3043.5 1963.83,3043.5 1962.5,3043.5C 1962.79,3041.26 1962.46,3039.26 1961.5,3037.5C 1960.79,2983.83 1961.29,2930.16 1963,2876.5C 1963.19,2874.1 1963.69,2871.77 1964.5,2869.5C 1970.75,2864.05 1977.75,2860.21 1985.5,2858C 1986.42,2858.37 1987.25,2858.87 1988,2859.5C 1989.28,2866.4 1988.45,2872.9 1985.5,2879C 1999.51,2879.84 2012.51,2883.84 2024.5,2891C 2035.48,2901.62 2033.14,2907.62 2017.5,2909C 2019.63,2911.26 2020.96,2913.93 2021.5,2917C 2021.53,2918.97 2020.7,2920.47 2019,2921.5C 2018.33,2923.17 2018.33,2924.83 2019,2926.5C 2033.67,2939.83 2048.33,2953.17 2063,2966.5C 2073.62,2977.75 2079.96,2991.08 2082,3006.5C 2083.49,3017.79 2083.83,3029.13 2083,3040.5C 2080.5,3057.52 2072,3070.52 2057.5,3079.5C 2054.36,3074.52 2050.36,3070.36 2045.5,3067C 2021.84,3050.43 1995.5,3042.59 1966.5,3043.5 Z"/></g>
<g><path style="opacity:1" fill="#ec583b" d="M 2370.5,2859.5 C 2396.59,2872.94 2413.59,2893.94 2421.5,2922.5C 2426.98,2945.95 2427.98,2969.62 2424.5,2993.5C 2397.46,3003.61 2369.46,3009.44 2340.5,3011C 2351.32,2985.58 2355.16,2959.08 2352,2931.5C 2350.13,2912.34 2345.29,2894.01 2337.5,2876.5C 2350.37,2874.23 2361.37,2868.57 2370.5,2859.5 Z"/></g>
<g><path style="opacity:1" fill="#eb583b" d="M 2331.5,2877.5 C 2332.98,2877.24 2334.31,2877.57 2335.5,2878.5C 2354.98,2921.29 2356.48,2964.62 2340,3008.5C 2339.17,3010 2338,3011.17 2336.5,3012C 2323.49,3013.07 2310.49,3013.24 2297.5,3012.5C 2312.58,2969.42 2317.25,2925.25 2311.5,2880C 2318.37,2879.61 2325.03,2878.77 2331.5,2877.5 Z"/></g>
<g><path style="opacity:1" fill="#955249" d="M 1481.5,2922.5 C 1493.28,2948.74 1508.12,2973.07 1526,2995.5C 1536.61,3008.05 1549.44,3017.55 1564.5,3024C 1567.83,3024.67 1571.17,3025.33 1574.5,3026C 1560.61,3037.66 1546.28,3038.32 1531.5,3028C 1526.25,3023.42 1521.75,3018.26 1518,3012.5C 1530.83,3065.16 1549.33,3115.83 1573.5,3164.5C 1573.15,3165.7 1572.65,3165.7 1572,3164.5C 1549.37,3124.22 1530.03,3082.55 1514,3039.5C 1505.55,3017.34 1497.39,2995 1489.5,2972.5C 1461.88,3025.29 1434.04,3077.95 1406,3130.5C 1405.01,3142.16 1404.18,3153.83 1403.5,3165.5C 1386.8,3164.64 1370.13,3163.31 1353.5,3161.5C 1386.43,3109.99 1417.6,3057.32 1447,3003.5C 1455.88,2986.41 1464.21,2969.08 1472,2951.5C 1476.08,2942.1 1479.25,2932.43 1481.5,2922.5 Z"/></g>
<g><path style="opacity:1" fill="#4d535f" d="M 1165.5,2929.5 C 1173.48,2931.66 1181.48,2933.83 1189.5,2936C 1189.96,2936.41 1190.29,2936.91 1190.5,2937.5C 1180.47,2954.43 1176.31,2972.77 1178,2992.5C 1181.58,3004.75 1188.91,3014.08 1200,3020.5C 1212.8,3045.97 1232.14,3064.64 1258,3076.5C 1269.28,3109.75 1292.44,3124.25 1327.5,3120C 1336.64,3118.43 1345.64,3116.27 1354.5,3113.5C 1360.38,3117.27 1366.05,3121.27 1371.5,3125.5C 1363.75,3138.67 1355.75,3151.67 1347.5,3164.5C 1365.76,3166.72 1384.1,3168.05 1402.5,3168.5C 1401.45,3191.26 1399.78,3213.92 1397.5,3236.5C 1389.23,3241.44 1381.23,3246.77 1373.5,3252.5C 1346.18,3236 1316.51,3228.17 1284.5,3229C 1272.19,3230.48 1265.52,3237.31 1264.5,3249.5C 1245.54,3247.18 1226.54,3245.01 1207.5,3243C 1144.42,3240.89 1086.42,3256.89 1033.5,3291C 1017.5,3291.67 1001.5,3291.67 985.5,3291C 973.427,3273.93 961.76,3256.6 950.5,3239C 1025.25,3138 1096.92,3034.84 1165.5,2929.5 Z"/></g>
<g><path style="opacity:1" fill="#f7bf58" d="M 1488.5,2981.5 C 1505.74,3029.33 1524.9,3076.66 1546,3123.5C 1556.57,3145.65 1568.9,3166.65 1583,3186.5C 1586.33,3189.83 1589.67,3193.17 1593,3196.5C 1589.67,3258.85 1585.67,3321.19 1581,3383.5C 1574.58,3384.64 1568.08,3384.81 1561.5,3384C 1505.49,3380.28 1449.49,3376.44 1393.5,3372.5C 1397.4,3310.85 1401.23,3249.18 1405,3187.5C 1406.58,3168.49 1408.25,3149.49 1410,3130.5C 1436.18,3080.81 1462.35,3031.14 1488.5,2981.5 Z"/></g>
<g><path style="opacity:1" fill="#ed583b" d="M 1635.5,3013.5 C 1637.86,3013.34 1640.19,3013.5 1642.5,3014C 1652.84,3020.33 1662.01,3028.17 1670,3037.5C 1712.78,3091.05 1751.62,3147.38 1786.5,3206.5C 1724.19,3203.4 1661.85,3199.57 1599.5,3195C 1597.15,3194.65 1595.32,3193.49 1594,3191.5C 1572.38,3157.93 1555.38,3122.26 1543,3084.5C 1536.66,3066.3 1530.82,3047.97 1525.5,3029.5C 1525.67,3028.83 1525.83,3028.17 1526,3027.5C 1543.86,3042.13 1561.69,3041.96 1579.5,3027C 1590.2,3025.22 1600.87,3023.22 1611.5,3021C 1619.89,3019.37 1627.89,3016.87 1635.5,3013.5 Z"/></g>
<g><path style="opacity:1" fill="#e7ddcc" d="M 1204.5,3023.5 C 1204.56,3022.96 1204.89,3022.62 1205.5,3022.5C 1216.08,3026.71 1227.08,3029.21 1238.5,3030C 1265.88,3031.77 1293.05,3030.27 1320,3025.5C 1336.9,3033.68 1354.73,3039.18 1373.5,3042C 1389.92,3042.85 1406.25,3042.51 1422.5,3041C 1415.91,3051.5 1409.58,3062.17 1403.5,3073C 1372.17,3082.13 1340.17,3086.13 1307.5,3085C 1262.17,3082.36 1227.84,3061.86 1204.5,3023.5 Z"/></g>
<g><path style="opacity:1" fill="#f5c058" d="M 1789.5,3025.5 C 1824.98,3024.88 1859.65,3029.71 1893.5,3040C 1907.76,3044.64 1921.92,3049.47 1936,3054.5C 1953.18,3047.29 1971.01,3045.13 1989.5,3048C 2012.26,3051.63 2032.42,3060.8 2050,3075.5C 2059.16,3087.27 2062.49,3100.6 2060,3115.5C 2055.14,3133.54 2045.47,3148.54 2031,3160.5C 2029.77,3165.72 2029.1,3171.05 2029,3176.5C 2025.84,3183.84 2020.34,3187.84 2012.5,3188.5C 2021.02,3223.59 2010.69,3251.76 1981.5,3273C 1960.32,3283.69 1937.98,3287.02 1914.5,3283C 1899.52,3279.2 1891.85,3269.7 1891.5,3254.5C 1890.13,3254.34 1888.79,3254.51 1887.5,3255C 1884.49,3258.87 1880.82,3259.53 1876.5,3257C 1873.77,3254.37 1871.94,3251.21 1871,3247.5C 1854.49,3272.18 1831.32,3285.68 1801.5,3288C 1786.58,3289.22 1772.58,3286.22 1759.5,3279C 1747.63,3271.42 1741.29,3260.59 1740.5,3246.5C 1736.63,3255.27 1729.96,3259.1 1720.5,3258C 1716.36,3256.36 1713.36,3253.53 1711.5,3249.5C 1713.07,3235.23 1714.07,3220.9 1714.5,3206.5C 1740.88,3207.58 1767.22,3209.08 1793.5,3211C 1765.21,3164.89 1735.54,3119.72 1704.5,3075.5C 1717.77,3053.41 1736.77,3038.58 1761.5,3031C 1770.87,3028.61 1780.2,3026.78 1789.5,3025.5 Z"/></g>
<g><path style="opacity:1" fill="#ae8a4e" d="M 1961.5,3037.5 C 1962.46,3039.26 1962.79,3041.26 1962.5,3043.5C 1963.83,3043.5 1965.17,3043.5 1966.5,3043.5C 1965.08,3044.45 1963.41,3044.78 1961.5,3044.5C 1961.5,3042.17 1961.5,3039.83 1961.5,3037.5 Z"/></g>
<g><path style="opacity:1" fill="#e7ddcc" d="M 2074.5,3069.5 C 2083.62,3074.9 2092.95,3080.06 2102.5,3085C 2125.96,3094.57 2149.96,3096.07 2174.5,3089.5C 2174.83,3089.83 2175.17,3090.17 2175.5,3090.5C 2161.59,3109.78 2143.26,3122.61 2120.5,3129C 2098.27,3130.8 2079.77,3123.3 2065,3106.5C 2064.5,3098.44 2062.67,3090.77 2059.5,3083.5C 2065.12,3079.55 2070.12,3074.88 2074.5,3069.5 Z"/></g>
<g><path style="opacity:1" fill="#725c47" d="M 1489.5,3074.5 C 1511.29,3072.79 1521.13,3082.79 1519,3104.5C 1513.66,3117.09 1504.16,3122.25 1490.5,3120C 1474.4,3112.7 1469.9,3100.86 1477,3084.5C 1480.49,3080.16 1484.66,3076.83 1489.5,3074.5 Z"/></g>
<g><path style="opacity:1" fill="#e1d4c5" d="M 1398.5,3076.5 C 1399.55,3076.35 1400.55,3076.52 1401.5,3077C 1392.36,3092.3 1383.03,3107.47 1373.5,3122.5C 1367.36,3118.35 1361.19,3114.35 1355,3110.5C 1341.59,3115.21 1327.76,3117.55 1313.5,3117.5C 1287.91,3116.23 1270.91,3103.56 1262.5,3079.5C 1263,3079.17 1263.5,3078.83 1264,3078.5C 1283.01,3085.47 1302.68,3088.81 1323,3088.5C 1348.98,3088.53 1374.14,3084.53 1398.5,3076.5 Z"/></g>
<g><path style="opacity:1" fill="#f4d8a7" d="M 1494.5,3077.5 C 1507.7,3077.76 1515.04,3084.43 1516.5,3097.5C 1514.92,3108.92 1508.42,3115.58 1497,3117.5C 1479.07,3113.97 1473.4,3103.64 1480,3086.5C 1483.75,3081.55 1488.59,3078.55 1494.5,3077.5 Z"/></g>
<g><path style="opacity:1" fill="#6f5745" d="M 2254.5,3101.5 C 2270.68,3112.43 2286.35,3124.1 2301.5,3136.5C 2265.91,3180.68 2230.07,3224.68 2194,3268.5C 2188.02,3263.68 2182.52,3258.35 2177.5,3252.5C 2203.45,3202.27 2229.11,3151.94 2254.5,3101.5 Z"/></g>
<g><path style="opacity:1" fill="#ec583b" d="M 2255.5,3106.5 C 2269.88,3116.04 2283.88,3126.2 2297.5,3137C 2263.37,3179.63 2228.7,3221.79 2193.5,3263.5C 2189.17,3259.83 2185.17,3255.83 2181.5,3251.5C 2206.45,3203.27 2231.11,3154.94 2255.5,3106.5 Z"/></g>
<g><path style="opacity:1" fill="#e1d4c4" d="M 2064.5,3111.5 C 2073.58,3119.71 2083.91,3125.88 2095.5,3130C 2107.59,3133.32 2119.59,3133.32 2131.5,3130C 2122.47,3142.02 2110.8,3150.35 2096.5,3155C 2090.83,3155.67 2085.17,3155.67 2079.5,3155C 2071.92,3152.54 2064.92,3149.04 2058.5,3144.5C 2054.47,3146.34 2050.47,3147.84 2046.5,3149C 2055.84,3138.15 2061.84,3125.65 2064.5,3111.5 Z"/></g>
<g><path style="opacity:1" fill="#735d48" d="M 1457.5,3138.5 C 1476.93,3137.1 1485.76,3146.1 1484,3165.5C 1477.89,3178.8 1467.72,3183.3 1453.5,3179C 1442.96,3172.66 1439.46,3163.49 1443,3151.5C 1446.16,3145.16 1451,3140.83 1457.5,3138.5 Z"/></g>
<g><path style="opacity:1" fill="#f5d9a7" d="M 1460.5,3141.5 C 1477.49,3143 1483.66,3152 1479,3168.5C 1467.89,3180.78 1457.22,3180.45 1447,3167.5C 1442.88,3154.07 1447.38,3145.4 1460.5,3141.5 Z"/></g>
<g><path style="opacity:1" fill="#f5c058" d="M 2018.5,3190.5 C 2020.65,3190.37 2022.65,3190.87 2024.5,3192C 2040.67,3204.17 2054.83,3218.33 2067,3234.5C 2084.7,3258.74 2088.7,3285.07 2079,3313.5C 2075.11,3322.41 2069.27,3329.91 2061.5,3336C 2068.21,3339.44 2070.71,3344.94 2069,3352.5C 2066,3360.16 2060.5,3365 2052.5,3367C 2044.16,3368.26 2035.82,3369.59 2027.5,3371C 2031.08,3372.25 2034.75,3373.25 2038.5,3374C 2042.59,3377.86 2043.42,3382.36 2041,3387.5C 2022.59,3415.78 1997.75,3424.45 1966.5,3413.5C 1971.32,3422.18 1970.32,3430.01 1963.5,3437C 1953.95,3440.13 1949.45,3436.63 1950,3426.5C 1949.59,3426.04 1949.09,3425.71 1948.5,3425.5C 1930.51,3443.15 1908.85,3450.65 1883.5,3448C 1861.44,3446.43 1842.27,3438.26 1826,3423.5C 1809.27,3400.13 1804.94,3374.46 1813,3346.5C 1819.72,3330.48 1831.88,3322.32 1849.5,3322C 1844.83,3321.33 1840.17,3320.67 1835.5,3320C 1833.45,3319.07 1831.95,3317.57 1831,3315.5C 1829.64,3311.24 1829.3,3306.91 1830,3302.5C 1832.91,3296.02 1835.24,3289.36 1837,3282.5C 1850.28,3276.35 1861.28,3267.35 1870,3255.5C 1874.91,3261.45 1881.08,3263.11 1888.5,3260.5C 1888.86,3267.39 1891.53,3273.22 1896.5,3278C 1902.57,3282.36 1909.24,3285.36 1916.5,3287C 1930.2,3287.81 1943.86,3287.48 1957.5,3286C 1999.94,3273.88 2020.44,3245.71 2019,3201.5C 2018.29,3198.27 2017.46,3195.1 2016.5,3192C 2017.42,3191.72 2018.08,3191.22 2018.5,3190.5 Z"/></g>
<g><path style="opacity:1" fill="#6f5745" d="M 2315.5,3194.5 C 2316.5,3194.41 2317.33,3194.75 2318,3195.5C 2326.98,3206.65 2336.14,3217.65 2345.5,3228.5C 2309.31,3255.19 2272.97,3281.69 2236.5,3308C 2235.5,3308.67 2234.5,3308.67 2233.5,3308C 2230.33,3304.83 2227.17,3301.67 2224,3298.5C 2223.33,3297.5 2223.33,3296.5 2224,3295.5C 2254.51,3261.8 2285.01,3228.13 2315.5,3194.5 Z"/></g>
<g><path style="opacity:1" fill="#ad7e40" d="M 1599.5,3198.5 C 1597.94,3200.16 1596.94,3202.16 1596.5,3204.5C 1596.5,3202.17 1596.5,3199.83 1596.5,3197.5C 1597.79,3197.26 1598.79,3197.6 1599.5,3198.5 Z"/></g>
<g><path style="opacity:1" fill="#f5a93a" d="M 1599.5,3198.5 C 1636.52,3200.52 1673.52,3202.86 1710.5,3205.5C 1707.5,3263.87 1703.83,3322.2 1699.5,3380.5C 1661.17,3382.68 1622.84,3384.01 1584.5,3384.5C 1589.16,3324.57 1593.16,3264.57 1596.5,3204.5C 1596.94,3202.16 1597.94,3200.16 1599.5,3198.5 Z"/></g>
<g><path style="opacity:1" fill="#ec583b" d="M 2315.5,3198.5 C 2324.3,3208.14 2332.97,3217.97 2341.5,3228C 2307.17,3253 2272.83,3278 2238.5,3303C 2237.24,3303.98 2235.91,3304.32 2234.5,3304C 2232.17,3301.67 2229.83,3299.33 2227.5,3297C 2257.04,3264.3 2286.37,3231.46 2315.5,3198.5 Z"/></g>
<g><path style="opacity:1" fill="#715c47" d="M 1468.5,3223.5 C 1489.79,3225.72 1511.13,3227.72 1532.5,3229.5C 1527.75,3265.82 1523.09,3302.15 1518.5,3338.5C 1500.83,3338.36 1483.16,3338.03 1465.5,3337.5C 1466.99,3299.53 1467.99,3261.53 1468.5,3223.5 Z"/></g>
<g><path style="opacity:1" fill="#b09875" d="M 1476.5,3227.5 C 1475.17,3227.5 1473.83,3227.5 1472.5,3227.5C 1472.8,3230.06 1472.47,3232.39 1471.5,3234.5C 1471.5,3231.83 1471.5,3229.17 1471.5,3226.5C 1473.41,3226.22 1475.08,3226.55 1476.5,3227.5 Z"/></g>
<g><path style="opacity:1" fill="#f5d9a8" d="M 1476.5,3227.5 C 1493.79,3229.57 1511.13,3231.24 1528.5,3232.5C 1524.01,3266.45 1519.84,3300.45 1516,3334.5C 1500.57,3335.42 1485.07,3335.42 1469.5,3334.5C 1469.86,3301.16 1470.52,3267.83 1471.5,3234.5C 1472.47,3232.39 1472.8,3230.06 1472.5,3227.5C 1473.83,3227.5 1475.17,3227.5 1476.5,3227.5 Z"/></g>
<g><path style="opacity:1" fill="#57a39f" d="M 1287.5,3231.5 C 1317.17,3232.33 1344.83,3240.17 1370.5,3255C 1346.79,3272.71 1327.29,3294.21 1312,3319.5C 1306.27,3332.3 1304.27,3345.63 1306,3359.5C 1259.53,3408.97 1212.7,3458.14 1165.5,3507C 1198.15,3509.45 1230.82,3511.62 1263.5,3513.5C 1261.16,3549.51 1258.66,3585.51 1256,3621.5C 1249.83,3626.33 1244.33,3631.83 1239.5,3638C 1236.53,3638.71 1234.03,3637.88 1232,3635.5C 1228.32,3631.14 1225.99,3626.14 1225,3620.5C 1223.55,3631.62 1217.38,3638.79 1206.5,3642C 1177.34,3650.91 1148.01,3659.25 1118.5,3667C 1084.89,3667.46 1056.72,3655.3 1034,3630.5C 1024.72,3618.7 1021.38,3605.37 1024,3590.5C 1028.2,3575.76 1034.36,3561.76 1042.5,3548.5C 1038.1,3548.56 1033.44,3548.4 1028.5,3548C 1021.64,3545.99 1019.81,3541.82 1023,3535.5C 1028.67,3531.17 1033.67,3526.17 1038,3520.5C 1038.67,3518.5 1038.67,3516.5 1038,3514.5C 1005.41,3497.01 985.742,3470.01 979,3433.5C 976.616,3419.22 976.116,3404.88 977.5,3390.5C 995.969,3396.1 1014.3,3402.1 1032.5,3408.5C 1025.94,3387.66 1019.27,3366.82 1012.5,3346C 1025.46,3327.92 1038.8,3310.08 1052.5,3292.5C 1048.54,3291.67 1044.54,3291.17 1040.5,3291C 1106.1,3250.61 1176.77,3237.61 1252.5,3252C 1257.17,3252.67 1261.83,3252.67 1266.5,3252C 1268.02,3249.4 1268.85,3246.57 1269,3243.5C 1269.79,3241.41 1270.96,3239.58 1272.5,3238C 1277.14,3234.74 1282.14,3232.57 1287.5,3231.5 Z"/></g>
<g><path style="opacity:1" fill="#f7bf58" d="M 1009.5,3293.5 C 1022.68,3293.17 1035.68,3293.5 1048.5,3294.5C 1034.98,3311.04 1022.31,3328.21 1010.5,3346C 1017.13,3365.4 1023.47,3384.9 1029.5,3404.5C 1028.64,3405.58 1027.64,3405.75 1026.5,3405C 1007.63,3398.38 988.801,3391.54 970,3384.5C 952.519,3396.48 935.352,3408.82 918.5,3421.5C 917.513,3416.69 917.179,3411.69 917.5,3406.5C 917.484,3390.15 917.651,3373.81 918,3357.5C 900.833,3345 883.667,3332.5 866.5,3320C 886.73,3313.62 907.063,3307.62 927.5,3302C 934.328,3281.52 941.161,3261.02 948,3240.5C 960.167,3258 972.333,3275.5 984.5,3293C 992.827,3293.5 1001.16,3293.67 1009.5,3293.5 Z"/></g>
<g><path style="opacity:1" fill="#a48b62" d="M 1395.5,3241.5 C 1396.82,3244.43 1397.49,3247.76 1397.5,3251.5C 1394.17,3292.79 1391.5,3334.12 1389.5,3375.5C 1392.65,3375.05 1395.15,3376.05 1397,3378.5C 1413.51,3408.85 1427.84,3440.18 1440,3472.5C 1443.29,3482.33 1445.96,3492.33 1448,3502.5C 1448.67,3509.5 1448.67,3516.5 1448,3523.5C 1447,3525.5 1446,3527.5 1445,3529.5C 1438.33,3537.5 1431.67,3545.5 1425,3553.5C 1426.93,3528.56 1421.6,3505.22 1409,3483.5C 1402.1,3472.6 1394.44,3462.27 1386,3452.5C 1364.93,3431.44 1344.6,3409.77 1325,3387.5C 1320.16,3380.5 1315.83,3373.16 1312,3365.5C 1307.21,3352.41 1307.54,3339.41 1313,3326.5C 1323.35,3305.47 1337.51,3287.3 1355.5,3272C 1368.45,3261.2 1381.78,3251.04 1395.5,3241.5 Z"/></g>
<g><path style="opacity:1" fill="#4e535f" d="M 941.5,3249.5 C 942.097,3249.74 942.43,3250.24 942.5,3251C 937.263,3267.54 931.929,3284.04 926.5,3300.5C 918.669,3302.08 911.003,3304.25 903.5,3307C 901.833,3307.67 900.167,3307.67 898.5,3307C 913.46,3288.22 927.793,3269.05 941.5,3249.5 Z"/></g>
<g><path style="opacity:1" fill="#c58f5f" d="M 1710.5,3256.5 C 1712.61,3257.39 1714.61,3258.56 1716.5,3260C 1724.38,3262.83 1731.54,3261.67 1738,3256.5C 1743.44,3272.49 1754.28,3282.99 1770.5,3288C 1791.2,3293.29 1811.54,3292.13 1831.5,3284.5C 1831.83,3284.83 1832.17,3285.17 1832.5,3285.5C 1829.55,3292.5 1827.55,3299.66 1826.5,3307C 1825.89,3312.77 1827.55,3317.77 1831.5,3322C 1816.26,3329.29 1808.09,3341.46 1807,3358.5C 1803.99,3379.77 1807.66,3399.77 1818,3418.5C 1818.5,3441.86 1825.17,3463.2 1838,3482.5C 1843.24,3488.41 1849.07,3493.58 1855.5,3498C 1885.67,3507.51 1902.84,3528.01 1907,3559.5C 1907.52,3564.21 1907.85,3568.88 1908,3573.5C 1904.94,3575.28 1901.78,3576.95 1898.5,3578.5C 1880.17,3521.75 1846.84,3510.92 1798.5,3546C 1779.17,3565.32 1761.34,3585.82 1745,3607.5C 1726.83,3628.14 1705.66,3644.81 1681.5,3657.5C 1677.65,3680.25 1673.49,3702.92 1669,3725.5C 1631.78,3684.3 1597.62,3640.8 1566.5,3595C 1556.23,3587.9 1544.89,3585.57 1532.5,3588C 1520.73,3590.38 1509.73,3594.72 1499.5,3601C 1450.83,3634.83 1429,3681.33 1434,3740.5C 1437.53,3760.6 1444.7,3779.27 1455.5,3796.5C 1435.44,3801.74 1418.94,3812.41 1406,3828.5C 1401.83,3834.67 1398.33,3841.17 1395.5,3848C 1387.31,3846.55 1378.97,3846.22 1370.5,3847C 1367.31,3847.2 1364.31,3848.03 1361.5,3849.5C 1356.67,3841.53 1350.67,3834.53 1343.5,3828.5C 1341.29,3793.09 1346.46,3758.76 1359,3725.5C 1379.79,3670.87 1409.46,3621.87 1448,3578.5C 1474.46,3548.03 1503.96,3521.2 1536.5,3498C 1553.11,3486.53 1570.77,3476.86 1589.5,3469C 1611.61,3463.31 1631.95,3453.97 1650.5,3441C 1668.64,3426.76 1674.64,3408.59 1668.5,3386.5C 1669.38,3385.75 1670.38,3385.25 1671.5,3385C 1681.85,3384.7 1692.19,3384.2 1702.5,3383.5C 1705.52,3341.19 1708.19,3298.86 1710.5,3256.5 Z"/></g>
<g><path style="opacity:1" fill="#6d5844" d="M 1646.5,3276.5 C 1651.5,3276.5 1656.5,3276.5 1661.5,3276.5C 1660.46,3291.5 1659.46,3306.5 1658.5,3321.5C 1649.18,3320.77 1639.85,3320.43 1630.5,3320.5C 1630.5,3306.17 1630.5,3291.83 1630.5,3277.5C 1636.03,3277.82 1641.36,3277.49 1646.5,3276.5 Z"/></g>
<g><path style="opacity:1" fill="#ae8a4e" d="M 1646.5,3280.5 C 1650.3,3279.52 1654.3,3279.18 1658.5,3279.5C 1658.77,3281.1 1658.43,3282.43 1657.5,3283.5C 1657.5,3282.5 1657.5,3281.5 1657.5,3280.5C 1653.83,3280.5 1650.17,3280.5 1646.5,3280.5 Z"/></g>
<g><path style="opacity:1" fill="#f3be58" d="M 1646.5,3280.5 C 1650.17,3280.5 1653.83,3280.5 1657.5,3280.5C 1657.5,3281.5 1657.5,3282.5 1657.5,3283.5C 1657.26,3295.19 1656.59,3306.86 1655.5,3318.5C 1648.47,3318.01 1641.47,3317.34 1634.5,3316.5C 1633.5,3304.52 1633.17,3292.52 1633.5,3280.5C 1637.83,3280.5 1642.17,3280.5 1646.5,3280.5 Z"/></g>
<g><path style="opacity:1" fill="#6d5745" d="M 2373.5,3288.5 C 2375.05,3289.23 2375.88,3290.56 2376,3292.5C 2376.37,3302.51 2376.87,3312.51 2377.5,3322.5C 2377.47,3325.09 2377.14,3327.59 2376.5,3330C 2335.86,3339.6 2295.19,3349.1 2254.5,3358.5C 2252.21,3356.61 2250.37,3354.27 2249,3351.5C 2247.96,3348.59 2246.8,3345.76 2245.5,3343C 2288.03,3324.33 2330.7,3306.16 2373.5,3288.5 Z"/></g>
<g><path style="opacity:1" fill="#b18a4e" d="M 1009.5,3293.5 C 1022.67,3292.17 1036.01,3292.17 1049.5,3293.5C 1049.38,3294.11 1049.04,3294.44 1048.5,3294.5C 1035.68,3293.5 1022.68,3293.17 1009.5,3293.5 Z"/></g>
<g><path style="opacity:1" fill="#eb583b" d="M 2371.5,3292.5 C 2372.12,3292.61 2372.62,3292.94 2373,3293.5C 2373.59,3304.2 2374.42,3314.86 2375.5,3325.5C 2375.17,3326.17 2374.83,3326.83 2374.5,3327.5C 2335.03,3336.91 2295.53,3346.24 2256,3355.5C 2255.23,3355.36 2254.56,3355.02 2254,3354.5C 2252.77,3351.05 2251.27,3347.71 2249.5,3344.5C 2290.15,3326.96 2330.82,3309.62 2371.5,3292.5 Z"/></g>
<g><path style="opacity:1" fill="#61aaad" d="M 2208.5,3321.5 C 2209.59,3321.62 2210.25,3322.29 2210.5,3323.5C 2203.69,3352.45 2190.53,3378.12 2171,3400.5C 2145.28,3429.22 2116.78,3454.72 2085.5,3477C 2030.92,3513.97 1973.26,3545.8 1912.5,3572.5C 1910.91,3562.82 1909.08,3553.16 1907,3543.5C 1902.65,3529.98 1895.15,3518.48 1884.5,3509C 1873.59,3502.81 1862.59,3496.81 1851.5,3491C 1832.54,3472.57 1822.7,3450.07 1822,3423.5C 1828.35,3431.51 1836.18,3437.68 1845.5,3442C 1871.72,3452.8 1898.39,3454.13 1925.5,3446C 1933.07,3442.63 1939.9,3438.13 1946,3432.5C 1948.87,3441.02 1954.7,3443.85 1963.5,3441C 1971.09,3435.93 1974.26,3428.77 1973,3419.5C 2004.54,3426.07 2028.54,3415.4 2045,3387.5C 2045.67,3383.83 2045.67,3380.17 2045,3376.5C 2044.53,3375.07 2043.7,3373.9 2042.5,3373C 2050.41,3371.82 2057.75,3369.16 2064.5,3365C 2066.35,3363.32 2068.02,3361.48 2069.5,3359.5C 2108.57,3357.33 2146.24,3349.16 2182.5,3335C 2191.46,3330.97 2200.13,3326.47 2208.5,3321.5 Z"/></g>
<g><path style="opacity:1" fill="#4d535f" d="M 878.5,3332.5 C 891.377,3340.53 903.877,3349.2 916,3358.5C 915.812,3380.83 915.812,3403.16 916,3425.5C 933.255,3413.12 950.422,3400.62 967.5,3388C 969.769,3387.24 971.936,3387.41 974,3388.5C 968.519,3433.4 981.685,3471.57 1013.5,3503C 1020.56,3508.08 1027.56,3513.08 1034.5,3518C 1034.14,3519.22 1033.64,3520.39 1033,3521.5C 1028.37,3525.13 1024.03,3529.13 1020,3533.5C 1016.58,3539.33 1017.41,3544.49 1022.5,3549C 1026.95,3550.88 1031.62,3552.05 1036.5,3552.5C 1006.68,3602.2 1018.34,3638.7 1071.5,3662C 1077.17,3663.84 1082.84,3665.84 1088.5,3668C 1102.18,3671.28 1115.85,3671.28 1129.5,3668C 1156.89,3660.25 1184.22,3652.25 1211.5,3644C 1217.13,3641.35 1221.79,3637.52 1225.5,3632.5C 1227.7,3636.86 1231.03,3640.03 1235.5,3642C 1205.79,3676.6 1189.63,3716.77 1187,3762.5C 1142.69,3748.96 1101.19,3754.79 1062.5,3780C 1045.27,3791.9 1029.93,3805.9 1016.5,3822C 990.313,3817.7 964.313,3818.7 938.5,3825C 885.4,3842.69 860.234,3879.52 863,3935.5C 866.196,3954.52 875.696,3969.52 891.5,3980.5C 898.574,3994.41 908.407,4006.08 921,4015.5C 928.386,4031.73 940.886,4040.73 958.5,4042.5C 964.8,4042.47 970.634,4040.8 976,4037.5C 999.651,4052.46 1025.15,4062.96 1052.5,4069C 1060.15,4069.99 1067.82,4070.82 1075.5,4071.5C 1112.49,4122 1162.49,4147.66 1225.5,4148.5C 1240.39,4148.59 1255.06,4146.92 1269.5,4143.5C 1270.61,4158.27 1278.61,4165.27 1293.5,4164.5C 1287.13,4203.56 1298.46,4236.39 1327.5,4263C 1348.21,4280.18 1371.87,4286.51 1398.5,4282C 1416.54,4276.62 1427.71,4264.79 1432,4246.5C 1443.75,4258.11 1455.75,4258.44 1468,4247.5C 1470.19,4244.45 1471.86,4241.11 1473,4237.5C 1488.17,4259.84 1508.01,4265.34 1532.5,4254C 1536.61,4251.19 1540.44,4248.02 1544,4244.5C 1544.77,4265.36 1552.6,4283.03 1567.5,4297.5C 1463.17,4372.37 1353.5,4439.2 1238.5,4498C 826.167,4498.5 413.833,4498.67 1.5,4498.5C 1.33334,4400.5 1.5,4302.5 2,4204.5C 159.906,4090 308.406,3963.5 447.5,3825C 602.848,3670.04 746.514,3505.88 878.5,3332.5 Z"/></g>
<g><path style="opacity:1" fill="#5a9d98" d="M 2211.5,3333.5 C 2225.74,3412.32 2255.24,3484.99 2300,3551.5C 2306.09,3560.01 2312.42,3568.35 2319,3576.5C 2318.19,3595.84 2316.69,3615.18 2314.5,3634.5C 2278.42,3569.35 2242.09,3504.35 2205.5,3439.5C 2192.48,3460.02 2176.15,3477.52 2156.5,3492C 2125.47,3513.69 2092.47,3532.02 2057.5,3547C 1978.12,3580.24 1896.45,3607.24 1812.5,3628C 1781.64,3636.13 1750.64,3643.13 1719.5,3649C 1813.83,3619.24 1905.16,3581.9 1993.5,3537C 2048.17,3508.85 2098.5,3474.51 2144.5,3434C 2168.93,3411.59 2188.76,3385.75 2204,3356.5C 2207,3349.01 2209.5,3341.34 2211.5,3333.5 Z"/></g>
<g><path style="opacity:1" fill="#f2985a" d="M 1306.5,3363.5 C 1312.06,3374.28 1318.39,3384.61 1325.5,3394.5C 1315.32,3433.57 1304.98,3472.57 1294.5,3511.5C 1292.5,3511.83 1290.5,3512.17 1288.5,3512.5C 1250.13,3510 1211.8,3507.16 1173.5,3504C 1218.4,3457.6 1262.74,3410.77 1306.5,3363.5 Z"/></g>
<g><path style="opacity:1" fill="#f59b58" d="M 1399.5,3377.5 C 1401.47,3376.84 1403.64,3376.5 1406,3376.5C 1465.66,3380.63 1525.32,3384.63 1585,3388.5C 1593.83,3387.71 1602.66,3387.54 1611.5,3388C 1582.39,3410.11 1556.22,3435.28 1533,3463.5C 1522.55,3477.08 1516.55,3492.41 1515,3509.5C 1468.33,3547.24 1428.83,3591.24 1396.5,3641.5C 1395.72,3640.27 1395.22,3638.94 1395,3637.5C 1393.04,3621.98 1395.7,3607.32 1403,3593.5C 1415.55,3571.06 1430.55,3550.4 1448,3531.5C 1450.78,3526.19 1452.28,3520.52 1452.5,3514.5C 1450.3,3494.46 1445.47,3475.13 1438,3456.5C 1426.84,3429.46 1414.01,3403.13 1399.5,3377.5 Z"/></g>
<g><path style="opacity:1" fill="#d19351" d="M 1645.5,3385.5 C 1651.83,3385.5 1658.17,3385.5 1664.5,3385.5C 1669.39,3399.07 1668.22,3412.07 1661,3424.5C 1649.74,3438.08 1635.91,3448.24 1619.5,3455C 1583.21,3465.48 1550.21,3482.31 1520.5,3505.5C 1519.6,3496.17 1521.77,3487.5 1527,3479.5C 1533.56,3468.94 1540.89,3458.94 1549,3449.5C 1570.34,3427.15 1593.18,3406.65 1617.5,3388C 1627.02,3387.58 1636.36,3386.75 1645.5,3385.5 Z"/></g>
<g><path style="opacity:1" fill="#6c5746" d="M 2356.5,3388.5 C 2359.17,3388.5 2361.83,3388.5 2364.5,3388.5C 2362.96,3398.19 2361.3,3407.85 2359.5,3417.5C 2331.84,3415.37 2304.18,3413.37 2276.5,3411.5C 2275.67,3406.19 2275,3400.86 2274.5,3395.5C 2301.99,3393.36 2329.33,3391.03 2356.5,3388.5 Z"/></g>
<g><path style="opacity:1" fill="#e9583b" d="M 2357.5,3391.5 C 2358.83,3391.5 2360.17,3391.5 2361.5,3391.5C 2360.32,3398.89 2358.82,3406.23 2357,3413.5C 2330.89,3412.57 2304.73,3410.9 2278.5,3408.5C 2278.6,3405.78 2278.27,3403.11 2277.5,3400.5C 2277.82,3399.35 2278.48,3398.52 2279.5,3398C 2305.68,3396.15 2331.68,3393.99 2357.5,3391.5 Z"/></g>
<g><path style="opacity:1" fill="#5a9d98" d="M 1327.5,3397.5 C 1345.75,3415.92 1363.92,3434.59 1382,3453.5C 1395.81,3468.31 1406.81,3484.98 1415,3503.5C 1421.75,3522.07 1423.42,3541.07 1420,3560.5C 1406.38,3577.07 1397.05,3595.74 1392,3616.5C 1390.99,3626.44 1391.49,3636.27 1393.5,3646C 1391.22,3650.73 1388.55,3655.23 1385.5,3659.5C 1357.23,3673.57 1327.23,3681.4 1295.5,3683C 1282.15,3683.99 1268.81,3684.16 1255.5,3683.5C 1258.86,3627.15 1262.52,3570.81 1266.5,3514.5C 1276.86,3515.13 1287.19,3515.13 1297.5,3514.5C 1307.66,3475.51 1317.66,3436.51 1327.5,3397.5 Z"/></g>
<g><path style="opacity:1" fill="#af894e" d="M 917.5,3406.5 C 917.179,3411.69 917.513,3416.69 918.5,3421.5C 918.44,3422.04 918.107,3422.38 917.5,3422.5C 916.185,3417.01 916.185,3411.68 917.5,3406.5 Z"/></g>
<g><path style="opacity:1" fill="#f2e5cb" d="M 2247.5,3447.5 C 2279.05,3447.9 2308.05,3457.07 2334.5,3475C 2363.33,3495.5 2387,3520.83 2405.5,3551C 2439.8,3550.16 2472.8,3556.16 2504.5,3569C 2559.75,3597 2583.92,3641.84 2577,3703.5C 2565.67,3748.94 2536.5,3770.11 2489.5,3767C 2464.86,3762.35 2443.52,3751.35 2425.5,3734C 2406.19,3715.03 2390.36,3693.53 2378,3669.5C 2367.78,3694.05 2350.95,3712.55 2327.5,3725C 2322.63,3726.97 2317.63,3728.47 2312.5,3729.5C 2313.88,3704.5 2315.38,3679.5 2317,3654.5C 2316.95,3650.34 2317.78,3646.51 2319.5,3643C 2318.87,3641.26 2318.54,3639.43 2318.5,3637.5C 2320.36,3616.51 2321.52,3595.51 2322,3574.5C 2291.54,3535.59 2266.7,3493.26 2247.5,3447.5 Z"/></g>
<g><path style="opacity:1" fill="#f5a93a" d="M 2204.5,3446.5 C 2207.13,3449.08 2209.3,3452.08 2211,3455.5C 2244.71,3516.41 2278.54,3577.25 2312.5,3638C 2211.12,3618.32 2109.79,3597.99 2008.5,3577C 2005.67,3576.3 2003.01,3575.3 2000.5,3574C 2048.58,3556.13 2094.91,3534.13 2139.5,3508C 2159.76,3495.41 2177.93,3480.24 2194,3462.5C 2198.14,3457.54 2201.64,3452.2 2204.5,3446.5 Z"/></g>
<g><path style="opacity:1" fill="#6f5b46" d="M 1335.5,3498.5 C 1343.3,3498.13 1348.14,3501.79 1350,3509.5C 1354.71,3528.91 1354.38,3548.24 1349,3567.5C 1346.62,3573.76 1343.12,3579.26 1338.5,3584C 1330.83,3585.35 1326,3582.19 1324,3574.5C 1319.73,3556.97 1319.4,3539.3 1323,3521.5C 1325.1,3512.62 1329.27,3504.95 1335.5,3498.5 Z"/></g>
<g><path style="opacity:1" fill="#f1b030" d="M 1336.5,3502.5 C 1341.05,3502.2 1344.21,3504.2 1346,3508.5C 1353.16,3532.37 1351.16,3555.37 1340,3577.5C 1336.95,3581.01 1333.62,3581.34 1330,3578.5C 1325.16,3569.1 1322.99,3559.1 1323.5,3548.5C 1323.27,3533.66 1326.43,3519.66 1333,3506.5C 1334.38,3505.29 1335.54,3503.96 1336.5,3502.5 Z"/></g>
<g><path style="opacity:1" fill="#5a9d98" d="M 1842.5,3528.5 C 1855.31,3527.99 1866.15,3532.33 1875,3541.5C 1883.63,3551.42 1889.63,3562.75 1893,3575.5C 1893.74,3577.44 1893.58,3579.27 1892.5,3581C 1829.95,3607.85 1765.95,3631.19 1700.5,3651C 1718.78,3638.73 1735.28,3624.23 1750,3607.5C 1765.34,3586.82 1782.17,3567.32 1800.5,3549C 1812.88,3538.64 1826.88,3531.81 1842.5,3528.5 Z"/></g>
<g><path style="opacity:1" fill="#6e5a46" d="M 1363.5,3564.5 C 1367.91,3563.62 1371.41,3564.95 1374,3568.5C 1377.48,3575.78 1378.98,3583.44 1378.5,3591.5C 1378.89,3604.14 1376.39,3616.14 1371,3627.5C 1364.39,3634.31 1359.06,3633.31 1355,3624.5C 1352.03,3610.58 1351.7,3596.58 1354,3582.5C 1355.88,3575.74 1359.04,3569.74 1363.5,3564.5 Z"/></g>
<g><path style="opacity:1" fill="#f1b030" d="M 1365.5,3567.5 C 1369.41,3568.24 1371.91,3570.57 1373,3574.5C 1377.48,3592.17 1375.82,3609.17 1368,3625.5C 1365.63,3628.93 1362.97,3629.27 1360,3626.5C 1356.59,3618.38 1355.09,3609.88 1355.5,3601C 1354.9,3588.53 1358.24,3577.37 1365.5,3567.5 Z"/></g>
<g><path style="opacity:1" fill="#f6bf58" d="M 1989.5,3577.5 C 2003.82,3579.93 2018.15,3582.26 2032.5,3584.5C 2031.2,3623.54 2029.2,3662.54 2026.5,3701.5C 2007.86,3698.7 1989.19,3696.04 1970.5,3693.5C 1965.62,3658.6 1961.79,3623.6 1959,3588.5C 1969.44,3585.3 1979.61,3581.63 1989.5,3577.5 Z"/></g>
<g><path style="opacity:1" fill="#af8b4e" d="M 2037.5,3586.5 C 2036.83,3588.5 2036.17,3590.5 2035.5,3592.5C 2035.19,3590.08 2035.53,3587.74 2036.5,3585.5C 2037.11,3585.62 2037.44,3585.96 2037.5,3586.5 Z"/></g>
<g><path style="opacity:1" fill="#f5c058" d="M 2037.5,3586.5 C 2064.89,3591.35 2092.06,3597.01 2119,3603.5C 2117.95,3629.31 2115.45,3654.98 2111.5,3680.5C 2109,3680.83 2106.5,3681.17 2104,3681.5C 2080.49,3679.59 2056.99,3677.59 2033.5,3675.5C 2032.58,3671.94 2032.24,3668.27 2032.5,3664.5C 2033.18,3640.49 2034.18,3616.49 2035.5,3592.5C 2036.17,3590.5 2036.83,3588.5 2037.5,3586.5 Z"/></g>
<g><path style="opacity:1" fill="#d76e51" d="M 1536.5,3590.5 C 1549.88,3588.68 1560.72,3593.01 1569,3603.5C 1580.55,3621.72 1592.89,3639.39 1606,3656.5C 1626.19,3681.54 1646.86,3706.2 1668,3730.5C 1667.18,3741.5 1665.85,3752.5 1664,3763.5C 1660.33,3786.17 1656.67,3808.83 1653,3831.5C 1652.69,3832.31 1652.19,3832.97 1651.5,3833.5C 1614.38,3818.1 1576.05,3806.27 1536.5,3798C 1522.86,3796.17 1509.2,3794.67 1495.5,3793.5C 1483.43,3794.05 1471.43,3794.88 1459.5,3796C 1432.67,3753.77 1429.17,3709.61 1449,3663.5C 1464.17,3633.67 1486.67,3611.17 1516.5,3596C 1523.21,3593.78 1529.88,3591.94 1536.5,3590.5 Z"/></g>
<g><path style="opacity:1" fill="#f5b135" d="M 1992.5,3915.5 C 1992.92,3917.78 1992.26,3919.45 1990.5,3920.5C 1971.11,3917.87 1953.11,3911.37 1936.5,3901C 1872.58,3852.81 1800.91,3822.81 1721.5,3811C 1700.76,3807.77 1680.43,3809.27 1660.5,3815.5C 1659.35,3812.89 1659.18,3810.23 1660,3807.5C 1668.05,3758.52 1675.89,3709.52 1683.5,3660.5C 1698.95,3658.01 1714.29,3655.01 1729.5,3651.5C 1732.49,3675.45 1735.16,3699.45 1737.5,3723.5C 1756.94,3724.03 1773.1,3717.03 1786,3702.5C 1801.98,3681.05 1811.82,3657.05 1815.5,3630.5C 1862.34,3619.17 1908.51,3605.5 1954,3589.5C 1967.53,3698 1980.36,3806.67 1992.5,3915.5 Z"/></g>
<g><path style="opacity:1" fill="#f5c058" d="M 2123.5,3603.5 C 2151.43,3609.42 2179.43,3615.09 2207.5,3620.5C 2204.91,3643.52 2202.25,3666.52 2199.5,3689.5C 2171.51,3687.01 2143.51,3684.68 2115.5,3682.5C 2118.5,3656.2 2121.16,3629.86 2123.5,3603.5 Z"/></g>
<g><path style="opacity:1" fill="#f5a93a" d="M 2211.5,3622.5 C 2245.92,3628.65 2280.26,3635.32 2314.5,3642.5C 2309.21,3719.16 2303.88,3795.82 2298.5,3872.5C 2244.73,3883.66 2190.4,3890.32 2135.5,3892.5C 2122.1,3892.7 2108.77,3891.86 2095.5,3890C 2083.55,3888.57 2072.55,3884.57 2062.5,3878C 2056.46,3868.75 2050.29,3859.58 2044,3850.5C 2028.51,3832.86 2009.01,3824.86 1985.5,3826.5C 1980.35,3783.57 1975.69,3740.57 1971.5,3697.5C 1989.85,3699.19 2008.02,3701.86 2026,3705.5C 2026.01,3727.53 2025.17,3749.53 2023.5,3771.5C 2079.83,3771.5 2136.17,3771.5 2192.5,3771.5C 2198.1,3721.7 2204.43,3672.03 2211.5,3622.5 Z"/></g>
<g><path style="opacity:1" fill="#e0a059" d="M 1254.5,3627.5 C 1255.14,3628.1 1255.47,3628.93 1255.5,3630C 1254.21,3648.53 1252.88,3667.03 1251.5,3685.5C 1297.04,3690.02 1340.71,3683.52 1382.5,3666C 1354.3,3714.96 1339.47,3767.79 1338,3824.5C 1323.35,3814.73 1307.18,3810.07 1289.5,3810.5C 1281.81,3811.09 1274.14,3811.59 1266.5,3812C 1244.59,3791.45 1219.75,3775.29 1192,3763.5C 1192.44,3724.76 1204.1,3689.76 1227,3658.5C 1235.32,3647.35 1244.48,3637.02 1254.5,3627.5 Z"/></g>
<g><path style="opacity:1" fill="#f4c058" d="M 1746.5,3719.5 C 1744.11,3719.74 1742.11,3719.07 1740.5,3717.5C 1738.13,3695.07 1735.63,3672.73 1733,3650.5C 1759,3643.96 1785.16,3637.96 1811.5,3632.5C 1808.33,3655.5 1800.16,3676.5 1787,3695.5C 1779.06,3706.05 1768.9,3713.55 1756.5,3718C 1753.24,3719.04 1749.91,3719.54 1746.5,3719.5 Z"/></g>
<g><path style="opacity:1" fill="#ac884e" d="M 2032.5,3664.5 C 2032.24,3668.27 2032.58,3671.94 2033.5,3675.5C 2032.21,3674.13 2031.55,3672.3 2031.5,3670C 2031.51,3667.97 2031.84,3666.13 2032.5,3664.5 Z"/></g>
<g><path style="opacity:1" fill="#e8ddcc" d="M 2348.5,3796.5 C 2342.54,3797.05 2336.87,3796.38 2331.5,3794.5C 2330.45,3789.8 2327.45,3787.8 2322.5,3788.5C 2316.64,3789.16 2311.81,3791.83 2308,3796.5C 2308.92,3775.51 2310.09,3754.51 2311.5,3733.5C 2342.68,3725.14 2364.85,3706.14 2378,3676.5C 2395.04,3709.06 2418.87,3735.56 2449.5,3756C 2474.68,3770.57 2501.18,3773.74 2529,3765.5C 2521.26,3777.57 2511.09,3787.4 2498.5,3795C 2475.23,3806.93 2453.56,3804.59 2433.5,3788C 2422.2,3777.54 2412.7,3765.7 2405,3752.5C 2395.01,3778.57 2376.17,3793.24 2348.5,3796.5 Z"/></g>
<g><path style="opacity:1" fill="#f5c058" d="M 2103.5,3767.5 C 2077.99,3767.83 2052.66,3767.5 2027.5,3766.5C 2028.37,3737.14 2029.7,3707.81 2031.5,3678.5C 2058.14,3681.15 2084.81,3683.48 2111.5,3685.5C 2108.57,3712.8 2105.9,3740.14 2103.5,3767.5 Z"/></g>
<g><path style="opacity:1" fill="#ad894e" d="M 2119.5,3686.5 C 2118.17,3686.5 2116.83,3686.5 2115.5,3686.5C 2115.77,3688.1 2115.43,3689.43 2114.5,3690.5C 2114.5,3688.83 2114.5,3687.17 2114.5,3685.5C 2116.41,3685.22 2118.08,3685.55 2119.5,3686.5 Z"/></g>
<g><path style="opacity:1" fill="#f5c058" d="M 2119.5,3686.5 C 2145.82,3688.73 2172.15,3690.73 2198.5,3692.5C 2195.72,3717.86 2192.72,3743.19 2189.5,3768.5C 2184.17,3768.5 2178.83,3768.5 2173.5,3768.5C 2151.67,3767.5 2129.67,3767.17 2107.5,3767.5C 2107.5,3766.17 2107.5,3764.83 2107.5,3763.5C 2109.5,3739.13 2111.84,3714.79 2114.5,3690.5C 2115.43,3689.43 2115.77,3688.1 2115.5,3686.5C 2116.83,3686.5 2118.17,3686.5 2119.5,3686.5 Z"/></g>
<g><path style="opacity:1" fill="#af8b4e" d="M 1740.5,3717.5 C 1742.11,3719.07 1744.11,3719.74 1746.5,3719.5C 1744.74,3720.46 1742.74,3720.79 1740.5,3720.5C 1740.5,3719.5 1740.5,3718.5 1740.5,3717.5 Z"/></g>
<g><path style="opacity:1" fill="#725a45" d="M 1480.5,3721.5 C 1503.15,3719.65 1513.65,3729.99 1512,3752.5C 1505.27,3768.94 1493.44,3774.11 1476.5,3768C 1464.97,3760.36 1461.13,3749.86 1465,3736.5C 1468.36,3729.58 1473.52,3724.58 1480.5,3721.5 Z"/></g>
<g><path style="opacity:1" fill="#f3bf58" d="M 1485.5,3724.5 C 1499.74,3724.41 1507.74,3731.41 1509.5,3745.5C 1507.97,3758.03 1500.97,3765.36 1488.5,3767.5C 1475.74,3765.91 1468.41,3758.74 1466.5,3746C 1468.14,3734.54 1474.47,3727.37 1485.5,3724.5 Z"/></g>
<g><path style="opacity:1" fill="#745a45" d="M 1588.5,3734.5 C 1608.62,3733.12 1618.45,3742.45 1618,3762.5C 1612.45,3778.19 1601.62,3783.69 1585.5,3779C 1569.44,3768.15 1567.44,3755.15 1579.5,3740C 1582.56,3738.14 1585.56,3736.31 1588.5,3734.5 Z"/></g>
<g><path style="opacity:1" fill="#715a45" d="M 1890.5,3734.5 C 1920.31,3732.81 1934.14,3746.81 1932,3776.5C 1923.54,3797.15 1908.37,3804.65 1886.5,3799C 1868.73,3789.53 1862.56,3775.03 1868,3755.5C 1872.54,3745.13 1880.04,3738.13 1890.5,3734.5 Z"/></g>
<g><path style="opacity:1" fill="#f4c058" d="M 1892.5,3737.5 C 1918,3736.83 1930.16,3749.16 1929,3774.5C 1922.92,3791.79 1910.75,3799.29 1892.5,3797C 1875.2,3790.91 1867.7,3778.74 1870,3760.5C 1873.68,3748.98 1881.18,3741.32 1892.5,3737.5 Z"/></g>
<g><path style="opacity:1" fill="#f3bf58" d="M 1591.5,3737.5 C 1608.51,3738.01 1616.01,3746.68 1614,3763.5C 1605.95,3778.29 1594.95,3780.96 1581,3771.5C 1571.3,3756.1 1574.8,3744.76 1591.5,3737.5 Z"/></g>
<g><path style="opacity:1" fill="#f2e5cb" d="M 1129.5,3757.5 C 1160.61,3755.69 1189.61,3762.53 1216.5,3778C 1234.09,3788.63 1250.42,3800.97 1265.5,3815C 1278.76,3813.59 1292.09,3813.26 1305.5,3814C 1329.71,3818.35 1347.88,3831.18 1360,3852.5C 1378.37,3844.99 1395.04,3847.65 1410,3860.5C 1413.89,3864.95 1416.72,3869.95 1418.5,3875.5C 1476.5,3866.16 1515.83,3888.82 1536.5,3943.5C 1560.44,3937.48 1584.11,3938.31 1607.5,3946C 1620.09,3951.59 1628.92,3960.75 1634,3973.5C 1637.31,3984.36 1638.31,3995.36 1637,4006.5C 1633,4017.83 1625.17,4025 1613.5,4028C 1601.22,4029.56 1588.88,4029.89 1576.5,4029C 1560.58,4026.6 1544.91,4023.1 1529.5,4018.5C 1494.96,4029.97 1462.3,4026.14 1431.5,4007C 1420.18,3998.19 1410.85,3987.69 1403.5,3975.5C 1394.77,3983.19 1385.11,3989.36 1374.5,3994C 1357.06,3999.08 1343.23,3994.24 1333,3979.5C 1331.32,3975.47 1329.16,3971.8 1326.5,3968.5C 1309.86,3973.7 1293.19,3974.2 1276.5,3970C 1252.23,3960.04 1239.07,3941.88 1237,3915.5C 1229.57,3935.11 1220.24,3953.78 1209,3971.5C 1200.55,3984.28 1189.39,3993.78 1175.5,4000C 1163.13,4003.1 1151.46,4001.43 1140.5,3995C 1135.36,3991.36 1130.36,3987.52 1125.5,3983.5C 1098.47,3987.53 1074.14,3981.37 1052.5,3965C 1039.84,3952.99 1031.34,3938.49 1027,3921.5C 1014.92,3939.58 1000.08,3955.08 982.5,3968C 961.899,3983.2 938.899,3989.2 913.5,3986C 887.277,3980.09 871.444,3963.92 866,3937.5C 861.432,3888.13 881.599,3852.97 926.5,3832C 951.004,3823.19 976.337,3820.19 1002.5,3823C 1007.36,3823.93 1012.19,3824.77 1017,3825.5C 1045.89,3788.42 1083.39,3765.76 1129.5,3757.5 Z"/></g>
<g><path style="opacity:1" fill="#e1d4c5" d="M 2404.5,3758.5 C 2414.23,3773.4 2426.23,3786.24 2440.5,3797C 2455.6,3805.49 2471.6,3807.82 2488.5,3804C 2479.96,3814.56 2469.29,3821.89 2456.5,3826C 2443.37,3828.01 2431.7,3824.84 2421.5,3816.5C 2415.27,3819.45 2408.94,3822.11 2402.5,3824.5C 2400.67,3818.51 2398.83,3812.51 2397,3806.5C 2395.54,3802.74 2393.04,3799.91 2389.5,3798C 2382.7,3797.25 2376.03,3796.25 2369.5,3795C 2386.51,3787.83 2398.17,3775.66 2404.5,3758.5 Z"/></g>
<g><path style="opacity:1" fill="#b18c4e" d="M 2027.5,3766.5 C 2052.66,3767.5 2077.99,3767.83 2103.5,3767.5C 2078,3768.83 2052.33,3768.83 2026.5,3767.5C 2026.62,3766.89 2026.96,3766.56 2027.5,3766.5 Z"/></g>
<g><path style="opacity:1" fill="#b18c4e" d="M 2107.5,3763.5 C 2107.5,3764.83 2107.5,3766.17 2107.5,3767.5C 2129.67,3767.17 2151.67,3767.5 2173.5,3768.5C 2151.17,3768.5 2128.83,3768.5 2106.5,3768.5C 2106.22,3766.59 2106.55,3764.92 2107.5,3763.5 Z"/></g>
<g><path style="opacity:1" fill="#62aab0" d="M 2359.5,4015.5 C 2352.66,4014.83 2345.66,4014.17 2338.5,4013.5C 2327.09,3995.59 2312.75,3980.42 2295.5,3968C 2299.48,3912.84 2303.48,3857.68 2307.5,3802.5C 2311.18,3796.64 2316.35,3792.98 2323,3791.5C 2328.5,3792.71 2329.67,3795.54 2326.5,3800C 2328.62,3801.19 2330.96,3801.86 2333.5,3802C 2344.82,3801.28 2356.15,3800.45 2367.5,3799.5C 2374.64,3799.25 2381.64,3800.09 2388.5,3802C 2389.93,3802.47 2391.1,3803.3 2392,3804.5C 2393.53,3807.42 2394.86,3810.42 2396,3813.5C 2397.03,3821.13 2397.86,3828.8 2398.5,3836.5C 2404.4,3838 2410.4,3839.16 2416.5,3840C 2417.33,3840.83 2418.17,3841.67 2419,3842.5C 2419.33,3845.5 2419.67,3848.5 2420,3851.5C 2420.83,3852.33 2421.67,3853.17 2422.5,3854C 2432.51,3854.45 2442.51,3854.28 2452.5,3853.5C 2452,3859.34 2450.33,3864.84 2447.5,3870C 2474.65,3872.16 2492.81,3885.99 2502,3911.5C 2504.27,3918.66 2504.94,3925.99 2504,3933.5C 2502.17,3938 2499,3941.17 2494.5,3943C 2489.64,3945.07 2484.64,3946.73 2479.5,3948C 2482.83,3948.33 2486.17,3948.67 2489.5,3949C 2495.06,3950.46 2496.89,3953.96 2495,3959.5C 2493.3,3961.41 2491.8,3963.41 2490.5,3965.5C 2490.72,3966.94 2491.22,3968.27 2492,3969.5C 2508.93,3982.79 2509.76,3996.96 2494.5,4012C 2482.56,4019.19 2469.56,4022.86 2455.5,4023C 2435.19,4024.45 2414.85,4024.78 2394.5,4024C 2383.57,4018.52 2371.9,4015.68 2359.5,4015.5 Z"/></g>
<g><path style="opacity:1" fill="#a99a88" d="M 2331.5,3794.5 C 2336.87,3796.38 2342.54,3797.05 2348.5,3796.5C 2343.02,3797.49 2337.36,3797.82 2331.5,3797.5C 2331.5,3796.5 2331.5,3795.5 2331.5,3794.5 Z"/></g>
<g><path style="opacity:1" fill="#c59d57" d="M 1471.5,3797.5 C 1512.19,3796.62 1551.86,3802.45 1590.5,3815C 1601.84,3819 1613.18,3823 1624.5,3827C 1567.92,3823.19 1518.09,3839.36 1475,3875.5C 1469.64,3873.85 1464.14,3872.69 1458.5,3872C 1446.47,3871.21 1434.47,3871.37 1422.5,3872.5C 1421.56,3872.39 1420.72,3872.06 1420,3871.5C 1415.24,3862.08 1408.41,3854.58 1399.5,3849C 1407.42,3828.08 1421.76,3813.41 1442.5,3805C 1452.19,3802.04 1461.86,3799.54 1471.5,3797.5 Z"/></g>
<g><path style="opacity:1" fill="#62aab0" d="M 2071.5,3996.5 C 2061.47,3997.6 2053.97,4002.6 2049,4011.5C 2018.52,4000.75 1992.52,4007.41 1971,4031.5C 1967.32,4036.86 1963.66,4042.2 1960,4047.5C 1945.01,4041.83 1929.51,4040 1913.5,4042C 1894,4047.77 1883.67,4060.93 1882.5,4081.5C 1883.02,4085.24 1883.85,4088.91 1885,4092.5C 1888.39,4097.06 1892.22,4101.06 1896.5,4104.5C 1902.73,4116.97 1912.4,4125.81 1925.5,4131C 1917.59,4134.39 1909.75,4134.23 1902,4130.5C 1902.9,4134.53 1904.23,4138.53 1906,4142.5C 1907.37,4147.44 1906.2,4151.6 1902.5,4155C 1897.5,4155.33 1892.5,4155.67 1887.5,4156C 1880.42,4159.63 1875.25,4165.13 1872,4172.5C 1869.71,4180.95 1867.04,4189.28 1864,4197.5C 1858.01,4207.25 1849.51,4213.75 1838.5,4217C 1822.68,4219.92 1807.35,4218.25 1792.5,4212C 1781.38,4206.94 1770.38,4201.61 1759.5,4196C 1747.19,4192.56 1740.02,4197.06 1738,4209.5C 1737.67,4218.17 1737.33,4226.83 1737,4235.5C 1736.17,4240.67 1733.67,4244.83 1729.5,4248C 1723.22,4249.54 1717.38,4252.04 1712,4255.5C 1710.18,4258.31 1708.84,4261.31 1708,4264.5C 1707.7,4296.88 1691.53,4316.05 1659.5,4322C 1631.03,4324.3 1604.7,4317.97 1580.5,4303C 1555.33,4286.01 1545.33,4262.68 1550.5,4233C 1549.06,4232.22 1547.72,4232.39 1546.5,4233.5C 1536.1,4252.03 1520.43,4259.2 1499.5,4255C 1487.06,4250.39 1478.39,4241.89 1473.5,4229.5C 1472.68,4228.61 1471.68,4228.28 1470.5,4228.5C 1470.38,4241.77 1463.88,4249.77 1451,4252.5C 1442.29,4251.12 1435.79,4246.62 1431.5,4239C 1430.55,4238.52 1429.55,4238.35 1428.5,4238.5C 1427.98,4256.85 1419.32,4269.68 1402.5,4277C 1362.11,4284.4 1330.94,4270.56 1309,4235.5C 1294.99,4210.82 1291.66,4184.82 1299,4157.5C 1285.65,4164.54 1276.82,4160.71 1272.5,4146C 1273.04,4143.6 1273.71,4141.27 1274.5,4139C 1215.64,4153.78 1161.98,4143.11 1113.5,4107C 1101.05,4096.88 1090.38,4085.22 1081.5,4072C 1098.48,4070.95 1114.82,4067.12 1130.5,4060.5C 1167.4,4074.92 1204.73,4076.08 1242.5,4064C 1251.55,4059.73 1260.05,4054.56 1268,4048.5C 1286.91,4063.53 1308.41,4069.69 1332.5,4067C 1337.59,4066.2 1342.42,4064.7 1347,4062.5C 1369.44,4080.76 1394.94,4092.26 1423.5,4097C 1441.24,4098.91 1458.57,4097.24 1475.5,4092C 1482.51,4088.83 1489.51,4085.66 1496.5,4082.5C 1508.42,4087.98 1520.92,4090.98 1534,4091.5C 1551.72,4090.38 1563.89,4081.55 1570.5,4065C 1591.44,4058.38 1608.11,4046.05 1620.5,4028C 1633.76,4022.23 1640.42,4012.06 1640.5,3997.5C 1639.51,3963.35 1622.18,3943.51 1588.5,3938C 1571.06,3936.89 1553.72,3937.72 1536.5,3940.5C 1527.51,3910.34 1508.51,3889.17 1479.5,3877C 1527.63,3837.21 1582.63,3822.88 1644.5,3834C 1648,3835.5 1651.5,3837 1655,3838.5C 1656.31,3832.53 1657.47,3826.53 1658.5,3820.5C 1677.52,3813.06 1697.19,3810.9 1717.5,3814C 1784.94,3823.51 1847.27,3846.51 1904.5,3883C 1920.35,3895.43 1937.35,3906.1 1955.5,3915C 1975.23,3921.07 1995.23,3926.07 2015.5,3930C 2035.99,3934.5 2052.15,3945.34 2064,3962.5C 2070.05,3973.16 2072.55,3984.49 2071.5,3996.5 Z"/></g>
<g><path style="opacity:1" fill="#f7bf58" d="M 2269.5,3957.5 C 2243.64,3950.55 2218.64,3953.05 2194.5,3965C 2184.34,3969.91 2174.67,3975.58 2165.5,3982C 2156.48,3980.38 2147.31,3979.21 2138,3978.5C 2120.43,3978.8 2105.93,3985.63 2094.5,3999C 2089.71,3997.47 2084.71,3996.64 2079.5,3996.5C 2078.43,3995.57 2077.1,3995.23 2075.5,3995.5C 2075.76,3969.51 2064.76,3950.01 2042.5,3937C 2027.89,3929.97 2012.56,3925.14 1996.5,3922.5C 1993.43,3891.47 1990.09,3860.47 1986.5,3829.5C 2008.3,3828.71 2026.47,3836.37 2041,3852.5C 2046.5,3860.16 2051.5,3868.16 2056,3876.5C 2060.27,3880.77 2065.11,3884.27 2070.5,3887C 2091.63,3893.51 2113.29,3896.35 2135.5,3895.5C 2170.06,3895.28 2204.39,3892.45 2238.5,3887C 2258.51,3883.5 2278.51,3880 2298.5,3876.5C 2297.48,3906.62 2295.15,3936.62 2291.5,3966.5C 2284.6,3962.38 2277.27,3959.38 2269.5,3957.5 Z"/></g>
<g><path style="opacity:1" fill="#b2853d" d="M 1992.5,3915.5 C 1993.46,3917.26 1993.79,3919.26 1993.5,3921.5C 1992.21,3921.74 1991.21,3921.4 1990.5,3920.5C 1992.26,3919.45 1992.92,3917.78 1992.5,3915.5 Z"/></g>
<g><path style="opacity:1" fill="#e8ddcc" d="M 1235.5,3924.5 C 1243.68,3959.38 1265.85,3976.38 1302,3975.5C 1309.71,3975.18 1317.21,3973.85 1324.5,3971.5C 1328.87,3978.37 1333.87,3984.87 1339.5,3991C 1350.81,3999.05 1363.14,4000.72 1376.5,3996C 1386.06,3991.64 1394.89,3986.14 1403,3979.5C 1422.62,4009.59 1450.46,4025.59 1486.5,4027.5C 1501.12,4027.25 1515.45,4025.25 1529.5,4021.5C 1543.78,4024.82 1558.11,4027.99 1572.5,4031C 1585.71,4032.99 1598.87,4032.82 1612,4030.5C 1612.83,4030.83 1613.67,4031.17 1614.5,4031.5C 1591.95,4058.64 1562.95,4069.81 1527.5,4065C 1502.46,4061.87 1478.8,4054.54 1456.5,4043C 1441.52,4044.38 1428.18,4040.55 1416.5,4031.5C 1409.44,4024.7 1405.6,4016.37 1405,4006.5C 1400.15,4018.01 1392.99,4027.85 1383.5,4036C 1370.16,4045.42 1355.49,4048.09 1339.5,4044C 1325.3,4039.24 1312.64,4031.9 1301.5,4022C 1292.56,4024.18 1283.39,4025.35 1274,4025.5C 1254.82,4025.83 1239.32,4018.49 1227.5,4003.5C 1219.08,4017.09 1208.41,4028.59 1195.5,4038C 1174.04,4048.62 1153.21,4047.46 1133,4034.5C 1117.13,4044.24 1100.29,4046.08 1082.5,4040C 1076.32,4037.08 1070.66,4033.41 1065.5,4029C 1049.64,4030.15 1034.64,4027.15 1020.5,4020C 1007.81,4011.47 999.977,3999.64 997,3984.5C 988.045,3995.79 977.545,4005.29 965.5,4013C 948.637,4021.28 932.637,4019.95 917.5,4009C 908.665,4001.51 901.331,3992.84 895.5,3983C 923.816,3993.93 950.816,3991.26 976.5,3975C 995.639,3961.86 1012.14,3946.03 1026,3927.5C 1036.9,3959.72 1059.06,3979.22 1092.5,3986C 1103.83,3986.33 1115.17,3986.67 1126.5,3987C 1152.45,4010.6 1177.62,4009.77 1202,3984.5C 1216.58,3966.33 1227.75,3946.33 1235.5,3924.5 Z"/></g>
<g><path style="opacity:1" fill="#f2e5cb" d="M 2267.5,3958.5 C 2297.85,3968.52 2321.18,3987.36 2337.5,4015C 2344.83,4015.5 2352.16,4015.67 2359.5,4015.5C 2368.39,4017.58 2377.39,4019.75 2386.5,4022C 2422.67,4036.19 2439.17,4062.69 2436,4101.5C 2431.26,4123.08 2418.1,4135.41 2396.5,4138.5C 2382.01,4139.61 2369.01,4135.78 2357.5,4127C 2342.7,4114.87 2330.87,4100.37 2322,4083.5C 2305.91,4115 2280.74,4126 2246.5,4116.5C 2231.76,4128.89 2216.76,4129.39 2201.5,4118C 2193.67,4108.84 2187.5,4098.67 2183,4087.5C 2179.97,4078.18 2177.14,4068.85 2174.5,4059.5C 2168.09,4083.18 2152.76,4094.35 2128.5,4093C 2120.93,4092.09 2113.6,4090.26 2106.5,4087.5C 2102.84,4092 2098.84,4096.16 2094.5,4100C 2085.36,4104.82 2076.36,4104.49 2067.5,4099C 2061.73,4095.06 2056.39,4090.56 2051.5,4085.5C 2045.28,4091.89 2038.61,4097.73 2031.5,4103C 2022.96,4107.35 2013.96,4110.18 2004.5,4111.5C 1987.8,4113.22 1972.13,4110.22 1957.5,4102.5C 1946.97,4104.71 1936.31,4105.71 1925.5,4105.5C 1912.78,4106.79 1901.12,4103.96 1890.5,4097C 1884.76,4090.21 1882.93,4082.37 1885,4073.5C 1889.29,4054.6 1901.12,4044.43 1920.5,4043C 1934.48,4042.33 1947.98,4044.5 1961,4049.5C 1980.8,4013.45 2010.63,4000.95 2050.5,4012C 2055.23,4003.75 2062.23,3998.92 2071.5,3997.5C 2079.2,3996.91 2086.54,3998.24 2093.5,4001.5C 2107.34,3985.72 2124.67,3978.89 2145.5,3981C 2152.18,3982.34 2158.84,3983.34 2165.5,3984C 2188.51,3966.25 2214.51,3956.75 2243.5,3955.5C 2251.65,3955.42 2259.65,3956.42 2267.5,3958.5 Z"/></g>
<g><path style="opacity:1" fill="#816a50" d="M 2269.5,3957.5 C 2268.51,3957.33 2267.84,3957.66 2267.5,3958.5C 2259.65,3956.42 2251.65,3955.42 2243.5,3955.5C 2214.51,3956.75 2188.51,3966.25 2165.5,3984C 2158.84,3983.34 2152.18,3982.34 2145.5,3981C 2124.67,3978.89 2107.34,3985.72 2093.5,4001.5C 2086.54,3998.24 2079.2,3996.91 2071.5,3997.5C 2071.5,3997.17 2071.5,3996.83 2071.5,3996.5C 2074.17,3996.5 2076.83,3996.5 2079.5,3996.5C 2084.71,3996.64 2089.71,3997.47 2094.5,3999C 2105.93,3985.63 2120.43,3978.8 2138,3978.5C 2147.31,3979.21 2156.48,3980.38 2165.5,3982C 2174.67,3975.58 2184.34,3969.91 2194.5,3965C 2218.64,3953.05 2243.64,3950.55 2269.5,3957.5 Z"/></g>
<g><path style="opacity:1" fill="#e1d4c5" d="M 994.5,3990.5 C 1002.48,4011.96 1017.81,4025.13 1040.5,4030C 1048.8,4031.07 1057.13,4031.74 1065.5,4032C 1086.57,4048.57 1109.07,4050.73 1133,4038.5C 1165.93,4055.54 1194.26,4049.87 1218,4021.5C 1221.01,4017 1224.17,4012.67 1227.5,4008.5C 1240.66,4021.74 1256.66,4028.41 1275.5,4028.5C 1284.24,4027.43 1292.91,4026.26 1301.5,4025C 1321.31,4043.94 1344.64,4050.94 1371.5,4046C 1385.92,4039.25 1396.75,4028.75 1404,4014.5C 1408.79,4030.96 1419.63,4040.79 1436.5,4044C 1442.83,4044.33 1449.17,4044.67 1455.5,4045C 1490.21,4063.71 1527.21,4070.54 1566.5,4065.5C 1560.42,4081.39 1548.76,4089.06 1531.5,4088.5C 1519.25,4087.75 1507.58,4084.75 1496.5,4079.5C 1461.42,4098.58 1425.42,4100.42 1388.5,4085C 1373.86,4078.02 1360.19,4069.52 1347.5,4059.5C 1335.76,4065.01 1323.43,4066.84 1310.5,4065C 1294.79,4061.9 1280.63,4055.4 1268,4045.5C 1239.63,4066.66 1207.8,4074.5 1172.5,4069C 1158.18,4066.67 1144.35,4062.84 1131,4057.5C 1109.11,4067.06 1086.28,4070.56 1062.5,4068C 1031.22,4063.02 1002.38,4051.86 976,4034.5C 963.657,4041.33 951.49,4041.16 939.5,4034C 933.756,4028.93 928.756,4023.26 924.5,4017C 937.42,4021.59 950.42,4021.59 963.5,4017C 975.846,4010.5 986.18,4001.66 994.5,3990.5 Z"/></g>
<g><path style="opacity:1" fill="#7a6a57" d="M 2071.5,3996.5 C 2071.5,3996.83 2071.5,3997.17 2071.5,3997.5C 2062.23,3998.92 2055.23,4003.75 2050.5,4012C 2010.63,4000.95 1980.8,4013.45 1961,4049.5C 1947.98,4044.5 1934.48,4042.33 1920.5,4043C 1901.12,4044.43 1889.29,4054.6 1885,4073.5C 1882.93,4082.37 1884.76,4090.21 1890.5,4097C 1901.12,4103.96 1912.78,4106.79 1925.5,4105.5C 1936.31,4105.71 1946.97,4104.71 1957.5,4102.5C 1972.13,4110.22 1987.8,4113.22 2004.5,4111.5C 1999.36,4112.49 1994.03,4112.82 1988.5,4112.5C 1977.52,4112.17 1967.19,4109.51 1957.5,4104.5C 1937.36,4108.82 1917.36,4108.48 1897.5,4103.5C 1896.83,4103.5 1896.5,4103.83 1896.5,4104.5C 1892.22,4101.06 1888.39,4097.06 1885,4092.5C 1883.85,4088.91 1883.02,4085.24 1882.5,4081.5C 1883.67,4060.93 1894,4047.77 1913.5,4042C 1929.51,4040 1945.01,4041.83 1960,4047.5C 1963.66,4042.2 1967.32,4036.86 1971,4031.5C 1992.52,4007.41 2018.52,4000.75 2049,4011.5C 2053.97,4002.6 2061.47,3997.6 2071.5,3996.5 Z"/></g>
<g><path style="opacity:1" fill="#e7ddcc" d="M 2396.5,4139.5 C 2399.55,4139.64 2402.55,4139.3 2405.5,4138.5C 2406.93,4138.73 2407.43,4139.4 2407,4140.5C 2400.83,4148.66 2392.99,4154.49 2383.5,4158C 2373.27,4160.72 2363.93,4158.88 2355.5,4152.5C 2348.48,4145.97 2342.31,4138.63 2337,4130.5C 2327.24,4151.96 2310.74,4159.96 2287.5,4154.5C 2282.93,4155.79 2278.59,4157.62 2274.5,4160C 2260.45,4163.93 2247.78,4161.43 2236.5,4152.5C 2211.98,4162.23 2192.81,4155.9 2179,4133.5C 2177.38,4129.29 2175.38,4125.29 2173,4121.5C 2156.44,4134.86 2138.78,4136.53 2120,4126.5C 2107.05,4136.03 2092.55,4140.2 2076.5,4139C 2066.66,4136.17 2059.16,4130.33 2054,4121.5C 2051.38,4116.59 2049.04,4111.59 2047,4106.5C 2045.12,4116.72 2039.28,4123.55 2029.5,4127C 2016.81,4126.42 2004.48,4128.08 1992.5,4132C 1974.63,4135.53 1956.63,4136.37 1938.5,4134.5C 1920.55,4129.89 1906.89,4119.56 1897.5,4103.5C 1917.36,4108.48 1937.36,4108.82 1957.5,4104.5C 1967.19,4109.51 1977.52,4112.17 1988.5,4112.5C 2013.84,4115.56 2034.84,4107.23 2051.5,4087.5C 2056.78,4093.28 2062.78,4098.12 2069.5,4102C 2077.86,4105.29 2086.19,4105.29 2094.5,4102C 2099.36,4098.13 2103.86,4093.97 2108,4089.5C 2120.07,4094.13 2132.57,4095.63 2145.5,4094C 2159.24,4089.09 2168.91,4079.93 2174.5,4066.5C 2178.34,4080.86 2183.84,4094.53 2191,4107.5C 2205.85,4130.05 2224.51,4133.72 2247,4118.5C 2271.96,4125.96 2293.63,4120.63 2312,4102.5C 2315.58,4097.67 2318.91,4092.67 2322,4087.5C 2330.95,4103.79 2342.79,4117.62 2357.5,4129C 2369.44,4137.38 2382.44,4140.88 2396.5,4139.5 Z"/></g>
<g><path style="opacity:1" fill="#7a6552" d="M 2396.5,4138.5 C 2396.5,4138.83 2396.5,4139.17 2396.5,4139.5C 2382.44,4140.88 2369.44,4137.38 2357.5,4129C 2342.79,4117.62 2330.95,4103.79 2322,4087.5C 2318.91,4092.67 2315.58,4097.67 2312,4102.5C 2293.63,4120.63 2271.96,4125.96 2247,4118.5C 2224.51,4133.72 2205.85,4130.05 2191,4107.5C 2183.84,4094.53 2178.34,4080.86 2174.5,4066.5C 2168.91,4079.93 2159.24,4089.09 2145.5,4094C 2132.57,4095.63 2120.07,4094.13 2108,4089.5C 2103.86,4093.97 2099.36,4098.13 2094.5,4102C 2086.19,4105.29 2077.86,4105.29 2069.5,4102C 2062.78,4098.12 2056.78,4093.28 2051.5,4087.5C 2034.84,4107.23 2013.84,4115.56 1988.5,4112.5C 1994.03,4112.82 1999.36,4112.49 2004.5,4111.5C 2013.96,4110.18 2022.96,4107.35 2031.5,4103C 2038.61,4097.73 2045.28,4091.89 2051.5,4085.5C 2056.39,4090.56 2061.73,4095.06 2067.5,4099C 2076.36,4104.49 2085.36,4104.82 2094.5,4100C 2098.84,4096.16 2102.84,4092 2106.5,4087.5C 2113.6,4090.26 2120.93,4092.09 2128.5,4093C 2152.76,4094.35 2168.09,4083.18 2174.5,4059.5C 2177.14,4068.85 2179.97,4078.18 2183,4087.5C 2187.5,4098.67 2193.67,4108.84 2201.5,4118C 2216.76,4129.39 2231.76,4128.89 2246.5,4116.5C 2280.74,4126 2305.91,4115 2322,4083.5C 2330.87,4100.37 2342.7,4114.87 2357.5,4127C 2369.01,4135.78 2382.01,4139.61 2396.5,4138.5 Z"/></g>
<g><path style="opacity:1" fill="#e1d4c5" d="M 2354.5,4153.5 C 2363.49,4160.13 2373.49,4162.3 2384.5,4160C 2373.95,4173.54 2361.28,4176.04 2346.5,4167.5C 2326.75,4176.27 2306.09,4181.27 2284.5,4182.5C 2266.96,4182.37 2250.8,4177.71 2236,4168.5C 2208.8,4175.95 2182.64,4173.45 2157.5,4161C 2151.38,4156.86 2145.54,4152.36 2140,4147.5C 2125.78,4155.68 2110.61,4158.18 2094.5,4155C 2090.45,4153.56 2086.62,4151.73 2083,4149.5C 2062.7,4162.21 2040.54,4167.71 2016.5,4166C 2002.36,4164.17 1989.69,4158.84 1978.5,4150C 1971.01,4150.79 1963.51,4151.95 1956,4153.5C 1942.19,4152.86 1932.69,4146.19 1927.5,4133.5C 1928,4133.17 1928.5,4132.83 1929,4132.5C 1932.06,4133.89 1935.22,4134.89 1938.5,4135.5C 1962.76,4139.51 1986.42,4137.18 2009.5,4128.5C 2026.48,4133 2039.14,4127.67 2047.5,4112.5C 2056.87,4136.19 2073.87,4145.02 2098.5,4139C 2106.14,4136.43 2113.31,4132.93 2120,4128.5C 2138.16,4137.65 2155.49,4136.32 2172,4124.5C 2176.33,4133.16 2181.83,4141 2188.5,4148C 2202.87,4159.38 2218.54,4161.55 2235.5,4154.5C 2247.02,4162.57 2259.69,4165.07 2273.5,4162C 2278.04,4159.88 2282.7,4158.04 2287.5,4156.5C 2309.69,4161.15 2326.35,4153.82 2337.5,4134.5C 2342.11,4141.77 2347.77,4148.11 2354.5,4153.5 Z"/></g>
<g><path style="opacity:1" fill="#7c6856" d="M 2355.5,4152.5 C 2354.83,4152.5 2354.5,4152.83 2354.5,4153.5C 2347.77,4148.11 2342.11,4141.77 2337.5,4134.5C 2326.35,4153.82 2309.69,4161.15 2287.5,4156.5C 2282.7,4158.04 2278.04,4159.88 2273.5,4162C 2259.69,4165.07 2247.02,4162.57 2235.5,4154.5C 2218.54,4161.55 2202.87,4159.38 2188.5,4148C 2181.83,4141 2176.33,4133.16 2172,4124.5C 2155.49,4136.32 2138.16,4137.65 2120,4128.5C 2113.31,4132.93 2106.14,4136.43 2098.5,4139C 2073.87,4145.02 2056.87,4136.19 2047.5,4112.5C 2039.14,4127.67 2026.48,4133 2009.5,4128.5C 1986.42,4137.18 1962.76,4139.51 1938.5,4135.5C 1938.5,4135.17 1938.5,4134.83 1938.5,4134.5C 1956.63,4136.37 1974.63,4135.53 1992.5,4132C 2004.48,4128.08 2016.81,4126.42 2029.5,4127C 2039.28,4123.55 2045.12,4116.72 2047,4106.5C 2049.04,4111.59 2051.38,4116.59 2054,4121.5C 2059.16,4130.33 2066.66,4136.17 2076.5,4139C 2092.55,4140.2 2107.05,4136.03 2120,4126.5C 2138.78,4136.53 2156.44,4134.86 2173,4121.5C 2175.38,4125.29 2177.38,4129.29 2179,4133.5C 2192.81,4155.9 2211.98,4162.23 2236.5,4152.5C 2247.78,4161.43 2260.45,4163.93 2274.5,4160C 2278.59,4157.62 2282.93,4155.79 2287.5,4154.5C 2310.74,4159.96 2327.24,4151.96 2337,4130.5C 2342.31,4138.63 2348.48,4145.97 2355.5,4152.5 Z"/></g>
</svg>
