<?xml version="1.0" encoding="UTF-8"?>
<!DOCTYPE svg PUBLIC "-//W3C//DTD SVG 1.1//EN" "http://www.w3.org/Graphics/SVG/1.1/DTD/svg11.dtd">
<svg xmlns="http://www.w3.org/2000/svg" version="1.1" width="4500px" height="4500px" style="shape-rendering:geometricPrecision; text-rendering:geometricPrecision; image-rendering:optimizeQuality; fill-rule:evenodd; clip-rule:evenodd" xmlns:xlink="http://www.w3.org/1999/xlink">
<g><path style="opacity:0.992" fill="#6d5845" d="M 2486.5,-0.5 C 3157.5,-0.5 3828.5,-0.5 4499.5,-0.5C 4499.5,784.833 4499.5,1570.17 4499.5,2355.5C 4254.88,2114.4 4018.04,1866.73 3789,1612.5C 3481.59,1792.77 3176.76,1976.94 2874.5,2165C 2819.33,2199.75 2764.33,2234.75 2709.5,2270C 2819.29,2413.08 2928.95,2556.24 3038.5,2699.5C 2753.83,2700.33 2469.17,2700.83 2184.5,2701C 2023,2935.17 1861.5,3169.33 1700,3403.5C 1611.66,3132.65 1523.83,2861.65 1436.5,2590.5C 1173.1,2512.65 909.768,2434.48 646.5,2356C 636.948,2353.32 627.614,2350.15 618.5,2346.5C 846.003,2181.17 1073.67,2016.01 1301.5,1851C 1304.67,1848.99 1307.34,1846.49 1309.5,1843.5C 1301.7,1559.49 1294.7,1275.49 1288.5,991.5C 1419.99,1087.41 1551.66,1183.08 1683.5,1278.5C 2029.21,961.247 2380.71,651.247 2738,348.5C 2738.32,347.092 2737.98,345.759 2737,344.5C 2656.96,238.743 2578.62,131.743 2502,23.5C 2496.58,15.5993 2491.42,7.59928 2486.5,-0.5 Z"/></g>
<g><path style="opacity:1" fill="#5d5455" d="M 2514.5,9.5 C 2724.33,8.16719 2934.33,8.16719 3144.5,9.5C 3144.38,10.1067 3144.04,10.44 3143.5,10.5C 2934,9.50027 2724.33,9.16693 2514.5,9.5 Z"/></g>
<g><path style="opacity:1" fill="#4f5264" d="M 2514.5,9.5 C 2724.33,9.16693 2934,9.50027 3143.5,10.5C 3012.65,118.173 2882.48,226.839 2753,336.5C 2671.04,229.214 2591.54,120.214 2514.5,9.5 Z"/></g>
<g><path style="opacity:1" fill="#647a6e" d="M 3179.5,11.5 C 3456,10.3336 3732.67,10.167 4009.5,11C 4008.96,11.7172 4008.29,12.2172 4007.5,12.5C 3731.67,11.5002 3455.67,11.1669 3179.5,11.5 Z"/></g>
<g><path style="opacity:1" fill="#5a9d98" d="M 3179.5,11.5 C 3455.67,11.1669 3731.67,11.5002 4007.5,12.5C 3647.21,277.858 3293.21,551.691 2945.5,834C 2778.33,970.492 2612.33,1108.49 2447.5,1248C 2397.5,1291.33 2347.5,1334.67 2297.5,1378C 2191.73,1415.37 2085.9,1452.53 1980,1489.5C 1888.3,1423.72 1796.8,1357.55 1705.5,1291C 1815.9,1189.26 1926.9,1088.26 2038.5,988C 2360.08,701.392 2686.08,420.392 3016.5,145C 3070.86,100.492 3125.2,55.9918 3179.5,11.5 Z"/></g>
<g><path style="opacity:1" fill="#f5a93a" d="M 4047.5,11.5 C 4194.17,11.5 4340.83,11.5 4487.5,11.5C 4487.5,187.5 4487.5,363.5 4487.5,539.5C 4011.48,831.488 3539.15,1128.99 3070.5,1432C 2920.43,1529.58 2770.76,1627.74 2621.5,1726.5C 2620.39,1725.28 2620.22,1723.94 2621,1722.5C 2677.4,1551.29 2733.4,1379.95 2789,1208.5C 2789.78,1207.06 2789.61,1205.72 2788.5,1204.5C 2645.07,1255.7 2501.41,1306.2 2357.5,1356C 2628.09,1123.39 2902.75,896.052 3181.5,674C 3466.06,447.582 3754.72,226.749 4047.5,11.5 Z"/></g>
<g><path style="opacity:1" fill="#b18040" d="M 4047.5,11.5 C 4194.33,10.5004 4341.33,10.167 4488.5,10.5C 4488.83,187.001 4488.5,363.334 4487.5,539.5C 4487.5,363.5 4487.5,187.5 4487.5,11.5C 4340.83,11.5 4194.17,11.5 4047.5,11.5 Z"/></g>
<g><path style="opacity:0.963" fill="#6d5745" d="M 1867.5,198.5 C 1868.8,200.223 1869.47,202.39 1869.5,205C 1866.73,294.825 1864.56,384.658 1863,474.5C 1936.89,528.72 2011.05,582.554 2085.5,636C 2086.83,636.667 2086.83,637.333 2085.5,638C 1997.4,664.025 1909.4,690.359 1821.5,717C 1792.91,804.522 1764.24,892.022 1735.5,979.5C 1682.8,903.928 1630.46,828.094 1578.5,752C 1486.5,751.679 1394.5,751.846 1302.5,752.5C 1302.95,749.86 1304.12,747.527 1306,745.5C 1357,679.167 1408,612.833 1459,546.5C 1462.91,541.596 1466.41,536.43 1469.5,531C 1441.27,444.13 1412.93,357.297 1384.5,270.5C 1385.72,269.386 1387.06,269.219 1388.5,270C 1473.92,300.364 1559.42,330.53 1645,360.5C 1719.62,307.038 1793.78,253.038 1867.5,198.5 Z"/></g>
<g><path style="opacity:1" fill="#c34a48" d="M 1859.5,215.5 C 1860.16,217.81 1860.5,220.31 1860.5,223C 1857.97,308.508 1855.81,394.008 1854,479.5C 1924.83,531 1995.67,582.5 2066.5,634C 1982.68,659.605 1898.68,684.605 1814.5,709C 1787.05,792.506 1759.72,876.006 1732.5,959.5C 1682.96,887.58 1633.29,815.746 1583.5,744C 1495.5,743.667 1407.5,743.333 1319.5,743C 1372.95,673.257 1426.29,603.423 1479.5,533.5C 1452.3,450.573 1425.3,367.573 1398.5,284.5C 1401.51,283.977 1404.51,284.477 1407.5,286C 1487.17,314.058 1566.84,342.224 1646.5,370.5C 1717.82,319.164 1788.82,267.497 1859.5,215.5 Z"/></g>
<g><path style="opacity:1" fill="#ed583b" d="M 4486.5,566.5 C 4487.83,668.998 4488.5,771.831 4488.5,875C 4488.5,978.07 4488.17,1081.07 4487.5,1184C 3944.91,1489.25 3409.58,1805.58 2881.5,2133C 2820.37,2171.3 2759.37,2209.8 2698.5,2248.5C 2696.85,2247.35 2695.35,2246.02 2694,2244.5C 2638,2171.17 2582,2097.83 2526,2024.5C 2525.13,2023.13 2524.63,2021.63 2524.5,2020C 2551.86,1933.6 2580.19,1847.6 2609.5,1762C 2883.63,1580.43 3159.3,1401.09 3436.5,1224C 3784.71,1002.06 4134.71,782.889 4486.5,566.5 Z"/></g>
<g><path style="opacity:1" fill="#f7bf58" d="M 1304.5,1023.5 C 1426.77,1111.92 1548.94,1200.59 1671,1289.5C 1671.51,1291 1671.01,1292.16 1669.5,1293C 1771.32,1367.41 1873.32,1441.58 1975.5,1515.5C 2234.48,1424.17 2493.48,1332.84 2752.5,1241.5C 2752.83,1242 2753.17,1242.5 2753.5,1243C 2668.12,1503.56 2583.12,1764.22 2498.5,2025C 2562.4,2109.91 2626.73,2194.58 2691.5,2279C 2693.38,2278.49 2695.21,2278.66 2697,2279.5C 2800.12,2414.95 2903.62,2550.12 3007.5,2685C 2730.5,2685.24 2453.5,2685.24 2176.5,2685C 2019.7,2912.76 1862.54,3140.26 1705,3367.5C 1622.04,3112.58 1539.37,2857.58 1457,2602.5C 1454.6,2593.97 1451.44,2585.8 1447.5,2578C 1182.9,2498.8 918.237,2419.8 653.5,2341C 876.656,2178.59 1099.99,2016.42 1323.5,1854.5C 1323.83,1849 1324.17,1843.5 1324.5,1838C 1317.51,1566.51 1310.84,1295.01 1304.5,1023.5 Z"/></g>
<g><path style="opacity:1" fill="#5d5554" d="M 4489.5,1209.5 C 4489.56,1208.96 4489.89,1208.62 4490.5,1208.5C 4490.83,1394.17 4491.17,1579.83 4491.5,1765.5C 4491.5,1951.57 4491.17,2136.9 4490.5,2321.5C 4490.83,1950.67 4490.5,1580 4489.5,1209.5 Z"/></g>
<g><path style="opacity:1" fill="#4f5264" d="M 4489.5,1209.5 C 4490.5,1580 4490.83,1950.67 4490.5,2321.5C 4254.22,2088.58 4025.56,1849.24 3804.5,1603.5C 4031.39,1469.88 4259.73,1338.55 4489.5,1209.5 Z"/></g>
</svg>
