<?xml version="1.0" encoding="UTF-8"?>
<!DOCTYPE svg PUBLIC "-//W3C//DTD SVG 1.1//EN" "http://www.w3.org/Graphics/SVG/1.1/DTD/svg11.dtd">
<svg xmlns="http://www.w3.org/2000/svg" version="1.1" width="4500px" height="4500px" style="shape-rendering:geometricPrecision; text-rendering:geometricPrecision; image-rendering:optimizeQuality; fill-rule:evenodd; clip-rule:evenodd" xmlns:xlink="http://www.w3.org/1999/xlink">
<g><path style="opacity:0.964" fill="#6e5946" d="M 2044.5,-0.5 C 2396.5,-0.5 2748.5,-0.5 3100.5,-0.5C 3119.21,75.995 3142.71,150.995 3171,224.5C 3226.37,367.576 3292.21,505.576 3368.5,638.5C 3369,639.521 3369.67,639.688 3370.5,639C 3386.71,622.288 3403.38,606.122 3420.5,590.5C 3435.58,602.368 3450.24,614.701 3464.5,627.5C 3440.62,645.269 3416.95,663.269 3393.5,681.5C 3408.83,708.165 3424.66,734.498 3441,760.5C 3442.94,763.39 3445.1,766.056 3447.5,768.5C 3481.83,750 3516.17,731.5 3550.5,713C 3555.05,710.385 3559.71,708.385 3564.5,707C 3580.94,729.754 3596.44,752.921 3611,776.5C 3567.33,791.277 3523.83,806.444 3480.5,822C 3503.43,857.187 3527.09,891.854 3551.5,926C 3580.81,923.569 3610.14,921.069 3639.5,918.5C 3638.2,949.84 3636.7,981.173 3635,1012.5C 3634.48,1013.52 3633.65,1014.18 3632.5,1014.5C 3626.5,1013.13 3620.5,1012.79 3614.5,1013.5C 3736.08,1175.98 3869.41,1329.15 4014.5,1473C 4057.84,1480.01 4097.17,1496.34 4132.5,1522C 4171.23,1551.73 4204.07,1586.9 4231,1627.5C 4249.71,1656.24 4266.38,1686.24 4281,1717.5C 4288.87,1725.04 4297.04,1732.21 4305.5,1739C 4306.87,1739.87 4308.37,1740.37 4310,1740.5C 4359.49,1727.78 4402.66,1738.95 4439.5,1774C 4463.74,1796.4 4483.74,1821.9 4499.5,1850.5C 4499.5,2733.5 4499.5,3616.5 4499.5,4499.5C 3938.17,4499.5 3376.83,4499.5 2815.5,4499.5C 2833.97,4453.49 2868.14,4431.16 2918,4432.5C 2949.82,4433.86 2980.15,4441.2 3009,4454.5C 3034.19,4388.97 3080.03,4344.81 3146.5,4322C 3191.11,4307.57 3236.94,4300.73 3284,4301.5C 3312.26,4302.13 3340.42,4303.96 3368.5,4307C 3395.37,4310.86 3422.04,4315.52 3448.5,4321C 3465.93,4263.62 3493.43,4211.79 3531,4165.5C 3581.98,4108.42 3645.48,4073.92 3721.5,4062C 3795.52,4052.93 3867.85,4060.1 3938.5,4083.5C 3939.21,4084.4 3940.21,4084.74 3941.5,4084.5C 3941.5,4074.17 3941.5,4063.83 3941.5,4053.5C 3941.98,3985.66 3950.81,3918.99 3968,3853.5C 3982.9,3796.37 4008.9,3745.04 4046,3699.5C 4092.71,3648.39 4150.55,3618.22 4219.5,3609C 4267.8,3604.21 4315.8,3606.21 4363.5,3615C 4408.31,3624.12 4451.98,3636.96 4494.5,3653.5C 4495.21,3654.4 4496.21,3654.74 4497.5,3654.5C 4497.83,3567.33 4497.5,3480.33 4496.5,3393.5C 4426.04,3362.9 4352.54,3342.24 4276,3331.5C 4275.17,3331.83 4274.33,3332.17 4273.5,3332.5C 4296.56,3355.07 4314.73,3381.07 4328,3410.5C 4340.6,3442.63 4333.1,3468.79 4305.5,3489C 4285.47,3501.57 4263.64,3508.73 4240,3510.5C 4218.99,3510.16 4201.99,3501.83 4189,3485.5C 4179.29,3471.02 4172.29,3455.35 4168,3438.5C 4160.3,3401.93 4157.3,3364.93 4159,3327.5C 4028,3339.14 3931.67,3402.8 3870,3518.5C 3839.84,3578.63 3819.51,3641.97 3809,3708.5C 3798.44,3776.39 3792.61,3844.72 3791.5,3913.5C 3688.82,3897.63 3587.15,3902.47 3486.5,3928C 3328.19,3970.15 3219.19,4067.32 3159.5,4219.5C 3066.44,4186.79 2971.11,4177.96 2873.5,4193C 2754.82,4216.85 2671.49,4284.35 2623.5,4395.5C 2593.62,4394.55 2563.95,4397.05 2534.5,4403C 2508.63,4408.83 2485.3,4419.83 2464.5,4436C 2444.73,4453.05 2431.73,4474.22 2425.5,4499.5C 2423.83,4499.5 2422.17,4499.5 2420.5,4499.5C 2432.59,4453.24 2461.25,4422.08 2506.5,4406C 2543.06,4393.41 2580.56,4388.58 2619,4391.5C 2677.13,4264.13 2776.3,4194.29 2916.5,4182C 2998.52,4176.31 3078.52,4186.48 3156.5,4212.5C 3216.63,4062.38 3324.96,3966.21 3481.5,3924C 3582.06,3898.08 3683.73,3892.58 3786.5,3907.5C 3787.78,3846.55 3792.62,3785.88 3801,3725.5C 3807.63,3681.49 3817.79,3638.32 3831.5,3596C 3792.35,3549.51 3753.18,3503.01 3714,3456.5C 3678.57,3413.07 3643.9,3369.07 3610,3324.5C 3608.95,3323.48 3607.78,3323.32 3606.5,3324C 3602.9,3327.29 3598.9,3329.79 3594.5,3331.5C 3595.58,3322.87 3595.74,3314.2 3595,3305.5C 3427.33,3083.75 3273,2852.75 3132,2612.5C 3006.26,2396.72 2888.43,2176.06 2778.5,1950.5C 2770.35,1966.14 2763.85,1982.47 2759,1999.5C 2758.33,2002.17 2758.33,2004.83 2759,2007.5C 2768.17,2032.84 2778.17,2057.84 2789,2082.5C 2812.95,2137.07 2837.45,2191.4 2862.5,2245.5C 2780.29,2383.42 2697.96,2521.25 2615.5,2659C 2555.1,2662.69 2495.77,2656.36 2437.5,2640C 2399.92,2629.38 2366.25,2611.71 2336.5,2587C 2330.3,2581.14 2324.47,2574.97 2319,2568.5C 2329.29,2405.47 2340.29,2242.47 2352,2079.5C 2430.25,2031.63 2508.42,1983.63 2586.5,1935.5C 2597.7,1902.56 2608.7,1869.56 2619.5,1836.5C 2609.68,1825.52 2599.68,1814.68 2589.5,1804C 2594.07,1791.47 2598.73,1778.97 2603.5,1766.5C 2620.43,1776.21 2637.59,1785.55 2655,1794.5C 2657.66,1778.59 2660.32,1762.59 2663,1746.5C 2664.79,1737.3 2667.29,1728.3 2670.5,1719.5C 2444.64,1220.47 2253.14,708.138 2096,182.5C 2078.05,121.688 2060.88,60.688 2044.5,-0.5 Z"/></g>
<g><path style="opacity:1" fill="#474c55" d="M 2049.5,1.5 C 2398.5,1.16667 2747.5,1.5 3096.5,2.5C 3122.52,104.741 3156.02,204.408 3197,301.5C 3246.41,418.816 3302.58,532.649 3365.5,643C 3341.59,668.049 3317.09,692.549 3292,716.5C 3291.33,717.5 3291.33,718.5 3292,719.5C 3296.26,727.009 3300.26,734.676 3304,742.5C 3304.69,743.357 3305.52,744.023 3306.5,744.5C 3333.86,723.974 3361.36,703.64 3389,683.5C 3406.64,712.632 3424.47,741.632 3442.5,770.5C 3401.68,793.746 3360.35,816.246 3318.5,838C 3321.26,849.875 3324.26,861.709 3327.5,873.5C 3375.46,856.901 3423.46,840.401 3471.5,824C 3473.17,823.333 3474.83,823.333 3476.5,824C 3499.34,858.68 3522.67,893.013 3546.5,927C 3481.87,933.83 3417.2,940.33 3352.5,946.5C 3351.17,957.833 3349.83,969.166 3348.5,980.5C 3435.01,989.871 3521.34,1000.37 3607.5,1012C 3728.93,1174.49 3861.93,1327.82 4006.5,1472C 3916.96,1467.52 3836.63,1492.19 3765.5,1546C 3703.79,1596.49 3668.63,1661.66 3660,1741.5C 3658.09,1766.52 3658.09,1791.52 3660,1816.5C 3599.16,1843 3552.49,1885.34 3520,1943.5C 3500.43,1989.83 3506.1,2032.83 3537,2072.5C 3540.98,2077.32 3545.15,2081.98 3549.5,2086.5C 3513.25,2112.31 3488.75,2146.64 3476,2189.5C 3459.68,2257.08 3463.02,2323.75 3486,2389.5C 3492.67,2400.83 3499.33,2412.17 3506,2423.5C 3529.5,2450.33 3553,2477.17 3576.5,2504C 3597.11,2522.22 3621.11,2533.55 3648.5,2538C 3657.4,2540.04 3666.4,2541.21 3675.5,2541.5C 3670.09,2583.2 3680.26,2620.53 3706,2653.5C 3735.5,2687 3765,2720.5 3794.5,2754C 3811.59,2766.16 3830.75,2771.66 3852,2770.5C 3881.92,2769.77 3910.25,2762.77 3937,2749.5C 3942.17,2765.85 3949.51,2781.18 3959,2795.5C 3977.17,2823.34 3996.5,2850.34 4017,2876.5C 4028.8,2890.98 4043.64,2900.81 4061.5,2906C 4073.41,2907.94 4084.41,2905.61 4094.5,2899C 4110.61,2885.63 4122.44,2869.13 4130,2849.5C 4140.8,2858.48 4152.96,2864.65 4166.5,2868C 4183.05,2870.7 4197.22,2866.2 4209,2854.5C 4219.19,2842.46 4226.52,2828.79 4231,2813.5C 4241.12,2822.14 4252.62,2827.98 4265.5,2831C 4287.28,2833.55 4301.44,2824.39 4308,2803.5C 4312.15,2789.59 4312.49,2775.59 4309,2761.5C 4302.4,2735.29 4290.73,2711.62 4274,2690.5C 4267.87,2682.7 4261.37,2675.2 4254.5,2668C 4386.39,2699.28 4452.73,2647.11 4453.5,2511.5C 4453.09,2490.05 4451.59,2468.72 4449,2447.5C 4465.24,2437.76 4481.07,2427.42 4496.5,2416.5C 4497.67,2740.5 4497.83,3064.5 4497,3388.5C 4423.13,3356.82 4346.3,3335.66 4266.5,3325C 4235.73,3295.38 4203.06,3268.22 4168.5,3243.5C 4163.79,3269.61 4161.13,3295.95 4160.5,3322.5C 4027.87,3333.36 3930.03,3397.03 3867,3513.5C 3853.97,3538.53 3842.97,3564.19 3834,3590.5C 3756.81,3502.66 3682.64,3412.49 3611.5,3320C 3624.09,3310.46 3636.92,3301.29 3650,3292.5C 3671.19,3299.37 3692.19,3306.7 3713,3314.5C 3706.5,3293.15 3699.66,3271.82 3692.5,3250.5C 3706.05,3232.58 3719.71,3214.74 3733.5,3197C 3710.83,3196.83 3688.16,3196.33 3665.5,3195.5C 3653.19,3177.36 3640.69,3159.36 3628,3141.5C 3621.04,3162.72 3613.87,3183.89 3606.5,3205C 3585.15,3211.67 3563.82,3218.34 3542.5,3225C 3560.76,3238.04 3578.92,3251.21 3597,3264.5C 3596.76,3275.79 3596.42,3287.13 3596,3298.5C 3476.27,3141.73 3363.94,2979.73 3259,2812.5C 3084.21,2532.34 2924.71,2242.68 2780.5,1943.5C 2786.23,1931.04 2792.23,1918.71 2798.5,1906.5C 2799.73,1905.72 2801.06,1905.22 2802.5,1905C 2818.5,1903.47 2834.5,1901.97 2850.5,1900.5C 2850.32,1882.83 2849.99,1865.16 2849.5,1847.5C 2834.71,1847.4 2820.04,1846.06 2805.5,1843.5C 2815.82,1830.52 2822.66,1815.85 2826,1799.5C 2830.91,1758.79 2814.41,1730.96 2776.5,1716C 2745.3,1705.47 2713.63,1703.8 2681.5,1711C 2678.75,1712.12 2676.25,1713.62 2674,1715.5C 2507.72,1348.38 2359.72,973.382 2230,590.5C 2163.89,395.71 2103.72,199.377 2049.5,1.5 Z"/></g>
<g><path style="opacity:1" fill="#715b46" d="M 3025.5,293.5 C 3026.5,293.414 3027.33,293.748 3028,294.5C 3040.17,312.167 3052.33,329.833 3064.5,347.5C 3087.16,348.333 3109.83,348.833 3132.5,349C 3118.64,366.691 3104.98,384.524 3091.5,402.5C 3098.57,423.39 3105.24,444.39 3111.5,465.5C 3090.53,458.71 3069.69,451.377 3049,443.5C 3031.31,456.693 3013.47,469.693 2995.5,482.5C 2995.13,460.178 2994.96,437.844 2995,415.5C 2977.08,402.789 2959.25,389.956 2941.5,377C 2962.78,370.176 2984.12,363.343 3005.5,356.5C 3012.57,335.61 3019.24,314.61 3025.5,293.5 Z"/></g>
<g><path style="opacity:1" fill="#f7bf58" d="M 2997.5,478.5 C 2996.54,476.735 2996.21,474.735 2996.5,472.5C 2996.63,453.157 2996.8,433.824 2997,414.5C 2979.83,402 2962.67,389.5 2945.5,377C 2966.24,370.865 2986.9,364.532 3007.5,358C 3014.39,337.995 3020.89,317.829 3027,297.5C 3039.54,314.738 3051.7,332.238 3063.5,350C 3085.17,350.333 3106.83,350.667 3128.5,351C 3115.01,367.658 3102.01,384.658 3089.5,402C 3095.74,422.228 3102.08,442.395 3108.5,462.5C 3088.62,455.596 3068.79,448.596 3049,441.5C 3031.91,453.96 3014.74,466.293 2997.5,478.5 Z"/></g>
<g><path style="opacity:1" fill="#ab864d" d="M 2996.5,472.5 C 2996.21,474.735 2996.54,476.735 2997.5,478.5C 2997.44,479.043 2997.11,479.376 2996.5,479.5C 2995.2,477.027 2995.2,474.693 2996.5,472.5 Z"/></g>
<g><path style="opacity:1" fill="#6f5945" d="M 2771.5,482.5 C 2933.82,476.403 3069.32,533.069 3178,652.5C 3234.02,715.868 3270.35,789.201 3287,872.5C 3305.65,991.93 3281.65,1101.93 3215,1202.5C 3177.34,1258.83 3130.84,1306.66 3075.5,1346C 2993.24,1403.11 2902.57,1440.45 2803.5,1458C 2757.3,1464.88 2711.3,1463.88 2665.5,1455C 2624.76,1445.89 2589.42,1426.89 2559.5,1398C 2612.57,1380.19 2663.57,1357.52 2712.5,1330C 2755.22,1305.37 2793.38,1274.87 2827,1238.5C 2873.02,1186.3 2897.18,1125.3 2899.5,1055.5C 2899.4,1025.89 2894.23,997.227 2884,969.5C 2864.41,986.023 2841.91,991.856 2816.5,987C 2784.65,980.077 2756.65,965.743 2732.5,944C 2736.13,944.316 2739.79,944.816 2743.5,945.5C 2754.61,943.445 2764.61,938.945 2773.5,932C 2793.86,914.077 2811.03,893.577 2825,870.5C 2832.67,858.824 2839,846.491 2844,833.5C 2849.35,812.211 2848.35,791.211 2841,770.5C 2833.65,751.454 2823.98,733.788 2812,717.5C 2783.54,681.37 2751.37,648.87 2715.5,620C 2674.67,587.995 2632.33,558.162 2588.5,530.5C 2646.53,503.043 2707.53,487.043 2771.5,482.5 Z"/></g>
<g><path style="opacity:1" fill="#f5a93a" d="M 2772.5,486.5 C 2938.22,480.798 3075.06,540.464 3183,665.5C 3260.58,758.589 3295.58,865.922 3288,987.5C 3277.58,1079.12 3243.91,1161.12 3187,1233.5C 3134.43,1299.43 3070.59,1351.26 2995.5,1389C 2923.57,1426.53 2847.24,1449.53 2766.5,1458C 2711.73,1463.1 2659.73,1453.76 2610.5,1430C 2595.39,1421.55 2581.39,1411.55 2568.5,1400C 2613.82,1384.21 2657.82,1364.87 2700.5,1342C 2755.05,1313.13 2802.22,1274.96 2842,1227.5C 2872.83,1188.17 2892.5,1143.83 2901,1094.5C 2901.74,1084.81 2902.57,1075.14 2903.5,1065.5C 2974.98,1058.43 3030.81,1025.43 3071,966.5C 3084.44,944.999 3094.27,921.999 3100.5,897.5C 3118.25,903.913 3135.25,902.413 3151.5,893C 3153.73,891.39 3155.73,889.557 3157.5,887.5C 3156.83,886.167 3155.83,885.167 3154.5,884.5C 3130.89,902.881 3108.39,901.547 3087,880.5C 3072.07,858.674 3073.23,837.674 3090.5,817.5C 3089.86,816.354 3089.02,815.354 3088,814.5C 3072.32,830.858 3068.32,849.858 3076,871.5C 3080.92,880.747 3087.58,888.413 3096,894.5C 3076.6,971.578 3029.43,1023.74 2954.5,1051C 2937.9,1056.3 2920.9,1059.8 2903.5,1061.5C 2903.84,1029.68 2899,998.68 2889,968.5C 2887.74,966.236 2886.58,963.902 2885.5,961.5C 2867.27,979.966 2845.27,987.133 2819.5,983C 2792.53,977.681 2768.2,966.681 2746.5,950C 2765.66,944.164 2781.83,933.664 2795,918.5C 2815.97,894.535 2833.31,868.201 2847,839.5C 2853.83,814.525 2852.83,789.858 2844,765.5C 2829.19,732.354 2809.19,702.687 2784,676.5C 2749.52,642.003 2712.69,610.503 2673.5,582C 2648.57,564.578 2623.24,547.745 2597.5,531.5C 2634.95,514.295 2673.95,501.795 2714.5,494C 2733.88,490.862 2753.22,488.362 2772.5,486.5 Z"/></g>
<g><path style="opacity:1" fill="#ed583b" d="M 3419.5,595.5 C 3432.9,605.384 3445.9,615.884 3458.5,627C 3408.09,664.622 3357.59,702.122 3307,739.5C 3302.22,732.609 3298.55,725.276 3296,717.5C 3337.37,676.966 3378.53,636.299 3419.5,595.5 Z"/></g>
<g><path style="opacity:1" fill="#715a44" d="M 2913.5,599.5 C 2915.14,600.32 2916.81,601.153 2918.5,602C 2936.84,618.989 2950.34,639.156 2959,662.5C 2965.59,694.058 2955.09,718.225 2927.5,735C 2901.96,747.733 2877.63,745.733 2854.5,729C 2843.08,720.911 2832.91,711.411 2824,700.5C 2821.97,697.779 2820.47,694.779 2819.5,691.5C 2819.83,691.167 2820.17,690.833 2820.5,690.5C 2829.27,698.764 2837.93,707.264 2846.5,716C 2861.05,728.942 2878.05,736.442 2897.5,738.5C 2922.76,735.072 2941.26,722.072 2953,699.5C 2957.96,683.588 2957.29,667.921 2951,652.5C 2942.17,633.856 2930.17,617.523 2915,603.5C 2914.21,602.255 2913.71,600.922 2913.5,599.5 Z"/></g>
<g><path style="opacity:1" fill="#ed583b" d="M 3561.5,711.5 C 3562.5,711.414 3563.33,711.748 3564,712.5C 3577.64,732.97 3591.47,753.304 3605.5,773.5C 3605.29,774.086 3604.96,774.586 3604.5,775C 3512.95,805.684 3421.61,836.851 3330.5,868.5C 3330.17,868.167 3329.83,867.833 3329.5,867.5C 3326.9,858.763 3324.57,849.93 3322.5,841C 3322.83,840.5 3323.17,840 3323.5,839.5C 3402.9,796.805 3482.23,754.138 3561.5,711.5 Z"/></g>
<g><path style="opacity:1" fill="#ec583b" d="M 3625.5,922.5 C 3628.83,922.5 3632.17,922.5 3635.5,922.5C 3634.57,951.853 3633.23,981.186 3631.5,1010.5C 3538.54,999.776 3445.71,988.443 3353,976.5C 3353,968.805 3353.67,961.138 3355,953.5C 3355.2,951.598 3356.03,950.098 3357.5,949C 3447.02,940.485 3536.35,931.651 3625.5,922.5 Z"/></g>
<g><path style="opacity:1" fill="#6d5745" d="M 3336.5,1071.5 C 3452.83,1091.6 3569.16,1111.77 3685.5,1132C 3674.2,1172.07 3663.2,1212.24 3652.5,1252.5C 3545.02,1208.29 3437.69,1163.79 3330.5,1119C 3331.68,1103.19 3333.68,1087.36 3336.5,1071.5 Z"/></g>
<g><path style="opacity:1" fill="#ed583b" d="M 3338.5,1075.5 C 3452.27,1094.63 3565.93,1114.29 3679.5,1134.5C 3680.36,1137.14 3680.19,1139.81 3679,1142.5C 3669.48,1177.92 3659.64,1213.26 3649.5,1248.5C 3544.5,1204.67 3439.5,1160.83 3334.5,1117C 3333.89,1115.77 3333.56,1114.44 3333.5,1113C 3335.4,1100.52 3337.07,1088.02 3338.5,1075.5 Z"/></g>
<g><path style="opacity:1" fill="#6f5745" d="M 3283.5,1234.5 C 3396.33,1266.71 3509,1299.54 3621.5,1333C 3601.87,1370.42 3582.37,1407.92 3563,1445.5C 3461.74,1388.12 3360.24,1331.12 3258.5,1274.5C 3257.48,1274 3257.31,1273.33 3258,1272.5C 3266.77,1259.95 3275.27,1247.28 3283.5,1234.5 Z"/></g>
<g><path style="opacity:1" fill="#ed583b" d="M 3285.5,1238.5 C 3396,1270.08 3506.33,1302.25 3616.5,1335C 3598.55,1370.4 3580.22,1405.57 3561.5,1440.5C 3461.76,1384.9 3362.43,1328.74 3263.5,1272C 3270.65,1260.69 3277.98,1249.52 3285.5,1238.5 Z"/></g>
<g><path style="opacity:1" fill="#6e5745" d="M 3203.5,1350.5 C 3283.77,1400.92 3363.93,1451.58 3444,1502.5C 3444.67,1503.17 3444.67,1503.83 3444,1504.5C 3423.67,1529.17 3403.33,1553.83 3383,1578.5C 3316.47,1512.31 3250.31,1445.81 3184.5,1379C 3191.23,1369.7 3197.56,1360.2 3203.5,1350.5 Z"/></g>
<g><path style="opacity:1" fill="#ed583b" d="M 3204.5,1355.5 C 3283.11,1404.48 3361.45,1453.98 3439.5,1504C 3420.83,1526.67 3402.17,1549.33 3383.5,1572C 3382.83,1572.67 3382.17,1572.67 3381.5,1572C 3318.03,1507.53 3254.19,1443.36 3190,1379.5C 3189.68,1378.09 3190.02,1376.76 3191,1375.5C 3195.77,1368.95 3200.27,1362.28 3204.5,1355.5 Z"/></g>
<g><path style="opacity:1" fill="#6f5745" d="M 3113.5,1418.5 C 3115.62,1419.03 3117.12,1420.36 3118,1422.5C 3166.71,1504.75 3215.54,1586.92 3264.5,1669C 3237.4,1676.73 3210.23,1684.23 3183,1691.5C 3182.17,1691.17 3181.33,1690.83 3180.5,1690.5C 3148.93,1607.29 3117.26,1524.13 3085.5,1441C 3086.1,1439.39 3087.1,1438.06 3088.5,1437C 3097.26,1431.3 3105.59,1425.13 3113.5,1418.5 Z"/></g>
<g><path style="opacity:1" fill="#ed583b" d="M 3112.5,1423.5 C 3114.62,1424.03 3116.12,1425.36 3117,1427.5C 3163.75,1506.67 3210.75,1585.67 3258,1664.5C 3258.75,1665.64 3258.58,1666.64 3257.5,1667.5C 3233.38,1674.31 3209.21,1680.97 3185,1687.5C 3183.74,1687.24 3182.74,1686.57 3182,1685.5C 3151.12,1603.84 3120.29,1522.51 3089.5,1441.5C 3097.19,1435.48 3104.85,1429.48 3112.5,1423.5 Z"/></g>
<g><path style="opacity:1" fill="#efe0c0" d="M 3968.5,1474.5 C 4041.21,1474.54 4104.21,1499.04 4157.5,1548C 4196.9,1585.38 4229.4,1627.88 4255,1675.5C 4268.62,1700.74 4281.12,1726.41 4292.5,1752.5C 4329.54,1735.23 4366.54,1735.4 4403.5,1753C 4437.71,1774.88 4465.55,1803.05 4487,1837.5C 4490.86,1843.89 4494.19,1850.55 4497,1857.5C 4497.67,1897.5 4497.67,1937.5 4497,1977.5C 4494.17,1982.5 4491.33,1987.5 4488.5,1992.5C 4491.19,1995.02 4494.02,1997.36 4497,1999.5C 4497.83,2136.83 4497.67,2274.17 4496.5,2411.5C 4480.01,2423.25 4463.01,2434.25 4445.5,2444.5C 4445.17,2446 4444.83,2447.5 4444.5,2449C 4450.5,2486.42 4451,2523.92 4446,2561.5C 4442.21,2583.94 4434.55,2604.94 4423,2624.5C 4401.41,2654.88 4371.91,2671.05 4334.5,2673C 4304.09,2673.65 4274.43,2669.31 4245.5,2660C 4243.83,2659.33 4242.17,2659.33 4240.5,2660C 4271.23,2687.65 4292.73,2721.15 4305,2760.5C 4308.05,2773.85 4308.05,2787.18 4305,2800.5C 4299.1,2821.03 4285.6,2829.86 4264.5,2827C 4250.89,2822.88 4238.89,2816.04 4228.5,2806.5C 4224.27,2827.14 4214.27,2844.31 4198.5,2858C 4186.93,2864.62 4174.6,2866.28 4161.5,2863C 4149.35,2858.32 4138.35,2851.82 4128.5,2843.5C 4121.03,2862.94 4109.7,2879.77 4094.5,2894C 4081.18,2903.4 4066.85,2905.07 4051.5,2899C 4039.11,2892.2 4028.27,2883.37 4019,2872.5C 3996.05,2843.88 3975.05,2813.88 3956,2782.5C 3949.09,2771.85 3944.26,2760.35 3941.5,2748C 3941.93,2745.68 3942.93,2743.68 3944.5,2742C 3915.6,2757.29 3884.6,2765.46 3851.5,2766.5C 3832.16,2767.27 3814.5,2762.44 3798.5,2752C 3768.22,2717.93 3738.05,2683.76 3708,2649.5C 3682.16,2616.82 3673.33,2580.16 3681.5,2539.5C 3658.77,2537.42 3636.77,2532.25 3615.5,2524C 3599.76,2517.26 3585.93,2507.76 3574,2495.5C 3552,2470.17 3530,2444.83 3508,2419.5C 3502.59,2409.67 3496.92,2400 3491,2390.5C 3466.98,2326.07 3462.98,2260.41 3479,2193.5C 3489.25,2158.14 3507.75,2127.98 3534.5,2103C 3541.48,2097.18 3548.81,2091.84 3556.5,2087C 3521.28,2055.39 3507.44,2016.22 3515,1969.5C 3520.48,1950.55 3529.14,1933.21 3541,1917.5C 3570.26,1876.91 3607.43,1845.74 3652.5,1824C 3656.93,1822.48 3661.27,1820.81 3665.5,1819C 3655.62,1748.33 3668.46,1682.17 3704,1620.5C 3740.29,1565.55 3789.13,1526.05 3850.5,1502C 3888.37,1486.31 3927.71,1477.15 3968.5,1474.5 Z"/></g>
<g><path style="opacity:1" fill="#6d5745" d="M 3009.5,1502.5 C 3010.93,1502.88 3011.76,1503.88 3012,1505.5C 3024.94,1567.09 3038.11,1628.59 3051.5,1690C 3031.93,1690.83 3012.43,1690.66 2993,1689.5C 2989.33,1630.81 2985.5,1572.14 2981.5,1513.5C 2991.19,1510.43 3000.52,1506.76 3009.5,1502.5 Z"/></g>
<g><path style="opacity:1" fill="#ec583b" d="M 3046.5,1685.5 C 3035.5,1686.17 3024.5,1686.83 3013.5,1687.5C 3007.5,1687.5 3001.5,1687.5 2995.5,1687.5C 2991.96,1630.51 2988.79,1573.51 2986,1516.5C 2993.57,1512.8 3001.41,1509.8 3009.5,1507.5C 3021.83,1566.83 3034.17,1626.17 3046.5,1685.5 Z"/></g>
<g><path style="opacity:1" fill="#6d5745" d="M 3457.5,1607.5 C 3470.5,1625.18 3483.16,1643.18 3495.5,1661.5C 3518.16,1662.33 3540.83,1662.83 3563.5,1663C 3550.45,1680.26 3537.29,1697.42 3524,1714.5C 3523.33,1716.5 3523.33,1718.5 3524,1720.5C 3531.37,1740.29 3537.71,1760.29 3543,1780.5C 3522.23,1772.62 3501.23,1765.29 3480,1758.5C 3461.84,1771.25 3443.84,1784.25 3426,1797.5C 3426.24,1775.16 3426.57,1752.83 3427,1730.5C 3408.92,1717.21 3390.76,1704.04 3372.5,1691C 3393.65,1683.94 3414.98,1677.44 3436.5,1671.5C 3444,1650.31 3451,1628.98 3457.5,1607.5 Z"/></g>
<g><path style="opacity:1" fill="#c34a48" d="M 3457.5,1612.5 C 3459.02,1612.51 3460.18,1613.18 3461,1614.5C 3471.97,1630.97 3483.14,1647.3 3494.5,1663.5C 3516.16,1664.33 3537.83,1664.83 3559.5,1665C 3546.5,1682 3533.5,1699 3520.5,1716C 3527.63,1736.38 3534.13,1756.88 3540,1777.5C 3520.23,1770.37 3500.4,1763.37 3480.5,1756.5C 3462.61,1768.22 3445.11,1780.55 3428,1793.5C 3428.06,1771.83 3428.06,1750.17 3428,1728.5C 3411.03,1716.36 3394.19,1704.03 3377.5,1691.5C 3397.38,1685.04 3417.38,1678.87 3437.5,1673C 3440.57,1666.79 3443.07,1660.29 3445,1653.5C 3449.48,1639.9 3453.65,1626.23 3457.5,1612.5 Z"/></g>
<g><path style="opacity:1" fill="#ac5840" d="M 3046.5,1685.5 C 3047.04,1685.56 3047.38,1685.89 3047.5,1686.5C 3036.19,1687.5 3024.85,1687.83 3013.5,1687.5C 3024.5,1686.83 3035.5,1686.17 3046.5,1685.5 Z"/></g>
<g><path style="opacity:1" fill="#ed7724" d="M 2718.5,1709.5 C 2743.12,1709.46 2766.45,1714.96 2788.5,1726C 2820.05,1746.63 2830.21,1775.13 2819,1811.5C 2812.16,1827.19 2802.83,1841.19 2791,1853.5C 2776.46,1867.04 2761.63,1880.2 2746.5,1893C 2738.43,1900.4 2731.1,1908.4 2724.5,1917C 2716.52,1920.39 2708.19,1921.39 2699.5,1920C 2681.59,1917.13 2666.76,1908.97 2655,1895.5C 2653.06,1890.71 2652.23,1885.71 2652.5,1880.5C 2654.68,1841.67 2658.52,1803 2664,1764.5C 2665.98,1748.93 2669.98,1733.93 2676,1719.5C 2681.32,1715.06 2687.48,1712.56 2694.5,1712C 2702.64,1711.11 2710.64,1710.27 2718.5,1709.5 Z"/></g>
<g><path style="opacity:1" fill="#494c55" d="M 4286.5,1729.5 C 4292.56,1733.38 4298.23,1737.88 4303.5,1743C 4300.54,1743.94 4297.71,1745.11 4295,1746.5C 4291.52,1741.25 4288.68,1735.59 4286.5,1729.5 Z"/></g>
<g><path style="opacity:1" fill="#f5b136" d="M 2846.5,1886.5 C 2846.96,1890.5 2846.3,1894.17 2844.5,1897.5C 2828.18,1898.15 2812.02,1899.81 2796,1902.5C 2780.69,1931.8 2767.36,1961.8 2756,1992.5C 2753.74,2001.7 2754.41,2010.7 2758,2019.5C 2789.04,2095.33 2822.2,2170.5 2857.5,2245C 2776.05,2381.4 2694.71,2517.9 2613.5,2654.5C 2549.72,2658.88 2487.38,2651.38 2426.5,2632C 2388.88,2619.95 2356.05,2600.11 2328,2572.5C 2326.71,2570.21 2325.04,2568.21 2323,2566.5C 2333.25,2405.13 2344.25,2243.8 2356,2082.5C 2434.33,2034.17 2512.67,1985.83 2591,1937.5C 2601.67,1903.34 2612.83,1869.34 2624.5,1835.5C 2614.71,1824.54 2604.71,1813.71 2594.5,1803C 2598.55,1793.4 2601.89,1783.56 2604.5,1773.5C 2621.26,1782.24 2638.26,1790.57 2655.5,1798.5C 2654.33,1813.86 2652.83,1829.2 2651,1844.5C 2649.93,1860.17 2649.27,1875.83 2649,1891.5C 2651.81,1899.29 2656.64,1905.45 2663.5,1910C 2679.37,1920.3 2696.7,1924.97 2715.5,1924C 2719.77,1923.47 2723.77,1922.13 2727.5,1920C 2741.94,1902.29 2758.27,1886.63 2776.5,1873C 2785.11,1864.88 2793.45,1856.54 2801.5,1848C 2816.08,1849.56 2830.74,1850.39 2845.5,1850.5C 2846.42,1862.47 2846.75,1874.47 2846.5,1886.5 Z"/></g>
<g><path style="opacity:1" fill="#6d5846" d="M 4054.5,1811.5 C 4061.12,1811.23 4066.62,1813.56 4071,1818.5C 4081.51,1834.35 4086.34,1851.85 4085.5,1871C 4085.94,1883.19 4083.44,1894.69 4078,1905.5C 4067.94,1915.49 4058.94,1914.49 4051,1902.5C 4040.1,1881.42 4036.43,1859.08 4040,1835.5C 4041.58,1825.31 4046.41,1817.31 4054.5,1811.5 Z"/></g>
<g><path style="opacity:1" fill="#3b3b52" d="M 4056.5,1818.5 C 4059.02,1818.76 4061.35,1819.59 4063.5,1821C 4069.04,1827.22 4072.88,1834.39 4075,1842.5C 4079.08,1858.78 4079.41,1875.11 4076,1891.5C 4075.06,1894.99 4073.72,1898.33 4072,1901.5C 4067.76,1906.66 4063.43,1906.66 4059,1901.5C 4045.48,1877.8 4042.48,1852.8 4050,1826.5C 4051.96,1823.54 4054.12,1820.87 4056.5,1818.5 Z"/></g>
<g><path style="opacity:1" fill="#6d5846" d="M 3748.5,1850.5 C 3755.59,1850.46 3761.09,1853.46 3765,1859.5C 3777.83,1883.07 3781.16,1908.07 3775,1934.5C 3773.37,1939.47 3770.87,1943.97 3767.5,1948C 3761.98,1952.07 3756.32,1952.4 3750.5,1949C 3743.54,1942.91 3738.7,1935.41 3736,1926.5C 3730.46,1906.23 3730.12,1885.9 3735,1865.5C 3737.32,1858.36 3741.82,1853.36 3748.5,1850.5 Z"/></g>
<g><path style="opacity:1" fill="#3b3b52" d="M 3749.5,1857.5 C 3755.33,1859.16 3759.5,1862.83 3762,1868.5C 3770.41,1887.7 3772.75,1907.7 3769,1928.5C 3767.86,1932.24 3766.53,1935.91 3765,1939.5C 3762.61,1944.26 3759.11,1945.43 3754.5,1943C 3748.14,1936.78 3743.97,1929.28 3742,1920.5C 3738.26,1905.3 3737.59,1889.97 3740,1874.5C 3741.14,1867.55 3744.3,1861.88 3749.5,1857.5 Z"/></g>
<g><path style="opacity:1" fill="#ac813e" d="M 2846.5,1886.5 C 2847.48,1889.96 2847.81,1893.63 2847.5,1897.5C 2846.5,1897.5 2845.5,1897.5 2844.5,1897.5C 2846.3,1894.17 2846.96,1890.5 2846.5,1886.5 Z"/></g>
<g><path style="opacity:1" fill="#6f5947" d="M 3917.5,1895.5 C 3939.74,1893.42 3960.07,1898.59 3978.5,1911C 4001.46,1927.29 4020.29,1947.46 4035,1971.5C 4050.92,1999 4063.25,2028 4072,2058.5C 4074.62,2077.65 4068.12,2092.81 4052.5,2104C 4034.34,2114.72 4014.68,2121.05 3993.5,2123C 3933.77,2128.96 3875.44,2122.62 3818.5,2104C 3804.52,2098.84 3791.52,2091.84 3779.5,2083C 3773.51,2077.86 3770.01,2071.36 3769,2063.5C 3764.75,2010.56 3782.58,1966.73 3822.5,1932C 3850.52,1910.49 3882.18,1898.33 3917.5,1895.5 Z"/></g>
<g><path style="opacity:1" fill="#f1e4ca" d="M 3913.5,1902.5 C 3932.38,1899.79 3950.05,1903.13 3966.5,1912.5C 3974.79,1931.25 3976.63,1950.58 3972,1970.5C 3964.35,1977.78 3956.18,1978.28 3947.5,1972C 3936.45,1961.4 3928.28,1948.9 3923,1934.5C 3918.73,1924.18 3915.56,1913.51 3913.5,1902.5 Z"/></g>
<g><path style="opacity:1" fill="#f2f2eb" d="M 3900.5,1904.5 C 3902.12,1904.36 3903.29,1905.03 3904,1906.5C 3908.86,1930.98 3918.69,1953.14 3933.5,1973C 3929.51,1979.65 3924.18,1984.99 3917.5,1989C 3913.04,1989.87 3908.71,1989.53 3904.5,1988C 3900,1984.83 3896.17,1981 3893,1976.5C 3887.87,1968.58 3883.54,1960.24 3880,1951.5C 3876.06,1939.86 3872.23,1928.19 3868.5,1916.5C 3868.61,1915.56 3868.94,1914.72 3869.5,1914C 3879.68,1910.14 3890.01,1906.97 3900.5,1904.5 Z"/></g>
<g><path style="opacity:1" fill="#f1e4ca" d="M 3856.5,1918.5 C 3857.5,1918.5 3858.5,1918.5 3859.5,1918.5C 3864.98,1943.3 3874.65,1966.3 3888.5,1987.5C 3884.4,1993.22 3879.73,1998.39 3874.5,2003C 3869.43,2006.27 3864.43,2006.27 3859.5,2003C 3856.98,2000.78 3854.81,1998.28 3853,1995.5C 3843.91,1979.55 3837.57,1962.55 3834,1944.5C 3833.33,1940.5 3833.33,1936.5 3834,1932.5C 3841.31,1927.43 3848.81,1922.77 3856.5,1918.5 Z"/></g>
<g><path style="opacity:1" fill="#f471a0" d="M 3980.5,1921.5 C 4003.12,1938.96 4021.29,1960.3 4035,1985.5C 4046.61,2006.7 4055.94,2028.7 4063,2051.5C 4064.27,2057.1 4065.1,2062.77 4065.5,2068.5C 4065.6,2071.04 4065.1,2073.37 4064,2075.5C 4046.03,2058.6 4026.53,2043.77 4005.5,2031C 3992.57,2023.36 3978.91,2017.7 3964.5,2014C 3940.2,2009.08 3922.03,2017.24 3910,2038.5C 3907.86,2046.03 3907.19,2053.7 3908,2061.5C 3914.64,2083.61 3926.47,2102.45 3943.5,2118C 3898.42,2117.32 3854.75,2109.32 3812.5,2094C 3800.74,2089.38 3790.24,2082.88 3781,2074.5C 3778.56,2071.95 3776.89,2068.95 3776,2065.5C 3770.69,2016.01 3786.35,1974.67 3823,1941.5C 3827.2,1963.97 3835.2,1984.97 3847,2004.5C 3858.33,2017.78 3870.83,2018.95 3884.5,2008C 3889.09,2003.92 3893.09,1999.42 3896.5,1994.5C 3903.4,1999.27 3911.06,2000.77 3919.5,1999C 3923.8,1997.19 3927.8,1994.85 3931.5,1992C 3934.7,1987.8 3938.2,1983.97 3942,1980.5C 3953.62,1988.12 3965.12,1988.12 3976.5,1980.5C 3980.89,1976.06 3983.39,1970.73 3984,1964.5C 3985.43,1949.91 3984.26,1935.58 3980.5,1921.5 Z"/></g>
<g><path style="opacity:1" fill="#4a4c54" d="M 4496.5,1985.5 C 4497.64,1988.3 4497.8,1991.3 4497,1994.5C 4495.83,1993.33 4494.67,1992.17 4493.5,1991C 4494.76,1989.26 4495.76,1987.43 4496.5,1985.5 Z"/></g>
<g><path style="opacity:1" fill="#c74973" d="M 3944.5,2022.5 C 3956.66,2022.03 3968.32,2024.2 3979.5,2029C 4009.48,2043.82 4036.48,2062.82 4060.5,2086C 4056.46,2091.71 4051.46,2096.38 4045.5,2100C 4027.72,2109.43 4008.72,2115.1 3988.5,2117C 3978.53,2118.33 3968.53,2118.67 3958.5,2118C 3943.67,2104.85 3931.51,2089.69 3922,2072.5C 3911.88,2047.75 3919.38,2031.08 3944.5,2022.5 Z"/></g>
<g><path style="opacity:1" fill="#705845" d="M 2430.5,2058.5 C 2439.76,2057.81 2448.76,2058.97 2457.5,2062C 2476.21,2072.36 2493.54,2084.69 2509.5,2099C 2544.24,2131.08 2579.57,2162.41 2615.5,2193C 2646.6,2218.89 2680.6,2240.22 2717.5,2257C 2744.29,2267.98 2771.96,2270.98 2800.5,2266C 2732.96,2379.58 2665.29,2493.08 2597.5,2606.5C 2536.77,2611.14 2478.11,2602.64 2421.5,2581C 2395.17,2570.09 2372.67,2553.92 2354,2532.5C 2362.71,2399.17 2371.71,2265.84 2381,2132.5C 2383.54,2113.21 2390.21,2095.54 2401,2079.5C 2408.53,2069.12 2418.36,2062.12 2430.5,2058.5 Z"/></g>
<g><path style="opacity:1" fill="#c34a48" d="M 2430.5,2062.5 C 2443.45,2061.32 2455.45,2064.16 2466.5,2071C 2482.74,2082.57 2498.41,2094.9 2513.5,2108C 2552.15,2145.13 2592.48,2180.13 2634.5,2213C 2658.41,2231.13 2684.08,2246.46 2711.5,2259C 2725.4,2264.44 2739.73,2268.44 2754.5,2271C 2692.86,2278.3 2631.19,2278.3 2569.5,2271C 2524.76,2266.09 2482.76,2252.75 2443.5,2231C 2420.95,2216.79 2402.79,2198.29 2389,2175.5C 2385.74,2170.22 2383.57,2164.55 2382.5,2158.5C 2382.33,2129.16 2390.5,2102.49 2407,2078.5C 2413.41,2070.9 2421.24,2065.56 2430.5,2062.5 Z"/></g>
<g><path style="opacity:1" fill="#9f4d4c" d="M 2382.5,2172.5 C 2395.73,2196.9 2414.06,2216.74 2437.5,2232C 2464.7,2247.96 2493.7,2259.63 2524.5,2267C 2580.92,2278.05 2637.92,2282.38 2695.5,2280C 2727.9,2277.75 2760.23,2275.08 2792.5,2272C 2726.5,2382.33 2660.5,2492.67 2594.5,2603C 2537.12,2606.28 2481.45,2598.28 2427.5,2579C 2400.67,2568.5 2377.5,2552.67 2358,2531.5C 2365.17,2411.77 2373.34,2292.1 2382.5,2172.5 Z"/></g>
<g><path style="opacity:1" fill="#71614e" d="M 4337.5,2266.5 C 4338.76,2267.51 4339.43,2269.01 4339.5,2271C 4338.75,2288.99 4338.08,2306.99 4337.5,2325C 4337.83,2328.17 4338.17,2331.33 4338.5,2334.5C 4356.31,2347.14 4373.97,2359.97 4391.5,2373C 4370.18,2379.66 4348.85,2386.33 4327.5,2393C 4320.83,2414.31 4313.67,2435.48 4306,2456.5C 4293.13,2438.59 4280.63,2420.43 4268.5,2402C 4245.83,2401.67 4223.17,2401.33 4200.5,2401C 4214.17,2383.33 4227.83,2365.67 4241.5,2348C 4234.7,2326.61 4227.7,2305.28 4220.5,2284C 4241.48,2290.83 4262.48,2298 4283.5,2305.5C 4302.08,2293.25 4320.08,2280.25 4337.5,2266.5 Z"/></g>
<g><path style="opacity:1" fill="#47e9d9" d="M 4335.5,2270.5 C 4336.65,2270.79 4337.32,2271.62 4337.5,2273C 4336.71,2290.48 4336.04,2307.98 4335.5,2325.5C 4335.83,2328.83 4336.17,2332.17 4336.5,2335.5C 4353.03,2347.86 4369.69,2360.03 4386.5,2372C 4384.78,2373.53 4382.78,2374.53 4380.5,2375C 4362.5,2380.33 4344.5,2385.67 4326.5,2391C 4319.28,2411.34 4312.44,2431.84 4306,2452.5C 4293.83,2435 4281.67,2417.5 4269.5,2400C 4247.83,2399.67 4226.17,2399.33 4204.5,2399C 4217.51,2381.99 4230.51,2364.99 4243.5,2348C 4237.94,2328.97 4231.77,2310.14 4225,2291.5C 4224.22,2290.06 4224.39,2288.72 4225.5,2287.5C 4244.92,2293.97 4264.25,2300.64 4283.5,2307.5C 4284.5,2307.33 4285.5,2307.17 4286.5,2307C 4302.9,2294.81 4319.23,2282.65 4335.5,2270.5 Z"/></g>
<g><path style="opacity:1" fill="#705b49" d="M 3534.5,2619.5 C 3574.4,2646.87 3611.23,2678.21 3645,2713.5C 3664.54,2734.04 3680.54,2757.04 3693,2782.5C 3708.97,2823.36 3697.47,2853.53 3658.5,2873C 3642.14,2881.26 3624.81,2885.76 3606.5,2886.5C 3584.41,2886.37 3566.91,2877.37 3554,2859.5C 3543.48,2843.29 3536.48,2825.62 3533,2806.5C 3529.97,2790.96 3527.97,2775.3 3527,2759.5C 3524.78,2712.57 3527.28,2665.9 3534.5,2619.5 Z"/></g>
<g><path style="opacity:1" fill="#f1ede6" d="M 3537.5,2626.5 C 3574.42,2651.89 3608.58,2680.89 3640,2713.5C 3660.36,2734.54 3677.02,2758.2 3690,2784.5C 3695.27,2797.7 3697.27,2811.36 3696,2825.5C 3692.75,2839.15 3685.59,2850.32 3674.5,2859C 3648.68,2877.83 3620.02,2885.17 3588.5,2881C 3567.99,2872.82 3553.82,2858.32 3546,2837.5C 3536.95,2811.94 3531.62,2785.6 3530,2758.5C 3528.36,2714.2 3530.86,2670.2 3537.5,2626.5 Z"/></g>
<g><path style="opacity:1" fill="#6f5b48" d="M 4263.5,2879.5 C 4304.07,2907.54 4341.57,2939.54 4376,2975.5C 4393.72,2994.89 4408.72,3016.23 4421,3039.5C 4439.49,3083.67 4426.99,3115.5 4383.5,3135C 4365.43,3143.6 4346.43,3147.27 4326.5,3146C 4308.56,3143.72 4294.4,3135.22 4284,3120.5C 4270.11,3098.18 4261.78,3073.85 4259,3047.5C 4253.37,2991.32 4254.87,2935.32 4263.5,2879.5 Z"/></g>
<g><path style="opacity:1" fill="#6f5b48" d="M 3870.5,2879.5 C 3908.81,2906.62 3944.64,2936.95 3978,2970.5C 3998.1,2991.37 4014.77,3014.7 4028,3040.5C 4045.34,3081.84 4034.17,3112.67 3994.5,3133C 3927.99,3162.83 3886.49,3142.33 3870,3071.5C 3862.38,3031.15 3860.04,2990.48 3863,2949.5C 3864.38,2926.03 3866.88,2902.7 3870.5,2879.5 Z"/></g>
<g><path style="opacity:1" fill="#f1ede6" d="M 3872.5,2886.5 C 3923.08,2919.93 3967.25,2960.6 4005,3008.5C 4016.86,3024.22 4025.52,3041.55 4031,3060.5C 4036.25,3083.74 4029.75,3102.91 4011.5,3118C 3988.29,3134.97 3962.29,3143.3 3933.5,3143C 3917.72,3140.55 3904.88,3133.05 3895,3120.5C 3881.57,3100.88 3873.23,3079.21 3870,3055.5C 3862.79,2999.05 3863.62,2942.72 3872.5,2886.5 Z"/></g>
<g><path style="opacity:1" fill="#f1ede6" d="M 4266.5,2886.5 C 4304.09,2912.56 4338.92,2942.23 4371,2975.5C 4389.28,2994.72 4404.61,3016.05 4417,3039.5C 4426.25,3057.79 4427.92,3076.79 4422,3096.5C 4412.21,3113.61 4398.05,3125.78 4379.5,3133C 4324.85,3156.46 4288.35,3139.96 4270,3083.5C 4259.67,3042.5 4256,3000.83 4259,2958.5C 4260.64,2934.39 4263.14,2910.39 4266.5,2886.5 Z"/></g>
<g><path style="opacity:1" fill="#5a9d98" d="M 3627.5,3146.5 C 3628.5,3146.41 3629.33,3146.75 3630,3147.5C 3641.3,3164.3 3652.8,3180.97 3664.5,3197.5C 3686.16,3198.33 3707.83,3198.83 3729.5,3199C 3716.1,3216.06 3703.1,3233.39 3690.5,3251C 3697.44,3270.14 3703.77,3289.47 3709.5,3309C 3709.17,3309.5 3708.83,3310 3708.5,3310.5C 3689.07,3303.71 3669.57,3297.04 3650,3290.5C 3632.43,3302.39 3615.1,3314.72 3598,3327.5C 3597.81,3305.83 3597.81,3284.16 3598,3262.5C 3581.17,3250.33 3564.33,3238.17 3547.5,3226C 3549.22,3224.47 3551.22,3223.47 3553.5,3223C 3571.89,3217.69 3590.23,3212.19 3608.5,3206.5C 3615.63,3186.76 3621.97,3166.76 3627.5,3146.5 Z"/></g>
<g><path style="opacity:1" fill="#f1ede6" d="M 4170.5,3249.5 C 4219.84,3284 4263.67,3324.66 4302,3371.5C 4314.48,3388.13 4323.48,3406.47 4329,3426.5C 4333,3449.7 4325.84,3468.54 4307.5,3483C 4282.13,3502.02 4253.79,3509.35 4222.5,3505C 4210.21,3500.93 4200.04,3493.76 4192,3483.5C 4181.18,3467.72 4173.85,3450.39 4170,3431.5C 4163.4,3396.11 4161.07,3360.45 4163,3324.5C 4164.64,3299.36 4167.14,3274.36 4170.5,3249.5 Z"/></g>
<g><path style="opacity:1" fill="#efe0c0" d="M 4496.5,3393.5 C 4497.16,3480.51 4496.5,3567.17 4494.5,3653.5C 4451.98,3636.96 4408.31,3624.12 4363.5,3615C 4315.8,3606.21 4267.8,3604.21 4219.5,3609C 4150.55,3618.22 4092.71,3648.39 4046,3699.5C 4008.9,3745.04 3982.9,3796.37 3968,3853.5C 3950.81,3918.99 3941.98,3985.66 3941.5,4053.5C 3941.16,4063.71 3940.16,4073.71 3938.5,4083.5C 3867.85,4060.1 3795.52,4052.93 3721.5,4062C 3645.48,4073.92 3581.98,4108.42 3531,4165.5C 3493.43,4211.79 3465.93,4263.62 3448.5,4321C 3422.04,4315.52 3395.37,4310.86 3368.5,4307C 3340.42,4303.96 3312.26,4302.13 3284,4301.5C 3236.94,4300.73 3191.11,4307.57 3146.5,4322C 3080.03,4344.81 3034.19,4388.97 3009,4454.5C 2980.15,4441.2 2949.82,4433.86 2918,4432.5C 2868.14,4431.16 2833.97,4453.49 2815.5,4499.5C 2685.5,4499.5 2555.5,4499.5 2425.5,4499.5C 2431.73,4474.22 2444.73,4453.05 2464.5,4436C 2485.3,4419.83 2508.63,4408.83 2534.5,4403C 2563.95,4397.05 2593.62,4394.55 2623.5,4395.5C 2671.49,4284.35 2754.82,4216.85 2873.5,4193C 2971.11,4177.96 3066.44,4186.79 3159.5,4219.5C 3219.19,4067.32 3328.19,3970.15 3486.5,3928C 3587.15,3902.47 3688.82,3897.63 3791.5,3913.5C 3792.61,3844.72 3798.44,3776.39 3809,3708.5C 3819.51,3641.97 3839.84,3578.63 3870,3518.5C 3931.67,3402.8 4028,3339.14 4159,3327.5C 4157.3,3364.93 4160.3,3401.93 4168,3438.5C 4172.29,3455.35 4179.29,3471.02 4189,3485.5C 4201.99,3501.83 4218.99,3510.16 4240,3510.5C 4263.64,3508.73 4285.47,3501.57 4305.5,3489C 4333.1,3468.79 4340.6,3442.63 4328,3410.5C 4314.73,3381.07 4296.56,3355.07 4273.5,3332.5C 4274.33,3332.17 4275.17,3331.83 4276,3331.5C 4352.54,3342.24 4426.04,3362.9 4496.5,3393.5 Z"/></g>
<g><path style="opacity:1" fill="#af9d83" d="M 4496.5,3393.5 C 4497.5,3480.33 4497.83,3567.33 4497.5,3654.5C 4496.21,3654.74 4495.21,3654.4 4494.5,3653.5C 4496.5,3567.17 4497.16,3480.51 4496.5,3393.5 Z"/></g>
<g><path style="opacity:1" fill="#e1c899" d="M 4495.5,3659.5 C 4496.5,3773.76 4496.83,3888.1 4496.5,4002.5C 4431.91,4022.91 4383.41,4062.91 4351,4122.5C 4326.43,4172.78 4313.1,4226.12 4311,4282.5C 4310.67,4303.83 4310.33,4325.17 4310,4346.5C 4291.2,4322.37 4267.37,4305.2 4238.5,4295C 4212.33,4288.31 4187.83,4292.14 4165,4306.5C 4130.45,4283.48 4093.29,4265.65 4053.5,4253C 3947.72,4224.46 3878.89,4262.29 3847,4366.5C 3843.83,4379.17 3840.66,4391.84 3837.5,4404.5C 3810.94,4388.59 3782.27,4378.76 3751.5,4375C 3702.68,4371.32 3668.51,4391.82 3649,4436.5C 3641.81,4455.59 3636.64,4475.25 3633.5,4495.5C 3363.17,4496.83 3092.83,4496.83 2822.5,4495.5C 2840.67,4456.06 2871.67,4436.39 2915.5,4436.5C 2949.39,4438.68 2981.56,4447.01 3012,4461.5C 3034.65,4396.85 3078.15,4352.68 3142.5,4329C 3196.99,4310.57 3252.99,4303.24 3310.5,4307C 3358.17,4309.48 3405.17,4316.14 3451.5,4327C 3468.45,4270.6 3494.95,4219.44 3531,4173.5C 3592.01,4103.59 3669.17,4066.75 3762.5,4063C 3825.12,4060.49 3885.79,4069.99 3944.5,4091.5C 3944.98,4032.8 3949.81,3974.46 3959,3916.5C 3968.63,3854.93 3988.96,3797.27 4020,3743.5C 4074.66,3658.06 4153.16,3613.89 4255.5,3611C 4299.76,3610.03 4343.43,3614.7 4386.5,3625C 4423.68,3634.06 4460.01,3645.56 4495.5,3659.5 Z"/></g>
<g><path style="opacity:1" fill="#a7906f" d="M 4495.5,3659.5 C 4496.83,3716.33 4497.5,3773.5 4497.5,3831C 4497.5,3888.33 4497.17,3945.5 4496.5,4002.5C 4496.83,3888.1 4496.5,3773.76 4495.5,3659.5 Z"/></g>
<g><path style="opacity:1" fill="#a27d54" d="M 4494.5,4009.5 C 4495.21,4008.6 4496.21,4008.26 4497.5,4008.5C 4497.83,4171.33 4497.5,4334 4496.5,4496.5C 4497.17,4333.83 4496.5,4171.5 4494.5,4009.5 Z"/></g>
<g><path style="opacity:1" fill="#d5a062" d="M 4494.5,4009.5 C 4496.5,4171.5 4497.17,4333.83 4496.5,4496.5C 4210.5,4496.5 3924.5,4496.5 3638.5,4496.5C 3641.71,4469.05 3650.21,4443.38 3664,4419.5C 3686.02,4388.25 3716.19,4375.09 3754.5,4380C 3785.54,4384.75 3814.21,4395.59 3840.5,4412.5C 3846.54,4380 3857.04,4349 3872,4319.5C 3902.16,4266.83 3947.66,4243.33 4008.5,4249C 4040.01,4252.84 4070.01,4261.51 4098.5,4275C 4121.81,4285.98 4144.14,4298.48 4165.5,4312.5C 4196.07,4292.49 4227.4,4291.32 4259.5,4309C 4281.54,4322.7 4300.04,4340.2 4315,4361.5C 4312.28,4310.75 4315.62,4260.42 4325,4210.5C 4334.39,4163.4 4353.72,4121.07 4383,4083.5C 4412.84,4047.83 4450.01,4023.16 4494.5,4009.5 Z"/></g>
<g><path style="opacity:1" fill="#b09e84" d="M 3941.5,4053.5 C 3941.5,4063.83 3941.5,4074.17 3941.5,4084.5C 3940.21,4084.74 3939.21,4084.4 3938.5,4083.5C 3940.16,4073.71 3941.16,4063.71 3941.5,4053.5 Z"/></g>
</svg>
