<?xml version="1.0" encoding="UTF-8"?>
<!DOCTYPE svg PUBLIC "-//W3C//DTD SVG 1.1//EN" "http://www.w3.org/Graphics/SVG/1.1/DTD/svg11.dtd">
<svg xmlns="http://www.w3.org/2000/svg" version="1.1" width="4500px" height="4500px" style="shape-rendering:geometricPrecision; text-rendering:geometricPrecision; image-rendering:optimizeQuality; fill-rule:evenodd; clip-rule:evenodd" xmlns:xlink="http://www.w3.org/1999/xlink">
<g><path style="opacity:0.992" fill="#6d5845" d="M -0.5,-0.5 C 972.5,-0.5 1945.5,-0.5 2918.5,-0.5C 2774.5,204.49 2626.33,406.49 2474,605.5C 2316.55,810.967 2156.05,1014.13 1992.5,1215C 2303.4,1478.36 2609.4,1747.86 2910.5,2023.5C 3022.22,1941.78 3134.22,1860.45 3246.5,1779.5C 3241.43,2016.31 3235.76,2253.14 3229.5,2490C 3229.83,2495.83 3230.17,2501.67 3230.5,2507.5C 3426.17,2649.5 3621.83,2791.5 3817.5,2933.5C 3817.33,2933.83 3817.17,2934.17 3817,2934.5C 3585.25,3003.86 3353.42,3073.03 3121.5,3142C 3046.34,3372.81 2971.18,3603.64 2896,3834.5C 2758.25,3635.34 2620.75,3436.01 2483.5,3236.5C 2240.83,3235.83 1998.17,3235.17 1755.5,3234.5C 1848.83,3112.5 1942.17,2990.5 2035.5,2868.5C 1886.17,2773.5 1735.84,2680 1584.5,2588C 1415.99,2485.91 1246.66,2385.07 1076.5,2285.5C 736.902,2662.24 386.568,3030.07 25.5,3389C 16.662,3397.01 7.99529,3405.17 -0.5,3413.5C -0.5,2275.5 -0.5,1137.5 -0.5,-0.5 Z"/></g>
<g><path style="opacity:1" fill="#647a6e" d="M 397.5,9.5 C 268.167,9.5 138.833,9.5 9.5,9.5C 9.5,109.5 9.5,209.5 9.5,309.5C 8.50056,209.335 8.16722,109.001 8.5,8.5C 138.334,8.1671 268.001,8.50043 397.5,9.5 Z"/></g>
<g><path style="opacity:1" fill="#5a9d98" d="M 397.5,9.5 C 563.92,121.717 727.586,237.884 888.5,358C 1169.59,568.584 1445.59,785.917 1716.5,1010C 2116.59,1340.72 2508.25,1682.05 2891.5,2034C 2813.61,2090.73 2735.61,2147.23 2657.5,2203.5C 2567.2,2171.69 2476.87,2139.86 2386.5,2108C 2241.93,1982.08 2095.59,1858.41 1947.5,1737C 1595.76,1447.85 1236.43,1168.85 869.5,900C 588.699,694.712 302.033,497.879 9.5,309.5C 9.5,209.5 9.5,109.5 9.5,9.5C 138.833,9.5 268.167,9.5 397.5,9.5 Z"/></g>
<g><path style="opacity:1" fill="#4f5264" d="M 436.5,12.5 C 1250.67,11.3334 2065,11.1668 2879.5,12C 2741.96,205.9 2601.13,397.4 2457,586.5C 2325.6,757.951 2192.26,927.951 2057,1096.5C 2028.97,1130.6 2000.97,1164.6 1973,1198.5C 1770.21,1028.03 1565.38,860.201 1358.5,695C 1108.6,496.411 853.595,304.745 593.5,120C 541.543,83.5296 489.209,47.6963 436.5,12.5 Z"/></g>
<g><path style="opacity:1" fill="#b18040" d="M 10.5,333.5 C 9.50022,583.999 9.16689,834.666 9.5,1085.5C 8.16711,834.666 8.16711,583.666 9.5,332.5C 10.1067,332.624 10.44,332.957 10.5,333.5 Z"/></g>
<g><path style="opacity:1" fill="#f5a93a" d="M 10.5,333.5 C 255.469,491.141 496.136,654.974 732.5,825C 1084,1079.12 1428.67,1342.45 1766.5,1615C 1958.21,1770.36 2147.88,1928.36 2335.5,2089C 2334.17,2089.67 2332.83,2089.67 2331.5,2089C 2210.14,2046.05 2088.8,2003.21 1967.5,1960.5C 2013.14,2101.54 2058.98,2242.54 2105,2383.5C 2107.04,2390.93 2109.04,2398.26 2111,2405.5C 1590.67,2062.05 1064.51,1727.22 532.5,1401C 358.803,1294.82 184.47,1189.65 9.5,1085.5C 9.16689,834.666 9.50022,583.999 10.5,333.5 Z"/></g>
<g><path style="opacity:1" fill="#ed583b" d="M 8.5,1108.5 C 15.2282,1111.7 21.8949,1115.2 28.5,1119C 485.186,1392.65 937.853,1672.32 1386.5,1958C 1632.85,2115.37 1877.85,2274.7 2121.5,2436C 2145.79,2509.05 2169.79,2582.21 2193.5,2655.5C 2144.94,2721.07 2095.6,2786.07 2045.5,2850.5C 1728.33,2650.39 1407.66,2455.56 1083.5,2266C 728.494,2058.9 370.327,1856.73 9,1659.5C 8.5,1475.83 8.33333,1292.17 8.5,1108.5 Z"/></g>
<g><path style="opacity:1" fill="#4f5264" d="M 11.5,1683.5 C 362.381,1874.59 710.047,2070.76 1054.5,2272C 717.95,2645.92 370.45,3010.75 12,3366.5C 11.5,2805.5 11.3333,2244.5 11.5,1683.5 Z"/></g>
<g><path style="opacity:1" fill="#f7bf58" d="M 3232.5,1805.5 C 3233.17,1809.65 3233.5,1813.99 3233.5,1818.5C 3227.69,2050.07 3221.69,2281.57 3215.5,2513C 3406.32,2651.91 3597.32,2790.58 3788.5,2929C 3562.64,2996.84 3336.64,3064.17 3110.5,3131C 3041.67,3343.48 2972.84,3555.98 2904,3768.5C 2899.93,3780.21 2895.76,3791.88 2891.5,3803.5C 2757.67,3610.16 2624,3416.66 2490.5,3223C 2254.17,3222.67 2017.83,3222.33 1781.5,3222C 1870.36,3106.64 1959.02,2991.14 2047.5,2875.5C 2048.29,2875.93 2049.13,2876.26 2050,2876.5C 2105.4,2804.71 2160.57,2732.71 2215.5,2660.5C 2143.36,2438.09 2071.03,2215.76 1998.5,1993.5C 1998.83,1993.17 1999.17,1992.83 1999.5,1992.5C 2220.34,2069.78 2441.01,2147.45 2661.5,2225.5C 2748.09,2162.62 2834.59,2099.62 2921,2036.5C 2921,2035.17 2921,2033.83 2921,2032.5C 3025.17,1957.18 3129,1881.51 3232.5,1805.5 Z"/></g>
</svg>
