<?xml version="1.0" encoding="UTF-8" standalone="no"?>
<!DOCTYPE svg PUBLIC "-//W3C//DTD SVG 1.1//EN" "http://www.w3.org/Graphics/SVG/1.1/DTD/svg11.dtd">
<svg xmlns="http://www.w3.org/2000/svg" version="1.1" viewBox="0.00 0.00 1924.00 1088.00">
<g stroke-width="2.00" fill="none" stroke-linecap="butt">
<path stroke="#4b6260" vector-effect="non-scaling-stroke" d="
  M 1112.36 91.99
  Q 1110.92 93.04 1110.40 92.40"
/>
<path stroke="#68827b" vector-effect="non-scaling-stroke" d="
  M 1110.40 92.40
  L 1080.91 139.58
  Q 1080.44 140.33 1081.06 140.95
  L 1093.21 153.36
  Q 1093.53 153.68 1093.29 154.08
  L 1084.04 169.42
  A 0.32 0.32 0.0 0 0 1084.53 169.82
  L 1097.50 157.53
  Q 1097.99 157.07 1098.46 157.55
  L 1104.38 163.60
  Q 1104.78 164.00 1105.02 163.49
  Q 1105.25 163.00 1105.09 162.01"
/>
<path stroke="#4b6260" vector-effect="non-scaling-stroke" d="
  M 1105.09 162.01
  Q 1105.47 161.27 1106.68 165.19"
/>
<path stroke="#68827b" vector-effect="non-scaling-stroke" d="
  M 1016.16 333.07
  Q 1017.32 333.41 1017.62 332.50
  Q 1017.81 331.93 1017.25 331.54"
/>
<path stroke="#4b6260" vector-effect="non-scaling-stroke" d="
  M 1017.25 331.54
  Q 1018.26 331.73 1018.74 331.59
  Q 1056.19 321.18 1093.58 310.69
  A 3.58 3.57 6.3 0 0 1095.76 308.95
  L 1113.21 276.82
  A 0.82 0.82 0.0 0 0 1112.27 275.64
  Q 1095.26 280.28 1077.94 285.32
  C 1074.56 286.31 1066.69 287.46 1062.87 290.11
  Q 1053.76 296.42 1044.09 303.04
  Q 1042.60 304.07 1041.02 303.18
  L 1029.24 296.60
  A 1.38 1.38 0.0 0 0 1027.42 297.04
  Q 1021.56 305.71 1015.99 314.24
  Q 1015.58 314.87 1015.73 315.58"
/>
<path stroke="#68827b" vector-effect="non-scaling-stroke" d="
  M 1015.73 315.58
  Q 1015.02 315.76 1014.68 316.58"
/>
<path stroke="#458b96" vector-effect="non-scaling-stroke" d="
  M 1105.09 162.01
  L 1110.40 92.40"
/>
<path stroke="#458b96" vector-effect="non-scaling-stroke" d="
  M 1017.25 331.54
  L 1015.73 315.58"
/>
<path stroke="#68827b" vector-effect="non-scaling-stroke" d="
  M 1044.90 139.05
  L 1079.00 139.42
  A 1.07 1.04 -73.1 0 0 1079.91 138.92
  L 1109.95 90.74
  A 0.42 0.42 0.0 0 0 1109.57 90.09
  Q 1099.28 90.75 1088.97 92.11
  Q 1086.10 92.49 1083.48 93.90
  Q 1051.90 110.88 1020.28 128.05
  A 0.35 0.34 47.4 0 0 1020.26 128.64
  L 1034.95 138.13
  Q 1036.08 138.85 1035.61 140.11
  L 1026.16 165.27
  A 0.41 0.40 -18.4 0 0 1026.88 165.63
  L 1043.48 139.82
  A 1.67 1.66 -73.2 0 1 1044.90 139.05"
/>
<path stroke="#4b6260" vector-effect="non-scaling-stroke" d="
  M 967.30 296.55
  Q 967.89 296.72 968.09 296.10
  Q 980.63 257.09 999.24 196.97
  Q 999.40 196.47 999.88 196.27
  Q 1026.37 185.40 1053.06 175.03
  Q 1055.44 174.11 1057.51 171.23
  Q 1067.91 156.73 1077.53 142.30
  A 0.93 0.93 0.0 0 0 1076.75 140.85
  L 1045.59 140.99
  A 2.53 2.51 -73.6 0 0 1043.50 142.14
  L 1022.20 175.22
  A 0.55 0.55 0.0 0 1 1021.23 174.73
  L 1033.95 140.99
  A 1.50 1.50 0.0 0 0 1033.34 139.19
  L 1019.31 130.39
  A 1.56 1.56 0.0 0 0 1017.04 131.11
  Q 1012.00 143.25 1005.97 155.36
  Q 1003.78 159.74 1002.94 161.81
  Q 1002.08 163.92 1002.05 163.98
  Q 994.90 179.87 987.49 195.64
  Q 984.78 201.41 979.75 213.55
  Q 979.44 214.31 978.54 215.44
  C 977.50 216.75 977.09 218.64 976.61 219.70
  Q 967.21 240.17 957.82 260.65
  C 957.39 261.58 957.23 263.08 956.19 264.04
  Q 955.92 264.28 955.77 264.60
  L 951.10 274.45
  A 1.97 1.96 38.6 0 0 951.34 276.51
  L 961.01 288.69"
/>
<path stroke="#556e6c" vector-effect="non-scaling-stroke" d="
  M 1080.04 175.57
  A 0.36 0.36 0.0 0 1 1079.48 175.12
  L 1091.87 154.18
  A 0.36 0.36 0.0 0 0 1091.82 153.74
  L 1080.09 141.52
  A 0.36 0.36 0.0 0 0 1079.54 141.56
  L 1056.68 174.38
  A 0.36 0.36 0.0 0 0 1056.67 174.77
  L 1073.12 202.71
  A 0.36 0.36 0.0 0 0 1073.71 202.76
  L 1104.89 166.08
  A 0.36 0.36 0.0 0 0 1104.87 165.60
  L 1098.15 158.95
  A 0.36 0.36 0.0 0 0 1097.65 158.95
  L 1080.04 175.57"
/>
<path stroke="#68827b" vector-effect="non-scaling-stroke" d="
  M 975.10 189.72
  C 974.12 184.36 973.23 179.00 972.33 173.58
  Q 972.26 173.13 972.61 172.84
  L 976.82 169.36
  A 0.69 0.69 0.0 0 0 977.02 168.57
  L 972.31 156.98
  Q 972.01 156.25 971.22 156.16
  L 962.54 155.14
  Q 961.90 155.06 962.06 155.69
  L 965.48 169.07
  A 0.68 0.65 -85.1 0 0 965.81 169.48
  L 969.27 171.37
  Q 969.63 171.56 969.73 171.96
  L 974.30 190.56
  Q 974.39 190.90 974.68 190.70
  Q 975.22 190.34 975.10 189.72"
/>
<path stroke="#68827b" vector-effect="non-scaling-stroke" d="
  M 964.14 174.63
  C 964.39 168.96 963.27 162.84 961.35 157.63
  A 0.53 0.53 0.0 0 0 960.36 157.60
  L 938.21 208.79
  A 0.79 0.78 23.1 0 0 938.64 209.84
  L 961.25 218.93
  Q 961.84 219.17 961.88 218.54
  Q 963.16 196.51 964.14 174.63"
/>
<path stroke="#68827b" vector-effect="non-scaling-stroke" d="
  M 977.51 202.65
  A 0.37 0.37 0.0 0 1 976.78 202.71
  Q 972.64 187.44 968.69 173.11
  Q 968.21 171.34 966.02 171.05
  Q 965.52 170.99 965.49 171.50
  L 963.01 219.18
  A 0.41 0.41 0.0 0 0 963.56 219.59
  L 977.35 214.41
  A 1.27 1.26 2.2 0 0 978.07 213.75
  L 984.57 199.54
  A 1.08 1.03 -41.3 0 0 984.63 198.85
  L 977.81 171.15
  A 0.68 0.68 0.0 0 0 976.69 170.81
  L 973.98 173.30
  Q 973.62 173.64 973.69 174.13
  Q 975.50 187.72 977.43 201.26
  Q 977.55 202.14 977.51 202.65"
/>
<path stroke="#68827b" vector-effect="non-scaling-stroke" d="
  M 1055.99 175.81
  A 0.50 0.50 0.0 0 0 1055.17 175.76
  L 1033.61 202.83
  A 0.50 0.50 0.0 0 0 1033.50 203.22
  L 1036.58 223.89
  A 0.50 0.50 0.0 0 0 1037.17 224.31
  L 1079.05 216.14
  A 0.50 0.50 0.0 0 0 1079.38 215.39
  L 1055.99 175.81"
/>
<path stroke="#68827b" vector-effect="non-scaling-stroke" d="
  M 1053.06 176.57
  A 0.33 0.33 0.0 0 0 1052.68 176.06
  L 1002.70 196.44
  A 0.33 0.33 0.0 0 0 1002.77 197.07
  L 1032.14 202.38
  A 0.33 0.33 0.0 0 0 1032.45 202.26
  L 1053.06 176.57"
/>
<path stroke="#68827b" vector-effect="non-scaling-stroke" d="
  M 1162.67 186.36
  A 0.54 0.54 0.0 0 0 1162.52 185.33
  L 1131.15 180.60
  A 0.54 0.54 0.0 0 0 1130.86 180.64
  L 1093.65 195.63
  A 0.54 0.54 0.0 0 0 1093.59 196.61
  L 1114.91 208.29
  A 0.54 0.54 0.0 0 0 1115.40 208.31
  L 1162.67 186.36"
/>
<path stroke="#68827b" vector-effect="non-scaling-stroke" d="
  M 1133.71 239.88
  L 1164.16 187.91
  A 0.48 0.47 2.7 0 0 1163.55 187.24
  L 1116.14 209.25
  A 0.96 0.95 -11.8 0 0 1115.58 210.10
  L 1115.17 227.40
  A 1.97 1.96 -20.1 0 1 1114.50 228.83
  L 1089.88 250.54
  Q 1089.48 250.89 1088.97 251.00
  Q 1087.98 251.23 1087.86 252.26
  A 0.25 0.25 0.0 0 0 1088.24 252.50
  L 1116.04 236.10
  Q 1116.48 235.84 1116.97 235.97
  L 1132.82 240.25
  A 0.81 0.80 -67.3 0 0 1133.71 239.88"
/>
<path stroke="#4b6260" vector-effect="non-scaling-stroke" d="
  M 1112.69 208.58
  L 1092.31 197.40
  A 1.98 1.96 -51.4 0 0 1090.06 197.66
  L 1077.62 208.70
  A 1.08 1.08 0.0 0 0 1077.43 210.08
  L 1080.92 215.58
  Q 1081.21 216.03 1080.91 216.48
  L 1069.30 233.85
  A 0.63 0.63 0.0 0 0 1070.15 234.74
  L 1112.71 209.78
  A 0.69 0.69 0.0 0 0 1112.69 208.58"
/>
<path stroke="#556e6c" vector-effect="non-scaling-stroke" d="
  M 980.69 329.76
  Q 981.07 328.92 981.38 328.88
  Q 1007.92 277.79 1034.59 226.57
  A 4.41 4.38 -35.1 0 0 1035.05 223.97
  L 1032.57 205.32
  A 1.73 1.73 0.0 0 0 1031.21 203.85
  L 1001.47 197.69
  A 1.37 1.37 0.0 0 0 999.89 198.62
  L 964.57 311.40"
/>
<path stroke="#556e6c" vector-effect="non-scaling-stroke" d="
  M 1071.23 283.28
  Q 1101.59 262.57 1131.73 241.64
  A 0.30 0.30 0.0 0 0 1131.63 241.11
  L 1117.01 237.24
  A 1.11 1.09 -52.0 0 0 1116.17 237.35
  L 1081.24 257.99
  A 0.48 0.47 -80.7 0 1 1080.69 257.22
  L 1113.17 228.59
  A 2.62 2.61 70.0 0 0 1114.04 226.71
  L 1114.35 211.26
  A 0.61 0.61 0.0 0 0 1113.43 210.72
  Q 1091.15 223.61 1068.77 236.73
  Q 1066.79 237.88 1065.51 239.79
  Q 1047.25 266.94 1029.35 294.18
  A 0.77 0.77 0.0 0 0 1029.74 295.33
  Q 1035.36 297.21 1040.21 300.91
  C 1041.32 301.75 1042.78 302.42 1043.93 301.68
  Q 1050.19 297.64 1071.23 283.28"
/>
<path stroke="#4b6260" vector-effect="non-scaling-stroke" d="
  M 942.72 212.94
  C 941.76 212.58 940.42 211.39 939.21 211.69
  A 1.05 1.04 -17.4 0 0 938.48 213.07
  L 955.63 258.81
  A 0.95 0.94 -42.9 0 0 957.37 258.87
  Q 959.57 254.10 961.84 249.12
  Q 962.80 247.01 962.71 244.69
  Q 962.24 232.72 961.78 221.22
  Q 961.75 220.44 961.03 220.14
  Q 951.50 216.19 942.72 212.94"
/>
<path stroke="#556e6c" vector-effect="non-scaling-stroke" d="
  M 963.68 243.12
  A 0.43 0.43 0.0 0 0 964.50 243.29
  L 976.86 216.39
  A 0.43 0.43 0.0 0 0 976.31 215.81
  L 963.27 221.03
  A 0.43 0.43 0.0 0 0 963.00 221.44
  L 963.68 243.12"
/>
<path stroke="#556e6c" vector-effect="non-scaling-stroke" d="
  M 1001.98 328.72
  L 1004.55 328.72
  A 1.08 1.06 16.3 0 0 1005.42 328.25
  L 1078.10 218.53
  A 0.58 0.55 -37.5 0 0 1078.17 218.09
  Q 1078.05 217.57 1077.51 217.68
  Q 1057.02 221.68 1036.96 225.66
  A 1.69 1.68 7.8 0 0 1035.79 226.54
  L 982.19 329.84"
/>
<path stroke="#68827b" vector-effect="non-scaling-stroke" d="
  M 1148.57 279.63
  L 1116.41 274.95
  A 0.76 0.75 18.2 0 0 1115.63 275.34
  L 1098.01 307.70
  A 0.54 0.53 -88.6 0 0 1098.71 308.44
  Q 1118.81 298.71 1139.17 288.55
  Q 1145.10 285.59 1148.91 280.46
  A 0.52 0.52 0.0 0 0 1148.57 279.63"
/>
<path stroke="#68827b" vector-effect="non-scaling-stroke" d="
  M 1144.65 287.21
  Q 1144.61 287.35 1144.64 287.48
  Q 1144.68 287.68 1144.87 287.73
  L 1153.10 289.92
  A 0.44 0.43 -1.8 0 0 1153.63 289.36
  L 1150.98 281.58
  A 0.46 0.46 0.0 0 0 1150.22 281.41
  L 1146.18 285.43"
/>
<path stroke="#68827b" vector-effect="non-scaling-stroke" d="
  M 1097.59 310.20
  A 0.43 0.43 0.0 0 0 1097.59 310.97
  L 1118.77 321.03
  A 0.43 0.43 0.0 0 0 1119.23 320.97
  L 1153.08 291.72
  A 0.43 0.43 0.0 0 0 1152.91 290.98
  L 1142.96 288.31
  A 0.43 0.43 0.0 0 0 1142.67 288.34
  L 1097.59 310.20"
/>
<path stroke="#556e6c" vector-effect="non-scaling-stroke" d="
  M 1116.35 321.97
  A 0.32 0.32 0.0 0 0 1116.42 321.37
  L 1095.21 311.38
  A 0.32 0.32 0.0 0 0 1094.99 311.36
  L 1017.89 332.87
  A 0.32 0.32 0.0 0 0 1017.72 333.38
  L 1023.60 340.92
  A 0.32 0.32 0.0 0 0 1023.91 341.04
  L 1116.35 321.97"
/>
<path stroke="#af9d83" vector-effect="non-scaling-stroke" d="
  M 475.85 292.67
  Q 482.80 286.89 483.75 277.75
  C 488.14 235.63 441.69 228.01 412.68 240.13
  C 410.46 241.06 410.31 242.39 410.14 244.56
  Q 409.24 255.74 409.42 264.09
  Q 410.04 294.02 413.62 323.74
  Q 414.04 327.24 414.76 330.51
  A 2.88 2.87 -4.4 0 0 417.38 332.75
  C 425.74 333.28 435.01 333.15 442.90 331.80
  C 446.99 331.10 446.44 326.88 446.57 323.79
  C 446.96 314.66 465.31 327.04 467.97 328.80
  C 470.90 330.74 476.56 334.07 479.70 330.71
  Q 487.54 322.33 492.11 313.58
  Q 492.56 312.72 492.63 311.92
  C 493.01 307.51 479.32 296.36 475.85 293.40
  Q 475.41 293.04 475.85 292.67"
/>
<path stroke="#af9d83" vector-effect="non-scaling-stroke" d="
  M 754.77 264.05
  C 758.57 259.66 766.80 257.43 768.55 265.07
  A 0.93 0.93 0.0 0 0 769.25 265.77
  C 774.61 266.99 795.61 262.25 793.42 254.83
  C 789.66 242.08 776.66 235.19 764.00 234.73
  C 742.27 233.94 724.18 248.96 726.63 271.96
  C 727.62 281.27 733.77 288.04 742.06 291.55
  Q 744.54 292.60 752.63 294.15
  Q 759.40 295.44 765.96 297.60
  C 770.12 298.97 770.97 303.98 766.60 305.87
  Q 758.93 309.19 755.48 301.38
  Q 755.26 300.89 754.80 300.63
  C 747.80 296.59 736.42 298.14 729.62 301.12
  C 726.32 302.56 724.95 305.05 726.00 308.70
  C 733.89 336.08 774.02 340.16 791.96 321.82
  C 800.55 313.04 803.35 300.81 797.65 289.69
  C 789.82 274.41 773.14 272.24 758.26 269.10
  Q 754.54 268.31 754.45 264.95
  A 1.35 1.35 0.0 0 1 754.77 264.05"
/>
<path stroke="#af9d83" vector-effect="non-scaling-stroke" d="
  M 904.62 277.01
  C 902.55 255.99 885.33 240.96 865.22 237.55
  Q 837.31 232.81 819.58 252.59
  C 796.07 278.82 807.10 320.25 841.01 330.52
  C 877.30 341.51 908.24 313.73 904.62 277.01"
/>
<path stroke="#af9d83" vector-effect="non-scaling-stroke" d="
  M 585.33 297.84
  A 0.36 0.36 0.0 0 1 585.95 298.08
  Q 586.38 314.49 589.83 330.53
  A 2.28 2.28 0.0 0 0 591.84 332.32
  Q 603.89 333.49 616.60 331.83
  C 619.06 331.51 619.37 331.04 619.83 328.75
  Q 620.79 323.92 621.08 319.00
  Q 623.23 282.46 620.70 245.95
  C 620.57 244.08 620.06 242.09 619.72 240.23
  Q 619.62 239.73 619.18 239.46
  Q 617.74 238.59 616.40 238.32
  Q 603.59 235.80 590.22 237.93
  Q 585.93 238.62 582.71 242.21
  C 574.59 251.26 567.97 262.21 561.08 272.33
  Q 560.74 272.83 560.40 272.33
  C 552.34 260.33 546.17 250.08 538.22 241.74
  C 535.18 238.55 532.18 238.13 528.00 237.63
  Q 515.55 236.12 504.24 238.47
  C 500.44 239.26 500.87 244.61 500.70 247.51
  Q 498.64 283.44 500.86 319.38
  Q 501.21 325.09 502.63 330.73
  A 0.91 0.89 0.1 0 0 503.29 331.38
  C 511.60 333.47 521.60 333.35 530.12 332.48
  A 1.57 1.56 -82.6 0 0 531.42 331.47
  Q 532.94 327.37 533.62 322.52
  Q 535.27 310.80 535.96 299.13
  A 0.42 0.42 0.0 0 1 536.69 298.87
  C 543.39 306.17 551.14 314.99 559.53 320.30
  A 1.80 1.79 44.6 0 0 561.46 320.29
  C 570.23 314.61 578.26 305.46 585.33 297.84"
/>
<path stroke="#af9d83" vector-effect="non-scaling-stroke" d="
  M 439.11 263.46
  C 434.98 267.27 436.84 282.43 444.74 282.14
  C 455.18 281.75 462.71 267.14 450.34 262.53
  C 447.42 261.44 441.70 261.06 439.11 263.46"
/>
<path stroke="#af9d83" vector-effect="non-scaling-stroke" d="
  M 333.71 249.47
  Q 320.85 284.41 315.30 321.25
  C 314.97 323.45 313.59 331.46 317.49 332.06
  Q 326.13 333.39 336.44 332.79
  C 338.89 332.65 339.61 331.95 340.67 329.90
  Q 343.73 323.96 346.67 317.90
  C 348.73 313.63 352.04 312.82 356.51 313.18
  C 359.21 313.40 365.41 312.37 368.29 314.42
  C 373.02 317.77 374.41 332.69 379.22 332.99
  Q 388.53 333.56 404.01 331.12
  C 407.15 330.63 407.94 328.47 407.18 325.52
  C 404.11 313.58 383.89 240.85 373.29 238.81
  Q 360.20 236.28 345.51 239.35
  C 341.70 240.15 337.95 240.60 336.03 244.24
  Q 334.69 246.79 333.71 249.47"
/>
<path stroke="#af9d83" vector-effect="non-scaling-stroke" d="
  M 647.60 254.92
  Q 636.78 286.77 631.50 319.99
  Q 630.99 323.23 630.97 328.27
  C 630.95 331.08 632.16 331.95 634.76 332.22
  Q 645.52 333.31 654.04 332.70
  A 1.36 1.35 -70.4 0 0 654.92 332.28
  C 658.19 328.85 660.65 322.17 662.78 317.82
  C 666.00 311.24 673.88 313.28 679.71 313.28
  C 683.85 313.27 686.03 314.92 687.45 318.56
  Q 689.60 324.05 691.63 329.55
  Q 692.93 333.09 697.24 332.95
  Q 710.08 332.53 718.44 331.32
  C 722.40 330.74 724.38 329.69 723.19 325.26
  Q 713.54 289.53 702.66 261.10
  Q 699.45 252.70 695.26 244.72
  Q 691.95 238.42 683.64 237.95
  Q 667.63 237.04 655.29 241.06
  C 651.76 242.21 648.74 251.59 647.60 254.92"
/>
<path stroke="#af9d83" vector-effect="non-scaling-stroke" d="
  M 869.8104 281.3452
  A 14.19 13.98 -13.8 0 0 852.6953 271.1535
  A 14.19 13.98 -13.8 0 0 842.2496 288.1148
  A 14.19 13.98 -13.8 0 0 859.3647 298.3065
  A 14.19 13.98 -13.8 0 0 869.8104 281.3452"
/>
<path stroke="#af9d83" vector-effect="non-scaling-stroke" d="
  M 368.54 289.01
  C 368.73 285.02 360.39 268.05 354.96 275.19
  C 352.93 277.86 347.84 287.73 349.89 291.14
  C 352.31 295.16 368.25 294.94 368.54 289.01"
/>
<path stroke="#af9d83" vector-effect="non-scaling-stroke" d="
  M 670.29 276.06
  C 668.42 279.13 662.17 290.90 667.93 292.91
  C 672.70 294.57 688.73 295.05 683.47 284.76
  C 681.61 281.11 675.59 267.38 670.29 276.06"
/>
<path stroke="#ae5840" vector-effect="non-scaling-stroke" d="
  M 1458.90 423.84
  A 0.71 0.71 0.0 0 0 1459.11 424.68
  L 1468.66 432.33
  A 0.71 0.71 0.0 0 0 1469.69 432.18
  L 1553.13 310.64
  A 0.71 0.71 0.0 0 0 1552.89 309.62
  L 1519.36 290.79
  A 0.71 0.71 0.0 0 0 1518.36 291.12
  L 1458.90 423.84"
/>
<path stroke="#ae5840" vector-effect="non-scaling-stroke" d="
  M 1487.21 487.81
  A 0.53 0.53 0.0 0 0 1487.29 488.54
  L 1498.42 497.63
  A 0.53 0.53 0.0 0 0 1499.12 497.60
  L 1637.00 368.66
  A 0.53 0.53 0.0 0 0 1637.01 367.89
  L 1603.09 334.29
  A 0.53 0.53 0.0 0 0 1602.30 334.35
  L 1487.21 487.81"
/>
<path stroke="#af9d83" vector-effect="non-scaling-stroke" d="
  M 429.33 469.59
  Q 416.63 465.38 409.76 464.23
  C 399.60 462.53 381.62 460.17 377.88 455.89
  C 372.60 449.85 381.85 444.64 386.41 442.58
  Q 396.78 437.90 404.20 446.02
  C 405.60 447.55 405.15 450.40 406.36 452.17
  Q 408.72 455.64 412.74 455.48
  Q 430.10 454.80 449.26 447.86
  C 456.75 445.15 471.62 437.92 469.15 428.06
  C 464.28 408.59 448.89 392.62 430.74 384.96
  C 396.99 370.73 355.96 376.39 328.62 402.11
  C 310.76 418.92 304.37 440.56 306.21 464.61
  C 307.66 483.49 316.24 499.02 332.18 509.24
  C 340.19 514.37 349.85 518.80 359.25 520.31
  Q 375.41 522.91 387.90 526.05
  C 394.62 527.74 399.65 528.74 403.94 531.28
  C 408.23 533.82 410.18 541.45 405.53 544.81
  C 397.88 550.33 383.97 550.28 380.16 539.78
  Q 379.06 536.73 377.97 535.64
  C 374.11 531.76 366.45 530.14 361.24 529.34
  Q 342.13 526.42 323.52 531.62
  C 314.67 534.10 303.71 539.37 304.00 549.83
  Q 304.12 554.45 308.00 563.91
  C 319.73 592.54 351.42 610.71 381.12 613.79
  C 403.63 616.13 429.65 612.03 448.99 599.64
  C 474.44 583.31 490.17 557.57 484.57 526.81
  C 479.23 497.47 456.63 478.64 429.33 469.59"
/>
<path stroke="#af9d83" vector-effect="non-scaling-stroke" d="
  M 1056.84 395.23
  C 1055.95 386.95 1042.76 384.30 1036.51 383.21
  Q 1003.01 377.37 970.37 386.72
  C 965.17 388.21 958.69 390.85 956.04 395.86
  Q 954.81 398.19 954.55 402.83
  Q 954.00 412.83 954.36 425.00
  Q 956.66 503.24 967.68 578.29
  C 969.05 587.60 971.08 599.89 975.07 607.54
  C 976.30 609.90 977.54 610.62 980.00 611.26
  C 998.03 615.98 1018.98 614.84 1037.23 612.07
  C 1042.17 611.33 1047.86 609.96 1049.32 605.51
  Q 1051.26 599.66 1052.32 591.48
  Q 1056.78 557.23 1058.14 522.74
  C 1059.62 485.43 1060.04 448.32 1058.31 411.00
  Q 1058.14 407.30 1056.84 395.23"
/>
<path stroke="#af9d83" vector-effect="non-scaling-stroke" d="
  M 636.62 613.12
  C 682.27 605.83 719.11 569.56 729.90 524.98
  C 739.90 483.64 731.04 443.02 699.24 413.47
  C 676.40 392.24 646.46 382.84 615.80 381.45
  C 572.28 379.48 533.48 404.49 512.39 441.67
  C 492.66 476.46 492.11 519.69 512.22 554.35
  Q 540.29 602.76 595.73 612.59
  Q 616.71 616.31 636.62 613.12"
/>
<path stroke="#af9d83" vector-effect="non-scaling-stroke" d="
  M 790.39 414.64
  C 768.01 435.80 755.99 463.94 752.48 494.25
  Q 746.37 547.08 782.36 582.04
  C 818.81 617.43 876.28 621.44 922.19 605.69
  C 925.93 604.40 929.10 602.60 930.97 599.43
  C 940.09 583.97 936.22 560.51 929.99 544.51
  C 926.65 535.93 918.07 523.72 907.50 525.93
  Q 887.75 530.04 872.00 529.58
  C 852.05 528.99 838.32 515.66 842.53 494.88
  C 845.55 479.96 860.92 469.50 874.14 464.65
  C 883.95 461.04 897.26 460.31 908.50 459.98
  C 922.55 459.57 924.95 440.84 923.53 430.52
  C 921.53 416.05 916.25 392.57 901.99 385.47
  Q 896.99 382.98 887.65 382.33
  C 851.09 379.78 817.39 389.11 790.39 414.64"
/>
<path stroke="#af9d83" vector-effect="non-scaling-stroke" d="
  M 1395.29 508.62
  Q 1393.98 462.28 1393.36 415.93
  C 1393.25 407.59 1392.77 399.46 1392.32 391.25
  C 1392.13 387.70 1385.39 385.94 1382.00 385.30
  Q 1349.37 379.20 1316.76 385.32
  C 1312.75 386.07 1306.93 387.66 1304.35 390.80
  C 1302.52 393.04 1302.47 401.66 1302.39 404.69
  Q 1300.84 461.35 1302.94 518.00
  Q 1304.01 546.69 1306.78 575.25
  Q 1307.85 586.24 1310.35 596.99
  C 1311.80 603.19 1313.46 606.76 1318.78 608.66
  C 1330.78 612.93 1344.87 613.33 1357.50 613.79
  Q 1396.66 615.20 1435.76 612.52
  Q 1451.34 611.45 1466.78 609.16
  C 1472.27 608.34 1473.92 601.19 1474.51 596.63
  Q 1478.86 562.68 1469.79 529.59
  C 1468.72 525.69 1466.47 519.49 1461.75 518.84
  Q 1458.51 518.39 1455.26 518.55
  Q 1440.25 519.27 1425.25 520.09
  C 1419.40 520.41 1397.47 522.34 1395.78 515.01
  Q 1395.43 513.52 1395.29 508.62"
/>
<path stroke="#af9d83" vector-effect="non-scaling-stroke" d="
  M 592.28 476.70
  C 579.69 491.08 580.90 510.10 596.14 522.61
  C 610.34 534.26 632.52 530.13 641.87 515.31
  C 650.36 501.86 649.37 483.50 635.95 473.57
  C 622.72 463.79 603.56 463.84 592.28 476.70"
/>
<path stroke="#af9d83" vector-effect="non-scaling-stroke" d="
  M 1128.41 398.75
  C 1122.87 408.60 1118.88 419.81 1115.30 430.51
  Q 1094.92 491.55 1082.73 554.75
  C 1079.85 569.71 1076.92 585.69 1076.94 600.96
  Q 1076.94 605.94 1078.55 608.29
  Q 1080.88 611.70 1085.74 612.30
  Q 1108.82 615.17 1132.07 613.61
  C 1137.32 613.26 1139.53 609.89 1141.73 605.72
  Q 1148.26 593.39 1155.52 577.92
  C 1158.73 571.08 1163.21 567.57 1170.77 567.35
  Q 1182.82 567.00 1196.92 567.42
  Q 1200.10 567.52 1201.98 568.25
  C 1210.93 571.73 1215.86 591.09 1219.06 599.88
  C 1220.59 604.08 1224.94 614.11 1229.99 614.19
  Q 1262.88 614.71 1291.75 609.56
  Q 1296.33 608.74 1298.85 605.11
  C 1301.17 601.76 1300.34 596.74 1299.37 592.98
  Q 1279.97 517.93 1251.93 444.35
  C 1245.59 427.72 1238.46 409.62 1228.43 395.33
  C 1223.74 388.66 1217.03 386.54 1209.04 385.56
  Q 1173.66 381.23 1139.47 391.19
  C 1135.32 392.40 1130.70 394.67 1128.41 398.75"
/>
<path stroke="#af9d83" vector-effect="non-scaling-stroke" d="
  M 1179.86 472.85
  C 1172.08 475.02 1160.15 504.40 1163.05 511.24
  C 1167.00 520.56 1192.14 518.37 1199.63 514.12
  C 1204.52 511.34 1205.10 507.07 1203.13 501.89
  C 1200.61 495.30 1189.12 470.27 1179.86 472.85"
/>
<path stroke="#ae5840" vector-effect="non-scaling-stroke" d="
  M 1677.29 489.15
  A 0.42 0.42 0.0 0 0 1677.55 488.73
  L 1673.86 441.55
  A 0.42 0.42 0.0 0 0 1673.22 441.22
  L 1512.00 540.41
  A 0.42 0.42 0.0 0 0 1511.85 540.96
  L 1519.37 555.77
  A 0.42 0.42 0.0 0 0 1519.91 555.97
  L 1677.29 489.15"
/>
<path stroke="#ae5840" vector-effect="non-scaling-stroke" d="
  M 1625.01 600.35
  A 0.78 0.78 0.0 0 0 1625.69 599.70
  L 1631.08 568.65
  A 0.78 0.78 0.0 0 0 1630.11 567.76
  L 1520.38 596.72
  A 0.78 0.78 0.0 0 0 1519.81 597.61
  L 1522.36 611.28
  A 0.78 0.78 0.0 0 0 1523.21 611.91
  L 1625.01 600.35"
/>
</g>
<path fill="#6d5845" d="
  M 1112.36 91.99
  Q 1110.92 93.04 1110.40 92.40
  L 1080.91 139.58
  Q 1080.44 140.33 1081.06 140.95
  L 1093.21 153.36
  Q 1093.53 153.68 1093.29 154.08
  L 1084.04 169.42
  A 0.32 0.32 0.0 0 0 1084.53 169.82
  L 1097.50 157.53
  Q 1097.99 157.07 1098.46 157.55
  L 1104.38 163.60
  Q 1104.78 164.00 1105.02 163.49
  Q 1105.25 163.00 1105.09 162.01
  Q 1105.47 161.27 1106.68 165.19
  L 1074.32 203.56
  Q 1073.91 204.05 1074.24 204.59
  L 1075.92 207.32
  Q 1076.25 207.86 1076.75 207.46
  Q 1082.71 202.61 1088.40 197.52
  Q 1090.59 195.57 1093.24 194.50
  Q 1111.88 187.01 1130.29 179.66
  A 3.28 3.24 -51.3 0 1 1132.02 179.46
  L 1167.38 184.84
  Q 1168.22 184.97 1167.51 185.44
  L 1166.97 185.79
  Q 1166.59 186.05 1166.36 186.44
  L 1134.38 240.89
  Q 1134.02 241.51 1133.42 241.91
  L 1068.10 286.54
  A 0.18 0.18 0.0 0 0 1068.25 286.87
  L 1114.05 273.99
  A 6.13 6.06 -48.6 0 1 1116.56 273.82
  L 1151.12 278.84
  Q 1151.61 278.91 1151.78 279.38
  L 1155.74 290.56
  Q 1155.90 291.00 1155.54 291.32
  Q 1138.70 306.14 1121.81 320.86
  Q 1120.22 322.25 1118.13 322.68
  Q 1070.68 332.49 1023.27 342.29
  Q 1022.78 342.39 1022.49 341.98
  L 1016.16 333.07
  Q 1017.32 333.41 1017.62 332.50
  Q 1017.81 331.93 1017.25 331.54
  Q 1018.26 331.73 1018.74 331.59
  Q 1056.19 321.18 1093.58 310.69
  A 3.58 3.57 6.3 0 0 1095.76 308.95
  L 1113.21 276.82
  A 0.82 0.82 0.0 0 0 1112.27 275.64
  Q 1095.26 280.28 1077.94 285.32
  C 1074.56 286.31 1066.69 287.46 1062.87 290.11
  Q 1053.76 296.42 1044.09 303.04
  Q 1042.60 304.07 1041.02 303.18
  L 1029.24 296.60
  A 1.38 1.38 0.0 0 0 1027.42 297.04
  Q 1021.56 305.71 1015.99 314.24
  Q 1015.58 314.87 1015.73 315.58
  Q 1015.02 315.76 1014.68 316.58
  L 1005.91 329.64
  A 1.16 1.15 15.2 0 1 1005.01 330.15
  L 981.03 331.74
  Q 980.61 331.77 980.33 331.45
  L 963.49 312.51
  Q 963.09 312.07 963.28 311.51
  L 967.05 299.74
  Q 967.24 299.14 966.85 298.64
  L 949.80 276.97
  A 1.20 1.18 38.6 0 1 949.65 275.73
  L 955.65 262.76
  A 1.20 1.16 -44.1 0 0 955.68 261.84
  L 936.61 210.80
  A 1.52 1.52 0.0 0 1 936.64 209.65
  L 960.58 154.20
  Q 960.81 153.67 961.38 153.74
  L 972.30 155.15
  Q 972.84 155.22 973.04 155.73
  C 975.32 161.48 977.78 167.07 979.32 173.04
  Q 982.40 184.98 985.16 196.48
  Q 985.45 197.67 985.96 196.56
  Q 1001.13 163.63 1015.99 131.04
  Q 1016.03 130.96 1016.41 129.92
  Q 1017.07 128.09 1019.36 126.85
  Q 1052.00 109.15 1084.63 91.54
  A 9.06 9.04 -62.2 0 1 1087.95 90.51
  L 1111.74 88.02
  Q 1112.30 87.96 1112.42 88.51
  Q 1112.76 90.02 1112.36 91.99
  Z
  M 1044.90 139.05
  L 1079.00 139.42
  A 1.07 1.04 -73.1 0 0 1079.91 138.92
  L 1109.95 90.74
  A 0.42 0.42 0.0 0 0 1109.57 90.09
  Q 1099.28 90.75 1088.97 92.11
  Q 1086.10 92.49 1083.48 93.90
  Q 1051.90 110.88 1020.28 128.05
  A 0.35 0.34 47.4 0 0 1020.26 128.64
  L 1034.95 138.13
  Q 1036.08 138.85 1035.61 140.11
  L 1026.16 165.27
  A 0.41 0.40 -18.4 0 0 1026.88 165.63
  L 1043.48 139.82
  A 1.67 1.66 -73.2 0 1 1044.90 139.05
  Z
  M 961.01 288.69
  L 967.15 297.11
  Q 967.44 297.52 967.44 297.02
  Q 967.45 296.77 967.30 296.55
  Q 967.89 296.72 968.09 296.10
  Q 980.63 257.09 999.24 196.97
  Q 999.40 196.47 999.88 196.27
  Q 1026.37 185.40 1053.06 175.03
  Q 1055.44 174.11 1057.51 171.23
  Q 1067.91 156.73 1077.53 142.30
  A 0.93 0.93 0.0 0 0 1076.75 140.85
  L 1045.59 140.99
  A 2.53 2.51 -73.6 0 0 1043.50 142.14
  L 1022.20 175.22
  A 0.55 0.55 0.0 0 1 1021.23 174.73
  L 1033.95 140.99
  A 1.50 1.50 0.0 0 0 1033.34 139.19
  L 1019.31 130.39
  A 1.56 1.56 0.0 0 0 1017.04 131.11
  Q 1012.00 143.25 1005.97 155.36
  Q 1003.78 159.74 1002.94 161.81
  Q 1002.08 163.92 1002.05 163.98
  Q 994.90 179.87 987.49 195.64
  Q 984.78 201.41 979.75 213.55
  Q 979.44 214.31 978.54 215.44
  C 977.50 216.75 977.09 218.64 976.61 219.70
  Q 967.21 240.17 957.82 260.65
  C 957.39 261.58 957.23 263.08 956.19 264.04
  Q 955.92 264.28 955.77 264.60
  L 951.10 274.45
  A 1.97 1.96 38.6 0 0 951.34 276.51
  L 961.01 288.69
  Z
  M 1080.04 175.57
  A 0.36 0.36 0.0 0 1 1079.48 175.12
  L 1091.87 154.18
  A 0.36 0.36 0.0 0 0 1091.82 153.74
  L 1080.09 141.52
  A 0.36 0.36 0.0 0 0 1079.54 141.56
  L 1056.68 174.38
  A 0.36 0.36 0.0 0 0 1056.67 174.77
  L 1073.12 202.71
  A 0.36 0.36 0.0 0 0 1073.71 202.76
  L 1104.89 166.08
  A 0.36 0.36 0.0 0 0 1104.87 165.60
  L 1098.15 158.95
  A 0.36 0.36 0.0 0 0 1097.65 158.95
  L 1080.04 175.57
  Z
  M 975.10 189.72
  C 974.12 184.36 973.23 179.00 972.33 173.58
  Q 972.26 173.13 972.61 172.84
  L 976.82 169.36
  A 0.69 0.69 0.0 0 0 977.02 168.57
  L 972.31 156.98
  Q 972.01 156.25 971.22 156.16
  L 962.54 155.14
  Q 961.90 155.06 962.06 155.69
  L 965.48 169.07
  A 0.68 0.65 -85.1 0 0 965.81 169.48
  L 969.27 171.37
  Q 969.63 171.56 969.73 171.96
  L 974.30 190.56
  Q 974.39 190.90 974.68 190.70
  Q 975.22 190.34 975.10 189.72
  Z
  M 964.14 174.63
  C 964.39 168.96 963.27 162.84 961.35 157.63
  A 0.53 0.53 0.0 0 0 960.36 157.60
  L 938.21 208.79
  A 0.79 0.78 23.1 0 0 938.64 209.84
  L 961.25 218.93
  Q 961.84 219.17 961.88 218.54
  Q 963.16 196.51 964.14 174.63
  Z
  M 977.51 202.65
  A 0.37 0.37 0.0 0 1 976.78 202.71
  Q 972.64 187.44 968.69 173.11
  Q 968.21 171.34 966.02 171.05
  Q 965.52 170.99 965.49 171.50
  L 963.01 219.18
  A 0.41 0.41 0.0 0 0 963.56 219.59
  L 977.35 214.41
  A 1.27 1.26 2.2 0 0 978.07 213.75
  L 984.57 199.54
  A 1.08 1.03 -41.3 0 0 984.63 198.85
  L 977.81 171.15
  A 0.68 0.68 0.0 0 0 976.69 170.81
  L 973.98 173.30
  Q 973.62 173.64 973.69 174.13
  Q 975.50 187.72 977.43 201.26
  Q 977.55 202.14 977.51 202.65
  Z
  M 1055.99 175.81
  A 0.50 0.50 0.0 0 0 1055.17 175.76
  L 1033.61 202.83
  A 0.50 0.50 0.0 0 0 1033.50 203.22
  L 1036.58 223.89
  A 0.50 0.50 0.0 0 0 1037.17 224.31
  L 1079.05 216.14
  A 0.50 0.50 0.0 0 0 1079.38 215.39
  L 1055.99 175.81
  Z
  M 1053.06 176.57
  A 0.33 0.33 0.0 0 0 1052.68 176.06
  L 1002.70 196.44
  A 0.33 0.33 0.0 0 0 1002.77 197.07
  L 1032.14 202.38
  A 0.33 0.33 0.0 0 0 1032.45 202.26
  L 1053.06 176.57
  Z
  M 1162.67 186.36
  A 0.54 0.54 0.0 0 0 1162.52 185.33
  L 1131.15 180.60
  A 0.54 0.54 0.0 0 0 1130.86 180.64
  L 1093.65 195.63
  A 0.54 0.54 0.0 0 0 1093.59 196.61
  L 1114.91 208.29
  A 0.54 0.54 0.0 0 0 1115.40 208.31
  L 1162.67 186.36
  Z
  M 1133.71 239.88
  L 1164.16 187.91
  A 0.48 0.47 2.7 0 0 1163.55 187.24
  L 1116.14 209.25
  A 0.96 0.95 -11.8 0 0 1115.58 210.10
  L 1115.17 227.40
  A 1.97 1.96 -20.1 0 1 1114.50 228.83
  L 1089.88 250.54
  Q 1089.48 250.89 1088.97 251.00
  Q 1087.98 251.23 1087.86 252.26
  A 0.25 0.25 0.0 0 0 1088.24 252.50
  L 1116.04 236.10
  Q 1116.48 235.84 1116.97 235.97
  L 1132.82 240.25
  A 0.81 0.80 -67.3 0 0 1133.71 239.88
  Z
  M 1112.69 208.58
  L 1092.31 197.40
  A 1.98 1.96 -51.4 0 0 1090.06 197.66
  L 1077.62 208.70
  A 1.08 1.08 0.0 0 0 1077.43 210.08
  L 1080.92 215.58
  Q 1081.21 216.03 1080.91 216.48
  L 1069.30 233.85
  A 0.63 0.63 0.0 0 0 1070.15 234.74
  L 1112.71 209.78
  A 0.69 0.69 0.0 0 0 1112.69 208.58
  Z
  M 964.57 311.40
  Q 971.67 321.14 980.69 329.76
  Q 981.07 328.92 981.38 328.88
  Q 1007.92 277.79 1034.59 226.57
  A 4.41 4.38 -35.1 0 0 1035.05 223.97
  L 1032.57 205.32
  A 1.73 1.73 0.0 0 0 1031.21 203.85
  L 1001.47 197.69
  A 1.37 1.37 0.0 0 0 999.89 198.62
  L 964.57 311.40
  Z
  M 1071.23 283.28
  Q 1101.59 262.57 1131.73 241.64
  A 0.30 0.30 0.0 0 0 1131.63 241.11
  L 1117.01 237.24
  A 1.11 1.09 -52.0 0 0 1116.17 237.35
  L 1081.24 257.99
  A 0.48 0.47 -80.7 0 1 1080.69 257.22
  L 1113.17 228.59
  A 2.62 2.61 70.0 0 0 1114.04 226.71
  L 1114.35 211.26
  A 0.61 0.61 0.0 0 0 1113.43 210.72
  Q 1091.15 223.61 1068.77 236.73
  Q 1066.79 237.88 1065.51 239.79
  Q 1047.25 266.94 1029.35 294.18
  A 0.77 0.77 0.0 0 0 1029.74 295.33
  Q 1035.36 297.21 1040.21 300.91
  C 1041.32 301.75 1042.78 302.42 1043.93 301.68
  Q 1050.19 297.64 1071.23 283.28
  Z
  M 942.72 212.94
  C 941.76 212.58 940.42 211.39 939.21 211.69
  A 1.05 1.04 -17.4 0 0 938.48 213.07
  L 955.63 258.81
  A 0.95 0.94 -42.9 0 0 957.37 258.87
  Q 959.57 254.10 961.84 249.12
  Q 962.80 247.01 962.71 244.69
  Q 962.24 232.72 961.78 221.22
  Q 961.75 220.44 961.03 220.14
  Q 951.50 216.19 942.72 212.94
  Z
  M 963.68 243.12
  A 0.43 0.43 0.0 0 0 964.50 243.29
  L 976.86 216.39
  A 0.43 0.43 0.0 0 0 976.31 215.81
  L 963.27 221.03
  A 0.43 0.43 0.0 0 0 963.00 221.44
  L 963.68 243.12
  Z
  M 982.19 329.84
  Q 992.29 330.96 1001.98 328.72
  L 1004.55 328.72
  A 1.08 1.06 16.3 0 0 1005.42 328.25
  L 1078.10 218.53
  A 0.58 0.55 -37.5 0 0 1078.17 218.09
  Q 1078.05 217.57 1077.51 217.68
  Q 1057.02 221.68 1036.96 225.66
  A 1.69 1.68 7.8 0 0 1035.79 226.54
  L 982.19 329.84
  Z
  M 1148.57 279.63
  L 1116.41 274.95
  A 0.76 0.75 18.2 0 0 1115.63 275.34
  L 1098.01 307.70
  A 0.54 0.53 -88.6 0 0 1098.71 308.44
  Q 1118.81 298.71 1139.17 288.55
  Q 1145.10 285.59 1148.91 280.46
  A 0.52 0.52 0.0 0 0 1148.57 279.63
  Z
  M 1146.18 285.43
  Q 1144.51 285.79 1144.65 287.21
  Q 1144.61 287.35 1144.64 287.48
  Q 1144.68 287.68 1144.87 287.73
  L 1153.10 289.92
  A 0.44 0.43 -1.8 0 0 1153.63 289.36
  L 1150.98 281.58
  A 0.46 0.46 0.0 0 0 1150.22 281.41
  L 1146.18 285.43
  Z
  M 1097.59 310.20
  A 0.43 0.43 0.0 0 0 1097.59 310.97
  L 1118.77 321.03
  A 0.43 0.43 0.0 0 0 1119.23 320.97
  L 1153.08 291.72
  A 0.43 0.43 0.0 0 0 1152.91 290.98
  L 1142.96 288.31
  A 0.43 0.43 0.0 0 0 1142.67 288.34
  L 1097.59 310.20
  Z
  M 1116.35 321.97
  A 0.32 0.32 0.0 0 0 1116.42 321.37
  L 1095.21 311.38
  A 0.32 0.32 0.0 0 0 1094.99 311.36
  L 1017.89 332.87
  A 0.32 0.32 0.0 0 0 1017.72 333.38
  L 1023.60 340.92
  A 0.32 0.32 0.0 0 0 1023.91 341.04
  L 1116.35 321.97
  Z"
/>
<path fill="#62abb1" d="
  M 1044.90 139.05
  A 1.67 1.66 -73.2 0 0 1043.48 139.82
  L 1026.88 165.63
  A 0.41 0.40 -18.4 0 1 1026.16 165.27
  L 1035.61 140.11
  Q 1036.08 138.85 1034.95 138.13
  L 1020.26 128.64
  A 0.35 0.34 47.4 0 1 1020.28 128.05
  Q 1051.90 110.88 1083.48 93.90
  Q 1086.10 92.49 1088.97 92.11
  Q 1099.28 90.75 1109.57 90.09
  A 0.42 0.42 0.0 0 1 1109.95 90.74
  L 1079.91 138.92
  A 1.07 1.04 -73.1 0 1 1079.00 139.42
  L 1044.90 139.05
  Z"
/>
<path fill="#286b7a" d="
  M 1112.36 91.99
  L 1106.68 165.19
  Q 1105.47 161.27 1105.09 162.01
  L 1110.40 92.40
  Q 1110.92 93.04 1112.36 91.99
  Z"
/>
<path fill="#62abb1" d="
  M 1110.40 92.40
  L 1105.09 162.01
  Q 1105.25 163.00 1105.02 163.49
  Q 1104.78 164.00 1104.38 163.60
  L 1098.46 157.55
  Q 1097.99 157.07 1097.50 157.53
  L 1084.53 169.82
  A 0.32 0.32 0.0 0 1 1084.04 169.42
  L 1093.29 154.08
  Q 1093.53 153.68 1093.21 153.36
  L 1081.06 140.95
  Q 1080.44 140.33 1080.91 139.58
  L 1110.40 92.40
  Z"
/>
<path fill="#286b7a" d="
  M 967.30 296.55
  L 961.01 288.69
  L 951.34 276.51
  A 1.97 1.96 38.6 0 1 951.10 274.45
  L 955.77 264.60
  Q 955.92 264.28 956.19 264.04
  C 957.23 263.08 957.39 261.58 957.82 260.65
  Q 967.21 240.17 976.61 219.70
  C 977.09 218.64 977.50 216.75 978.54 215.44
  Q 979.44 214.31 979.75 213.55
  Q 984.78 201.41 987.49 195.64
  Q 994.90 179.87 1002.05 163.98
  Q 1002.08 163.92 1002.94 161.81
  Q 1003.78 159.74 1005.97 155.36
  Q 1012.00 143.25 1017.04 131.11
  A 1.56 1.56 0.0 0 1 1019.31 130.39
  L 1033.34 139.19
  A 1.50 1.50 0.0 0 1 1033.95 140.99
  L 1021.23 174.73
  A 0.55 0.55 0.0 0 0 1022.20 175.22
  L 1043.50 142.14
  A 2.53 2.51 -73.6 0 1 1045.59 140.99
  L 1076.75 140.85
  A 0.93 0.93 0.0 0 1 1077.53 142.30
  Q 1067.91 156.73 1057.51 171.23
  Q 1055.44 174.11 1053.06 175.03
  Q 1026.37 185.40 999.88 196.27
  Q 999.40 196.47 999.24 196.97
  Q 980.63 257.09 968.09 296.10
  Q 967.89 296.72 967.30 296.55
  Z"
/>
<path fill="#3c8393" d="
  M 1080.04 175.57
  L 1097.65 158.95
  A 0.36 0.36 0.0 0 1 1098.15 158.95
  L 1104.87 165.60
  A 0.36 0.36 0.0 0 1 1104.89 166.08
  L 1073.71 202.76
  A 0.36 0.36 0.0 0 1 1073.12 202.71
  L 1056.67 174.77
  A 0.36 0.36 0.0 0 1 1056.68 174.38
  L 1079.54 141.56
  A 0.36 0.36 0.0 0 1 1080.09 141.52
  L 1091.82 153.74
  A 0.36 0.36 0.0 0 1 1091.87 154.18
  L 1079.48 175.12
  A 0.36 0.36 0.0 0 0 1080.04 175.57
  Z"
/>
<path fill="#62abb1" d="
  M 972.33 173.58
  C 973.23 179.00 974.12 184.36 975.10 189.72
  Q 975.22 190.34 974.68 190.70
  Q 974.39 190.90 974.30 190.56
  L 969.73 171.96
  Q 969.63 171.56 969.27 171.37
  L 965.81 169.48
  A 0.68 0.65 -85.1 0 1 965.48 169.07
  L 962.06 155.69
  Q 961.90 155.06 962.54 155.14
  L 971.22 156.16
  Q 972.01 156.25 972.31 156.98
  L 977.02 168.57
  A 0.69 0.69 0.0 0 1 976.82 169.36
  L 972.61 172.84
  Q 972.26 173.13 972.33 173.58
  Z"
/>
<path fill="#62abb1" d="
  M 961.35 157.63
  C 963.27 162.84 964.39 168.96 964.14 174.63
  Q 963.16 196.51 961.88 218.54
  Q 961.84 219.17 961.25 218.93
  L 938.64 209.84
  A 0.79 0.78 23.1 0 1 938.21 208.79
  L 960.36 157.60
  A 0.53 0.53 0.0 0 1 961.35 157.63
  Z"
/>
<path fill="#62abb1" d="
  M 977.51 202.65
  Q 977.55 202.14 977.43 201.26
  Q 975.50 187.72 973.69 174.13
  Q 973.62 173.64 973.98 173.30
  L 976.69 170.81
  A 0.68 0.68 0.0 0 1 977.81 171.15
  L 984.63 198.85
  A 1.08 1.03 -41.3 0 1 984.57 199.54
  L 978.07 213.75
  A 1.27 1.26 2.2 0 1 977.35 214.41
  L 963.56 219.59
  A 0.41 0.41 0.0 0 1 963.01 219.18
  L 965.49 171.50
  Q 965.52 170.99 966.02 171.05
  Q 968.21 171.34 968.69 173.11
  Q 972.64 187.44 976.78 202.71
  A 0.37 0.37 0.0 0 0 977.51 202.65
  Z"
/>
<path fill="#62abb1" d="
  M 1055.99 175.81
  L 1079.38 215.39
  A 0.50 0.50 0.0 0 1 1079.05 216.14
  L 1037.17 224.31
  A 0.50 0.50 0.0 0 1 1036.58 223.89
  L 1033.50 203.22
  A 0.50 0.50 0.0 0 1 1033.61 202.83
  L 1055.17 175.76
  A 0.50 0.50 0.0 0 1 1055.99 175.81
  Z"
/>
<path fill="#62abb1" d="
  M 1053.06 176.57
  L 1032.45 202.26
  A 0.33 0.33 0.0 0 1 1032.14 202.38
  L 1002.77 197.07
  A 0.33 0.33 0.0 0 1 1002.70 196.44
  L 1052.68 176.06
  A 0.33 0.33 0.0 0 1 1053.06 176.57
  Z"
/>
<path fill="#62abb1" d="
  M 1162.67 186.36
  L 1115.40 208.31
  A 0.54 0.54 0.0 0 1 1114.91 208.29
  L 1093.59 196.61
  A 0.54 0.54 0.0 0 1 1093.65 195.63
  L 1130.86 180.64
  A 0.54 0.54 0.0 0 1 1131.15 180.60
  L 1162.52 185.33
  A 0.54 0.54 0.0 0 1 1162.67 186.36
  Z"
/>
<path fill="#62abb1" d="
  M 1164.16 187.91
  L 1133.71 239.88
  A 0.81 0.80 -67.3 0 1 1132.82 240.25
  L 1116.97 235.97
  Q 1116.48 235.84 1116.04 236.10
  L 1088.24 252.50
  A 0.25 0.25 0.0 0 1 1087.86 252.26
  Q 1087.98 251.23 1088.97 251.00
  Q 1089.48 250.89 1089.88 250.54
  L 1114.50 228.83
  A 1.97 1.96 -20.1 0 0 1115.17 227.40
  L 1115.58 210.10
  A 0.96 0.95 -11.8 0 1 1116.14 209.25
  L 1163.55 187.24
  A 0.48 0.47 2.7 0 1 1164.16 187.91
  Z"
/>
<path fill="#286b7a" d="
  M 1092.31 197.40
  L 1112.69 208.58
  A 0.69 0.69 0.0 0 1 1112.71 209.78
  L 1070.15 234.74
  A 0.63 0.63 0.0 0 1 1069.30 233.85
  L 1080.91 216.48
  Q 1081.21 216.03 1080.92 215.58
  L 1077.43 210.08
  A 1.08 1.08 0.0 0 1 1077.62 208.70
  L 1090.06 197.66
  A 1.98 1.96 -51.4 0 1 1092.31 197.40
  Z"
/>
<path fill="#3c8393" d="
  M 980.69 329.76
  Q 973.17 319.81 964.57 311.40
  L 999.89 198.62
  A 1.37 1.37 0.0 0 1 1001.47 197.69
  L 1031.21 203.85
  A 1.73 1.73 0.0 0 1 1032.57 205.32
  L 1035.05 223.97
  A 4.41 4.38 -35.1 0 1 1034.59 226.57
  Q 1007.92 277.79 981.38 328.88
  Q 981.07 328.92 980.69 329.76
  Z"
/>
<path fill="#3c8393" d="
  M 1071.23 283.28
  Q 1050.19 297.64 1043.93 301.68
  C 1042.78 302.42 1041.32 301.75 1040.21 300.91
  Q 1035.36 297.21 1029.74 295.33
  A 0.77 0.77 0.0 0 1 1029.35 294.18
  Q 1047.25 266.94 1065.51 239.79
  Q 1066.79 237.88 1068.77 236.73
  Q 1091.15 223.61 1113.43 210.72
  A 0.61 0.61 0.0 0 1 1114.35 211.26
  L 1114.04 226.71
  A 2.62 2.61 70.0 0 1 1113.17 228.59
  L 1080.69 257.22
  A 0.48 0.47 -80.7 0 0 1081.24 257.99
  L 1116.17 237.35
  A 1.11 1.09 -52.0 0 1 1117.01 237.24
  L 1131.63 241.11
  A 0.30 0.30 0.0 0 1 1131.73 241.64
  Q 1101.59 262.57 1071.23 283.28
  Z"
/>
<path fill="#286b7a" d="
  M 942.72 212.94
  Q 951.50 216.19 961.03 220.14
  Q 961.75 220.44 961.78 221.22
  Q 962.24 232.72 962.71 244.69
  Q 962.80 247.01 961.84 249.12
  Q 959.57 254.10 957.37 258.87
  A 0.95 0.94 -42.9 0 1 955.63 258.81
  L 938.48 213.07
  A 1.05 1.04 -17.4 0 1 939.21 211.69
  C 940.42 211.39 941.76 212.58 942.72 212.94
  Z"
/>
<path fill="#3c8393" d="
  M 963.68 243.12
  L 963.00 221.44
  A 0.43 0.43 0.0 0 1 963.27 221.03
  L 976.31 215.81
  A 0.43 0.43 0.0 0 1 976.86 216.39
  L 964.50 243.29
  A 0.43 0.43 0.0 0 1 963.68 243.12
  Z"
/>
<path fill="#3c8393" d="
  M 1001.98 328.72
  L 982.19 329.84
  L 1035.79 226.54
  A 1.69 1.68 7.8 0 1 1036.96 225.66
  Q 1057.02 221.68 1077.51 217.68
  Q 1078.05 217.57 1078.17 218.09
  A 0.58 0.55 -37.5 0 1 1078.10 218.53
  L 1005.42 328.25
  A 1.08 1.06 16.3 0 1 1004.55 328.72
  L 1001.98 328.72
  Z"
/>
<path fill="#6d5845" d="
  M 480.00 293.51
  C 485.05 297.69 494.75 305.94 495.24 311.07
  C 495.80 316.88 484.01 330.52 480.29 333.82
  Q 478.52 335.39 475.24 334.74
  C 465.89 332.87 459.44 324.43 449.93 322.99
  A 0.69 0.69 0.0 0 0 449.14 323.67
  C 449.13 328.20 449.26 333.39 443.47 334.28
  Q 434.73 335.62 418.75 335.40
  C 414.34 335.33 412.88 334.12 411.93 329.72
  Q 411.05 325.65 410.78 323.25
  Q 407.00 289.23 406.89 255.00
  Q 406.87 250.79 407.59 243.76
  C 407.90 240.67 408.50 239.04 411.56 237.75
  C 431.55 229.37 463.18 229.07 478.76 247.93
  C 488.24 259.40 490.02 281.12 479.94 292.75
  Q 479.58 293.16 480.00 293.51
  Z
  M 475.85 292.67
  Q 482.80 286.89 483.75 277.75
  C 488.14 235.63 441.69 228.01 412.68 240.13
  C 410.46 241.06 410.31 242.39 410.14 244.56
  Q 409.24 255.74 409.42 264.09
  Q 410.04 294.02 413.62 323.74
  Q 414.04 327.24 414.76 330.51
  A 2.88 2.87 -4.4 0 0 417.38 332.75
  C 425.74 333.28 435.01 333.15 442.90 331.80
  C 446.99 331.10 446.44 326.88 446.57 323.79
  C 446.96 314.66 465.31 327.04 467.97 328.80
  C 470.90 330.74 476.56 334.07 479.70 330.71
  Q 487.54 322.33 492.11 313.58
  Q 492.56 312.72 492.63 311.92
  C 493.01 307.51 479.32 296.36 475.85 293.40
  Q 475.41 293.04 475.85 292.67
  Z"
/>
<path fill="#6d5845" d="
  M 744.56 295.17
  C 732.79 291.83 725.33 283.64 724.06 271.51
  C 720.68 239.26 756.91 222.76 782.58 237.37
  Q 793.12 243.36 796.13 254.91
  C 798.67 264.69 776.99 268.35 771.10 268.69
  Q 769.39 268.79 771.07 269.12
  C 785.43 271.98 798.96 280.07 802.43 295.39
  C 806.80 314.69 791.73 330.69 773.51 334.53
  C 756.35 338.14 739.52 333.54 728.79 319.97
  C 724.68 314.77 719.91 305.34 725.88 300.38
  C 730.53 296.51 737.75 295.80 744.51 295.55
  Q 745.71 295.50 744.56 295.17
  Z
  M 754.77 264.05
  C 758.57 259.66 766.80 257.43 768.55 265.07
  A 0.93 0.93 0.0 0 0 769.25 265.77
  C 774.61 266.99 795.61 262.25 793.42 254.83
  C 789.66 242.08 776.66 235.19 764.00 234.73
  C 742.27 233.94 724.18 248.96 726.63 271.96
  C 727.62 281.27 733.77 288.04 742.06 291.55
  Q 744.54 292.60 752.63 294.15
  Q 759.40 295.44 765.96 297.60
  C 770.12 298.97 770.97 303.98 766.60 305.87
  Q 758.93 309.19 755.48 301.38
  Q 755.26 300.89 754.80 300.63
  C 747.80 296.59 736.42 298.14 729.62 301.12
  C 726.32 302.56 724.95 305.05 726.00 308.70
  C 733.89 336.08 774.02 340.16 791.96 321.82
  C 800.55 313.04 803.35 300.81 797.65 289.69
  C 789.82 274.41 773.14 272.24 758.26 269.10
  Q 754.54 268.31 754.45 264.95
  A 1.35 1.35 0.0 0 1 754.77 264.05
  Z
  M 765.91 265.84
  C 765.50 260.64 759.45 262.95 757.39 265.17
  A 0.52 0.51 -58.7 0 0 757.59 266.01
  Q 762.50 267.73 767.70 268.30
  Q 768.27 268.36 767.85 267.96
  L 766.14 266.33
  A 0.75 0.75 0.0 0 1 765.91 265.84
  Z
  M 765.90 300.40
  C 763.61 299.45 757.25 297.11 754.77 297.36
  Q 753.92 297.45 754.73 297.71
  Q 758.09 298.82 758.87 302.24
  A 1.44 1.43 -80.5 0 0 759.52 303.16
  Q 762.67 305.12 766.05 303.28
  A 1.60 1.60 0.0 0 0 765.90 300.40
  Z"
/>
<path fill="#6d5845" d="
  M 859.25 234.13
  C 886.67 236.52 907.79 254.90 907.67 283.44
  C 907.52 316.55 878.52 341.79 845.49 334.50
  Q 818.23 328.49 807.82 303.43
  C 798.99 282.17 807.42 256.98 825.52 243.52
  C 835.77 235.89 846.56 233.02 859.25 234.13
  Z
  M 904.62 277.01
  C 902.55 255.99 885.33 240.96 865.22 237.55
  Q 837.31 232.81 819.58 252.59
  C 796.07 278.82 807.10 320.25 841.01 330.52
  C 877.30 341.51 908.24 313.73 904.62 277.01
  Z"
/>
<path fill="#6d5845" d="
  M 538.20 305.26
  C 537.46 312.89 536.85 325.31 533.40 333.63
  Q 533.19 334.15 532.66 334.34
  Q 530.67 335.08 527.50 335.32
  Q 513.36 336.40 502.73 334.08
  C 498.92 333.24 498.52 322.81 498.32 319.75
  Q 495.97 283.89 497.91 248.00
  C 498.11 244.38 498.15 237.24 502.73 236.19
  C 512.20 234.04 524.73 233.32 534.64 236.33
  C 539.47 237.80 543.52 243.39 546.39 247.35
  Q 553.68 257.37 560.39 267.59
  A 0.43 0.43 0.0 0 0 561.11 267.60
  Q 567.46 258.11 574.14 248.63
  C 579.02 241.70 582.79 236.42 590.59 235.24
  Q 604.79 233.10 618.28 236.08
  C 620.77 236.63 622.07 238.17 622.50 240.76
  Q 623.48 246.63 623.85 254.24
  Q 625.62 290.69 623.28 324.63
  Q 623.17 326.23 622.75 327.85
  C 622.04 330.53 622.10 333.44 618.61 334.00
  Q 604.85 336.21 591.00 334.83
  C 587.70 334.51 586.56 329.37 585.95 325.52
  Q 584.28 314.88 583.65 304.27
  A 0.37 0.37 0.0 0 0 583.00 304.05
  C 579.46 308.09 565.48 323.23 560.47 323.11
  C 555.09 322.98 542.69 309.10 538.74 305.07
  Q 538.26 304.59 538.20 305.26
  Z
  M 585.33 297.84
  A 0.36 0.36 0.0 0 1 585.95 298.08
  Q 586.38 314.49 589.83 330.53
  A 2.28 2.28 0.0 0 0 591.84 332.32
  Q 603.89 333.49 616.60 331.83
  C 619.06 331.51 619.37 331.04 619.83 328.75
  Q 620.79 323.92 621.08 319.00
  Q 623.23 282.46 620.70 245.95
  C 620.57 244.08 620.06 242.09 619.72 240.23
  Q 619.62 239.73 619.18 239.46
  Q 617.74 238.59 616.40 238.32
  Q 603.59 235.80 590.22 237.93
  Q 585.93 238.62 582.71 242.21
  C 574.59 251.26 567.97 262.21 561.08 272.33
  Q 560.74 272.83 560.40 272.33
  C 552.34 260.33 546.17 250.08 538.22 241.74
  C 535.18 238.55 532.18 238.13 528.00 237.63
  Q 515.55 236.12 504.24 238.47
  C 500.44 239.26 500.87 244.61 500.70 247.51
  Q 498.64 283.44 500.86 319.38
  Q 501.21 325.09 502.63 330.73
  A 0.91 0.89 0.1 0 0 503.29 331.38
  C 511.60 333.47 521.60 333.35 530.12 332.48
  A 1.57 1.56 -82.6 0 0 531.42 331.47
  Q 532.94 327.37 533.62 322.52
  Q 535.27 310.80 535.96 299.13
  A 0.42 0.42 0.0 0 1 536.69 298.87
  C 543.39 306.17 551.14 314.99 559.53 320.30
  A 1.80 1.79 44.6 0 0 561.46 320.29
  C 570.23 314.61 578.26 305.46 585.33 297.84
  Z"
/>
<path fill="#f0e1c0" d="
  M 475.85 293.40
  C 479.32 296.36 493.01 307.51 492.63 311.92
  Q 492.56 312.72 492.11 313.58
  Q 487.54 322.33 479.70 330.71
  C 476.56 334.07 470.90 330.74 467.97 328.80
  C 465.31 327.04 446.96 314.66 446.57 323.79
  C 446.44 326.88 446.99 331.10 442.90 331.80
  C 435.01 333.15 425.74 333.28 417.38 332.75
  A 2.88 2.87 -4.4 0 1 414.76 330.51
  Q 414.04 327.24 413.62 323.74
  Q 410.04 294.02 409.42 264.09
  Q 409.24 255.74 410.14 244.56
  C 410.31 242.39 410.46 241.06 412.68 240.13
  C 441.69 228.01 488.14 235.63 483.75 277.75
  Q 482.80 286.89 475.85 292.67
  Q 475.41 293.04 475.85 293.40
  Z
  M 439.11 263.46
  C 434.98 267.27 436.84 282.43 444.74 282.14
  C 455.18 281.75 462.71 267.14 450.34 262.53
  C 447.42 261.44 441.70 261.06 439.11 263.46
  Z"
/>
<path fill="#f0e1c0" d="
  M 768.55 265.07
  C 766.80 257.43 758.57 259.66 754.77 264.05
  A 1.35 1.35 0.0 0 0 754.45 264.95
  Q 754.54 268.31 758.26 269.10
  C 773.14 272.24 789.82 274.41 797.65 289.69
  C 803.35 300.81 800.55 313.04 791.96 321.82
  C 774.02 340.16 733.89 336.08 726.00 308.70
  C 724.95 305.05 726.32 302.56 729.62 301.12
  C 736.42 298.14 747.80 296.59 754.80 300.63
  Q 755.26 300.89 755.48 301.38
  Q 758.93 309.19 766.60 305.87
  C 770.97 303.98 770.12 298.97 765.96 297.60
  Q 759.40 295.44 752.63 294.15
  Q 744.54 292.60 742.06 291.55
  C 733.77 288.04 727.62 281.27 726.63 271.96
  C 724.18 248.96 742.27 233.94 764.00 234.73
  C 776.66 235.19 789.66 242.08 793.42 254.83
  C 795.61 262.25 774.61 266.99 769.25 265.77
  A 0.93 0.93 0.0 0 1 768.55 265.07
  Z"
/>
<path fill="#6d5845" d="
  M 348.38 320.42
  Q 345.90 325.74 343.13 330.90
  C 341.49 333.97 340.39 335.12 336.67 335.36
  Q 326.12 336.06 316.74 334.58
  C 312.58 333.92 311.92 329.79 312.30 325.75
  C 314.36 303.86 320.33 281.16 326.89 260.21
  Q 331.06 246.90 334.12 241.97
  C 338.96 234.20 367.86 233.71 375.29 236.85
  C 381.17 239.35 386.41 253.22 388.63 258.97
  Q 401.17 291.48 409.82 325.24
  C 411.54 331.94 406.53 333.58 401.25 334.17
  Q 389.39 335.50 380.51 335.55
  C 376.32 335.57 374.10 333.64 372.83 329.91
  Q 370.96 324.41 368.56 318.68
  A 4.65 4.63 -11.8 0 0 364.20 315.84
  Q 360.60 315.90 355.76 315.78
  C 351.45 315.67 350.23 316.44 348.38 320.42
  Z
  M 333.71 249.47
  Q 320.85 284.41 315.30 321.25
  C 314.97 323.45 313.59 331.46 317.49 332.06
  Q 326.13 333.39 336.44 332.79
  C 338.89 332.65 339.61 331.95 340.67 329.90
  Q 343.73 323.96 346.67 317.90
  C 348.73 313.63 352.04 312.82 356.51 313.18
  C 359.21 313.40 365.41 312.37 368.29 314.42
  C 373.02 317.77 374.41 332.69 379.22 332.99
  Q 388.53 333.56 404.01 331.12
  C 407.15 330.63 407.94 328.47 407.18 325.52
  C 404.11 313.58 383.89 240.85 373.29 238.81
  Q 360.20 236.28 345.51 239.35
  C 341.70 240.15 337.95 240.60 336.03 244.24
  Q 334.69 246.79 333.71 249.47
  Z"
/>
<path fill="#6d5845" d="
  M 681.72 315.89
  L 669.44 315.76
  A 4.39 4.38 -77.5 0 0 665.40 318.34
  Q 662.60 324.51 659.09 331.07
  C 657.32 334.38 656.08 335.22 652.14 335.41
  C 647.52 335.65 633.25 336.37 630.01 332.82
  Q 627.61 330.20 628.23 325.48
  Q 633.81 283.01 648.69 244.70
  Q 649.50 242.59 651.24 240.73
  C 655.84 235.78 672.80 234.80 679.15 235.03
  C 687.73 235.34 693.38 235.73 697.41 243.31
  Q 701.63 251.24 704.34 258.21
  Q 717.74 292.63 726.01 325.74
  C 727.46 331.55 722.84 333.42 718.25 334.06
  Q 703.34 336.13 694.24 335.54
  C 688.61 335.17 686.69 320.13 682.45 316.18
  A 1.08 1.06 66.2 0 0 681.72 315.89
  Z
  M 647.60 254.92
  Q 636.78 286.77 631.50 319.99
  Q 630.99 323.23 630.97 328.27
  C 630.95 331.08 632.16 331.95 634.76 332.22
  Q 645.52 333.31 654.04 332.70
  A 1.36 1.35 -70.4 0 0 654.92 332.28
  C 658.19 328.85 660.65 322.17 662.78 317.82
  C 666.00 311.24 673.88 313.28 679.71 313.28
  C 683.85 313.27 686.03 314.92 687.45 318.56
  Q 689.60 324.05 691.63 329.55
  Q 692.93 333.09 697.24 332.95
  Q 710.08 332.53 718.44 331.32
  C 722.40 330.74 724.38 329.69 723.19 325.26
  Q 713.54 289.53 702.66 261.10
  Q 699.45 252.70 695.26 244.72
  Q 691.95 238.42 683.64 237.95
  Q 667.63 237.04 655.29 241.06
  C 651.76 242.21 648.74 251.59 647.60 254.92
  Z"
/>
<path fill="#f0e1c0" d="
  M 865.22 237.55
  C 885.33 240.96 902.55 255.99 904.62 277.01
  C 908.24 313.73 877.30 341.51 841.01 330.52
  C 807.10 320.25 796.07 278.82 819.58 252.59
  Q 837.31 232.81 865.22 237.55
  Z
  M 869.8104 281.3452
  A 14.19 13.98 -13.8 0 0 852.6953 271.1535
  A 14.19 13.98 -13.8 0 0 842.2496 288.1148
  A 14.19 13.98 -13.8 0 0 859.3647 298.3065
  A 14.19 13.98 -13.8 0 0 869.8104 281.3452
  Z"
/>
<path fill="#f0e1c0" d="
  M 585.33 297.84
  C 578.26 305.46 570.23 314.61 561.46 320.29
  A 1.80 1.79 44.6 0 1 559.53 320.30
  C 551.14 314.99 543.39 306.17 536.69 298.87
  A 0.42 0.42 0.0 0 0 535.96 299.13
  Q 535.27 310.80 533.62 322.52
  Q 532.94 327.37 531.42 331.47
  A 1.57 1.56 -82.6 0 1 530.12 332.48
  C 521.60 333.35 511.60 333.47 503.29 331.38
  A 0.91 0.89 0.1 0 1 502.63 330.73
  Q 501.21 325.09 500.86 319.38
  Q 498.64 283.44 500.70 247.51
  C 500.87 244.61 500.44 239.26 504.24 238.47
  Q 515.55 236.12 528.00 237.63
  C 532.18 238.13 535.18 238.55 538.22 241.74
  C 546.17 250.08 552.34 260.33 560.40 272.33
  Q 560.74 272.83 561.08 272.33
  C 567.97 262.21 574.59 251.26 582.71 242.21
  Q 585.93 238.62 590.22 237.93
  Q 603.59 235.80 616.40 238.32
  Q 617.74 238.59 619.18 239.46
  Q 619.62 239.73 619.72 240.23
  C 620.06 242.09 620.57 244.08 620.70 245.95
  Q 623.23 282.46 621.08 319.00
  Q 620.79 323.92 619.83 328.75
  C 619.37 331.04 619.06 331.51 616.60 331.83
  Q 603.89 333.49 591.84 332.32
  A 2.28 2.28 0.0 0 1 589.83 330.53
  Q 586.38 314.49 585.95 298.08
  A 0.36 0.36 0.0 0 0 585.33 297.84
  Z"
/>
<path fill="#f0e1c0" d="
  M 333.71 249.47
  Q 334.69 246.79 336.03 244.24
  C 337.95 240.60 341.70 240.15 345.51 239.35
  Q 360.20 236.28 373.29 238.81
  C 383.89 240.85 404.11 313.58 407.18 325.52
  C 407.94 328.47 407.15 330.63 404.01 331.12
  Q 388.53 333.56 379.22 332.99
  C 374.41 332.69 373.02 317.77 368.29 314.42
  C 365.41 312.37 359.21 313.40 356.51 313.18
  C 352.04 312.82 348.73 313.63 346.67 317.90
  Q 343.73 323.96 340.67 329.90
  C 339.61 331.95 338.89 332.65 336.44 332.79
  Q 326.13 333.39 317.49 332.06
  C 313.59 331.46 314.97 323.45 315.30 321.25
  Q 320.85 284.41 333.71 249.47
  Z
  M 368.54 289.01
  C 368.73 285.02 360.39 268.05 354.96 275.19
  C 352.93 277.86 347.84 287.73 349.89 291.14
  C 352.31 295.16 368.25 294.94 368.54 289.01
  Z"
/>
<path fill="#f0e1c0" d="
  M 647.60 254.92
  C 648.74 251.59 651.76 242.21 655.29 241.06
  Q 667.63 237.04 683.64 237.95
  Q 691.95 238.42 695.26 244.72
  Q 699.45 252.70 702.66 261.10
  Q 713.54 289.53 723.19 325.26
  C 724.38 329.69 722.40 330.74 718.44 331.32
  Q 710.08 332.53 697.24 332.95
  Q 692.93 333.09 691.63 329.55
  Q 689.60 324.05 687.45 318.56
  C 686.03 314.92 683.85 313.27 679.71 313.28
  C 673.88 313.28 666.00 311.24 662.78 317.82
  C 660.65 322.17 658.19 328.85 654.92 332.28
  A 1.36 1.35 -70.4 0 1 654.04 332.70
  Q 645.52 333.31 634.76 332.22
  C 632.16 331.95 630.95 331.08 630.97 328.27
  Q 630.99 323.23 631.50 319.99
  Q 636.78 286.77 647.60 254.92
  Z
  M 670.29 276.06
  C 668.42 279.13 662.17 290.90 667.93 292.91
  C 672.70 294.57 688.73 295.05 683.47 284.76
  C 681.61 281.11 675.59 267.38 670.29 276.06
  Z"
/>
<path fill="#6d5845" d="
  M 444.74 282.14
  C 436.84 282.43 434.98 267.27 439.11 263.46
  C 441.70 261.06 447.42 261.44 450.34 262.53
  C 462.71 267.14 455.18 281.75 444.74 282.14
  Z
  M 448.55 278.60
  C 454.53 275.65 456.85 266.92 448.72 264.73
  C 439.24 262.18 438.51 268.63 440.60 275.53
  Q 442.44 281.61 448.55 278.60
  Z"
/>
<path fill="#6d5845" d="
  M 869.8104 281.3452
  A 14.19 13.98 -13.8 0 1 859.3647 298.3065
  A 14.19 13.98 -13.8 0 1 842.2496 288.1148
  A 14.19 13.98 -13.8 0 1 852.6953 271.1535
  A 14.19 13.98 -13.8 0 1 869.8104 281.3452
  Z
  M 867.2272 281.9382
  A 11.54 11.33 -14.0 0 0 853.2890 273.7365
  A 11.54 11.33 -14.0 0 0 844.8328 287.5218
  A 11.54 11.33 -14.0 0 0 858.7710 295.7235
  A 11.54 11.33 -14.0 0 0 867.2272 281.9382
  Z"
/>
<path fill="#6d5845" d="
  M 354.96 275.19
  C 360.39 268.05 368.73 285.02 368.54 289.01
  C 368.25 294.94 352.31 295.16 349.89 291.14
  C 347.84 287.73 352.93 277.86 354.96 275.19
  Z
  M 357.66 276.14
  C 355.14 279.22 352.36 284.85 352.11 288.67
  A 2.02 2.02 0.0 0 0 353.82 290.80
  C 356.45 291.22 367.16 292.16 365.69 287.31
  C 364.96 284.91 361.49 278.18 358.48 276.03
  Q 358.02 275.70 357.66 276.14
  Z"
/>
<path fill="#6d5845" d="
  M 667.93 292.91
  C 662.17 290.90 668.42 279.13 670.29 276.06
  C 675.59 267.38 681.61 281.11 683.47 284.76
  C 688.73 295.05 672.70 294.57 667.93 292.91
  Z
  M 668.88 290.40
  Q 675.16 292.35 681.16 289.86
  A 1.44 1.43 69.0 0 0 681.96 288.06
  C 680.60 284.26 677.82 278.42 674.46 275.98
  Q 673.98 275.63 673.63 276.11
  Q 669.36 281.88 668.02 288.97
  A 1.25 1.25 0.0 0 0 668.88 290.40
  Z"
/>
<path fill="#62abb1" d="
  M 1116.41 274.95
  L 1148.57 279.63
  A 0.52 0.52 0.0 0 1 1148.91 280.46
  Q 1145.10 285.59 1139.17 288.55
  Q 1118.81 298.71 1098.71 308.44
  A 0.54 0.53 -88.6 0 1 1098.01 307.70
  L 1115.63 275.34
  A 0.76 0.75 18.2 0 1 1116.41 274.95
  Z"
/>
<path fill="#286b7a" d="
  M 1017.25 331.54
  L 1015.73 315.58
  Q 1015.58 314.87 1015.99 314.24
  Q 1021.56 305.71 1027.42 297.04
  A 1.38 1.38 0.0 0 1 1029.24 296.60
  L 1041.02 303.18
  Q 1042.60 304.07 1044.09 303.04
  Q 1053.76 296.42 1062.87 290.11
  C 1066.69 287.46 1074.56 286.31 1077.94 285.32
  Q 1095.26 280.28 1112.27 275.64
  A 0.82 0.82 0.0 0 1 1113.21 276.82
  L 1095.76 308.95
  A 3.58 3.57 6.3 0 1 1093.58 310.69
  Q 1056.19 321.18 1018.74 331.59
  Q 1018.26 331.73 1017.25 331.54
  Z"
/>
<path fill="#62abb1" d="
  M 1144.65 287.21
  L 1146.18 285.43
  L 1150.22 281.41
  A 0.46 0.46 0.0 0 1 1150.98 281.58
  L 1153.63 289.36
  A 0.44 0.43 -1.8 0 1 1153.10 289.92
  L 1144.87 287.73
  Q 1144.68 287.68 1144.64 287.48
  Q 1144.61 287.35 1144.65 287.21
  Z"
/>
<path fill="#6d5845" d="
  M 1456.41 424.72
  L 1517.65 288.03
  A 0.32 0.32 0.0 0 1 1518.10 287.88
  L 1556.05 309.21
  A 0.32 0.32 0.0 0 1 1556.16 309.67
  L 1469.89 435.29
  A 0.32 0.32 0.0 0 1 1469.43 435.36
  L 1456.50 425.10
  A 0.32 0.32 0.0 0 1 1456.41 424.72
  Z
  M 1458.90 423.84
  A 0.71 0.71 0.0 0 0 1459.11 424.68
  L 1468.66 432.33
  A 0.71 0.71 0.0 0 0 1469.69 432.18
  L 1553.13 310.64
  A 0.71 0.71 0.0 0 0 1552.89 309.62
  L 1519.36 290.79
  A 0.71 0.71 0.0 0 0 1518.36 291.12
  L 1458.90 423.84
  Z"
/>
<path fill="#62abb1" d="
  M 1097.59 310.20
  L 1142.67 288.34
  A 0.43 0.43 0.0 0 1 1142.96 288.31
  L 1152.91 290.98
  A 0.43 0.43 0.0 0 1 1153.08 291.72
  L 1119.23 320.97
  A 0.43 0.43 0.0 0 1 1118.77 321.03
  L 1097.59 310.97
  A 0.43 0.43 0.0 0 1 1097.59 310.20
  Z"
/>
<path fill="#ee583b" d="
  M 1458.90 423.84
  L 1518.36 291.12
  A 0.71 0.71 0.0 0 1 1519.36 290.79
  L 1552.89 309.62
  A 0.71 0.71 0.0 0 1 1553.13 310.64
  L 1469.69 432.18
  A 0.71 0.71 0.0 0 1 1468.66 432.33
  L 1459.11 424.68
  A 0.71 0.71 0.0 0 1 1458.90 423.84
  Z"
/>
<path fill="#3c8393" d="
  M 1116.35 321.97
  L 1023.91 341.04
  A 0.32 0.32 0.0 0 1 1023.60 340.92
  L 1017.72 333.38
  A 0.32 0.32 0.0 0 1 1017.89 332.87
  L 1094.99 311.36
  A 0.32 0.32 0.0 0 1 1095.21 311.38
  L 1116.42 321.37
  A 0.32 0.32 0.0 0 1 1116.35 321.97
  Z"
/>
<path fill="#62abb1" d="
  M 1015.73 315.58
  L 1017.25 331.54
  Q 1017.81 331.93 1017.62 332.50
  Q 1017.32 333.41 1016.16 333.07
  Q 1016.19 325.02 1014.68 316.58
  Q 1015.02 315.76 1015.73 315.58
  Z"
/>
<path fill="#6d5845" d="
  M 1484.42 488.28
  L 1602.18 331.26
  A 0.37 0.37 0.0 0 1 1602.73 331.22
  L 1639.90 368.06
  A 0.37 0.37 0.0 0 1 1639.89 368.59
  L 1499.14 500.22
  A 0.37 0.37 0.0 0 1 1498.66 500.24
  L 1484.49 488.79
  A 0.37 0.37 0.0 0 1 1484.42 488.28
  Z
  M 1487.21 487.81
  A 0.53 0.53 0.0 0 0 1487.29 488.54
  L 1498.42 497.63
  A 0.53 0.53 0.0 0 0 1499.12 497.60
  L 1637.00 368.66
  A 0.53 0.53 0.0 0 0 1637.01 367.89
  L 1603.09 334.29
  A 0.53 0.53 0.0 0 0 1602.30 334.35
  L 1487.21 487.81
  Z"
/>
<path fill="#ee583b" d="
  M 1487.21 487.81
  L 1602.30 334.35
  A 0.53 0.53 0.0 0 1 1603.09 334.29
  L 1637.01 367.89
  A 0.53 0.53 0.0 0 1 1637.00 368.66
  L 1499.12 497.60
  A 0.53 0.53 0.0 0 1 1498.42 497.63
  L 1487.29 488.54
  A 0.53 0.53 0.0 0 1 1487.21 487.81
  Z"
/>
<path fill="#6d5845" d="
  M 378.77 452.25
  C 379.66 455.70 388.31 457.54 391.01 458.03
  Q 405.96 460.72 415.00 462.75
  C 454.69 471.66 489.53 496.73 488.27 541.75
  C 487.25 578.54 455.13 605.95 420.86 613.82
  C 398.42 618.98 374.44 618.26 353.16 609.62
  C 329.75 600.11 308.55 580.26 302.30 555.27
  Q 300.86 549.50 301.68 545.69
  C 304.42 532.89 323.19 528.32 334.23 526.60
  Q 352.34 523.79 370.09 528.71
  C 376.84 530.58 380.86 532.93 382.95 539.48
  C 386.10 549.35 407.76 546.67 405.38 537.57
  C 404.52 534.29 401.07 532.44 398.00 531.53
  Q 381.10 526.55 363.07 523.51
  Q 352.99 521.81 348.12 520.07
  C 323.97 511.45 306.94 494.13 303.80 467.99
  Q 302.99 461.16 303.58 450.49
  C 306.42 399.88 354.20 371.65 401.25 375.06
  C 432.31 377.30 461.97 394.84 471.42 425.69
  C 478.46 448.67 428.44 456.90 414.47 457.93
  C 409.42 458.30 405.73 456.78 403.44 452.41
  C 402.70 451.00 403.10 449.11 402.07 447.75
  C 395.91 439.64 384.38 444.97 378.98 451.33
  Q 378.64 451.73 378.77 452.25
  Z
  M 429.33 469.59
  Q 416.63 465.38 409.76 464.23
  C 399.60 462.53 381.62 460.17 377.88 455.89
  C 372.60 449.85 381.85 444.64 386.41 442.58
  Q 396.78 437.90 404.20 446.02
  C 405.60 447.55 405.15 450.40 406.36 452.17
  Q 408.72 455.64 412.74 455.48
  Q 430.10 454.80 449.26 447.86
  C 456.75 445.15 471.62 437.92 469.15 428.06
  C 464.28 408.59 448.89 392.62 430.74 384.96
  C 396.99 370.73 355.96 376.39 328.62 402.11
  C 310.76 418.92 304.37 440.56 306.21 464.61
  C 307.66 483.49 316.24 499.02 332.18 509.24
  C 340.19 514.37 349.85 518.80 359.25 520.31
  Q 375.41 522.91 387.90 526.05
  C 394.62 527.74 399.65 528.74 403.94 531.28
  C 408.23 533.82 410.18 541.45 405.53 544.81
  C 397.88 550.33 383.97 550.28 380.16 539.78
  Q 379.06 536.73 377.97 535.64
  C 374.11 531.76 366.45 530.14 361.24 529.34
  Q 342.13 526.42 323.52 531.62
  C 314.67 534.10 303.71 539.37 304.00 549.83
  Q 304.12 554.45 308.00 563.91
  C 319.73 592.54 351.42 610.71 381.12 613.79
  C 403.63 616.13 429.65 612.03 448.99 599.64
  C 474.44 583.31 490.17 557.57 484.57 526.81
  C 479.23 497.47 456.63 478.64 429.33 469.59
  Z"
/>
<path fill="#f0e1c0" d="
  M 429.33 469.59
  C 456.63 478.64 479.23 497.47 484.57 526.81
  C 490.17 557.57 474.44 583.31 448.99 599.64
  C 429.65 612.03 403.63 616.13 381.12 613.79
  C 351.42 610.71 319.73 592.54 308.00 563.91
  Q 304.12 554.45 304.00 549.83
  C 303.71 539.37 314.67 534.10 323.52 531.62
  Q 342.13 526.42 361.24 529.34
  C 366.45 530.14 374.11 531.76 377.97 535.64
  Q 379.06 536.73 380.16 539.78
  C 383.97 550.28 397.88 550.33 405.53 544.81
  C 410.18 541.45 408.23 533.82 403.94 531.28
  C 399.65 528.74 394.62 527.74 387.90 526.05
  Q 375.41 522.91 359.25 520.31
  C 349.85 518.80 340.19 514.37 332.18 509.24
  C 316.24 499.02 307.66 483.49 306.21 464.61
  C 304.37 440.56 310.76 418.92 328.62 402.11
  C 355.96 376.39 396.99 370.73 430.74 384.96
  C 448.89 392.62 464.28 408.59 469.15 428.06
  C 471.62 437.92 456.75 445.15 449.26 447.86
  Q 430.10 454.80 412.74 455.48
  Q 408.72 455.64 406.36 452.17
  C 405.15 450.40 405.60 447.55 404.20 446.02
  Q 396.78 437.90 386.41 442.58
  C 381.85 444.64 372.60 449.85 377.88 455.89
  C 381.62 460.17 399.60 462.53 409.76 464.23
  Q 416.63 465.38 429.33 469.59
  Z"
/>
<path fill="#6d5845" d="
  M 966.45 385.17
  Q 1004.76 373.18 1043.43 382.10
  C 1050.18 383.66 1058.66 386.96 1059.48 395.04
  Q 1061.28 412.82 1061.77 433.25
  Q 1063.40 502.62 1057.35 571.74
  Q 1055.45 593.43 1053.28 601.75
  Q 1051.90 607.02 1050.21 609.44
  C 1044.06 618.22 1004.57 617.09 994.50 616.43
  Q 985.28 615.82 977.48 613.25
  C 972.08 611.46 969.95 602.33 968.85 597.49
  Q 966.11 585.46 964.36 573.24
  Q 955.27 509.66 952.27 445.51
  Q 951.40 426.77 951.65 408.00
  Q 951.71 403.62 952.26 399.29
  C 953.18 392.00 959.82 387.25 966.45 385.17
  Z
  M 1056.84 395.23
  C 1055.95 386.95 1042.76 384.30 1036.51 383.21
  Q 1003.01 377.37 970.37 386.72
  C 965.17 388.21 958.69 390.85 956.04 395.86
  Q 954.81 398.19 954.55 402.83
  Q 954.00 412.83 954.36 425.00
  Q 956.66 503.24 967.68 578.29
  C 969.05 587.60 971.08 599.89 975.07 607.54
  C 976.30 609.90 977.54 610.62 980.00 611.26
  C 998.03 615.98 1018.98 614.84 1037.23 612.07
  C 1042.17 611.33 1047.86 609.96 1049.32 605.51
  Q 1051.26 599.66 1052.32 591.48
  Q 1056.78 557.23 1058.14 522.74
  C 1059.62 485.43 1060.04 448.32 1058.31 411.00
  Q 1058.14 407.30 1056.84 395.23
  Z"
/>
<path fill="#6d5845" d="
  M 603.27 616.19
  C 571.19 612.63 542.20 598.33 521.80 573.21
  C 502.47 549.40 492.54 521.15 495.16 490.25
  Q 499.48 439.23 539.36 405.37
  C 560.29 387.59 584.82 378.70 612.06 378.83
  C 694.42 379.22 753.17 443.72 732.12 527.12
  Q 723.93 559.53 700.23 582.95
  Q 660.20 622.51 603.27 616.19
  Z
  M 636.62 613.12
  C 682.27 605.83 719.11 569.56 729.90 524.98
  C 739.90 483.64 731.04 443.02 699.24 413.47
  C 676.40 392.24 646.46 382.84 615.80 381.45
  C 572.28 379.48 533.48 404.49 512.39 441.67
  C 492.66 476.46 492.11 519.69 512.22 554.35
  Q 540.29 602.76 595.73 612.59
  Q 616.71 616.31 636.62 613.12
  Z"
/>
<path fill="#6d5845" d="
  M 844.26 614.99
  C 793.61 607.18 751.07 567.84 749.16 515.04
  C 746.54 442.29 795.55 381.89 870.46 379.40
  Q 884.09 378.94 896.00 380.54
  Q 898.72 380.90 901.96 382.38
  C 917.57 389.52 922.77 410.99 925.64 426.76
  C 928.12 440.33 926.02 462.07 907.64 462.67
  C 886.01 463.38 869.19 465.50 854.09 480.16
  C 847.13 486.92 844.28 493.46 844.57 502.98
  C 845.48 532.18 882.33 528.36 900.88 524.65
  Q 908.89 523.04 911.77 523.39
  C 927.21 525.23 934.19 545.41 936.79 557.96
  C 939.54 571.24 940.14 584.04 935.49 596.49
  C 932.75 603.85 927.93 606.69 920.21 609.15
  Q 883.10 620.98 844.26 614.99
  Z
  M 790.39 414.64
  C 768.01 435.80 755.99 463.94 752.48 494.25
  Q 746.37 547.08 782.36 582.04
  C 818.81 617.43 876.28 621.44 922.19 605.69
  C 925.93 604.40 929.10 602.60 930.97 599.43
  C 940.09 583.97 936.22 560.51 929.99 544.51
  C 926.65 535.93 918.07 523.72 907.50 525.93
  Q 887.75 530.04 872.00 529.58
  C 852.05 528.99 838.32 515.66 842.53 494.88
  C 845.55 479.96 860.92 469.50 874.14 464.65
  C 883.95 461.04 897.26 460.31 908.50 459.98
  C 922.55 459.57 924.95 440.84 923.53 430.52
  C 921.53 416.05 916.25 392.57 901.99 385.47
  Q 896.99 382.98 887.65 382.33
  C 851.09 379.78 817.39 389.11 790.39 414.64
  Z"
/>
<path fill="#6d5845" d="
  M 1398.20 513.76
  C 1399.00 519.62 1423.29 517.64 1427.75 517.37
  Q 1441.62 516.54 1455.51 515.95
  C 1466.12 515.49 1469.54 518.85 1472.32 529.04
  Q 1481.64 563.10 1476.72 598.10
  C 1475.99 603.32 1474.46 609.89 1468.74 611.15
  Q 1463.41 612.32 1458.00 612.90
  Q 1399.29 619.27 1340.38 615.35
  Q 1332.70 614.84 1321.27 612.30
  C 1313.58 610.60 1310.46 606.97 1308.23 599.26
  C 1305.45 589.66 1304.64 579.82 1303.59 569.44
  Q 1302.70 560.79 1302.09 550.56
  Q 1297.66 476.46 1299.91 402.25
  C 1300.08 396.45 1299.63 388.87 1306.42 385.86
  Q 1313.47 382.73 1321.97 381.50
  Q 1352.75 377.02 1383.19 382.87
  C 1387.18 383.64 1394.51 385.72 1394.86 390.62
  Q 1395.34 397.18 1395.49 403.75
  Q 1396.60 451.68 1397.56 499.62
  Q 1397.79 510.75 1398.20 513.76
  Z
  M 1395.29 508.62
  Q 1393.98 462.28 1393.36 415.93
  C 1393.25 407.59 1392.77 399.46 1392.32 391.25
  C 1392.13 387.70 1385.39 385.94 1382.00 385.30
  Q 1349.37 379.20 1316.76 385.32
  C 1312.75 386.07 1306.93 387.66 1304.35 390.80
  C 1302.52 393.04 1302.47 401.66 1302.39 404.69
  Q 1300.84 461.35 1302.94 518.00
  Q 1304.01 546.69 1306.78 575.25
  Q 1307.85 586.24 1310.35 596.99
  C 1311.80 603.19 1313.46 606.76 1318.78 608.66
  C 1330.78 612.93 1344.87 613.33 1357.50 613.79
  Q 1396.66 615.20 1435.76 612.52
  Q 1451.34 611.45 1466.78 609.16
  C 1472.27 608.34 1473.92 601.19 1474.51 596.63
  Q 1478.86 562.68 1469.79 529.59
  C 1468.72 525.69 1466.47 519.49 1461.75 518.84
  Q 1458.51 518.39 1455.26 518.55
  Q 1440.25 519.27 1425.25 520.09
  C 1419.40 520.41 1397.47 522.34 1395.78 515.01
  Q 1395.43 513.52 1395.29 508.62
  Z"
/>
<path fill="#f0e1c0" d="
  M 1036.51 383.21
  C 1042.76 384.30 1055.95 386.95 1056.84 395.23
  Q 1058.14 407.30 1058.31 411.00
  C 1060.04 448.32 1059.62 485.43 1058.14 522.74
  Q 1056.78 557.23 1052.32 591.48
  Q 1051.26 599.66 1049.32 605.51
  C 1047.86 609.96 1042.17 611.33 1037.23 612.07
  C 1018.98 614.84 998.03 615.98 980.00 611.26
  C 977.54 610.62 976.30 609.90 975.07 607.54
  C 971.08 599.89 969.05 587.60 967.68 578.29
  Q 956.66 503.24 954.36 425.00
  Q 954.00 412.83 954.55 402.83
  Q 954.81 398.19 956.04 395.86
  C 958.69 390.85 965.17 388.21 970.37 386.72
  Q 1003.01 377.37 1036.51 383.21
  Z"
/>
<path fill="#f0e1c0" d="
  M 636.62 613.12
  Q 616.71 616.31 595.73 612.59
  Q 540.29 602.76 512.22 554.35
  C 492.11 519.69 492.66 476.46 512.39 441.67
  C 533.48 404.49 572.28 379.48 615.80 381.45
  C 646.46 382.84 676.40 392.24 699.24 413.47
  C 731.04 443.02 739.90 483.64 729.90 524.98
  C 719.11 569.56 682.27 605.83 636.62 613.12
  Z
  M 592.28 476.70
  C 579.69 491.08 580.90 510.10 596.14 522.61
  C 610.34 534.26 632.52 530.13 641.87 515.31
  C 650.36 501.86 649.37 483.50 635.95 473.57
  C 622.72 463.79 603.56 463.84 592.28 476.70
  Z"
/>
<path fill="#6d5845" d="
  M 1156.29 582.31
  Q 1150.13 595.94 1142.77 609.01
  C 1138.96 615.77 1135.37 616.20 1128.27 616.49
  Q 1110.86 617.20 1093.50 615.84
  C 1083.13 615.03 1073.94 613.91 1074.27 601.12
  Q 1074.66 586.10 1077.20 571.24
  Q 1089.58 499.01 1112.80 429.50
  Q 1117.26 416.13 1123.04 403.28
  C 1126.13 396.41 1127.96 393.23 1134.53 390.30
  Q 1140.95 387.44 1151.21 385.30
  Q 1180.77 379.16 1211.24 383.05
  C 1222.27 384.46 1228.39 389.45 1234.10 399.19
  Q 1242.89 414.15 1249.26 430.30
  Q 1278.39 504.14 1300.50 587.02
  C 1302.07 592.89 1304.42 599.99 1301.81 605.30
  Q 1299.06 610.90 1292.25 612.12
  Q 1263.14 617.31 1230.24 616.81
  C 1220.53 616.67 1214.91 596.88 1212.38 589.03
  C 1210.41 582.92 1206.14 572.41 1200.55 570.56
  Q 1198.99 570.04 1195.90 569.96
  Q 1183.82 569.64 1171.76 569.91
  C 1162.52 570.12 1159.74 574.67 1156.29 582.31
  Z
  M 1128.41 398.75
  C 1122.87 408.60 1118.88 419.81 1115.30 430.51
  Q 1094.92 491.55 1082.73 554.75
  C 1079.85 569.71 1076.92 585.69 1076.94 600.96
  Q 1076.94 605.94 1078.55 608.29
  Q 1080.88 611.70 1085.74 612.30
  Q 1108.82 615.17 1132.07 613.61
  C 1137.32 613.26 1139.53 609.89 1141.73 605.72
  Q 1148.26 593.39 1155.52 577.92
  C 1158.73 571.08 1163.21 567.57 1170.77 567.35
  Q 1182.82 567.00 1196.92 567.42
  Q 1200.10 567.52 1201.98 568.25
  C 1210.93 571.73 1215.86 591.09 1219.06 599.88
  C 1220.59 604.08 1224.94 614.11 1229.99 614.19
  Q 1262.88 614.71 1291.75 609.56
  Q 1296.33 608.74 1298.85 605.11
  C 1301.17 601.76 1300.34 596.74 1299.37 592.98
  Q 1279.97 517.93 1251.93 444.35
  C 1245.59 427.72 1238.46 409.62 1228.43 395.33
  C 1223.74 388.66 1217.03 386.54 1209.04 385.56
  Q 1173.66 381.23 1139.47 391.19
  C 1135.32 392.40 1130.70 394.67 1128.41 398.75
  Z"
/>
<path fill="#f0e1c0" d="
  M 752.48 494.25
  C 755.99 463.94 768.01 435.80 790.39 414.64
  C 817.39 389.11 851.09 379.78 887.65 382.33
  Q 896.99 382.98 901.99 385.47
  C 916.25 392.57 921.53 416.05 923.53 430.52
  C 924.95 440.84 922.55 459.57 908.50 459.98
  C 897.26 460.31 883.95 461.04 874.14 464.65
  C 860.92 469.50 845.55 479.96 842.53 494.88
  C 838.32 515.66 852.05 528.99 872.00 529.58
  Q 887.75 530.04 907.50 525.93
  C 918.07 523.72 926.65 535.93 929.99 544.51
  C 936.22 560.51 940.09 583.97 930.97 599.43
  C 929.10 602.60 925.93 604.40 922.19 605.69
  C 876.28 621.44 818.81 617.43 782.36 582.04
  Q 746.37 547.08 752.48 494.25
  Z"
/>
<path fill="#f0e1c0" d="
  M 1395.29 508.62
  Q 1395.43 513.52 1395.78 515.01
  C 1397.47 522.34 1419.40 520.41 1425.25 520.09
  Q 1440.25 519.27 1455.26 518.55
  Q 1458.51 518.39 1461.75 518.84
  C 1466.47 519.49 1468.72 525.69 1469.79 529.59
  Q 1478.86 562.68 1474.51 596.63
  C 1473.92 601.19 1472.27 608.34 1466.78 609.16
  Q 1451.34 611.45 1435.76 612.52
  Q 1396.66 615.20 1357.50 613.79
  C 1344.87 613.33 1330.78 612.93 1318.78 608.66
  C 1313.46 606.76 1311.80 603.19 1310.35 596.99
  Q 1307.85 586.24 1306.78 575.25
  Q 1304.01 546.69 1302.94 518.00
  Q 1300.84 461.35 1302.39 404.69
  C 1302.47 401.66 1302.52 393.04 1304.35 390.80
  C 1306.93 387.66 1312.75 386.07 1316.76 385.32
  Q 1349.37 379.20 1382.00 385.30
  C 1385.39 385.94 1392.13 387.70 1392.32 391.25
  C 1392.77 399.46 1393.25 407.59 1393.36 415.93
  Q 1393.98 462.28 1395.29 508.62
  Z"
/>
<path fill="#f0e1c0" d="
  M 1115.30 430.51
  C 1118.88 419.81 1122.87 408.60 1128.41 398.75
  C 1130.70 394.67 1135.32 392.40 1139.47 391.19
  Q 1173.66 381.23 1209.04 385.56
  C 1217.03 386.54 1223.74 388.66 1228.43 395.33
  C 1238.46 409.62 1245.59 427.72 1251.93 444.35
  Q 1279.97 517.93 1299.37 592.98
  C 1300.34 596.74 1301.17 601.76 1298.85 605.11
  Q 1296.33 608.74 1291.75 609.56
  Q 1262.88 614.71 1229.99 614.19
  C 1224.94 614.11 1220.59 604.08 1219.06 599.88
  C 1215.86 591.09 1210.93 571.73 1201.98 568.25
  Q 1200.10 567.52 1196.92 567.42
  Q 1182.82 567.00 1170.77 567.35
  C 1163.21 567.57 1158.73 571.08 1155.52 577.92
  Q 1148.26 593.39 1141.73 605.72
  C 1139.53 609.89 1137.32 613.26 1132.07 613.61
  Q 1108.82 615.17 1085.74 612.30
  Q 1080.88 611.70 1078.55 608.29
  Q 1076.94 605.94 1076.94 600.96
  C 1076.92 585.69 1079.85 569.71 1082.73 554.75
  Q 1094.92 491.55 1115.30 430.51
  Z
  M 1179.86 472.85
  C 1172.08 475.02 1160.15 504.40 1163.05 511.24
  C 1167.00 520.56 1192.14 518.37 1199.63 514.12
  C 1204.52 511.34 1205.10 507.07 1203.13 501.89
  C 1200.61 495.30 1189.12 470.27 1179.86 472.85
  Z"
/>
<path fill="#6d5845" d="
  M 1679.30 490.34
  L 1518.91 558.44
  A 0.32 0.32 0.0 0 1 1518.50 558.29
  L 1509.28 540.16
  A 0.32 0.32 0.0 0 1 1509.40 539.75
  L 1674.96 437.88
  A 0.32 0.32 0.0 0 1 1675.45 438.13
  L 1679.49 490.02
  A 0.32 0.32 0.0 0 1 1679.30 490.34
  Z
  M 1677.29 489.15
  A 0.42 0.42 0.0 0 0 1677.55 488.73
  L 1673.86 441.55
  A 0.42 0.42 0.0 0 0 1673.22 441.22
  L 1512.00 540.41
  A 0.42 0.42 0.0 0 0 1511.85 540.96
  L 1519.37 555.77
  A 0.42 0.42 0.0 0 0 1519.91 555.97
  L 1677.29 489.15
  Z"
/>
<path fill="#ee583b" d="
  M 1677.29 489.15
  L 1519.91 555.97
  A 0.42 0.42 0.0 0 1 1519.37 555.77
  L 1511.85 540.96
  A 0.42 0.42 0.0 0 1 1512.00 540.41
  L 1673.22 441.22
  A 0.42 0.42 0.0 0 1 1673.86 441.55
  L 1677.55 488.73
  A 0.42 0.42 0.0 0 1 1677.29 489.15
  Z"
/>
<path fill="#6d5845" d="
  M 592.28 476.70
  C 603.56 463.84 622.72 463.79 635.95 473.57
  C 649.37 483.50 650.36 501.86 641.87 515.31
  C 632.52 530.13 610.34 534.26 596.14 522.61
  C 580.90 510.10 579.69 491.08 592.28 476.70
  Z
  M 612.32 526.43
  C 630.85 528.63 645.29 513.70 644.71 495.49
  C 644.00 472.83 614.87 461.64 597.94 474.90
  C 577.00 491.30 586.28 523.35 612.32 526.43
  Z"
/>
<path fill="#6d5845" d="
  M 1163.05 511.24
  C 1160.15 504.40 1172.08 475.02 1179.86 472.85
  C 1189.12 470.27 1200.61 495.30 1203.13 501.89
  C 1205.10 507.07 1204.52 511.34 1199.63 514.12
  C 1192.14 518.37 1167.00 520.56 1163.05 511.24
  Z
  M 1168.70 494.51
  C 1167.15 498.77 1162.65 509.16 1166.92 512.11
  C 1173.44 516.62 1191.45 515.82 1198.20 511.94
  C 1203.35 508.98 1201.61 504.91 1199.60 500.15
  C 1197.43 495.04 1187.03 474.03 1180.73 475.46
  C 1176.13 476.51 1170.22 490.37 1168.70 494.51
  Z"
/>
<path fill="#6d5845" d="
  M 1626.94 602.02
  L 1521.31 614.00
  A 0.34 0.34 0.0 0 1 1520.94 613.73
  L 1517.57 595.83
  A 0.34 0.34 0.0 0 1 1517.82 595.44
  L 1633.13 565.01
  A 0.34 0.34 0.0 0 1 1633.55 565.39
  L 1627.23 601.74
  A 0.34 0.34 0.0 0 1 1626.94 602.02
  Z
  M 1625.01 600.35
  A 0.78 0.78 0.0 0 0 1625.69 599.70
  L 1631.08 568.65
  A 0.78 0.78 0.0 0 0 1630.11 567.76
  L 1520.38 596.72
  A 0.78 0.78 0.0 0 0 1519.81 597.61
  L 1522.36 611.28
  A 0.78 0.78 0.0 0 0 1523.21 611.91
  L 1625.01 600.35
  Z"
/>
<path fill="#ee583b" d="
  M 1625.01 600.35
  L 1523.21 611.91
  A 0.78 0.78 0.0 0 1 1522.36 611.28
  L 1519.81 597.61
  A 0.78 0.78 0.0 0 1 1520.38 596.72
  L 1630.11 567.76
  A 0.78 0.78 0.0 0 1 1631.08 568.65
  L 1625.69 599.70
  A 0.78 0.78 0.0 0 1 1625.01 600.35
  Z"
/>
<path fill="#6d5845" d="
  M 1280.48 711.61
  Q 1283.90 718.01 1290.98 719.63
  C 1296.63 720.92 1303.52 718.55 1306.41 713.38
  C 1309.89 707.17 1305.59 700.50 1298.74 699.24
  Q 1291.09 697.84 1283.86 694.96
  C 1270.60 689.69 1269.30 674.02 1279.58 665.08
  C 1289.94 656.08 1307.63 659.49 1314.66 671.55
  Q 1314.90 671.96 1314.47 672.17
  L 1307.27 675.78
  Q 1306.84 675.99 1306.57 675.61
  Q 1300.93 667.88 1292.15 669.33
  C 1286.26 670.30 1281.78 673.94 1281.85 680.22
  C 1281.95 688.44 1301.48 689.31 1307.61 692.98
  C 1318.77 699.64 1319.39 715.05 1310.09 723.20
  Q 1304.02 728.52 1294.74 728.85
  Q 1279.64 729.40 1271.48 714.62
  A 0.60 0.60 0.0 0 1 1271.75 713.79
  L 1278.93 710.43
  Q 1279.34 710.24 1279.67 710.55
  Q 1280.20 711.08 1280.48 711.61
  Z"
/>
<path fill="#6d5845" d="
  M 358.23 705.74
  L 358.23 727.52
  Q 358.23 728.02 357.73 728.02
  L 349.78 728.03
  Q 349.28 728.03 349.28 727.53
  L 349.29 661.27
  A 0.35 0.34 -90.0 0 1 349.63 660.92
  Q 358.67 660.96 367.67 660.95
  Q 376.21 660.94 380.15 662.35
  C 399.69 669.30 399.51 695.19 380.81 703.44
  Q 380.27 703.68 380.57 704.19
  L 394.05 727.47
  Q 394.37 728.02 393.74 728.02
  L 384.25 728.03
  Q 383.60 728.03 383.28 727.47
  L 370.98 705.67
  Q 370.71 705.20 370.17 705.20
  L 358.76 705.20
  Q 358.23 705.21 358.23 705.74
  Z
  M 358.18 670.50
  L 358.00 695.40
  A 0.77 0.77 0.0 0 0 358.77 696.18
  L 370.87 696.26
  A 14.91 13.10 0.4 0 0 385.87 683.27
  L 385.87 683.03
  A 14.91 13.10 0.4 0 0 371.05 669.82
  L 358.95 669.74
  A 0.77 0.77 0.0 0 0 358.18 670.50
  Z"
/>
<path fill="#6d5845" d="
  M 468.99 686.48
  Q 480.60 680.98 490.95 686.79
  C 496.78 690.06 498.32 695.91 498.36 702.78
  Q 498.43 715.12 498.35 727.44
  Q 498.35 728.03 497.76 728.03
  L 490.01 728.03
  Q 489.49 728.03 489.49 727.51
  Q 489.46 715.57 489.49 703.66
  C 489.50 698.23 488.83 694.61 483.18 693.42
  C 478.72 692.47 471.14 692.53 468.97 697.44
  Q 468.25 699.07 468.26 703.66
  Q 468.27 715.58 468.25 727.51
  Q 468.25 728.03 467.73 728.03
  L 459.74 728.03
  Q 459.19 728.03 459.19 727.48
  L 459.20 661.49
  Q 459.20 660.92 459.76 660.93
  L 467.72 660.94
  Q 468.25 660.95 468.25 661.48
  L 468.26 686.02
  Q 468.26 686.83 468.99 686.48
  Z"
/>
<path fill="#6d5845" d="
  M 651.37 683.44
  L 651.38 661.47
  Q 651.38 660.93 651.93 660.93
  L 659.73 660.94
  Q 660.27 660.94 660.27 661.48
  L 660.27 683.51
  Q 660.27 684.01 660.76 684.00
  L 671.24 683.96
  Q 671.78 683.95 671.78 684.49
  L 671.78 692.47
  Q 671.78 692.98 671.28 692.97
  L 660.76 692.90
  Q 660.31 692.89 660.31 693.34
  Q 660.19 703.66 660.29 713.94
  C 660.34 720.14 665.12 719.65 669.44 717.88
  Q 670.02 717.64 670.25 718.23
  L 673.16 725.51
  Q 673.31 725.87 672.96 726.04
  Q 664.59 730.17 657.24 726.13
  C 652.04 723.27 651.38 718.33 651.38 712.27
  Q 651.37 702.87 651.38 693.47
  Q 651.38 692.89 650.79 692.89
  L 645.41 692.96
  Q 644.86 692.97 644.86 692.42
  L 644.86 684.60
  Q 644.86 683.97 645.48 683.98
  L 650.81 684.00
  Q 651.37 684.00 651.37 683.44
  Z"
/>
<path fill="#6d5845" d="
  M 767.77 680.25
  L 746.62 727.51
  Q 746.39 728.03 745.83 728.03
  L 739.03 728.03
  Q 738.58 728.03 738.40 727.62
  L 716.98 679.70
  A 0.11 0.10 -58.2 0 0 716.78 679.75
  L 716.78 727.50
  Q 716.78 728.03 716.25 728.03
  L 707.80 728.03
  Q 707.32 728.03 707.32 727.55
  L 707.32 661.50
  Q 707.32 660.93 707.88 660.93
  L 717.80 660.94
  Q 718.42 660.94 718.67 661.51
  L 742.26 714.25
  A 0.26 0.26 0.0 0 0 742.73 714.25
  L 766.38 661.47
  A 0.88 0.88 0.0 0 1 767.17 660.95
  L 777.21 660.92
  Q 777.76 660.92 777.76 661.46
  L 777.76 727.51
  Q 777.76 728.03 777.24 728.03
  L 768.70 728.02
  Q 768.12 728.02 768.12 727.45
  L 768.13 680.33
  A 0.19 0.19 0.0 0 0 767.77 680.25
  Z"
/>
<path fill="#6d5845" d="
  M 858.24 684.00
  L 868.73 683.97
  Q 869.24 683.97 869.24 684.48
  L 869.24 692.48
  Q 869.24 692.96 868.77 692.96
  L 858.23 692.91
  Q 857.77 692.90 857.76 693.37
  Q 857.64 702.95 857.76 712.52
  C 857.80 715.88 857.28 718.25 861.50 719.11
  Q 862.90 719.40 866.87 717.87
  Q 867.44 717.65 867.66 718.21
  L 870.54 725.50
  Q 870.70 725.92 870.30 726.12
  Q 863.33 729.46 856.88 727.17
  Q 849.09 724.40 848.99 715.51
  Q 848.87 704.40 848.70 693.32
  Q 848.69 692.87 848.25 692.88
  L 842.68 692.98
  Q 842.12 692.99 842.12 692.43
  L 842.11 684.54
  Q 842.11 683.95 842.71 683.95
  L 848.25 684.03
  Q 848.78 684.04 848.78 683.51
  L 848.79 661.46
  Q 848.79 660.95 849.29 660.95
  L 857.16 660.92
  Q 857.72 660.91 857.72 661.47
  L 857.73 683.49
  Q 857.73 684.00 858.24 684.00
  Z"
/>
<path fill="#6d5845" d="
  M 1120.84 692.90
  L 1115.51 692.96
  Q 1114.80 692.96 1114.80 692.25
  L 1114.80 684.46
  Q 1114.80 683.97 1115.29 683.97
  L 1120.99 684.01
  Q 1121.50 684.02 1121.50 683.51
  L 1121.50 661.46
  A 0.54 0.53 0.0 0 1 1122.04 660.93
  L 1130.05 660.94
  Q 1130.42 660.94 1130.42 661.30
  L 1130.43 683.47
  Q 1130.43 684.01 1130.97 684.00
  L 1141.23 683.96
  Q 1141.75 683.96 1141.75 684.48
  L 1141.75 692.49
  Q 1141.75 692.97 1141.26 692.97
  L 1130.97 692.91
  A 0.53 0.52 -89.5 0 0 1130.44 693.44
  Q 1130.40 703.97 1130.44 714.56
  C 1130.46 720.34 1135.93 719.34 1139.55 717.87
  Q 1140.09 717.64 1140.31 718.19
  L 1143.21 725.50
  Q 1143.38 725.92 1142.97 726.11
  C 1136.16 729.38 1126.46 728.64 1122.81 721.36
  Q 1121.49 718.72 1121.52 712.94
  Q 1121.56 703.22 1121.47 693.52
  Q 1121.46 692.90 1120.84 692.90
  Z"
/>
<path fill="#6d5845" d="
  M 215.04 713.96
  L 209.48 727.82
  A 0.34 0.34 0.0 0 1 209.16 728.03
  L 200.13 728.02
  A 0.34 0.34 0.0 0 1 199.82 727.55
  L 226.80 661.16
  A 0.34 0.34 0.0 0 1 227.12 660.95
  L 235.11 660.94
  A 0.34 0.34 0.0 0 1 235.43 661.15
  L 262.47 727.56
  A 0.34 0.34 0.0 0 1 262.15 728.03
  L 252.92 728.03
  A 0.34 0.34 0.0 0 1 252.60 727.82
  L 246.95 713.96
  A 0.34 0.34 0.0 0 0 246.63 713.75
  L 215.36 713.75
  A 0.34 0.34 0.0 0 0 215.04 713.96
  Z
  M 219.14 704.01
  A 0.34 0.34 0.0 0 0 219.45 704.48
  L 242.57 704.48
  A 0.34 0.34 0.0 0 0 242.88 704.01
  L 231.33 675.50
  A 0.34 0.34 0.0 0 0 230.69 675.50
  L 219.14 704.01
  Z"
/>
<path fill="#6d5845" d="
  M 890.12 686.41
  C 902.21 680.94 919.63 684.66 919.73 700.74
  Q 919.81 714.13 919.77 727.50
  Q 919.76 728.03 919.23 728.03
  L 911.48 728.02
  Q 910.88 728.02 910.89 727.43
  Q 910.91 715.07 911.07 702.74
  Q 911.19 693.44 901.75 693.03
  C 896.05 692.79 889.61 693.67 889.57 701.00
  Q 889.50 714.25 889.49 727.52
  Q 889.49 728.03 888.98 728.03
  L 881.05 728.03
  Q 880.57 728.03 880.57 727.55
  L 880.57 661.43
  Q 880.57 660.94 881.07 660.94
  L 888.97 660.93
  Q 889.50 660.93 889.50 661.46
  L 889.50 686.02
  Q 889.50 686.69 890.12 686.41
  Z"
/>
<circle fill="#6d5845" cx="1158.18" cy="666.74" r="5.88"/>
<circle fill="#6d5845" cx="1379.35" cy="666.74" r="5.87"/>
<path fill="#6d5845" d="
  M 436.49 688.20
  L 436.50 684.49
  Q 436.50 683.98 437.01 683.98
  L 445.01 683.97
  Q 445.55 683.97 445.55 684.51
  L 445.55 727.36
  Q 445.55 728.03 444.89 728.03
  L 437.13 728.03
  Q 436.48 728.03 436.49 727.38
  L 436.49 724.55
  Q 436.49 723.82 435.96 724.32
  C 426.26 733.40 411.20 729.07 404.66 718.57
  C 398.59 708.82 400.45 695.60 409.40 688.26
  C 417.09 681.96 428.49 681.20 435.99 688.41
  Q 436.49 688.89 436.49 688.20
  Z
  M 423.7462 720.0746
  A 13.83 13.17 88.4 0 0 436.5249 705.8823
  A 13.83 13.17 88.4 0 0 422.9738 692.4254
  A 13.83 13.17 88.4 0 0 410.1951 706.6177
  A 13.83 13.17 88.4 0 0 423.7462 720.0746
  Z"
/>
<path fill="#6d5845" d="
  M 627.15 724.32
  Q 616.86 732.82 604.76 726.91
  C 590.29 719.84 587.87 699.47 599.76 689.04
  C 607.88 681.92 618.59 681.01 627.06 688.23
  Q 627.58 688.67 627.58 687.99
  L 627.59 684.57
  Q 627.59 683.99 628.18 683.99
  L 636.08 683.96
  Q 636.69 683.96 636.69 684.58
  L 636.69 727.54
  Q 636.69 728.03 636.21 728.03
  L 628.04 728.03
  Q 627.56 728.03 627.56 727.54
  L 627.57 724.52
  Q 627.57 723.98 627.15 724.32
  Z
  M 614.8644 720.0732
  A 13.83 13.17 88.2 0 0 627.5935 705.8363
  A 13.83 13.17 88.2 0 0 613.9956 692.4268
  A 13.83 13.17 88.2 0 0 601.2665 706.6637
  A 13.83 13.17 88.2 0 0 614.8644 720.0732
  Z"
/>
<path fill="#6d5845" d="
  M 824.51 724.32
  C 813.07 734.37 795.69 727.81 791.02 714.36
  C 786.65 701.76 792.55 688.37 805.67 684.28
  C 812.65 682.11 819.27 683.39 824.46 688.41
  Q 824.97 688.90 824.98 688.20
  L 825.02 684.47
  Q 825.02 683.97 825.53 683.97
  L 833.55 683.98
  Q 834.12 683.98 834.12 684.55
  L 834.13 727.32
  Q 834.13 728.02 833.43 728.02
  L 825.52 728.03
  Q 825.01 728.03 825.01 727.52
  L 824.98 724.53
  Q 824.98 723.92 824.51 724.32
  Z
  M 812.2744 720.0832
  A 13.83 13.18 88.2 0 0 825.0135 705.8460
  A 13.83 13.18 88.2 0 0 811.4056 692.4368
  A 13.83 13.18 88.2 0 0 798.6665 706.6740
  A 13.83 13.18 88.2 0 0 812.2744 720.0832
  Z"
/>
<path fill="#6d5845" d="
  M 938.87 709.78
  C 941.47 721.18 955.27 724.38 960.90 713.04
  A 0.65 0.64 -64.6 0 1 961.75 712.73
  L 968.79 715.95
  Q 969.58 716.31 969.16 717.06
  C 963.58 726.99 953.12 732.26 942.44 727.42
  C 924.54 719.31 925.16 692.41 943.04 684.77
  C 959.10 677.90 972.58 693.26 971.44 708.62
  Q 971.41 709.06 970.97 709.06
  L 939.45 709.06
  Q 938.71 709.06 938.87 709.78
  Z
  M 961.08 700.04
  C 956.92 689.92 943.95 689.70 939.92 700.07
  Q 939.74 700.53 940.24 700.53
  L 960.75 700.53
  Q 961.28 700.53 961.08 700.04
  Z"
/>
<path fill="#6d5845" d="
  M 1097.27 724.30
  C 1084.47 735.22 1065.63 726.51 1062.78 711.04
  C 1060.21 697.09 1068.91 684.52 1083.48 683.19
  Q 1090.99 682.50 1097.15 688.48
  A 0.34 0.34 0.0 0 0 1097.73 688.24
  L 1097.73 684.50
  Q 1097.74 683.99 1098.25 683.99
  L 1106.24 683.96
  Q 1106.78 683.96 1106.78 684.49
  L 1106.78 727.50
  Q 1106.78 728.03 1106.25 728.03
  L 1098.25 728.03
  Q 1097.73 728.03 1097.73 727.50
  L 1097.73 724.52
  Q 1097.73 723.91 1097.27 724.30
  Z
  M 1084.8720 720.0853
  A 13.83 13.17 88.5 0 0 1097.6755 705.9152
  A 13.83 13.17 88.5 0 0 1084.1480 692.4347
  A 13.83 13.17 88.5 0 0 1071.3445 706.6048
  A 13.83 13.17 88.5 0 0 1084.8720 720.0853
  Z"
/>
<path fill="#6d5845" d="
  M 1206.88 698.03
  C 1199.46 688.15 1185.47 692.14 1183.23 703.51
  C 1182.04 709.52 1184.92 715.50 1190.32 718.47
  Q 1199.32 723.41 1207.03 714.42
  Q 1207.41 713.97 1207.91 714.30
  L 1214.39 718.61
  Q 1214.78 718.86 1214.51 719.24
  Q 1206.50 730.71 1193.25 729.03
  C 1176.06 726.85 1168.90 706.31 1178.33 692.74
  C 1187.31 679.82 1205.44 680.40 1214.46 692.95
  A 0.58 0.57 -34.6 0 1 1214.31 693.76
  L 1207.62 698.16
  Q 1207.19 698.44 1206.88 698.03
  Z"
/>
<path fill="#6d5845" d="
  M 1356.67 698.04
  C 1351.20 690.49 1341.23 690.49 1335.71 697.78
  C 1325.00 711.90 1345.74 729.66 1356.82 714.33
  Q 1357.13 713.89 1357.58 714.19
  L 1364.21 718.58
  Q 1364.72 718.93 1364.35 719.43
  C 1356.25 730.35 1342.42 732.49 1331.97 723.93
  C 1318.41 712.80 1322.46 689.28 1339.80 684.35
  Q 1354.41 680.19 1364.33 692.92
  A 0.54 0.53 54.9 0 1 1364.20 693.69
  L 1357.43 698.18
  A 0.56 0.56 0.0 0 1 1356.67 698.04
  Z"
/>
<path fill="#6d5845" d="
  M 1403.58 709.65
  C 1406.25 721.11 1420.00 724.52 1425.67 713.02
  Q 1425.93 712.48 1426.48 712.73
  L 1433.73 716.01
  Q 1434.17 716.21 1433.95 716.65
  C 1426.18 732.68 1404.54 733.75 1396.74 717.20
  Q 1390.99 705.00 1397.43 694.01
  C 1405.40 680.41 1422.86 679.50 1431.99 692.30
  Q 1436.88 699.16 1436.17 708.64
  Q 1436.14 709.06 1435.72 709.06
  L 1404.05 709.06
  Q 1403.44 709.06 1403.58 709.65
  Z
  M 1426.08 700.03
  C 1421.14 690.35 1409.15 689.32 1404.58 699.94
  Q 1404.32 700.54 1404.97 700.54
  L 1425.77 700.53
  Q 1426.33 700.53 1426.08 700.03
  Z"
/>
<path fill="#6d5845" d="
  M 1529.55 698.00
  C 1516.70 680.92 1494.87 705.52 1511.72 717.61
  Q 1520.94 724.23 1529.83 714.41
  Q 1530.18 714.02 1530.62 714.31
  L 1537.13 718.60
  Q 1537.50 718.85 1537.24 719.22
  C 1522.21 740.59 1490.73 724.38 1497.57 699.80
  C 1502.74 681.22 1525.44 677.72 1537.18 692.91
  Q 1537.55 693.39 1537.05 693.72
  L 1530.37 698.14
  Q 1529.89 698.46 1529.55 698.00
  Z"
/>
<path fill="#6d5845" d="
  M 1552.76 709.64
  C 1555.48 720.93 1569.28 724.69 1574.82 713.09
  A 0.69 0.69 0.0 0 1 1575.73 712.76
  L 1582.99 716.06
  A 0.47 0.47 0.0 0 1 1583.21 716.68
  C 1578.52 726.41 1567.66 731.95 1557.33 727.92
  C 1543.97 722.70 1539.52 705.47 1546.70 693.76
  C 1552.65 684.06 1564.59 679.87 1574.65 686.19
  C 1582.40 691.07 1586.08 699.39 1585.43 708.47
  Q 1585.39 709.06 1584.80 709.06
  L 1553.22 709.06
  Q 1552.62 709.06 1552.76 709.64
  Z
  M 1575.08 700.05
  C 1570.94 689.75 1558.12 689.85 1553.78 700.19
  Q 1553.64 700.53 1554.01 700.53
  L 1574.75 700.53
  A 0.35 0.35 0.0 0 0 1575.08 700.05
  Z"
/>
<path fill="#6d5845" d="
  M 280.12 687.27
  Q 289.65 680.64 299.98 686.23
  Q 300.45 686.48 300.33 687.01
  L 298.51 695.25
  Q 298.35 695.95 297.76 695.55
  Q 294.09 693.11 290.78 692.91
  C 282.63 692.42 279.76 697.87 279.68 705.25
  Q 279.56 716.37 279.52 727.50
  Q 279.52 728.03 278.99 728.03
  L 271.24 728.03
  Q 270.70 728.03 270.70 727.49
  L 270.70 685.27
  Q 270.70 684.75 271.23 684.75
  L 279.03 684.75
  Q 279.57 684.75 279.57 685.28
  L 279.56 686.97
  Q 279.55 687.67 280.12 687.27
  Z"
/>
<path fill="#6d5845" d="
  M 521.58 686.48
  Q 534.65 680.39 546.22 688.62
  Q 546.63 688.92 547.05 688.63
  Q 557.41 681.53 569.06 684.88
  C 577.84 687.40 581.26 693.04 581.27 701.79
  Q 581.28 714.65 581.26 727.50
  Q 581.26 728.03 580.74 728.03
  L 572.80 728.03
  Q 572.36 728.03 572.36 727.58
  Q 572.42 714.40 572.33 701.27
  Q 572.32 698.41 571.43 696.92
  C 568.04 691.25 554.17 691.51 551.76 697.64
  Q 551.21 699.03 551.20 701.92
  Q 551.17 714.74 551.19 727.55
  Q 551.19 728.03 550.71 728.03
  L 542.77 728.03
  Q 542.26 728.03 542.26 727.52
  Q 542.22 715.57 542.26 703.65
  Q 542.27 699.16 541.46 697.45
  C 539.15 692.56 531.96 692.44 527.37 693.34
  C 521.63 694.46 521.04 698.26 521.05 703.68
  Q 521.05 715.58 521.05 727.47
  Q 521.04 728.02 520.49 728.02
  L 512.50 728.03
  Q 511.98 728.03 511.98 727.50
  L 511.98 684.94
  Q 511.98 684.36 512.55 684.37
  L 520.62 684.39
  A 0.55 0.55 0.0 0 1 521.16 685.07
  L 520.94 685.96
  Q 520.73 686.88 521.58 686.48
  Z"
/>
<path fill="#6d5845" d="
  M 991.78 686.41
  Q 1004.95 680.37 1016.50 688.80
  Q 1016.86 689.06 1017.20 688.77
  C 1026.30 680.96 1046.72 682.14 1050.64 695.08
  Q 1051.40 697.58 1051.41 703.98
  Q 1051.43 715.78 1051.41 727.57
  Q 1051.41 728.03 1050.95 728.03
  L 1043.02 728.03
  Q 1042.49 728.03 1042.49 727.50
  Q 1042.52 714.81 1042.47 702.15
  Q 1042.46 698.77 1041.67 697.26
  C 1039.20 692.52 1031.18 692.27 1026.83 693.50
  C 1022.56 694.69 1021.27 697.82 1021.27 702.23
  Q 1021.29 714.88 1021.27 727.50
  Q 1021.26 728.03 1020.74 728.03
  L 1013.00 728.03
  Q 1012.39 728.03 1012.39 727.42
  Q 1012.38 715.66 1012.62 703.97
  Q 1012.85 693.14 1003.46 692.95
  C 996.96 692.82 991.19 693.70 991.19 701.51
  Q 991.20 714.54 991.19 727.54
  Q 991.19 728.03 990.70 728.03
  L 982.55 728.02
  Q 982.07 728.02 982.07 727.55
  L 982.07 684.91
  Q 982.07 684.39 982.59 684.39
  L 990.57 684.37
  Q 991.27 684.37 991.23 685.07
  L 991.18 686.00
  Q 991.14 686.70 991.78 686.41
  Z"
/>
<rect fill="#6d5845" x="1153.69" y="683.97" width="9.06" height="44.06" rx="0.34"/>
<rect fill="#6d5845" x="1374.87" y="683.97" width="8.90" height="44.06" rx="0.39"/>
<path fill="#6d5845" d="
  M 1456.59 686.42
  C 1466.20 682.07 1481.24 683.30 1485.06 694.65
  Q 1486.01 697.48 1486.02 704.44
  Q 1486.03 715.98 1486.01 727.50
  Q 1486.01 728.03 1485.48 728.03
  L 1477.55 728.03
  Q 1477.12 728.03 1477.12 727.59
  Q 1477.13 715.76 1477.12 703.98
  Q 1477.11 699.29 1476.41 697.62
  C 1474.27 692.58 1466.99 692.44 1462.31 693.31
  Q 1455.98 694.48 1455.97 701.00
  Q 1455.94 714.28 1455.91 727.57
  Q 1455.91 728.03 1455.45 728.03
  L 1447.29 728.03
  Q 1446.80 728.03 1446.80 727.54
  L 1446.80 684.95
  Q 1446.80 684.37 1447.38 684.37
  L 1455.19 684.38
  Q 1455.75 684.38 1455.82 684.94
  L 1455.97 686.07
  Q 1456.04 686.67 1456.59 686.42
  Z"
/>
<rect fill="#6d5845" x="305.25" y="699.97" width="32.50" height="9.08" rx="0.33"/>
<path fill="#6d5845" d="
  M 1227.85 727.89
  C 1223.51 725.54 1223.29 719.28 1227.57 717.25
  C 1233.83 714.29 1237.78 720.98 1236.04 726.57
  Q 1233.45 734.90 1224.90 740.45
  Q 1224.50 740.71 1224.21 740.32
  L 1222.48 737.96
  A 0.56 0.55 -37.0 0 1 1222.59 737.20
  Q 1226.74 733.89 1228.23 728.80
  Q 1228.40 728.19 1227.85 727.89
  Z"
/>
<path fill="#6d5845" d="
  M 1599.33 728.04
  C 1588.66 720.64 1605.17 710.05 1607.67 721.85
  C 1609.13 728.74 1602.14 736.65 1596.44 740.41
  Q 1596.02 740.69 1595.71 740.28
  L 1593.94 737.99
  A 0.56 0.55 51.8 0 1 1594.03 737.22
  Q 1598.08 733.95 1599.66 729.00
  A 0.86 0.85 26.2 0 0 1599.33 728.04
  Z"
/>
<path fill="#6d5845" d="
  M 701.90 816.51
  C 699.44 812.14 693.92 811.51 688.49 810.35
  C 677.50 807.99 665.94 801.75 668.79 788.26
  C 671.41 775.79 684.41 770.46 696.25 773.26
  Q 705.29 775.39 710.22 783.95
  Q 710.48 784.39 710.03 784.62
  L 702.93 788.16
  Q 702.43 788.41 702.10 787.95
  Q 696.13 779.59 685.83 782.24
  C 680.66 783.57 675.76 788.83 677.84 794.39
  C 679.82 799.65 692.39 802.00 697.25 802.98
  C 711.46 805.83 716.78 822.77 707.67 833.54
  Q 703.25 838.78 695.44 840.60
  Q 679.20 844.38 668.43 829.60
  Q 667.70 828.60 667.29 826.88
  Q 667.15 826.28 667.71 826.02
  L 674.58 822.84
  Q 675.09 822.60 675.38 823.09
  C 680.07 831.00 687.13 834.59 696.02 830.98
  C 701.69 828.68 705.11 822.22 701.90 816.51
  Z"
/>
<path fill="#6d5845" d="
  M 624.78 800.72
  L 624.78 773.74
  Q 624.78 773.25 625.26 773.25
  L 633.24 773.25
  Q 633.72 773.25 633.72 773.74
  L 633.72 840.02
  Q 633.72 840.52 633.23 840.52
  L 625.27 840.52
  Q 624.76 840.52 624.77 840.01
  L 624.78 837.25
  Q 624.79 836.62 624.28 836.99
  C 601.37 853.99 576.75 821.02 596.20 801.95
  C 603.81 794.49 616.18 793.16 624.31 800.92
  Q 624.78 801.37 624.78 800.72
  Z
  M 600.24 825.71
  C 606.95 837.09 622.91 833.30 624.62 820.72
  C 625.00 817.91 623.58 814.94 622.62 812.24
  Q 621.53 809.20 619.67 807.66
  C 607.86 797.93 592.98 813.41 600.24 825.71
  Z"
/>
<circle fill="#6d5845" cx="827.55" cy="779.15" r="5.88"/>
<rect fill="#6d5845" x="901.58" y="773.24" width="9.12" height="67.28" rx="0.35"/>
<path fill="#6d5845" d="
  M 977.5960 840.4595
  A 33.61 32.33 89.7 0 1 945.0904 807.0193
  A 33.61 32.33 89.7 0 1 977.2440 773.2405
  A 33.61 32.33 89.7 0 1 1009.7496 806.6807
  A 33.61 32.33 89.7 0 1 977.5960 840.4595
  Z
  M 977.2916 831.3797
  A 24.53 23.25 90.3 0 0 1000.6697 806.9717
  A 24.53 23.25 90.3 0 0 977.5484 782.3203
  A 24.53 23.25 90.3 0 0 954.1703 806.7283
  A 24.53 23.25 90.3 0 0 977.2916 831.3797
  Z"
/>
<rect fill="#6d5845" x="1020.75" y="773.24" width="8.92" height="67.28" rx="0.35"/>
<circle fill="#6d5845" cx="1238.26" cy="779.15" r="5.88"/>
<path fill="#6d5845" d="
  M 1345.30 800.73
  L 1345.31 773.72
  Q 1345.31 773.25 1345.78 773.25
  L 1353.74 773.25
  Q 1354.24 773.25 1354.24 773.74
  L 1354.24 840.01
  Q 1354.24 840.52 1353.74 840.52
  L 1345.78 840.52
  Q 1345.30 840.52 1345.30 840.03
  L 1345.30 836.75
  Q 1345.30 836.04 1344.80 836.54
  Q 1340.88 840.53 1335.00 841.29
  C 1313.28 844.09 1301.72 817.60 1315.95 802.71
  C 1323.69 794.61 1336.32 792.84 1344.82 800.94
  Q 1345.30 801.40 1345.30 800.73
  Z
  M 1344.79 817.40
  C 1343.70 814.06 1342.98 810.22 1340.33 807.93
  C 1333.25 801.82 1322.41 805.24 1319.60 813.84
  C 1315.86 825.25 1326.35 836.71 1338.06 830.99
  Q 1344.77 827.72 1344.89 820.09
  A 3.30 0.20 -88.6 0 0 1344.79 817.40
  Z"
/>
<path fill="#6d5845" d="
  M 516.45 800.74
  L 516.45 797.02
  Q 516.45 796.49 516.98 796.49
  L 525.00 796.49
  Q 525.51 796.49 525.51 797.00
  L 525.51 840.01
  Q 525.51 840.52 524.99 840.52
  L 516.99 840.52
  Q 516.45 840.52 516.45 839.99
  L 516.44 837.01
  Q 516.44 836.22 515.87 836.76
  C 510.09 842.20 501.61 842.75 494.63 839.81
  C 475.44 831.71 477.03 803.87 496.26 796.83
  Q 507.21 792.83 516.02 800.93
  Q 516.45 801.33 516.45 800.74
  Z
  M 503.7913 832.4998
  A 13.84 13.18 87.8 0 0 516.4303 818.1640
  A 13.84 13.18 87.8 0 0 502.7287 804.8402
  A 13.84 13.18 87.8 0 0 490.0897 819.1760
  A 13.84 13.18 87.8 0 0 503.7913 832.4998
  Z"
/>
<path fill="#6d5845" d="
  M 741.7901 841.5899
  A 22.94 22.27 89.8 0 1 719.4401 818.7277
  A 22.94 22.27 89.8 0 1 741.6299 795.7101
  A 22.94 22.27 89.8 0 1 763.9799 818.5723
  A 22.94 22.27 89.8 0 1 741.7901 841.5899
  Z
  M 741.6175 832.5198
  A 13.85 13.20 90.3 0 0 754.8898 818.7391
  A 13.85 13.20 90.3 0 0 741.7625 804.8202
  A 13.85 13.20 90.3 0 0 728.4902 818.6009
  A 13.85 13.20 90.3 0 0 741.6175 832.5198
  Z"
/>
<path fill="#6d5845" d="
  M 785.59 829.08
  C 791.77 834.56 800.04 833.42 805.03 826.72
  Q 805.32 826.33 805.73 826.60
  L 812.46 831.01
  A 0.66 0.65 -54.2 0 1 812.61 831.96
  C 802.61 844.50 785.90 844.94 776.35 832.39
  C 769.87 823.88 770.78 809.66 778.87 801.96
  C 789.15 792.18 803.87 794.17 812.51 805.34
  Q 812.87 805.80 812.38 806.13
  L 805.88 810.45
  Q 805.39 810.78 804.93 810.40
  C 804.41 809.98 803.94 809.05 803.52 808.68
  C 788.70 795.82 772.89 817.79 785.59 829.08
  Z"
/>
<path fill="#6d5845" d="
  M 878.37 836.79
  C 870.75 843.78 858.88 842.69 851.48 836.28
  C 838.34 824.93 841.90 803.46 858.14 797.19
  C 865.43 794.38 872.68 795.39 878.29 800.74
  Q 878.89 801.30 878.90 800.48
  L 878.96 797.01
  Q 878.97 796.49 879.49 796.49
  L 887.51 796.50
  Q 888.02 796.50 888.02 797.01
  L 888.03 839.99
  Q 888.03 840.51 887.51 840.51
  L 879.49 840.52
  A 0.54 0.53 89.4 0 1 878.96 839.99
  L 878.90 837.02
  Q 878.89 836.32 878.37 836.79
  Z
  M 866.1464 832.4946
  A 13.84 13.18 88.4 0 0 878.9349 818.2920
  A 13.84 13.18 88.4 0 0 865.3736 804.8254
  A 13.84 13.18 88.4 0 0 852.5851 819.0280
  A 13.84 13.18 88.4 0 0 866.1464 832.4946
  Z"
/>
<path fill="#6d5845" d="
  M 1186.75 836.78
  L 1186.75 859.75
  Q 1186.75 860.25 1186.25 860.25
  L 1178.21 860.25
  A 0.54 0.54 0.0 0 1 1177.67 859.71
  L 1177.67 797.27
  Q 1177.67 796.70 1178.24 796.70
  L 1186.23 796.70
  Q 1186.75 796.70 1186.75 797.23
  L 1186.74 800.28
  Q 1186.74 800.81 1187.17 800.49
  Q 1199.48 791.21 1212.12 799.41
  C 1219.90 804.45 1223.21 813.94 1221.62 823.03
  C 1218.86 838.78 1200.05 847.95 1187.20 836.58
  Q 1186.75 836.18 1186.75 836.78
  Z
  M 1199.5369 832.5552
  A 13.87 13.23 91.5 0 0 1213.1255 819.0363
  A 13.87 13.23 91.5 0 0 1200.2631 804.8248
  A 13.87 13.23 91.5 0 0 1186.6745 818.3437
  A 13.87 13.23 91.5 0 0 1199.5369 832.5552
  Z"
/>
<path fill="#6d5845" d="
  M 1289.14 836.82
  Q 1277.76 845.78 1265.21 838.48
  C 1251.46 830.48 1250.54 810.12 1262.84 800.56
  C 1270.98 794.24 1281.13 793.76 1289.10 800.68
  Q 1289.55 801.06 1289.55 800.47
  L 1289.54 796.98
  Q 1289.54 796.49 1290.02 796.49
  L 1298.27 796.50
  Q 1298.80 796.50 1298.80 797.03
  L 1298.80 839.98
  Q 1298.80 840.52 1298.27 840.52
  L 1290.15 840.52
  Q 1289.53 840.52 1289.53 839.90
  L 1289.53 837.01
  Q 1289.53 836.52 1289.14 836.82
  Z
  M 1276.8223 832.5053
  A 13.84 13.16 88.5 0 0 1289.6155 818.3255
  A 13.84 13.16 88.5 0 0 1276.0977 804.8347
  A 13.84 13.16 88.5 0 0 1263.3045 819.0145
  A 13.84 13.16 88.5 0 0 1276.8223 832.5053
  Z"
/>
<path fill="#6d5845" d="
  M 548.76 798.83
  C 558.17 794.54 572.37 795.60 576.84 806.07
  Q 578.35 809.61 578.30 819.12
  Q 578.25 829.55 578.30 839.97
  Q 578.30 840.52 577.75 840.52
  L 569.99 840.52
  Q 569.39 840.52 569.39 839.92
  Q 569.43 827.20 569.65 814.51
  Q 569.78 807.61 563.60 805.87
  C 559.80 804.80 552.20 804.95 549.54 808.71
  Q 548.24 810.55 548.23 814.58
  Q 548.20 827.31 548.21 840.01
  Q 548.21 840.52 547.70 840.52
  L 539.68 840.52
  Q 539.09 840.52 539.09 839.93
  L 539.09 797.18
  Q 539.09 796.70 539.57 796.70
  L 547.71 796.70
  Q 548.21 796.70 548.21 797.21
  L 548.22 798.48
  Q 548.22 799.08 548.76 798.83
  Z"
/>
<rect fill="#6d5845" x="822.96" y="796.50" width="9.06" height="44.02" rx="0.27"/>
<path fill="#6d5845" d="
  M 1062.47 828.26
  L 1076.30 796.69
  A 0.34 0.34 0.0 0 1 1076.61 796.49
  L 1085.79 796.49
  A 0.34 0.34 0.0 0 1 1086.10 796.97
  L 1058.49 860.05
  A 0.34 0.34 0.0 0 1 1058.18 860.25
  L 1048.98 860.25
  A 0.34 0.34 0.0 0 1 1048.67 859.77
  L 1057.20 840.47
  A 0.34 0.34 0.0 0 0 1057.20 840.19
  L 1038.20 796.96
  A 0.34 0.34 0.0 0 1 1038.51 796.48
  L 1048.16 796.50
  A 0.34 0.34 0.0 0 1 1048.47 796.71
  L 1061.84 828.25
  A 0.34 0.34 0.0 0 0 1062.47 828.26
  Z"
/>
<path fill="#6d5845" d="
  M 1104.24 798.92
  Q 1117.51 792.77 1129.17 801.20
  Q 1129.65 801.55 1130.10 801.16
  C 1138.82 793.57 1158.08 794.63 1162.76 806.14
  Q 1164.02 809.24 1164.03 816.52
  Q 1164.06 828.26 1164.02 839.99
  Q 1164.02 840.52 1163.49 840.52
  L 1155.75 840.52
  A 0.56 0.56 0.0 0 1 1155.19 839.96
  Q 1155.19 826.34 1155.15 812.75
  C 1155.13 803.79 1138.84 803.24 1135.11 809.14
  Q 1133.94 810.97 1133.95 814.59
  Q 1133.99 827.32 1133.95 840.02
  Q 1133.95 840.52 1133.45 840.52
  L 1125.53 840.52
  Q 1125.02 840.52 1125.02 840.01
  Q 1124.99 826.98 1125.05 814.00
  C 1125.09 805.15 1116.05 804.48 1109.47 805.91
  C 1103.53 807.20 1103.70 812.27 1103.67 817.97
  Q 1103.61 828.94 1103.65 839.92
  Q 1103.66 840.52 1103.05 840.52
  L 1095.25 840.52
  Q 1094.74 840.52 1094.74 840.00
  L 1094.74 797.23
  Q 1094.74 796.70 1095.27 796.70
  L 1103.07 796.70
  Q 1103.70 796.70 1103.68 797.32
  L 1103.64 798.52
  Q 1103.61 799.21 1104.24 798.92
  Z"
/>
<rect fill="#6d5845" x="1233.77" y="796.50" width="8.94" height="44.02" rx="0.35"/>
</svg>
