<?xml version="1.0" encoding="UTF-8" standalone="no"?>
<!DOCTYPE svg PUBLIC "-//W3C//DTD SVG 1.1//EN" "http://www.w3.org/Graphics/SVG/1.1/DTD/svg11.dtd">
<svg xmlns="http://www.w3.org/2000/svg" version="1.1" viewBox="0.00 0.00 1309.00 1186.00">
<g stroke-width="2.00" fill="none" stroke-linecap="butt">
<path stroke="#b38c4f" vector-effect="non-scaling-stroke" d="
  M 778.51 895.81
  Q 778.51 895.09 779.20 895.28
  L 971.21 948.30
  Q 973.08 948.82 972.11 947.14
  L 900.82 823.89
  A 2.70 2.70 0.0 0 0 898.67 822.55
  C 894.92 822.30 882.13 821.53 880.02 818.01
  Q 877.86 814.43 877.24 809.78
  Q 875.36 795.69 877.52 781.73
  C 879.62 768.16 891.85 755.19 901.15 746.15
  Q 914.59 733.08 938.92 714.21
  C 943.14 710.93 947.01 709.32 951.99 708.49
  Q 968.66 705.72 984.75 710.81
  C 990.44 712.61 997.31 716.25 997.00 723.25
  Q 996.04 744.77 993.48 765.90
  A 0.61 0.61 0.0 0 0 994.24 766.56
  L 1079.45 744.39
  Q 1079.85 744.29 1079.49 744.09
  L 957.21 673.58
  A 7.50 7.42 -28.2 0 0 953.91 672.60
  C 946.51 672.20 938.41 671.39 931.67 669.09
  C 914.85 663.35 900.63 649.67 897.47 631.71
  Q 896.75 627.61 897.64 624.81
  Q 898.87 620.92 902.22 619.15
  Q 912.24 613.85 923.31 615.55
  A 0.47 0.47 0.0 0 0 923.60 614.67
  Q 910.25 607.91 905.67 594.78
  C 902.23 584.92 903.57 570.87 908.19 561.48
  C 920.61 536.26 953.26 529.77 977.18 540.60
  C 989.40 546.14 999.15 556.37 1001.27 569.79
  Q 1001.80 573.15 1001.19 575.21
  C 998.45 584.39 978.78 585.86 971.02 586.45
  Q 970.15 586.52 970.95 586.86
  Q 979.14 590.33 986.46 595.38
  Q 986.88 595.67 987.24 595.31
  L 1069.34 514.45
  Q 1070.45 513.35 1068.88 513.36
  L 893.13 514.10
  Q 892.50 514.11 892.67 513.50
  L 946.22 319.45
  A 0.19 0.19 0.0 0 0 945.94 319.23
  L 793.20 407.58
  A 0.46 0.46 0.0 0 1 792.53 407.30
  L 742.12 213.28
  Q 741.84 212.22 741.30 213.17
  L 653.47 365.56
  A 0.44 0.43 -52.2 0 1 652.78 365.65
  L 511.74 222.44
  A 0.37 0.37 0.0 0 0 511.11 222.68
  C 510.64 235.07 511.46 249.89 511.47 259.82
  Q 511.55 329.37 511.47 399.02
  Q 511.47 399.52 510.99 399.39
  L 317.70 346.05
  A 0.48 0.48 0.0 0 0 317.16 346.76
  L 399.40 488.98
  Q 399.75 489.59 400.05 488.94
  C 402.29 484.00 405.55 481.63 411.12 480.66
  Q 428.37 477.63 446.75 480.94
  C 451.81 481.85 457.37 483.29 460.76 487.12
  C 464.01 490.79 465.74 495.99 467.49 500.50
  Q 470.92 509.33 476.56 533.74
  Q 483.96 565.79 489.24 601.20
  A 0.23 0.22 85.5 0 0 489.46 601.39
  Q 489.75 601.39 489.72 601.00
  C 489.18 594.58 489.91 586.46 490.01 581.92
  Q 490.73 550.22 494.81 513.75
  Q 495.87 504.20 497.84 496.99
  C 498.82 493.41 500.81 491.61 504.22 490.69
  Q 526.78 484.62 550.07 489.39
  Q 572.96 494.08 587.76 510.64
  C 595.34 519.13 597.96 532.13 597.60 543.00
  C 597.20 555.07 594.51 565.09 585.93 573.34
  Q 585.55 573.70 585.90 574.10
  C 591.03 580.03 600.10 589.13 602.23 596.29
  C 603.65 601.06 600.99 604.88 597.79 609.11
  Q 591.24 617.78 582.86 624.74
  C 578.43 628.43 574.89 629.77 569.68 627.09
  C 560.00 622.10 552.75 614.20 542.95 609.14
  A 1.58 1.58 0.0 0 0 540.64 610.50
  C 540.45 617.32 537.45 623.04 529.75 623.01
  Q 515.29 622.95 499.22 620.47
  C 489.81 619.02 490.21 613.86 489.54 605.99
  Q 489.53 605.83 489.48 605.78
  Q 489.41 605.69 489.43 606.01
  Q 490.01 615.65 479.96 615.88
  Q 462.52 616.26 449.23 614.92
  C 441.33 614.12 440.43 609.26 438.64 602.63
  C 437.54 598.52 436.35 587.59 431.51 586.92
  Q 424.89 586.00 420.41 585.56
  C 417.04 585.23 413.86 584.78 412.30 587.30
  Q 407.73 594.69 402.89 601.90
  C 400.35 605.69 398.61 608.19 393.75 608.01
  Q 380.94 607.56 368.46 604.65
  Q 359.73 602.61 361.01 593.75
  Q 362.62 582.55 367.03 568.70
  Q 377.73 535.13 392.37 503.67
  Q 392.84 502.67 391.77 502.94
  L 210.48 550.06
  A 0.31 0.30 -37.2 0 0 210.40 550.62
  L 363.16 638.66
  Q 363.58 638.90 363.23 639.24
  L 220.27 780.08
  Q 219.33 781.00 220.64 781.00
  Q 285.80 781.02 350.56 780.97
  C 353.36 780.97 356.37 780.57 359.36 780.46
  Q 359.86 780.45 359.91 779.94
  Q 361.36 764.83 362.51 760.26
  Q 370.33 728.94 399.59 715.74
  Q 414.32 709.09 431.13 704.70
  Q 433.29 704.14 434.53 702.00
  A 0.86 0.85 41.9 0 0 434.47 701.05
  C 431.77 697.56 425.98 695.54 421.94 697.99
  Q 421.44 698.30 421.33 698.88
  Q 419.12 710.47 406.23 708.70
  C 395.75 707.27 369.73 702.76 372.16 686.85
  Q 372.66 683.57 375.53 678.27
  Q 388.02 655.18 411.48 648.45
  C 422.30 645.35 435.41 645.11 446.26 648.01
  Q 481.46 657.42 489.43 693.78
  C 495.15 719.82 479.10 743.30 453.08 748.55
  C 446.88 749.80 442.75 750.77 438.12 752.90
  Q 435.42 754.14 438.39 754.33
  Q 452.02 755.20 465.47 756.76
  C 472.14 757.53 475.75 758.46 477.77 765.02
  Q 483.02 782.04 477.93 799.74
  C 476.53 804.62 473.49 807.22 468.23 807.06
  C 442.82 806.30 417.54 802.97 392.33 799.76
  Q 391.79 799.69 391.65 800.22
  L 343.71 973.97
  Q 343.29 975.50 344.66 974.71
  L 495.96 887.22
  A 0.86 0.85 67.4 0 1 497.22 887.74
  L 547.60 1081.55
  Q 547.79 1082.30 548.18 1081.63
  L 636.04 929.23
  A 0.41 0.41 0.0 0 1 636.68 929.14
  Q 654.29 946.24 671.61 963.90
  Q 703.48 996.40 735.30 1028.94
  Q 749.90 1043.87 764.74 1058.55
  C 768.42 1062.18 773.25 1067.97 778.09 1072.17
  Q 778.51 1072.53 778.51 1071.98
  L 778.51 895.81"
/>
<path stroke="#a06150" vector-effect="non-scaling-stroke" d="
  M 389.93 521.69
  Q 377.15 552.03 368.62 581.97
  Q 367.83 584.75 367.20 588.09
  C 366.65 591.06 365.30 594.96 366.42 597.90
  A 1.25 1.23 -88.3 0 0 367.04 598.57
  Q 369.90 599.93 373.00 600.52
  Q 382.06 602.23 391.26 602.97
  C 394.00 603.19 395.55 603.37 397.29 600.90
  Q 405.00 589.95 406.74 586.50
  Q 410.03 579.96 416.75 580.13
  Q 420.36 580.22 431.52 581.57
  Q 435.86 582.10 437.91 584.61
  C 442.98 590.85 442.22 601.28 446.32 608.57
  Q 446.57 609.01 447.06 609.14
  Q 448.54 609.55 450.03 609.72
  Q 464.97 611.47 479.99 610.93
  Q 482.30 610.85 484.07 609.43
  Q 484.47 609.10 484.48 608.58
  C 484.51 606.60 484.61 604.68 484.32 602.67
  Q 477.62 554.53 464.49 507.76
  C 463.26 503.39 461.44 499.16 459.67 494.99
  Q 456.86 488.34 449.77 486.70
  Q 433.81 483.02 417.49 484.79
  Q 411.89 485.40 407.95 486.92
  A 1.70 1.66 -83.1 0 0 407.15 487.56
  C 400.13 497.87 395.07 509.47 389.93 521.69"
/>
<path stroke="#a06150" vector-effect="non-scaling-stroke" d="
  M 578.07 572.38
  C 592.11 564.08 594.41 546.10 591.71 531.22
  C 586.85 504.45 556.17 492.70 532.31 492.39
  C 522.29 492.25 513.25 493.01 504.11 496.33
  A 1.36 1.35 3.6 0 0 503.39 496.96
  Q 502.05 499.49 501.58 502.35
  Q 498.42 521.69 497.02 541.25
  Q 494.86 571.38 494.51 601.59
  C 494.47 604.64 495.09 607.97 495.20 611.19
  Q 495.33 614.85 499.27 615.37
  Q 514.17 617.36 523.63 617.79
  C 527.35 617.97 530.23 618.38 533.75 616.69
  A 1.17 1.15 -4.2 0 0 534.38 615.97
  C 535.28 612.98 535.49 607.56 537.12 605.58
  C 542.80 598.70 562.43 615.96 567.02 619.74
  Q 569.87 622.08 575.18 623.42
  Q 575.67 623.54 576.10 623.28
  C 582.62 619.22 588.81 612.28 593.27 606.50
  C 596.07 602.88 599.36 599.64 596.22 595.04
  Q 591.73 588.47 585.52 581.42
  C 583.65 579.29 580.26 576.12 577.93 573.17
  Q 577.54 572.69 578.07 572.38"
/>
<path stroke="#a06150" vector-effect="non-scaling-stroke" d="
  M 953.49 620.30
  C 961.19 623.26 963.17 633.07 953.03 634.35
  Q 943.04 635.62 940.59 626.37
  A 1.82 1.77 -77.3 0 0 940.08 625.54
  C 933.84 619.96 920.23 619.64 912.50 620.87
  C 908.97 621.43 902.48 623.50 902.23 627.26
  Q 902.09 629.50 902.86 632.96
  C 904.98 642.47 911.13 650.43 918.99 656.52
  C 935.72 669.49 961.05 670.87 979.08 660.52
  C 995.50 651.10 1003.83 633.42 996.06 615.10
  C 989.68 600.06 971.93 591.20 956.49 587.47
  Q 950.35 585.99 945.23 582.37
  A 1.68 1.65 10.0 0 1 944.59 581.47
  Q 943.31 576.94 948.03 574.27
  C 953.94 570.92 962.02 570.86 964.00 578.63
  C 964.56 580.85 964.96 581.34 967.23 581.39
  Q 979.22 581.61 989.08 578.24
  C 994.00 576.56 997.60 575.13 996.08 569.27
  C 989.12 542.40 954.36 534.40 932.02 545.30
  Q 908.44 556.79 908.88 584.02
  C 909.08 595.79 915.71 604.46 925.49 610.08
  Q 928.79 611.98 936.49 614.35
  Q 944.25 616.74 953.49 620.30"
/>
<path stroke="#b38c4f" vector-effect="non-scaling-stroke" d="
  M 949.89 579.72
  L 958.83 582.97
  Q 959.28 583.13 959.33 582.66
  Q 959.70 579.32 957.43 577.86
  C 955.17 576.40 951.81 577.72 949.81 579.18
  Q 949.34 579.52 949.89 579.72"
/>
<path stroke="#b38c4f" vector-effect="non-scaling-stroke" d="
  M 944.86 622.38
  Q 944.35 622.17 944.61 622.66
  C 945.61 624.56 945.76 627.09 947.38 628.39
  Q 950.14 630.58 954.11 628.53
  A 1.27 1.27 0.0 0 0 954.02 626.24
  L 944.86 622.38"
/>
<path stroke="#a06150" vector-effect="non-scaling-stroke" d="
  M 422.07 757.32
  Q 432.26 748.15 445.84 745.04
  Q 456.68 742.55 459.54 741.56
  C 476.62 735.63 487.64 716.65 485.23 698.84
  C 483.88 688.83 479.59 678.36 473.03 670.39
  C 454.13 647.43 415.12 644.20 392.60 664.27
  C 386.77 669.46 382.03 676.60 378.37 683.67
  C 374.23 691.70 380.81 696.21 387.26 698.77
  Q 398.43 703.22 409.25 704.06
  Q 412.77 704.34 415.18 701.49
  A 1.42 1.40 68.2 0 0 415.51 700.70
  C 416.08 694.88 419.74 691.98 425.52 691.87
  C 431.12 691.76 438.69 694.90 439.58 701.11
  C 440.27 706.01 435.64 708.90 431.48 709.94
  Q 415.46 713.94 399.67 721.67
  Q 377.84 732.37 369.73 754.13
  C 366.52 762.77 365.29 773.91 364.61 783.51
  Q 364.42 786.19 365.56 789.29
  Q 365.74 789.78 366.24 789.92
  Q 371.74 791.42 379.00 792.55
  Q 420.96 799.07 460.25 801.93
  Q 463.87 802.20 470.22 801.98
  Q 470.71 801.97 471.05 801.61
  Q 472.68 799.86 473.34 797.51
  C 476.03 787.84 476.99 771.98 471.08 763.29
  Q 470.79 762.87 470.31 762.73
  Q 466.62 761.65 464.50 761.48
  Q 443.49 759.80 422.28 757.94
  A 0.36 0.36 0.0 0 1 422.07 757.32"
/>
<path stroke="#a06150" vector-effect="non-scaling-stroke" d="
  M 930.75 822.03
  Q 930.09 836.93 930.63 849.98
  Q 930.72 852.00 931.73 854.20
  Q 931.94 854.65 932.40 854.86
  C 942.59 859.40 956.31 859.97 967.02 859.40
  C 972.22 859.13 972.80 855.33 974.20 850.33
  Q 977.39 838.96 979.15 827.74
  A 1.63 1.63 0.0 0 1 980.97 826.37
  C 985.20 826.92 1001.08 828.65 1002.82 823.79
  Q 1008.26 808.62 1009.06 791.02
  C 1009.12 789.69 1008.69 788.39 1008.34 787.12
  Q 1008.19 786.58 1007.65 786.40
  Q 997.59 783.04 987.04 781.90
  Q 986.49 781.84 986.57 781.29
  Q 990.45 753.06 991.95 724.60
  C 992.04 722.83 991.73 720.54 990.49 719.49
  Q 987.29 716.77 981.49 715.10
  Q 967.06 710.95 952.24 713.57
  Q 947.16 714.47 944.05 716.80
  Q 928.32 728.59 908.78 746.26
  Q 895.49 758.29 886.89 771.32
  C 879.65 782.30 880.61 800.39 883.14 812.49
  Q 883.81 815.73 886.73 816.07
  Q 908.54 818.62 930.30 821.48
  Q 930.77 821.55 930.75 822.03"
/>
<path stroke="#b38c4f" vector-effect="non-scaling-stroke" d="
  M 716.57 605.54
  Q 716.39 616.30 716.51 627.25
  Q 716.63 637.71 718.24 641.77
  Q 719.37 644.59 721.96 645.19
  Q 739.38 649.25 759.08 648.19
  C 764.73 647.89 766.22 638.81 767.16 633.73
  Q 776.10 585.38 778.28 536.24
  Q 778.58 529.35 778.43 527.19
  C 777.96 520.63 773.39 519.54 767.29 517.87
  Q 751.73 513.62 735.49 514.53
  Q 729.27 514.88 726.33 516.81
  Q 721.91 519.72 714.10 528.11
  Q 708.61 534.01 693.88 551.37
  Q 693.51 551.81 693.24 551.30
  C 686.46 538.52 680.10 525.17 671.59 513.43
  C 668.21 508.76 664.56 506.93 659.24 505.50
  Q 642.60 501.00 625.78 502.23
  C 620.74 502.60 617.32 503.72 615.98 508.73
  Q 613.92 516.40 612.66 524.24
  Q 605.50 568.73 603.52 613.75
  C 603.33 618.07 602.84 629.51 607.96 631.16
  Q 623.44 636.16 642.27 636.52
  C 650.25 636.68 651.19 630.66 653.16 623.47
  Q 656.36 611.76 658.96 599.81
  Q 659.09 599.23 659.45 599.71
  Q 666.71 609.31 674.69 618.31
  C 681.88 626.41 685.73 627.64 694.74 621.47
  Q 705.77 613.90 716.01 605.27
  A 0.34 0.34 0.0 0 1 716.57 605.54"
/>
<path stroke="#b38c4f" vector-effect="non-scaling-stroke" d="
  M 849.17 651.22
  C 850.74 659.66 854.40 661.87 862.75 662.43
  Q 869.55 662.89 882.51 663.15
  Q 890.97 663.33 893.55 662.56
  Q 900.87 660.39 899.94 652.98
  Q 894.13 606.66 880.28 555.98
  Q 878.18 548.33 874.60 540.30
  C 872.27 535.07 869.03 531.20 863.77 529.71
  Q 842.63 523.72 819.47 528.33
  Q 814.65 529.29 812.53 532.29
  Q 807.14 539.96 801.45 552.57
  Q 787.56 583.31 777.38 615.47
  Q 773.86 626.58 771.55 638.00
  C 770.28 644.29 770.84 649.67 777.78 651.43
  Q 790.92 654.76 804.51 655.06
  Q 808.66 655.15 811.08 651.79
  Q 817.01 643.59 822.12 634.84
  Q 823.60 632.29 826.51 632.41
  Q 833.62 632.71 841.74 634.12
  C 843.03 634.34 844.52 635.21 844.98 636.31
  Q 847.50 642.24 849.17 651.22"
/>
<path stroke="#b38c4f" vector-effect="non-scaling-stroke" d="
  M 667.42 728.76
  C 665.49 705.64 653.71 682.97 632.12 672.99
  C 618.18 666.55 601.50 665.60 586.00 667.79
  C 565.94 670.64 554.31 681.26 545.30 698.72
  Q 534.28 720.09 533.12 744.27
  C 532.44 758.67 533.38 771.50 538.54 784.47
  Q 547.66 807.40 568.87 817.04
  C 583.10 823.51 601.53 824.96 616.99 822.44
  Q 638.24 818.98 650.24 800.70
  C 663.91 779.87 669.48 753.36 667.42 728.76"
/>
<path stroke="#b38c4f" vector-effect="non-scaling-stroke" d="
  M 780.77 793.18
  C 788.32 789.44 796.16 788.87 804.00 786.32
  C 825.54 779.32 837.93 757.84 834.17 735.68
  C 830.12 711.77 814.67 694.02 790.96 687.84
  C 767.02 681.60 739.67 688.28 725.13 709.41
  C 720.04 716.80 712.33 726.66 718.50 735.34
  C 724.78 744.18 744.48 748.53 754.74 748.55
  Q 762.61 748.56 764.69 741.23
  C 765.63 737.93 765.89 736.59 769.51 736.53
  Q 775.15 736.43 778.58 740.37
  A 1.00 0.98 -57.5 0 1 778.78 741.31
  Q 778.11 743.54 775.78 744.16
  C 760.10 748.29 742.35 754.31 729.91 763.72
  Q 714.62 775.30 708.48 793.89
  C 705.73 802.20 704.80 812.27 704.09 821.50
  C 703.14 833.91 707.61 834.55 718.27 836.30
  Q 760.13 843.19 802.43 846.32
  C 806.13 846.59 809.96 846.47 813.76 846.51
  C 818.77 846.56 821.23 843.21 822.39 838.68
  Q 826.76 821.70 822.56 805.47
  Q 820.48 797.43 812.52 796.50
  Q 796.76 794.66 780.91 793.84
  A 0.35 0.35 0.0 0 1 780.77 793.18"
/>
<path stroke="#a06150" vector-effect="non-scaling-stroke" d="
  M 437.04 536.72
  C 428.77 518.90 419.36 537.21 416.24 544.48
  Q 412.04 554.26 422.12 556.59
  Q 428.72 558.12 434.74 557.30
  C 445.96 555.77 440.45 544.06 437.04 536.72"
/>
<path stroke="#a06150" vector-effect="non-scaling-stroke" d="
  M 558.50 539.34
  C 557.72 529.68 547.32 525.67 538.76 527.30
  C 530.15 528.93 530.75 542.47 532.62 548.46
  Q 534.73 555.25 542.24 554.98
  C 550.87 554.68 559.24 548.45 558.50 539.34"
/>
<path stroke="#a06150" vector-effect="non-scaling-stroke" d="
  M 722.32 593.84
  Q 721.02 611.16 721.60 628.75
  Q 721.79 634.68 723.00 639.58
  Q 723.13 640.10 723.64 640.26
  Q 725.66 640.91 727.75 641.27
  Q 742.39 643.80 757.26 643.42
  Q 759.42 643.37 760.03 641.20
  Q 762.89 631.11 764.55 620.76
  Q 769.91 587.17 772.56 553.25
  Q 773.55 540.66 773.33 527.99
  Q 773.28 524.97 770.24 524.01
  Q 753.73 518.81 737.01 519.54
  C 734.19 519.67 730.22 520.30 728.29 521.79
  Q 722.39 526.34 713.76 536.23
  Q 703.38 548.12 693.10 560.23
  A 0.72 0.72 0.0 0 1 691.91 560.09
  C 684.51 545.45 677.01 530.16 667.58 516.64
  Q 664.80 512.65 660.10 511.17
  Q 643.52 505.94 626.15 507.09
  Q 624.15 507.22 622.30 508.01
  Q 621.83 508.21 621.63 508.68
  Q 619.99 512.49 619.50 515.24
  Q 611.10 561.77 608.56 608.99
  Q 608.15 616.65 609.10 624.24
  C 609.27 625.62 609.94 626.46 611.35 626.85
  Q 626.98 631.19 643.47 631.57
  A 1.94 1.94 0.0 0 0 645.27 630.46
  Q 647.55 625.61 649.02 620.02
  Q 653.20 604.09 656.10 587.73
  A 0.45 0.44 -57.6 0 1 656.90 587.55
  Q 665.91 600.30 676.15 612.34
  Q 679.91 616.76 684.58 620.34
  Q 685.00 620.66 685.50 620.50
  Q 688.59 619.47 691.30 617.59
  Q 707.19 606.53 721.79 593.58
  A 0.32 0.32 0.0 0 1 722.32 593.84"
/>
<path stroke="#a06150" vector-effect="non-scaling-stroke" d="
  M 809.04 548.72
  C 797.01 573.98 787.10 600.39 779.38 627.28
  Q 777.05 635.40 775.99 642.49
  C 775.74 644.14 776.32 645.32 777.94 645.99
  C 783.99 648.50 791.76 649.00 801.02 650.02
  C 806.78 650.65 807.19 648.43 810.40 643.64
  Q 814.22 637.93 817.87 632.12
  C 819.90 628.88 822.61 627.32 826.25 627.40
  Q 833.35 627.55 842.04 628.98
  C 845.43 629.54 848.19 630.96 849.53 633.99
  Q 852.56 640.84 853.94 650.26
  C 854.15 651.75 856.19 656.76 858.75 656.99
  Q 871.14 658.08 883.56 658.41
  C 886.10 658.47 888.69 658.01 891.27 657.75
  Q 895.34 657.35 894.78 653.28
  Q 888.98 610.56 878.44 568.76
  C 876.53 561.20 873.49 549.28 869.06 540.75
  C 867.15 537.07 864.35 534.99 860.50 534.04
  Q 841.80 529.42 822.17 532.76
  Q 818.11 533.45 816.65 535.45
  Q 812.95 540.53 809.04 548.72"
/>
<path stroke="#b38c4f" vector-effect="non-scaling-stroke" d="
  M 547.55 532.93
  Q 544.02 531.69 540.25 532.17
  C 534.53 532.90 536.70 545.07 538.11 548.28
  A 2.71 2.70 82.0 0 0 540.24 549.89
  Q 545.81 550.63 549.76 547.24
  C 555.12 542.64 555.08 535.58 547.55 532.93"
/>
<path stroke="#b38c4f" vector-effect="non-scaling-stroke" d="
  M 428.07 535.00
  C 425.04 538.55 421.29 544.33 420.05 549.08
  Q 419.92 549.60 420.25 550.01
  C 422.42 552.68 434.43 553.82 436.41 550.84
  A 1.12 1.07 56.0 0 0 436.56 549.98
  Q 434.58 542.00 430.10 535.13
  A 1.27 1.27 0.0 0 0 428.07 535.00"
/>
<path stroke="#a06150" vector-effect="non-scaling-stroke" d="
  M 851.45 596.62
  C 850.72 591.29 846.04 576.58 839.42 576.25
  C 833.79 575.97 828.02 587.97 826.18 592.23
  C 820.89 604.53 836.19 604.78 843.76 604.41
  C 848.37 604.19 852.14 601.64 851.45 596.62"
/>
<path stroke="#a06150" vector-effect="non-scaling-stroke" d="
  M 1011.58 630.19
  C 1016.48 654.76 1034.89 673.09 1058.77 679.34
  C 1099.02 689.87 1134.46 660.38 1137.29 620.19
  C 1139.86 583.67 1109.21 558.90 1075.24 556.50
  C 1037.00 553.80 1004.17 592.94 1011.58 630.19"
/>
<path stroke="#a06150" vector-effect="non-scaling-stroke" d="
  M 1093.2306 617.5987
  A 19.32 19.09 -4.1 0 0 1072.5951 599.9389
  A 19.32 19.09 -4.1 0 0 1054.6894 620.3613
  A 19.32 19.09 -4.1 0 0 1075.3249 638.0211
  A 19.32 19.09 -4.1 0 0 1093.2306 617.5987"
/>
<path stroke="#b38c4f" vector-effect="non-scaling-stroke" d="
  M 846.33 595.94
  C 844.73 590.75 843.04 585.82 839.89 582.03
  Q 839.01 580.97 838.16 582.06
  Q 833.26 588.38 830.48 594.98
  Q 829.49 597.34 831.64 598.17
  Q 837.70 600.48 844.73 599.09
  Q 847.15 598.61 846.33 595.94"
/>
<path stroke="#a06150" vector-effect="non-scaling-stroke" d="
  M 557.46 689.21
  C 542.22 709.16 536.31 735.90 538.17 760.61
  C 540.16 787.25 555.23 810.08 582.24 816.30
  Q 595.52 819.35 610.24 818.20
  Q 634.06 816.34 646.58 796.85
  C 663.65 770.28 669.56 728.67 653.83 700.48
  Q 648.53 690.97 641.45 684.93
  C 625.64 671.43 601.56 669.44 581.75 673.78
  Q 566.74 677.06 557.46 689.21"
/>
<path stroke="#a06150" vector-effect="non-scaling-stroke" d="
  M 615.96 763.21
  C 624.41 751.50 625.70 726.75 608.05 721.26
  C 604.72 720.22 598.50 720.18 595.49 720.58
  Q 588.02 721.58 583.56 728.86
  C 578.09 737.78 576.96 751.97 582.37 760.82
  C 588.89 771.49 608.28 773.85 615.96 763.21"
/>
<path stroke="#a06150" vector-effect="non-scaling-stroke" d="
  M 767.01 797.52
  Q 765.62 797.40 766.69 796.50
  C 776.03 788.59 784.59 785.54 796.23 783.15
  Q 816.44 779.02 825.49 761.46
  C 830.51 751.73 830.93 742.18 828.08 731.73
  Q 820.99 705.79 798.44 695.80
  C 779.17 687.26 757.20 689.09 739.98 701.38
  Q 734.83 705.06 730.58 710.66
  C 726.56 715.95 722.09 722.19 721.03 728.83
  A 1.70 1.69 37.1 0 0 721.17 729.81
  C 725.36 738.49 739.95 741.67 748.26 742.97
  Q 753.16 743.74 754.79 743.60
  C 760.98 743.06 758.87 738.64 761.58 735.22
  C 765.40 730.38 771.73 730.69 776.93 732.69
  C 781.23 734.34 785.27 739.10 783.45 743.92
  C 781.75 748.45 774.54 749.87 770.26 751.04
  C 755.59 755.07 737.11 762.32 726.55 773.59
  Q 719.60 781.01 715.39 790.27
  C 710.65 800.70 709.28 813.85 708.93 825.74
  C 708.86 827.94 709.47 829.32 711.80 829.85
  Q 718.65 831.41 723.50 832.17
  Q 762.20 838.26 801.25 841.24
  Q 807.81 841.75 814.41 841.44
  Q 814.92 841.41 815.27 841.06
  Q 816.91 839.47 817.52 837.26
  Q 821.74 822.06 817.51 807.01
  C 816.59 803.77 814.87 801.68 811.52 801.38
  Q 788.92 799.37 767.01 797.52"
/>
<path stroke="#a06150" vector-effect="non-scaling-stroke" d="
  M 930.22 782.48
  C 930.04 788.38 944.39 788.57 948.22 788.45
  Q 948.70 788.43 949.08 788.14
  C 952.49 785.54 951.82 774.65 951.35 770.15
  C 950.35 760.50 930.39 777.31 930.22 782.48"
/>
<path stroke="#b38c4f" vector-effect="non-scaling-stroke" d="
  M 585.91 735.68
  C 582.31 746.17 582.30 761.24 595.92 764.37
  C 608.71 767.31 614.07 759.73 616.46 748.99
  C 618.82 738.36 614.14 725.89 601.94 725.32
  C 593.90 724.95 588.55 727.99 585.91 735.68"
/>
<path stroke="#b38c4f" vector-effect="non-scaling-stroke" d="
  M 936.60 780.67
  A 0.42 0.42 0.0 0 0 936.97 781.40
  L 946.05 779.14
  A 0.42 0.42 0.0 0 0 946.36 778.80
  L 947.14 773.84
  A 0.42 0.42 0.0 0 0 946.59 773.38
  L 944.65 774.05
  A 0.42 0.42 0.0 0 0 944.52 774.12
  L 936.60 780.67"
/>
</g>
<path fill="#6d5845" d="
  M 781.49 899.64
  L 781.49 1079.01
  A 0.50 0.50 0.0 0 1 780.63 1079.36
  L 637.75 934.30
  Q 637.11 933.65 636.66 934.44
  L 547.18 1089.67
  A 0.39 0.39 0.0 0 1 546.47 1089.57
  L 495.17 892.17
  A 0.58 0.58 0.0 0 0 494.32 891.81
  L 339.32 981.44
  A 0.51 0.51 0.0 0 1 338.58 980.87
  L 388.33 800.63
  Q 388.78 799.00 387.10 798.83
  Q 376.12 797.68 364.76 794.70
  C 359.70 793.38 359.92 787.96 359.42 784.00
  Q 359.36 783.54 358.89 783.51
  C 356.71 783.38 354.64 783.98 352.70 783.99
  Q 282.75 784.05 212.81 783.98
  Q 211.86 783.98 212.54 783.31
  L 357.87 640.10
  A 0.58 0.57 37.7 0 0 357.75 639.19
  L 202.54 549.72
  A 0.44 0.44 0.0 0 1 202.65 548.91
  L 394.03 499.17
  Q 394.42 499.06 394.62 498.70
  L 397.62 493.06
  Q 397.85 492.62 397.60 492.19
  L 310.45 341.46
  A 0.35 0.35 0.0 0 1 310.85 340.95
  L 508.07 395.38
  Q 508.64 395.54 508.64 394.94
  L 508.18 215.24
  A 0.37 0.36 -67.5 0 1 508.80 214.98
  L 652.00 360.39
  Q 652.50 360.90 652.86 360.28
  L 742.37 204.95
  A 0.43 0.43 0.0 0 1 743.16 205.05
  L 794.46 402.47
  Q 794.63 403.12 795.22 402.78
  L 950.44 313.00
  A 0.43 0.43 0.0 0 1 951.07 313.48
  L 896.82 510.06
  A 0.70 0.70 0.0 0 0 897.50 510.94
  Q 936.17 510.97 974.50 510.97
  Q 974.88 510.97 975.14 510.74
  Q 975.41 510.50 975.78 510.50
  L 1076.52 510.50
  A 0.55 0.55 0.0 0 1 1076.91 511.44
  L 989.81 597.22
  A 0.60 0.59 46.4 0 0 989.79 598.04
  C 994.24 602.82 998.39 606.96 1000.94 613.41
  Q 1003.53 619.95 1003.82 627.35
  C 1004.79 651.68 984.64 668.73 961.78 671.78
  A 0.39 0.39 0.0 0 0 961.64 672.50
  L 1086.67 744.57
  Q 1088.06 745.37 1086.50 745.77
  L 993.58 769.92
  Q 993.00 770.07 992.94 770.66
  L 992.33 776.99
  Q 992.27 777.65 992.93 777.74
  Q 999.81 778.68 1006.52 780.53
  C 1015.02 782.87 1014.34 788.98 1013.61 796.86
  C 1012.66 807.22 1010.88 819.32 1006.00 828.53
  Q 1004.89 830.60 1002.28 831.10
  Q 993.17 832.83 984.01 831.58
  Q 983.47 831.51 983.38 832.04
  Q 980.72 848.39 977.31 857.54
  C 974.81 864.23 969.18 864.41 962.23 864.55
  Q 947.96 864.84 933.77 861.00
  Q 928.48 859.57 926.38 855.03
  C 925.83 853.84 926.23 852.26 925.79 850.91
  Q 925.46 849.90 925.46 849.28
  Q 925.53 837.88 925.50 826.50
  Q 925.50 825.92 924.93 825.85
  L 905.30 823.37
  Q 904.07 823.21 904.69 824.29
  L 978.93 952.64
  A 0.57 0.57 0.0 0 1 978.29 953.47
  L 781.99 899.26
  Q 781.49 899.12 781.49 899.64
  Z
  M 778.51 895.81
  Q 778.51 895.09 779.20 895.28
  L 971.21 948.30
  Q 973.08 948.82 972.11 947.14
  L 900.82 823.89
  A 2.70 2.70 0.0 0 0 898.67 822.55
  C 894.92 822.30 882.13 821.53 880.02 818.01
  Q 877.86 814.43 877.24 809.78
  Q 875.36 795.69 877.52 781.73
  C 879.62 768.16 891.85 755.19 901.15 746.15
  Q 914.59 733.08 938.92 714.21
  C 943.14 710.93 947.01 709.32 951.99 708.49
  Q 968.66 705.72 984.75 710.81
  C 990.44 712.61 997.31 716.25 997.00 723.25
  Q 996.04 744.77 993.48 765.90
  A 0.61 0.61 0.0 0 0 994.24 766.56
  L 1079.45 744.39
  Q 1079.85 744.29 1079.49 744.09
  L 957.21 673.58
  A 7.50 7.42 -28.2 0 0 953.91 672.60
  C 946.51 672.20 938.41 671.39 931.67 669.09
  C 914.85 663.35 900.63 649.67 897.47 631.71
  Q 896.75 627.61 897.64 624.81
  Q 898.87 620.92 902.22 619.15
  Q 912.24 613.85 923.31 615.55
  A 0.47 0.47 0.0 0 0 923.60 614.67
  Q 910.25 607.91 905.67 594.78
  C 902.23 584.92 903.57 570.87 908.19 561.48
  C 920.61 536.26 953.26 529.77 977.18 540.60
  C 989.40 546.14 999.15 556.37 1001.27 569.79
  Q 1001.80 573.15 1001.19 575.21
  C 998.45 584.39 978.78 585.86 971.02 586.45
  Q 970.15 586.52 970.95 586.86
  Q 979.14 590.33 986.46 595.38
  Q 986.88 595.67 987.24 595.31
  L 1069.34 514.45
  Q 1070.45 513.35 1068.88 513.36
  L 893.13 514.10
  Q 892.50 514.11 892.67 513.50
  L 946.22 319.45
  A 0.19 0.19 0.0 0 0 945.94 319.23
  L 793.20 407.58
  A 0.46 0.46 0.0 0 1 792.53 407.30
  L 742.12 213.28
  Q 741.84 212.22 741.30 213.17
  L 653.47 365.56
  A 0.44 0.43 -52.2 0 1 652.78 365.65
  L 511.74 222.44
  A 0.37 0.37 0.0 0 0 511.11 222.68
  C 510.64 235.07 511.46 249.89 511.47 259.82
  Q 511.55 329.37 511.47 399.02
  Q 511.47 399.52 510.99 399.39
  L 317.70 346.05
  A 0.48 0.48 0.0 0 0 317.16 346.76
  L 399.40 488.98
  Q 399.75 489.59 400.05 488.94
  C 402.29 484.00 405.55 481.63 411.12 480.66
  Q 428.37 477.63 446.75 480.94
  C 451.81 481.85 457.37 483.29 460.76 487.12
  C 464.01 490.79 465.74 495.99 467.49 500.50
  Q 470.92 509.33 476.56 533.74
  Q 483.96 565.79 489.24 601.20
  A 0.23 0.22 85.5 0 0 489.46 601.39
  Q 489.75 601.39 489.72 601.00
  C 489.18 594.58 489.91 586.46 490.01 581.92
  Q 490.73 550.22 494.81 513.75
  Q 495.87 504.20 497.84 496.99
  C 498.82 493.41 500.81 491.61 504.22 490.69
  Q 526.78 484.62 550.07 489.39
  Q 572.96 494.08 587.76 510.64
  C 595.34 519.13 597.96 532.13 597.60 543.00
  C 597.20 555.07 594.51 565.09 585.93 573.34
  Q 585.55 573.70 585.90 574.10
  C 591.03 580.03 600.10 589.13 602.23 596.29
  C 603.65 601.06 600.99 604.88 597.79 609.11
  Q 591.24 617.78 582.86 624.74
  C 578.43 628.43 574.89 629.77 569.68 627.09
  C 560.00 622.10 552.75 614.20 542.95 609.14
  A 1.58 1.58 0.0 0 0 540.64 610.50
  C 540.45 617.32 537.45 623.04 529.75 623.01
  Q 515.29 622.95 499.22 620.47
  C 489.81 619.02 490.21 613.86 489.54 605.99
  Q 489.53 605.83 489.48 605.78
  Q 489.41 605.69 489.43 606.01
  Q 490.01 615.65 479.96 615.88
  Q 462.52 616.26 449.23 614.92
  C 441.33 614.12 440.43 609.26 438.64 602.63
  C 437.54 598.52 436.35 587.59 431.51 586.92
  Q 424.89 586.00 420.41 585.56
  C 417.04 585.23 413.86 584.78 412.30 587.30
  Q 407.73 594.69 402.89 601.90
  C 400.35 605.69 398.61 608.19 393.75 608.01
  Q 380.94 607.56 368.46 604.65
  Q 359.73 602.61 361.01 593.75
  Q 362.62 582.55 367.03 568.70
  Q 377.73 535.13 392.37 503.67
  Q 392.84 502.67 391.77 502.94
  L 210.48 550.06
  A 0.31 0.30 -37.2 0 0 210.40 550.62
  L 363.16 638.66
  Q 363.58 638.90 363.23 639.24
  L 220.27 780.08
  Q 219.33 781.00 220.64 781.00
  Q 285.80 781.02 350.56 780.97
  C 353.36 780.97 356.37 780.57 359.36 780.46
  Q 359.86 780.45 359.91 779.94
  Q 361.36 764.83 362.51 760.26
  Q 370.33 728.94 399.59 715.74
  Q 414.32 709.09 431.13 704.70
  Q 433.29 704.14 434.53 702.00
  A 0.86 0.85 41.9 0 0 434.47 701.05
  C 431.77 697.56 425.98 695.54 421.94 697.99
  Q 421.44 698.30 421.33 698.88
  Q 419.12 710.47 406.23 708.70
  C 395.75 707.27 369.73 702.76 372.16 686.85
  Q 372.66 683.57 375.53 678.27
  Q 388.02 655.18 411.48 648.45
  C 422.30 645.35 435.41 645.11 446.26 648.01
  Q 481.46 657.42 489.43 693.78
  C 495.15 719.82 479.10 743.30 453.08 748.55
  C 446.88 749.80 442.75 750.77 438.12 752.90
  Q 435.42 754.14 438.39 754.33
  Q 452.02 755.20 465.47 756.76
  C 472.14 757.53 475.75 758.46 477.77 765.02
  Q 483.02 782.04 477.93 799.74
  C 476.53 804.62 473.49 807.22 468.23 807.06
  C 442.82 806.30 417.54 802.97 392.33 799.76
  Q 391.79 799.69 391.65 800.22
  L 343.71 973.97
  Q 343.29 975.50 344.66 974.71
  L 495.96 887.22
  A 0.86 0.85 67.4 0 1 497.22 887.74
  L 547.60 1081.55
  Q 547.79 1082.30 548.18 1081.63
  L 636.04 929.23
  A 0.41 0.41 0.0 0 1 636.68 929.14
  Q 654.29 946.24 671.61 963.90
  Q 703.48 996.40 735.30 1028.94
  Q 749.90 1043.87 764.74 1058.55
  C 768.42 1062.18 773.25 1067.97 778.09 1072.17
  Q 778.51 1072.53 778.51 1071.98
  L 778.51 895.81
  Z
  M 389.93 521.69
  Q 377.15 552.03 368.62 581.97
  Q 367.83 584.75 367.20 588.09
  C 366.65 591.06 365.30 594.96 366.42 597.90
  A 1.25 1.23 -88.3 0 0 367.04 598.57
  Q 369.90 599.93 373.00 600.52
  Q 382.06 602.23 391.26 602.97
  C 394.00 603.19 395.55 603.37 397.29 600.90
  Q 405.00 589.95 406.74 586.50
  Q 410.03 579.96 416.75 580.13
  Q 420.36 580.22 431.52 581.57
  Q 435.86 582.10 437.91 584.61
  C 442.98 590.85 442.22 601.28 446.32 608.57
  Q 446.57 609.01 447.06 609.14
  Q 448.54 609.55 450.03 609.72
  Q 464.97 611.47 479.99 610.93
  Q 482.30 610.85 484.07 609.43
  Q 484.47 609.10 484.48 608.58
  C 484.51 606.60 484.61 604.68 484.32 602.67
  Q 477.62 554.53 464.49 507.76
  C 463.26 503.39 461.44 499.16 459.67 494.99
  Q 456.86 488.34 449.77 486.70
  Q 433.81 483.02 417.49 484.79
  Q 411.89 485.40 407.95 486.92
  A 1.70 1.66 -83.1 0 0 407.15 487.56
  C 400.13 497.87 395.07 509.47 389.93 521.69
  Z
  M 578.07 572.38
  C 592.11 564.08 594.41 546.10 591.71 531.22
  C 586.85 504.45 556.17 492.70 532.31 492.39
  C 522.29 492.25 513.25 493.01 504.11 496.33
  A 1.36 1.35 3.6 0 0 503.39 496.96
  Q 502.05 499.49 501.58 502.35
  Q 498.42 521.69 497.02 541.25
  Q 494.86 571.38 494.51 601.59
  C 494.47 604.64 495.09 607.97 495.20 611.19
  Q 495.33 614.85 499.27 615.37
  Q 514.17 617.36 523.63 617.79
  C 527.35 617.97 530.23 618.38 533.75 616.69
  A 1.17 1.15 -4.2 0 0 534.38 615.97
  C 535.28 612.98 535.49 607.56 537.12 605.58
  C 542.80 598.70 562.43 615.96 567.02 619.74
  Q 569.87 622.08 575.18 623.42
  Q 575.67 623.54 576.10 623.28
  C 582.62 619.22 588.81 612.28 593.27 606.50
  C 596.07 602.88 599.36 599.64 596.22 595.04
  Q 591.73 588.47 585.52 581.42
  C 583.65 579.29 580.26 576.12 577.93 573.17
  Q 577.54 572.69 578.07 572.38
  Z
  M 953.49 620.30
  C 961.19 623.26 963.17 633.07 953.03 634.35
  Q 943.04 635.62 940.59 626.37
  A 1.82 1.77 -77.3 0 0 940.08 625.54
  C 933.84 619.96 920.23 619.64 912.50 620.87
  C 908.97 621.43 902.48 623.50 902.23 627.26
  Q 902.09 629.50 902.86 632.96
  C 904.98 642.47 911.13 650.43 918.99 656.52
  C 935.72 669.49 961.05 670.87 979.08 660.52
  C 995.50 651.10 1003.83 633.42 996.06 615.10
  C 989.68 600.06 971.93 591.20 956.49 587.47
  Q 950.35 585.99 945.23 582.37
  A 1.68 1.65 10.0 0 1 944.59 581.47
  Q 943.31 576.94 948.03 574.27
  C 953.94 570.92 962.02 570.86 964.00 578.63
  C 964.56 580.85 964.96 581.34 967.23 581.39
  Q 979.22 581.61 989.08 578.24
  C 994.00 576.56 997.60 575.13 996.08 569.27
  C 989.12 542.40 954.36 534.40 932.02 545.30
  Q 908.44 556.79 908.88 584.02
  C 909.08 595.79 915.71 604.46 925.49 610.08
  Q 928.79 611.98 936.49 614.35
  Q 944.25 616.74 953.49 620.30
  Z
  M 949.89 579.72
  L 958.83 582.97
  Q 959.28 583.13 959.33 582.66
  Q 959.70 579.32 957.43 577.86
  C 955.17 576.40 951.81 577.72 949.81 579.18
  Q 949.34 579.52 949.89 579.72
  Z
  M 944.86 622.38
  Q 944.35 622.17 944.61 622.66
  C 945.61 624.56 945.76 627.09 947.38 628.39
  Q 950.14 630.58 954.11 628.53
  A 1.27 1.27 0.0 0 0 954.02 626.24
  L 944.86 622.38
  Z
  M 422.07 757.32
  Q 432.26 748.15 445.84 745.04
  Q 456.68 742.55 459.54 741.56
  C 476.62 735.63 487.64 716.65 485.23 698.84
  C 483.88 688.83 479.59 678.36 473.03 670.39
  C 454.13 647.43 415.12 644.20 392.60 664.27
  C 386.77 669.46 382.03 676.60 378.37 683.67
  C 374.23 691.70 380.81 696.21 387.26 698.77
  Q 398.43 703.22 409.25 704.06
  Q 412.77 704.34 415.18 701.49
  A 1.42 1.40 68.2 0 0 415.51 700.70
  C 416.08 694.88 419.74 691.98 425.52 691.87
  C 431.12 691.76 438.69 694.90 439.58 701.11
  C 440.27 706.01 435.64 708.90 431.48 709.94
  Q 415.46 713.94 399.67 721.67
  Q 377.84 732.37 369.73 754.13
  C 366.52 762.77 365.29 773.91 364.61 783.51
  Q 364.42 786.19 365.56 789.29
  Q 365.74 789.78 366.24 789.92
  Q 371.74 791.42 379.00 792.55
  Q 420.96 799.07 460.25 801.93
  Q 463.87 802.20 470.22 801.98
  Q 470.71 801.97 471.05 801.61
  Q 472.68 799.86 473.34 797.51
  C 476.03 787.84 476.99 771.98 471.08 763.29
  Q 470.79 762.87 470.31 762.73
  Q 466.62 761.65 464.50 761.48
  Q 443.49 759.80 422.28 757.94
  A 0.36 0.36 0.0 0 1 422.07 757.32
  Z
  M 930.75 822.03
  Q 930.09 836.93 930.63 849.98
  Q 930.72 852.00 931.73 854.20
  Q 931.94 854.65 932.40 854.86
  C 942.59 859.40 956.31 859.97 967.02 859.40
  C 972.22 859.13 972.80 855.33 974.20 850.33
  Q 977.39 838.96 979.15 827.74
  A 1.63 1.63 0.0 0 1 980.97 826.37
  C 985.20 826.92 1001.08 828.65 1002.82 823.79
  Q 1008.26 808.62 1009.06 791.02
  C 1009.12 789.69 1008.69 788.39 1008.34 787.12
  Q 1008.19 786.58 1007.65 786.40
  Q 997.59 783.04 987.04 781.90
  Q 986.49 781.84 986.57 781.29
  Q 990.45 753.06 991.95 724.60
  C 992.04 722.83 991.73 720.54 990.49 719.49
  Q 987.29 716.77 981.49 715.10
  Q 967.06 710.95 952.24 713.57
  Q 947.16 714.47 944.05 716.80
  Q 928.32 728.59 908.78 746.26
  Q 895.49 758.29 886.89 771.32
  C 879.65 782.30 880.61 800.39 883.14 812.49
  Q 883.81 815.73 886.73 816.07
  Q 908.54 818.62 930.30 821.48
  Q 930.77 821.55 930.75 822.03
  Z"
/>
<path fill="#f8c059" d="
  M 778.51 895.81
  L 778.51 1071.98
  Q 778.51 1072.53 778.09 1072.17
  C 773.25 1067.97 768.42 1062.18 764.74 1058.55
  Q 749.90 1043.87 735.30 1028.94
  Q 703.48 996.40 671.61 963.90
  Q 654.29 946.24 636.68 929.14
  A 0.41 0.41 0.0 0 0 636.04 929.23
  L 548.18 1081.63
  Q 547.79 1082.30 547.60 1081.55
  L 497.22 887.74
  A 0.86 0.85 67.4 0 0 495.96 887.22
  L 344.66 974.71
  Q 343.29 975.50 343.71 973.97
  L 391.65 800.22
  Q 391.79 799.69 392.33 799.76
  C 417.54 802.97 442.82 806.30 468.23 807.06
  C 473.49 807.22 476.53 804.62 477.93 799.74
  Q 483.02 782.04 477.77 765.02
  C 475.75 758.46 472.14 757.53 465.47 756.76
  Q 452.02 755.20 438.39 754.33
  Q 435.42 754.14 438.12 752.90
  C 442.75 750.77 446.88 749.80 453.08 748.55
  C 479.10 743.30 495.15 719.82 489.43 693.78
  Q 481.46 657.42 446.26 648.01
  C 435.41 645.11 422.30 645.35 411.48 648.45
  Q 388.02 655.18 375.53 678.27
  Q 372.66 683.57 372.16 686.85
  C 369.73 702.76 395.75 707.27 406.23 708.70
  Q 419.12 710.47 421.33 698.88
  Q 421.44 698.30 421.94 697.99
  C 425.98 695.54 431.77 697.56 434.47 701.05
  A 0.86 0.85 41.9 0 1 434.53 702.00
  Q 433.29 704.14 431.13 704.70
  Q 414.32 709.09 399.59 715.74
  Q 370.33 728.94 362.51 760.26
  Q 361.36 764.83 359.91 779.94
  Q 359.86 780.45 359.36 780.46
  C 356.37 780.57 353.36 780.97 350.56 780.97
  Q 285.80 781.02 220.64 781.00
  Q 219.33 781.00 220.27 780.08
  L 363.23 639.24
  Q 363.58 638.90 363.16 638.66
  L 210.40 550.62
  A 0.31 0.30 -37.2 0 1 210.48 550.06
  L 391.77 502.94
  Q 392.84 502.67 392.37 503.67
  Q 377.73 535.13 367.03 568.70
  Q 362.62 582.55 361.01 593.75
  Q 359.73 602.61 368.46 604.65
  Q 380.94 607.56 393.75 608.01
  C 398.61 608.19 400.35 605.69 402.89 601.90
  Q 407.73 594.69 412.30 587.30
  C 413.86 584.78 417.04 585.23 420.41 585.56
  Q 424.89 586.00 431.51 586.92
  C 436.35 587.59 437.54 598.52 438.64 602.63
  C 440.43 609.26 441.33 614.12 449.23 614.92
  Q 462.52 616.26 479.96 615.88
  Q 490.01 615.65 489.43 606.01
  Q 489.41 605.69 489.48 605.78
  Q 489.53 605.83 489.54 605.99
  C 490.21 613.86 489.81 619.02 499.22 620.47
  Q 515.29 622.95 529.75 623.01
  C 537.45 623.04 540.45 617.32 540.64 610.50
  A 1.58 1.58 0.0 0 1 542.95 609.14
  C 552.75 614.20 560.00 622.10 569.68 627.09
  C 574.89 629.77 578.43 628.43 582.86 624.74
  Q 591.24 617.78 597.79 609.11
  C 600.99 604.88 603.65 601.06 602.23 596.29
  C 600.10 589.13 591.03 580.03 585.90 574.10
  Q 585.55 573.70 585.93 573.34
  C 594.51 565.09 597.20 555.07 597.60 543.00
  C 597.96 532.13 595.34 519.13 587.76 510.64
  Q 572.96 494.08 550.07 489.39
  Q 526.78 484.62 504.22 490.69
  C 500.81 491.61 498.82 493.41 497.84 496.99
  Q 495.87 504.20 494.81 513.75
  Q 490.73 550.22 490.01 581.92
  C 489.91 586.46 489.18 594.58 489.72 601.00
  Q 489.75 601.39 489.46 601.39
  A 0.23 0.22 85.5 0 1 489.24 601.20
  Q 483.96 565.79 476.56 533.74
  Q 470.92 509.33 467.49 500.50
  C 465.74 495.99 464.01 490.79 460.76 487.12
  C 457.37 483.29 451.81 481.85 446.75 480.94
  Q 428.37 477.63 411.12 480.66
  C 405.55 481.63 402.29 484.00 400.05 488.94
  Q 399.75 489.59 399.40 488.98
  L 317.16 346.76
  A 0.48 0.48 0.0 0 1 317.70 346.05
  L 510.99 399.39
  Q 511.47 399.52 511.47 399.02
  Q 511.55 329.37 511.47 259.82
  C 511.46 249.89 510.64 235.07 511.11 222.68
  A 0.37 0.37 0.0 0 1 511.74 222.44
  L 652.78 365.65
  A 0.44 0.43 -52.2 0 0 653.47 365.56
  L 741.30 213.17
  Q 741.84 212.22 742.12 213.28
  L 792.53 407.30
  A 0.46 0.46 0.0 0 0 793.20 407.58
  L 945.94 319.23
  A 0.19 0.19 0.0 0 1 946.22 319.45
  L 892.67 513.50
  Q 892.50 514.11 893.13 514.10
  L 1068.88 513.36
  Q 1070.45 513.35 1069.34 514.45
  L 987.24 595.31
  Q 986.88 595.67 986.46 595.38
  Q 979.14 590.33 970.95 586.86
  Q 970.15 586.52 971.02 586.45
  C 978.78 585.86 998.45 584.39 1001.19 575.21
  Q 1001.80 573.15 1001.27 569.79
  C 999.15 556.37 989.40 546.14 977.18 540.60
  C 953.26 529.77 920.61 536.26 908.19 561.48
  C 903.57 570.87 902.23 584.92 905.67 594.78
  Q 910.25 607.91 923.60 614.67
  A 0.47 0.47 0.0 0 1 923.31 615.55
  Q 912.24 613.85 902.22 619.15
  Q 898.87 620.92 897.64 624.81
  Q 896.75 627.61 897.47 631.71
  C 900.63 649.67 914.85 663.35 931.67 669.09
  C 938.41 671.39 946.51 672.20 953.91 672.60
  A 7.50 7.42 -28.2 0 1 957.21 673.58
  L 1079.49 744.09
  Q 1079.85 744.29 1079.45 744.39
  L 994.24 766.56
  A 0.61 0.61 0.0 0 1 993.48 765.90
  Q 996.04 744.77 997.00 723.25
  C 997.31 716.25 990.44 712.61 984.75 710.81
  Q 968.66 705.72 951.99 708.49
  C 947.01 709.32 943.14 710.93 938.92 714.21
  Q 914.59 733.08 901.15 746.15
  C 891.85 755.19 879.62 768.16 877.52 781.73
  Q 875.36 795.69 877.24 809.78
  Q 877.86 814.43 880.02 818.01
  C 882.13 821.53 894.92 822.30 898.67 822.55
  A 2.70 2.70 0.0 0 1 900.82 823.89
  L 972.11 947.14
  Q 973.08 948.82 971.21 948.30
  L 779.20 895.28
  Q 778.51 895.09 778.51 895.81
  Z
  M 716.57 605.54
  Q 716.39 616.30 716.51 627.25
  Q 716.63 637.71 718.24 641.77
  Q 719.37 644.59 721.96 645.19
  Q 739.38 649.25 759.08 648.19
  C 764.73 647.89 766.22 638.81 767.16 633.73
  Q 776.10 585.38 778.28 536.24
  Q 778.58 529.35 778.43 527.19
  C 777.96 520.63 773.39 519.54 767.29 517.87
  Q 751.73 513.62 735.49 514.53
  Q 729.27 514.88 726.33 516.81
  Q 721.91 519.72 714.10 528.11
  Q 708.61 534.01 693.88 551.37
  Q 693.51 551.81 693.24 551.30
  C 686.46 538.52 680.10 525.17 671.59 513.43
  C 668.21 508.76 664.56 506.93 659.24 505.50
  Q 642.60 501.00 625.78 502.23
  C 620.74 502.60 617.32 503.72 615.98 508.73
  Q 613.92 516.40 612.66 524.24
  Q 605.50 568.73 603.52 613.75
  C 603.33 618.07 602.84 629.51 607.96 631.16
  Q 623.44 636.16 642.27 636.52
  C 650.25 636.68 651.19 630.66 653.16 623.47
  Q 656.36 611.76 658.96 599.81
  Q 659.09 599.23 659.45 599.71
  Q 666.71 609.31 674.69 618.31
  C 681.88 626.41 685.73 627.64 694.74 621.47
  Q 705.77 613.90 716.01 605.27
  A 0.34 0.34 0.0 0 1 716.57 605.54
  Z
  M 849.17 651.22
  C 850.74 659.66 854.40 661.87 862.75 662.43
  Q 869.55 662.89 882.51 663.15
  Q 890.97 663.33 893.55 662.56
  Q 900.87 660.39 899.94 652.98
  Q 894.13 606.66 880.28 555.98
  Q 878.18 548.33 874.60 540.30
  C 872.27 535.07 869.03 531.20 863.77 529.71
  Q 842.63 523.72 819.47 528.33
  Q 814.65 529.29 812.53 532.29
  Q 807.14 539.96 801.45 552.57
  Q 787.56 583.31 777.38 615.47
  Q 773.86 626.58 771.55 638.00
  C 770.28 644.29 770.84 649.67 777.78 651.43
  Q 790.92 654.76 804.51 655.06
  Q 808.66 655.15 811.08 651.79
  Q 817.01 643.59 822.12 634.84
  Q 823.60 632.29 826.51 632.41
  Q 833.62 632.71 841.74 634.12
  C 843.03 634.34 844.52 635.21 844.98 636.31
  Q 847.50 642.24 849.17 651.22
  Z
  M 667.42 728.76
  C 665.49 705.64 653.71 682.97 632.12 672.99
  C 618.18 666.55 601.50 665.60 586.00 667.79
  C 565.94 670.64 554.31 681.26 545.30 698.72
  Q 534.28 720.09 533.12 744.27
  C 532.44 758.67 533.38 771.50 538.54 784.47
  Q 547.66 807.40 568.87 817.04
  C 583.10 823.51 601.53 824.96 616.99 822.44
  Q 638.24 818.98 650.24 800.70
  C 663.91 779.87 669.48 753.36 667.42 728.76
  Z
  M 780.77 793.18
  C 788.32 789.44 796.16 788.87 804.00 786.32
  C 825.54 779.32 837.93 757.84 834.17 735.68
  C 830.12 711.77 814.67 694.02 790.96 687.84
  C 767.02 681.60 739.67 688.28 725.13 709.41
  C 720.04 716.80 712.33 726.66 718.50 735.34
  C 724.78 744.18 744.48 748.53 754.74 748.55
  Q 762.61 748.56 764.69 741.23
  C 765.63 737.93 765.89 736.59 769.51 736.53
  Q 775.15 736.43 778.58 740.37
  A 1.00 0.98 -57.5 0 1 778.78 741.31
  Q 778.11 743.54 775.78 744.16
  C 760.10 748.29 742.35 754.31 729.91 763.72
  Q 714.62 775.30 708.48 793.89
  C 705.73 802.20 704.80 812.27 704.09 821.50
  C 703.14 833.91 707.61 834.55 718.27 836.30
  Q 760.13 843.19 802.43 846.32
  C 806.13 846.59 809.96 846.47 813.76 846.51
  C 818.77 846.56 821.23 843.21 822.39 838.68
  Q 826.76 821.70 822.56 805.47
  Q 820.48 797.43 812.52 796.50
  Q 796.76 794.66 780.91 793.84
  A 0.35 0.35 0.0 0 1 780.77 793.18
  Z"
/>
<path fill="#d3695b" d="
  M 389.93 521.69
  C 395.07 509.47 400.13 497.87 407.15 487.56
  A 1.70 1.66 -83.1 0 1 407.95 486.92
  Q 411.89 485.40 417.49 484.79
  Q 433.81 483.02 449.77 486.70
  Q 456.86 488.34 459.67 494.99
  C 461.44 499.16 463.26 503.39 464.49 507.76
  Q 477.62 554.53 484.32 602.67
  C 484.61 604.68 484.51 606.60 484.48 608.58
  Q 484.47 609.10 484.07 609.43
  Q 482.30 610.85 479.99 610.93
  Q 464.97 611.47 450.03 609.72
  Q 448.54 609.55 447.06 609.14
  Q 446.57 609.01 446.32 608.57
  C 442.22 601.28 442.98 590.85 437.91 584.61
  Q 435.86 582.10 431.52 581.57
  Q 420.36 580.22 416.75 580.13
  Q 410.03 579.96 406.74 586.50
  Q 405.00 589.95 397.29 600.90
  C 395.55 603.37 394.00 603.19 391.26 602.97
  Q 382.06 602.23 373.00 600.52
  Q 369.90 599.93 367.04 598.57
  A 1.25 1.23 -88.3 0 1 366.42 597.90
  C 365.30 594.96 366.65 591.06 367.20 588.09
  Q 367.83 584.75 368.62 581.97
  Q 377.15 552.03 389.93 521.69
  Z
  M 437.04 536.72
  C 428.77 518.90 419.36 537.21 416.24 544.48
  Q 412.04 554.26 422.12 556.59
  Q 428.72 558.12 434.74 557.30
  C 445.96 555.77 440.45 544.06 437.04 536.72
  Z"
/>
<path fill="#d3695b" d="
  M 577.93 573.17
  C 580.26 576.12 583.65 579.29 585.52 581.42
  Q 591.73 588.47 596.22 595.04
  C 599.36 599.64 596.07 602.88 593.27 606.50
  C 588.81 612.28 582.62 619.22 576.10 623.28
  Q 575.67 623.54 575.18 623.42
  Q 569.87 622.08 567.02 619.74
  C 562.43 615.96 542.80 598.70 537.12 605.58
  C 535.49 607.56 535.28 612.98 534.38 615.97
  A 1.17 1.15 -4.2 0 1 533.75 616.69
  C 530.23 618.38 527.35 617.97 523.63 617.79
  Q 514.17 617.36 499.27 615.37
  Q 495.33 614.85 495.20 611.19
  C 495.09 607.97 494.47 604.64 494.51 601.59
  Q 494.86 571.38 497.02 541.25
  Q 498.42 521.69 501.58 502.35
  Q 502.05 499.49 503.39 496.96
  A 1.36 1.35 3.6 0 1 504.11 496.33
  C 513.25 493.01 522.29 492.25 532.31 492.39
  C 556.17 492.70 586.85 504.45 591.71 531.22
  C 594.41 546.10 592.11 564.08 578.07 572.38
  Q 577.54 572.69 577.93 573.17
  Z
  M 558.50 539.34
  C 557.72 529.68 547.32 525.67 538.76 527.30
  C 530.15 528.93 530.75 542.47 532.62 548.46
  Q 534.73 555.25 542.24 554.98
  C 550.87 554.68 559.24 548.45 558.50 539.34
  Z"
/>
<path fill="#6d5845" d="
  M 716.57 605.54
  A 0.34 0.34 0.0 0 0 716.01 605.27
  Q 705.77 613.90 694.74 621.47
  C 685.73 627.64 681.88 626.41 674.69 618.31
  Q 666.71 609.31 659.45 599.71
  Q 659.09 599.23 658.96 599.81
  Q 656.36 611.76 653.16 623.47
  C 651.19 630.66 650.25 636.68 642.27 636.52
  Q 623.44 636.16 607.96 631.16
  C 602.84 629.51 603.33 618.07 603.52 613.75
  Q 605.50 568.73 612.66 524.24
  Q 613.92 516.40 615.98 508.73
  C 617.32 503.72 620.74 502.60 625.78 502.23
  Q 642.60 501.00 659.24 505.50
  C 664.56 506.93 668.21 508.76 671.59 513.43
  C 680.10 525.17 686.46 538.52 693.24 551.30
  Q 693.51 551.81 693.88 551.37
  Q 708.61 534.01 714.10 528.11
  Q 721.91 519.72 726.33 516.81
  Q 729.27 514.88 735.49 514.53
  Q 751.73 513.62 767.29 517.87
  C 773.39 519.54 777.96 520.63 778.43 527.19
  Q 778.58 529.35 778.28 536.24
  Q 776.10 585.38 767.16 633.73
  C 766.22 638.81 764.73 647.89 759.08 648.19
  Q 739.38 649.25 721.96 645.19
  Q 719.37 644.59 718.24 641.77
  Q 716.63 637.71 716.51 627.25
  Q 716.39 616.30 716.57 605.54
  Z
  M 722.32 593.84
  Q 721.02 611.16 721.60 628.75
  Q 721.79 634.68 723.00 639.58
  Q 723.13 640.10 723.64 640.26
  Q 725.66 640.91 727.75 641.27
  Q 742.39 643.80 757.26 643.42
  Q 759.42 643.37 760.03 641.20
  Q 762.89 631.11 764.55 620.76
  Q 769.91 587.17 772.56 553.25
  Q 773.55 540.66 773.33 527.99
  Q 773.28 524.97 770.24 524.01
  Q 753.73 518.81 737.01 519.54
  C 734.19 519.67 730.22 520.30 728.29 521.79
  Q 722.39 526.34 713.76 536.23
  Q 703.38 548.12 693.10 560.23
  A 0.72 0.72 0.0 0 1 691.91 560.09
  C 684.51 545.45 677.01 530.16 667.58 516.64
  Q 664.80 512.65 660.10 511.17
  Q 643.52 505.94 626.15 507.09
  Q 624.15 507.22 622.30 508.01
  Q 621.83 508.21 621.63 508.68
  Q 619.99 512.49 619.50 515.24
  Q 611.10 561.77 608.56 608.99
  Q 608.15 616.65 609.10 624.24
  C 609.27 625.62 609.94 626.46 611.35 626.85
  Q 626.98 631.19 643.47 631.57
  A 1.94 1.94 0.0 0 0 645.27 630.46
  Q 647.55 625.61 649.02 620.02
  Q 653.20 604.09 656.10 587.73
  A 0.45 0.44 -57.6 0 1 656.90 587.55
  Q 665.91 600.30 676.15 612.34
  Q 679.91 616.76 684.58 620.34
  Q 685.00 620.66 685.50 620.50
  Q 688.59 619.47 691.30 617.59
  Q 707.19 606.53 721.79 593.58
  A 0.32 0.32 0.0 0 1 722.32 593.84
  Z"
/>
<path fill="#d3695b" d="
  M 722.32 593.84
  A 0.32 0.32 0.0 0 0 721.79 593.58
  Q 707.19 606.53 691.30 617.59
  Q 688.59 619.47 685.50 620.50
  Q 685.00 620.66 684.58 620.34
  Q 679.91 616.76 676.15 612.34
  Q 665.91 600.30 656.90 587.55
  A 0.45 0.44 -57.6 0 0 656.10 587.73
  Q 653.20 604.09 649.02 620.02
  Q 647.55 625.61 645.27 630.46
  A 1.94 1.94 0.0 0 1 643.47 631.57
  Q 626.98 631.19 611.35 626.85
  C 609.94 626.46 609.27 625.62 609.10 624.24
  Q 608.15 616.65 608.56 608.99
  Q 611.10 561.77 619.50 515.24
  Q 619.99 512.49 621.63 508.68
  Q 621.83 508.21 622.30 508.01
  Q 624.15 507.22 626.15 507.09
  Q 643.52 505.94 660.10 511.17
  Q 664.80 512.65 667.58 516.64
  C 677.01 530.16 684.51 545.45 691.91 560.09
  A 0.72 0.72 0.0 0 0 693.10 560.23
  Q 703.38 548.12 713.76 536.23
  Q 722.39 526.34 728.29 521.79
  C 730.22 520.30 734.19 519.67 737.01 519.54
  Q 753.73 518.81 770.24 524.01
  Q 773.28 524.97 773.33 527.99
  Q 773.55 540.66 772.56 553.25
  Q 769.91 587.17 764.55 620.76
  Q 762.89 631.11 760.03 641.20
  Q 759.42 643.37 757.26 643.42
  Q 742.39 643.80 727.75 641.27
  Q 725.66 640.91 723.64 640.26
  Q 723.13 640.10 723.00 639.58
  Q 721.79 634.68 721.60 628.75
  Q 721.02 611.16 722.32 593.84
  Z"
/>
<path fill="#6d5845" d="
  M 862.75 662.43
  C 854.40 661.87 850.74 659.66 849.17 651.22
  Q 847.50 642.24 844.98 636.31
  C 844.52 635.21 843.03 634.34 841.74 634.12
  Q 833.62 632.71 826.51 632.41
  Q 823.60 632.29 822.12 634.84
  Q 817.01 643.59 811.08 651.79
  Q 808.66 655.15 804.51 655.06
  Q 790.92 654.76 777.78 651.43
  C 770.84 649.67 770.28 644.29 771.55 638.00
  Q 773.86 626.58 777.38 615.47
  Q 787.56 583.31 801.45 552.57
  Q 807.14 539.96 812.53 532.29
  Q 814.65 529.29 819.47 528.33
  Q 842.63 523.72 863.77 529.71
  C 869.03 531.20 872.27 535.07 874.60 540.30
  Q 878.18 548.33 880.28 555.98
  Q 894.13 606.66 899.94 652.98
  Q 900.87 660.39 893.55 662.56
  Q 890.97 663.33 882.51 663.15
  Q 869.55 662.89 862.75 662.43
  Z
  M 809.04 548.72
  C 797.01 573.98 787.10 600.39 779.38 627.28
  Q 777.05 635.40 775.99 642.49
  C 775.74 644.14 776.32 645.32 777.94 645.99
  C 783.99 648.50 791.76 649.00 801.02 650.02
  C 806.78 650.65 807.19 648.43 810.40 643.64
  Q 814.22 637.93 817.87 632.12
  C 819.90 628.88 822.61 627.32 826.25 627.40
  Q 833.35 627.55 842.04 628.98
  C 845.43 629.54 848.19 630.96 849.53 633.99
  Q 852.56 640.84 853.94 650.26
  C 854.15 651.75 856.19 656.76 858.75 656.99
  Q 871.14 658.08 883.56 658.41
  C 886.10 658.47 888.69 658.01 891.27 657.75
  Q 895.34 657.35 894.78 653.28
  Q 888.98 610.56 878.44 568.76
  C 876.53 561.20 873.49 549.28 869.06 540.75
  C 867.15 537.07 864.35 534.99 860.50 534.04
  Q 841.80 529.42 822.17 532.76
  Q 818.11 533.45 816.65 535.45
  Q 812.95 540.53 809.04 548.72
  Z"
/>
<path fill="#6d5845" d="
  M 558.50 539.34
  C 559.24 548.45 550.87 554.68 542.24 554.98
  Q 534.73 555.25 532.62 548.46
  C 530.75 542.47 530.15 528.93 538.76 527.30
  C 547.32 525.67 557.72 529.68 558.50 539.34
  Z
  M 547.55 532.93
  Q 544.02 531.69 540.25 532.17
  C 534.53 532.90 536.70 545.07 538.11 548.28
  A 2.71 2.70 82.0 0 0 540.24 549.89
  Q 545.81 550.63 549.76 547.24
  C 555.12 542.64 555.08 535.58 547.55 532.93
  Z"
/>
<path fill="#6d5845" d="
  M 437.04 536.72
  C 440.45 544.06 445.96 555.77 434.74 557.30
  Q 428.72 558.12 422.12 556.59
  Q 412.04 554.26 416.24 544.48
  C 419.36 537.21 428.77 518.90 437.04 536.72
  Z
  M 428.07 535.00
  C 425.04 538.55 421.29 544.33 420.05 549.08
  Q 419.92 549.60 420.25 550.01
  C 422.42 552.68 434.43 553.82 436.41 550.84
  A 1.12 1.07 56.0 0 0 436.56 549.98
  Q 434.58 542.00 430.10 535.13
  A 1.27 1.27 0.0 0 0 428.07 535.00
  Z"
/>
<path fill="#d3695b" d="
  M 809.04 548.72
  Q 812.95 540.53 816.65 535.45
  Q 818.11 533.45 822.17 532.76
  Q 841.80 529.42 860.50 534.04
  C 864.35 534.99 867.15 537.07 869.06 540.75
  C 873.49 549.28 876.53 561.20 878.44 568.76
  Q 888.98 610.56 894.78 653.28
  Q 895.34 657.35 891.27 657.75
  C 888.69 658.01 886.10 658.47 883.56 658.41
  Q 871.14 658.08 858.75 656.99
  C 856.19 656.76 854.15 651.75 853.94 650.26
  Q 852.56 640.84 849.53 633.99
  C 848.19 630.96 845.43 629.54 842.04 628.98
  Q 833.35 627.55 826.25 627.40
  C 822.61 627.32 819.90 628.88 817.87 632.12
  Q 814.22 637.93 810.40 643.64
  C 807.19 648.43 806.78 650.65 801.02 650.02
  C 791.76 649.00 783.99 648.50 777.94 645.99
  C 776.32 645.32 775.74 644.14 775.99 642.49
  Q 777.05 635.40 779.38 627.28
  C 787.10 600.39 797.01 573.98 809.04 548.72
  Z
  M 851.45 596.62
  C 850.72 591.29 846.04 576.58 839.42 576.25
  C 833.79 575.97 828.02 587.97 826.18 592.23
  C 820.89 604.53 836.19 604.78 843.76 604.41
  C 848.37 604.19 852.14 601.64 851.45 596.62
  Z"
/>
<path fill="#f8c059" d="
  M 547.55 532.93
  C 555.08 535.58 555.12 542.64 549.76 547.24
  Q 545.81 550.63 540.24 549.89
  A 2.71 2.70 82.0 0 1 538.11 548.28
  C 536.70 545.07 534.53 532.90 540.25 532.17
  Q 544.02 531.69 547.55 532.93
  Z"
/>
<path fill="#f8c059" d="
  M 420.05 549.08
  C 421.29 544.33 425.04 538.55 428.07 535.00
  A 1.27 1.27 0.0 0 1 430.10 535.13
  Q 434.58 542.00 436.56 549.98
  A 1.12 1.07 56.0 0 1 436.41 550.84
  C 434.43 553.82 422.42 552.68 420.25 550.01
  Q 419.92 549.60 420.05 549.08
  Z"
/>
<path fill="#d3695b" d="
  M 953.03 634.35
  C 963.17 633.07 961.19 623.26 953.49 620.30
  Q 944.25 616.74 936.49 614.35
  Q 928.79 611.98 925.49 610.08
  C 915.71 604.46 909.08 595.79 908.88 584.02
  Q 908.44 556.79 932.02 545.30
  C 954.36 534.40 989.12 542.40 996.08 569.27
  C 997.60 575.13 994.00 576.56 989.08 578.24
  Q 979.22 581.61 967.23 581.39
  C 964.96 581.34 964.56 580.85 964.00 578.63
  C 962.02 570.86 953.94 570.92 948.03 574.27
  Q 943.31 576.94 944.59 581.47
  A 1.68 1.65 10.0 0 0 945.23 582.37
  Q 950.35 585.99 956.49 587.47
  C 971.93 591.20 989.68 600.06 996.06 615.10
  C 1003.83 633.42 995.50 651.10 979.08 660.52
  C 961.05 670.87 935.72 669.49 918.99 656.52
  C 911.13 650.43 904.98 642.47 902.86 632.96
  Q 902.09 629.50 902.23 627.26
  C 902.48 623.50 908.97 621.43 912.50 620.87
  C 920.23 619.64 933.84 619.96 940.08 625.54
  A 1.82 1.77 -77.3 0 1 940.59 626.37
  Q 943.04 635.62 953.03 634.35
  Z"
/>
<path fill="#6d5845" d="
  M 1010.97 593.40
  Q 1017.92 576.26 1033.90 564.37
  Q 1058.29 546.21 1088.74 553.55
  C 1112.64 559.30 1131.61 573.54 1139.51 597.31
  C 1147.93 622.60 1138.48 652.89 1118.49 670.07
  Q 1091.81 692.99 1057.02 683.98
  C 1036.27 678.60 1020.26 665.58 1011.28 645.78
  C 1003.48 628.58 1004.00 610.59 1010.97 593.40
  Z
  M 1011.58 630.19
  C 1016.48 654.76 1034.89 673.09 1058.77 679.34
  C 1099.02 689.87 1134.46 660.38 1137.29 620.19
  C 1139.86 583.67 1109.21 558.90 1075.24 556.50
  C 1037.00 553.80 1004.17 592.94 1011.58 630.19
  Z"
/>
<path fill="#d3695b" d="
  M 1058.77 679.34
  C 1034.89 673.09 1016.48 654.76 1011.58 630.19
  C 1004.17 592.94 1037.00 553.80 1075.24 556.50
  C 1109.21 558.90 1139.86 583.67 1137.29 620.19
  C 1134.46 660.38 1099.02 689.87 1058.77 679.34
  Z
  M 1093.2306 617.5987
  A 19.32 19.09 -4.1 0 0 1072.5951 599.9389
  A 19.32 19.09 -4.1 0 0 1054.6894 620.3613
  A 19.32 19.09 -4.1 0 0 1075.3249 638.0211
  A 19.32 19.09 -4.1 0 0 1093.2306 617.5987
  Z"
/>
<path fill="#6d5845" d="
  M 839.42 576.25
  C 846.04 576.58 850.72 591.29 851.45 596.62
  C 852.14 601.64 848.37 604.19 843.76 604.41
  C 836.19 604.78 820.89 604.53 826.18 592.23
  C 828.02 587.97 833.79 575.97 839.42 576.25
  Z
  M 846.33 595.94
  C 844.73 590.75 843.04 585.82 839.89 582.03
  Q 839.01 580.97 838.16 582.06
  Q 833.26 588.38 830.48 594.98
  Q 829.49 597.34 831.64 598.17
  Q 837.70 600.48 844.73 599.09
  Q 847.15 598.61 846.33 595.94
  Z"
/>
<path fill="#f8c059" d="
  M 949.89 579.72
  Q 949.34 579.52 949.81 579.18
  C 951.81 577.72 955.17 576.40 957.43 577.86
  Q 959.70 579.32 959.33 582.66
  Q 959.28 583.13 958.83 582.97
  L 949.89 579.72
  Z"
/>
<path fill="#f8c059" d="
  M 839.89 582.03
  C 843.04 585.82 844.73 590.75 846.33 595.94
  Q 847.15 598.61 844.73 599.09
  Q 837.70 600.48 831.64 598.17
  Q 829.49 597.34 830.48 594.98
  Q 833.26 588.38 838.16 582.06
  Q 839.01 580.97 839.89 582.03
  Z"
/>
<path fill="#6d5845" d="
  M 1093.2306 617.5987
  A 19.32 19.09 -4.1 0 1 1075.3249 638.0211
  A 19.32 19.09 -4.1 0 1 1054.6894 620.3613
  A 19.32 19.09 -4.1 0 1 1072.5951 599.9389
  A 19.32 19.09 -4.1 0 1 1093.2306 617.5987
  Z
  M 1088.0902 617.7918
  A 14.20 14.00 -4.8 0 0 1072.7685 605.0291
  A 14.20 14.00 -4.8 0 0 1059.7898 620.1682
  A 14.20 14.00 -4.8 0 0 1075.1115 632.9309
  A 14.20 14.00 -4.8 0 0 1088.0902 617.7918
  Z"
/>
<path fill="#f8c059" d="
  M 944.86 622.38
  L 954.02 626.24
  A 1.27 1.27 0.0 0 1 954.11 628.53
  Q 950.14 630.58 947.38 628.39
  C 945.76 627.09 945.61 624.56 944.61 622.66
  Q 944.35 622.17 944.86 622.38
  Z"
/>
<path fill="#d3695b" d="
  M 422.07 757.32
  A 0.36 0.36 0.0 0 0 422.28 757.94
  Q 443.49 759.80 464.50 761.48
  Q 466.62 761.65 470.31 762.73
  Q 470.79 762.87 471.08 763.29
  C 476.99 771.98 476.03 787.84 473.34 797.51
  Q 472.68 799.86 471.05 801.61
  Q 470.71 801.97 470.22 801.98
  Q 463.87 802.20 460.25 801.93
  Q 420.96 799.07 379.00 792.55
  Q 371.74 791.42 366.24 789.92
  Q 365.74 789.78 365.56 789.29
  Q 364.42 786.19 364.61 783.51
  C 365.29 773.91 366.52 762.77 369.73 754.13
  Q 377.84 732.37 399.67 721.67
  Q 415.46 713.94 431.48 709.94
  C 435.64 708.90 440.27 706.01 439.58 701.11
  C 438.69 694.90 431.12 691.76 425.52 691.87
  C 419.74 691.98 416.08 694.88 415.51 700.70
  A 1.42 1.40 68.2 0 1 415.18 701.49
  Q 412.77 704.34 409.25 704.06
  Q 398.43 703.22 387.26 698.77
  C 380.81 696.21 374.23 691.70 378.37 683.67
  C 382.03 676.60 386.77 669.46 392.60 664.27
  C 415.12 644.20 454.13 647.43 473.03 670.39
  C 479.59 678.36 483.88 688.83 485.23 698.84
  C 487.64 716.65 476.62 735.63 459.54 741.56
  Q 456.68 742.55 445.84 745.04
  Q 432.26 748.15 422.07 757.32
  Z"
/>
<path fill="#6d5845" d="
  M 632.12 672.99
  C 653.71 682.97 665.49 705.64 667.42 728.76
  C 669.48 753.36 663.91 779.87 650.24 800.70
  Q 638.24 818.98 616.99 822.44
  C 601.53 824.96 583.10 823.51 568.87 817.04
  Q 547.66 807.40 538.54 784.47
  C 533.38 771.50 532.44 758.67 533.12 744.27
  Q 534.28 720.09 545.30 698.72
  C 554.31 681.26 565.94 670.64 586.00 667.79
  C 601.50 665.60 618.18 666.55 632.12 672.99
  Z
  M 557.46 689.21
  C 542.22 709.16 536.31 735.90 538.17 760.61
  C 540.16 787.25 555.23 810.08 582.24 816.30
  Q 595.52 819.35 610.24 818.20
  Q 634.06 816.34 646.58 796.85
  C 663.65 770.28 669.56 728.67 653.83 700.48
  Q 648.53 690.97 641.45 684.93
  C 625.64 671.43 601.56 669.44 581.75 673.78
  Q 566.74 677.06 557.46 689.21
  Z"
/>
<path fill="#d3695b" d="
  M 557.46 689.21
  Q 566.74 677.06 581.75 673.78
  C 601.56 669.44 625.64 671.43 641.45 684.93
  Q 648.53 690.97 653.83 700.48
  C 669.56 728.67 663.65 770.28 646.58 796.85
  Q 634.06 816.34 610.24 818.20
  Q 595.52 819.35 582.24 816.30
  C 555.23 810.08 540.16 787.25 538.17 760.61
  C 536.31 735.90 542.22 709.16 557.46 689.21
  Z
  M 615.96 763.21
  C 624.41 751.50 625.70 726.75 608.05 721.26
  C 604.72 720.22 598.50 720.18 595.49 720.58
  Q 588.02 721.58 583.56 728.86
  C 578.09 737.78 576.96 751.97 582.37 760.82
  C 588.89 771.49 608.28 773.85 615.96 763.21
  Z"
/>
<path fill="#6d5845" d="
  M 780.77 793.18
  A 0.35 0.35 0.0 0 0 780.91 793.84
  Q 796.76 794.66 812.52 796.50
  Q 820.48 797.43 822.56 805.47
  Q 826.76 821.70 822.39 838.68
  C 821.23 843.21 818.77 846.56 813.76 846.51
  C 809.96 846.47 806.13 846.59 802.43 846.32
  Q 760.13 843.19 718.27 836.30
  C 707.61 834.55 703.14 833.91 704.09 821.50
  C 704.80 812.27 705.73 802.20 708.48 793.89
  Q 714.62 775.30 729.91 763.72
  C 742.35 754.31 760.10 748.29 775.78 744.16
  Q 778.11 743.54 778.78 741.31
  A 1.00 0.98 -57.5 0 0 778.58 740.37
  Q 775.15 736.43 769.51 736.53
  C 765.89 736.59 765.63 737.93 764.69 741.23
  Q 762.61 748.56 754.74 748.55
  C 744.48 748.53 724.78 744.18 718.50 735.34
  C 712.33 726.66 720.04 716.80 725.13 709.41
  C 739.67 688.28 767.02 681.60 790.96 687.84
  C 814.67 694.02 830.12 711.77 834.17 735.68
  C 837.93 757.84 825.54 779.32 804.00 786.32
  C 796.16 788.87 788.32 789.44 780.77 793.18
  Z
  M 767.01 797.52
  Q 765.62 797.40 766.69 796.50
  C 776.03 788.59 784.59 785.54 796.23 783.15
  Q 816.44 779.02 825.49 761.46
  C 830.51 751.73 830.93 742.18 828.08 731.73
  Q 820.99 705.79 798.44 695.80
  C 779.17 687.26 757.20 689.09 739.98 701.38
  Q 734.83 705.06 730.58 710.66
  C 726.56 715.95 722.09 722.19 721.03 728.83
  A 1.70 1.69 37.1 0 0 721.17 729.81
  C 725.36 738.49 739.95 741.67 748.26 742.97
  Q 753.16 743.74 754.79 743.60
  C 760.98 743.06 758.87 738.64 761.58 735.22
  C 765.40 730.38 771.73 730.69 776.93 732.69
  C 781.23 734.34 785.27 739.10 783.45 743.92
  C 781.75 748.45 774.54 749.87 770.26 751.04
  C 755.59 755.07 737.11 762.32 726.55 773.59
  Q 719.60 781.01 715.39 790.27
  C 710.65 800.70 709.28 813.85 708.93 825.74
  C 708.86 827.94 709.47 829.32 711.80 829.85
  Q 718.65 831.41 723.50 832.17
  Q 762.20 838.26 801.25 841.24
  Q 807.81 841.75 814.41 841.44
  Q 814.92 841.41 815.27 841.06
  Q 816.91 839.47 817.52 837.26
  Q 821.74 822.06 817.51 807.01
  C 816.59 803.77 814.87 801.68 811.52 801.38
  Q 788.92 799.37 767.01 797.52
  Z"
/>
<path fill="#d3695b" d="
  M 767.01 797.52
  Q 788.92 799.37 811.52 801.38
  C 814.87 801.68 816.59 803.77 817.51 807.01
  Q 821.74 822.06 817.52 837.26
  Q 816.91 839.47 815.27 841.06
  Q 814.92 841.41 814.41 841.44
  Q 807.81 841.75 801.25 841.24
  Q 762.20 838.26 723.50 832.17
  Q 718.65 831.41 711.80 829.85
  C 709.47 829.32 708.86 827.94 708.93 825.74
  C 709.28 813.85 710.65 800.70 715.39 790.27
  Q 719.60 781.01 726.55 773.59
  C 737.11 762.32 755.59 755.07 770.26 751.04
  C 774.54 749.87 781.75 748.45 783.45 743.92
  C 785.27 739.10 781.23 734.34 776.93 732.69
  C 771.73 730.69 765.40 730.38 761.58 735.22
  C 758.87 738.64 760.98 743.06 754.79 743.60
  Q 753.16 743.74 748.26 742.97
  C 739.95 741.67 725.36 738.49 721.17 729.81
  A 1.70 1.69 37.1 0 1 721.03 728.83
  C 722.09 722.19 726.56 715.95 730.58 710.66
  Q 734.83 705.06 739.98 701.38
  C 757.20 689.09 779.17 687.26 798.44 695.80
  Q 820.99 705.79 828.08 731.73
  C 830.93 742.18 830.51 751.73 825.49 761.46
  Q 816.44 779.02 796.23 783.15
  C 784.59 785.54 776.03 788.59 766.69 796.50
  Q 765.62 797.40 767.01 797.52
  Z"
/>
<path fill="#d3695b" d="
  M 930.30 821.48
  Q 908.54 818.62 886.73 816.07
  Q 883.81 815.73 883.14 812.49
  C 880.61 800.39 879.65 782.30 886.89 771.32
  Q 895.49 758.29 908.78 746.26
  Q 928.32 728.59 944.05 716.80
  Q 947.16 714.47 952.24 713.57
  Q 967.06 710.95 981.49 715.10
  Q 987.29 716.77 990.49 719.49
  C 991.73 720.54 992.04 722.83 991.95 724.60
  Q 990.45 753.06 986.57 781.29
  Q 986.49 781.84 987.04 781.90
  Q 997.59 783.04 1007.65 786.40
  Q 1008.19 786.58 1008.34 787.12
  C 1008.69 788.39 1009.12 789.69 1009.06 791.02
  Q 1008.26 808.62 1002.82 823.79
  C 1001.08 828.65 985.20 826.92 980.97 826.37
  A 1.63 1.63 0.0 0 0 979.15 827.74
  Q 977.39 838.96 974.20 850.33
  C 972.80 855.33 972.22 859.13 967.02 859.40
  C 956.31 859.97 942.59 859.40 932.40 854.86
  Q 931.94 854.65 931.73 854.20
  Q 930.72 852.00 930.63 849.98
  Q 930.09 836.93 930.75 822.03
  Q 930.77 821.55 930.30 821.48
  Z
  M 930.22 782.48
  C 930.04 788.38 944.39 788.57 948.22 788.45
  Q 948.70 788.43 949.08 788.14
  C 952.49 785.54 951.82 774.65 951.35 770.15
  C 950.35 760.50 930.39 777.31 930.22 782.48
  Z"
/>
<path fill="#6d5845" d="
  M 608.05 721.26
  C 625.70 726.75 624.41 751.50 615.96 763.21
  C 608.28 773.85 588.89 771.49 582.37 760.82
  C 576.96 751.97 578.09 737.78 583.56 728.86
  Q 588.02 721.58 595.49 720.58
  C 598.50 720.18 604.72 720.22 608.05 721.26
  Z
  M 585.91 735.68
  C 582.31 746.17 582.30 761.24 595.92 764.37
  C 608.71 767.31 614.07 759.73 616.46 748.99
  C 618.82 738.36 614.14 725.89 601.94 725.32
  C 593.90 724.95 588.55 727.99 585.91 735.68
  Z"
/>
<path fill="#f8c059" d="
  M 585.91 735.68
  C 588.55 727.99 593.90 724.95 601.94 725.32
  C 614.14 725.89 618.82 738.36 616.46 748.99
  C 614.07 759.73 608.71 767.31 595.92 764.37
  C 582.30 761.24 582.31 746.17 585.91 735.68
  Z"
/>
<path fill="#6d5845" d="
  M 948.22 788.45
  C 944.39 788.57 930.04 788.38 930.22 782.48
  C 930.39 777.31 950.35 760.50 951.35 770.15
  C 951.82 774.65 952.49 785.54 949.08 788.14
  Q 948.70 788.43 948.22 788.45
  Z
  M 936.60 780.67
  A 0.42 0.42 0.0 0 0 936.97 781.40
  L 946.05 779.14
  A 0.42 0.42 0.0 0 0 946.36 778.80
  L 947.14 773.84
  A 0.42 0.42 0.0 0 0 946.59 773.38
  L 944.65 774.05
  A 0.42 0.42 0.0 0 0 944.52 774.12
  L 936.60 780.67
  Z
  M 945.27 782.46
  Q 944.22 782.40 943.59 783.18
  Q 943.30 783.53 943.75 783.59
  Q 945.45 783.84 946.54 782.69
  A 0.27 0.27 0.0 0 0 946.26 782.25
  L 945.86 782.38
  Q 945.57 782.47 945.27 782.46
  Z"
/>
<path fill="#f8c059" d="
  M 936.60 780.67
  L 944.52 774.12
  A 0.42 0.42 0.0 0 1 944.65 774.05
  L 946.59 773.38
  A 0.42 0.42 0.0 0 1 947.14 773.84
  L 946.36 778.80
  A 0.42 0.42 0.0 0 1 946.05 779.14
  L 936.97 781.40
  A 0.42 0.42 0.0 0 1 936.60 780.67
  Z"
/>
</svg>
