<?xml version="1.0" encoding="UTF-8" standalone="no"?>
<!DOCTYPE svg PUBLIC "-//W3C//DTD SVG 1.1//EN" "http://www.w3.org/Graphics/SVG/1.1/DTD/svg11.dtd">
<svg xmlns="http://www.w3.org/2000/svg" version="1.1" viewBox="0.00 0.00 1763.00 1188.00">
<g stroke-width="2.00" fill="none" stroke-linecap="butt">
<path stroke="#ae5840" vector-effect="non-scaling-stroke" d="
  M 1763.00 7.23
  C 1719.08 16.74 1676.09 31.79 1633.33 49.32
  Q 1566.28 76.80 1501.22 108.71
  C 1404.69 156.05 1311.16 206.93 1216.58 261.33
  C 1026.66 370.55 836.46 489.25 658.00 607.09
  Q 657.49 607.44 657.29 608.02
  L 642.69 652.76
  Q 642.53 653.25 642.84 653.66
  L 672.72 692.74
  Q 673.05 693.17 673.51 692.88
  Q 913.32 542.66 1163.17 409.83
  Q 1298.66 337.80 1441.97 269.73
  Q 1601.50 193.96 1763.00 130.93"
/>
<path stroke="#647b6f" vector-effect="non-scaling-stroke" d="
  M 1252.68 72.72
  C 1303.87 45.56 1357.22 21.11 1412.14 3.08
  Q 1414.52 2.29 1412.01 2.29
  Q 1299.93 2.36 1187.87 2.49
  Q 1186.92 2.50 1186.04 2.91
  Q 1142.36 23.25 1100.98 47.95
  C 1019.67 96.48 942.14 152.13 867.25 210.00
  C 739.58 308.64 616.56 413.70 497.66 522.83
  Q 497.10 523.34 497.71 523.79
  L 544.80 558.00
  Q 545.27 558.34 545.82 558.15
  Q 572.55 548.99 599.07 539.37
  Q 601.70 538.41 603.84 536.57
  Q 763.76 398.68 934.70 274.70
  Q 995.07 230.91 1067.66 182.92
  Q 1159.92 121.93 1252.68 72.72"
/>
<path stroke="#b28140" vector-effect="non-scaling-stroke" d="
  M 689.79 508.27
  L 660.17 599.22
  A 0.33 0.33 0.0 0 0 660.66 599.60
  C 856.56 470.50 1056.09 346.36 1260.35 230.90
  Q 1349.46 180.53 1440.50 133.76
  C 1506.17 100.02 1574.36 67.77 1642.30 40.57
  C 1681.00 25.08 1720.60 11.90 1761.29 2.74
  A 0.21 0.21 0.0 0 0 1761.25 2.32
  Q 1597.86 2.34 1434.26 2.34
  Q 1430.72 2.34 1427.38 3.35
  C 1382.95 16.75 1339.67 34.76 1297.25 55.44
  C 1221.60 92.31 1149.39 135.07 1078.34 181.61
  Q 1001.27 232.07 926.85 286.37
  Q 765.98 403.74 614.79 533.46
  A 0.23 0.23 0.0 0 0 615.01 533.86
  L 689.22 507.72
  Q 690.07 507.42 689.79 508.27"
/>
<path stroke="#b38c4f" vector-effect="non-scaling-stroke" d="
  M 579.60 770.49
  A 0.31 0.31 0.0 0 1 579.85 770.36
  L 725.44 770.36
  A 0.31 0.31 0.0 0 0 725.69 769.86
  L 637.27 654.37
  A 0.31 0.31 0.0 0 1 637.22 654.08
  L 682.31 515.77
  A 0.31 0.31 0.0 0 0 681.91 515.38
  L 544.64 563.75
  A 0.31 0.31 0.0 0 1 544.36 563.70
  L 426.75 478.12
  A 0.31 0.31 0.0 0 0 426.26 478.38
  L 429.89 623.81
  A 0.31 0.31 0.0 0 1 429.76 624.07
  L 312.04 709.43
  A 0.31 0.31 0.0 0 0 312.13 709.98
  L 451.53 751.47
  A 0.31 0.31 0.0 0 1 451.74 751.68
  L 496.60 889.99
  A 0.31 0.31 0.0 0 0 497.15 890.07
  L 579.60 770.49"
/>
</g>
<path fill="#6d5845" d="
  M 1180.56 0.00
  L 1763.00 0.00
  L 1763.00 7.23
  C 1719.08 16.74 1676.09 31.79 1633.33 49.32
  Q 1566.28 76.80 1501.22 108.71
  C 1404.69 156.05 1311.16 206.93 1216.58 261.33
  C 1026.66 370.55 836.46 489.25 658.00 607.09
  Q 657.49 607.44 657.29 608.02
  L 642.69 652.76
  Q 642.53 653.25 642.84 653.66
  L 672.72 692.74
  Q 673.05 693.17 673.51 692.88
  Q 913.32 542.66 1163.17 409.83
  Q 1298.66 337.80 1441.97 269.73
  Q 1601.50 193.96 1763.00 130.93
  L 1763.00 136.21
  Q 1682.99 167.16 1604.35 201.32
  C 1466.32 261.27 1330.88 327.18 1197.69 397.20
  Q 971.68 516.01 753.67 648.94
  Q 714.96 672.55 676.85 696.62
  A 0.86 0.86 0.0 0 0 676.63 697.87
  L 735.29 774.47
  A 0.42 0.41 70.9 0 1 734.97 775.14
  L 582.80 775.14
  A 1.05 1.04 17.2 0 0 581.94 775.59
  L 495.77 900.56
  Q 495.24 901.33 494.95 900.44
  L 448.10 755.95
  A 1.13 1.11 -0.4 0 0 447.35 755.22
  L 301.64 711.85
  A 0.42 0.42 0.0 0 1 301.52 711.11
  L 424.74 621.76
  Q 425.11 621.50 425.09 621.05
  L 421.31 469.26
  Q 421.28 468.16 422.17 468.81
  L 492.64 520.11
  Q 493.05 520.41 493.43 520.06
  C 602.01 420.45 719.49 319.58 838.33 226.32
  C 917.99 163.81 999.91 104.00 1086.70 50.93
  Q 1133.06 22.59 1180.56 0.00
  Z
  M 1252.68 72.72
  C 1303.87 45.56 1357.22 21.11 1412.14 3.08
  Q 1414.52 2.29 1412.01 2.29
  Q 1299.93 2.36 1187.87 2.49
  Q 1186.92 2.50 1186.04 2.91
  Q 1142.36 23.25 1100.98 47.95
  C 1019.67 96.48 942.14 152.13 867.25 210.00
  C 739.58 308.64 616.56 413.70 497.66 522.83
  Q 497.10 523.34 497.71 523.79
  L 544.80 558.00
  Q 545.27 558.34 545.82 558.15
  Q 572.55 548.99 599.07 539.37
  Q 601.70 538.41 603.84 536.57
  Q 763.76 398.68 934.70 274.70
  Q 995.07 230.91 1067.66 182.92
  Q 1159.92 121.93 1252.68 72.72
  Z
  M 689.79 508.27
  L 660.17 599.22
  A 0.33 0.33 0.0 0 0 660.66 599.60
  C 856.56 470.50 1056.09 346.36 1260.35 230.90
  Q 1349.46 180.53 1440.50 133.76
  C 1506.17 100.02 1574.36 67.77 1642.30 40.57
  C 1681.00 25.08 1720.60 11.90 1761.29 2.74
  A 0.21 0.21 0.0 0 0 1761.25 2.32
  Q 1597.86 2.34 1434.26 2.34
  Q 1430.72 2.34 1427.38 3.35
  C 1382.95 16.75 1339.67 34.76 1297.25 55.44
  C 1221.60 92.31 1149.39 135.07 1078.34 181.61
  Q 1001.27 232.07 926.85 286.37
  Q 765.98 403.74 614.79 533.46
  A 0.23 0.23 0.0 0 0 615.01 533.86
  L 689.22 507.72
  Q 690.07 507.42 689.79 508.27
  Z
  M 579.60 770.49
  A 0.31 0.31 0.0 0 1 579.85 770.36
  L 725.44 770.36
  A 0.31 0.31 0.0 0 0 725.69 769.86
  L 637.27 654.37
  A 0.31 0.31 0.0 0 1 637.22 654.08
  L 682.31 515.77
  A 0.31 0.31 0.0 0 0 681.91 515.38
  L 544.64 563.75
  A 0.31 0.31 0.0 0 1 544.36 563.70
  L 426.75 478.12
  A 0.31 0.31 0.0 0 0 426.26 478.38
  L 429.89 623.81
  A 0.31 0.31 0.0 0 1 429.76 624.07
  L 312.04 709.43
  A 0.31 0.31 0.0 0 0 312.13 709.98
  L 451.53 751.47
  A 0.31 0.31 0.0 0 1 451.74 751.68
  L 496.60 889.99
  A 0.31 0.31 0.0 0 0 497.15 890.07
  L 579.60 770.49
  Z"
/>
<path fill="#5a9e99" d="
  M 1252.68 72.72
  Q 1159.92 121.93 1067.66 182.92
  Q 995.07 230.91 934.70 274.70
  Q 763.76 398.68 603.84 536.57
  Q 601.70 538.41 599.07 539.37
  Q 572.55 548.99 545.82 558.15
  Q 545.27 558.34 544.80 558.00
  L 497.71 523.79
  Q 497.10 523.34 497.66 522.83
  C 616.56 413.70 739.58 308.64 867.25 210.00
  C 942.14 152.13 1019.67 96.48 1100.98 47.95
  Q 1142.36 23.25 1186.04 2.91
  Q 1186.92 2.50 1187.87 2.49
  Q 1299.93 2.36 1412.01 2.29
  Q 1414.52 2.29 1412.14 3.08
  C 1357.22 21.11 1303.87 45.56 1252.68 72.72
  Z"
/>
<path fill="#f6aa3a" d="
  M 689.79 508.27
  Q 690.07 507.42 689.22 507.72
  L 615.01 533.86
  A 0.23 0.23 0.0 0 1 614.79 533.46
  Q 765.98 403.74 926.85 286.37
  Q 1001.27 232.07 1078.34 181.61
  C 1149.39 135.07 1221.60 92.31 1297.25 55.44
  C 1339.67 34.76 1382.95 16.75 1427.38 3.35
  Q 1430.72 2.34 1434.26 2.34
  Q 1597.86 2.34 1761.25 2.32
  A 0.21 0.21 0.0 0 1 1761.29 2.74
  C 1720.60 11.90 1681.00 25.08 1642.30 40.57
  C 1574.36 67.77 1506.17 100.02 1440.50 133.76
  Q 1349.46 180.53 1260.35 230.90
  C 1056.09 346.36 856.56 470.50 660.66 599.60
  A 0.33 0.33 0.0 0 1 660.17 599.22
  L 689.79 508.27
  Z"
/>
<path fill="#ee583b" d="
  M 1763.00 7.23
  L 1763.00 130.93
  Q 1601.50 193.96 1441.97 269.73
  Q 1298.66 337.80 1163.17 409.83
  Q 913.32 542.66 673.51 692.88
  Q 673.05 693.17 672.72 692.74
  L 642.84 653.66
  Q 642.53 653.25 642.69 652.76
  L 657.29 608.02
  Q 657.49 607.44 658.00 607.09
  C 836.46 489.25 1026.66 370.55 1216.58 261.33
  C 1311.16 206.93 1404.69 156.05 1501.22 108.71
  Q 1566.28 76.80 1633.33 49.32
  C 1676.09 31.79 1719.08 16.74 1763.00 7.23
  Z"
/>
<path fill="#f8c059" d="
  M 579.60 770.49
  L 497.15 890.07
  A 0.31 0.31 0.0 0 1 496.60 889.99
  L 451.74 751.68
  A 0.31 0.31 0.0 0 0 451.53 751.47
  L 312.13 709.98
  A 0.31 0.31 0.0 0 1 312.04 709.43
  L 429.76 624.07
  A 0.31 0.31 0.0 0 0 429.89 623.81
  L 426.26 478.38
  A 0.31 0.31 0.0 0 1 426.75 478.12
  L 544.36 563.70
  A 0.31 0.31 0.0 0 0 544.64 563.75
  L 681.91 515.38
  A 0.31 0.31 0.0 0 1 682.31 515.77
  L 637.22 654.08
  A 0.31 0.31 0.0 0 0 637.27 654.37
  L 725.69 769.86
  A 0.31 0.31 0.0 0 1 725.44 770.36
  L 579.85 770.36
  A 0.31 0.31 0.0 0 0 579.60 770.49
  Z"
/>
</svg>
