<?xml version="1.0" encoding="UTF-8" standalone="no"?>
<!DOCTYPE svg PUBLIC "-//W3C//DTD SVG 1.1//EN" "http://www.w3.org/Graphics/SVG/1.1/DTD/svg11.dtd">
<svg xmlns="http://www.w3.org/2000/svg" version="1.1" viewBox="0.00 0.00 1448.00 1448.00">
<g stroke-width="2.00" fill="none" stroke-linecap="butt">
<path stroke="#af9d83" vector-effect="non-scaling-stroke" d="
  M 799.50 830.67
  A 0.23 0.23 0.0 0 1 799.95 830.63
  Q 809.96 862.27 826.20 891.27
  C 838.25 912.80 857.08 937.99 879.52 948.51
  C 907.23 961.50 933.94 948.30 953.96 928.47
  Q 954.32 928.12 954.83 928.19
  Q 988.86 933.33 1020.88 922.71
  C 1058.87 910.10 1083.07 879.62 1092.85 841.88
  A 0.30 0.30 0.0 0 1 1093.39 841.79
  Q 1108.25 863.55 1127.03 881.97
  C 1164.19 918.43 1213.48 946.92 1266.92 926.82
  Q 1297.11 915.47 1310.61 886.15
  Q 1318.07 869.94 1319.52 854.24
  C 1324.87 796.57 1291.99 743.95 1240.11 719.68
  C 1198.98 700.43 1151.41 698.71 1107.22 707.17
  Q 1106.71 707.27 1106.39 706.86
  Q 1069.92 660.06 1018.30 633.69
  Q 955.63 601.69 887.17 617.68
  C 839.12 628.90 794.54 659.21 759.26 693.17
  Q 758.89 693.53 758.39 693.41
  C 707.57 681.51 654.69 696.94 628.23 744.50
  Q 627.96 744.98 627.44 744.79
  Q 609.58 738.14 592.74 739.69
  C 569.50 741.83 553.91 756.03 544.97 777.38
  Q 544.77 777.87 544.26 777.75
  Q 506.93 769.45 470.78 779.72
  C 425.68 792.54 396.69 828.94 382.51 872.07
  Q 382.34 872.59 381.80 872.47
  C 326.63 859.43 247.05 862.53 239.77 937.02
  C 238.77 947.31 238.85 957.80 242.79 966.74
  C 262.66 1011.77 354.69 988.15 389.00 976.55
  Q 389.47 976.39 389.94 976.55
  C 418.93 986.50 451.42 989.11 481.30 982.03
  C 518.31 973.27 547.51 949.00 566.53 916.92
  A 0.49 0.49 0.0 0 1 567.30 916.82
  C 581.20 930.65 602.94 944.39 622.83 945.89
  C 647.62 947.77 664.19 928.94 672.87 907.27
  Q 673.08 906.74 673.63 906.91
  Q 697.16 914.17 721.72 912.90
  C 771.39 910.32 794.41 876.07 799.50 830.67"
/>
<path stroke="#a89170" vector-effect="non-scaling-stroke" d="
  M 563.75 960.27
  Q 563.78 957.62 564.86 960.04
  C 582.42 999.56 614.79 1026.94 660.71 1011.21
  Q 687.62 1002.00 710.52 980.65
  Q 710.92 980.28 711.42 980.48
  C 748.53 995.09 787.65 987.90 813.01 955.81
  Q 813.39 955.32 813.70 955.86
  C 823.89 973.41 836.47 989.88 853.44 1001.31
  C 881.64 1020.32 916.37 1018.48 944.46 999.99
  Q 944.88 999.71 945.32 999.98
  C 968.46 1014.07 993.18 1017.16 1018.16 1005.63
  Q 1030.34 1000.01 1040.18 990.81
  A 1.16 1.14 -63.3 0 1 1041.07 990.51
  Q 1061.51 992.68 1080.73 987.92
  C 1108.98 980.93 1130.25 958.80 1134.94 929.72
  A 0.33 0.33 0.0 0 1 1135.53 929.57
  C 1150.11 948.75 1172.25 970.12 1195.98 975.75
  C 1231.68 984.22 1261.07 955.59 1276.50 927.20
  Q 1276.80 926.66 1276.23 926.92
  C 1204.40 960.47 1134.48 904.66 1094.83 850.14
  Q 1094.45 849.62 1094.21 850.23
  Q 1092.87 853.72 1091.59 857.18
  C 1070.00 915.54 1015.24 939.74 956.02 932.04
  Q 955.52 931.97 955.15 932.33
  Q 945.97 941.25 933.52 948.50
  C 892.82 972.17 857.26 944.32 835.20 911.80
  Q 814.22 880.85 801.24 845.64
  Q 800.90 844.74 800.72 845.69
  C 793.38 883.91 768.68 911.76 728.60 915.92
  Q 701.72 918.71 675.83 911.24
  Q 675.20 911.06 674.95 911.66
  C 666.06 932.40 649.60 949.68 625.69 949.45
  C 604.47 949.25 583.32 936.05 567.91 922.55
  Q 567.49 922.18 567.18 922.66
  C 544.93 958.14 511.28 981.84 469.25 987.95
  Q 429.96 993.67 390.07 980.34
  Q 389.60 980.18 389.12 980.33
  C 356.43 991.09 320.53 998.59 285.99 995.99
  Q 281.33 995.63 270.78 993.14
  Q 270.11 992.98 270.52 993.54
  C 301.56 1035.74 350.27 1048.44 400.51 1040.97
  Q 449.52 1033.68 494.31 1010.37
  Q 494.75 1010.14 495.26 1010.17
  C 515.57 1011.56 537.23 1008.32 551.57 992.26
  Q 563.49 978.91 563.75 960.27"
/>
<path stroke="#a89786" vector-effect="non-scaling-stroke" d="
  M 756.50 1015.38
  C 812.03 1058.48 885.91 1057.32 948.28 1031.23
  Q 948.75 1031.04 949.20 1031.26
  Q 988.03 1050.39 1031.52 1047.22
  C 1078.37 1043.81 1125.02 1024.90 1163.87 999.03
  Q 1164.30 998.74 1164.73 999.03
  C 1177.47 1007.57 1194.52 1010.64 1208.47 1002.97
  Q 1226.03 993.32 1236.60 974.26
  Q 1236.85 973.82 1236.39 974.05
  C 1196.85 994.51 1161.95 965.92 1137.54 937.90
  Q 1137.16 937.47 1136.98 938.02
  C 1123.19 981.66 1085.68 997.94 1042.33 994.20
  A 1.21 1.15 25.5 0 0 1041.45 994.49
  C 1015.90 1017.47 981.22 1023.21 950.31 1006.85
  Q 947.80 1005.52 945.34 1004.24
  Q 944.87 1004.00 944.42 1004.27
  Q 927.53 1014.71 908.49 1017.48
  C 865.33 1023.75 834.48 996.53 813.33 962.30
  Q 813.04 961.84 812.67 962.24
  C 785.81 991.40 749.81 997.81 712.25 984.73
  Q 711.76 984.56 711.37 984.90
  C 686.29 1007.30 647.88 1027.48 613.50 1015.84
  C 592.25 1008.65 577.32 990.94 566.67 971.81
  Q 566.41 971.35 566.26 971.85
  C 556.47 1004.68 528.82 1016.13 496.28 1013.74
  Q 495.78 1013.71 495.34 1013.94
  C 448.56 1037.93 390.57 1053.87 338.13 1042.53
  Q 337.65 1042.42 337.84 1042.87
  C 356.30 1085.92 403.26 1079.55 436.64 1061.77
  Q 437.10 1061.52 437.55 1061.79
  Q 503.35 1100.84 576.07 1074.30
  Q 613.78 1060.54 644.28 1034.37
  Q 644.67 1034.03 645.13 1034.27
  C 682.15 1053.37 724.59 1038.56 755.66 1015.37
  Q 756.08 1015.05 756.50 1015.38"
/>
</g>
<path fill="#6d5845" d="
  M 626.55 740.01
  Q 655.13 693.27 710.28 687.09
  Q 733.91 684.45 757.43 689.47
  Q 757.93 689.58 758.30 689.22
  C 818.01 631.79 897.95 592.35 982.00 615.75
  C 1031.53 629.53 1076.12 662.95 1107.96 702.86
  Q 1108.27 703.25 1108.76 703.16
  C 1151.63 695.66 1197.09 697.12 1237.62 714.59
  C 1293.12 738.51 1328.79 794.09 1323.03 854.49
  C 1320.42 881.82 1306.77 908.16 1283.01 923.23
  A 1.76 1.75 86.9 0 0 1282.36 923.96
  Q 1268.96 950.93 1245.05 968.93
  Q 1243.29 970.25 1242.24 972.20
  Q 1234.50 986.46 1223.17 996.87
  Q 1196.69 1021.19 1164.66 1003.40
  A 0.83 0.82 -46.6 0 0 1163.81 1003.43
  C 1125.99 1028.05 1081.48 1046.05 1036.28 1050.44
  Q 990.39 1054.91 949.09 1035.22
  Q 948.64 1035.00 948.18 1035.19
  C 885.66 1060.57 812.38 1061.88 756.37 1019.83
  Q 755.97 1019.53 755.57 1019.83
  Q 733.05 1036.41 705.57 1043.58
  Q 674.38 1051.72 645.53 1038.66
  Q 645.07 1038.45 644.68 1038.78
  Q 612.89 1065.27 574.50 1078.65
  Q 502.76 1103.65 437.44 1065.91
  A 0.93 0.92 46.5 0 0 436.55 1065.88
  C 404.57 1082.27 360.60 1088.80 338.62 1052.16
  Q 335.60 1047.12 333.20 1041.72
  Q 332.97 1041.21 332.44 1041.06
  Q 289.44 1028.51 264.67 991.35
  A 1.58 1.57 -5.9 0 0 263.95 990.77
  Q 237.17 979.97 235.78 950.99
  Q 235.01 934.86 239.87 918.28
  C 257.39 858.46 331.23 857.42 379.52 868.31
  Q 380.08 868.44 380.26 867.90
  C 399.06 812.89 439.75 775.52 499.26 771.01
  Q 520.90 769.37 542.18 773.61
  Q 542.69 773.71 542.90 773.24
  C 558.24 738.22 591.23 729.67 625.78 740.30
  Q 626.28 740.45 626.55 740.01
  Z
  M 799.50 830.67
  A 0.23 0.23 0.0 0 1 799.95 830.63
  Q 809.96 862.27 826.20 891.27
  C 838.25 912.80 857.08 937.99 879.52 948.51
  C 907.23 961.50 933.94 948.30 953.96 928.47
  Q 954.32 928.12 954.83 928.19
  Q 988.86 933.33 1020.88 922.71
  C 1058.87 910.10 1083.07 879.62 1092.85 841.88
  A 0.30 0.30 0.0 0 1 1093.39 841.79
  Q 1108.25 863.55 1127.03 881.97
  C 1164.19 918.43 1213.48 946.92 1266.92 926.82
  Q 1297.11 915.47 1310.61 886.15
  Q 1318.07 869.94 1319.52 854.24
  C 1324.87 796.57 1291.99 743.95 1240.11 719.68
  C 1198.98 700.43 1151.41 698.71 1107.22 707.17
  Q 1106.71 707.27 1106.39 706.86
  Q 1069.92 660.06 1018.30 633.69
  Q 955.63 601.69 887.17 617.68
  C 839.12 628.90 794.54 659.21 759.26 693.17
  Q 758.89 693.53 758.39 693.41
  C 707.57 681.51 654.69 696.94 628.23 744.50
  Q 627.96 744.98 627.44 744.79
  Q 609.58 738.14 592.74 739.69
  C 569.50 741.83 553.91 756.03 544.97 777.38
  Q 544.77 777.87 544.26 777.75
  Q 506.93 769.45 470.78 779.72
  C 425.68 792.54 396.69 828.94 382.51 872.07
  Q 382.34 872.59 381.80 872.47
  C 326.63 859.43 247.05 862.53 239.77 937.02
  C 238.77 947.31 238.85 957.80 242.79 966.74
  C 262.66 1011.77 354.69 988.15 389.00 976.55
  Q 389.47 976.39 389.94 976.55
  C 418.93 986.50 451.42 989.11 481.30 982.03
  C 518.31 973.27 547.51 949.00 566.53 916.92
  A 0.49 0.49 0.0 0 1 567.30 916.82
  C 581.20 930.65 602.94 944.39 622.83 945.89
  C 647.62 947.77 664.19 928.94 672.87 907.27
  Q 673.08 906.74 673.63 906.91
  Q 697.16 914.17 721.72 912.90
  C 771.39 910.32 794.41 876.07 799.50 830.67
  Z
  M 563.75 960.27
  Q 563.78 957.62 564.86 960.04
  C 582.42 999.56 614.79 1026.94 660.71 1011.21
  Q 687.62 1002.00 710.52 980.65
  Q 710.92 980.28 711.42 980.48
  C 748.53 995.09 787.65 987.90 813.01 955.81
  Q 813.39 955.32 813.70 955.86
  C 823.89 973.41 836.47 989.88 853.44 1001.31
  C 881.64 1020.32 916.37 1018.48 944.46 999.99
  Q 944.88 999.71 945.32 999.98
  C 968.46 1014.07 993.18 1017.16 1018.16 1005.63
  Q 1030.34 1000.01 1040.18 990.81
  A 1.16 1.14 -63.3 0 1 1041.07 990.51
  Q 1061.51 992.68 1080.73 987.92
  C 1108.98 980.93 1130.25 958.80 1134.94 929.72
  A 0.33 0.33 0.0 0 1 1135.53 929.57
  C 1150.11 948.75 1172.25 970.12 1195.98 975.75
  C 1231.68 984.22 1261.07 955.59 1276.50 927.20
  Q 1276.80 926.66 1276.23 926.92
  C 1204.40 960.47 1134.48 904.66 1094.83 850.14
  Q 1094.45 849.62 1094.21 850.23
  Q 1092.87 853.72 1091.59 857.18
  C 1070.00 915.54 1015.24 939.74 956.02 932.04
  Q 955.52 931.97 955.15 932.33
  Q 945.97 941.25 933.52 948.50
  C 892.82 972.17 857.26 944.32 835.20 911.80
  Q 814.22 880.85 801.24 845.64
  Q 800.90 844.74 800.72 845.69
  C 793.38 883.91 768.68 911.76 728.60 915.92
  Q 701.72 918.71 675.83 911.24
  Q 675.20 911.06 674.95 911.66
  C 666.06 932.40 649.60 949.68 625.69 949.45
  C 604.47 949.25 583.32 936.05 567.91 922.55
  Q 567.49 922.18 567.18 922.66
  C 544.93 958.14 511.28 981.84 469.25 987.95
  Q 429.96 993.67 390.07 980.34
  Q 389.60 980.18 389.12 980.33
  C 356.43 991.09 320.53 998.59 285.99 995.99
  Q 281.33 995.63 270.78 993.14
  Q 270.11 992.98 270.52 993.54
  C 301.56 1035.74 350.27 1048.44 400.51 1040.97
  Q 449.52 1033.68 494.31 1010.37
  Q 494.75 1010.14 495.26 1010.17
  C 515.57 1011.56 537.23 1008.32 551.57 992.26
  Q 563.49 978.91 563.75 960.27
  Z
  M 756.50 1015.38
  C 812.03 1058.48 885.91 1057.32 948.28 1031.23
  Q 948.75 1031.04 949.20 1031.26
  Q 988.03 1050.39 1031.52 1047.22
  C 1078.37 1043.81 1125.02 1024.90 1163.87 999.03
  Q 1164.30 998.74 1164.73 999.03
  C 1177.47 1007.57 1194.52 1010.64 1208.47 1002.97
  Q 1226.03 993.32 1236.60 974.26
  Q 1236.85 973.82 1236.39 974.05
  C 1196.85 994.51 1161.95 965.92 1137.54 937.90
  Q 1137.16 937.47 1136.98 938.02
  C 1123.19 981.66 1085.68 997.94 1042.33 994.20
  A 1.21 1.15 25.5 0 0 1041.45 994.49
  C 1015.90 1017.47 981.22 1023.21 950.31 1006.85
  Q 947.80 1005.52 945.34 1004.24
  Q 944.87 1004.00 944.42 1004.27
  Q 927.53 1014.71 908.49 1017.48
  C 865.33 1023.75 834.48 996.53 813.33 962.30
  Q 813.04 961.84 812.67 962.24
  C 785.81 991.40 749.81 997.81 712.25 984.73
  Q 711.76 984.56 711.37 984.90
  C 686.29 1007.30 647.88 1027.48 613.50 1015.84
  C 592.25 1008.65 577.32 990.94 566.67 971.81
  Q 566.41 971.35 566.26 971.85
  C 556.47 1004.68 528.82 1016.13 496.28 1013.74
  Q 495.78 1013.71 495.34 1013.94
  C 448.56 1037.93 390.57 1053.87 338.13 1042.53
  Q 337.65 1042.42 337.84 1042.87
  C 356.30 1085.92 403.26 1079.55 436.64 1061.77
  Q 437.10 1061.52 437.55 1061.79
  Q 503.35 1100.84 576.07 1074.30
  Q 613.78 1060.54 644.28 1034.37
  Q 644.67 1034.03 645.13 1034.27
  C 682.15 1053.37 724.59 1038.56 755.66 1015.37
  Q 756.08 1015.05 756.50 1015.38
  Z"
/>
<path fill="#f0e1c1" d="
  M 799.50 830.67
  C 794.41 876.07 771.39 910.32 721.72 912.90
  Q 697.16 914.17 673.63 906.91
  Q 673.08 906.74 672.87 907.27
  C 664.19 928.94 647.62 947.77 622.83 945.89
  C 602.94 944.39 581.20 930.65 567.30 916.82
  A 0.49 0.49 0.0 0 0 566.53 916.92
  C 547.51 949.00 518.31 973.27 481.30 982.03
  C 451.42 989.11 418.93 986.50 389.94 976.55
  Q 389.47 976.39 389.00 976.55
  C 354.69 988.15 262.66 1011.77 242.79 966.74
  C 238.85 957.80 238.77 947.31 239.77 937.02
  C 247.05 862.53 326.63 859.43 381.80 872.47
  Q 382.34 872.59 382.51 872.07
  C 396.69 828.94 425.68 792.54 470.78 779.72
  Q 506.93 769.45 544.26 777.75
  Q 544.77 777.87 544.97 777.38
  C 553.91 756.03 569.50 741.83 592.74 739.69
  Q 609.58 738.14 627.44 744.79
  Q 627.96 744.98 628.23 744.50
  C 654.69 696.94 707.57 681.51 758.39 693.41
  Q 758.89 693.53 759.26 693.17
  C 794.54 659.21 839.12 628.90 887.17 617.68
  Q 955.63 601.69 1018.30 633.69
  Q 1069.92 660.06 1106.39 706.86
  Q 1106.71 707.27 1107.22 707.17
  C 1151.41 698.71 1198.98 700.43 1240.11 719.68
  C 1291.99 743.95 1324.87 796.57 1319.52 854.24
  Q 1318.07 869.94 1310.61 886.15
  Q 1297.11 915.47 1266.92 926.82
  C 1213.48 946.92 1164.19 918.43 1127.03 881.97
  Q 1108.25 863.55 1093.39 841.79
  A 0.30 0.30 0.0 0 0 1092.85 841.88
  C 1083.07 879.62 1058.87 910.10 1020.88 922.71
  Q 988.86 933.33 954.83 928.19
  Q 954.32 928.12 953.96 928.47
  C 933.94 948.30 907.23 961.50 879.52 948.51
  C 857.08 937.99 838.25 912.80 826.20 891.27
  Q 809.96 862.27 799.95 830.63
  A 0.23 0.23 0.0 0 0 799.50 830.67
  Z"
/>
<path fill="#e2c99a" d="
  M 563.75 960.27
  Q 563.49 978.91 551.57 992.26
  C 537.23 1008.32 515.57 1011.56 495.26 1010.17
  Q 494.75 1010.14 494.31 1010.37
  Q 449.52 1033.68 400.51 1040.97
  C 350.27 1048.44 301.56 1035.74 270.52 993.54
  Q 270.11 992.98 270.78 993.14
  Q 281.33 995.63 285.99 995.99
  C 320.53 998.59 356.43 991.09 389.12 980.33
  Q 389.60 980.18 390.07 980.34
  Q 429.96 993.67 469.25 987.95
  C 511.28 981.84 544.93 958.14 567.18 922.66
  Q 567.49 922.18 567.91 922.55
  C 583.32 936.05 604.47 949.25 625.69 949.45
  C 649.60 949.68 666.06 932.40 674.95 911.66
  Q 675.20 911.06 675.83 911.24
  Q 701.72 918.71 728.60 915.92
  C 768.68 911.76 793.38 883.91 800.72 845.69
  Q 800.90 844.74 801.24 845.64
  Q 814.22 880.85 835.20 911.80
  C 857.26 944.32 892.82 972.17 933.52 948.50
  Q 945.97 941.25 955.15 932.33
  Q 955.52 931.97 956.02 932.04
  C 1015.24 939.74 1070.00 915.54 1091.59 857.18
  Q 1092.87 853.72 1094.21 850.23
  Q 1094.45 849.62 1094.83 850.14
  C 1134.48 904.66 1204.40 960.47 1276.23 926.92
  Q 1276.80 926.66 1276.50 927.20
  C 1261.07 955.59 1231.68 984.22 1195.98 975.75
  C 1172.25 970.12 1150.11 948.75 1135.53 929.57
  A 0.33 0.33 0.0 0 0 1134.94 929.72
  C 1130.25 958.80 1108.98 980.93 1080.73 987.92
  Q 1061.51 992.68 1041.07 990.51
  A 1.16 1.14 -63.3 0 0 1040.18 990.81
  Q 1030.34 1000.01 1018.16 1005.63
  C 993.18 1017.16 968.46 1014.07 945.32 999.98
  Q 944.88 999.71 944.46 999.99
  C 916.37 1018.48 881.64 1020.32 853.44 1001.31
  C 836.47 989.88 823.89 973.41 813.70 955.86
  Q 813.39 955.32 813.01 955.81
  C 787.65 987.90 748.53 995.09 711.42 980.48
  Q 710.92 980.28 710.52 980.65
  Q 687.62 1002.00 660.71 1011.21
  C 614.79 1026.94 582.42 999.56 564.86 960.04
  Q 563.78 957.62 563.75 960.27
  Z"
/>
<path fill="#e3d6c7" d="
  M 755.66 1015.37
  C 724.59 1038.56 682.15 1053.37 645.13 1034.27
  Q 644.67 1034.03 644.28 1034.37
  Q 613.78 1060.54 576.07 1074.30
  Q 503.35 1100.84 437.55 1061.79
  Q 437.10 1061.52 436.64 1061.77
  C 403.26 1079.55 356.30 1085.92 337.84 1042.87
  Q 337.65 1042.42 338.13 1042.53
  C 390.57 1053.87 448.56 1037.93 495.34 1013.94
  Q 495.78 1013.71 496.28 1013.74
  C 528.82 1016.13 556.47 1004.68 566.26 971.85
  Q 566.41 971.35 566.67 971.81
  C 577.32 990.94 592.25 1008.65 613.50 1015.84
  C 647.88 1027.48 686.29 1007.30 711.37 984.90
  Q 711.76 984.56 712.25 984.73
  C 749.81 997.81 785.81 991.40 812.67 962.24
  Q 813.04 961.84 813.33 962.30
  C 834.48 996.53 865.33 1023.75 908.49 1017.48
  Q 927.53 1014.71 944.42 1004.27
  Q 944.87 1004.00 945.34 1004.24
  Q 947.80 1005.52 950.31 1006.85
  C 981.22 1023.21 1015.90 1017.47 1041.45 994.49
  A 1.21 1.15 25.5 0 1 1042.33 994.20
  C 1085.68 997.94 1123.19 981.66 1136.98 938.02
  Q 1137.16 937.47 1137.54 937.90
  C 1161.95 965.92 1196.85 994.51 1236.39 974.05
  Q 1236.85 973.82 1236.60 974.26
  Q 1226.03 993.32 1208.47 1002.97
  C 1194.52 1010.64 1177.47 1007.57 1164.73 999.03
  Q 1164.30 998.74 1163.87 999.03
  C 1125.02 1024.90 1078.37 1043.81 1031.52 1047.22
  Q 988.03 1050.39 949.20 1031.26
  Q 948.75 1031.04 948.28 1031.23
  C 885.91 1057.32 812.03 1058.48 756.50 1015.38
  Q 756.08 1015.05 755.66 1015.37
  Z"
/>
</svg>
