<?xml version="1.0" encoding="UTF-8" standalone="no"?>
<!DOCTYPE svg PUBLIC "-//W3C//DTD SVG 1.1//EN" "http://www.w3.org/Graphics/SVG/1.1/DTD/svg11.dtd">
<svg xmlns="http://www.w3.org/2000/svg" version="1.1" viewBox="0.00 0.00 2148.00 759.00">
<g stroke-width="2.00" fill="none" stroke-linecap="butt">
<path stroke="#af9d83" vector-effect="non-scaling-stroke" d="
  M 179.23 232.03
  C 171.28 229.10 167.64 221.76 175.50 215.50
  C 186.12 207.05 199.79 201.45 211.72 211.26
  Q 215.31 214.22 216.12 219.78
  C 216.96 225.55 222.85 228.39 228.24 228.04
  Q 255.68 226.27 282.02 216.65
  C 292.82 212.71 314.47 202.64 313.45 188.92
  Q 313.23 186.06 310.83 179.28
  C 305.69 164.81 297.64 151.93 286.09 141.50
  C 226.83 87.96 121.69 102.02 79.29 170.26
  Q 68.83 187.10 65.67 207.82
  C 61.12 237.58 63.93 268.21 83.39 291.99
  C 95.93 307.32 115.18 318.37 133.87 324.29
  Q 139.61 326.11 150.78 327.92
  Q 178.90 332.45 207.47 341.03
  C 221.46 345.23 225.97 362.12 209.73 367.76
  C 198.77 371.56 185.69 371.18 178.94 360.65
  Q 178.31 359.66 176.94 355.70
  C 174.27 347.96 165.16 344.61 158.27 342.92
  Q 127.43 335.37 95.77 343.04
  C 79.55 346.97 56.02 356.30 61.70 377.79
  Q 70.79 412.21 97.88 435.10
  C 129.19 461.56 164.87 472.21 205.74 470.44
  C 250.41 468.50 290.82 451.17 318.25 414.99
  Q 340.10 386.18 338.04 350.00
  C 334.47 287.27 282.66 254.76 226.73 242.62
  Q 212.18 239.47 197.51 236.93
  Q 188.14 235.32 179.23 232.03"
/>
<path stroke="#af9d83" vector-effect="non-scaling-stroke" d="
  M 825.59 131.03
  C 819.18 120.35 795.00 117.43 783.35 116.03
  Q 739.17 110.70 696.07 122.76
  C 686.63 125.41 672.65 131.90 671.56 143.00
  Q 670.77 151.08 670.58 161.99
  Q 670.46 169.06 670.89 181.00
  C 671.23 190.26 671.36 199.54 671.77 208.81
  C 674.92 280.53 681.24 352.54 692.68 423.44
  C 694.24 433.07 699.43 462.71 707.47 465.11
  Q 724.08 470.06 743.76 470.37
  C 757.47 470.59 809.98 471.49 815.32 458.26
  C 819.60 447.67 821.00 434.42 822.26 422.98
  Q 829.03 361.28 830.50 299.25
  C 831.77 245.46 832.55 192.72 827.89 140.37
  Q 827.32 133.91 825.59 131.03"
/>
<path stroke="#af9d83" vector-effect="non-scaling-stroke" d="
  M 536.42 340.40
  C 519.52 337.44 504.27 327.77 500.44 310.30
  C 497.13 295.22 500.24 278.66 510.96 266.97
  Q 534.61 241.21 569.59 237.27
  C 576.53 236.49 587.77 235.74 596.84 235.27
  Q 604.69 234.87 607.97 233.43
  Q 613.28 231.10 616.96 225.94
  C 625.42 214.03 625.71 199.82 623.28 185.76
  Q 619.55 164.19 611.68 145.31
  C 606.61 133.15 595.04 119.71 581.25 117.78
  Q 558.60 114.62 531.99 116.83
  Q 464.48 122.44 417.46 168.83
  C 396.31 189.70 380.82 216.09 372.00 244.38
  C 364.41 268.69 360.33 294.94 361.56 319.74
  C 365.73 403.50 435.91 461.35 516.02 469.27
  C 549.87 472.62 584.10 469.69 616.51 459.14
  C 626.31 455.94 632.59 453.70 636.82 445.01
  Q 643.41 431.51 643.40 415.75
  Q 643.38 389.21 633.99 364.49
  C 629.34 352.26 619.13 337.28 604.91 335.64
  Q 601.59 335.26 595.71 336.53
  Q 574.41 341.16 552.64 341.40
  Q 542.77 341.51 536.42 340.40"
/>
<path stroke="#af9d83" vector-effect="non-scaling-stroke" d="
  M 1755.84 137.87
  C 1750.48 128.50 1740.10 119.23 1729.00 117.76
  Q 1705.42 114.66 1680.01 116.64
  C 1611.98 121.96 1552.10 164.12 1526.07 227.97
  Q 1511.14 264.58 1509.56 303.76
  Q 1507.07 365.48 1547.53 411.73
  Q 1561.78 428.01 1578.30 438.94
  Q 1619.94 466.52 1670.00 469.92
  C 1702.26 472.12 1733.78 469.01 1764.60 459.13
  C 1772.62 456.56 1779.05 454.43 1783.02 448.23
  C 1796.31 427.48 1791.77 393.49 1784.33 370.73
  C 1779.93 357.25 1769.25 336.91 1752.93 335.52
  Q 1749.79 335.26 1744.15 336.47
  Q 1721.74 341.32 1698.75 341.51
  C 1678.30 341.69 1654.16 333.98 1648.92 311.40
  C 1642.96 285.71 1654.21 266.67 1675.41 252.89
  C 1689.68 243.62 1701.65 239.25 1718.93 237.27
  Q 1732.56 235.72 1746.29 235.21
  Q 1752.46 234.99 1755.55 233.67
  C 1772.84 226.28 1774.19 202.08 1771.43 186.26
  C 1768.55 169.77 1764.20 152.51 1755.84 137.87"
/>
<path stroke="#af9d83" vector-effect="non-scaling-stroke" d="
  M 998.88 228.51
  Q 1046.63 227.21 1080.00 224.50
  C 1084.63 224.13 1094.92 222.10 1098.57 219.67
  Q 1102.19 217.27 1103.07 212.04
  Q 1105.49 197.84 1105.96 189.75
  Q 1107.29 166.84 1105.21 144.00
  C 1104.83 139.79 1103.18 127.05 1099.80 124.42
  C 1095.72 121.25 1086.55 120.28 1081.23 119.68
  Q 1059.48 117.22 1037.59 116.95
  C 1035.62 116.92 1033.41 116.52 1031.25 116.52
  Q 1002.21 116.50 973.17 116.50
  C 971.62 116.50 969.96 116.88 968.50 116.91
  Q 926.79 117.55 885.30 121.77
  C 882.30 122.07 873.62 123.14 869.76 125.33
  C 858.14 131.90 859.00 173.00 858.62 184.84
  Q 857.45 221.16 858.23 257.50
  Q 858.36 263.63 858.59 282.50
  Q 858.77 297.21 860.23 331.51
  Q 862.34 381.25 868.65 430.61
  Q 869.72 438.95 870.79 443.83
  C 872.17 450.13 873.72 457.61 877.40 463.02
  Q 877.68 463.44 878.15 463.64
  Q 883.04 465.71 887.25 466.44
  C 903.35 469.22 918.52 469.83 936.49 470.26
  Q 1002.76 471.86 1068.74 465.15
  C 1080.96 463.91 1120.55 459.94 1122.93 450.69
  C 1125.28 441.55 1125.45 432.98 1125.56 422.06
  Q 1125.87 392.83 1120.85 363.99
  Q 1120.27 360.70 1118.17 355.49
  C 1115.64 349.20 1107.44 348.50 1101.22 348.11
  C 1095.46 347.75 1087.61 347.91 1080.59 348.24
  Q 1053.68 349.53 1026.75 350.35
  Q 1015.13 350.71 1003.45 350.42
  Q 1003.00 350.41 1003.00 349.96
  L 1003.00 333.72
  Q 1003.00 333.05 1003.67 333.00
  Q 1007.69 332.72 1017.99 332.39
  Q 1024.06 332.20 1041.22 330.24
  Q 1047.35 329.55 1049.04 328.87
  C 1053.34 327.16 1054.61 321.82 1055.05 317.73
  Q 1058.42 286.58 1048.39 256.97
  Q 1047.42 254.11 1045.36 251.29
  C 1044.05 249.49 1041.98 249.02 1040.00 248.73
  Q 1020.10 245.78 1000.62 245.58
  A 1.48 1.48 0.0 0 1 999.16 244.17
  L 998.37 229.07
  Q 998.34 228.53 998.88 228.51"
/>
<path stroke="#af9d83" vector-effect="non-scaling-stroke" d="
  M 1352.40 216.44
  Q 1352.33 217.32 1351.83 216.59
  C 1339.90 199.10 1327.10 182.29 1314.25 165.41
  Q 1303.60 151.42 1295.11 142.89
  C 1285.57 133.32 1277.35 126.86 1265.51 123.77
  Q 1257.36 121.64 1249.00 120.51
  C 1223.17 117.02 1196.06 116.68 1170.37 121.59
  C 1164.44 122.72 1153.38 125.54 1152.42 132.48
  Q 1146.21 177.17 1145.89 227.75
  C 1145.87 230.00 1145.50 232.36 1145.50 234.43
  Q 1145.50 269.34 1145.50 304.24
  C 1145.50 310.80 1145.91 319.03 1146.06 327.25
  Q 1146.54 354.56 1148.94 391.76
  Q 1150.63 418.00 1154.69 443.97
  Q 1156.16 453.39 1157.80 457.19
  C 1160.29 462.95 1164.30 464.66 1170.53 466.18
  Q 1179.04 468.25 1187.76 469.10
  Q 1209.21 471.19 1230.75 470.56
  Q 1246.72 470.10 1261.70 464.64
  C 1267.00 462.70 1269.44 445.38 1269.99 441.24
  Q 1275.50 399.32 1278.70 357.32
  A 0.28 0.28 0.0 0 1 1279.20 357.18
  C 1286.55 367.41 1292.14 373.91 1302.71 386.53
  Q 1331.53 420.96 1363.65 452.34
  C 1369.56 458.11 1377.17 465.04 1385.25 466.98
  Q 1393.43 468.95 1404.05 469.79
  Q 1430.35 471.88 1456.50 468.56
  Q 1462.96 467.74 1471.77 465.28
  C 1478.11 463.51 1479.94 460.37 1480.82 453.75
  C 1484.20 428.13 1485.40 399.22 1486.32 365.00
  C 1486.81 346.76 1487.46 328.51 1487.48 310.25
  Q 1487.52 265.22 1487.49 220.18
  C 1487.49 217.63 1487.09 214.76 1487.07 212.50
  Q 1486.76 174.01 1483.49 135.66
  C 1483.24 132.72 1483.09 128.84 1480.95 127.05
  Q 1475.80 122.74 1465.92 120.73
  Q 1418.18 111.01 1371.03 123.14
  C 1363.39 125.11 1353.37 128.72 1351.08 137.12
  Q 1350.48 139.32 1350.52 148.43
  Q 1350.62 169.10 1351.76 189.75
  Q 1351.98 193.66 1351.94 198.25
  C 1351.87 205.08 1352.94 210.48 1352.40 216.44"
/>
<path stroke="#af9d83" vector-effect="non-scaling-stroke" d="
  M 1958.07 332.97
  C 1960.16 333.18 1962.15 332.61 1963.93 332.57
  Q 1975.13 332.35 1991.50 330.78
  C 1997.05 330.25 2006.07 330.13 2007.97 324.20
  Q 2009.82 318.39 2010.20 311.25
  Q 2011.63 284.48 2003.31 259.04
  Q 2001.94 254.84 1999.68 251.04
  Q 1998.91 249.73 1998.00 249.52
  C 1984.47 246.42 1968.59 245.98 1954.07 245.41
  Q 1953.58 245.39 1953.56 244.90
  L 1952.86 229.10
  Q 1952.83 228.55 1953.39 228.53
  Q 1998.37 227.26 2034.25 224.51
  C 2037.86 224.23 2055.22 221.11 2056.35 216.53
  Q 2060.29 200.51 2060.42 184.00
  C 2060.52 172.33 2060.98 160.20 2059.99 148.80
  C 2059.36 141.59 2058.75 134.08 2056.08 127.46
  C 2055.06 124.91 2052.97 123.20 2050.50 122.50
  Q 2042.37 120.17 2031.48 119.16
  Q 2010.54 117.23 1989.50 116.75
  Q 1931.32 115.41 1873.25 118.87
  Q 1854.30 120.00 1835.51 122.59
  C 1823.50 124.25 1819.80 126.50 1817.20 137.79
  Q 1813.75 152.73 1813.40 168.01
  C 1813.16 178.78 1812.92 184.50 1812.77 192.75
  Q 1811.64 256.15 1814.27 319.50
  Q 1816.75 379.10 1822.81 429.34
  C 1823.76 437.23 1825.23 444.33 1827.12 451.73
  C 1828.60 457.54 1830.24 463.46 1835.01 464.77
  C 1848.48 468.46 1862.85 469.31 1876.76 469.80
  Q 1931.16 471.72 1985.50 468.46
  Q 2015.81 466.64 2045.86 462.29
  Q 2056.97 460.68 2067.67 457.34
  C 2072.61 455.81 2076.61 454.25 2077.53 449.75
  C 2080.94 433.09 2080.40 415.86 2079.30 399.01
  C 2078.72 390.09 2076.89 353.55 2067.97 350.54
  C 2058.43 347.32 2046.40 347.72 2038.25 348.07
  Q 1996.15 349.87 1981.00 350.34
  Q 1969.51 350.70 1957.95 350.42
  Q 1957.50 350.41 1957.50 349.96
  L 1957.50 333.49
  Q 1957.50 332.91 1958.07 332.97"
/>
</g>
<path fill="#6d5845" d="
  M 224.89 107.62
  C 226.11 107.08 226.59 107.73 227.54 107.92
  C 267.61 115.96 303.91 141.33 315.88 181.59
  Q 317.98 188.65 317.21 193.29
  C 315.07 206.32 296.43 215.54 285.24 219.76
  Q 259.93 229.30 230.24 231.86
  Q 217.52 232.96 212.19 222.91
  A 1.84 1.81 34.2 0 1 211.98 221.85
  C 212.53 215.92 206.35 211.51 201.35 210.39
  C 192.87 208.49 182.25 214.73 176.24 220.50
  Q 175.24 221.46 175.03 223.59
  Q 174.97 224.10 175.34 224.46
  C 179.70 228.73 186.70 230.59 192.00 231.67
  Q 205.33 234.40 218.73 236.87
  C 278.22 247.83 335.85 279.14 341.86 346.47
  C 344.05 370.98 337.95 394.08 324.00 414.06
  Q 298.14 451.10 255.01 465.54
  Q 227.61 474.71 197.49 474.65
  Q 186.77 474.63 177.53 473.71
  C 125.63 468.54 72.03 433.60 58.37 380.62
  Q 56.42 373.03 56.97 368.28
  C 59.81 343.79 98.09 337.25 116.96 335.62
  Q 142.28 333.43 166.48 341.26
  Q 173.82 343.63 178.51 349.63
  Q 179.67 351.11 180.65 354.21
  C 184.87 367.54 200.54 368.48 211.20 362.64
  Q 214.50 360.83 215.54 358.15
  Q 217.25 353.77 213.93 349.76
  C 211.79 347.18 207.65 345.31 203.99 344.22
  Q 177.83 336.42 150.90 331.98
  Q 138.19 329.89 132.29 328.06
  Q 110.35 321.25 92.53 306.85
  C 73.63 291.56 62.53 269.55 60.48 245.25
  Q 59.14 229.35 61.15 212.25
  Q 65.97 171.12 96.44 142.93
  C 121.00 120.21 151.00 108.16 184.25 105.49
  Q 204.59 103.86 223.80 107.21
  Q 224.15 107.27 224.44 107.47
  Q 224.58 107.56 224.72 107.62
  Q 224.80 107.66 224.89 107.62
  Z
  M 179.23 232.03
  C 171.28 229.10 167.64 221.76 175.50 215.50
  C 186.12 207.05 199.79 201.45 211.72 211.26
  Q 215.31 214.22 216.12 219.78
  C 216.96 225.55 222.85 228.39 228.24 228.04
  Q 255.68 226.27 282.02 216.65
  C 292.82 212.71 314.47 202.64 313.45 188.92
  Q 313.23 186.06 310.83 179.28
  C 305.69 164.81 297.64 151.93 286.09 141.50
  C 226.83 87.96 121.69 102.02 79.29 170.26
  Q 68.83 187.10 65.67 207.82
  C 61.12 237.58 63.93 268.21 83.39 291.99
  C 95.93 307.32 115.18 318.37 133.87 324.29
  Q 139.61 326.11 150.78 327.92
  Q 178.90 332.45 207.47 341.03
  C 221.46 345.23 225.97 362.12 209.73 367.76
  C 198.77 371.56 185.69 371.18 178.94 360.65
  Q 178.31 359.66 176.94 355.70
  C 174.27 347.96 165.16 344.61 158.27 342.92
  Q 127.43 335.37 95.77 343.04
  C 79.55 346.97 56.02 356.30 61.70 377.79
  Q 70.79 412.21 97.88 435.10
  C 129.19 461.56 164.87 472.21 205.74 470.44
  C 250.41 468.50 290.82 451.17 318.25 414.99
  Q 340.10 386.18 338.04 350.00
  C 334.47 287.27 282.66 254.76 226.73 242.62
  Q 212.18 239.47 197.51 236.93
  Q 188.14 235.32 179.23 232.03
  Z"
/>
<path fill="#f0e1c0" d="
  M 175.50 215.50
  C 167.64 221.76 171.28 229.10 179.23 232.03
  Q 188.14 235.32 197.51 236.93
  Q 212.18 239.47 226.73 242.62
  C 282.66 254.76 334.47 287.27 338.04 350.00
  Q 340.10 386.18 318.25 414.99
  C 290.82 451.17 250.41 468.50 205.74 470.44
  C 164.87 472.21 129.19 461.56 97.88 435.10
  Q 70.79 412.21 61.70 377.79
  C 56.02 356.30 79.55 346.97 95.77 343.04
  Q 127.43 335.37 158.27 342.92
  C 165.16 344.61 174.27 347.96 176.94 355.70
  Q 178.31 359.66 178.94 360.65
  C 185.69 371.18 198.77 371.56 209.73 367.76
  C 225.97 362.12 221.46 345.23 207.47 341.03
  Q 178.90 332.45 150.78 327.92
  Q 139.61 326.11 133.87 324.29
  C 115.18 318.37 95.93 307.32 83.39 291.99
  C 63.93 268.21 61.12 237.58 65.67 207.82
  Q 68.83 187.10 79.29 170.26
  C 121.69 102.02 226.83 87.96 286.09 141.50
  C 297.64 151.93 305.69 164.81 310.83 179.28
  Q 313.23 186.06 313.45 188.92
  C 314.47 202.64 292.82 212.71 282.02 216.65
  Q 255.68 226.27 228.24 228.04
  C 222.85 228.39 216.96 225.55 216.12 219.78
  Q 215.31 214.22 211.72 211.26
  C 199.79 201.45 186.12 207.05 175.50 215.50
  Z"
/>
<path fill="#6d5845" d="
  M 794.07 113.55
  C 795.23 113.11 795.68 113.79 796.55 113.94
  C 808.12 115.86 829.69 120.29 831.23 134.95
  Q 835.19 172.51 835.04 207.50
  Q 835.03 208.73 835.32 209.50
  Q 835.50 209.96 835.50 210.46
  Q 835.49 236.23 835.52 262.00
  Q 835.52 262.43 835.33 262.79
  Q 835.10 263.21 835.10 263.70
  Q 834.70 330.60 829.11 397.27
  Q 827.42 417.33 824.54 437.25
  Q 822.84 448.97 820.23 457.01
  Q 817.26 466.16 807.74 468.92
  Q 800.49 471.03 795.24 471.72
  Q 769.25 475.15 739.50 474.23
  Q 721.75 473.68 706.44 468.95
  C 700.85 467.22 697.57 460.79 695.99 455.51
  Q 691.84 441.71 689.71 429.75
  Q 686.02 409.07 683.30 388.23
  Q 674.28 319.14 670.03 249.58
  C 668.52 224.76 666.99 199.39 666.87 177.25
  Q 666.86 176.14 666.63 175.58
  Q 666.44 175.13 666.45 174.64
  Q 666.56 166.69 666.48 158.75
  Q 666.47 158.44 666.76 158.07
  Q 667.06 157.69 667.03 157.20
  Q 666.54 146.55 668.13 139.34
  C 670.54 128.41 684.10 122.32 693.64 119.41
  Q 717.96 111.96 745.03 110.79
  Q 770.30 109.70 792.70 113.16
  Q 792.99 113.20 793.27 113.37
  Q 793.39 113.44 793.51 113.50
  Q 793.78 113.65 794.07 113.55
  Z
  M 825.59 131.03
  C 819.18 120.35 795.00 117.43 783.35 116.03
  Q 739.17 110.70 696.07 122.76
  C 686.63 125.41 672.65 131.90 671.56 143.00
  Q 670.77 151.08 670.58 161.99
  Q 670.46 169.06 670.89 181.00
  C 671.23 190.26 671.36 199.54 671.77 208.81
  C 674.92 280.53 681.24 352.54 692.68 423.44
  C 694.24 433.07 699.43 462.71 707.47 465.11
  Q 724.08 470.06 743.76 470.37
  C 757.47 470.59 809.98 471.49 815.32 458.26
  C 819.60 447.67 821.00 434.42 822.26 422.98
  Q 829.03 361.28 830.50 299.25
  C 831.77 245.46 832.55 192.72 827.89 140.37
  Q 827.32 133.91 825.59 131.03
  Z"
/>
<path fill="#6d5845" d="
  M 538.32 336.52
  Q 538.90 336.53 539.77 336.70
  Q 545.99 337.88 553.39 337.47
  Q 560.84 337.06 561.02 337.05
  Q 576.77 336.43 592.17 333.14
  Q 600.92 331.27 604.40 331.47
  C 616.84 332.19 626.54 341.89 632.43 352.29
  C 641.01 367.44 644.67 383.47 646.66 401.25
  C 648.58 418.48 647.32 446.38 631.83 457.20
  Q 629.08 459.13 624.18 460.86
  C 592.41 472.09 559.64 475.86 526.01 474.23
  C 439.85 470.05 362.18 410.40 357.55 319.75
  Q 355.86 286.63 365.80 251.05
  Q 388.26 170.68 460.36 132.53
  Q 469.28 127.81 478.59 124.35
  Q 497.09 117.46 515.22 114.69
  Q 551.00 109.21 583.01 114.00
  Q 591.15 115.22 599.27 121.72
  C 610.50 130.71 615.87 142.83 620.54 157.43
  Q 624.54 169.92 627.04 183.75
  C 628.60 192.40 629.14 201.58 627.95 209.72
  C 626.37 220.45 620.01 233.08 609.32 237.42
  Q 605.79 238.85 597.48 239.27
  Q 580.69 240.11 571.42 241.13
  Q 535.91 245.03 512.99 270.99
  C 502.78 282.55 500.81 300.89 506.21 314.98
  Q 508.72 321.53 514.93 326.55
  C 522.66 332.79 528.98 334.23 537.42 336.39
  Q 537.86 336.50 538.32 336.52
  Z
  M 536.42 340.40
  C 519.52 337.44 504.27 327.77 500.44 310.30
  C 497.13 295.22 500.24 278.66 510.96 266.97
  Q 534.61 241.21 569.59 237.27
  C 576.53 236.49 587.77 235.74 596.84 235.27
  Q 604.69 234.87 607.97 233.43
  Q 613.28 231.10 616.96 225.94
  C 625.42 214.03 625.71 199.82 623.28 185.76
  Q 619.55 164.19 611.68 145.31
  C 606.61 133.15 595.04 119.71 581.25 117.78
  Q 558.60 114.62 531.99 116.83
  Q 464.48 122.44 417.46 168.83
  C 396.31 189.70 380.82 216.09 372.00 244.38
  C 364.41 268.69 360.33 294.94 361.56 319.74
  C 365.73 403.50 435.91 461.35 516.02 469.27
  C 549.87 472.62 584.10 469.69 616.51 459.14
  C 626.31 455.94 632.59 453.70 636.82 445.01
  Q 643.41 431.51 643.40 415.75
  Q 643.38 389.21 633.99 364.49
  C 629.34 352.26 619.13 337.28 604.91 335.64
  Q 601.59 335.26 595.71 336.53
  Q 574.41 341.16 552.64 341.40
  Q 542.77 341.51 536.42 340.40
  Z"
/>
<path fill="#6d5845" d="
  M 1686.15 336.51
  Q 1686.76 336.51 1687.77 336.70
  Q 1693.04 337.70 1699.27 337.55
  Q 1700.54 337.53 1710.75 336.98
  Q 1724.82 336.23 1738.65 333.50
  Q 1738.71 333.49 1743.79 332.27
  C 1763.85 327.43 1778.47 344.59 1785.15 361.54
  Q 1794.60 385.48 1795.61 411.26
  C 1796.14 425.11 1793.00 446.13 1781.46 455.83
  Q 1777.55 459.11 1769.12 461.95
  Q 1735.40 473.32 1699.25 474.42
  Q 1682.67 474.93 1667.50 473.75
  C 1614.57 469.64 1563.90 444.32 1533.15 400.35
  Q 1508.63 365.29 1505.82 322.45
  Q 1505.80 322.07 1505.63 321.74
  Q 1505.52 321.52 1505.51 321.27
  Q 1503.56 264.13 1527.50 214.49
  Q 1537.07 194.67 1553.82 175.58
  Q 1598.85 124.28 1665.80 114.27
  Q 1693.33 110.15 1722.82 113.03
  Q 1733.03 114.03 1738.83 116.56
  C 1750.36 121.59 1758.52 132.30 1763.61 143.59
  Q 1766.47 149.92 1770.05 162.06
  C 1774.13 175.87 1777.05 189.97 1776.62 204.22
  Q 1776.02 223.74 1761.03 235.75
  C 1758.55 237.74 1753.82 238.79 1750.15 239.00
  Q 1740.19 239.55 1730.25 240.30
  C 1717.52 241.25 1706.37 242.44 1695.03 247.02
  Q 1679.32 253.36 1667.00 264.88
  C 1654.55 276.52 1649.64 288.82 1651.98 305.76
  Q 1652.90 312.38 1655.62 317.66
  Q 1658.28 322.83 1663.47 326.93
  Q 1670.03 332.13 1678.33 334.48
  Q 1681.77 335.45 1685.25 336.38
  Q 1685.70 336.50 1686.15 336.51
  Z
  M 1755.84 137.87
  C 1750.48 128.50 1740.10 119.23 1729.00 117.76
  Q 1705.42 114.66 1680.01 116.64
  C 1611.98 121.96 1552.10 164.12 1526.07 227.97
  Q 1511.14 264.58 1509.56 303.76
  Q 1507.07 365.48 1547.53 411.73
  Q 1561.78 428.01 1578.30 438.94
  Q 1619.94 466.52 1670.00 469.92
  C 1702.26 472.12 1733.78 469.01 1764.60 459.13
  C 1772.62 456.56 1779.05 454.43 1783.02 448.23
  C 1796.31 427.48 1791.77 393.49 1784.33 370.73
  C 1779.93 357.25 1769.25 336.91 1752.93 335.52
  Q 1749.79 335.26 1744.15 336.47
  Q 1721.74 341.32 1698.75 341.51
  C 1678.30 341.69 1654.16 333.98 1648.92 311.40
  C 1642.96 285.71 1654.21 266.67 1675.41 252.89
  C 1689.68 243.62 1701.65 239.25 1718.93 237.27
  Q 1732.56 235.72 1746.29 235.21
  Q 1752.46 234.99 1755.55 233.67
  C 1772.84 226.28 1774.19 202.08 1771.43 186.26
  C 1768.55 169.77 1764.20 152.51 1755.84 137.87
  Z"
/>
<path fill="#6d5845" d="
  M 1002.46 233.17
  L 1003.17 241.06
  Q 1003.21 241.51 1003.65 241.53
  Q 1012.63 242.01 1021.49 242.60
  Q 1035.92 243.57 1044.50 245.51
  C 1049.52 246.64 1052.20 255.11 1053.59 259.68
  Q 1061.63 286.05 1059.90 313.64
  Q 1059.31 322.89 1055.97 328.70
  C 1054.39 331.45 1050.37 332.92 1046.95 333.46
  Q 1028.54 336.41 1008.21 336.57
  A 1.22 1.21 90.0 0 0 1007.00 337.79
  L 1007.00 345.96
  Q 1007.00 346.40 1007.44 346.42
  Q 1014.56 346.68 1021.62 346.45
  Q 1032.29 346.10 1032.40 346.10
  Q 1055.89 345.61 1079.36 344.41
  Q 1090.79 343.82 1102.25 344.22
  C 1103.18 344.25 1103.66 344.53 1104.58 344.53
  C 1111.74 344.57 1119.60 347.09 1122.19 354.30
  Q 1125.16 362.54 1126.33 371.23
  Q 1130.24 400.23 1129.60 429.50
  Q 1129.46 435.73 1127.50 448.50
  Q 1126.26 456.56 1119.62 459.33
  Q 1112.42 462.35 1104.72 463.81
  Q 1078.56 468.80 1051.99 470.90
  Q 995.55 475.38 938.93 474.38
  C 938.19 474.37 937.10 474.76 936.11 474.27
  Q 935.70 474.07 935.24 474.07
  Q 920.93 474.07 902.25 472.51
  Q 888.56 471.37 877.28 467.97
  C 873.46 466.82 870.38 459.15 869.03 454.24
  Q 866.57 445.29 864.66 430.48
  Q 859.88 393.47 856.98 342.75
  Q 854.97 307.57 854.89 289.00
  Q 854.88 287.48 854.66 286.83
  A 3.38 3.10 38.7 0 1 854.51 285.86
  Q 854.49 274.43 854.51 263.00
  C 854.51 262.17 854.00 261.55 854.00 260.63
  Q 854.01 234.65 853.99 208.68
  C 853.99 200.62 854.79 189.60 854.42 180.00
  Q 854.41 179.69 854.84 178.99
  Q 855.10 178.57 855.09 178.08
  Q 854.44 160.15 857.40 142.48
  Q 858.97 133.11 862.83 126.34
  C 865.48 121.70 869.66 120.95 874.51 119.59
  Q 876.34 119.08 878.13 118.84
  Q 899.11 116.01 920.26 114.85
  Q 936.10 113.98 936.23 113.97
  Q 954.98 112.89 968.25 112.93
  Q 969.66 112.93 970.40 112.67
  Q 970.85 112.50 971.34 112.50
  Q 1002.57 112.51 1033.80 112.50
  Q 1034.23 112.50 1034.66 112.69
  Q 1035.26 112.97 1035.50 112.97
  Q 1062.24 113.01 1088.74 116.53
  C 1093.65 117.18 1101.37 118.96 1104.18 123.51
  Q 1106.50 127.26 1107.30 131.21
  C 1109.70 143.05 1110.10 154.85 1110.40 167.97
  C 1110.73 183.16 1110.19 200.07 1106.53 215.09
  C 1105.08 221.01 1101.26 223.84 1095.62 225.36
  Q 1085.50 228.09 1076.00 228.74
  Q 1039.55 231.21 1003.03 232.52
  A 0.60 0.59 86.8 0 0 1002.46 233.17
  Z
  M 998.88 228.51
  Q 1046.63 227.21 1080.00 224.50
  C 1084.63 224.13 1094.92 222.10 1098.57 219.67
  Q 1102.19 217.27 1103.07 212.04
  Q 1105.49 197.84 1105.96 189.75
  Q 1107.29 166.84 1105.21 144.00
  C 1104.83 139.79 1103.18 127.05 1099.80 124.42
  C 1095.72 121.25 1086.55 120.28 1081.23 119.68
  Q 1059.48 117.22 1037.59 116.95
  C 1035.62 116.92 1033.41 116.52 1031.25 116.52
  Q 1002.21 116.50 973.17 116.50
  C 971.62 116.50 969.96 116.88 968.50 116.91
  Q 926.79 117.55 885.30 121.77
  C 882.30 122.07 873.62 123.14 869.76 125.33
  C 858.14 131.90 859.00 173.00 858.62 184.84
  Q 857.45 221.16 858.23 257.50
  Q 858.36 263.63 858.59 282.50
  Q 858.77 297.21 860.23 331.51
  Q 862.34 381.25 868.65 430.61
  Q 869.72 438.95 870.79 443.83
  C 872.17 450.13 873.72 457.61 877.40 463.02
  Q 877.68 463.44 878.15 463.64
  Q 883.04 465.71 887.25 466.44
  C 903.35 469.22 918.52 469.83 936.49 470.26
  Q 1002.76 471.86 1068.74 465.15
  C 1080.96 463.91 1120.55 459.94 1122.93 450.69
  C 1125.28 441.55 1125.45 432.98 1125.56 422.06
  Q 1125.87 392.83 1120.85 363.99
  Q 1120.27 360.70 1118.17 355.49
  C 1115.64 349.20 1107.44 348.50 1101.22 348.11
  C 1095.46 347.75 1087.61 347.91 1080.59 348.24
  Q 1053.68 349.53 1026.75 350.35
  Q 1015.13 350.71 1003.45 350.42
  Q 1003.00 350.41 1003.00 349.96
  L 1003.00 333.72
  Q 1003.00 333.05 1003.67 333.00
  Q 1007.69 332.72 1017.99 332.39
  Q 1024.06 332.20 1041.22 330.24
  Q 1047.35 329.55 1049.04 328.87
  C 1053.34 327.16 1054.61 321.82 1055.05 317.73
  Q 1058.42 286.58 1048.39 256.97
  Q 1047.42 254.11 1045.36 251.29
  C 1044.05 249.49 1041.98 249.02 1040.00 248.73
  Q 1020.10 245.78 1000.62 245.58
  A 1.48 1.48 0.0 0 1 999.16 244.17
  L 998.37 229.07
  Q 998.34 228.53 998.88 228.51
  Z"
/>
<path fill="#6d5845" d="
  M 1347.85 202.90
  C 1348.37 197.85 1347.67 191.81 1347.58 187.95
  Q 1347.33 178.36 1346.92 168.76
  C 1346.88 167.96 1347.24 166.25 1346.81 165.03
  Q 1346.46 164.02 1346.47 163.40
  Q 1346.54 152.08 1346.48 140.75
  Q 1346.48 140.55 1346.66 140.24
  A 1.83 1.80 -30.5 0 0 1346.90 139.34
  C 1346.99 127.99 1357.62 122.71 1367.02 119.97
  Q 1384.57 114.84 1402.82 113.30
  Q 1425.17 111.40 1447.50 113.44
  Q 1463.04 114.85 1477.71 120.05
  Q 1479.16 120.56 1482.16 122.86
  Q 1484.61 124.74 1485.59 126.71
  Q 1487.00 129.52 1487.30 133.22
  Q 1490.87 177.37 1491.08 214.33
  Q 1491.08 214.78 1491.30 215.18
  Q 1491.44 215.45 1491.44 215.75
  Q 1491.50 270.88 1491.52 326.00
  Q 1491.52 326.42 1491.34 326.78
  Q 1491.12 327.21 1491.12 327.69
  Q 1490.64 383.55 1486.42 439.24
  Q 1485.36 453.33 1483.68 460.53
  C 1482.27 466.60 1472.27 470.03 1467.07 470.92
  Q 1429.99 477.26 1391.01 472.20
  C 1378.91 470.63 1372.09 466.06 1362.45 457.05
  Q 1351.25 446.59 1334.22 428.28
  Q 1307.43 399.48 1282.67 368.91
  Q 1282.28 368.42 1281.96 368.97
  C 1281.22 370.27 1281.56 372.22 1281.47 373.29
  Q 1278.72 404.73 1274.75 436.04
  Q 1273.65 444.70 1271.86 453.23
  C 1270.24 460.92 1268.41 467.23 1260.60 469.63
  Q 1247.94 473.52 1233.50 474.22
  Q 1210.08 475.35 1186.74 473.17
  Q 1177.97 472.36 1167.25 469.54
  Q 1161.62 468.06 1157.87 464.49
  C 1153.40 460.23 1151.59 451.71 1150.64 445.62
  Q 1147.43 424.97 1145.68 401.50
  Q 1142.44 357.98 1141.89 314.33
  Q 1141.88 314.08 1141.77 313.88
  Q 1141.70 313.76 1141.61 313.64
  Q 1141.50 313.49 1141.50 313.30
  Q 1141.51 273.16 1141.50 233.01
  C 1141.50 231.68 1141.80 230.43 1141.81 229.00
  Q 1142.07 181.69 1148.26 134.78
  Q 1148.57 132.42 1149.00 130.08
  C 1150.35 122.81 1159.90 119.88 1166.00 118.49
  Q 1179.95 115.31 1194.25 114.43
  Q 1217.29 113.00 1240.27 115.29
  Q 1253.17 116.58 1267.00 120.02
  C 1280.29 123.32 1289.21 131.16 1298.51 140.51
  Q 1303.05 145.08 1309.92 153.49
  Q 1329.56 177.57 1347.41 203.01
  Q 1347.78 203.54 1347.85 202.90
  Z
  M 1352.40 216.44
  Q 1352.33 217.32 1351.83 216.59
  C 1339.90 199.10 1327.10 182.29 1314.25 165.41
  Q 1303.60 151.42 1295.11 142.89
  C 1285.57 133.32 1277.35 126.86 1265.51 123.77
  Q 1257.36 121.64 1249.00 120.51
  C 1223.17 117.02 1196.06 116.68 1170.37 121.59
  C 1164.44 122.72 1153.38 125.54 1152.42 132.48
  Q 1146.21 177.17 1145.89 227.75
  C 1145.87 230.00 1145.50 232.36 1145.50 234.43
  Q 1145.50 269.34 1145.50 304.24
  C 1145.50 310.80 1145.91 319.03 1146.06 327.25
  Q 1146.54 354.56 1148.94 391.76
  Q 1150.63 418.00 1154.69 443.97
  Q 1156.16 453.39 1157.80 457.19
  C 1160.29 462.95 1164.30 464.66 1170.53 466.18
  Q 1179.04 468.25 1187.76 469.10
  Q 1209.21 471.19 1230.75 470.56
  Q 1246.72 470.10 1261.70 464.64
  C 1267.00 462.70 1269.44 445.38 1269.99 441.24
  Q 1275.50 399.32 1278.70 357.32
  A 0.28 0.28 0.0 0 1 1279.20 357.18
  C 1286.55 367.41 1292.14 373.91 1302.71 386.53
  Q 1331.53 420.96 1363.65 452.34
  C 1369.56 458.11 1377.17 465.04 1385.25 466.98
  Q 1393.43 468.95 1404.05 469.79
  Q 1430.35 471.88 1456.50 468.56
  Q 1462.96 467.74 1471.77 465.28
  C 1478.11 463.51 1479.94 460.37 1480.82 453.75
  C 1484.20 428.13 1485.40 399.22 1486.32 365.00
  C 1486.81 346.76 1487.46 328.51 1487.48 310.25
  Q 1487.52 265.22 1487.49 220.18
  C 1487.49 217.63 1487.09 214.76 1487.07 212.50
  Q 1486.76 174.01 1483.49 135.66
  C 1483.24 132.72 1483.09 128.84 1480.95 127.05
  Q 1475.80 122.74 1465.92 120.73
  Q 1418.18 111.01 1371.03 123.14
  C 1363.39 125.11 1353.37 128.72 1351.08 137.12
  Q 1350.48 139.32 1350.52 148.43
  Q 1350.62 169.10 1351.76 189.75
  Q 1351.98 193.66 1351.94 198.25
  C 1351.87 205.08 1352.94 210.48 1352.40 216.44
  Z"
/>
<path fill="#6d5845" d="
  M 1956.85 233.13
  L 1957.51 240.90
  Q 1957.56 241.48 1958.14 241.51
  Q 1966.32 242.01 1974.50 242.49
  Q 1989.87 243.40 1999.27 245.63
  Q 2002.23 246.34 2004.04 249.98
  Q 2007.82 257.54 2009.86 265.75
  Q 2015.37 287.92 2014.43 310.75
  C 2014.16 317.49 2012.81 327.95 2007.05 331.83
  Q 2005.72 332.72 1999.84 333.61
  Q 1982.33 336.25 1962.58 336.66
  A 1.11 1.11 0.0 0 0 1961.49 337.77
  L 1961.51 346.00
  Q 1961.51 346.51 1962.02 346.52
  Q 1967.12 346.58 1981.00 346.23
  Q 1991.00 345.97 2001.01 345.71
  Q 2009.29 345.49 2020.98 344.78
  Q 2043.21 343.42 2054.25 343.96
  Q 2061.50 344.31 2067.73 346.06
  C 2072.30 347.35 2074.99 350.14 2076.66 354.76
  Q 2079.50 362.58 2080.63 371.99
  C 2083.71 397.50 2085.63 421.91 2082.52 446.00
  C 2082.09 449.35 2081.06 454.22 2078.13 456.61
  Q 2073.88 460.08 2068.75 461.48
  Q 2051.98 466.05 2033.33 468.25
  Q 2001.00 472.06 1958.75 473.69
  Q 1924.86 475.00 1890.95 474.12
  Q 1890.24 474.10 1889.50 474.11
  Q 1870.42 474.13 1849.50 471.74
  Q 1841.47 470.82 1834.44 468.73
  Q 1830.83 467.66 1828.76 465.52
  Q 1826.14 462.82 1825.03 459.49
  Q 1822.15 450.90 1820.33 438.78
  Q 1815.37 405.68 1812.83 366.91
  Q 1810.52 331.69 1809.87 307.25
  Q 1809.86 307.06 1809.66 306.69
  Q 1809.42 306.26 1809.44 305.77
  Q 1809.72 299.89 1809.19 291.25
  Q 1808.75 284.02 1809.05 271.00
  C 1809.08 270.03 1808.50 268.82 1808.50 267.65
  Q 1808.52 230.33 1808.49 193.00
  C 1808.49 191.87 1809.11 190.81 1809.06 189.65
  C 1808.70 182.23 1809.38 174.51 1809.48 167.46
  Q 1809.69 151.95 1813.22 136.80
  Q 1814.77 130.18 1817.60 125.82
  C 1820.58 121.23 1826.07 119.91 1832.41 118.84
  Q 1836.26 118.19 1841.47 117.65
  Q 1873.33 114.32 1905.37 113.43
  C 1906.14 113.41 1907.03 113.80 1907.98 113.25
  A 1.56 1.48 28.0 0 1 1908.70 113.05
  Q 1943.99 112.25 1987.75 112.59
  C 1989.06 112.60 1990.02 112.96 1991.09 112.97
  Q 2016.14 113.15 2040.97 116.40
  Q 2046.40 117.12 2051.66 118.60
  C 2057.87 120.36 2060.68 125.65 2061.91 132.07
  Q 2063.93 142.59 2064.07 153.31
  Q 2064.08 153.77 2064.29 154.18
  Q 2064.44 154.45 2064.44 154.75
  C 2064.53 175.36 2065.61 197.53 2060.52 216.77
  C 2058.50 224.43 2045.40 227.17 2038.74 227.86
  Q 2018.54 229.98 1998.23 230.85
  Q 1977.83 231.74 1957.41 232.50
  Q 1956.80 232.52 1956.85 233.13
  Z
  M 1958.07 332.97
  C 1960.16 333.18 1962.15 332.61 1963.93 332.57
  Q 1975.13 332.35 1991.50 330.78
  C 1997.05 330.25 2006.07 330.13 2007.97 324.20
  Q 2009.82 318.39 2010.20 311.25
  Q 2011.63 284.48 2003.31 259.04
  Q 2001.94 254.84 1999.68 251.04
  Q 1998.91 249.73 1998.00 249.52
  C 1984.47 246.42 1968.59 245.98 1954.07 245.41
  Q 1953.58 245.39 1953.56 244.90
  L 1952.86 229.10
  Q 1952.83 228.55 1953.39 228.53
  Q 1998.37 227.26 2034.25 224.51
  C 2037.86 224.23 2055.22 221.11 2056.35 216.53
  Q 2060.29 200.51 2060.42 184.00
  C 2060.52 172.33 2060.98 160.20 2059.99 148.80
  C 2059.36 141.59 2058.75 134.08 2056.08 127.46
  C 2055.06 124.91 2052.97 123.20 2050.50 122.50
  Q 2042.37 120.17 2031.48 119.16
  Q 2010.54 117.23 1989.50 116.75
  Q 1931.32 115.41 1873.25 118.87
  Q 1854.30 120.00 1835.51 122.59
  C 1823.50 124.25 1819.80 126.50 1817.20 137.79
  Q 1813.75 152.73 1813.40 168.01
  C 1813.16 178.78 1812.92 184.50 1812.77 192.75
  Q 1811.64 256.15 1814.27 319.50
  Q 1816.75 379.10 1822.81 429.34
  C 1823.76 437.23 1825.23 444.33 1827.12 451.73
  C 1828.60 457.54 1830.24 463.46 1835.01 464.77
  C 1848.48 468.46 1862.85 469.31 1876.76 469.80
  Q 1931.16 471.72 1985.50 468.46
  Q 2015.81 466.64 2045.86 462.29
  Q 2056.97 460.68 2067.67 457.34
  C 2072.61 455.81 2076.61 454.25 2077.53 449.75
  C 2080.94 433.09 2080.40 415.86 2079.30 399.01
  C 2078.72 390.09 2076.89 353.55 2067.97 350.54
  C 2058.43 347.32 2046.40 347.72 2038.25 348.07
  Q 1996.15 349.87 1981.00 350.34
  Q 1969.51 350.70 1957.95 350.42
  Q 1957.50 350.41 1957.50 349.96
  L 1957.50 333.49
  Q 1957.50 332.91 1958.07 332.97
  Z"
/>
<path fill="#f0e1c0" d="
  M 783.35 116.03
  C 795.00 117.43 819.18 120.35 825.59 131.03
  Q 827.32 133.91 827.89 140.37
  C 832.55 192.72 831.77 245.46 830.50 299.25
  Q 829.03 361.28 822.26 422.98
  C 821.00 434.42 819.60 447.67 815.32 458.26
  C 809.98 471.49 757.47 470.59 743.76 470.37
  Q 724.08 470.06 707.47 465.11
  C 699.43 462.71 694.24 433.07 692.68 423.44
  C 681.24 352.54 674.92 280.53 671.77 208.81
  C 671.36 199.54 671.23 190.26 670.89 181.00
  Q 670.46 169.06 670.58 161.99
  Q 670.77 151.08 671.56 143.00
  C 672.65 131.90 686.63 125.41 696.07 122.76
  Q 739.17 110.70 783.35 116.03
  Z"
/>
<path fill="#f0e1c0" d="
  M 500.44 310.30
  C 504.27 327.77 519.52 337.44 536.42 340.40
  Q 542.77 341.51 552.64 341.40
  Q 574.41 341.16 595.71 336.53
  Q 601.59 335.26 604.91 335.64
  C 619.13 337.28 629.34 352.26 633.99 364.49
  Q 643.38 389.21 643.40 415.75
  Q 643.41 431.51 636.82 445.01
  C 632.59 453.70 626.31 455.94 616.51 459.14
  C 584.10 469.69 549.87 472.62 516.02 469.27
  C 435.91 461.35 365.73 403.50 361.56 319.74
  C 360.33 294.94 364.41 268.69 372.00 244.38
  C 380.82 216.09 396.31 189.70 417.46 168.83
  Q 464.48 122.44 531.99 116.83
  Q 558.60 114.62 581.25 117.78
  C 595.04 119.71 606.61 133.15 611.68 145.31
  Q 619.55 164.19 623.28 185.76
  C 625.71 199.82 625.42 214.03 616.96 225.94
  Q 613.28 231.10 607.97 233.43
  Q 604.69 234.87 596.84 235.27
  C 587.77 235.74 576.53 236.49 569.59 237.27
  Q 534.61 241.21 510.96 266.97
  C 500.24 278.66 497.13 295.22 500.44 310.30
  Z"
/>
<path fill="#f0e1c0" d="
  M 1729.00 117.76
  C 1740.10 119.23 1750.48 128.50 1755.84 137.87
  C 1764.20 152.51 1768.55 169.77 1771.43 186.26
  C 1774.19 202.08 1772.84 226.28 1755.55 233.67
  Q 1752.46 234.99 1746.29 235.21
  Q 1732.56 235.72 1718.93 237.27
  C 1701.65 239.25 1689.68 243.62 1675.41 252.89
  C 1654.21 266.67 1642.96 285.71 1648.92 311.40
  C 1654.16 333.98 1678.30 341.69 1698.75 341.51
  Q 1721.74 341.32 1744.15 336.47
  Q 1749.79 335.26 1752.93 335.52
  C 1769.25 336.91 1779.93 357.25 1784.33 370.73
  C 1791.77 393.49 1796.31 427.48 1783.02 448.23
  C 1779.05 454.43 1772.62 456.56 1764.60 459.13
  C 1733.78 469.01 1702.26 472.12 1670.00 469.92
  Q 1619.94 466.52 1578.30 438.94
  Q 1561.78 428.01 1547.53 411.73
  Q 1507.07 365.48 1509.56 303.76
  Q 1511.14 264.58 1526.07 227.97
  C 1552.10 164.12 1611.98 121.96 1680.01 116.64
  Q 1705.42 114.66 1729.00 117.76
  Z"
/>
<path fill="#f0e1c0" d="
  M 998.37 229.07
  L 999.16 244.17
  A 1.48 1.48 0.0 0 0 1000.62 245.58
  Q 1020.10 245.78 1040.00 248.73
  C 1041.98 249.02 1044.05 249.49 1045.36 251.29
  Q 1047.42 254.11 1048.39 256.97
  Q 1058.42 286.58 1055.05 317.73
  C 1054.61 321.82 1053.34 327.16 1049.04 328.87
  Q 1047.35 329.55 1041.22 330.24
  Q 1024.06 332.20 1017.99 332.39
  Q 1007.69 332.72 1003.67 333.00
  Q 1003.00 333.05 1003.00 333.72
  L 1003.00 349.96
  Q 1003.00 350.41 1003.45 350.42
  Q 1015.13 350.71 1026.75 350.35
  Q 1053.68 349.53 1080.59 348.24
  C 1087.61 347.91 1095.46 347.75 1101.22 348.11
  C 1107.44 348.50 1115.64 349.20 1118.17 355.49
  Q 1120.27 360.70 1120.85 363.99
  Q 1125.87 392.83 1125.56 422.06
  C 1125.45 432.98 1125.28 441.55 1122.93 450.69
  C 1120.55 459.94 1080.96 463.91 1068.74 465.15
  Q 1002.76 471.86 936.49 470.26
  C 918.52 469.83 903.35 469.22 887.25 466.44
  Q 883.04 465.71 878.15 463.64
  Q 877.68 463.44 877.40 463.02
  C 873.72 457.61 872.17 450.13 870.79 443.83
  Q 869.72 438.95 868.65 430.61
  Q 862.34 381.25 860.23 331.51
  Q 858.77 297.21 858.59 282.50
  Q 858.36 263.63 858.23 257.50
  Q 857.45 221.16 858.62 184.84
  C 859.00 173.00 858.14 131.90 869.76 125.33
  C 873.62 123.14 882.30 122.07 885.30 121.77
  Q 926.79 117.55 968.50 116.91
  C 969.96 116.88 971.62 116.50 973.17 116.50
  Q 1002.21 116.50 1031.25 116.52
  C 1033.41 116.52 1035.62 116.92 1037.59 116.95
  Q 1059.48 117.22 1081.23 119.68
  C 1086.55 120.28 1095.72 121.25 1099.80 124.42
  C 1103.18 127.05 1104.83 139.79 1105.21 144.00
  Q 1107.29 166.84 1105.96 189.75
  Q 1105.49 197.84 1103.07 212.04
  Q 1102.19 217.27 1098.57 219.67
  C 1094.92 222.10 1084.63 224.13 1080.00 224.50
  Q 1046.63 227.21 998.88 228.51
  Q 998.34 228.53 998.37 229.07
  Z"
/>
<path fill="#f0e1c0" d="
  M 1352.40 216.44
  C 1352.94 210.48 1351.87 205.08 1351.94 198.25
  Q 1351.98 193.66 1351.76 189.75
  Q 1350.62 169.10 1350.52 148.43
  Q 1350.48 139.32 1351.08 137.12
  C 1353.37 128.72 1363.39 125.11 1371.03 123.14
  Q 1418.18 111.01 1465.92 120.73
  Q 1475.80 122.74 1480.95 127.05
  C 1483.09 128.84 1483.24 132.72 1483.49 135.66
  Q 1486.76 174.01 1487.07 212.50
  C 1487.09 214.76 1487.49 217.63 1487.49 220.18
  Q 1487.52 265.22 1487.48 310.25
  C 1487.46 328.51 1486.81 346.76 1486.32 365.00
  C 1485.40 399.22 1484.20 428.13 1480.82 453.75
  C 1479.94 460.37 1478.11 463.51 1471.77 465.28
  Q 1462.96 467.74 1456.50 468.56
  Q 1430.35 471.88 1404.05 469.79
  Q 1393.43 468.95 1385.25 466.98
  C 1377.17 465.04 1369.56 458.11 1363.65 452.34
  Q 1331.53 420.96 1302.71 386.53
  C 1292.14 373.91 1286.55 367.41 1279.20 357.18
  A 0.28 0.28 0.0 0 0 1278.70 357.32
  Q 1275.50 399.32 1269.99 441.24
  C 1269.44 445.38 1267.00 462.70 1261.70 464.64
  Q 1246.72 470.10 1230.75 470.56
  Q 1209.21 471.19 1187.76 469.10
  Q 1179.04 468.25 1170.53 466.18
  C 1164.30 464.66 1160.29 462.95 1157.80 457.19
  Q 1156.16 453.39 1154.69 443.97
  Q 1150.63 418.00 1148.94 391.76
  Q 1146.54 354.56 1146.06 327.25
  C 1145.91 319.03 1145.50 310.80 1145.50 304.24
  Q 1145.50 269.34 1145.50 234.43
  C 1145.50 232.36 1145.87 230.00 1145.89 227.75
  Q 1146.21 177.17 1152.42 132.48
  C 1153.38 125.54 1164.44 122.72 1170.37 121.59
  C 1196.06 116.68 1223.17 117.02 1249.00 120.51
  Q 1257.36 121.64 1265.51 123.77
  C 1277.35 126.86 1285.57 133.32 1295.11 142.89
  Q 1303.60 151.42 1314.25 165.41
  C 1327.10 182.29 1339.90 199.10 1351.83 216.59
  Q 1352.33 217.32 1352.40 216.44
  Z"
/>
<path fill="#f0e1c0" d="
  M 1957.50 333.49
  L 1957.50 349.96
  Q 1957.50 350.41 1957.95 350.42
  Q 1969.51 350.70 1981.00 350.34
  Q 1996.15 349.87 2038.25 348.07
  C 2046.40 347.72 2058.43 347.32 2067.97 350.54
  C 2076.89 353.55 2078.72 390.09 2079.30 399.01
  C 2080.40 415.86 2080.94 433.09 2077.53 449.75
  C 2076.61 454.25 2072.61 455.81 2067.67 457.34
  Q 2056.97 460.68 2045.86 462.29
  Q 2015.81 466.64 1985.50 468.46
  Q 1931.16 471.72 1876.76 469.80
  C 1862.85 469.31 1848.48 468.46 1835.01 464.77
  C 1830.24 463.46 1828.60 457.54 1827.12 451.73
  C 1825.23 444.33 1823.76 437.23 1822.81 429.34
  Q 1816.75 379.10 1814.27 319.50
  Q 1811.64 256.15 1812.77 192.75
  C 1812.92 184.50 1813.16 178.78 1813.40 168.01
  Q 1813.75 152.73 1817.20 137.79
  C 1819.80 126.50 1823.50 124.25 1835.51 122.59
  Q 1854.30 120.00 1873.25 118.87
  Q 1931.32 115.41 1989.50 116.75
  Q 2010.54 117.23 2031.48 119.16
  Q 2042.37 120.17 2050.50 122.50
  C 2052.97 123.20 2055.06 124.91 2056.08 127.46
  C 2058.75 134.08 2059.36 141.59 2059.99 148.80
  C 2060.98 160.20 2060.52 172.33 2060.42 184.00
  Q 2060.29 200.51 2056.35 216.53
  C 2055.22 221.11 2037.86 224.23 2034.25 224.51
  Q 1998.37 227.26 1953.39 228.53
  Q 1952.83 228.55 1952.86 229.10
  L 1953.56 244.90
  Q 1953.58 245.39 1954.07 245.41
  C 1968.59 245.98 1984.47 246.42 1998.00 249.52
  Q 1998.91 249.73 1999.68 251.04
  Q 2001.94 254.84 2003.31 259.04
  Q 2011.63 284.48 2010.20 311.25
  Q 2009.82 318.39 2007.97 324.20
  C 2006.07 330.13 1997.05 330.25 1991.50 330.78
  Q 1975.13 332.35 1963.93 332.57
  C 1962.15 332.61 1960.16 333.18 1958.07 332.97
  Q 1957.50 332.91 1957.50 333.49
  Z"
/>
<path fill="#6d5845" d="
  M 673.41 569.38
  C 679.29 559.90 690.37 553.20 702.03 551.85
  Q 732.37 548.34 747.92 573.13
  Q 748.22 573.61 747.71 573.87
  L 733.51 580.99
  A 0.79 0.78 -28.7 0 1 732.49 580.70
  Q 727.38 572.32 717.69 569.51
  Q 703.06 565.26 692.29 573.70
  Q 687.58 577.39 685.83 582.35
  Q 683.81 588.11 685.74 593.73
  C 688.84 602.78 713.46 607.42 722.24 609.48
  C 736.22 612.77 747.29 622.06 750.44 635.81
  Q 752.71 645.74 749.57 655.54
  C 744.68 670.76 730.88 680.10 715.07 682.35
  C 710.90 682.94 702.91 682.78 698.07 681.60
  Q 675.83 676.18 665.56 655.18
  A 0.85 0.85 0.0 0 1 665.96 654.04
  L 679.26 647.74
  Q 680.85 647.00 681.55 648.60
  Q 688.03 663.33 704.98 665.50
  C 714.57 666.73 725.42 663.34 731.05 655.31
  Q 734.87 649.86 734.47 643.25
  C 733.86 633.22 726.80 627.86 717.47 625.88
  Q 707.61 623.79 697.98 620.81
  C 683.52 616.32 670.59 608.87 668.17 592.83
  Q 666.35 580.75 673.41 569.38
  Z"
/>
<path fill="#6d5845" d="
  M 1282.41 569.38
  C 1288.28 559.92 1299.39 553.19 1311.04 551.85
  Q 1341.37 548.35 1356.90 573.10
  Q 1357.22 573.61 1356.69 573.88
  L 1342.51 580.99
  Q 1342.00 581.24 1341.67 580.78
  Q 1330.04 564.26 1310.25 569.01
  C 1299.67 571.55 1290.88 582.56 1294.76 593.72
  C 1297.87 602.70 1321.48 607.21 1329.54 608.99
  C 1345.93 612.60 1359.01 623.71 1360.29 641.14
  Q 1361.01 650.88 1356.82 659.91
  C 1350.85 672.77 1338.13 680.35 1324.07 682.35
  Q 1321.96 682.65 1315.52 682.56
  C 1297.48 682.30 1282.35 671.11 1274.56 655.18
  A 0.85 0.85 0.0 0 1 1274.96 654.04
  L 1288.28 647.74
  Q 1289.72 647.06 1290.41 648.49
  Q 1300.15 668.56 1323.96 665.15
  C 1333.70 663.75 1342.21 656.32 1343.23 645.79
  C 1344.31 634.78 1337.01 628.17 1326.67 625.90
  Q 1316.12 623.58 1305.78 620.45
  C 1292.06 616.29 1279.49 608.18 1277.17 592.82
  Q 1275.35 580.75 1282.41 569.38
  Z"
/>
<path fill="#6d5845" d="
  M 502.07 552.74
  Q 510.35 554.34 511.44 561.64
  C 513.49 575.38 495.91 579.88 490.51 567.85
  C 490.03 566.77 490.13 565.48 489.68 564.25
  Q 489.53 563.85 489.68 563.46
  C 490.23 562.08 489.82 561.02 490.41 559.67
  Q 493.04 553.55 499.82 552.67
  Q 499.90 552.66 500.65 552.45
  Q 501.17 552.31 501.62 552.57
  Q 501.83 552.70 502.07 552.74
  Z"
/>
<circle fill="#6d5845" cx="1480.74" cy="563.72" r="11.05"/>
<path fill="#6d5845" d="
  M 138.74 588.55
  Q 138.00 586.90 138.00 588.71
  L 138.00 680.50
  A 0.50 0.50 0.0 0 1 137.50 681.00
  L 120.50 681.00
  A 0.50 0.50 0.0 0 1 120.00 680.50
  L 120.00 553.50
  A 1.00 0.99 -0.0 0 1 121.00 552.51
  L 140.40 552.50
  A 0.88 0.87 -11.9 0 1 141.20 553.02
  L 186.92 655.25
  Q 187.41 656.34 187.91 655.24
  L 233.60 553.28
  A 1.33 1.32 -78.0 0 1 234.81 552.49
  L 254.00 552.50
  Q 254.50 552.50 254.50 553.00
  L 254.50 680.50
  Q 254.50 681.00 254.00 681.00
  L 237.50 681.00
  Q 237.00 681.00 237.00 680.50
  L 236.99 587.73
  A 0.26 0.26 0.0 0 0 236.49 587.62
  L 194.92 680.47
  Q 194.68 681.00 194.10 681.00
  L 180.67 681.00
  Q 180.11 681.00 179.87 680.48
  L 138.74 588.55
  Z"
/>
<path fill="#6d5845" d="
  M 1074.54 630.50
  L 1109.81 597.08
  A 0.32 0.32 0.0 0 1 1110.03 596.99
  L 1133.36 597.00
  A 0.32 0.32 0.0 0 1 1133.58 597.55
  L 1095.59 633.85
  A 0.32 0.32 0.0 0 0 1095.56 634.28
  L 1132.11 680.48
  A 0.32 0.32 0.0 0 1 1131.86 681.00
  L 1111.20 681.00
  A 0.32 0.32 0.0 0 1 1110.94 680.88
  L 1083.41 645.99
  A 0.32 0.32 0.0 0 0 1082.95 645.95
  L 1074.09 654.12
  A 0.32 0.32 0.0 0 0 1073.99 654.35
  L 1073.97 680.68
  A 0.32 0.32 0.0 0 1 1073.65 681.00
  L 1057.32 681.00
  A 0.32 0.32 0.0 0 1 1057.00 680.68
  L 1057.00 552.81
  A 0.32 0.32 0.0 0 1 1057.32 552.49
  L 1073.68 552.52
  A 0.32 0.32 0.0 0 1 1074.00 552.84
  L 1074.00 630.27
  A 0.32 0.32 0.0 0 0 1074.54 630.50
  Z"
/>
<path fill="#6d5845" d="
  M 1952.42 654.03
  L 1949.78 552.99
  A 0.48 0.48 0.0 0 1 1950.26 552.50
  L 1971.52 552.50
  A 0.48 0.48 0.0 0 1 1972.00 552.99
  L 1969.47 654.03
  A 0.48 0.48 0.0 0 1 1968.99 654.50
  L 1952.90 654.50
  A 0.48 0.48 0.0 0 1 1952.42 654.03
  Z"
/>
<path fill="#6d5845" d="
  M 2034.51 553.12
  L 2031.96 653.96
  A 0.55 0.55 0.0 0 1 2031.41 654.50
  L 2015.43 654.50
  A 0.55 0.55 0.0 0 1 2014.88 653.96
  L 2012.37 553.05
  A 0.55 0.55 0.0 0 1 2012.93 552.48
  L 2033.96 552.56
  A 0.55 0.55 0.0 0 1 2034.51 553.12
  Z"
/>
<path fill="#6d5845" d="
  M 1188.81 629.66
  Q 1188.97 629.70 1189.34 629.59
  Q 1189.80 629.44 1190.28 629.55
  C 1200.03 631.77 1208.20 635.27 1213.60 644.20
  Q 1217.35 650.42 1216.37 657.76
  Q 1215.49 664.31 1211.25 669.91
  Q 1205.11 678.04 1194.00 681.17
  C 1175.40 686.42 1155.00 681.02 1144.85 664.04
  Q 1144.58 663.59 1145.04 663.33
  L 1158.68 655.58
  A 0.40 0.39 56.0 0 1 1159.18 655.68
  Q 1165.17 663.14 1173.05 665.45
  C 1175.39 666.13 1178.28 665.85 1181.00 666.64
  Q 1181.32 666.74 1181.66 666.44
  Q 1182.01 666.13 1182.48 666.13
  Q 1187.19 666.10 1192.81 663.55
  C 1197.34 661.49 1201.44 656.89 1198.40 651.90
  C 1196.13 648.16 1188.87 646.38 1184.73 645.81
  Q 1173.10 644.22 1162.29 639.86
  C 1152.71 636.00 1145.95 629.33 1146.38 618.67
  C 1147.19 598.25 1169.60 590.23 1187.03 592.52
  Q 1201.21 594.38 1211.01 604.77
  Q 1212.11 605.93 1212.85 607.38
  Q 1213.06 607.81 1212.65 608.07
  L 1199.42 616.28
  Q 1198.88 616.61 1198.44 616.15
  Q 1192.91 610.40 1186.00 609.58
  C 1182.91 609.22 1176.68 609.21 1173.28 610.22
  Q 1170.47 611.06 1167.67 612.69
  C 1164.56 614.51 1161.36 619.27 1164.72 622.25
  C 1166.32 623.65 1172.36 626.05 1174.51 626.46
  Q 1181.71 627.82 1188.81 629.66
  Z"
/>
<path fill="#6d5845" d="
  M 345.11 672.86
  Q 332.39 685.32 314.24 682.67
  C 282.06 677.95 267.32 640.58 285.27 614.32
  Q 291.14 605.73 299.80 600.84
  Q 309.49 595.36 320.75 595.49
  Q 334.56 595.64 344.87 606.27
  A 0.37 0.37 0.0 0 0 345.50 606.01
  L 345.50 597.50
  Q 345.50 597.00 346.00 597.00
  L 362.00 597.00
  Q 362.50 597.00 362.50 597.50
  L 362.50 680.50
  Q 362.50 681.00 362.00 681.00
  L 346.00 681.00
  Q 345.50 681.00 345.50 680.50
  L 345.50 673.02
  Q 345.50 672.47 345.11 672.86
  Z
  M 320.6823 666.1420
  A 26.70 25.48 88.6 0 0 345.5024 638.8275
  A 26.70 25.48 88.6 0 0 319.3777 612.7580
  A 26.70 25.48 88.6 0 0 294.5576 640.0725
  A 26.70 25.48 88.6 0 0 320.6823 666.1420
  Z"
/>
<path fill="#6d5845" d="
  M 574.40 666.60
  L 574.71 666.35
  Q 575.10 666.03 575.60 666.05
  C 582.91 666.37 590.86 660.42 594.79 654.86
  Q 595.10 654.42 595.54 654.72
  L 608.48 663.35
  Q 608.96 663.66 608.66 664.15
  C 600.00 678.48 581.86 685.28 566.24 682.52
  Q 551.29 679.89 540.78 666.96
  Q 532.40 656.64 531.46 643.25
  C 530.07 623.47 540.58 605.81 559.32 598.27
  Q 564.55 596.16 570.90 595.70
  C 586.00 594.60 599.99 602.08 608.62 614.38
  Q 608.92 614.80 608.49 615.09
  L 595.14 623.85
  A 0.30 0.30 0.0 0 1 594.74 623.79
  Q 589.70 617.41 583.07 614.55
  C 569.50 608.69 554.93 616.53 549.91 629.97
  C 543.80 646.35 554.79 665.11 572.61 666.17
  Q 573.06 666.19 573.42 666.45
  L 573.67 666.63
  A 0.61 0.60 -46.7 0 0 574.40 666.60
  Z"
/>
<path fill="#6d5845" d="
  M 939.98 672.78
  C 923.09 690.14 895.91 684.22 882.02 666.96
  C 865.17 646.03 871.51 613.88 894.95 600.76
  Q 904.47 595.43 915.50 595.49
  Q 929.48 595.56 939.87 606.26
  A 0.37 0.36 23.1 0 0 940.50 606.01
  L 940.50 597.50
  Q 940.50 597.00 941.00 597.00
  L 957.00 597.00
  Q 957.50 597.00 957.50 597.50
  L 957.50 680.50
  Q 957.50 681.00 957.00 681.00
  L 941.00 681.00
  Q 940.50 681.00 940.50 680.50
  L 940.50 672.99
  Q 940.50 672.25 939.98 672.78
  Z
  M 915.6358 666.1431
  A 26.70 25.48 88.7 0 0 940.5034 638.8719
  A 26.70 25.48 88.7 0 0 914.4242 612.7569
  A 26.70 25.48 88.7 0 0 889.5566 640.0281
  A 26.70 25.48 88.7 0 0 915.6358 666.1431
  Z"
/>
<path fill="#6d5845" d="
  M 1417.38 666.61
  L 1417.73 666.32
  A 1.18 1.17 -63.3 0 1 1418.53 666.05
  C 1425.87 666.38 1433.76 660.51 1437.78 654.86
  Q 1438.09 654.42 1438.54 654.72
  L 1451.48 663.34
  Q 1451.94 663.65 1451.65 664.13
  C 1443.15 678.41 1424.72 685.35 1409.24 682.52
  C 1388.05 678.65 1373.42 658.73 1374.43 637.42
  Q 1374.87 628.09 1378.86 619.74
  Q 1385.53 605.80 1400.32 599.12
  Q 1407.35 595.95 1415.20 595.63
  C 1429.79 595.05 1443.26 602.43 1451.62 614.38
  Q 1451.92 614.80 1451.49 615.09
  L 1438.25 623.77
  Q 1437.80 624.06 1437.49 623.63
  C 1431.49 615.44 1422.09 611.13 1412.04 613.08
  C 1401.03 615.22 1392.60 625.28 1391.36 636.29
  Q 1390.50 643.88 1393.69 650.86
  C 1397.46 659.10 1405.91 665.90 1415.41 666.08
  A 1.68 1.65 63.4 0 1 1416.37 666.41
  L 1416.65 666.63
  Q 1417.02 666.91 1417.38 666.61
  Z"
/>
<path fill="#6d5845" d="
  M 1526.42 645.07
  Q 1529.24 660.41 1543.72 665.63
  C 1545.16 666.14 1546.90 665.73 1548.49 666.43
  A 1.55 1.52 -35.6 0 0 1549.20 666.54
  Q 1563.44 665.12 1569.42 652.15
  Q 1569.64 651.67 1570.13 651.89
  L 1584.37 658.34
  Q 1585.09 658.67 1584.75 659.38
  C 1573.53 682.86 1544.79 691.52 1524.20 673.65
  Q 1507.35 659.04 1509.09 635.00
  C 1510.27 618.71 1521.00 603.52 1536.33 597.81
  C 1552.93 591.63 1571.11 598.51 1581.12 612.91
  Q 1590.52 626.43 1588.82 644.03
  Q 1588.78 644.50 1588.30 644.50
  L 1526.90 644.49
  Q 1526.31 644.49 1526.42 645.07
  Z
  M 1529.63 624.63
  Q 1528.56 626.26 1528.11 628.00
  Q 1527.98 628.50 1528.50 628.50
  L 1569.77 628.50
  Q 1570.32 628.50 1570.11 627.99
  C 1566.33 618.83 1557.59 611.93 1547.54 612.64
  C 1539.60 613.20 1533.90 618.08 1529.63 624.63
  Z"
/>
<path fill="#6d5845" d="
  M 1748.39 666.61
  L 1748.68 666.36
  Q 1749.08 666.03 1749.61 666.05
  C 1756.90 666.38 1764.87 660.41 1768.79 654.86
  Q 1769.10 654.42 1769.54 654.72
  L 1782.47 663.33
  Q 1782.93 663.64 1782.65 664.12
  C 1774.16 678.42 1755.70 685.34 1740.24 682.53
  C 1719.04 678.67 1704.43 658.72 1705.43 637.43
  Q 1705.86 628.15 1709.86 619.75
  C 1716.11 606.66 1729.27 597.26 1744.10 595.78
  Q 1749.55 595.23 1754.87 596.25
  Q 1772.17 599.57 1782.62 614.38
  Q 1782.92 614.80 1782.49 615.09
  L 1769.26 623.77
  Q 1768.81 624.06 1768.49 623.63
  C 1762.49 615.44 1753.09 611.13 1743.04 613.08
  C 1732.03 615.22 1723.60 625.28 1722.36 636.29
  C 1720.76 650.47 1731.24 665.75 1746.46 666.10
  Q 1746.98 666.11 1747.39 666.42
  L 1747.65 666.63
  A 0.60 0.60 0.0 0 0 1748.39 666.61
  Z"
/>
<path fill="#6d5845" d="
  M 1812.42 645.07
  Q 1815.25 660.41 1829.72 665.63
  C 1831.16 666.14 1832.90 665.73 1834.49 666.43
  A 1.39 1.39 0.0 0 0 1835.20 666.54
  Q 1849.44 665.11 1855.42 652.15
  Q 1855.64 651.67 1856.13 651.89
  L 1870.24 658.28
  Q 1871.17 658.70 1870.71 659.62
  C 1858.33 684.27 1828.58 691.65 1808.02 671.69
  Q 1792.99 657.10 1795.01 634.99
  Q 1796.68 616.70 1810.58 604.82
  C 1822.37 594.75 1837.58 592.69 1851.51 599.43
  Q 1861.13 604.10 1867.25 613.05
  Q 1876.48 626.57 1874.83 644.02
  Q 1874.79 644.50 1874.30 644.50
  L 1812.90 644.49
  Q 1812.31 644.49 1812.42 645.07
  Z
  M 1856.14 627.95
  C 1851.37 616.35 1838.72 609.04 1826.80 614.38
  C 1821.01 616.97 1816.64 622.01 1814.02 627.77
  A 0.52 0.52 0.0 0 0 1814.49 628.50
  L 1855.77 628.50
  Q 1856.37 628.50 1856.14 627.95
  Z"
/>
<path fill="#6d5845" d="
  M 455.09 613.63
  Q 460.33 623.92 458.03 634.03
  C 453.01 656.06 426.96 665.04 407.69 656.81
  Q 407.16 656.58 406.72 656.97
  Q 405.09 658.41 405.58 659.70
  C 406.82 662.95 417.75 662.52 420.04 662.68
  Q 425.84 663.09 434.25 662.96
  Q 442.69 662.84 450.67 666.18
  Q 459.48 669.87 463.78 675.82
  C 469.00 683.03 469.45 692.14 464.93 700.01
  C 457.22 713.41 441.87 718.49 427.08 718.92
  C 413.47 719.31 394.91 714.83 387.56 701.97
  Q 378.24 685.68 392.44 671.13
  Q 392.80 670.77 392.56 670.31
  Q 388.43 662.42 392.35 654.21
  Q 393.57 651.66 394.96 649.07
  A 0.79 0.79 0.0 0 0 394.85 648.17
  Q 389.69 642.43 387.68 635.31
  Q 385.77 628.53 387.68 621.17
  C 392.85 601.31 414.47 592.92 433.45 597.68
  C 436.17 598.36 438.99 599.76 441.86 600.89
  Q 442.38 601.09 442.82 600.75
  Q 450.34 594.80 459.98 596.15
  Q 460.50 596.22 460.50 596.74
  L 460.50 612.50
  Q 460.50 613.00 460.00 613.00
  L 455.49 612.99
  Q 454.77 612.99 455.09 613.63
  Z
  M 425.49 613.41
  Q 424.61 612.98 423.27 613.02
  C 414.63 613.28 404.92 617.45 403.78 626.98
  Q 403.75 627.19 403.57 627.45
  A 0.90 0.88 -37.4 0 0 403.45 628.26
  C 404.11 630.27 404.14 632.31 405.31 634.05
  C 412.84 645.25 429.64 645.98 438.42 636.29
  C 444.26 629.85 442.69 622.41 435.81 617.43
  Q 431.04 613.99 426.43 613.66
  Q 425.94 613.62 425.49 613.41
  Z
  M 427.47 701.97
  Q 434.24 701.90 440.72 699.43
  C 449.15 696.22 457.65 685.78 443.24 681.49
  Q 435.32 679.13 427.47 679.58
  Q 421.48 679.92 419.03 679.75
  Q 414.38 679.43 409.71 679.01
  Q 409.23 678.97 408.80 679.17
  Q 403.45 681.74 401.42 685.99
  Q 399.94 689.08 401.19 692.08
  C 403.16 696.82 411.31 699.97 415.87 700.93
  Q 421.16 702.04 427.47 701.97
  Z"
/>
<path fill="#6d5845" d="
  M 788.50 673.04
  L 788.50 718.50
  Q 788.50 719.00 788.00 719.00
  L 772.00 719.00
  Q 771.50 719.00 771.50 718.50
  L 771.50 598.00
  Q 771.50 597.50 772.00 597.50
  L 788.00 597.50
  Q 788.51 597.50 788.51 598.00
  L 788.49 605.25
  Q 788.48 606.14 789.12 605.52
  Q 797.34 597.60 808.02 596.19
  Q 816.63 595.05 825.34 597.46
  Q 833.86 599.81 841.01 605.99
  C 857.83 620.52 860.67 644.69 849.34 663.32
  Q 843.64 672.69 833.90 677.78
  Q 809.20 690.68 788.81 672.90
  Q 788.50 672.63 788.50 673.04
  Z
  M 813.3490 666.3067
  A 26.80 25.56 90.9 0 0 839.3268 639.9115
  A 26.80 25.56 90.9 0 0 814.1910 612.7133
  A 26.80 25.56 90.9 0 0 788.2132 639.1085
  A 26.80 25.56 90.9 0 0 813.3490 666.3067
  Z"
/>
<path fill="#6d5845" d="
  M 1000.91 604.21
  Q 1019.15 590.16 1039.89 601.24
  A 1.18 1.17 20.2 0 1 1040.49 602.53
  L 1036.91 618.51
  Q 1036.77 619.16 1036.19 618.82
  Q 1032.05 616.41 1030.73 615.84
  Q 1017.17 610.01 1005.92 619.23
  C 1002.82 621.78 1001.29 630.13 1000.85 634.91
  Q 1000.52 638.39 1000.52 644.60
  Q 1000.50 662.53 1000.50 680.48
  Q 1000.50 681.00 999.98 681.00
  L 984.50 681.00
  Q 984.00 681.00 984.00 680.50
  L 984.00 599.00
  Q 984.00 598.50 984.50 598.50
  L 1000.00 598.50
  Q 1000.51 598.50 1000.51 599.01
  L 1000.48 603.99
  Q 1000.48 604.54 1000.91 604.21
  Z"
/>
<rect fill="#6d5845" x="492.00" y="597.00" width="17.00" height="84.00" rx="0.68"/>
<rect fill="#6d5845" x="1472.00" y="597.01" width="17.00" height="84.00" rx="0.64"/>
<path fill="#6d5845" d="
  M 1627.58 601.91
  Q 1636.68 598.29 1640.05 597.58
  Q 1648.24 595.88 1658.97 598.17
  Q 1675.20 601.64 1682.50 616.48
  C 1683.71 618.95 1684.48 624.44 1684.49 627.92
  Q 1684.53 654.20 1684.49 680.49
  Q 1684.49 681.00 1683.98 681.00
  L 1668.53 681.00
  Q 1668.01 681.00 1668.01 680.48
  Q 1667.98 658.24 1667.99 636.05
  Q 1668.00 626.02 1666.49 622.62
  Q 1663.37 615.54 1654.00 614.30
  C 1645.54 613.17 1631.88 613.33 1628.16 622.35
  Q 1626.99 625.20 1626.99 632.76
  Q 1627.02 656.64 1626.99 680.49
  Q 1626.99 681.00 1626.48 681.00
  L 1610.50 681.00
  Q 1610.00 681.00 1610.00 680.50
  L 1610.00 598.00
  Q 1610.00 597.50 1610.50 597.50
  L 1626.50 597.50
  Q 1627.00 597.50 1627.00 598.00
  L 1627.00 601.51
  Q 1626.99 602.14 1627.58 601.91
  Z"
/>
<circle fill="#6d5845" cx="1960.99" cy="669.97" r="11.09"/>
<circle fill="#6d5845" cx="2023.49" cy="669.97" r="11.09"/>
</svg>
