<?xml version="1.0" encoding="UTF-8" standalone="no"?>
<!DOCTYPE svg PUBLIC "-//W3C//DTD SVG 1.1//EN" "http://www.w3.org/Graphics/SVG/1.1/DTD/svg11.dtd">
<svg xmlns="http://www.w3.org/2000/svg" version="1.1" viewBox="0.00 0.00 1931.00 1086.00">
<g stroke-width="2.00" fill="none" stroke-linecap="butt">
<path stroke="#a37d55" vector-effect="non-scaling-stroke" d="
  M 0.00 872.88
  Q 0.53 872.92 1.22 872.62"
/>
<path stroke="#b09d84" vector-effect="non-scaling-stroke" d="
  M 1.22 872.62
  C 46.31 848.68 113.53 833.40 144.81 886.46
  C 159.32 911.06 162.75 943.11 162.75 971.12
  Q 162.75 971.68 163.29 971.50
  C 185.43 963.83 212.39 961.83 234.57 970.15
  C 261.93 980.40 278.75 1003.66 287.04 1031.07
  A 0.58 0.57 -14.4 0 0 287.72 1031.47
  C 324.09 1023.02 381.90 1020.27 397.95 1064.66
  Q 398.13 1065.18 398.63 1064.95
  C 416.30 1057.16 437.72 1055.12 446.96 1075.66
  C 448.14 1078.27 448.67 1081.78 449.47 1084.84
  Q 449.61 1085.40 450.19 1085.39
  L 546.04 1085.31
  A 0.87 0.86 -1.6 0 0 546.91 1084.40
  C 545.42 1057.00 519.98 1048.55 496.53 1050.55
  Q 495.98 1050.59 495.76 1050.09
  C 487.49 1031.53 475.35 1017.03 457.61 1007.63
  C 428.63 992.28 390.69 995.34 360.65 1005.50
  Q 360.14 1005.67 359.93 1005.18
  Q 357.96 1000.59 355.89 996.06
  C 328.48 935.96 260.99 919.34 200.90 928.24
  Q 200.33 928.32 200.31 927.74
  Q 199.99 915.99 199.31 904.26
  C 196.30 852.57 178.43 794.06 120.07 782.04
  C 96.98 777.28 72.20 780.53 49.52 787.30
  Q 22.49 795.38 0.77 807.02"
/>
<path stroke="#a37d55" vector-effect="non-scaling-stroke" d="
  M 0.77 807.02
  Q 0.46 807.58 0.00 807.50"
/>
<path stroke="#a99170" vector-effect="non-scaling-stroke" d="
  M 161.49 972.73
  C 161.60 940.52 157.25 899.03 134.21 874.02
  C 99.76 836.63 39.16 853.60 1.13 874.16
  A 0.95 0.94 -14.4 0 0 0.63 874.99
  L 0.64 947.02
  A 0.67 0.66 -88.7 0 0 1.27 947.69
  Q 42.65 949.75 59.77 982.83
  C 68.05 998.83 70.29 1019.36 69.26 1037.28
  Q 69.21 1038.21 69.79 1037.48
  C 78.36 1026.62 92.41 1019.30 105.55 1027.57
  Q 105.97 1027.83 106.39 1027.56
  C 121.17 1017.70 143.57 1007.58 161.75 1013.45
  C 178.65 1018.91 185.03 1035.90 188.68 1051.98
  Q 188.82 1052.60 189.36 1052.27
  Q 198.76 1046.70 209.58 1045.12
  C 233.49 1041.63 240.84 1066.09 241.16 1084.60
  A 0.87 0.87 0.0 0 0 242.03 1085.45
  L 447.24 1085.45
  A 0.79 0.79 0.0 0 0 448.02 1084.56
  C 444.45 1056.93 417.37 1056.88 398.04 1066.75
  A 0.38 0.38 0.0 0 1 397.51 1066.54
  C 388.26 1041.82 366.98 1030.23 341.50 1028.31
  Q 313.73 1026.23 286.90 1033.03
  A 0.59 0.59 0.0 0 1 286.19 1032.62
  Q 281.40 1016.02 271.75 1001.51
  C 246.58 963.67 201.90 959.67 162.10 973.17
  Q 161.49 973.37 161.49 972.73"
/>
<path stroke="#a37d55" vector-effect="non-scaling-stroke" d="
  M 67.96 1040.96
  C 68.85 1019.72 67.40 996.43 55.68 978.02
  Q 38.03 950.31 1.89 949.29
  Q 0.64 949.26 0.64 950.50
  L 0.59 1084.49
  A 0.90 0.90 0.0 0 0 1.49 1085.39
  L 239.70 1085.47
  A 0.39 0.39 0.0 0 0 240.09 1085.07
  Q 239.70 1075.20 237.07 1066.08
  C 229.74 1040.61 207.07 1043.02 188.44 1054.30
  Q 187.92 1054.62 187.80 1054.02
  C 185.15 1040.82 180.67 1026.45 169.08 1018.41
  C 150.50 1005.52 122.44 1018.08 106.38 1029.08
  A 0.74 0.74 0.0 0 1 105.54 1029.08
  C 91.63 1019.52 76.64 1029.36 68.46 1041.13
  Q 67.92 1041.91 67.96 1040.96"
/>
<path stroke="#a37d55" vector-effect="non-scaling-stroke" d="
  M 1931.00 811.17
  L 1930.33 807.24"
/>
<path stroke="#b09d84" vector-effect="non-scaling-stroke" d="
  M 1930.33 807.24
  Q 1891.35 785.72 1847.23 780.58
  C 1807.87 775.99 1771.46 790.06 1751.99 825.74
  Q 1740.88 846.09 1736.40 868.89
  Q 1730.69 897.96 1730.83 927.73
  Q 1730.83 928.28 1730.28 928.20
  C 1665.50 918.82 1595.79 938.47 1571.23 1005.19
  A 0.62 0.61 -70.3 0 1 1570.46 1005.56
  C 1519.91 988.35 1459.03 994.20 1435.43 1049.91
  A 0.78 0.76 -77.0 0 1 1434.70 1050.38
  C 1412.09 1049.62 1384.46 1056.10 1384.23 1084.54
  A 0.74 0.73 -89.6 0 0 1384.96 1085.29
  L 1480.78 1085.35
  A 0.93 0.92 -86.0 0 0 1481.69 1084.55
  C 1485.69 1056.25 1511.61 1055.51 1532.38 1065.04
  A 0.29 0.29 0.0 0 0 1532.77 1064.88
  C 1549.99 1020.57 1605.65 1022.59 1643.31 1031.44
  Q 1643.83 1031.56 1643.98 1031.05
  C 1652.23 1003.71 1669.12 980.27 1696.44 970.14
  C 1718.70 961.89 1745.52 963.77 1767.74 971.54
  Q 1768.26 971.72 1768.26 971.17
  C 1768.38 939.95 1772.43 903.33 1791.67 878.20
  C 1825.23 834.34 1889.03 850.89 1929.55 872.58"
/>
<path stroke="#a37d55" vector-effect="non-scaling-stroke" d="
  M 1929.55 872.58
  Q 1929.84 872.72 1930.09 872.69
  Q 1930.62 872.64 1930.63 872.10
  L 1931.00 831.24"
/>
<path stroke="#a37d55" vector-effect="non-scaling-stroke" d="
  M 1931.00 1085.37
  L 1930.77 1085.49
  Q 1930.63 1085.56 1930.63 1085.40
  L 1930.62 950.56
  A 1.23 1.23 0.0 0 0 1929.36 949.33
  C 1876.50 950.63 1859.67 995.55 1862.98 1040.75
  Q 1863.05 1041.57 1862.56 1040.91
  C 1853.83 1029.02 1839.70 1019.51 1825.33 1029.09
  A 0.74 0.73 -44.2 0 1 1824.50 1029.08
  C 1804.17 1014.57 1768.17 1001.49 1751.53 1029.77
  Q 1745.66 1039.75 1743.30 1054.02
  A 0.45 0.45 0.0 0 1 1742.62 1054.33
  C 1733.06 1048.39 1718.96 1043.26 1708.15 1047.90
  C 1694.67 1053.70 1691.33 1071.87 1690.94 1084.70
  A 0.73 0.73 0.0 0 0 1691.67 1085.46
  L 1928.88 1085.51
  Q 1929.00 1085.51 1929.00 1085.63
  Q 1929.00 1085.81 1929.00 1086.00"
/>
<path stroke="#a99170" vector-effect="non-scaling-stroke" d="
  M 1768.93 973.15
  Q 1745.85 965.13 1722.01 966.28
  C 1681.86 968.22 1655.47 995.67 1644.81 1032.64
  Q 1644.66 1033.17 1644.12 1033.04
  C 1620.08 1026.98 1591.91 1024.89 1568.08 1032.87
  Q 1542.81 1041.33 1533.64 1066.26
  Q 1533.45 1066.77 1532.95 1066.56
  C 1512.61 1057.74 1487.60 1056.06 1482.92 1084.47
  A 0.84 0.84 0.0 0 0 1483.75 1085.45
  L 1688.97 1085.47
  Q 1689.86 1085.47 1689.88 1084.58
  C 1690.13 1070.77 1693.93 1051.33 1709.26 1046.16
  C 1719.66 1042.65 1732.75 1046.91 1741.77 1052.38
  A 0.43 0.43 0.0 0 0 1742.42 1052.08
  C 1744.20 1041.29 1748.59 1029.72 1755.93 1021.97
  C 1774.26 1002.62 1805.56 1014.37 1824.47 1027.77
  A 0.77 0.75 -43.7 0 0 1825.33 1027.78
  C 1838.40 1019.26 1853.10 1026.71 1861.44 1038.11
  Q 1861.93 1038.79 1861.88 1037.95
  C 1860.45 1014.89 1864.11 987.75 1879.86 969.73
  Q 1898.81 948.06 1929.60 948.23
  A 0.83 0.83 0.0 0 0 1930.43 947.40
  Q 1930.43 912.25 1930.43 876.98
  Q 1930.43 876.84 1930.67 875.56
  Q 1930.84 874.59 1929.96 874.11
  C 1904.25 860.16 1871.92 849.90 1842.27 852.37
  C 1781.23 857.44 1768.70 923.90 1769.58 972.67
  Q 1769.60 973.38 1768.93 973.15"
/>
<path stroke="#e3c192" vector-effect="non-scaling-stroke" d="
  M 1.22 872.62
  Q 0.81 872.50 0.81 872.25
  Q 0.70 839.97 0.77 807.02"
/>
<path stroke="#e3c192" vector-effect="non-scaling-stroke" d="
  M 1930.33 807.24
  Q 1930.13 839.91 1930.37 872.25
  Q 1930.38 872.81 1929.55 872.58"
/>
</g>
<path fill="#6f5946" d="
  M 547.93 1086.00
  L 0.00 1086.00
  L 0.00 872.88
  Q 0.53 872.92 1.22 872.62
  C 46.31 848.68 113.53 833.40 144.81 886.46
  C 159.32 911.06 162.75 943.11 162.75 971.12
  Q 162.75 971.68 163.29 971.50
  C 185.43 963.83 212.39 961.83 234.57 970.15
  C 261.93 980.40 278.75 1003.66 287.04 1031.07
  A 0.58 0.57 -14.4 0 0 287.72 1031.47
  C 324.09 1023.02 381.90 1020.27 397.95 1064.66
  Q 398.13 1065.18 398.63 1064.95
  C 416.30 1057.16 437.72 1055.12 446.96 1075.66
  C 448.14 1078.27 448.67 1081.78 449.47 1084.84
  Q 449.61 1085.40 450.19 1085.39
  L 546.04 1085.31
  A 0.87 0.86 -1.6 0 0 546.91 1084.40
  C 545.42 1057.00 519.98 1048.55 496.53 1050.55
  Q 495.98 1050.59 495.76 1050.09
  C 487.49 1031.53 475.35 1017.03 457.61 1007.63
  C 428.63 992.28 390.69 995.34 360.65 1005.50
  Q 360.14 1005.67 359.93 1005.18
  Q 357.96 1000.59 355.89 996.06
  C 328.48 935.96 260.99 919.34 200.90 928.24
  Q 200.33 928.32 200.31 927.74
  Q 199.99 915.99 199.31 904.26
  C 196.30 852.57 178.43 794.06 120.07 782.04
  C 96.98 777.28 72.20 780.53 49.52 787.30
  Q 22.49 795.38 0.77 807.02
  Q 0.46 807.58 0.00 807.50
  L 0.00 806.13
  C 33.15 788.04 76.30 774.59 113.67 779.74
  C 186.12 789.72 201.72 866.34 201.25 926.34
  A 0.55 0.55 0.0 0 0 201.88 926.89
  Q 241.37 921.25 278.64 931.12
  Q 337.82 946.79 360.68 1003.61
  Q 360.89 1004.13 361.42 1003.95
  Q 389.10 994.81 418.03 996.18
  C 453.76 997.87 481.48 1015.52 496.48 1048.59
  A 1.11 1.11 0.0 0 0 497.58 1049.24
  C 521.58 1047.49 548.41 1057.24 547.93 1086.00
  Z
  M 161.49 972.73
  C 161.60 940.52 157.25 899.03 134.21 874.02
  C 99.76 836.63 39.16 853.60 1.13 874.16
  A 0.95 0.94 -14.4 0 0 0.63 874.99
  L 0.64 947.02
  A 0.67 0.66 -88.7 0 0 1.27 947.69
  Q 42.65 949.75 59.77 982.83
  C 68.05 998.83 70.29 1019.36 69.26 1037.28
  Q 69.21 1038.21 69.79 1037.48
  C 78.36 1026.62 92.41 1019.30 105.55 1027.57
  Q 105.97 1027.83 106.39 1027.56
  C 121.17 1017.70 143.57 1007.58 161.75 1013.45
  C 178.65 1018.91 185.03 1035.90 188.68 1051.98
  Q 188.82 1052.60 189.36 1052.27
  Q 198.76 1046.70 209.58 1045.12
  C 233.49 1041.63 240.84 1066.09 241.16 1084.60
  A 0.87 0.87 0.0 0 0 242.03 1085.45
  L 447.24 1085.45
  A 0.79 0.79 0.0 0 0 448.02 1084.56
  C 444.45 1056.93 417.37 1056.88 398.04 1066.75
  A 0.38 0.38 0.0 0 1 397.51 1066.54
  C 388.26 1041.82 366.98 1030.23 341.50 1028.31
  Q 313.73 1026.23 286.90 1033.03
  A 0.59 0.59 0.0 0 1 286.19 1032.62
  Q 281.40 1016.02 271.75 1001.51
  C 246.58 963.67 201.90 959.67 162.10 973.17
  Q 161.49 973.37 161.49 972.73
  Z
  M 67.96 1040.96
  C 68.85 1019.72 67.40 996.43 55.68 978.02
  Q 38.03 950.31 1.89 949.29
  Q 0.64 949.26 0.64 950.50
  L 0.59 1084.49
  A 0.90 0.90 0.0 0 0 1.49 1085.39
  L 239.70 1085.47
  A 0.39 0.39 0.0 0 0 240.09 1085.07
  Q 239.70 1075.20 237.07 1066.08
  C 229.74 1040.61 207.07 1043.02 188.44 1054.30
  Q 187.92 1054.62 187.80 1054.02
  C 185.15 1040.82 180.67 1026.45 169.08 1018.41
  C 150.50 1005.52 122.44 1018.08 106.38 1029.08
  A 0.74 0.74 0.0 0 1 105.54 1029.08
  C 91.63 1019.52 76.64 1029.36 68.46 1041.13
  Q 67.92 1041.91 67.96 1040.96
  Z"
/>
<path fill="#6f5946" d="
  M 1931.00 806.11
  L 1931.00 811.17
  L 1930.33 807.24
  Q 1891.35 785.72 1847.23 780.58
  C 1807.87 775.99 1771.46 790.06 1751.99 825.74
  Q 1740.88 846.09 1736.40 868.89
  Q 1730.69 897.96 1730.83 927.73
  Q 1730.83 928.28 1730.28 928.20
  C 1665.50 918.82 1595.79 938.47 1571.23 1005.19
  A 0.62 0.61 -70.3 0 1 1570.46 1005.56
  C 1519.91 988.35 1459.03 994.20 1435.43 1049.91
  A 0.78 0.76 -77.0 0 1 1434.70 1050.38
  C 1412.09 1049.62 1384.46 1056.10 1384.23 1084.54
  A 0.74 0.73 -89.6 0 0 1384.96 1085.29
  L 1480.78 1085.35
  A 0.93 0.92 -86.0 0 0 1481.69 1084.55
  C 1485.69 1056.25 1511.61 1055.51 1532.38 1065.04
  A 0.29 0.29 0.0 0 0 1532.77 1064.88
  C 1549.99 1020.57 1605.65 1022.59 1643.31 1031.44
  Q 1643.83 1031.56 1643.98 1031.05
  C 1652.23 1003.71 1669.12 980.27 1696.44 970.14
  C 1718.70 961.89 1745.52 963.77 1767.74 971.54
  Q 1768.26 971.72 1768.26 971.17
  C 1768.38 939.95 1772.43 903.33 1791.67 878.20
  C 1825.23 834.34 1889.03 850.89 1929.55 872.58
  Q 1929.84 872.72 1930.09 872.69
  Q 1930.62 872.64 1930.63 872.10
  L 1931.00 831.24
  L 1931.00 1085.37
  L 1930.77 1085.49
  Q 1930.63 1085.56 1930.63 1085.40
  L 1930.62 950.56
  A 1.23 1.23 0.0 0 0 1929.36 949.33
  C 1876.50 950.63 1859.67 995.55 1862.98 1040.75
  Q 1863.05 1041.57 1862.56 1040.91
  C 1853.83 1029.02 1839.70 1019.51 1825.33 1029.09
  A 0.74 0.73 -44.2 0 1 1824.50 1029.08
  C 1804.17 1014.57 1768.17 1001.49 1751.53 1029.77
  Q 1745.66 1039.75 1743.30 1054.02
  A 0.45 0.45 0.0 0 1 1742.62 1054.33
  C 1733.06 1048.39 1718.96 1043.26 1708.15 1047.90
  C 1694.67 1053.70 1691.33 1071.87 1690.94 1084.70
  A 0.73 0.73 0.0 0 0 1691.67 1085.46
  L 1928.88 1085.51
  Q 1929.00 1085.51 1929.00 1085.63
  Q 1929.00 1085.81 1929.00 1086.00
  L 1382.96 1086.00
  C 1382.91 1057.12 1409.14 1047.50 1433.65 1049.30
  Q 1434.19 1049.34 1434.42 1048.84
  C 1444.67 1026.57 1460.50 1010.07 1483.35 1001.82
  C 1510.13 992.16 1542.70 995.08 1569.71 1004.00
  Q 1570.14 1004.15 1570.31 1003.73
  Q 1589.43 955.37 1636.37 936.43
  C 1664.95 924.90 1698.56 922.46 1728.98 926.90
  A 0.61 0.60 -85.9 0 0 1729.67 926.30
  C 1729.59 870.40 1743.02 795.29 1809.11 781.09
  C 1848.63 772.60 1896.01 787.04 1931.00 806.11
  Z
  M 1768.93 973.15
  Q 1745.85 965.13 1722.01 966.28
  C 1681.86 968.22 1655.47 995.67 1644.81 1032.64
  Q 1644.66 1033.17 1644.12 1033.04
  C 1620.08 1026.98 1591.91 1024.89 1568.08 1032.87
  Q 1542.81 1041.33 1533.64 1066.26
  Q 1533.45 1066.77 1532.95 1066.56
  C 1512.61 1057.74 1487.60 1056.06 1482.92 1084.47
  A 0.84 0.84 0.0 0 0 1483.75 1085.45
  L 1688.97 1085.47
  Q 1689.86 1085.47 1689.88 1084.58
  C 1690.13 1070.77 1693.93 1051.33 1709.26 1046.16
  C 1719.66 1042.65 1732.75 1046.91 1741.77 1052.38
  A 0.43 0.43 0.0 0 0 1742.42 1052.08
  C 1744.20 1041.29 1748.59 1029.72 1755.93 1021.97
  C 1774.26 1002.62 1805.56 1014.37 1824.47 1027.77
  A 0.77 0.75 -43.7 0 0 1825.33 1027.78
  C 1838.40 1019.26 1853.10 1026.71 1861.44 1038.11
  Q 1861.93 1038.79 1861.88 1037.95
  C 1860.45 1014.89 1864.11 987.75 1879.86 969.73
  Q 1898.81 948.06 1929.60 948.23
  A 0.83 0.83 0.0 0 0 1930.43 947.40
  Q 1930.43 912.25 1930.43 876.98
  Q 1930.43 876.84 1930.67 875.56
  Q 1930.84 874.59 1929.96 874.11
  C 1904.25 860.16 1871.92 849.90 1842.27 852.37
  C 1781.23 857.44 1768.70 923.90 1769.58 972.67
  Q 1769.60 973.38 1768.93 973.15
  Z"
/>
<path fill="#f0e1c1" d="
  M 1.22 872.62
  Q 0.81 872.50 0.81 872.25
  Q 0.70 839.97 0.77 807.02
  Q 22.49 795.38 49.52 787.30
  C 72.20 780.53 96.98 777.28 120.07 782.04
  C 178.43 794.06 196.30 852.57 199.31 904.26
  Q 199.99 915.99 200.31 927.74
  Q 200.33 928.32 200.90 928.24
  C 260.99 919.34 328.48 935.96 355.89 996.06
  Q 357.96 1000.59 359.93 1005.18
  Q 360.14 1005.67 360.65 1005.50
  C 390.69 995.34 428.63 992.28 457.61 1007.63
  C 475.35 1017.03 487.49 1031.53 495.76 1050.09
  Q 495.98 1050.59 496.53 1050.55
  C 519.98 1048.55 545.42 1057.00 546.91 1084.40
  A 0.87 0.86 -1.6 0 1 546.04 1085.31
  L 450.19 1085.39
  Q 449.61 1085.40 449.47 1084.84
  C 448.67 1081.78 448.14 1078.27 446.96 1075.66
  C 437.72 1055.12 416.30 1057.16 398.63 1064.95
  Q 398.13 1065.18 397.95 1064.66
  C 381.90 1020.27 324.09 1023.02 287.72 1031.47
  A 0.58 0.57 -14.4 0 1 287.04 1031.07
  C 278.75 1003.66 261.93 980.40 234.57 970.15
  C 212.39 961.83 185.43 963.83 163.29 971.50
  Q 162.75 971.68 162.75 971.12
  C 162.75 943.11 159.32 911.06 144.81 886.46
  C 113.53 833.40 46.31 848.68 1.22 872.62
  Z"
/>
<path fill="#f0e1c1" d="
  M 1930.33 807.24
  Q 1930.13 839.91 1930.37 872.25
  Q 1930.38 872.81 1929.55 872.58
  C 1889.03 850.89 1825.23 834.34 1791.67 878.20
  C 1772.43 903.33 1768.38 939.95 1768.26 971.17
  Q 1768.26 971.72 1767.74 971.54
  C 1745.52 963.77 1718.70 961.89 1696.44 970.14
  C 1669.12 980.27 1652.23 1003.71 1643.98 1031.05
  Q 1643.83 1031.56 1643.31 1031.44
  C 1605.65 1022.59 1549.99 1020.57 1532.77 1064.88
  A 0.29 0.29 0.0 0 1 1532.38 1065.04
  C 1511.61 1055.51 1485.69 1056.25 1481.69 1084.55
  A 0.93 0.92 -86.0 0 1 1480.78 1085.35
  L 1384.96 1085.29
  A 0.74 0.73 -89.6 0 1 1384.23 1084.54
  C 1384.46 1056.10 1412.09 1049.62 1434.70 1050.38
  A 0.78 0.76 -77.0 0 0 1435.43 1049.91
  C 1459.03 994.20 1519.91 988.35 1570.46 1005.56
  A 0.62 0.61 -70.3 0 0 1571.23 1005.19
  C 1595.79 938.47 1665.50 918.82 1730.28 928.20
  Q 1730.83 928.28 1730.83 927.73
  Q 1730.69 897.96 1736.40 868.89
  Q 1740.88 846.09 1751.99 825.74
  C 1771.46 790.06 1807.87 775.99 1847.23 780.58
  Q 1891.35 785.72 1930.33 807.24
  Z"
/>
<path fill="#d6a163" d="
  M 0.77 807.02
  Q 0.70 839.97 0.81 872.25
  Q 0.81 872.50 1.22 872.62
  Q 0.53 872.92 0.00 872.88
  L 0.00 807.50
  Q 0.46 807.58 0.77 807.02
  Z"
/>
<path fill="#d6a163" d="
  M 1930.33 807.24
  L 1931.00 811.17
  L 1931.00 831.24
  L 1930.63 872.10
  Q 1930.62 872.64 1930.09 872.69
  Q 1929.84 872.72 1929.55 872.58
  Q 1930.38 872.81 1930.37 872.25
  Q 1930.13 839.91 1930.33 807.24
  Z"
/>
<path fill="#e2c99a" d="
  M 162.10 973.17
  C 201.90 959.67 246.58 963.67 271.75 1001.51
  Q 281.40 1016.02 286.19 1032.62
  A 0.59 0.59 0.0 0 0 286.90 1033.03
  Q 313.73 1026.23 341.50 1028.31
  C 366.98 1030.23 388.26 1041.82 397.51 1066.54
  A 0.38 0.38 0.0 0 0 398.04 1066.75
  C 417.37 1056.88 444.45 1056.93 448.02 1084.56
  A 0.79 0.79 0.0 0 1 447.24 1085.45
  L 242.03 1085.45
  A 0.87 0.87 0.0 0 1 241.16 1084.60
  C 240.84 1066.09 233.49 1041.63 209.58 1045.12
  Q 198.76 1046.70 189.36 1052.27
  Q 188.82 1052.60 188.68 1051.98
  C 185.03 1035.90 178.65 1018.91 161.75 1013.45
  C 143.57 1007.58 121.17 1017.70 106.39 1027.56
  Q 105.97 1027.83 105.55 1027.57
  C 92.41 1019.30 78.36 1026.62 69.79 1037.48
  Q 69.21 1038.21 69.26 1037.28
  C 70.29 1019.36 68.05 998.83 59.77 982.83
  Q 42.65 949.75 1.27 947.69
  A 0.67 0.66 -88.7 0 1 0.64 947.02
  L 0.63 874.99
  A 0.95 0.94 -14.4 0 1 1.13 874.16
  C 39.16 853.60 99.76 836.63 134.21 874.02
  C 157.25 899.03 161.60 940.52 161.49 972.73
  Q 161.49 973.37 162.10 973.17
  Z"
/>
<path fill="#e2c99a" d="
  M 1769.58 972.67
  C 1768.70 923.90 1781.23 857.44 1842.27 852.37
  C 1871.92 849.90 1904.25 860.16 1929.96 874.11
  Q 1930.84 874.59 1930.67 875.56
  Q 1930.43 876.84 1930.43 876.98
  Q 1930.43 912.25 1930.43 947.40
  A 0.83 0.83 0.0 0 1 1929.60 948.23
  Q 1898.81 948.06 1879.86 969.73
  C 1864.11 987.75 1860.45 1014.89 1861.88 1037.95
  Q 1861.93 1038.79 1861.44 1038.11
  C 1853.10 1026.71 1838.40 1019.26 1825.33 1027.78
  A 0.77 0.75 -43.7 0 1 1824.47 1027.77
  C 1805.56 1014.37 1774.26 1002.62 1755.93 1021.97
  C 1748.59 1029.72 1744.20 1041.29 1742.42 1052.08
  A 0.43 0.43 0.0 0 1 1741.77 1052.38
  C 1732.75 1046.91 1719.66 1042.65 1709.26 1046.16
  C 1693.93 1051.33 1690.13 1070.77 1689.88 1084.58
  Q 1689.86 1085.47 1688.97 1085.47
  L 1483.75 1085.45
  A 0.84 0.84 0.0 0 1 1482.92 1084.47
  C 1487.60 1056.06 1512.61 1057.74 1532.95 1066.56
  Q 1533.45 1066.77 1533.64 1066.26
  Q 1542.81 1041.33 1568.08 1032.87
  C 1591.91 1024.89 1620.08 1026.98 1644.12 1033.04
  Q 1644.66 1033.17 1644.81 1032.64
  C 1655.47 995.67 1681.86 968.22 1722.01 966.28
  Q 1745.85 965.13 1768.93 973.15
  Q 1769.60 973.38 1769.58 972.67
  Z"
/>
<path fill="#d6a163" d="
  M 68.46 1041.13
  C 76.64 1029.36 91.63 1019.52 105.54 1029.08
  A 0.74 0.74 0.0 0 0 106.38 1029.08
  C 122.44 1018.08 150.50 1005.52 169.08 1018.41
  C 180.67 1026.45 185.15 1040.82 187.80 1054.02
  Q 187.92 1054.62 188.44 1054.30
  C 207.07 1043.02 229.74 1040.61 237.07 1066.08
  Q 239.70 1075.20 240.09 1085.07
  A 0.39 0.39 0.0 0 1 239.70 1085.47
  L 1.49 1085.39
  A 0.90 0.90 0.0 0 1 0.59 1084.49
  L 0.64 950.50
  Q 0.64 949.26 1.89 949.29
  Q 38.03 950.31 55.68 978.02
  C 67.40 996.43 68.85 1019.72 67.96 1040.96
  Q 67.92 1041.91 68.46 1041.13
  Z"
/>
<path fill="#d6a163" d="
  M 1931.00 1085.37
  L 1931.00 1086.00
  L 1929.00 1086.00
  Q 1929.00 1085.81 1929.00 1085.63
  Q 1929.00 1085.51 1928.88 1085.51
  L 1691.67 1085.46
  A 0.73 0.73 0.0 0 1 1690.94 1084.70
  C 1691.33 1071.87 1694.67 1053.70 1708.15 1047.90
  C 1718.96 1043.26 1733.06 1048.39 1742.62 1054.33
  A 0.45 0.45 0.0 0 0 1743.30 1054.02
  Q 1745.66 1039.75 1751.53 1029.77
  C 1768.17 1001.49 1804.17 1014.57 1824.50 1029.08
  A 0.74 0.73 -44.2 0 0 1825.33 1029.09
  C 1839.70 1019.51 1853.83 1029.02 1862.56 1040.91
  Q 1863.05 1041.57 1862.98 1040.75
  C 1859.67 995.55 1876.50 950.63 1929.36 949.33
  A 1.23 1.23 0.0 0 1 1930.62 950.56
  L 1930.63 1085.40
  Q 1930.63 1085.56 1930.77 1085.49
  L 1931.00 1085.37
  Z"
/>
</svg>
