<?xml version="1.0" encoding="UTF-8" standalone="no"?>
<!DOCTYPE svg PUBLIC "-//W3C//DTD SVG 1.1//EN" "http://www.w3.org/Graphics/SVG/1.1/DTD/svg11.dtd">
<svg xmlns="http://www.w3.org/2000/svg" version="1.1" viewBox="0.00 0.00 3461.00 604.00">
<g stroke-width="2.00" fill="none" stroke-linecap="butt">
<path stroke="#ae5840" vector-effect="non-scaling-stroke" d="
  M 0.00 289.93
  Q 134.78 360.97 263.77 441.87
  A 0.55 0.55 0.0 0 0 264.50 441.74
  L 279.95 421.72
  A 0.97 0.95 55.2 0 0 280.10 420.83
  Q 276.39 409.56 272.65 398.30
  C 272.39 397.52 271.51 396.83 270.84 396.39
  Q 137.77 308.25 0.00 227.94"
/>
<path stroke="#b2813f" vector-effect="non-scaling-stroke" d="
  M 0.00 225.50
  Q 137.62 306.20 270.61 393.87
  Q 271.41 394.40 271.11 393.49
  L 255.96 347.00
  A 0.41 0.41 0.0 0 1 256.49 346.49
  L 293.68 359.59
  Q 295.55 360.24 294.05 358.95
  Q 189.63 268.67 74.77 190.23
  Q 44.57 169.61 0.00 143.21"
/>
<path stroke="#647b6f" vector-effect="non-scaling-stroke" d="
  M 0.00 140.66
  Q 46.14 168.14 83.56 193.92
  Q 194.44 270.31 300.19 361.30
  Q 301.01 362.01 302.04 362.38
  Q 315.31 367.17 328.80 372.05
  A 2.90 2.87 36.6 0 0 331.48 371.67
  L 355.11 354.40
  A 0.41 0.41 0.0 0 0 355.15 353.77
  C 282.08 286.72 206.10 222.33 126.18 163.59
  C 86.35 134.31 44.65 106.37 0.00 84.92"
/>
<path stroke="#b38c4f" vector-effect="non-scaling-stroke" d="
  M 312.45 482.80
  L 354.91 544.60
  A 0.50 0.50 0.0 0 0 355.79 544.47
  L 378.72 473.67
  A 2.02 2.02 0.0 0 1 380.08 472.35
  L 451.57 451.03
  A 0.44 0.43 54.7 0 0 451.70 450.26
  L 390.97 406.25
  A 1.02 1.01 17.0 0 1 390.55 405.47
  Q 390.43 401.61 390.59 397.75
  Q 392.04 364.01 392.14 330.50
  A 0.48 0.48 0.0 0 0 391.38 330.11
  L 331.57 374.07
  A 2.17 2.16 -53.1 0 1 329.56 374.36
  L 259.48 349.60
  Q 258.84 349.38 259.05 350.02
  L 282.06 420.66
  Q 282.47 421.90 281.66 422.94
  L 236.11 481.65
  A 0.68 0.68 0.0 0 0 236.64 482.74
  Q 266.69 482.78 297.04 482.74
  C 300.72 482.74 306.81 481.90 311.75 482.39
  A 0.95 0.94 -14.2 0 1 312.45 482.80"
/>
<path stroke="#647b6f" vector-effect="non-scaling-stroke" d="
  M 3461.00 84.92
  Q 3440.55 94.67 3421.01 106.21
  C 3381.59 129.49 3344.27 155.92 3307.96 183.75
  Q 3203.11 264.13 3105.94 353.70
  A 0.54 0.54 0.0 0 0 3105.98 354.53
  L 3130.22 372.21
  Q 3130.62 372.51 3131.11 372.35
  Q 3145.24 367.59 3159.21 362.38
  C 3160.01 362.08 3160.54 361.43 3161.15 360.91
  Q 3228.80 303.13 3299.93 249.69
  Q 3380.96 188.83 3461.00 140.58"
/>
<path stroke="#b2813f" vector-effect="non-scaling-stroke" d="
  M 3461.00 143.20
  Q 3435.53 158.21 3423.47 165.90
  C 3334.14 222.86 3247.36 289.39 3166.26 359.36
  A 0.28 0.28 0.0 0 0 3166.53 359.83
  L 3204.52 346.52
  A 0.39 0.39 0.0 0 1 3205.02 347.01
  L 3189.84 393.55
  A 0.32 0.32 0.0 0 0 3190.32 393.91
  Q 3323.16 306.05 3461.00 225.48"
/>
<path stroke="#ae5840" vector-effect="non-scaling-stroke" d="
  M 3461.00 228.01
  Q 3322.64 308.88 3189.00 397.27
  Q 3188.51 397.59 3188.33 398.16
  L 3180.91 420.90
  Q 3180.75 421.37 3181.05 421.76
  L 3196.45 441.84
  Q 3196.74 442.22 3197.15 441.96
  Q 3325.55 361.45 3459.59 290.73
  Q 3460.07 290.48 3460.59 290.63
  L 3461.00 290.75"
/>
<path stroke="#b38c4f" vector-effect="non-scaling-stroke" d="
  M 3069.90 406.36
  L 3009.16 450.47
  A 0.26 0.26 0.0 0 0 3009.24 450.93
  L 3080.71 472.18
  A 2.34 2.34 0.0 0 1 3082.27 473.70
  L 3105.25 544.65
  A 0.35 0.35 0.0 0 0 3105.88 544.74
  L 3148.43 483.01
  A 1.75 1.74 17.6 0 1 3149.91 482.25
  C 3155.11 482.37 3160.44 482.77 3165.36 482.76
  Q 3194.98 482.74 3224.91 482.77
  A 0.31 0.31 0.0 0 0 3225.22 482.40
  Q 3225.14 481.99 3224.86 481.63
  Q 3201.86 451.94 3178.87 422.20
  Q 3178.57 421.81 3178.72 421.35
  L 3201.96 350.00
  Q 3202.17 349.38 3201.55 349.59
  L 3131.22 374.41
  A 1.79 1.78 53.1 0 1 3129.58 374.17
  L 3069.63 330.03
  A 0.64 0.64 0.0 0 0 3068.62 330.56
  L 3070.35 405.46
  Q 3070.36 406.02 3069.90 406.36"
/>
</g>
<path fill="#6d5844" d="
  M 0.00 292.41
  L 0.00 289.93
  Q 134.78 360.97 263.77 441.87
  A 0.55 0.55 0.0 0 0 264.50 441.74
  L 279.95 421.72
  A 0.97 0.95 55.2 0 0 280.10 420.83
  Q 276.39 409.56 272.65 398.30
  C 272.39 397.52 271.51 396.83 270.84 396.39
  Q 137.77 308.25 0.00 227.94
  L 0.00 225.50
  Q 137.62 306.20 270.61 393.87
  Q 271.41 394.40 271.11 393.49
  L 255.96 347.00
  A 0.41 0.41 0.0 0 1 256.49 346.49
  L 293.68 359.59
  Q 295.55 360.24 294.05 358.95
  Q 189.63 268.67 74.77 190.23
  Q 44.57 169.61 0.00 143.21
  L 0.00 140.66
  Q 46.14 168.14 83.56 193.92
  Q 194.44 270.31 300.19 361.30
  Q 301.01 362.01 302.04 362.38
  Q 315.31 367.17 328.80 372.05
  A 2.90 2.87 36.6 0 0 331.48 371.67
  L 355.11 354.40
  A 0.41 0.41 0.0 0 0 355.15 353.77
  C 282.08 286.72 206.10 222.33 126.18 163.59
  C 86.35 134.31 44.65 106.37 0.00 84.92
  L 0.00 82.53
  Q 35.02 99.42 68.81 121.43
  C 129.32 160.85 185.50 204.80 244.08 253.67
  Q 301.77 301.79 356.68 352.29
  A 1.33 1.32 48.4 0 0 358.36 352.39
  L 392.89 327.20
  Q 393.82 326.52 393.79 327.67
  L 391.89 404.52
  Q 391.88 405.08 392.33 405.41
  L 455.07 450.91
  A 0.32 0.32 0.0 0 1 454.97 451.48
  L 380.73 473.58
  A 1.06 1.05 -89.4 0 0 380.03 474.27
  L 356.25 547.72
  A 0.45 0.45 0.0 0 1 355.45 547.84
  L 311.63 484.25
  Q 311.33 483.82 310.80 483.82
  L 233.70 484.04
  Q 232.59 484.04 233.26 483.15
  L 262.59 444.84
  A 0.89 0.89 0.0 0 0 262.36 443.55
  Q 133.99 363.17 0.00 292.41
  Z
  M 312.45 482.80
  L 354.91 544.60
  A 0.50 0.50 0.0 0 0 355.79 544.47
  L 378.72 473.67
  A 2.02 2.02 0.0 0 1 380.08 472.35
  L 451.57 451.03
  A 0.44 0.43 54.7 0 0 451.70 450.26
  L 390.97 406.25
  A 1.02 1.01 17.0 0 1 390.55 405.47
  Q 390.43 401.61 390.59 397.75
  Q 392.04 364.01 392.14 330.50
  A 0.48 0.48 0.0 0 0 391.38 330.11
  L 331.57 374.07
  A 2.17 2.16 -53.1 0 1 329.56 374.36
  L 259.48 349.60
  Q 258.84 349.38 259.05 350.02
  L 282.06 420.66
  Q 282.47 421.90 281.66 422.94
  L 236.11 481.65
  A 0.68 0.68 0.0 0 0 236.64 482.74
  Q 266.69 482.78 297.04 482.74
  C 300.72 482.74 306.81 481.90 311.75 482.39
  A 0.95 0.94 -14.2 0 1 312.45 482.80
  Z"
/>
<path fill="#6d5844" d="
  M 3461.00 82.55
  L 3461.00 84.92
  Q 3440.55 94.67 3421.01 106.21
  C 3381.59 129.49 3344.27 155.92 3307.96 183.75
  Q 3203.11 264.13 3105.94 353.70
  A 0.54 0.54 0.0 0 0 3105.98 354.53
  L 3130.22 372.21
  Q 3130.62 372.51 3131.11 372.35
  Q 3145.24 367.59 3159.21 362.38
  C 3160.01 362.08 3160.54 361.43 3161.15 360.91
  Q 3228.80 303.13 3299.93 249.69
  Q 3380.96 188.83 3461.00 140.58
  L 3461.00 143.20
  Q 3435.53 158.21 3423.47 165.90
  C 3334.14 222.86 3247.36 289.39 3166.26 359.36
  A 0.28 0.28 0.0 0 0 3166.53 359.83
  L 3204.52 346.52
  A 0.39 0.39 0.0 0 1 3205.02 347.01
  L 3189.84 393.55
  A 0.32 0.32 0.0 0 0 3190.32 393.91
  Q 3323.16 306.05 3461.00 225.48
  L 3461.00 228.01
  Q 3322.64 308.88 3189.00 397.27
  Q 3188.51 397.59 3188.33 398.16
  L 3180.91 420.90
  Q 3180.75 421.37 3181.05 421.76
  L 3196.45 441.84
  Q 3196.74 442.22 3197.15 441.96
  Q 3325.55 361.45 3459.59 290.73
  Q 3460.07 290.48 3460.59 290.63
  L 3461.00 290.75
  L 3461.00 292.42
  Q 3327.10 363.06 3198.80 443.47
  Q 3197.84 444.08 3198.53 444.98
  L 3227.64 483.03
  Q 3228.40 484.02 3227.15 484.02
  L 3150.15 483.83
  Q 3149.65 483.83 3149.36 484.25
  L 3105.68 547.67
  Q 3105.03 548.62 3104.67 547.52
  L 3080.95 474.27
  A 1.03 1.02 88.8 0 0 3080.26 473.60
  L 3006.40 451.61
  Q 3005.39 451.31 3006.24 450.70
  L 3068.66 405.42
  Q 3069.12 405.09 3069.11 404.53
  L 3067.21 327.05
  A 0.26 0.26 0.0 0 1 3067.62 326.83
  L 3102.52 352.29
  Q 3103.53 353.03 3104.46 352.18
  C 3172.40 289.76 3242.55 230.19 3315.99 174.78
  Q 3354.59 145.66 3395.21 119.42
  Q 3426.82 99.00 3461.00 82.55
  Z
  M 3069.90 406.36
  L 3009.16 450.47
  A 0.26 0.26 0.0 0 0 3009.24 450.93
  L 3080.71 472.18
  A 2.34 2.34 0.0 0 1 3082.27 473.70
  L 3105.25 544.65
  A 0.35 0.35 0.0 0 0 3105.88 544.74
  L 3148.43 483.01
  A 1.75 1.74 17.6 0 1 3149.91 482.25
  C 3155.11 482.37 3160.44 482.77 3165.36 482.76
  Q 3194.98 482.74 3224.91 482.77
  A 0.31 0.31 0.0 0 0 3225.22 482.40
  Q 3225.14 481.99 3224.86 481.63
  Q 3201.86 451.94 3178.87 422.20
  Q 3178.57 421.81 3178.72 421.35
  L 3201.96 350.00
  Q 3202.17 349.38 3201.55 349.59
  L 3131.22 374.41
  A 1.79 1.78 53.1 0 1 3129.58 374.17
  L 3069.63 330.03
  A 0.64 0.64 0.0 0 0 3068.62 330.56
  L 3070.35 405.46
  Q 3070.36 406.02 3069.90 406.36
  Z"
/>
<path fill="#5a9e99" d="
  M 3461.00 84.92
  L 3461.00 140.58
  Q 3380.96 188.83 3299.93 249.69
  Q 3228.80 303.13 3161.15 360.91
  C 3160.54 361.43 3160.01 362.08 3159.21 362.38
  Q 3145.24 367.59 3131.11 372.35
  Q 3130.62 372.51 3130.22 372.21
  L 3105.98 354.53
  A 0.54 0.54 0.0 0 1 3105.94 353.70
  Q 3203.11 264.13 3307.96 183.75
  C 3344.27 155.92 3381.59 129.49 3421.01 106.21
  Q 3440.55 94.67 3461.00 84.92
  Z"
/>
<path fill="#5a9e99" d="
  M 0.00 84.92
  C 44.65 106.37 86.35 134.31 126.18 163.59
  C 206.10 222.33 282.08 286.72 355.15 353.77
  A 0.41 0.41 0.0 0 1 355.11 354.40
  L 331.48 371.67
  A 2.90 2.87 36.6 0 1 328.80 372.05
  Q 315.31 367.17 302.04 362.38
  Q 301.01 362.01 300.19 361.30
  Q 194.44 270.31 83.56 193.92
  Q 46.14 168.14 0.00 140.66
  L 0.00 84.92
  Z"
/>
<path fill="#f6aa3a" d="
  M 3461.00 143.20
  L 3461.00 225.48
  Q 3323.16 306.05 3190.32 393.91
  A 0.32 0.32 0.0 0 1 3189.84 393.55
  L 3205.02 347.01
  A 0.39 0.39 0.0 0 0 3204.52 346.52
  L 3166.53 359.83
  A 0.28 0.28 0.0 0 1 3166.26 359.36
  C 3247.36 289.39 3334.14 222.86 3423.47 165.90
  Q 3435.53 158.21 3461.00 143.20
  Z"
/>
<path fill="#f6aa3a" d="
  M 0.00 143.21
  Q 44.57 169.61 74.77 190.23
  Q 189.63 268.67 294.05 358.95
  Q 295.55 360.24 293.68 359.59
  L 256.49 346.49
  A 0.41 0.41 0.0 0 0 255.96 347.00
  L 271.11 393.49
  Q 271.41 394.40 270.61 393.87
  Q 137.62 306.20 0.00 225.50
  L 0.00 143.21
  Z"
/>
<path fill="#ee583b" d="
  M 0.00 227.94
  Q 137.77 308.25 270.84 396.39
  C 271.51 396.83 272.39 397.52 272.65 398.30
  Q 276.39 409.56 280.10 420.83
  A 0.97 0.95 55.2 0 1 279.95 421.72
  L 264.50 441.74
  A 0.55 0.55 0.0 0 1 263.77 441.87
  Q 134.78 360.97 0.00 289.93
  L 0.00 227.94
  Z"
/>
<path fill="#ee583b" d="
  M 3461.00 228.01
  L 3461.00 290.75
  L 3460.59 290.63
  Q 3460.07 290.48 3459.59 290.73
  Q 3325.55 361.45 3197.15 441.96
  Q 3196.74 442.22 3196.45 441.84
  L 3181.05 421.76
  Q 3180.75 421.37 3180.91 420.90
  L 3188.33 398.16
  Q 3188.51 397.59 3189.00 397.27
  Q 3322.64 308.88 3461.00 228.01
  Z"
/>
<path fill="#f8c059" d="
  M 311.75 482.39
  C 306.81 481.90 300.72 482.74 297.04 482.74
  Q 266.69 482.78 236.64 482.74
  A 0.68 0.68 0.0 0 1 236.11 481.65
  L 281.66 422.94
  Q 282.47 421.90 282.06 420.66
  L 259.05 350.02
  Q 258.84 349.38 259.48 349.60
  L 329.56 374.36
  A 2.17 2.16 -53.1 0 0 331.57 374.07
  L 391.38 330.11
  A 0.48 0.48 0.0 0 1 392.14 330.50
  Q 392.04 364.01 390.59 397.75
  Q 390.43 401.61 390.55 405.47
  A 1.02 1.01 17.0 0 0 390.97 406.25
  L 451.70 450.26
  A 0.44 0.43 54.7 0 1 451.57 451.03
  L 380.08 472.35
  A 2.02 2.02 0.0 0 0 378.72 473.67
  L 355.79 544.47
  A 0.50 0.50 0.0 0 1 354.91 544.60
  L 312.45 482.80
  A 0.95 0.94 -14.2 0 0 311.75 482.39
  Z"
/>
<path fill="#f8c059" d="
  M 3070.35 405.46
  L 3068.62 330.56
  A 0.64 0.64 0.0 0 1 3069.63 330.03
  L 3129.58 374.17
  A 1.79 1.78 53.1 0 0 3131.22 374.41
  L 3201.55 349.59
  Q 3202.17 349.38 3201.96 350.00
  L 3178.72 421.35
  Q 3178.57 421.81 3178.87 422.20
  Q 3201.86 451.94 3224.86 481.63
  Q 3225.14 481.99 3225.22 482.40
  A 0.31 0.31 0.0 0 1 3224.91 482.77
  Q 3194.98 482.74 3165.36 482.76
  C 3160.44 482.77 3155.11 482.37 3149.91 482.25
  A 1.75 1.74 17.6 0 0 3148.43 483.01
  L 3105.88 544.74
  A 0.35 0.35 0.0 0 1 3105.25 544.65
  L 3082.27 473.70
  A 2.34 2.34 0.0 0 0 3080.71 472.18
  L 3009.24 450.93
  A 0.26 0.26 0.0 0 1 3009.16 450.47
  L 3069.90 406.36
  Q 3070.36 406.02 3070.35 405.46
  Z"
/>
</svg>
