<?xml version="1.0" encoding="UTF-8" standalone="no"?>
<!DOCTYPE svg PUBLIC "-//W3C//DTD SVG 1.1//EN" "http://www.w3.org/Graphics/SVG/1.1/DTD/svg11.dtd">
<svg xmlns="http://www.w3.org/2000/svg" version="1.1" viewBox="0.00 0.00 3066.00 683.00">
<g stroke-width="2.00" fill="none" stroke-linecap="butt">
<path stroke="#a17c54" vector-effect="non-scaling-stroke" d="
  M 133.29 87.29
  C 149.47 109.86 178.33 130.28 205.78 110.85
  A 1.39 1.38 -45.2 0 1 207.38 110.84
  C 245.75 137.46 310.54 163.18 345.00 116.55
  C 356.30 101.26 363.11 80.60 365.83 61.89
  A 0.52 0.51 19.9 0 1 366.61 61.53
  C 383.19 71.73 404.83 80.08 424.03 77.25
  C 458.91 72.11 466.53 30.83 467.74 1.92
  Q 467.77 1.20 467.04 1.20
  L 1.49 1.19
  Q 1.18 1.19 1.18 1.51
  L 1.20 265.74
  A 0.47 0.47 0.0 0 0 1.66 266.21
  Q 32.87 266.78 60.46 253.73
  C 123.57 223.88 136.53 150.26 132.36 87.63
  Q 132.24 85.82 133.29 87.29"
/>
<path stroke="#a7906f" vector-effect="non-scaling-stroke" d="
  M 558.64 103.29
  C 630.09 120.72 743.92 126.67 774.34 37.78
  Q 774.51 37.27 775.01 37.50
  C 794.99 46.79 822.85 54.41 844.28 45.26
  C 861.99 37.70 870.62 20.05 873.23 1.60
  A 0.36 0.35 -85.8 0 0 872.88 1.19
  L 470.73 1.20
  A 0.58 0.58 0.0 0 0 470.15 1.76
  C 468.90 33.17 459.97 77.23 420.16 80.02
  C 402.83 81.24 383.08 74.29 368.19 65.23
  A 0.43 0.42 -69.6 0 0 367.55 65.53
  C 362.16 97.49 345.62 134.28 310.75 142.51
  C 275.76 150.77 235.28 132.76 206.86 113.52
  Q 206.44 113.23 206.01 113.52
  C 179.88 130.88 153.32 114.95 135.54 94.39
  Q 135.06 93.84 135.07 94.57
  Q 135.18 101.92 135.19 109.24
  C 135.26 162.46 121.27 218.92 73.42 249.30
  C 52.34 262.69 26.53 268.99 1.60 268.63
  A 0.40 0.40 0.0 0 0 1.20 269.03
  L 1.19 411.95
  A 0.59 0.58 15.0 0 0 1.49 412.46
  Q 51.29 439.41 106.77 451.16
  C 138.32 457.84 172.99 458.88 203.72 449.45
  C 268.13 429.70 297.18 369.01 307.84 307.23
  Q 315.28 264.06 314.64 220.12
  A 0.57 0.57 0.0 0 1 315.40 219.57
  C 348.79 231.86 386.09 236.89 421.42 232.10
  C 467.18 225.89 506.14 201.68 531.07 162.70
  Q 548.65 135.21 557.88 103.73
  Q 558.05 103.14 558.64 103.29"
/>
<path stroke="#ae9c83" vector-effect="non-scaling-stroke" d="
  M 390.60 307.33
  C 442.03 314.91 495.87 312.77 545.98 298.41
  C 619.62 277.30 674.81 229.12 701.16 156.97
  Q 701.40 156.32 702.05 156.54
  C 738.59 169.02 778.65 175.28 817.25 172.70
  C 885.44 168.16 938.75 133.09 965.93 69.91
  Q 966.16 69.39 966.72 69.34
  Q 967.81 69.26 969.58 69.38
  C 994.66 71.08 1028.16 65.58 1047.11 47.32
  Q 1065.70 29.40 1065.28 1.50
  Q 1065.27 1.18 1064.96 1.18
  L 876.25 1.18
  A 0.61 0.60 -86.2 0 0 875.65 1.71
  C 871.51 34.13 850.02 54.28 816.47 51.40
  Q 796.12 49.66 776.43 40.78
  Q 775.94 40.56 775.75 41.07
  C 754.02 100.47 694.00 116.98 636.73 115.84
  Q 597.96 115.07 560.10 105.97
  Q 559.57 105.84 559.41 106.36
  Q 550.80 134.99 536.13 159.14
  C 507.80 205.79 462.65 232.65 408.02 235.51
  Q 361.75 237.94 317.44 222.98
  Q 316.92 222.81 316.93 223.35
  Q 317.46 271.60 307.90 318.74
  C 301.21 351.73 288.40 384.82 267.16 410.16
  C 222.25 463.76 151.50 465.78 88.75 449.46
  Q 43.04 437.57 1.59 415.30
  A 0.26 0.26 0.0 0 0 1.21 415.53
  L 1.21 542.96
  A 0.74 0.74 0.0 0 0 1.60 543.61
  Q 66.07 578.19 138.00 591.68
  Q 178.98 599.37 218.72 594.74
  Q 288.08 586.66 331.11 533.65
  C 356.27 502.66 370.91 462.40 378.91 423.74
  C 386.85 385.44 389.76 346.86 390.06 307.80
  Q 390.06 307.26 390.60 307.33"
/>
<path stroke="#ae9c83" vector-effect="non-scaling-stroke" d="
  M 2373.38 155.07
  Q 2404.03 237.54 2481.07 277.06
  C 2510.17 291.99 2543.94 300.96 2576.30 304.81
  C 2611.13 308.96 2645.94 308.74 2680.65 303.40
  A 0.26 0.25 -3.0 0 1 2680.94 303.65
  Q 2680.62 347.26 2686.70 390.50
  C 2697.36 466.24 2729.52 549.02 2808.29 577.40
  Q 2838.66 588.33 2871.26 588.99
  Q 2901.30 589.59 2925.04 585.34
  Q 2998.66 572.17 3064.21 537.00
  Q 3064.80 536.69 3064.80 536.02
  L 3064.80 410.74
  A 0.48 0.47 75.8 0 0 3064.10 410.32
  Q 3013.30 437.67 2956.87 448.56
  C 2938.06 452.19 2918.82 453.23 2899.76 452.20
  C 2845.94 449.30 2805.35 421.02 2781.67 373.34
  Q 2769.46 348.76 2763.57 322.72
  Q 2752.27 272.76 2753.22 220.22
  Q 2753.23 219.72 2752.76 219.88
  Q 2703.62 237.03 2652.12 231.63
  C 2602.45 226.42 2561.46 199.11 2535.95 156.26
  Q 2521.63 132.20 2513.43 105.13
  Q 2513.27 104.61 2512.74 104.74
  C 2442.93 121.40 2330.23 126.33 2299.88 40.36
  Q 2299.68 39.79 2299.13 40.05
  C 2271.90 52.84 2231.98 59.27 2212.14 31.32
  C 2206.17 22.90 2202.58 12.13 2201.07 1.75
  A 0.67 0.66 -4.0 0 0 2200.41 1.18
  L 2014.01 1.18
  Q 2013.52 1.18 2013.55 1.67
  Q 2013.84 6.10 2014.37 10.49
  C 2020.20 58.62 2070.41 71.29 2110.86 68.43
  A 1.10 1.08 76.0 0 1 2111.94 69.09
  C 2138.96 131.80 2192.43 166.66 2260.00 170.65
  C 2297.98 172.89 2336.63 166.76 2372.63 154.72
  Q 2373.18 154.53 2373.38 155.07"
/>
<path stroke="#a7906f" vector-effect="non-scaling-stroke" d="
  M 2755.00 217.53
  Q 2754.66 255.34 2760.09 292.74
  C 2769.51 357.67 2797.52 424.09 2866.51 444.34
  C 2897.80 453.52 2930.80 452.14 2962.57 445.27
  Q 3016.15 433.69 3064.23 407.43
  A 1.09 1.08 -14.5 0 0 3064.80 406.48
  L 3064.80 265.98
  Q 3064.80 265.41 3064.23 265.41
  C 3018.40 265.43 2977.44 245.43 2954.29 204.96
  C 2939.04 178.30 2932.84 145.18 2932.57 114.23
  Q 2932.47 103.85 2932.52 93.23
  Q 2932.52 92.48 2932.05 93.06
  C 2915.34 114.04 2888.17 128.67 2862.36 112.12
  A 0.84 0.82 43.7 0 0 2861.44 112.13
  Q 2835.29 130.33 2804.67 138.87
  C 2788.73 143.31 2769.50 144.70 2753.82 139.10
  C 2722.72 128.00 2707.98 95.57 2703.06 64.91
  A 0.56 0.56 0.0 0 0 2702.23 64.52
  C 2685.25 74.45 2662.18 82.57 2642.36 77.53
  C 2610.27 69.37 2602.43 29.97 2601.71 1.87
  A 0.69 0.69 0.0 0 0 2601.02 1.20
  L 2203.98 1.20
  A 0.45 0.45 0.0 0 0 2203.53 1.72
  C 2205.25 13.30 2209.59 25.59 2217.38 34.15
  C 2238.11 56.90 2275.89 49.27 2300.43 36.97
  Q 2300.92 36.72 2301.10 37.24
  Q 2316.44 81.72 2359.98 99.53
  C 2386.29 110.28 2416.05 113.39 2444.25 112.18
  Q 2479.90 110.64 2514.41 101.96
  A 0.43 0.41 74.0 0 1 2514.91 102.25
  C 2520.85 122.08 2529.31 141.99 2540.60 159.38
  Q 2581.84 222.89 2658.28 230.22
  C 2690.26 233.29 2724.27 227.87 2754.51 217.17
  Q 2755.01 217.00 2755.00 217.53"
/>
<path stroke="#a17c54" vector-effect="non-scaling-stroke" d="
  M 2935.26 85.86
  C 2932.68 129.51 2936.96 178.51 2963.56 215.19
  C 2986.53 246.86 3024.90 263.91 3063.93 262.89
  A 0.88 0.88 0.0 0 0 3064.79 262.01
  L 3064.79 1.51
  Q 3064.79 1.19 3064.48 1.19
  L 2604.74 1.20
  A 0.50 0.50 0.0 0 0 2604.24 1.70
  Q 2604.43 21.68 2610.33 40.68
  C 2617.99 65.34 2637.09 80.70 2663.77 76.29
  Q 2685.61 72.68 2704.06 60.60
  A 0.35 0.35 0.0 0 1 2704.59 60.84
  C 2707.88 82.37 2715.92 106.26 2731.35 122.15
  C 2767.55 159.43 2826.81 132.83 2861.67 109.22
  Q 2862.11 108.92 2862.55 109.22
  C 2868.49 113.29 2874.50 116.16 2881.64 116.96
  C 2903.40 119.41 2923.20 101.99 2934.79 85.69
  Q 2935.31 84.96 2935.26 85.86"
/>
</g>
<path fill="#6b5644" d="
  M 0.00 0.00
  L 1067.66 0.00
  Q 1068.25 38.52 1037.77 57.46
  C 1018.25 69.59 990.96 73.34 968.32 71.66
  Q 967.80 71.63 967.59 72.10
  Q 953.44 104.96 930.20 127.68
  C 903.98 153.32 870.89 168.02 834.74 173.26
  C 791.65 179.51 744.76 173.18 703.30 159.73
  Q 702.82 159.57 702.64 160.04
  C 684.54 208.67 650.83 250.52 605.60 276.06
  Q 563.63 299.76 514.93 308.14
  Q 453.59 318.69 393.06 310.13
  Q 392.52 310.06 392.51 310.60
  Q 392.26 323.56 391.82 336.49
  Q 390.17 385.22 379.35 432.72
  C 371.65 466.55 358.98 499.38 338.64 527.70
  C 277.12 613.37 171.03 609.01 81.26 579.99
  Q 38.17 566.06 0.00 545.57
  L 0.00 0.00
  Z
  M 133.29 87.29
  C 149.47 109.86 178.33 130.28 205.78 110.85
  A 1.39 1.38 -45.2 0 1 207.38 110.84
  C 245.75 137.46 310.54 163.18 345.00 116.55
  C 356.30 101.26 363.11 80.60 365.83 61.89
  A 0.52 0.51 19.9 0 1 366.61 61.53
  C 383.19 71.73 404.83 80.08 424.03 77.25
  C 458.91 72.11 466.53 30.83 467.74 1.92
  Q 467.77 1.20 467.04 1.20
  L 1.49 1.19
  Q 1.18 1.19 1.18 1.51
  L 1.20 265.74
  A 0.47 0.47 0.0 0 0 1.66 266.21
  Q 32.87 266.78 60.46 253.73
  C 123.57 223.88 136.53 150.26 132.36 87.63
  Q 132.24 85.82 133.29 87.29
  Z
  M 558.64 103.29
  C 630.09 120.72 743.92 126.67 774.34 37.78
  Q 774.51 37.27 775.01 37.50
  C 794.99 46.79 822.85 54.41 844.28 45.26
  C 861.99 37.70 870.62 20.05 873.23 1.60
  A 0.36 0.35 -85.8 0 0 872.88 1.19
  L 470.73 1.20
  A 0.58 0.58 0.0 0 0 470.15 1.76
  C 468.90 33.17 459.97 77.23 420.16 80.02
  C 402.83 81.24 383.08 74.29 368.19 65.23
  A 0.43 0.42 -69.6 0 0 367.55 65.53
  C 362.16 97.49 345.62 134.28 310.75 142.51
  C 275.76 150.77 235.28 132.76 206.86 113.52
  Q 206.44 113.23 206.01 113.52
  C 179.88 130.88 153.32 114.95 135.54 94.39
  Q 135.06 93.84 135.07 94.57
  Q 135.18 101.92 135.19 109.24
  C 135.26 162.46 121.27 218.92 73.42 249.30
  C 52.34 262.69 26.53 268.99 1.60 268.63
  A 0.40 0.40 0.0 0 0 1.20 269.03
  L 1.19 411.95
  A 0.59 0.58 15.0 0 0 1.49 412.46
  Q 51.29 439.41 106.77 451.16
  C 138.32 457.84 172.99 458.88 203.72 449.45
  C 268.13 429.70 297.18 369.01 307.84 307.23
  Q 315.28 264.06 314.64 220.12
  A 0.57 0.57 0.0 0 1 315.40 219.57
  C 348.79 231.86 386.09 236.89 421.42 232.10
  C 467.18 225.89 506.14 201.68 531.07 162.70
  Q 548.65 135.21 557.88 103.73
  Q 558.05 103.14 558.64 103.29
  Z
  M 390.60 307.33
  C 442.03 314.91 495.87 312.77 545.98 298.41
  C 619.62 277.30 674.81 229.12 701.16 156.97
  Q 701.40 156.32 702.05 156.54
  C 738.59 169.02 778.65 175.28 817.25 172.70
  C 885.44 168.16 938.75 133.09 965.93 69.91
  Q 966.16 69.39 966.72 69.34
  Q 967.81 69.26 969.58 69.38
  C 994.66 71.08 1028.16 65.58 1047.11 47.32
  Q 1065.70 29.40 1065.28 1.50
  Q 1065.27 1.18 1064.96 1.18
  L 876.25 1.18
  A 0.61 0.60 -86.2 0 0 875.65 1.71
  C 871.51 34.13 850.02 54.28 816.47 51.40
  Q 796.12 49.66 776.43 40.78
  Q 775.94 40.56 775.75 41.07
  C 754.02 100.47 694.00 116.98 636.73 115.84
  Q 597.96 115.07 560.10 105.97
  Q 559.57 105.84 559.41 106.36
  Q 550.80 134.99 536.13 159.14
  C 507.80 205.79 462.65 232.65 408.02 235.51
  Q 361.75 237.94 317.44 222.98
  Q 316.92 222.81 316.93 223.35
  Q 317.46 271.60 307.90 318.74
  C 301.21 351.73 288.40 384.82 267.16 410.16
  C 222.25 463.76 151.50 465.78 88.75 449.46
  Q 43.04 437.57 1.59 415.30
  A 0.26 0.26 0.0 0 0 1.21 415.53
  L 1.21 542.96
  A 0.74 0.74 0.0 0 0 1.60 543.61
  Q 66.07 578.19 138.00 591.68
  Q 178.98 599.37 218.72 594.74
  Q 288.08 586.66 331.11 533.65
  C 356.27 502.66 370.91 462.40 378.91 423.74
  C 386.85 385.44 389.76 346.86 390.06 307.80
  Q 390.06 307.26 390.60 307.33
  Z"
/>
<path fill="#6b5644" d="
  M 2011.50 0.00
  L 3066.00 0.00
  L 3066.00 538.97
  Q 3005.96 570.88 2941.27 584.78
  Q 2916.31 590.13 2888.04 591.29
  C 2857.42 592.55 2826.77 588.42 2799.22 576.49
  C 2727.67 545.51 2696.90 470.75 2685.61 398.99
  Q 2678.40 353.15 2678.47 306.73
  Q 2678.47 306.18 2677.92 306.26
  Q 2656.15 309.42 2634.27 310.05
  Q 2633.64 310.06 2633.00 310.08
  C 2584.00 310.99 2532.90 303.89 2488.08 283.15
  Q 2405.09 244.77 2371.85 158.02
  Q 2371.66 157.52 2371.15 157.69
  Q 2318.82 175.07 2264.78 173.31
  C 2213.96 171.65 2165.94 151.80 2134.00 111.25
  Q 2119.85 93.28 2110.25 71.24
  Q 2110.05 70.77 2109.54 70.80
  C 2067.05 73.60 2017.83 59.63 2011.75 10.01
  Q 2011.12 4.89 2011.50 0.00
  Z
  M 2373.38 155.07
  Q 2404.03 237.54 2481.07 277.06
  C 2510.17 291.99 2543.94 300.96 2576.30 304.81
  C 2611.13 308.96 2645.94 308.74 2680.65 303.40
  A 0.26 0.25 -3.0 0 1 2680.94 303.65
  Q 2680.62 347.26 2686.70 390.50
  C 2697.36 466.24 2729.52 549.02 2808.29 577.40
  Q 2838.66 588.33 2871.26 588.99
  Q 2901.30 589.59 2925.04 585.34
  Q 2998.66 572.17 3064.21 537.00
  Q 3064.80 536.69 3064.80 536.02
  L 3064.80 410.74
  A 0.48 0.47 75.8 0 0 3064.10 410.32
  Q 3013.30 437.67 2956.87 448.56
  C 2938.06 452.19 2918.82 453.23 2899.76 452.20
  C 2845.94 449.30 2805.35 421.02 2781.67 373.34
  Q 2769.46 348.76 2763.57 322.72
  Q 2752.27 272.76 2753.22 220.22
  Q 2753.23 219.72 2752.76 219.88
  Q 2703.62 237.03 2652.12 231.63
  C 2602.45 226.42 2561.46 199.11 2535.95 156.26
  Q 2521.63 132.20 2513.43 105.13
  Q 2513.27 104.61 2512.74 104.74
  C 2442.93 121.40 2330.23 126.33 2299.88 40.36
  Q 2299.68 39.79 2299.13 40.05
  C 2271.90 52.84 2231.98 59.27 2212.14 31.32
  C 2206.17 22.90 2202.58 12.13 2201.07 1.75
  A 0.67 0.66 -4.0 0 0 2200.41 1.18
  L 2014.01 1.18
  Q 2013.52 1.18 2013.55 1.67
  Q 2013.84 6.10 2014.37 10.49
  C 2020.20 58.62 2070.41 71.29 2110.86 68.43
  A 1.10 1.08 76.0 0 1 2111.94 69.09
  C 2138.96 131.80 2192.43 166.66 2260.00 170.65
  C 2297.98 172.89 2336.63 166.76 2372.63 154.72
  Q 2373.18 154.53 2373.38 155.07
  Z
  M 2755.00 217.53
  Q 2754.66 255.34 2760.09 292.74
  C 2769.51 357.67 2797.52 424.09 2866.51 444.34
  C 2897.80 453.52 2930.80 452.14 2962.57 445.27
  Q 3016.15 433.69 3064.23 407.43
  A 1.09 1.08 -14.5 0 0 3064.80 406.48
  L 3064.80 265.98
  Q 3064.80 265.41 3064.23 265.41
  C 3018.40 265.43 2977.44 245.43 2954.29 204.96
  C 2939.04 178.30 2932.84 145.18 2932.57 114.23
  Q 2932.47 103.85 2932.52 93.23
  Q 2932.52 92.48 2932.05 93.06
  C 2915.34 114.04 2888.17 128.67 2862.36 112.12
  A 0.84 0.82 43.7 0 0 2861.44 112.13
  Q 2835.29 130.33 2804.67 138.87
  C 2788.73 143.31 2769.50 144.70 2753.82 139.10
  C 2722.72 128.00 2707.98 95.57 2703.06 64.91
  A 0.56 0.56 0.0 0 0 2702.23 64.52
  C 2685.25 74.45 2662.18 82.57 2642.36 77.53
  C 2610.27 69.37 2602.43 29.97 2601.71 1.87
  A 0.69 0.69 0.0 0 0 2601.02 1.20
  L 2203.98 1.20
  A 0.45 0.45 0.0 0 0 2203.53 1.72
  C 2205.25 13.30 2209.59 25.59 2217.38 34.15
  C 2238.11 56.90 2275.89 49.27 2300.43 36.97
  Q 2300.92 36.72 2301.10 37.24
  Q 2316.44 81.72 2359.98 99.53
  C 2386.29 110.28 2416.05 113.39 2444.25 112.18
  Q 2479.90 110.64 2514.41 101.96
  A 0.43 0.41 74.0 0 1 2514.91 102.25
  C 2520.85 122.08 2529.31 141.99 2540.60 159.38
  Q 2581.84 222.89 2658.28 230.22
  C 2690.26 233.29 2724.27 227.87 2754.51 217.17
  Q 2755.01 217.00 2755.00 217.53
  Z
  M 2935.26 85.86
  C 2932.68 129.51 2936.96 178.51 2963.56 215.19
  C 2986.53 246.86 3024.90 263.91 3063.93 262.89
  A 0.88 0.88 0.0 0 0 3064.79 262.01
  L 3064.79 1.51
  Q 3064.79 1.19 3064.48 1.19
  L 2604.74 1.20
  A 0.50 0.50 0.0 0 0 2604.24 1.70
  Q 2604.43 21.68 2610.33 40.68
  C 2617.99 65.34 2637.09 80.70 2663.77 76.29
  Q 2685.61 72.68 2704.06 60.60
  A 0.35 0.35 0.0 0 1 2704.59 60.84
  C 2707.88 82.37 2715.92 106.26 2731.35 122.15
  C 2767.55 159.43 2826.81 132.83 2861.67 109.22
  Q 2862.11 108.92 2862.55 109.22
  C 2868.49 113.29 2874.50 116.16 2881.64 116.96
  C 2903.40 119.41 2923.20 101.99 2934.79 85.69
  Q 2935.31 84.96 2935.26 85.86
  Z"
/>
<path fill="#d6a163" d="
  M 133.29 87.29
  Q 132.24 85.82 132.36 87.63
  C 136.53 150.26 123.57 223.88 60.46 253.73
  Q 32.87 266.78 1.66 266.21
  A 0.47 0.47 0.0 0 1 1.20 265.74
  L 1.18 1.51
  Q 1.18 1.19 1.49 1.19
  L 467.04 1.20
  Q 467.77 1.20 467.74 1.92
  C 466.53 30.83 458.91 72.11 424.03 77.25
  C 404.83 80.08 383.19 71.73 366.61 61.53
  A 0.52 0.51 19.9 0 0 365.83 61.89
  C 363.11 80.60 356.30 101.26 345.00 116.55
  C 310.54 163.18 245.75 137.46 207.38 110.84
  A 1.39 1.38 -45.2 0 0 205.78 110.85
  C 178.33 130.28 149.47 109.86 133.29 87.29
  Z"
/>
<path fill="#e2c99a" d="
  M 557.88 103.73
  Q 548.65 135.21 531.07 162.70
  C 506.14 201.68 467.18 225.89 421.42 232.10
  C 386.09 236.89 348.79 231.86 315.40 219.57
  A 0.57 0.57 0.0 0 0 314.64 220.12
  Q 315.28 264.06 307.84 307.23
  C 297.18 369.01 268.13 429.70 203.72 449.45
  C 172.99 458.88 138.32 457.84 106.77 451.16
  Q 51.29 439.41 1.49 412.46
  A 0.59 0.58 15.0 0 1 1.19 411.95
  L 1.20 269.03
  A 0.40 0.40 0.0 0 1 1.60 268.63
  C 26.53 268.99 52.34 262.69 73.42 249.30
  C 121.27 218.92 135.26 162.46 135.19 109.24
  Q 135.18 101.92 135.07 94.57
  Q 135.06 93.84 135.54 94.39
  C 153.32 114.95 179.88 130.88 206.01 113.52
  Q 206.44 113.23 206.86 113.52
  C 235.28 132.76 275.76 150.77 310.75 142.51
  C 345.62 134.28 362.16 97.49 367.55 65.53
  A 0.43 0.42 -69.6 0 1 368.19 65.23
  C 383.08 74.29 402.83 81.24 420.16 80.02
  C 459.97 77.23 468.90 33.17 470.15 1.76
  A 0.58 0.58 0.0 0 1 470.73 1.20
  L 872.88 1.19
  A 0.36 0.35 -85.8 0 1 873.23 1.60
  C 870.62 20.05 861.99 37.70 844.28 45.26
  C 822.85 54.41 794.99 46.79 775.01 37.50
  Q 774.51 37.27 774.34 37.78
  C 743.92 126.67 630.09 120.72 558.64 103.29
  Q 558.05 103.14 557.88 103.73
  Z"
/>
<path fill="#f0e1c1" d="
  M 2372.63 154.72
  C 2336.63 166.76 2297.98 172.89 2260.00 170.65
  C 2192.43 166.66 2138.96 131.80 2111.94 69.09
  A 1.10 1.08 76.0 0 0 2110.86 68.43
  C 2070.41 71.29 2020.20 58.62 2014.37 10.49
  Q 2013.84 6.10 2013.55 1.67
  Q 2013.52 1.18 2014.01 1.18
  L 2200.41 1.18
  A 0.67 0.66 -4.0 0 1 2201.07 1.75
  C 2202.58 12.13 2206.17 22.90 2212.14 31.32
  C 2231.98 59.27 2271.90 52.84 2299.13 40.05
  Q 2299.68 39.79 2299.88 40.36
  C 2330.23 126.33 2442.93 121.40 2512.74 104.74
  Q 2513.27 104.61 2513.43 105.13
  Q 2521.63 132.20 2535.95 156.26
  C 2561.46 199.11 2602.45 226.42 2652.12 231.63
  Q 2703.62 237.03 2752.76 219.88
  Q 2753.23 219.72 2753.22 220.22
  Q 2752.27 272.76 2763.57 322.72
  Q 2769.46 348.76 2781.67 373.34
  C 2805.35 421.02 2845.94 449.30 2899.76 452.20
  C 2918.82 453.23 2938.06 452.19 2956.87 448.56
  Q 3013.30 437.67 3064.10 410.32
  A 0.48 0.47 75.8 0 1 3064.80 410.74
  L 3064.80 536.02
  Q 3064.80 536.69 3064.21 537.00
  Q 2998.66 572.17 2925.04 585.34
  Q 2901.30 589.59 2871.26 588.99
  Q 2838.66 588.33 2808.29 577.40
  C 2729.52 549.02 2697.36 466.24 2686.70 390.50
  Q 2680.62 347.26 2680.94 303.65
  A 0.26 0.25 -3.0 0 0 2680.65 303.40
  C 2645.94 308.74 2611.13 308.96 2576.30 304.81
  C 2543.94 300.96 2510.17 291.99 2481.07 277.06
  Q 2404.03 237.54 2373.38 155.07
  Q 2373.18 154.53 2372.63 154.72
  Z"
/>
<path fill="#e2c99a" d="
  M 2754.51 217.17
  C 2724.27 227.87 2690.26 233.29 2658.28 230.22
  Q 2581.84 222.89 2540.60 159.38
  C 2529.31 141.99 2520.85 122.08 2514.91 102.25
  A 0.43 0.41 74.0 0 0 2514.41 101.96
  Q 2479.90 110.64 2444.25 112.18
  C 2416.05 113.39 2386.29 110.28 2359.98 99.53
  Q 2316.44 81.72 2301.10 37.24
  Q 2300.92 36.72 2300.43 36.97
  C 2275.89 49.27 2238.11 56.90 2217.38 34.15
  C 2209.59 25.59 2205.25 13.30 2203.53 1.72
  A 0.45 0.45 0.0 0 1 2203.98 1.20
  L 2601.02 1.20
  A 0.69 0.69 0.0 0 1 2601.71 1.87
  C 2602.43 29.97 2610.27 69.37 2642.36 77.53
  C 2662.18 82.57 2685.25 74.45 2702.23 64.52
  A 0.56 0.56 0.0 0 1 2703.06 64.91
  C 2707.98 95.57 2722.72 128.00 2753.82 139.10
  C 2769.50 144.70 2788.73 143.31 2804.67 138.87
  Q 2835.29 130.33 2861.44 112.13
  A 0.84 0.82 43.7 0 1 2862.36 112.12
  C 2888.17 128.67 2915.34 114.04 2932.05 93.06
  Q 2932.52 92.48 2932.52 93.23
  Q 2932.47 103.85 2932.57 114.23
  C 2932.84 145.18 2939.04 178.30 2954.29 204.96
  C 2977.44 245.43 3018.40 265.43 3064.23 265.41
  Q 3064.80 265.41 3064.80 265.98
  L 3064.80 406.48
  A 1.09 1.08 -14.5 0 1 3064.23 407.43
  Q 3016.15 433.69 2962.57 445.27
  C 2930.80 452.14 2897.80 453.52 2866.51 444.34
  C 2797.52 424.09 2769.51 357.67 2760.09 292.74
  Q 2754.66 255.34 2755.00 217.53
  Q 2755.01 217.00 2754.51 217.17
  Z"
/>
<path fill="#d6a163" d="
  M 2934.79 85.69
  C 2923.20 101.99 2903.40 119.41 2881.64 116.96
  C 2874.50 116.16 2868.49 113.29 2862.55 109.22
  Q 2862.11 108.92 2861.67 109.22
  C 2826.81 132.83 2767.55 159.43 2731.35 122.15
  C 2715.92 106.26 2707.88 82.37 2704.59 60.84
  A 0.35 0.35 0.0 0 0 2704.06 60.60
  Q 2685.61 72.68 2663.77 76.29
  C 2637.09 80.70 2617.99 65.34 2610.33 40.68
  Q 2604.43 21.68 2604.24 1.70
  A 0.50 0.50 0.0 0 1 2604.74 1.20
  L 3064.48 1.19
  Q 3064.79 1.19 3064.79 1.51
  L 3064.79 262.01
  A 0.88 0.88 0.0 0 1 3063.93 262.89
  C 3024.90 263.91 2986.53 246.86 2963.56 215.19
  C 2936.96 178.51 2932.68 129.51 2935.26 85.86
  Q 2935.31 84.96 2934.79 85.69
  Z"
/>
<path fill="#f0e1c1" d="
  M 390.06 307.80
  C 389.76 346.86 386.85 385.44 378.91 423.74
  C 370.91 462.40 356.27 502.66 331.11 533.65
  Q 288.08 586.66 218.72 594.74
  Q 178.98 599.37 138.00 591.68
  Q 66.07 578.19 1.60 543.61
  A 0.74 0.74 0.0 0 1 1.21 542.96
  L 1.21 415.53
  A 0.26 0.26 0.0 0 1 1.59 415.30
  Q 43.04 437.57 88.75 449.46
  C 151.50 465.78 222.25 463.76 267.16 410.16
  C 288.40 384.82 301.21 351.73 307.90 318.74
  Q 317.46 271.60 316.93 223.35
  Q 316.92 222.81 317.44 222.98
  Q 361.75 237.94 408.02 235.51
  C 462.65 232.65 507.80 205.79 536.13 159.14
  Q 550.80 134.99 559.41 106.36
  Q 559.57 105.84 560.10 105.97
  Q 597.96 115.07 636.73 115.84
  C 694.00 116.98 754.02 100.47 775.75 41.07
  Q 775.94 40.56 776.43 40.78
  Q 796.12 49.66 816.47 51.40
  C 850.02 54.28 871.51 34.13 875.65 1.71
  A 0.61 0.60 -86.2 0 1 876.25 1.18
  L 1064.96 1.18
  Q 1065.27 1.18 1065.28 1.50
  Q 1065.70 29.40 1047.11 47.32
  C 1028.16 65.58 994.66 71.08 969.58 69.38
  Q 967.81 69.26 966.72 69.34
  Q 966.16 69.39 965.93 69.91
  C 938.75 133.09 885.44 168.16 817.25 172.70
  C 778.65 175.28 738.59 169.02 702.05 156.54
  Q 701.40 156.32 701.16 156.97
  C 674.81 229.12 619.62 277.30 545.98 298.41
  C 495.87 312.77 442.03 314.91 390.60 307.33
  Q 390.06 307.26 390.06 307.80
  Z"
/>
</svg>
