<?xml version="1.0" encoding="UTF-8"?>
<!DOCTYPE svg PUBLIC "-//W3C//DTD SVG 1.1//EN" "http://www.w3.org/Graphics/SVG/1.1/DTD/svg11.dtd">
<svg xmlns="http://www.w3.org/2000/svg" version="1.1" width="4500px" height="4500px" style="shape-rendering:geometricPrecision; text-rendering:geometricPrecision; image-rendering:optimizeQuality; fill-rule:evenodd; clip-rule:evenodd" xmlns:xlink="http://www.w3.org/1999/xlink">
<g><path style="opacity:0.982" fill="#534639" d="M 485.5,-0.5 C 1823.5,-0.5 3161.5,-0.5 4499.5,-0.5C 4499.5,1123.17 4499.5,2246.83 4499.5,3370.5C 4234.23,3276.23 3977.89,3161.73 3730.5,3027C 3464.35,2881.33 3209.02,2719.66 2964.5,2542C 2696.11,2346.68 2438.44,2137.35 2191.5,1914C 1917.79,1665.62 1655.96,1405.12 1406,1132.5C 1148.16,850.403 903.494,558.07 672,255.5C 608.112,171.378 545.945,86.0445 485.5,-0.5 Z"/></g>
<g><path style="opacity:1" fill="#4f5164" d="M 504.5,5.5 C 1834.5,5.5 3164.5,5.5 4494.5,5.5C 4494.83,1122.17 4494.5,2238.83 4493.5,3355.5C 4274.99,3277.77 4061.99,3185.6 3854.5,3079C 3598.04,2946 3351.71,2797.67 3115.5,2634C 2843.28,2444.51 2581.95,2240.51 2331.5,2022C 2018.6,1747.45 1720.77,1456.61 1438,1149.5C 1213.25,904.81 998.253,652.477 793,392.5C 721.182,300.352 650.515,207.352 581,113.5C 554.867,77.8802 529.367,41.8802 504.5,5.5 Z"/></g>
</svg>
