<?xml version="1.0" encoding="UTF-8"?>
<!DOCTYPE svg PUBLIC "-//W3C//DTD SVG 1.1//EN" "http://www.w3.org/Graphics/SVG/1.1/DTD/svg11.dtd">
<svg xmlns="http://www.w3.org/2000/svg" version="1.1" width="2690px" height="2893px" style="shape-rendering:geometricPrecision; text-rendering:geometricPrecision; image-rendering:optimizeQuality; fill-rule:evenodd; clip-rule:evenodd" xmlns:xlink="http://www.w3.org/1999/xlink">
<g><path style="opacity:0.971" fill="#6e5946" d="M 1102.5,21.5 C 1259.97,21.4138 1415.97,36.5805 1570.5,67C 1705.27,92.4433 1837.61,127.11 1967.5,171C 2114.73,224.4 2247.73,301.067 2366.5,401C 2421.69,448.164 2468.86,501.997 2508,562.5C 2532.84,602.353 2549.84,645.353 2559,691.5C 2570.78,760.909 2558.78,825.909 2523,886.5C 2479.6,964.231 2420.1,1026.73 2344.5,1074C 2364.33,1092.13 2378.83,1113.96 2388,1139.5C 2399.23,1171.19 2404.73,1203.85 2404.5,1237.5C 2407.41,1347.23 2360.41,1427.06 2263.5,1477C 2262.98,1477.56 2262.64,1478.23 2262.5,1479C 2286.23,1574.19 2285.06,1669.02 2259,1763.5C 2250.84,1789.33 2240.34,1814.16 2227.5,1838C 2314.63,1862.49 2399.3,1893.49 2481.5,1931C 2522.97,1950.22 2561.97,1973.22 2598.5,2000C 2613.62,2012.12 2627.79,2025.29 2641,2039.5C 2683.64,2090.47 2682.97,2140.81 2639,2190.5C 2628.09,2201.41 2616.59,2211.58 2604.5,2221C 2504.59,2295.61 2393.93,2348.95 2272.5,2381C 2159.41,2410.54 2044.41,2426.54 1927.5,2429C 1804.91,2431.71 1682.91,2424.55 1561.5,2407.5C 1561.95,2427.71 1559.62,2447.54 1554.5,2467C 1597.57,2469.45 1633.74,2486.28 1663,2517.5C 1687.47,2550.37 1697.8,2587.37 1694,2628.5C 1689.45,2670.41 1674.28,2707.91 1648.5,2741C 1674.64,2746.05 1699.98,2753.71 1724.5,2764C 1743.19,2772.04 1759.69,2783.2 1774,2797.5C 1789.94,2815.9 1795.94,2837.23 1792,2861.5C 1791.95,2868.44 1790.61,2875.11 1788,2881.5C 1783.09,2886.53 1777.92,2886.7 1772.5,2882C 1759.62,2868.57 1744.96,2857.57 1728.5,2849C 1712.21,2843.07 1695.38,2840.91 1678,2842.5C 1654.15,2842.74 1630.32,2843.41 1606.5,2844.5C 1585.51,2844.57 1564.84,2842.07 1544.5,2837C 1531.62,2832.89 1520.28,2826.23 1510.5,2817C 1495.02,2817.19 1479.69,2815.86 1464.5,2813C 1420.44,2802.23 1380.77,2782.9 1345.5,2755C 1327.84,2740.02 1314.01,2722.19 1304,2701.5C 1301.63,2695.38 1299.46,2689.21 1297.5,2683C 1235.94,2684.34 1174.94,2679.01 1114.5,2667C 1043.34,2653.04 973.342,2634.71 904.5,2612C 844.137,2591.16 788.803,2561.49 738.5,2523C 637.97,2439.7 595.803,2332.86 612,2202.5C 615.124,2180.34 620.291,2158.67 627.5,2137.5C 435.771,2049.62 273.937,1923.29 142,1758.5C 97.9404,1702.76 62.2737,1641.76 35,1575.5C 13.6737,1523.2 4.34034,1468.87 7,1412.5C 13.6744,1341.66 42.8411,1282.16 94.5,1234C 140.944,1196.85 194.111,1179.02 254,1180.5C 293.101,1180.6 331.267,1186.6 368.5,1198.5C 368.833,1198 369.167,1197.5 369.5,1197C 348.604,1140.89 341.771,1083.05 349,1023.5C 360.382,930.596 402.548,855.429 475.5,798C 390.317,716.107 358.15,616.607 379,499.5C 424.065,282.109 552.231,139.609 763.5,72C 836.856,49.051 911.856,34.3844 988.5,28C 1026.6,24.7701 1064.6,22.6034 1102.5,21.5 Z M 345.5,1211.5 C 355.506,1211.33 365.506,1211.5 375.5,1212C 394.384,1250.41 419.384,1284.41 450.5,1314C 401.298,1390.94 370.464,1474.77 358,1565.5C 355.202,1590.84 354.868,1616.17 357,1641.5C 319.968,1603.8 289.968,1561.13 267,1513.5C 245.595,1460.71 233.428,1405.88 230.5,1349C 229.956,1321.05 235.789,1294.55 248,1269.5C 263.927,1242.59 287.093,1225.09 317.5,1217C 326.869,1214.61 336.202,1212.78 345.5,1211.5 Z M 2220.5,1849.5 C 2222.93,1850.75 2225.27,1852.25 2227.5,1854C 2256.01,1879.83 2280.85,1908.67 2302,1940.5C 2351.86,2021.23 2334.03,2081.73 2248.5,2122C 2163.65,2157.96 2075.32,2180.63 1983.5,2190C 1878.51,2201 1773.51,2201 1668.5,2190C 1593.88,2182.84 1519.88,2171.67 1446.5,2156.5C 1489.76,2131.54 1535.42,2112.04 1583.5,2098C 1636.65,2082.21 1690.65,2070.21 1745.5,2062C 1786.04,2056.02 1826.71,2051.02 1867.5,2047C 1932.12,2039.35 1994.12,2022.35 2053.5,1996C 2114.77,1967.74 2165.6,1926.57 2206,1872.5C 2211.06,1864.95 2215.89,1857.28 2220.5,1849.5 Z"/></g>
<g><path style="opacity:1" fill="#efe0c0" d="M 1103.5,28.5 C 1241.21,28.9432 1377.87,40.7765 1513.5,64C 1667.24,90.1003 1817.9,128.1 1965.5,178C 2104.53,228.497 2231.2,300.164 2345.5,393C 2395.56,434.386 2440.06,480.886 2479,532.5C 2507.63,571.167 2529.29,613.501 2544,659.5C 2565.02,731.34 2558.69,800.673 2525,867.5C 2487.2,939.304 2435.7,999.47 2370.5,1048C 2303.16,1093.12 2228.83,1119.46 2147.5,1127C 2127.49,1127.7 2107.49,1127.53 2087.5,1126.5C 2086.95,1129.81 2086.62,1133.14 2086.5,1136.5C 2176.17,1141.38 2260,1122.04 2338,1078.5C 2354.29,1092.73 2366.96,1109.73 2376,1129.5C 2393.88,1173.75 2400.55,1219.75 2396,1267.5C 2392.63,1343.41 2360.13,1403.25 2298.5,1447C 2285.83,1456.01 2272.5,1464.01 2258.5,1471C 2235.88,1480.94 2212.88,1489.94 2189.5,1498C 2166.22,1504.92 2142.56,1510.09 2118.5,1513.5C 2118.5,1516.5 2118.5,1519.5 2118.5,1522.5C 2130.96,1521.63 2143.3,1519.79 2155.5,1517C 2190.27,1508.35 2223.94,1496.85 2256.5,1482.5C 2266.07,1527.62 2271.4,1573.29 2272.5,1619.5C 2272.72,1681.09 2261.56,1740.42 2239,1797.5C 2233.59,1811 2227.09,1824 2219.5,1836.5C 2213.94,1834.52 2208.27,1833.36 2202.5,1833C 2206.83,1836.67 2211.17,1840.33 2215.5,1844C 2180.95,1900.44 2134.61,1944.44 2076.5,1976C 2020.73,2005.03 1961.73,2024.7 1899.5,2035C 1848.83,2041.2 1798.16,2047.53 1747.5,2054C 1673.46,2065.26 1601.13,2083.26 1530.5,2108C 1497.14,2121.35 1464.8,2136.85 1433.5,2154.5C 1172.66,2100.51 925.324,2010.68 691.5,1885C 598.451,1834.9 511.118,1776.57 429.5,1710C 407.669,1691.31 386.502,1671.81 366,1651.5C 361.12,1608.17 363.12,1565.17 372,1522.5C 388.178,1450.62 415.678,1383.45 454.5,1321C 513.302,1371.75 579.969,1409.08 654.5,1433C 662.453,1435.16 670.453,1436.99 678.5,1438.5C 678.963,1435.52 679.296,1432.52 679.5,1429.5C 583.845,1404.29 501.678,1356.29 433,1285.5C 414.226,1263.88 398.393,1240.21 385.5,1214.5C 386.333,1214.17 387.167,1213.83 388,1213.5C 397.156,1215.14 406.323,1216.31 415.5,1217C 403.181,1212.29 391.181,1207.13 379.5,1201.5C 357.354,1148.02 349.187,1092.35 355,1034.5C 362.948,948.774 398.448,876.94 461.5,819C 467.691,813.975 474.024,809.142 480.5,804.5C 520.964,839.253 565.63,867.753 614.5,890C 656.836,909.723 700.836,924.557 746.5,934.5C 750.194,932.841 751.861,929.841 751.5,925.5C 668.384,907.6 592.05,874.434 522.5,826C 407.929,744.773 362.763,634.607 387,495.5C 403.81,419.053 433.477,348.053 476,282.5C 522.702,216.792 581.535,164.959 652.5,127C 733.482,85.7134 819.149,58.3801 909.5,45C 973.983,35.8474 1038.65,30.3474 1103.5,28.5 Z"/></g>
<g><path style="opacity:1" fill="#6e5946" d="M 1625.5,635.5 C 1636.5,633.223 1645.67,636.223 1653,644.5C 1663.58,665.913 1673.58,687.579 1683,709.5C 1686.79,723.416 1682.62,734.249 1670.5,742C 1665.7,743.935 1660.7,744.768 1655.5,744.5C 1635.43,743.433 1615.43,741.6 1595.5,739C 1581.92,732.345 1576.42,721.512 1579,706.5C 1589.33,686.5 1599.67,666.5 1610,646.5C 1614.16,641.19 1619.33,637.524 1625.5,635.5 Z"/></g>
<g><path style="opacity:1" fill="#4c3c30" d="M 1627.5,638.5 C 1636.19,637.895 1643.69,640.562 1650,646.5C 1659.94,667.38 1669.61,688.38 1679,709.5C 1682.34,732.166 1672.5,742.666 1649.5,741C 1632.8,739.754 1616.13,738.087 1599.5,736C 1588.53,732.711 1582.53,725.377 1581.5,714C 1581.86,711.096 1582.52,708.263 1583.5,705.5C 1593,687.176 1602.5,668.842 1612,650.5C 1615.71,644.42 1620.87,640.42 1627.5,638.5 Z"/></g>
<g><path style="opacity:1" fill="#6d5946" d="M 1952.5,673.5 C 1962.97,672.654 1971.47,676.321 1978,684.5C 1987.65,705.803 1997.32,727.136 2007,748.5C 2010.3,762.719 2005.8,773.552 1993.5,781C 1989.54,782.843 1985.37,783.677 1981,783.5C 1960.81,781.907 1940.64,780.074 1920.5,778C 1904.79,770.573 1899.29,758.406 1904,741.5C 1913.92,723.325 1923.59,704.991 1933,686.5C 1937.84,679.459 1944.34,675.126 1952.5,673.5 Z"/></g>
<g><path style="opacity:1" fill="#4c3c30" d="M 1950.5,677.5 C 1959.73,676.3 1967.57,678.966 1974,685.5C 1983.97,706.442 1993.64,727.442 2003,748.5C 2006.08,772.413 1995.58,782.58 1971.5,779C 1955.52,777.426 1939.52,776.093 1923.5,775C 1908.05,769.265 1902.88,758.431 1908,742.5C 1917.75,723.342 1927.75,704.342 1938,685.5C 1941.67,681.923 1945.84,679.256 1950.5,677.5 Z"/></g>
<g><path style="opacity:1" fill="#6f5a47" d="M 1368.5,770.5 C 1375.84,770.779 1383.18,771.279 1390.5,772C 1646.41,806.977 1902.41,841.31 2158.5,875C 2185.71,880.872 2198.54,897.706 2197,925.5C 2191.35,948.24 2176.85,960.573 2153.5,962.5C 1889.03,929.566 1624.69,895.733 1360.5,861C 1335.81,849.92 1326.65,831.087 1333,804.5C 1338.53,786.47 1350.36,775.137 1368.5,770.5 Z"/></g>
<g><path style="opacity:1" fill="#4c3c30" d="M 1370.5,774.5 C 1376.87,774.488 1383.2,774.988 1389.5,776C 1646.48,810.711 1903.48,845.044 2160.5,879C 2183.51,885.53 2194.34,900.697 2193,924.5C 2190.09,941.187 2180.59,952.021 2164.5,957C 2157.56,958.455 2150.56,958.788 2143.5,958C 1884.12,925.026 1624.79,891.693 1365.5,858C 1346.28,852.431 1335.95,839.598 1334.5,819.5C 1335.38,795.329 1347.38,780.329 1370.5,774.5 Z"/></g>
<g><path style="opacity:1" fill="#61aaad" d="M 244.5,1189.5 C 278.431,1189.07 311.764,1193.24 344.5,1202C 269.538,1210.63 228.704,1252.46 222,1327.5C 220.044,1373.52 225.711,1418.52 239,1462.5C 248.699,1499.92 264.032,1534.92 285,1567.5C 314.348,1610.21 348.182,1649.37 386.5,1685C 452.378,1743.89 523.044,1796.22 598.5,1842C 747.541,1931.2 903.541,2004.53 1066.5,2062C 1216.99,2115.12 1370.99,2155.12 1528.5,2182C 1615.31,2195.88 1702.64,2204.21 1790.5,2207C 1891.43,2210.31 1991.43,2202.31 2090.5,2183C 2148.72,2170.26 2205.05,2151.93 2259.5,2128C 2341.47,2086.6 2360.3,2025.43 2316,1944.5C 2295.3,1910.46 2270.14,1879.96 2240.5,1853C 2337.81,1879.33 2431.14,1915.66 2520.5,1962C 2552.58,1979.36 2582.58,1999.7 2610.5,2023C 2626.16,2036.55 2639.32,2052.05 2650,2069.5C 2669.4,2103.75 2667.4,2136.75 2644,2168.5C 2637.87,2176.3 2631.37,2183.8 2624.5,2191C 2557.63,2247.13 2483.63,2292.13 2402.5,2326C 2285.14,2373.51 2163.14,2402.51 2036.5,2413C 1906.02,2423.91 1775.69,2422.25 1645.5,2408C 1497.48,2391.75 1351.48,2365.09 1207.5,2328C 1016.83,2278.78 831.495,2215.11 651.5,2137C 454.557,2051.4 288.724,1924.9 154,1757.5C 113.788,1707.12 80.1212,1652.45 53,1593.5C 37.0144,1557.24 25.6811,1519.58 19,1480.5C 7.32965,1399.08 27.3296,1326.74 79,1263.5C 114.439,1224.36 158.273,1200.86 210.5,1193C 221.954,1191.5 233.287,1190.33 244.5,1189.5 Z"/></g>
<g><path style="opacity:1" fill="#efe0c0" d="M 1308.5,2367.5 C 1308.5,2365.83 1308.5,2364.17 1308.5,2362.5C 1309.5,2362.5 1310.5,2362.5 1311.5,2362.5C 1390.55,2379.95 1470.22,2394.29 1550.5,2405.5C 1551.21,2406.4 1552.21,2406.74 1553.5,2406.5C 1553.5,2413.5 1553.5,2420.5 1553.5,2427.5C 1547.74,2477.94 1531.57,2524.61 1505,2567.5C 1466.48,2625.21 1412.65,2659.38 1343.5,2670C 1286.13,2677.56 1228.8,2677.22 1171.5,2669C 1082.45,2654.99 995.113,2633.99 909.5,2606C 849.971,2585.91 795.305,2556.91 745.5,2519C 641.875,2433.81 600.375,2324.64 621,2191.5C 624.408,2173.78 629.075,2156.44 635,2139.5C 848.043,2234.51 1068.88,2307.68 1297.5,2359C 1298.89,2366.05 1299.72,2373.22 1300,2380.5C 1301.29,2382.79 1302.96,2384.79 1305,2386.5C 1307.37,2407.23 1314.71,2425.9 1327,2442.5C 1339.06,2455.56 1353.9,2460.73 1371.5,2458C 1397.04,2453.06 1418.7,2441.06 1436.5,2422C 1429.14,2426.18 1421.47,2430.18 1413.5,2434C 1397.17,2440 1380.83,2440 1364.5,2434C 1342.09,2423.6 1323.92,2408.1 1310,2387.5C 1309.47,2380.83 1308.97,2374.16 1308.5,2367.5 Z"/></g>
<g><path style="opacity:1" fill="#a8957c" d="M 1311.5,2362.5 C 1310.5,2362.5 1309.5,2362.5 1308.5,2362.5C 1308.5,2364.17 1308.5,2365.83 1308.5,2367.5C 1307.54,2365.74 1307.21,2363.74 1307.5,2361.5C 1309.1,2361.23 1310.43,2361.57 1311.5,2362.5 Z"/></g>
<g><path style="opacity:1" fill="#ac9a80" d="M 1550.5,2405.5 C 1551.83,2405.5 1553.17,2405.5 1554.5,2405.5C 1554.82,2413.02 1554.49,2420.35 1553.5,2427.5C 1553.5,2420.5 1553.5,2413.5 1553.5,2406.5C 1552.21,2406.74 1551.21,2406.4 1550.5,2405.5 Z"/></g>
<g><path style="opacity:1" fill="#efe0c0" d="M 1552.5,2474.5 C 1595.17,2476.26 1630.67,2492.92 1659,2524.5C 1680.93,2555.21 1690.27,2589.54 1687,2627.5C 1677.28,2700.16 1640.78,2754.66 1577.5,2791C 1538.14,2811.05 1497.14,2815.05 1454.5,2803C 1417.23,2792.03 1383.23,2774.7 1352.5,2751C 1333.82,2735.33 1319.32,2716.5 1309,2694.5C 1307.72,2690.16 1306.55,2685.83 1305.5,2681.5C 1353.82,2679.34 1398.82,2666.17 1440.5,2642C 1445.5,2638.5 1450.5,2635 1455.5,2631.5C 1479.7,2645.38 1505.7,2651.05 1533.5,2648.5C 1553.34,2645.17 1567.18,2634.17 1575,2615.5C 1578.52,2604.74 1580.68,2593.74 1581.5,2582.5C 1578.17,2582.5 1574.83,2582.5 1571.5,2582.5C 1569.98,2626.24 1547.64,2645.07 1504.5,2639C 1490.49,2636.17 1477.15,2631.5 1464.5,2625C 1495.38,2597.11 1518.88,2563.95 1535,2525.5C 1542.13,2508.94 1547.97,2491.94 1552.5,2474.5 Z"/></g>
<g><path style="opacity:1" fill="#efe0c0" d="M 1641.5,2748.5 C 1676.17,2752.93 1708.84,2763.43 1739.5,2780C 1752.66,2787.84 1764.16,2797.67 1774,2809.5C 1782.56,2821.8 1786.4,2835.46 1785.5,2850.5C 1785.4,2860.11 1783.9,2869.44 1781,2878.5C 1769.12,2868.29 1756.96,2858.45 1744.5,2849C 1723.99,2836.83 1701.82,2832.33 1678,2835.5C 1654.15,2835.71 1630.32,2836.37 1606.5,2837.5C 1585.12,2837.14 1564.12,2834.3 1543.5,2829C 1535.09,2825.96 1527.42,2821.63 1520.5,2816C 1569.08,2808.25 1609.41,2785.75 1641.5,2748.5 Z"/></g>
</svg>
