<?xml version="1.0" encoding="UTF-8"?>
<!DOCTYPE svg PUBLIC "-//W3C//DTD SVG 1.1//EN" "http://www.w3.org/Graphics/SVG/1.1/DTD/svg11.dtd">
<svg xmlns="http://www.w3.org/2000/svg" version="1.1" width="4500px" height="4500px" style="shape-rendering:geometricPrecision; text-rendering:geometricPrecision; image-rendering:optimizeQuality; fill-rule:evenodd; clip-rule:evenodd" xmlns:xlink="http://www.w3.org/1999/xlink">
<g><path style="opacity:0.94" fill="#534639" d="M 1922.5,-0.5 C 2290.5,-0.5 2658.5,-0.5 3026.5,-0.5C 3047.41,85.7215 3074.24,170.055 3107,252.5C 3183.98,446.138 3277.98,630.471 3389,805.5C 3535.09,1035.45 3702.42,1249.45 3891,1447.5C 4079.66,1644.75 4282.49,1824.41 4499.5,1986.5C 4499.5,2793.83 4499.5,3601.17 4499.5,4408.5C 4338.64,4293.21 4186.97,4166.04 4044.5,4027C 3903.17,3887.38 3770.33,3740.88 3646,3587.5C 3461.98,3357.18 3292.98,3116.18 3139,2864.5C 2952.18,2557.93 2782.51,2240.93 2630,1913.5C 2390,1397.54 2185.33,867.541 2016,323.5C 1982.5,216.157 1951.33,108.157 1922.5,-0.5 Z"/></g>
<g><path style="opacity:1" fill="#474b55" d="M 1928.5,1.5 C 2292.83,1.33333 2657.17,1.5 3021.5,2C 3043.25,88.2385 3070.41,172.739 3103,255.5C 3178.82,446.148 3271.15,627.814 3380,800.5C 3507.16,1002.04 3650.83,1191.37 3811,1368.5C 4020.66,1598.68 4249.33,1806.34 4497,1991.5C 4497.67,2794.5 4497.67,3597.5 4497,4400.5C 4336.46,4285.36 4185.29,4158.2 4043.5,4019C 3874.74,3851.97 3718.24,3675.14 3574,3488.5C 3384.22,3240.7 3210.55,2981.7 3053,2711.5C 2876.35,2406.87 2715.35,2093.54 2570,1771.5C 2358.63,1301.58 2175.63,818.915 2021,323.5C 1990.09,222.119 1960.43,120.453 1932,18.5C 1930.38,12.9139 1929.22,7.24724 1928.5,1.5 Z"/></g>
</svg>
