<?xml version="1.0" encoding="UTF-8"?>
<!DOCTYPE svg PUBLIC "-//W3C//DTD SVG 1.1//EN" "http://www.w3.org/Graphics/SVG/1.1/DTD/svg11.dtd">
<svg xmlns="http://www.w3.org/2000/svg" version="1.1" width="4500px" height="4500px" style="shape-rendering:geometricPrecision; text-rendering:geometricPrecision; image-rendering:optimizeQuality; fill-rule:evenodd; clip-rule:evenodd" xmlns:xlink="http://www.w3.org/1999/xlink">
<g><path style="opacity:0.976" fill="#6f5a46" d="M 2277.5,-0.5 C 2279.17,-0.5 2280.83,-0.5 2282.5,-0.5C 2322.4,222.821 2367.23,445.155 2417,666.5C 2439.7,766.955 2465.36,866.622 2494,965.5C 2506.02,1006.23 2520.02,1046.23 2536,1085.5C 2543.46,1103.09 2552.46,1119.76 2563,1135.5C 2566.83,1140.16 2571,1144.5 2575.5,1148.5C 2525.49,1143.72 2475.83,1135.22 2426.5,1123C 2420.1,1121.42 2413.93,1119.26 2408,1116.5C 2398.8,1270.09 2391.46,1423.76 2386,1577.5C 2440.1,1615.09 2483.93,1662.09 2517.5,1718.5C 2572.24,1717.06 2625.57,1724.89 2677.5,1742C 2715.99,1755.53 2749.49,1776.7 2778,1805.5C 2785.04,1753.95 2795.04,1702.95 2808,1652.5C 2811.33,1639.68 2815.16,1627.01 2819.5,1614.5C 2818.88,1612.17 2819.72,1610.17 2822,1608.5C 2822.42,1609.67 2823.09,1610.67 2824,1611.5C 2853.81,1606.66 2882.65,1610.16 2910.5,1622C 2934.92,1634.42 2952.42,1653.26 2963,1678.5C 2967.13,1688.23 2970.46,1698.23 2973,1708.5C 2976.89,1725.64 2980.39,1742.81 2983.5,1760C 3056.89,1759.93 3104.06,1724.77 3125,1654.5C 3134.29,1618.74 3137.62,1582.41 3135,1545.5C 3133.65,1522.02 3130.98,1498.68 3127,1475.5C 3126.91,1472.99 3126.07,1470.83 3124.5,1469C 3085.35,1451.35 3051.52,1426.51 3023,1394.5C 3014.32,1383.14 3008.32,1370.48 3005,1356.5C 3001.53,1327.63 3014.03,1310.13 3042.5,1304C 3053.12,1301.74 3063.78,1299.74 3074.5,1298C 3058.84,1296.72 3043.51,1293.72 3028.5,1289C 3017.65,1285.47 3009.15,1278.97 3003,1269.5C 2989.42,1234.16 2979.42,1197.83 2973,1160.5C 2969.78,1140.82 2969.78,1121.15 2973,1101.5C 2975.74,1087.49 2983.24,1076.99 2995.5,1070C 3006.23,1066.99 3016.89,1063.99 3027.5,1061C 3020,1044.18 3016.34,1026.52 3016.5,1008C 3017.39,974.589 3025.56,943.089 3041,913.5C 3060.22,882.746 3087.72,871.246 3123.5,879C 3139.52,882.728 3154.52,888.894 3168.5,897.5C 3185.81,886.421 3204.81,881.088 3225.5,881.5C 3254.51,882.711 3282.34,889.045 3309,900.5C 3335.39,890.602 3362.56,887.769 3390.5,892C 3420.12,896.964 3440.95,913.13 3453,940.5C 3460.66,961.464 3464.16,983.13 3463.5,1005.5C 3463.2,1022.89 3462.03,1040.22 3460,1057.5C 3454.5,1102.15 3447.17,1146.49 3438,1190.5C 3427.9,1228.3 3413.4,1264.3 3394.5,1298.5C 3403.04,1301.77 3411.38,1305.6 3419.5,1310C 3432.38,1319.62 3437.21,1332.46 3434,1348.5C 3430.82,1368.03 3421.98,1384.53 3407.5,1398C 3380.97,1419.76 3350.97,1434.93 3317.5,1443.5C 3324.41,1521.71 3326.24,1600.04 3323,1678.5C 3321.02,1724.7 3315.02,1770.37 3305,1815.5C 3299.15,1841.06 3290.15,1865.39 3278,1888.5C 3260.6,1914.56 3238.1,1935.06 3210.5,1950C 3162.59,1973.98 3111.92,1988.65 3058.5,1994C 3024.25,1997.51 2989.92,1999.68 2955.5,2000.5C 2924.51,2071.67 2870.17,2105.17 2792.5,2101C 2782.24,2109.91 2770.91,2117.24 2758.5,2123C 2738.65,2152.02 2713.31,2174.86 2682.5,2191.5C 2669.56,2209.94 2653.56,2225.11 2634.5,2237C 2602.4,2254.1 2572.23,2251.27 2544,2228.5C 2534.14,2233.68 2523.98,2238.18 2513.5,2242C 2507.92,2246.91 2503.09,2252.41 2499,2258.5C 2502.24,2274.42 2497.74,2287.59 2485.5,2298C 2510.85,2316.68 2533.69,2338.18 2554,2362.5C 2570.73,2383.28 2582.73,2406.62 2590,2432.5C 2598.63,2467.6 2594.3,2500.93 2577,2532.5C 2572.29,2540.22 2566.46,2547.05 2559.5,2553C 2568.62,2562.64 2570.95,2573.81 2566.5,2586.5C 2654.14,2583.95 2736.14,2561.28 2812.5,2518.5C 2820.51,2594.56 2839.18,2667.89 2868.5,2738.5C 2944.46,2744 3010.46,2772.16 3066.5,2823C 3098.76,2851.96 3125.76,2884.96 3147.5,2922C 3199.67,2920.07 3250.33,2927.74 3299.5,2945C 3361.79,2968.63 3406.63,3010.79 3434,3071.5C 3454.23,3122.75 3454.56,3174.09 3435,3225.5C 3421.67,3256.49 3399.84,3279.33 3369.5,3294C 3356.25,3313.25 3340.25,3329.92 3321.5,3344C 3314.5,3348.84 3307.16,3353.17 3299.5,3357C 3285.02,3378.49 3266.02,3394.49 3242.5,3405C 3216.17,3413.59 3192.34,3409.09 3171,3391.5C 3160.14,3397.18 3148.98,3402.18 3137.5,3406.5C 3136.67,3408.96 3136.01,3411.46 3135.5,3414C 3135.82,3415.65 3136.82,3416.65 3138.5,3417C 3145.44,3418.17 3152.44,3418.84 3159.5,3419C 3171.44,3421.74 3176.27,3429.24 3174,3441.5C 3174.93,3444.1 3176.77,3445.6 3179.5,3446C 3193.69,3445.92 3207.86,3445.08 3222,3443.5C 3228.63,3442.56 3231.8,3445.39 3231.5,3452C 3230.53,3459.38 3229.03,3466.55 3227,3473.5C 3285.15,3484.45 3316.65,3519.45 3321.5,3578.5C 3321.39,3595.12 3313.39,3605.95 3297.5,3611C 3309.38,3622.07 3309.38,3633.23 3297.5,3644.5C 3302.45,3650.95 3307.95,3656.95 3314,3662.5C 3323.4,3676.17 3325.06,3690.84 3319,3706.5C 3309.43,3725.38 3294.26,3737.22 3273.5,3742C 3257.37,3745.72 3241.04,3748.06 3224.5,3749C 3196.53,3750.83 3168.53,3751.83 3140.5,3752C 3187.52,3782.56 3207.02,3825.72 3199,3881.5C 3193.91,3907.58 3179.74,3926.74 3156.5,3939C 3145.32,3954.18 3131.66,3966.51 3115.5,3976C 3106.51,3988.66 3094.84,3997.99 3080.5,4004C 3066.18,4007.71 3053.35,4004.88 3042,3995.5C 2996.21,4018.44 2948.05,4025.94 2897.5,4018C 2880.29,4014.27 2864.45,4007.43 2850,3997.5C 2816.66,4006.2 2783.16,4006.7 2749.5,3999C 2724.74,3991.87 2702.9,3979.71 2684,3962.5C 2666.24,3971.48 2647.4,3976.48 2627.5,3977.5C 2612.42,3977.23 2598.42,3973.23 2585.5,3965.5C 2550.67,3987.54 2512.67,3997.04 2471.5,3994C 2452.3,3991.6 2434.3,3985.6 2417.5,3976C 2411.74,3972.04 2405.9,3968.2 2400,3964.5C 2381.4,3971.29 2362.56,3972.12 2343.5,3967C 2329.11,3961.44 2319.78,3951.28 2315.5,3936.5C 2304.62,3939.28 2293.62,3940.12 2282.5,3939C 2287.73,3950.31 2287.57,3961.48 2282,3972.5C 2278.04,3976.54 2273.21,3978.54 2267.5,3978.5C 2254.25,3975.87 2243.42,3979.87 2235,3990.5C 2231.49,3995.51 2228.49,4000.84 2226,4006.5C 2222.33,4018.17 2218.67,4029.83 2215,4041.5C 2206.64,4061.52 2192.14,4075.02 2171.5,4082C 2153.82,4087.54 2135.82,4088.88 2117.5,4086C 2105.54,4083.68 2093.87,4080.35 2082.5,4076C 2061.38,4066.61 2040.38,4056.94 2019.5,4047C 2005.25,4044.37 1997.09,4050.2 1995,4064.5C 1994.67,4075.5 1994.33,4086.5 1994,4097.5C 1994.47,4108.5 1992.13,4118.83 1987,4128.5C 1985.17,4131.67 1982.67,4134.17 1979.5,4136C 1972.46,4139.46 1965.13,4142.12 1957.5,4144C 1950.16,4146.67 1945.66,4151.84 1944,4159.5C 1944.64,4215.08 1918.14,4249.92 1864.5,4264C 1809.97,4271.7 1759.3,4261.03 1712.5,4232C 1674.34,4206.53 1654.84,4170.69 1654,4124.5C 1627.68,4154.03 1596.52,4160.53 1560.5,4144C 1547.61,4136.78 1537.78,4126.61 1531,4113.5C 1522.62,4138.53 1505.45,4148.36 1479.5,4143C 1471.13,4140.24 1464.3,4135.41 1459,4128.5C 1451.11,4165.72 1428.28,4187.22 1390.5,4193C 1350.14,4196.88 1314.14,4186.21 1282.5,4161C 1229.56,4114.84 1208.72,4057.01 1220,3987.5C 1201.93,3989.81 1188.6,3982.81 1180,3966.5C 1178.22,3961.69 1177.72,3956.86 1178.5,3952C 1083.89,3972.79 996.56,3956.12 916.5,3902C 888.183,3881.52 864.517,3856.69 845.5,3827.5C 781.869,3822.62 723.536,3802.62 670.5,3767.5C 641.093,3783.22 614.926,3778.88 592,3754.5C 584.493,3745.99 578.16,3736.65 573,3726.5C 552.322,3711.32 536.156,3692.32 524.5,3669.5C 493.45,3647.76 476.616,3617.76 474,3579.5C 473.262,3500.45 508.428,3443.95 579.5,3410C 620.989,3393.45 663.989,3387.45 708.5,3392C 719.144,3392.81 729.644,3394.31 740,3396.5C 780.538,3344.32 832.371,3308.15 895.5,3288C 942.838,3275.76 989.838,3276.93 1036.5,3291.5C 1038.19,3232.93 1054.69,3178.93 1086,3129.5C 1096.31,3113.71 1107.48,3098.54 1119.5,3084C 1111.67,3080.17 1105.83,3074.33 1102,3066.5C 1094.8,3077.35 1084.97,3084.85 1072.5,3089C 1026.59,3102.64 980.59,3115.98 934.5,3129C 913.244,3135.66 891.91,3135.99 870.5,3130C 830.952,3120.05 797.118,3100.55 769,3071.5C 745.63,3042.28 740.297,3009.95 753,2974.5C 759.298,2958.4 766.798,2942.9 775.5,2928C 767.566,2928.13 759.9,2926.8 752.5,2924C 741.848,2916.22 740.015,2906.72 747,2895.5C 754.97,2888.53 762.636,2881.2 770,2873.5C 770.85,2871.99 771.683,2870.49 772.5,2869C 706.38,2829.67 671.213,2771.17 667,2693.5C 664.91,2641.53 675.91,2592.53 700,2546.5C 716.367,2520.46 737.2,2498.63 762.5,2481C 847.856,2424.88 941.689,2395.05 1044,2391.5C 1057.15,2392.27 1070.32,2393.1 1083.5,2394C 1107.53,2397.12 1131.53,2400.45 1155.5,2404C 1159.83,2404.67 1164.17,2404.67 1168.5,2404C 1170.41,2397.82 1172.58,2391.66 1175,2385.5C 1181.85,2377.15 1190.68,2371.99 1201.5,2370C 1241.4,2366.51 1279.74,2372.85 1316.5,2389C 1330.57,2394.87 1344.23,2401.53 1357.5,2409C 1358.5,2409.67 1359.5,2409.67 1360.5,2409C 1373.31,2399.09 1386.65,2389.93 1400.5,2381.5C 1404.21,2342.58 1407.21,2303.58 1409.5,2264.5C 1377.41,2263.14 1345.41,2260.81 1313.5,2257.5C 1327.7,2235.13 1341.7,2212.63 1355.5,2190C 1345.33,2183.41 1335.33,2176.58 1325.5,2169.5C 1290.04,2183.12 1254.04,2184.95 1217.5,2175C 1193.81,2165.31 1176.64,2148.81 1166,2125.5C 1163.6,2118.79 1161.1,2112.12 1158.5,2105.5C 1113.03,2084.86 1079.2,2052.2 1057,2007.5C 1027.58,1990.33 1014.92,1964.66 1019,1930.5C 1021.88,1906.19 1029.71,1883.69 1042.5,1863C 988.577,1852.36 937.91,1833.36 890.5,1806C 860.659,1787.83 836.492,1763.99 818,1734.5C 806.659,1711.81 799.659,1687.81 797,1662.5C 791.116,1605.52 791.116,1548.52 797,1491.5C 804.077,1419.7 815.91,1348.7 832.5,1278.5C 832.167,1277.83 831.833,1277.17 831.5,1276.5C 802.165,1264.26 776.332,1246.93 754,1224.5C 742.891,1212.04 735.225,1197.71 731,1181.5C 727.971,1166.71 729.971,1152.71 737,1139.5C 741.346,1134.83 746.513,1131.33 752.5,1129C 760.264,1126.06 768.264,1124.06 776.5,1123C 756.725,1074.13 745.892,1023.3 744,970.5C 742.688,929.825 742.688,889.158 744,848.5C 744.916,822.334 749.916,797.001 759,772.5C 774.117,737.596 800.783,719.93 839,719.5C 865.83,719.999 890.997,726.665 914.5,739.5C 949.234,729.142 984.234,727.976 1019.5,736C 1023.24,737.136 1026.91,738.47 1030.5,740C 1039.04,744.095 1047.04,748.928 1054.5,754.5C 1077.2,744.326 1100.86,740.826 1125.5,744C 1150.76,750.212 1168.26,765.379 1178,789.5C 1191.9,828.582 1193.9,868.248 1184,908.5C 1180.89,918.327 1176.73,927.66 1171.5,936.5C 1179.38,939.938 1187.38,943.105 1195.5,946C 1209.51,952.697 1217.34,963.864 1219,979.5C 1220.7,1000.61 1218.36,1021.28 1212,1041.5C 1200.57,1078.03 1185.57,1113.03 1167,1146.5C 1159.33,1154.92 1149.83,1160.09 1138.5,1162C 1122.55,1164.46 1106.55,1165.12 1090.5,1164C 1104.52,1167.67 1118.18,1172.34 1131.5,1178C 1155.41,1191.73 1162.25,1211.57 1152,1237.5C 1145.13,1251.05 1135.96,1262.88 1124.5,1273C 1092.71,1297.73 1057.37,1315.9 1018.5,1327.5C 1005.46,1367.88 996.957,1409.21 993,1451.5C 990.078,1484.29 993.745,1516.29 1004,1547.5C 1022.74,1594.89 1057.24,1623.39 1107.5,1633C 1112.46,1633.91 1117.46,1634.41 1122.5,1634.5C 1129.74,1600.37 1143.24,1569.04 1163,1540.5C 1186.88,1514.25 1216.72,1501.25 1252.5,1501.5C 1268.47,1501.88 1284.14,1504.21 1299.5,1508.5C 1300.17,1507.83 1300.83,1507.17 1301.5,1506.5C 1302.23,1507.93 1303.23,1509.1 1304.5,1510C 1303.9,1511.06 1303.57,1512.23 1303.5,1513.5C 1316.87,1598.38 1321.03,1683.71 1316,1769.5C 1368.2,1711.42 1433.37,1687.26 1511.5,1697C 1522.09,1698.32 1532.59,1700.15 1543,1702.5C 1554.29,1698.41 1565.79,1694.91 1577.5,1692C 1586.65,1683.18 1596.65,1675.52 1607.5,1669C 1613.54,1665.88 1619.87,1663.54 1626.5,1662C 1631.84,1640.66 1645.18,1627.32 1666.5,1622C 1698.03,1618.48 1729.03,1621.32 1759.5,1630.5C 1797.55,1608.27 1838.55,1599.77 1882.5,1605C 1889.47,1605.61 1896.3,1606.78 1903,1608.5C 1920.32,1462.59 1933.32,1316.26 1942,1169.5C 1943.23,1141.85 1943.73,1114.18 1943.5,1086.5C 1903.9,1099.9 1863.9,1112.07 1823.5,1123C 1804.38,1127.92 1785.05,1131.76 1765.5,1134.5C 1764.83,1134.17 1764.17,1133.83 1763.5,1133.5C 1867.7,949.455 1966.53,762.122 2060,571.5C 2105.41,478.689 2148.07,384.689 2188,289.5C 2216.27,222.283 2240.6,153.616 2261,83.5C 2268.73,55.9243 2274.23,27.9243 2277.5,-0.5 Z"/></g>
<g><path style="opacity:1" fill="#f5a93a" d="M 2280.5,24.5 C 2297.34,112.619 2314.18,200.953 2331,289.5C 2349.75,381.755 2368.92,473.755 2388.5,565.5C 2273.37,585.661 2158.2,605.661 2043,625.5C 2042.17,625.167 2041.33,624.833 2040.5,624.5C 2104.07,497.82 2162.24,369.154 2215,238.5C 2234.86,186.586 2252.53,133.919 2268,80.5C 2272.59,61.8695 2276.75,43.2028 2280.5,24.5 Z"/></g>
<g><path style="opacity:1" fill="#f7bf58" d="M 2387.5,571.5 C 2388.5,571.5 2389.5,571.5 2390.5,571.5C 2417.51,700.849 2449.01,829.183 2485,956.5C 2499.34,1004.86 2516,1052.19 2535,1098.5C 2542.31,1113.47 2550.31,1127.8 2559,1141.5C 2518.09,1136.54 2477.59,1129.38 2437.5,1120C 2427.8,1116.99 2418.13,1113.99 2408.5,1111C 2338.22,1078.6 2264.22,1060.27 2186.5,1056C 2106,1051.68 2026.66,1059.01 1948.5,1078C 1896.03,1096.82 1842.7,1112.49 1788.5,1125C 1783.84,1125.83 1779.17,1126.17 1774.5,1126C 1865.79,963.591 1953.46,798.924 2037.5,632C 2154.39,612.312 2271.05,592.145 2387.5,571.5 Z"/></g>
<g><path style="opacity:0.875" fill="#715a44" d="M 2808.5,649.5 C 2834.59,665.83 2858.43,685.163 2880,707.5C 2914.24,700.251 2948.58,693.251 2983,686.5C 2983.83,686.833 2984.67,687.167 2985.5,687.5C 2974.65,700.518 2962.65,712.351 2949.5,723C 2929.56,738.938 2909.06,754.105 2888,768.5C 2878.64,759.62 2867.8,756.62 2855.5,759.5C 2839.44,722.973 2823.77,686.306 2808.5,649.5 Z"/></g>
<g><path style="opacity:0.876" fill="#705a44" d="M 2800.5,654.5 C 2816.95,690.657 2832.95,727.157 2848.5,764C 2846.01,767.156 2843.51,770.322 2841,773.5C 2839.33,777.021 2838.16,780.687 2837.5,784.5C 2815.96,780.766 2794.3,777.933 2772.5,776C 2753.78,775.224 2735.11,775.557 2716.5,777C 2737.64,759.262 2761.64,747.096 2788.5,740.5C 2792.22,711.791 2796.22,683.124 2800.5,654.5 Z"/></g>
<g><path style="opacity:1" fill="#f4a93a" d="M 2815.5,657.5 C 2838.55,672.696 2859.71,690.362 2879,710.5C 2912.16,703.734 2945.33,697.234 2978.5,691C 2950.97,718.716 2920.97,743.216 2888.5,764.5C 2879.09,757.036 2868.59,754.369 2857,756.5C 2842.68,723.701 2828.85,690.701 2815.5,657.5 Z"/></g>
<g><path style="opacity:1" fill="#f4a83a" d="M 2801.5,663.5 C 2816.1,695.388 2830.26,727.721 2844,760.5C 2844.18,764.042 2842.85,767.042 2840,769.5C 2837.65,773.203 2836.15,777.203 2835.5,781.5C 2818.51,778.859 2801.51,776.359 2784.5,774C 2765.13,772.655 2745.79,772.322 2726.5,773C 2745.91,757.963 2767.57,747.797 2791.5,742.5C 2794.27,716.098 2797.61,689.765 2801.5,663.5 Z"/></g>
<g><path style="opacity:0.87" fill="#705944" d="M 2988.5,696.5 C 2989.04,696.56 2989.38,696.893 2989.5,697.5C 2976.96,731.094 2958.96,761.261 2935.5,788C 2951.46,814.751 2967.29,841.584 2983,868.5C 2985.61,872.707 2987.61,877.04 2989,881.5C 2957.15,853.807 2924.32,827.474 2890.5,802.5C 2896.16,794.049 2896.83,785.216 2892.5,776C 2919.01,757.171 2944.67,737.171 2969.5,716C 2976.04,709.631 2982.37,703.131 2988.5,696.5 Z"/></g>
<g><path style="opacity:1" fill="#f3a83a" d="M 2980.5,708.5 C 2981.04,708.56 2981.38,708.893 2981.5,709.5C 2969.05,738.256 2952.72,764.423 2932.5,788C 2947.83,814.317 2963.16,840.651 2978.5,867C 2978.17,867.167 2977.83,867.333 2977.5,867.5C 2952.41,845.795 2926.41,825.295 2899.5,806C 2895.46,803.659 2894.63,800.492 2897,796.5C 2897.28,789.424 2897.45,782.424 2897.5,775.5C 2916.86,761.82 2935.86,747.654 2954.5,733C 2963.81,725.512 2972.48,717.345 2980.5,708.5 Z"/></g>
<g><path style="opacity:1" fill="#61aaad" d="M 833.5,723.5 C 914.696,726.529 961.53,768.196 974,848.5C 976.437,873.826 971.437,897.493 959,919.5C 941.835,940.415 920.002,947.581 893.5,941C 856.543,929.71 832.71,905.543 822,868.5C 819.926,858.781 820.093,849.115 822.5,839.5C 820.856,839.286 819.356,839.62 818,840.5C 814.659,879.316 829.159,909.483 861.5,931C 883.553,946.015 907.553,950.348 933.5,944C 944.98,939.528 954.48,932.361 962,922.5C 975.265,934.222 990.098,943.555 1006.5,950.5C 1011.66,984.827 1029.99,1009.33 1061.5,1024C 1080.96,1032.06 1101.3,1036.23 1122.5,1036.5C 1122.5,1035.17 1122.5,1033.83 1122.5,1032.5C 1085.75,1033.19 1054.58,1020.53 1029,994.5C 1014.11,976.498 1008.11,955.831 1011,932.5C 1013.81,921.693 1020.64,914.86 1031.5,912C 1045.14,909.078 1058.81,909.078 1072.5,912C 1116.86,921.232 1159.53,935.232 1200.5,954C 1207.4,959.632 1211.9,966.798 1214,975.5C 1217.06,996.206 1215.39,1016.54 1209,1036.5C 1197.78,1072.79 1183.12,1107.79 1165,1141.5C 1160.33,1147.5 1154.5,1152 1147.5,1155C 1130.53,1160.08 1113.19,1161.75 1095.5,1160C 1084.11,1159.11 1072.78,1157.77 1061.5,1156C 1017.81,1145.8 973.809,1137.13 929.5,1130C 892.677,1124.76 855.677,1121.59 818.5,1120.5C 807.141,1120.75 795.807,1121.42 784.5,1122.5C 782.9,1122.45 781.4,1122.12 780,1121.5C 761.486,1072.96 750.819,1022.63 748,970.5C 746.719,930.157 746.719,889.824 748,849.5C 749.125,824.467 753.791,800.134 762,776.5C 775.03,743.936 798.864,726.269 833.5,723.5 Z"/></g>
<g><path style="opacity:0.93" fill="#6e5844" d="M 1588.5,730.5 C 1590.02,730.511 1591.18,731.177 1592,732.5C 1651.29,808.787 1710.95,884.787 1771,960.5C 1771.67,961.5 1771.67,962.5 1771,963.5C 1763.46,973.404 1756.3,983.57 1749.5,994C 1747.02,993.253 1744.69,991.919 1742.5,990C 1668.5,928.333 1594.5,866.667 1520.5,805C 1543.37,780.296 1566.04,755.463 1588.5,730.5 Z"/></g>
<g><path style="opacity:1" fill="#61aaad" d="M 962.5,734.5 C 985.283,732.678 1007.28,735.844 1028.5,744C 1055.46,757.292 1071.29,778.792 1076,808.5C 1082.27,834.52 1084.27,860.853 1082,887.5C 1081.15,894.322 1079.65,900.989 1077.5,907.5C 1076.67,907.833 1075.83,908.167 1075,908.5C 1061.89,906.682 1048.72,906.182 1035.5,907C 1014.19,911.41 1004.36,924.577 1006,946.5C 990.522,939.518 976.689,930.185 964.5,918.5C 974.252,900.993 978.918,882.16 978.5,862C 977.593,812.518 957.593,772.851 918.5,743C 933.064,738.965 947.731,736.131 962.5,734.5 Z"/></g>
<g><path style="opacity:1" fill="#ed583b" d="M 1588.5,738.5 C 1647.84,812.658 1706.84,887.158 1765.5,962C 1759.59,969.824 1753.92,977.824 1748.5,986C 1746.02,985.253 1743.69,983.919 1741.5,982C 1670.5,923 1599.5,864 1528.5,805C 1548.71,782.963 1568.71,760.796 1588.5,738.5 Z"/></g>
<g><path style="opacity:1" fill="#61aaad" d="M 1099.5,746.5 C 1136.16,744.042 1161.33,759.709 1175,793.5C 1187.5,829.622 1189.5,866.289 1181,903.5C 1178.17,912.831 1174.5,921.831 1170,930.5C 1168.96,932.585 1167.46,934.252 1165.5,935.5C 1138.3,924.453 1110.3,915.787 1081.5,909.5C 1089.8,867.133 1086.97,825.467 1073,784.5C 1069.37,774.723 1063.87,766.223 1056.5,759C 1063.38,756.15 1070.38,753.483 1077.5,751C 1085.03,749.75 1092.36,748.25 1099.5,746.5 Z"/></g>
<g><path style="opacity:0.866" fill="#715a44" d="M 2862.5,772.5 C 2878.66,773.15 2884.16,781.15 2879,796.5C 2873.26,802.599 2866.42,804.099 2858.5,801C 2851.09,794.745 2849.59,787.245 2854,778.5C 2856.32,775.605 2859.16,773.605 2862.5,772.5 Z"/></g>
<g><path style="opacity:1" fill="#f3a83a" d="M 2863.5,775.5 C 2875.48,775.976 2879.98,781.976 2877,793.5C 2872.57,799.68 2866.74,801.18 2859.5,798C 2854.79,793.86 2853.29,788.694 2855,782.5C 2856.85,778.843 2859.68,776.51 2863.5,775.5 Z"/></g>
<g><path style="opacity:0.878" fill="#705844" d="M 2733.5,783.5 C 2767.84,782.964 2801.84,786.13 2835.5,793C 2836.42,793.374 2837.25,793.874 2838,794.5C 2839.75,801.235 2843.42,806.568 2849,810.5C 2841.09,845.895 2829.76,880.229 2815,913.5C 2814.05,915.956 2814.55,917.956 2816.5,919.5C 2818.51,918.498 2820.51,917.498 2822.5,916.5C 2836.63,883.774 2847.96,850.108 2856.5,815.5C 2867.21,818.253 2876.88,816.253 2885.5,809.5C 2921.81,835.172 2956.48,863.006 2989.5,893C 2951.81,892.164 2914.81,886.664 2878.5,876.5C 2877.5,876.667 2876.5,876.833 2875.5,877C 2863.76,886.953 2851.93,896.786 2840,906.5C 2739.67,1141.17 2639.33,1375.83 2539,1610.5C 2531.6,1622.24 2522.43,1632.4 2511.5,1641C 2500.77,1648.01 2491.27,1646.85 2483,1637.5C 2479.37,1631.96 2477.37,1625.96 2477,1619.5C 2586.11,1373.62 2694.94,1127.62 2803.5,881.5C 2800.32,866.682 2798.48,851.682 2798,836.5C 2769.62,822.729 2742.12,807.563 2715.5,791C 2714.5,790 2713.5,789 2712.5,788C 2719.48,785.842 2726.48,784.342 2733.5,783.5 Z"/></g>
<g><path style="opacity:1" fill="#f4a93a" d="M 2746.5,785.5 C 2776.57,786.174 2806.23,789.841 2835.5,796.5C 2837.25,802.415 2840.42,807.415 2845,811.5C 2845.67,813.833 2845.67,816.167 2845,818.5C 2836.5,850.117 2825.83,880.783 2813,910.5C 2812.09,909.672 2811.42,908.672 2811,907.5C 2806.2,886.049 2802.7,864.383 2800.5,842.5C 2801.44,839.868 2801.61,837.202 2801,834.5C 2773.36,820.85 2746.36,806.183 2720,790.5C 2719.83,790.167 2719.67,789.833 2719.5,789.5C 2722.8,788.56 2726.14,787.727 2729.5,787C 2735.35,786.827 2741.01,786.327 2746.5,785.5 Z"/></g>
<g><path style="opacity:1" fill="#f4a93a" d="M 2884.5,813.5 C 2885.55,813.351 2886.55,813.517 2887.5,814C 2919.66,837.483 2950.66,862.483 2980.5,889C 2945.03,888.449 2910.36,882.949 2876.5,872.5C 2860.43,885.953 2844.26,899.286 2828,912.5C 2836.14,890.443 2844.14,868.109 2852,845.5C 2854.76,836.651 2856.92,827.651 2858.5,818.5C 2868.09,820.886 2876.75,819.219 2884.5,813.5 Z"/></g>
<g><path style="opacity:1" fill="#61aaad" d="M 3098.5,880.5 C 3122.54,880.871 3144.54,887.704 3164.5,901C 3151.99,911.848 3142.83,925.015 3137,940.5C 3125.54,968.521 3119.37,997.688 3118.5,1028C 3119.04,1034.16 3119.38,1040.32 3119.5,1046.5C 3090.48,1049.23 3061.82,1053.89 3033.5,1060.5C 3032.56,1060.39 3031.72,1060.06 3031,1059.5C 3019.67,1030.51 3017.67,1000.85 3025,970.5C 3029.35,946.81 3038.35,925.143 3052,905.5C 3064.31,890.932 3079.81,882.599 3098.5,880.5 Z"/></g>
<g><path style="opacity:1" fill="#61aaad" d="M 3215.5,885.5 C 3246.25,885.528 3275.58,891.694 3303.5,904C 3264.35,925.769 3239.85,958.602 3230,1002.5C 3227.2,1019.46 3226.86,1036.46 3229,1053.5C 3231.02,1059.83 3232.69,1066.17 3234,1072.5C 3220.2,1081.4 3205.54,1088.4 3190,1093.5C 3189.54,1089.32 3189.71,1085.16 3190.5,1081C 3189.54,1064.36 3180.87,1054.03 3164.5,1050C 3151.01,1047.92 3137.51,1046.42 3124,1045.5C 3121.49,1026.01 3122.49,1006.67 3127,987.5C 3131.07,969.284 3136.74,951.617 3144,934.5C 3158.54,904.644 3182.37,888.311 3215.5,885.5 Z"/></g>
<g><path style="opacity:1" fill="#ec583b" d="M 2803.5,887.5 C 2804.12,887.611 2804.62,887.944 2805,888.5C 2806.87,898.194 2808.87,907.861 2811,917.5C 2813.46,922.874 2817.29,924.041 2822.5,921C 2826.33,917.833 2830.17,914.667 2834,911.5C 2736.01,1142.85 2637.34,1374.19 2538,1605.5C 2530.34,1620.16 2519.51,1632 2505.5,1641C 2497.8,1644.88 2491.3,1643.38 2486,1636.5C 2481.64,1630.7 2479.97,1624.37 2481,1617.5C 2588.79,1374.25 2696.29,1130.92 2803.5,887.5 Z"/></g>
<g><path style="opacity:1" fill="#61aaad" d="M 3348.5,894.5 C 3368.66,892.833 3388.32,894.999 3407.5,901C 3430.79,911.301 3445.96,928.801 3453,953.5C 3460.07,984.547 3461.41,1015.88 3457,1047.5C 3451.97,1089.38 3445.64,1131.05 3438,1172.5C 3427.79,1216.73 3411.63,1258.56 3389.5,1298C 3345.37,1289.28 3300.7,1285.12 3255.5,1285.5C 3210.39,1285.99 3165.39,1288.49 3120.5,1293C 3094.65,1294.62 3068.98,1293.28 3043.5,1289C 3033.88,1286.69 3024.88,1283.02 3016.5,1278C 3009.85,1272.51 3005.35,1265.68 3003,1257.5C 2988.95,1219.97 2979.62,1181.3 2975,1141.5C 2973.75,1127.33 2974.75,1113.33 2978,1099.5C 2981.6,1086.24 2989.76,1077.07 3002.5,1072C 3031.31,1065.22 3060.31,1059.22 3089.5,1054C 3108.72,1050.88 3128.06,1049.88 3147.5,1051C 3184.54,1054.76 3195.71,1073.93 3181,1108.5C 3170.33,1132.08 3152.83,1148.25 3128.5,1157C 3107.11,1163.93 3085.28,1166.43 3063,1164.5C 3062.52,1165.45 3062.35,1166.45 3062.5,1167.5C 3085.31,1169.82 3107.64,1167.65 3129.5,1161C 3154.39,1151.77 3172.56,1135.27 3184,1111.5C 3185.46,1106.45 3187.29,1101.62 3189.5,1097C 3206.56,1092.82 3222.22,1085.65 3236.5,1075.5C 3253.19,1101.5 3276.85,1111.67 3307.5,1106C 3344.37,1098.45 3370.54,1077.62 3386,1043.5C 3388.94,1033.37 3390.11,1023.04 3389.5,1012.5C 3388.5,1012.5 3387.5,1012.5 3386.5,1012.5C 3386.85,1032.79 3380.68,1050.79 3368,1066.5C 3341.89,1096.69 3309.39,1107.85 3270.5,1100C 3251.17,1092 3239,1077.84 3234,1057.5C 3225.89,1004.22 3241.72,959.389 3281.5,923C 3301.48,907.737 3323.81,898.237 3348.5,894.5 Z"/></g>
<g><path style="opacity:0.929" fill="#6e5844" d="M 1516.5,907.5 C 1580.62,955.116 1644.62,1002.95 1708.5,1051C 1709.45,1051.72 1709.62,1052.55 1709,1053.5C 1703.49,1061.2 1697.99,1068.87 1692.5,1076.5C 1620.56,1043.53 1548.9,1010.03 1477.5,976C 1490.39,953.058 1503.39,930.225 1516.5,907.5 Z"/></g>
<g><path style="opacity:1" fill="#ed583b" d="M 1517.5,916.5 C 1518.55,916.351 1519.55,916.517 1520.5,917C 1580.22,962.385 1640.22,1007.38 1700.5,1052C 1701.52,1053.05 1701.68,1054.22 1701,1055.5C 1698,1059.83 1695,1064.17 1692,1068.5C 1690.95,1069.52 1689.78,1069.68 1688.5,1069C 1620.5,1037.66 1552.83,1005.83 1485.5,973.5C 1495.93,954.311 1506.59,935.311 1517.5,916.5 Z"/></g>
<g><path style="opacity:1" fill="#5a9d98" d="M 2371.5,1823.5 C 2370.83,1829.83 2370.17,1836.17 2369.5,1842.5C 2364.69,1820.27 2355.53,1799.94 2342,1781.5C 2331.6,1769.05 2318.43,1761.38 2302.5,1758.5C 2307,1731.4 2306.5,1704.4 2301,1677.5C 2294.55,1658.38 2281.39,1647.22 2261.5,1644C 2243.6,1642.78 2226.27,1645.45 2209.5,1652C 2197.34,1657.58 2185.34,1663.41 2173.5,1669.5C 2165.22,1662.68 2156.22,1656.85 2146.5,1652C 2131.54,1647.1 2117.87,1649.44 2105.5,1659C 2094.34,1669.49 2085.51,1681.65 2079,1695.5C 2074.5,1706.84 2070,1718.17 2065.5,1729.5C 2050,1703.17 2034.5,1676.83 2019,1650.5C 2016.54,1647.04 2013.7,1643.87 2010.5,1641C 2000.36,1635.02 1991.86,1636.85 1985,1646.5C 1976.59,1663.72 1970.59,1681.72 1967,1700.5C 1963.16,1720.37 1960.16,1740.37 1958,1760.5C 1953.6,1807.77 1950.1,1855.1 1947.5,1902.5C 1925.66,1889.08 1904,1875.42 1882.5,1861.5C 1881.34,1857.54 1881.17,1853.54 1882,1849.5C 1901.68,1686.42 1919.01,1523.09 1934,1359.5C 1942.66,1267.69 1948.16,1175.69 1950.5,1083.5C 2048.08,1058.89 2146.75,1053.72 2246.5,1068C 2300.13,1075.83 2351.46,1090.99 2400.5,1113.5C 2401.67,1122.15 2401.83,1130.81 2401,1139.5C 2387.82,1367.36 2377.99,1595.36 2371.5,1823.5 Z"/></g>
<g><path style="opacity:0.943" fill="#6d5844" d="M 1447.5,1087.5 C 1526.85,1103.47 1606.19,1119.64 1685.5,1136C 1685.96,1136.41 1686.29,1136.91 1686.5,1137.5C 1683.85,1147.43 1681.52,1157.43 1679.5,1167.5C 1605.15,1164.9 1530.82,1161.9 1456.5,1158.5C 1452.93,1134.92 1449.93,1111.25 1447.5,1087.5 Z"/></g>
<g><path style="opacity:1" fill="#ec583b" d="M 1453.5,1093.5 C 1528.75,1109.22 1604.09,1124.55 1679.5,1139.5C 1678.53,1146.87 1676.87,1154.03 1674.5,1161C 1603.81,1159.71 1533.14,1157.38 1462.5,1154C 1461,1152.51 1460.16,1150.68 1460,1148.5C 1457.5,1130.2 1455.34,1111.86 1453.5,1093.5 Z"/></g>
<g><path style="opacity:1" fill="#6e5a46" d="M 2233.5,1118.5 C 2263.12,1117.62 2276.96,1131.96 2275,1161.5C 2270.28,1179.04 2258.78,1188.37 2240.5,1189.5C 2213.74,1185.66 2202.24,1170.33 2206,1143.5C 2210.6,1130.07 2219.76,1121.73 2233.5,1118.5 Z"/></g>
<g><path style="opacity:1" fill="#f4c058" d="M 2234.5,1123.5 C 2259.48,1123.31 2271.32,1135.65 2270,1160.5C 2261.71,1181.9 2246.87,1188.4 2225.5,1180C 2210.07,1168.85 2206.57,1154.68 2215,1137.5C 2220.03,1130.61 2226.53,1125.94 2234.5,1123.5 Z"/></g>
<g><path style="opacity:1" fill="#f5c058" d="M 795.5,1124.5 C 840.437,1123.94 885.104,1127.11 929.5,1134C 983.427,1142.82 1036.76,1154.15 1089.5,1168C 1105.91,1172.24 1121.58,1178.24 1136.5,1186C 1150.65,1197.8 1155.15,1212.63 1150,1230.5C 1145.67,1241.82 1139.34,1251.82 1131,1260.5C 1109.32,1281.27 1084.49,1297.44 1056.5,1309C 1044.14,1314.06 1031.64,1318.89 1019,1323.5C 992.09,1289.62 956.923,1270.79 913.5,1267C 897.139,1266.17 880.806,1266.5 864.5,1268C 854.46,1269.92 844.46,1271.58 834.5,1273C 801.656,1259.33 773.49,1239.16 750,1212.5C 739.054,1197.66 733.72,1180.99 734,1162.5C 734.351,1154.81 736.684,1147.81 741,1141.5C 746.468,1136.85 752.634,1133.35 759.5,1131C 771.541,1128.28 783.541,1126.12 795.5,1124.5 Z"/></g>
<g><path style="opacity:1" fill="#6e5845" d="M 2137.5,1198.5 C 2182.94,1197.44 2211.77,1218.78 2224,1262.5C 2224.13,1290.18 2223.46,1317.85 2222,1345.5C 2219.69,1437.09 2223.02,1528.42 2232,1619.5C 2169.91,1614.84 2107.74,1610.5 2045.5,1606.5C 2052.98,1495.17 2060.48,1383.84 2068,1272.5C 2071.29,1239.4 2088.12,1216.24 2118.5,1203C 2124.81,1200.81 2131.14,1199.31 2137.5,1198.5 Z"/></g>
<g><path style="opacity:1" fill="#b08b4e" d="M 2154.5,1204.5 C 2149.83,1204.5 2145.17,1204.5 2140.5,1204.5C 2140.5,1206.5 2140.5,1208.5 2140.5,1210.5C 2139.53,1208.39 2139.2,1206.06 2139.5,1203.5C 2144.69,1203.18 2149.69,1203.51 2154.5,1204.5 Z"/></g>
<g><path style="opacity:1" fill="#f4c058" d="M 2154.5,1204.5 C 2187.37,1209.87 2208.54,1228.54 2218,1260.5C 2219.71,1276.81 2219.87,1293.15 2218.5,1309.5C 2193.49,1309.16 2168.49,1308.49 2143.5,1307.5C 2142.52,1275.17 2141.52,1242.83 2140.5,1210.5C 2140.5,1208.5 2140.5,1206.5 2140.5,1204.5C 2145.17,1204.5 2149.83,1204.5 2154.5,1204.5 Z"/></g>
<g><path style="opacity:1" fill="#f4bf58" d="M 2129.5,1205.5 C 2131.17,1205.5 2132.83,1205.5 2134.5,1205.5C 2136.39,1239.47 2137.73,1273.47 2138.5,1307.5C 2116.25,1307.13 2094.08,1306.13 2072,1304.5C 2071.6,1291.12 2072.27,1277.79 2074,1264.5C 2079.14,1239.35 2093.31,1221.18 2116.5,1210C 2120.85,1208.16 2125.18,1206.66 2129.5,1205.5 Z"/></g>
<g><path style="opacity:0.943" fill="#6e5844" d="M 1647.5,1236.5 C 1650.17,1236.5 1652.83,1236.5 1655.5,1236.5C 1655.31,1245.86 1655.65,1255.19 1656.5,1264.5C 1610.43,1276.52 1564.43,1288.85 1518.5,1301.5C 1517.35,1301.18 1516.52,1300.52 1516,1299.5C 1509.67,1284.66 1503.83,1269.66 1498.5,1254.5C 1548.33,1248.73 1598,1242.73 1647.5,1236.5 Z"/></g>
<g><path style="opacity:1" fill="#ec583b" d="M 1648.5,1241.5 C 1649.82,1244.26 1650.48,1247.42 1650.5,1251C 1650.45,1254.6 1649.78,1257.94 1648.5,1261C 1606.11,1272.31 1563.78,1283.81 1521.5,1295.5C 1520.2,1294.91 1519.37,1293.91 1519,1292.5C 1514.84,1281.46 1510.34,1270.46 1505.5,1259.5C 1553.27,1253.34 1600.94,1247.34 1648.5,1241.5 Z"/></g>
<g><path style="opacity:1" fill="#ed583b" d="M 874.5,1270.5 C 909.332,1267.26 942.332,1273.43 973.5,1289C 987.47,1296.97 999.637,1307.13 1010,1319.5C 1011.7,1321.7 1013.2,1324.03 1014.5,1326.5C 1003.69,1359.07 996.025,1392.4 991.5,1426.5C 962.526,1413.17 932.193,1404.34 900.5,1400C 870.359,1396.55 840.693,1398.55 811.5,1406C 818.582,1362.93 827.082,1320.09 837,1277.5C 849.47,1274.45 861.97,1272.12 874.5,1270.5 Z"/></g>
<g><path style="opacity:1" fill="#f5c058" d="M 3218.5,1289.5 C 3265.68,1287.99 3312.68,1290.16 3359.5,1296C 3379.32,1298.28 3397.99,1303.95 3415.5,1313C 3421.75,1316.68 3426.25,1321.85 3429,1328.5C 3431.87,1347.47 3427.87,1364.81 3417,1380.5C 3405.53,1394.47 3392.03,1405.97 3376.5,1415C 3356.92,1425.6 3336.42,1433.77 3315,1439.5C 3287.85,1430.07 3259.85,1424.74 3231,1423.5C 3197.24,1422.98 3167.07,1432.81 3140.5,1453C 3136.02,1456.31 3132.02,1460.15 3128.5,1464.5C 3127.64,1465.58 3126.64,1465.75 3125.5,1465C 3097.45,1450.99 3071.45,1433.99 3047.5,1414C 3030.21,1399.4 3017.71,1381.57 3010,1360.5C 3004.56,1337.56 3012.39,1321.06 3033.5,1311C 3060.15,1304.37 3087.15,1299.7 3114.5,1297C 3149.29,1294.16 3183.96,1291.66 3218.5,1289.5 Z"/></g>
<g><path style="opacity:1" fill="#f4c058" d="M 2070.5,1310.5 C 2093.17,1311.13 2115.83,1311.79 2138.5,1312.5C 2140.12,1346.48 2140.62,1380.48 2140,1414.5C 2114.54,1416.42 2089.04,1418.42 2063.5,1420.5C 2065.48,1383.81 2067.81,1347.14 2070.5,1310.5 Z"/></g>
<g><path style="opacity:1" fill="#ae894e" d="M 2156.5,1313.5 C 2152.5,1313.5 2148.5,1313.5 2144.5,1313.5C 2144.5,1315.17 2144.5,1316.83 2144.5,1318.5C 2143.54,1316.74 2143.21,1314.74 2143.5,1312.5C 2148.03,1312.18 2152.37,1312.52 2156.5,1313.5 Z"/></g>
<g><path style="opacity:1" fill="#f5c058" d="M 2156.5,1313.5 C 2173.17,1313.51 2189.84,1313.84 2206.5,1314.5C 2210.17,1315.17 2213.83,1315.83 2217.5,1316.5C 2217.3,1333.84 2216.97,1351.17 2216.5,1368.5C 2215.5,1381.66 2215.17,1394.99 2215.5,1408.5C 2213.59,1408.22 2211.92,1408.55 2210.5,1409.5C 2191.17,1410.83 2171.83,1412.17 2152.5,1413.5C 2150.5,1413.5 2148.5,1413.5 2146.5,1413.5C 2146.83,1403.32 2146.49,1393.32 2145.5,1383.5C 2144.92,1361.84 2144.58,1340.17 2144.5,1318.5C 2144.5,1316.83 2144.5,1315.17 2144.5,1313.5C 2148.5,1313.5 2152.5,1313.5 2156.5,1313.5 Z"/></g>
<g><path style="opacity:1" fill="#ad894e" d="M 2206.5,1314.5 C 2210.55,1314.18 2214.55,1314.51 2218.5,1315.5C 2218.38,1316.11 2218.04,1316.44 2217.5,1316.5C 2213.83,1315.83 2210.17,1315.17 2206.5,1314.5 Z"/></g>
<g><path style="opacity:1" fill="#b18c4e" d="M 2216.5,1368.5 C 2216.5,1382.17 2216.5,1395.83 2216.5,1409.5C 2214.5,1409.5 2212.5,1409.5 2210.5,1409.5C 2211.92,1408.55 2213.59,1408.22 2215.5,1408.5C 2215.17,1394.99 2215.5,1381.66 2216.5,1368.5 Z"/></g>
<g><path style="opacity:1" fill="#b18c4e" d="M 2145.5,1383.5 C 2146.49,1393.32 2146.83,1403.32 2146.5,1413.5C 2148.5,1413.5 2150.5,1413.5 2152.5,1413.5C 2150.39,1414.47 2148.06,1414.8 2145.5,1414.5C 2145.5,1404.17 2145.5,1393.83 2145.5,1383.5 Z"/></g>
<g><path style="opacity:1" fill="#ed583b" d="M 861.5,1401.5 C 906.976,1400.91 949.809,1410.91 990,1431.5C 988.61,1453.12 988.277,1474.79 989,1496.5C 990.314,1511.38 992.814,1526.05 996.5,1540.5C 952.293,1538.02 908.959,1542.85 866.5,1555C 845.204,1562.06 826.704,1573.56 811,1589.5C 805.589,1595.98 800.922,1602.98 797,1610.5C 795.48,1544.07 800.147,1478.07 811,1412.5C 811.388,1411.57 812.055,1410.91 813,1410.5C 828.996,1405.81 845.162,1402.81 861.5,1401.5 Z"/></g>
<g><path style="opacity:1" fill="#f4bf58" d="M 2210.5,1414.5 C 2212.5,1414.5 2214.5,1414.5 2216.5,1414.5C 2216.62,1446.85 2217.28,1479.18 2218.5,1511.5C 2213.02,1511.15 2207.69,1511.82 2202.5,1513.5C 2200.6,1508.62 2198.6,1503.79 2196.5,1499C 2198.11,1492.99 2198.94,1486.83 2199,1480.5C 2200.78,1479.33 2200.78,1478.33 2199,1477.5C 2193.98,1479.51 2188.98,1481.51 2184,1483.5C 2181.52,1487.12 2180.19,1491.12 2180,1495.5C 2175.17,1501 2170.33,1506.5 2165.5,1512C 2159.39,1516.22 2152.73,1519.05 2145.5,1520.5C 2146.1,1486.84 2146.43,1453.17 2146.5,1419.5C 2168.04,1418.54 2189.37,1416.87 2210.5,1414.5 Z"/></g>
<g><path style="opacity:1" fill="#f4c058" d="M 2140.5,1513.5 C 2139.75,1516.05 2139.08,1518.72 2138.5,1521.5C 2111.54,1525.08 2084.54,1528.41 2057.5,1531.5C 2056.54,1529.74 2056.21,1527.74 2056.5,1525.5C 2058.15,1493.14 2060.15,1460.81 2062.5,1428.5C 2064.69,1427.1 2067.03,1426.1 2069.5,1425.5C 2090.99,1423.81 2112.49,1422.14 2134,1420.5C 2136.42,1420.53 2138.76,1420.86 2141,1421.5C 2141.49,1452.17 2141.33,1482.84 2140.5,1513.5 Z"/></g>
<g><path style="opacity:1" fill="#af8b4e" d="M 2069.5,1425.5 C 2067.03,1426.1 2064.69,1427.1 2062.5,1428.5C 2062.5,1427.5 2062.5,1426.5 2062.5,1425.5C 2064.83,1425.5 2067.17,1425.5 2069.5,1425.5 Z"/></g>
<g><path style="opacity:1" fill="#ed583b" d="M 3217.5,1427.5 C 3250.49,1426.1 3282.16,1431.77 3312.5,1444.5C 3317.07,1487.69 3319.74,1531.02 3320.5,1574.5C 3278.55,1558 3235.22,1553.17 3190.5,1560C 3173.21,1562.71 3156.21,1566.54 3139.5,1571.5C 3139.63,1557.48 3139.13,1543.48 3138,1529.5C 3135.75,1508.78 3133.42,1488.11 3131,1467.5C 3154.97,1443.68 3183.8,1430.34 3217.5,1427.5 Z"/></g>
<g><path style="opacity:1" fill="#f5c058" d="M 1247.5,1505.5 C 1264.03,1506.13 1280.36,1508.13 1296.5,1511.5C 1230.1,1621.36 1206.93,1740.03 1227,1867.5C 1234.97,1910.71 1247.47,1952.38 1264.5,1992.5C 1205.71,1990.87 1162.54,1964.2 1135,1912.5C 1123.31,1887.4 1115.64,1861.07 1112,1833.5C 1103.55,1752.87 1112.22,1674.2 1138,1597.5C 1144.31,1579.22 1152.97,1562.22 1164,1546.5C 1185.73,1520.38 1213.57,1506.72 1247.5,1505.5 Z"/></g>
<g><path style="opacity:1" fill="#ad894e" d="M 2140.5,1513.5 C 2141.04,1516.7 2140.37,1519.36 2138.5,1521.5C 2139.08,1518.72 2139.75,1516.05 2140.5,1513.5 Z"/></g>
<g><path style="opacity:1" fill="#ebb857" d="M 2215.5,1516.5 C 2216.83,1516.5 2218.17,1516.5 2219.5,1516.5C 2219.82,1519.57 2219.48,1522.57 2218.5,1525.5C 2214.97,1522.8 2211.3,1520.3 2207.5,1518C 2210.36,1517.82 2213.03,1517.32 2215.5,1516.5 Z"/></g>
<g><path style="opacity:1" fill="#955249" d="M 1298.5,1517.5 C 1299.69,1517.97 1300.36,1518.97 1300.5,1520.5C 1315.27,1618.22 1317.44,1716.22 1307,1814.5C 1300.49,1874.05 1287.49,1932.05 1268,1988.5C 1208.34,1849.47 1208.67,1710.47 1269,1571.5C 1277.58,1552.67 1287.41,1534.67 1298.5,1517.5 Z"/></g>
<g><path style="opacity:1" fill="#aa874e" d="M 2056.5,1525.5 C 2056.21,1527.74 2056.54,1529.74 2057.5,1531.5C 2057.44,1532.04 2057.11,1532.38 2056.5,1532.5C 2055.2,1530.03 2055.2,1527.69 2056.5,1525.5 Z"/></g>
<g><path style="opacity:1" fill="#f4bf58" d="M 2132.5,1530.5 C 2131.71,1530.78 2131.04,1531.28 2130.5,1532C 2133.04,1532.8 2135.37,1532.63 2137.5,1531.5C 2138.82,1534.94 2139.49,1538.77 2139.5,1543C 2138.72,1564.25 2137.06,1585.42 2134.5,1606.5C 2107.47,1605.66 2080.47,1604.16 2053.5,1602C 2052.38,1601.75 2051.38,1601.25 2050.5,1600.5C 2052.21,1579.51 2053.88,1558.51 2055.5,1537.5C 2081.03,1534.41 2106.53,1531.08 2132,1527.5C 2137.68,1527.34 2137.85,1528.34 2132.5,1530.5 Z"/></g>
<g><path style="opacity:1" fill="#ae894e" d="M 2132.5,1530.5 C 2133.92,1531.45 2135.59,1531.78 2137.5,1531.5C 2135.37,1532.63 2133.04,1532.8 2130.5,1532C 2131.04,1531.28 2131.71,1530.78 2132.5,1530.5 Z"/></g>
<g><path style="opacity:1" fill="#b08b4e" d="M 2151.5,1530.5 C 2149.74,1531.46 2147.74,1531.79 2145.5,1531.5C 2145.82,1535.7 2145.48,1539.7 2144.5,1543.5C 2144.5,1539.17 2144.5,1534.83 2144.5,1530.5C 2146.83,1530.5 2149.17,1530.5 2151.5,1530.5 Z"/></g>
<g><path style="opacity:1" fill="#f1bd58" d="M 2151.5,1530.5 C 2154.5,1531.42 2157.34,1532.75 2160,1534.5C 2159.72,1544.95 2163.89,1552.95 2172.5,1558.5C 2171,1559.84 2170.33,1561.51 2170.5,1563.5C 2165.63,1564.26 2160.8,1565.26 2156,1566.5C 2154.18,1566.06 2152.34,1565.72 2150.5,1565.5C 2150.13,1571.17 2149.63,1576.84 2149,1582.5C 2148.05,1584.46 2146.71,1586.12 2145,1587.5C 2144.75,1591.85 2144.75,1596.19 2145,1600.5C 2143.5,1602.83 2142,1605.17 2140.5,1607.5C 2140.17,1606.83 2139.83,1606.17 2139.5,1605.5C 2142.19,1584.92 2143.85,1564.25 2144.5,1543.5C 2145.48,1539.7 2145.82,1535.7 2145.5,1531.5C 2147.74,1531.79 2149.74,1531.46 2151.5,1530.5 Z"/></g>
<g><path style="opacity:1" fill="#f2be58" d="M 2209.5,1533.5 C 2212.57,1533.55 2215.57,1534.05 2218.5,1535C 2219.13,1535.75 2219.63,1536.58 2220,1537.5C 2221.69,1562.89 2223.85,1588.22 2226.5,1613.5C 2219.83,1613.17 2213.17,1612.83 2206.5,1612.5C 2206.5,1610.5 2206.5,1608.5 2206.5,1606.5C 2208.94,1606.65 2209.61,1605.81 2208.5,1604C 2210.94,1601.13 2212.6,1597.8 2213.5,1594C 2212.35,1592.18 2211.18,1590.34 2210,1588.5C 2209.33,1583.17 2209.33,1577.83 2210,1572.5C 2211.83,1570.67 2213.67,1568.83 2215.5,1567C 2212.99,1563.15 2209.82,1559.99 2206,1557.5C 2202.36,1560.3 2198.86,1563.3 2195.5,1566.5C 2194.15,1565.05 2192.48,1564.38 2190.5,1564.5C 2190.3,1562.42 2190.13,1560.42 2190,1558.5C 2192.79,1557.44 2195.46,1556.1 2198,1554.5C 2202.38,1548.95 2204.88,1542.62 2205.5,1535.5C 2207.03,1535.01 2208.36,1534.34 2209.5,1533.5 Z"/></g>
<g><path style="opacity:1" fill="#ed583b" d="M 959.5,1543.5 C 972.519,1543.46 985.519,1543.96 998.5,1545C 1004.09,1560.51 1011.75,1574.84 1021.5,1588C 981.695,1603.81 951.195,1630.31 930,1667.5C 913.155,1698.25 903.488,1731.25 901,1766.5C 900.25,1779.51 899.416,1792.51 898.5,1805.5C 867.383,1788.22 842.216,1764.55 823,1734.5C 808.941,1706.24 800.941,1676.24 799,1644.5C 797.906,1635.85 797.572,1627.18 798,1618.5C 808.416,1595.08 825.25,1577.92 848.5,1567C 871.441,1556.6 895.441,1549.93 920.5,1547C 933.63,1545.55 946.63,1544.38 959.5,1543.5 Z"/></g>
<g><path style="opacity:1" fill="#ed583b" d="M 3216.5,1560.5 C 3252.82,1558.88 3287.49,1565.22 3320.5,1579.5C 3322.48,1646.56 3318.31,1713.23 3308,1779.5C 3302.7,1765.57 3294.87,1753.24 3284.5,1742.5C 3265.67,1725.08 3244.01,1712.25 3219.5,1704C 3187,1693.13 3153.67,1686.3 3119.5,1683.5C 3133,1649.18 3139.83,1613.51 3140,1576.5C 3164.9,1567.76 3190.4,1562.42 3216.5,1560.5 Z"/></g>
<g><path style="opacity:1" fill="#e9b757" d="M 2204.5,1561.5 C 2208.37,1562.73 2209.7,1565.23 2208.5,1569C 2199.93,1569.99 2198.59,1567.49 2204.5,1561.5 Z"/></g>
<g><path style="opacity:1" fill="#f2e5cb" d="M 2384.5,1584.5 C 2438.07,1621.9 2481.4,1668.73 2514.5,1725C 2568.18,1722.42 2620.51,1729.42 2671.5,1746C 2712.28,1760.3 2747.78,1782.8 2778,1813.5C 2769.11,1892.48 2769.44,1971.48 2779,2050.5C 2781.23,2065.39 2783.73,2080.23 2786.5,2095C 2786.83,2097.67 2785.83,2099.67 2783.5,2101C 2760.05,2118.15 2733.72,2127.82 2704.5,2130C 2656.21,2131.24 2613.21,2116.9 2575.5,2087C 2590.71,2061.58 2596.21,2034.08 2592,2004.5C 2591.15,1968.92 2579.15,1937.92 2556,1911.5C 2539.49,1895.51 2522.32,1880.34 2504.5,1866C 2496.36,1858.86 2488.53,1851.36 2481,1843.5C 2480.07,1840.4 2481.07,1838.07 2484,1836.5C 2486.3,1830.9 2485.8,1825.57 2482.5,1820.5C 2508.29,1810.8 2510.29,1797.3 2488.5,1780C 2469.67,1767.79 2449,1760.62 2426.5,1758.5C 2429,1748.23 2429.16,1737.9 2427,1727.5C 2425.83,1725 2424,1723.17 2421.5,1722C 2417.07,1721.21 2412.74,1721.54 2408.5,1723C 2398.58,1728.21 2389.08,1734.04 2380,1740.5C 2381.07,1688.49 2382.57,1636.49 2384.5,1584.5 Z"/></g>
<g><path style="opacity:1" fill="#ed583b" d="M 1022.5,1591.5 C 1030.65,1598.81 1038.98,1605.98 1047.5,1613C 1057.42,1619.46 1067.75,1625.12 1078.5,1630C 1034.9,1700.41 1022.24,1776.24 1040.5,1857.5C 992.43,1848.2 946.93,1831.87 904,1808.5C 900.726,1758.94 910.726,1712.27 934,1668.5C 955.028,1632.96 984.528,1607.3 1022.5,1591.5 Z"/></g>
<g><path style="opacity:1" fill="#f2e4ca" d="M 1848.5,1609.5 C 1867.08,1608.59 1885.42,1610.26 1903.5,1614.5C 1901.62,1636.7 1898.79,1658.7 1895,1680.5C 1884.04,1667.16 1870.21,1662.32 1853.5,1666C 1848.09,1669.29 1843.93,1673.79 1841,1679.5C 1821.27,1656.55 1796.77,1641.05 1767.5,1633C 1792.67,1618.67 1819.67,1610.84 1848.5,1609.5 Z"/></g>
<g><path style="opacity:1" fill="#f5c058" d="M 2833.5,1613.5 C 2858.81,1611.6 2883.14,1615.43 2906.5,1625C 2937.77,1640.61 2957.6,1665.45 2966,1699.5C 2987.93,1785.47 2987.93,1871.47 2966,1957.5C 2958.87,1984.25 2947.87,2009.25 2933,2032.5C 2898.94,2081.11 2852.44,2101.78 2793.5,2094.5C 2881.17,1946.69 2894.33,1792.36 2833,1631.5C 2830.79,1626.37 2828.29,1621.37 2825.5,1616.5C 2828.18,1615.25 2830.85,1614.25 2833.5,1613.5 Z"/></g>
<g><path style="opacity:1" fill="#955249" d="M 2821.5,1619.5 C 2825.42,1625 2828.58,1631 2831,1637.5C 2885.6,1782.06 2877.94,1923.06 2808,2060.5C 2802.59,2070.33 2796.92,2080 2791,2089.5C 2789.96,2088.38 2789.29,2087.04 2789,2085.5C 2772.83,1994.87 2770.5,1903.87 2782,1812.5C 2789.73,1747.02 2802.9,1682.69 2821.5,1619.5 Z"/></g>
<g><path style="opacity:1" fill="#f5c058" d="M 1676.5,1625.5 C 1714.84,1625.34 1751.84,1632.17 1787.5,1646C 1817.16,1659.33 1839.33,1680.5 1854,1709.5C 1851.83,1701.49 1849.33,1693.49 1846.5,1685.5C 1848.2,1675.72 1854.03,1670.39 1864,1669.5C 1876.83,1671.32 1886.83,1677.66 1894,1688.5C 1894.13,1695.83 1893.8,1703.17 1893,1710.5C 1888.94,1742.45 1885.28,1774.45 1882,1806.5C 1873.75,1875.54 1865.08,1944.54 1856,2013.5C 1846.87,2004.03 1836.37,1996.53 1824.5,1991C 1820.17,1990.33 1815.83,1990.33 1811.5,1991C 1799.25,1996.19 1786.58,2000.19 1773.5,2003C 1754.43,2006.95 1735.26,2010.45 1716,2013.5C 1699.49,2012.66 1684.32,2007.83 1670.5,1999C 1642.58,1979.75 1619.41,1955.91 1601,1927.5C 1578.87,1893.91 1559.87,1858.58 1544,1821.5C 1542.49,1822.09 1540.99,1822.76 1539.5,1823.5C 1540.1,1825.61 1540.44,1827.77 1540.5,1830C 1535.93,1853.37 1528.76,1875.87 1519,1897.5C 1501.85,1935.47 1482.85,1972.47 1462,2008.5C 1435.03,1987.87 1412.7,1963.21 1395,1934.5C 1379.87,1904.14 1378.53,1873.14 1391,1841.5C 1404.06,1810.25 1424.23,1784.42 1451.5,1764C 1485.63,1738.43 1522.63,1717.76 1562.5,1702C 1580.68,1695.79 1599.34,1693.46 1618.5,1695C 1627.82,1696.59 1636.82,1698.92 1645.5,1702C 1629.33,1682.46 1628.5,1662.3 1643,1641.5C 1652.63,1632.8 1663.8,1627.46 1676.5,1625.5 Z"/></g>
<g><path style="opacity:1" fill="#ec583b" d="M 1082.5,1630.5 C 1094.73,1635.05 1107.39,1637.72 1120.5,1638.5C 1115.36,1663.66 1111.2,1688.99 1108,1714.5C 1103.42,1753.17 1103.42,1791.84 1108,1830.5C 1109.64,1843.68 1112.14,1856.68 1115.5,1869.5C 1114,1869.83 1112.5,1870.17 1111,1870.5C 1088.98,1867.86 1067.15,1864.19 1045.5,1859.5C 1025.49,1777.91 1037.82,1701.57 1082.5,1630.5 Z"/></g>
<g><path style="opacity:1" fill="#61aaad" d="M 1996.5,1642.5 C 2000.06,1642.41 2003.39,1643.24 2006.5,1645C 2009.7,1647.87 2012.54,1651.04 2015,1654.5C 2032.3,1684.63 2049.8,1714.63 2067.5,1744.5C 2072.36,1725.77 2079.2,1707.77 2088,1690.5C 2095.06,1676.11 2105.56,1664.94 2119.5,1657C 2127.81,1653.72 2136.14,1653.72 2144.5,1657C 2155.07,1662.07 2164.41,1668.9 2172.5,1677.5C 2196.35,1660.96 2222.68,1651.29 2251.5,1648.5C 2278.02,1649.51 2293.52,1663.18 2298,1689.5C 2301.52,1714.89 2301.02,1740.22 2296.5,1765.5C 2307.9,1764.91 2318.24,1768.08 2327.5,1775C 2339.05,1785.56 2347.89,1798.06 2354,1812.5C 2361.05,1830.62 2366.38,1849.29 2370,1868.5C 2370.1,1898.33 2369.94,1928.16 2369.5,1958C 2369.45,1988.55 2370.12,2019.05 2371.5,2049.5C 2357.71,2052.22 2344.21,2055.89 2331,2060.5C 2306.37,2052.73 2281.87,2044.57 2257.5,2036C 2198.47,2018.43 2138.14,2010.76 2076.5,2013C 2031.73,2015.4 1992.4,2031.06 1958.5,2060C 1947.97,2070.53 1938.97,2082.19 1931.5,2095C 1928.74,2095.58 1926.08,2095.25 1923.5,2094C 1904.31,2068.15 1883.81,2043.32 1862,2019.5C 1867.33,1971.51 1873,1923.51 1879,1875.5C 1879.27,1872.64 1880.1,1869.97 1881.5,1867.5C 1905.42,1882.37 1929.25,1897.37 1953,1912.5C 1954.59,1850.22 1959.59,1788.22 1968,1726.5C 1971.1,1705.8 1975.77,1685.47 1982,1665.5C 1984.81,1656.53 1989.65,1648.87 1996.5,1642.5 Z"/></g>
<g><path style="opacity:1" fill="#eee0c7" d="M 1625.5,1668.5 C 1626.17,1671.17 1626.83,1673.83 1627.5,1676.5C 1627.8,1681.6 1629.13,1686.44 1631.5,1691C 1617.9,1689.94 1604.23,1689.28 1590.5,1689C 1600.37,1679.07 1612.04,1672.23 1625.5,1668.5 Z"/></g>
<g><path style="opacity:1" fill="#aa9983" d="M 1625.5,1668.5 C 1625.56,1667.96 1625.89,1667.62 1626.5,1667.5C 1627.48,1670.43 1627.82,1673.43 1627.5,1676.5C 1626.83,1673.83 1626.17,1671.17 1625.5,1668.5 Z"/></g>
<g><path style="opacity:1" fill="#ed583b" d="M 3116.5,1687.5 C 3162.78,1690.21 3206.78,1701.38 3248.5,1721C 3264.52,1729.43 3278.35,1740.6 3290,1754.5C 3297.65,1765.13 3303.15,1776.79 3306.5,1789.5C 3301.87,1811.5 3296.03,1833.17 3289,1854.5C 3274.34,1894.5 3248.18,1924.67 3210.5,1945C 3200.79,1950.36 3190.79,1954.86 3180.5,1958.5C 3187.56,1913.06 3184.4,1868.4 3171,1824.5C 3155.38,1781.89 3127.88,1749.39 3088.5,1727C 3100.02,1715.32 3109.35,1702.16 3116.5,1687.5 Z"/></g>
<g><path style="opacity:1" fill="#f2e5cb" d="M 1459.5,1701.5 C 1473.5,1701.33 1487.5,1701.5 1501.5,1702C 1512.62,1702.86 1523.62,1704.53 1534.5,1707C 1498.96,1724.25 1465.96,1745.25 1435.5,1770C 1408.23,1794.06 1389.73,1823.56 1380,1858.5C 1374.08,1886.67 1377.74,1913.34 1391,1938.5C 1404.48,1960.67 1420.98,1980.5 1440.5,1998C 1446.87,2003.51 1453.21,2009.01 1459.5,2014.5C 1455.24,2022.03 1450.74,2029.36 1446,2036.5C 1401.28,2045.98 1357.12,2043.82 1313.5,2030C 1297.21,2024.52 1281.21,2018.35 1265.5,2011.5C 1210.08,2022.61 1154.42,2024.11 1098.5,2016C 1074.93,2011.96 1054.76,2001.46 1038,1984.5C 1028.69,1971.91 1024.19,1957.74 1024.5,1942C 1025.34,1914.79 1032.84,1889.63 1047,1866.5C 1048.13,1865.06 1049.63,1864.39 1051.5,1864.5C 1072.98,1868.98 1094.65,1872.48 1116.5,1875C 1125.86,1910.07 1143.86,1939.73 1170.5,1964C 1198.78,1986.63 1231.12,1997.47 1267.5,1996.5C 1267.35,1997.55 1267.52,1998.55 1268,1999.5C 1271.85,1989.62 1275.52,1979.62 1279,1969.5C 1290.9,1928.77 1300.23,1887.44 1307,1845.5C 1309.37,1823.46 1312.04,1801.46 1315,1779.5C 1352.56,1733.64 1400.73,1707.64 1459.5,1701.5 Z"/></g>
<g><path style="opacity:1" fill="#f5c058" d="M 2412.5,1726.5 C 2418.55,1725.05 2422.05,1727.39 2423,1733.5C 2423.67,1738.5 2423.67,1743.5 2423,1748.5C 2422.19,1754.1 2420.69,1759.43 2418.5,1764.5C 2439.74,1765.05 2459.74,1770.21 2478.5,1780C 2486.08,1784.37 2492.24,1790.2 2497,1797.5C 2497.67,1800.17 2497.67,1802.83 2497,1805.5C 2495.17,1807.33 2493.33,1809.17 2491.5,1811C 2485.26,1812.74 2478.92,1814.07 2472.5,1815C 2477.66,1820.14 2479.82,1826.31 2479,1833.5C 2473.35,1838.05 2473.02,1843.05 2478,1848.5C 2497.32,1867.39 2517.49,1885.22 2538.5,1902C 2572.58,1932.36 2588.91,1970.53 2587.5,2016.5C 2589.28,2044.73 2581.78,2070.06 2565,2092.5C 2558.44,2100.27 2550.77,2106.6 2542,2111.5C 2533.47,2099.64 2522.97,2089.8 2510.5,2082C 2469.14,2056.8 2424.31,2045.64 2376,2048.5C 2373.91,1949.47 2374.91,1850.47 2379,1751.5C 2379.16,1749.32 2380,1747.49 2381.5,1746C 2391.56,1738.98 2401.89,1732.48 2412.5,1726.5 Z"/></g>
<g><path style="opacity:1" fill="#ed583b" d="M 3084.5,1730.5 C 3093.89,1734.37 3102.56,1739.53 3110.5,1746C 3154.11,1784.06 3177.28,1832.23 3180,1890.5C 3181.32,1913.99 3179.99,1937.32 3176,1960.5C 3142.83,1974.09 3108.33,1983.25 3072.5,1988C 3059.18,1990.24 3045.84,1991.41 3032.5,1991.5C 3054.56,1936.7 3059.39,1880.37 3047,1822.5C 3042.65,1801.29 3035.82,1780.96 3026.5,1761.5C 3048.13,1755.35 3067.46,1745.02 3084.5,1730.5 Z"/></g>
<g><path style="opacity:1" fill="#ec583b" d="M 2989.5,1994.5 C 2978.78,1995.14 2968.45,1994.48 2958.5,1992.5C 2977.55,1938.85 2986.55,1883.52 2985.5,1826.5C 2985.83,1805.76 2984.83,1785.09 2982.5,1764.5C 2995.28,1764.82 3007.94,1763.82 3020.5,1761.5C 3021.17,1761.83 3021.83,1762.17 3022.5,1762.5C 3056.97,1838.5 3058.8,1915.17 3028,1992.5C 3015.27,1994.05 3002.44,1994.71 2989.5,1994.5 Z"/></g>
<g><path style="opacity:1" fill="#64796d" d="M 2371.5,1823.5 C 2371.67,1831.17 2371.5,1838.84 2371,1846.5C 2370.21,1845.26 2369.71,1843.92 2369.5,1842.5C 2370.17,1836.17 2370.83,1829.83 2371.5,1823.5 Z"/></g>
<g><path style="opacity:1" fill="#955249" d="M 1544.5,1837.5 C 1556.86,1862.55 1570.03,1887.22 1584,1911.5C 1600.41,1938.93 1620.25,1963.76 1643.5,1986C 1655.78,1996.27 1669.11,2004.94 1683.5,2012C 1691.29,2014.82 1699.29,2016.82 1707.5,2018C 1677.9,2041.28 1649.73,2039.78 1623,2013.5C 1617.62,2007.12 1612.62,2000.45 1608,1993.5C 1632.38,2091.31 1667.38,2184.98 1713,2274.5C 1701.58,2257.33 1690.91,2239.66 1681,2221.5C 1650.97,2162.34 1624.31,2102.01 1601,2040.5C 1587.09,2002.26 1573.25,1963.93 1559.5,1925.5C 1511.33,2016.5 1463.17,2107.5 1415,2198.5C 1413.2,2218.48 1411.53,2238.48 1410,2258.5C 1408.94,2259.1 1407.77,2259.43 1406.5,2259.5C 1378.76,2257.69 1351.09,2255.35 1323.5,2252.5C 1381.36,2161.48 1436.19,2068.48 1488,1973.5C 1503.09,1944.65 1517.09,1915.32 1530,1885.5C 1536.56,1870 1541.39,1854 1544.5,1837.5 Z"/></g>
<g><path style="opacity:1" fill="#f7bf58" d="M 1557.5,1939.5 C 1576.39,1991.06 1595.89,2042.39 1616,2093.5C 1636.13,2142.84 1658.8,2191.17 1684,2238.5C 1694.67,2257.18 1706.34,2275.18 1719,2292.5C 1725.3,2299.8 1731.97,2306.8 1739,2313.5C 1732.56,2422.17 1725.73,2530.84 1718.5,2639.5C 1609.48,2632.52 1500.48,2625.19 1391.5,2617.5C 1400.51,2480.16 1409.68,2342.83 1419,2205.5C 1421.45,2198.61 1424.45,2191.94 1428,2185.5C 1471.45,2103.6 1514.61,2021.6 1557.5,1939.5 Z"/></g>
<g><path style="opacity:1" fill="#af583f" d="M 2958.5,1992.5 C 2968.45,1994.48 2978.78,1995.14 2989.5,1994.5C 2979.01,1995.49 2968.35,1995.83 2957.5,1995.5C 2957.26,1994.21 2957.6,1993.21 2958.5,1992.5 Z"/></g>
<g><path style="opacity:1" fill="#ed583b" d="M 1814.5,1995.5 C 1820.19,1995.67 1825.52,1997.17 1830.5,2000C 1846.22,2011.39 1860.39,2024.55 1873,2039.5C 1918.18,2094.86 1960.18,2152.53 1999,2212.5C 2024.06,2251.23 2048.73,2290.23 2073,2329.5C 2073.48,2330.45 2073.65,2331.45 2073.5,2332.5C 1963.86,2324.89 1854.19,2317.39 1744.5,2310C 1730.42,2291.23 1717.92,2271.4 1707,2250.5C 1670.87,2176.34 1642.2,2099.34 1621,2019.5C 1646.24,2042.87 1673.74,2045.7 1703.5,2028C 1707.78,2025.38 1711.78,2022.38 1715.5,2019C 1743.23,2015.25 1770.56,2009.59 1797.5,2002C 1803.46,2000.3 1809.13,1998.13 1814.5,1995.5 Z"/></g>
<g><path style="opacity:1" fill="#e8decd" d="M 1066.5,2011.5 C 1088.32,2019.97 1110.99,2024.8 1134.5,2026C 1178.19,2028.05 1221.52,2025.21 1264.5,2017.5C 1278.73,2023.08 1293.06,2028.58 1307.5,2034C 1350.58,2047.52 1394.42,2050.69 1439,2043.5C 1440.17,2043.83 1441.33,2044.17 1442.5,2044.5C 1432.33,2062.17 1422.17,2079.83 1412,2097.5C 1354.95,2115.79 1296.45,2122.96 1236.5,2119C 1190.98,2115.28 1150.31,2099.62 1114.5,2072C 1094.29,2055.04 1078.29,2034.87 1066.5,2011.5 Z"/></g>
<g><path style="opacity:1" fill="#f5c058" d="M 2076.5,2337.5 C 2079.02,2338.8 2081.69,2338.8 2084.5,2337.5C 2084.38,2336.89 2084.04,2336.56 2083.5,2336.5C 2035.16,2256.47 1983.83,2178.47 1929.5,2102.5C 1931.34,2101.77 1933.17,2101.1 1935,2100.5C 1953.56,2067.28 1980.72,2044.11 2016.5,2031C 2050.25,2019.74 2084.92,2015.41 2120.5,2018C 2162.52,2020.57 2203.85,2027.24 2244.5,2038C 2273.63,2046.99 2302.63,2056.49 2331.5,2066.5C 2369.8,2051.59 2408.8,2049.75 2448.5,2061C 2477.75,2069.13 2504.09,2082.79 2527.5,2102C 2540.77,2116.85 2547.77,2134.35 2548.5,2154.5C 2546.3,2180.6 2537.13,2203.93 2521,2224.5C 2513.98,2232.52 2506.64,2240.19 2499,2247.5C 2496.94,2249.9 2495.27,2252.57 2494,2255.5C 2493.67,2262.83 2493.33,2270.17 2493,2277.5C 2488.32,2290.83 2478.99,2298.16 2465,2299.5C 2477.94,2353.17 2464.1,2398.67 2423.5,2436C 2400.99,2452.65 2375.65,2462.31 2347.5,2465C 2335.83,2465.67 2324.17,2465.67 2312.5,2465C 2293,2465.12 2276.5,2458.28 2263,2444.5C 2257.68,2437.35 2254.52,2429.35 2253.5,2420.5C 2253.57,2418.44 2253.9,2416.44 2254.5,2414.5C 2252.89,2413.68 2251.23,2413.01 2249.5,2412.5C 2240.29,2423.23 2231.45,2422.89 2223,2411.5C 2222.06,2408.01 2220.72,2404.67 2219,2401.5C 2193.55,2440.33 2157.71,2463.16 2111.5,2470C 2080.6,2475.02 2051.6,2470.02 2024.5,2455C 2004.7,2441.9 1994.36,2423.4 1993.5,2399.5C 1986.7,2415.73 1974.7,2422.23 1957.5,2419C 1952.53,2416.93 1948.36,2413.76 1945,2409.5C 1943.92,2406.12 1943.42,2402.62 1943.5,2399C 1945.26,2375.47 1947.26,2351.97 1949.5,2328.5C 1991.79,2331.81 2034.12,2334.81 2076.5,2337.5 Z"/></g>
<g><path style="opacity:1" fill="#e8decd" d="M 2571.5,2092.5 C 2588,2103.59 2605.33,2113.42 2623.5,2122C 2664.48,2137.79 2705.81,2139.63 2747.5,2127.5C 2727.7,2155.14 2702.37,2175.97 2671.5,2190C 2634.43,2202.65 2600.76,2196.65 2570.5,2172C 2564.7,2167.2 2559.2,2162.03 2554,2156.5C 2554.07,2142.34 2550.9,2129 2544.5,2116.5C 2555.38,2110.62 2564.38,2102.62 2571.5,2092.5 Z"/></g>
<g><path style="opacity:1" fill="#705b46" d="M 1566.5,2101.5 C 1597.46,2102.62 1612.29,2118.62 1611,2149.5C 1603.85,2172.31 1588.35,2182.81 1564.5,2181C 1540.64,2174.13 1529.8,2158.3 1532,2133.5C 1537.01,2115.65 1548.51,2104.99 1566.5,2101.5 Z"/></g>
<g><path style="opacity:1" fill="#e2d5c5" d="M 1403.5,2105.5 C 1407,2105.57 1407.5,2106.9 1405,2109.5C 1389.99,2134.87 1374.49,2159.87 1358.5,2184.5C 1347.49,2177.66 1336.82,2170.33 1326.5,2162.5C 1299.66,2173.69 1271.66,2177.85 1242.5,2175C 1202.39,2169.37 1177.39,2147.2 1167.5,2108.5C 1188.15,2116.33 1209.48,2121.5 1231.5,2124C 1288.14,2128.37 1343.81,2123.04 1398.5,2108C 1400.31,2107.24 1401.98,2106.41 1403.5,2105.5 Z"/></g>
<g><path style="opacity:1" fill="#f5d9a8" d="M 1567.5,2106.5 C 1585.96,2106.64 1598.46,2115.31 1605,2132.5C 1608.32,2153.37 1600.15,2167.54 1580.5,2175C 1557.3,2177.98 1542.8,2168.15 1537,2145.5C 1536.91,2124.43 1547.08,2111.43 1567.5,2106.5 Z"/></g>
<g><path style="opacity:0.932" fill="#6e5844" d="M 2882.5,2148.5 C 2910.66,2167.64 2938.33,2187.64 2965.5,2208.5C 2904.19,2284.31 2842.69,2359.98 2781,2435.5C 2779.87,2437.21 2778.37,2437.71 2776.5,2437C 2767.97,2428.14 2759.14,2419.64 2750,2411.5C 2749.33,2410.5 2749.33,2409.5 2750,2408.5C 2794.45,2321.94 2838.61,2235.27 2882.5,2148.5 Z"/></g>
<g><path style="opacity:1" fill="#ed583b" d="M 2884.5,2156.5 C 2885.92,2156.71 2887.26,2157.21 2888.5,2158C 2911.5,2175.17 2934.5,2192.33 2957.5,2209.5C 2897.97,2283.24 2837.97,2356.57 2777.5,2429.5C 2770.32,2422.48 2762.98,2415.65 2755.5,2409C 2798.91,2325.01 2841.91,2240.85 2884.5,2156.5 Z"/></g>
<g><path style="opacity:1" fill="#e1d4c5" d="M 2553.5,2164.5 C 2569.47,2180.32 2588.14,2191.82 2609.5,2199C 2624.02,2202.61 2638.69,2203.28 2653.5,2201C 2659.17,2199.27 2664.84,2197.94 2670.5,2197C 2654.72,2218.56 2634.05,2233.22 2608.5,2241C 2583.92,2245.08 2562.58,2238.58 2544.5,2221.5C 2537.43,2225.54 2530.1,2228.71 2522.5,2231C 2539.16,2211.85 2549.49,2189.68 2553.5,2164.5 Z"/></g>
<g><path style="opacity:1" fill="#705b46" d="M 1503.5,2212.5 C 1525.27,2209.29 1540.44,2217.63 1549,2237.5C 1553.52,2259.3 1545.68,2274.8 1525.5,2284C 1504.38,2288.75 1488.88,2281.58 1479,2262.5C 1473.08,2238.67 1481.25,2222 1503.5,2212.5 Z"/></g>
<g><path style="opacity:1" fill="#f5d9a8" d="M 1509.5,2217.5 C 1526.58,2216.79 1538.08,2224.46 1544,2240.5C 1547.39,2259.21 1540.23,2272.05 1522.5,2279C 1503.15,2282.24 1489.98,2274.74 1483,2256.5C 1480.44,2235.6 1489.27,2222.6 1509.5,2217.5 Z"/></g>
<g><path style="opacity:1" fill="#f5c058" d="M 2181.5,2531.5 C 2182.98,2531.76 2184.31,2531.43 2185.5,2530.5C 2183.6,2529.53 2181.6,2529.2 2179.5,2529.5C 2155,2532.5 2144.5,2521.83 2148,2497.5C 2149.83,2490.18 2152.49,2483.18 2156,2476.5C 2157.8,2471.64 2159.13,2466.64 2160,2461.5C 2182.99,2450.43 2202.15,2434.77 2217.5,2414.5C 2225.46,2425.65 2235.62,2428.32 2248,2422.5C 2251.87,2444.38 2264.37,2458.88 2285.5,2466C 2330.3,2476.76 2372.97,2471.42 2413.5,2450C 2464.27,2413.86 2483.6,2365.03 2471.5,2303.5C 2474.29,2303.78 2476.79,2303.11 2479,2301.5C 2508.54,2322.7 2534.54,2347.7 2557,2376.5C 2583.92,2413.1 2593.25,2453.77 2585,2498.5C 2579.59,2521.17 2567.75,2539.67 2549.5,2554C 2558.94,2557.97 2563.28,2565.14 2562.5,2575.5C 2561.15,2589.7 2553.81,2599.53 2540.5,2605C 2535.49,2606.67 2530.49,2608.34 2525.5,2610C 2513.8,2611.42 2502.13,2613.09 2490.5,2615C 2496.44,2616.59 2502.44,2617.92 2508.5,2619C 2516.39,2625.39 2518.22,2633.22 2514,2642.5C 2492.49,2678.66 2460.66,2697.16 2418.5,2698C 2406.24,2697.14 2395.07,2693.3 2385,2686.5C 2385.85,2690.87 2387.18,2695.2 2389,2699.5C 2391.64,2711.25 2388.47,2721.08 2379.5,2729C 2362.62,2735.44 2354.96,2729.77 2356.5,2712C 2355.46,2710.73 2354.3,2709.56 2353,2708.5C 2333.65,2730.42 2309.48,2743.26 2280.5,2747C 2244.01,2751.32 2209.01,2745.99 2175.5,2731C 2143.28,2714.76 2123.45,2688.92 2116,2653.5C 2109.72,2625.16 2111.06,2597.16 2120,2569.5C 2131.88,2543.15 2152.38,2530.49 2181.5,2531.5 Z"/></g>
<g><path style="opacity:0.928" fill="#6e5844" d="M 2988.5,2308.5 C 2990.02,2308.51 2991.18,2309.18 2992,2310.5C 3008,2329.17 3024,2347.83 3040,2366.5C 3040.75,2367.64 3040.58,2368.64 3039.5,2369.5C 2976.64,2415.53 2913.64,2461.36 2850.5,2507C 2849.5,2507.67 2848.5,2507.67 2847.5,2507C 2841.33,2500.83 2835.17,2494.67 2829,2488.5C 2828.33,2487.5 2828.33,2486.5 2829,2485.5C 2882.64,2426.85 2935.81,2367.85 2988.5,2308.5 Z"/></g>
<g><path style="opacity:1" fill="#f5a93a" d="M 1744.5,2315.5 C 1810.92,2319.28 1877.25,2323.95 1943.5,2329.5C 1935.66,2430.42 1928.66,2531.42 1922.5,2632.5C 1856.16,2634.71 1789.83,2637.04 1723.5,2639.5C 1730.59,2531.5 1737.59,2423.5 1744.5,2315.5 Z"/></g>
<g><path style="opacity:1" fill="#ed583b" d="M 2988.5,2316.5 C 3003.86,2332.87 3018.53,2349.87 3032.5,2367.5C 2972.36,2411.14 2912.36,2454.97 2852.5,2499C 2851.24,2499.98 2849.91,2500.32 2848.5,2500C 2844.17,2495.67 2839.83,2491.33 2835.5,2487C 2836.7,2486.1 2837.53,2484.93 2838,2483.5C 2888.37,2427.96 2938.54,2372.3 2988.5,2316.5 Z"/></g>
<g><path style="opacity:1" fill="#b18d4e" d="M 2083.5,2336.5 C 2084.04,2336.56 2084.38,2336.89 2084.5,2337.5C 2081.69,2338.8 2079.02,2338.8 2076.5,2337.5C 2079.06,2337.8 2081.39,2337.47 2083.5,2336.5 Z"/></g>
<g><path style="opacity:1" fill="#705b46" d="M 1523.5,2359.5 C 1559.85,2362.91 1596.18,2366.58 1632.5,2370.5C 1625.08,2432.86 1617.41,2495.2 1609.5,2557.5C 1579.18,2558 1548.84,2558 1518.5,2557.5C 1520,2491.49 1521.67,2425.49 1523.5,2359.5 Z"/></g>
<g><path style="opacity:1" fill="#f6daa8" d="M 1528.5,2364.5 C 1561.16,2368.5 1593.83,2372.5 1626.5,2376.5C 1619.17,2435.13 1612.01,2493.79 1605,2552.5C 1599.24,2553.16 1593.41,2553.49 1587.5,2553.5C 1567.17,2552.92 1546.84,2552.42 1526.5,2552C 1525.18,2542.56 1524.51,2532.9 1524.5,2523C 1525.52,2470.15 1526.85,2417.32 1528.5,2364.5 Z"/></g>
<g><path style="opacity:1" fill="#57a39f" d="M 1211.5,2373.5 C 1249.51,2373.79 1285.84,2381.62 1320.5,2397C 1332.11,2401.8 1343.11,2407.63 1353.5,2414.5C 1323.87,2436.9 1297.37,2462.57 1274,2491.5C 1259.69,2510.15 1249.36,2530.82 1243,2553.5C 1241.95,2560.64 1241.11,2567.81 1240.5,2575C 1241.37,2581.84 1241.87,2588.67 1242,2595.5C 1161.17,2680.33 1080.33,2765.17 999.5,2850C 1055.8,2854.3 1112.14,2858.13 1168.5,2861.5C 1164.2,2923.84 1159.7,2986.18 1155,3048.5C 1144.5,3057.67 1134.67,3067.5 1125.5,3078C 1122.58,3078.55 1119.91,3077.88 1117.5,3076C 1108.21,3067.92 1102.71,3057.76 1101,3045.5C 1100.31,3062.52 1092.15,3074.35 1076.5,3081C 1071.36,3083.38 1066.02,3085.38 1060.5,3087C 1019.66,3098.09 978.994,3109.75 938.5,3122C 922.82,3126.63 906.82,3128.63 890.5,3128C 865.752,3123.87 842.418,3115.87 820.5,3104C 796.904,3091.74 777.737,3074.57 763,3052.5C 752.512,3033.61 749.512,3013.61 754,2992.5C 761.159,2967.01 771.992,2943.18 786.5,2921C 781.563,2921.31 776.563,2921.81 771.5,2922.5C 764.5,2922.49 758.167,2920.49 752.5,2916.5C 748.327,2912.46 747.493,2907.79 750,2902.5C 751.333,2900.5 752.667,2898.5 754,2896.5C 760.855,2890.73 767.522,2884.73 774,2878.5C 777.466,2873.95 778.966,2868.95 778.5,2863.5C 733.366,2840.53 702.199,2805.2 685,2757.5C 662.861,2684.01 670.195,2613.68 707,2546.5C 725.879,2517.81 750.046,2494.65 779.5,2477C 854.489,2431.67 935.822,2405.34 1023.5,2398C 1047.59,2396.87 1071.59,2397.87 1095.5,2401C 1120.05,2405.22 1144.72,2408.22 1169.5,2410C 1171.33,2409.73 1172.83,2408.89 1174,2407.5C 1174.54,2393.24 1181.37,2383.41 1194.5,2378C 1200.31,2376.55 1205.98,2375.05 1211.5,2373.5 Z"/></g>
<g><path style="opacity:1" fill="#a48b62" d="M 1399.5,2388.5 C 1400.38,2388.37 1401.04,2388.7 1401.5,2389.5C 1395.81,2467.12 1390.48,2544.79 1385.5,2622.5C 1388.52,2622.34 1391.52,2622.5 1394.5,2623C 1396.55,2623.93 1398.05,2625.43 1399,2627.5C 1426.19,2676.88 1449.86,2727.88 1470,2780.5C 1477.22,2800.06 1482.89,2820.06 1487,2840.5C 1489.33,2854.62 1489,2868.62 1486,2882.5C 1473.38,2899.45 1460.38,2916.12 1447,2932.5C 1451.37,2878.62 1437.37,2830.29 1405,2787.5C 1398.67,2779.5 1392.33,2771.5 1386,2763.5C 1358.36,2734.2 1330.36,2705.2 1302,2676.5C 1286.3,2659.43 1272.3,2641.09 1260,2621.5C 1244.65,2595.35 1242.31,2568.01 1253,2539.5C 1262.74,2517 1275.74,2496.66 1292,2478.5C 1324.46,2444.18 1360.3,2414.18 1399.5,2388.5 Z"/></g>
<g><path style="opacity:1" fill="#c58f5f" d="M 1942.5,2415.5 C 1953.1,2425.8 1965.43,2428.3 1979.5,2423C 1983.28,2420.89 1986.78,2418.39 1990,2415.5C 1997.97,2442.8 2015.47,2460.97 2042.5,2470C 2079.59,2480.13 2116.09,2478.29 2152,2464.5C 2152.5,2464.83 2153,2465.17 2153.5,2465.5C 2150.3,2474.99 2146.8,2484.32 2143,2493.5C 2139.32,2507.29 2142.16,2519.46 2151.5,2530C 2128.26,2540.92 2114.43,2559.09 2110,2584.5C 2104.55,2615.39 2106.88,2645.72 2117,2675.5C 2119.81,2682.45 2123.14,2689.11 2127,2695.5C 2128.46,2729.34 2136.79,2761.34 2152,2791.5C 2163.17,2810.67 2178.33,2825.83 2197.5,2837C 2248.23,2854.77 2276.4,2890.6 2282,2944.5C 2282.67,2951.83 2282.67,2959.17 2282,2966.5C 2276.61,2969.7 2270.94,2972.36 2265,2974.5C 2260.29,2957.42 2253.63,2941.08 2245,2925.5C 2221.71,2887.18 2188.54,2874.68 2145.5,2888C 2125.15,2895.69 2106.82,2906.69 2090.5,2921C 2079.64,2931.53 2069.14,2942.36 2059,2953.5C 2040.04,2977.46 2020.71,3001.12 2001,3024.5C 1971.56,3057.62 1937.73,3085.12 1899.5,3107C 1896.69,3108.74 1893.69,3109.91 1890.5,3110.5C 1884.33,3150.55 1877.83,3190.55 1871,3230.5C 1820.35,3173.53 1772.35,3114.53 1727,3053.5C 1717.5,3039.84 1708.5,3025.84 1700,3011.5C 1687.02,2996.01 1670.35,2988.34 1650,2988.5C 1626.87,2989.85 1605.37,2996.35 1585.5,3008C 1525.1,3044.74 1485.6,3097.24 1467,3165.5C 1452.54,3232.52 1464.04,3294.68 1501.5,3352C 1453.75,3362.77 1419.58,3390.27 1399,3434.5C 1398.19,3436.44 1397.69,3438.44 1397.5,3440.5C 1377.1,3435.98 1356.93,3436.64 1337,3442.5C 1328.44,3428.41 1317.77,3416.07 1305,3405.5C 1302.71,3346.88 1311.38,3289.88 1331,3234.5C 1360,3155.13 1400.34,3082.46 1452,3016.5C 1506.07,2947.1 1568.57,2886.6 1639.5,2835C 1665.07,2817.38 1692.07,2802.04 1720.5,2789C 1745.13,2780.79 1769.46,2771.79 1793.5,2762C 1818.36,2751.46 1839.53,2735.96 1857,2715.5C 1874.09,2692.38 1877.59,2667.38 1867.5,2640.5C 1869.08,2639.7 1870.74,2639.2 1872.5,2639C 1890.87,2638.42 1909.2,2637.59 1927.5,2636.5C 1932.37,2562.82 1937.37,2489.15 1942.5,2415.5 Z"/></g>
<g><path style="opacity:1" fill="#6d5844" d="M 1841.5,2451.5 C 1846.5,2451.5 1851.5,2451.5 1856.5,2451.5C 1854.66,2477.49 1852.99,2503.49 1851.5,2529.5C 1835.27,2528.45 1819.1,2527.12 1803,2525.5C 1802.42,2501.49 1802.76,2477.49 1804,2453.5C 1816.6,2452.84 1829.1,2452.18 1841.5,2451.5 Z"/></g>
<g><path style="opacity:1" fill="#a9864d" d="M 1841.5,2457.5 C 1844.62,2456.52 1847.96,2456.19 1851.5,2456.5C 1851.74,2457.79 1851.4,2458.79 1850.5,2459.5C 1848.01,2457.61 1845.01,2456.95 1841.5,2457.5 Z"/></g>
<g><path style="opacity:1" fill="#f4bf58" d="M 1841.5,2457.5 C 1845.01,2456.95 1848.01,2457.61 1850.5,2459.5C 1849.56,2480.86 1848.23,2502.2 1846.5,2523.5C 1834.82,2523.1 1823.15,2522.43 1811.5,2521.5C 1810.79,2520.6 1809.79,2520.26 1808.5,2520.5C 1808.5,2507.5 1808.5,2494.5 1808.5,2481.5C 1808.5,2473.5 1808.5,2465.5 1808.5,2457.5C 1819.5,2457.5 1830.5,2457.5 1841.5,2457.5 Z"/></g>
<g><path style="opacity:0.938" fill="#6e5844" d="M 3089.5,2471.5 C 3090.5,2471.5 3091.5,2471.5 3092.5,2471.5C 3093.59,2493.34 3094.92,2515.18 3096.5,2537C 3096.47,2539.42 3096.14,2541.76 3095.5,2544C 3023.79,2560.68 2952.12,2577.51 2880.5,2594.5C 2875.46,2585.04 2870.79,2575.37 2866.5,2565.5C 2940.92,2534.14 3015.26,2502.81 3089.5,2471.5 Z"/></g>
<g><path style="opacity:1" fill="#ec583b" d="M 3086.5,2478.5 C 3088.86,2498.62 3090.53,2518.96 3091.5,2539.5C 3022.17,2555.83 2952.83,2572.17 2883.5,2588.5C 2879.98,2581.93 2876.64,2575.26 2873.5,2568.5C 2944.57,2538.48 3015.57,2508.48 3086.5,2478.5 Z"/></g>
<g><path style="opacity:1" fill="#b18c4e" d="M 1808.5,2481.5 C 1808.5,2494.5 1808.5,2507.5 1808.5,2520.5C 1809.79,2520.26 1810.79,2520.6 1811.5,2521.5C 1810.17,2521.5 1808.83,2521.5 1807.5,2521.5C 1807.17,2507.99 1807.5,2494.66 1808.5,2481.5 Z"/></g>
<g><path style="opacity:1" fill="#61aaad" d="M 2804.5,2528.5 C 2805.73,2529.15 2806.39,2530.32 2806.5,2532C 2802.63,2556.29 2794.79,2579.13 2783,2600.5C 2763.52,2634.66 2740.19,2665.99 2713,2694.5C 2663.12,2744.41 2608.62,2788.24 2549.5,2826C 2466.08,2878.3 2379.24,2924.46 2289,2964.5C 2288.65,2929.45 2278.32,2897.78 2258,2869.5C 2241.88,2851.72 2222.38,2839.22 2199.5,2832C 2173.88,2816.05 2156.05,2793.89 2146,2765.5C 2139.06,2746.04 2135.06,2726.04 2134,2705.5C 2146.37,2720.44 2161.54,2731.6 2179.5,2739C 2221.68,2755.49 2264.68,2757.82 2308.5,2746C 2323.8,2740.36 2337.3,2731.86 2349,2720.5C 2357.2,2739.01 2369.7,2742.51 2386.5,2731C 2394.22,2721.14 2397.05,2709.97 2395,2697.5C 2397.47,2699.44 2400.3,2700.6 2403.5,2701C 2435.33,2706.57 2464,2699.57 2489.5,2680C 2502.4,2669.69 2512.57,2657.19 2520,2642.5C 2522.79,2633.34 2521.29,2625.01 2515.5,2617.5C 2526.58,2615.56 2537.25,2612.4 2547.5,2608C 2554.14,2604.35 2559.48,2599.35 2563.5,2593C 2639.61,2590.99 2711.94,2573.99 2780.5,2542C 2788.72,2537.73 2796.72,2533.23 2804.5,2528.5 Z"/></g>
<g><path style="opacity:1" fill="#ab884e" d="M 2179.5,2529.5 C 2181.6,2529.2 2183.6,2529.53 2185.5,2530.5C 2184.31,2531.43 2182.98,2531.76 2181.5,2531.5C 2180.83,2530.83 2180.17,2530.17 2179.5,2529.5 Z"/></g>
<g><path style="opacity:1" fill="#5a9d98" d="M 1959.5,3096.5 C 1958.83,3096.5 1958.17,3096.5 1957.5,3096.5C 2071.39,3058.98 2183.06,3016.48 2292.5,2969C 2382.05,2929.56 2468.05,2883.9 2550.5,2832C 2601.64,2799.21 2649.64,2762.21 2694.5,2721C 2728.34,2688.74 2757.5,2652.91 2782,2613.5C 2794.54,2592.55 2803.54,2570.22 2809,2546.5C 2835.66,2703.14 2897.32,2844.47 2994,2970.5C 2992.77,3004.67 2990.43,3038.67 2987,3072.5C 2924.32,2959.14 2861.16,2846.14 2797.5,2733.5C 2783.73,2757.12 2766.73,2778.29 2746.5,2797C 2708.78,2829.37 2667.78,2857.03 2623.5,2880C 2555.46,2914.53 2485.79,2944.53 2414.5,2970C 2265.7,3021.95 2114.03,3064.12 1959.5,3096.5 Z"/></g>
<g><path style="opacity:1" fill="#f3985a" d="M 1243.5,2601.5 C 1244.5,2601.47 1245.16,2601.97 1245.5,2603C 1248.06,2610.95 1251.56,2618.45 1256,2625.5C 1262.56,2635.37 1269.06,2645.21 1275.5,2655C 1257.75,2723.17 1239.92,2791.34 1222,2859.5C 1151.89,2855.79 1081.72,2851.13 1011.5,2845.5C 1089.22,2764.45 1166.55,2683.12 1243.5,2601.5 Z"/></g>
<g><path style="opacity:1" fill="#f59b58" d="M 1403.5,2623.5 C 1504.48,2630.44 1605.48,2637.28 1706.5,2644C 1728.59,2644.51 1750.59,2644.17 1772.5,2643C 1729.04,2676.03 1688.87,2712.86 1652,2753.5C 1636.17,2771.81 1622.84,2791.81 1612,2813.5C 1606.64,2826.61 1603.98,2840.28 1604,2854.5C 1522.45,2920.03 1453.78,2996.7 1398,3084.5C 1393.53,3071.16 1392.53,3057.49 1395,3043.5C 1400.27,3018.3 1409.93,2994.97 1424,2973.5C 1444.12,2944.93 1465.46,2917.26 1488,2890.5C 1492.61,2881.76 1494.77,2872.42 1494.5,2862.5C 1493.25,2841.66 1489.42,2821.33 1483,2801.5C 1472.71,2771.26 1461.05,2741.6 1448,2712.5C 1433.68,2682.53 1418.85,2652.87 1403.5,2623.5 Z"/></g>
<g><path style="opacity:1" fill="#d19351" d="M 1859.5,2639.5 C 1861.61,2640.91 1863.11,2642.91 1864,2645.5C 1870.91,2667.49 1868.24,2688.16 1856,2707.5C 1839.27,2728.89 1818.43,2745.06 1793.5,2756C 1770.43,2766.03 1746.76,2774.69 1722.5,2782C 1682.41,2800.2 1645.08,2822.7 1610.5,2849.5C 1609.57,2845.17 1609.73,2840.84 1611,2836.5C 1613.43,2823.64 1618.09,2811.64 1625,2800.5C 1645.74,2768.41 1670.24,2739.24 1698.5,2713C 1725.38,2687.78 1753.71,2664.44 1783.5,2643C 1808.98,2641.5 1834.31,2640.33 1859.5,2639.5 Z"/></g>
<g><path style="opacity:0.945" fill="#6d5844" d="M 3062.5,2645.5 C 3066.55,2645.18 3070.55,2645.51 3074.5,2646.5C 3071.21,2662.95 3067.54,2679.28 3063.5,2695.5C 3015.9,2691.55 2968.23,2688.22 2920.5,2685.5C 2919.44,2676.97 2918.11,2668.47 2916.5,2660C 2916.75,2658.67 2917.42,2657.67 2918.5,2657C 2966.68,2653.54 3014.68,2649.7 3062.5,2645.5 Z"/></g>
<g><path style="opacity:1" fill="#eb583b" d="M 3063.5,2650.5 C 3064.83,2650.5 3066.17,2650.5 3067.5,2650.5C 3065.49,2663.56 3063.16,2676.56 3060.5,2689.5C 3015.45,2686.79 2970.45,2683.45 2925.5,2679.5C 2923.98,2673.59 2922.98,2667.59 2922.5,2661.5C 2969.69,2658.38 3016.69,2654.72 3063.5,2650.5 Z"/></g>
<g><path style="opacity:1" fill="#5a9d98" d="M 1279.5,2659.5 C 1310.37,2693.54 1342.21,2726.88 1375,2759.5C 1399.28,2785.7 1418.28,2815.37 1432,2848.5C 1442.44,2878.12 1445.1,2908.46 1440,2939.5C 1431.35,2952.8 1422.68,2966.13 1414,2979.5C 1398.87,3003.88 1390.37,3030.38 1388.5,3059C 1388.58,3069.93 1390.24,3080.6 1393.5,3091C 1389.34,3098.98 1384.68,3106.65 1379.5,3114C 1359.81,3124.76 1339.15,3133.09 1317.5,3139C 1263.72,3152.55 1209.05,3158.38 1153.5,3156.5C 1159.93,3059.17 1166.43,2961.83 1173,2864.5C 1175.04,2863.25 1177.37,2862.58 1180,2862.5C 1195.49,2863.66 1210.99,2864.66 1226.5,2865.5C 1244.48,2796.9 1262.15,2728.24 1279.5,2659.5 Z"/></g>
<g><path style="opacity:1" fill="#f5a93a" d="M 2796.5,2744.5 C 2798.07,2744.94 2799.24,2745.94 2800,2747.5C 2860.91,2857.66 2922.08,2967.66 2983.5,3077.5C 2982.83,3077.83 2982.17,3078.17 2981.5,3078.5C 2800.48,3041.19 2619.48,3004.02 2438.5,2967C 2520.07,2937.75 2598.74,2901.08 2674.5,2857C 2712.51,2834.05 2746.67,2806.22 2777,2773.5C 2784.51,2764.47 2791.01,2754.8 2796.5,2744.5 Z"/></g>
<g><path style="opacity:1" fill="#f2e5cb" d="M 2871.5,2745.5 C 2922.7,2748.18 2970.03,2763.01 3013.5,2790C 3067.39,2825.89 3111.05,2871.55 3144.5,2927C 3198.21,2924.77 3250.21,2932.77 3300.5,2951C 3357.06,2973.56 3398.89,3012.06 3426,3066.5C 3448.68,3118.35 3450.02,3170.69 3430,3223.5C 3405.84,3274.93 3365.18,3300.93 3308,3301.5C 3273.24,3299.58 3241.41,3289.08 3212.5,3270C 3179.62,3246.79 3151.79,3218.62 3129,3185.5C 3117,3168.17 3106,3150.17 3096,3131.5C 3079.8,3171.69 3052.97,3202.52 3015.5,3224C 3004.77,3228.93 2993.77,3233.1 2982.5,3236.5C 2985.25,3186.47 2988.41,3136.47 2992,3086.5C 2992.92,3086.07 2993.75,3085.74 2994.5,3085.5C 2993.03,3082.88 2992.36,3080.04 2992.5,3077C 2996.08,3040.57 2998.25,3004.07 2999,2967.5C 2945.98,2899.83 2903.48,2825.83 2871.5,2745.5 Z"/></g>
<g><path style="opacity:1" fill="#6f5a45" d="M 1295.5,2835.5 C 1300.73,2835.3 1305.39,2836.8 1309.5,2840C 1315.41,2848.31 1319.24,2857.48 1321,2867.5C 1325.79,2899.51 1323.13,2930.84 1313,2961.5C 1310.1,2967.41 1306.76,2973.07 1303,2978.5C 1295.55,2985.73 1287.88,2986.07 1280,2979.5C 1272.75,2968.63 1268.75,2956.63 1268,2943.5C 1264.78,2914.47 1267.78,2886.14 1277,2858.5C 1280.5,2848.52 1286.67,2840.85 1295.5,2835.5 Z"/></g>
<g><path style="opacity:1" fill="#f3b230" d="M 1297.5,2840.5 C 1300.69,2840.76 1303.36,2842.1 1305.5,2844.5C 1308.18,2847.87 1310.35,2851.54 1312,2855.5C 1321.41,2890.24 1320.08,2924.58 1308,2958.5C 1305.36,2966.27 1300.86,2972.77 1294.5,2978C 1292.17,2978.67 1289.83,2978.67 1287.5,2978C 1281.07,2971.38 1276.9,2963.54 1275,2954.5C 1269.37,2924.77 1271.04,2895.44 1280,2866.5C 1283.15,2855.82 1288.98,2847.16 1297.5,2840.5 Z"/></g>
<g><path style="opacity:1" fill="#5a9d98" d="M 2171.5,2887.5 C 2188.63,2886.88 2203.96,2891.72 2217.5,2902C 2239.3,2922.6 2253.3,2947.6 2259.5,2977C 2149.1,3024.37 2036.1,3065.7 1920.5,3101C 1957.33,3076.85 1989.83,3047.68 2018,3013.5C 2033.09,2994.32 2048.43,2975.32 2064,2956.5C 2078.61,2939.56 2094.77,2924.39 2112.5,2911C 2130.51,2898.76 2150.18,2890.93 2171.5,2887.5 Z"/></g>
<g><path style="opacity:1" fill="#6e5a46" d="M 1342.5,2949.5 C 1348.08,2948.52 1352.92,2949.86 1357,2953.5C 1361.97,2961.06 1364.97,2969.39 1366,2978.5C 1368.24,3001.29 1366.24,3023.62 1360,3045.5C 1357.23,3053.9 1352.4,3060.74 1345.5,3066C 1341.14,3067.07 1337.14,3066.41 1333.5,3064C 1328.55,3058.38 1325.38,3051.88 1324,3044.5C 1320.07,3020.93 1321.07,2997.6 1327,2974.5C 1329.66,2964.5 1334.83,2956.16 1342.5,2949.5 Z"/></g>
<g><path style="opacity:1" fill="#f3b130" d="M 1345.5,2954.5 C 1349.49,2954.24 1352.33,2955.91 1354,2959.5C 1356.76,2964.88 1358.76,2970.55 1360,2976.5C 1363.53,3000.04 1361.53,3023.04 1354,3045.5C 1351.96,3051.07 1348.8,3055.9 1344.5,3060C 1341.33,3060.98 1338.5,3060.48 1336,3058.5C 1330.87,3049.19 1327.87,3039.19 1327,3028.5C 1325.85,3007.96 1328.52,2987.96 1335,2968.5C 1337.32,2962.83 1340.82,2958.16 1345.5,2954.5 Z"/></g>
<g><path style="opacity:1" fill="#f7bf58" d="M 2425.5,2971.5 C 2430.2,2971.67 2434.86,2972.17 2439.5,2973C 2459.27,2977.55 2479.1,2981.72 2499,2985.5C 2495.44,3052.45 2492.27,3119.45 2489.5,3186.5C 2456.39,3182.58 2423.39,3177.91 2390.5,3172.5C 2383.72,3111.8 2376.72,3051.13 2369.5,2990.5C 2388.44,2984.68 2407.11,2978.35 2425.5,2971.5 Z"/></g>
<g><path style="opacity:1" fill="#f5c058" d="M 2504.5,2986.5 C 2553.14,2996.63 2601.8,3006.63 2650.5,3016.5C 2645.74,3057.74 2641.58,3099.07 2638,3140.5C 2637.25,3144.85 2636.41,3149.19 2635.5,3153.5C 2589.56,3149.07 2543.56,3145.07 2497.5,3141.5C 2499.17,3089.8 2501.5,3038.13 2504.5,2986.5 Z"/></g>
<g><path style="opacity:1" fill="#f5b135" d="M 2360.5,2993.5 C 2361.83,2993.5 2363.17,2993.5 2364.5,2993.5C 2386.33,3184.91 2408.66,3376.24 2431.5,3567.5C 2395.96,3562.49 2362.96,3550.66 2332.5,3532C 2256.88,3475.36 2173.88,3432.69 2083.5,3404C 2038.8,3390.08 1993.13,3380.41 1946.5,3375C 1929.17,3374.33 1911.83,3374.33 1894.5,3375C 1880.31,3376.58 1866.64,3380.08 1853.5,3385.5C 1853.17,3384.33 1852.83,3383.17 1852.5,3382C 1866.79,3293.13 1881.12,3204.29 1895.5,3115.5C 1921.98,3110.55 1948.31,3105.22 1974.5,3099.5C 1979.22,3141.16 1983.89,3182.83 1988.5,3224.5C 2022.08,3225.03 2049.91,3212.7 2072,3187.5C 2091.28,3162.94 2105.28,3135.61 2114,3105.5C 2117.61,3091.5 2121.11,3077.5 2124.5,3063.5C 2190.93,3046.12 2256.93,3027.28 2322.5,3007C 2335.3,3002.57 2347.97,2998.07 2360.5,2993.5 Z"/></g>
<g><path style="opacity:1" fill="#d76e51" d="M 1636.5,2994.5 C 1660.47,2990.43 1680.3,2997.43 1696,3015.5C 1717.06,3049.55 1740.06,3082.22 1765,3113.5C 1798.54,3155.38 1833.21,3196.38 1869,3236.5C 1869.41,3241.53 1869.08,3246.53 1868,3251.5C 1858.93,3306.15 1849.93,3360.81 1841,3415.5C 1777.94,3389.2 1712.78,3369.03 1645.5,3355C 1624.92,3351.68 1604.26,3349.01 1583.5,3347C 1571.17,3346.33 1558.83,3346.33 1546.5,3347C 1533.11,3347.89 1519.78,3348.89 1506.5,3350C 1460.97,3280.32 1453.8,3206.82 1485,3129.5C 1507.5,3079.33 1542.34,3040.16 1589.5,3012C 1604.46,3003.83 1620.13,2998 1636.5,2994.5 Z"/></g>
<g><path style="opacity:1" fill="#f5c058" d="M 2655.5,3017.5 C 2704.11,3027.54 2752.78,3037.21 2801.5,3046.5C 2797,3086.53 2792.33,3126.53 2787.5,3166.5C 2739.14,3162.27 2690.81,3157.94 2642.5,3153.5C 2646.97,3108.18 2651.3,3062.85 2655.5,3017.5 Z"/></g>
<g><path style="opacity:1" fill="#f5a93a" d="M 2679.5,3307.5 C 2695.33,3308.17 2711.33,3308.5 2727.5,3308.5C 2743.85,3308.5 2759.85,3307.83 2775.5,3306.5C 2786.33,3220.56 2796.66,3134.56 2806.5,3048.5C 2866.6,3060.12 2926.6,3072.12 2986.5,3084.5C 2977.73,3216.17 2968.9,3347.84 2960,3479.5C 2959.68,3481.06 2958.85,3482.23 2957.5,3483C 2871.38,3500.86 2784.38,3512.19 2696.5,3517C 2667.05,3518.32 2637.71,3516.99 2608.5,3513C 2590.68,3510.28 2573.68,3504.95 2557.5,3497C 2552.08,3493.58 2547.24,3489.41 2543,3484.5C 2532.07,3460.46 2516.23,3440.29 2495.5,3424C 2472.2,3408.24 2446.53,3401.41 2418.5,3403.5C 2408.92,3329.08 2399.92,3254.58 2391.5,3180C 2391.83,3179.5 2392.17,3179 2392.5,3178.5C 2424.54,3182.89 2456.54,3187.55 2488.5,3192.5C 2487.37,3230.52 2485.7,3268.52 2483.5,3306.5C 2548.83,3307.41 2614.16,3307.74 2679.5,3307.5 Z"/></g>
<g><path style="opacity:1" fill="#e0a059" d="M 1153.5,3056.5 C 1154.16,3058.98 1154.5,3061.64 1154.5,3064.5C 1152.26,3092.98 1150.26,3121.48 1148.5,3150C 1148.54,3153.93 1149.21,3157.6 1150.5,3161C 1206.68,3163.92 1262.01,3158.58 1316.5,3145C 1336.35,3139.96 1355.35,3132.79 1373.5,3123.5C 1369.62,3133.61 1364.78,3143.61 1359,3153.5C 1331.95,3207.99 1313.28,3265.33 1303,3325.5C 1300.15,3350.55 1298.65,3375.55 1298.5,3400.5C 1266.7,3379.43 1231.7,3371.27 1193.5,3376C 1186.81,3377.24 1180.14,3378.24 1173.5,3379C 1135.65,3342.56 1092.32,3314.4 1043.5,3294.5C 1042.31,3266.91 1045.81,3239.91 1054,3213.5C 1073.93,3152.74 1107.1,3100.41 1153.5,3056.5 Z"/></g>
<g><path style="opacity:1" fill="#f5c058" d="M 2001.5,3218.5 C 1998.47,3218.87 1995.8,3218.2 1993.5,3216.5C 1989.08,3176.81 1984.41,3137.14 1979.5,3097.5C 2025.58,3087.31 2071.58,3076.81 2117.5,3066C 2111.27,3106.71 2096.44,3143.87 2073,3177.5C 2058.72,3195.89 2040.55,3208.72 2018.5,3216C 2012.95,3217.68 2007.28,3218.51 2001.5,3218.5 Z"/></g>
<g><path style="opacity:1" fill="#647c70" d="M 1957.5,3096.5 C 1958.17,3096.5 1958.83,3096.5 1959.5,3096.5C 1955.42,3098.28 1951.09,3099.11 1946.5,3099C 1950.01,3097.44 1953.68,3096.6 1957.5,3096.5 Z"/></g>
<g><path style="opacity:1" fill="#e8decd" d="M 3095.5,3143.5 C 3096.5,3143.41 3097.33,3143.75 3098,3144.5C 3121.4,3189.43 3152.57,3228.26 3191.5,3261C 3218.41,3282.62 3248.75,3296.96 3282.5,3304C 3295.81,3305.38 3309.14,3305.71 3322.5,3305C 3334.65,3303.5 3346.65,3301.5 3358.5,3299C 3340.68,3323.16 3318.34,3341.83 3291.5,3355C 3256.45,3368.09 3224.45,3362.75 3195.5,3339C 3173.98,3320.09 3156.15,3298.26 3142,3273.5C 3126.95,3316.88 3096.78,3342.71 3051.5,3351C 3039.85,3351.94 3028.18,3352.44 3016.5,3352.5C 3015.37,3339.59 3008.37,3334.42 2995.5,3337C 2987.56,3340.22 2980.73,3345.06 2975,3351.5C 2976.45,3315.14 2978.78,3278.81 2982,3242.5C 3035.18,3227.15 3073.02,3194.15 3095.5,3143.5 Z"/></g>
<g><path style="opacity:1" fill="#f5c058" d="M 2496.5,3147.5 C 2542.76,3150.86 2588.93,3154.86 2635,3159.5C 2630.64,3207.15 2626.14,3254.82 2621.5,3302.5C 2577.49,3302.73 2533.49,3302.4 2489.5,3301.5C 2491.37,3250.14 2493.7,3198.81 2496.5,3147.5 Z"/></g>
<g><path style="opacity:1" fill="#f5c058" d="M 2782.5,3171.5 C 2783.21,3172.4 2784.21,3172.74 2785.5,3172.5C 2785.5,3173.83 2785.5,3175.17 2785.5,3176.5C 2780.17,3218.45 2775.17,3260.45 2770.5,3302.5C 2740.17,3302.5 2709.83,3302.5 2679.5,3302.5C 2662.34,3301.5 2645.01,3301.17 2627.5,3301.5C 2627.5,3300.5 2627.5,3299.5 2627.5,3298.5C 2632.23,3252.17 2636.9,3205.84 2641.5,3159.5C 2688.5,3163.58 2735.5,3167.58 2782.5,3171.5 Z"/></g>
<g><path style="opacity:1" fill="#b18d4e" d="M 2782.5,3171.5 C 2783.83,3171.5 2785.17,3171.5 2786.5,3171.5C 2786.78,3173.41 2786.45,3175.08 2785.5,3176.5C 2785.5,3175.17 2785.5,3173.83 2785.5,3172.5C 2784.21,3172.74 2783.21,3172.4 2782.5,3171.5 Z"/></g>
<g><path style="opacity:1" fill="#af8b4e" d="M 1993.5,3216.5 C 1995.8,3218.2 1998.47,3218.87 2001.5,3218.5C 1999.05,3219.47 1996.39,3219.81 1993.5,3219.5C 1993.5,3218.5 1993.5,3217.5 1993.5,3216.5 Z"/></g>
<g><path style="opacity:1" fill="#705945" d="M 1550.5,3220.5 C 1575.84,3219.58 1592.01,3231.24 1599,3255.5C 1601.05,3280.58 1590.22,3297.08 1566.5,3305C 1547.5,3308.08 1532.33,3301.91 1521,3286.5C 1508.96,3261.13 1514.46,3240.63 1537.5,3225C 1541.93,3223.43 1546.26,3221.93 1550.5,3220.5 Z"/></g>
<g><path style="opacity:1" fill="#f4c058" d="M 1548.5,3226.5 C 1567.91,3223.95 1582.07,3231.28 1591,3248.5C 1598.14,3272.46 1590.3,3289.29 1567.5,3299C 1542.54,3303.04 1526.71,3292.87 1520,3268.5C 1519.02,3247.32 1528.52,3233.32 1548.5,3226.5 Z"/></g>
<g><path style="opacity:1" fill="#705a45" d="M 2256.5,3243.5 C 2293.49,3240.55 2316.65,3256.89 2326,3292.5C 2327.84,3324.64 2313.68,3346.14 2283.5,3357C 2257.86,3362.58 2237.02,3355.08 2221,3334.5C 2206.46,3310.7 2207.13,3287.37 2223,3264.5C 2232.32,3254.27 2243.48,3247.27 2256.5,3243.5 Z"/></g>
<g><path style="opacity:1" fill="#6f5945" d="M 1732.5,3244.5 C 1754.28,3241.47 1769.78,3249.8 1779,3269.5C 1785.22,3293.2 1777.39,3310.37 1755.5,3321C 1730.88,3327.28 1713.72,3318.78 1704,3295.5C 1698.95,3270.26 1708.45,3253.26 1732.5,3244.5 Z"/></g>
<g><path style="opacity:1" fill="#f5c058" d="M 2263.5,3248.5 C 2297.84,3249.33 2317.17,3266.83 2321.5,3301C 2316.94,3336.23 2296.94,3353.56 2261.5,3353C 2235.42,3347.59 2220.25,3331.75 2216,3305.5C 2216.46,3273.55 2232.29,3254.55 2263.5,3248.5 Z"/></g>
<g><path style="opacity:1" fill="#f4c058" d="M 1734.5,3249.5 C 1758.92,3248.03 1772.92,3259.37 1776.5,3283.5C 1773.87,3303.96 1762.37,3315.63 1742,3318.5C 1718.85,3315.69 1707.52,3302.69 1708,3279.5C 1711.02,3264.32 1719.85,3254.32 1734.5,3249.5 Z"/></g>
<g><path style="opacity:1" fill="#f2e5cb" d="M 948.5,3283.5 C 997.83,3282.83 1043.83,3294.67 1086.5,3319C 1117.38,3336.87 1145.72,3358.21 1171.5,3383C 1197.48,3378.54 1223.48,3378.54 1249.5,3383C 1277.14,3389.3 1300.31,3403.14 1319,3424.5C 1324.73,3432.05 1330.23,3439.72 1335.5,3447.5C 1346.5,3442.73 1358,3440.73 1370,3441.5C 1403.19,3441.66 1425.86,3457.33 1438,3488.5C 1475.44,3479.66 1511.94,3482.5 1547.5,3497C 1588.14,3516.63 1616.64,3547.47 1633,3589.5C 1634.83,3594.82 1636.66,3600.15 1638.5,3605.5C 1671.92,3597.81 1705.59,3596.64 1739.5,3602C 1794.44,3616 1819.61,3651.5 1815,3708.5C 1811.26,3731.24 1798.1,3745.41 1775.5,3751C 1748.53,3756.73 1721.53,3756.73 1694.5,3751C 1672.36,3747.22 1650.69,3741.72 1629.5,3734.5C 1588.98,3748.61 1547.98,3750.11 1506.5,3739C 1464.82,3724.67 1432.66,3698.5 1410,3660.5C 1392.51,3678.16 1371.68,3690 1347.5,3696C 1326.35,3699.17 1308.85,3692.67 1295,3676.5C 1288.35,3668.05 1282.85,3658.88 1278.5,3649C 1268.59,3650.98 1258.59,3652.98 1248.5,3655C 1173.55,3662.62 1131.39,3629.12 1122,3554.5C 1108.04,3599.44 1086.04,3639.77 1056,3675.5C 1014.37,3716.8 972.87,3716.64 931.5,3675C 896.44,3680.02 862.773,3675.36 830.5,3661C 800.966,3645.47 779.799,3622.3 767,3591.5C 764.138,3583.79 761.305,3576.12 758.5,3568.5C 730.555,3609.62 694.889,3642.12 651.5,3666C 640.821,3670.76 629.821,3674.76 618.5,3678C 581.93,3686.23 548.263,3679.9 517.5,3659C 490.256,3634.5 476.923,3603.83 477.5,3567C 483.812,3486.01 525.479,3432.34 602.5,3406C 627.808,3399.1 653.641,3395.27 680,3394.5C 700.987,3395.18 721.82,3397.02 742.5,3400C 782.318,3349.52 832.652,3313.85 893.5,3293C 911.617,3287.83 929.95,3284.66 948.5,3283.5 Z"/></g>
<g><path style="opacity:1" fill="#e2d4c5" d="M 3090.5,3350.5 C 3086.5,3349.83 3082.5,3349.17 3078.5,3348.5C 3108.98,3336.69 3130.65,3315.69 3143.5,3285.5C 3156.09,3304.93 3170.76,3322.77 3187.5,3339C 3202.56,3352.2 3219.9,3361.2 3239.5,3366C 3255.85,3369.09 3271.69,3367.59 3287,3361.5C 3288.38,3362.04 3288.38,3363.04 3287,3364.5C 3275.53,3378.64 3261.7,3389.81 3245.5,3398C 3225.83,3407.15 3206.5,3406.49 3187.5,3396C 3182.06,3392.87 3176.89,3389.37 3172,3385.5C 3160.71,3390.9 3149.21,3395.9 3137.5,3400.5C 3135.63,3386.72 3131.46,3373.72 3125,3361.5C 3121.58,3357.54 3117.41,3354.71 3112.5,3353C 3105.23,3351.66 3097.9,3350.82 3090.5,3350.5 Z"/></g>
<g><path style="opacity:1" fill="#b18c4e" d="M 2627.5,3298.5 C 2627.5,3299.5 2627.5,3300.5 2627.5,3301.5C 2645.01,3301.17 2662.34,3301.5 2679.5,3302.5C 2661.83,3302.5 2644.17,3302.5 2626.5,3302.5C 2626.23,3300.9 2626.57,3299.57 2627.5,3298.5 Z"/></g>
<g><path style="opacity:1" fill="#b2813f" d="M 2775.5,3306.5 C 2759.85,3307.83 2743.85,3308.5 2727.5,3308.5C 2711.33,3308.5 2695.33,3308.17 2679.5,3307.5C 2711.57,3307.83 2743.57,3307.49 2775.5,3306.5 Z"/></g>
<g><path style="opacity:1" fill="#62aab0" d="M 2995.5,3342.5 C 3008.14,3340.63 3012.64,3345.63 3009,3357.5C 3011.35,3358.71 3013.85,3359.55 3016.5,3360C 3033.03,3360.94 3049.36,3359.61 3065.5,3356C 3078.87,3355.17 3092.2,3355.5 3105.5,3357C 3117.28,3359.45 3124.45,3366.61 3127,3378.5C 3130.55,3391.15 3131.38,3403.98 3129.5,3417C 3131.58,3420.22 3134.58,3422.22 3138.5,3423C 3147.46,3422.7 3156.13,3424.03 3164.5,3427C 3165.33,3427.83 3166.17,3428.67 3167,3429.5C 3167.31,3434.88 3167.97,3440.22 3169,3445.5C 3172.64,3450.48 3177.64,3452.82 3184,3452.5C 3197.78,3450.81 3211.62,3449.81 3225.5,3449.5C 3225.37,3459.72 3222.7,3469.22 3217.5,3478C 3263.73,3482.24 3294.9,3506.08 3311,3549.5C 3313.21,3558.74 3314.71,3568.07 3315.5,3577.5C 3316.6,3589.22 3311.94,3597.72 3301.5,3603C 3292.5,3607.11 3283.17,3610.44 3273.5,3613C 3278.83,3613.33 3284.17,3613.67 3289.5,3614C 3299.8,3618.23 3302.63,3625.4 3298,3635.5C 3296.18,3637.4 3294.18,3639.07 3292,3640.5C 3291.33,3642.83 3291.33,3645.17 3292,3647.5C 3298.33,3654.5 3304.67,3661.5 3311,3668.5C 3317.29,3677.35 3318.96,3687.02 3316,3697.5C 3308.85,3717.98 3294.68,3730.82 3273.5,3736C 3249.49,3741.43 3225.16,3744.43 3200.5,3745C 3176.17,3745.67 3151.83,3745.67 3127.5,3745C 3095.86,3731.86 3062.86,3725.86 3028.5,3727C 3009.77,3696.11 2985.44,3670.61 2955.5,3650.5C 2955.17,3648 2954.83,3645.5 2954.5,3643C 2960.69,3549.14 2967.19,3455.31 2974,3361.5C 2979.85,3353.47 2987.02,3347.14 2995.5,3342.5 Z"/></g>
<g><path style="opacity:1" fill="#a69583" d="M 3078.5,3348.5 C 3082.5,3349.17 3086.5,3349.83 3090.5,3350.5C 3085.82,3350.67 3081.15,3350.5 3076.5,3350C 3077.04,3349.28 3077.71,3348.78 3078.5,3348.5 Z"/></g>
<g><path style="opacity:1" fill="#c59d57" d="M 1547.5,3351.5 C 1584.54,3351.93 1621.2,3355.76 1657.5,3363C 1705.42,3373.79 1752.42,3387.79 1798.5,3405C 1699.2,3396.44 1611.53,3423.77 1535.5,3487C 1525.17,3485.33 1514.83,3483.33 1504.5,3481C 1483.56,3478.86 1462.72,3479.7 1442,3483.5C 1441.17,3483.17 1440.33,3482.83 1439.5,3482.5C 1432.31,3464.81 1420.15,3451.81 1403,3443.5C 1411.09,3418.37 1425.92,3397.87 1447.5,3382C 1465.4,3369.55 1485.06,3361.22 1506.5,3357C 1520.28,3354.91 1533.94,3353.08 1547.5,3351.5 Z"/></g>
<g><path style="opacity:1" fill="#62aab0" d="M 1899.5,3379.5 C 1932.2,3378.28 1964.54,3381.11 1996.5,3388C 2095.06,3407.46 2186.72,3443.8 2271.5,3497C 2291.77,3510.28 2311.77,3523.94 2331.5,3538C 2349.12,3548.86 2367.78,3557.2 2387.5,3563C 2413.5,3569 2439.5,3575 2465.5,3581C 2495.12,3587.39 2520.62,3601.22 2542,3622.5C 2559.23,3643.71 2568.06,3668.04 2568.5,3695.5C 2549.96,3697.35 2536.13,3706.35 2527,3722.5C 2512.72,3716.62 2497.72,3713.95 2482,3714.5C 2443.4,3715.09 2412.4,3730.76 2389,3761.5C 2384.25,3768.67 2379.75,3776 2375.5,3783.5C 2374.83,3783.83 2374.17,3784.17 2373.5,3784.5C 2346.89,3775.01 2319.56,3772.17 2291.5,3776C 2265.48,3782.35 2248.98,3798.52 2242,3824.5C 2239.11,3835.74 2238.78,3847.08 2241,3858.5C 2245.2,3867.37 2251.54,3874.37 2260,3879.5C 2271.76,3902.42 2289.26,3919.42 2312.5,3930.5C 2299.55,3934.74 2286.72,3934.41 2274,3929.5C 2273.5,3929.83 2273,3930.17 2272.5,3930.5C 2277.71,3939.89 2280.21,3949.89 2280,3960.5C 2279.88,3965.9 2277.38,3969.74 2272.5,3972C 2257.25,3969.36 2244.08,3973.2 2233,3983.5C 2228.25,3989.33 2224.25,3995.66 2221,4002.5C 2217.34,4014.49 2213.67,4026.49 2210,4038.5C 2198.43,4063.38 2178.93,4077.54 2151.5,4081C 2141.5,4083 2131.5,4083 2121.5,4081C 2110.2,4079.09 2099.2,4076.09 2088.5,4072C 2066.29,4062.56 2044.29,4052.56 2022.5,4042C 2006.46,4037.45 1995.62,4042.95 1990,4058.5C 1988.82,4074.47 1988.15,4090.47 1988,4106.5C 1986.59,4124.91 1976.76,4135.08 1958.5,4137C 1946.98,4140.84 1940.15,4148.68 1938,4160.5C 1938.59,4211.56 1914.43,4244.06 1865.5,4258C 1805.31,4267.04 1750.98,4253.37 1702.5,4217C 1667.91,4187.41 1654.91,4150.24 1663.5,4105.5C 1662.07,4105.58 1660.74,4105.25 1659.5,4104.5C 1643.1,4136.53 1617.1,4150.36 1581.5,4146C 1556.96,4138.96 1540.29,4123.46 1531.5,4099.5C 1529.6,4098.53 1527.6,4098.2 1525.5,4098.5C 1526.7,4113.92 1521.04,4126.09 1508.5,4135C 1490.94,4142.26 1475.77,4138.76 1463,4124.5C 1461.25,4122 1459.75,4119.33 1458.5,4116.5C 1456.95,4115.55 1455.29,4115.21 1453.5,4115.5C 1453.62,4144.89 1440.62,4166.39 1414.5,4180C 1391.77,4189.32 1368.44,4190.99 1344.5,4185C 1301.53,4173.03 1268.7,4147.86 1246,4109.5C 1221.43,4067.51 1215.76,4023.18 1229,3976.5C 1220.54,3983.66 1211.38,3984.83 1201.5,3980C 1185.86,3972.54 1180.86,3960.71 1186.5,3944.5C 1089.85,3968.4 1000.52,3952.24 918.5,3896C 892.226,3877.23 870.226,3854.39 852.5,3827.5C 882.563,3826.31 911.063,3819.31 938,3806.5C 992.111,3828.9 1047.94,3834.07 1105.5,3822C 1131.21,3814.9 1154.71,3803.4 1176,3787.5C 1197.05,3802.78 1220.22,3813.28 1245.5,3819C 1267.98,3822.82 1289.64,3820.49 1310.5,3812C 1311.83,3811.33 1313.17,3811.33 1314.5,3812C 1348.64,3840.07 1387.31,3859.07 1430.5,3869C 1480.65,3878.7 1527.49,3870.53 1571,3844.5C 1594.78,3857.82 1620.28,3862.98 1647.5,3860C 1672.73,3853.94 1690.06,3838.77 1699.5,3814.5C 1735.37,3803.9 1763.7,3783.07 1784.5,3752C 1803.14,3744.69 1814.64,3731.19 1819,3711.5C 1824.39,3648.69 1796.56,3610.52 1735.5,3597C 1704.29,3592.98 1673.29,3594.15 1642.5,3600.5C 1636.5,3586.16 1629.67,3572.16 1622,3558.5C 1602.76,3526.65 1575.93,3503.81 1541.5,3490C 1623.43,3422.76 1717.1,3397.43 1822.5,3414C 1829.98,3417.41 1837.65,3420.24 1845.5,3422.5C 1847.35,3412.24 1849.35,3402.07 1851.5,3392C 1867.09,3385.94 1883.09,3381.77 1899.5,3379.5 Z"/></g>
<g><path style="opacity:1" fill="#f7bf58" d="M 2420.5,3407.5 C 2465.52,3407.42 2500.35,3426.09 2525,3463.5C 2529.92,3471.67 2534.59,3480.01 2539,3488.5C 2547.02,3497.1 2556.52,3503.6 2567.5,3508C 2587.23,3515.01 2607.57,3519.34 2628.5,3521C 2666.52,3523.02 2704.52,3522.68 2742.5,3520C 2815.36,3513.73 2887.53,3503.23 2959,3488.5C 2955.91,3537.47 2952.91,3586.47 2950,3635.5C 2949.97,3639.11 2949.14,3642.44 2947.5,3645.5C 2905.9,3622.44 2861.9,3616.94 2815.5,3629C 2783.32,3638.59 2753.65,3653.26 2726.5,3673C 2715.35,3670.45 2704.01,3668.45 2692.5,3667C 2656.79,3663.57 2627.29,3675.4 2604,3702.5C 2594.43,3697.73 2584.26,3695.4 2573.5,3695.5C 2572.03,3643.88 2547.7,3607.71 2500.5,3587C 2481.33,3579.57 2461.67,3573.9 2441.5,3570C 2439.67,3569.73 2438.17,3568.89 2437,3567.5C 2430.73,3516.01 2424.56,3464.51 2418.5,3413C 2418.7,3410.88 2419.36,3409.05 2420.5,3407.5 Z"/></g>
<g><path style="opacity:1" fill="#e8decd" d="M 1414.5,3721.5 C 1414.81,3718.75 1414.48,3716.09 1413.5,3713.5C 1412.89,3713.62 1412.56,3713.96 1412.5,3714.5C 1379.47,3784.9 1329.14,3800.73 1261.5,3762C 1250.87,3755.1 1240.7,3747.6 1231,3739.5C 1193.94,3754.51 1158.77,3751.01 1125.5,3729C 1118,3722.83 1111.17,3716 1105,3708.5C 1091.35,3733.81 1072.52,3754.31 1048.5,3770C 1018.53,3784.63 988.194,3785.3 957.5,3772C 952.175,3769.67 947.175,3766.84 942.5,3763.5C 900.946,3787.83 861.946,3784.33 825.5,3753C 808.37,3753.2 791.37,3751.86 774.5,3749C 737.155,3738.66 714.655,3714.49 707,3676.5C 693.424,3693.41 677.924,3708.24 660.5,3721C 631.155,3740.29 601.822,3740.29 572.5,3721C 555.198,3707.73 541.698,3691.56 532,3672.5C 570.849,3689.95 609.683,3689.78 648.5,3672C 692.069,3649.1 728.235,3617.6 757,3577.5C 776.408,3634.79 815.908,3668.62 875.5,3679C 893.823,3680.64 912.156,3680.98 930.5,3680C 971.061,3719.62 1012.39,3720.62 1054.5,3683C 1075.25,3660.9 1092.08,3636.07 1105,3608.5C 1110.2,3596.12 1115.36,3583.78 1120.5,3571.5C 1125.21,3597.09 1136.88,3618.93 1155.5,3637C 1171.71,3649.63 1190.05,3656.96 1210.5,3659C 1232.55,3661.05 1254.21,3659.22 1275.5,3653.5C 1279.24,3659.3 1282.74,3665.3 1286,3671.5C 1307.07,3700.23 1334.24,3707.73 1367.5,3694C 1382.7,3686.95 1396.7,3678.11 1409.5,3667.5C 1444.58,3721.72 1494.58,3749.38 1559.5,3750.5C 1583.21,3750.07 1606.37,3746.4 1629,3739.5C 1657.33,3747.86 1686.16,3754.03 1715.5,3758C 1729.5,3758.67 1743.5,3758.67 1757.5,3758C 1764.34,3757.59 1771,3756.59 1777.5,3755C 1750.55,3791.65 1714.21,3811.99 1668.5,3816C 1619.75,3817.8 1573.08,3809.14 1528.5,3790C 1519.12,3785.87 1509.78,3781.53 1500.5,3777C 1484.45,3777.78 1468.78,3775.78 1453.5,3771C 1431.39,3761.72 1418.39,3745.22 1414.5,3721.5 Z"/></g>
<g><path style="opacity:1" fill="#f2e5cb" d="M 2859.5,3625.5 C 2902.57,3625.92 2940.57,3639.75 2973.5,3667C 2994.67,3684.99 3012.34,3705.83 3026.5,3729.5C 3054.72,3729.12 3082.39,3732.96 3109.5,3741C 3157.17,3758 3186.34,3791.16 3197,3840.5C 3201.21,3867.37 3195.88,3892.04 3181,3914.5C 3162.85,3936.81 3139.35,3946.31 3110.5,3943C 3088.22,3939.24 3068.56,3929.9 3051.5,3915C 3030.17,3895.01 3012.67,3872.18 2999,3846.5C 2974.89,3897.81 2934.72,3918.31 2878.5,3908C 2875.4,3906.93 2872.23,3906.1 2869,3905.5C 2862.31,3909.43 2855.47,3913.27 2848.5,3917C 2823.61,3926.26 2802.44,3920.76 2785,3900.5C 2773.03,3884.56 2763.7,3867.23 2757,3848.5C 2752.26,3833.63 2748.09,3818.63 2744.5,3803.5C 2732.46,3850.36 2702.46,3870.2 2654.5,3863C 2644.53,3861.01 2635.03,3857.84 2626,3853.5C 2604.03,3887.86 2577.53,3891.69 2546.5,3865C 2541.3,3860.13 2536.47,3854.97 2532,3849.5C 2492.58,3895.48 2444.08,3908.32 2386.5,3888C 2381.06,3885.51 2375.56,3883.01 2370,3880.5C 2337.55,3888.02 2305.05,3888.19 2272.5,3881C 2248.6,3873.79 2238.77,3857.96 2243,3833.5C 2249.95,3799.22 2270.78,3780.38 2305.5,3777C 2329.4,3776.38 2352.57,3780.22 2375,3788.5C 2384.8,3771.34 2396.97,3755.84 2411.5,3742C 2447.04,3715.63 2485.71,3710.13 2527.5,3725.5C 2532.23,3719.28 2537.56,3713.44 2543.5,3708C 2555.4,3699.03 2568.73,3696.03 2583.5,3699C 2590.92,3700.42 2597.92,3702.92 2604.5,3706.5C 2630.12,3675.88 2662.79,3664.05 2702.5,3671C 2710.25,3672.41 2717.75,3674.58 2725,3677.5C 2757.87,3652.98 2794.37,3636.48 2834.5,3628C 2843,3627.27 2851.33,3626.44 2859.5,3625.5 Z"/></g>
<g><path style="opacity:1" fill="#e2d5c6" d="M 703.5,3686.5 C 709.728,3702.6 718.728,3717.1 730.5,3730C 744.818,3742.83 761.485,3750.83 780.5,3754C 794.756,3755.97 809.09,3756.97 823.5,3757C 854.496,3783.27 889.162,3789.6 927.5,3776C 932.396,3773.64 937.229,3771.14 942,3768.5C 997.364,3798.39 1045.7,3789.72 1087,3742.5C 1093.41,3734.01 1099.58,3725.34 1105.5,3716.5C 1134.65,3746.6 1169.98,3757.77 1211.5,3750C 1217.82,3748.18 1224.15,3746.35 1230.5,3744.5C 1253.68,3764.92 1280.34,3778.76 1310.5,3786C 1345.89,3790.55 1374.39,3778.72 1396,3750.5C 1401.25,3743 1406.25,3735.34 1411,3727.5C 1419.28,3756.1 1438.11,3773.27 1467.5,3779C 1478.15,3779.98 1488.81,3780.65 1499.5,3781C 1545.2,3805.06 1594.04,3818.23 1646,3820.5C 1662.38,3820.37 1678.55,3818.87 1694.5,3816C 1678.78,3848.86 1652.78,3862.2 1616.5,3856C 1600.55,3852.93 1585.38,3847.77 1571,3840.5C 1511.41,3874.58 1449.91,3878.08 1386.5,3851C 1360.51,3839.99 1336.84,3825.33 1315.5,3807C 1314.17,3806.33 1312.83,3806.33 1311.5,3807C 1289.08,3817.01 1265.74,3819.35 1241.5,3814C 1217.77,3807.8 1196.1,3797.3 1176.5,3782.5C 1126.02,3819.36 1069.68,3832.52 1007.5,3822C 983.503,3817.7 960.17,3811.2 937.5,3802.5C 898.344,3820.75 857.344,3826.58 814.5,3820C 762.633,3810.82 714.8,3791.66 671,3762.5C 647.658,3777.71 625.158,3776.54 603.5,3759C 594.932,3751 587.432,3742.17 581,3732.5C 580.333,3731.83 580.333,3731.17 581,3730.5C 601.503,3741.02 622.67,3742.19 644.5,3734C 667.851,3722.82 687.517,3706.99 703.5,3686.5 Z"/></g>
<g><path style="opacity:1" fill="#a79886" d="M 1412.5,3714.5 C 1412.56,3713.96 1412.89,3713.62 1413.5,3713.5C 1414.48,3716.09 1414.81,3718.75 1414.5,3721.5C 1413.83,3719.17 1413.17,3716.83 1412.5,3714.5 Z"/></g>
<g><path style="opacity:1" fill="#e8decd" d="M 2743.5,3814.5 C 2747.87,3828.78 2752.37,3843.12 2757,3857.5C 2764.76,3878.85 2776.93,3897.35 2793.5,3913C 2810.72,3925.65 2829.38,3927.98 2849.5,3920C 2856.25,3916.54 2862.75,3912.71 2869,3908.5C 2895.07,3915.57 2920.9,3914.74 2946.5,3906C 2970.25,3895.08 2987.92,3877.92 2999.5,3854.5C 3013.13,3878.87 3030.46,3900.37 3051.5,3919C 3067.4,3932.78 3085.73,3941.45 3106.5,3945C 3111.17,3945.43 3115.84,3945.93 3120.5,3946.5C 3129.94,3945.65 3139.28,3944.48 3148.5,3943C 3138.56,3956.28 3126.22,3966.62 3111.5,3974C 3092.5,3981.79 3074.83,3979.46 3058.5,3967C 3045.47,3955.81 3034.47,3942.98 3025.5,3928.5C 3011.76,3961.22 2987.09,3975.72 2951.5,3972C 2946.59,3971.61 2941.75,3970.78 2937,3969.5C 2907.72,3988.8 2879.22,3987.8 2851.5,3966.5C 2807.93,3983.63 2774.43,3971.96 2751,3931.5C 2748,3925.17 2745,3918.83 2742,3912.5C 2723.2,3930.13 2701.03,3936.63 2675.5,3932C 2666.7,3929.51 2658.2,3926.35 2650,3922.5C 2631.32,3935.39 2610.66,3942.73 2588,3944.5C 2563.96,3943.65 2546.29,3932.65 2535,3911.5C 2530.96,3904.08 2527.46,3896.42 2524.5,3888.5C 2517.12,3913.19 2500.46,3925.19 2474.5,3924.5C 2468.75,3924.53 2463.08,3923.87 2457.5,3922.5C 2422.7,3935.68 2386.7,3940.52 2349.5,3937C 2312.08,3932.47 2283.75,3914.14 2264.5,3882C 2272.97,3884.42 2281.63,3886.42 2290.5,3888C 2316.62,3889.37 2342.62,3888.2 2368.5,3884.5C 2376.24,3887.03 2383.91,3889.86 2391.5,3893C 2446.74,3909.7 2493.57,3896.87 2532,3854.5C 2545.6,3872.21 2563.43,3882.55 2585.5,3885.5C 2603.98,3883.21 2617.81,3873.88 2627,3857.5C 2651.47,3868.52 2676.63,3870.35 2702.5,3863C 2723.56,3853.02 2737.23,3836.85 2743.5,3814.5 Z"/></g>
<g><path style="opacity:1" fill="#e2d4c5" d="M 2524.5,3896.5 C 2544.73,3945.43 2579.39,3959.26 2628.5,3938C 2635.65,3934.01 2642.81,3930.18 2650,3926.5C 2659.92,3930.47 2670.09,3933.64 2680.5,3936C 2702.89,3938.24 2722.89,3932.4 2740.5,3918.5C 2746.95,3930.79 2754.45,3942.46 2763,3953.5C 2788.52,3978.33 2817.86,3983.99 2851,3970.5C 2877.97,3990.66 2905.81,3991.83 2934.5,3974C 2947.78,3975.22 2961.12,3975.55 2974.5,3975C 2999.05,3970.77 3016.22,3957.27 3026,3934.5C 3035.8,3950.3 3048.3,3963.46 3063.5,3974C 3077.93,3981.68 3092.93,3983.34 3108.5,3979C 3098.78,3992.61 3085.61,4000.44 3069,4002.5C 3058.95,4001.65 3050.12,3997.99 3042.5,3991.5C 2995.74,4015.18 2946.4,4022.68 2894.5,4014C 2878.71,4009.91 2864.04,4003.41 2850.5,3994.5C 2803.26,4007.71 2757.92,4003.21 2714.5,3981C 2703.66,3974.49 2693.83,3966.66 2685,3957.5C 2660.25,3972.47 2633.75,3976.97 2605.5,3971C 2598.51,3968.75 2592.01,3965.59 2586,3961.5C 2562.97,3975.6 2538.13,3985.1 2511.5,3990C 2470.49,3995.77 2433.82,3985.94 2401.5,3960.5C 2382.89,3968.23 2363.89,3969.39 2344.5,3964C 2330.25,3957.93 2321.25,3947.43 2317.5,3932.5C 2343.25,3940.21 2369.59,3942.71 2396.5,3940C 2417.88,3937.36 2438.71,3932.52 2459,3925.5C 2470.13,3927.93 2481.3,3928.09 2492.5,3926C 2508.15,3921.51 2518.82,3911.68 2524.5,3896.5 Z"/></g>
</svg>
