<?xml version="1.0" encoding="UTF-8"?>
<!DOCTYPE svg PUBLIC "-//W3C//DTD SVG 1.1//EN" "http://www.w3.org/Graphics/SVG/1.1/DTD/svg11.dtd">
<svg xmlns="http://www.w3.org/2000/svg" version="1.1" width="4500px" height="4500px" style="shape-rendering:geometricPrecision; text-rendering:geometricPrecision; image-rendering:optimizeQuality; fill-rule:evenodd; clip-rule:evenodd" xmlns:xlink="http://www.w3.org/1999/xlink">
<g><path style="opacity:0.99" fill="#6d5845" d="M 1902.5,857.5 C 1903.5,857.414 1904.33,857.748 1905,858.5C 2100.97,1143.3 2297.14,1427.97 2493.5,1712.5C 2840.51,1713.46 3187.51,1713.79 3534.5,1713.5C 3323.83,1989.17 3113.17,2264.83 2902.5,2540.5C 3010.4,2870.03 3117.57,3199.7 3224,3529.5C 2897.13,3414.32 2570.29,3298.98 2243.5,3183.5C 1962.91,3387.38 1682.41,3591.38 1402,3795.5C 1410,3448.81 1418.33,3102.15 1427,2755.5C 1146.59,2551.71 866.089,2348.04 585.5,2144.5C 917.291,2044.85 1249.29,1945.68 1581.5,1847C 1689,1517.34 1796,1187.51 1902.5,857.5 Z"/></g>
<g><path style="opacity:1" fill="#f7bf58" d="M 1913.5,929.5 C 2101.51,1201.01 2289.18,1472.84 2476.5,1745C 2807.17,1745.17 3137.83,1745.67 3468.5,1746.5C 3267.42,2008.91 3066.75,2271.57 2866.5,2534.5C 2967.03,2843.6 3067.87,3152.6 3169,3461.5C 3170.37,3466.93 3171.71,3472.26 3173,3477.5C 2861.54,3366.9 2549.88,3256.9 2238,3147.5C 1970.51,3341.58 1703.17,3535.92 1436,3730.5C 1435.33,3715.83 1435.33,3701.17 1436,3686.5C 1444.13,3370.5 1451.8,3054.5 1459,2738.5C 1191.5,2544.33 924,2350.17 656.5,2156C 973.68,2062.07 1290.68,1967.57 1607.5,1872.5C 1709.51,1558.14 1811.51,1243.81 1913.5,929.5 Z"/></g>
</svg>
