<?xml version="1.0" encoding="UTF-8"?>
<!DOCTYPE svg PUBLIC "-//W3C//DTD SVG 1.1//EN" "http://www.w3.org/Graphics/SVG/1.1/DTD/svg11.dtd">
<svg xmlns="http://www.w3.org/2000/svg" version="1.1" width="4500px" height="4500px" style="shape-rendering:geometricPrecision; text-rendering:geometricPrecision; image-rendering:optimizeQuality; fill-rule:evenodd; clip-rule:evenodd" xmlns:xlink="http://www.w3.org/1999/xlink">
<g><path style="opacity:0.924" fill="#534639" d="M 794.5,-0.5 C 1035.17,-0.5 1275.83,-0.5 1516.5,-0.5C 1548.55,121.046 1583.72,241.713 1622,361.5C 1774.79,843.67 1956.45,1314.34 2167,1773.5C 2303.56,2070.65 2454.56,2359.31 2620,2639.5C 2768.16,2889.89 2931.16,3129.89 3109,3359.5C 3261.57,3555.46 3428.73,3739.29 3610.5,3911C 3773.99,4064.22 3950.33,4200.22 4139.5,4319C 4249.41,4386.96 4363.74,4447.13 4482.5,4499.5C 4478.5,4499.5 4474.5,4499.5 4470.5,4499.5C 4313.83,4428.85 4164.83,4345.35 4023.5,4249C 3873.6,4145.46 3731.93,4031.13 3598.5,3906C 3421.13,3737.35 3257.63,3557.19 3108,3365.5C 2930.14,3136.24 2767.14,2896.57 2619,2646.5C 2454.31,2367.15 2303.65,2079.82 2167,1784.5C 1953.64,1319.85 1769.64,843.186 1615,354.5C 1592.57,282.991 1570.91,211.325 1550,139.5C 1536.68,93.7492 1524.18,47.7492 1512.5,1.5C 1274.5,1.5 1036.5,1.5 798.5,1.5C 795.587,120.189 796.421,238.855 801,357.5C 817.154,817.056 870.82,1272.06 962,1722.5C 1020.17,2008.84 1097.5,2289.84 1194,2565.5C 1265.95,2768.7 1351.28,2967.37 1450,3161.5C 1556.02,3368.36 1680.02,3563.02 1822,3745.5C 1963.39,3925.89 2123.89,4087.39 2303.5,4230C 2435.25,4333.09 2575.92,4422.92 2725.5,4499.5C 2722.5,4499.5 2719.5,4499.5 2716.5,4499.5C 2488.75,4381.96 2282.41,4234.46 2097.5,4057C 1943.04,3907.3 1805.87,3744.14 1686,3567.5C 1533.78,3341.52 1404.78,3101.85 1299,2848.5C 1197.01,2603.52 1112.34,2352.52 1045,2095.5C 963.766,1783.43 902.766,1467.43 862,1147.5C 817.706,806.257 794.539,463.591 792.5,119.5C 792.43,79.4704 793.097,39.4704 794.5,-0.5 Z"/></g>
<g><path style="opacity:1" fill="#4d525f" d="M 4470.5,4499.5 C 3888.83,4499.5 3307.17,4499.5 2725.5,4499.5C 2575.92,4422.92 2435.25,4333.09 2303.5,4230C 2123.89,4087.39 1963.39,3925.89 1822,3745.5C 1680.02,3563.02 1556.02,3368.36 1450,3161.5C 1351.28,2967.37 1265.95,2768.7 1194,2565.5C 1097.5,2289.84 1020.17,2008.84 962,1722.5C 870.82,1272.06 817.154,817.056 801,357.5C 796.421,238.855 795.587,120.189 798.5,1.5C 1036.5,1.5 1274.5,1.5 1512.5,1.5C 1524.18,47.7492 1536.68,93.7492 1550,139.5C 1570.91,211.325 1592.57,282.991 1615,354.5C 1769.64,843.186 1953.64,1319.85 2167,1784.5C 2303.65,2079.82 2454.31,2367.15 2619,2646.5C 2767.14,2896.57 2930.14,3136.24 3108,3365.5C 3257.63,3557.19 3421.13,3737.35 3598.5,3906C 3731.93,4031.13 3873.6,4145.46 4023.5,4249C 4164.83,4345.35 4313.83,4428.85 4470.5,4499.5 Z"/></g>
</svg>
