<?xml version="1.0" encoding="UTF-8"?>
<!DOCTYPE svg PUBLIC "-//W3C//DTD SVG 1.1//EN" "http://www.w3.org/Graphics/SVG/1.1/DTD/svg11.dtd">
<svg xmlns="http://www.w3.org/2000/svg" version="1.1" width="4500px" height="4500px" style="shape-rendering:geometricPrecision; text-rendering:geometricPrecision; image-rendering:optimizeQuality; fill-rule:evenodd; clip-rule:evenodd" xmlns:xlink="http://www.w3.org/1999/xlink">
<g><path style="opacity:0.987" fill="#6c5845" d="M 2027.5,1098.5 C 2171.02,1306.35 2314.69,1514.19 2458.5,1722C 2711.17,1722.33 2963.83,1722.67 3216.5,1723C 3063.67,1922.5 2910.83,2122 2758,2321.5C 2757.22,2322.73 2756.72,2324.06 2756.5,2325.5C 2834.4,2565.03 2912.4,2804.53 2990.5,3044C 2990.17,3044.5 2989.83,3045 2989.5,3045.5C 2751.54,2961.79 2513.7,2877.79 2276,2793.5C 2071.39,2941.78 1867.05,3090.45 1663,3239.5C 1668.51,2986.79 1674.51,2734.12 1681,2481.5C 1476.23,2333.53 1271.73,2185.2 1067.5,2036.5C 1309.48,1964.17 1551.48,1891.84 1793.5,1819.5C 1871.9,1579.3 1949.9,1338.97 2027.5,1098.5 Z"/></g>
<g><path style="opacity:1" fill="#5a9d98" d="M 2758.5,1746.5 C 2895,1746.17 3031.33,1746.5 3167.5,1747.5C 3021.27,1938.29 2875.27,2129.29 2729.5,2320.5C 2803.84,2549.19 2878.18,2777.86 2952.5,3006.5C 2725.8,2927.32 2499.3,2847.66 2273,2767.5C 2270.18,2767.99 2267.68,2769.16 2265.5,2771C 2072.58,2911.38 1879.74,3051.88 1687,3192.5C 1692.72,2957.53 1698.55,2722.53 1704.5,2487.5C 1704.17,2481.17 1703.83,2474.83 1703.5,2468.5C 1509.17,2327.33 1314.83,2186.17 1120.5,2045C 1350.94,1976.8 1581.27,1908.3 1811.5,1839.5C 1815.87,1829.41 1819.7,1819.08 1823,1808.5C 1893.75,1589.43 1964.75,1370.43 2036,1151.5C 2172.38,1349.75 2308.88,1547.92 2445.5,1746C 2549.83,1746.5 2654.17,1746.67 2758.5,1746.5 Z"/></g>
<g><path style="opacity:1" fill="#647a6e" d="M 2758.5,1746.5 C 2895,1745.17 3031.67,1745.17 3168.5,1746.5C 3168.38,1747.11 3168.04,1747.44 3167.5,1747.5C 3031.33,1746.5 2895,1746.17 2758.5,1746.5 Z"/></g>
</svg>
