<?xml version="1.0" encoding="UTF-8"?>
<!DOCTYPE svg PUBLIC "-//W3C//DTD SVG 1.1//EN" "http://www.w3.org/Graphics/SVG/1.1/DTD/svg11.dtd">
<svg xmlns="http://www.w3.org/2000/svg" version="1.1" width="4500px" height="4500px" style="shape-rendering:geometricPrecision; text-rendering:geometricPrecision; image-rendering:optimizeQuality; fill-rule:evenodd; clip-rule:evenodd" xmlns:xlink="http://www.w3.org/1999/xlink">
<g><path style="opacity:0.926" fill="#54463a" d="M 2342.5,-0.5 C 2413.83,-0.5 2485.17,-0.5 2556.5,-0.5C 2551.26,508.327 2592.76,1013.33 2681,1514.5C 2732.67,1810.17 2803.33,2101.17 2893,2387.5C 2974.8,2647.43 3076.8,2899.1 3199,3142.5C 3308.98,3359.27 3438.32,3562.94 3587,3753.5C 3726.09,3929.26 3883.26,4087.09 4058.5,4227C 4191.56,4331.11 4333.56,4421.94 4484.5,4499.5C 4481.5,4499.5 4478.5,4499.5 4475.5,4499.5C 4202.1,4357.94 3959.93,4174.27 3749,3948.5C 3595.77,3782.94 3460.77,3603.94 3344,3411.5C 3234.68,3230.5 3139.01,3042.5 3057,2847.5C 2952.84,2596.35 2866.51,2338.69 2798,2074.5C 2735,1831.19 2684.67,1585.19 2647,1336.5C 2596.23,999.07 2565.23,659.736 2554,318.5C 2551.47,212.841 2550.97,107.175 2552.5,1.5C 2483.83,1.1667 2415.16,1.50003 2346.5,2.5C 2314.23,145.214 2291.07,289.547 2277,435.5C 2257.18,654.852 2253.18,874.519 2265,1094.5C 2274.81,1279.65 2292.48,1463.99 2318,1647.5C 2359.27,1936.12 2414.6,2221.79 2484,2504.5C 2574.28,2868.17 2681.28,3227.17 2805,3581.5C 2893.84,3835.12 2990.17,4085.12 3094,4331.5C 3118.22,4387.61 3142.72,4443.61 3167.5,4499.5C 3165.83,4499.5 3164.17,4499.5 3162.5,4499.5C 2930.76,3974.15 2736.26,3434.81 2579,2881.5C 2494.82,2585.45 2424.49,2286.11 2368,1983.5C 2316.51,1707.93 2281.85,1430.26 2264,1150.5C 2248.79,911.592 2251.79,672.925 2273,434.5C 2286.65,287.953 2309.81,142.953 2342.5,-0.5 Z"/></g>
<g><path style="opacity:1" fill="#5a5f6c" d="M 4475.5,4499.5 C 4039.5,4499.5 3603.5,4499.5 3167.5,4499.5C 3142.72,4443.61 3118.22,4387.61 3094,4331.5C 2990.17,4085.12 2893.84,3835.12 2805,3581.5C 2681.28,3227.17 2574.28,2868.17 2484,2504.5C 2414.6,2221.79 2359.27,1936.12 2318,1647.5C 2292.48,1463.99 2274.81,1279.65 2265,1094.5C 2253.18,874.519 2257.18,654.852 2277,435.5C 2291.07,289.547 2314.23,145.214 2346.5,2.5C 2415.16,1.50003 2483.83,1.1667 2552.5,1.5C 2550.97,107.175 2551.47,212.841 2554,318.5C 2565.23,659.736 2596.23,999.07 2647,1336.5C 2684.67,1585.19 2735,1831.19 2798,2074.5C 2866.51,2338.69 2952.84,2596.35 3057,2847.5C 3139.01,3042.5 3234.68,3230.5 3344,3411.5C 3460.77,3603.94 3595.77,3782.94 3749,3948.5C 3959.93,4174.27 4202.1,4357.94 4475.5,4499.5 Z"/></g>
</svg>
