<?xml version="1.0" encoding="UTF-8"?>
<!DOCTYPE svg PUBLIC "-//W3C//DTD SVG 1.1//EN" "http://www.w3.org/Graphics/SVG/1.1/DTD/svg11.dtd">
<svg xmlns="http://www.w3.org/2000/svg" version="1.1" width="4500px" height="4500px" style="shape-rendering:geometricPrecision; text-rendering:geometricPrecision; image-rendering:optimizeQuality; fill-rule:evenodd; clip-rule:evenodd" xmlns:xlink="http://www.w3.org/1999/xlink">
<g><path style="opacity:0.993" fill="#6e5946" d="M 11.5,-0.5 C 1507.5,-0.5 3003.5,-0.5 4499.5,-0.5C 4499.5,1.5 4499.5,3.5 4499.5,5.5C 3847.83,5.33333 3196.17,5.5 2544.5,6C 2545.36,67.3094 2555.52,127.143 2575,185.5C 2618.85,302.69 2702.35,348.19 2825.5,322C 2878.13,309.345 2927.3,288.512 2973,259.5C 2983.34,323.515 3002.67,384.515 3031,442.5C 3053.06,486.237 3083.56,523.07 3122.5,553C 3178.62,590.865 3240.62,606.865 3308.5,601C 3359.48,596.586 3408.82,585.253 3456.5,567C 3523.91,541.215 3587.08,507.715 3646,466.5C 3709.67,510.1 3775.17,512.933 3842.5,475C 3889.54,446.884 3928.37,410.05 3959,364.5C 3958.21,394.987 3957.38,425.487 3956.5,456C 3956.31,531.947 3963.81,607.114 3979,681.5C 3995.54,763.704 4026.87,839.704 4073,909.5C 4147.73,1015.12 4248.56,1082.29 4375.5,1111C 4416.34,1120.1 4457.67,1124.94 4499.5,1125.5C 4499.5,1128.5 4499.5,1131.5 4499.5,1134.5C 4394.24,1134.64 4296.91,1107.47 4207.5,1053C 4137.25,1007.41 4081.41,948.248 4040,875.5C 4000.19,801.93 3973.86,723.596 3961,640.5C 3953.12,592.849 3948.79,544.849 3948,496.5C 3947.49,463.158 3947.49,429.825 3948,396.5C 3914.27,438.766 3873.1,471.599 3824.5,495C 3775.2,516.397 3725.87,516.73 3676.5,496C 3666.3,490.737 3656.3,485.237 3646.5,479.5C 3578.04,525.564 3504.71,561.731 3426.5,588C 3196.59,654.946 3048.42,573.779 2982,344.5C 2975.86,321.991 2970.7,299.325 2966.5,276.5C 2939.79,290.687 2912.46,303.521 2884.5,315C 2858.7,324.032 2832.37,331.032 2805.5,336C 2774.02,339.956 2742.69,339.29 2711.5,334C 2665.85,322.44 2629.35,297.607 2602,259.5C 2578.51,224.175 2561.84,185.841 2552,144.5C 2541.66,100.118 2535.83,55.1181 2534.5,9.5C 2534.5,8.16667 2534.5,6.83333 2534.5,5.5C 1967,5.16676 1399.67,5.5001 832.5,6.5C 857.412,159.209 946.746,225.376 1100.5,205C 1152.08,196.328 1201.42,180.828 1248.5,158.5C 1291.41,282.251 1373.07,370.418 1493.5,423C 1550.27,446.867 1609.27,462.867 1670.5,471C 1745.24,480.776 1820.24,483.11 1895.5,478C 1985.47,472.136 2074.13,458.302 2161.5,436.5C 2169.03,454.228 2175.53,472.562 2181,491.5C 2207.86,566.896 2243.53,637.896 2288,704.5C 2394.5,857.229 2540,948.395 2724.5,978C 2883.39,998.615 3038.06,981.782 3188.5,927.5C 3189.51,989.231 3192.01,1050.9 3196,1112.5C 3202.75,1214.77 3219.09,1315.44 3245,1414.5C 3262.7,1479.61 3286.7,1542.28 3317,1602.5C 3424.65,1807.33 3594.82,1915.16 3827.5,1926C 3917.62,1928.89 4006.62,1920.22 4094.5,1900C 4236.08,1866.76 4371.08,1816.59 4499.5,1749.5C 4499.5,1753.17 4499.5,1756.83 4499.5,1760.5C 4356.15,1835.57 4204.82,1888.73 4045.5,1920C 3959.08,1935.59 3872.08,1939.92 3784.5,1933C 3581.68,1912.38 3428.84,1814.55 3326,1639.5C 3286.93,1569.86 3256.93,1496.53 3236,1419.5C 3211.64,1327.32 3195.64,1233.66 3188,1138.5C 3183.84,1083.25 3181.34,1027.91 3180.5,972.5C 3180.5,962.167 3180.5,951.833 3180.5,941.5C 3179.21,941.263 3178.21,941.596 3177.5,942.5C 3034.2,991.207 2887.2,1007.04 2736.5,990C 2530.97,960.348 2372.8,858.181 2262,683.5C 2216.64,609.531 2181.47,531.197 2156.5,448.5C 2044.17,475.124 1930.17,489.124 1814.5,490.5C 1746.48,490.453 1679.15,483.953 1612.5,471C 1553.53,458.347 1497.53,438.013 1444.5,410C 1348.38,356.551 1281.88,278.051 1245,174.5C 1244.31,173.643 1243.48,172.977 1242.5,172.5C 1187.56,198.239 1129.56,213.406 1068.5,218C 1028.55,221.175 989.886,215.841 952.5,202C 903.608,180.108 868.441,144.608 847,95.5C 834.49,66.8041 826.324,36.8041 822.5,5.5C 555.5,5.5 288.5,5.5 21.5,5.5C 22.5535,124.999 77.5535,208.832 186.5,257C 232.7,275.883 280.7,287.55 330.5,292C 367.133,295.804 403.8,296.304 440.5,293.5C 550.844,545.973 742.844,689.806 1016.5,725C 1201.31,743.064 1381.31,721.897 1556.5,661.5C 1661.65,940.479 1853.98,1131.65 2133.5,1235C 2270.84,1283.39 2412.51,1310.06 2558.5,1315C 2663.48,1319.69 2767.82,1313.86 2871.5,1297.5C 2871.55,1430.62 2881.38,1562.96 2901,1694.5C 2917.38,1800.68 2944.04,1904.01 2981,2004.5C 3013.09,2089.36 3056.09,2168.02 3110,2240.5C 3215.06,2376.13 3351.56,2462.3 3519.5,2499C 3584.64,2512.09 3650.47,2518.93 3717,2519.5C 3808.51,2517.92 3899.01,2507.76 3988.5,2489C 4167.38,2449.23 4337.71,2387.07 4499.5,2302.5C 4499.5,2306.5 4499.5,2310.5 4499.5,2314.5C 4342.29,2395.85 4177.29,2456.35 4004.5,2496C 3909.66,2517.19 3813.66,2528.35 3716.5,2529.5C 3620.89,2530.1 3527.55,2515.94 3436.5,2487C 3288.33,2436.46 3169.83,2346.96 3081,2218.5C 3029.79,2142.74 2989.12,2061.41 2959,1974.5C 2923.17,1868.35 2898.17,1759.68 2884,1648.5C 2869.98,1535.92 2862.15,1422.92 2860.5,1309.5C 2783.13,1321.16 2705.3,1326.82 2627,1326.5C 2472.7,1327.55 2321.87,1305.39 2174.5,1260C 2037.42,1216.66 1915.09,1148.33 1807.5,1055C 1714.82,971.325 1641.65,873.159 1588,760.5C 1574.81,732.088 1562.31,703.422 1550.5,674.5C 1373.52,734.406 1192.18,754.239 1006.5,734C 735.941,696.319 544.941,553.319 433.5,305C 367.897,308.097 303.23,301.763 239.5,286C 189.226,273.195 143.893,250.862 103.5,219C 46.9599,168.745 16.4599,105.578 12,29.5C 11.5002,19.5056 11.3335,9.50555 11.5,-0.5 Z"/></g>
<g><path style="opacity:1" fill="#a7906f" d="M 832.5,6.5 C 1399.67,5.5001 1967,5.16676 2534.5,5.5C 2534.5,6.83333 2534.5,8.16667 2534.5,9.5C 2533.6,8.79105 2533.26,7.79105 2533.5,6.5C 1966.5,6.5 1399.5,6.5 832.5,6.5 Z"/></g>
<g><path style="opacity:1" fill="#efe0c0" d="M 3177.5,942.5 C 3179.16,952.292 3180.16,962.292 3180.5,972.5C 3181.34,1027.91 3183.84,1083.25 3188,1138.5C 3195.64,1233.66 3211.64,1327.32 3236,1419.5C 3256.93,1496.53 3286.93,1569.86 3326,1639.5C 3428.84,1814.55 3581.68,1912.38 3784.5,1933C 3872.08,1939.92 3959.08,1935.59 4045.5,1920C 4204.82,1888.73 4356.15,1835.57 4499.5,1760.5C 4499.5,1941.17 4499.5,2121.83 4499.5,2302.5C 4337.71,2387.07 4167.38,2449.23 3988.5,2489C 3899.01,2507.76 3808.51,2517.92 3717,2519.5C 3650.47,2518.93 3584.64,2512.09 3519.5,2499C 3351.56,2462.3 3215.06,2376.13 3110,2240.5C 3056.09,2168.02 3013.09,2089.36 2981,2004.5C 2944.04,1904.01 2917.38,1800.68 2901,1694.5C 2881.38,1562.96 2871.55,1430.62 2871.5,1297.5C 2767.82,1313.86 2663.48,1319.69 2558.5,1315C 2412.51,1310.06 2270.84,1283.39 2133.5,1235C 1853.98,1131.65 1661.65,940.479 1556.5,661.5C 1381.31,721.897 1201.31,743.064 1016.5,725C 742.844,689.806 550.844,545.973 440.5,293.5C 403.8,296.304 367.133,295.804 330.5,292C 280.7,287.55 232.7,275.883 186.5,257C 77.5535,208.832 22.5535,124.999 21.5,5.5C 288.5,5.5 555.5,5.5 822.5,5.5C 826.324,36.8041 834.49,66.8041 847,95.5C 868.441,144.608 903.608,180.108 952.5,202C 989.886,215.841 1028.55,221.175 1068.5,218C 1129.56,213.406 1187.56,198.239 1242.5,172.5C 1243.48,172.977 1244.31,173.643 1245,174.5C 1281.88,278.051 1348.38,356.551 1444.5,410C 1497.53,438.013 1553.53,458.347 1612.5,471C 1679.15,483.953 1746.48,490.453 1814.5,490.5C 1930.17,489.124 2044.17,475.124 2156.5,448.5C 2181.47,531.197 2216.64,609.531 2262,683.5C 2372.8,858.181 2530.97,960.348 2736.5,990C 2887.2,1007.04 3034.2,991.207 3177.5,942.5 Z"/></g>
<g><path style="opacity:1" fill="#e1c899" d="M 832.5,6.5 C 1399.5,6.5 1966.5,6.5 2533.5,6.5C 2533.26,7.79105 2533.6,8.79105 2534.5,9.5C 2535.83,55.1181 2541.66,100.118 2552,144.5C 2561.84,185.841 2578.51,224.175 2602,259.5C 2629.35,297.607 2665.85,322.44 2711.5,334C 2742.69,339.29 2774.02,339.956 2805.5,336C 2832.37,331.032 2858.7,324.032 2884.5,315C 2912.46,303.521 2939.79,290.687 2966.5,276.5C 2970.7,299.325 2975.86,321.991 2982,344.5C 3048.42,573.779 3196.59,654.946 3426.5,588C 3504.71,561.731 3578.04,525.564 3646.5,479.5C 3656.3,485.237 3666.3,490.737 3676.5,496C 3725.87,516.73 3775.2,516.397 3824.5,495C 3873.1,471.599 3914.27,438.766 3948,396.5C 3947.49,429.825 3947.49,463.158 3948,496.5C 3948.79,544.849 3953.12,592.849 3961,640.5C 3973.86,723.596 4000.19,801.93 4040,875.5C 4081.41,948.248 4137.25,1007.41 4207.5,1053C 4296.91,1107.47 4394.24,1134.64 4499.5,1134.5C 4499.5,1339.5 4499.5,1544.5 4499.5,1749.5C 4371.08,1816.59 4236.08,1866.76 4094.5,1900C 4006.62,1920.22 3917.62,1928.89 3827.5,1926C 3594.82,1915.16 3424.65,1807.33 3317,1602.5C 3286.7,1542.28 3262.7,1479.61 3245,1414.5C 3219.09,1315.44 3202.75,1214.77 3196,1112.5C 3192.01,1050.9 3189.51,989.231 3188.5,927.5C 3038.06,981.782 2883.39,998.615 2724.5,978C 2540,948.395 2394.5,857.229 2288,704.5C 2243.53,637.896 2207.86,566.896 2181,491.5C 2175.53,472.562 2169.03,454.228 2161.5,436.5C 2074.13,458.302 1985.47,472.136 1895.5,478C 1820.24,483.11 1745.24,480.776 1670.5,471C 1609.27,462.867 1550.27,446.867 1493.5,423C 1373.07,370.418 1291.41,282.251 1248.5,158.5C 1201.42,180.828 1152.08,196.328 1100.5,205C 946.746,225.376 857.412,159.209 832.5,6.5 Z"/></g>
<g><path style="opacity:1" fill="#d5a062" d="M 4499.5,5.5 C 4499.5,378.833 4499.5,752.167 4499.5,1125.5C 4457.67,1124.94 4416.34,1120.1 4375.5,1111C 4248.56,1082.29 4147.73,1015.12 4073,909.5C 4026.87,839.704 3995.54,763.704 3979,681.5C 3963.81,607.114 3956.31,531.947 3956.5,456C 3957.38,425.487 3958.21,394.987 3959,364.5C 3928.37,410.05 3889.54,446.884 3842.5,475C 3775.17,512.933 3709.67,510.1 3646,466.5C 3587.08,507.715 3523.91,541.215 3456.5,567C 3408.82,585.253 3359.48,596.586 3308.5,601C 3240.62,606.865 3178.62,590.865 3122.5,553C 3083.56,523.07 3053.06,486.237 3031,442.5C 3002.67,384.515 2983.34,323.515 2973,259.5C 2927.3,288.512 2878.13,309.345 2825.5,322C 2702.35,348.19 2618.85,302.69 2575,185.5C 2555.52,127.143 2545.36,67.3094 2544.5,6C 3196.17,5.5 3847.83,5.33333 4499.5,5.5 Z"/></g>
<g><path style="opacity:1" fill="#ae9b82" d="M 3177.5,942.5 C 3178.21,941.596 3179.21,941.263 3180.5,941.5C 3180.5,951.833 3180.5,962.167 3180.5,972.5C 3180.16,962.292 3179.16,952.292 3177.5,942.5 Z"/></g>
</svg>
