<?xml version="1.0" encoding="UTF-8" standalone="no"?>
<!DOCTYPE svg PUBLIC "-//W3C//DTD SVG 1.1//EN" "http://www.w3.org/Graphics/SVG/1.1/DTD/svg11.dtd">
<svg xmlns="http://www.w3.org/2000/svg" version="1.1" viewBox="0.00 0.00 1323.00 1584.00">
<g stroke-width="2.00" fill="none" stroke-linecap="butt">
<path stroke="#5d5653" vector-effect="non-scaling-stroke" d="
  M 562.99 49.23
  Q 562.61 48.80 561.87 48.88
  Q 561.26 48.94 561.01 49.49
  L 545.54 84.16
  A 4.59 4.56 50.7 0 0 545.26 87.04
  Q 551.80 115.45 558.70 143.66
  Q 559.09 145.25 558.79 146.86
  Q 551.98 182.94 544.97 218.98
  Q 544.53 221.22 545.40 223.31
  Q 571.41 285.70 596.97 348.14
  Q 597.73 349.99 599.44 351.00
  L 883.49 519.78
  Q 883.94 520.05 884.46 520.08
  Q 885.32 520.13 885.82 521.21
  A 0.27 0.27 0.0 0 1 885.56 521.59
  Q 877.82 521.27 870.00 520.70
  Q 775.29 513.73 680.55 506.89
  Q 678.24 506.73 676.10 507.60
  Q 560.19 554.91 444.16 601.93
  C 441.55 602.98 438.01 605.06 435.16 604.05
  Q 311.14 560.01 187.58 516.03
  Q 186.33 515.58 185.00 515.76
  L 10.77 539.95
  A 0.42 0.42 0.0 0 1 10.48 539.18
  C 104.56 476.47 198.85 413.97 293.27 351.68
  Q 295.77 350.03 297.57 347.63
  Q 355.43 270.58 412.99 193.76
  A 1.66 1.65 -40.7 0 0 413.13 191.98
  Q 409.18 184.62 405.23 177.00
  C 404.41 175.43 403.66 174.57 404.45 172.73
  Q 421.06 133.76 437.79 94.82
  A 1.33 1.28 -1.1 0 1 438.46 94.15
  Q 462.99 83.44 501.23 67.58
  Q 516.17 61.39 558.77 43.27
  C 559.90 42.79 561.00 41.87 562.13 41.28
  Q 562.54 41.06 562.32 40.65
  Q 562.22 40.47 562.01 40.39"
/>
<path stroke="#5d5653" vector-effect="non-scaling-stroke" d="
  M 642.10 816.44
  Q 639.99 816.48 638.19 816.36
  Q 636.48 816.25 634.36 815.58
  Q 584.11 799.64 534.03 784.09
  A 2.24 2.23 37.8 0 0 532.18 784.32
  L 469.52 822.61
  A 0.96 0.95 43.4 0 1 468.56 822.63
  L 459.80 817.80
  A 1.62 1.61 -76.2 0 1 458.97 816.42
  L 458.47 784.52
  A 0.58 0.57 -6.9 0 0 457.76 783.97
  L 449.53 785.82
  A 0.61 0.61 0.0 0 0 449.05 786.46
  L 469.45 1024.56
  Q 469.50 1025.17 470.06 1025.44
  L 638.83 1107.81
  A 1.45 1.43 46.6 0 0 639.98 1107.85
  Q 671.07 1095.50 702.30 1083.02
  C 707.38 1080.99 712.38 1080.42 717.67 1079.73
  A 1.56 1.56 0.0 0 0 718.99 1078.53
  L 738.81 992.24
  A 2.52 2.52 0.0 0 0 738.22 989.99
  Q 728.03 978.75 717.13 967.37
  Q 710.65 960.61 704.82 953.24
  Q 703.30 951.33 702.87 949.03
  Q 701.77 943.08 700.88 933.00
  C 698.31 903.96 695.45 876.69 693.67 845.80
  C 693.50 842.96 692.68 837.67 692.98 833.49
  Q 693.04 832.73 693.51 833.33
  L 693.81 833.71"
/>
<path stroke="#5e5556" vector-effect="non-scaling-stroke" d="
  M 776.60 1384.52
  Q 776.61 1384.76 776.49 1384.96
  Q 776.23 1385.41 775.96 1384.96
  Q 775.18 1383.63 774.46 1382.26
  Q 773.80 1381.00 773.39 1379.46
  Q 756.91 1317.92 740.41 1256.38
  C 739.61 1253.40 738.99 1249.65 738.07 1246.75
  Q 733.98 1233.77 730.99 1221.04
  A 1.52 1.52 0.0 0 0 729.50 1219.87
  Q 705.26 1220.22 682.00 1219.82
  Q 634.78 1219.00 587.56 1219.96
  C 586.22 1219.99 584.04 1219.52 582.16 1220.02
  A 0.63 0.62 -12.6 0 0 581.70 1220.73
  L 617.28 1429.99
  Q 617.33 1430.29 617.63 1430.30
  Q 650.28 1431.32 683.00 1431.05
  Q 687.95 1431.01 691.14 1430.20
  A 1.18 1.17 -86.4 0 0 691.93 1429.50
  L 712.29 1376.99
  Q 712.49 1376.50 713.01 1376.60
  Q 740.85 1381.89 768.75 1387.19
  Q 771.84 1387.78 773.01 1389.78"
/>
<path stroke="#645c5a" vector-effect="non-scaling-stroke" d="
  M 579.96 1537.52
  Q 586.24 1531.41 584.74 1524.97
  Q 582.96 1517.40 578.77 1512.48
  Q 567.19 1498.86 552.68 1488.93
  A 2.06 2.06 0.0 0 1 551.82 1486.85
  L 560.88 1439.82
  A 1.48 1.47 -73.3 0 0 560.01 1438.19
  L 548.14 1433.11
  A 1.20 1.17 7.5 0 1 547.43 1432.21
  L 546.63 1427.36
  A 1.05 1.05 0.0 0 0 545.82 1426.51
  L 491.74 1414.15
  A 0.76 0.76 0.0 0 0 490.81 1414.89
  L 490.70 1434.70
  A 0.79 0.72 -28.4 0 1 490.54 1435.16
  C 488.65 1437.55 485.64 1437.69 483.08 1439.17
  A 1.15 1.14 -10.6 0 0 482.53 1439.96
  Q 481.62 1445.27 482.54 1450.49
  Q 483.78 1457.56 483.79 1457.61
  Q 485.44 1472.54 486.35 1487.57
  Q 486.38 1488.09 486.07 1488.50
  C 478.35 1499.06 469.52 1509.72 473.87 1524.13
  C 474.26 1525.42 476.19 1527.21 477.05 1528.89
  Q 478.07 1530.87 479.96 1532.53
  Q 480.58 1533.07 480.12 1533.85"
/>
<path stroke="#645c5a" vector-effect="non-scaling-stroke" d="
  M 431.93 1537.55
  Q 438.96 1528.65 434.65 1519.89
  Q 432.02 1514.55 429.18 1510.46
  C 428.12 1508.93 426.38 1507.76 425.05 1506.30
  C 421.83 1502.77 418.32 1499.64 414.80 1496.41
  C 412.76 1494.54 409.94 1492.90 407.75 1490.71
  C 406.51 1489.46 405.06 1489.23 404.08 1487.38
  Q 403.81 1486.87 403.92 1486.31
  L 412.54 1439.43
  A 0.98 0.98 0.0 0 0 411.97 1438.37
  L 399.70 1432.97
  Q 399.20 1432.75 399.11 1432.22
  L 398.38 1427.69
  A 1.55 1.55 0.0 0 0 397.19 1426.43
  L 343.57 1414.18
  Q 342.61 1413.96 342.62 1414.94
  L 342.69 1435.05
  A 1.69 1.68 81.3 0 1 341.51 1436.66
  L 334.82 1438.79
  Q 334.21 1438.98 334.27 1439.63
  L 338.32 1487.45
  Q 338.36 1487.97 338.02 1488.37
  C 329.62 1498.33 323.19 1508.94 324.28 1522.58
  Q 324.32 1523.08 324.65 1523.47
  Q 325.01 1523.89 325.06 1524.25
  Q 325.11 1524.66 324.35 1524.88"
/>
<path stroke="#5e5556" vector-effect="non-scaling-stroke" d="
  M 635.75 555.97
  L 879.01 523.75
  A 0.13 0.13 0.0 0 0 879.02 523.49
  Q 873.02 522.55 867.26 522.14
  Q 773.98 515.46 680.72 508.66
  Q 678.51 508.50 676.46 509.35
  Q 656.45 517.69 635.57 525.98
  A 1.42 1.42 0.0 0 0 634.68 527.30
  L 634.61 554.98
  A 1.01 1.00 -3.8 0 0 635.75 555.97"
/>
<path stroke="#5e5556" vector-effect="non-scaling-stroke" d="
  M 14.43 542.32
  L 260.29 585.53
  A 0.84 0.83 4.9 0 0 261.27 584.71
  L 261.24 544.79
  A 0.94 0.94 0.0 0 0 260.61 543.90
  Q 223.32 530.70 188.02 518.14
  Q 186.00 517.43 183.89 517.72
  Q 98.20 529.65 14.45 541.20
  Q 10.84 541.69 14.43 542.32"
/>
<path stroke="#ae9d84" vector-effect="non-scaling-stroke" d="
  M 583.46 699.58
  C 599.92 670.65 615.72 641.24 631.85 612.08
  Q 632.85 610.27 632.86 608.20
  Q 632.99 567.78 632.89 527.58
  Q 632.89 527.14 632.49 527.31
  L 437.94 606.39
  Q 437.22 606.68 436.49 606.42
  L 263.49 544.96
  A 0.37 0.36 -80.1 0 0 263.00 545.31
  Q 262.94 576.61 262.89 607.74
  Q 262.89 609.79 263.88 611.58
  Q 288.14 655.56 312.49 699.57
  Q 312.73 700.00 313.17 700.23
  Q 372.44 730.59 431.72 760.95
  Q 433.77 762.00 436.07 762.01
  Q 448.00 762.06 459.95 761.99
  Q 462.26 761.97 464.32 760.92
  Q 523.54 730.58 582.76 700.25
  Q 583.21 700.02 583.46 699.58"
/>
<path stroke="#ae9d84" vector-effect="non-scaling-stroke" d="
  M 440.54 773.17
  L 447.72 783.29
  A 0.31 0.31 0.0 0 0 448.23 783.28
  L 455.01 773.23
  A 1.48 1.45 10.2 0 1 455.89 772.63
  L 514.48 758.85
  Q 515.00 758.73 515.00 758.20
  L 515.00 737.54
  A 0.32 0.32 0.0 0 0 514.54 737.26
  Q 489.83 749.92 465.08 762.64
  Q 462.98 763.72 460.64 763.79
  Q 448.00 764.17 435.34 763.81
  Q 433.03 763.74 430.94 762.67
  Q 406.31 749.98 381.40 737.26
  A 0.27 0.26 12.9 0 0 381.01 737.50
  L 381.09 758.34
  Q 381.09 758.84 381.58 758.95
  L 439.74 772.63
  Q 440.24 772.75 440.54 773.17"
/>
<path stroke="#645c5a" vector-effect="non-scaling-stroke" d="
  M 435.25 782.08
  A 0.55 0.55 0.0 0 1 435.93 781.55
  L 445.03 783.65
  Q 445.76 783.81 445.33 783.20
  L 439.48 774.84
  A 1.16 1.13 78.5 0 0 438.82 774.39
  L 369.47 757.96
  Q 368.10 757.64 367.87 759.02
  L 364.24 781.06
  Q 364.00 782.49 365.23 783.26
  Q 394.14 801.35 423.55 819.16
  C 425.53 820.36 426.16 821.18 428.54 819.84
  Q 431.33 818.25 433.68 816.88
  A 2.41 2.39 75.4 0 0 434.87 814.84
  L 435.25 782.08"
/>
<path stroke="#645c5a" vector-effect="non-scaling-stroke" d="
  M 460.25 782.07
  L 460.65 814.96
  A 2.22 2.22 0.0 0 0 461.80 816.87
  L 468.37 820.47
  A 1.59 1.58 43.3 0 0 469.96 820.43
  L 530.88 783.06
  A 1.39 1.37 69.8 0 0 531.51 781.66
  L 527.86 759.49
  Q 527.55 757.63 525.72 758.06
  L 457.18 774.26
  A 1.95 1.94 -79.2 0 0 456.01 775.06
  L 450.46 783.28
  Q 450.03 783.92 450.78 783.73
  L 459.56 781.54
  A 0.56 0.55 -7.1 0 1 460.25 782.07"
/>
<path stroke="#5d5653" vector-effect="non-scaling-stroke" d="
  M 304.25 789.17
  Q 288.99 790.49 273.75 792.00
  Q 270.45 792.33 261.84 791.35
  C 250.98 790.11 240.44 789.67 229.78 788.89
  A 1.02 1.02 0.0 0 0 228.72 789.66
  Q 211.99 858.30 195.21 926.93
  Q 194.22 930.96 192.31 934.61
  Q 177.02 963.72 161.65 992.62
  A 3.65 3.64 54.0 0 0 161.28 994.97
  Q 167.55 1030.53 173.64 1065.87
  Q 174.53 1071.00 174.40 1076.20
  Q 173.47 1114.98 172.45 1153.81
  A 0.56 0.55 4.5 0 0 172.94 1154.38
  C 180.29 1155.32 186.47 1152.66 192.94 1150.38
  A 5.21 5.20 -43.4 0 1 196.68 1150.48
  C 199.96 1151.85 202.86 1153.29 206.64 1153.12
  Q 292.82 1149.18 378.83 1145.23
  A 1.30 1.29 14.9 0 0 379.86 1144.64
  Q 387.92 1132.22 396.07 1119.46
  Q 397.42 1117.34 397.79 1114.85
  Q 422.35 950.67 446.88 786.68
  A 0.72 0.72 0.0 0 0 446.33 785.87
  L 437.70 783.86
  A 0.44 0.44 0.0 0 0 437.16 784.28
  L 436.57 816.21
  A 2.01 1.99 -13.9 0 1 435.52 817.93
  L 427.45 822.31
  A 1.76 1.75 46.2 0 1 425.69 822.27
  L 363.42 784.31
  A 1.29 1.28 -30.5 0 0 362.68 784.12
  Q 341.25 785.37 320.00 787.63
  C 317.37 787.91 313.88 787.90 310.97 788.29
  Q 305.12 789.09 304.25 789.17"
/>
<path stroke="#645c5a" vector-effect="non-scaling-stroke" d="
  M 467.82 1025.20
  L 447.94 795.13
  A 0.28 0.28 0.0 0 0 447.39 795.11
  L 402.91 1093.05
  A 0.91 0.91 0.0 0 0 403.81 1094.10
  L 552.72 1094.07
  A 1.43 1.41 73.7 0 1 553.92 1094.74
  L 585.55 1145.87
  A 0.24 0.24 0.0 0 0 585.98 1145.69
  L 569.90 1076.93
  Q 569.67 1075.97 568.79 1075.54
  L 468.68 1026.46
  A 1.55 1.54 11.0 0 1 467.82 1025.20"
/>
<path stroke="#5e5556" vector-effect="non-scaling-stroke" d="
  M 576.34 1169.41
  C 611.36 1169.09 644.78 1169.57 678.98 1169.15
  Q 679.07 1169.15 679.52 1169.22
  Q 680.11 1169.32 680.19 1168.56
  A 0.77 0.74 -55.1 0 0 680.13 1168.18
  L 651.60 1106.16
  A 0.95 0.94 -23.0 0 0 650.39 1105.68
  L 640.27 1109.72
  A 2.35 2.35 0.0 0 1 638.36 1109.65
  L 572.70 1077.53
  A 0.45 0.44 6.7 0 0 572.07 1078.02
  L 589.31 1151.95
  A 0.94 0.90 59.8 0 1 589.11 1152.77
  L 575.80 1168.27
  Q 574.80 1169.43 576.34 1169.41"
/>
<path stroke="#ae9d84" vector-effect="non-scaling-stroke" d="
  M 690.51 1156.70
  L 712.52 1162.91
  Q 713.09 1163.08 713.64 1162.86
  L 745.92 1150.33
  A 0.38 0.37 -23.4 0 0 746.13 1149.82
  L 713.89 1082.82
  Q 713.66 1082.35 713.14 1082.38
  Q 708.43 1082.60 706.21 1083.44
  Q 694.85 1087.72 653.44 1104.57
  Q 652.92 1104.78 653.15 1105.29
  L 681.30 1166.49
  Q 681.61 1167.16 682.07 1166.58
  L 689.54 1157.02
  Q 689.92 1156.53 690.51 1156.70"
/>
<path stroke="#997453" vector-effect="non-scaling-stroke" d="
  M 424.83 1170.71
  Q 424.52 1170.62 424.34 1171.00
  Q 424.24 1171.21 424.28 1171.52
  Q 427.91 1194.15 431.90 1216.38
  A 1.33 1.32 84.8 0 0 433.20 1217.47
  L 469.82 1217.70
  A 0.77 0.77 0.0 0 0 470.60 1216.93
  L 470.63 1171.29
  Q 470.63 1170.81 470.17 1170.64
  L 469.80 1170.51"
/>
<path stroke="#5a514d" vector-effect="non-scaling-stroke" d="
  M 469.80 1170.51
  Q 471.26 1169.76 471.21 1167.25
  Q 470.96 1155.50 471.00 1143.94
  A 2.01 2.00 -20.6 0 1 471.69 1142.43
  L 503.94 1114.50
  A 2.91 2.89 -65.3 0 1 505.84 1113.79
  L 548.54 1113.74
  A 1.31 1.29 69.3 0 1 549.52 1114.19
  Q 557.76 1123.90 565.94 1133.99
  Q 567.22 1135.57 567.56 1137.57
  Q 570.14 1152.86 572.74 1167.97
  A 0.40 0.40 0.0 0 0 573.43 1168.17
  L 586.90 1152.49
  A 0.80 0.78 -40.8 0 0 586.98 1151.57
  L 552.98 1096.52
  A 1.44 1.44 0.0 0 0 551.75 1095.83
  L 402.94 1095.85
  A 0.54 0.53 4.4 0 0 402.41 1096.30
  L 400.04 1112.22
  Q 399.97 1112.69 400.28 1113.06
  L 418.46 1134.75
  A 2.66 2.64 -70.0 0 1 419.04 1136.01
  L 424.83 1170.71"
/>
<path stroke="#876d5a" vector-effect="non-scaling-stroke" d="
  M 469.80 1170.51
  L 424.83 1170.71"
/>
<path stroke="#b18d50" vector-effect="non-scaling-stroke" d="
  M 1246.85 1183.94
  C 1268.09 1184.71 1286.31 1168.98 1298.24 1153.00
  Q 1298.61 1152.50 1298.06 1152.79
  C 1254.13 1175.90 1194.49 1157.14 1153.38 1135.12
  C 1141.61 1128.81 1129.00 1121.03 1117.90 1116.35
  Q 1063.19 1093.29 1007.30 1115.05
  Q 960.99 1133.08 925.56 1171.30
  Q 925.28 1171.60 925.28 1172.01
  L 925.28 1217.29
  A 1.19 1.18 -68.8 0 0 925.66 1218.16
  C 929.43 1221.65 933.36 1226.14 936.55 1229.11
  Q 1000.80 1288.88 1088.53 1295.08
  C 1139.09 1298.66 1191.19 1289.63 1238.28 1271.05
  A 0.29 0.28 -56.4 0 0 1238.17 1270.50
  Q 1219.92 1270.98 1202.52 1265.72
  C 1189.55 1261.80 1173.28 1252.09 1176.92 1235.71
  Q 1177.11 1234.82 1177.51 1235.65
  Q 1179.48 1239.78 1181.00 1240.57
  Q 1189.59 1245.07 1200.51 1246.36
  Q 1220.25 1248.68 1240.22 1247.77
  A 0.20 0.20 0.0 0 0 1240.27 1247.38
  C 1227.77 1243.15 1220.20 1231.81 1218.12 1219.05
  Q 1217.92 1217.85 1219.07 1218.25
  C 1252.20 1229.82 1286.90 1223.79 1310.49 1196.78
  A 0.26 0.25 12.0 0 0 1310.22 1196.37
  C 1288.61 1203.02 1264.26 1197.79 1246.68 1184.42
  Q 1246.01 1183.91 1246.85 1183.94"
/>
<path stroke="#5a514d" vector-effect="non-scaling-stroke" d="
  M 430.62 1217.30
  C 430.04 1215.08 430.02 1212.19 429.29 1209.68
  C 428.73 1207.78 429.10 1206.06 428.61 1204.18
  Q 427.58 1200.29 427.57 1200.24
  Q 425.61 1187.95 423.36 1175.72
  C 422.76 1172.48 422.78 1168.76 422.17 1165.26
  Q 419.81 1151.89 417.57 1138.41
  Q 417.23 1136.34 415.91 1134.72
  Q 408.11 1125.15 400.13 1115.69
  Q 399.68 1115.15 399.53 1115.84
  C 399.22 1117.36 399.09 1118.23 398.26 1119.54
  Q 389.63 1133.04 380.84 1146.52
  Q 380.55 1146.96 380.03 1146.98
  L 325.02 1149.50
  Q 324.52 1149.52 324.51 1150.02
  Q 323.83 1191.76 324.33 1233.52
  Q 324.47 1244.81 324.46 1253.52
  Q 324.42 1330.45 324.52 1407.50
  Q 324.52 1408.03 325.04 1408.15
  L 468.25 1440.79
  A 0.55 0.54 1.5 0 0 468.91 1440.17
  Q 450.41 1331.41 431.87 1222.47
  C 431.58 1220.73 431.06 1219.02 430.62 1217.30"
/>
<path stroke="#5a514d" vector-effect="non-scaling-stroke" d="
  M 472.14 1216.14
  Q 472.61 1222.75 472.61 1226.50
  Q 472.42 1317.10 472.70 1407.68
  Q 472.70 1408.01 473.02 1408.08
  L 616.73 1440.84
  A 0.43 0.43 0.0 0 0 617.25 1440.35
  Q 596.91 1321.43 576.74 1202.77
  Q 571.27 1170.59 565.81 1138.35
  Q 565.47 1136.34 564.18 1134.75
  Q 556.49 1125.24 548.56 1115.88
  Q 548.23 1115.49 547.73 1115.49
  L 506.13 1115.46
  Q 505.61 1115.46 505.21 1115.80
  L 472.96 1143.50
  Q 472.69 1143.74 472.68 1144.11
  L 472.28 1171.73
  A 0.98 0.93 70.2 0 1 471.98 1172.41
  Q 471.57 1172.78 471.57 1173.25
  Q 471.67 1194.43 471.61 1215.61
  Q 471.61 1215.63 471.62 1215.64
  L 471.95 1215.83
  Q 472.13 1215.93 472.14 1216.14"
/>
<path stroke="#5e5556" vector-effect="non-scaling-stroke" d="
  M 249.62 1157.11
  Q 251.91 1156.24 253.74 1158.51
  Q 257.56 1163.25 261.09 1167.92
  A 3.33 3.32 71.5 0 0 263.75 1169.25
  L 322.06 1169.38
  A 0.69 0.69 0.0 0 0 322.75 1168.69
  L 322.74 1150.05
  A 0.42 0.42 0.0 0 0 322.30 1149.63
  L 243.31 1153.19
  Q 242.71 1153.22 242.72 1153.82
  L 242.80 1158.71
  A 0.47 0.46 -8.2 0 0 243.39 1159.15
  Q 246.61 1158.25 249.62 1157.11"
/>
<path stroke="#ae9d84" vector-effect="non-scaling-stroke" d="
  M 228.58 1164.83
  L 195.23 1151.88
  Q 194.75 1151.69 194.26 1151.86
  L 166.74 1161.00
  Q 166.32 1161.14 166.28 1161.59
  Q 165.72 1168.68 166.18 1170.78
  Q 171.23 1194.12 176.53 1217.62
  Q 176.62 1218.03 177.05 1218.03
  L 251.27 1218.01
  Q 251.81 1218.01 251.91 1217.47
  L 260.34 1170.44
  Q 260.43 1169.95 260.12 1169.56
  L 251.98 1159.12
  Q 251.63 1158.67 251.09 1158.83
  L 229.55 1164.88
  Q 229.06 1165.01 228.58 1164.83"
/>
<path stroke="#ae9d84" vector-effect="non-scaling-stroke" d="
  M 682.75 1171.04
  L 681.97 1171.02
  Q 681.20 1171.01 681.34 1171.77
  L 689.53 1217.57
  Q 689.62 1218.02 690.08 1218.02
  L 765.22 1218.03
  Q 765.69 1218.03 765.79 1217.57
  Q 771.08 1193.55 776.33 1169.52
  Q 776.75 1167.62 776.04 1161.68
  Q 775.98 1161.18 775.50 1161.02
  L 747.91 1151.84
  A 1.31 1.26 42.6 0 0 747.03 1151.86
  L 713.72 1164.84
  Q 713.24 1165.02 712.74 1164.88
  L 691.19 1158.82
  Q 690.65 1158.67 690.30 1159.12
  L 682.72 1168.78
  Q 682.39 1169.20 682.65 1169.66
  L 683.09 1170.45
  Q 683.43 1171.05 682.75 1171.04"
/>
<path stroke="#ae9d84" vector-effect="non-scaling-stroke" d="
  M 208.73 1155.14
  L 228.69 1162.90
  Q 229.18 1163.09 229.68 1162.94
  L 240.28 1159.95
  Q 240.84 1159.79 240.83 1159.21
  L 240.78 1153.82
  Q 240.77 1153.37 240.32 1153.39
  L 208.78 1154.84
  Q 208.04 1154.88 208.73 1155.14"
/>
<path stroke="#997453" vector-effect="non-scaling-stroke" d="
  M 174.26 1156.68
  A 0.32 0.31 42.5 0 0 174.23 1156.07
  Q 173.30 1155.87 172.45 1156.22
  A 0.48 0.48 0.0 0 0 172.78 1157.13
  L 174.26 1156.68"
/>
<path stroke="#997453" vector-effect="non-scaling-stroke" d="
  M 912.90 1218.40
  A 0.35 0.35 0.0 0 0 913.05 1218.68
  L 917.18 1221.55
  A 0.35 0.35 0.0 0 0 917.73 1221.26
  L 917.74 1167.50
  A 0.35 0.35 0.0 0 0 917.18 1167.22
  L 912.94 1170.43
  A 0.35 0.35 0.0 0 0 912.80 1170.71
  L 912.90 1218.40"
/>
<path stroke="#997453" vector-effect="non-scaling-stroke" d="
  M 924.14 1218.68
  A 0.31 0.31 0.0 0 0 924.27 1218.43
  L 924.32 1170.70
  A 0.31 0.31 0.0 0 0 924.20 1170.46
  L 920.00 1167.24
  A 0.31 0.31 0.0 0 0 919.50 1167.49
  L 919.50 1221.28
  A 0.31 0.31 0.0 0 0 919.99 1221.54
  L 924.14 1218.68"
/>
<path stroke="#997453" vector-effect="non-scaling-stroke" d="
  M 24.57 1170.07
  A 0.63 0.63 0.0 0 0 23.94 1170.70
  L 23.87 1216.81
  A 0.63 0.63 0.0 0 0 24.50 1217.44
  L 173.29 1217.42
  A 0.63 0.63 0.0 0 0 173.90 1216.66
  L 163.81 1170.59
  A 0.63 0.63 0.0 0 0 163.19 1170.09
  L 24.57 1170.07"
/>
<path stroke="#997453" vector-effect="non-scaling-stroke" d="
  M 262.47 1170.99
  A 0.47 0.47 0.0 0 0 262.01 1171.38
  L 253.87 1216.88
  A 0.47 0.47 0.0 0 0 254.33 1217.43
  L 321.97 1217.79
  A 0.47 0.47 0.0 0 0 322.44 1217.32
  L 322.23 1171.48
  A 0.47 0.47 0.0 0 0 321.76 1171.01
  L 262.47 1170.99"
/>
<path stroke="#997453" vector-effect="non-scaling-stroke" d="
  M 686.06 1217.65
  A 0.97 0.97 0.0 0 0 687.01 1216.51
  L 678.91 1171.79
  A 0.97 0.97 0.0 0 0 677.96 1170.99
  L 574.15 1170.94
  A 0.97 0.97 0.0 0 0 573.19 1172.07
  L 580.73 1216.79
  A 0.97 0.97 0.0 0 0 581.69 1217.60
  L 686.06 1217.65"
/>
<path stroke="#997453" vector-effect="non-scaling-stroke" d="
  M 778.21 1170.98
  A 0.34 0.34 0.0 0 0 777.88 1171.25
  L 767.64 1217.60
  A 0.34 0.34 0.0 0 0 767.97 1218.01
  L 910.63 1218.00
  A 0.34 0.34 0.0 0 0 910.97 1217.66
  L 911.02 1171.33
  A 0.34 0.34 0.0 0 0 910.68 1170.99
  L 778.21 1170.98"
/>
<path stroke="#5e5556" vector-effect="non-scaling-stroke" d="
  M 297.88 1457.83
  L 340.34 1431.06
  Q 340.79 1430.78 340.79 1430.24
  L 340.78 1414.05
  A 0.63 0.62 6.4 0 0 340.29 1413.44
  L 323.97 1409.73
  Q 322.76 1409.46 322.77 1408.22
  L 322.82 1220.63
  A 1.18 1.18 0.0 0 0 321.64 1219.45
  L 229.03 1219.77
  A 0.59 0.59 0.0 0 0 228.44 1220.44
  Q 235.27 1270.68 242.19 1321.29
  Q 242.73 1325.27 244.24 1329.00
  Q 269.32 1390.78 294.45 1452.54
  C 295.13 1454.21 295.45 1456.19 297.02 1457.74
  A 0.69 0.69 0.0 0 0 297.88 1457.83"
/>
<path stroke="#5e5556" vector-effect="non-scaling-stroke" d="
  M 471.02 1220.32
  A 0.84 0.84 0.0 0 0 470.17 1219.48
  L 434.27 1219.88
  A 0.84 0.84 0.0 0 0 433.46 1220.86
  L 469.00 1429.78
  A 0.84 0.84 0.0 0 0 469.82 1430.47
  L 488.16 1430.60
  A 0.84 0.84 0.0 0 0 489.01 1429.76
  L 489.00 1414.22
  A 0.84 0.84 0.0 0 0 488.35 1413.40
  L 471.60 1409.58
  A 0.84 0.84 0.0 0 1 470.95 1408.76
  L 471.02 1220.32"
/>
<path stroke="#5e5556" vector-effect="non-scaling-stroke" d="
  M 413.40 1430.74
  A 0.27 0.27 0.0 0 0 413.47 1430.21
  L 400.57 1427.16
  Q 399.98 1427.02 400.12 1427.61
  L 400.62 1429.73
  Q 400.78 1430.38 401.45 1430.40
  L 413.40 1430.74"
/>
<path stroke="#5e5556" vector-effect="non-scaling-stroke" d="
  M 549.05 1430.20
  A 0.34 0.34 0.0 0 0 549.38 1430.45
  L 560.56 1430.61
  A 0.34 0.34 0.0 0 0 560.64 1429.94
  L 548.77 1427.19
  A 0.34 0.34 0.0 0 0 548.36 1427.61
  L 549.05 1430.20"
/>
<path stroke="#ae9d84" vector-effect="non-scaling-stroke" d="
  M 424.47 714.72
  L 484.12 709.59
  A 1.40 1.34 19.7 0 0 484.97 709.21
  L 499.38 695.62
  Q 499.76 695.26 499.75 694.74
  L 499.75 684.11
  A 0.28 0.28 0.0 0 0 499.41 683.84
  Q 483.14 687.81 466.94 691.63
  Q 457.67 693.81 447.89 695.05
  Q 429.70 697.35 411.52 699.72
  A 1.30 1.27 -75.6 0 0 410.63 700.26
  L 407.83 704.23
  Q 407.51 704.69 407.98 704.99
  L 423.23 714.43
  Q 423.80 714.78 424.47 714.72"
/>
<path stroke="#ae9d84" vector-effect="non-scaling-stroke" d="
  M 466.12 700.36
  Q 470.12 699.89 474.18 699.55
  Q 474.54 699.52 474.82 699.73
  L 476.18 700.76
  A 0.59 0.59 0.0 0 0 477.04 700.60
  L 478.00 699.00
  A 1.14 1.10 -84.6 0 1 478.56 698.52
  L 497.52 690.99
  Q 498.03 690.78 498.03 690.23
  L 498.02 686.55
  Q 498.02 686.04 497.53 686.16
  Q 482.53 689.76 467.52 693.34
  Q 458.54 695.49 449.30 696.66
  Q 430.95 698.99 412.77 701.35
  A 2.11 2.11 0.0 0 0 411.04 704.11
  Q 411.81 706.41 415.23 706.04
  Q 440.69 703.33 466.12 700.36"
/>
<path stroke="#ae9d84" vector-effect="non-scaling-stroke" d="
  M 476.81 703.38
  L 474.33 701.66
  Q 473.84 701.31 473.24 701.38
  L 417.01 707.76
  Q 416.08 707.87 416.88 708.36
  L 423.92 712.67
  A 1.44 1.43 -31.3 0 0 424.84 712.89
  L 483.22 707.90
  A 1.50 1.47 -69.1 0 0 484.09 707.50
  L 497.94 694.46
  A 0.82 0.82 0.0 0 0 497.07 693.10
  L 479.81 699.95
  A 1.52 1.52 0.0 0 0 479.06 700.61
  L 477.63 703.19
  Q 477.32 703.74 476.81 703.38"
/>
<path stroke="#b18d50" vector-effect="non-scaling-stroke" d="
  M 1011.60 1128.05
  C 1034.03 1121.58 1057.30 1129.50 1079.51 1136.71
  Q 1080.13 1136.92 1080.32 1136.29
  L 1080.51 1135.68
  Q 1080.65 1135.21 1080.19 1135.05
  C 1058.88 1127.68 1034.86 1120.25 1012.21 1126.08
  C 998.75 1129.54 985.56 1138.28 975.03 1147.78
  Q 974.61 1148.16 974.99 1148.58
  L 975.45 1149.10
  Q 975.86 1149.56 976.33 1149.14
  C 986.35 1140.05 998.76 1131.76 1011.60 1128.05"
/>
<path stroke="#b18d50" vector-effect="non-scaling-stroke" d="
  M 1155.94 1153.76
  C 1170.85 1161.19 1185.86 1170.32 1202.99 1168.49
  Q 1204.31 1168.35 1203.59 1166.98
  Q 1203.40 1166.62 1202.98 1166.65
  C 1185.11 1168.04 1172.38 1159.74 1157.42 1152.43
  C 1146.03 1146.86 1132.74 1141.94 1121.13 1148.40
  Q 1120.53 1148.73 1120.74 1149.38
  L 1120.86 1149.74
  A 0.62 0.62 0.0 0 0 1121.74 1150.09
  C 1132.96 1144.04 1145.40 1148.50 1155.94 1153.76"
/>
<path stroke="#b18d50" vector-effect="non-scaling-stroke" d="
  M 930.40 1177.99
  Q 943.12 1171.26 955.81 1177.44
  A 0.67 0.67 0.0 0 0 956.78 1176.81
  L 956.76 1176.26
  Q 956.74 1175.74 956.27 1175.54
  Q 941.42 1169.09 927.64 1177.25
  A 0.60 0.60 0.0 0 0 927.44 1178.07
  L 927.77 1178.59
  Q 928.03 1179.00 928.48 1178.83
  Q 929.46 1178.48 930.40 1177.99"
/>
<path stroke="#b18d50" vector-effect="non-scaling-stroke" d="
  M 1104.75 1195.09
  C 1085.76 1195.80 1066.28 1193.42 1050.78 1181.86
  A 0.57 0.56 32.6 0 0 1049.94 1182.04
  L 1049.66 1182.58
  Q 1049.36 1183.13 1049.86 1183.50
  C 1066.21 1195.47 1087.39 1197.99 1107.26 1196.94
  Q 1123.00 1196.11 1138.76 1195.91
  Q 1139.34 1195.90 1139.33 1195.33
  L 1139.32 1194.66
  A 0.67 0.67 0.0 0 0 1138.63 1194.00
  Q 1121.68 1194.45 1104.75 1195.09"
/>
<path stroke="#b18d50" vector-effect="non-scaling-stroke" d="
  M 929.38 1187.53
  C 934.86 1193.95 942.95 1199.02 951.36 1200.43
  Q 951.93 1200.53 952.03 1199.96
  L 952.12 1199.37
  Q 952.21 1198.84 951.68 1198.72
  Q 939.39 1196.04 930.80 1186.43
  Q 930.08 1185.62 929.33 1186.81
  Q 929.09 1187.19 929.38 1187.53"
/>
<path stroke="#b18d50" vector-effect="non-scaling-stroke" d="
  M 1169.69 1191.63
  Q 1210.44 1206.18 1253.13 1198.27
  Q 1253.76 1198.16 1253.75 1197.52
  L 1253.75 1197.05
  Q 1253.74 1196.34 1253.05 1196.47
  Q 1207.29 1204.93 1164.34 1187.64
  Q 1163.95 1187.48 1163.65 1187.58
  Q 1163.21 1187.72 1163.08 1188.07
  A 0.87 0.86 23.0 0 0 1163.53 1189.17
  Q 1166.50 1190.49 1169.69 1191.63"
/>
<path stroke="#b18d50" vector-effect="non-scaling-stroke" d="
  M 1009.93 1228.02
  C 1020.38 1226.88 1034.13 1226.44 1043.04 1233.50
  C 1060.93 1247.69 1080.80 1259.50 1104.59 1258.47
  Q 1105.11 1258.45 1105.05 1257.93
  L 1104.99 1257.31
  A 0.52 0.51 85.9 0 0 1104.46 1256.84
  C 1086.07 1257.22 1068.66 1250.20 1054.04 1239.46
  Q 1050.19 1236.64 1046.33 1233.83
  C 1037.52 1227.43 1030.61 1225.38 1019.25 1225.77
  Q 1012.13 1226.02 1009.60 1226.22
  Q 1008.99 1226.27 1009.10 1226.88
  L 1009.20 1227.47
  Q 1009.31 1228.09 1009.93 1228.02"
/>
<path stroke="#b18d50" vector-effect="non-scaling-stroke" d="
  M 1031.55 1256.66
  Q 1027.85 1255.25 1023.00 1254.62
  Q 1022.51 1254.56 1022.49 1255.05
  L 1022.47 1255.70
  A 0.51 0.51 0.0 0 0 1022.86 1256.22
  C 1032.16 1258.42 1040.65 1262.53 1050.72 1262.39
  Q 1051.20 1262.38 1051.47 1262.17
  Q 1051.86 1261.86 1051.77 1261.46
  Q 1051.67 1261.00 1051.21 1260.98
  Q 1041.42 1260.43 1031.55 1256.66"
/>
</g>
<path fill="#4d5360" d="
  M 562.99 49.23
  Q 562.61 48.80 561.87 48.88
  Q 561.26 48.94 561.01 49.49
  L 545.54 84.16
  A 4.59 4.56 50.7 0 0 545.26 87.04
  Q 551.80 115.45 558.70 143.66
  Q 559.09 145.25 558.79 146.86
  Q 551.98 182.94 544.97 218.98
  Q 544.53 221.22 545.40 223.31
  Q 571.41 285.70 596.97 348.14
  Q 597.73 349.99 599.44 351.00
  L 883.49 519.78
  Q 883.94 520.05 884.46 520.08
  Q 885.32 520.13 885.82 521.21
  A 0.27 0.27 0.0 0 1 885.56 521.59
  Q 877.82 521.27 870.00 520.70
  Q 775.29 513.73 680.55 506.89
  Q 678.24 506.73 676.10 507.60
  Q 560.19 554.91 444.16 601.93
  C 441.55 602.98 438.01 605.06 435.16 604.05
  Q 311.14 560.01 187.58 516.03
  Q 186.33 515.58 185.00 515.76
  L 10.77 539.95
  A 0.42 0.42 0.0 0 1 10.48 539.18
  C 104.56 476.47 198.85 413.97 293.27 351.68
  Q 295.77 350.03 297.57 347.63
  Q 355.43 270.58 412.99 193.76
  A 1.66 1.65 -40.7 0 0 413.13 191.98
  Q 409.18 184.62 405.23 177.00
  C 404.41 175.43 403.66 174.57 404.45 172.73
  Q 421.06 133.76 437.79 94.82
  A 1.33 1.28 -1.1 0 1 438.46 94.15
  Q 462.99 83.44 501.23 67.58
  Q 516.17 61.39 558.77 43.27
  C 559.90 42.79 561.00 41.87 562.13 41.28
  Q 562.54 41.06 562.32 40.65
  Q 562.22 40.47 562.01 40.39
  L 567.23 38.28
  Q 567.95 37.99 567.64 38.70
  L 562.99 49.23
  Z"
/>
<path fill="#6c5846" d="
  M 562.01 40.39
  Q 562.22 40.47 562.32 40.65
  Q 562.54 41.06 562.13 41.28
  C 561.00 41.87 559.90 42.79 558.77 43.27
  Q 516.17 61.39 501.23 67.58
  Q 462.99 83.44 438.46 94.15
  A 1.33 1.28 -1.1 0 0 437.79 94.82
  Q 421.06 133.76 404.45 172.73
  C 403.66 174.57 404.41 175.43 405.23 177.00
  Q 409.18 184.62 413.13 191.98
  A 1.66 1.65 -40.7 0 1 412.99 193.76
  Q 355.43 270.58 297.57 347.63
  Q 295.77 350.03 293.27 351.68
  C 198.85 413.97 104.56 476.47 10.48 539.18
  A 0.42 0.42 0.0 0 0 10.77 539.95
  L 185.00 515.76
  Q 186.33 515.58 187.58 516.03
  Q 311.14 560.01 435.16 604.05
  C 438.01 605.06 441.55 602.98 444.16 601.93
  Q 560.19 554.91 676.10 507.60
  Q 678.24 506.73 680.55 506.89
  Q 775.29 513.73 870.00 520.70
  Q 877.82 521.27 885.56 521.59
  A 0.27 0.27 0.0 0 0 885.82 521.21
  Q 885.32 520.13 884.46 520.08
  Q 883.94 520.05 883.49 519.78
  L 599.44 351.00
  Q 597.73 349.99 596.97 348.14
  Q 571.41 285.70 545.40 223.31
  Q 544.53 221.22 544.97 218.98
  Q 551.98 182.94 558.79 146.86
  Q 559.09 145.25 558.70 143.66
  Q 551.80 115.45 545.26 87.04
  A 4.59 4.56 50.7 0 1 545.54 84.16
  L 561.01 49.49
  Q 561.26 48.94 561.87 48.88
  Q 562.61 48.80 562.99 49.23
  L 547.02 85.38
  Q 546.79 85.90 546.92 86.45
  L 560.66 144.49
  A 4.55 4.45 -47.2 0 1 560.71 146.39
  L 546.68 220.81
  Q 546.58 221.32 546.78 221.80
  L 598.90 348.15
  A 2.17 2.13 4.8 0 0 599.79 349.18
  Q 744.34 435.03 888.99 520.95
  C 892.09 522.80 894.98 522.58 898.43 522.79
  Q 898.46 522.79 898.44 522.80
  Q 895.74 523.74 892.94 523.97
  Q 888.64 524.31 888.56 524.32
  Q 761.91 541.01 635.26 557.73
  Q 634.75 557.80 634.75 558.32
  Q 634.76 583.48 634.69 608.60
  Q 634.69 610.67 633.69 612.48
  Q 609.26 656.70 584.83 700.88
  Q 584.57 701.35 584.09 701.60
  L 517.23 735.84
  Q 516.80 736.07 516.80 736.55
  L 516.80 757.81
  Q 516.80 758.33 517.31 758.21
  L 528.34 755.61
  Q 528.87 755.48 528.96 756.02
  L 533.22 781.50
  A 0.83 0.82 -86.5 0 0 533.78 782.14
  L 642.10 816.44
  Q 639.99 816.48 638.19 816.36
  Q 636.48 816.25 634.36 815.58
  Q 584.11 799.64 534.03 784.09
  A 2.24 2.23 37.8 0 0 532.18 784.32
  L 469.52 822.61
  A 0.96 0.95 43.4 0 1 468.56 822.63
  L 459.80 817.80
  A 1.62 1.61 -76.2 0 1 458.97 816.42
  L 458.47 784.52
  A 0.58 0.57 -6.9 0 0 457.76 783.97
  L 449.53 785.82
  A 0.61 0.61 0.0 0 0 449.05 786.46
  L 469.45 1024.56
  Q 469.50 1025.17 470.06 1025.44
  L 638.83 1107.81
  A 1.45 1.43 46.6 0 0 639.98 1107.85
  Q 671.07 1095.50 702.30 1083.02
  C 707.38 1080.99 712.38 1080.42 717.67 1079.73
  A 1.56 1.56 0.0 0 0 718.99 1078.53
  L 738.81 992.24
  A 2.52 2.52 0.0 0 0 738.22 989.99
  Q 728.03 978.75 717.13 967.37
  Q 710.65 960.61 704.82 953.24
  Q 703.30 951.33 702.87 949.03
  Q 701.77 943.08 700.88 933.00
  C 698.31 903.96 695.45 876.69 693.67 845.80
  C 693.50 842.96 692.68 837.67 692.98 833.49
  Q 693.04 832.73 693.51 833.33
  L 693.81 833.71
  L 704.09 950.59
  A 1.18 1.18 0.0 0 0 704.42 951.33
  L 740.69 990.14
  Q 741.05 990.53 740.93 991.04
  L 720.39 1080.51
  Q 720.27 1081.06 719.71 1081.15
  L 716.00 1081.72
  Q 715.43 1081.80 715.68 1082.33
  L 747.93 1149.32
  Q 748.26 1150.01 748.99 1150.25
  L 777.52 1159.82
  Q 778.02 1159.99 778.02 1160.51
  L 778.02 1168.74
  Q 778.02 1169.20 778.49 1169.20
  L 911.05 1169.20
  Q 911.57 1169.20 911.97 1168.89
  L 917.33 1164.77
  A 0.94 0.93 71.3 0 0 917.69 1164.03
  Q 917.69 1163.85 917.68 1163.63
  A 0.47 0.47 0.0 0 1 918.46 1163.25
  L 924.57 1168.55
  Q 925.09 1169.00 925.56 1168.50
  C 975.69 1115.67 1051.06 1083.60 1121.70 1116.07
  C 1133.32 1121.41 1147.60 1130.23 1157.18 1135.07
  C 1193.68 1153.51 1236.78 1167.82 1278.01 1158.59
  Q 1293.71 1155.07 1305.89 1144.83
  A 0.07 0.06 -5.3 0 1 1305.99 1144.91
  C 1294.68 1163.63 1275.31 1183.14 1252.46 1185.63
  Q 1251.79 1185.70 1252.36 1186.06
  Q 1281.75 1204.61 1314.80 1193.05
  Q 1315.33 1192.87 1315.03 1193.34
  Q 1311.73 1198.56 1307.98 1202.25
  C 1284.04 1225.84 1252.62 1230.49 1220.94 1220.79
  Q 1220.33 1220.60 1220.46 1221.23
  C 1222.68 1232.21 1229.23 1240.58 1239.30 1245.24
  Q 1245.39 1248.06 1250.11 1248.16
  Q 1258.92 1248.35 1250.14 1249.06
  Q 1228.99 1250.76 1205.01 1248.67
  C 1196.10 1247.89 1185.60 1246.33 1178.63 1240.85
  Q 1178.21 1240.51 1178.24 1241.05
  C 1178.72 1249.11 1185.55 1256.31 1192.30 1259.71
  C 1208.42 1267.80 1228.27 1269.54 1246.43 1268.93
  A 0.39 0.38 32.4 0 1 1246.60 1269.67
  Q 1186.74 1294.59 1122.25 1297.32
  C 1046.94 1300.51 977.55 1275.52 925.63 1220.56
  Q 925.23 1220.14 924.76 1220.47
  L 919.85 1223.89
  A 0.85 0.84 -15.4 0 0 919.49 1224.52
  L 919.46 1224.95
  A 0.38 0.38 0.0 0 1 918.86 1225.23
  L 911.98 1220.02
  Q 911.55 1219.69 911.01 1219.69
  L 733.11 1220.08
  Q 732.44 1220.08 732.62 1220.73
  L 776.60 1384.52
  Q 776.61 1384.76 776.49 1384.96
  Q 776.23 1385.41 775.96 1384.96
  Q 775.18 1383.63 774.46 1382.26
  Q 773.80 1381.00 773.39 1379.46
  Q 756.91 1317.92 740.41 1256.38
  C 739.61 1253.40 738.99 1249.65 738.07 1246.75
  Q 733.98 1233.77 730.99 1221.04
  A 1.52 1.52 0.0 0 0 729.50 1219.87
  Q 705.26 1220.22 682.00 1219.82
  Q 634.78 1219.00 587.56 1219.96
  C 586.22 1219.99 584.04 1219.52 582.16 1220.02
  A 0.63 0.62 -12.6 0 0 581.70 1220.73
  L 617.28 1429.99
  Q 617.33 1430.29 617.63 1430.30
  Q 650.28 1431.32 683.00 1431.05
  Q 687.95 1431.01 691.14 1430.20
  A 1.18 1.17 -86.4 0 0 691.93 1429.50
  L 712.29 1376.99
  Q 712.49 1376.50 713.01 1376.60
  Q 740.85 1381.89 768.75 1387.19
  Q 771.84 1387.78 773.01 1389.78
  L 714.46 1378.70
  Q 713.74 1378.56 713.47 1379.24
  L 692.66 1431.96
  A 0.48 0.47 -79.0 0 1 692.22 1432.26
  L 618.20 1432.26
  Q 617.66 1432.26 617.75 1432.80
  L 619.43 1442.74
  Q 619.52 1443.32 618.96 1443.19
  Q 597.45 1438.35 576.03 1433.39
  C 568.18 1431.58 559.87 1432.22 551.86 1432.29
  A 0.20 0.20 0.0 0 0 551.78 1432.67
  L 562.50 1437.44
  Q 563.01 1437.67 562.91 1438.22
  L 553.55 1486.81
  Q 553.44 1487.38 553.92 1487.72
  C 564.26 1494.94 600.90 1524.03 579.96 1537.52
  Q 586.24 1531.41 584.74 1524.97
  Q 582.96 1517.40 578.77 1512.48
  Q 567.19 1498.86 552.68 1488.93
  A 2.06 2.06 0.0 0 1 551.82 1486.85
  L 560.88 1439.82
  A 1.48 1.47 -73.3 0 0 560.01 1438.19
  L 548.14 1433.11
  A 1.20 1.17 7.5 0 1 547.43 1432.21
  L 546.63 1427.36
  A 1.05 1.05 0.0 0 0 545.82 1426.51
  L 491.74 1414.15
  A 0.76 0.76 0.0 0 0 490.81 1414.89
  L 490.70 1434.70
  A 0.79 0.72 -28.4 0 1 490.54 1435.16
  C 488.65 1437.55 485.64 1437.69 483.08 1439.17
  A 1.15 1.14 -10.6 0 0 482.53 1439.96
  Q 481.62 1445.27 482.54 1450.49
  Q 483.78 1457.56 483.79 1457.61
  Q 485.44 1472.54 486.35 1487.57
  Q 486.38 1488.09 486.07 1488.50
  C 478.35 1499.06 469.52 1509.72 473.87 1524.13
  C 474.26 1525.42 476.19 1527.21 477.05 1528.89
  Q 478.07 1530.87 479.96 1532.53
  Q 480.58 1533.07 480.12 1533.85
  C 463.29 1520.85 472.98 1500.42 484.49 1487.92
  Q 484.85 1487.53 484.80 1487.00
  L 480.64 1437.98
  A 0.53 0.53 0.0 0 1 481.02 1437.42
  L 488.32 1435.22
  A 1.51 1.51 0.0 0 0 487.89 1432.26
  L 469.95 1432.26
  A 0.48 0.47 -4.6 0 0 469.48 1432.81
  L 471.18 1442.75
  Q 471.28 1443.32 470.72 1443.19
  Q 449.20 1438.36 427.75 1433.38
  Q 423.13 1432.32 418.51 1432.28
  Q 411.12 1432.23 403.65 1432.28
  A 0.21 0.21 0.0 0 0 403.56 1432.68
  L 414.23 1437.44
  Q 414.75 1437.67 414.64 1438.23
  L 405.26 1487.00
  Q 405.18 1487.42 405.53 1487.67
  C 415.93 1494.92 452.01 1522.94 431.93 1537.55
  Q 438.96 1528.65 434.65 1519.89
  Q 432.02 1514.55 429.18 1510.46
  C 428.12 1508.93 426.38 1507.76 425.05 1506.30
  C 421.83 1502.77 418.32 1499.64 414.80 1496.41
  C 412.76 1494.54 409.94 1492.90 407.75 1490.71
  C 406.51 1489.46 405.06 1489.23 404.08 1487.38
  Q 403.81 1486.87 403.92 1486.31
  L 412.54 1439.43
  A 0.98 0.98 0.0 0 0 411.97 1438.37
  L 399.70 1432.97
  Q 399.20 1432.75 399.11 1432.22
  L 398.38 1427.69
  A 1.55 1.55 0.0 0 0 397.19 1426.43
  L 343.57 1414.18
  Q 342.61 1413.96 342.62 1414.94
  L 342.69 1435.05
  A 1.69 1.68 81.3 0 1 341.51 1436.66
  L 334.82 1438.79
  Q 334.21 1438.98 334.27 1439.63
  L 338.32 1487.45
  Q 338.36 1487.97 338.02 1488.37
  C 329.62 1498.33 323.19 1508.94 324.28 1522.58
  Q 324.32 1523.08 324.65 1523.47
  Q 325.01 1523.89 325.06 1524.25
  Q 325.11 1524.66 324.35 1524.88
  C 319.38 1512.09 327.51 1497.33 336.04 1488.14
  A 1.82 1.80 -26.5 0 0 336.51 1486.76
  L 332.45 1438.74
  A 0.29 0.29 0.0 0 0 332.01 1438.52
  L 296.51 1460.71
  Q 296.05 1460.99 295.85 1460.49
  Q 268.97 1394.67 242.30 1328.80
  Q 240.77 1325.02 240.23 1320.96
  Q 233.51 1270.64 226.61 1220.37
  Q 226.54 1219.85 226.02 1219.85
  Q 200.96 1219.68 176.01 1219.85
  Q 175.55 1219.86 175.10 1219.47
  A 1.27 1.22 -23.4 0 0 174.27 1219.16
  L 22.56 1219.16
  Q 22.21 1219.16 22.21 1218.81
  L 22.21 1169.02
  Q 22.21 1168.49 22.73 1168.49
  L 163.81 1168.49
  A 0.56 0.56 0.0 0 0 164.37 1167.93
  L 164.37 1160.41
  Q 164.37 1159.92 164.83 1159.77
  L 170.03 1158.06
  Q 170.54 1157.89 170.55 1157.35
  Q 171.54 1116.71 172.56 1076.10
  Q 172.69 1071.00 171.82 1065.96
  Q 165.56 1029.93 159.25 993.93
  Q 159.17 993.43 159.40 992.99
  Q 174.94 963.49 190.52 934.08
  Q 192.45 930.45 193.42 926.47
  Q 210.41 856.92 227.43 787.26
  Q 227.51 786.95 227.83 786.97
  Q 247.15 788.41 266.52 789.90
  Q 272.51 790.36 278.47 789.82
  Q 320.12 786.06 361.75 782.27
  Q 362.25 782.23 362.33 781.74
  L 366.62 755.99
  Q 366.70 755.49 367.20 755.60
  L 378.79 758.32
  Q 379.24 758.43 379.24 757.96
  L 379.25 736.75
  A 1.04 1.04 0.0 0 0 378.68 735.82
  L 311.85 701.59
  A 1.83 1.78 88.4 0 1 311.09 700.85
  Q 286.76 656.69 262.34 612.64
  Q 261.28 610.73 261.26 608.55
  Q 261.15 598.27 261.20 588.03
  Q 261.20 587.51 260.69 587.42
  Q 133.40 565.04 6.13 542.71
  C 4.41 542.41 2.59 543.33 0.74 541.55
  Q 0.53 541.34 0.83 541.31
  C 2.77 541.16 4.35 541.02 6.04 539.90
  Q 149.01 445.16 291.96 350.39
  Q 294.47 348.73 296.28 346.32
  Q 353.70 269.72 411.12 193.16
  Q 411.44 192.74 411.19 192.26
  L 401.92 174.76
  Q 401.71 174.36 401.89 173.95
  L 436.32 93.51
  A 1.27 1.27 0.0 0 1 436.99 92.84
  L 562.01 40.39
  Z
  M 635.75 555.97
  L 879.01 523.75
  A 0.13 0.13 0.0 0 0 879.02 523.49
  Q 873.02 522.55 867.26 522.14
  Q 773.98 515.46 680.72 508.66
  Q 678.51 508.50 676.46 509.35
  Q 656.45 517.69 635.57 525.98
  A 1.42 1.42 0.0 0 0 634.68 527.30
  L 634.61 554.98
  A 1.01 1.00 -3.8 0 0 635.75 555.97
  Z
  M 14.43 542.32
  L 260.29 585.53
  A 0.84 0.83 4.9 0 0 261.27 584.71
  L 261.24 544.79
  A 0.94 0.94 0.0 0 0 260.61 543.90
  Q 223.32 530.70 188.02 518.14
  Q 186.00 517.43 183.89 517.72
  Q 98.20 529.65 14.45 541.20
  Q 10.84 541.69 14.43 542.32
  Z
  M 583.46 699.58
  C 599.92 670.65 615.72 641.24 631.85 612.08
  Q 632.85 610.27 632.86 608.20
  Q 632.99 567.78 632.89 527.58
  Q 632.89 527.14 632.49 527.31
  L 437.94 606.39
  Q 437.22 606.68 436.49 606.42
  L 263.49 544.96
  A 0.37 0.36 -80.1 0 0 263.00 545.31
  Q 262.94 576.61 262.89 607.74
  Q 262.89 609.79 263.88 611.58
  Q 288.14 655.56 312.49 699.57
  Q 312.73 700.00 313.17 700.23
  Q 372.44 730.59 431.72 760.95
  Q 433.77 762.00 436.07 762.01
  Q 448.00 762.06 459.95 761.99
  Q 462.26 761.97 464.32 760.92
  Q 523.54 730.58 582.76 700.25
  Q 583.21 700.02 583.46 699.58
  Z
  M 440.54 773.17
  L 447.72 783.29
  A 0.31 0.31 0.0 0 0 448.23 783.28
  L 455.01 773.23
  A 1.48 1.45 10.2 0 1 455.89 772.63
  L 514.48 758.85
  Q 515.00 758.73 515.00 758.20
  L 515.00 737.54
  A 0.32 0.32 0.0 0 0 514.54 737.26
  Q 489.83 749.92 465.08 762.64
  Q 462.98 763.72 460.64 763.79
  Q 448.00 764.17 435.34 763.81
  Q 433.03 763.74 430.94 762.67
  Q 406.31 749.98 381.40 737.26
  A 0.27 0.26 12.9 0 0 381.01 737.50
  L 381.09 758.34
  Q 381.09 758.84 381.58 758.95
  L 439.74 772.63
  Q 440.24 772.75 440.54 773.17
  Z
  M 435.25 782.08
  A 0.55 0.55 0.0 0 1 435.93 781.55
  L 445.03 783.65
  Q 445.76 783.81 445.33 783.20
  L 439.48 774.84
  A 1.16 1.13 78.5 0 0 438.82 774.39
  L 369.47 757.96
  Q 368.10 757.64 367.87 759.02
  L 364.24 781.06
  Q 364.00 782.49 365.23 783.26
  Q 394.14 801.35 423.55 819.16
  C 425.53 820.36 426.16 821.18 428.54 819.84
  Q 431.33 818.25 433.68 816.88
  A 2.41 2.39 75.4 0 0 434.87 814.84
  L 435.25 782.08
  Z
  M 460.25 782.07
  L 460.65 814.96
  A 2.22 2.22 0.0 0 0 461.80 816.87
  L 468.37 820.47
  A 1.59 1.58 43.3 0 0 469.96 820.43
  L 530.88 783.06
  A 1.39 1.37 69.8 0 0 531.51 781.66
  L 527.86 759.49
  Q 527.55 757.63 525.72 758.06
  L 457.18 774.26
  A 1.95 1.94 -79.2 0 0 456.01 775.06
  L 450.46 783.28
  Q 450.03 783.92 450.78 783.73
  L 459.56 781.54
  A 0.56 0.55 -7.1 0 1 460.25 782.07
  Z
  M 304.25 789.17
  Q 288.99 790.49 273.75 792.00
  Q 270.45 792.33 261.84 791.35
  C 250.98 790.11 240.44 789.67 229.78 788.89
  A 1.02 1.02 0.0 0 0 228.72 789.66
  Q 211.99 858.30 195.21 926.93
  Q 194.22 930.96 192.31 934.61
  Q 177.02 963.72 161.65 992.62
  A 3.65 3.64 54.0 0 0 161.28 994.97
  Q 167.55 1030.53 173.64 1065.87
  Q 174.53 1071.00 174.40 1076.20
  Q 173.47 1114.98 172.45 1153.81
  A 0.56 0.55 4.5 0 0 172.94 1154.38
  C 180.29 1155.32 186.47 1152.66 192.94 1150.38
  A 5.21 5.20 -43.4 0 1 196.68 1150.48
  C 199.96 1151.85 202.86 1153.29 206.64 1153.12
  Q 292.82 1149.18 378.83 1145.23
  A 1.30 1.29 14.9 0 0 379.86 1144.64
  Q 387.92 1132.22 396.07 1119.46
  Q 397.42 1117.34 397.79 1114.85
  Q 422.35 950.67 446.88 786.68
  A 0.72 0.72 0.0 0 0 446.33 785.87
  L 437.70 783.86
  A 0.44 0.44 0.0 0 0 437.16 784.28
  L 436.57 816.21
  A 2.01 1.99 -13.9 0 1 435.52 817.93
  L 427.45 822.31
  A 1.76 1.75 46.2 0 1 425.69 822.27
  L 363.42 784.31
  A 1.29 1.28 -30.5 0 0 362.68 784.12
  Q 341.25 785.37 320.00 787.63
  C 317.37 787.91 313.88 787.90 310.97 788.29
  Q 305.12 789.09 304.25 789.17
  Z
  M 467.82 1025.20
  L 447.94 795.13
  A 0.28 0.28 0.0 0 0 447.39 795.11
  L 402.91 1093.05
  A 0.91 0.91 0.0 0 0 403.81 1094.10
  L 552.72 1094.07
  A 1.43 1.41 73.7 0 1 553.92 1094.74
  L 585.55 1145.87
  A 0.24 0.24 0.0 0 0 585.98 1145.69
  L 569.90 1076.93
  Q 569.67 1075.97 568.79 1075.54
  L 468.68 1026.46
  A 1.55 1.54 11.0 0 1 467.82 1025.20
  Z
  M 576.34 1169.41
  C 611.36 1169.09 644.78 1169.57 678.98 1169.15
  Q 679.07 1169.15 679.52 1169.22
  Q 680.11 1169.32 680.19 1168.56
  A 0.77 0.74 -55.1 0 0 680.13 1168.18
  L 651.60 1106.16
  A 0.95 0.94 -23.0 0 0 650.39 1105.68
  L 640.27 1109.72
  A 2.35 2.35 0.0 0 1 638.36 1109.65
  L 572.70 1077.53
  A 0.45 0.44 6.7 0 0 572.07 1078.02
  L 589.31 1151.95
  A 0.94 0.90 59.8 0 1 589.11 1152.77
  L 575.80 1168.27
  Q 574.80 1169.43 576.34 1169.41
  Z
  M 690.51 1156.70
  L 712.52 1162.91
  Q 713.09 1163.08 713.64 1162.86
  L 745.92 1150.33
  A 0.38 0.37 -23.4 0 0 746.13 1149.82
  L 713.89 1082.82
  Q 713.66 1082.35 713.14 1082.38
  Q 708.43 1082.60 706.21 1083.44
  Q 694.85 1087.72 653.44 1104.57
  Q 652.92 1104.78 653.15 1105.29
  L 681.30 1166.49
  Q 681.61 1167.16 682.07 1166.58
  L 689.54 1157.02
  Q 689.92 1156.53 690.51 1156.70
  Z
  M 424.83 1170.71
  Q 424.52 1170.62 424.34 1171.00
  Q 424.24 1171.21 424.28 1171.52
  Q 427.91 1194.15 431.90 1216.38
  A 1.33 1.32 84.8 0 0 433.20 1217.47
  L 469.82 1217.70
  A 0.77 0.77 0.0 0 0 470.60 1216.93
  L 470.63 1171.29
  Q 470.63 1170.81 470.17 1170.64
  L 469.80 1170.51
  Q 471.26 1169.76 471.21 1167.25
  Q 470.96 1155.50 471.00 1143.94
  A 2.01 2.00 -20.6 0 1 471.69 1142.43
  L 503.94 1114.50
  A 2.91 2.89 -65.3 0 1 505.84 1113.79
  L 548.54 1113.74
  A 1.31 1.29 69.3 0 1 549.52 1114.19
  Q 557.76 1123.90 565.94 1133.99
  Q 567.22 1135.57 567.56 1137.57
  Q 570.14 1152.86 572.74 1167.97
  A 0.40 0.40 0.0 0 0 573.43 1168.17
  L 586.90 1152.49
  A 0.80 0.78 -40.8 0 0 586.98 1151.57
  L 552.98 1096.52
  A 1.44 1.44 0.0 0 0 551.75 1095.83
  L 402.94 1095.85
  A 0.54 0.53 4.4 0 0 402.41 1096.30
  L 400.04 1112.22
  Q 399.97 1112.69 400.28 1113.06
  L 418.46 1134.75
  A 2.66 2.64 -70.0 0 1 419.04 1136.01
  L 424.83 1170.71
  Z
  M 1246.85 1183.94
  C 1268.09 1184.71 1286.31 1168.98 1298.24 1153.00
  Q 1298.61 1152.50 1298.06 1152.79
  C 1254.13 1175.90 1194.49 1157.14 1153.38 1135.12
  C 1141.61 1128.81 1129.00 1121.03 1117.90 1116.35
  Q 1063.19 1093.29 1007.30 1115.05
  Q 960.99 1133.08 925.56 1171.30
  Q 925.28 1171.60 925.28 1172.01
  L 925.28 1217.29
  A 1.19 1.18 -68.8 0 0 925.66 1218.16
  C 929.43 1221.65 933.36 1226.14 936.55 1229.11
  Q 1000.80 1288.88 1088.53 1295.08
  C 1139.09 1298.66 1191.19 1289.63 1238.28 1271.05
  A 0.29 0.28 -56.4 0 0 1238.17 1270.50
  Q 1219.92 1270.98 1202.52 1265.72
  C 1189.55 1261.80 1173.28 1252.09 1176.92 1235.71
  Q 1177.11 1234.82 1177.51 1235.65
  Q 1179.48 1239.78 1181.00 1240.57
  Q 1189.59 1245.07 1200.51 1246.36
  Q 1220.25 1248.68 1240.22 1247.77
  A 0.20 0.20 0.0 0 0 1240.27 1247.38
  C 1227.77 1243.15 1220.20 1231.81 1218.12 1219.05
  Q 1217.92 1217.85 1219.07 1218.25
  C 1252.20 1229.82 1286.90 1223.79 1310.49 1196.78
  A 0.26 0.25 12.0 0 0 1310.22 1196.37
  C 1288.61 1203.02 1264.26 1197.79 1246.68 1184.42
  Q 1246.01 1183.91 1246.85 1183.94
  Z
  M 430.62 1217.30
  C 430.04 1215.08 430.02 1212.19 429.29 1209.68
  C 428.73 1207.78 429.10 1206.06 428.61 1204.18
  Q 427.58 1200.29 427.57 1200.24
  Q 425.61 1187.95 423.36 1175.72
  C 422.76 1172.48 422.78 1168.76 422.17 1165.26
  Q 419.81 1151.89 417.57 1138.41
  Q 417.23 1136.34 415.91 1134.72
  Q 408.11 1125.15 400.13 1115.69
  Q 399.68 1115.15 399.53 1115.84
  C 399.22 1117.36 399.09 1118.23 398.26 1119.54
  Q 389.63 1133.04 380.84 1146.52
  Q 380.55 1146.96 380.03 1146.98
  L 325.02 1149.50
  Q 324.52 1149.52 324.51 1150.02
  Q 323.83 1191.76 324.33 1233.52
  Q 324.47 1244.81 324.46 1253.52
  Q 324.42 1330.45 324.52 1407.50
  Q 324.52 1408.03 325.04 1408.15
  L 468.25 1440.79
  A 0.55 0.54 1.5 0 0 468.91 1440.17
  Q 450.41 1331.41 431.87 1222.47
  C 431.58 1220.73 431.06 1219.02 430.62 1217.30
  Z
  M 472.14 1216.14
  Q 472.61 1222.75 472.61 1226.50
  Q 472.42 1317.10 472.70 1407.68
  Q 472.70 1408.01 473.02 1408.08
  L 616.73 1440.84
  A 0.43 0.43 0.0 0 0 617.25 1440.35
  Q 596.91 1321.43 576.74 1202.77
  Q 571.27 1170.59 565.81 1138.35
  Q 565.47 1136.34 564.18 1134.75
  Q 556.49 1125.24 548.56 1115.88
  Q 548.23 1115.49 547.73 1115.49
  L 506.13 1115.46
  Q 505.61 1115.46 505.21 1115.80
  L 472.96 1143.50
  Q 472.69 1143.74 472.68 1144.11
  L 472.28 1171.73
  A 0.98 0.93 70.2 0 1 471.98 1172.41
  Q 471.57 1172.78 471.57 1173.25
  Q 471.67 1194.43 471.61 1215.61
  Q 471.61 1215.63 471.62 1215.64
  L 471.95 1215.83
  Q 472.13 1215.93 472.14 1216.14
  Z
  M 249.62 1157.11
  Q 251.91 1156.24 253.74 1158.51
  Q 257.56 1163.25 261.09 1167.92
  A 3.33 3.32 71.5 0 0 263.75 1169.25
  L 322.06 1169.38
  A 0.69 0.69 0.0 0 0 322.75 1168.69
  L 322.74 1150.05
  A 0.42 0.42 0.0 0 0 322.30 1149.63
  L 243.31 1153.19
  Q 242.71 1153.22 242.72 1153.82
  L 242.80 1158.71
  A 0.47 0.46 -8.2 0 0 243.39 1159.15
  Q 246.61 1158.25 249.62 1157.11
  Z
  M 228.58 1164.83
  L 195.23 1151.88
  Q 194.75 1151.69 194.26 1151.86
  L 166.74 1161.00
  Q 166.32 1161.14 166.28 1161.59
  Q 165.72 1168.68 166.18 1170.78
  Q 171.23 1194.12 176.53 1217.62
  Q 176.62 1218.03 177.05 1218.03
  L 251.27 1218.01
  Q 251.81 1218.01 251.91 1217.47
  L 260.34 1170.44
  Q 260.43 1169.95 260.12 1169.56
  L 251.98 1159.12
  Q 251.63 1158.67 251.09 1158.83
  L 229.55 1164.88
  Q 229.06 1165.01 228.58 1164.83
  Z
  M 682.75 1171.04
  L 681.97 1171.02
  Q 681.20 1171.01 681.34 1171.77
  L 689.53 1217.57
  Q 689.62 1218.02 690.08 1218.02
  L 765.22 1218.03
  Q 765.69 1218.03 765.79 1217.57
  Q 771.08 1193.55 776.33 1169.52
  Q 776.75 1167.62 776.04 1161.68
  Q 775.98 1161.18 775.50 1161.02
  L 747.91 1151.84
  A 1.31 1.26 42.6 0 0 747.03 1151.86
  L 713.72 1164.84
  Q 713.24 1165.02 712.74 1164.88
  L 691.19 1158.82
  Q 690.65 1158.67 690.30 1159.12
  L 682.72 1168.78
  Q 682.39 1169.20 682.65 1169.66
  L 683.09 1170.45
  Q 683.43 1171.05 682.75 1171.04
  Z
  M 208.73 1155.14
  L 228.69 1162.90
  Q 229.18 1163.09 229.68 1162.94
  L 240.28 1159.95
  Q 240.84 1159.79 240.83 1159.21
  L 240.78 1153.82
  Q 240.77 1153.37 240.32 1153.39
  L 208.78 1154.84
  Q 208.04 1154.88 208.73 1155.14
  Z
  M 174.26 1156.68
  A 0.32 0.31 42.5 0 0 174.23 1156.07
  Q 173.30 1155.87 172.45 1156.22
  A 0.48 0.48 0.0 0 0 172.78 1157.13
  L 174.26 1156.68
  Z
  M 912.90 1218.40
  A 0.35 0.35 0.0 0 0 913.05 1218.68
  L 917.18 1221.55
  A 0.35 0.35 0.0 0 0 917.73 1221.26
  L 917.74 1167.50
  A 0.35 0.35 0.0 0 0 917.18 1167.22
  L 912.94 1170.43
  A 0.35 0.35 0.0 0 0 912.80 1170.71
  L 912.90 1218.40
  Z
  M 924.14 1218.68
  A 0.31 0.31 0.0 0 0 924.27 1218.43
  L 924.32 1170.70
  A 0.31 0.31 0.0 0 0 924.20 1170.46
  L 920.00 1167.24
  A 0.31 0.31 0.0 0 0 919.50 1167.49
  L 919.50 1221.28
  A 0.31 0.31 0.0 0 0 919.99 1221.54
  L 924.14 1218.68
  Z
  M 24.57 1170.07
  A 0.63 0.63 0.0 0 0 23.94 1170.70
  L 23.87 1216.81
  A 0.63 0.63 0.0 0 0 24.50 1217.44
  L 173.29 1217.42
  A 0.63 0.63 0.0 0 0 173.90 1216.66
  L 163.81 1170.59
  A 0.63 0.63 0.0 0 0 163.19 1170.09
  L 24.57 1170.07
  Z
  M 262.47 1170.99
  A 0.47 0.47 0.0 0 0 262.01 1171.38
  L 253.87 1216.88
  A 0.47 0.47 0.0 0 0 254.33 1217.43
  L 321.97 1217.79
  A 0.47 0.47 0.0 0 0 322.44 1217.32
  L 322.23 1171.48
  A 0.47 0.47 0.0 0 0 321.76 1171.01
  L 262.47 1170.99
  Z
  M 686.06 1217.65
  A 0.97 0.97 0.0 0 0 687.01 1216.51
  L 678.91 1171.79
  A 0.97 0.97 0.0 0 0 677.96 1170.99
  L 574.15 1170.94
  A 0.97 0.97 0.0 0 0 573.19 1172.07
  L 580.73 1216.79
  A 0.97 0.97 0.0 0 0 581.69 1217.60
  L 686.06 1217.65
  Z
  M 778.21 1170.98
  A 0.34 0.34 0.0 0 0 777.88 1171.25
  L 767.64 1217.60
  A 0.34 0.34 0.0 0 0 767.97 1218.01
  L 910.63 1218.00
  A 0.34 0.34 0.0 0 0 910.97 1217.66
  L 911.02 1171.33
  A 0.34 0.34 0.0 0 0 910.68 1170.99
  L 778.21 1170.98
  Z
  M 297.88 1457.83
  L 340.34 1431.06
  Q 340.79 1430.78 340.79 1430.24
  L 340.78 1414.05
  A 0.63 0.62 6.4 0 0 340.29 1413.44
  L 323.97 1409.73
  Q 322.76 1409.46 322.77 1408.22
  L 322.82 1220.63
  A 1.18 1.18 0.0 0 0 321.64 1219.45
  L 229.03 1219.77
  A 0.59 0.59 0.0 0 0 228.44 1220.44
  Q 235.27 1270.68 242.19 1321.29
  Q 242.73 1325.27 244.24 1329.00
  Q 269.32 1390.78 294.45 1452.54
  C 295.13 1454.21 295.45 1456.19 297.02 1457.74
  A 0.69 0.69 0.0 0 0 297.88 1457.83
  Z
  M 471.02 1220.32
  A 0.84 0.84 0.0 0 0 470.17 1219.48
  L 434.27 1219.88
  A 0.84 0.84 0.0 0 0 433.46 1220.86
  L 469.00 1429.78
  A 0.84 0.84 0.0 0 0 469.82 1430.47
  L 488.16 1430.60
  A 0.84 0.84 0.0 0 0 489.01 1429.76
  L 489.00 1414.22
  A 0.84 0.84 0.0 0 0 488.35 1413.40
  L 471.60 1409.58
  A 0.84 0.84 0.0 0 1 470.95 1408.76
  L 471.02 1220.32
  Z
  M 413.40 1430.74
  A 0.27 0.27 0.0 0 0 413.47 1430.21
  L 400.57 1427.16
  Q 399.98 1427.02 400.12 1427.61
  L 400.62 1429.73
  Q 400.78 1430.38 401.45 1430.40
  L 413.40 1430.74
  Z
  M 549.05 1430.20
  A 0.34 0.34 0.0 0 0 549.38 1430.45
  L 560.56 1430.61
  A 0.34 0.34 0.0 0 0 560.64 1429.94
  L 548.77 1427.19
  A 0.34 0.34 0.0 0 0 548.36 1427.61
  L 549.05 1430.20
  Z
  M 340.40 1433.28
  L 335.66 1436.20
  A 0.16 0.16 0.0 0 0 335.79 1436.49
  L 340.37 1435.16
  Q 340.89 1435.01 340.93 1434.48
  L 341.00 1433.65
  A 0.40 0.39 -13.2 0 0 340.40 1433.28
  Z"
/>
<path fill="#4f5265" d="
  M 879.01 523.75
  L 635.75 555.97
  A 1.01 1.00 -3.8 0 1 634.61 554.98
  L 634.68 527.30
  A 1.42 1.42 0.0 0 1 635.57 525.98
  Q 656.45 517.69 676.46 509.35
  Q 678.51 508.50 680.72 508.66
  Q 773.98 515.46 867.26 522.14
  Q 873.02 522.55 879.02 523.49
  A 0.13 0.13 0.0 0 1 879.01 523.75
  Z"
/>
<path fill="#4f5265" d="
  M 260.29 585.53
  L 14.43 542.32
  Q 10.84 541.69 14.45 541.20
  Q 98.20 529.65 183.89 517.72
  Q 186.00 517.43 188.02 518.14
  Q 223.32 530.70 260.61 543.90
  A 0.94 0.94 0.0 0 1 261.24 544.79
  L 261.27 584.71
  A 0.84 0.83 4.9 0 1 260.29 585.53
  Z"
/>
<path fill="#f0e1c1" d="
  M 631.85 612.08
  C 615.72 641.24 599.92 670.65 583.46 699.58
  Q 583.21 700.02 582.76 700.25
  Q 523.54 730.58 464.32 760.92
  Q 462.26 761.97 459.95 761.99
  Q 448.00 762.06 436.07 762.01
  Q 433.77 762.00 431.72 760.95
  Q 372.44 730.59 313.17 700.23
  Q 312.73 700.00 312.49 699.57
  Q 288.14 655.56 263.88 611.58
  Q 262.89 609.79 262.89 607.74
  Q 262.94 576.61 263.00 545.31
  A 0.37 0.36 -80.1 0 1 263.49 544.96
  L 436.49 606.42
  Q 437.22 606.68 437.94 606.39
  L 632.49 527.31
  Q 632.89 527.14 632.89 527.58
  Q 632.99 567.78 632.86 608.20
  Q 632.85 610.27 631.85 612.08
  Z
  M 424.47 714.72
  L 484.12 709.59
  A 1.40 1.34 19.7 0 0 484.97 709.21
  L 499.38 695.62
  Q 499.76 695.26 499.75 694.74
  L 499.75 684.11
  A 0.28 0.28 0.0 0 0 499.41 683.84
  Q 483.14 687.81 466.94 691.63
  Q 457.67 693.81 447.89 695.05
  Q 429.70 697.35 411.52 699.72
  A 1.30 1.27 -75.6 0 0 410.63 700.26
  L 407.83 704.23
  Q 407.51 704.69 407.98 704.99
  L 423.23 714.43
  Q 423.80 714.78 424.47 714.72
  Z"
/>
<path fill="#6c5846" d="
  M 484.12 709.59
  L 424.47 714.72
  Q 423.80 714.78 423.23 714.43
  L 407.98 704.99
  Q 407.51 704.69 407.83 704.23
  L 410.63 700.26
  A 1.30 1.27 -75.6 0 1 411.52 699.72
  Q 429.70 697.35 447.89 695.05
  Q 457.67 693.81 466.94 691.63
  Q 483.14 687.81 499.41 683.84
  A 0.28 0.28 0.0 0 1 499.75 684.11
  L 499.75 694.74
  Q 499.76 695.26 499.38 695.62
  L 484.97 709.21
  A 1.40 1.34 19.7 0 1 484.12 709.59
  Z
  M 466.12 700.36
  Q 470.12 699.89 474.18 699.55
  Q 474.54 699.52 474.82 699.73
  L 476.18 700.76
  A 0.59 0.59 0.0 0 0 477.04 700.60
  L 478.00 699.00
  A 1.14 1.10 -84.6 0 1 478.56 698.52
  L 497.52 690.99
  Q 498.03 690.78 498.03 690.23
  L 498.02 686.55
  Q 498.02 686.04 497.53 686.16
  Q 482.53 689.76 467.52 693.34
  Q 458.54 695.49 449.30 696.66
  Q 430.95 698.99 412.77 701.35
  A 2.11 2.11 0.0 0 0 411.04 704.11
  Q 411.81 706.41 415.23 706.04
  Q 440.69 703.33 466.12 700.36
  Z
  M 476.81 703.38
  L 474.33 701.66
  Q 473.84 701.31 473.24 701.38
  L 417.01 707.76
  Q 416.08 707.87 416.88 708.36
  L 423.92 712.67
  A 1.44 1.43 -31.3 0 0 424.84 712.89
  L 483.22 707.90
  A 1.50 1.47 -69.1 0 0 484.09 707.50
  L 497.94 694.46
  A 0.82 0.82 0.0 0 0 497.07 693.10
  L 479.81 699.95
  A 1.52 1.52 0.0 0 0 479.06 700.61
  L 477.63 703.19
  Q 477.32 703.74 476.81 703.38
  Z"
/>
<path fill="#f0e1c1" d="
  M 466.12 700.36
  Q 440.69 703.33 415.23 706.04
  Q 411.81 706.41 411.04 704.11
  A 2.11 2.11 0.0 0 1 412.77 701.35
  Q 430.95 698.99 449.30 696.66
  Q 458.54 695.49 467.52 693.34
  Q 482.53 689.76 497.53 686.16
  Q 498.02 686.04 498.02 686.55
  L 498.03 690.23
  Q 498.03 690.78 497.52 690.99
  L 478.56 698.52
  A 1.14 1.10 -84.6 0 0 478.00 699.00
  L 477.04 700.60
  A 0.59 0.59 0.0 0 1 476.18 700.76
  L 474.82 699.73
  Q 474.54 699.52 474.18 699.55
  Q 470.12 699.89 466.12 700.36
  Z"
/>
<path fill="#f0e1c1" d="
  M 477.63 703.19
  L 479.06 700.61
  A 1.52 1.52 0.0 0 1 479.81 699.95
  L 497.07 693.10
  A 0.82 0.82 0.0 0 1 497.94 694.46
  L 484.09 707.50
  A 1.50 1.47 -69.1 0 1 483.22 707.90
  L 424.84 712.89
  A 1.44 1.43 -31.3 0 1 423.92 712.67
  L 416.88 708.36
  Q 416.08 707.87 417.01 707.76
  L 473.24 701.38
  Q 473.84 701.31 474.33 701.66
  L 476.81 703.38
  Q 477.32 703.74 477.63 703.19
  Z"
/>
<path fill="#f0e1c1" d="
  M 439.74 772.63
  L 381.58 758.95
  Q 381.09 758.84 381.09 758.34
  L 381.01 737.50
  A 0.27 0.26 12.9 0 1 381.40 737.26
  Q 406.31 749.98 430.94 762.67
  Q 433.03 763.74 435.34 763.81
  Q 448.00 764.17 460.64 763.79
  Q 462.98 763.72 465.08 762.64
  Q 489.83 749.92 514.54 737.26
  A 0.32 0.32 0.0 0 1 515.00 737.54
  L 515.00 758.20
  Q 515.00 758.73 514.48 758.85
  L 455.89 772.63
  A 1.48 1.45 10.2 0 0 455.01 773.23
  L 448.23 783.28
  A 0.31 0.31 0.0 0 1 447.72 783.29
  L 440.54 773.17
  Q 440.24 772.75 439.74 772.63
  Z"
/>
<path fill="#5b606d" d="
  M 435.25 782.08
  L 434.87 814.84
  A 2.41 2.39 75.4 0 1 433.68 816.88
  Q 431.33 818.25 428.54 819.84
  C 426.16 821.18 425.53 820.36 423.55 819.16
  Q 394.14 801.35 365.23 783.26
  Q 364.00 782.49 364.24 781.06
  L 367.87 759.02
  Q 368.10 757.64 369.47 757.96
  L 438.82 774.39
  A 1.16 1.13 78.5 0 1 439.48 774.84
  L 445.33 783.20
  Q 445.76 783.81 445.03 783.65
  L 435.93 781.55
  A 0.55 0.55 0.0 0 0 435.25 782.08
  Z"
/>
<path fill="#5b606d" d="
  M 460.25 782.07
  A 0.56 0.55 -7.1 0 0 459.56 781.54
  L 450.78 783.73
  Q 450.03 783.92 450.46 783.28
  L 456.01 775.06
  A 1.95 1.94 -79.2 0 1 457.18 774.26
  L 525.72 758.06
  Q 527.55 757.63 527.86 759.49
  L 531.51 781.66
  A 1.39 1.37 69.8 0 1 530.88 783.06
  L 469.96 820.43
  A 1.59 1.58 43.3 0 1 468.37 820.47
  L 461.80 816.87
  A 2.22 2.22 0.0 0 1 460.65 814.96
  L 460.25 782.07
  Z"
/>
<path fill="#4d5360" d="
  M 310.97 788.29
  C 313.88 787.90 317.37 787.91 320.00 787.63
  Q 341.25 785.37 362.68 784.12
  A 1.29 1.28 -30.5 0 1 363.42 784.31
  L 425.69 822.27
  A 1.76 1.75 46.2 0 0 427.45 822.31
  L 435.52 817.93
  A 2.01 1.99 -13.9 0 0 436.57 816.21
  L 437.16 784.28
  A 0.44 0.44 0.0 0 1 437.70 783.86
  L 446.33 785.87
  A 0.72 0.72 0.0 0 1 446.88 786.68
  Q 422.35 950.67 397.79 1114.85
  Q 397.42 1117.34 396.07 1119.46
  Q 387.92 1132.22 379.86 1144.64
  A 1.30 1.29 14.9 0 1 378.83 1145.23
  Q 292.82 1149.18 206.64 1153.12
  C 202.86 1153.29 199.96 1151.85 196.68 1150.48
  A 5.21 5.20 -43.4 0 0 192.94 1150.38
  C 186.47 1152.66 180.29 1155.32 172.94 1154.38
  A 0.56 0.55 4.5 0 1 172.45 1153.81
  Q 173.47 1114.98 174.40 1076.20
  Q 174.53 1071.00 173.64 1065.87
  Q 167.55 1030.53 161.28 994.97
  A 3.65 3.64 54.0 0 1 161.65 992.62
  Q 177.02 963.72 192.31 934.61
  Q 194.22 930.96 195.21 926.93
  Q 211.99 858.30 228.72 789.66
  A 1.02 1.02 0.0 0 1 229.78 788.89
  C 240.44 789.67 250.98 790.11 261.84 791.35
  Q 270.45 792.33 273.75 792.00
  Q 288.99 790.49 304.25 789.17
  Q 305.12 789.09 310.97 788.29
  Z"
/>
<path fill="#4d5360" d="
  M 642.10 816.44
  Q 666.40 817.95 691.78 817.81
  Q 692.37 817.81 692.42 818.39
  L 693.81 833.71
  L 693.51 833.33
  Q 693.04 832.73 692.98 833.49
  C 692.68 837.67 693.50 842.96 693.67 845.80
  C 695.45 876.69 698.31 903.96 700.88 933.00
  Q 701.77 943.08 702.87 949.03
  Q 703.30 951.33 704.82 953.24
  Q 710.65 960.61 717.13 967.37
  Q 728.03 978.75 738.22 989.99
  A 2.52 2.52 0.0 0 1 738.81 992.24
  L 718.99 1078.53
  A 1.56 1.56 0.0 0 1 717.67 1079.73
  C 712.38 1080.42 707.38 1080.99 702.30 1083.02
  Q 671.07 1095.50 639.98 1107.85
  A 1.45 1.43 46.6 0 1 638.83 1107.81
  L 470.06 1025.44
  Q 469.50 1025.17 469.45 1024.56
  L 449.05 786.46
  A 0.61 0.61 0.0 0 1 449.53 785.82
  L 457.76 783.97
  A 0.58 0.57 -6.9 0 1 458.47 784.52
  L 458.97 816.42
  A 1.62 1.61 -76.2 0 0 459.80 817.80
  L 468.56 822.63
  A 0.96 0.95 43.4 0 0 469.52 822.61
  L 532.18 784.32
  A 2.24 2.23 37.8 0 1 534.03 784.09
  Q 584.11 799.64 634.36 815.58
  Q 636.48 816.25 638.19 816.36
  Q 639.99 816.48 642.10 816.44
  Z"
/>
<path fill="#5b606d" d="
  M 447.94 795.13
  L 467.82 1025.20
  A 1.55 1.54 11.0 0 0 468.68 1026.46
  L 568.79 1075.54
  Q 569.67 1075.97 569.90 1076.93
  L 585.98 1145.69
  A 0.24 0.24 0.0 0 1 585.55 1145.87
  L 553.92 1094.74
  A 1.43 1.41 73.7 0 0 552.72 1094.07
  L 403.81 1094.10
  A 0.91 0.91 0.0 0 1 402.91 1093.05
  L 447.39 795.11
  A 0.28 0.28 0.0 0 1 447.94 795.13
  Z"
/>
<path fill="#4f5265" d="
  M 678.98 1169.15
  C 644.78 1169.57 611.36 1169.09 576.34 1169.41
  Q 574.80 1169.43 575.80 1168.27
  L 589.11 1152.77
  A 0.94 0.90 59.8 0 0 589.31 1151.95
  L 572.07 1078.02
  A 0.45 0.44 6.7 0 1 572.70 1077.53
  L 638.36 1109.65
  A 2.35 2.35 0.0 0 0 640.27 1109.72
  L 650.39 1105.68
  A 0.95 0.94 -23.0 0 1 651.60 1106.16
  L 680.13 1168.18
  A 0.77 0.74 -55.1 0 1 680.19 1168.56
  Q 680.11 1169.32 679.52 1169.22
  Q 679.07 1169.15 678.98 1169.15
  Z"
/>
<path fill="#f0e1c1" d="
  M 689.54 1157.02
  L 682.07 1166.58
  Q 681.61 1167.16 681.30 1166.49
  L 653.15 1105.29
  Q 652.92 1104.78 653.44 1104.57
  Q 694.85 1087.72 706.21 1083.44
  Q 708.43 1082.60 713.14 1082.38
  Q 713.66 1082.35 713.89 1082.82
  L 746.13 1149.82
  A 0.38 0.37 -23.4 0 1 745.92 1150.33
  L 713.64 1162.86
  Q 713.09 1163.08 712.52 1162.91
  L 690.51 1156.70
  Q 689.92 1156.53 689.54 1157.02
  Z"
/>
<path fill="#474954" d="
  M 469.80 1170.51
  L 424.83 1170.71
  L 419.04 1136.01
  A 2.66 2.64 -70.0 0 0 418.46 1134.75
  L 400.28 1113.06
  Q 399.97 1112.69 400.04 1112.22
  L 402.41 1096.30
  A 0.54 0.53 4.4 0 1 402.94 1095.85
  L 551.75 1095.83
  A 1.44 1.44 0.0 0 1 552.98 1096.52
  L 586.98 1151.57
  A 0.80 0.78 -40.8 0 1 586.90 1152.49
  L 573.43 1168.17
  A 0.40 0.40 0.0 0 1 572.74 1167.97
  Q 570.14 1152.86 567.56 1137.57
  Q 567.22 1135.57 565.94 1133.99
  Q 557.76 1123.90 549.52 1114.19
  A 1.31 1.29 69.3 0 0 548.54 1113.74
  L 505.84 1113.79
  A 2.91 2.89 -65.3 0 0 503.94 1114.50
  L 471.69 1142.43
  A 2.01 2.00 -20.6 0 0 471.00 1143.94
  Q 470.96 1155.50 471.21 1167.25
  Q 471.26 1169.76 469.80 1170.51
  Z"
/>
<path fill="#f6c159" d="
  M 1246.68 1184.42
  C 1264.26 1197.79 1288.61 1203.02 1310.22 1196.37
  A 0.26 0.25 12.0 0 1 1310.49 1196.78
  C 1286.90 1223.79 1252.20 1229.82 1219.07 1218.25
  Q 1217.92 1217.85 1218.12 1219.05
  C 1220.20 1231.81 1227.77 1243.15 1240.27 1247.38
  A 0.20 0.20 0.0 0 1 1240.22 1247.77
  Q 1220.25 1248.68 1200.51 1246.36
  Q 1189.59 1245.07 1181.00 1240.57
  Q 1179.48 1239.78 1177.51 1235.65
  Q 1177.11 1234.82 1176.92 1235.71
  C 1173.28 1252.09 1189.55 1261.80 1202.52 1265.72
  Q 1219.92 1270.98 1238.17 1270.50
  A 0.29 0.28 -56.4 0 1 1238.28 1271.05
  C 1191.19 1289.63 1139.09 1298.66 1088.53 1295.08
  Q 1000.80 1288.88 936.55 1229.11
  C 933.36 1226.14 929.43 1221.65 925.66 1218.16
  A 1.19 1.18 -68.8 0 1 925.28 1217.29
  L 925.28 1172.01
  Q 925.28 1171.60 925.56 1171.30
  Q 960.99 1133.08 1007.30 1115.05
  Q 1063.19 1093.29 1117.90 1116.35
  C 1129.00 1121.03 1141.61 1128.81 1153.38 1135.12
  C 1194.49 1157.14 1254.13 1175.90 1298.06 1152.79
  Q 1298.61 1152.50 1298.24 1153.00
  C 1286.31 1168.98 1268.09 1184.71 1246.85 1183.94
  Q 1246.01 1183.91 1246.68 1184.42
  Z
  M 1011.60 1128.05
  C 1034.03 1121.58 1057.30 1129.50 1079.51 1136.71
  Q 1080.13 1136.92 1080.32 1136.29
  L 1080.51 1135.68
  Q 1080.65 1135.21 1080.19 1135.05
  C 1058.88 1127.68 1034.86 1120.25 1012.21 1126.08
  C 998.75 1129.54 985.56 1138.28 975.03 1147.78
  Q 974.61 1148.16 974.99 1148.58
  L 975.45 1149.10
  Q 975.86 1149.56 976.33 1149.14
  C 986.35 1140.05 998.76 1131.76 1011.60 1128.05
  Z
  M 1155.94 1153.76
  C 1170.85 1161.19 1185.86 1170.32 1202.99 1168.49
  Q 1204.31 1168.35 1203.59 1166.98
  Q 1203.40 1166.62 1202.98 1166.65
  C 1185.11 1168.04 1172.38 1159.74 1157.42 1152.43
  C 1146.03 1146.86 1132.74 1141.94 1121.13 1148.40
  Q 1120.53 1148.73 1120.74 1149.38
  L 1120.86 1149.74
  A 0.62 0.62 0.0 0 0 1121.74 1150.09
  C 1132.96 1144.04 1145.40 1148.50 1155.94 1153.76
  Z
  M 930.40 1177.99
  Q 943.12 1171.26 955.81 1177.44
  A 0.67 0.67 0.0 0 0 956.78 1176.81
  L 956.76 1176.26
  Q 956.74 1175.74 956.27 1175.54
  Q 941.42 1169.09 927.64 1177.25
  A 0.60 0.60 0.0 0 0 927.44 1178.07
  L 927.77 1178.59
  Q 928.03 1179.00 928.48 1178.83
  Q 929.46 1178.48 930.40 1177.99
  Z
  M 1104.75 1195.09
  C 1085.76 1195.80 1066.28 1193.42 1050.78 1181.86
  A 0.57 0.56 32.6 0 0 1049.94 1182.04
  L 1049.66 1182.58
  Q 1049.36 1183.13 1049.86 1183.50
  C 1066.21 1195.47 1087.39 1197.99 1107.26 1196.94
  Q 1123.00 1196.11 1138.76 1195.91
  Q 1139.34 1195.90 1139.33 1195.33
  L 1139.32 1194.66
  A 0.67 0.67 0.0 0 0 1138.63 1194.00
  Q 1121.68 1194.45 1104.75 1195.09
  Z
  M 929.38 1187.53
  C 934.86 1193.95 942.95 1199.02 951.36 1200.43
  Q 951.93 1200.53 952.03 1199.96
  L 952.12 1199.37
  Q 952.21 1198.84 951.68 1198.72
  Q 939.39 1196.04 930.80 1186.43
  Q 930.08 1185.62 929.33 1186.81
  Q 929.09 1187.19 929.38 1187.53
  Z
  M 1169.69 1191.63
  Q 1210.44 1206.18 1253.13 1198.27
  Q 1253.76 1198.16 1253.75 1197.52
  L 1253.75 1197.05
  Q 1253.74 1196.34 1253.05 1196.47
  Q 1207.29 1204.93 1164.34 1187.64
  Q 1163.95 1187.48 1163.65 1187.58
  Q 1163.21 1187.72 1163.08 1188.07
  A 0.87 0.86 23.0 0 0 1163.53 1189.17
  Q 1166.50 1190.49 1169.69 1191.63
  Z
  M 1009.93 1228.02
  C 1020.38 1226.88 1034.13 1226.44 1043.04 1233.50
  C 1060.93 1247.69 1080.80 1259.50 1104.59 1258.47
  Q 1105.11 1258.45 1105.05 1257.93
  L 1104.99 1257.31
  A 0.52 0.51 85.9 0 0 1104.46 1256.84
  C 1086.07 1257.22 1068.66 1250.20 1054.04 1239.46
  Q 1050.19 1236.64 1046.33 1233.83
  C 1037.52 1227.43 1030.61 1225.38 1019.25 1225.77
  Q 1012.13 1226.02 1009.60 1226.22
  Q 1008.99 1226.27 1009.10 1226.88
  L 1009.20 1227.47
  Q 1009.31 1228.09 1009.93 1228.02
  Z
  M 1031.55 1256.66
  Q 1027.85 1255.25 1023.00 1254.62
  Q 1022.51 1254.56 1022.49 1255.05
  L 1022.47 1255.70
  A 0.51 0.51 0.0 0 0 1022.86 1256.22
  C 1032.16 1258.42 1040.65 1262.53 1050.72 1262.39
  Q 1051.20 1262.38 1051.47 1262.17
  Q 1051.86 1261.86 1051.77 1261.46
  Q 1051.67 1261.00 1051.21 1260.98
  Q 1041.42 1260.43 1031.55 1256.66
  Z"
/>
<path fill="#474954" d="
  M 430.62 1217.30
  C 431.06 1219.02 431.58 1220.73 431.87 1222.47
  Q 450.41 1331.41 468.91 1440.17
  A 0.55 0.54 1.5 0 1 468.25 1440.79
  L 325.04 1408.15
  Q 324.52 1408.03 324.52 1407.50
  Q 324.42 1330.45 324.46 1253.52
  Q 324.47 1244.81 324.33 1233.52
  Q 323.83 1191.76 324.51 1150.02
  Q 324.52 1149.52 325.02 1149.50
  L 380.03 1146.98
  Q 380.55 1146.96 380.84 1146.52
  Q 389.63 1133.04 398.26 1119.54
  C 399.09 1118.23 399.22 1117.36 399.53 1115.84
  Q 399.68 1115.15 400.13 1115.69
  Q 408.11 1125.15 415.91 1134.72
  Q 417.23 1136.34 417.57 1138.41
  Q 419.81 1151.89 422.17 1165.26
  C 422.78 1168.76 422.76 1172.48 423.36 1175.72
  Q 425.61 1187.95 427.57 1200.24
  Q 427.58 1200.29 428.61 1204.18
  C 429.10 1206.06 428.73 1207.78 429.29 1209.68
  C 430.02 1212.19 430.04 1215.08 430.62 1217.30
  Z"
/>
<path fill="#474954" d="
  M 471.95 1215.83
  L 471.62 1215.64
  Q 471.61 1215.63 471.61 1215.61
  Q 471.67 1194.43 471.57 1173.25
  Q 471.57 1172.78 471.98 1172.41
  A 0.98 0.93 70.2 0 0 472.28 1171.73
  L 472.68 1144.11
  Q 472.69 1143.74 472.96 1143.50
  L 505.21 1115.80
  Q 505.61 1115.46 506.13 1115.46
  L 547.73 1115.49
  Q 548.23 1115.49 548.56 1115.88
  Q 556.49 1125.24 564.18 1134.75
  Q 565.47 1136.34 565.81 1138.35
  Q 571.27 1170.59 576.74 1202.77
  Q 596.91 1321.43 617.25 1440.35
  A 0.43 0.43 0.0 0 1 616.73 1440.84
  L 473.02 1408.08
  Q 472.70 1408.01 472.70 1407.68
  Q 472.42 1317.10 472.61 1226.50
  Q 472.61 1222.75 472.14 1216.14
  Q 472.13 1215.93 471.95 1215.83
  Z"
/>
<path fill="#6c5846" d="
  M 1079.51 1136.71
  C 1057.30 1129.50 1034.03 1121.58 1011.60 1128.05
  C 998.76 1131.76 986.35 1140.05 976.33 1149.14
  Q 975.86 1149.56 975.45 1149.10
  L 974.99 1148.58
  Q 974.61 1148.16 975.03 1147.78
  C 985.56 1138.28 998.75 1129.54 1012.21 1126.08
  C 1034.86 1120.25 1058.88 1127.68 1080.19 1135.05
  Q 1080.65 1135.21 1080.51 1135.68
  L 1080.32 1136.29
  Q 1080.13 1136.92 1079.51 1136.71
  Z"
/>
<path fill="#6c5846" d="
  M 1202.99 1168.49
  C 1185.86 1170.32 1170.85 1161.19 1155.94 1153.76
  C 1145.40 1148.50 1132.96 1144.04 1121.74 1150.09
  A 0.62 0.62 0.0 0 1 1120.86 1149.74
  L 1120.74 1149.38
  Q 1120.53 1148.73 1121.13 1148.40
  C 1132.74 1141.94 1146.03 1146.86 1157.42 1152.43
  C 1172.38 1159.74 1185.11 1168.04 1202.98 1166.65
  Q 1203.40 1166.62 1203.59 1166.98
  Q 1204.31 1168.35 1202.99 1168.49
  Z"
/>
<path fill="#4f5265" d="
  M 249.62 1157.11
  Q 246.61 1158.25 243.39 1159.15
  A 0.47 0.46 -8.2 0 1 242.80 1158.71
  L 242.72 1153.82
  Q 242.71 1153.22 243.31 1153.19
  L 322.30 1149.63
  A 0.42 0.42 0.0 0 1 322.74 1150.05
  L 322.75 1168.69
  A 0.69 0.69 0.0 0 1 322.06 1169.38
  L 263.75 1169.25
  A 3.33 3.32 71.5 0 1 261.09 1167.92
  Q 257.56 1163.25 253.74 1158.51
  Q 251.91 1156.24 249.62 1157.11
  Z"
/>
<path fill="#f0e1c1" d="
  M 195.23 1151.88
  L 228.58 1164.83
  Q 229.06 1165.01 229.55 1164.88
  L 251.09 1158.83
  Q 251.63 1158.67 251.98 1159.12
  L 260.12 1169.56
  Q 260.43 1169.95 260.34 1170.44
  L 251.91 1217.47
  Q 251.81 1218.01 251.27 1218.01
  L 177.05 1218.03
  Q 176.62 1218.03 176.53 1217.62
  Q 171.23 1194.12 166.18 1170.78
  Q 165.72 1168.68 166.28 1161.59
  Q 166.32 1161.14 166.74 1161.00
  L 194.26 1151.86
  Q 194.75 1151.69 195.23 1151.88
  Z"
/>
<path fill="#f0e1c1" d="
  M 683.09 1170.45
  L 682.65 1169.66
  Q 682.39 1169.20 682.72 1168.78
  L 690.30 1159.12
  Q 690.65 1158.67 691.19 1158.82
  L 712.74 1164.88
  Q 713.24 1165.02 713.72 1164.84
  L 747.03 1151.86
  A 1.31 1.26 42.6 0 1 747.91 1151.84
  L 775.50 1161.02
  Q 775.98 1161.18 776.04 1161.68
  Q 776.75 1167.62 776.33 1169.52
  Q 771.08 1193.55 765.79 1217.57
  Q 765.69 1218.03 765.22 1218.03
  L 690.08 1218.02
  Q 689.62 1218.02 689.53 1217.57
  L 681.34 1171.77
  Q 681.20 1171.01 681.97 1171.02
  L 682.75 1171.04
  Q 683.43 1171.05 683.09 1170.45
  Z"
/>
<path fill="#f0e1c1" d="
  M 228.69 1162.90
  L 208.73 1155.14
  Q 208.04 1154.88 208.78 1154.84
  L 240.32 1153.39
  Q 240.77 1153.37 240.78 1153.82
  L 240.83 1159.21
  Q 240.84 1159.79 240.28 1159.95
  L 229.68 1162.94
  Q 229.18 1163.09 228.69 1162.90
  Z"
/>
<path fill="#c69060" d="
  M 174.26 1156.68
  L 172.78 1157.13
  A 0.48 0.48 0.0 0 1 172.45 1156.22
  Q 173.30 1155.87 174.23 1156.07
  A 0.32 0.31 42.5 0 1 174.26 1156.68
  Z"
/>
<path fill="#c69060" d="
  M 912.90 1218.40
  L 912.80 1170.71
  A 0.35 0.35 0.0 0 1 912.94 1170.43
  L 917.18 1167.22
  A 0.35 0.35 0.0 0 1 917.74 1167.50
  L 917.73 1221.26
  A 0.35 0.35 0.0 0 1 917.18 1221.55
  L 913.05 1218.68
  A 0.35 0.35 0.0 0 1 912.90 1218.40
  Z"
/>
<path fill="#c69060" d="
  M 924.14 1218.68
  L 919.99 1221.54
  A 0.31 0.31 0.0 0 1 919.50 1221.28
  L 919.50 1167.49
  A 0.31 0.31 0.0 0 1 920.00 1167.24
  L 924.20 1170.46
  A 0.31 0.31 0.0 0 1 924.32 1170.70
  L 924.27 1218.43
  A 0.31 0.31 0.0 0 1 924.14 1218.68
  Z"
/>
<path fill="#c69060" d="
  M 24.57 1170.07
  L 163.19 1170.09
  A 0.63 0.63 0.0 0 1 163.81 1170.59
  L 173.90 1216.66
  A 0.63 0.63 0.0 0 1 173.29 1217.42
  L 24.50 1217.44
  A 0.63 0.63 0.0 0 1 23.87 1216.81
  L 23.94 1170.70
  A 0.63 0.63 0.0 0 1 24.57 1170.07
  Z"
/>
<path fill="#c69060" d="
  M 469.80 1170.51
  L 470.17 1170.64
  Q 470.63 1170.81 470.63 1171.29
  L 470.60 1216.93
  A 0.77 0.77 0.0 0 1 469.82 1217.70
  L 433.20 1217.47
  A 1.33 1.32 84.8 0 1 431.90 1216.38
  Q 427.91 1194.15 424.28 1171.52
  Q 424.24 1171.21 424.34 1171.00
  Q 424.52 1170.62 424.83 1170.71
  L 469.80 1170.51
  Z"
/>
<path fill="#c69060" d="
  M 262.47 1170.99
  L 321.76 1171.01
  A 0.47 0.47 0.0 0 1 322.23 1171.48
  L 322.44 1217.32
  A 0.47 0.47 0.0 0 1 321.97 1217.79
  L 254.33 1217.43
  A 0.47 0.47 0.0 0 1 253.87 1216.88
  L 262.01 1171.38
  A 0.47 0.47 0.0 0 1 262.47 1170.99
  Z"
/>
<path fill="#c69060" d="
  M 686.06 1217.65
  L 581.69 1217.60
  A 0.97 0.97 0.0 0 1 580.73 1216.79
  L 573.19 1172.07
  A 0.97 0.97 0.0 0 1 574.15 1170.94
  L 677.96 1170.99
  A 0.97 0.97 0.0 0 1 678.91 1171.79
  L 687.01 1216.51
  A 0.97 0.97 0.0 0 1 686.06 1217.65
  Z"
/>
<path fill="#c69060" d="
  M 778.21 1170.98
  L 910.68 1170.99
  A 0.34 0.34 0.0 0 1 911.02 1171.33
  L 910.97 1217.66
  A 0.34 0.34 0.0 0 1 910.63 1218.00
  L 767.97 1218.01
  A 0.34 0.34 0.0 0 1 767.64 1217.60
  L 777.88 1171.25
  A 0.34 0.34 0.0 0 1 778.21 1170.98
  Z"
/>
<path fill="#6c5846" d="
  M 930.40 1177.99
  Q 929.46 1178.48 928.48 1178.83
  Q 928.03 1179.00 927.77 1178.59
  L 927.44 1178.07
  A 0.60 0.60 0.0 0 1 927.64 1177.25
  Q 941.42 1169.09 956.27 1175.54
  Q 956.74 1175.74 956.76 1176.26
  L 956.78 1176.81
  A 0.67 0.67 0.0 0 1 955.81 1177.44
  Q 943.12 1171.26 930.40 1177.99
  Z"
/>
<path fill="#6c5846" d="
  M 1050.78 1181.86
  C 1066.28 1193.42 1085.76 1195.80 1104.75 1195.09
  Q 1121.68 1194.45 1138.63 1194.00
  A 0.67 0.67 0.0 0 1 1139.32 1194.66
  L 1139.33 1195.33
  Q 1139.34 1195.90 1138.76 1195.91
  Q 1123.00 1196.11 1107.26 1196.94
  C 1087.39 1197.99 1066.21 1195.47 1049.86 1183.50
  Q 1049.36 1183.13 1049.66 1182.58
  L 1049.94 1182.04
  A 0.57 0.56 32.6 0 1 1050.78 1181.86
  Z"
/>
<path fill="#6c5846" d="
  M 951.36 1200.43
  C 942.95 1199.02 934.86 1193.95 929.38 1187.53
  Q 929.09 1187.19 929.33 1186.81
  Q 930.08 1185.62 930.80 1186.43
  Q 939.39 1196.04 951.68 1198.72
  Q 952.21 1198.84 952.12 1199.37
  L 952.03 1199.96
  Q 951.93 1200.53 951.36 1200.43
  Z"
/>
<path fill="#6c5846" d="
  M 1169.69 1191.63
  Q 1166.50 1190.49 1163.53 1189.17
  A 0.87 0.86 23.0 0 1 1163.08 1188.07
  Q 1163.21 1187.72 1163.65 1187.58
  Q 1163.95 1187.48 1164.34 1187.64
  Q 1207.29 1204.93 1253.05 1196.47
  Q 1253.74 1196.34 1253.75 1197.05
  L 1253.75 1197.52
  Q 1253.76 1198.16 1253.13 1198.27
  Q 1210.44 1206.18 1169.69 1191.63
  Z"
/>
<path fill="#4f5265" d="
  M 297.88 1457.83
  A 0.69 0.69 0.0 0 1 297.02 1457.74
  C 295.45 1456.19 295.13 1454.21 294.45 1452.54
  Q 269.32 1390.78 244.24 1329.00
  Q 242.73 1325.27 242.19 1321.29
  Q 235.27 1270.68 228.44 1220.44
  A 0.59 0.59 0.0 0 1 229.03 1219.77
  L 321.64 1219.45
  A 1.18 1.18 0.0 0 1 322.82 1220.63
  L 322.77 1408.22
  Q 322.76 1409.46 323.97 1409.73
  L 340.29 1413.44
  A 0.63 0.62 6.4 0 1 340.78 1414.05
  L 340.79 1430.24
  Q 340.79 1430.78 340.34 1431.06
  L 297.88 1457.83
  Z"
/>
<path fill="#4f5265" d="
  M 776.60 1384.52
  L 778.14 1390.17
  Q 778.31 1390.77 777.70 1390.65
  L 773.01 1389.78
  Q 771.84 1387.78 768.75 1387.19
  Q 740.85 1381.89 713.01 1376.60
  Q 712.49 1376.50 712.29 1376.99
  L 691.93 1429.50
  A 1.18 1.17 -86.4 0 1 691.14 1430.20
  Q 687.95 1431.01 683.00 1431.05
  Q 650.28 1431.32 617.63 1430.30
  Q 617.33 1430.29 617.28 1429.99
  L 581.70 1220.73
  A 0.63 0.62 -12.6 0 1 582.16 1220.02
  C 584.04 1219.52 586.22 1219.99 587.56 1219.96
  Q 634.78 1219.00 682.00 1219.82
  Q 705.26 1220.22 729.50 1219.87
  A 1.52 1.52 0.0 0 1 730.99 1221.04
  Q 733.98 1233.77 738.07 1246.75
  C 738.99 1249.65 739.61 1253.40 740.41 1256.38
  Q 756.91 1317.92 773.39 1379.46
  Q 773.80 1381.00 774.46 1382.26
  Q 775.18 1383.63 775.96 1384.96
  Q 776.23 1385.41 776.49 1384.96
  Q 776.61 1384.76 776.60 1384.52
  Z"
/>
<path fill="#4f5265" d="
  M 471.02 1220.32
  L 470.95 1408.76
  A 0.84 0.84 0.0 0 0 471.60 1409.58
  L 488.35 1413.40
  A 0.84 0.84 0.0 0 1 489.00 1414.22
  L 489.01 1429.76
  A 0.84 0.84 0.0 0 1 488.16 1430.60
  L 469.82 1430.47
  A 0.84 0.84 0.0 0 1 469.00 1429.78
  L 433.46 1220.86
  A 0.84 0.84 0.0 0 1 434.27 1219.88
  L 470.17 1219.48
  A 0.84 0.84 0.0 0 1 471.02 1220.32
  Z"
/>
<path fill="#6c5846" d="
  M 1043.04 1233.50
  C 1034.13 1226.44 1020.38 1226.88 1009.93 1228.02
  Q 1009.31 1228.09 1009.20 1227.47
  L 1009.10 1226.88
  Q 1008.99 1226.27 1009.60 1226.22
  Q 1012.13 1226.02 1019.25 1225.77
  C 1030.61 1225.38 1037.52 1227.43 1046.33 1233.83
  Q 1050.19 1236.64 1054.04 1239.46
  C 1068.66 1250.20 1086.07 1257.22 1104.46 1256.84
  A 0.52 0.51 85.9 0 1 1104.99 1257.31
  L 1105.05 1257.93
  Q 1105.11 1258.45 1104.59 1258.47
  C 1080.80 1259.50 1060.93 1247.69 1043.04 1233.50
  Z"
/>
<path fill="#6c5846" d="
  M 1031.55 1256.66
  Q 1041.42 1260.43 1051.21 1260.98
  Q 1051.67 1261.00 1051.77 1261.46
  Q 1051.86 1261.86 1051.47 1262.17
  Q 1051.20 1262.38 1050.72 1262.39
  C 1040.65 1262.53 1032.16 1258.42 1022.86 1256.22
  A 0.51 0.51 0.0 0 1 1022.47 1255.70
  L 1022.49 1255.05
  Q 1022.51 1254.56 1023.00 1254.62
  Q 1027.85 1255.25 1031.55 1256.66
  Z"
/>
<path fill="#5b606d" d="
  M 579.96 1537.52
  Q 573.18 1542.00 563.74 1543.37
  Q 529.32 1548.34 497.48 1541.46
  Q 489.00 1539.62 480.12 1533.85
  Q 480.58 1533.07 479.96 1532.53
  Q 478.07 1530.87 477.05 1528.89
  C 476.19 1527.21 474.26 1525.42 473.87 1524.13
  C 469.52 1509.72 478.35 1499.06 486.07 1488.50
  Q 486.38 1488.09 486.35 1487.57
  Q 485.44 1472.54 483.79 1457.61
  Q 483.78 1457.56 482.54 1450.49
  Q 481.62 1445.27 482.53 1439.96
  A 1.15 1.14 -10.6 0 1 483.08 1439.17
  C 485.64 1437.69 488.65 1437.55 490.54 1435.16
  A 0.79 0.72 -28.4 0 0 490.70 1434.70
  L 490.81 1414.89
  A 0.76 0.76 0.0 0 1 491.74 1414.15
  L 545.82 1426.51
  A 1.05 1.05 0.0 0 1 546.63 1427.36
  L 547.43 1432.21
  A 1.20 1.17 7.5 0 0 548.14 1433.11
  L 560.01 1438.19
  A 1.48 1.47 -73.3 0 1 560.88 1439.82
  L 551.82 1486.85
  A 2.06 2.06 0.0 0 0 552.68 1488.93
  Q 567.19 1498.86 578.77 1512.48
  Q 582.96 1517.40 584.74 1524.97
  Q 586.24 1531.41 579.96 1537.52
  Z"
/>
<path fill="#5b606d" d="
  M 431.93 1537.55
  Q 422.82 1542.93 408.62 1544.33
  Q 384.27 1546.74 359.99 1543.57
  C 347.14 1541.90 330.71 1537.27 324.35 1524.88
  Q 325.11 1524.66 325.06 1524.25
  Q 325.01 1523.89 324.65 1523.47
  Q 324.32 1523.08 324.28 1522.58
  C 323.19 1508.94 329.62 1498.33 338.02 1488.37
  Q 338.36 1487.97 338.32 1487.45
  L 334.27 1439.63
  Q 334.21 1438.98 334.82 1438.79
  L 341.51 1436.66
  A 1.69 1.68 81.3 0 0 342.69 1435.05
  L 342.62 1414.94
  Q 342.61 1413.96 343.57 1414.18
  L 397.19 1426.43
  A 1.55 1.55 0.0 0 1 398.38 1427.69
  L 399.11 1432.22
  Q 399.20 1432.75 399.70 1432.97
  L 411.97 1438.37
  A 0.98 0.98 0.0 0 1 412.54 1439.43
  L 403.92 1486.31
  Q 403.81 1486.87 404.08 1487.38
  C 405.06 1489.23 406.51 1489.46 407.75 1490.71
  C 409.94 1492.90 412.76 1494.54 414.80 1496.41
  C 418.32 1499.64 421.83 1502.77 425.05 1506.30
  C 426.38 1507.76 428.12 1508.93 429.18 1510.46
  Q 432.02 1514.55 434.65 1519.89
  Q 438.96 1528.65 431.93 1537.55
  Z"
/>
<path fill="#4f5265" d="
  M 413.40 1430.74
  L 401.45 1430.40
  Q 400.78 1430.38 400.62 1429.73
  L 400.12 1427.61
  Q 399.98 1427.02 400.57 1427.16
  L 413.47 1430.21
  A 0.27 0.27 0.0 0 1 413.40 1430.74
  Z"
/>
<path fill="#4f5265" d="
  M 549.05 1430.20
  L 548.36 1427.61
  A 0.34 0.34 0.0 0 1 548.77 1427.19
  L 560.64 1429.94
  A 0.34 0.34 0.0 0 1 560.56 1430.61
  L 549.38 1430.45
  A 0.34 0.34 0.0 0 1 549.05 1430.20
  Z"
/>
</svg>
