<?xml version="1.0" encoding="UTF-8"?>
<!DOCTYPE svg PUBLIC "-//W3C//DTD SVG 1.1//EN" "http://www.w3.org/Graphics/SVG/1.1/DTD/svg11.dtd">
<svg xmlns="http://www.w3.org/2000/svg" version="1.1" width="466px" height="441px" style="shape-rendering:geometricPrecision; text-rendering:geometricPrecision; image-rendering:optimizeQuality; fill-rule:evenodd; clip-rule:evenodd" xmlns:xlink="http://www.w3.org/1999/xlink">
<g><path style="opacity:0.618" fill="#765d44" d="M 83.5,277.5 C 85.0603,279.156 86.0603,281.156 86.5,283.5C 94.1545,303.143 103.655,321.81 115,339.5C 119.629,345.135 125.129,349.635 131.5,353C 134.432,353.953 137.432,354.453 140.5,354.5C 140.735,355.097 141.235,355.43 142,355.5C 143.011,354.944 143.844,354.278 144.5,353.5C 151.025,362.858 159.691,369.358 170.5,373C 180.899,373.742 191.233,373.242 201.5,371.5C 202.167,370.833 202.833,370.167 203.5,369.5C 208.933,373.957 215.266,376.457 222.5,377C 232.207,377.786 241.874,377.453 251.5,376C 257.364,374.885 262.697,372.718 267.5,369.5C 268.167,370.167 268.833,370.833 269.5,371.5C 282.196,375.631 294.863,375.464 307.5,371C 320.679,365.474 331.845,357.308 341,346.5C 341.696,343.522 342.196,340.522 342.5,337.5C 343.163,339.042 343.83,340.709 344.5,342.5C 345.107,342.376 345.44,342.043 345.5,341.5C 365.938,333.394 377.271,318.394 379.5,296.5C 380.833,295.833 381.833,294.833 382.5,293.5C 382.833,292.833 383.167,292.167 383.5,291.5C 389.022,276.535 391.689,261.035 391.5,245C 392.659,228.402 389.826,212.568 383,197.5C 371.513,178.67 355.346,165.837 334.5,159C 327.221,157.753 319.888,157.253 312.5,157.5C 312.5,157.167 312.5,156.833 312.5,156.5C 314.604,156.799 316.604,156.466 318.5,155.5C 304.919,142.22 289.586,139.887 272.5,148.5C 271.833,147.833 271.167,147.167 270.5,146.5C 262.321,136.645 252.654,134.978 241.5,141.5C 243.16,150.621 245.327,159.621 248,168.5C 249.161,171.185 250.994,173.185 253.5,174.5C 253.833,175.167 254.167,175.833 254.5,176.5C 249.546,175.043 246.38,171.709 245,166.5C 243.379,153.683 240.046,141.35 235,129.5C 231.43,122.595 226.43,116.929 220,112.5C 218.428,122.403 212.595,127.903 202.5,129C 210.373,135.205 217.206,142.372 223,150.5C 225.353,154.444 225.853,158.444 224.5,162.5C 222.391,147.072 213.391,139.572 197.5,140C 189.853,138.818 182.52,139.818 175.5,143C 168.301,146.427 161.634,150.593 155.5,155.5C 153.961,156.767 152.294,157.767 150.5,158.5C 128.376,162.446 111.543,174.112 100,193.5C 93.6269,202.879 90.4602,213.212 90.5,224.5C 89.2584,226.389 89.2584,228.389 90.5,230.5C 85.5036,239.853 83.5036,249.853 84.5,260.5C 84.6633,262.857 84.4966,265.19 84,267.5C 83.8091,265.292 83.3091,263.292 82.5,261.5C 81.6464,251.46 83.1464,241.794 87,232.5C 87.5275,206.279 98.0275,185.112 118.5,169C 128.023,161.907 138.689,157.574 150.5,156C 158.164,150.499 166.164,145.499 174.5,141C 178.057,139.592 181.724,138.592 185.5,138C 193.186,137.627 200.852,137.627 208.5,138C 204.633,133.798 200.467,129.965 196,126.5C 192.388,116.225 195.888,109.392 206.5,106C 209.928,105.299 213.262,105.632 216.5,107C 228.871,114.2 236.871,124.7 240.5,138.5C 253.278,132.687 264.278,135.021 273.5,145.5C 291.833,136.581 307.833,139.748 321.5,155C 339.498,155.668 354.831,162.335 367.5,175C 382.726,187.951 391.226,204.451 393,224.5C 395.749,244.443 394.415,264.109 389,283.5C 387.47,288.892 385.137,293.892 382,298.5C 378.643,321.383 366.143,336.883 344.5,345C 332.29,361.122 316.29,371.789 296.5,377C 286.737,378.048 277.237,376.881 268,373.5C 250.947,379.636 233.447,381.136 215.5,378C 211.156,376.493 206.823,374.993 202.5,373.5C 191.555,376.108 180.555,376.608 169.5,375C 159.552,372.047 151.552,366.38 145.5,358C 133.176,357.587 123.01,352.754 115,343.5C 103.541,326.924 93.8745,309.257 86,290.5C 84.1003,286.368 83.267,282.034 83.5,277.5 Z"/></g>
<g><path style="opacity:1" fill="#f2a83c" d="M 312.5,156.5 C 306.048,156.957 299.714,158.124 293.5,160C 281.716,164.726 270.383,170.226 259.5,176.5C 259.167,176.5 258.833,176.5 258.5,176.5C 257.259,170.447 258.426,164.78 262,159.5C 265.704,155.964 269.204,152.298 272.5,148.5C 289.586,139.887 304.919,142.22 318.5,155.5C 316.604,156.466 314.604,156.799 312.5,156.5 Z"/></g>
<g><path style="opacity:1" fill="#fba422" d="M 224.5,162.5 C 222.238,167.09 219.238,171.09 215.5,174.5C 196.737,164.134 176.737,157.801 155.5,155.5C 161.634,150.593 168.301,146.427 175.5,143C 182.52,139.818 189.853,138.818 197.5,140C 213.391,139.572 222.391,147.072 224.5,162.5 Z"/></g>
<g><path style="opacity:1" fill="#fba422" d="M 270.5,146.5 C 266.902,151.274 263.069,155.94 259,160.5C 257.063,164.646 255.729,168.979 255,173.5C 254.617,174.056 254.117,174.389 253.5,174.5C 250.994,173.185 249.161,171.185 248,168.5C 245.327,159.621 243.16,150.621 241.5,141.5C 252.654,134.978 262.321,136.645 270.5,146.5 Z"/></g>
<g><path style="opacity:1" fill="#57413a" d="M 254.5,176.5 C 260.053,177.943 261.553,181.276 259,186.5C 247.532,197.133 235.032,198.3 221.5,190C 218.667,187.833 215.833,185.667 213,183.5C 212.36,181.735 212.527,180.068 213.5,178.5C 213.527,176.801 214.194,175.467 215.5,174.5C 219.238,171.09 222.238,167.09 224.5,162.5C 225.853,158.444 225.353,154.444 223,150.5C 217.206,142.372 210.373,135.205 202.5,129C 212.595,127.903 218.428,122.403 220,112.5C 226.43,116.929 231.43,122.595 235,129.5C 240.046,141.35 243.379,153.683 245,166.5C 246.38,171.709 249.546,175.043 254.5,176.5 Z"/></g>
<g><path style="opacity:1" fill="#644b40" d="M 208.5,107.5 C 217.078,109.042 219.245,113.709 215,121.5C 209.475,127.192 203.475,127.858 197,123.5C 196.355,114.974 200.189,109.641 208.5,107.5 Z"/></g>
<g><path style="opacity:1" fill="#f2a93c" d="M 150.5,158.5 C 172.644,158.493 193.144,164.159 212,175.5C 212.47,176.577 212.303,177.577 211.5,178.5C 210.662,178.842 210.328,179.508 210.5,180.5C 207.609,181.403 204.609,181.736 201.5,181.5C 173.807,177.418 147.474,181.585 122.5,194C 109.621,202.545 99.1211,213.379 91,226.5C 90.5357,225.906 90.369,225.239 90.5,224.5C 90.4602,213.212 93.6269,202.879 100,193.5C 111.543,174.112 128.376,162.446 150.5,158.5 Z"/></g>
<g><path style="opacity:1" fill="#f2a93c" d="M 312.5,157.5 C 319.888,157.253 327.221,157.753 334.5,159C 355.346,165.837 371.513,178.67 383,197.5C 389.826,212.568 392.659,228.402 391.5,245C 391.689,261.035 389.022,276.535 383.5,291.5C 382.833,281.5 382.167,271.5 381.5,261.5C 376.427,209.428 347.761,181.761 295.5,178.5C 284.403,179.085 273.403,180.419 262.5,182.5C 262.737,181.209 262.404,180.209 261.5,179.5C 261.5,179.167 261.5,178.833 261.5,178.5C 277.1,167.86 294.1,160.86 312.5,157.5 Z"/></g>
<g><path style="opacity:1" fill="#8d6b43" d="M 312.5,156.5 C 312.5,156.833 312.5,157.167 312.5,157.5C 294.1,160.86 277.1,167.86 261.5,178.5C 260.833,177.833 260.167,177.167 259.5,176.5C 270.383,170.226 281.716,164.726 293.5,160C 299.714,158.124 306.048,156.957 312.5,156.5 Z"/></g>
<g><path style="opacity:0.992" fill="#886842" d="M 155.5,155.5 C 176.737,157.801 196.737,164.134 215.5,174.5C 214.194,175.467 213.527,176.801 213.5,178.5C 212.833,178.5 212.167,178.5 211.5,178.5C 212.303,177.577 212.47,176.577 212,175.5C 193.144,164.159 172.644,158.493 150.5,158.5C 152.294,157.767 153.961,156.767 155.5,155.5 Z"/></g>
<g><path style="opacity:1" fill="#8f6b40" d="M 270.5,146.5 C 271.167,147.167 271.833,147.833 272.5,148.5C 269.204,152.298 265.704,155.964 262,159.5C 258.426,164.78 257.259,170.447 258.5,176.5C 257.167,176.5 255.833,176.5 254.5,176.5C 254.167,175.833 253.833,175.167 253.5,174.5C 254.117,174.389 254.617,174.056 255,173.5C 255.729,168.979 257.063,164.646 259,160.5C 263.069,155.94 266.902,151.274 270.5,146.5 Z"/></g>
<g><path style="opacity:1" fill="#715943" d="M 254.5,176.5 C 255.833,176.5 257.167,176.5 258.5,176.5C 258.833,176.5 259.167,176.5 259.5,176.5C 260.167,177.167 260.833,177.833 261.5,178.5C 261.5,178.833 261.5,179.167 261.5,179.5C 261.5,180.833 261.5,182.167 261.5,183.5C 262.791,183.263 263.791,183.596 264.5,184.5C 262.41,184.45 261.077,185.45 260.5,187.5C 261.325,188.386 262.325,188.719 263.5,188.5C 263.158,189.338 262.492,189.672 261.5,189.5C 257.979,189.83 254.979,191.33 252.5,194C 250.975,195.009 249.308,195.509 247.5,195.5C 246.609,196.11 245.609,196.443 244.5,196.5C 241.5,196.5 238.5,196.5 235.5,196.5C 233.343,195.593 231.01,194.927 228.5,194.5C 224.948,193.724 221.614,192.391 218.5,190.5C 217.5,189.5 216.5,188.5 215.5,187.5C 211.927,183.998 207.594,182.664 202.5,183.5C 205.477,183.098 208.143,182.098 210.5,180.5C 210.328,179.508 210.662,178.842 211.5,178.5C 212.167,178.5 212.833,178.5 213.5,178.5C 212.527,180.068 212.36,181.735 213,183.5C 215.833,185.667 218.667,187.833 221.5,190C 235.032,198.3 247.532,197.133 259,186.5C 261.553,181.276 260.053,177.943 254.5,176.5 Z"/></g>
<g><path style="opacity:1" fill="#f3b031" d="M 379.5,296.5 C 377.271,318.394 365.938,333.394 345.5,341.5C 344.534,336.33 344.534,330.997 345.5,325.5C 346.473,323.052 346.806,320.385 346.5,317.5C 351.737,271.678 337.071,233.844 302.5,204C 290.669,195.999 277.669,190.832 263.5,188.5C 262.325,188.719 261.325,188.386 260.5,187.5C 261.077,185.45 262.41,184.45 264.5,184.5C 294.993,175.901 323.326,180.401 349.5,198C 368.399,215.302 378.566,236.802 380,262.5C 380.767,273.867 380.601,285.2 379.5,296.5 Z"/></g>
<g><path style="opacity:1" fill="#a07740" d="M 210.5,180.5 C 208.143,182.098 205.477,183.098 202.5,183.5C 199.287,183.81 196.287,183.477 193.5,182.5C 196.385,182.806 199.052,182.473 201.5,181.5C 204.609,181.736 207.609,181.403 210.5,180.5 Z"/></g>
<g><path style="opacity:1" fill="#f3b031" d="M 193.5,182.5 C 196.287,183.477 199.287,183.81 202.5,183.5C 207.594,182.664 211.927,183.998 215.5,187.5C 186.826,192.589 162.659,205.922 143,227.5C 126.173,251.953 120.173,278.953 125,308.5C 126.994,321.813 130.994,334.48 137,346.5C 138.467,349.266 140.3,351.766 142.5,354C 141.906,354.464 141.239,354.631 140.5,354.5C 137.432,354.453 134.432,353.953 131.5,353C 125.129,349.635 119.629,345.135 115,339.5C 103.655,321.81 94.1545,303.143 86.5,283.5C 86.1178,275.661 85.4512,267.995 84.5,260.5C 83.5036,249.853 85.5036,239.853 90.5,230.5C 107.311,202.076 132.311,186.243 165.5,183C 174.827,182.5 184.161,182.334 193.5,182.5 Z"/></g>
<g><path style="opacity:1" fill="#8c6c41" d="M 201.5,181.5 C 199.052,182.473 196.385,182.806 193.5,182.5C 184.161,182.334 174.827,182.5 165.5,183C 132.311,186.243 107.311,202.076 90.5,230.5C 89.2584,228.389 89.2584,226.389 90.5,224.5C 90.369,225.239 90.5357,225.906 91,226.5C 99.1211,213.379 109.621,202.545 122.5,194C 147.474,181.585 173.807,177.418 201.5,181.5 Z"/></g>
<g><path style="opacity:1" fill="#8a6a42" d="M 215.5,187.5 C 216.5,188.5 217.5,189.5 218.5,190.5C 197.182,192.215 178.182,199.715 161.5,213C 142.502,227.47 131.002,246.636 127,270.5C 123.804,295.458 127.137,319.458 137,342.5C 139.33,346.322 141.83,349.988 144.5,353.5C 143.844,354.278 143.011,354.944 142,355.5C 141.235,355.43 140.735,355.097 140.5,354.5C 141.239,354.631 141.906,354.464 142.5,354C 140.3,351.766 138.467,349.266 137,346.5C 130.994,334.48 126.994,321.813 125,308.5C 120.173,278.953 126.173,251.953 143,227.5C 162.659,205.922 186.826,192.589 215.5,187.5 Z"/></g>
<g><path style="opacity:1" fill="#f2a93c" d="M 218.5,190.5 C 221.614,192.391 224.948,193.724 228.5,194.5C 224.234,199.941 219.734,205.274 215,210.5C 212.667,214.5 210.333,218.5 208,222.5C 202.69,218.284 196.857,217.451 190.5,220C 180.747,227.749 173.247,237.249 168,248.5C 165.698,257.671 167.865,265.504 174.5,272C 176.65,273.411 178.984,274.245 181.5,274.5C 184.287,275.477 187.287,275.81 190.5,275.5C 190.5,277.833 190.5,280.167 190.5,282.5C 190.5,286.167 190.5,289.833 190.5,293.5C 190.666,297.514 190.499,301.514 190,305.5C 189.167,304.667 188.333,303.833 187.5,303C 180.833,302.667 174.167,302.333 167.5,302C 165.004,300.334 162.671,298.5 160.5,296.5C 157.899,288.065 152.399,282.399 144,279.5C 143.228,279.645 142.561,279.978 142,280.5C 141.235,282.066 141.402,283.399 142.5,284.5C 142.5,285.167 142.5,285.833 142.5,286.5C 148.243,303.237 157.909,317.237 171.5,328.5C 174.271,331.392 177.271,334.058 180.5,336.5C 184.302,340.576 188.969,343.409 194.5,345C 195.639,346.78 196.639,348.614 197.5,350.5C 198.093,357.658 199.427,364.658 201.5,371.5C 191.233,373.242 180.899,373.742 170.5,373C 159.691,369.358 151.025,362.858 144.5,353.5C 141.83,349.988 139.33,346.322 137,342.5C 127.137,319.458 123.804,295.458 127,270.5C 131.002,246.636 142.502,227.47 161.5,213C 178.182,199.715 197.182,192.215 218.5,190.5 Z"/></g>
<g><path style="opacity:1" fill="#f2a93c" d="M 261.5,189.5 C 290.786,194.558 312.953,209.892 328,235.5C 338.629,253.017 344.129,272.017 344.5,292.5C 344.5,301.167 344.5,309.833 344.5,318.5C 343.714,324.814 343.047,331.147 342.5,337.5C 342.196,340.522 341.696,343.522 341,346.5C 331.845,357.308 320.679,365.474 307.5,371C 294.863,375.464 282.196,375.631 269.5,371.5C 272.118,362.308 274.118,352.975 275.5,343.5C 275.414,342.504 275.748,341.671 276.5,341C 292.325,333.667 305.992,323.5 317.5,310.5C 324.857,303.471 331.023,295.471 336,286.5C 337.378,282.102 336.212,278.602 332.5,276C 330.288,275.211 328.288,275.378 326.5,276.5C 321.79,278.371 318.124,281.537 315.5,286C 313.5,287.333 311.5,288.667 309.5,290C 303.832,291.427 298.165,292.76 292.5,294C 291.57,295.194 290.903,296.527 290.5,298C 292.233,300.958 293.233,304.125 293.5,307.5C 291.5,307.5 289.5,307.5 287.5,307.5C 288.707,304.054 288.54,300.721 287,297.5C 285.103,295.984 282.936,295.317 280.5,295.5C 279.754,285.807 278.754,276.141 277.5,266.5C 283.167,266.5 288.833,266.5 294.5,266.5C 299.769,266.119 303.269,263.453 305,258.5C 309.937,242.065 306.103,228.232 293.5,217C 286.401,212.21 278.734,211.21 270.5,214C 268.416,214.697 266.749,215.864 265.5,217.5C 265.167,217.5 264.833,217.5 264.5,217.5C 261.064,209.222 255.564,202.555 248,197.5C 247.536,196.906 247.369,196.239 247.5,195.5C 249.308,195.509 250.975,195.009 252.5,194C 254.979,191.33 257.979,189.83 261.5,189.5 Z"/></g>
<g><path style="opacity:1" fill="#fda521" d="M 235.5,196.5 C 238.5,196.5 241.5,196.5 244.5,196.5C 251.914,202.578 258.247,209.578 263.5,217.5C 263.167,218.833 262.833,220.167 262.5,221.5C 255.671,228.312 251.005,236.478 248.5,246C 248.525,247.876 249.191,249.376 250.5,250.5C 251.724,256.058 255.057,259.725 260.5,261.5C 265.453,263.533 270.62,265.2 276,266.5C 276.479,275.7 277.312,284.866 278.5,294C 276.761,297.992 275.428,302.159 274.5,306.5C 274.154,309.43 275.154,311.763 277.5,313.5C 276.088,314.806 274.421,315.64 272.5,316C 267.167,316.667 261.833,316.667 256.5,316C 255.695,311.251 255.195,306.418 255,301.5C 252.424,298.858 249.257,297.358 245.5,297C 235.726,296.144 226.059,296.81 216.5,299C 214.91,300.046 213.41,301.213 212,302.5C 211.667,308.5 211.333,314.5 211,320.5C 205.815,323.75 200.315,324.25 194.5,322C 193.299,321.097 192.465,319.931 192,318.5C 191.5,311.174 191.334,303.841 191.5,296.5C 192.329,289.345 192.829,282.011 193,274.5C 198.888,273.6 204.055,271.267 208.5,267.5C 214.359,264.154 219.526,259.82 224,254.5C 227.652,248.06 226.986,242.06 222,236.5C 219.297,233.629 216.464,230.962 213.5,228.5C 212.527,226.851 211.527,225.184 210.5,223.5C 214.845,213.005 221.512,204.172 230.5,197C 232.134,196.506 233.801,196.34 235.5,196.5 Z"/></g>
<g><path style="opacity:1" fill="#8d6a40" d="M 247.5,195.5 C 247.369,196.239 247.536,196.906 248,197.5C 255.564,202.555 261.064,209.222 264.5,217.5C 264.167,217.5 263.833,217.5 263.5,217.5C 258.247,209.578 251.914,202.578 244.5,196.5C 245.609,196.443 246.609,196.11 247.5,195.5 Z"/></g>
<g><path style="opacity:1" fill="#f0772a" d="M 282.5,264.5 C 280.801,264.66 279.134,264.494 277.5,264C 282.613,261.694 287.113,258.528 291,254.5C 294.487,243.049 292.487,232.716 285,223.5C 282.297,221.098 279.13,219.765 275.5,219.5C 264.92,218.878 264.92,217.378 275.5,215C 284.72,213.296 292.22,216.129 298,223.5C 304.176,233.283 306.176,243.949 304,255.5C 303.242,259.922 300.742,262.755 296.5,264C 291.845,264.499 287.179,264.666 282.5,264.5 Z"/></g>
<g><path style="opacity:0.992" fill="#896a42" d="M 381.5,261.5 C 381.172,272.346 381.506,283.013 382.5,293.5C 381.833,294.833 380.833,295.833 379.5,296.5C 380.601,285.2 380.767,273.867 380,262.5C 378.566,236.802 368.399,215.302 349.5,198C 323.326,180.401 294.993,175.901 264.5,184.5C 263.791,183.596 262.791,183.263 261.5,183.5C 261.5,182.167 261.5,180.833 261.5,179.5C 262.404,180.209 262.737,181.209 262.5,182.5C 273.403,180.419 284.403,179.085 295.5,178.5C 347.761,181.761 376.427,209.428 381.5,261.5 Z"/></g>
<g><path style="opacity:1" fill="#ef772a" d="M 185.5,265.5 C 186.058,266.79 187.058,267.623 188.5,268C 191.817,268.498 195.15,268.665 198.5,268.5C 200.199,268.34 201.866,268.506 203.5,269C 195.426,272.753 187.093,273.753 178.5,272C 169.913,266.412 167.079,258.579 170,248.5C 175.669,237.831 183.169,228.665 192.5,221C 198.572,219.594 203.906,220.928 208.5,225C 195.656,227.686 186.823,235.186 182,247.5C 179.271,254.401 180.438,260.401 185.5,265.5 Z"/></g>
<g><path style="opacity:1" fill="#57413a" d="M 260.5,261.5 C 255.057,259.725 251.724,256.058 250.5,250.5C 250.336,247.813 250.503,245.146 251,242.5C 254.877,235.403 258.711,228.403 262.5,221.5C 277.373,218.024 286.873,223.69 291,238.5C 293.223,251.223 288.056,259.057 275.5,262C 270.512,262.087 265.512,261.92 260.5,261.5 Z"/></g>
<g><path style="opacity:1" fill="#866241" d="M 228.5,194.5 C 231.01,194.927 233.343,195.593 235.5,196.5C 233.801,196.34 232.134,196.506 230.5,197C 221.512,204.172 214.845,213.005 210.5,223.5C 211.527,225.184 212.527,226.851 213.5,228.5C 203.771,226.272 195.938,229.272 190,237.5C 182.38,245.949 180.88,255.283 185.5,265.5C 180.438,260.401 179.271,254.401 182,247.5C 186.823,235.186 195.656,227.686 208.5,225C 203.906,220.928 198.572,219.594 192.5,221C 183.169,228.665 175.669,237.831 170,248.5C 167.079,258.579 169.913,266.412 178.5,272C 187.093,273.753 195.426,272.753 203.5,269C 201.866,268.506 200.199,268.34 198.5,268.5C 201.625,267.521 204.958,267.187 208.5,267.5C 204.055,271.267 198.888,273.6 193,274.5C 192.829,282.011 192.329,289.345 191.5,296.5C 191.737,295.209 191.404,294.209 190.5,293.5C 190.5,289.833 190.5,286.167 190.5,282.5C 191.473,280.052 191.806,277.385 191.5,274.5C 188.167,274.5 184.833,274.5 181.5,274.5C 178.984,274.245 176.65,273.411 174.5,272C 167.865,265.504 165.698,257.671 168,248.5C 173.247,237.249 180.747,227.749 190.5,220C 196.857,217.451 202.69,218.284 208,222.5C 210.333,218.5 212.667,214.5 215,210.5C 219.734,205.274 224.234,199.941 228.5,194.5 Z"/></g>
<g><path style="opacity:1" fill="#8a6240" d="M 294.5,266.5 C 290.5,265.833 286.5,265.167 282.5,264.5C 287.179,264.666 291.845,264.499 296.5,264C 300.742,262.755 303.242,259.922 304,255.5C 306.176,243.949 304.176,233.283 298,223.5C 292.22,216.129 284.72,213.296 275.5,215C 264.92,217.378 264.92,218.878 275.5,219.5C 271.821,219.94 268.488,219.273 265.5,217.5C 266.749,215.864 268.416,214.697 270.5,214C 278.734,211.21 286.401,212.21 293.5,217C 306.103,228.232 309.937,242.065 305,258.5C 303.269,263.453 299.769,266.119 294.5,266.5 Z"/></g>
<g><path style="opacity:1" fill="#654c40" d="M 213.5,228.5 C 216.464,230.962 219.297,233.629 222,236.5C 226.986,242.06 227.652,248.06 224,254.5C 219.526,259.82 214.359,264.154 208.5,267.5C 204.958,267.187 201.625,267.521 198.5,268.5C 195.15,268.665 191.817,268.498 188.5,268C 187.058,267.623 186.058,266.79 185.5,265.5C 180.88,255.283 182.38,245.949 190,237.5C 195.938,229.272 203.771,226.272 213.5,228.5 Z"/></g>
<g><path style="opacity:1" fill="#7a5d40" d="M 262.5,221.5 C 258.711,228.403 254.877,235.403 251,242.5C 250.503,245.146 250.336,247.813 250.5,250.5C 249.191,249.376 248.525,247.876 248.5,246C 251.005,236.478 255.671,228.312 262.5,221.5 Z"/></g>
<g><path style="opacity:0.966" fill="#94713f" d="M 84.5,260.5 C 85.4512,267.995 86.1178,275.661 86.5,283.5C 86.0603,281.156 85.0603,279.156 83.5,277.5C 83.0199,272.178 82.6865,266.845 82.5,261.5C 83.3091,263.292 83.8091,265.292 84,267.5C 84.4966,265.19 84.6633,262.857 84.5,260.5 Z"/></g>
<g><path style="opacity:1" fill="#9b7342" d="M 381.5,261.5 C 382.167,271.5 382.833,281.5 383.5,291.5C 383.167,292.167 382.833,292.833 382.5,293.5C 381.506,283.013 381.172,272.346 381.5,261.5 Z"/></g>
<g><path style="opacity:1" fill="#8b6b42" d="M 263.5,188.5 C 277.669,190.832 290.669,195.999 302.5,204C 337.071,233.844 351.737,271.678 346.5,317.5C 345.833,309.167 345.167,300.833 344.5,292.5C 344.129,272.017 338.629,253.017 328,235.5C 312.953,209.892 290.786,194.558 261.5,189.5C 262.492,189.672 263.158,189.338 263.5,188.5 Z"/></g>
<g><path style="opacity:1" fill="#bb873f" d="M 181.5,274.5 C 184.833,274.5 188.167,274.5 191.5,274.5C 191.806,277.385 191.473,280.052 190.5,282.5C 190.5,280.167 190.5,277.833 190.5,275.5C 187.287,275.81 184.287,275.477 181.5,274.5 Z"/></g>
<g><path style="opacity:1" fill="#57413a" d="M 326.5,276.5 C 333.314,276.49 335.814,279.823 334,286.5C 329.394,294.039 324.061,301.039 318,307.5C 317.517,308.448 317.351,309.448 317.5,310.5C 316.448,310.351 315.448,310.517 314.5,311C 301.389,325.391 285.722,336.058 267.5,343C 262.511,343.499 257.511,343.666 252.5,343.5C 251.071,338.629 249.904,333.629 249,328.5C 240.325,323.652 232.658,324.985 226,332.5C 225.333,335.167 225.333,337.833 226,340.5C 230.554,348.878 228.054,352.378 218.5,351C 218,350.5 217.5,350 217,349.5C 216.667,346.167 216.333,342.833 216,339.5C 215.5,338.333 214.667,337.5 213.5,337C 211.167,336.333 208.833,336.333 206.5,337C 205.199,340.565 203.699,344.065 202,347.5C 201.439,348.022 200.772,348.355 200,348.5C 198.074,346.869 196.24,345.035 194.5,343C 189.804,340.721 185.138,338.555 180.5,336.5C 179.087,333.581 177.087,331.081 174.5,329C 173.552,328.517 172.552,328.351 171.5,328.5C 167.283,322.104 162.449,316.104 157,310.5C 152.22,303.274 148.22,295.608 145,287.5C 144.329,286.748 143.496,286.414 142.5,286.5C 142.5,285.833 142.5,285.167 142.5,284.5C 142.5,283.5 142.5,282.5 142.5,281.5C 145.226,281.264 147.559,282.097 149.5,284C 153.555,288.03 157.221,292.196 160.5,296.5C 161.211,300.382 163.544,302.882 167.5,304C 173.833,304.333 180.167,304.667 186.5,305C 187.025,305.692 187.692,306.192 188.5,306.5C 189.328,310.796 189.828,315.129 190,319.5C 191.109,321.815 192.943,323.315 195.5,324C 200.921,324.839 206.254,324.506 211.5,323C 212,322.5 212.5,322 213,321.5C 213.333,315.5 213.667,309.5 214,303.5C 215.8,301.683 217.966,300.516 220.5,300C 229.476,298.793 238.476,298.46 247.5,299C 249.246,299.471 250.913,300.138 252.5,301C 253.305,305.749 253.805,310.582 254,315.5C 254.903,316.701 256.069,317.535 257.5,318C 263.167,318.667 268.833,318.667 274.5,318C 278.461,317.392 279.961,315.226 279,311.5C 275.859,307.214 276.026,302.88 279.5,298.5C 281.484,297.294 283.484,297.294 285.5,298.5C 286.04,301.858 286.373,305.191 286.5,308.5C 288.765,309.647 291.098,309.814 293.5,309C 294.905,305.337 294.572,301.837 292.5,298.5C 292.529,296.971 293.196,295.804 294.5,295C 301.266,294.967 307.599,293.3 313.5,290C 318.009,285.658 322.342,281.158 326.5,276.5 Z"/></g>
<g><path style="opacity:1" fill="#795e43" d="M 160.5,296.5 C 157.221,292.196 153.555,288.03 149.5,284C 147.559,282.097 145.226,281.264 142.5,281.5C 142.5,282.5 142.5,283.5 142.5,284.5C 141.402,283.399 141.235,282.066 142,280.5C 142.561,279.978 143.228,279.645 144,279.5C 152.399,282.399 157.899,288.065 160.5,296.5 Z"/></g>
<g><path style="opacity:1" fill="#735a43" d="M 142.5,286.5 C 143.496,286.414 144.329,286.748 145,287.5C 148.22,295.608 152.22,303.274 157,310.5C 162.449,316.104 167.283,322.104 171.5,328.5C 157.909,317.237 148.243,303.237 142.5,286.5 Z"/></g>
<g><path style="opacity:1" fill="#765c43" d="M 326.5,276.5 C 328.288,275.378 330.288,275.211 332.5,276C 336.212,278.602 337.378,282.102 336,286.5C 331.023,295.471 324.857,303.471 317.5,310.5C 317.351,309.448 317.517,308.448 318,307.5C 324.061,301.039 329.394,294.039 334,286.5C 335.814,279.823 333.314,276.49 326.5,276.5 Z"/></g>
<g><path style="opacity:1" fill="#b18140" d="M 344.5,292.5 C 345.167,300.833 345.833,309.167 346.5,317.5C 346.806,320.385 346.473,323.052 345.5,325.5C 345.802,322.941 345.468,320.607 344.5,318.5C 344.5,309.833 344.5,301.167 344.5,292.5 Z"/></g>
<g><path style="opacity:1" fill="#795d41" d="M 263.5,217.5 C 263.833,217.5 264.167,217.5 264.5,217.5C 264.833,217.5 265.167,217.5 265.5,217.5C 268.488,219.273 271.821,219.94 275.5,219.5C 279.13,219.765 282.297,221.098 285,223.5C 292.487,232.716 294.487,243.049 291,254.5C 287.113,258.528 282.613,261.694 277.5,264C 279.134,264.494 280.801,264.66 282.5,264.5C 286.5,265.167 290.5,265.833 294.5,266.5C 288.833,266.5 283.167,266.5 277.5,266.5C 278.754,276.141 279.754,285.807 280.5,295.5C 282.936,295.317 285.103,295.984 287,297.5C 288.54,300.721 288.707,304.054 287.5,307.5C 289.5,307.5 291.5,307.5 293.5,307.5C 293.233,304.125 292.233,300.958 290.5,298C 290.903,296.527 291.57,295.194 292.5,294C 298.165,292.76 303.832,291.427 309.5,290C 311.5,288.667 313.5,287.333 315.5,286C 318.124,281.537 321.79,278.371 326.5,276.5C 322.342,281.158 318.009,285.658 313.5,290C 307.599,293.3 301.266,294.967 294.5,295C 293.196,295.804 292.529,296.971 292.5,298.5C 294.572,301.837 294.905,305.337 293.5,309C 291.098,309.814 288.765,309.647 286.5,308.5C 286.373,305.191 286.04,301.858 285.5,298.5C 283.484,297.294 281.484,297.294 279.5,298.5C 276.026,302.88 275.859,307.214 279,311.5C 279.961,315.226 278.461,317.392 274.5,318C 268.833,318.667 263.167,318.667 257.5,318C 256.069,317.535 254.903,316.701 254,315.5C 253.805,310.582 253.305,305.749 252.5,301C 250.913,300.138 249.246,299.471 247.5,299C 238.476,298.46 229.476,298.793 220.5,300C 217.966,300.516 215.8,301.683 214,303.5C 213.667,309.5 213.333,315.5 213,321.5C 212.5,322 212,322.5 211.5,323C 206.254,324.506 200.921,324.839 195.5,324C 192.943,323.315 191.109,321.815 190,319.5C 189.828,315.129 189.328,310.796 188.5,306.5C 187.692,306.192 187.025,305.692 186.5,305C 180.167,304.667 173.833,304.333 167.5,304C 163.544,302.882 161.211,300.382 160.5,296.5C 162.671,298.5 165.004,300.334 167.5,302C 174.167,302.333 180.833,302.667 187.5,303C 188.333,303.833 189.167,304.667 190,305.5C 190.499,301.514 190.666,297.514 190.5,293.5C 191.404,294.209 191.737,295.209 191.5,296.5C 191.334,303.841 191.5,311.174 192,318.5C 192.465,319.931 193.299,321.097 194.5,322C 200.315,324.25 205.815,323.75 211,320.5C 211.333,314.5 211.667,308.5 212,302.5C 213.41,301.213 214.91,300.046 216.5,299C 226.059,296.81 235.726,296.144 245.5,297C 249.257,297.358 252.424,298.858 255,301.5C 255.195,306.418 255.695,311.251 256.5,316C 261.833,316.667 267.167,316.667 272.5,316C 274.421,315.64 276.088,314.806 277.5,313.5C 275.154,311.763 274.154,309.43 274.5,306.5C 275.428,302.159 276.761,297.992 278.5,294C 277.312,284.866 276.479,275.7 276,266.5C 270.62,265.2 265.453,263.533 260.5,261.5C 265.512,261.92 270.512,262.087 275.5,262C 288.056,259.057 293.223,251.223 291,238.5C 286.873,223.69 277.373,218.024 262.5,221.5C 262.833,220.167 263.167,218.833 263.5,217.5 Z"/></g>
<g><path style="opacity:1" fill="#fca421" d="M 252.5,343.5 C 259.504,346.227 266.504,345.893 273.5,342.5C 272.288,351.682 270.288,360.682 267.5,369.5C 262.697,372.718 257.364,374.885 251.5,376C 241.874,377.453 232.207,377.786 222.5,377C 215.266,376.457 208.933,373.957 203.5,369.5C 201.916,363.916 200.582,358.249 199.5,352.5C 199.942,351.261 200.609,350.261 201.5,349.5C 204.159,346.757 205.992,343.423 207,339.5C 209.244,337.006 211.577,337.006 214,339.5C 211.799,350.293 215.965,354.793 226.5,353C 231.213,349.001 231.713,344.501 228,339.5C 226.655,333.691 228.822,329.857 234.5,328C 245.522,325.023 250.356,329.19 249,340.5C 249.422,342.426 250.589,343.426 252.5,343.5 Z"/></g>
<g><path style="opacity:1" fill="#926f42" d="M 344.5,318.5 C 345.468,320.607 345.802,322.941 345.5,325.5C 344.534,330.997 344.534,336.33 345.5,341.5C 345.44,342.043 345.107,342.376 344.5,342.5C 343.83,340.709 343.163,339.042 342.5,337.5C 343.047,331.147 343.714,324.814 344.5,318.5 Z"/></g>
<g><path style="opacity:1" fill="#7d6143" d="M 171.5,328.5 C 172.552,328.351 173.552,328.517 174.5,329C 177.087,331.081 179.087,333.581 180.5,336.5C 177.271,334.058 174.271,331.392 171.5,328.5 Z"/></g>
<g><path style="opacity:1" fill="#745b42" d="M 317.5,310.5 C 305.992,323.5 292.325,333.667 276.5,341C 275.748,341.671 275.414,342.504 275.5,343.5C 274.833,343.167 274.167,342.833 273.5,342.5C 266.504,345.893 259.504,346.227 252.5,343.5C 257.511,343.666 262.511,343.499 267.5,343C 285.722,336.058 301.389,325.391 314.5,311C 315.448,310.517 316.448,310.351 317.5,310.5 Z"/></g>
<g><path style="opacity:1" fill="#8f6b40" d="M 273.5,342.5 C 274.167,342.833 274.833,343.167 275.5,343.5C 274.118,352.975 272.118,362.308 269.5,371.5C 268.833,370.833 268.167,370.167 267.5,369.5C 270.288,360.682 272.288,351.682 273.5,342.5 Z"/></g>
<g><path style="opacity:1" fill="#755b41" d="M 252.5,343.5 C 250.589,343.426 249.422,342.426 249,340.5C 250.356,329.19 245.522,325.023 234.5,328C 228.822,329.857 226.655,333.691 228,339.5C 231.713,344.501 231.213,349.001 226.5,353C 215.965,354.793 211.799,350.293 214,339.5C 211.577,337.006 209.244,337.006 207,339.5C 205.992,343.423 204.159,346.757 201.5,349.5C 200.041,349.433 198.708,349.766 197.5,350.5C 196.639,348.614 195.639,346.78 194.5,345C 188.969,343.409 184.302,340.576 180.5,336.5C 185.138,338.555 189.804,340.721 194.5,343C 196.24,345.035 198.074,346.869 200,348.5C 200.772,348.355 201.439,348.022 202,347.5C 203.699,344.065 205.199,340.565 206.5,337C 208.833,336.333 211.167,336.333 213.5,337C 214.667,337.5 215.5,338.333 216,339.5C 216.333,342.833 216.667,346.167 217,349.5C 217.5,350 218,350.5 218.5,351C 228.054,352.378 230.554,348.878 226,340.5C 225.333,337.833 225.333,335.167 226,332.5C 232.658,324.985 240.325,323.652 249,328.5C 249.904,333.629 251.071,338.629 252.5,343.5 Z"/></g>
<g><path style="opacity:1" fill="#8f6b3f" d="M 201.5,349.5 C 200.609,350.261 199.942,351.261 199.5,352.5C 200.582,358.249 201.916,363.916 203.5,369.5C 202.833,370.167 202.167,370.833 201.5,371.5C 199.427,364.658 198.093,357.658 197.5,350.5C 198.708,349.766 200.041,349.433 201.5,349.5 Z"/></g>
</svg>
