<?xml version="1.0" encoding="UTF-8"?>
<!DOCTYPE svg PUBLIC "-//W3C//DTD SVG 1.1//EN" "http://www.w3.org/Graphics/SVG/1.1/DTD/svg11.dtd">
<svg xmlns="http://www.w3.org/2000/svg" version="1.1" width="250px" height="289px" style="shape-rendering:geometricPrecision; text-rendering:geometricPrecision; image-rendering:optimizeQuality; fill-rule:evenodd; clip-rule:evenodd" xmlns:xlink="http://www.w3.org/1999/xlink">
<g><path style="opacity:0.971" fill="#fdda9c" d="M 141.5,-0.5 C 154.167,-0.5 166.833,-0.5 179.5,-0.5C 205.418,3.58451 220.585,18.5845 225,44.5C 232.069,73.6461 223.569,96.8128 199.5,114C 194.768,116.466 189.768,118.133 184.5,119C 175.785,119.775 167.119,119.608 158.5,118.5C 157.566,115.344 156.899,112.011 156.5,108.5C 157.167,108.167 157.833,107.833 158.5,107.5C 158.842,108.338 159.508,108.672 160.5,108.5C 189.15,106.013 203.317,90.3467 203,61.5C 200.637,40.8033 189.137,28.97 168.5,26C 150.788,23.7924 135.954,29.2924 124,42.5C 118.745,51.7985 117.079,61.7985 119,72.5C 119.673,77.5195 121.34,82.1861 124,86.5C 128.5,91 133,95.5 137.5,100C 141.619,102.726 145.952,104.893 150.5,106.5C 151.833,107.5 153.167,108.5 154.5,109.5C 153.538,112.739 152.205,115.739 150.5,118.5C 126.524,118.021 110.024,106.687 101,84.5C 90.9849,59.5818 94.9849,37.2485 113,17.5C 120.875,8.76589 130.375,2.76589 141.5,-0.5 Z"/></g>
<g><path style="opacity:1" fill="#ffcb6e" d="M 160.5,108.5 C 169.266,107.032 176.766,103.032 183,96.5C 189.309,87.7985 188.976,79.4651 182,71.5C 181.662,77.5035 178.662,81.5035 173,83.5C 173.595,78.6858 174.429,73.8524 175.5,69C 173.95,59.3395 168.284,53.3395 158.5,51C 153.193,49.6716 152.36,50.8383 156,54.5C 156.667,55.8333 156.667,57.1667 156,58.5C 148.17,61.5844 141.837,66.5844 137,73.5C 132.367,87.9108 136.867,98.5775 150.5,105.5C 150.5,105.833 150.5,106.167 150.5,106.5C 145.952,104.893 141.619,102.726 137.5,100C 133,95.5 128.5,91 124,86.5C 121.34,82.1861 119.673,77.5195 119,72.5C 117.079,61.7985 118.745,51.7985 124,42.5C 135.954,29.2924 150.788,23.7924 168.5,26C 189.137,28.97 200.637,40.8033 203,61.5C 203.317,90.3467 189.15,106.013 160.5,108.5 Z"/></g>
<g><path style="opacity:1" fill="#fea523" d="M 160.5,108.5 C 159.508,108.672 158.842,108.338 158.5,107.5C 158.5,106.833 158.833,106.5 159.5,106.5C 169.242,104.423 175.908,98.7565 179.5,89.5C 179.333,89.1667 179.167,88.8333 179,88.5C 175.108,91.9262 170.608,93.7595 165.5,94C 166.717,92.3523 167.55,90.519 168,88.5C 168.667,82.8333 168.667,77.1667 168,71.5C 166.847,68.53 165.18,65.8633 163,63.5C 161.676,69.1604 158.176,72.3271 152.5,73C 150.951,74.214 149.785,75.714 149,77.5C 148.705,83.7455 147.872,89.9122 146.5,96C 146.32,98.8021 147.32,100.969 149.5,102.5C 150.11,103.391 150.443,104.391 150.5,105.5C 136.867,98.5775 132.367,87.9108 137,73.5C 141.837,66.5844 148.17,61.5844 156,58.5C 156.667,57.1667 156.667,55.8333 156,54.5C 152.36,50.8383 153.193,49.6716 158.5,51C 168.284,53.3395 173.95,59.3395 175.5,69C 174.429,73.8524 173.595,78.6858 173,83.5C 178.662,81.5035 181.662,77.5035 182,71.5C 188.976,79.4651 189.309,87.7985 183,96.5C 176.766,103.032 169.266,107.032 160.5,108.5 Z"/></g>
<g><path style="opacity:1" fill="#f3782a" d="M 159.5,106.5 C 161.497,101.383 161.997,96.0496 161,90.5C 158.277,83.935 155.277,83.935 152,90.5C 150.011,94.253 149.178,98.253 149.5,102.5C 147.32,100.969 146.32,98.8021 146.5,96C 147.872,89.9122 148.705,83.7455 149,77.5C 149.785,75.714 150.951,74.214 152.5,73C 158.176,72.3271 161.676,69.1604 163,63.5C 165.18,65.8633 166.847,68.53 168,71.5C 168.667,77.1667 168.667,82.8333 168,88.5C 167.55,90.519 166.717,92.3523 165.5,94C 170.608,93.7595 175.108,91.9262 179,88.5C 179.167,88.8333 179.333,89.1667 179.5,89.5C 175.908,98.7565 169.242,104.423 159.5,106.5 Z"/></g>
<g><path style="opacity:1" fill="#886a51" d="M 159.5,106.5 C 158.833,106.5 158.5,106.833 158.5,107.5C 157.833,107.833 157.167,108.167 156.5,108.5C 155.508,108.328 154.842,108.662 154.5,109.5C 153.167,108.5 151.833,107.5 150.5,106.5C 150.5,106.167 150.5,105.833 150.5,105.5C 150.443,104.391 150.11,103.391 149.5,102.5C 149.178,98.253 150.011,94.253 152,90.5C 155.277,83.935 158.277,83.935 161,90.5C 161.997,96.0496 161.497,101.383 159.5,106.5 Z"/></g>
<g><path style="opacity:1" fill="#efeeec" d="M 156.5,87.5 C 162.133,94.4449 161.8,101.112 155.5,107.5C 151.76,104.367 150.593,100.367 152,95.5C 153.259,92.6441 154.759,89.9774 156.5,87.5 Z"/></g>
<g><path style="opacity:0.94" fill="#fdda9c" d="M 64.5,169.5 C 63.8333,169.5 63.5,169.167 63.5,168.5C 62.8968,165.959 62.8968,163.626 63.5,161.5C 81.7726,159.714 89.2726,149.714 86,131.5C 79.643,118.92 69.4763,114.42 55.5,118C 43.1429,123.215 38.6429,132.382 42,145.5C 44.5501,153.861 50.0501,159.195 58.5,161.5C 59.5729,163.347 59.5729,165.347 58.5,167.5C 58.5,168.167 58.1667,168.5 57.5,168.5C 31.8024,160.958 23.9691,144.624 34,119.5C 38.7831,111.343 45.9498,106.51 55.5,105C 85.7254,101.998 99.2254,115.498 96,145.5C 91.5204,161.33 81.0204,169.33 64.5,169.5 Z"/></g>
<g><path style="opacity:1" fill="#fecb6e" d="M 63.5,161.5 C 63.8333,160.5 64.5,159.833 65.5,159.5C 72.4345,158.728 76.4345,154.561 77.5,147C 77.4567,144.203 76.6234,141.703 75,139.5C 74.8295,141.715 74.1628,143.715 73,145.5C 73.3556,137.207 69.8556,131.207 62.5,127.5C 61.7078,129.465 61.0412,131.465 60.5,133.5C 53.8747,137.417 51.0414,143.083 52,150.5C 52.9354,153.595 54.7687,155.929 57.5,157.5C 58.2341,158.708 58.5674,160.041 58.5,161.5C 50.0501,159.195 44.5501,153.861 42,145.5C 38.6429,132.382 43.1429,123.215 55.5,118C 69.4763,114.42 79.643,118.92 86,131.5C 89.2726,149.714 81.7726,159.714 63.5,161.5 Z"/></g>
<g><path style="opacity:1" fill="#e75a3a" d="M 197.5,196.5 C 193.399,196.57 190.899,194.57 190,190.5C 189.667,179.5 189.333,168.5 189,157.5C 188.632,156.09 187.799,155.09 186.5,154.5C 185.126,155.711 183.626,156.711 182,157.5C 180.75,155.294 178.916,153.961 176.5,153.5C 176.816,156.978 176.316,160.312 175,163.5C 172.733,164.935 170.733,164.602 169,162.5C 165.883,153.449 164.717,144.116 165.5,134.5C 161.478,136.617 157.145,137.95 152.5,138.5C 151.167,138.333 149.833,138.167 148.5,138C 146.983,136.315 145.316,134.815 143.5,133.5C 142.75,146.922 141.25,160.256 139,173.5C 138.528,178.579 136.361,182.746 132.5,186C 126.569,187.925 122.402,186.092 120,180.5C 118.594,167.482 117.094,154.482 115.5,141.5C 113.88,145.082 111.547,148.082 108.5,150.5C 106.63,145.579 105.297,140.579 104.5,135.5C 104.286,133.856 104.62,132.356 105.5,131C 136.3,122.008 166.967,122.508 197.5,132.5C 200.732,152.023 201.899,171.69 201,191.5C 200.777,193.881 199.61,195.547 197.5,196.5 Z"/></g>
<g><path style="opacity:1" fill="#fea625" d="M 65.5,159.5 C 65.5,158.833 65.8333,158.5 66.5,158.5C 70.1347,156.393 72.3014,153.393 73,149.5C 71.4157,150.861 69.5824,151.528 67.5,151.5C 67.6655,147.486 67.4988,143.486 67,139.5C 64.968,137.232 63.6346,137.898 63,141.5C 56.7365,144.536 54.9032,149.202 57.5,155.5C 57.5,156.167 57.5,156.833 57.5,157.5C 54.7687,155.929 52.9354,153.595 52,150.5C 51.0414,143.083 53.8747,137.417 60.5,133.5C 61.0412,131.465 61.7078,129.465 62.5,127.5C 69.8556,131.207 73.3556,137.207 73,145.5C 74.1628,143.715 74.8295,141.715 75,139.5C 76.6234,141.703 77.4567,144.203 77.5,147C 76.4345,154.561 72.4345,158.728 65.5,159.5 Z"/></g>
<g><path style="opacity:1" fill="#d66e51" d="M 194.5,198.5 C 195.332,218.329 195.832,238.329 196,258.5C 207.875,263.186 219.708,268.019 231.5,273C 232.667,274.167 233.833,275.333 235,276.5C 235.749,277.635 235.583,278.635 234.5,279.5C 231.627,280.775 228.627,281.608 225.5,282C 214.167,282.667 202.833,282.667 191.5,282C 187.067,281.579 183.067,280.079 179.5,277.5C 174.26,281.81 168.26,283.31 161.5,282C 158.377,279.506 155.377,277.006 152.5,274.5C 142.812,278.437 133.145,278.437 123.5,274.5C 123.167,274.833 122.833,275.167 122.5,275.5C 127.072,279.929 126.405,283.095 120.5,285C 110.729,286.475 101.395,285.142 92.5,281C 89.7266,277.795 90.3932,275.295 94.5,273.5C 90.8449,272.414 87.1782,272.414 83.5,273.5C 78.258,273.977 73.258,273.144 68.5,271C 67.5494,270.282 67.3828,269.449 68,268.5C 70.3041,266.932 72.8041,265.765 75.5,265C 81.9334,263.597 88.2667,262.43 94.5,261.5C 101.629,259.37 106.962,255.037 110.5,248.5C 109.514,216.525 109.181,184.525 109.5,152.5C 111.836,150.996 113.669,148.996 115,146.5C 114.973,158.997 116.306,171.331 119,183.5C 124.781,189.665 130.781,189.998 137,184.5C 138.927,181.052 140.261,177.385 141,173.5C 142.994,161.579 144.327,149.579 145,137.5C 150.904,141.371 156.904,141.371 163,137.5C 163.547,144.179 164.213,150.845 165,157.5C 166.442,165.976 170.609,167.976 177.5,163.5C 178.189,161.556 178.689,159.556 179,157.5C 179.368,158.91 180.201,159.91 181.5,160.5C 183.149,159.352 184.649,158.019 186,156.5C 187.27,168.096 187.936,179.762 188,191.5C 188.985,194.983 191.151,197.316 194.5,198.5 Z"/></g>
<g><path style="opacity:1" fill="#f1792a" d="M 66.5,158.5 C 67.2583,153.72 65.925,149.72 62.5,146.5C 59.5779,148.767 57.9113,151.767 57.5,155.5C 54.9032,149.202 56.7365,144.536 63,141.5C 63.6346,137.898 64.968,137.232 67,139.5C 67.4988,143.486 67.6655,147.486 67.5,151.5C 69.5824,151.528 71.4157,150.861 73,149.5C 72.3014,153.393 70.1347,156.393 66.5,158.5 Z"/></g>
<g><path style="opacity:1" fill="#875a44" d="M 197.5,196.5 C 196.5,197.167 195.5,197.833 194.5,198.5C 191.151,197.316 188.985,194.983 188,191.5C 187.936,179.762 187.27,168.096 186,156.5C 184.649,158.019 183.149,159.352 181.5,160.5C 180.201,159.91 179.368,158.91 179,157.5C 178.689,159.556 178.189,161.556 177.5,163.5C 170.609,167.976 166.442,165.976 165,157.5C 164.213,150.845 163.547,144.179 163,137.5C 156.904,141.371 150.904,141.371 145,137.5C 144.327,149.579 142.994,161.579 141,173.5C 140.261,177.385 138.927,181.052 137,184.5C 130.781,189.998 124.781,189.665 119,183.5C 116.306,171.331 114.973,158.997 115,146.5C 113.669,148.996 111.836,150.996 109.5,152.5C 108.432,151.566 107.099,151.232 105.5,151.5C 104.699,149.958 104.366,148.292 104.5,146.5C 104.5,142.833 104.5,139.167 104.5,135.5C 105.297,140.579 106.63,145.579 108.5,150.5C 111.547,148.082 113.88,145.082 115.5,141.5C 117.094,154.482 118.594,167.482 120,180.5C 122.402,186.092 126.569,187.925 132.5,186C 136.361,182.746 138.528,178.579 139,173.5C 141.25,160.256 142.75,146.922 143.5,133.5C 145.316,134.815 146.983,136.315 148.5,138C 149.833,138.167 151.167,138.333 152.5,138.5C 157.145,137.95 161.478,136.617 165.5,134.5C 164.717,144.116 165.883,153.449 169,162.5C 170.733,164.602 172.733,164.935 175,163.5C 176.316,160.312 176.816,156.978 176.5,153.5C 178.916,153.961 180.75,155.294 182,157.5C 183.626,156.711 185.126,155.711 186.5,154.5C 187.799,155.09 188.632,156.09 189,157.5C 189.333,168.5 189.667,179.5 190,190.5C 190.899,194.57 193.399,196.57 197.5,196.5 Z"/></g>
<g><path style="opacity:1" fill="#876b53" d="M 66.5,158.5 C 65.8333,158.5 65.5,158.833 65.5,159.5C 64.5,159.833 63.8333,160.5 63.5,161.5C 62.8968,163.626 62.8968,165.959 63.5,168.5C 62.5416,168.047 61.7083,167.381 61,166.5C 60.3292,167.252 59.4959,167.586 58.5,167.5C 59.5729,165.347 59.5729,163.347 58.5,161.5C 58.5674,160.041 58.2341,158.708 57.5,157.5C 57.5,156.833 57.5,156.167 57.5,155.5C 57.9113,151.767 59.5779,148.767 62.5,146.5C 65.925,149.72 67.2583,153.72 66.5,158.5 Z"/></g>
<g><path style="opacity:1" fill="#edebea" d="M 61.5,149.5 C 63.5076,150.616 64.5076,152.449 64.5,155C 63.1897,161.529 61.5231,161.862 59.5,156C 60.0329,153.774 60.6996,151.607 61.5,149.5 Z"/></g>
<g><path style="opacity:0.605" fill="#765945" d="M 156.5,108.5 C 156.899,112.011 157.566,115.344 158.5,118.5C 158.491,121.136 159.825,122.469 162.5,122.5C 175.403,123.447 187.903,126.113 200,130.5C 202.085,147.766 203.585,165.1 204.5,182.5C 205.352,189.461 203.185,195.128 198,199.5C 197.333,218.5 197.333,237.5 198,256.5C 210.325,261.244 222.492,266.411 234.5,272C 240.316,278.615 238.65,282.615 229.5,284C 215.833,286 202.167,286 188.5,284C 185.287,283.394 182.287,282.227 179.5,280.5C 172.87,285.199 165.87,286.032 158.5,283C 156.571,280.562 154.238,278.728 151.5,277.5C 144.225,280.497 136.892,280.831 129.5,278.5C 127.431,278.824 127.098,279.658 128.5,281C 126.619,284.928 123.619,287.428 119.5,288.5C 115.833,288.5 112.167,288.5 108.5,288.5C 101.924,287.429 95.5905,285.262 89.5,282C 87.9837,280.103 87.317,277.936 87.5,275.5C 81.073,276.242 75.073,277.909 69.5,280.5C 64.8904,280.612 61.0571,278.945 58,275.5C 52.9,276.441 47.7333,276.441 42.5,275.5C 42.0995,279.07 40.0995,281.236 36.5,282C 30.5023,282.092 24.5023,281.759 18.5,281C 14.8146,279.717 13.4812,277.383 14.5,274C 12.4731,273.502 10.4731,273.669 8.5,274.5C 4.55463,274.372 1.88796,272.539 0.5,269C 0.776904,267.108 1.7769,265.775 3.5,265C 10.24,264.059 16.9067,262.726 23.5,261C 25.0488,259.786 26.2155,258.286 27,256.5C 28.2855,234.512 28.6188,212.512 28,190.5C 26.5179,185.607 25.6846,180.607 25.5,175.5C 36.3282,172.731 46.9949,170.397 57.5,168.5C 58.1667,168.5 58.5,168.167 58.5,167.5C 59.4959,167.586 60.3292,167.252 61,166.5C 61.7083,167.381 62.5416,168.047 63.5,168.5C 63.5,169.167 63.8333,169.5 64.5,169.5C 65.1522,170.725 66.3189,171.392 68,171.5C 76.4004,172.08 84.5671,173.747 92.5,176.5C 93.1013,188.212 94.1013,199.879 95.5,211.5C 90.8002,225.707 89.3002,240.374 91,255.5C 92.4814,258.08 94.648,258.913 97.5,258C 101.241,256.262 104.408,253.762 107,250.5C 107.131,217.43 106.631,184.43 105.5,151.5C 107.099,151.232 108.432,151.566 109.5,152.5C 109.181,184.525 109.514,216.525 110.5,248.5C 106.962,255.037 101.629,259.37 94.5,261.5C 93.209,261.737 92.209,261.404 91.5,260.5C 90.8783,259.373 90.045,258.373 89,257.5C 88.5001,245.838 88.3335,234.171 88.5,222.5C 89.1667,221.833 89.8333,221.167 90.5,220.5C 91.9513,217.19 92.6179,213.69 92.5,210C 92.0062,199.489 91.3396,188.989 90.5,178.5C 82.0712,175.861 73.4045,174.361 64.5,174C 56.1667,173.333 47.8333,173.333 39.5,174C 35.8989,174.94 32.3989,176.107 29,177.5C 28.2015,181.781 28.7015,185.781 30.5,189.5C 30.5,190.167 30.5,190.833 30.5,191.5C 30.6666,213.169 30.5,234.836 30,256.5C 27.9336,261.626 24.1003,264.459 18.5,265C 13.7709,265.273 9.10424,265.939 4.5,267C 3.48288,268.049 3.31621,269.216 4,270.5C 8.78375,271.143 13.6171,271.809 18.5,272.5C 15.9199,274.713 15.9199,276.88 18.5,279C 25.608,279.924 32.608,279.591 39.5,278C 40.4506,277.282 40.6172,276.449 40,275.5C 38.3905,274.853 36.8905,274.02 35.5,273C 41.2211,272.618 46.8878,273.118 52.5,274.5C 55.5123,273.828 58.5123,273.161 61.5,272.5C 61.2411,275.48 62.5744,277.313 65.5,278C 69.0265,278.69 72.3598,278.19 75.5,276.5C 78.0283,275.065 80.695,274.065 83.5,273.5C 87.1782,272.414 90.8449,272.414 94.5,273.5C 90.3932,275.295 89.7266,277.795 92.5,281C 101.395,285.142 110.729,286.475 120.5,285C 126.405,283.095 127.072,279.929 122.5,275.5C 122.833,275.167 123.167,274.833 123.5,274.5C 133.145,278.437 142.812,278.437 152.5,274.5C 155.377,277.006 158.377,279.506 161.5,282C 168.26,283.31 174.26,281.81 179.5,277.5C 183.067,280.079 187.067,281.579 191.5,282C 202.833,282.667 214.167,282.667 225.5,282C 228.627,281.608 231.627,280.775 234.5,279.5C 235.583,278.635 235.749,277.635 235,276.5C 233.833,275.333 232.667,274.167 231.5,273C 219.708,268.019 207.875,263.186 196,258.5C 195.832,238.329 195.332,218.329 194.5,198.5C 195.5,197.833 196.5,197.167 197.5,196.5C 199.61,195.547 200.777,193.881 201,191.5C 201.899,171.69 200.732,152.023 197.5,132.5C 166.967,122.508 136.3,122.008 105.5,131C 104.62,132.356 104.286,133.856 104.5,135.5C 104.5,139.167 104.5,142.833 104.5,146.5C 103.262,141.667 102.262,136.667 101.5,131.5C 106.409,128.554 111.742,126.387 117.5,125C 128.113,123.355 138.78,122.188 149.5,121.5C 150.127,120.583 150.461,119.583 150.5,118.5C 152.205,115.739 153.538,112.739 154.5,109.5C 154.842,108.662 155.508,108.328 156.5,108.5 Z"/></g>
<g><path style="opacity:1" fill="#855d47" d="M 91.5,260.5 C 92.209,261.404 93.209,261.737 94.5,261.5C 88.2667,262.43 81.9334,263.597 75.5,265C 72.8041,265.765 70.3041,266.932 68,268.5C 67.3828,269.449 67.5494,270.282 68.5,271C 73.258,273.144 78.258,273.977 83.5,273.5C 80.695,274.065 78.0283,275.065 75.5,276.5C 72.5919,275.046 69.5919,273.546 66.5,272C 65.4464,270.612 65.2797,269.112 66,267.5C 73.7579,262.639 82.2579,260.305 91.5,260.5 Z"/></g>
<g><path style="opacity:1" fill="#875b45" d="M 90.5,220.5 C 89.8333,221.167 89.1667,221.833 88.5,222.5C 85.2652,221.405 83.4318,219.072 83,215.5C 82.6667,209.167 82.3333,202.833 82,196.5C 79.9129,197.834 78.4129,199.667 77.5,202C 72.0905,204.92 68.5905,203.42 67,197.5C 66.829,192.467 66.329,187.467 65.5,182.5C 62.1667,183.833 58.8333,183.833 55.5,182.5C 54.0067,190.446 52.84,198.446 52,206.5C 50.5568,213.787 46.3901,216.12 39.5,213.5C 37.5201,211.205 36.3534,208.539 36,205.5C 35.2602,199.842 34.5935,194.175 34,188.5C 32.9609,189.71 31.7942,190.71 30.5,191.5C 30.5,190.833 30.5,190.167 30.5,189.5C 32.1436,187.519 33.8103,185.519 35.5,183.5C 36.047,191.929 37.2136,200.263 39,208.5C 41.7598,213.499 45.0931,213.832 49,209.5C 51.0469,199.605 52.2136,189.605 52.5,179.5C 57.4919,182.053 62.4919,182.053 67.5,179.5C 68.0126,186.794 69.0126,193.961 70.5,201C 72.1667,201.667 73.8333,201.667 75.5,201C 76.9107,198.622 78.0774,196.122 79,193.5C 80.7067,194.138 82.54,194.138 84.5,193.5C 84.1696,201.893 84.6696,210.227 86,218.5C 87.1096,220.037 88.6096,220.703 90.5,220.5 Z"/></g>
<g><path style="opacity:1" fill="#875b45" d="M 127.5,195.5 C 128.978,195.238 130.311,195.571 131.5,196.5C 135.006,204.167 136.506,212.167 136,220.5C 132.974,223.864 129.474,224.364 125.5,222C 123.406,220.745 122.406,218.912 122.5,216.5C 122.792,209.142 124.458,202.142 127.5,195.5 Z"/></g>
<g><path style="opacity:1" fill="#e55a3a" d="M 128.5,198.5 C 129.497,198.47 130.164,198.97 130.5,200C 133.57,206.194 134.736,212.694 134,219.5C 131.791,221.706 129.291,222.04 126.5,220.5C 124.827,212.904 125.494,205.57 128.5,198.5 Z"/></g>
<g><path style="opacity:1" fill="#d56e51" d="M 88.5,222.5 C 88.3335,234.171 88.5001,245.838 89,257.5C 90.045,258.373 90.8783,259.373 91.5,260.5C 82.2579,260.305 73.7579,262.639 66,267.5C 65.2797,269.112 65.4464,270.612 66.5,272C 69.5919,273.546 72.5919,275.046 75.5,276.5C 72.3598,278.19 69.0265,278.69 65.5,278C 62.5744,277.313 61.2411,275.48 61.5,272.5C 58.5123,273.161 55.5123,273.828 52.5,274.5C 46.8878,273.118 41.2211,272.618 35.5,273C 36.8905,274.02 38.3905,274.853 40,275.5C 40.6172,276.449 40.4506,277.282 39.5,278C 32.608,279.591 25.608,279.924 18.5,279C 15.9199,276.88 15.9199,274.713 18.5,272.5C 13.6171,271.809 8.78375,271.143 4,270.5C 3.31621,269.216 3.48288,268.049 4.5,267C 9.10424,265.939 13.7709,265.273 18.5,265C 24.1003,264.459 27.9336,261.626 30,256.5C 30.5,234.836 30.6666,213.169 30.5,191.5C 31.7942,190.71 32.9609,189.71 34,188.5C 34.5935,194.175 35.2602,199.842 36,205.5C 36.3534,208.539 37.5201,211.205 39.5,213.5C 46.3901,216.12 50.5568,213.787 52,206.5C 52.84,198.446 54.0067,190.446 55.5,182.5C 58.8333,183.833 62.1667,183.833 65.5,182.5C 66.329,187.467 66.829,192.467 67,197.5C 68.5905,203.42 72.0905,204.92 77.5,202C 78.4129,199.667 79.9129,197.834 82,196.5C 82.3333,202.833 82.6667,209.167 83,215.5C 83.4318,219.072 85.2652,221.405 88.5,222.5 Z"/></g>
<g><path style="opacity:1" fill="#865c46" d="M 42.5,218.5 C 44.3904,218.297 45.8904,218.963 47,220.5C 50.0332,225.106 51.0332,230.106 50,235.5C 47.3388,238.966 44.3388,239.299 41,236.5C 40.8023,230.445 41.3023,224.445 42.5,218.5 Z"/></g>
<g><path style="opacity:1" fill="#e25a3a" d="M 43.5,221.5 C 46.761,224.056 48.4276,227.556 48.5,232C 48.5699,235.992 46.5699,237.492 42.5,236.5C 42.7509,231.493 43.0843,226.493 43.5,221.5 Z"/></g>
<g><path style="opacity:1" fill="#e75a3a" d="M 90.5,220.5 C 88.6096,220.703 87.1096,220.037 86,218.5C 84.6696,210.227 84.1696,201.893 84.5,193.5C 82.54,194.138 80.7067,194.138 79,193.5C 78.0774,196.122 76.9107,198.622 75.5,201C 73.8333,201.667 72.1667,201.667 70.5,201C 69.0126,193.961 68.0126,186.794 67.5,179.5C 62.4919,182.053 57.4919,182.053 52.5,179.5C 52.2136,189.605 51.0469,199.605 49,209.5C 45.0931,213.832 41.7598,213.499 39,208.5C 37.2136,200.263 36.047,191.929 35.5,183.5C 33.8103,185.519 32.1436,187.519 30.5,189.5C 28.7015,185.781 28.2015,181.781 29,177.5C 32.3989,176.107 35.8989,174.94 39.5,174C 47.8333,173.333 56.1667,173.333 64.5,174C 73.4045,174.361 82.0712,175.861 90.5,178.5C 91.3396,188.989 92.0062,199.489 92.5,210C 92.6179,213.69 91.9513,217.19 90.5,220.5 Z"/></g>
</svg>
