<?xml version="1.0" encoding="UTF-8" standalone="no"?>
<!DOCTYPE svg PUBLIC "-//W3C//DTD SVG 1.1//EN" "http://www.w3.org/Graphics/SVG/1.1/DTD/svg11.dtd">
<svg xmlns="http://www.w3.org/2000/svg" version="1.1" viewBox="0.00 0.00 1086.00 1931.00">
<path fill="#f6aa3a" d="
  M 1086.00 549.83
  L 1086.00 1931.00
  L 0.67 1931.00
  Q 0.79 1418.09 0.62 1168.50
  Q 0.62 1167.69 0.00 1166.66
  L 0.00 539.13
  C 11.54 547.92 22.03 556.45 34.52 561.96
  Q 37.48 563.27 40.69 563.35
  C 70.27 564.06 90.70 543.26 111.10 525.36
  C 128.07 510.47 146.97 501.04 169.75 501.00
  C 209.57 500.92 241.77 530.17 271.54 552.45
  C 276.14 555.89 287.73 563.54 294.16 563.36
  C 329.25 562.35 347.82 534.05 375.19 515.16
  Q 396.40 500.53 421.50 501.01
  C 458.99 501.71 488.96 526.97 516.93 548.59
  C 523.19 553.43 536.56 563.10 544.46 563.32
  C 580.32 564.34 599.66 536.01 625.71 517.33
  C 649.11 500.54 675.67 496.47 703.30 506.21
  Q 720.95 512.42 736.93 523.61
  Q 753.53 535.23 769.59 547.66
  C 775.95 552.59 790.46 563.87 798.66 563.05
  C 815.85 561.34 831.40 551.83 844.02 540.49
  Q 856.35 529.41 869.42 519.19
  C 905.55 490.92 947.36 498.65 982.64 523.37
  Q 1000.14 535.63 1014.51 547.00
  C 1021.26 552.35 1036.10 563.30 1044.47 563.39
  Q 1063.91 563.60 1080.12 553.39
  Q 1084.29 550.77 1086.00 549.83
  Z"
/>
</svg>
